<?xml version="1.0" encoding="UTF-8"?>
<svg xmlns="http://www.w3.org/2000/svg" viewBox="0 0 1200 675" width="1200" height="675" role="img" aria-label="Confidential Dispute Resolution | Settle Smart with PDR COURT">
  <defs>
    <linearGradient id="bg" x1="0%" y1="0%" x2="100%" y2="100%">
      <stop offset="0%" stop-color="#643516"/>
      <stop offset="100%" stop-color="#7d4315"/>
    </linearGradient>
    <linearGradient id="gold" x1="0%" y1="0%" x2="100%" y2="100%">
      <stop offset="0%" stop-color="#ecb478"/>
      <stop offset="100%" stop-color="#faebd6"/>
    </linearGradient>
    <radialGradient id="glow" cx="50%" cy="50%" r="50%">
      <stop offset="0%" stop-color="#ecb478" stop-opacity="0.45"/>
      <stop offset="100%" stop-color="#ecb478" stop-opacity="0"/>
    </radialGradient>
  </defs>
  <rect width="1200" height="675" fill="url(#bg)"/>
  <rect x="-642.9" y="-80" width="131.1" height="875" transform="rotate(18 -642.9 337.5)" fill="#ecb478" opacity="0.11"/><rect x="-505.5" y="-80" width="101.5" height="875" transform="rotate(18 -505.5 337.5)" fill="#ecb478" opacity="0.14"/><rect x="-347.0" y="-80" width="68.4" height="875" transform="rotate(18 -347.0 337.5)" fill="#ecb478" opacity="0.12"/><rect x="-119.4" y="-80" width="90.2" height="875" transform="rotate(18 -119.4 337.5)" fill="#ecb478" opacity="0.17"/><rect x="50.0" y="-80" width="119.2" height="875" transform="rotate(18 50.0 337.5)" fill="#ecb478" opacity="0.12"/><rect x="232.0" y="-80" width="123.5" height="875" transform="rotate(18 232.0 337.5)" fill="#ecb478" opacity="0.12"/><rect x="369.2" y="-80" width="65.2" height="875" transform="rotate(18 369.2 337.5)" fill="#ecb478" opacity="0.06"/><rect x="589.6" y="-80" width="89.1" height="875" transform="rotate(18 589.6 337.5)" fill="#ecb478" opacity="0.11"/><rect x="795.5" y="-80" width="112.4" height="875" transform="rotate(18 795.5 337.5)" fill="#ecb478" opacity="0.14"/><rect x="912.4" y="-80" width="104.5" height="875" transform="rotate(18 912.4 337.5)" fill="#ecb478" opacity="0.11"/><rect x="1092.7" y="-80" width="111.1" height="875" transform="rotate(18 1092.7 337.5)" fill="#ecb478" opacity="0.15"/><rect x="1282.9" y="-80" width="118.5" height="875" transform="rotate(18 1282.9 337.5)" fill="#ecb478" opacity="0.08"/><rect x="1481.2" y="-80" width="110.3" height="875" transform="rotate(18 1481.2 337.5)" fill="#ecb478" opacity="0.13"/><rect x="1654.9" y="-80" width="137.7" height="875" transform="rotate(18 1654.9 337.5)" fill="#ecb478" opacity="0.05"/><rect x="0" y="0" width="1200" height="675" fill="url(#glow)" opacity="0.6"/>
  <g opacity="0.85" transform="translate(1020, 495)">
        <rect x="-46" y="-60" width="92" height="115" fill="#ecb478" opacity="0.18" rx="6"/>
        <path d="M -28 -36 L 28 -36 M -28 -12 L 28 -12 M -28 12 L 18 12 M -28 36 L 28 36" stroke="#faebd6" stroke-width="3" stroke-linecap="round"/>
      </g>
  <g transform="translate(80, 90)">
    <rect x="0" y="0" rx="20" ry="20" width="101" height="38" fill="#ecb478" opacity="0.18" stroke="#ecb478" stroke-width="1.5"/>
    <text x="50.5" y="25" font-family="ui-sans-serif, Inter, sans-serif" font-weight="700" font-size="14" letter-spacing="2.5" fill="#ecb478" text-anchor="middle">ARTICLE</text>
  </g>
  <text x="80" y="465" font-family="ui-sans-serif, -apple-system, Segoe UI, Inter, sans-serif" font-weight="800" font-size="44" fill="#faf8f5" opacity="0.98"><tspan x="80" dy="0">Confidential Dispute</tspan><tspan x="80" dy="56">Resolution | Settle Smart</tspan><tspan x="80" dy="56">with PDR COURT</tspan></text>
  <rect x="0" y="669" width="1200" height="6" fill="url(#gold)"/>
</svg>