<?xml version="1.0" encoding="UTF-8"?>
<svg xmlns="http://www.w3.org/2000/svg" viewBox="0 0 1200 675" width="1200" height="675" role="img" aria-label="What Happened: A Finance Firm Pursues Justice in a Loan Default
Loan Recovery Dispute Settled via ADR in 60 Days">
  <defs>
    <linearGradient id="bg" x1="0%" y1="0%" x2="100%" y2="100%">
      <stop offset="0%" stop-color="#0c0a09"/>
      <stop offset="100%" stop-color="#291813"/>
    </linearGradient>
    <linearGradient id="gold" x1="0%" y1="0%" x2="100%" y2="100%">
      <stop offset="0%" stop-color="#d4862a"/>
      <stop offset="100%" stop-color="#bd6b20"/>
    </linearGradient>
    <radialGradient id="glow" cx="50%" cy="50%" r="50%">
      <stop offset="0%" stop-color="#d4862a" stop-opacity="0.45"/>
      <stop offset="100%" stop-color="#d4862a" stop-opacity="0"/>
    </radialGradient>
  </defs>
  <rect width="1200" height="675" fill="url(#bg)"/>
  <polygon points="-50,290.8 -20,284.2 10,277.6 40,271.1 70,264.9 100,259.1 130,253.9 160,249.3 190,245.4 220,242.5 250,240.4 280,239.3 310,239.2 340,240.1 370,242.0 400,244.8 430,248.4 460,252.8 490,258.0 520,263.7 550,269.8 580,276.2 610,282.8 640,289.5 670,295.9 700,302.1 730,307.9 760,313.1 790,317.7 820,321.4 850,324.4 880,326.4 910,327.4 940,327.5 970,326.5 1000,324.6 1030,321.8 1060,318.1 1090,313.6 1120,308.4 1150,302.7 1180,296.5 1210,290.1 1240,283.5 1250,725 -50,725" fill="#d4862a" opacity="0.08"/><polygon points="-50,396.7 -20,398.9 10,400.2 40,400.8 70,400.4 100,399.3 130,397.4 160,394.7 190,391.3 220,387.2 250,382.7 280,377.7 310,372.4 340,366.9 370,361.4 400,355.8 430,350.5 460,345.5 490,340.8 520,336.7 550,333.2 580,330.3 610,328.2 640,326.9 670,326.4 700,326.8 730,328.0 760,330.0 790,332.7 820,336.1 850,340.2 880,344.8 910,349.8 940,355.1 970,360.6 1000,366.1 1030,371.7 1060,377.0 1090,382.0 1120,386.6 1150,390.7 1180,394.2 1210,397.0 1240,399.1 1250,725 -50,725" fill="#d4862a" opacity="0.13"/><polygon points="-50,443.5 -20,435.7 10,427.4 40,418.7 70,409.8 100,400.9 130,392.2 160,383.9 190,376.2 220,369.3 250,363.3 280,358.3 310,354.5 340,352.0 370,350.7 400,350.8 430,352.2 460,355.0 490,358.9 520,364.0 550,370.2 580,377.3 610,385.0 640,393.4 670,402.1 700,411.0 730,419.9 760,428.6 790,436.9 820,444.5 850,451.4 880,457.4 910,462.3 940,466.0 970,468.5 1000,469.6 1030,469.5 1060,468.0 1090,465.2 1120,461.1 1150,456.0 1180,449.7 1210,442.7 1240,434.8 1250,725 -50,725" fill="#d4862a" opacity="0.18"/><polygon points="-50,493.8 -20,486.7 10,479.6 40,472.6 70,466.1 100,460.0 130,454.5 160,449.8 190,445.9 220,443.0 250,441.1 280,440.2 310,440.4 340,441.7 370,444.0 400,447.3 430,451.5 460,456.5 490,462.2 520,468.4 550,475.2 580,482.2 610,489.3 640,496.4 670,503.3 700,509.8 730,515.9 760,521.3 790,526.0 820,529.8 850,532.6 880,534.5 910,535.3 940,535.1 970,533.7 1000,531.4 1030,528.1 1060,523.8 1090,518.8 1120,513.0 1150,506.7 1180,500.0 1210,493.0 1240,485.9 1250,725 -50,725" fill="#d4862a" opacity="0.23"/><circle cx="300.0" cy="189.0" r="160" fill="url(#glow)"/>
  <g opacity="0.85" transform="translate(1020, 495)">
        <circle r="60" fill="#d4862a" opacity="0.18"/>
        <path d="M -34 6 Q -10 -22 14 6 Q 34 24 14 26 L -22 26 Q -38 24 -34 6 Z" fill="none" stroke="#bd6b20" stroke-width="3" stroke-linejoin="round"/>
      </g>
  <g transform="translate(80, 90)">
    <rect x="0" y="0" rx="20" ry="20" width="134" height="38" fill="#d4862a" opacity="0.18" stroke="#d4862a" stroke-width="1.5"/>
    <text x="67" y="25" font-family="ui-sans-serif, Inter, sans-serif" font-weight="700" font-size="14" letter-spacing="2.5" fill="#d4862a" text-anchor="middle">CASE STUDY</text>
  </g>
  <text x="80" y="465" font-family="ui-sans-serif, -apple-system, Segoe UI, Inter, sans-serif" font-weight="800" font-size="44" fill="#faf8f5" opacity="0.98"><tspan x="80" dy="0">What Happened: A Finance</tspan><tspan x="80" dy="56">Firm Pursues Justice in a</tspan><tspan x="80" dy="56">Loan Default Loan Recovery</tspan></text>
  <rect x="0" y="669" width="1200" height="6" fill="url(#gold)"/>
</svg>