<?xml version="1.0" encoding="UTF-8"?>
<svg xmlns="http://www.w3.org/2000/svg" viewBox="0 0 1200 675" width="1200" height="675" role="img" aria-label="Dispute Resolution Centre | Debt Recovery through Arbitration | Employee Mediation">
  <defs>
    <linearGradient id="bg" x1="0%" y1="0%" x2="100%" y2="100%">
      <stop offset="0%" stop-color="#faf8f5"/>
      <stop offset="100%" stop-color="#f4efe8"/>
    </linearGradient>
    <linearGradient id="gold" x1="0%" y1="0%" x2="100%" y2="100%">
      <stop offset="0%" stop-color="#bd6b20"/>
      <stop offset="100%" stop-color="#9a5518"/>
    </linearGradient>
    <radialGradient id="glow" cx="50%" cy="50%" r="50%">
      <stop offset="0%" stop-color="#bd6b20" stop-opacity="0.45"/>
      <stop offset="100%" stop-color="#bd6b20" stop-opacity="0"/>
    </radialGradient>
  </defs>
  <rect width="1200" height="675" fill="url(#bg)"/>
  <polygon points="-50,311.8 -20,302.5 10,292.7 40,282.7 70,272.7 100,263.0 130,253.6 160,244.9 190,237.0 220,230.2 250,224.5 280,220.2 310,217.2 340,215.7 370,215.7 400,217.2 430,220.1 460,224.5 490,230.1 520,237.0 550,244.8 580,253.5 610,262.9 640,272.7 670,282.7 700,292.7 730,302.4 760,311.8 790,320.4 820,328.2 850,335.0 880,340.6 910,344.9 940,347.8 970,349.2 1000,349.1 1030,347.6 1060,344.5 1090,340.1 1120,334.4 1150,327.5 1180,319.6 1210,310.8 1240,301.4 1250,725 -50,725" fill="#bd6b20" opacity="0.08"/><polygon points="-50,318.3 -20,319.0 10,320.6 40,323.0 70,326.1 100,329.9 130,334.3 160,339.2 190,344.5 220,350.0 250,355.7 280,361.4 310,367.0 340,372.4 370,377.4 400,381.9 430,385.8 460,389.1 490,391.7 520,393.4 550,394.3 580,394.4 610,393.6 640,392.0 670,389.6 700,386.4 730,382.6 760,378.1 790,373.2 820,367.9 850,362.4 880,356.7 910,351.0 940,345.4 970,340.1 1000,335.1 1030,330.6 1060,326.7 1090,323.4 1120,320.9 1150,319.2 1180,318.3 1210,318.3 1240,319.2 1250,725 -50,725" fill="#bd6b20" opacity="0.13"/><polygon points="-50,422.9 -20,432.9 10,442.3 40,451.0 70,458.8 100,465.5 130,470.9 160,475.0 190,477.6 220,478.6 250,478.1 280,476.1 310,472.6 340,467.7 370,461.4 400,454.0 430,445.6 460,436.4 490,426.6 520,416.5 550,406.1 580,395.9 610,385.9 640,376.5 670,367.9 700,360.1 730,353.5 760,348.2 790,344.2 820,341.7 850,340.7 880,341.3 910,343.4 940,347.0 970,352.0 1000,358.3 1030,365.8 1060,374.2 1090,383.4 1120,393.3 1150,403.5 1180,413.8 1210,424.0 1240,434.0 1250,725 -50,725" fill="#bd6b20" opacity="0.18"/><polygon points="-50,553.6 -20,548.0 10,540.8 40,532.0 70,521.9 100,510.8 130,498.7 160,486.1 190,473.2 220,460.3 250,447.6 280,435.6 310,424.4 340,414.2 370,405.4 400,398.1 430,392.5 460,388.7 490,386.8 520,386.8 550,388.8 580,392.6 610,398.3 640,405.6 670,414.4 700,424.6 730,435.8 760,447.9 790,460.6 820,473.5 850,486.4 880,499.0 910,511.0 940,522.2 970,532.2 1000,541.0 1030,548.2 1060,553.7 1090,557.4 1120,559.2 1150,559.1 1180,557.0 1210,553.1 1240,547.3 1250,725 -50,725" fill="#bd6b20" opacity="0.23"/><circle cx="300.0" cy="189.0" r="160" fill="url(#glow)"/>
  <g opacity="0.85" transform="translate(1020, 495)">
        <polygon points="0,-50 43,25 -43,25" fill="none" stroke="#bd6b20" stroke-width="2"/>
        <polygon points="0,-30 26,15 -26,15" fill="#9a5518" opacity="0.4"/>
      </g>
  <g transform="translate(80, 90)">
    <rect x="0" y="0" rx="20" ry="20" width="145" height="38" fill="#bd6b20" opacity="0.18" stroke="#bd6b20" stroke-width="1.5"/>
    <text x="72.5" y="25" font-family="ui-sans-serif, Inter, sans-serif" font-weight="700" font-size="14" letter-spacing="2.5" fill="#bd6b20" text-anchor="middle">INFORMATION</text>
  </g>
  <text x="80" y="465" font-family="ui-sans-serif, -apple-system, Segoe UI, Inter, sans-serif" font-weight="800" font-size="44" fill="#12100e" opacity="0.98"><tspan x="80" dy="0">Dispute Resolution Centre</tspan><tspan x="80" dy="56">| Debt Recovery through</tspan><tspan x="80" dy="56">Arbitration | Employee</tspan></text>
  <rect x="0" y="669" width="1200" height="6" fill="url(#gold)"/>
</svg>