<?xml version="1.0" encoding="UTF-8"?>
<svg xmlns="http://www.w3.org/2000/svg" viewBox="0 0 1200 675" width="1200" height="675" role="img" aria-label="Delhi High Court Upholds Arbitrator's Right to Manage Proceedings: Principles of Natural Justice Unaffected">
  <defs>
    <linearGradient id="bg" x1="0%" y1="0%" x2="100%" y2="100%">
      <stop offset="0%" stop-color="#532d15"/>
      <stop offset="100%" stop-color="#bd6b20"/>
    </linearGradient>
    <linearGradient id="gold" x1="0%" y1="0%" x2="100%" y2="100%">
      <stop offset="0%" stop-color="#e09440"/>
      <stop offset="100%" stop-color="#fdf6ee"/>
    </linearGradient>
    <radialGradient id="glow" cx="50%" cy="50%" r="50%">
      <stop offset="0%" stop-color="#e09440" stop-opacity="0.45"/>
      <stop offset="100%" stop-color="#e09440" stop-opacity="0"/>
    </radialGradient>
  </defs>
  <rect width="1200" height="675" fill="url(#bg)"/>
  <circle cx="28.3" cy="32.6" r="2.75" fill="#e09440" opacity="0.18"/><circle cx="68.9" cy="27.7" r="2.31" fill="#e09440" opacity="0.21"/><circle cx="99.8" cy="29.8" r="3.68" fill="#e09440" opacity="0.18"/><circle cx="136.3" cy="31.7" r="2.97" fill="#e09440" opacity="0.36"/><circle cx="172.7" cy="32.0" r="3.13" fill="#e09440" opacity="0.26"/><circle cx="212.2" cy="27.7" r="3.99" fill="#e09440" opacity="0.29"/><circle cx="243.8" cy="31.6" r="2.21" fill="#e09440" opacity="0.25"/><circle cx="281.1" cy="31.6" r="1.71" fill="#e09440" opacity="0.30"/><circle cx="316.0" cy="27.6" r="3.24" fill="#e09440" opacity="0.26"/><circle cx="355.4" cy="29.3" r="3.75" fill="#e09440" opacity="0.19"/><circle cx="390.6" cy="30.6" r="1.90" fill="#e09440" opacity="0.23"/><circle cx="427.3" cy="31.2" r="2.76" fill="#e09440" opacity="0.27"/><circle cx="464.5" cy="28.8" r="3.44" fill="#e09440" opacity="0.23"/><circle cx="500.8" cy="30.0" r="3.52" fill="#e09440" opacity="0.26"/><circle cx="534.7" cy="28.1" r="2.16" fill="#e09440" opacity="0.27"/><circle cx="570.7" cy="28.4" r="2.93" fill="#e09440" opacity="0.15"/><circle cx="605.9" cy="27.3" r="1.81" fill="#e09440" opacity="0.23"/><circle cx="644.7" cy="30.9" r="3.42" fill="#e09440" opacity="0.25"/><circle cx="676.4" cy="27.9" r="4.00" fill="#e09440" opacity="0.17"/><circle cx="713.7" cy="31.2" r="3.23" fill="#e09440" opacity="0.34"/><circle cx="749.3" cy="27.4" r="1.84" fill="#e09440" opacity="0.34"/><circle cx="788.0" cy="30.4" r="3.99" fill="#e09440" opacity="0.24"/><circle cx="823.0" cy="31.5" r="2.95" fill="#e09440" opacity="0.27"/><circle cx="857.5" cy="32.8" r="2.89" fill="#e09440" opacity="0.35"/><circle cx="891.7" cy="32.6" r="3.72" fill="#e09440" opacity="0.18"/><circle cx="930.7" cy="28.9" r="2.77" fill="#e09440" opacity="0.32"/><circle cx="963.6" cy="29.4" r="2.67" fill="#e09440" opacity="0.16"/><circle cx="1001.4" cy="29.3" r="2.20" fill="#e09440" opacity="0.26"/><circle cx="1036.6" cy="27.3" r="1.74" fill="#e09440" opacity="0.28"/><circle cx="1071.8" cy="28.1" r="2.00" fill="#e09440" opacity="0.22"/><circle cx="1111.3" cy="31.4" r="1.86" fill="#e09440" opacity="0.36"/><circle cx="1144.2" cy="29.2" r="3.74" fill="#e09440" opacity="0.19"/><circle cx="1183.8" cy="31.7" r="2.78" fill="#e09440" opacity="0.22"/><circle cx="32.6" cy="67.4" r="3.10" fill="#e09440" opacity="0.21"/><circle cx="65.7" cy="66.7" r="3.75" fill="#e09440" opacity="0.34"/><circle cx="103.0" cy="67.0" r="1.72" fill="#e09440" opacity="0.31"/><circle cx="140.0" cy="64.9" r="1.89" fill="#e09440" opacity="0.33"/><circle cx="174.8" cy="63.7" r="2.45" fill="#e09440" opacity="0.34"/><circle cx="210.3" cy="67.5" r="3.26" fill="#e09440" opacity="0.21"/><circle cx="244.0" cy="69.0" r="3.44" fill="#e09440" opacity="0.27"/><circle cx="284.1" cy="67.9" r="3.26" fill="#e09440" opacity="0.25"/><circle cx="317.8" cy="65.5" r="4.00" fill="#e09440" opacity="0.17"/><circle cx="353.8" cy="68.0" r="2.68" fill="#e09440" opacity="0.34"/><circle cx="392.0" cy="66.5" r="3.11" fill="#e09440" opacity="0.15"/><circle cx="425.4" cy="68.6" r="2.78" fill="#e09440" opacity="0.27"/><circle cx="463.3" cy="64.6" r="2.09" fill="#e09440" opacity="0.23"/><circle cx="500.6" cy="66.1" r="3.03" fill="#e09440" opacity="0.22"/><circle cx="536.5" cy="68.3" r="3.84" fill="#e09440" opacity="0.28"/><circle cx="571.3" cy="67.7" r="2.88" fill="#e09440" opacity="0.19"/><circle cx="608.9" cy="68.2" r="2.34" fill="#e09440" opacity="0.17"/><circle cx="642.8" cy="67.1" r="1.83" fill="#e09440" opacity="0.25"/><circle cx="680.5" cy="65.4" r="3.96" fill="#e09440" opacity="0.27"/><circle cx="715.5" cy="67.4" r="2.87" fill="#e09440" opacity="0.33"/><circle cx="750.7" cy="67.5" r="1.78" fill="#e09440" opacity="0.32"/><circle cx="785.2" cy="68.4" r="2.40" fill="#e09440" opacity="0.23"/><circle cx="822.6" cy="65.7" r="1.87" fill="#e09440" opacity="0.23"/><circle cx="858.6" cy="65.4" r="3.42" fill="#e09440" opacity="0.16"/><circle cx="891.9" cy="64.6" r="4.00" fill="#e09440" opacity="0.30"/><circle cx="931.9" cy="68.9" r="1.70" fill="#e09440" opacity="0.30"/><circle cx="965.2" cy="66.5" r="3.20" fill="#e09440" opacity="0.31"/><circle cx="1002.4" cy="68.2" r="1.67" fill="#e09440" opacity="0.29"/><circle cx="1035.1" cy="63.0" r="4.00" fill="#e09440" opacity="0.19"/><circle cx="1073.3" cy="64.3" r="3.34" fill="#e09440" opacity="0.25"/><circle cx="1111.7" cy="63.5" r="2.90" fill="#e09440" opacity="0.17"/><circle cx="1145.7" cy="68.8" r="2.79" fill="#e09440" opacity="0.33"/><circle cx="1184.5" cy="64.9" r="2.04" fill="#e09440" opacity="0.26"/><circle cx="29.4" cy="100.3" r="2.03" fill="#e09440" opacity="0.22"/><circle cx="66.5" cy="104.6" r="1.68" fill="#e09440" opacity="0.25"/><circle cx="100.3" cy="104.0" r="3.55" fill="#e09440" opacity="0.29"/><circle cx="138.5" cy="101.5" r="2.06" fill="#e09440" opacity="0.25"/><circle cx="175.2" cy="100.1" r="3.44" fill="#e09440" opacity="0.28"/><circle cx="211.5" cy="104.9" r="3.75" fill="#e09440" opacity="0.22"/><circle cx="243.6" cy="100.2" r="2.42" fill="#e09440" opacity="0.17"/><circle cx="281.5" cy="101.8" r="3.89" fill="#e09440" opacity="0.32"/><circle cx="319.6" cy="102.0" r="3.20" fill="#e09440" opacity="0.23"/><circle cx="351.6" cy="101.9" r="1.93" fill="#e09440" opacity="0.19"/><circle cx="391.8" cy="100.3" r="1.68" fill="#e09440" opacity="0.28"/><circle cx="428.8" cy="102.5" r="2.46" fill="#e09440" opacity="0.30"/><circle cx="460.6" cy="104.5" r="2.28" fill="#e09440" opacity="0.21"/><circle cx="495.1" cy="104.2" r="2.31" fill="#e09440" opacity="0.28"/><circle cx="531.3" cy="104.0" r="2.79" fill="#e09440" opacity="0.18"/><circle cx="571.2" cy="100.5" r="3.81" fill="#e09440" opacity="0.27"/><circle cx="603.2" cy="99.1" r="2.00" fill="#e09440" opacity="0.29"/><circle cx="644.4" cy="102.9" r="3.74" fill="#e09440" opacity="0.18"/><circle cx="676.9" cy="104.3" r="3.74" fill="#e09440" opacity="0.16"/><circle cx="716.3" cy="100.6" r="1.81" fill="#e09440" opacity="0.24"/><circle cx="747.2" cy="101.2" r="3.50" fill="#e09440" opacity="0.25"/><circle cx="787.6" cy="102.0" r="1.79" fill="#e09440" opacity="0.30"/><circle cx="823.1" cy="99.5" r="1.79" fill="#e09440" opacity="0.24"/><circle cx="855.7" cy="103.3" r="1.97" fill="#e09440" opacity="0.23"/><circle cx="893.2" cy="104.0" r="3.03" fill="#e09440" opacity="0.19"/><circle cx="929.2" cy="104.8" r="3.09" fill="#e09440" opacity="0.17"/><circle cx="966.2" cy="103.8" r="3.02" fill="#e09440" opacity="0.22"/><circle cx="1004.8" cy="104.1" r="3.72" fill="#e09440" opacity="0.28"/><circle cx="1036.5" cy="103.9" r="3.67" fill="#e09440" opacity="0.26"/><circle cx="1073.1" cy="100.3" r="3.34" fill="#e09440" opacity="0.34"/><circle cx="1110.9" cy="99.3" r="2.23" fill="#e09440" opacity="0.21"/><circle cx="1146.2" cy="102.8" r="3.28" fill="#e09440" opacity="0.21"/><circle cx="1181.1" cy="102.2" r="2.86" fill="#e09440" opacity="0.23"/><circle cx="31.7" cy="140.2" r="3.47" fill="#e09440" opacity="0.23"/><circle cx="67.2" cy="136.0" r="3.38" fill="#e09440" opacity="0.19"/><circle cx="101.1" cy="140.5" r="3.38" fill="#e09440" opacity="0.34"/><circle cx="136.4" cy="138.5" r="1.79" fill="#e09440" opacity="0.23"/><circle cx="175.3" cy="137.9" r="1.72" fill="#e09440" opacity="0.31"/><circle cx="210.3" cy="137.6" r="3.01" fill="#e09440" opacity="0.21"/><circle cx="243.7" cy="139.8" r="3.05" fill="#e09440" opacity="0.32"/><circle cx="281.9" cy="135.3" r="3.19" fill="#e09440" opacity="0.21"/><circle cx="319.0" cy="137.2" r="2.29" fill="#e09440" opacity="0.22"/><circle cx="354.0" cy="140.0" r="2.95" fill="#e09440" opacity="0.34"/><circle cx="387.1" cy="136.2" r="1.83" fill="#e09440" opacity="0.33"/><circle cx="423.3" cy="140.4" r="2.90" fill="#e09440" opacity="0.24"/><circle cx="460.8" cy="136.6" r="2.99" fill="#e09440" opacity="0.30"/><circle cx="496.8" cy="140.1" r="3.64" fill="#e09440" opacity="0.16"/><circle cx="536.9" cy="135.7" r="2.01" fill="#e09440" opacity="0.35"/><circle cx="567.4" cy="139.1" r="3.93" fill="#e09440" opacity="0.27"/><circle cx="607.4" cy="135.8" r="3.33" fill="#e09440" opacity="0.27"/><circle cx="639.4" cy="135.5" r="1.82" fill="#e09440" opacity="0.35"/><circle cx="675.5" cy="139.8" r="3.97" fill="#e09440" opacity="0.33"/><circle cx="712.9" cy="140.6" r="2.69" fill="#e09440" opacity="0.21"/><circle cx="747.6" cy="140.0" r="2.31" fill="#e09440" opacity="0.32"/><circle cx="788.4" cy="139.7" r="2.55" fill="#e09440" opacity="0.20"/><circle cx="821.1" cy="139.8" r="3.50" fill="#e09440" opacity="0.17"/><circle cx="860.5" cy="136.5" r="3.55" fill="#e09440" opacity="0.33"/><circle cx="894.3" cy="139.7" r="3.56" fill="#e09440" opacity="0.32"/><circle cx="932.0" cy="138.0" r="3.46" fill="#e09440" opacity="0.22"/><circle cx="966.6" cy="137.9" r="3.85" fill="#e09440" opacity="0.34"/><circle cx="1000.2" cy="137.9" r="2.62" fill="#e09440" opacity="0.20"/><circle cx="1037.1" cy="140.7" r="3.28" fill="#e09440" opacity="0.31"/><circle cx="1076.2" cy="138.3" r="3.89" fill="#e09440" opacity="0.17"/><circle cx="1112.8" cy="138.2" r="2.69" fill="#e09440" opacity="0.27"/><circle cx="1143.1" cy="136.0" r="2.14" fill="#e09440" opacity="0.24"/><circle cx="1184.5" cy="136.9" r="3.37" fill="#e09440" opacity="0.32"/><circle cx="28.0" cy="176.7" r="2.16" fill="#e09440" opacity="0.29"/><circle cx="68.3" cy="171.3" r="2.60" fill="#e09440" opacity="0.25"/><circle cx="101.3" cy="172.8" r="2.53" fill="#e09440" opacity="0.35"/><circle cx="139.5" cy="172.2" r="1.73" fill="#e09440" opacity="0.28"/><circle cx="173.9" cy="171.3" r="2.25" fill="#e09440" opacity="0.26"/><circle cx="211.0" cy="172.2" r="2.44" fill="#e09440" opacity="0.25"/><circle cx="244.9" cy="173.3" r="2.08" fill="#e09440" opacity="0.21"/><circle cx="284.6" cy="175.3" r="3.89" fill="#e09440" opacity="0.26"/><circle cx="319.2" cy="175.5" r="3.90" fill="#e09440" opacity="0.16"/><circle cx="356.9" cy="174.8" r="3.24" fill="#e09440" opacity="0.35"/><circle cx="392.0" cy="172.7" r="3.94" fill="#e09440" opacity="0.31"/><circle cx="424.4" cy="176.5" r="1.99" fill="#e09440" opacity="0.24"/><circle cx="463.2" cy="171.7" r="3.25" fill="#e09440" opacity="0.15"/><circle cx="497.6" cy="173.6" r="2.46" fill="#e09440" opacity="0.25"/><circle cx="533.0" cy="175.5" r="3.81" fill="#e09440" opacity="0.33"/><circle cx="568.0" cy="173.9" r="2.59" fill="#e09440" opacity="0.23"/><circle cx="607.1" cy="176.0" r="1.80" fill="#e09440" opacity="0.16"/><circle cx="643.1" cy="173.3" r="1.67" fill="#e09440" opacity="0.19"/><circle cx="677.9" cy="172.0" r="3.21" fill="#e09440" opacity="0.34"/><circle cx="714.9" cy="175.6" r="2.45" fill="#e09440" opacity="0.15"/><circle cx="748.3" cy="175.4" r="3.75" fill="#e09440" opacity="0.23"/><circle cx="783.4" cy="176.6" r="1.92" fill="#e09440" opacity="0.15"/><circle cx="821.6" cy="171.9" r="4.00" fill="#e09440" opacity="0.16"/><circle cx="855.2" cy="172.2" r="1.62" fill="#e09440" opacity="0.26"/><circle cx="892.5" cy="174.5" r="2.51" fill="#e09440" opacity="0.23"/><circle cx="929.1" cy="175.5" r="2.71" fill="#e09440" opacity="0.28"/><circle cx="964.2" cy="176.8" r="3.47" fill="#e09440" opacity="0.18"/><circle cx="1003.0" cy="175.4" r="1.79" fill="#e09440" opacity="0.25"/><circle cx="1035.9" cy="174.3" r="3.18" fill="#e09440" opacity="0.21"/><circle cx="1071.8" cy="172.5" r="2.41" fill="#e09440" opacity="0.36"/><circle cx="1111.2" cy="172.2" r="2.86" fill="#e09440" opacity="0.16"/><circle cx="1144.7" cy="174.9" r="3.02" fill="#e09440" opacity="0.20"/><circle cx="1183.4" cy="174.5" r="1.90" fill="#e09440" opacity="0.27"/><circle cx="30.8" cy="211.8" r="1.61" fill="#e09440" opacity="0.24"/><circle cx="66.9" cy="207.6" r="1.81" fill="#e09440" opacity="0.21"/><circle cx="100.2" cy="208.8" r="2.92" fill="#e09440" opacity="0.25"/><circle cx="139.8" cy="209.1" r="3.31" fill="#e09440" opacity="0.25"/><circle cx="171.3" cy="208.7" r="2.05" fill="#e09440" opacity="0.24"/><circle cx="209.1" cy="209.8" r="3.80" fill="#e09440" opacity="0.29"/><circle cx="244.7" cy="211.3" r="2.95" fill="#e09440" opacity="0.25"/><circle cx="282.5" cy="209.5" r="2.00" fill="#e09440" opacity="0.28"/><circle cx="320.6" cy="208.1" r="2.81" fill="#e09440" opacity="0.22"/><circle cx="351.4" cy="208.1" r="2.00" fill="#e09440" opacity="0.31"/><circle cx="392.7" cy="208.1" r="2.32" fill="#e09440" opacity="0.32"/><circle cx="426.5" cy="207.9" r="1.80" fill="#e09440" opacity="0.17"/><circle cx="462.4" cy="207.3" r="3.04" fill="#e09440" opacity="0.33"/><circle cx="498.2" cy="208.4" r="3.76" fill="#e09440" opacity="0.20"/><circle cx="532.3" cy="211.6" r="2.19" fill="#e09440" opacity="0.19"/><circle cx="568.5" cy="207.7" r="1.74" fill="#e09440" opacity="0.17"/><circle cx="608.6" cy="209.5" r="2.70" fill="#e09440" opacity="0.34"/><circle cx="642.1" cy="209.3" r="3.34" fill="#e09440" opacity="0.22"/><circle cx="678.3" cy="207.0" r="2.58" fill="#e09440" opacity="0.27"/><circle cx="716.3" cy="207.6" r="2.62" fill="#e09440" opacity="0.20"/><circle cx="748.0" cy="211.8" r="2.28" fill="#e09440" opacity="0.26"/><circle cx="787.5" cy="208.9" r="2.58" fill="#e09440" opacity="0.26"/><circle cx="824.8" cy="207.5" r="2.42" fill="#e09440" opacity="0.21"/><circle cx="861.0" cy="210.2" r="2.54" fill="#e09440" opacity="0.28"/><circle cx="894.8" cy="210.6" r="2.59" fill="#e09440" opacity="0.24"/><circle cx="931.1" cy="210.8" r="3.73" fill="#e09440" opacity="0.36"/><circle cx="967.7" cy="207.0" r="2.47" fill="#e09440" opacity="0.20"/><circle cx="1000.5" cy="208.6" r="2.87" fill="#e09440" opacity="0.21"/><circle cx="1037.3" cy="213.0" r="1.67" fill="#e09440" opacity="0.18"/><circle cx="1073.2" cy="212.8" r="3.03" fill="#e09440" opacity="0.35"/><circle cx="1112.9" cy="212.7" r="3.75" fill="#e09440" opacity="0.21"/><circle cx="1144.8" cy="211.0" r="2.99" fill="#e09440" opacity="0.17"/><circle cx="1184.2" cy="211.1" r="1.67" fill="#e09440" opacity="0.34"/><circle cx="31.2" cy="246.4" r="2.17" fill="#e09440" opacity="0.21"/><circle cx="65.1" cy="243.1" r="1.81" fill="#e09440" opacity="0.28"/><circle cx="101.6" cy="243.5" r="3.36" fill="#e09440" opacity="0.18"/><circle cx="135.3" cy="248.7" r="2.34" fill="#e09440" opacity="0.22"/><circle cx="172.7" cy="246.6" r="2.51" fill="#e09440" opacity="0.29"/><circle cx="210.0" cy="245.4" r="1.74" fill="#e09440" opacity="0.16"/><circle cx="244.8" cy="243.6" r="2.77" fill="#e09440" opacity="0.35"/><circle cx="282.6" cy="246.9" r="1.87" fill="#e09440" opacity="0.21"/><circle cx="318.5" cy="245.3" r="2.16" fill="#e09440" opacity="0.18"/><circle cx="352.4" cy="246.5" r="2.43" fill="#e09440" opacity="0.36"/><circle cx="390.9" cy="246.7" r="2.07" fill="#e09440" opacity="0.27"/><circle cx="423.8" cy="245.2" r="2.27" fill="#e09440" opacity="0.22"/><circle cx="463.5" cy="247.9" r="1.93" fill="#e09440" opacity="0.32"/><circle cx="497.3" cy="243.1" r="2.73" fill="#e09440" opacity="0.16"/><circle cx="536.1" cy="246.6" r="3.29" fill="#e09440" opacity="0.21"/><circle cx="571.4" cy="243.1" r="1.79" fill="#e09440" opacity="0.32"/><circle cx="608.1" cy="247.4" r="3.59" fill="#e09440" opacity="0.35"/><circle cx="641.9" cy="247.7" r="1.92" fill="#e09440" opacity="0.30"/><circle cx="679.2" cy="246.1" r="1.94" fill="#e09440" opacity="0.30"/><circle cx="711.1" cy="246.9" r="2.02" fill="#e09440" opacity="0.34"/><circle cx="748.0" cy="248.2" r="1.76" fill="#e09440" opacity="0.24"/><circle cx="785.1" cy="247.8" r="2.08" fill="#e09440" opacity="0.27"/><circle cx="821.1" cy="248.8" r="3.42" fill="#e09440" opacity="0.36"/><circle cx="860.6" cy="246.7" r="3.82" fill="#e09440" opacity="0.15"/><circle cx="891.7" cy="244.9" r="3.91" fill="#e09440" opacity="0.25"/><circle cx="929.1" cy="247.5" r="2.63" fill="#e09440" opacity="0.22"/><circle cx="963.4" cy="243.2" r="2.14" fill="#e09440" opacity="0.30"/><circle cx="1004.0" cy="245.5" r="3.56" fill="#e09440" opacity="0.16"/><circle cx="1038.2" cy="247.5" r="2.42" fill="#e09440" opacity="0.32"/><circle cx="1071.6" cy="247.0" r="3.10" fill="#e09440" opacity="0.31"/><circle cx="1107.9" cy="244.6" r="1.85" fill="#e09440" opacity="0.33"/><circle cx="1146.3" cy="244.0" r="3.14" fill="#e09440" opacity="0.19"/><circle cx="1184.6" cy="244.1" r="3.12" fill="#e09440" opacity="0.29"/><circle cx="27.8" cy="280.4" r="2.76" fill="#e09440" opacity="0.27"/><circle cx="64.0" cy="281.2" r="2.70" fill="#e09440" opacity="0.29"/><circle cx="99.6" cy="280.1" r="2.96" fill="#e09440" opacity="0.28"/><circle cx="138.0" cy="282.7" r="3.61" fill="#e09440" opacity="0.28"/><circle cx="175.2" cy="282.6" r="3.89" fill="#e09440" opacity="0.23"/><circle cx="210.7" cy="282.8" r="2.47" fill="#e09440" opacity="0.19"/><circle cx="247.5" cy="280.1" r="2.76" fill="#e09440" opacity="0.30"/><circle cx="281.8" cy="281.9" r="2.34" fill="#e09440" opacity="0.35"/><circle cx="319.2" cy="280.5" r="1.93" fill="#e09440" opacity="0.32"/><circle cx="353.4" cy="280.4" r="1.94" fill="#e09440" opacity="0.15"/><circle cx="390.3" cy="279.2" r="1.85" fill="#e09440" opacity="0.27"/><circle cx="427.5" cy="285.0" r="1.98" fill="#e09440" opacity="0.21"/><circle cx="459.7" cy="279.1" r="2.50" fill="#e09440" opacity="0.26"/><circle cx="500.1" cy="279.1" r="1.69" fill="#e09440" opacity="0.36"/><circle cx="532.4" cy="284.9" r="3.12" fill="#e09440" opacity="0.17"/><circle cx="567.1" cy="284.6" r="2.98" fill="#e09440" opacity="0.17"/><circle cx="604.1" cy="282.7" r="3.18" fill="#e09440" opacity="0.29"/><circle cx="641.9" cy="279.2" r="3.16" fill="#e09440" opacity="0.22"/><circle cx="676.4" cy="282.1" r="2.36" fill="#e09440" opacity="0.21"/><circle cx="713.2" cy="280.5" r="3.17" fill="#e09440" opacity="0.22"/><circle cx="750.8" cy="281.7" r="3.68" fill="#e09440" opacity="0.25"/><circle cx="787.8" cy="281.5" r="3.84" fill="#e09440" opacity="0.26"/><circle cx="820.7" cy="284.9" r="3.86" fill="#e09440" opacity="0.33"/><circle cx="859.7" cy="279.4" r="3.21" fill="#e09440" opacity="0.31"/><circle cx="895.4" cy="283.2" r="3.03" fill="#e09440" opacity="0.18"/><circle cx="930.6" cy="284.1" r="2.90" fill="#e09440" opacity="0.28"/><circle cx="965.4" cy="283.0" r="3.12" fill="#e09440" opacity="0.19"/><circle cx="1003.9" cy="281.8" r="1.82" fill="#e09440" opacity="0.31"/><circle cx="1036.2" cy="283.7" r="2.44" fill="#e09440" opacity="0.18"/><circle cx="1071.8" cy="279.1" r="2.64" fill="#e09440" opacity="0.24"/><circle cx="1110.5" cy="283.1" r="2.81" fill="#e09440" opacity="0.35"/><circle cx="1145.0" cy="280.9" r="2.09" fill="#e09440" opacity="0.21"/><circle cx="1183.6" cy="280.3" r="1.68" fill="#e09440" opacity="0.27"/><circle cx="32.5" cy="315.2" r="2.56" fill="#e09440" opacity="0.18"/><circle cx="63.4" cy="320.3" r="2.56" fill="#e09440" opacity="0.17"/><circle cx="102.3" cy="316.2" r="2.91" fill="#e09440" opacity="0.34"/><circle cx="141.0" cy="316.0" r="3.91" fill="#e09440" opacity="0.28"/><circle cx="173.7" cy="315.7" r="3.40" fill="#e09440" opacity="0.28"/><circle cx="209.9" cy="320.7" r="2.76" fill="#e09440" opacity="0.26"/><circle cx="244.9" cy="320.6" r="2.78" fill="#e09440" opacity="0.23"/><circle cx="281.4" cy="315.5" r="3.15" fill="#e09440" opacity="0.34"/><circle cx="315.9" cy="319.2" r="3.11" fill="#e09440" opacity="0.20"/><circle cx="352.1" cy="316.0" r="3.43" fill="#e09440" opacity="0.21"/><circle cx="389.5" cy="320.5" r="2.28" fill="#e09440" opacity="0.24"/><circle cx="428.5" cy="318.8" r="3.70" fill="#e09440" opacity="0.17"/><circle cx="460.4" cy="320.2" r="3.82" fill="#e09440" opacity="0.22"/><circle cx="496.6" cy="317.1" r="3.71" fill="#e09440" opacity="0.27"/><circle cx="533.3" cy="318.5" r="2.82" fill="#e09440" opacity="0.32"/><circle cx="568.7" cy="316.3" r="3.58" fill="#e09440" opacity="0.30"/><circle cx="607.0" cy="317.4" r="3.96" fill="#e09440" opacity="0.20"/><circle cx="640.8" cy="320.7" r="1.62" fill="#e09440" opacity="0.22"/><circle cx="680.0" cy="315.7" r="1.97" fill="#e09440" opacity="0.17"/><circle cx="712.5" cy="315.9" r="3.79" fill="#e09440" opacity="0.33"/><circle cx="751.0" cy="317.3" r="1.91" fill="#e09440" opacity="0.28"/><circle cx="786.8" cy="317.6" r="3.77" fill="#e09440" opacity="0.30"/><circle cx="821.8" cy="318.8" r="2.92" fill="#e09440" opacity="0.21"/><circle cx="855.9" cy="315.4" r="2.08" fill="#e09440" opacity="0.31"/><circle cx="892.8" cy="317.1" r="3.17" fill="#e09440" opacity="0.30"/><circle cx="932.0" cy="319.2" r="3.41" fill="#e09440" opacity="0.28"/><circle cx="968.2" cy="317.3" r="2.38" fill="#e09440" opacity="0.28"/><circle cx="1004.8" cy="320.5" r="3.62" fill="#e09440" opacity="0.29"/><circle cx="1035.7" cy="317.3" r="2.42" fill="#e09440" opacity="0.28"/><circle cx="1072.6" cy="317.8" r="3.79" fill="#e09440" opacity="0.33"/><circle cx="1108.5" cy="318.7" r="3.47" fill="#e09440" opacity="0.21"/><circle cx="1147.6" cy="318.1" r="2.02" fill="#e09440" opacity="0.34"/><circle cx="1180.0" cy="319.3" r="3.95" fill="#e09440" opacity="0.33"/><circle cx="27.7" cy="351.8" r="2.46" fill="#e09440" opacity="0.23"/><circle cx="67.5" cy="355.2" r="1.87" fill="#e09440" opacity="0.25"/><circle cx="101.8" cy="354.7" r="2.53" fill="#e09440" opacity="0.20"/><circle cx="139.5" cy="353.7" r="3.00" fill="#e09440" opacity="0.26"/><circle cx="172.0" cy="356.6" r="3.37" fill="#e09440" opacity="0.25"/><circle cx="208.3" cy="353.1" r="2.98" fill="#e09440" opacity="0.26"/><circle cx="245.4" cy="356.1" r="1.98" fill="#e09440" opacity="0.18"/><circle cx="280.7" cy="353.4" r="2.75" fill="#e09440" opacity="0.33"/><circle cx="319.1" cy="353.8" r="3.58" fill="#e09440" opacity="0.31"/><circle cx="354.4" cy="353.4" r="2.77" fill="#e09440" opacity="0.35"/><circle cx="387.5" cy="353.0" r="2.23" fill="#e09440" opacity="0.33"/><circle cx="425.1" cy="351.7" r="3.30" fill="#e09440" opacity="0.21"/><circle cx="462.0" cy="353.6" r="1.93" fill="#e09440" opacity="0.21"/><circle cx="495.7" cy="356.5" r="3.24" fill="#e09440" opacity="0.18"/><circle cx="536.5" cy="352.8" r="3.99" fill="#e09440" opacity="0.21"/><circle cx="572.3" cy="356.9" r="1.84" fill="#e09440" opacity="0.30"/><circle cx="604.9" cy="355.6" r="3.01" fill="#e09440" opacity="0.27"/><circle cx="643.3" cy="355.4" r="1.75" fill="#e09440" opacity="0.19"/><circle cx="676.5" cy="355.6" r="2.78" fill="#e09440" opacity="0.31"/><circle cx="716.2" cy="352.1" r="1.83" fill="#e09440" opacity="0.23"/><circle cx="747.9" cy="352.1" r="3.60" fill="#e09440" opacity="0.24"/><circle cx="788.2" cy="352.5" r="2.18" fill="#e09440" opacity="0.35"/><circle cx="819.3" cy="355.1" r="3.28" fill="#e09440" opacity="0.32"/><circle cx="857.9" cy="356.1" r="2.34" fill="#e09440" opacity="0.35"/><circle cx="891.3" cy="352.6" r="2.35" fill="#e09440" opacity="0.16"/><circle cx="928.7" cy="353.0" r="3.38" fill="#e09440" opacity="0.33"/><circle cx="966.4" cy="352.0" r="3.57" fill="#e09440" opacity="0.20"/><circle cx="1000.1" cy="356.8" r="3.51" fill="#e09440" opacity="0.23"/><circle cx="1040.0" cy="356.5" r="3.43" fill="#e09440" opacity="0.20"/><circle cx="1071.1" cy="354.6" r="3.47" fill="#e09440" opacity="0.26"/><circle cx="1109.4" cy="356.0" r="2.09" fill="#e09440" opacity="0.32"/><circle cx="1148.8" cy="353.3" r="3.30" fill="#e09440" opacity="0.30"/><circle cx="1179.1" cy="356.8" r="1.79" fill="#e09440" opacity="0.17"/><circle cx="30.1" cy="387.4" r="3.44" fill="#e09440" opacity="0.19"/><circle cx="65.3" cy="388.0" r="3.18" fill="#e09440" opacity="0.21"/><circle cx="103.7" cy="392.9" r="1.74" fill="#e09440" opacity="0.36"/><circle cx="136.7" cy="390.8" r="3.42" fill="#e09440" opacity="0.29"/><circle cx="172.0" cy="388.2" r="1.87" fill="#e09440" opacity="0.22"/><circle cx="208.8" cy="391.1" r="2.77" fill="#e09440" opacity="0.27"/><circle cx="246.7" cy="392.1" r="3.33" fill="#e09440" opacity="0.36"/><circle cx="284.9" cy="391.0" r="3.72" fill="#e09440" opacity="0.17"/><circle cx="316.0" cy="387.2" r="2.31" fill="#e09440" opacity="0.25"/><circle cx="354.8" cy="387.5" r="3.34" fill="#e09440" opacity="0.36"/><circle cx="392.8" cy="391.3" r="3.34" fill="#e09440" opacity="0.20"/><circle cx="428.3" cy="391.3" r="1.69" fill="#e09440" opacity="0.24"/><circle cx="461.9" cy="392.4" r="3.95" fill="#e09440" opacity="0.26"/><circle cx="500.6" cy="388.4" r="2.52" fill="#e09440" opacity="0.35"/><circle cx="536.6" cy="389.3" r="2.87" fill="#e09440" opacity="0.18"/><circle cx="570.8" cy="392.2" r="1.65" fill="#e09440" opacity="0.23"/><circle cx="605.9" cy="392.9" r="3.81" fill="#e09440" opacity="0.27"/><circle cx="642.1" cy="391.3" r="1.91" fill="#e09440" opacity="0.21"/><circle cx="679.7" cy="387.2" r="3.09" fill="#e09440" opacity="0.27"/><circle cx="713.9" cy="387.9" r="2.23" fill="#e09440" opacity="0.28"/><circle cx="748.3" cy="390.5" r="2.53" fill="#e09440" opacity="0.17"/><circle cx="785.4" cy="389.8" r="1.72" fill="#e09440" opacity="0.31"/><circle cx="822.4" cy="391.0" r="3.10" fill="#e09440" opacity="0.15"/><circle cx="859.4" cy="387.3" r="1.88" fill="#e09440" opacity="0.18"/><circle cx="892.3" cy="392.9" r="2.21" fill="#e09440" opacity="0.34"/><circle cx="931.4" cy="392.3" r="2.37" fill="#e09440" opacity="0.23"/><circle cx="964.0" cy="387.9" r="2.21" fill="#e09440" opacity="0.22"/><circle cx="1000.5" cy="389.6" r="3.29" fill="#e09440" opacity="0.35"/><circle cx="1040.3" cy="389.0" r="2.25" fill="#e09440" opacity="0.18"/><circle cx="1075.3" cy="392.2" r="3.39" fill="#e09440" opacity="0.19"/><circle cx="1109.3" cy="389.2" r="2.90" fill="#e09440" opacity="0.24"/><circle cx="1146.1" cy="391.7" r="1.73" fill="#e09440" opacity="0.25"/><circle cx="1179.5" cy="387.6" r="2.04" fill="#e09440" opacity="0.25"/><circle cx="29.1" cy="426.5" r="3.51" fill="#e09440" opacity="0.17"/><circle cx="65.3" cy="424.8" r="2.70" fill="#e09440" opacity="0.16"/><circle cx="103.3" cy="424.6" r="1.72" fill="#e09440" opacity="0.30"/><circle cx="137.6" cy="428.4" r="2.75" fill="#e09440" opacity="0.35"/><circle cx="175.8" cy="426.4" r="3.79" fill="#e09440" opacity="0.25"/><circle cx="209.3" cy="423.7" r="2.91" fill="#e09440" opacity="0.27"/><circle cx="244.7" cy="423.6" r="1.87" fill="#e09440" opacity="0.34"/><circle cx="280.9" cy="428.7" r="3.53" fill="#e09440" opacity="0.25"/><circle cx="321.0" cy="424.6" r="2.09" fill="#e09440" opacity="0.15"/><circle cx="352.8" cy="425.7" r="3.23" fill="#e09440" opacity="0.26"/><circle cx="390.8" cy="423.6" r="2.79" fill="#e09440" opacity="0.32"/><circle cx="428.8" cy="424.7" r="2.07" fill="#e09440" opacity="0.22"/><circle cx="461.1" cy="426.6" r="2.12" fill="#e09440" opacity="0.22"/><circle cx="498.2" cy="426.9" r="3.36" fill="#e09440" opacity="0.31"/><circle cx="535.6" cy="425.3" r="1.85" fill="#e09440" opacity="0.34"/><circle cx="572.8" cy="427.4" r="1.90" fill="#e09440" opacity="0.21"/><circle cx="604.4" cy="426.5" r="2.05" fill="#e09440" opacity="0.34"/><circle cx="644.1" cy="428.4" r="1.67" fill="#e09440" opacity="0.33"/><circle cx="679.1" cy="426.1" r="2.00" fill="#e09440" opacity="0.32"/><circle cx="711.1" cy="426.3" r="1.99" fill="#e09440" opacity="0.31"/><circle cx="747.8" cy="423.8" r="3.55" fill="#e09440" opacity="0.28"/><circle cx="784.0" cy="424.5" r="3.95" fill="#e09440" opacity="0.20"/><circle cx="824.9" cy="424.5" r="2.14" fill="#e09440" opacity="0.16"/><circle cx="857.5" cy="427.7" r="2.77" fill="#e09440" opacity="0.29"/><circle cx="894.9" cy="428.1" r="2.79" fill="#e09440" opacity="0.31"/><circle cx="930.4" cy="427.0" r="2.19" fill="#e09440" opacity="0.32"/><circle cx="968.0" cy="426.9" r="2.69" fill="#e09440" opacity="0.29"/><circle cx="1002.3" cy="423.7" r="1.83" fill="#e09440" opacity="0.16"/><circle cx="1040.4" cy="427.4" r="1.92" fill="#e09440" opacity="0.20"/><circle cx="1073.6" cy="428.1" r="3.40" fill="#e09440" opacity="0.24"/><circle cx="1112.9" cy="427.5" r="2.86" fill="#e09440" opacity="0.22"/><circle cx="1144.2" cy="428.5" r="2.43" fill="#e09440" opacity="0.18"/><circle cx="1180.4" cy="427.6" r="3.92" fill="#e09440" opacity="0.24"/><circle cx="29.0" cy="461.4" r="2.15" fill="#e09440" opacity="0.22"/><circle cx="67.0" cy="463.5" r="3.10" fill="#e09440" opacity="0.32"/><circle cx="104.0" cy="460.0" r="3.50" fill="#e09440" opacity="0.18"/><circle cx="136.4" cy="463.1" r="2.44" fill="#e09440" opacity="0.18"/><circle cx="172.5" cy="462.7" r="3.43" fill="#e09440" opacity="0.16"/><circle cx="212.8" cy="463.3" r="3.58" fill="#e09440" opacity="0.17"/><circle cx="244.4" cy="459.7" r="3.27" fill="#e09440" opacity="0.33"/><circle cx="281.7" cy="462.2" r="2.07" fill="#e09440" opacity="0.24"/><circle cx="315.9" cy="461.0" r="1.60" fill="#e09440" opacity="0.19"/><circle cx="355.0" cy="459.5" r="3.01" fill="#e09440" opacity="0.26"/><circle cx="391.8" cy="460.2" r="3.07" fill="#e09440" opacity="0.21"/><circle cx="426.8" cy="463.5" r="2.80" fill="#e09440" opacity="0.35"/><circle cx="465.0" cy="459.1" r="3.04" fill="#e09440" opacity="0.23"/><circle cx="497.9" cy="464.4" r="3.41" fill="#e09440" opacity="0.20"/><circle cx="533.6" cy="462.5" r="2.93" fill="#e09440" opacity="0.25"/><circle cx="568.8" cy="462.8" r="3.61" fill="#e09440" opacity="0.28"/><circle cx="608.1" cy="461.3" r="2.63" fill="#e09440" opacity="0.18"/><circle cx="642.2" cy="463.6" r="1.63" fill="#e09440" opacity="0.19"/><circle cx="680.4" cy="461.7" r="2.89" fill="#e09440" opacity="0.29"/><circle cx="715.3" cy="461.6" r="2.35" fill="#e09440" opacity="0.33"/><circle cx="752.1" cy="463.8" r="2.91" fill="#e09440" opacity="0.27"/><circle cx="786.3" cy="461.0" r="2.24" fill="#e09440" opacity="0.24"/><circle cx="824.1" cy="460.4" r="2.79" fill="#e09440" opacity="0.31"/><circle cx="857.8" cy="460.1" r="3.02" fill="#e09440" opacity="0.23"/><circle cx="895.9" cy="464.8" r="3.38" fill="#e09440" opacity="0.28"/><circle cx="932.3" cy="464.6" r="2.73" fill="#e09440" opacity="0.30"/><circle cx="968.7" cy="463.5" r="3.68" fill="#e09440" opacity="0.26"/><circle cx="999.8" cy="463.0" r="2.08" fill="#e09440" opacity="0.33"/><circle cx="1037.0" cy="463.2" r="3.76" fill="#e09440" opacity="0.28"/><circle cx="1073.9" cy="463.9" r="2.89" fill="#e09440" opacity="0.16"/><circle cx="1108.0" cy="460.9" r="1.98" fill="#e09440" opacity="0.26"/><circle cx="1147.9" cy="462.3" r="2.53" fill="#e09440" opacity="0.24"/><circle cx="1181.0" cy="459.2" r="2.26" fill="#e09440" opacity="0.15"/><circle cx="29.8" cy="499.9" r="3.94" fill="#e09440" opacity="0.24"/><circle cx="65.4" cy="498.3" r="1.75" fill="#e09440" opacity="0.26"/><circle cx="101.7" cy="495.5" r="2.03" fill="#e09440" opacity="0.30"/><circle cx="139.1" cy="498.9" r="2.39" fill="#e09440" opacity="0.33"/><circle cx="172.5" cy="497.5" r="3.05" fill="#e09440" opacity="0.20"/><circle cx="207.4" cy="495.6" r="2.13" fill="#e09440" opacity="0.33"/><circle cx="245.5" cy="499.3" r="1.88" fill="#e09440" opacity="0.18"/><circle cx="280.0" cy="496.0" r="3.18" fill="#e09440" opacity="0.16"/><circle cx="317.5" cy="498.6" r="2.09" fill="#e09440" opacity="0.30"/><circle cx="353.4" cy="495.8" r="2.24" fill="#e09440" opacity="0.24"/><circle cx="389.1" cy="497.1" r="2.25" fill="#e09440" opacity="0.26"/><circle cx="426.9" cy="496.3" r="2.15" fill="#e09440" opacity="0.30"/><circle cx="462.1" cy="500.3" r="2.85" fill="#e09440" opacity="0.22"/><circle cx="497.4" cy="496.9" r="2.68" fill="#e09440" opacity="0.30"/><circle cx="533.2" cy="498.3" r="3.11" fill="#e09440" opacity="0.26"/><circle cx="569.6" cy="497.7" r="2.09" fill="#e09440" opacity="0.26"/><circle cx="606.1" cy="499.5" r="3.29" fill="#e09440" opacity="0.29"/><circle cx="642.8" cy="497.4" r="3.95" fill="#e09440" opacity="0.24"/><circle cx="678.0" cy="496.1" r="2.06" fill="#e09440" opacity="0.16"/><circle cx="716.1" cy="500.3" r="3.62" fill="#e09440" opacity="0.31"/><circle cx="753.0" cy="497.2" r="3.68" fill="#e09440" opacity="0.30"/><circle cx="788.7" cy="495.2" r="3.31" fill="#e09440" opacity="0.23"/><circle cx="824.4" cy="498.8" r="3.82" fill="#e09440" opacity="0.31"/><circle cx="860.3" cy="499.5" r="3.87" fill="#e09440" opacity="0.32"/><circle cx="896.2" cy="499.7" r="3.50" fill="#e09440" opacity="0.21"/><circle cx="927.4" cy="500.8" r="2.35" fill="#e09440" opacity="0.32"/><circle cx="968.7" cy="496.6" r="1.67" fill="#e09440" opacity="0.35"/><circle cx="1004.5" cy="495.8" r="3.31" fill="#e09440" opacity="0.34"/><circle cx="1036.0" cy="499.2" r="2.20" fill="#e09440" opacity="0.29"/><circle cx="1071.9" cy="500.7" r="3.91" fill="#e09440" opacity="0.35"/><circle cx="1110.0" cy="499.9" r="2.45" fill="#e09440" opacity="0.31"/><circle cx="1147.2" cy="496.1" r="3.45" fill="#e09440" opacity="0.20"/><circle cx="1183.0" cy="497.3" r="1.88" fill="#e09440" opacity="0.29"/><circle cx="32.9" cy="531.8" r="3.53" fill="#e09440" opacity="0.19"/><circle cx="67.8" cy="533.4" r="2.39" fill="#e09440" opacity="0.18"/><circle cx="104.6" cy="532.3" r="3.50" fill="#e09440" opacity="0.19"/><circle cx="139.5" cy="536.7" r="3.48" fill="#e09440" opacity="0.16"/><circle cx="173.9" cy="532.7" r="1.88" fill="#e09440" opacity="0.21"/><circle cx="210.3" cy="536.3" r="3.41" fill="#e09440" opacity="0.25"/><circle cx="246.6" cy="536.6" r="3.88" fill="#e09440" opacity="0.19"/><circle cx="281.2" cy="536.8" r="2.52" fill="#e09440" opacity="0.26"/><circle cx="316.0" cy="535.6" r="3.44" fill="#e09440" opacity="0.33"/><circle cx="355.4" cy="534.6" r="3.47" fill="#e09440" opacity="0.28"/><circle cx="389.5" cy="533.7" r="1.95" fill="#e09440" opacity="0.23"/><circle cx="428.5" cy="534.3" r="3.57" fill="#e09440" opacity="0.24"/><circle cx="461.1" cy="536.0" r="1.77" fill="#e09440" opacity="0.29"/><circle cx="498.8" cy="536.1" r="2.86" fill="#e09440" opacity="0.29"/><circle cx="531.7" cy="532.3" r="3.29" fill="#e09440" opacity="0.26"/><circle cx="573.0" cy="536.5" r="1.65" fill="#e09440" opacity="0.26"/><circle cx="604.3" cy="536.2" r="3.40" fill="#e09440" opacity="0.17"/><circle cx="643.2" cy="532.6" r="2.79" fill="#e09440" opacity="0.19"/><circle cx="680.5" cy="533.6" r="3.72" fill="#e09440" opacity="0.16"/><circle cx="711.9" cy="536.2" r="2.75" fill="#e09440" opacity="0.23"/><circle cx="747.4" cy="534.3" r="2.55" fill="#e09440" opacity="0.17"/><circle cx="787.1" cy="535.8" r="3.31" fill="#e09440" opacity="0.32"/><circle cx="820.3" cy="534.5" r="1.60" fill="#e09440" opacity="0.18"/><circle cx="855.7" cy="535.6" r="3.70" fill="#e09440" opacity="0.32"/><circle cx="892.3" cy="531.8" r="2.97" fill="#e09440" opacity="0.24"/><circle cx="928.3" cy="535.2" r="2.82" fill="#e09440" opacity="0.36"/><circle cx="968.9" cy="535.3" r="2.87" fill="#e09440" opacity="0.25"/><circle cx="1001.5" cy="536.7" r="1.66" fill="#e09440" opacity="0.35"/><circle cx="1040.6" cy="534.1" r="2.96" fill="#e09440" opacity="0.29"/><circle cx="1072.2" cy="531.6" r="3.35" fill="#e09440" opacity="0.31"/><circle cx="1112.3" cy="532.9" r="3.55" fill="#e09440" opacity="0.33"/><circle cx="1146.3" cy="536.9" r="3.88" fill="#e09440" opacity="0.31"/><circle cx="1180.7" cy="536.6" r="3.77" fill="#e09440" opacity="0.31"/><circle cx="29.0" cy="569.6" r="3.60" fill="#e09440" opacity="0.25"/><circle cx="68.0" cy="567.6" r="2.13" fill="#e09440" opacity="0.26"/><circle cx="99.8" cy="572.0" r="3.13" fill="#e09440" opacity="0.22"/><circle cx="139.8" cy="572.5" r="2.31" fill="#e09440" opacity="0.29"/><circle cx="173.1" cy="571.2" r="2.46" fill="#e09440" opacity="0.21"/><circle cx="211.6" cy="569.9" r="1.81" fill="#e09440" opacity="0.21"/><circle cx="243.2" cy="572.7" r="3.69" fill="#e09440" opacity="0.15"/><circle cx="280.5" cy="568.7" r="3.83" fill="#e09440" opacity="0.30"/><circle cx="320.4" cy="567.4" r="3.16" fill="#e09440" opacity="0.23"/><circle cx="352.9" cy="570.1" r="2.69" fill="#e09440" opacity="0.19"/><circle cx="387.1" cy="571.4" r="2.40" fill="#e09440" opacity="0.24"/><circle cx="423.9" cy="568.2" r="3.58" fill="#e09440" opacity="0.21"/><circle cx="460.8" cy="569.8" r="2.56" fill="#e09440" opacity="0.22"/><circle cx="495.7" cy="570.4" r="2.49" fill="#e09440" opacity="0.34"/><circle cx="533.4" cy="571.3" r="3.70" fill="#e09440" opacity="0.21"/><circle cx="569.8" cy="571.2" r="3.02" fill="#e09440" opacity="0.24"/><circle cx="603.4" cy="568.6" r="2.32" fill="#e09440" opacity="0.28"/><circle cx="643.1" cy="570.4" r="3.21" fill="#e09440" opacity="0.17"/><circle cx="676.5" cy="572.4" r="2.49" fill="#e09440" opacity="0.20"/><circle cx="713.4" cy="568.8" r="1.67" fill="#e09440" opacity="0.17"/><circle cx="749.3" cy="569.2" r="1.77" fill="#e09440" opacity="0.15"/><circle cx="783.4" cy="572.8" r="2.67" fill="#e09440" opacity="0.23"/><circle cx="821.9" cy="569.4" r="1.85" fill="#e09440" opacity="0.25"/><circle cx="857.5" cy="567.2" r="3.68" fill="#e09440" opacity="0.27"/><circle cx="894.3" cy="570.8" r="2.54" fill="#e09440" opacity="0.23"/><circle cx="929.3" cy="569.1" r="1.95" fill="#e09440" opacity="0.27"/><circle cx="964.1" cy="570.5" r="3.33" fill="#e09440" opacity="0.28"/><circle cx="1004.1" cy="568.3" r="2.19" fill="#e09440" opacity="0.29"/><circle cx="1038.7" cy="571.4" r="2.48" fill="#e09440" opacity="0.25"/><circle cx="1071.1" cy="569.8" r="3.81" fill="#e09440" opacity="0.35"/><circle cx="1111.5" cy="570.2" r="2.09" fill="#e09440" opacity="0.23"/><circle cx="1147.8" cy="569.3" r="1.83" fill="#e09440" opacity="0.23"/><circle cx="1182.9" cy="569.7" r="2.21" fill="#e09440" opacity="0.33"/><circle cx="29.8" cy="606.1" r="2.49" fill="#e09440" opacity="0.17"/><circle cx="68.6" cy="604.2" r="2.14" fill="#e09440" opacity="0.33"/><circle cx="102.1" cy="608.6" r="3.18" fill="#e09440" opacity="0.23"/><circle cx="136.6" cy="605.7" r="3.91" fill="#e09440" opacity="0.22"/><circle cx="176.5" cy="605.3" r="2.74" fill="#e09440" opacity="0.27"/><circle cx="213.0" cy="604.1" r="2.75" fill="#e09440" opacity="0.32"/><circle cx="247.5" cy="605.3" r="2.65" fill="#e09440" opacity="0.21"/><circle cx="283.4" cy="606.3" r="2.61" fill="#e09440" opacity="0.34"/><circle cx="316.1" cy="605.0" r="3.50" fill="#e09440" opacity="0.32"/><circle cx="354.3" cy="604.6" r="3.10" fill="#e09440" opacity="0.30"/><circle cx="387.4" cy="605.4" r="2.48" fill="#e09440" opacity="0.25"/><circle cx="427.3" cy="603.1" r="2.06" fill="#e09440" opacity="0.16"/><circle cx="462.9" cy="603.5" r="2.20" fill="#e09440" opacity="0.27"/><circle cx="498.4" cy="608.4" r="2.72" fill="#e09440" opacity="0.15"/><circle cx="532.5" cy="604.8" r="3.37" fill="#e09440" opacity="0.33"/><circle cx="570.1" cy="605.3" r="3.90" fill="#e09440" opacity="0.17"/><circle cx="607.6" cy="606.1" r="1.70" fill="#e09440" opacity="0.18"/><circle cx="644.3" cy="605.1" r="1.97" fill="#e09440" opacity="0.17"/><circle cx="679.2" cy="603.4" r="2.76" fill="#e09440" opacity="0.25"/><circle cx="713.4" cy="605.6" r="1.71" fill="#e09440" opacity="0.19"/><circle cx="751.6" cy="605.5" r="3.99" fill="#e09440" opacity="0.31"/><circle cx="787.9" cy="603.2" r="1.68" fill="#e09440" opacity="0.34"/><circle cx="819.9" cy="603.9" r="2.44" fill="#e09440" opacity="0.23"/><circle cx="855.7" cy="608.4" r="2.09" fill="#e09440" opacity="0.19"/><circle cx="893.0" cy="607.3" r="3.74" fill="#e09440" opacity="0.20"/><circle cx="928.5" cy="607.6" r="3.55" fill="#e09440" opacity="0.16"/><circle cx="966.7" cy="603.3" r="4.00" fill="#e09440" opacity="0.28"/><circle cx="1004.7" cy="607.3" r="1.93" fill="#e09440" opacity="0.27"/><circle cx="1037.2" cy="607.7" r="2.30" fill="#e09440" opacity="0.36"/><circle cx="1071.3" cy="604.0" r="2.08" fill="#e09440" opacity="0.24"/><circle cx="1112.6" cy="605.8" r="2.05" fill="#e09440" opacity="0.18"/><circle cx="1143.0" cy="608.2" r="3.89" fill="#e09440" opacity="0.26"/><circle cx="1180.3" cy="607.0" r="2.90" fill="#e09440" opacity="0.18"/><circle cx="27.7" cy="642.8" r="1.82" fill="#e09440" opacity="0.17"/><circle cx="64.8" cy="644.0" r="2.54" fill="#e09440" opacity="0.22"/><circle cx="104.6" cy="643.5" r="2.77" fill="#e09440" opacity="0.34"/><circle cx="135.6" cy="642.8" r="2.96" fill="#e09440" opacity="0.27"/><circle cx="173.3" cy="644.2" r="3.57" fill="#e09440" opacity="0.22"/><circle cx="212.5" cy="639.4" r="3.55" fill="#e09440" opacity="0.24"/><circle cx="244.2" cy="643.3" r="3.76" fill="#e09440" opacity="0.23"/><circle cx="280.1" cy="641.7" r="1.72" fill="#e09440" opacity="0.19"/><circle cx="315.6" cy="641.1" r="3.05" fill="#e09440" opacity="0.36"/><circle cx="352.4" cy="641.1" r="1.98" fill="#e09440" opacity="0.19"/><circle cx="392.2" cy="641.4" r="3.78" fill="#e09440" opacity="0.35"/><circle cx="423.3" cy="640.7" r="2.59" fill="#e09440" opacity="0.25"/><circle cx="464.8" cy="639.8" r="3.34" fill="#e09440" opacity="0.19"/><circle cx="497.9" cy="639.4" r="2.48" fill="#e09440" opacity="0.18"/><circle cx="532.3" cy="639.4" r="3.89" fill="#e09440" opacity="0.18"/><circle cx="570.4" cy="641.3" r="2.70" fill="#e09440" opacity="0.17"/><circle cx="607.3" cy="642.0" r="3.53" fill="#e09440" opacity="0.19"/><circle cx="639.4" cy="640.9" r="3.89" fill="#e09440" opacity="0.36"/><circle cx="676.4" cy="639.0" r="3.52" fill="#e09440" opacity="0.34"/><circle cx="712.9" cy="641.7" r="1.94" fill="#e09440" opacity="0.30"/><circle cx="748.4" cy="643.1" r="2.50" fill="#e09440" opacity="0.23"/><circle cx="787.3" cy="639.5" r="3.28" fill="#e09440" opacity="0.17"/><circle cx="821.6" cy="644.2" r="2.04" fill="#e09440" opacity="0.34"/><circle cx="857.0" cy="640.5" r="2.49" fill="#e09440" opacity="0.33"/><circle cx="892.8" cy="642.7" r="2.25" fill="#e09440" opacity="0.31"/><circle cx="931.0" cy="643.2" r="1.87" fill="#e09440" opacity="0.17"/><circle cx="964.7" cy="639.0" r="1.89" fill="#e09440" opacity="0.29"/><circle cx="999.1" cy="640.1" r="3.80" fill="#e09440" opacity="0.21"/><circle cx="1038.3" cy="639.9" r="3.91" fill="#e09440" opacity="0.32"/><circle cx="1072.3" cy="645.0" r="2.91" fill="#e09440" opacity="0.28"/><circle cx="1110.6" cy="644.3" r="1.94" fill="#e09440" opacity="0.29"/><circle cx="1146.2" cy="643.3" r="1.61" fill="#e09440" opacity="0.30"/><circle cx="1181.3" cy="640.0" r="2.12" fill="#e09440" opacity="0.24"/><circle cx="227.7" cy="260.8" r="220" fill="url(#glow)" opacity="0.9"/>
  <g opacity="0.85" transform="translate(1020, 495)">
        <circle r="68" fill="none" stroke="#e09440" stroke-width="2" opacity="0.35"/>
        <path d="M -38 12 L 38 12 M -32 -8 L 32 -8 M -45 -28 L 45 -28" stroke="#fdf6ee" stroke-width="3" stroke-linecap="round"/>
        <rect x="-50" y="-44" width="100" height="80" fill="none" stroke="#e09440" stroke-width="2"/>
      </g>
  <g transform="translate(80, 90)">
    <rect x="0" y="0" rx="20" ry="20" width="112" height="38" fill="#e09440" opacity="0.18" stroke="#e09440" stroke-width="1.5"/>
    <text x="56" y="25" font-family="ui-sans-serif, Inter, sans-serif" font-weight="700" font-size="14" letter-spacing="2.5" fill="#e09440" text-anchor="middle">NEWSROOM</text>
  </g>
  <text x="80" y="465" font-family="ui-sans-serif, -apple-system, Segoe UI, Inter, sans-serif" font-weight="800" font-size="44" fill="#faf8f5" opacity="0.98"><tspan x="80" dy="0">Delhi High Court Upholds</tspan><tspan x="80" dy="56">Arbitrator's Right to</tspan><tspan x="80" dy="56">Manage Proceedings:</tspan></text>
  <rect x="0" y="669" width="1200" height="6" fill="url(#gold)"/>
</svg>