<?xml version="1.0" encoding="UTF-8"?>
<svg xmlns="http://www.w3.org/2000/svg" viewBox="0 0 1200 675" width="1200" height="675" role="img" aria-label="Adr">
  <defs>
    <linearGradient id="bg" x1="0%" y1="0%" x2="100%" y2="100%">
      <stop offset="0%" stop-color="#643516"/>
      <stop offset="100%" stop-color="#7d4315"/>
    </linearGradient>
    <linearGradient id="gold" x1="0%" y1="0%" x2="100%" y2="100%">
      <stop offset="0%" stop-color="#ecb478"/>
      <stop offset="100%" stop-color="#faebd6"/>
    </linearGradient>
    <radialGradient id="glow" cx="50%" cy="50%" r="50%">
      <stop offset="0%" stop-color="#ecb478" stop-opacity="0.45"/>
      <stop offset="100%" stop-color="#ecb478" stop-opacity="0"/>
    </radialGradient>
  </defs>
  <rect width="1200" height="675" fill="url(#bg)"/>
  <circle cx="31.2" cy="32.1" r="2.41" fill="#ecb478" opacity="0.29"/><circle cx="66.1" cy="28.9" r="1.74" fill="#ecb478" opacity="0.24"/><circle cx="102.6" cy="31.3" r="3.02" fill="#ecb478" opacity="0.27"/><circle cx="136.0" cy="30.3" r="3.79" fill="#ecb478" opacity="0.15"/><circle cx="176.5" cy="27.9" r="3.56" fill="#ecb478" opacity="0.32"/><circle cx="210.8" cy="32.1" r="3.75" fill="#ecb478" opacity="0.26"/><circle cx="247.1" cy="29.5" r="3.70" fill="#ecb478" opacity="0.29"/><circle cx="283.2" cy="28.7" r="2.46" fill="#ecb478" opacity="0.27"/><circle cx="317.9" cy="31.6" r="3.25" fill="#ecb478" opacity="0.16"/><circle cx="355.7" cy="29.0" r="2.94" fill="#ecb478" opacity="0.32"/><circle cx="389.9" cy="32.2" r="3.06" fill="#ecb478" opacity="0.30"/><circle cx="424.5" cy="31.4" r="1.94" fill="#ecb478" opacity="0.20"/><circle cx="461.9" cy="28.8" r="2.82" fill="#ecb478" opacity="0.31"/><circle cx="498.0" cy="31.7" r="1.94" fill="#ecb478" opacity="0.21"/><circle cx="536.9" cy="31.5" r="2.90" fill="#ecb478" opacity="0.27"/><circle cx="571.1" cy="27.3" r="2.30" fill="#ecb478" opacity="0.26"/><circle cx="603.6" cy="27.9" r="3.95" fill="#ecb478" opacity="0.20"/><circle cx="641.1" cy="32.5" r="3.86" fill="#ecb478" opacity="0.19"/><circle cx="681.0" cy="27.2" r="2.74" fill="#ecb478" opacity="0.29"/><circle cx="715.5" cy="29.5" r="1.77" fill="#ecb478" opacity="0.22"/><circle cx="748.6" cy="27.2" r="3.98" fill="#ecb478" opacity="0.19"/><circle cx="786.0" cy="29.2" r="3.78" fill="#ecb478" opacity="0.31"/><circle cx="819.8" cy="32.7" r="2.55" fill="#ecb478" opacity="0.32"/><circle cx="857.2" cy="30.5" r="1.95" fill="#ecb478" opacity="0.28"/><circle cx="891.5" cy="27.8" r="3.29" fill="#ecb478" opacity="0.22"/><circle cx="927.3" cy="28.2" r="2.20" fill="#ecb478" opacity="0.34"/><circle cx="968.6" cy="27.3" r="3.23" fill="#ecb478" opacity="0.19"/><circle cx="999.2" cy="29.0" r="3.15" fill="#ecb478" opacity="0.21"/><circle cx="1036.3" cy="29.0" r="2.50" fill="#ecb478" opacity="0.33"/><circle cx="1076.6" cy="28.1" r="3.71" fill="#ecb478" opacity="0.27"/><circle cx="1109.6" cy="28.2" r="1.92" fill="#ecb478" opacity="0.24"/><circle cx="1147.2" cy="32.7" r="3.39" fill="#ecb478" opacity="0.19"/><circle cx="1179.2" cy="30.7" r="3.67" fill="#ecb478" opacity="0.23"/><circle cx="30.9" cy="64.9" r="3.65" fill="#ecb478" opacity="0.32"/><circle cx="67.6" cy="67.8" r="1.92" fill="#ecb478" opacity="0.36"/><circle cx="104.4" cy="68.0" r="3.85" fill="#ecb478" opacity="0.19"/><circle cx="135.7" cy="67.9" r="3.10" fill="#ecb478" opacity="0.30"/><circle cx="172.7" cy="66.9" r="3.88" fill="#ecb478" opacity="0.32"/><circle cx="207.0" cy="68.5" r="2.51" fill="#ecb478" opacity="0.21"/><circle cx="246.5" cy="67.2" r="3.95" fill="#ecb478" opacity="0.21"/><circle cx="283.3" cy="68.5" r="2.44" fill="#ecb478" opacity="0.30"/><circle cx="315.1" cy="68.2" r="3.31" fill="#ecb478" opacity="0.34"/><circle cx="354.6" cy="66.3" r="1.80" fill="#ecb478" opacity="0.16"/><circle cx="391.2" cy="67.5" r="3.59" fill="#ecb478" opacity="0.16"/><circle cx="425.4" cy="68.1" r="3.31" fill="#ecb478" opacity="0.31"/><circle cx="462.8" cy="63.3" r="2.19" fill="#ecb478" opacity="0.24"/><circle cx="498.7" cy="63.1" r="3.83" fill="#ecb478" opacity="0.21"/><circle cx="533.0" cy="65.6" r="2.48" fill="#ecb478" opacity="0.22"/><circle cx="571.4" cy="68.2" r="1.97" fill="#ecb478" opacity="0.28"/><circle cx="606.2" cy="65.3" r="1.87" fill="#ecb478" opacity="0.33"/><circle cx="641.3" cy="67.7" r="2.44" fill="#ecb478" opacity="0.17"/><circle cx="678.6" cy="66.8" r="3.37" fill="#ecb478" opacity="0.28"/><circle cx="711.1" cy="63.8" r="3.50" fill="#ecb478" opacity="0.16"/><circle cx="749.6" cy="66.3" r="1.88" fill="#ecb478" opacity="0.17"/><circle cx="787.8" cy="65.2" r="3.50" fill="#ecb478" opacity="0.20"/><circle cx="821.7" cy="66.9" r="2.42" fill="#ecb478" opacity="0.26"/><circle cx="857.8" cy="63.8" r="2.01" fill="#ecb478" opacity="0.30"/><circle cx="892.8" cy="63.5" r="2.75" fill="#ecb478" opacity="0.33"/><circle cx="929.8" cy="63.2" r="1.79" fill="#ecb478" opacity="0.27"/><circle cx="968.5" cy="68.3" r="1.95" fill="#ecb478" opacity="0.23"/><circle cx="1004.9" cy="67.3" r="3.31" fill="#ecb478" opacity="0.19"/><circle cx="1039.1" cy="65.3" r="3.91" fill="#ecb478" opacity="0.28"/><circle cx="1072.1" cy="65.2" r="1.66" fill="#ecb478" opacity="0.21"/><circle cx="1111.9" cy="68.2" r="2.31" fill="#ecb478" opacity="0.34"/><circle cx="1143.4" cy="66.7" r="2.24" fill="#ecb478" opacity="0.18"/><circle cx="1183.2" cy="67.4" r="1.88" fill="#ecb478" opacity="0.26"/><circle cx="32.4" cy="101.7" r="2.13" fill="#ecb478" opacity="0.28"/><circle cx="63.1" cy="100.4" r="1.99" fill="#ecb478" opacity="0.20"/><circle cx="104.0" cy="100.7" r="1.67" fill="#ecb478" opacity="0.17"/><circle cx="135.4" cy="99.7" r="1.96" fill="#ecb478" opacity="0.34"/><circle cx="175.1" cy="100.1" r="1.99" fill="#ecb478" opacity="0.34"/><circle cx="207.7" cy="101.6" r="3.88" fill="#ecb478" opacity="0.35"/><circle cx="247.8" cy="104.9" r="1.84" fill="#ecb478" opacity="0.28"/><circle cx="280.0" cy="103.3" r="2.99" fill="#ecb478" opacity="0.26"/><circle cx="316.9" cy="101.0" r="2.28" fill="#ecb478" opacity="0.31"/><circle cx="356.7" cy="103.0" r="3.85" fill="#ecb478" opacity="0.27"/><circle cx="392.0" cy="102.0" r="3.21" fill="#ecb478" opacity="0.17"/><circle cx="427.6" cy="102.6" r="1.94" fill="#ecb478" opacity="0.20"/><circle cx="462.0" cy="103.1" r="2.82" fill="#ecb478" opacity="0.34"/><circle cx="500.4" cy="103.5" r="3.46" fill="#ecb478" opacity="0.26"/><circle cx="532.9" cy="101.6" r="3.67" fill="#ecb478" opacity="0.24"/><circle cx="568.0" cy="102.2" r="2.85" fill="#ecb478" opacity="0.23"/><circle cx="603.7" cy="104.6" r="1.74" fill="#ecb478" opacity="0.18"/><circle cx="643.6" cy="99.6" r="2.81" fill="#ecb478" opacity="0.21"/><circle cx="677.7" cy="104.1" r="2.70" fill="#ecb478" opacity="0.22"/><circle cx="714.6" cy="100.7" r="2.76" fill="#ecb478" opacity="0.21"/><circle cx="747.2" cy="99.8" r="3.93" fill="#ecb478" opacity="0.35"/><circle cx="788.8" cy="103.0" r="3.82" fill="#ecb478" opacity="0.25"/><circle cx="820.4" cy="101.6" r="1.69" fill="#ecb478" opacity="0.24"/><circle cx="860.7" cy="103.5" r="3.41" fill="#ecb478" opacity="0.27"/><circle cx="893.7" cy="102.3" r="2.22" fill="#ecb478" opacity="0.16"/><circle cx="931.9" cy="100.0" r="3.09" fill="#ecb478" opacity="0.33"/><circle cx="963.7" cy="103.6" r="3.40" fill="#ecb478" opacity="0.27"/><circle cx="1001.6" cy="104.7" r="1.93" fill="#ecb478" opacity="0.17"/><circle cx="1035.3" cy="104.6" r="1.79" fill="#ecb478" opacity="0.23"/><circle cx="1076.6" cy="100.4" r="3.44" fill="#ecb478" opacity="0.15"/><circle cx="1108.6" cy="101.9" r="3.38" fill="#ecb478" opacity="0.32"/><circle cx="1146.0" cy="100.0" r="2.63" fill="#ecb478" opacity="0.20"/><circle cx="1184.6" cy="102.6" r="1.63" fill="#ecb478" opacity="0.30"/><circle cx="30.3" cy="139.9" r="2.44" fill="#ecb478" opacity="0.24"/><circle cx="65.8" cy="137.4" r="3.81" fill="#ecb478" opacity="0.26"/><circle cx="104.2" cy="136.3" r="3.98" fill="#ecb478" opacity="0.18"/><circle cx="137.0" cy="140.6" r="1.90" fill="#ecb478" opacity="0.19"/><circle cx="171.9" cy="139.0" r="1.79" fill="#ecb478" opacity="0.18"/><circle cx="208.6" cy="137.6" r="3.55" fill="#ecb478" opacity="0.24"/><circle cx="243.0" cy="136.6" r="2.37" fill="#ecb478" opacity="0.32"/><circle cx="281.1" cy="139.3" r="2.03" fill="#ecb478" opacity="0.32"/><circle cx="320.0" cy="138.3" r="3.99" fill="#ecb478" opacity="0.20"/><circle cx="356.6" cy="139.7" r="2.67" fill="#ecb478" opacity="0.29"/><circle cx="391.0" cy="140.7" r="2.16" fill="#ecb478" opacity="0.20"/><circle cx="424.0" cy="138.4" r="3.43" fill="#ecb478" opacity="0.19"/><circle cx="462.2" cy="135.3" r="3.52" fill="#ecb478" opacity="0.27"/><circle cx="500.5" cy="135.1" r="2.73" fill="#ecb478" opacity="0.18"/><circle cx="535.7" cy="138.3" r="3.00" fill="#ecb478" opacity="0.26"/><circle cx="567.7" cy="137.3" r="2.05" fill="#ecb478" opacity="0.31"/><circle cx="607.3" cy="137.8" r="2.89" fill="#ecb478" opacity="0.15"/><circle cx="642.8" cy="140.7" r="2.90" fill="#ecb478" opacity="0.24"/><circle cx="680.5" cy="135.0" r="2.39" fill="#ecb478" opacity="0.34"/><circle cx="712.0" cy="136.7" r="2.84" fill="#ecb478" opacity="0.36"/><circle cx="750.0" cy="137.3" r="2.01" fill="#ecb478" opacity="0.21"/><circle cx="787.2" cy="137.0" r="2.73" fill="#ecb478" opacity="0.32"/><circle cx="823.2" cy="135.3" r="2.78" fill="#ecb478" opacity="0.31"/><circle cx="855.1" cy="136.3" r="3.43" fill="#ecb478" opacity="0.23"/><circle cx="892.5" cy="135.5" r="2.34" fill="#ecb478" opacity="0.26"/><circle cx="929.5" cy="139.2" r="3.53" fill="#ecb478" opacity="0.21"/><circle cx="965.2" cy="139.0" r="1.98" fill="#ecb478" opacity="0.21"/><circle cx="1004.6" cy="139.1" r="2.30" fill="#ecb478" opacity="0.32"/><circle cx="1038.2" cy="135.7" r="2.38" fill="#ecb478" opacity="0.36"/><circle cx="1076.7" cy="139.0" r="3.56" fill="#ecb478" opacity="0.34"/><circle cx="1107.3" cy="136.3" r="2.26" fill="#ecb478" opacity="0.30"/><circle cx="1148.1" cy="137.2" r="3.79" fill="#ecb478" opacity="0.17"/><circle cx="1182.2" cy="139.8" r="2.67" fill="#ecb478" opacity="0.26"/><circle cx="32.6" cy="176.9" r="2.59" fill="#ecb478" opacity="0.19"/><circle cx="64.5" cy="175.4" r="2.32" fill="#ecb478" opacity="0.35"/><circle cx="102.5" cy="171.3" r="3.36" fill="#ecb478" opacity="0.28"/><circle cx="138.3" cy="173.2" r="3.54" fill="#ecb478" opacity="0.33"/><circle cx="175.1" cy="171.9" r="2.17" fill="#ecb478" opacity="0.27"/><circle cx="211.4" cy="172.8" r="2.59" fill="#ecb478" opacity="0.19"/><circle cx="246.9" cy="172.1" r="1.99" fill="#ecb478" opacity="0.28"/><circle cx="281.8" cy="173.5" r="3.30" fill="#ecb478" opacity="0.29"/><circle cx="318.0" cy="171.1" r="3.06" fill="#ecb478" opacity="0.23"/><circle cx="354.6" cy="172.1" r="2.27" fill="#ecb478" opacity="0.16"/><circle cx="387.6" cy="176.7" r="2.22" fill="#ecb478" opacity="0.17"/><circle cx="428.0" cy="171.8" r="2.86" fill="#ecb478" opacity="0.26"/><circle cx="464.0" cy="171.6" r="3.56" fill="#ecb478" opacity="0.19"/><circle cx="496.5" cy="173.9" r="3.52" fill="#ecb478" opacity="0.26"/><circle cx="535.6" cy="177.0" r="3.17" fill="#ecb478" opacity="0.19"/><circle cx="571.6" cy="172.4" r="1.63" fill="#ecb478" opacity="0.16"/><circle cx="608.4" cy="173.8" r="1.87" fill="#ecb478" opacity="0.21"/><circle cx="643.0" cy="173.9" r="3.07" fill="#ecb478" opacity="0.32"/><circle cx="680.4" cy="175.6" r="2.79" fill="#ecb478" opacity="0.19"/><circle cx="711.1" cy="176.2" r="1.93" fill="#ecb478" opacity="0.27"/><circle cx="750.4" cy="174.9" r="3.88" fill="#ecb478" opacity="0.24"/><circle cx="786.3" cy="176.7" r="1.78" fill="#ecb478" opacity="0.25"/><circle cx="822.2" cy="176.3" r="3.51" fill="#ecb478" opacity="0.30"/><circle cx="860.8" cy="176.0" r="1.68" fill="#ecb478" opacity="0.25"/><circle cx="895.1" cy="174.2" r="2.66" fill="#ecb478" opacity="0.31"/><circle cx="927.5" cy="171.4" r="1.66" fill="#ecb478" opacity="0.21"/><circle cx="964.3" cy="175.1" r="2.15" fill="#ecb478" opacity="0.28"/><circle cx="1003.9" cy="176.4" r="3.53" fill="#ecb478" opacity="0.21"/><circle cx="1040.6" cy="174.2" r="2.88" fill="#ecb478" opacity="0.30"/><circle cx="1072.6" cy="174.4" r="3.95" fill="#ecb478" opacity="0.31"/><circle cx="1108.2" cy="176.5" r="2.15" fill="#ecb478" opacity="0.22"/><circle cx="1148.2" cy="175.9" r="3.70" fill="#ecb478" opacity="0.21"/><circle cx="1183.5" cy="176.3" r="3.47" fill="#ecb478" opacity="0.29"/><circle cx="30.0" cy="211.2" r="2.91" fill="#ecb478" opacity="0.32"/><circle cx="67.5" cy="210.4" r="3.54" fill="#ecb478" opacity="0.28"/><circle cx="102.8" cy="210.2" r="3.51" fill="#ecb478" opacity="0.28"/><circle cx="136.7" cy="207.8" r="3.22" fill="#ecb478" opacity="0.26"/><circle cx="175.6" cy="212.8" r="2.39" fill="#ecb478" opacity="0.34"/><circle cx="211.7" cy="210.3" r="2.84" fill="#ecb478" opacity="0.17"/><circle cx="246.4" cy="208.5" r="3.18" fill="#ecb478" opacity="0.34"/><circle cx="283.3" cy="212.1" r="2.04" fill="#ecb478" opacity="0.32"/><circle cx="317.1" cy="211.0" r="3.40" fill="#ecb478" opacity="0.16"/><circle cx="355.5" cy="212.9" r="2.16" fill="#ecb478" opacity="0.31"/><circle cx="388.6" cy="208.6" r="2.37" fill="#ecb478" opacity="0.16"/><circle cx="423.5" cy="210.1" r="1.62" fill="#ecb478" opacity="0.30"/><circle cx="464.4" cy="209.7" r="2.07" fill="#ecb478" opacity="0.32"/><circle cx="497.6" cy="211.6" r="1.98" fill="#ecb478" opacity="0.36"/><circle cx="534.9" cy="209.8" r="2.98" fill="#ecb478" opacity="0.28"/><circle cx="567.3" cy="209.2" r="3.22" fill="#ecb478" opacity="0.20"/><circle cx="607.7" cy="210.2" r="2.61" fill="#ecb478" opacity="0.16"/><circle cx="642.4" cy="208.3" r="2.38" fill="#ecb478" opacity="0.21"/><circle cx="678.6" cy="208.1" r="3.28" fill="#ecb478" opacity="0.18"/><circle cx="715.7" cy="208.3" r="3.87" fill="#ecb478" opacity="0.36"/><circle cx="748.6" cy="210.4" r="3.99" fill="#ecb478" opacity="0.16"/><circle cx="783.6" cy="209.2" r="2.25" fill="#ecb478" opacity="0.32"/><circle cx="823.9" cy="208.1" r="2.76" fill="#ecb478" opacity="0.22"/><circle cx="858.0" cy="209.7" r="3.05" fill="#ecb478" opacity="0.16"/><circle cx="892.2" cy="207.3" r="2.70" fill="#ecb478" opacity="0.21"/><circle cx="930.8" cy="212.9" r="3.50" fill="#ecb478" opacity="0.34"/><circle cx="967.6" cy="210.9" r="3.05" fill="#ecb478" opacity="0.24"/><circle cx="1001.9" cy="211.5" r="3.94" fill="#ecb478" opacity="0.18"/><circle cx="1040.4" cy="211.4" r="3.20" fill="#ecb478" opacity="0.21"/><circle cx="1076.3" cy="210.2" r="2.14" fill="#ecb478" opacity="0.22"/><circle cx="1108.7" cy="208.7" r="2.57" fill="#ecb478" opacity="0.25"/><circle cx="1143.3" cy="210.6" r="2.91" fill="#ecb478" opacity="0.30"/><circle cx="1183.9" cy="212.6" r="3.46" fill="#ecb478" opacity="0.30"/><circle cx="31.1" cy="247.6" r="3.74" fill="#ecb478" opacity="0.18"/><circle cx="64.3" cy="243.0" r="3.02" fill="#ecb478" opacity="0.26"/><circle cx="100.3" cy="247.9" r="3.44" fill="#ecb478" opacity="0.26"/><circle cx="137.2" cy="243.3" r="2.15" fill="#ecb478" opacity="0.27"/><circle cx="171.9" cy="245.3" r="2.57" fill="#ecb478" opacity="0.16"/><circle cx="210.2" cy="246.7" r="3.92" fill="#ecb478" opacity="0.20"/><circle cx="244.0" cy="243.9" r="3.37" fill="#ecb478" opacity="0.17"/><circle cx="279.2" cy="244.6" r="2.71" fill="#ecb478" opacity="0.31"/><circle cx="320.1" cy="244.5" r="2.05" fill="#ecb478" opacity="0.17"/><circle cx="353.4" cy="246.7" r="3.83" fill="#ecb478" opacity="0.29"/><circle cx="390.9" cy="246.8" r="2.39" fill="#ecb478" opacity="0.24"/><circle cx="425.3" cy="244.0" r="2.43" fill="#ecb478" opacity="0.22"/><circle cx="462.7" cy="246.9" r="3.91" fill="#ecb478" opacity="0.19"/><circle cx="496.7" cy="244.5" r="2.83" fill="#ecb478" opacity="0.34"/><circle cx="536.1" cy="248.0" r="1.77" fill="#ecb478" opacity="0.25"/><circle cx="569.0" cy="243.2" r="2.55" fill="#ecb478" opacity="0.35"/><circle cx="608.4" cy="247.9" r="3.24" fill="#ecb478" opacity="0.26"/><circle cx="642.0" cy="246.4" r="3.38" fill="#ecb478" opacity="0.35"/><circle cx="680.8" cy="247.2" r="1.60" fill="#ecb478" opacity="0.30"/><circle cx="711.3" cy="244.0" r="2.01" fill="#ecb478" opacity="0.22"/><circle cx="748.5" cy="244.6" r="2.19" fill="#ecb478" opacity="0.26"/><circle cx="786.3" cy="247.7" r="1.83" fill="#ecb478" opacity="0.19"/><circle cx="820.7" cy="244.6" r="2.09" fill="#ecb478" opacity="0.25"/><circle cx="860.6" cy="244.8" r="3.98" fill="#ecb478" opacity="0.22"/><circle cx="896.5" cy="247.7" r="2.19" fill="#ecb478" opacity="0.15"/><circle cx="929.8" cy="247.0" r="3.54" fill="#ecb478" opacity="0.15"/><circle cx="964.1" cy="245.8" r="2.63" fill="#ecb478" opacity="0.30"/><circle cx="1002.6" cy="244.7" r="2.57" fill="#ecb478" opacity="0.19"/><circle cx="1038.5" cy="247.9" r="3.55" fill="#ecb478" opacity="0.32"/><circle cx="1076.4" cy="246.9" r="1.64" fill="#ecb478" opacity="0.34"/><circle cx="1109.2" cy="247.5" r="2.80" fill="#ecb478" opacity="0.19"/><circle cx="1145.2" cy="245.3" r="3.72" fill="#ecb478" opacity="0.16"/><circle cx="1181.4" cy="246.6" r="2.43" fill="#ecb478" opacity="0.23"/><circle cx="27.7" cy="283.8" r="3.99" fill="#ecb478" opacity="0.27"/><circle cx="67.4" cy="284.2" r="2.92" fill="#ecb478" opacity="0.16"/><circle cx="100.3" cy="281.4" r="2.73" fill="#ecb478" opacity="0.25"/><circle cx="136.8" cy="282.5" r="1.93" fill="#ecb478" opacity="0.35"/><circle cx="171.8" cy="282.3" r="2.26" fill="#ecb478" opacity="0.36"/><circle cx="209.0" cy="281.4" r="1.68" fill="#ecb478" opacity="0.18"/><circle cx="245.7" cy="282.8" r="3.88" fill="#ecb478" opacity="0.24"/><circle cx="284.7" cy="279.9" r="2.72" fill="#ecb478" opacity="0.32"/><circle cx="316.0" cy="283.2" r="3.54" fill="#ecb478" opacity="0.23"/><circle cx="356.7" cy="280.2" r="2.31" fill="#ecb478" opacity="0.32"/><circle cx="389.7" cy="284.1" r="1.90" fill="#ecb478" opacity="0.16"/><circle cx="426.2" cy="282.0" r="3.28" fill="#ecb478" opacity="0.31"/><circle cx="463.9" cy="281.0" r="2.74" fill="#ecb478" opacity="0.16"/><circle cx="496.9" cy="284.7" r="3.30" fill="#ecb478" opacity="0.15"/><circle cx="533.5" cy="283.2" r="3.26" fill="#ecb478" opacity="0.30"/><circle cx="572.8" cy="281.5" r="2.38" fill="#ecb478" opacity="0.35"/><circle cx="608.2" cy="280.7" r="3.41" fill="#ecb478" opacity="0.22"/><circle cx="641.5" cy="284.0" r="3.70" fill="#ecb478" opacity="0.33"/><circle cx="675.4" cy="284.7" r="3.07" fill="#ecb478" opacity="0.29"/><circle cx="711.5" cy="283.2" r="2.39" fill="#ecb478" opacity="0.31"/><circle cx="748.8" cy="283.7" r="2.37" fill="#ecb478" opacity="0.15"/><circle cx="786.9" cy="282.9" r="2.08" fill="#ecb478" opacity="0.34"/><circle cx="821.3" cy="281.0" r="2.86" fill="#ecb478" opacity="0.21"/><circle cx="858.2" cy="283.5" r="2.74" fill="#ecb478" opacity="0.18"/><circle cx="896.0" cy="284.9" r="1.70" fill="#ecb478" opacity="0.20"/><circle cx="932.4" cy="284.8" r="3.27" fill="#ecb478" opacity="0.29"/><circle cx="967.0" cy="284.5" r="1.81" fill="#ecb478" opacity="0.31"/><circle cx="1001.5" cy="280.8" r="3.73" fill="#ecb478" opacity="0.31"/><circle cx="1040.9" cy="279.6" r="3.40" fill="#ecb478" opacity="0.23"/><circle cx="1076.9" cy="283.9" r="1.89" fill="#ecb478" opacity="0.25"/><circle cx="1108.6" cy="281.4" r="2.57" fill="#ecb478" opacity="0.35"/><circle cx="1147.2" cy="283.8" r="3.65" fill="#ecb478" opacity="0.23"/><circle cx="1183.4" cy="282.4" r="2.55" fill="#ecb478" opacity="0.18"/><circle cx="30.0" cy="315.6" r="3.02" fill="#ecb478" opacity="0.23"/><circle cx="65.9" cy="315.2" r="2.63" fill="#ecb478" opacity="0.26"/><circle cx="101.2" cy="317.8" r="3.08" fill="#ecb478" opacity="0.36"/><circle cx="137.9" cy="317.8" r="2.48" fill="#ecb478" opacity="0.21"/><circle cx="176.2" cy="315.9" r="3.37" fill="#ecb478" opacity="0.34"/><circle cx="207.9" cy="318.4" r="2.68" fill="#ecb478" opacity="0.29"/><circle cx="248.9" cy="317.5" r="2.05" fill="#ecb478" opacity="0.18"/><circle cx="279.3" cy="320.8" r="2.53" fill="#ecb478" opacity="0.22"/><circle cx="319.5" cy="320.3" r="2.16" fill="#ecb478" opacity="0.19"/><circle cx="357.0" cy="317.2" r="2.31" fill="#ecb478" opacity="0.35"/><circle cx="392.8" cy="317.5" r="3.71" fill="#ecb478" opacity="0.18"/><circle cx="423.2" cy="320.4" r="3.49" fill="#ecb478" opacity="0.31"/><circle cx="461.4" cy="320.5" r="3.43" fill="#ecb478" opacity="0.25"/><circle cx="500.6" cy="318.1" r="2.75" fill="#ecb478" opacity="0.26"/><circle cx="535.3" cy="315.3" r="2.18" fill="#ecb478" opacity="0.31"/><circle cx="572.3" cy="319.8" r="2.50" fill="#ecb478" opacity="0.27"/><circle cx="603.9" cy="319.8" r="2.71" fill="#ecb478" opacity="0.34"/><circle cx="641.2" cy="318.0" r="2.15" fill="#ecb478" opacity="0.27"/><circle cx="679.4" cy="318.6" r="3.28" fill="#ecb478" opacity="0.20"/><circle cx="711.9" cy="318.0" r="3.61" fill="#ecb478" opacity="0.18"/><circle cx="751.9" cy="317.5" r="2.78" fill="#ecb478" opacity="0.19"/><circle cx="786.1" cy="316.1" r="2.94" fill="#ecb478" opacity="0.26"/><circle cx="819.6" cy="318.2" r="2.50" fill="#ecb478" opacity="0.21"/><circle cx="859.2" cy="316.3" r="3.67" fill="#ecb478" opacity="0.27"/><circle cx="896.4" cy="319.8" r="2.18" fill="#ecb478" opacity="0.15"/><circle cx="927.8" cy="318.1" r="2.05" fill="#ecb478" opacity="0.32"/><circle cx="967.3" cy="316.9" r="2.64" fill="#ecb478" opacity="0.25"/><circle cx="1000.8" cy="321.0" r="2.61" fill="#ecb478" opacity="0.15"/><circle cx="1037.0" cy="320.8" r="2.64" fill="#ecb478" opacity="0.34"/><circle cx="1076.8" cy="315.5" r="2.64" fill="#ecb478" opacity="0.30"/><circle cx="1112.2" cy="317.3" r="2.17" fill="#ecb478" opacity="0.27"/><circle cx="1148.1" cy="316.4" r="3.55" fill="#ecb478" opacity="0.24"/><circle cx="1184.2" cy="318.3" r="3.29" fill="#ecb478" opacity="0.27"/><circle cx="30.1" cy="356.1" r="1.72" fill="#ecb478" opacity="0.34"/><circle cx="66.0" cy="355.5" r="3.41" fill="#ecb478" opacity="0.32"/><circle cx="103.5" cy="356.6" r="2.17" fill="#ecb478" opacity="0.20"/><circle cx="135.4" cy="354.7" r="3.54" fill="#ecb478" opacity="0.27"/><circle cx="174.8" cy="354.5" r="2.87" fill="#ecb478" opacity="0.26"/><circle cx="212.8" cy="353.1" r="2.45" fill="#ecb478" opacity="0.18"/><circle cx="245.5" cy="353.0" r="3.31" fill="#ecb478" opacity="0.30"/><circle cx="282.8" cy="352.1" r="3.62" fill="#ecb478" opacity="0.18"/><circle cx="316.3" cy="352.1" r="2.45" fill="#ecb478" opacity="0.18"/><circle cx="354.1" cy="355.9" r="1.74" fill="#ecb478" opacity="0.26"/><circle cx="388.1" cy="353.9" r="2.33" fill="#ecb478" opacity="0.31"/><circle cx="427.2" cy="356.6" r="2.71" fill="#ecb478" opacity="0.31"/><circle cx="461.9" cy="355.3" r="2.49" fill="#ecb478" opacity="0.33"/><circle cx="499.0" cy="353.7" r="3.68" fill="#ecb478" opacity="0.18"/><circle cx="534.5" cy="354.5" r="3.34" fill="#ecb478" opacity="0.25"/><circle cx="569.6" cy="356.4" r="2.97" fill="#ecb478" opacity="0.16"/><circle cx="606.6" cy="352.1" r="3.85" fill="#ecb478" opacity="0.33"/><circle cx="642.3" cy="352.4" r="3.03" fill="#ecb478" opacity="0.18"/><circle cx="675.7" cy="351.7" r="1.60" fill="#ecb478" opacity="0.25"/><circle cx="714.3" cy="356.0" r="2.83" fill="#ecb478" opacity="0.21"/><circle cx="747.3" cy="351.9" r="3.26" fill="#ecb478" opacity="0.18"/><circle cx="788.0" cy="353.7" r="2.47" fill="#ecb478" opacity="0.20"/><circle cx="819.8" cy="354.9" r="3.51" fill="#ecb478" opacity="0.16"/><circle cx="858.8" cy="353.1" r="1.90" fill="#ecb478" opacity="0.25"/><circle cx="894.6" cy="351.6" r="2.61" fill="#ecb478" opacity="0.36"/><circle cx="929.9" cy="355.3" r="2.05" fill="#ecb478" opacity="0.26"/><circle cx="967.1" cy="354.0" r="2.92" fill="#ecb478" opacity="0.36"/><circle cx="1001.2" cy="353.6" r="2.20" fill="#ecb478" opacity="0.35"/><circle cx="1038.8" cy="354.4" r="2.87" fill="#ecb478" opacity="0.19"/><circle cx="1075.2" cy="352.7" r="2.82" fill="#ecb478" opacity="0.36"/><circle cx="1111.2" cy="352.0" r="2.36" fill="#ecb478" opacity="0.26"/><circle cx="1143.8" cy="356.1" r="2.49" fill="#ecb478" opacity="0.23"/><circle cx="1182.2" cy="354.2" r="3.25" fill="#ecb478" opacity="0.15"/><circle cx="30.7" cy="391.8" r="3.94" fill="#ecb478" opacity="0.21"/><circle cx="63.2" cy="389.6" r="2.46" fill="#ecb478" opacity="0.21"/><circle cx="103.1" cy="387.8" r="2.55" fill="#ecb478" opacity="0.26"/><circle cx="137.6" cy="391.1" r="2.12" fill="#ecb478" opacity="0.16"/><circle cx="171.2" cy="389.4" r="3.26" fill="#ecb478" opacity="0.36"/><circle cx="207.9" cy="390.9" r="3.82" fill="#ecb478" opacity="0.24"/><circle cx="248.5" cy="388.7" r="3.05" fill="#ecb478" opacity="0.28"/><circle cx="283.9" cy="389.3" r="2.96" fill="#ecb478" opacity="0.24"/><circle cx="318.3" cy="387.6" r="2.52" fill="#ecb478" opacity="0.30"/><circle cx="352.1" cy="388.5" r="1.69" fill="#ecb478" opacity="0.30"/><circle cx="387.5" cy="389.8" r="3.36" fill="#ecb478" opacity="0.25"/><circle cx="425.8" cy="390.5" r="3.65" fill="#ecb478" opacity="0.20"/><circle cx="461.0" cy="390.9" r="3.29" fill="#ecb478" opacity="0.30"/><circle cx="498.5" cy="390.6" r="1.77" fill="#ecb478" opacity="0.21"/><circle cx="535.8" cy="391.0" r="3.16" fill="#ecb478" opacity="0.18"/><circle cx="567.3" cy="388.7" r="3.60" fill="#ecb478" opacity="0.30"/><circle cx="603.1" cy="387.4" r="2.14" fill="#ecb478" opacity="0.34"/><circle cx="641.8" cy="390.6" r="3.01" fill="#ecb478" opacity="0.21"/><circle cx="679.4" cy="387.9" r="2.98" fill="#ecb478" opacity="0.16"/><circle cx="716.1" cy="389.3" r="3.82" fill="#ecb478" opacity="0.20"/><circle cx="751.4" cy="389.8" r="3.23" fill="#ecb478" opacity="0.15"/><circle cx="787.7" cy="388.8" r="1.62" fill="#ecb478" opacity="0.31"/><circle cx="824.2" cy="389.8" r="3.47" fill="#ecb478" opacity="0.21"/><circle cx="859.7" cy="392.4" r="2.09" fill="#ecb478" opacity="0.26"/><circle cx="893.0" cy="389.0" r="3.17" fill="#ecb478" opacity="0.26"/><circle cx="933.0" cy="392.4" r="1.86" fill="#ecb478" opacity="0.24"/><circle cx="963.8" cy="391.4" r="3.24" fill="#ecb478" opacity="0.34"/><circle cx="999.1" cy="392.0" r="1.72" fill="#ecb478" opacity="0.24"/><circle cx="1040.6" cy="391.3" r="1.95" fill="#ecb478" opacity="0.31"/><circle cx="1072.9" cy="392.4" r="2.40" fill="#ecb478" opacity="0.25"/><circle cx="1111.0" cy="390.4" r="2.90" fill="#ecb478" opacity="0.20"/><circle cx="1145.2" cy="391.5" r="3.67" fill="#ecb478" opacity="0.34"/><circle cx="1179.0" cy="387.8" r="1.95" fill="#ecb478" opacity="0.16"/><circle cx="32.7" cy="428.6" r="2.91" fill="#ecb478" opacity="0.23"/><circle cx="64.1" cy="426.3" r="2.18" fill="#ecb478" opacity="0.28"/><circle cx="102.8" cy="424.9" r="3.67" fill="#ecb478" opacity="0.17"/><circle cx="139.0" cy="427.9" r="3.59" fill="#ecb478" opacity="0.18"/><circle cx="173.2" cy="428.9" r="3.75" fill="#ecb478" opacity="0.22"/><circle cx="208.8" cy="428.0" r="2.72" fill="#ecb478" opacity="0.27"/><circle cx="244.5" cy="423.3" r="3.74" fill="#ecb478" opacity="0.18"/><circle cx="279.5" cy="423.5" r="1.89" fill="#ecb478" opacity="0.30"/><circle cx="317.5" cy="424.2" r="3.26" fill="#ecb478" opacity="0.21"/><circle cx="353.8" cy="427.3" r="2.43" fill="#ecb478" opacity="0.20"/><circle cx="388.1" cy="426.6" r="1.68" fill="#ecb478" opacity="0.18"/><circle cx="425.2" cy="424.0" r="3.98" fill="#ecb478" opacity="0.18"/><circle cx="464.1" cy="427.1" r="2.02" fill="#ecb478" opacity="0.20"/><circle cx="498.6" cy="428.6" r="2.54" fill="#ecb478" opacity="0.24"/><circle cx="536.1" cy="424.8" r="3.52" fill="#ecb478" opacity="0.29"/><circle cx="567.1" cy="427.1" r="3.23" fill="#ecb478" opacity="0.19"/><circle cx="606.7" cy="428.3" r="3.27" fill="#ecb478" opacity="0.15"/><circle cx="643.1" cy="427.9" r="3.89" fill="#ecb478" opacity="0.23"/><circle cx="679.7" cy="426.1" r="3.96" fill="#ecb478" opacity="0.15"/><circle cx="712.2" cy="424.9" r="2.96" fill="#ecb478" opacity="0.26"/><circle cx="748.0" cy="423.7" r="2.06" fill="#ecb478" opacity="0.24"/><circle cx="787.6" cy="428.4" r="2.73" fill="#ecb478" opacity="0.18"/><circle cx="824.4" cy="427.5" r="2.34" fill="#ecb478" opacity="0.23"/><circle cx="856.5" cy="428.2" r="1.69" fill="#ecb478" opacity="0.18"/><circle cx="892.2" cy="426.0" r="2.74" fill="#ecb478" opacity="0.28"/><circle cx="927.4" cy="427.8" r="3.00" fill="#ecb478" opacity="0.16"/><circle cx="965.9" cy="423.6" r="3.72" fill="#ecb478" opacity="0.23"/><circle cx="999.7" cy="426.5" r="2.38" fill="#ecb478" opacity="0.18"/><circle cx="1038.4" cy="423.3" r="2.50" fill="#ecb478" opacity="0.17"/><circle cx="1071.1" cy="424.6" r="1.79" fill="#ecb478" opacity="0.17"/><circle cx="1110.7" cy="425.6" r="1.87" fill="#ecb478" opacity="0.25"/><circle cx="1147.8" cy="423.8" r="2.70" fill="#ecb478" opacity="0.29"/><circle cx="1179.6" cy="426.5" r="3.67" fill="#ecb478" opacity="0.26"/><circle cx="30.2" cy="459.5" r="1.80" fill="#ecb478" opacity="0.27"/><circle cx="64.8" cy="463.1" r="3.15" fill="#ecb478" opacity="0.30"/><circle cx="104.2" cy="460.7" r="3.06" fill="#ecb478" opacity="0.19"/><circle cx="138.3" cy="462.8" r="3.07" fill="#ecb478" opacity="0.20"/><circle cx="172.4" cy="459.1" r="2.61" fill="#ecb478" opacity="0.36"/><circle cx="208.8" cy="462.4" r="2.71" fill="#ecb478" opacity="0.21"/><circle cx="247.9" cy="460.2" r="2.79" fill="#ecb478" opacity="0.18"/><circle cx="284.1" cy="464.5" r="2.06" fill="#ecb478" opacity="0.29"/><circle cx="318.0" cy="461.9" r="3.08" fill="#ecb478" opacity="0.31"/><circle cx="356.6" cy="464.6" r="1.68" fill="#ecb478" opacity="0.29"/><circle cx="389.9" cy="461.7" r="1.87" fill="#ecb478" opacity="0.17"/><circle cx="428.9" cy="460.5" r="3.12" fill="#ecb478" opacity="0.35"/><circle cx="464.2" cy="462.1" r="3.63" fill="#ecb478" opacity="0.19"/><circle cx="498.3" cy="463.0" r="2.46" fill="#ecb478" opacity="0.20"/><circle cx="536.5" cy="464.8" r="3.86" fill="#ecb478" opacity="0.21"/><circle cx="570.2" cy="464.2" r="3.12" fill="#ecb478" opacity="0.33"/><circle cx="603.7" cy="462.6" r="1.94" fill="#ecb478" opacity="0.23"/><circle cx="640.5" cy="461.3" r="2.42" fill="#ecb478" opacity="0.20"/><circle cx="678.2" cy="460.3" r="3.88" fill="#ecb478" opacity="0.34"/><circle cx="715.8" cy="462.3" r="3.11" fill="#ecb478" opacity="0.29"/><circle cx="750.0" cy="461.7" r="2.09" fill="#ecb478" opacity="0.16"/><circle cx="786.4" cy="461.4" r="2.89" fill="#ecb478" opacity="0.17"/><circle cx="820.2" cy="463.5" r="1.84" fill="#ecb478" opacity="0.23"/><circle cx="858.8" cy="459.2" r="1.65" fill="#ecb478" opacity="0.32"/><circle cx="891.3" cy="461.8" r="2.12" fill="#ecb478" opacity="0.33"/><circle cx="931.9" cy="463.1" r="2.02" fill="#ecb478" opacity="0.21"/><circle cx="966.2" cy="461.5" r="1.86" fill="#ecb478" opacity="0.33"/><circle cx="999.6" cy="460.4" r="2.79" fill="#ecb478" opacity="0.15"/><circle cx="1037.3" cy="459.0" r="3.95" fill="#ecb478" opacity="0.26"/><circle cx="1072.6" cy="462.2" r="3.99" fill="#ecb478" opacity="0.27"/><circle cx="1108.2" cy="463.8" r="2.70" fill="#ecb478" opacity="0.29"/><circle cx="1143.2" cy="463.1" r="1.60" fill="#ecb478" opacity="0.23"/><circle cx="1179.0" cy="462.8" r="2.38" fill="#ecb478" opacity="0.31"/><circle cx="32.6" cy="497.2" r="1.68" fill="#ecb478" opacity="0.19"/><circle cx="67.8" cy="497.7" r="2.88" fill="#ecb478" opacity="0.28"/><circle cx="101.5" cy="495.2" r="3.28" fill="#ecb478" opacity="0.34"/><circle cx="136.9" cy="500.1" r="3.17" fill="#ecb478" opacity="0.20"/><circle cx="171.5" cy="497.8" r="3.22" fill="#ecb478" opacity="0.35"/><circle cx="210.5" cy="496.6" r="2.45" fill="#ecb478" opacity="0.21"/><circle cx="246.6" cy="499.5" r="2.69" fill="#ecb478" opacity="0.24"/><circle cx="284.3" cy="499.2" r="3.18" fill="#ecb478" opacity="0.22"/><circle cx="320.7" cy="498.5" r="3.21" fill="#ecb478" opacity="0.20"/><circle cx="354.7" cy="495.7" r="2.11" fill="#ecb478" opacity="0.34"/><circle cx="392.7" cy="499.2" r="3.78" fill="#ecb478" opacity="0.30"/><circle cx="428.9" cy="496.1" r="2.16" fill="#ecb478" opacity="0.18"/><circle cx="460.7" cy="496.0" r="2.49" fill="#ecb478" opacity="0.26"/><circle cx="495.4" cy="500.2" r="2.86" fill="#ecb478" opacity="0.26"/><circle cx="531.1" cy="500.5" r="2.12" fill="#ecb478" opacity="0.26"/><circle cx="567.1" cy="499.1" r="2.50" fill="#ecb478" opacity="0.28"/><circle cx="603.2" cy="499.1" r="2.37" fill="#ecb478" opacity="0.21"/><circle cx="641.6" cy="496.2" r="2.44" fill="#ecb478" opacity="0.22"/><circle cx="680.6" cy="499.1" r="3.87" fill="#ecb478" opacity="0.35"/><circle cx="712.7" cy="498.6" r="1.80" fill="#ecb478" opacity="0.15"/><circle cx="752.2" cy="499.9" r="2.05" fill="#ecb478" opacity="0.16"/><circle cx="787.8" cy="498.9" r="2.71" fill="#ecb478" opacity="0.20"/><circle cx="821.8" cy="500.1" r="3.18" fill="#ecb478" opacity="0.25"/><circle cx="861.0" cy="496.2" r="1.76" fill="#ecb478" opacity="0.16"/><circle cx="892.8" cy="499.1" r="2.85" fill="#ecb478" opacity="0.32"/><circle cx="930.5" cy="500.7" r="3.88" fill="#ecb478" opacity="0.36"/><circle cx="967.3" cy="495.1" r="2.65" fill="#ecb478" opacity="0.29"/><circle cx="1001.4" cy="497.9" r="3.27" fill="#ecb478" opacity="0.16"/><circle cx="1035.6" cy="498.0" r="3.13" fill="#ecb478" opacity="0.26"/><circle cx="1071.0" cy="500.1" r="2.42" fill="#ecb478" opacity="0.32"/><circle cx="1107.3" cy="497.3" r="2.87" fill="#ecb478" opacity="0.33"/><circle cx="1145.1" cy="500.7" r="2.19" fill="#ecb478" opacity="0.19"/><circle cx="1180.7" cy="498.5" r="2.47" fill="#ecb478" opacity="0.30"/><circle cx="29.1" cy="531.0" r="3.80" fill="#ecb478" opacity="0.25"/><circle cx="68.6" cy="535.4" r="3.59" fill="#ecb478" opacity="0.21"/><circle cx="104.7" cy="532.0" r="2.48" fill="#ecb478" opacity="0.31"/><circle cx="139.2" cy="531.2" r="1.79" fill="#ecb478" opacity="0.21"/><circle cx="173.0" cy="533.5" r="3.97" fill="#ecb478" opacity="0.25"/><circle cx="211.4" cy="533.9" r="1.79" fill="#ecb478" opacity="0.27"/><circle cx="244.7" cy="534.3" r="3.40" fill="#ecb478" opacity="0.34"/><circle cx="284.6" cy="534.6" r="2.85" fill="#ecb478" opacity="0.16"/><circle cx="319.3" cy="536.1" r="3.78" fill="#ecb478" opacity="0.25"/><circle cx="355.4" cy="535.3" r="2.85" fill="#ecb478" opacity="0.21"/><circle cx="389.0" cy="533.3" r="3.70" fill="#ecb478" opacity="0.19"/><circle cx="426.2" cy="536.9" r="2.40" fill="#ecb478" opacity="0.34"/><circle cx="459.1" cy="535.3" r="2.89" fill="#ecb478" opacity="0.18"/><circle cx="497.1" cy="531.3" r="2.56" fill="#ecb478" opacity="0.16"/><circle cx="533.8" cy="536.3" r="3.55" fill="#ecb478" opacity="0.18"/><circle cx="570.7" cy="535.3" r="2.04" fill="#ecb478" opacity="0.23"/><circle cx="607.8" cy="535.9" r="1.95" fill="#ecb478" opacity="0.32"/><circle cx="639.1" cy="531.3" r="3.12" fill="#ecb478" opacity="0.33"/><circle cx="675.1" cy="531.7" r="2.89" fill="#ecb478" opacity="0.24"/><circle cx="714.7" cy="532.8" r="3.40" fill="#ecb478" opacity="0.22"/><circle cx="747.0" cy="532.0" r="3.64" fill="#ecb478" opacity="0.21"/><circle cx="787.7" cy="534.6" r="3.92" fill="#ecb478" opacity="0.23"/><circle cx="821.0" cy="533.0" r="3.02" fill="#ecb478" opacity="0.32"/><circle cx="855.6" cy="533.1" r="2.47" fill="#ecb478" opacity="0.17"/><circle cx="894.3" cy="535.4" r="2.91" fill="#ecb478" opacity="0.22"/><circle cx="927.1" cy="533.1" r="3.30" fill="#ecb478" opacity="0.33"/><circle cx="968.4" cy="535.3" r="3.85" fill="#ecb478" opacity="0.19"/><circle cx="1004.2" cy="533.6" r="3.22" fill="#ecb478" opacity="0.36"/><circle cx="1037.0" cy="535.1" r="3.55" fill="#ecb478" opacity="0.17"/><circle cx="1074.8" cy="532.7" r="3.85" fill="#ecb478" opacity="0.24"/><circle cx="1107.9" cy="532.9" r="2.80" fill="#ecb478" opacity="0.16"/><circle cx="1144.1" cy="531.1" r="2.74" fill="#ecb478" opacity="0.24"/><circle cx="1179.5" cy="533.4" r="3.46" fill="#ecb478" opacity="0.18"/><circle cx="32.1" cy="572.9" r="2.82" fill="#ecb478" opacity="0.28"/><circle cx="64.8" cy="569.3" r="2.23" fill="#ecb478" opacity="0.32"/><circle cx="100.2" cy="571.0" r="3.27" fill="#ecb478" opacity="0.31"/><circle cx="137.7" cy="569.5" r="2.75" fill="#ecb478" opacity="0.19"/><circle cx="173.4" cy="568.8" r="2.56" fill="#ecb478" opacity="0.32"/><circle cx="210.6" cy="572.7" r="3.62" fill="#ecb478" opacity="0.17"/><circle cx="247.1" cy="568.7" r="3.80" fill="#ecb478" opacity="0.23"/><circle cx="283.3" cy="567.2" r="3.94" fill="#ecb478" opacity="0.35"/><circle cx="317.1" cy="567.8" r="3.62" fill="#ecb478" opacity="0.21"/><circle cx="356.8" cy="572.1" r="3.99" fill="#ecb478" opacity="0.35"/><circle cx="388.1" cy="568.0" r="1.90" fill="#ecb478" opacity="0.23"/><circle cx="424.2" cy="572.9" r="3.36" fill="#ecb478" opacity="0.35"/><circle cx="461.3" cy="569.2" r="3.15" fill="#ecb478" opacity="0.33"/><circle cx="496.1" cy="569.5" r="3.48" fill="#ecb478" opacity="0.17"/><circle cx="533.6" cy="570.3" r="2.21" fill="#ecb478" opacity="0.35"/><circle cx="569.7" cy="567.1" r="2.19" fill="#ecb478" opacity="0.25"/><circle cx="608.8" cy="569.5" r="2.86" fill="#ecb478" opacity="0.35"/><circle cx="641.3" cy="572.9" r="1.90" fill="#ecb478" opacity="0.35"/><circle cx="679.5" cy="570.3" r="3.58" fill="#ecb478" opacity="0.26"/><circle cx="711.1" cy="569.7" r="3.24" fill="#ecb478" opacity="0.31"/><circle cx="750.1" cy="569.7" r="2.55" fill="#ecb478" opacity="0.15"/><circle cx="785.6" cy="571.1" r="2.39" fill="#ecb478" opacity="0.16"/><circle cx="824.2" cy="570.2" r="2.47" fill="#ecb478" opacity="0.23"/><circle cx="857.2" cy="568.5" r="3.95" fill="#ecb478" opacity="0.22"/><circle cx="895.4" cy="571.2" r="1.62" fill="#ecb478" opacity="0.21"/><circle cx="931.2" cy="567.5" r="3.16" fill="#ecb478" opacity="0.28"/><circle cx="965.6" cy="568.3" r="2.20" fill="#ecb478" opacity="0.29"/><circle cx="1000.5" cy="571.9" r="3.85" fill="#ecb478" opacity="0.36"/><circle cx="1038.4" cy="568.2" r="3.37" fill="#ecb478" opacity="0.20"/><circle cx="1074.9" cy="567.3" r="3.31" fill="#ecb478" opacity="0.21"/><circle cx="1109.4" cy="570.5" r="2.86" fill="#ecb478" opacity="0.35"/><circle cx="1148.1" cy="571.2" r="3.68" fill="#ecb478" opacity="0.17"/><circle cx="1180.5" cy="568.3" r="3.09" fill="#ecb478" opacity="0.30"/><circle cx="31.3" cy="607.2" r="2.96" fill="#ecb478" opacity="0.35"/><circle cx="65.9" cy="609.0" r="2.41" fill="#ecb478" opacity="0.31"/><circle cx="100.5" cy="607.3" r="1.72" fill="#ecb478" opacity="0.30"/><circle cx="135.2" cy="606.6" r="2.59" fill="#ecb478" opacity="0.15"/><circle cx="173.7" cy="606.6" r="2.54" fill="#ecb478" opacity="0.32"/><circle cx="210.5" cy="606.7" r="3.34" fill="#ecb478" opacity="0.36"/><circle cx="248.1" cy="608.1" r="2.42" fill="#ecb478" opacity="0.20"/><circle cx="280.7" cy="604.5" r="3.31" fill="#ecb478" opacity="0.20"/><circle cx="317.2" cy="605.2" r="2.61" fill="#ecb478" opacity="0.33"/><circle cx="351.2" cy="606.2" r="2.08" fill="#ecb478" opacity="0.15"/><circle cx="387.1" cy="603.9" r="2.61" fill="#ecb478" opacity="0.21"/><circle cx="423.4" cy="605.3" r="3.22" fill="#ecb478" opacity="0.21"/><circle cx="463.3" cy="604.7" r="3.40" fill="#ecb478" opacity="0.23"/><circle cx="500.4" cy="606.2" r="2.08" fill="#ecb478" opacity="0.23"/><circle cx="534.6" cy="604.8" r="3.24" fill="#ecb478" opacity="0.20"/><circle cx="570.7" cy="605.6" r="2.87" fill="#ecb478" opacity="0.20"/><circle cx="603.4" cy="604.5" r="3.91" fill="#ecb478" opacity="0.36"/><circle cx="643.4" cy="607.4" r="2.36" fill="#ecb478" opacity="0.32"/><circle cx="677.5" cy="605.1" r="2.58" fill="#ecb478" opacity="0.22"/><circle cx="714.8" cy="608.3" r="2.95" fill="#ecb478" opacity="0.33"/><circle cx="747.9" cy="603.3" r="3.69" fill="#ecb478" opacity="0.31"/><circle cx="788.9" cy="607.2" r="3.50" fill="#ecb478" opacity="0.32"/><circle cx="824.4" cy="607.0" r="1.85" fill="#ecb478" opacity="0.35"/><circle cx="860.6" cy="606.9" r="3.25" fill="#ecb478" opacity="0.21"/><circle cx="896.8" cy="605.1" r="3.43" fill="#ecb478" opacity="0.28"/><circle cx="930.0" cy="607.1" r="3.11" fill="#ecb478" opacity="0.35"/><circle cx="963.6" cy="606.9" r="2.77" fill="#ecb478" opacity="0.16"/><circle cx="1000.4" cy="606.2" r="3.07" fill="#ecb478" opacity="0.33"/><circle cx="1038.8" cy="608.7" r="2.74" fill="#ecb478" opacity="0.22"/><circle cx="1075.1" cy="606.6" r="3.45" fill="#ecb478" opacity="0.15"/><circle cx="1109.6" cy="608.9" r="2.27" fill="#ecb478" opacity="0.20"/><circle cx="1143.9" cy="603.1" r="2.22" fill="#ecb478" opacity="0.29"/><circle cx="1181.5" cy="607.3" r="2.86" fill="#ecb478" opacity="0.21"/><circle cx="29.1" cy="642.2" r="2.98" fill="#ecb478" opacity="0.32"/><circle cx="64.9" cy="639.3" r="2.56" fill="#ecb478" opacity="0.35"/><circle cx="104.2" cy="642.2" r="3.54" fill="#ecb478" opacity="0.18"/><circle cx="138.3" cy="641.5" r="3.68" fill="#ecb478" opacity="0.23"/><circle cx="175.3" cy="641.8" r="1.82" fill="#ecb478" opacity="0.24"/><circle cx="213.0" cy="639.3" r="1.75" fill="#ecb478" opacity="0.31"/><circle cx="245.1" cy="642.7" r="3.91" fill="#ecb478" opacity="0.24"/><circle cx="279.8" cy="641.8" r="2.35" fill="#ecb478" opacity="0.33"/><circle cx="319.8" cy="640.3" r="3.16" fill="#ecb478" opacity="0.35"/><circle cx="355.5" cy="641.0" r="1.83" fill="#ecb478" opacity="0.30"/><circle cx="388.0" cy="640.5" r="3.44" fill="#ecb478" opacity="0.29"/><circle cx="428.4" cy="644.6" r="2.20" fill="#ecb478" opacity="0.22"/><circle cx="463.1" cy="644.4" r="3.63" fill="#ecb478" opacity="0.24"/><circle cx="495.5" cy="642.7" r="2.82" fill="#ecb478" opacity="0.32"/><circle cx="533.5" cy="639.0" r="3.98" fill="#ecb478" opacity="0.18"/><circle cx="567.4" cy="641.7" r="3.15" fill="#ecb478" opacity="0.27"/><circle cx="603.3" cy="642.0" r="3.01" fill="#ecb478" opacity="0.29"/><circle cx="643.7" cy="640.0" r="3.56" fill="#ecb478" opacity="0.16"/><circle cx="680.5" cy="642.9" r="2.38" fill="#ecb478" opacity="0.33"/><circle cx="711.7" cy="641.6" r="1.62" fill="#ecb478" opacity="0.17"/><circle cx="748.8" cy="643.9" r="2.87" fill="#ecb478" opacity="0.17"/><circle cx="787.3" cy="640.6" r="2.64" fill="#ecb478" opacity="0.23"/><circle cx="819.1" cy="642.3" r="2.51" fill="#ecb478" opacity="0.32"/><circle cx="857.0" cy="641.4" r="2.39" fill="#ecb478" opacity="0.19"/><circle cx="893.7" cy="643.2" r="3.19" fill="#ecb478" opacity="0.34"/><circle cx="927.2" cy="642.6" r="1.96" fill="#ecb478" opacity="0.27"/><circle cx="968.8" cy="640.0" r="3.19" fill="#ecb478" opacity="0.28"/><circle cx="999.3" cy="643.5" r="2.02" fill="#ecb478" opacity="0.30"/><circle cx="1040.1" cy="644.6" r="3.61" fill="#ecb478" opacity="0.18"/><circle cx="1073.7" cy="640.0" r="3.15" fill="#ecb478" opacity="0.24"/><circle cx="1111.7" cy="642.9" r="2.86" fill="#ecb478" opacity="0.24"/><circle cx="1144.6" cy="643.7" r="2.74" fill="#ecb478" opacity="0.35"/><circle cx="1184.4" cy="639.4" r="3.71" fill="#ecb478" opacity="0.16"/><circle cx="263.6" cy="266.6" r="220" fill="url(#glow)" opacity="0.9"/>
  <g opacity="0.85" transform="translate(1020, 495)">
        <rect x="-46" y="-60" width="92" height="115" fill="#ecb478" opacity="0.18" rx="6"/>
        <path d="M -28 -36 L 28 -36 M -28 -12 L 28 -12 M -28 12 L 18 12 M -28 36 L 28 36" stroke="#faebd6" stroke-width="3" stroke-linecap="round"/>
      </g>
  <g transform="translate(80, 90)">
    <rect x="0" y="0" rx="20" ry="20" width="101" height="38" fill="#ecb478" opacity="0.18" stroke="#ecb478" stroke-width="1.5"/>
    <text x="50.5" y="25" font-family="ui-sans-serif, Inter, sans-serif" font-weight="700" font-size="14" letter-spacing="2.5" fill="#ecb478" text-anchor="middle">ARTICLE</text>
  </g>
  <text x="80" y="565" font-family="ui-sans-serif, -apple-system, Segoe UI, Inter, sans-serif" font-weight="800" font-size="44" fill="#faf8f5" opacity="0.98"><tspan x="80" dy="0">Adr</tspan></text>
  <rect x="0" y="669" width="1200" height="6" fill="url(#gold)"/>
</svg>