<?xml version="1.0" encoding="UTF-8"?>
<svg xmlns="http://www.w3.org/2000/svg" viewBox="0 0 1200 675" width="1200" height="675" role="img" aria-label="Agro Products Dispute Resolution: A Case Study">
  <defs>
    <linearGradient id="bg" x1="0%" y1="0%" x2="100%" y2="100%">
      <stop offset="0%" stop-color="#532d15"/>
      <stop offset="100%" stop-color="#bd6b20"/>
    </linearGradient>
    <linearGradient id="gold" x1="0%" y1="0%" x2="100%" y2="100%">
      <stop offset="0%" stop-color="#e09440"/>
      <stop offset="100%" stop-color="#fdf6ee"/>
    </linearGradient>
    <radialGradient id="glow" cx="50%" cy="50%" r="50%">
      <stop offset="0%" stop-color="#e09440" stop-opacity="0.45"/>
      <stop offset="100%" stop-color="#e09440" stop-opacity="0"/>
    </radialGradient>
  </defs>
  <rect width="1200" height="675" fill="url(#bg)"/>
  <polygon points="992.6,579.0 960.9,468.2 1071.7,436.4 1103.4,547.3" fill="#fdf6ee" opacity="0.09"/><polygon points="936.3,64.5 937.9,-31.0 1019.8,18.1" fill="#fdf6ee" opacity="0.06"/><polygon points="809.5,173.9 634.0,311.3 602.8,90.6" fill="#fdf6ee" opacity="0.15"/><polygon points="376.5,257.4 345.0,341.2 255.5,337.2 231.8,250.9 306.5,201.6" fill="#fdf6ee" opacity="0.11"/><polygon points="857.1,46.7 1096.0,22.4 1120.4,261.2 881.5,285.6" fill="#fdf6ee" opacity="0.08"/><polygon points="679.7,337.6 805.0,296.8 845.8,422.1 720.5,462.9" fill="#fdf6ee" opacity="0.17"/><polygon points="1328.3,586.5 1245.7,725.2 1088.3,689.5 1073.6,528.7 1221.9,465.1" fill="#fdf6ee" opacity="0.11"/><polygon points="471.0,148.2 532.4,143.3 556.0,200.1 509.2,240.2 456.7,208.1" fill="#fdf6ee" opacity="0.09"/><polygon points="293.7,434.2 356.5,390.9 399.8,453.7 337.0,497.0" fill="#fdf6ee" opacity="0.10"/><polygon points="672.4,644.8 573.6,749.8 443.2,688.2 461.5,545.2 603.1,518.4" fill="#fdf6ee" opacity="0.18"/><polygon points="733.8,177.9 731.2,68.3 834.6,31.9 901.1,119.0 838.9,209.2" fill="#fdf6ee" opacity="0.16"/><polygon points="623.6,171.3 506.1,-42.4 749.9,-37.3" fill="#fdf6ee" opacity="0.18"/><polygon points="500.3,204.8 602.5,106.5 727.6,173.4 702.6,313.0 562.1,332.4" fill="#fdf6ee" opacity="0.17"/><polygon points="951.6,313.3 1026.9,174.8 1181.9,203.6 1202.4,359.9 1060.1,427.7" fill="#fdf6ee" opacity="0.06"/><circle cx="936.0" cy="202.5" r="180" fill="url(#glow)"/>
  <g opacity="0.85" transform="translate(1020, 495)">
        <circle r="60" fill="#e09440" opacity="0.18"/>
        <path d="M -34 6 Q -10 -22 14 6 Q 34 24 14 26 L -22 26 Q -38 24 -34 6 Z" fill="none" stroke="#fdf6ee" stroke-width="3" stroke-linejoin="round"/>
      </g>
  <g transform="translate(80, 90)">
    <rect x="0" y="0" rx="20" ry="20" width="134" height="38" fill="#e09440" opacity="0.18" stroke="#e09440" stroke-width="1.5"/>
    <text x="67" y="25" font-family="ui-sans-serif, Inter, sans-serif" font-weight="700" font-size="14" letter-spacing="2.5" fill="#e09440" text-anchor="middle">CASE STUDY</text>
  </g>
  <text x="80" y="515" font-family="ui-sans-serif, -apple-system, Segoe UI, Inter, sans-serif" font-weight="800" font-size="44" fill="#faf8f5" opacity="0.98"><tspan x="80" dy="0">Agro Products Dispute</tspan><tspan x="80" dy="56">Resolution: A Case Study</tspan></text>
  <rect x="0" y="669" width="1200" height="6" fill="url(#gold)"/>
</svg>