<?xml version="1.0" encoding="UTF-8"?>
<svg xmlns="http://www.w3.org/2000/svg" viewBox="0 0 1200 675" width="1200" height="675" role="img" aria-label="Amicable Closure of Engineering Loan Default">
  <defs>
    <linearGradient id="bg" x1="0%" y1="0%" x2="100%" y2="100%">
      <stop offset="0%" stop-color="#12100e"/>
      <stop offset="100%" stop-color="#1c1917"/>
    </linearGradient>
    <linearGradient id="gold" x1="0%" y1="0%" x2="100%" y2="100%">
      <stop offset="0%" stop-color="#bd6b20"/>
      <stop offset="100%" stop-color="#e09440"/>
    </linearGradient>
    <radialGradient id="glow" cx="50%" cy="50%" r="50%">
      <stop offset="0%" stop-color="#bd6b20" stop-opacity="0.45"/>
      <stop offset="100%" stop-color="#bd6b20" stop-opacity="0"/>
    </radialGradient>
  </defs>
  <rect width="1200" height="675" fill="url(#bg)"/>
  <circle cx="216" cy="236.24999999999997" r="335.0549834105186" fill="url(#glow)" opacity="0.8"/><circle cx="670.8" cy="294.8" r="244.5" fill="#bd6b20" opacity="0.12"/><circle cx="729.5" cy="298.0" r="269.7" fill="#bd6b20" opacity="0.18"/><circle cx="511.1" cy="468.9" r="88.1" fill="#bd6b20" opacity="0.13"/><circle cx="99.6" cy="181.8" r="212.6" fill="#bd6b20" opacity="0.11"/><circle cx="835.6" cy="198.7" r="100.7" fill="#bd6b20" opacity="0.15"/><circle cx="984.0" cy="168.8" r="220" fill="none" stroke="#e09440" stroke-width="1.5" opacity="0.4"/>
  <g opacity="0.85" transform="translate(1020, 495)">
        <circle r="60" fill="#bd6b20" opacity="0.18"/>
        <path d="M -34 6 Q -10 -22 14 6 Q 34 24 14 26 L -22 26 Q -38 24 -34 6 Z" fill="none" stroke="#e09440" stroke-width="3" stroke-linejoin="round"/>
      </g>
  <g transform="translate(80, 90)">
    <rect x="0" y="0" rx="20" ry="20" width="134" height="38" fill="#bd6b20" opacity="0.18" stroke="#bd6b20" stroke-width="1.5"/>
    <text x="67" y="25" font-family="ui-sans-serif, Inter, sans-serif" font-weight="700" font-size="14" letter-spacing="2.5" fill="#bd6b20" text-anchor="middle">CASE STUDY</text>
  </g>
  <text x="80" y="515" font-family="ui-sans-serif, -apple-system, Segoe UI, Inter, sans-serif" font-weight="800" font-size="44" fill="#faf8f5" opacity="0.98"><tspan x="80" dy="0">Amicable Closure of</tspan><tspan x="80" dy="56">Engineering Loan Default</tspan></text>
  <rect x="0" y="669" width="1200" height="6" fill="url(#gold)"/>
</svg>