<?xml version="1.0" encoding="UTF-8"?>
<svg xmlns="http://www.w3.org/2000/svg" viewBox="0 0 1200 675" width="1200" height="675" role="img" aria-label="Andhra Pradesh High Court Asserts Exclusive Jurisdiction of Commercial Courts for Arbitration Award Execution">
  <defs>
    <linearGradient id="bg" x1="0%" y1="0%" x2="100%" y2="100%">
      <stop offset="0%" stop-color="#643516"/>
      <stop offset="100%" stop-color="#7d4315"/>
    </linearGradient>
    <linearGradient id="gold" x1="0%" y1="0%" x2="100%" y2="100%">
      <stop offset="0%" stop-color="#ecb478"/>
      <stop offset="100%" stop-color="#faebd6"/>
    </linearGradient>
    <radialGradient id="glow" cx="50%" cy="50%" r="50%">
      <stop offset="0%" stop-color="#ecb478" stop-opacity="0.45"/>
      <stop offset="100%" stop-color="#ecb478" stop-opacity="0"/>
    </radialGradient>
  </defs>
  <rect width="1200" height="675" fill="url(#bg)"/>
  <polygon points="847.7,449.3 718.3,381.3 841.9,303.2" fill="#faebd6" opacity="0.17"/><polygon points="924.6,290.2 978.9,114.8 1162.5,112.3 1221.6,286.1 1074.6,396.0" fill="#faebd6" opacity="0.15"/><polygon points="291.2,353.7 329.7,436.1 263.2,498.1 183.6,454.1 200.9,364.8" fill="#faebd6" opacity="0.13"/><polygon points="373.5,792.0 351.5,527.7 591.4,640.8" fill="#faebd6" opacity="0.06"/><polygon points="894.8,313.5 1024.4,295.3 975.3,416.6" fill="#faebd6" opacity="0.13"/><polygon points="327.7,156.3 478.5,64.2 570.7,215.0 419.9,307.1" fill="#faebd6" opacity="0.08"/><polygon points="-67.0,405.8 95.3,311.9 234.8,437.3 158.7,608.7 -27.9,589.2" fill="#faebd6" opacity="0.17"/><polygon points="832.1,320.0 742.9,235.7 795.5,124.8 917.3,140.6 939.8,261.2" fill="#faebd6" opacity="0.09"/><polygon points="650.3,494.2 535.0,505.8 488.3,399.7 574.7,322.6 674.9,381.0" fill="#faebd6" opacity="0.10"/><polygon points="199.2,100.7 235.8,168.6 182.6,224.4 113.0,191.0 123.3,114.6" fill="#faebd6" opacity="0.15"/><polygon points="603.6,159.6 524.0,-42.4 738.8,-10.4" fill="#faebd6" opacity="0.18"/><polygon points="633.0,269.9 554.5,369.0 455.3,290.5 533.9,191.4" fill="#faebd6" opacity="0.10"/><polygon points="807.9,25.4 718.8,115.1 606.0,58.0 625.4,-66.9 750.2,-87.1" fill="#faebd6" opacity="0.18"/><polygon points="315.5,224.4 490.1,197.3 426.3,362.0" fill="#faebd6" opacity="0.11"/><circle cx="936.0" cy="202.5" r="180" fill="url(#glow)"/>
  <g opacity="0.85" transform="translate(1020, 495)">
        <circle r="68" fill="none" stroke="#ecb478" stroke-width="2" opacity="0.35"/>
        <path d="M -38 12 L 38 12 M -32 -8 L 32 -8 M -45 -28 L 45 -28" stroke="#faebd6" stroke-width="3" stroke-linecap="round"/>
        <rect x="-50" y="-44" width="100" height="80" fill="none" stroke="#ecb478" stroke-width="2"/>
      </g>
  <g transform="translate(80, 90)">
    <rect x="0" y="0" rx="20" ry="20" width="112" height="38" fill="#ecb478" opacity="0.18" stroke="#ecb478" stroke-width="1.5"/>
    <text x="56" y="25" font-family="ui-sans-serif, Inter, sans-serif" font-weight="700" font-size="14" letter-spacing="2.5" fill="#ecb478" text-anchor="middle">NEWSROOM</text>
  </g>
  <text x="80" y="465" font-family="ui-sans-serif, -apple-system, Segoe UI, Inter, sans-serif" font-weight="800" font-size="44" fill="#faf8f5" opacity="0.98"><tspan x="80" dy="0">Andhra Pradesh High Court</tspan><tspan x="80" dy="56">Asserts Exclusive</tspan><tspan x="80" dy="56">Jurisdiction of Commercial</tspan></text>
  <rect x="0" y="669" width="1200" height="6" fill="url(#gold)"/>
</svg>