<?xml version="1.0" encoding="UTF-8"?>
<svg xmlns="http://www.w3.org/2000/svg" viewBox="0 0 1200 675" width="1200" height="675" role="img" aria-label="Appoint an Arbitrator/Conciliator from our empaneled neutrals">
  <defs>
    <linearGradient id="bg" x1="0%" y1="0%" x2="100%" y2="100%">
      <stop offset="0%" stop-color="#12100e"/>
      <stop offset="100%" stop-color="#1c1917"/>
    </linearGradient>
    <linearGradient id="gold" x1="0%" y1="0%" x2="100%" y2="100%">
      <stop offset="0%" stop-color="#bd6b20"/>
      <stop offset="100%" stop-color="#e09440"/>
    </linearGradient>
    <radialGradient id="glow" cx="50%" cy="50%" r="50%">
      <stop offset="0%" stop-color="#bd6b20" stop-opacity="0.45"/>
      <stop offset="100%" stop-color="#bd6b20" stop-opacity="0"/>
    </radialGradient>
  </defs>
  <rect width="1200" height="675" fill="url(#bg)"/>
  <circle cx="27.8" cy="27.8" r="1.62" fill="#bd6b20" opacity="0.30"/><circle cx="68.9" cy="29.4" r="2.01" fill="#bd6b20" opacity="0.34"/><circle cx="104.2" cy="31.0" r="3.27" fill="#bd6b20" opacity="0.18"/><circle cx="136.4" cy="31.9" r="3.46" fill="#bd6b20" opacity="0.32"/><circle cx="171.4" cy="28.9" r="2.81" fill="#bd6b20" opacity="0.29"/><circle cx="208.4" cy="28.2" r="3.94" fill="#bd6b20" opacity="0.28"/><circle cx="248.5" cy="28.7" r="3.90" fill="#bd6b20" opacity="0.34"/><circle cx="280.2" cy="31.0" r="3.87" fill="#bd6b20" opacity="0.15"/><circle cx="318.6" cy="30.1" r="3.30" fill="#bd6b20" opacity="0.15"/><circle cx="353.8" cy="32.4" r="2.59" fill="#bd6b20" opacity="0.22"/><circle cx="389.8" cy="30.2" r="3.71" fill="#bd6b20" opacity="0.16"/><circle cx="424.4" cy="27.1" r="2.19" fill="#bd6b20" opacity="0.20"/><circle cx="460.1" cy="32.5" r="2.14" fill="#bd6b20" opacity="0.35"/><circle cx="499.5" cy="30.1" r="2.98" fill="#bd6b20" opacity="0.31"/><circle cx="533.8" cy="27.6" r="2.94" fill="#bd6b20" opacity="0.28"/><circle cx="569.1" cy="30.3" r="3.44" fill="#bd6b20" opacity="0.27"/><circle cx="608.4" cy="28.1" r="2.13" fill="#bd6b20" opacity="0.34"/><circle cx="643.5" cy="28.4" r="3.52" fill="#bd6b20" opacity="0.26"/><circle cx="675.7" cy="29.7" r="1.93" fill="#bd6b20" opacity="0.33"/><circle cx="712.3" cy="27.9" r="3.45" fill="#bd6b20" opacity="0.16"/><circle cx="748.6" cy="27.8" r="3.80" fill="#bd6b20" opacity="0.34"/><circle cx="787.3" cy="29.3" r="2.04" fill="#bd6b20" opacity="0.35"/><circle cx="823.5" cy="30.0" r="2.01" fill="#bd6b20" opacity="0.16"/><circle cx="859.0" cy="32.3" r="2.23" fill="#bd6b20" opacity="0.32"/><circle cx="893.6" cy="29.4" r="2.46" fill="#bd6b20" opacity="0.24"/><circle cx="928.1" cy="28.7" r="1.90" fill="#bd6b20" opacity="0.33"/><circle cx="963.7" cy="32.1" r="1.64" fill="#bd6b20" opacity="0.21"/><circle cx="999.5" cy="29.0" r="2.68" fill="#bd6b20" opacity="0.32"/><circle cx="1036.9" cy="28.3" r="1.75" fill="#bd6b20" opacity="0.30"/><circle cx="1074.4" cy="29.3" r="2.48" fill="#bd6b20" opacity="0.29"/><circle cx="1107.6" cy="30.2" r="2.37" fill="#bd6b20" opacity="0.18"/><circle cx="1144.4" cy="29.1" r="2.61" fill="#bd6b20" opacity="0.24"/><circle cx="1179.2" cy="27.1" r="2.61" fill="#bd6b20" opacity="0.17"/><circle cx="28.3" cy="68.2" r="2.06" fill="#bd6b20" opacity="0.29"/><circle cx="63.7" cy="63.5" r="3.86" fill="#bd6b20" opacity="0.34"/><circle cx="100.9" cy="65.5" r="2.53" fill="#bd6b20" opacity="0.32"/><circle cx="135.3" cy="65.0" r="1.86" fill="#bd6b20" opacity="0.20"/><circle cx="173.5" cy="67.6" r="3.24" fill="#bd6b20" opacity="0.28"/><circle cx="209.3" cy="67.4" r="3.20" fill="#bd6b20" opacity="0.30"/><circle cx="245.8" cy="64.6" r="1.87" fill="#bd6b20" opacity="0.24"/><circle cx="280.6" cy="64.7" r="2.27" fill="#bd6b20" opacity="0.18"/><circle cx="319.8" cy="63.2" r="1.67" fill="#bd6b20" opacity="0.19"/><circle cx="356.3" cy="67.0" r="2.75" fill="#bd6b20" opacity="0.30"/><circle cx="389.8" cy="68.3" r="1.63" fill="#bd6b20" opacity="0.33"/><circle cx="428.5" cy="63.2" r="2.27" fill="#bd6b20" opacity="0.25"/><circle cx="459.2" cy="64.1" r="3.08" fill="#bd6b20" opacity="0.26"/><circle cx="495.8" cy="66.3" r="3.11" fill="#bd6b20" opacity="0.32"/><circle cx="532.1" cy="64.2" r="2.79" fill="#bd6b20" opacity="0.29"/><circle cx="570.8" cy="68.9" r="2.26" fill="#bd6b20" opacity="0.19"/><circle cx="607.3" cy="67.0" r="3.58" fill="#bd6b20" opacity="0.17"/><circle cx="640.8" cy="67.7" r="3.09" fill="#bd6b20" opacity="0.32"/><circle cx="677.0" cy="66.2" r="2.78" fill="#bd6b20" opacity="0.25"/><circle cx="712.7" cy="64.7" r="2.68" fill="#bd6b20" opacity="0.26"/><circle cx="752.1" cy="66.6" r="2.91" fill="#bd6b20" opacity="0.20"/><circle cx="785.0" cy="67.9" r="3.42" fill="#bd6b20" opacity="0.22"/><circle cx="823.1" cy="63.4" r="1.67" fill="#bd6b20" opacity="0.27"/><circle cx="860.8" cy="64.5" r="2.34" fill="#bd6b20" opacity="0.28"/><circle cx="892.2" cy="67.8" r="2.73" fill="#bd6b20" opacity="0.15"/><circle cx="932.8" cy="63.7" r="2.44" fill="#bd6b20" opacity="0.20"/><circle cx="966.1" cy="67.4" r="2.50" fill="#bd6b20" opacity="0.22"/><circle cx="999.4" cy="67.4" r="1.98" fill="#bd6b20" opacity="0.24"/><circle cx="1035.0" cy="63.2" r="3.99" fill="#bd6b20" opacity="0.23"/><circle cx="1077.0" cy="65.0" r="2.95" fill="#bd6b20" opacity="0.32"/><circle cx="1110.2" cy="63.7" r="2.28" fill="#bd6b20" opacity="0.34"/><circle cx="1146.1" cy="65.0" r="2.74" fill="#bd6b20" opacity="0.25"/><circle cx="1183.1" cy="64.6" r="2.08" fill="#bd6b20" opacity="0.26"/><circle cx="32.1" cy="99.6" r="3.02" fill="#bd6b20" opacity="0.24"/><circle cx="68.2" cy="99.0" r="2.02" fill="#bd6b20" opacity="0.26"/><circle cx="100.4" cy="99.3" r="2.14" fill="#bd6b20" opacity="0.22"/><circle cx="139.2" cy="100.4" r="3.10" fill="#bd6b20" opacity="0.24"/><circle cx="172.1" cy="101.9" r="1.87" fill="#bd6b20" opacity="0.20"/><circle cx="212.8" cy="99.2" r="3.35" fill="#bd6b20" opacity="0.29"/><circle cx="248.1" cy="103.4" r="3.63" fill="#bd6b20" opacity="0.19"/><circle cx="280.7" cy="99.2" r="2.48" fill="#bd6b20" opacity="0.18"/><circle cx="319.5" cy="99.3" r="1.80" fill="#bd6b20" opacity="0.31"/><circle cx="353.1" cy="101.3" r="2.44" fill="#bd6b20" opacity="0.29"/><circle cx="391.5" cy="101.2" r="2.31" fill="#bd6b20" opacity="0.34"/><circle cx="425.9" cy="100.9" r="1.77" fill="#bd6b20" opacity="0.32"/><circle cx="460.5" cy="103.9" r="2.56" fill="#bd6b20" opacity="0.19"/><circle cx="496.8" cy="102.6" r="2.00" fill="#bd6b20" opacity="0.30"/><circle cx="532.7" cy="104.7" r="2.77" fill="#bd6b20" opacity="0.17"/><circle cx="572.5" cy="104.4" r="2.44" fill="#bd6b20" opacity="0.16"/><circle cx="605.8" cy="99.3" r="2.13" fill="#bd6b20" opacity="0.17"/><circle cx="644.7" cy="102.1" r="3.03" fill="#bd6b20" opacity="0.32"/><circle cx="680.5" cy="100.8" r="3.80" fill="#bd6b20" opacity="0.23"/><circle cx="716.9" cy="102.8" r="1.66" fill="#bd6b20" opacity="0.22"/><circle cx="747.3" cy="104.1" r="2.07" fill="#bd6b20" opacity="0.27"/><circle cx="785.7" cy="101.5" r="3.61" fill="#bd6b20" opacity="0.36"/><circle cx="820.3" cy="104.8" r="1.97" fill="#bd6b20" opacity="0.17"/><circle cx="861.0" cy="100.9" r="2.89" fill="#bd6b20" opacity="0.34"/><circle cx="896.7" cy="102.0" r="3.07" fill="#bd6b20" opacity="0.18"/><circle cx="932.1" cy="104.7" r="2.14" fill="#bd6b20" opacity="0.21"/><circle cx="968.1" cy="104.6" r="1.68" fill="#bd6b20" opacity="0.28"/><circle cx="1003.1" cy="103.9" r="2.35" fill="#bd6b20" opacity="0.29"/><circle cx="1040.6" cy="102.6" r="3.43" fill="#bd6b20" opacity="0.26"/><circle cx="1071.6" cy="101.0" r="1.79" fill="#bd6b20" opacity="0.18"/><circle cx="1109.1" cy="101.5" r="2.79" fill="#bd6b20" opacity="0.20"/><circle cx="1146.6" cy="103.6" r="2.51" fill="#bd6b20" opacity="0.19"/><circle cx="1185.0" cy="102.8" r="2.21" fill="#bd6b20" opacity="0.27"/><circle cx="28.1" cy="135.8" r="3.14" fill="#bd6b20" opacity="0.23"/><circle cx="67.3" cy="137.9" r="2.85" fill="#bd6b20" opacity="0.21"/><circle cx="99.5" cy="140.2" r="3.42" fill="#bd6b20" opacity="0.31"/><circle cx="138.7" cy="136.8" r="2.76" fill="#bd6b20" opacity="0.26"/><circle cx="173.5" cy="140.5" r="2.98" fill="#bd6b20" opacity="0.21"/><circle cx="211.2" cy="140.0" r="2.71" fill="#bd6b20" opacity="0.20"/><circle cx="248.4" cy="140.6" r="3.62" fill="#bd6b20" opacity="0.17"/><circle cx="279.7" cy="136.8" r="3.48" fill="#bd6b20" opacity="0.31"/><circle cx="316.8" cy="139.6" r="1.83" fill="#bd6b20" opacity="0.23"/><circle cx="351.4" cy="139.6" r="1.96" fill="#bd6b20" opacity="0.34"/><circle cx="390.1" cy="140.7" r="1.65" fill="#bd6b20" opacity="0.17"/><circle cx="427.3" cy="138.5" r="3.92" fill="#bd6b20" opacity="0.35"/><circle cx="460.0" cy="139.7" r="3.27" fill="#bd6b20" opacity="0.24"/><circle cx="499.5" cy="137.7" r="2.16" fill="#bd6b20" opacity="0.15"/><circle cx="534.5" cy="137.5" r="2.40" fill="#bd6b20" opacity="0.31"/><circle cx="568.8" cy="136.9" r="2.50" fill="#bd6b20" opacity="0.30"/><circle cx="605.3" cy="140.7" r="1.92" fill="#bd6b20" opacity="0.23"/><circle cx="644.6" cy="135.2" r="2.16" fill="#bd6b20" opacity="0.23"/><circle cx="679.3" cy="140.8" r="2.11" fill="#bd6b20" opacity="0.25"/><circle cx="716.6" cy="140.7" r="2.77" fill="#bd6b20" opacity="0.25"/><circle cx="748.7" cy="140.6" r="3.13" fill="#bd6b20" opacity="0.32"/><circle cx="786.7" cy="137.9" r="1.85" fill="#bd6b20" opacity="0.17"/><circle cx="821.7" cy="139.2" r="3.84" fill="#bd6b20" opacity="0.21"/><circle cx="860.2" cy="135.8" r="2.33" fill="#bd6b20" opacity="0.16"/><circle cx="891.1" cy="136.4" r="3.69" fill="#bd6b20" opacity="0.28"/><circle cx="931.3" cy="140.9" r="2.46" fill="#bd6b20" opacity="0.20"/><circle cx="966.4" cy="136.7" r="2.58" fill="#bd6b20" opacity="0.20"/><circle cx="1005.0" cy="139.6" r="2.45" fill="#bd6b20" opacity="0.30"/><circle cx="1039.2" cy="140.0" r="1.72" fill="#bd6b20" opacity="0.34"/><circle cx="1075.3" cy="139.1" r="2.41" fill="#bd6b20" opacity="0.19"/><circle cx="1109.9" cy="137.3" r="2.62" fill="#bd6b20" opacity="0.18"/><circle cx="1146.6" cy="137.8" r="3.77" fill="#bd6b20" opacity="0.26"/><circle cx="1180.6" cy="137.6" r="3.70" fill="#bd6b20" opacity="0.15"/><circle cx="29.4" cy="171.1" r="4.00" fill="#bd6b20" opacity="0.28"/><circle cx="65.7" cy="172.4" r="2.34" fill="#bd6b20" opacity="0.18"/><circle cx="100.2" cy="172.6" r="3.89" fill="#bd6b20" opacity="0.25"/><circle cx="140.1" cy="175.6" r="2.66" fill="#bd6b20" opacity="0.17"/><circle cx="173.8" cy="176.3" r="3.34" fill="#bd6b20" opacity="0.15"/><circle cx="207.5" cy="172.1" r="3.90" fill="#bd6b20" opacity="0.26"/><circle cx="247.3" cy="172.1" r="3.82" fill="#bd6b20" opacity="0.25"/><circle cx="281.1" cy="171.3" r="1.85" fill="#bd6b20" opacity="0.32"/><circle cx="317.0" cy="175.8" r="2.57" fill="#bd6b20" opacity="0.18"/><circle cx="354.1" cy="172.7" r="3.04" fill="#bd6b20" opacity="0.34"/><circle cx="390.2" cy="176.6" r="1.85" fill="#bd6b20" opacity="0.27"/><circle cx="424.4" cy="174.3" r="1.69" fill="#bd6b20" opacity="0.19"/><circle cx="461.2" cy="175.5" r="3.76" fill="#bd6b20" opacity="0.26"/><circle cx="497.8" cy="174.2" r="2.95" fill="#bd6b20" opacity="0.16"/><circle cx="532.5" cy="173.8" r="2.84" fill="#bd6b20" opacity="0.29"/><circle cx="572.6" cy="175.1" r="3.82" fill="#bd6b20" opacity="0.20"/><circle cx="604.7" cy="174.9" r="2.12" fill="#bd6b20" opacity="0.24"/><circle cx="644.5" cy="172.9" r="2.98" fill="#bd6b20" opacity="0.32"/><circle cx="679.3" cy="171.5" r="1.90" fill="#bd6b20" opacity="0.35"/><circle cx="716.5" cy="175.9" r="2.96" fill="#bd6b20" opacity="0.36"/><circle cx="752.5" cy="173.4" r="2.55" fill="#bd6b20" opacity="0.32"/><circle cx="787.4" cy="173.5" r="3.96" fill="#bd6b20" opacity="0.29"/><circle cx="820.4" cy="173.7" r="1.97" fill="#bd6b20" opacity="0.16"/><circle cx="857.6" cy="171.0" r="3.56" fill="#bd6b20" opacity="0.36"/><circle cx="894.3" cy="171.3" r="3.78" fill="#bd6b20" opacity="0.17"/><circle cx="931.9" cy="172.7" r="2.84" fill="#bd6b20" opacity="0.23"/><circle cx="963.8" cy="172.3" r="2.32" fill="#bd6b20" opacity="0.29"/><circle cx="1004.5" cy="176.3" r="3.61" fill="#bd6b20" opacity="0.29"/><circle cx="1038.7" cy="172.6" r="2.34" fill="#bd6b20" opacity="0.21"/><circle cx="1072.6" cy="174.1" r="1.67" fill="#bd6b20" opacity="0.17"/><circle cx="1107.5" cy="175.1" r="3.37" fill="#bd6b20" opacity="0.23"/><circle cx="1146.7" cy="176.6" r="3.91" fill="#bd6b20" opacity="0.23"/><circle cx="1179.4" cy="171.7" r="2.00" fill="#bd6b20" opacity="0.35"/><circle cx="28.6" cy="210.4" r="1.71" fill="#bd6b20" opacity="0.23"/><circle cx="68.6" cy="211.4" r="3.02" fill="#bd6b20" opacity="0.15"/><circle cx="104.4" cy="207.2" r="3.07" fill="#bd6b20" opacity="0.27"/><circle cx="138.6" cy="213.0" r="3.53" fill="#bd6b20" opacity="0.17"/><circle cx="173.1" cy="210.0" r="2.40" fill="#bd6b20" opacity="0.29"/><circle cx="209.6" cy="211.7" r="4.00" fill="#bd6b20" opacity="0.34"/><circle cx="244.7" cy="209.1" r="3.99" fill="#bd6b20" opacity="0.24"/><circle cx="283.3" cy="211.6" r="1.91" fill="#bd6b20" opacity="0.28"/><circle cx="319.4" cy="212.8" r="1.83" fill="#bd6b20" opacity="0.23"/><circle cx="355.6" cy="212.9" r="2.80" fill="#bd6b20" opacity="0.34"/><circle cx="387.6" cy="213.0" r="2.40" fill="#bd6b20" opacity="0.33"/><circle cx="426.7" cy="208.4" r="3.57" fill="#bd6b20" opacity="0.16"/><circle cx="464.0" cy="208.0" r="2.58" fill="#bd6b20" opacity="0.18"/><circle cx="495.8" cy="211.9" r="2.22" fill="#bd6b20" opacity="0.20"/><circle cx="534.5" cy="212.8" r="2.64" fill="#bd6b20" opacity="0.29"/><circle cx="572.0" cy="207.8" r="2.81" fill="#bd6b20" opacity="0.27"/><circle cx="604.7" cy="208.5" r="2.77" fill="#bd6b20" opacity="0.15"/><circle cx="640.8" cy="211.1" r="3.83" fill="#bd6b20" opacity="0.23"/><circle cx="678.1" cy="210.2" r="3.25" fill="#bd6b20" opacity="0.24"/><circle cx="713.7" cy="208.4" r="2.58" fill="#bd6b20" opacity="0.26"/><circle cx="747.1" cy="209.5" r="2.10" fill="#bd6b20" opacity="0.15"/><circle cx="783.9" cy="212.7" r="3.77" fill="#bd6b20" opacity="0.33"/><circle cx="819.3" cy="207.4" r="3.26" fill="#bd6b20" opacity="0.19"/><circle cx="859.4" cy="210.4" r="3.47" fill="#bd6b20" opacity="0.33"/><circle cx="891.2" cy="208.3" r="2.33" fill="#bd6b20" opacity="0.24"/><circle cx="930.2" cy="212.6" r="3.91" fill="#bd6b20" opacity="0.19"/><circle cx="965.0" cy="210.6" r="1.76" fill="#bd6b20" opacity="0.16"/><circle cx="1004.4" cy="207.8" r="2.95" fill="#bd6b20" opacity="0.27"/><circle cx="1037.8" cy="207.6" r="2.54" fill="#bd6b20" opacity="0.28"/><circle cx="1073.8" cy="210.8" r="3.31" fill="#bd6b20" opacity="0.25"/><circle cx="1112.3" cy="210.8" r="1.70" fill="#bd6b20" opacity="0.34"/><circle cx="1146.5" cy="210.4" r="2.15" fill="#bd6b20" opacity="0.20"/><circle cx="1181.2" cy="207.2" r="2.95" fill="#bd6b20" opacity="0.25"/><circle cx="31.5" cy="246.3" r="1.96" fill="#bd6b20" opacity="0.24"/><circle cx="67.6" cy="245.3" r="2.00" fill="#bd6b20" opacity="0.16"/><circle cx="100.0" cy="244.1" r="2.54" fill="#bd6b20" opacity="0.22"/><circle cx="137.5" cy="248.0" r="1.66" fill="#bd6b20" opacity="0.25"/><circle cx="172.1" cy="246.2" r="3.73" fill="#bd6b20" opacity="0.23"/><circle cx="212.8" cy="244.3" r="3.60" fill="#bd6b20" opacity="0.23"/><circle cx="248.0" cy="246.1" r="2.74" fill="#bd6b20" opacity="0.32"/><circle cx="282.1" cy="247.5" r="2.58" fill="#bd6b20" opacity="0.32"/><circle cx="320.6" cy="248.0" r="3.24" fill="#bd6b20" opacity="0.21"/><circle cx="352.0" cy="246.1" r="3.02" fill="#bd6b20" opacity="0.28"/><circle cx="392.1" cy="243.6" r="2.42" fill="#bd6b20" opacity="0.24"/><circle cx="424.4" cy="245.6" r="2.05" fill="#bd6b20" opacity="0.16"/><circle cx="461.9" cy="246.0" r="3.41" fill="#bd6b20" opacity="0.35"/><circle cx="498.8" cy="246.5" r="3.33" fill="#bd6b20" opacity="0.35"/><circle cx="534.1" cy="247.4" r="2.53" fill="#bd6b20" opacity="0.16"/><circle cx="572.0" cy="243.6" r="3.12" fill="#bd6b20" opacity="0.22"/><circle cx="608.6" cy="248.6" r="3.75" fill="#bd6b20" opacity="0.23"/><circle cx="639.2" cy="247.0" r="2.08" fill="#bd6b20" opacity="0.25"/><circle cx="677.0" cy="243.7" r="1.89" fill="#bd6b20" opacity="0.36"/><circle cx="713.7" cy="247.4" r="3.73" fill="#bd6b20" opacity="0.21"/><circle cx="748.8" cy="248.5" r="3.70" fill="#bd6b20" opacity="0.26"/><circle cx="788.9" cy="248.9" r="1.95" fill="#bd6b20" opacity="0.33"/><circle cx="823.6" cy="248.1" r="3.65" fill="#bd6b20" opacity="0.20"/><circle cx="855.6" cy="248.9" r="3.25" fill="#bd6b20" opacity="0.36"/><circle cx="896.3" cy="243.2" r="3.44" fill="#bd6b20" opacity="0.19"/><circle cx="932.6" cy="248.7" r="2.09" fill="#bd6b20" opacity="0.15"/><circle cx="968.7" cy="248.6" r="3.22" fill="#bd6b20" opacity="0.23"/><circle cx="1000.0" cy="245.4" r="2.59" fill="#bd6b20" opacity="0.27"/><circle cx="1036.4" cy="247.8" r="3.37" fill="#bd6b20" opacity="0.27"/><circle cx="1074.4" cy="244.6" r="3.90" fill="#bd6b20" opacity="0.25"/><circle cx="1109.6" cy="247.0" r="2.97" fill="#bd6b20" opacity="0.34"/><circle cx="1145.3" cy="243.2" r="3.19" fill="#bd6b20" opacity="0.28"/><circle cx="1182.5" cy="247.8" r="2.70" fill="#bd6b20" opacity="0.29"/><circle cx="32.8" cy="283.0" r="3.59" fill="#bd6b20" opacity="0.33"/><circle cx="65.3" cy="283.4" r="2.48" fill="#bd6b20" opacity="0.22"/><circle cx="103.4" cy="282.3" r="3.98" fill="#bd6b20" opacity="0.35"/><circle cx="136.0" cy="283.0" r="3.95" fill="#bd6b20" opacity="0.34"/><circle cx="174.0" cy="284.7" r="2.33" fill="#bd6b20" opacity="0.22"/><circle cx="211.6" cy="283.5" r="3.69" fill="#bd6b20" opacity="0.29"/><circle cx="246.8" cy="282.5" r="3.65" fill="#bd6b20" opacity="0.32"/><circle cx="285.0" cy="284.1" r="2.70" fill="#bd6b20" opacity="0.26"/><circle cx="315.9" cy="282.8" r="2.69" fill="#bd6b20" opacity="0.20"/><circle cx="352.8" cy="279.9" r="2.82" fill="#bd6b20" opacity="0.33"/><circle cx="390.3" cy="284.7" r="2.78" fill="#bd6b20" opacity="0.32"/><circle cx="428.0" cy="280.9" r="2.98" fill="#bd6b20" opacity="0.22"/><circle cx="459.7" cy="282.8" r="2.51" fill="#bd6b20" opacity="0.25"/><circle cx="499.4" cy="279.3" r="3.86" fill="#bd6b20" opacity="0.26"/><circle cx="531.8" cy="284.8" r="2.39" fill="#bd6b20" opacity="0.16"/><circle cx="569.9" cy="282.7" r="1.66" fill="#bd6b20" opacity="0.22"/><circle cx="608.1" cy="279.1" r="3.11" fill="#bd6b20" opacity="0.34"/><circle cx="639.1" cy="282.9" r="2.97" fill="#bd6b20" opacity="0.20"/><circle cx="675.3" cy="279.7" r="2.55" fill="#bd6b20" opacity="0.28"/><circle cx="713.5" cy="284.2" r="2.62" fill="#bd6b20" opacity="0.27"/><circle cx="750.2" cy="279.4" r="2.15" fill="#bd6b20" opacity="0.32"/><circle cx="786.7" cy="282.0" r="3.21" fill="#bd6b20" opacity="0.19"/><circle cx="820.8" cy="283.6" r="2.71" fill="#bd6b20" opacity="0.21"/><circle cx="860.5" cy="280.5" r="3.35" fill="#bd6b20" opacity="0.36"/><circle cx="895.2" cy="284.7" r="3.84" fill="#bd6b20" opacity="0.28"/><circle cx="931.6" cy="284.8" r="3.94" fill="#bd6b20" opacity="0.28"/><circle cx="963.0" cy="284.4" r="3.59" fill="#bd6b20" opacity="0.23"/><circle cx="1003.9" cy="284.6" r="1.72" fill="#bd6b20" opacity="0.28"/><circle cx="1037.0" cy="282.2" r="2.95" fill="#bd6b20" opacity="0.16"/><circle cx="1072.8" cy="281.7" r="2.31" fill="#bd6b20" opacity="0.24"/><circle cx="1111.4" cy="281.4" r="1.81" fill="#bd6b20" opacity="0.17"/><circle cx="1148.5" cy="281.7" r="3.88" fill="#bd6b20" opacity="0.29"/><circle cx="1184.2" cy="280.9" r="1.87" fill="#bd6b20" opacity="0.19"/><circle cx="27.4" cy="317.9" r="3.45" fill="#bd6b20" opacity="0.28"/><circle cx="65.2" cy="319.2" r="3.75" fill="#bd6b20" opacity="0.26"/><circle cx="102.0" cy="318.7" r="3.97" fill="#bd6b20" opacity="0.24"/><circle cx="140.0" cy="315.7" r="2.72" fill="#bd6b20" opacity="0.21"/><circle cx="173.2" cy="317.6" r="2.70" fill="#bd6b20" opacity="0.22"/><circle cx="212.6" cy="317.0" r="3.76" fill="#bd6b20" opacity="0.21"/><circle cx="248.0" cy="316.5" r="2.22" fill="#bd6b20" opacity="0.16"/><circle cx="283.1" cy="320.1" r="3.94" fill="#bd6b20" opacity="0.27"/><circle cx="317.6" cy="315.6" r="2.86" fill="#bd6b20" opacity="0.19"/><circle cx="352.8" cy="316.9" r="3.45" fill="#bd6b20" opacity="0.22"/><circle cx="388.7" cy="320.2" r="3.54" fill="#bd6b20" opacity="0.28"/><circle cx="425.4" cy="319.9" r="1.85" fill="#bd6b20" opacity="0.31"/><circle cx="464.6" cy="318.3" r="2.40" fill="#bd6b20" opacity="0.19"/><circle cx="498.1" cy="316.3" r="3.59" fill="#bd6b20" opacity="0.22"/><circle cx="531.5" cy="319.5" r="2.46" fill="#bd6b20" opacity="0.25"/><circle cx="569.7" cy="315.9" r="1.65" fill="#bd6b20" opacity="0.34"/><circle cx="605.2" cy="319.9" r="2.11" fill="#bd6b20" opacity="0.35"/><circle cx="639.8" cy="316.6" r="2.93" fill="#bd6b20" opacity="0.32"/><circle cx="676.0" cy="316.2" r="2.07" fill="#bd6b20" opacity="0.35"/><circle cx="716.5" cy="315.8" r="2.68" fill="#bd6b20" opacity="0.16"/><circle cx="751.1" cy="315.1" r="2.88" fill="#bd6b20" opacity="0.26"/><circle cx="788.4" cy="316.3" r="3.53" fill="#bd6b20" opacity="0.23"/><circle cx="822.2" cy="318.7" r="2.73" fill="#bd6b20" opacity="0.32"/><circle cx="859.7" cy="319.0" r="3.10" fill="#bd6b20" opacity="0.35"/><circle cx="896.8" cy="317.2" r="3.51" fill="#bd6b20" opacity="0.29"/><circle cx="930.8" cy="316.2" r="3.20" fill="#bd6b20" opacity="0.24"/><circle cx="964.3" cy="317.9" r="1.84" fill="#bd6b20" opacity="0.26"/><circle cx="1000.5" cy="320.2" r="2.59" fill="#bd6b20" opacity="0.33"/><circle cx="1036.8" cy="315.9" r="3.71" fill="#bd6b20" opacity="0.33"/><circle cx="1076.6" cy="320.3" r="3.58" fill="#bd6b20" opacity="0.26"/><circle cx="1108.6" cy="319.1" r="3.46" fill="#bd6b20" opacity="0.18"/><circle cx="1143.7" cy="318.4" r="2.94" fill="#bd6b20" opacity="0.36"/><circle cx="1184.2" cy="318.1" r="2.80" fill="#bd6b20" opacity="0.28"/><circle cx="28.5" cy="355.5" r="2.02" fill="#bd6b20" opacity="0.35"/><circle cx="68.0" cy="354.2" r="3.23" fill="#bd6b20" opacity="0.28"/><circle cx="101.7" cy="356.1" r="2.11" fill="#bd6b20" opacity="0.22"/><circle cx="139.3" cy="352.6" r="2.58" fill="#bd6b20" opacity="0.31"/><circle cx="175.3" cy="354.8" r="3.16" fill="#bd6b20" opacity="0.17"/><circle cx="209.9" cy="351.5" r="1.95" fill="#bd6b20" opacity="0.19"/><circle cx="244.7" cy="354.0" r="2.13" fill="#bd6b20" opacity="0.27"/><circle cx="284.6" cy="351.6" r="2.60" fill="#bd6b20" opacity="0.23"/><circle cx="319.5" cy="356.7" r="1.90" fill="#bd6b20" opacity="0.22"/><circle cx="355.0" cy="354.5" r="1.85" fill="#bd6b20" opacity="0.34"/><circle cx="392.8" cy="356.8" r="3.93" fill="#bd6b20" opacity="0.28"/><circle cx="425.0" cy="354.3" r="2.56" fill="#bd6b20" opacity="0.30"/><circle cx="462.0" cy="352.4" r="2.47" fill="#bd6b20" opacity="0.25"/><circle cx="496.2" cy="353.8" r="2.98" fill="#bd6b20" opacity="0.21"/><circle cx="531.1" cy="356.9" r="2.04" fill="#bd6b20" opacity="0.17"/><circle cx="572.6" cy="355.4" r="2.58" fill="#bd6b20" opacity="0.22"/><circle cx="608.7" cy="353.3" r="2.82" fill="#bd6b20" opacity="0.25"/><circle cx="643.3" cy="354.2" r="3.39" fill="#bd6b20" opacity="0.21"/><circle cx="676.2" cy="355.7" r="2.87" fill="#bd6b20" opacity="0.33"/><circle cx="714.7" cy="351.8" r="2.59" fill="#bd6b20" opacity="0.15"/><circle cx="747.3" cy="355.4" r="2.07" fill="#bd6b20" opacity="0.19"/><circle cx="784.0" cy="351.6" r="2.18" fill="#bd6b20" opacity="0.33"/><circle cx="823.0" cy="353.8" r="3.56" fill="#bd6b20" opacity="0.23"/><circle cx="855.8" cy="355.9" r="3.25" fill="#bd6b20" opacity="0.20"/><circle cx="895.0" cy="354.1" r="2.52" fill="#bd6b20" opacity="0.16"/><circle cx="929.9" cy="352.0" r="3.23" fill="#bd6b20" opacity="0.25"/><circle cx="963.4" cy="355.0" r="2.26" fill="#bd6b20" opacity="0.32"/><circle cx="1001.0" cy="353.6" r="3.10" fill="#bd6b20" opacity="0.31"/><circle cx="1039.7" cy="353.4" r="3.39" fill="#bd6b20" opacity="0.21"/><circle cx="1074.7" cy="356.5" r="3.22" fill="#bd6b20" opacity="0.21"/><circle cx="1108.4" cy="355.4" r="2.08" fill="#bd6b20" opacity="0.30"/><circle cx="1145.4" cy="353.1" r="2.13" fill="#bd6b20" opacity="0.34"/><circle cx="1181.4" cy="356.5" r="3.07" fill="#bd6b20" opacity="0.18"/><circle cx="28.9" cy="390.9" r="3.00" fill="#bd6b20" opacity="0.30"/><circle cx="65.5" cy="387.9" r="4.00" fill="#bd6b20" opacity="0.28"/><circle cx="102.7" cy="392.9" r="2.58" fill="#bd6b20" opacity="0.28"/><circle cx="139.2" cy="392.7" r="1.79" fill="#bd6b20" opacity="0.26"/><circle cx="174.1" cy="391.7" r="1.62" fill="#bd6b20" opacity="0.32"/><circle cx="207.1" cy="389.1" r="3.85" fill="#bd6b20" opacity="0.17"/><circle cx="247.4" cy="388.7" r="2.75" fill="#bd6b20" opacity="0.16"/><circle cx="279.2" cy="388.0" r="3.06" fill="#bd6b20" opacity="0.15"/><circle cx="318.7" cy="387.0" r="1.89" fill="#bd6b20" opacity="0.20"/><circle cx="352.1" cy="392.4" r="2.99" fill="#bd6b20" opacity="0.19"/><circle cx="391.2" cy="392.0" r="2.13" fill="#bd6b20" opacity="0.34"/><circle cx="423.2" cy="392.7" r="3.75" fill="#bd6b20" opacity="0.25"/><circle cx="459.8" cy="390.6" r="3.26" fill="#bd6b20" opacity="0.31"/><circle cx="498.0" cy="387.5" r="3.45" fill="#bd6b20" opacity="0.26"/><circle cx="531.5" cy="390.5" r="3.91" fill="#bd6b20" opacity="0.17"/><circle cx="572.5" cy="389.5" r="3.63" fill="#bd6b20" opacity="0.31"/><circle cx="604.4" cy="392.5" r="3.17" fill="#bd6b20" opacity="0.24"/><circle cx="641.0" cy="388.0" r="2.69" fill="#bd6b20" opacity="0.20"/><circle cx="675.6" cy="387.7" r="2.71" fill="#bd6b20" opacity="0.19"/><circle cx="714.7" cy="387.3" r="2.63" fill="#bd6b20" opacity="0.18"/><circle cx="747.1" cy="389.9" r="3.40" fill="#bd6b20" opacity="0.22"/><circle cx="784.4" cy="390.7" r="3.34" fill="#bd6b20" opacity="0.25"/><circle cx="824.4" cy="387.0" r="2.17" fill="#bd6b20" opacity="0.22"/><circle cx="858.0" cy="389.9" r="3.59" fill="#bd6b20" opacity="0.29"/><circle cx="894.8" cy="389.9" r="2.80" fill="#bd6b20" opacity="0.32"/><circle cx="930.0" cy="387.9" r="1.81" fill="#bd6b20" opacity="0.31"/><circle cx="966.7" cy="389.7" r="3.47" fill="#bd6b20" opacity="0.17"/><circle cx="1000.9" cy="392.1" r="2.54" fill="#bd6b20" opacity="0.32"/><circle cx="1038.7" cy="389.4" r="2.60" fill="#bd6b20" opacity="0.26"/><circle cx="1071.7" cy="387.5" r="3.21" fill="#bd6b20" opacity="0.31"/><circle cx="1107.5" cy="391.4" r="1.64" fill="#bd6b20" opacity="0.25"/><circle cx="1143.2" cy="392.2" r="3.42" fill="#bd6b20" opacity="0.32"/><circle cx="1184.0" cy="387.2" r="3.01" fill="#bd6b20" opacity="0.31"/><circle cx="28.9" cy="425.0" r="1.97" fill="#bd6b20" opacity="0.21"/><circle cx="65.5" cy="423.5" r="3.71" fill="#bd6b20" opacity="0.33"/><circle cx="104.5" cy="428.8" r="3.50" fill="#bd6b20" opacity="0.19"/><circle cx="137.4" cy="424.7" r="2.76" fill="#bd6b20" opacity="0.27"/><circle cx="174.5" cy="425.1" r="1.89" fill="#bd6b20" opacity="0.22"/><circle cx="208.6" cy="426.5" r="2.20" fill="#bd6b20" opacity="0.21"/><circle cx="246.9" cy="426.9" r="3.66" fill="#bd6b20" opacity="0.15"/><circle cx="282.1" cy="424.8" r="3.06" fill="#bd6b20" opacity="0.23"/><circle cx="320.3" cy="423.8" r="2.30" fill="#bd6b20" opacity="0.22"/><circle cx="354.2" cy="425.9" r="3.08" fill="#bd6b20" opacity="0.32"/><circle cx="387.9" cy="426.4" r="3.60" fill="#bd6b20" opacity="0.15"/><circle cx="424.0" cy="428.8" r="3.23" fill="#bd6b20" opacity="0.30"/><circle cx="459.3" cy="428.0" r="2.71" fill="#bd6b20" opacity="0.19"/><circle cx="496.7" cy="424.8" r="3.35" fill="#bd6b20" opacity="0.22"/><circle cx="535.2" cy="427.5" r="2.14" fill="#bd6b20" opacity="0.17"/><circle cx="570.7" cy="424.7" r="3.49" fill="#bd6b20" opacity="0.29"/><circle cx="606.0" cy="427.4" r="3.18" fill="#bd6b20" opacity="0.31"/><circle cx="641.8" cy="428.1" r="2.26" fill="#bd6b20" opacity="0.32"/><circle cx="675.8" cy="426.2" r="2.56" fill="#bd6b20" opacity="0.35"/><circle cx="716.1" cy="427.1" r="2.86" fill="#bd6b20" opacity="0.22"/><circle cx="750.4" cy="425.5" r="3.99" fill="#bd6b20" opacity="0.16"/><circle cx="788.4" cy="423.3" r="3.19" fill="#bd6b20" opacity="0.31"/><circle cx="821.5" cy="426.3" r="1.71" fill="#bd6b20" opacity="0.29"/><circle cx="858.5" cy="425.2" r="1.63" fill="#bd6b20" opacity="0.32"/><circle cx="891.1" cy="428.6" r="2.89" fill="#bd6b20" opacity="0.30"/><circle cx="929.5" cy="428.2" r="3.34" fill="#bd6b20" opacity="0.31"/><circle cx="968.8" cy="428.6" r="3.41" fill="#bd6b20" opacity="0.35"/><circle cx="1002.3" cy="425.5" r="3.68" fill="#bd6b20" opacity="0.19"/><circle cx="1035.2" cy="426.9" r="3.87" fill="#bd6b20" opacity="0.21"/><circle cx="1076.0" cy="423.9" r="3.71" fill="#bd6b20" opacity="0.21"/><circle cx="1111.0" cy="426.9" r="3.99" fill="#bd6b20" opacity="0.22"/><circle cx="1146.5" cy="426.6" r="3.51" fill="#bd6b20" opacity="0.16"/><circle cx="1183.1" cy="425.2" r="2.12" fill="#bd6b20" opacity="0.17"/><circle cx="29.0" cy="462.2" r="2.96" fill="#bd6b20" opacity="0.21"/><circle cx="65.0" cy="463.1" r="3.27" fill="#bd6b20" opacity="0.26"/><circle cx="102.4" cy="460.6" r="3.37" fill="#bd6b20" opacity="0.16"/><circle cx="138.5" cy="463.2" r="3.82" fill="#bd6b20" opacity="0.23"/><circle cx="172.9" cy="460.7" r="3.76" fill="#bd6b20" opacity="0.32"/><circle cx="208.3" cy="463.1" r="3.09" fill="#bd6b20" opacity="0.18"/><circle cx="247.1" cy="462.5" r="2.03" fill="#bd6b20" opacity="0.23"/><circle cx="280.4" cy="460.8" r="1.73" fill="#bd6b20" opacity="0.17"/><circle cx="320.1" cy="463.8" r="2.68" fill="#bd6b20" opacity="0.20"/><circle cx="351.6" cy="464.4" r="1.75" fill="#bd6b20" opacity="0.24"/><circle cx="391.1" cy="461.5" r="1.87" fill="#bd6b20" opacity="0.18"/><circle cx="423.4" cy="459.1" r="3.07" fill="#bd6b20" opacity="0.21"/><circle cx="461.0" cy="459.6" r="1.98" fill="#bd6b20" opacity="0.22"/><circle cx="500.4" cy="462.3" r="2.40" fill="#bd6b20" opacity="0.21"/><circle cx="532.7" cy="462.2" r="2.48" fill="#bd6b20" opacity="0.16"/><circle cx="570.6" cy="459.9" r="3.88" fill="#bd6b20" opacity="0.31"/><circle cx="606.4" cy="459.8" r="1.67" fill="#bd6b20" opacity="0.35"/><circle cx="641.3" cy="461.0" r="2.26" fill="#bd6b20" opacity="0.23"/><circle cx="677.8" cy="463.9" r="3.65" fill="#bd6b20" opacity="0.34"/><circle cx="716.1" cy="464.4" r="2.74" fill="#bd6b20" opacity="0.22"/><circle cx="751.4" cy="463.4" r="2.49" fill="#bd6b20" opacity="0.24"/><circle cx="787.4" cy="459.7" r="2.35" fill="#bd6b20" opacity="0.20"/><circle cx="823.5" cy="463.0" r="3.04" fill="#bd6b20" opacity="0.22"/><circle cx="858.8" cy="459.1" r="2.81" fill="#bd6b20" opacity="0.35"/><circle cx="892.0" cy="461.3" r="3.91" fill="#bd6b20" opacity="0.31"/><circle cx="931.8" cy="464.1" r="2.99" fill="#bd6b20" opacity="0.15"/><circle cx="963.5" cy="464.7" r="3.94" fill="#bd6b20" opacity="0.34"/><circle cx="999.5" cy="463.0" r="3.08" fill="#bd6b20" opacity="0.32"/><circle cx="1037.7" cy="462.5" r="3.64" fill="#bd6b20" opacity="0.16"/><circle cx="1072.0" cy="460.3" r="2.24" fill="#bd6b20" opacity="0.20"/><circle cx="1111.4" cy="463.5" r="3.94" fill="#bd6b20" opacity="0.34"/><circle cx="1148.0" cy="464.4" r="3.59" fill="#bd6b20" opacity="0.23"/><circle cx="1184.2" cy="462.0" r="3.41" fill="#bd6b20" opacity="0.20"/><circle cx="32.1" cy="497.2" r="3.29" fill="#bd6b20" opacity="0.19"/><circle cx="67.3" cy="498.6" r="1.65" fill="#bd6b20" opacity="0.27"/><circle cx="100.1" cy="500.1" r="3.97" fill="#bd6b20" opacity="0.36"/><circle cx="139.2" cy="499.8" r="1.68" fill="#bd6b20" opacity="0.36"/><circle cx="176.8" cy="497.3" r="3.82" fill="#bd6b20" opacity="0.21"/><circle cx="210.4" cy="499.3" r="3.90" fill="#bd6b20" opacity="0.21"/><circle cx="245.5" cy="499.1" r="3.21" fill="#bd6b20" opacity="0.23"/><circle cx="282.7" cy="498.9" r="1.61" fill="#bd6b20" opacity="0.18"/><circle cx="319.8" cy="498.8" r="2.90" fill="#bd6b20" opacity="0.22"/><circle cx="353.2" cy="497.8" r="2.01" fill="#bd6b20" opacity="0.25"/><circle cx="388.1" cy="495.1" r="2.27" fill="#bd6b20" opacity="0.20"/><circle cx="427.7" cy="497.3" r="3.23" fill="#bd6b20" opacity="0.30"/><circle cx="459.2" cy="497.3" r="2.11" fill="#bd6b20" opacity="0.17"/><circle cx="497.5" cy="499.8" r="3.15" fill="#bd6b20" opacity="0.34"/><circle cx="532.2" cy="499.4" r="2.52" fill="#bd6b20" opacity="0.23"/><circle cx="567.6" cy="495.4" r="2.26" fill="#bd6b20" opacity="0.27"/><circle cx="607.2" cy="497.6" r="2.01" fill="#bd6b20" opacity="0.32"/><circle cx="639.7" cy="499.5" r="1.75" fill="#bd6b20" opacity="0.15"/><circle cx="680.5" cy="496.0" r="3.70" fill="#bd6b20" opacity="0.25"/><circle cx="713.4" cy="496.5" r="2.00" fill="#bd6b20" opacity="0.34"/><circle cx="751.1" cy="497.1" r="3.43" fill="#bd6b20" opacity="0.18"/><circle cx="785.0" cy="495.4" r="3.74" fill="#bd6b20" opacity="0.36"/><circle cx="820.5" cy="498.4" r="2.48" fill="#bd6b20" opacity="0.35"/><circle cx="856.1" cy="497.8" r="3.80" fill="#bd6b20" opacity="0.22"/><circle cx="896.7" cy="497.8" r="3.56" fill="#bd6b20" opacity="0.15"/><circle cx="930.2" cy="497.7" r="2.05" fill="#bd6b20" opacity="0.25"/><circle cx="965.7" cy="499.2" r="3.32" fill="#bd6b20" opacity="0.23"/><circle cx="1002.7" cy="495.3" r="2.88" fill="#bd6b20" opacity="0.32"/><circle cx="1038.4" cy="495.8" r="3.81" fill="#bd6b20" opacity="0.24"/><circle cx="1073.6" cy="498.7" r="2.22" fill="#bd6b20" opacity="0.17"/><circle cx="1110.8" cy="499.5" r="1.63" fill="#bd6b20" opacity="0.23"/><circle cx="1145.4" cy="495.4" r="1.67" fill="#bd6b20" opacity="0.17"/><circle cx="1182.8" cy="500.2" r="1.81" fill="#bd6b20" opacity="0.16"/><circle cx="31.3" cy="535.5" r="3.86" fill="#bd6b20" opacity="0.20"/><circle cx="63.9" cy="531.1" r="3.62" fill="#bd6b20" opacity="0.17"/><circle cx="104.9" cy="535.5" r="2.34" fill="#bd6b20" opacity="0.25"/><circle cx="138.7" cy="534.2" r="2.24" fill="#bd6b20" opacity="0.30"/><circle cx="171.9" cy="532.6" r="3.22" fill="#bd6b20" opacity="0.35"/><circle cx="207.4" cy="532.3" r="3.76" fill="#bd6b20" opacity="0.31"/><circle cx="246.8" cy="533.1" r="3.13" fill="#bd6b20" opacity="0.22"/><circle cx="282.0" cy="533.4" r="2.38" fill="#bd6b20" opacity="0.25"/><circle cx="315.6" cy="534.5" r="2.93" fill="#bd6b20" opacity="0.16"/><circle cx="355.8" cy="536.6" r="2.50" fill="#bd6b20" opacity="0.35"/><circle cx="389.4" cy="531.6" r="3.85" fill="#bd6b20" opacity="0.35"/><circle cx="425.0" cy="535.2" r="2.17" fill="#bd6b20" opacity="0.29"/><circle cx="464.6" cy="536.0" r="2.09" fill="#bd6b20" opacity="0.17"/><circle cx="498.1" cy="532.4" r="3.78" fill="#bd6b20" opacity="0.18"/><circle cx="534.6" cy="536.7" r="3.63" fill="#bd6b20" opacity="0.35"/><circle cx="572.9" cy="535.5" r="3.70" fill="#bd6b20" opacity="0.34"/><circle cx="606.3" cy="531.0" r="3.10" fill="#bd6b20" opacity="0.26"/><circle cx="640.3" cy="532.4" r="1.80" fill="#bd6b20" opacity="0.29"/><circle cx="679.6" cy="534.9" r="1.76" fill="#bd6b20" opacity="0.35"/><circle cx="714.5" cy="533.0" r="3.62" fill="#bd6b20" opacity="0.15"/><circle cx="749.2" cy="534.8" r="3.00" fill="#bd6b20" opacity="0.17"/><circle cx="787.6" cy="531.3" r="3.25" fill="#bd6b20" opacity="0.25"/><circle cx="820.4" cy="533.8" r="3.12" fill="#bd6b20" opacity="0.30"/><circle cx="858.8" cy="535.8" r="2.98" fill="#bd6b20" opacity="0.30"/><circle cx="894.3" cy="536.1" r="3.33" fill="#bd6b20" opacity="0.19"/><circle cx="927.3" cy="532.7" r="2.23" fill="#bd6b20" opacity="0.21"/><circle cx="966.9" cy="532.9" r="1.97" fill="#bd6b20" opacity="0.28"/><circle cx="1004.4" cy="533.6" r="3.95" fill="#bd6b20" opacity="0.18"/><circle cx="1039.5" cy="533.3" r="1.64" fill="#bd6b20" opacity="0.21"/><circle cx="1076.3" cy="531.2" r="1.67" fill="#bd6b20" opacity="0.18"/><circle cx="1110.4" cy="534.1" r="1.95" fill="#bd6b20" opacity="0.31"/><circle cx="1145.2" cy="534.2" r="2.05" fill="#bd6b20" opacity="0.30"/><circle cx="1180.8" cy="531.2" r="2.23" fill="#bd6b20" opacity="0.36"/><circle cx="28.6" cy="571.0" r="1.84" fill="#bd6b20" opacity="0.22"/><circle cx="68.9" cy="570.6" r="3.46" fill="#bd6b20" opacity="0.20"/><circle cx="100.8" cy="570.4" r="2.59" fill="#bd6b20" opacity="0.21"/><circle cx="135.6" cy="572.2" r="2.68" fill="#bd6b20" opacity="0.21"/><circle cx="175.6" cy="568.2" r="3.90" fill="#bd6b20" opacity="0.26"/><circle cx="211.9" cy="572.3" r="3.29" fill="#bd6b20" opacity="0.24"/><circle cx="246.1" cy="571.3" r="3.11" fill="#bd6b20" opacity="0.32"/><circle cx="281.0" cy="567.8" r="2.34" fill="#bd6b20" opacity="0.35"/><circle cx="320.2" cy="570.7" r="3.54" fill="#bd6b20" opacity="0.30"/><circle cx="356.8" cy="567.5" r="2.93" fill="#bd6b20" opacity="0.28"/><circle cx="392.8" cy="572.6" r="3.31" fill="#bd6b20" opacity="0.36"/><circle cx="424.5" cy="568.8" r="2.47" fill="#bd6b20" opacity="0.21"/><circle cx="462.1" cy="571.3" r="3.36" fill="#bd6b20" opacity="0.27"/><circle cx="497.6" cy="571.0" r="3.85" fill="#bd6b20" opacity="0.35"/><circle cx="535.2" cy="571.3" r="2.71" fill="#bd6b20" opacity="0.19"/><circle cx="571.8" cy="567.5" r="2.83" fill="#bd6b20" opacity="0.18"/><circle cx="604.4" cy="568.0" r="2.48" fill="#bd6b20" opacity="0.36"/><circle cx="643.5" cy="568.3" r="2.60" fill="#bd6b20" opacity="0.29"/><circle cx="679.6" cy="569.5" r="1.86" fill="#bd6b20" opacity="0.20"/><circle cx="714.6" cy="567.3" r="3.10" fill="#bd6b20" opacity="0.25"/><circle cx="750.9" cy="568.1" r="3.43" fill="#bd6b20" opacity="0.26"/><circle cx="787.5" cy="567.7" r="3.43" fill="#bd6b20" opacity="0.24"/><circle cx="823.5" cy="568.9" r="3.41" fill="#bd6b20" opacity="0.29"/><circle cx="857.4" cy="570.5" r="3.39" fill="#bd6b20" opacity="0.15"/><circle cx="891.4" cy="567.5" r="3.25" fill="#bd6b20" opacity="0.21"/><circle cx="932.6" cy="569.4" r="2.48" fill="#bd6b20" opacity="0.23"/><circle cx="967.5" cy="567.8" r="3.72" fill="#bd6b20" opacity="0.21"/><circle cx="1002.1" cy="571.5" r="2.57" fill="#bd6b20" opacity="0.16"/><circle cx="1036.5" cy="571.7" r="3.07" fill="#bd6b20" opacity="0.25"/><circle cx="1072.0" cy="571.9" r="3.69" fill="#bd6b20" opacity="0.18"/><circle cx="1108.4" cy="571.4" r="2.83" fill="#bd6b20" opacity="0.16"/><circle cx="1148.0" cy="568.5" r="3.44" fill="#bd6b20" opacity="0.18"/><circle cx="1182.1" cy="567.7" r="3.30" fill="#bd6b20" opacity="0.17"/><circle cx="27.2" cy="604.0" r="1.97" fill="#bd6b20" opacity="0.16"/><circle cx="63.8" cy="607.2" r="3.11" fill="#bd6b20" opacity="0.32"/><circle cx="104.0" cy="607.7" r="2.88" fill="#bd6b20" opacity="0.28"/><circle cx="139.7" cy="607.3" r="3.15" fill="#bd6b20" opacity="0.24"/><circle cx="175.5" cy="603.4" r="3.17" fill="#bd6b20" opacity="0.34"/><circle cx="208.9" cy="604.7" r="3.75" fill="#bd6b20" opacity="0.21"/><circle cx="244.9" cy="608.0" r="2.92" fill="#bd6b20" opacity="0.33"/><circle cx="279.9" cy="604.9" r="1.78" fill="#bd6b20" opacity="0.30"/><circle cx="315.4" cy="607.3" r="3.22" fill="#bd6b20" opacity="0.26"/><circle cx="351.0" cy="603.6" r="3.67" fill="#bd6b20" opacity="0.19"/><circle cx="388.3" cy="606.9" r="2.94" fill="#bd6b20" opacity="0.30"/><circle cx="423.4" cy="606.2" r="2.78" fill="#bd6b20" opacity="0.25"/><circle cx="461.1" cy="607.7" r="3.72" fill="#bd6b20" opacity="0.34"/><circle cx="497.4" cy="608.5" r="3.80" fill="#bd6b20" opacity="0.16"/><circle cx="535.8" cy="609.0" r="3.48" fill="#bd6b20" opacity="0.19"/><circle cx="568.6" cy="604.3" r="3.84" fill="#bd6b20" opacity="0.26"/><circle cx="605.3" cy="603.8" r="2.69" fill="#bd6b20" opacity="0.34"/><circle cx="644.7" cy="607.6" r="2.11" fill="#bd6b20" opacity="0.17"/><circle cx="678.0" cy="607.3" r="1.76" fill="#bd6b20" opacity="0.17"/><circle cx="715.0" cy="604.7" r="3.63" fill="#bd6b20" opacity="0.29"/><circle cx="752.7" cy="606.8" r="1.77" fill="#bd6b20" opacity="0.20"/><circle cx="783.8" cy="608.1" r="3.24" fill="#bd6b20" opacity="0.27"/><circle cx="823.1" cy="608.2" r="3.85" fill="#bd6b20" opacity="0.24"/><circle cx="859.3" cy="604.8" r="3.30" fill="#bd6b20" opacity="0.24"/><circle cx="895.2" cy="603.9" r="2.65" fill="#bd6b20" opacity="0.34"/><circle cx="931.5" cy="607.9" r="3.64" fill="#bd6b20" opacity="0.22"/><circle cx="968.0" cy="603.7" r="3.13" fill="#bd6b20" opacity="0.19"/><circle cx="999.1" cy="603.4" r="2.40" fill="#bd6b20" opacity="0.17"/><circle cx="1036.9" cy="604.2" r="3.02" fill="#bd6b20" opacity="0.27"/><circle cx="1076.5" cy="607.6" r="1.63" fill="#bd6b20" opacity="0.17"/><circle cx="1110.3" cy="605.1" r="2.36" fill="#bd6b20" opacity="0.27"/><circle cx="1148.6" cy="605.4" r="2.10" fill="#bd6b20" opacity="0.20"/><circle cx="1180.0" cy="604.5" r="3.66" fill="#bd6b20" opacity="0.33"/><circle cx="31.3" cy="640.3" r="3.95" fill="#bd6b20" opacity="0.18"/><circle cx="64.0" cy="641.8" r="3.86" fill="#bd6b20" opacity="0.34"/><circle cx="102.0" cy="643.9" r="2.49" fill="#bd6b20" opacity="0.34"/><circle cx="135.6" cy="640.8" r="3.15" fill="#bd6b20" opacity="0.20"/><circle cx="173.7" cy="639.5" r="3.98" fill="#bd6b20" opacity="0.17"/><circle cx="210.6" cy="640.4" r="3.05" fill="#bd6b20" opacity="0.20"/><circle cx="245.8" cy="639.9" r="1.86" fill="#bd6b20" opacity="0.19"/><circle cx="284.1" cy="641.7" r="2.47" fill="#bd6b20" opacity="0.25"/><circle cx="316.5" cy="639.6" r="2.11" fill="#bd6b20" opacity="0.36"/><circle cx="355.4" cy="644.0" r="2.77" fill="#bd6b20" opacity="0.19"/><circle cx="391.3" cy="644.1" r="2.36" fill="#bd6b20" opacity="0.17"/><circle cx="425.3" cy="640.0" r="3.30" fill="#bd6b20" opacity="0.29"/><circle cx="459.9" cy="642.7" r="2.92" fill="#bd6b20" opacity="0.18"/><circle cx="498.3" cy="640.0" r="1.88" fill="#bd6b20" opacity="0.25"/><circle cx="533.9" cy="644.0" r="1.66" fill="#bd6b20" opacity="0.34"/><circle cx="570.5" cy="642.5" r="2.63" fill="#bd6b20" opacity="0.36"/><circle cx="605.3" cy="641.4" r="1.77" fill="#bd6b20" opacity="0.28"/><circle cx="639.1" cy="641.2" r="3.00" fill="#bd6b20" opacity="0.31"/><circle cx="680.1" cy="642.7" r="3.85" fill="#bd6b20" opacity="0.25"/><circle cx="711.3" cy="644.5" r="2.29" fill="#bd6b20" opacity="0.21"/><circle cx="751.2" cy="642.6" r="1.69" fill="#bd6b20" opacity="0.24"/><circle cx="788.6" cy="642.1" r="2.72" fill="#bd6b20" opacity="0.19"/><circle cx="819.3" cy="644.8" r="2.68" fill="#bd6b20" opacity="0.19"/><circle cx="859.3" cy="639.3" r="1.85" fill="#bd6b20" opacity="0.20"/><circle cx="896.2" cy="640.3" r="3.02" fill="#bd6b20" opacity="0.27"/><circle cx="929.1" cy="642.5" r="2.03" fill="#bd6b20" opacity="0.27"/><circle cx="968.6" cy="642.7" r="2.78" fill="#bd6b20" opacity="0.20"/><circle cx="1003.5" cy="642.3" r="3.66" fill="#bd6b20" opacity="0.34"/><circle cx="1037.0" cy="640.6" r="2.26" fill="#bd6b20" opacity="0.30"/><circle cx="1075.1" cy="639.1" r="3.56" fill="#bd6b20" opacity="0.35"/><circle cx="1111.7" cy="640.3" r="2.77" fill="#bd6b20" opacity="0.18"/><circle cx="1144.4" cy="644.3" r="3.81" fill="#bd6b20" opacity="0.28"/><circle cx="1181.8" cy="642.9" r="3.05" fill="#bd6b20" opacity="0.29"/><circle cx="255.1" cy="260.1" r="220" fill="url(#glow)" opacity="0.9"/>
  <g opacity="0.85" transform="translate(1020, 495)">
        <polygon points="0,-50 43,25 -43,25" fill="none" stroke="#bd6b20" stroke-width="2"/>
        <polygon points="0,-30 26,15 -26,15" fill="#e09440" opacity="0.4"/>
      </g>
  <g transform="translate(80, 90)">
    <rect x="0" y="0" rx="20" ry="20" width="145" height="38" fill="#bd6b20" opacity="0.18" stroke="#bd6b20" stroke-width="1.5"/>
    <text x="72.5" y="25" font-family="ui-sans-serif, Inter, sans-serif" font-weight="700" font-size="14" letter-spacing="2.5" fill="#bd6b20" text-anchor="middle">INFORMATION</text>
  </g>
  <text x="80" y="465" font-family="ui-sans-serif, -apple-system, Segoe UI, Inter, sans-serif" font-weight="800" font-size="44" fill="#faf8f5" opacity="0.98"><tspan x="80" dy="0">Appoint an</tspan><tspan x="80" dy="56">Arbitrator/Conciliator</tspan><tspan x="80" dy="56">from our empaneled</tspan></text>
  <rect x="0" y="669" width="1200" height="6" fill="url(#gold)"/>
</svg>