<?xml version="1.0" encoding="UTF-8"?>
<svg xmlns="http://www.w3.org/2000/svg" viewBox="0 0 1200 675" width="1200" height="675" role="img" aria-label="PDR COURT Arbitrator panel practice standards of fairness">
  <defs>
    <linearGradient id="bg" x1="0%" y1="0%" x2="100%" y2="100%">
      <stop offset="0%" stop-color="#532d15"/>
      <stop offset="100%" stop-color="#bd6b20"/>
    </linearGradient>
    <linearGradient id="gold" x1="0%" y1="0%" x2="100%" y2="100%">
      <stop offset="0%" stop-color="#e09440"/>
      <stop offset="100%" stop-color="#fdf6ee"/>
    </linearGradient>
    <radialGradient id="glow" cx="50%" cy="50%" r="50%">
      <stop offset="0%" stop-color="#e09440" stop-opacity="0.45"/>
      <stop offset="100%" stop-color="#e09440" stop-opacity="0"/>
    </radialGradient>
  </defs>
  <rect width="1200" height="675" fill="url(#bg)"/>
  <rect x="-695.5" y="-80" width="63.1" height="875" transform="rotate(18 -695.5 337.5)" fill="#e09440" opacity="0.15"/><rect x="-507.1" y="-80" width="67.7" height="875" transform="rotate(18 -507.1 337.5)" fill="#e09440" opacity="0.18"/><rect x="-349.3" y="-80" width="70.1" height="875" transform="rotate(18 -349.3 337.5)" fill="#e09440" opacity="0.09"/><rect x="-177.2" y="-80" width="130.7" height="875" transform="rotate(18 -177.2 337.5)" fill="#e09440" opacity="0.07"/><rect x="49.0" y="-80" width="105.4" height="875" transform="rotate(18 49.0 337.5)" fill="#e09440" opacity="0.06"/><rect x="197.5" y="-80" width="87.7" height="875" transform="rotate(18 197.5 337.5)" fill="#e09440" opacity="0.06"/><rect x="379.6" y="-80" width="119.5" height="875" transform="rotate(18 379.6 337.5)" fill="#e09440" opacity="0.19"/><rect x="570.1" y="-80" width="127.9" height="875" transform="rotate(18 570.1 337.5)" fill="#e09440" opacity="0.12"/><rect x="792.6" y="-80" width="114.3" height="875" transform="rotate(18 792.6 337.5)" fill="#e09440" opacity="0.19"/><rect x="937.3" y="-80" width="63.7" height="875" transform="rotate(18 937.3 337.5)" fill="#e09440" opacity="0.07"/><rect x="1142.9" y="-80" width="76.3" height="875" transform="rotate(18 1142.9 337.5)" fill="#e09440" opacity="0.11"/><rect x="1317.6" y="-80" width="112.2" height="875" transform="rotate(18 1317.6 337.5)" fill="#e09440" opacity="0.10"/><rect x="1462.0" y="-80" width="86.3" height="875" transform="rotate(18 1462.0 337.5)" fill="#e09440" opacity="0.14"/><rect x="1680.9" y="-80" width="125.4" height="875" transform="rotate(18 1680.9 337.5)" fill="#e09440" opacity="0.13"/><rect x="0" y="0" width="1200" height="675" fill="url(#glow)" opacity="0.6"/>
  <g opacity="0.85" transform="translate(1020, 495)">
        <polygon points="0,-50 43,25 -43,25" fill="none" stroke="#e09440" stroke-width="2"/>
        <polygon points="0,-30 26,15 -26,15" fill="#fdf6ee" opacity="0.4"/>
      </g>
  <g transform="translate(80, 90)">
    <rect x="0" y="0" rx="20" ry="20" width="145" height="38" fill="#e09440" opacity="0.18" stroke="#e09440" stroke-width="1.5"/>
    <text x="72.5" y="25" font-family="ui-sans-serif, Inter, sans-serif" font-weight="700" font-size="14" letter-spacing="2.5" fill="#e09440" text-anchor="middle">INFORMATION</text>
  </g>
  <text x="80" y="465" font-family="ui-sans-serif, -apple-system, Segoe UI, Inter, sans-serif" font-weight="800" font-size="44" fill="#faf8f5" opacity="0.98"><tspan x="80" dy="0">PDR COURT Arbitrator panel</tspan><tspan x="80" dy="56">practice standards of</tspan><tspan x="80" dy="56">fairness</tspan></text>
  <rect x="0" y="669" width="1200" height="6" fill="url(#gold)"/>
</svg>