<?xml version="1.0" encoding="UTF-8"?>
<svg xmlns="http://www.w3.org/2000/svg" viewBox="0 0 1200 675" width="1200" height="675" role="img" aria-label="PDR COURT Arbitration Rules for effective settlements">
  <defs>
    <linearGradient id="bg" x1="0%" y1="0%" x2="100%" y2="100%">
      <stop offset="0%" stop-color="#532d15"/>
      <stop offset="100%" stop-color="#bd6b20"/>
    </linearGradient>
    <linearGradient id="gold" x1="0%" y1="0%" x2="100%" y2="100%">
      <stop offset="0%" stop-color="#e09440"/>
      <stop offset="100%" stop-color="#fdf6ee"/>
    </linearGradient>
    <radialGradient id="glow" cx="50%" cy="50%" r="50%">
      <stop offset="0%" stop-color="#e09440" stop-opacity="0.45"/>
      <stop offset="100%" stop-color="#e09440" stop-opacity="0"/>
    </radialGradient>
  </defs>
  <rect width="1200" height="675" fill="url(#bg)"/>
  <circle cx="29.2" cy="32.2" r="1.70" fill="#e09440" opacity="0.19"/><circle cx="66.3" cy="31.1" r="2.81" fill="#e09440" opacity="0.22"/><circle cx="103.7" cy="31.2" r="2.40" fill="#e09440" opacity="0.32"/><circle cx="136.6" cy="32.1" r="2.93" fill="#e09440" opacity="0.29"/><circle cx="173.2" cy="30.0" r="3.09" fill="#e09440" opacity="0.26"/><circle cx="210.6" cy="31.5" r="2.33" fill="#e09440" opacity="0.30"/><circle cx="248.0" cy="28.4" r="3.45" fill="#e09440" opacity="0.18"/><circle cx="283.9" cy="29.2" r="3.10" fill="#e09440" opacity="0.28"/><circle cx="318.4" cy="32.6" r="2.75" fill="#e09440" opacity="0.19"/><circle cx="351.7" cy="28.0" r="3.19" fill="#e09440" opacity="0.35"/><circle cx="389.3" cy="32.5" r="3.67" fill="#e09440" opacity="0.34"/><circle cx="424.4" cy="28.1" r="2.25" fill="#e09440" opacity="0.36"/><circle cx="464.6" cy="29.5" r="3.40" fill="#e09440" opacity="0.30"/><circle cx="496.2" cy="29.2" r="3.03" fill="#e09440" opacity="0.24"/><circle cx="534.5" cy="30.5" r="2.85" fill="#e09440" opacity="0.25"/><circle cx="572.2" cy="28.9" r="3.44" fill="#e09440" opacity="0.19"/><circle cx="609.0" cy="30.1" r="3.13" fill="#e09440" opacity="0.16"/><circle cx="643.2" cy="32.3" r="3.75" fill="#e09440" opacity="0.32"/><circle cx="677.3" cy="28.3" r="2.00" fill="#e09440" opacity="0.19"/><circle cx="715.6" cy="29.5" r="3.56" fill="#e09440" opacity="0.18"/><circle cx="749.2" cy="31.6" r="2.59" fill="#e09440" opacity="0.35"/><circle cx="786.6" cy="28.6" r="3.42" fill="#e09440" opacity="0.20"/><circle cx="823.0" cy="28.0" r="2.71" fill="#e09440" opacity="0.25"/><circle cx="860.3" cy="28.3" r="2.12" fill="#e09440" opacity="0.25"/><circle cx="893.1" cy="27.0" r="2.31" fill="#e09440" opacity="0.29"/><circle cx="932.4" cy="32.1" r="2.33" fill="#e09440" opacity="0.31"/><circle cx="964.7" cy="29.1" r="3.57" fill="#e09440" opacity="0.31"/><circle cx="1003.5" cy="31.7" r="2.97" fill="#e09440" opacity="0.36"/><circle cx="1035.9" cy="27.7" r="2.43" fill="#e09440" opacity="0.35"/><circle cx="1074.8" cy="30.1" r="3.43" fill="#e09440" opacity="0.17"/><circle cx="1108.9" cy="28.9" r="3.23" fill="#e09440" opacity="0.26"/><circle cx="1146.8" cy="28.2" r="2.84" fill="#e09440" opacity="0.17"/><circle cx="1183.6" cy="27.3" r="2.82" fill="#e09440" opacity="0.33"/><circle cx="27.9" cy="66.0" r="3.34" fill="#e09440" opacity="0.34"/><circle cx="67.0" cy="68.3" r="4.00" fill="#e09440" opacity="0.28"/><circle cx="100.2" cy="65.6" r="2.89" fill="#e09440" opacity="0.32"/><circle cx="140.9" cy="68.0" r="3.33" fill="#e09440" opacity="0.24"/><circle cx="175.8" cy="65.5" r="3.66" fill="#e09440" opacity="0.33"/><circle cx="212.6" cy="68.3" r="2.46" fill="#e09440" opacity="0.32"/><circle cx="243.4" cy="68.8" r="1.81" fill="#e09440" opacity="0.19"/><circle cx="285.0" cy="64.6" r="3.77" fill="#e09440" opacity="0.23"/><circle cx="318.5" cy="67.5" r="2.22" fill="#e09440" opacity="0.27"/><circle cx="356.1" cy="64.7" r="3.67" fill="#e09440" opacity="0.20"/><circle cx="387.0" cy="63.0" r="2.50" fill="#e09440" opacity="0.19"/><circle cx="426.1" cy="68.2" r="2.00" fill="#e09440" opacity="0.36"/><circle cx="459.3" cy="67.6" r="2.38" fill="#e09440" opacity="0.33"/><circle cx="497.0" cy="64.9" r="2.94" fill="#e09440" opacity="0.25"/><circle cx="532.1" cy="68.8" r="2.76" fill="#e09440" opacity="0.34"/><circle cx="567.7" cy="64.3" r="3.76" fill="#e09440" opacity="0.22"/><circle cx="605.8" cy="66.0" r="3.00" fill="#e09440" opacity="0.20"/><circle cx="639.2" cy="69.0" r="2.63" fill="#e09440" opacity="0.34"/><circle cx="678.0" cy="66.0" r="3.22" fill="#e09440" opacity="0.27"/><circle cx="715.6" cy="64.2" r="2.15" fill="#e09440" opacity="0.30"/><circle cx="751.5" cy="65.4" r="3.78" fill="#e09440" opacity="0.26"/><circle cx="786.0" cy="64.2" r="1.74" fill="#e09440" opacity="0.27"/><circle cx="822.9" cy="63.2" r="1.65" fill="#e09440" opacity="0.26"/><circle cx="856.5" cy="65.3" r="1.88" fill="#e09440" opacity="0.34"/><circle cx="892.1" cy="66.5" r="2.55" fill="#e09440" opacity="0.22"/><circle cx="927.2" cy="65.9" r="3.66" fill="#e09440" opacity="0.20"/><circle cx="968.9" cy="68.4" r="1.94" fill="#e09440" opacity="0.34"/><circle cx="1002.8" cy="66.0" r="3.46" fill="#e09440" opacity="0.32"/><circle cx="1036.2" cy="63.4" r="2.22" fill="#e09440" opacity="0.31"/><circle cx="1075.6" cy="63.4" r="3.12" fill="#e09440" opacity="0.23"/><circle cx="1108.5" cy="66.6" r="3.97" fill="#e09440" opacity="0.31"/><circle cx="1148.2" cy="64.1" r="1.77" fill="#e09440" opacity="0.22"/><circle cx="1181.1" cy="67.8" r="2.74" fill="#e09440" opacity="0.22"/><circle cx="27.8" cy="99.0" r="4.00" fill="#e09440" opacity="0.31"/><circle cx="63.2" cy="103.3" r="3.91" fill="#e09440" opacity="0.22"/><circle cx="99.7" cy="99.9" r="1.86" fill="#e09440" opacity="0.17"/><circle cx="137.4" cy="104.2" r="3.77" fill="#e09440" opacity="0.17"/><circle cx="175.1" cy="101.9" r="1.87" fill="#e09440" opacity="0.34"/><circle cx="212.3" cy="103.1" r="2.06" fill="#e09440" opacity="0.29"/><circle cx="244.7" cy="101.0" r="1.81" fill="#e09440" opacity="0.33"/><circle cx="282.6" cy="101.4" r="1.91" fill="#e09440" opacity="0.18"/><circle cx="320.6" cy="100.7" r="2.71" fill="#e09440" opacity="0.22"/><circle cx="356.6" cy="103.7" r="3.67" fill="#e09440" opacity="0.25"/><circle cx="392.5" cy="101.5" r="2.27" fill="#e09440" opacity="0.30"/><circle cx="424.7" cy="100.8" r="1.74" fill="#e09440" opacity="0.34"/><circle cx="461.7" cy="99.1" r="2.89" fill="#e09440" opacity="0.30"/><circle cx="499.4" cy="102.8" r="3.34" fill="#e09440" opacity="0.23"/><circle cx="534.6" cy="101.2" r="2.14" fill="#e09440" opacity="0.28"/><circle cx="571.0" cy="103.4" r="1.61" fill="#e09440" opacity="0.33"/><circle cx="605.5" cy="101.2" r="1.69" fill="#e09440" opacity="0.19"/><circle cx="642.6" cy="104.5" r="3.76" fill="#e09440" opacity="0.18"/><circle cx="679.7" cy="99.6" r="1.89" fill="#e09440" opacity="0.16"/><circle cx="712.9" cy="102.0" r="2.08" fill="#e09440" opacity="0.25"/><circle cx="747.0" cy="103.4" r="3.13" fill="#e09440" opacity="0.32"/><circle cx="786.3" cy="100.0" r="1.77" fill="#e09440" opacity="0.17"/><circle cx="822.5" cy="103.3" r="2.90" fill="#e09440" opacity="0.17"/><circle cx="855.6" cy="100.0" r="3.31" fill="#e09440" opacity="0.26"/><circle cx="893.0" cy="105.0" r="1.60" fill="#e09440" opacity="0.20"/><circle cx="931.7" cy="100.9" r="3.36" fill="#e09440" opacity="0.34"/><circle cx="967.2" cy="99.9" r="3.59" fill="#e09440" opacity="0.19"/><circle cx="1000.3" cy="102.6" r="2.80" fill="#e09440" opacity="0.30"/><circle cx="1036.4" cy="102.5" r="1.80" fill="#e09440" opacity="0.24"/><circle cx="1071.3" cy="102.5" r="1.80" fill="#e09440" opacity="0.21"/><circle cx="1108.0" cy="101.5" r="3.16" fill="#e09440" opacity="0.17"/><circle cx="1148.8" cy="102.1" r="2.23" fill="#e09440" opacity="0.35"/><circle cx="1184.2" cy="99.9" r="2.74" fill="#e09440" opacity="0.19"/><circle cx="28.3" cy="137.7" r="3.01" fill="#e09440" opacity="0.32"/><circle cx="63.9" cy="139.8" r="3.33" fill="#e09440" opacity="0.18"/><circle cx="102.3" cy="139.6" r="2.72" fill="#e09440" opacity="0.23"/><circle cx="137.1" cy="136.4" r="2.25" fill="#e09440" opacity="0.23"/><circle cx="173.9" cy="140.8" r="1.89" fill="#e09440" opacity="0.19"/><circle cx="210.5" cy="137.3" r="3.31" fill="#e09440" opacity="0.24"/><circle cx="244.0" cy="136.3" r="3.85" fill="#e09440" opacity="0.29"/><circle cx="282.8" cy="138.5" r="1.78" fill="#e09440" opacity="0.28"/><circle cx="315.4" cy="136.4" r="3.90" fill="#e09440" opacity="0.31"/><circle cx="351.1" cy="139.5" r="2.16" fill="#e09440" opacity="0.20"/><circle cx="389.8" cy="138.8" r="3.42" fill="#e09440" opacity="0.34"/><circle cx="424.1" cy="135.4" r="3.64" fill="#e09440" opacity="0.23"/><circle cx="464.5" cy="138.7" r="3.25" fill="#e09440" opacity="0.35"/><circle cx="496.1" cy="135.5" r="2.41" fill="#e09440" opacity="0.36"/><circle cx="534.0" cy="139.4" r="3.85" fill="#e09440" opacity="0.16"/><circle cx="567.4" cy="138.2" r="3.70" fill="#e09440" opacity="0.23"/><circle cx="607.3" cy="136.4" r="2.22" fill="#e09440" opacity="0.19"/><circle cx="644.7" cy="140.7" r="3.69" fill="#e09440" opacity="0.28"/><circle cx="677.7" cy="138.8" r="3.20" fill="#e09440" opacity="0.33"/><circle cx="711.3" cy="139.0" r="2.61" fill="#e09440" opacity="0.31"/><circle cx="751.7" cy="136.0" r="1.68" fill="#e09440" opacity="0.26"/><circle cx="785.3" cy="140.6" r="2.45" fill="#e09440" opacity="0.15"/><circle cx="822.3" cy="136.4" r="1.90" fill="#e09440" opacity="0.30"/><circle cx="857.1" cy="138.5" r="2.62" fill="#e09440" opacity="0.17"/><circle cx="895.9" cy="138.3" r="3.64" fill="#e09440" opacity="0.28"/><circle cx="929.2" cy="138.4" r="2.96" fill="#e09440" opacity="0.22"/><circle cx="964.9" cy="136.4" r="1.61" fill="#e09440" opacity="0.16"/><circle cx="999.1" cy="137.0" r="3.13" fill="#e09440" opacity="0.29"/><circle cx="1039.7" cy="140.6" r="2.65" fill="#e09440" opacity="0.30"/><circle cx="1073.7" cy="140.5" r="1.62" fill="#e09440" opacity="0.35"/><circle cx="1110.9" cy="140.7" r="3.44" fill="#e09440" opacity="0.21"/><circle cx="1146.7" cy="140.8" r="2.93" fill="#e09440" opacity="0.28"/><circle cx="1182.6" cy="136.6" r="3.75" fill="#e09440" opacity="0.27"/><circle cx="27.3" cy="172.1" r="1.70" fill="#e09440" opacity="0.34"/><circle cx="65.3" cy="176.5" r="1.64" fill="#e09440" opacity="0.28"/><circle cx="99.8" cy="174.3" r="3.86" fill="#e09440" opacity="0.28"/><circle cx="139.3" cy="171.6" r="1.65" fill="#e09440" opacity="0.36"/><circle cx="175.8" cy="172.9" r="2.46" fill="#e09440" opacity="0.18"/><circle cx="212.4" cy="174.4" r="3.40" fill="#e09440" opacity="0.27"/><circle cx="247.8" cy="171.1" r="3.40" fill="#e09440" opacity="0.34"/><circle cx="284.6" cy="171.5" r="2.45" fill="#e09440" opacity="0.32"/><circle cx="319.2" cy="176.4" r="3.86" fill="#e09440" opacity="0.20"/><circle cx="352.2" cy="175.1" r="3.56" fill="#e09440" opacity="0.31"/><circle cx="393.0" cy="174.9" r="3.82" fill="#e09440" opacity="0.27"/><circle cx="423.5" cy="173.1" r="2.15" fill="#e09440" opacity="0.25"/><circle cx="460.1" cy="174.6" r="2.59" fill="#e09440" opacity="0.30"/><circle cx="500.2" cy="173.1" r="3.28" fill="#e09440" opacity="0.23"/><circle cx="533.3" cy="175.5" r="1.83" fill="#e09440" opacity="0.21"/><circle cx="569.7" cy="174.8" r="2.83" fill="#e09440" opacity="0.31"/><circle cx="605.7" cy="172.7" r="3.12" fill="#e09440" opacity="0.16"/><circle cx="644.6" cy="172.6" r="2.48" fill="#e09440" opacity="0.30"/><circle cx="676.1" cy="174.0" r="3.91" fill="#e09440" opacity="0.18"/><circle cx="713.3" cy="176.1" r="3.15" fill="#e09440" opacity="0.24"/><circle cx="752.6" cy="175.9" r="2.88" fill="#e09440" opacity="0.36"/><circle cx="788.7" cy="173.0" r="3.53" fill="#e09440" opacity="0.21"/><circle cx="824.6" cy="174.0" r="3.29" fill="#e09440" opacity="0.33"/><circle cx="858.9" cy="173.6" r="2.22" fill="#e09440" opacity="0.20"/><circle cx="891.2" cy="174.4" r="1.74" fill="#e09440" opacity="0.32"/><circle cx="931.4" cy="173.6" r="1.95" fill="#e09440" opacity="0.30"/><circle cx="964.4" cy="176.5" r="3.18" fill="#e09440" opacity="0.32"/><circle cx="1002.6" cy="172.6" r="2.23" fill="#e09440" opacity="0.30"/><circle cx="1037.6" cy="174.7" r="1.68" fill="#e09440" opacity="0.36"/><circle cx="1076.2" cy="176.9" r="2.73" fill="#e09440" opacity="0.21"/><circle cx="1107.7" cy="171.9" r="3.34" fill="#e09440" opacity="0.30"/><circle cx="1144.5" cy="174.0" r="2.09" fill="#e09440" opacity="0.28"/><circle cx="1179.7" cy="176.8" r="2.89" fill="#e09440" opacity="0.19"/><circle cx="32.0" cy="209.6" r="2.52" fill="#e09440" opacity="0.23"/><circle cx="64.7" cy="211.4" r="1.70" fill="#e09440" opacity="0.23"/><circle cx="103.2" cy="209.4" r="2.26" fill="#e09440" opacity="0.34"/><circle cx="138.1" cy="207.7" r="3.83" fill="#e09440" opacity="0.25"/><circle cx="175.0" cy="210.7" r="2.72" fill="#e09440" opacity="0.25"/><circle cx="212.7" cy="208.9" r="3.29" fill="#e09440" opacity="0.32"/><circle cx="244.4" cy="210.9" r="2.00" fill="#e09440" opacity="0.22"/><circle cx="281.1" cy="212.6" r="3.95" fill="#e09440" opacity="0.33"/><circle cx="315.5" cy="207.7" r="1.87" fill="#e09440" opacity="0.35"/><circle cx="354.0" cy="210.3" r="2.09" fill="#e09440" opacity="0.31"/><circle cx="390.7" cy="212.0" r="3.92" fill="#e09440" opacity="0.34"/><circle cx="428.7" cy="212.7" r="2.58" fill="#e09440" opacity="0.30"/><circle cx="461.9" cy="210.9" r="2.65" fill="#e09440" opacity="0.15"/><circle cx="499.1" cy="212.2" r="2.61" fill="#e09440" opacity="0.35"/><circle cx="532.7" cy="210.2" r="2.85" fill="#e09440" opacity="0.22"/><circle cx="569.3" cy="209.1" r="3.90" fill="#e09440" opacity="0.31"/><circle cx="604.4" cy="209.1" r="1.68" fill="#e09440" opacity="0.29"/><circle cx="639.1" cy="207.5" r="1.84" fill="#e09440" opacity="0.16"/><circle cx="678.8" cy="207.7" r="2.84" fill="#e09440" opacity="0.23"/><circle cx="711.7" cy="210.4" r="2.63" fill="#e09440" opacity="0.35"/><circle cx="751.2" cy="210.9" r="2.38" fill="#e09440" opacity="0.33"/><circle cx="787.3" cy="212.4" r="2.45" fill="#e09440" opacity="0.30"/><circle cx="824.5" cy="212.5" r="3.54" fill="#e09440" opacity="0.34"/><circle cx="856.9" cy="212.6" r="3.76" fill="#e09440" opacity="0.16"/><circle cx="893.6" cy="212.5" r="2.55" fill="#e09440" opacity="0.19"/><circle cx="929.8" cy="211.4" r="1.70" fill="#e09440" opacity="0.34"/><circle cx="964.3" cy="211.5" r="3.92" fill="#e09440" opacity="0.20"/><circle cx="1003.2" cy="210.7" r="3.59" fill="#e09440" opacity="0.34"/><circle cx="1035.7" cy="209.0" r="2.81" fill="#e09440" opacity="0.23"/><circle cx="1072.8" cy="212.7" r="1.76" fill="#e09440" opacity="0.29"/><circle cx="1111.5" cy="207.8" r="2.67" fill="#e09440" opacity="0.36"/><circle cx="1144.4" cy="209.1" r="3.17" fill="#e09440" opacity="0.25"/><circle cx="1179.5" cy="212.1" r="2.58" fill="#e09440" opacity="0.19"/><circle cx="29.3" cy="243.7" r="3.12" fill="#e09440" opacity="0.24"/><circle cx="64.9" cy="244.1" r="2.86" fill="#e09440" opacity="0.26"/><circle cx="103.0" cy="248.7" r="3.52" fill="#e09440" opacity="0.30"/><circle cx="137.8" cy="244.9" r="2.51" fill="#e09440" opacity="0.32"/><circle cx="174.4" cy="244.4" r="3.71" fill="#e09440" opacity="0.25"/><circle cx="207.2" cy="245.0" r="3.62" fill="#e09440" opacity="0.19"/><circle cx="245.7" cy="246.5" r="3.20" fill="#e09440" opacity="0.26"/><circle cx="280.7" cy="243.6" r="2.25" fill="#e09440" opacity="0.24"/><circle cx="320.8" cy="245.9" r="1.70" fill="#e09440" opacity="0.17"/><circle cx="356.9" cy="245.7" r="2.69" fill="#e09440" opacity="0.17"/><circle cx="390.2" cy="247.8" r="1.76" fill="#e09440" opacity="0.26"/><circle cx="424.8" cy="248.5" r="3.80" fill="#e09440" opacity="0.32"/><circle cx="464.2" cy="245.4" r="1.83" fill="#e09440" opacity="0.34"/><circle cx="498.1" cy="247.6" r="2.58" fill="#e09440" opacity="0.29"/><circle cx="533.6" cy="243.1" r="2.88" fill="#e09440" opacity="0.33"/><circle cx="571.1" cy="247.2" r="1.67" fill="#e09440" opacity="0.24"/><circle cx="607.0" cy="243.8" r="3.67" fill="#e09440" opacity="0.17"/><circle cx="640.2" cy="244.5" r="3.04" fill="#e09440" opacity="0.26"/><circle cx="679.1" cy="248.9" r="3.90" fill="#e09440" opacity="0.27"/><circle cx="713.1" cy="244.1" r="2.65" fill="#e09440" opacity="0.30"/><circle cx="749.1" cy="243.9" r="2.41" fill="#e09440" opacity="0.32"/><circle cx="786.0" cy="243.5" r="3.27" fill="#e09440" opacity="0.25"/><circle cx="820.9" cy="248.3" r="2.73" fill="#e09440" opacity="0.22"/><circle cx="855.7" cy="246.2" r="3.90" fill="#e09440" opacity="0.19"/><circle cx="895.5" cy="248.1" r="1.94" fill="#e09440" opacity="0.28"/><circle cx="932.3" cy="243.3" r="3.23" fill="#e09440" opacity="0.17"/><circle cx="968.1" cy="245.7" r="3.25" fill="#e09440" opacity="0.17"/><circle cx="1002.2" cy="248.4" r="3.43" fill="#e09440" opacity="0.18"/><circle cx="1037.4" cy="247.5" r="1.96" fill="#e09440" opacity="0.31"/><circle cx="1071.5" cy="248.0" r="2.95" fill="#e09440" opacity="0.17"/><circle cx="1112.7" cy="247.7" r="3.53" fill="#e09440" opacity="0.35"/><circle cx="1148.6" cy="244.9" r="2.46" fill="#e09440" opacity="0.34"/><circle cx="1184.8" cy="246.3" r="2.93" fill="#e09440" opacity="0.34"/><circle cx="28.0" cy="283.7" r="2.32" fill="#e09440" opacity="0.25"/><circle cx="67.7" cy="284.8" r="3.98" fill="#e09440" opacity="0.31"/><circle cx="104.4" cy="284.1" r="3.51" fill="#e09440" opacity="0.32"/><circle cx="135.7" cy="284.3" r="2.89" fill="#e09440" opacity="0.22"/><circle cx="171.7" cy="283.8" r="3.51" fill="#e09440" opacity="0.24"/><circle cx="208.0" cy="282.3" r="3.92" fill="#e09440" opacity="0.33"/><circle cx="244.1" cy="284.2" r="2.16" fill="#e09440" opacity="0.20"/><circle cx="280.6" cy="282.8" r="3.52" fill="#e09440" opacity="0.24"/><circle cx="316.3" cy="279.8" r="1.97" fill="#e09440" opacity="0.35"/><circle cx="353.5" cy="284.4" r="3.10" fill="#e09440" opacity="0.34"/><circle cx="387.7" cy="284.4" r="3.84" fill="#e09440" opacity="0.30"/><circle cx="425.8" cy="281.7" r="1.80" fill="#e09440" opacity="0.23"/><circle cx="461.0" cy="280.8" r="3.41" fill="#e09440" opacity="0.24"/><circle cx="499.9" cy="281.5" r="2.36" fill="#e09440" opacity="0.24"/><circle cx="533.3" cy="284.0" r="2.86" fill="#e09440" opacity="0.18"/><circle cx="571.8" cy="281.6" r="2.68" fill="#e09440" opacity="0.21"/><circle cx="607.8" cy="279.7" r="2.18" fill="#e09440" opacity="0.28"/><circle cx="644.6" cy="282.8" r="2.63" fill="#e09440" opacity="0.23"/><circle cx="675.5" cy="281.6" r="2.33" fill="#e09440" opacity="0.26"/><circle cx="716.1" cy="283.3" r="1.95" fill="#e09440" opacity="0.16"/><circle cx="751.0" cy="279.8" r="1.63" fill="#e09440" opacity="0.32"/><circle cx="783.6" cy="284.2" r="2.42" fill="#e09440" opacity="0.26"/><circle cx="819.1" cy="281.4" r="2.54" fill="#e09440" opacity="0.30"/><circle cx="858.9" cy="280.7" r="2.86" fill="#e09440" opacity="0.20"/><circle cx="892.0" cy="279.5" r="3.43" fill="#e09440" opacity="0.28"/><circle cx="931.7" cy="284.2" r="3.61" fill="#e09440" opacity="0.20"/><circle cx="967.8" cy="284.7" r="2.96" fill="#e09440" opacity="0.33"/><circle cx="1004.8" cy="281.0" r="1.93" fill="#e09440" opacity="0.34"/><circle cx="1036.3" cy="284.6" r="3.11" fill="#e09440" opacity="0.22"/><circle cx="1074.3" cy="282.6" r="2.09" fill="#e09440" opacity="0.19"/><circle cx="1112.5" cy="279.8" r="2.31" fill="#e09440" opacity="0.26"/><circle cx="1144.0" cy="281.9" r="3.77" fill="#e09440" opacity="0.27"/><circle cx="1181.8" cy="282.3" r="3.87" fill="#e09440" opacity="0.28"/><circle cx="28.9" cy="318.8" r="3.40" fill="#e09440" opacity="0.20"/><circle cx="63.2" cy="318.6" r="3.81" fill="#e09440" opacity="0.19"/><circle cx="102.3" cy="317.9" r="2.00" fill="#e09440" opacity="0.26"/><circle cx="138.9" cy="319.7" r="2.67" fill="#e09440" opacity="0.22"/><circle cx="174.8" cy="318.9" r="3.14" fill="#e09440" opacity="0.31"/><circle cx="207.4" cy="320.6" r="3.12" fill="#e09440" opacity="0.19"/><circle cx="248.7" cy="317.7" r="3.99" fill="#e09440" opacity="0.17"/><circle cx="280.1" cy="320.2" r="3.98" fill="#e09440" opacity="0.23"/><circle cx="319.1" cy="317.8" r="2.06" fill="#e09440" opacity="0.32"/><circle cx="355.4" cy="319.8" r="2.21" fill="#e09440" opacity="0.30"/><circle cx="392.4" cy="320.9" r="2.44" fill="#e09440" opacity="0.34"/><circle cx="424.0" cy="317.9" r="1.67" fill="#e09440" opacity="0.21"/><circle cx="460.5" cy="319.1" r="3.09" fill="#e09440" opacity="0.33"/><circle cx="501.0" cy="320.6" r="2.00" fill="#e09440" opacity="0.22"/><circle cx="536.5" cy="317.1" r="2.66" fill="#e09440" opacity="0.21"/><circle cx="571.8" cy="317.0" r="1.78" fill="#e09440" opacity="0.19"/><circle cx="604.3" cy="316.7" r="2.04" fill="#e09440" opacity="0.33"/><circle cx="641.0" cy="319.5" r="2.44" fill="#e09440" opacity="0.18"/><circle cx="678.1" cy="320.6" r="2.39" fill="#e09440" opacity="0.32"/><circle cx="716.7" cy="320.7" r="3.25" fill="#e09440" opacity="0.20"/><circle cx="750.2" cy="316.1" r="2.19" fill="#e09440" opacity="0.24"/><circle cx="783.5" cy="319.4" r="2.37" fill="#e09440" opacity="0.21"/><circle cx="821.3" cy="317.3" r="1.85" fill="#e09440" opacity="0.19"/><circle cx="855.7" cy="315.5" r="3.48" fill="#e09440" opacity="0.31"/><circle cx="894.4" cy="320.1" r="2.35" fill="#e09440" opacity="0.35"/><circle cx="932.0" cy="320.8" r="1.77" fill="#e09440" opacity="0.31"/><circle cx="966.3" cy="315.3" r="2.11" fill="#e09440" opacity="0.28"/><circle cx="1003.1" cy="316.2" r="2.11" fill="#e09440" opacity="0.16"/><circle cx="1040.3" cy="315.1" r="3.68" fill="#e09440" opacity="0.19"/><circle cx="1072.0" cy="319.5" r="3.88" fill="#e09440" opacity="0.22"/><circle cx="1110.9" cy="319.4" r="3.23" fill="#e09440" opacity="0.32"/><circle cx="1143.3" cy="320.2" r="1.69" fill="#e09440" opacity="0.22"/><circle cx="1181.9" cy="318.8" r="3.35" fill="#e09440" opacity="0.23"/><circle cx="29.0" cy="354.4" r="3.55" fill="#e09440" opacity="0.32"/><circle cx="67.6" cy="353.3" r="1.92" fill="#e09440" opacity="0.16"/><circle cx="104.5" cy="352.3" r="1.97" fill="#e09440" opacity="0.29"/><circle cx="136.0" cy="351.0" r="1.70" fill="#e09440" opacity="0.29"/><circle cx="173.2" cy="351.6" r="2.34" fill="#e09440" opacity="0.30"/><circle cx="208.3" cy="353.3" r="1.71" fill="#e09440" opacity="0.25"/><circle cx="247.6" cy="354.6" r="1.64" fill="#e09440" opacity="0.20"/><circle cx="281.4" cy="355.1" r="3.09" fill="#e09440" opacity="0.28"/><circle cx="317.1" cy="353.1" r="3.47" fill="#e09440" opacity="0.21"/><circle cx="356.4" cy="356.8" r="3.37" fill="#e09440" opacity="0.19"/><circle cx="390.8" cy="352.9" r="3.52" fill="#e09440" opacity="0.20"/><circle cx="426.9" cy="354.1" r="1.65" fill="#e09440" opacity="0.16"/><circle cx="460.0" cy="354.5" r="3.82" fill="#e09440" opacity="0.16"/><circle cx="499.0" cy="356.2" r="3.62" fill="#e09440" opacity="0.15"/><circle cx="535.0" cy="352.1" r="1.98" fill="#e09440" opacity="0.20"/><circle cx="571.3" cy="353.7" r="2.43" fill="#e09440" opacity="0.17"/><circle cx="607.2" cy="353.5" r="3.37" fill="#e09440" opacity="0.26"/><circle cx="643.6" cy="356.9" r="3.44" fill="#e09440" opacity="0.28"/><circle cx="678.4" cy="355.9" r="2.74" fill="#e09440" opacity="0.24"/><circle cx="714.4" cy="351.5" r="2.57" fill="#e09440" opacity="0.26"/><circle cx="751.1" cy="354.6" r="2.35" fill="#e09440" opacity="0.28"/><circle cx="787.0" cy="353.2" r="2.29" fill="#e09440" opacity="0.35"/><circle cx="823.6" cy="353.9" r="1.70" fill="#e09440" opacity="0.29"/><circle cx="855.8" cy="354.0" r="2.96" fill="#e09440" opacity="0.20"/><circle cx="894.0" cy="356.6" r="3.71" fill="#e09440" opacity="0.35"/><circle cx="931.2" cy="352.6" r="2.37" fill="#e09440" opacity="0.34"/><circle cx="965.3" cy="353.8" r="1.70" fill="#e09440" opacity="0.34"/><circle cx="999.5" cy="351.0" r="2.39" fill="#e09440" opacity="0.18"/><circle cx="1036.5" cy="355.3" r="3.41" fill="#e09440" opacity="0.16"/><circle cx="1076.6" cy="356.2" r="2.95" fill="#e09440" opacity="0.21"/><circle cx="1110.1" cy="355.6" r="3.69" fill="#e09440" opacity="0.20"/><circle cx="1144.0" cy="351.3" r="2.20" fill="#e09440" opacity="0.23"/><circle cx="1183.2" cy="355.9" r="3.77" fill="#e09440" opacity="0.19"/><circle cx="32.4" cy="392.9" r="3.04" fill="#e09440" opacity="0.22"/><circle cx="63.6" cy="391.8" r="2.36" fill="#e09440" opacity="0.22"/><circle cx="101.3" cy="391.9" r="3.67" fill="#e09440" opacity="0.23"/><circle cx="139.5" cy="389.7" r="2.25" fill="#e09440" opacity="0.22"/><circle cx="173.2" cy="392.5" r="2.47" fill="#e09440" opacity="0.25"/><circle cx="212.3" cy="388.0" r="3.26" fill="#e09440" opacity="0.31"/><circle cx="244.6" cy="392.2" r="3.29" fill="#e09440" opacity="0.34"/><circle cx="280.0" cy="389.7" r="2.09" fill="#e09440" opacity="0.34"/><circle cx="319.6" cy="392.4" r="2.91" fill="#e09440" opacity="0.24"/><circle cx="355.7" cy="389.8" r="2.91" fill="#e09440" opacity="0.31"/><circle cx="387.7" cy="391.2" r="2.84" fill="#e09440" opacity="0.35"/><circle cx="423.6" cy="391.7" r="1.71" fill="#e09440" opacity="0.23"/><circle cx="461.3" cy="391.9" r="1.86" fill="#e09440" opacity="0.34"/><circle cx="496.9" cy="393.0" r="2.16" fill="#e09440" opacity="0.17"/><circle cx="531.1" cy="392.9" r="3.44" fill="#e09440" opacity="0.21"/><circle cx="572.0" cy="390.1" r="2.92" fill="#e09440" opacity="0.34"/><circle cx="607.3" cy="389.7" r="3.41" fill="#e09440" opacity="0.31"/><circle cx="643.2" cy="390.6" r="3.21" fill="#e09440" opacity="0.20"/><circle cx="676.9" cy="387.9" r="1.97" fill="#e09440" opacity="0.32"/><circle cx="713.9" cy="387.2" r="2.24" fill="#e09440" opacity="0.17"/><circle cx="750.9" cy="390.5" r="3.98" fill="#e09440" opacity="0.20"/><circle cx="787.1" cy="390.1" r="2.36" fill="#e09440" opacity="0.20"/><circle cx="820.0" cy="389.9" r="2.13" fill="#e09440" opacity="0.34"/><circle cx="857.5" cy="392.7" r="1.67" fill="#e09440" opacity="0.25"/><circle cx="895.0" cy="389.2" r="2.51" fill="#e09440" opacity="0.31"/><circle cx="927.0" cy="389.5" r="2.37" fill="#e09440" opacity="0.35"/><circle cx="966.6" cy="387.7" r="3.37" fill="#e09440" opacity="0.21"/><circle cx="1004.8" cy="391.9" r="3.01" fill="#e09440" opacity="0.28"/><circle cx="1036.8" cy="390.7" r="2.00" fill="#e09440" opacity="0.22"/><circle cx="1073.7" cy="389.7" r="3.13" fill="#e09440" opacity="0.30"/><circle cx="1107.9" cy="388.3" r="2.18" fill="#e09440" opacity="0.23"/><circle cx="1146.2" cy="387.6" r="2.98" fill="#e09440" opacity="0.36"/><circle cx="1180.2" cy="387.3" r="1.84" fill="#e09440" opacity="0.25"/><circle cx="32.3" cy="423.4" r="2.97" fill="#e09440" opacity="0.25"/><circle cx="66.9" cy="425.8" r="2.92" fill="#e09440" opacity="0.28"/><circle cx="104.3" cy="424.6" r="3.68" fill="#e09440" opacity="0.18"/><circle cx="138.7" cy="423.9" r="3.55" fill="#e09440" opacity="0.27"/><circle cx="172.4" cy="427.4" r="2.90" fill="#e09440" opacity="0.32"/><circle cx="208.5" cy="423.3" r="2.62" fill="#e09440" opacity="0.25"/><circle cx="245.3" cy="427.9" r="3.53" fill="#e09440" opacity="0.28"/><circle cx="283.4" cy="424.6" r="2.29" fill="#e09440" opacity="0.23"/><circle cx="318.5" cy="427.4" r="3.45" fill="#e09440" opacity="0.24"/><circle cx="352.5" cy="423.9" r="2.70" fill="#e09440" opacity="0.33"/><circle cx="389.2" cy="423.6" r="1.69" fill="#e09440" opacity="0.21"/><circle cx="424.2" cy="424.3" r="2.40" fill="#e09440" opacity="0.34"/><circle cx="462.9" cy="426.3" r="2.75" fill="#e09440" opacity="0.29"/><circle cx="500.4" cy="425.5" r="1.89" fill="#e09440" opacity="0.18"/><circle cx="535.8" cy="428.6" r="3.78" fill="#e09440" opacity="0.28"/><circle cx="570.1" cy="425.7" r="3.21" fill="#e09440" opacity="0.19"/><circle cx="608.3" cy="428.9" r="2.23" fill="#e09440" opacity="0.29"/><circle cx="641.7" cy="425.2" r="2.78" fill="#e09440" opacity="0.36"/><circle cx="675.9" cy="426.4" r="1.83" fill="#e09440" opacity="0.22"/><circle cx="712.4" cy="428.8" r="2.71" fill="#e09440" opacity="0.23"/><circle cx="749.7" cy="426.7" r="2.91" fill="#e09440" opacity="0.17"/><circle cx="784.7" cy="424.5" r="2.61" fill="#e09440" opacity="0.31"/><circle cx="822.1" cy="426.7" r="3.17" fill="#e09440" opacity="0.20"/><circle cx="855.7" cy="425.6" r="3.69" fill="#e09440" opacity="0.32"/><circle cx="892.6" cy="425.3" r="2.01" fill="#e09440" opacity="0.35"/><circle cx="929.0" cy="425.9" r="2.95" fill="#e09440" opacity="0.27"/><circle cx="964.4" cy="425.2" r="2.36" fill="#e09440" opacity="0.36"/><circle cx="1001.1" cy="425.0" r="2.28" fill="#e09440" opacity="0.29"/><circle cx="1036.2" cy="426.6" r="3.66" fill="#e09440" opacity="0.20"/><circle cx="1076.4" cy="425.6" r="3.19" fill="#e09440" opacity="0.25"/><circle cx="1111.3" cy="425.6" r="2.75" fill="#e09440" opacity="0.16"/><circle cx="1147.1" cy="426.8" r="2.61" fill="#e09440" opacity="0.26"/><circle cx="1181.4" cy="428.8" r="3.72" fill="#e09440" opacity="0.18"/><circle cx="27.7" cy="464.6" r="3.36" fill="#e09440" opacity="0.32"/><circle cx="67.9" cy="462.8" r="3.77" fill="#e09440" opacity="0.25"/><circle cx="102.2" cy="461.9" r="2.20" fill="#e09440" opacity="0.15"/><circle cx="136.6" cy="461.3" r="1.97" fill="#e09440" opacity="0.21"/><circle cx="171.1" cy="459.6" r="2.51" fill="#e09440" opacity="0.30"/><circle cx="211.5" cy="461.6" r="2.16" fill="#e09440" opacity="0.21"/><circle cx="243.8" cy="463.7" r="1.95" fill="#e09440" opacity="0.19"/><circle cx="282.9" cy="461.8" r="3.36" fill="#e09440" opacity="0.35"/><circle cx="318.4" cy="461.3" r="3.28" fill="#e09440" opacity="0.32"/><circle cx="355.9" cy="464.0" r="3.04" fill="#e09440" opacity="0.36"/><circle cx="388.8" cy="462.0" r="1.64" fill="#e09440" opacity="0.32"/><circle cx="424.9" cy="463.9" r="2.55" fill="#e09440" opacity="0.24"/><circle cx="462.0" cy="463.2" r="2.36" fill="#e09440" opacity="0.18"/><circle cx="499.9" cy="464.0" r="2.36" fill="#e09440" opacity="0.33"/><circle cx="533.0" cy="464.8" r="3.49" fill="#e09440" opacity="0.27"/><circle cx="571.3" cy="464.5" r="2.73" fill="#e09440" opacity="0.35"/><circle cx="606.3" cy="459.3" r="2.91" fill="#e09440" opacity="0.32"/><circle cx="642.8" cy="462.6" r="1.84" fill="#e09440" opacity="0.27"/><circle cx="677.0" cy="463.0" r="3.19" fill="#e09440" opacity="0.21"/><circle cx="711.4" cy="459.3" r="2.47" fill="#e09440" opacity="0.19"/><circle cx="749.7" cy="465.0" r="1.65" fill="#e09440" opacity="0.16"/><circle cx="787.4" cy="464.3" r="3.56" fill="#e09440" opacity="0.16"/><circle cx="821.0" cy="463.8" r="1.72" fill="#e09440" opacity="0.22"/><circle cx="856.1" cy="464.2" r="3.82" fill="#e09440" opacity="0.22"/><circle cx="894.9" cy="464.1" r="3.55" fill="#e09440" opacity="0.19"/><circle cx="930.4" cy="464.3" r="2.87" fill="#e09440" opacity="0.29"/><circle cx="967.8" cy="463.2" r="3.48" fill="#e09440" opacity="0.20"/><circle cx="1001.6" cy="459.9" r="2.03" fill="#e09440" opacity="0.28"/><circle cx="1037.8" cy="462.0" r="3.50" fill="#e09440" opacity="0.20"/><circle cx="1074.6" cy="461.9" r="2.40" fill="#e09440" opacity="0.26"/><circle cx="1112.4" cy="464.1" r="1.97" fill="#e09440" opacity="0.28"/><circle cx="1144.4" cy="460.7" r="3.17" fill="#e09440" opacity="0.22"/><circle cx="1184.4" cy="464.0" r="2.40" fill="#e09440" opacity="0.30"/><circle cx="28.4" cy="499.0" r="2.92" fill="#e09440" opacity="0.30"/><circle cx="64.5" cy="498.8" r="2.19" fill="#e09440" opacity="0.35"/><circle cx="100.0" cy="495.5" r="3.13" fill="#e09440" opacity="0.18"/><circle cx="137.0" cy="497.6" r="2.88" fill="#e09440" opacity="0.18"/><circle cx="174.0" cy="496.1" r="2.53" fill="#e09440" opacity="0.28"/><circle cx="211.4" cy="496.3" r="1.69" fill="#e09440" opacity="0.16"/><circle cx="244.7" cy="500.4" r="2.15" fill="#e09440" opacity="0.18"/><circle cx="281.5" cy="499.7" r="2.16" fill="#e09440" opacity="0.26"/><circle cx="316.6" cy="496.8" r="2.63" fill="#e09440" opacity="0.27"/><circle cx="353.6" cy="497.4" r="3.65" fill="#e09440" opacity="0.16"/><circle cx="391.6" cy="495.3" r="2.73" fill="#e09440" opacity="0.23"/><circle cx="424.4" cy="497.3" r="2.29" fill="#e09440" opacity="0.21"/><circle cx="459.0" cy="499.3" r="2.24" fill="#e09440" opacity="0.30"/><circle cx="499.0" cy="495.5" r="2.62" fill="#e09440" opacity="0.25"/><circle cx="534.6" cy="499.0" r="3.94" fill="#e09440" opacity="0.25"/><circle cx="572.6" cy="495.8" r="2.14" fill="#e09440" opacity="0.27"/><circle cx="604.1" cy="496.8" r="3.49" fill="#e09440" opacity="0.28"/><circle cx="639.4" cy="496.4" r="2.34" fill="#e09440" opacity="0.25"/><circle cx="678.8" cy="499.8" r="1.98" fill="#e09440" opacity="0.29"/><circle cx="716.6" cy="498.3" r="2.19" fill="#e09440" opacity="0.30"/><circle cx="750.1" cy="497.0" r="1.68" fill="#e09440" opacity="0.25"/><circle cx="785.6" cy="500.7" r="1.61" fill="#e09440" opacity="0.27"/><circle cx="824.0" cy="498.2" r="2.10" fill="#e09440" opacity="0.18"/><circle cx="855.3" cy="500.2" r="1.69" fill="#e09440" opacity="0.35"/><circle cx="897.0" cy="496.7" r="3.02" fill="#e09440" opacity="0.19"/><circle cx="929.7" cy="499.2" r="3.72" fill="#e09440" opacity="0.19"/><circle cx="965.0" cy="500.4" r="2.63" fill="#e09440" opacity="0.15"/><circle cx="1001.8" cy="497.8" r="3.31" fill="#e09440" opacity="0.26"/><circle cx="1036.7" cy="497.7" r="2.60" fill="#e09440" opacity="0.16"/><circle cx="1072.0" cy="499.3" r="3.41" fill="#e09440" opacity="0.18"/><circle cx="1109.4" cy="496.4" r="1.85" fill="#e09440" opacity="0.31"/><circle cx="1147.5" cy="496.2" r="3.92" fill="#e09440" opacity="0.22"/><circle cx="1183.5" cy="499.4" r="2.95" fill="#e09440" opacity="0.21"/><circle cx="30.9" cy="531.6" r="3.86" fill="#e09440" opacity="0.27"/><circle cx="67.5" cy="533.0" r="2.01" fill="#e09440" opacity="0.21"/><circle cx="99.6" cy="536.5" r="2.15" fill="#e09440" opacity="0.22"/><circle cx="139.7" cy="532.9" r="1.89" fill="#e09440" opacity="0.27"/><circle cx="172.2" cy="533.7" r="2.59" fill="#e09440" opacity="0.31"/><circle cx="211.4" cy="536.8" r="3.19" fill="#e09440" opacity="0.22"/><circle cx="247.4" cy="534.4" r="3.44" fill="#e09440" opacity="0.23"/><circle cx="284.4" cy="533.2" r="3.80" fill="#e09440" opacity="0.30"/><circle cx="319.1" cy="531.3" r="2.34" fill="#e09440" opacity="0.20"/><circle cx="353.0" cy="535.1" r="1.74" fill="#e09440" opacity="0.24"/><circle cx="390.7" cy="535.1" r="2.94" fill="#e09440" opacity="0.22"/><circle cx="427.9" cy="534.0" r="1.89" fill="#e09440" opacity="0.23"/><circle cx="463.1" cy="532.7" r="3.71" fill="#e09440" opacity="0.25"/><circle cx="497.9" cy="531.5" r="2.72" fill="#e09440" opacity="0.34"/><circle cx="532.9" cy="532.2" r="3.78" fill="#e09440" opacity="0.25"/><circle cx="572.9" cy="535.0" r="3.14" fill="#e09440" opacity="0.23"/><circle cx="603.2" cy="531.6" r="3.62" fill="#e09440" opacity="0.18"/><circle cx="642.3" cy="536.6" r="3.61" fill="#e09440" opacity="0.18"/><circle cx="676.4" cy="534.2" r="3.99" fill="#e09440" opacity="0.17"/><circle cx="712.8" cy="535.8" r="2.94" fill="#e09440" opacity="0.18"/><circle cx="747.5" cy="531.8" r="2.36" fill="#e09440" opacity="0.31"/><circle cx="787.6" cy="536.7" r="2.68" fill="#e09440" opacity="0.18"/><circle cx="819.9" cy="533.5" r="2.94" fill="#e09440" opacity="0.28"/><circle cx="858.9" cy="535.2" r="3.69" fill="#e09440" opacity="0.23"/><circle cx="896.9" cy="535.0" r="2.47" fill="#e09440" opacity="0.18"/><circle cx="931.9" cy="534.2" r="2.30" fill="#e09440" opacity="0.16"/><circle cx="964.3" cy="533.4" r="2.28" fill="#e09440" opacity="0.25"/><circle cx="999.6" cy="536.9" r="1.69" fill="#e09440" opacity="0.21"/><circle cx="1035.3" cy="534.8" r="2.74" fill="#e09440" opacity="0.32"/><circle cx="1075.8" cy="532.6" r="2.41" fill="#e09440" opacity="0.21"/><circle cx="1112.2" cy="535.0" r="2.13" fill="#e09440" opacity="0.24"/><circle cx="1144.5" cy="537.0" r="3.15" fill="#e09440" opacity="0.20"/><circle cx="1181.4" cy="532.0" r="2.10" fill="#e09440" opacity="0.32"/><circle cx="31.8" cy="570.4" r="2.30" fill="#e09440" opacity="0.27"/><circle cx="64.9" cy="572.6" r="1.84" fill="#e09440" opacity="0.36"/><circle cx="100.3" cy="567.4" r="2.85" fill="#e09440" opacity="0.19"/><circle cx="139.4" cy="571.5" r="1.67" fill="#e09440" opacity="0.26"/><circle cx="176.6" cy="567.4" r="2.88" fill="#e09440" opacity="0.16"/><circle cx="208.2" cy="571.2" r="1.96" fill="#e09440" opacity="0.20"/><circle cx="248.2" cy="571.0" r="2.35" fill="#e09440" opacity="0.28"/><circle cx="281.3" cy="571.2" r="1.74" fill="#e09440" opacity="0.30"/><circle cx="317.5" cy="569.0" r="2.60" fill="#e09440" opacity="0.28"/><circle cx="353.6" cy="571.7" r="1.85" fill="#e09440" opacity="0.22"/><circle cx="391.8" cy="567.3" r="3.06" fill="#e09440" opacity="0.28"/><circle cx="426.1" cy="569.5" r="2.94" fill="#e09440" opacity="0.27"/><circle cx="461.5" cy="570.3" r="3.87" fill="#e09440" opacity="0.29"/><circle cx="495.7" cy="570.1" r="2.55" fill="#e09440" opacity="0.33"/><circle cx="536.9" cy="572.0" r="3.54" fill="#e09440" opacity="0.25"/><circle cx="567.3" cy="568.1" r="3.30" fill="#e09440" opacity="0.34"/><circle cx="609.0" cy="569.3" r="1.66" fill="#e09440" opacity="0.28"/><circle cx="643.8" cy="572.4" r="2.14" fill="#e09440" opacity="0.36"/><circle cx="675.6" cy="568.9" r="3.67" fill="#e09440" opacity="0.17"/><circle cx="711.7" cy="570.2" r="2.47" fill="#e09440" opacity="0.31"/><circle cx="752.0" cy="568.0" r="3.94" fill="#e09440" opacity="0.35"/><circle cx="788.2" cy="570.4" r="3.02" fill="#e09440" opacity="0.17"/><circle cx="821.0" cy="569.4" r="1.64" fill="#e09440" opacity="0.20"/><circle cx="856.8" cy="567.1" r="3.64" fill="#e09440" opacity="0.19"/><circle cx="893.0" cy="572.9" r="1.64" fill="#e09440" opacity="0.35"/><circle cx="931.9" cy="571.6" r="3.67" fill="#e09440" opacity="0.36"/><circle cx="968.4" cy="570.8" r="1.82" fill="#e09440" opacity="0.24"/><circle cx="1001.5" cy="568.5" r="3.15" fill="#e09440" opacity="0.29"/><circle cx="1040.2" cy="572.1" r="1.60" fill="#e09440" opacity="0.36"/><circle cx="1074.2" cy="568.4" r="2.18" fill="#e09440" opacity="0.23"/><circle cx="1112.3" cy="569.2" r="2.90" fill="#e09440" opacity="0.24"/><circle cx="1143.2" cy="569.8" r="2.60" fill="#e09440" opacity="0.18"/><circle cx="1179.4" cy="569.2" r="3.94" fill="#e09440" opacity="0.23"/><circle cx="29.9" cy="603.2" r="2.71" fill="#e09440" opacity="0.30"/><circle cx="68.8" cy="604.9" r="3.26" fill="#e09440" opacity="0.15"/><circle cx="102.7" cy="604.7" r="3.80" fill="#e09440" opacity="0.35"/><circle cx="138.1" cy="603.2" r="1.63" fill="#e09440" opacity="0.32"/><circle cx="171.4" cy="603.2" r="3.91" fill="#e09440" opacity="0.33"/><circle cx="209.5" cy="606.3" r="3.38" fill="#e09440" opacity="0.20"/><circle cx="245.0" cy="603.9" r="1.68" fill="#e09440" opacity="0.34"/><circle cx="279.2" cy="605.4" r="2.29" fill="#e09440" opacity="0.34"/><circle cx="317.3" cy="604.5" r="2.91" fill="#e09440" opacity="0.18"/><circle cx="351.2" cy="603.6" r="2.43" fill="#e09440" opacity="0.23"/><circle cx="387.2" cy="608.3" r="3.97" fill="#e09440" opacity="0.31"/><circle cx="427.0" cy="603.4" r="3.01" fill="#e09440" opacity="0.17"/><circle cx="461.8" cy="608.1" r="2.69" fill="#e09440" opacity="0.28"/><circle cx="499.3" cy="605.7" r="1.72" fill="#e09440" opacity="0.28"/><circle cx="535.7" cy="605.4" r="2.05" fill="#e09440" opacity="0.25"/><circle cx="570.7" cy="603.7" r="3.85" fill="#e09440" opacity="0.20"/><circle cx="608.5" cy="606.0" r="3.78" fill="#e09440" opacity="0.26"/><circle cx="642.8" cy="608.2" r="3.50" fill="#e09440" opacity="0.15"/><circle cx="677.9" cy="605.2" r="3.46" fill="#e09440" opacity="0.23"/><circle cx="715.3" cy="604.3" r="3.33" fill="#e09440" opacity="0.18"/><circle cx="752.3" cy="607.4" r="2.24" fill="#e09440" opacity="0.21"/><circle cx="784.0" cy="606.5" r="3.38" fill="#e09440" opacity="0.20"/><circle cx="823.9" cy="608.1" r="3.52" fill="#e09440" opacity="0.18"/><circle cx="855.2" cy="603.1" r="2.68" fill="#e09440" opacity="0.20"/><circle cx="892.8" cy="608.8" r="1.96" fill="#e09440" opacity="0.32"/><circle cx="931.4" cy="605.1" r="2.77" fill="#e09440" opacity="0.21"/><circle cx="967.6" cy="606.6" r="2.91" fill="#e09440" opacity="0.30"/><circle cx="999.6" cy="605.5" r="3.57" fill="#e09440" opacity="0.34"/><circle cx="1040.7" cy="607.7" r="1.77" fill="#e09440" opacity="0.34"/><circle cx="1073.7" cy="604.3" r="1.85" fill="#e09440" opacity="0.27"/><circle cx="1111.5" cy="605.0" r="3.54" fill="#e09440" opacity="0.33"/><circle cx="1148.1" cy="605.3" r="2.25" fill="#e09440" opacity="0.34"/><circle cx="1179.5" cy="606.0" r="3.57" fill="#e09440" opacity="0.20"/><circle cx="27.8" cy="642.0" r="3.89" fill="#e09440" opacity="0.21"/><circle cx="66.1" cy="641.9" r="3.50" fill="#e09440" opacity="0.28"/><circle cx="99.0" cy="643.7" r="2.67" fill="#e09440" opacity="0.34"/><circle cx="136.1" cy="642.3" r="2.28" fill="#e09440" opacity="0.34"/><circle cx="173.7" cy="639.7" r="1.83" fill="#e09440" opacity="0.23"/><circle cx="207.1" cy="644.8" r="3.91" fill="#e09440" opacity="0.23"/><circle cx="243.0" cy="643.0" r="2.68" fill="#e09440" opacity="0.24"/><circle cx="280.8" cy="642.5" r="3.72" fill="#e09440" opacity="0.36"/><circle cx="318.9" cy="639.8" r="2.26" fill="#e09440" opacity="0.23"/><circle cx="351.5" cy="643.7" r="2.99" fill="#e09440" opacity="0.32"/><circle cx="387.1" cy="639.5" r="3.40" fill="#e09440" opacity="0.24"/><circle cx="428.3" cy="642.6" r="3.04" fill="#e09440" opacity="0.22"/><circle cx="460.7" cy="640.4" r="3.11" fill="#e09440" opacity="0.34"/><circle cx="495.8" cy="640.5" r="2.52" fill="#e09440" opacity="0.23"/><circle cx="537.0" cy="639.4" r="2.50" fill="#e09440" opacity="0.18"/><circle cx="571.8" cy="639.1" r="2.63" fill="#e09440" opacity="0.15"/><circle cx="606.6" cy="641.5" r="3.96" fill="#e09440" opacity="0.27"/><circle cx="641.4" cy="642.4" r="2.72" fill="#e09440" opacity="0.30"/><circle cx="678.5" cy="640.9" r="2.45" fill="#e09440" opacity="0.32"/><circle cx="712.1" cy="640.3" r="2.72" fill="#e09440" opacity="0.16"/><circle cx="749.2" cy="642.7" r="3.01" fill="#e09440" opacity="0.31"/><circle cx="783.5" cy="639.0" r="3.93" fill="#e09440" opacity="0.25"/><circle cx="822.1" cy="642.7" r="3.63" fill="#e09440" opacity="0.21"/><circle cx="855.4" cy="644.4" r="1.85" fill="#e09440" opacity="0.17"/><circle cx="892.4" cy="642.0" r="3.89" fill="#e09440" opacity="0.26"/><circle cx="928.4" cy="644.3" r="2.88" fill="#e09440" opacity="0.31"/><circle cx="968.9" cy="642.3" r="3.42" fill="#e09440" opacity="0.20"/><circle cx="1004.9" cy="640.0" r="3.40" fill="#e09440" opacity="0.19"/><circle cx="1040.8" cy="642.4" r="2.12" fill="#e09440" opacity="0.23"/><circle cx="1072.2" cy="642.7" r="1.94" fill="#e09440" opacity="0.15"/><circle cx="1113.0" cy="640.9" r="1.80" fill="#e09440" opacity="0.34"/><circle cx="1145.9" cy="640.4" r="2.45" fill="#e09440" opacity="0.30"/><circle cx="1184.2" cy="643.5" r="3.31" fill="#e09440" opacity="0.27"/><circle cx="274.9" cy="279.9" r="220" fill="url(#glow)" opacity="0.9"/>
  <g opacity="0.85" transform="translate(1020, 495)">
        <polygon points="0,-50 43,25 -43,25" fill="none" stroke="#e09440" stroke-width="2"/>
        <polygon points="0,-30 26,15 -26,15" fill="#fdf6ee" opacity="0.4"/>
      </g>
  <g transform="translate(80, 90)">
    <rect x="0" y="0" rx="20" ry="20" width="145" height="38" fill="#e09440" opacity="0.18" stroke="#e09440" stroke-width="1.5"/>
    <text x="72.5" y="25" font-family="ui-sans-serif, Inter, sans-serif" font-weight="700" font-size="14" letter-spacing="2.5" fill="#e09440" text-anchor="middle">INFORMATION</text>
  </g>
  <text x="80" y="465" font-family="ui-sans-serif, -apple-system, Segoe UI, Inter, sans-serif" font-weight="800" font-size="44" fill="#faf8f5" opacity="0.98"><tspan x="80" dy="0">PDR COURT Arbitration</tspan><tspan x="80" dy="56">Rules for effective</tspan><tspan x="80" dy="56">settlements</tspan></text>
  <rect x="0" y="669" width="1200" height="6" fill="url(#gold)"/>
</svg>