<?xml version="1.0" encoding="UTF-8"?>
<svg xmlns="http://www.w3.org/2000/svg" viewBox="0 0 1200 675" width="1200" height="675" role="img" aria-label="Delhi HC: Arbitration Clause Holds Even in Admitted Liabilities">
  <defs>
    <linearGradient id="bg" x1="0%" y1="0%" x2="100%" y2="100%">
      <stop offset="0%" stop-color="#0c0a09"/>
      <stop offset="100%" stop-color="#291813"/>
    </linearGradient>
    <linearGradient id="gold" x1="0%" y1="0%" x2="100%" y2="100%">
      <stop offset="0%" stop-color="#d4862a"/>
      <stop offset="100%" stop-color="#bd6b20"/>
    </linearGradient>
    <radialGradient id="glow" cx="50%" cy="50%" r="50%">
      <stop offset="0%" stop-color="#d4862a" stop-opacity="0.45"/>
      <stop offset="100%" stop-color="#d4862a" stop-opacity="0"/>
    </radialGradient>
  </defs>
  <rect width="1200" height="675" fill="url(#bg)"/>
  <circle cx="28.1" cy="30.7" r="2.08" fill="#d4862a" opacity="0.17"/><circle cx="66.4" cy="27.9" r="2.36" fill="#d4862a" opacity="0.34"/><circle cx="103.2" cy="31.7" r="3.39" fill="#d4862a" opacity="0.16"/><circle cx="138.6" cy="32.2" r="1.82" fill="#d4862a" opacity="0.23"/><circle cx="176.4" cy="27.5" r="2.12" fill="#d4862a" opacity="0.27"/><circle cx="210.4" cy="28.4" r="3.90" fill="#d4862a" opacity="0.26"/><circle cx="244.1" cy="29.1" r="2.87" fill="#d4862a" opacity="0.16"/><circle cx="284.1" cy="27.9" r="3.86" fill="#d4862a" opacity="0.21"/><circle cx="315.9" cy="30.5" r="3.54" fill="#d4862a" opacity="0.18"/><circle cx="353.2" cy="31.2" r="2.54" fill="#d4862a" opacity="0.15"/><circle cx="389.0" cy="29.2" r="2.01" fill="#d4862a" opacity="0.31"/><circle cx="425.3" cy="30.9" r="1.70" fill="#d4862a" opacity="0.21"/><circle cx="462.7" cy="31.2" r="2.00" fill="#d4862a" opacity="0.16"/><circle cx="497.7" cy="30.5" r="3.20" fill="#d4862a" opacity="0.32"/><circle cx="536.8" cy="31.0" r="2.16" fill="#d4862a" opacity="0.27"/><circle cx="569.9" cy="28.9" r="2.80" fill="#d4862a" opacity="0.23"/><circle cx="603.3" cy="28.0" r="2.33" fill="#d4862a" opacity="0.19"/><circle cx="644.4" cy="31.6" r="3.36" fill="#d4862a" opacity="0.33"/><circle cx="679.2" cy="27.4" r="1.81" fill="#d4862a" opacity="0.30"/><circle cx="712.4" cy="31.0" r="3.48" fill="#d4862a" opacity="0.27"/><circle cx="751.1" cy="32.1" r="2.31" fill="#d4862a" opacity="0.21"/><circle cx="788.6" cy="28.3" r="2.92" fill="#d4862a" opacity="0.27"/><circle cx="824.8" cy="28.5" r="3.08" fill="#d4862a" opacity="0.15"/><circle cx="860.9" cy="28.2" r="3.31" fill="#d4862a" opacity="0.32"/><circle cx="893.0" cy="30.1" r="1.67" fill="#d4862a" opacity="0.20"/><circle cx="931.7" cy="31.3" r="2.25" fill="#d4862a" opacity="0.22"/><circle cx="964.6" cy="27.5" r="2.44" fill="#d4862a" opacity="0.24"/><circle cx="1002.6" cy="28.5" r="2.86" fill="#d4862a" opacity="0.31"/><circle cx="1035.4" cy="28.0" r="3.75" fill="#d4862a" opacity="0.23"/><circle cx="1073.9" cy="31.0" r="3.45" fill="#d4862a" opacity="0.34"/><circle cx="1109.1" cy="27.8" r="3.99" fill="#d4862a" opacity="0.29"/><circle cx="1147.4" cy="29.0" r="3.86" fill="#d4862a" opacity="0.26"/><circle cx="1180.1" cy="31.3" r="1.90" fill="#d4862a" opacity="0.29"/><circle cx="31.0" cy="64.2" r="3.06" fill="#d4862a" opacity="0.31"/><circle cx="65.4" cy="63.5" r="3.07" fill="#d4862a" opacity="0.31"/><circle cx="100.6" cy="65.1" r="3.51" fill="#d4862a" opacity="0.24"/><circle cx="140.1" cy="64.0" r="2.63" fill="#d4862a" opacity="0.20"/><circle cx="171.6" cy="66.3" r="3.00" fill="#d4862a" opacity="0.36"/><circle cx="208.9" cy="63.5" r="1.73" fill="#d4862a" opacity="0.19"/><circle cx="243.3" cy="63.7" r="3.70" fill="#d4862a" opacity="0.15"/><circle cx="279.6" cy="64.4" r="3.74" fill="#d4862a" opacity="0.27"/><circle cx="316.9" cy="66.4" r="3.59" fill="#d4862a" opacity="0.35"/><circle cx="355.5" cy="63.5" r="1.98" fill="#d4862a" opacity="0.31"/><circle cx="391.8" cy="66.2" r="3.64" fill="#d4862a" opacity="0.35"/><circle cx="427.7" cy="66.4" r="2.60" fill="#d4862a" opacity="0.26"/><circle cx="460.9" cy="64.2" r="3.29" fill="#d4862a" opacity="0.35"/><circle cx="500.4" cy="64.1" r="2.47" fill="#d4862a" opacity="0.20"/><circle cx="536.4" cy="65.4" r="2.12" fill="#d4862a" opacity="0.33"/><circle cx="572.0" cy="63.6" r="3.76" fill="#d4862a" opacity="0.16"/><circle cx="607.9" cy="64.5" r="3.26" fill="#d4862a" opacity="0.22"/><circle cx="644.6" cy="64.2" r="3.73" fill="#d4862a" opacity="0.19"/><circle cx="675.9" cy="64.4" r="3.30" fill="#d4862a" opacity="0.15"/><circle cx="712.7" cy="66.7" r="3.82" fill="#d4862a" opacity="0.18"/><circle cx="750.8" cy="66.5" r="3.17" fill="#d4862a" opacity="0.25"/><circle cx="784.9" cy="65.4" r="3.88" fill="#d4862a" opacity="0.16"/><circle cx="821.6" cy="64.2" r="2.12" fill="#d4862a" opacity="0.34"/><circle cx="858.4" cy="64.9" r="2.99" fill="#d4862a" opacity="0.17"/><circle cx="895.7" cy="68.0" r="3.16" fill="#d4862a" opacity="0.31"/><circle cx="927.9" cy="65.7" r="2.51" fill="#d4862a" opacity="0.30"/><circle cx="964.7" cy="63.2" r="3.24" fill="#d4862a" opacity="0.28"/><circle cx="1001.3" cy="66.1" r="2.82" fill="#d4862a" opacity="0.21"/><circle cx="1039.4" cy="63.1" r="1.98" fill="#d4862a" opacity="0.31"/><circle cx="1076.3" cy="66.4" r="1.61" fill="#d4862a" opacity="0.25"/><circle cx="1110.5" cy="66.6" r="2.86" fill="#d4862a" opacity="0.20"/><circle cx="1146.3" cy="67.6" r="1.76" fill="#d4862a" opacity="0.32"/><circle cx="1182.8" cy="67.2" r="3.91" fill="#d4862a" opacity="0.32"/><circle cx="30.8" cy="104.2" r="2.73" fill="#d4862a" opacity="0.17"/><circle cx="65.6" cy="103.5" r="1.60" fill="#d4862a" opacity="0.34"/><circle cx="102.2" cy="102.4" r="2.88" fill="#d4862a" opacity="0.23"/><circle cx="139.5" cy="103.4" r="2.16" fill="#d4862a" opacity="0.20"/><circle cx="177.0" cy="101.4" r="2.46" fill="#d4862a" opacity="0.36"/><circle cx="207.1" cy="101.2" r="3.82" fill="#d4862a" opacity="0.24"/><circle cx="248.2" cy="102.1" r="3.31" fill="#d4862a" opacity="0.29"/><circle cx="282.9" cy="103.7" r="2.02" fill="#d4862a" opacity="0.19"/><circle cx="315.5" cy="101.5" r="2.30" fill="#d4862a" opacity="0.29"/><circle cx="352.2" cy="102.9" r="3.40" fill="#d4862a" opacity="0.32"/><circle cx="391.6" cy="100.5" r="3.95" fill="#d4862a" opacity="0.25"/><circle cx="427.2" cy="104.2" r="2.84" fill="#d4862a" opacity="0.29"/><circle cx="460.1" cy="100.1" r="2.32" fill="#d4862a" opacity="0.30"/><circle cx="499.3" cy="103.2" r="3.14" fill="#d4862a" opacity="0.24"/><circle cx="535.5" cy="101.7" r="1.71" fill="#d4862a" opacity="0.16"/><circle cx="568.8" cy="99.4" r="3.63" fill="#d4862a" opacity="0.27"/><circle cx="605.3" cy="102.0" r="3.26" fill="#d4862a" opacity="0.18"/><circle cx="642.2" cy="100.0" r="1.86" fill="#d4862a" opacity="0.25"/><circle cx="677.8" cy="103.1" r="3.05" fill="#d4862a" opacity="0.17"/><circle cx="714.1" cy="100.5" r="2.45" fill="#d4862a" opacity="0.17"/><circle cx="750.8" cy="102.7" r="3.00" fill="#d4862a" opacity="0.24"/><circle cx="785.8" cy="103.9" r="2.54" fill="#d4862a" opacity="0.35"/><circle cx="823.8" cy="101.5" r="2.19" fill="#d4862a" opacity="0.26"/><circle cx="855.9" cy="104.6" r="2.74" fill="#d4862a" opacity="0.34"/><circle cx="895.0" cy="101.2" r="3.38" fill="#d4862a" opacity="0.18"/><circle cx="927.4" cy="104.7" r="3.18" fill="#d4862a" opacity="0.33"/><circle cx="966.8" cy="103.0" r="2.81" fill="#d4862a" opacity="0.32"/><circle cx="999.7" cy="103.8" r="2.23" fill="#d4862a" opacity="0.23"/><circle cx="1036.1" cy="102.7" r="1.61" fill="#d4862a" opacity="0.21"/><circle cx="1075.8" cy="102.0" r="1.60" fill="#d4862a" opacity="0.18"/><circle cx="1109.7" cy="102.7" r="1.91" fill="#d4862a" opacity="0.16"/><circle cx="1148.1" cy="103.6" r="3.71" fill="#d4862a" opacity="0.17"/><circle cx="1183.1" cy="100.2" r="1.69" fill="#d4862a" opacity="0.18"/><circle cx="32.7" cy="135.3" r="3.21" fill="#d4862a" opacity="0.18"/><circle cx="66.5" cy="135.9" r="3.31" fill="#d4862a" opacity="0.19"/><circle cx="104.4" cy="138.1" r="2.28" fill="#d4862a" opacity="0.34"/><circle cx="138.2" cy="136.3" r="1.82" fill="#d4862a" opacity="0.33"/><circle cx="172.2" cy="137.9" r="2.50" fill="#d4862a" opacity="0.27"/><circle cx="212.4" cy="140.5" r="1.71" fill="#d4862a" opacity="0.17"/><circle cx="245.9" cy="140.9" r="3.05" fill="#d4862a" opacity="0.22"/><circle cx="282.0" cy="140.3" r="1.76" fill="#d4862a" opacity="0.20"/><circle cx="315.8" cy="135.8" r="3.34" fill="#d4862a" opacity="0.19"/><circle cx="352.4" cy="135.8" r="3.84" fill="#d4862a" opacity="0.19"/><circle cx="391.2" cy="135.5" r="2.13" fill="#d4862a" opacity="0.21"/><circle cx="428.4" cy="140.5" r="3.65" fill="#d4862a" opacity="0.34"/><circle cx="461.8" cy="140.7" r="2.53" fill="#d4862a" opacity="0.19"/><circle cx="496.1" cy="136.7" r="3.32" fill="#d4862a" opacity="0.27"/><circle cx="535.4" cy="136.3" r="3.74" fill="#d4862a" opacity="0.28"/><circle cx="567.9" cy="137.7" r="3.73" fill="#d4862a" opacity="0.23"/><circle cx="605.7" cy="136.0" r="2.54" fill="#d4862a" opacity="0.16"/><circle cx="642.1" cy="140.6" r="2.24" fill="#d4862a" opacity="0.31"/><circle cx="679.3" cy="137.8" r="3.61" fill="#d4862a" opacity="0.16"/><circle cx="712.8" cy="136.1" r="2.36" fill="#d4862a" opacity="0.17"/><circle cx="749.7" cy="136.7" r="2.78" fill="#d4862a" opacity="0.28"/><circle cx="783.8" cy="137.6" r="2.36" fill="#d4862a" opacity="0.17"/><circle cx="821.4" cy="137.9" r="3.26" fill="#d4862a" opacity="0.24"/><circle cx="860.0" cy="139.8" r="3.23" fill="#d4862a" opacity="0.17"/><circle cx="894.4" cy="138.9" r="3.07" fill="#d4862a" opacity="0.31"/><circle cx="929.0" cy="139.2" r="2.44" fill="#d4862a" opacity="0.34"/><circle cx="963.6" cy="135.2" r="2.23" fill="#d4862a" opacity="0.24"/><circle cx="1003.8" cy="136.7" r="3.30" fill="#d4862a" opacity="0.35"/><circle cx="1037.6" cy="136.3" r="2.82" fill="#d4862a" opacity="0.31"/><circle cx="1074.7" cy="138.9" r="2.36" fill="#d4862a" opacity="0.15"/><circle cx="1110.6" cy="139.5" r="3.07" fill="#d4862a" opacity="0.18"/><circle cx="1143.8" cy="136.4" r="2.04" fill="#d4862a" opacity="0.23"/><circle cx="1184.8" cy="136.5" r="2.44" fill="#d4862a" opacity="0.22"/><circle cx="29.2" cy="171.0" r="4.00" fill="#d4862a" opacity="0.18"/><circle cx="67.6" cy="176.6" r="3.39" fill="#d4862a" opacity="0.18"/><circle cx="104.1" cy="176.6" r="2.16" fill="#d4862a" opacity="0.22"/><circle cx="140.8" cy="172.0" r="3.35" fill="#d4862a" opacity="0.34"/><circle cx="176.8" cy="176.7" r="2.21" fill="#d4862a" opacity="0.23"/><circle cx="210.4" cy="176.3" r="2.56" fill="#d4862a" opacity="0.15"/><circle cx="246.8" cy="176.8" r="2.69" fill="#d4862a" opacity="0.16"/><circle cx="280.0" cy="175.8" r="2.30" fill="#d4862a" opacity="0.19"/><circle cx="315.1" cy="175.1" r="3.74" fill="#d4862a" opacity="0.35"/><circle cx="351.5" cy="172.5" r="2.34" fill="#d4862a" opacity="0.33"/><circle cx="391.7" cy="171.7" r="3.38" fill="#d4862a" opacity="0.24"/><circle cx="427.1" cy="175.1" r="3.88" fill="#d4862a" opacity="0.21"/><circle cx="461.7" cy="176.5" r="3.95" fill="#d4862a" opacity="0.35"/><circle cx="500.3" cy="173.9" r="2.20" fill="#d4862a" opacity="0.35"/><circle cx="531.5" cy="173.6" r="2.00" fill="#d4862a" opacity="0.31"/><circle cx="572.8" cy="175.7" r="3.17" fill="#d4862a" opacity="0.21"/><circle cx="607.9" cy="173.4" r="2.12" fill="#d4862a" opacity="0.29"/><circle cx="642.0" cy="176.6" r="1.92" fill="#d4862a" opacity="0.28"/><circle cx="678.8" cy="174.6" r="1.94" fill="#d4862a" opacity="0.28"/><circle cx="711.6" cy="175.1" r="3.62" fill="#d4862a" opacity="0.32"/><circle cx="748.5" cy="172.9" r="2.92" fill="#d4862a" opacity="0.23"/><circle cx="784.9" cy="171.2" r="3.70" fill="#d4862a" opacity="0.28"/><circle cx="824.8" cy="173.8" r="1.68" fill="#d4862a" opacity="0.18"/><circle cx="857.5" cy="176.9" r="3.02" fill="#d4862a" opacity="0.23"/><circle cx="895.8" cy="173.1" r="2.64" fill="#d4862a" opacity="0.16"/><circle cx="930.4" cy="175.9" r="2.49" fill="#d4862a" opacity="0.31"/><circle cx="965.0" cy="173.4" r="3.51" fill="#d4862a" opacity="0.27"/><circle cx="1002.5" cy="174.0" r="2.87" fill="#d4862a" opacity="0.32"/><circle cx="1038.3" cy="173.7" r="2.47" fill="#d4862a" opacity="0.35"/><circle cx="1076.6" cy="175.9" r="2.75" fill="#d4862a" opacity="0.31"/><circle cx="1110.2" cy="176.7" r="2.04" fill="#d4862a" opacity="0.24"/><circle cx="1143.6" cy="173.3" r="2.65" fill="#d4862a" opacity="0.34"/><circle cx="1181.0" cy="172.0" r="2.80" fill="#d4862a" opacity="0.36"/><circle cx="32.7" cy="210.5" r="2.30" fill="#d4862a" opacity="0.29"/><circle cx="68.9" cy="211.0" r="3.38" fill="#d4862a" opacity="0.31"/><circle cx="100.2" cy="209.0" r="1.98" fill="#d4862a" opacity="0.27"/><circle cx="137.5" cy="207.8" r="2.78" fill="#d4862a" opacity="0.23"/><circle cx="175.4" cy="209.3" r="2.93" fill="#d4862a" opacity="0.29"/><circle cx="212.0" cy="211.5" r="2.10" fill="#d4862a" opacity="0.35"/><circle cx="246.9" cy="210.4" r="2.40" fill="#d4862a" opacity="0.27"/><circle cx="280.4" cy="212.1" r="3.78" fill="#d4862a" opacity="0.27"/><circle cx="320.2" cy="210.6" r="2.53" fill="#d4862a" opacity="0.18"/><circle cx="353.0" cy="211.0" r="3.16" fill="#d4862a" opacity="0.21"/><circle cx="388.8" cy="212.9" r="3.60" fill="#d4862a" opacity="0.16"/><circle cx="423.4" cy="209.1" r="2.67" fill="#d4862a" opacity="0.28"/><circle cx="459.7" cy="209.4" r="1.92" fill="#d4862a" opacity="0.20"/><circle cx="498.8" cy="208.2" r="3.96" fill="#d4862a" opacity="0.25"/><circle cx="533.5" cy="208.7" r="3.95" fill="#d4862a" opacity="0.34"/><circle cx="572.2" cy="211.4" r="1.94" fill="#d4862a" opacity="0.32"/><circle cx="605.0" cy="208.4" r="2.46" fill="#d4862a" opacity="0.17"/><circle cx="640.9" cy="211.4" r="3.30" fill="#d4862a" opacity="0.35"/><circle cx="678.3" cy="212.8" r="3.06" fill="#d4862a" opacity="0.27"/><circle cx="712.7" cy="210.0" r="2.77" fill="#d4862a" opacity="0.35"/><circle cx="751.9" cy="209.5" r="2.39" fill="#d4862a" opacity="0.28"/><circle cx="785.3" cy="210.3" r="3.19" fill="#d4862a" opacity="0.21"/><circle cx="823.3" cy="208.0" r="1.70" fill="#d4862a" opacity="0.23"/><circle cx="857.4" cy="212.6" r="3.39" fill="#d4862a" opacity="0.21"/><circle cx="891.4" cy="210.5" r="3.23" fill="#d4862a" opacity="0.17"/><circle cx="931.7" cy="210.1" r="3.82" fill="#d4862a" opacity="0.28"/><circle cx="964.3" cy="207.8" r="2.49" fill="#d4862a" opacity="0.19"/><circle cx="1004.4" cy="211.4" r="2.20" fill="#d4862a" opacity="0.34"/><circle cx="1035.1" cy="209.2" r="2.56" fill="#d4862a" opacity="0.28"/><circle cx="1076.1" cy="208.7" r="3.11" fill="#d4862a" opacity="0.21"/><circle cx="1109.6" cy="210.3" r="3.99" fill="#d4862a" opacity="0.21"/><circle cx="1143.1" cy="209.2" r="3.79" fill="#d4862a" opacity="0.18"/><circle cx="1184.8" cy="207.4" r="2.14" fill="#d4862a" opacity="0.24"/><circle cx="28.5" cy="248.6" r="2.75" fill="#d4862a" opacity="0.20"/><circle cx="64.9" cy="248.0" r="2.26" fill="#d4862a" opacity="0.21"/><circle cx="100.6" cy="248.7" r="2.24" fill="#d4862a" opacity="0.28"/><circle cx="135.9" cy="244.5" r="3.34" fill="#d4862a" opacity="0.35"/><circle cx="176.9" cy="245.7" r="2.70" fill="#d4862a" opacity="0.19"/><circle cx="209.6" cy="246.3" r="1.84" fill="#d4862a" opacity="0.23"/><circle cx="243.2" cy="248.7" r="3.54" fill="#d4862a" opacity="0.18"/><circle cx="279.1" cy="245.2" r="2.41" fill="#d4862a" opacity="0.24"/><circle cx="318.2" cy="246.2" r="2.08" fill="#d4862a" opacity="0.25"/><circle cx="354.3" cy="247.7" r="2.77" fill="#d4862a" opacity="0.34"/><circle cx="391.2" cy="247.3" r="2.92" fill="#d4862a" opacity="0.26"/><circle cx="424.5" cy="244.1" r="1.85" fill="#d4862a" opacity="0.31"/><circle cx="464.8" cy="243.6" r="3.48" fill="#d4862a" opacity="0.22"/><circle cx="500.6" cy="247.5" r="1.97" fill="#d4862a" opacity="0.15"/><circle cx="532.6" cy="246.1" r="2.64" fill="#d4862a" opacity="0.18"/><circle cx="572.0" cy="243.5" r="2.43" fill="#d4862a" opacity="0.19"/><circle cx="603.8" cy="246.5" r="2.86" fill="#d4862a" opacity="0.28"/><circle cx="639.8" cy="246.7" r="1.87" fill="#d4862a" opacity="0.33"/><circle cx="676.4" cy="244.8" r="3.45" fill="#d4862a" opacity="0.30"/><circle cx="712.6" cy="245.3" r="2.79" fill="#d4862a" opacity="0.21"/><circle cx="750.9" cy="243.2" r="3.93" fill="#d4862a" opacity="0.17"/><circle cx="787.1" cy="247.6" r="2.72" fill="#d4862a" opacity="0.34"/><circle cx="824.9" cy="243.9" r="3.09" fill="#d4862a" opacity="0.19"/><circle cx="855.6" cy="248.6" r="1.89" fill="#d4862a" opacity="0.30"/><circle cx="896.6" cy="245.3" r="2.27" fill="#d4862a" opacity="0.32"/><circle cx="929.4" cy="246.4" r="2.97" fill="#d4862a" opacity="0.26"/><circle cx="967.5" cy="247.6" r="3.11" fill="#d4862a" opacity="0.24"/><circle cx="1002.5" cy="248.8" r="2.19" fill="#d4862a" opacity="0.21"/><circle cx="1039.5" cy="243.0" r="2.05" fill="#d4862a" opacity="0.18"/><circle cx="1073.4" cy="247.1" r="3.59" fill="#d4862a" opacity="0.24"/><circle cx="1110.2" cy="246.9" r="2.90" fill="#d4862a" opacity="0.30"/><circle cx="1147.8" cy="248.2" r="2.47" fill="#d4862a" opacity="0.30"/><circle cx="1183.4" cy="243.6" r="2.03" fill="#d4862a" opacity="0.19"/><circle cx="30.0" cy="279.4" r="2.01" fill="#d4862a" opacity="0.27"/><circle cx="63.9" cy="283.8" r="1.88" fill="#d4862a" opacity="0.17"/><circle cx="99.0" cy="283.4" r="2.46" fill="#d4862a" opacity="0.22"/><circle cx="140.1" cy="282.5" r="2.31" fill="#d4862a" opacity="0.28"/><circle cx="173.0" cy="281.7" r="3.28" fill="#d4862a" opacity="0.33"/><circle cx="212.0" cy="282.9" r="3.85" fill="#d4862a" opacity="0.23"/><circle cx="246.2" cy="281.8" r="2.27" fill="#d4862a" opacity="0.24"/><circle cx="282.2" cy="279.9" r="2.81" fill="#d4862a" opacity="0.28"/><circle cx="317.8" cy="279.2" r="1.84" fill="#d4862a" opacity="0.15"/><circle cx="356.2" cy="281.4" r="1.61" fill="#d4862a" opacity="0.30"/><circle cx="390.4" cy="282.1" r="1.90" fill="#d4862a" opacity="0.17"/><circle cx="424.9" cy="282.7" r="3.61" fill="#d4862a" opacity="0.24"/><circle cx="464.4" cy="279.9" r="3.84" fill="#d4862a" opacity="0.19"/><circle cx="498.3" cy="282.6" r="2.81" fill="#d4862a" opacity="0.20"/><circle cx="531.7" cy="281.4" r="2.34" fill="#d4862a" opacity="0.24"/><circle cx="572.5" cy="281.0" r="3.26" fill="#d4862a" opacity="0.24"/><circle cx="607.9" cy="281.7" r="3.00" fill="#d4862a" opacity="0.30"/><circle cx="641.6" cy="281.8" r="2.15" fill="#d4862a" opacity="0.28"/><circle cx="678.0" cy="282.8" r="2.60" fill="#d4862a" opacity="0.15"/><circle cx="713.7" cy="283.2" r="2.52" fill="#d4862a" opacity="0.16"/><circle cx="749.3" cy="283.4" r="2.42" fill="#d4862a" opacity="0.23"/><circle cx="783.8" cy="283.6" r="1.67" fill="#d4862a" opacity="0.34"/><circle cx="821.9" cy="280.7" r="2.22" fill="#d4862a" opacity="0.18"/><circle cx="860.6" cy="283.2" r="2.45" fill="#d4862a" opacity="0.32"/><circle cx="892.5" cy="280.9" r="2.76" fill="#d4862a" opacity="0.24"/><circle cx="928.9" cy="281.5" r="1.80" fill="#d4862a" opacity="0.21"/><circle cx="968.2" cy="283.1" r="3.96" fill="#d4862a" opacity="0.17"/><circle cx="999.4" cy="284.4" r="3.21" fill="#d4862a" opacity="0.28"/><circle cx="1037.0" cy="280.9" r="2.04" fill="#d4862a" opacity="0.27"/><circle cx="1075.7" cy="280.4" r="1.94" fill="#d4862a" opacity="0.22"/><circle cx="1111.3" cy="281.6" r="3.25" fill="#d4862a" opacity="0.36"/><circle cx="1143.7" cy="281.8" r="1.81" fill="#d4862a" opacity="0.16"/><circle cx="1184.4" cy="284.1" r="2.75" fill="#d4862a" opacity="0.32"/><circle cx="28.0" cy="318.4" r="2.99" fill="#d4862a" opacity="0.19"/><circle cx="66.5" cy="317.3" r="3.35" fill="#d4862a" opacity="0.36"/><circle cx="103.3" cy="315.5" r="3.26" fill="#d4862a" opacity="0.28"/><circle cx="139.6" cy="316.8" r="1.73" fill="#d4862a" opacity="0.32"/><circle cx="175.2" cy="315.2" r="3.94" fill="#d4862a" opacity="0.28"/><circle cx="208.0" cy="316.5" r="1.91" fill="#d4862a" opacity="0.18"/><circle cx="246.8" cy="316.0" r="2.93" fill="#d4862a" opacity="0.23"/><circle cx="284.4" cy="317.7" r="1.91" fill="#d4862a" opacity="0.36"/><circle cx="315.6" cy="316.1" r="2.92" fill="#d4862a" opacity="0.26"/><circle cx="353.3" cy="316.0" r="3.57" fill="#d4862a" opacity="0.30"/><circle cx="389.0" cy="318.3" r="1.72" fill="#d4862a" opacity="0.16"/><circle cx="423.2" cy="320.5" r="3.52" fill="#d4862a" opacity="0.31"/><circle cx="464.9" cy="316.0" r="3.38" fill="#d4862a" opacity="0.34"/><circle cx="501.0" cy="317.9" r="1.94" fill="#d4862a" opacity="0.24"/><circle cx="535.3" cy="315.3" r="2.33" fill="#d4862a" opacity="0.33"/><circle cx="571.4" cy="318.3" r="3.12" fill="#d4862a" opacity="0.32"/><circle cx="604.1" cy="319.4" r="3.08" fill="#d4862a" opacity="0.16"/><circle cx="644.4" cy="319.7" r="2.48" fill="#d4862a" opacity="0.28"/><circle cx="678.0" cy="319.3" r="2.38" fill="#d4862a" opacity="0.21"/><circle cx="712.9" cy="320.7" r="1.76" fill="#d4862a" opacity="0.27"/><circle cx="747.4" cy="320.7" r="3.73" fill="#d4862a" opacity="0.18"/><circle cx="786.7" cy="318.1" r="3.73" fill="#d4862a" opacity="0.35"/><circle cx="823.7" cy="319.1" r="2.34" fill="#d4862a" opacity="0.24"/><circle cx="857.4" cy="317.4" r="2.18" fill="#d4862a" opacity="0.33"/><circle cx="895.5" cy="318.9" r="3.15" fill="#d4862a" opacity="0.35"/><circle cx="928.0" cy="318.1" r="2.81" fill="#d4862a" opacity="0.34"/><circle cx="968.2" cy="320.2" r="1.89" fill="#d4862a" opacity="0.35"/><circle cx="1001.7" cy="319.9" r="1.63" fill="#d4862a" opacity="0.26"/><circle cx="1037.6" cy="319.9" r="3.99" fill="#d4862a" opacity="0.28"/><circle cx="1073.5" cy="316.5" r="3.11" fill="#d4862a" opacity="0.16"/><circle cx="1112.3" cy="316.5" r="1.76" fill="#d4862a" opacity="0.17"/><circle cx="1145.7" cy="320.1" r="3.34" fill="#d4862a" opacity="0.18"/><circle cx="1184.4" cy="319.8" r="2.78" fill="#d4862a" opacity="0.23"/><circle cx="31.7" cy="355.2" r="2.11" fill="#d4862a" opacity="0.28"/><circle cx="64.2" cy="354.0" r="3.45" fill="#d4862a" opacity="0.33"/><circle cx="100.9" cy="351.2" r="1.69" fill="#d4862a" opacity="0.15"/><circle cx="140.8" cy="352.2" r="3.92" fill="#d4862a" opacity="0.27"/><circle cx="171.6" cy="355.5" r="1.85" fill="#d4862a" opacity="0.19"/><circle cx="212.6" cy="352.9" r="2.42" fill="#d4862a" opacity="0.33"/><circle cx="243.6" cy="353.5" r="3.51" fill="#d4862a" opacity="0.27"/><circle cx="281.1" cy="353.4" r="3.04" fill="#d4862a" opacity="0.30"/><circle cx="315.2" cy="355.7" r="2.04" fill="#d4862a" opacity="0.18"/><circle cx="353.1" cy="354.8" r="1.60" fill="#d4862a" opacity="0.25"/><circle cx="392.9" cy="354.9" r="1.87" fill="#d4862a" opacity="0.29"/><circle cx="425.8" cy="355.4" r="1.74" fill="#d4862a" opacity="0.24"/><circle cx="462.2" cy="354.9" r="2.41" fill="#d4862a" opacity="0.28"/><circle cx="499.5" cy="352.9" r="2.14" fill="#d4862a" opacity="0.28"/><circle cx="536.8" cy="356.7" r="3.09" fill="#d4862a" opacity="0.29"/><circle cx="572.5" cy="354.9" r="3.85" fill="#d4862a" opacity="0.36"/><circle cx="604.7" cy="355.5" r="3.62" fill="#d4862a" opacity="0.32"/><circle cx="643.2" cy="356.3" r="1.65" fill="#d4862a" opacity="0.28"/><circle cx="679.1" cy="355.5" r="2.87" fill="#d4862a" opacity="0.26"/><circle cx="712.9" cy="356.8" r="3.84" fill="#d4862a" opacity="0.33"/><circle cx="749.1" cy="353.1" r="2.84" fill="#d4862a" opacity="0.23"/><circle cx="786.7" cy="352.8" r="3.53" fill="#d4862a" opacity="0.24"/><circle cx="824.0" cy="355.8" r="2.52" fill="#d4862a" opacity="0.24"/><circle cx="859.9" cy="355.1" r="2.54" fill="#d4862a" opacity="0.27"/><circle cx="892.9" cy="352.8" r="3.45" fill="#d4862a" opacity="0.21"/><circle cx="932.4" cy="351.9" r="3.41" fill="#d4862a" opacity="0.22"/><circle cx="964.0" cy="355.5" r="3.12" fill="#d4862a" opacity="0.24"/><circle cx="1001.1" cy="356.1" r="3.75" fill="#d4862a" opacity="0.29"/><circle cx="1036.0" cy="356.8" r="2.82" fill="#d4862a" opacity="0.21"/><circle cx="1072.6" cy="353.5" r="3.98" fill="#d4862a" opacity="0.32"/><circle cx="1108.2" cy="354.2" r="3.06" fill="#d4862a" opacity="0.31"/><circle cx="1143.8" cy="352.9" r="2.53" fill="#d4862a" opacity="0.21"/><circle cx="1182.3" cy="356.5" r="2.49" fill="#d4862a" opacity="0.33"/><circle cx="29.8" cy="388.1" r="3.56" fill="#d4862a" opacity="0.24"/><circle cx="64.5" cy="387.9" r="2.78" fill="#d4862a" opacity="0.32"/><circle cx="103.4" cy="390.9" r="2.02" fill="#d4862a" opacity="0.23"/><circle cx="135.5" cy="390.4" r="1.72" fill="#d4862a" opacity="0.34"/><circle cx="176.4" cy="387.5" r="2.86" fill="#d4862a" opacity="0.24"/><circle cx="211.2" cy="392.4" r="2.40" fill="#d4862a" opacity="0.16"/><circle cx="244.0" cy="389.8" r="3.56" fill="#d4862a" opacity="0.35"/><circle cx="284.6" cy="392.7" r="2.83" fill="#d4862a" opacity="0.24"/><circle cx="317.6" cy="391.8" r="1.78" fill="#d4862a" opacity="0.15"/><circle cx="355.2" cy="389.6" r="3.79" fill="#d4862a" opacity="0.32"/><circle cx="388.7" cy="390.8" r="1.78" fill="#d4862a" opacity="0.20"/><circle cx="425.7" cy="388.1" r="2.23" fill="#d4862a" opacity="0.18"/><circle cx="460.1" cy="388.8" r="3.57" fill="#d4862a" opacity="0.20"/><circle cx="500.1" cy="388.9" r="3.36" fill="#d4862a" opacity="0.16"/><circle cx="532.3" cy="387.8" r="3.60" fill="#d4862a" opacity="0.18"/><circle cx="567.8" cy="389.0" r="2.98" fill="#d4862a" opacity="0.16"/><circle cx="606.5" cy="389.5" r="1.92" fill="#d4862a" opacity="0.26"/><circle cx="641.0" cy="387.6" r="3.28" fill="#d4862a" opacity="0.20"/><circle cx="678.9" cy="392.5" r="3.82" fill="#d4862a" opacity="0.17"/><circle cx="712.1" cy="391.9" r="2.00" fill="#d4862a" opacity="0.23"/><circle cx="747.9" cy="390.9" r="3.67" fill="#d4862a" opacity="0.28"/><circle cx="787.7" cy="392.4" r="3.45" fill="#d4862a" opacity="0.23"/><circle cx="824.9" cy="388.3" r="3.33" fill="#d4862a" opacity="0.24"/><circle cx="860.2" cy="390.9" r="3.67" fill="#d4862a" opacity="0.27"/><circle cx="893.1" cy="389.2" r="2.17" fill="#d4862a" opacity="0.22"/><circle cx="931.3" cy="389.4" r="1.75" fill="#d4862a" opacity="0.20"/><circle cx="968.1" cy="390.1" r="2.10" fill="#d4862a" opacity="0.27"/><circle cx="1001.2" cy="392.8" r="2.19" fill="#d4862a" opacity="0.27"/><circle cx="1036.9" cy="391.4" r="3.45" fill="#d4862a" opacity="0.23"/><circle cx="1074.8" cy="391.5" r="3.63" fill="#d4862a" opacity="0.32"/><circle cx="1112.9" cy="390.4" r="1.84" fill="#d4862a" opacity="0.30"/><circle cx="1145.6" cy="391.9" r="2.82" fill="#d4862a" opacity="0.21"/><circle cx="1180.2" cy="392.1" r="3.89" fill="#d4862a" opacity="0.36"/><circle cx="31.4" cy="427.3" r="3.86" fill="#d4862a" opacity="0.34"/><circle cx="64.8" cy="423.9" r="2.71" fill="#d4862a" opacity="0.22"/><circle cx="99.2" cy="425.0" r="2.23" fill="#d4862a" opacity="0.31"/><circle cx="137.2" cy="427.2" r="3.15" fill="#d4862a" opacity="0.21"/><circle cx="176.3" cy="427.1" r="2.65" fill="#d4862a" opacity="0.25"/><circle cx="207.9" cy="425.7" r="3.87" fill="#d4862a" opacity="0.28"/><circle cx="247.2" cy="423.4" r="3.77" fill="#d4862a" opacity="0.31"/><circle cx="284.6" cy="425.9" r="2.64" fill="#d4862a" opacity="0.25"/><circle cx="317.3" cy="424.9" r="2.67" fill="#d4862a" opacity="0.25"/><circle cx="354.5" cy="426.9" r="2.40" fill="#d4862a" opacity="0.29"/><circle cx="391.8" cy="426.7" r="2.47" fill="#d4862a" opacity="0.16"/><circle cx="425.8" cy="423.4" r="2.21" fill="#d4862a" opacity="0.36"/><circle cx="459.0" cy="425.4" r="1.93" fill="#d4862a" opacity="0.15"/><circle cx="498.1" cy="423.8" r="3.13" fill="#d4862a" opacity="0.24"/><circle cx="533.2" cy="425.0" r="2.86" fill="#d4862a" opacity="0.29"/><circle cx="570.7" cy="423.5" r="3.25" fill="#d4862a" opacity="0.15"/><circle cx="606.6" cy="428.1" r="2.94" fill="#d4862a" opacity="0.18"/><circle cx="644.4" cy="427.6" r="3.75" fill="#d4862a" opacity="0.32"/><circle cx="680.9" cy="423.0" r="2.38" fill="#d4862a" opacity="0.25"/><circle cx="715.1" cy="423.5" r="2.28" fill="#d4862a" opacity="0.28"/><circle cx="748.3" cy="427.6" r="2.83" fill="#d4862a" opacity="0.32"/><circle cx="784.0" cy="425.8" r="2.72" fill="#d4862a" opacity="0.22"/><circle cx="819.7" cy="428.9" r="3.02" fill="#d4862a" opacity="0.21"/><circle cx="855.4" cy="426.7" r="2.91" fill="#d4862a" opacity="0.26"/><circle cx="895.9" cy="423.6" r="3.19" fill="#d4862a" opacity="0.30"/><circle cx="931.7" cy="426.9" r="1.85" fill="#d4862a" opacity="0.35"/><circle cx="967.7" cy="424.3" r="2.48" fill="#d4862a" opacity="0.27"/><circle cx="1000.6" cy="424.4" r="3.51" fill="#d4862a" opacity="0.26"/><circle cx="1038.4" cy="425.7" r="3.72" fill="#d4862a" opacity="0.18"/><circle cx="1075.2" cy="425.0" r="2.93" fill="#d4862a" opacity="0.32"/><circle cx="1112.7" cy="428.2" r="2.17" fill="#d4862a" opacity="0.23"/><circle cx="1146.8" cy="427.7" r="2.42" fill="#d4862a" opacity="0.15"/><circle cx="1182.4" cy="423.5" r="3.64" fill="#d4862a" opacity="0.29"/><circle cx="29.3" cy="459.2" r="3.91" fill="#d4862a" opacity="0.15"/><circle cx="66.6" cy="463.1" r="2.66" fill="#d4862a" opacity="0.23"/><circle cx="102.6" cy="463.1" r="2.34" fill="#d4862a" opacity="0.19"/><circle cx="139.7" cy="463.9" r="3.49" fill="#d4862a" opacity="0.22"/><circle cx="175.3" cy="459.9" r="2.30" fill="#d4862a" opacity="0.34"/><circle cx="208.4" cy="463.8" r="3.20" fill="#d4862a" opacity="0.31"/><circle cx="249.0" cy="460.0" r="1.83" fill="#d4862a" opacity="0.25"/><circle cx="284.7" cy="461.3" r="3.57" fill="#d4862a" opacity="0.21"/><circle cx="318.9" cy="462.2" r="3.53" fill="#d4862a" opacity="0.36"/><circle cx="355.2" cy="460.9" r="3.82" fill="#d4862a" opacity="0.31"/><circle cx="389.4" cy="463.7" r="3.54" fill="#d4862a" opacity="0.34"/><circle cx="424.1" cy="460.8" r="3.25" fill="#d4862a" opacity="0.29"/><circle cx="460.3" cy="461.9" r="2.53" fill="#d4862a" opacity="0.25"/><circle cx="498.7" cy="463.7" r="2.89" fill="#d4862a" opacity="0.23"/><circle cx="532.1" cy="462.5" r="2.02" fill="#d4862a" opacity="0.29"/><circle cx="572.3" cy="461.4" r="3.90" fill="#d4862a" opacity="0.16"/><circle cx="604.6" cy="462.5" r="1.84" fill="#d4862a" opacity="0.22"/><circle cx="640.8" cy="463.1" r="3.24" fill="#d4862a" opacity="0.20"/><circle cx="680.1" cy="460.5" r="3.02" fill="#d4862a" opacity="0.17"/><circle cx="712.3" cy="459.9" r="3.13" fill="#d4862a" opacity="0.35"/><circle cx="747.9" cy="462.3" r="3.35" fill="#d4862a" opacity="0.30"/><circle cx="786.8" cy="459.1" r="2.58" fill="#d4862a" opacity="0.30"/><circle cx="821.8" cy="463.6" r="2.64" fill="#d4862a" opacity="0.17"/><circle cx="858.3" cy="462.5" r="3.19" fill="#d4862a" opacity="0.22"/><circle cx="891.1" cy="460.8" r="2.08" fill="#d4862a" opacity="0.27"/><circle cx="930.6" cy="459.7" r="3.74" fill="#d4862a" opacity="0.29"/><circle cx="967.0" cy="461.1" r="3.62" fill="#d4862a" opacity="0.33"/><circle cx="1002.5" cy="461.5" r="2.47" fill="#d4862a" opacity="0.20"/><circle cx="1039.8" cy="460.1" r="2.35" fill="#d4862a" opacity="0.22"/><circle cx="1074.7" cy="462.8" r="3.54" fill="#d4862a" opacity="0.26"/><circle cx="1112.7" cy="464.5" r="3.34" fill="#d4862a" opacity="0.31"/><circle cx="1146.2" cy="460.2" r="2.27" fill="#d4862a" opacity="0.27"/><circle cx="1180.8" cy="460.8" r="2.04" fill="#d4862a" opacity="0.24"/><circle cx="31.6" cy="499.9" r="3.25" fill="#d4862a" opacity="0.31"/><circle cx="67.7" cy="499.3" r="3.64" fill="#d4862a" opacity="0.32"/><circle cx="101.0" cy="495.6" r="3.63" fill="#d4862a" opacity="0.16"/><circle cx="136.4" cy="499.7" r="2.28" fill="#d4862a" opacity="0.18"/><circle cx="173.2" cy="499.6" r="2.82" fill="#d4862a" opacity="0.31"/><circle cx="209.6" cy="497.3" r="2.89" fill="#d4862a" opacity="0.17"/><circle cx="248.1" cy="496.6" r="2.38" fill="#d4862a" opacity="0.15"/><circle cx="280.8" cy="498.9" r="2.86" fill="#d4862a" opacity="0.19"/><circle cx="315.7" cy="500.3" r="1.62" fill="#d4862a" opacity="0.26"/><circle cx="353.6" cy="499.0" r="3.47" fill="#d4862a" opacity="0.35"/><circle cx="387.9" cy="500.0" r="1.97" fill="#d4862a" opacity="0.15"/><circle cx="424.7" cy="500.3" r="2.28" fill="#d4862a" opacity="0.17"/><circle cx="463.6" cy="499.8" r="2.67" fill="#d4862a" opacity="0.23"/><circle cx="498.5" cy="498.1" r="3.41" fill="#d4862a" opacity="0.18"/><circle cx="532.7" cy="499.5" r="3.60" fill="#d4862a" opacity="0.31"/><circle cx="568.1" cy="498.7" r="3.83" fill="#d4862a" opacity="0.29"/><circle cx="606.2" cy="498.5" r="3.53" fill="#d4862a" opacity="0.19"/><circle cx="640.8" cy="500.5" r="3.65" fill="#d4862a" opacity="0.25"/><circle cx="679.9" cy="495.2" r="3.02" fill="#d4862a" opacity="0.36"/><circle cx="711.4" cy="495.0" r="2.68" fill="#d4862a" opacity="0.20"/><circle cx="750.8" cy="497.1" r="1.97" fill="#d4862a" opacity="0.20"/><circle cx="784.7" cy="497.4" r="2.05" fill="#d4862a" opacity="0.24"/><circle cx="819.2" cy="497.9" r="3.23" fill="#d4862a" opacity="0.26"/><circle cx="857.4" cy="500.4" r="3.07" fill="#d4862a" opacity="0.28"/><circle cx="896.9" cy="496.3" r="2.12" fill="#d4862a" opacity="0.33"/><circle cx="927.2" cy="498.4" r="3.76" fill="#d4862a" opacity="0.21"/><circle cx="967.3" cy="495.3" r="3.57" fill="#d4862a" opacity="0.23"/><circle cx="1003.9" cy="498.1" r="3.25" fill="#d4862a" opacity="0.32"/><circle cx="1040.7" cy="497.2" r="3.82" fill="#d4862a" opacity="0.19"/><circle cx="1074.8" cy="499.2" r="1.71" fill="#d4862a" opacity="0.26"/><circle cx="1112.5" cy="499.1" r="2.76" fill="#d4862a" opacity="0.30"/><circle cx="1143.8" cy="495.6" r="3.93" fill="#d4862a" opacity="0.26"/><circle cx="1180.8" cy="499.5" r="1.68" fill="#d4862a" opacity="0.29"/><circle cx="28.4" cy="533.7" r="3.77" fill="#d4862a" opacity="0.22"/><circle cx="67.9" cy="531.1" r="2.47" fill="#d4862a" opacity="0.27"/><circle cx="101.7" cy="536.7" r="3.49" fill="#d4862a" opacity="0.36"/><circle cx="135.7" cy="535.7" r="3.01" fill="#d4862a" opacity="0.31"/><circle cx="177.0" cy="533.8" r="3.27" fill="#d4862a" opacity="0.34"/><circle cx="212.5" cy="534.4" r="3.92" fill="#d4862a" opacity="0.20"/><circle cx="243.8" cy="536.6" r="3.19" fill="#d4862a" opacity="0.22"/><circle cx="279.3" cy="536.1" r="1.67" fill="#d4862a" opacity="0.21"/><circle cx="318.7" cy="533.5" r="2.55" fill="#d4862a" opacity="0.22"/><circle cx="356.0" cy="534.2" r="2.37" fill="#d4862a" opacity="0.15"/><circle cx="388.2" cy="533.8" r="3.93" fill="#d4862a" opacity="0.18"/><circle cx="423.3" cy="534.9" r="2.80" fill="#d4862a" opacity="0.25"/><circle cx="459.5" cy="533.4" r="3.02" fill="#d4862a" opacity="0.36"/><circle cx="496.9" cy="536.2" r="2.84" fill="#d4862a" opacity="0.15"/><circle cx="531.0" cy="534.5" r="2.64" fill="#d4862a" opacity="0.25"/><circle cx="572.9" cy="532.6" r="3.06" fill="#d4862a" opacity="0.35"/><circle cx="605.9" cy="534.6" r="2.00" fill="#d4862a" opacity="0.19"/><circle cx="642.7" cy="531.3" r="3.33" fill="#d4862a" opacity="0.26"/><circle cx="675.6" cy="533.3" r="2.23" fill="#d4862a" opacity="0.23"/><circle cx="714.7" cy="532.5" r="2.19" fill="#d4862a" opacity="0.18"/><circle cx="748.6" cy="533.3" r="1.64" fill="#d4862a" opacity="0.26"/><circle cx="786.1" cy="533.0" r="1.93" fill="#d4862a" opacity="0.33"/><circle cx="822.5" cy="531.3" r="2.95" fill="#d4862a" opacity="0.18"/><circle cx="857.4" cy="531.3" r="2.68" fill="#d4862a" opacity="0.24"/><circle cx="894.4" cy="534.2" r="2.36" fill="#d4862a" opacity="0.23"/><circle cx="931.8" cy="533.6" r="2.89" fill="#d4862a" opacity="0.18"/><circle cx="964.2" cy="537.0" r="3.88" fill="#d4862a" opacity="0.19"/><circle cx="1004.2" cy="534.5" r="3.99" fill="#d4862a" opacity="0.24"/><circle cx="1036.5" cy="536.4" r="3.96" fill="#d4862a" opacity="0.25"/><circle cx="1073.0" cy="534.3" r="1.64" fill="#d4862a" opacity="0.24"/><circle cx="1112.9" cy="535.6" r="3.38" fill="#d4862a" opacity="0.28"/><circle cx="1147.4" cy="535.1" r="2.70" fill="#d4862a" opacity="0.24"/><circle cx="1184.9" cy="532.7" r="1.80" fill="#d4862a" opacity="0.27"/><circle cx="29.1" cy="572.8" r="2.08" fill="#d4862a" opacity="0.35"/><circle cx="68.6" cy="570.9" r="3.82" fill="#d4862a" opacity="0.34"/><circle cx="103.0" cy="569.2" r="3.95" fill="#d4862a" opacity="0.31"/><circle cx="136.8" cy="570.0" r="3.78" fill="#d4862a" opacity="0.15"/><circle cx="175.2" cy="567.2" r="2.45" fill="#d4862a" opacity="0.18"/><circle cx="208.1" cy="572.3" r="2.29" fill="#d4862a" opacity="0.24"/><circle cx="244.9" cy="570.2" r="2.20" fill="#d4862a" opacity="0.16"/><circle cx="279.2" cy="568.9" r="2.20" fill="#d4862a" opacity="0.33"/><circle cx="319.2" cy="568.5" r="2.83" fill="#d4862a" opacity="0.31"/><circle cx="353.9" cy="572.0" r="2.77" fill="#d4862a" opacity="0.32"/><circle cx="388.0" cy="572.8" r="2.09" fill="#d4862a" opacity="0.33"/><circle cx="424.5" cy="567.5" r="2.07" fill="#d4862a" opacity="0.26"/><circle cx="460.7" cy="572.0" r="3.37" fill="#d4862a" opacity="0.24"/><circle cx="496.2" cy="571.3" r="1.92" fill="#d4862a" opacity="0.20"/><circle cx="534.7" cy="570.0" r="2.01" fill="#d4862a" opacity="0.28"/><circle cx="568.6" cy="567.8" r="2.40" fill="#d4862a" opacity="0.32"/><circle cx="607.9" cy="569.9" r="3.42" fill="#d4862a" opacity="0.30"/><circle cx="640.3" cy="572.3" r="2.24" fill="#d4862a" opacity="0.27"/><circle cx="677.2" cy="571.1" r="2.62" fill="#d4862a" opacity="0.18"/><circle cx="716.4" cy="569.3" r="2.12" fill="#d4862a" opacity="0.24"/><circle cx="751.1" cy="572.1" r="2.27" fill="#d4862a" opacity="0.34"/><circle cx="787.3" cy="568.1" r="3.36" fill="#d4862a" opacity="0.27"/><circle cx="821.3" cy="568.5" r="1.98" fill="#d4862a" opacity="0.22"/><circle cx="855.3" cy="572.9" r="1.76" fill="#d4862a" opacity="0.33"/><circle cx="896.1" cy="568.4" r="3.16" fill="#d4862a" opacity="0.16"/><circle cx="931.6" cy="567.5" r="1.86" fill="#d4862a" opacity="0.23"/><circle cx="965.3" cy="569.9" r="1.66" fill="#d4862a" opacity="0.31"/><circle cx="1003.3" cy="570.6" r="2.91" fill="#d4862a" opacity="0.27"/><circle cx="1036.3" cy="567.3" r="3.94" fill="#d4862a" opacity="0.22"/><circle cx="1076.3" cy="570.4" r="3.22" fill="#d4862a" opacity="0.34"/><circle cx="1112.7" cy="571.6" r="2.40" fill="#d4862a" opacity="0.27"/><circle cx="1144.9" cy="571.4" r="1.65" fill="#d4862a" opacity="0.25"/><circle cx="1183.1" cy="569.6" r="3.38" fill="#d4862a" opacity="0.29"/><circle cx="33.0" cy="604.1" r="3.12" fill="#d4862a" opacity="0.27"/><circle cx="63.9" cy="606.4" r="1.85" fill="#d4862a" opacity="0.19"/><circle cx="100.0" cy="608.4" r="3.34" fill="#d4862a" opacity="0.22"/><circle cx="138.7" cy="604.8" r="2.14" fill="#d4862a" opacity="0.24"/><circle cx="172.9" cy="605.2" r="3.84" fill="#d4862a" opacity="0.25"/><circle cx="209.1" cy="604.0" r="2.20" fill="#d4862a" opacity="0.31"/><circle cx="244.2" cy="608.0" r="1.94" fill="#d4862a" opacity="0.32"/><circle cx="281.5" cy="606.3" r="2.83" fill="#d4862a" opacity="0.33"/><circle cx="319.3" cy="607.9" r="3.68" fill="#d4862a" opacity="0.34"/><circle cx="353.0" cy="603.4" r="3.18" fill="#d4862a" opacity="0.19"/><circle cx="391.3" cy="603.8" r="2.88" fill="#d4862a" opacity="0.16"/><circle cx="425.8" cy="607.4" r="2.27" fill="#d4862a" opacity="0.26"/><circle cx="461.0" cy="608.6" r="3.20" fill="#d4862a" opacity="0.32"/><circle cx="499.8" cy="606.0" r="3.58" fill="#d4862a" opacity="0.19"/><circle cx="533.1" cy="604.8" r="3.51" fill="#d4862a" opacity="0.19"/><circle cx="567.9" cy="603.1" r="3.30" fill="#d4862a" opacity="0.26"/><circle cx="607.5" cy="604.5" r="3.82" fill="#d4862a" opacity="0.22"/><circle cx="643.4" cy="606.2" r="3.43" fill="#d4862a" opacity="0.26"/><circle cx="678.4" cy="607.2" r="3.51" fill="#d4862a" opacity="0.24"/><circle cx="716.4" cy="607.2" r="2.25" fill="#d4862a" opacity="0.34"/><circle cx="749.3" cy="604.3" r="2.05" fill="#d4862a" opacity="0.15"/><circle cx="785.9" cy="606.0" r="3.57" fill="#d4862a" opacity="0.16"/><circle cx="819.3" cy="606.4" r="2.60" fill="#d4862a" opacity="0.34"/><circle cx="857.6" cy="606.5" r="1.83" fill="#d4862a" opacity="0.28"/><circle cx="896.6" cy="604.3" r="2.99" fill="#d4862a" opacity="0.24"/><circle cx="929.3" cy="607.4" r="2.02" fill="#d4862a" opacity="0.29"/><circle cx="966.8" cy="604.9" r="2.71" fill="#d4862a" opacity="0.28"/><circle cx="1000.5" cy="606.0" r="3.05" fill="#d4862a" opacity="0.22"/><circle cx="1037.2" cy="606.4" r="3.59" fill="#d4862a" opacity="0.19"/><circle cx="1072.9" cy="604.2" r="2.38" fill="#d4862a" opacity="0.28"/><circle cx="1111.0" cy="605.0" r="2.05" fill="#d4862a" opacity="0.29"/><circle cx="1147.6" cy="604.0" r="2.20" fill="#d4862a" opacity="0.15"/><circle cx="1182.8" cy="607.0" r="1.72" fill="#d4862a" opacity="0.32"/><circle cx="29.5" cy="642.3" r="3.58" fill="#d4862a" opacity="0.26"/><circle cx="64.7" cy="641.8" r="2.17" fill="#d4862a" opacity="0.17"/><circle cx="99.3" cy="643.5" r="2.88" fill="#d4862a" opacity="0.30"/><circle cx="136.5" cy="640.8" r="2.63" fill="#d4862a" opacity="0.23"/><circle cx="176.8" cy="642.8" r="3.01" fill="#d4862a" opacity="0.29"/><circle cx="207.7" cy="642.0" r="1.74" fill="#d4862a" opacity="0.27"/><circle cx="247.3" cy="640.4" r="2.62" fill="#d4862a" opacity="0.15"/><circle cx="284.1" cy="641.9" r="2.40" fill="#d4862a" opacity="0.33"/><circle cx="319.3" cy="639.5" r="3.25" fill="#d4862a" opacity="0.16"/><circle cx="354.4" cy="641.8" r="3.60" fill="#d4862a" opacity="0.16"/><circle cx="389.5" cy="643.8" r="3.34" fill="#d4862a" opacity="0.32"/><circle cx="425.3" cy="644.4" r="1.62" fill="#d4862a" opacity="0.26"/><circle cx="459.1" cy="639.1" r="2.45" fill="#d4862a" opacity="0.32"/><circle cx="497.9" cy="641.5" r="3.79" fill="#d4862a" opacity="0.29"/><circle cx="531.7" cy="641.3" r="1.70" fill="#d4862a" opacity="0.29"/><circle cx="568.7" cy="644.7" r="3.13" fill="#d4862a" opacity="0.29"/><circle cx="608.5" cy="642.7" r="2.20" fill="#d4862a" opacity="0.30"/><circle cx="642.4" cy="644.9" r="2.60" fill="#d4862a" opacity="0.29"/><circle cx="676.7" cy="644.4" r="3.36" fill="#d4862a" opacity="0.21"/><circle cx="712.6" cy="642.7" r="1.95" fill="#d4862a" opacity="0.31"/><circle cx="749.0" cy="640.1" r="2.34" fill="#d4862a" opacity="0.16"/><circle cx="783.2" cy="642.6" r="2.68" fill="#d4862a" opacity="0.35"/><circle cx="823.2" cy="642.3" r="3.28" fill="#d4862a" opacity="0.26"/><circle cx="855.4" cy="639.7" r="1.97" fill="#d4862a" opacity="0.28"/><circle cx="895.7" cy="641.0" r="3.73" fill="#d4862a" opacity="0.18"/><circle cx="930.9" cy="640.0" r="3.81" fill="#d4862a" opacity="0.30"/><circle cx="968.4" cy="639.1" r="1.89" fill="#d4862a" opacity="0.30"/><circle cx="1004.1" cy="640.1" r="2.04" fill="#d4862a" opacity="0.28"/><circle cx="1037.0" cy="643.4" r="3.06" fill="#d4862a" opacity="0.23"/><circle cx="1071.3" cy="640.1" r="2.70" fill="#d4862a" opacity="0.25"/><circle cx="1108.5" cy="641.3" r="2.44" fill="#d4862a" opacity="0.34"/><circle cx="1146.9" cy="639.9" r="2.19" fill="#d4862a" opacity="0.32"/><circle cx="1180.0" cy="643.1" r="1.89" fill="#d4862a" opacity="0.21"/><circle cx="218.4" cy="255.5" r="220" fill="url(#glow)" opacity="0.9"/>
  <g opacity="0.85" transform="translate(1020, 495)">
        <circle r="68" fill="none" stroke="#d4862a" stroke-width="2" opacity="0.35"/>
        <path d="M -38 12 L 38 12 M -32 -8 L 32 -8 M -45 -28 L 45 -28" stroke="#bd6b20" stroke-width="3" stroke-linecap="round"/>
        <rect x="-50" y="-44" width="100" height="80" fill="none" stroke="#d4862a" stroke-width="2"/>
      </g>
  <g transform="translate(80, 90)">
    <rect x="0" y="0" rx="20" ry="20" width="112" height="38" fill="#d4862a" opacity="0.18" stroke="#d4862a" stroke-width="1.5"/>
    <text x="56" y="25" font-family="ui-sans-serif, Inter, sans-serif" font-weight="700" font-size="14" letter-spacing="2.5" fill="#d4862a" text-anchor="middle">NEWSROOM</text>
  </g>
  <text x="80" y="465" font-family="ui-sans-serif, -apple-system, Segoe UI, Inter, sans-serif" font-weight="800" font-size="44" fill="#faf8f5" opacity="0.98"><tspan x="80" dy="0">Delhi HC: Arbitration</tspan><tspan x="80" dy="56">Clause Holds Even in</tspan><tspan x="80" dy="56">Admitted Liabilities</tspan></text>
  <rect x="0" y="669" width="1200" height="6" fill="url(#gold)"/>
</svg>