<?xml version="1.0" encoding="UTF-8"?>
<svg xmlns="http://www.w3.org/2000/svg" viewBox="0 0 1200 675" width="1200" height="675" role="img" aria-label="PDR COURT Articles: All about Alternate Dispute Resolution">
  <defs>
    <linearGradient id="bg" x1="0%" y1="0%" x2="100%" y2="100%">
      <stop offset="0%" stop-color="#643516"/>
      <stop offset="100%" stop-color="#7d4315"/>
    </linearGradient>
    <linearGradient id="gold" x1="0%" y1="0%" x2="100%" y2="100%">
      <stop offset="0%" stop-color="#ecb478"/>
      <stop offset="100%" stop-color="#faebd6"/>
    </linearGradient>
    <radialGradient id="glow" cx="50%" cy="50%" r="50%">
      <stop offset="0%" stop-color="#ecb478" stop-opacity="0.45"/>
      <stop offset="100%" stop-color="#ecb478" stop-opacity="0"/>
    </radialGradient>
  </defs>
  <rect width="1200" height="675" fill="url(#bg)"/>
  <circle cx="28.1" cy="27.1" r="1.72" fill="#ecb478" opacity="0.29"/><circle cx="65.5" cy="31.4" r="3.43" fill="#ecb478" opacity="0.30"/><circle cx="103.2" cy="29.5" r="3.80" fill="#ecb478" opacity="0.20"/><circle cx="140.1" cy="30.6" r="3.00" fill="#ecb478" opacity="0.17"/><circle cx="173.9" cy="29.3" r="3.87" fill="#ecb478" opacity="0.18"/><circle cx="211.9" cy="30.8" r="1.83" fill="#ecb478" opacity="0.34"/><circle cx="247.9" cy="30.1" r="3.36" fill="#ecb478" opacity="0.18"/><circle cx="280.1" cy="30.2" r="3.17" fill="#ecb478" opacity="0.26"/><circle cx="315.1" cy="31.2" r="1.89" fill="#ecb478" opacity="0.21"/><circle cx="351.2" cy="27.3" r="1.70" fill="#ecb478" opacity="0.27"/><circle cx="390.5" cy="29.8" r="3.46" fill="#ecb478" opacity="0.36"/><circle cx="427.3" cy="31.3" r="3.45" fill="#ecb478" opacity="0.23"/><circle cx="464.2" cy="30.0" r="3.91" fill="#ecb478" opacity="0.21"/><circle cx="497.7" cy="28.8" r="2.30" fill="#ecb478" opacity="0.16"/><circle cx="533.9" cy="27.7" r="3.99" fill="#ecb478" opacity="0.31"/><circle cx="571.4" cy="31.8" r="3.79" fill="#ecb478" opacity="0.32"/><circle cx="607.7" cy="31.4" r="2.95" fill="#ecb478" opacity="0.17"/><circle cx="639.7" cy="31.9" r="2.79" fill="#ecb478" opacity="0.35"/><circle cx="677.8" cy="28.0" r="1.81" fill="#ecb478" opacity="0.17"/><circle cx="711.9" cy="29.7" r="3.05" fill="#ecb478" opacity="0.20"/><circle cx="750.0" cy="27.9" r="3.57" fill="#ecb478" opacity="0.26"/><circle cx="783.6" cy="30.6" r="3.64" fill="#ecb478" opacity="0.17"/><circle cx="824.9" cy="31.4" r="4.00" fill="#ecb478" opacity="0.25"/><circle cx="857.0" cy="30.2" r="2.26" fill="#ecb478" opacity="0.26"/><circle cx="895.1" cy="28.7" r="3.37" fill="#ecb478" opacity="0.34"/><circle cx="928.1" cy="28.6" r="2.19" fill="#ecb478" opacity="0.29"/><circle cx="966.0" cy="28.2" r="2.30" fill="#ecb478" opacity="0.20"/><circle cx="1001.2" cy="31.7" r="2.67" fill="#ecb478" opacity="0.29"/><circle cx="1040.1" cy="27.5" r="3.58" fill="#ecb478" opacity="0.27"/><circle cx="1071.2" cy="28.6" r="1.87" fill="#ecb478" opacity="0.27"/><circle cx="1112.4" cy="30.9" r="3.02" fill="#ecb478" opacity="0.35"/><circle cx="1145.0" cy="30.1" r="3.34" fill="#ecb478" opacity="0.20"/><circle cx="1184.9" cy="30.2" r="3.65" fill="#ecb478" opacity="0.27"/><circle cx="28.5" cy="65.3" r="1.75" fill="#ecb478" opacity="0.21"/><circle cx="63.7" cy="67.9" r="2.08" fill="#ecb478" opacity="0.32"/><circle cx="103.8" cy="68.6" r="3.37" fill="#ecb478" opacity="0.22"/><circle cx="136.4" cy="64.1" r="1.75" fill="#ecb478" opacity="0.35"/><circle cx="175.1" cy="68.1" r="2.83" fill="#ecb478" opacity="0.32"/><circle cx="211.7" cy="64.3" r="1.96" fill="#ecb478" opacity="0.20"/><circle cx="248.9" cy="63.9" r="2.43" fill="#ecb478" opacity="0.32"/><circle cx="280.6" cy="63.2" r="3.05" fill="#ecb478" opacity="0.34"/><circle cx="317.5" cy="68.4" r="2.72" fill="#ecb478" opacity="0.25"/><circle cx="353.4" cy="68.1" r="2.15" fill="#ecb478" opacity="0.21"/><circle cx="391.3" cy="65.9" r="2.53" fill="#ecb478" opacity="0.23"/><circle cx="423.1" cy="66.7" r="3.03" fill="#ecb478" opacity="0.31"/><circle cx="461.7" cy="68.1" r="3.87" fill="#ecb478" opacity="0.16"/><circle cx="496.4" cy="65.0" r="2.02" fill="#ecb478" opacity="0.33"/><circle cx="535.6" cy="67.4" r="3.25" fill="#ecb478" opacity="0.28"/><circle cx="567.7" cy="68.6" r="2.80" fill="#ecb478" opacity="0.26"/><circle cx="604.9" cy="65.3" r="1.97" fill="#ecb478" opacity="0.21"/><circle cx="643.5" cy="65.6" r="3.56" fill="#ecb478" opacity="0.31"/><circle cx="678.2" cy="63.6" r="3.37" fill="#ecb478" opacity="0.31"/><circle cx="711.5" cy="67.2" r="3.79" fill="#ecb478" opacity="0.25"/><circle cx="748.3" cy="64.6" r="2.96" fill="#ecb478" opacity="0.17"/><circle cx="785.2" cy="63.5" r="2.42" fill="#ecb478" opacity="0.31"/><circle cx="821.9" cy="66.5" r="3.09" fill="#ecb478" opacity="0.28"/><circle cx="860.1" cy="68.9" r="2.53" fill="#ecb478" opacity="0.16"/><circle cx="895.1" cy="65.3" r="2.95" fill="#ecb478" opacity="0.32"/><circle cx="931.6" cy="64.4" r="2.26" fill="#ecb478" opacity="0.18"/><circle cx="968.1" cy="66.9" r="3.39" fill="#ecb478" opacity="0.32"/><circle cx="999.1" cy="65.5" r="3.04" fill="#ecb478" opacity="0.18"/><circle cx="1036.6" cy="66.9" r="3.95" fill="#ecb478" opacity="0.24"/><circle cx="1075.7" cy="63.3" r="2.61" fill="#ecb478" opacity="0.34"/><circle cx="1110.8" cy="64.6" r="1.64" fill="#ecb478" opacity="0.16"/><circle cx="1145.5" cy="65.3" r="2.05" fill="#ecb478" opacity="0.32"/><circle cx="1181.7" cy="68.0" r="2.40" fill="#ecb478" opacity="0.23"/><circle cx="28.6" cy="99.2" r="2.50" fill="#ecb478" opacity="0.24"/><circle cx="66.4" cy="102.2" r="3.39" fill="#ecb478" opacity="0.34"/><circle cx="103.6" cy="100.4" r="2.07" fill="#ecb478" opacity="0.19"/><circle cx="140.4" cy="101.9" r="2.59" fill="#ecb478" opacity="0.24"/><circle cx="171.2" cy="101.4" r="2.21" fill="#ecb478" opacity="0.34"/><circle cx="208.0" cy="103.8" r="3.75" fill="#ecb478" opacity="0.21"/><circle cx="243.0" cy="101.8" r="3.20" fill="#ecb478" opacity="0.17"/><circle cx="279.7" cy="104.3" r="3.89" fill="#ecb478" opacity="0.18"/><circle cx="318.0" cy="100.3" r="2.84" fill="#ecb478" opacity="0.21"/><circle cx="356.2" cy="102.2" r="2.05" fill="#ecb478" opacity="0.22"/><circle cx="388.1" cy="102.9" r="1.89" fill="#ecb478" opacity="0.30"/><circle cx="427.3" cy="102.8" r="2.49" fill="#ecb478" opacity="0.16"/><circle cx="461.7" cy="99.2" r="3.66" fill="#ecb478" opacity="0.17"/><circle cx="496.5" cy="105.0" r="2.82" fill="#ecb478" opacity="0.31"/><circle cx="536.3" cy="103.8" r="2.79" fill="#ecb478" opacity="0.22"/><circle cx="570.8" cy="101.6" r="2.73" fill="#ecb478" opacity="0.22"/><circle cx="606.9" cy="104.4" r="2.81" fill="#ecb478" opacity="0.23"/><circle cx="640.8" cy="103.1" r="2.90" fill="#ecb478" opacity="0.16"/><circle cx="679.6" cy="101.6" r="2.69" fill="#ecb478" opacity="0.31"/><circle cx="713.5" cy="101.0" r="2.59" fill="#ecb478" opacity="0.30"/><circle cx="751.2" cy="99.2" r="2.77" fill="#ecb478" opacity="0.26"/><circle cx="787.0" cy="100.6" r="3.17" fill="#ecb478" opacity="0.16"/><circle cx="819.5" cy="102.1" r="3.47" fill="#ecb478" opacity="0.17"/><circle cx="860.1" cy="99.3" r="3.16" fill="#ecb478" opacity="0.17"/><circle cx="896.6" cy="103.0" r="3.43" fill="#ecb478" opacity="0.18"/><circle cx="930.6" cy="100.4" r="3.00" fill="#ecb478" opacity="0.32"/><circle cx="968.8" cy="103.6" r="3.68" fill="#ecb478" opacity="0.34"/><circle cx="999.1" cy="102.2" r="2.83" fill="#ecb478" opacity="0.31"/><circle cx="1040.3" cy="101.9" r="3.93" fill="#ecb478" opacity="0.24"/><circle cx="1075.8" cy="100.6" r="2.51" fill="#ecb478" opacity="0.20"/><circle cx="1109.7" cy="99.3" r="3.71" fill="#ecb478" opacity="0.22"/><circle cx="1147.0" cy="104.1" r="3.87" fill="#ecb478" opacity="0.33"/><circle cx="1179.0" cy="99.2" r="2.35" fill="#ecb478" opacity="0.24"/><circle cx="32.9" cy="140.5" r="3.22" fill="#ecb478" opacity="0.18"/><circle cx="64.2" cy="140.2" r="2.25" fill="#ecb478" opacity="0.26"/><circle cx="103.8" cy="136.8" r="1.60" fill="#ecb478" opacity="0.34"/><circle cx="135.5" cy="137.5" r="1.63" fill="#ecb478" opacity="0.25"/><circle cx="175.7" cy="140.8" r="2.06" fill="#ecb478" opacity="0.24"/><circle cx="207.9" cy="135.7" r="2.95" fill="#ecb478" opacity="0.21"/><circle cx="249.0" cy="135.9" r="2.51" fill="#ecb478" opacity="0.28"/><circle cx="284.3" cy="137.5" r="2.69" fill="#ecb478" opacity="0.27"/><circle cx="320.7" cy="137.2" r="3.72" fill="#ecb478" opacity="0.35"/><circle cx="351.7" cy="140.5" r="3.11" fill="#ecb478" opacity="0.17"/><circle cx="387.7" cy="136.1" r="3.67" fill="#ecb478" opacity="0.22"/><circle cx="426.8" cy="136.5" r="2.54" fill="#ecb478" opacity="0.32"/><circle cx="459.2" cy="137.3" r="3.22" fill="#ecb478" opacity="0.35"/><circle cx="495.5" cy="136.8" r="2.33" fill="#ecb478" opacity="0.21"/><circle cx="532.0" cy="136.5" r="3.22" fill="#ecb478" opacity="0.18"/><circle cx="567.2" cy="138.0" r="3.77" fill="#ecb478" opacity="0.28"/><circle cx="604.3" cy="140.3" r="2.83" fill="#ecb478" opacity="0.19"/><circle cx="643.6" cy="135.2" r="2.06" fill="#ecb478" opacity="0.32"/><circle cx="678.0" cy="139.0" r="2.89" fill="#ecb478" opacity="0.33"/><circle cx="716.8" cy="137.1" r="2.06" fill="#ecb478" opacity="0.28"/><circle cx="751.1" cy="139.2" r="2.76" fill="#ecb478" opacity="0.33"/><circle cx="784.9" cy="139.2" r="1.65" fill="#ecb478" opacity="0.31"/><circle cx="820.0" cy="135.6" r="2.95" fill="#ecb478" opacity="0.30"/><circle cx="858.2" cy="139.1" r="2.41" fill="#ecb478" opacity="0.24"/><circle cx="891.2" cy="137.3" r="3.65" fill="#ecb478" opacity="0.22"/><circle cx="929.5" cy="137.1" r="2.85" fill="#ecb478" opacity="0.35"/><circle cx="964.1" cy="139.0" r="3.71" fill="#ecb478" opacity="0.27"/><circle cx="1001.8" cy="135.9" r="3.14" fill="#ecb478" opacity="0.26"/><circle cx="1039.3" cy="139.0" r="3.34" fill="#ecb478" opacity="0.28"/><circle cx="1072.2" cy="139.1" r="2.87" fill="#ecb478" opacity="0.21"/><circle cx="1112.8" cy="137.7" r="1.63" fill="#ecb478" opacity="0.17"/><circle cx="1146.7" cy="136.3" r="2.70" fill="#ecb478" opacity="0.28"/><circle cx="1179.5" cy="136.8" r="2.63" fill="#ecb478" opacity="0.20"/><circle cx="28.9" cy="172.9" r="2.75" fill="#ecb478" opacity="0.32"/><circle cx="66.6" cy="176.3" r="3.77" fill="#ecb478" opacity="0.18"/><circle cx="103.2" cy="172.9" r="3.46" fill="#ecb478" opacity="0.31"/><circle cx="140.3" cy="173.5" r="2.52" fill="#ecb478" opacity="0.20"/><circle cx="174.8" cy="175.3" r="3.87" fill="#ecb478" opacity="0.17"/><circle cx="207.9" cy="174.4" r="2.58" fill="#ecb478" opacity="0.23"/><circle cx="245.5" cy="172.5" r="3.13" fill="#ecb478" opacity="0.17"/><circle cx="281.0" cy="175.1" r="3.27" fill="#ecb478" opacity="0.24"/><circle cx="315.8" cy="173.3" r="3.42" fill="#ecb478" opacity="0.25"/><circle cx="356.7" cy="172.4" r="1.86" fill="#ecb478" opacity="0.31"/><circle cx="387.6" cy="175.4" r="2.69" fill="#ecb478" opacity="0.24"/><circle cx="423.1" cy="174.5" r="2.45" fill="#ecb478" opacity="0.26"/><circle cx="462.5" cy="174.2" r="3.23" fill="#ecb478" opacity="0.17"/><circle cx="496.6" cy="175.4" r="1.72" fill="#ecb478" opacity="0.19"/><circle cx="532.7" cy="176.9" r="3.83" fill="#ecb478" opacity="0.18"/><circle cx="567.5" cy="175.6" r="1.83" fill="#ecb478" opacity="0.27"/><circle cx="604.4" cy="175.1" r="3.36" fill="#ecb478" opacity="0.25"/><circle cx="640.9" cy="176.6" r="3.05" fill="#ecb478" opacity="0.18"/><circle cx="680.2" cy="176.2" r="3.27" fill="#ecb478" opacity="0.35"/><circle cx="711.9" cy="174.1" r="2.41" fill="#ecb478" opacity="0.20"/><circle cx="752.7" cy="176.0" r="2.97" fill="#ecb478" opacity="0.26"/><circle cx="786.8" cy="172.4" r="2.46" fill="#ecb478" opacity="0.17"/><circle cx="822.2" cy="175.4" r="2.58" fill="#ecb478" opacity="0.31"/><circle cx="860.7" cy="171.7" r="2.84" fill="#ecb478" opacity="0.31"/><circle cx="895.1" cy="172.7" r="2.68" fill="#ecb478" opacity="0.16"/><circle cx="931.3" cy="171.1" r="3.41" fill="#ecb478" opacity="0.27"/><circle cx="965.6" cy="172.3" r="1.68" fill="#ecb478" opacity="0.21"/><circle cx="1002.8" cy="173.3" r="3.11" fill="#ecb478" opacity="0.33"/><circle cx="1036.3" cy="172.1" r="2.95" fill="#ecb478" opacity="0.17"/><circle cx="1076.7" cy="176.5" r="3.81" fill="#ecb478" opacity="0.34"/><circle cx="1112.7" cy="174.4" r="2.21" fill="#ecb478" opacity="0.24"/><circle cx="1148.6" cy="172.3" r="3.80" fill="#ecb478" opacity="0.35"/><circle cx="1183.2" cy="173.2" r="3.61" fill="#ecb478" opacity="0.17"/><circle cx="27.4" cy="209.0" r="3.02" fill="#ecb478" opacity="0.26"/><circle cx="65.1" cy="207.7" r="2.21" fill="#ecb478" opacity="0.31"/><circle cx="101.1" cy="208.4" r="3.97" fill="#ecb478" opacity="0.35"/><circle cx="139.3" cy="209.8" r="2.41" fill="#ecb478" opacity="0.34"/><circle cx="176.5" cy="211.8" r="1.97" fill="#ecb478" opacity="0.31"/><circle cx="209.1" cy="211.7" r="3.64" fill="#ecb478" opacity="0.18"/><circle cx="248.8" cy="210.6" r="1.92" fill="#ecb478" opacity="0.18"/><circle cx="280.2" cy="208.8" r="2.57" fill="#ecb478" opacity="0.28"/><circle cx="318.9" cy="208.9" r="2.62" fill="#ecb478" opacity="0.20"/><circle cx="352.9" cy="212.6" r="3.28" fill="#ecb478" opacity="0.17"/><circle cx="392.0" cy="210.9" r="2.27" fill="#ecb478" opacity="0.28"/><circle cx="424.1" cy="208.7" r="2.21" fill="#ecb478" opacity="0.35"/><circle cx="462.7" cy="210.4" r="2.19" fill="#ecb478" opacity="0.27"/><circle cx="496.1" cy="209.4" r="3.78" fill="#ecb478" opacity="0.18"/><circle cx="531.9" cy="212.2" r="2.52" fill="#ecb478" opacity="0.33"/><circle cx="569.4" cy="209.9" r="2.45" fill="#ecb478" opacity="0.30"/><circle cx="604.6" cy="211.3" r="3.34" fill="#ecb478" opacity="0.23"/><circle cx="641.6" cy="208.1" r="2.73" fill="#ecb478" opacity="0.34"/><circle cx="678.3" cy="212.8" r="2.22" fill="#ecb478" opacity="0.35"/><circle cx="717.0" cy="207.1" r="2.05" fill="#ecb478" opacity="0.23"/><circle cx="750.0" cy="210.1" r="3.53" fill="#ecb478" opacity="0.23"/><circle cx="783.6" cy="209.6" r="2.72" fill="#ecb478" opacity="0.26"/><circle cx="821.7" cy="212.5" r="2.12" fill="#ecb478" opacity="0.27"/><circle cx="860.3" cy="212.4" r="2.15" fill="#ecb478" opacity="0.17"/><circle cx="893.4" cy="211.5" r="2.73" fill="#ecb478" opacity="0.25"/><circle cx="929.3" cy="212.6" r="2.53" fill="#ecb478" opacity="0.27"/><circle cx="964.2" cy="207.6" r="3.11" fill="#ecb478" opacity="0.18"/><circle cx="1003.2" cy="207.2" r="3.66" fill="#ecb478" opacity="0.24"/><circle cx="1037.3" cy="208.7" r="2.97" fill="#ecb478" opacity="0.29"/><circle cx="1074.9" cy="207.3" r="3.00" fill="#ecb478" opacity="0.35"/><circle cx="1107.5" cy="211.6" r="1.88" fill="#ecb478" opacity="0.16"/><circle cx="1144.2" cy="208.1" r="3.84" fill="#ecb478" opacity="0.29"/><circle cx="1181.4" cy="210.7" r="2.75" fill="#ecb478" opacity="0.26"/><circle cx="28.0" cy="243.3" r="1.60" fill="#ecb478" opacity="0.34"/><circle cx="65.3" cy="248.0" r="2.40" fill="#ecb478" opacity="0.18"/><circle cx="103.7" cy="247.7" r="3.41" fill="#ecb478" opacity="0.34"/><circle cx="139.6" cy="244.9" r="1.75" fill="#ecb478" opacity="0.21"/><circle cx="176.2" cy="247.1" r="3.01" fill="#ecb478" opacity="0.31"/><circle cx="211.8" cy="245.4" r="3.09" fill="#ecb478" opacity="0.26"/><circle cx="246.6" cy="248.7" r="2.44" fill="#ecb478" opacity="0.32"/><circle cx="283.5" cy="244.3" r="3.24" fill="#ecb478" opacity="0.27"/><circle cx="316.2" cy="248.5" r="3.71" fill="#ecb478" opacity="0.23"/><circle cx="352.2" cy="245.4" r="2.44" fill="#ecb478" opacity="0.23"/><circle cx="390.1" cy="244.3" r="2.80" fill="#ecb478" opacity="0.19"/><circle cx="426.7" cy="247.0" r="3.63" fill="#ecb478" opacity="0.30"/><circle cx="461.8" cy="243.3" r="3.92" fill="#ecb478" opacity="0.35"/><circle cx="500.3" cy="248.0" r="3.50" fill="#ecb478" opacity="0.17"/><circle cx="536.3" cy="246.9" r="2.87" fill="#ecb478" opacity="0.35"/><circle cx="568.2" cy="246.7" r="2.66" fill="#ecb478" opacity="0.17"/><circle cx="605.3" cy="245.8" r="3.45" fill="#ecb478" opacity="0.27"/><circle cx="642.8" cy="243.8" r="3.13" fill="#ecb478" opacity="0.33"/><circle cx="677.0" cy="245.8" r="3.49" fill="#ecb478" opacity="0.31"/><circle cx="713.5" cy="244.5" r="3.67" fill="#ecb478" opacity="0.18"/><circle cx="747.7" cy="245.7" r="3.68" fill="#ecb478" opacity="0.33"/><circle cx="787.7" cy="244.8" r="2.49" fill="#ecb478" opacity="0.23"/><circle cx="819.6" cy="243.3" r="3.83" fill="#ecb478" opacity="0.21"/><circle cx="859.4" cy="248.0" r="2.36" fill="#ecb478" opacity="0.24"/><circle cx="891.8" cy="247.5" r="1.92" fill="#ecb478" opacity="0.32"/><circle cx="930.7" cy="248.0" r="2.08" fill="#ecb478" opacity="0.34"/><circle cx="965.4" cy="246.1" r="1.68" fill="#ecb478" opacity="0.19"/><circle cx="1002.0" cy="248.2" r="2.56" fill="#ecb478" opacity="0.18"/><circle cx="1035.0" cy="247.5" r="2.46" fill="#ecb478" opacity="0.25"/><circle cx="1074.4" cy="245.8" r="2.98" fill="#ecb478" opacity="0.34"/><circle cx="1107.4" cy="243.8" r="2.09" fill="#ecb478" opacity="0.18"/><circle cx="1145.8" cy="245.1" r="2.36" fill="#ecb478" opacity="0.22"/><circle cx="1183.3" cy="247.8" r="3.35" fill="#ecb478" opacity="0.22"/><circle cx="31.6" cy="280.5" r="3.17" fill="#ecb478" opacity="0.30"/><circle cx="66.9" cy="283.8" r="3.75" fill="#ecb478" opacity="0.31"/><circle cx="101.5" cy="281.4" r="3.26" fill="#ecb478" opacity="0.27"/><circle cx="140.3" cy="280.5" r="3.30" fill="#ecb478" opacity="0.27"/><circle cx="172.2" cy="283.2" r="3.49" fill="#ecb478" opacity="0.35"/><circle cx="208.1" cy="279.5" r="2.59" fill="#ecb478" opacity="0.18"/><circle cx="243.4" cy="281.2" r="2.79" fill="#ecb478" opacity="0.32"/><circle cx="283.8" cy="281.2" r="3.29" fill="#ecb478" opacity="0.28"/><circle cx="316.3" cy="281.6" r="2.64" fill="#ecb478" opacity="0.22"/><circle cx="356.7" cy="282.3" r="3.28" fill="#ecb478" opacity="0.25"/><circle cx="388.6" cy="282.2" r="1.93" fill="#ecb478" opacity="0.29"/><circle cx="425.4" cy="280.8" r="3.00" fill="#ecb478" opacity="0.18"/><circle cx="463.0" cy="280.1" r="3.96" fill="#ecb478" opacity="0.31"/><circle cx="497.5" cy="284.9" r="2.81" fill="#ecb478" opacity="0.32"/><circle cx="534.0" cy="279.3" r="2.03" fill="#ecb478" opacity="0.23"/><circle cx="571.4" cy="283.7" r="3.44" fill="#ecb478" opacity="0.26"/><circle cx="605.2" cy="284.0" r="1.62" fill="#ecb478" opacity="0.35"/><circle cx="642.6" cy="279.4" r="3.55" fill="#ecb478" opacity="0.25"/><circle cx="676.6" cy="283.3" r="2.79" fill="#ecb478" opacity="0.35"/><circle cx="715.0" cy="281.3" r="3.57" fill="#ecb478" opacity="0.36"/><circle cx="749.0" cy="283.0" r="1.79" fill="#ecb478" opacity="0.33"/><circle cx="786.5" cy="284.6" r="3.47" fill="#ecb478" opacity="0.22"/><circle cx="824.1" cy="282.5" r="1.80" fill="#ecb478" opacity="0.33"/><circle cx="857.8" cy="282.6" r="1.97" fill="#ecb478" opacity="0.33"/><circle cx="891.6" cy="281.7" r="3.43" fill="#ecb478" opacity="0.26"/><circle cx="931.7" cy="282.0" r="2.03" fill="#ecb478" opacity="0.35"/><circle cx="965.0" cy="279.6" r="3.06" fill="#ecb478" opacity="0.20"/><circle cx="1003.5" cy="282.1" r="2.23" fill="#ecb478" opacity="0.25"/><circle cx="1035.7" cy="280.6" r="3.95" fill="#ecb478" opacity="0.21"/><circle cx="1072.5" cy="284.3" r="3.71" fill="#ecb478" opacity="0.21"/><circle cx="1111.9" cy="282.5" r="3.57" fill="#ecb478" opacity="0.35"/><circle cx="1144.7" cy="280.5" r="3.03" fill="#ecb478" opacity="0.36"/><circle cx="1180.1" cy="283.3" r="2.15" fill="#ecb478" opacity="0.18"/><circle cx="29.8" cy="317.4" r="3.80" fill="#ecb478" opacity="0.23"/><circle cx="68.7" cy="316.0" r="2.92" fill="#ecb478" opacity="0.19"/><circle cx="100.6" cy="317.8" r="2.22" fill="#ecb478" opacity="0.35"/><circle cx="139.5" cy="320.7" r="3.57" fill="#ecb478" opacity="0.32"/><circle cx="175.2" cy="315.9" r="2.20" fill="#ecb478" opacity="0.25"/><circle cx="207.7" cy="317.0" r="1.93" fill="#ecb478" opacity="0.22"/><circle cx="243.6" cy="317.8" r="1.73" fill="#ecb478" opacity="0.22"/><circle cx="279.1" cy="316.9" r="3.72" fill="#ecb478" opacity="0.18"/><circle cx="318.2" cy="316.2" r="2.20" fill="#ecb478" opacity="0.19"/><circle cx="356.0" cy="315.7" r="1.92" fill="#ecb478" opacity="0.20"/><circle cx="388.5" cy="315.2" r="2.85" fill="#ecb478" opacity="0.21"/><circle cx="424.9" cy="318.6" r="2.69" fill="#ecb478" opacity="0.35"/><circle cx="461.3" cy="315.4" r="2.61" fill="#ecb478" opacity="0.22"/><circle cx="498.4" cy="319.0" r="3.82" fill="#ecb478" opacity="0.33"/><circle cx="532.1" cy="319.0" r="1.61" fill="#ecb478" opacity="0.34"/><circle cx="570.8" cy="319.6" r="3.99" fill="#ecb478" opacity="0.33"/><circle cx="607.1" cy="319.8" r="2.54" fill="#ecb478" opacity="0.16"/><circle cx="644.8" cy="320.7" r="3.15" fill="#ecb478" opacity="0.16"/><circle cx="679.9" cy="317.3" r="1.60" fill="#ecb478" opacity="0.17"/><circle cx="716.3" cy="317.3" r="3.79" fill="#ecb478" opacity="0.23"/><circle cx="747.4" cy="315.5" r="2.62" fill="#ecb478" opacity="0.25"/><circle cx="785.2" cy="320.5" r="2.32" fill="#ecb478" opacity="0.26"/><circle cx="819.6" cy="317.1" r="2.60" fill="#ecb478" opacity="0.16"/><circle cx="857.6" cy="319.0" r="2.23" fill="#ecb478" opacity="0.20"/><circle cx="896.6" cy="319.6" r="3.72" fill="#ecb478" opacity="0.28"/><circle cx="927.1" cy="316.8" r="3.87" fill="#ecb478" opacity="0.23"/><circle cx="967.0" cy="319.4" r="3.20" fill="#ecb478" opacity="0.31"/><circle cx="1000.9" cy="319.3" r="3.68" fill="#ecb478" opacity="0.16"/><circle cx="1035.7" cy="318.4" r="3.94" fill="#ecb478" opacity="0.21"/><circle cx="1076.1" cy="318.3" r="2.51" fill="#ecb478" opacity="0.26"/><circle cx="1107.4" cy="316.2" r="3.80" fill="#ecb478" opacity="0.16"/><circle cx="1146.8" cy="315.6" r="3.61" fill="#ecb478" opacity="0.16"/><circle cx="1180.3" cy="315.3" r="2.57" fill="#ecb478" opacity="0.33"/><circle cx="27.5" cy="351.6" r="2.43" fill="#ecb478" opacity="0.32"/><circle cx="66.5" cy="351.6" r="2.68" fill="#ecb478" opacity="0.26"/><circle cx="103.2" cy="352.2" r="2.02" fill="#ecb478" opacity="0.21"/><circle cx="138.7" cy="353.8" r="3.97" fill="#ecb478" opacity="0.24"/><circle cx="172.9" cy="354.8" r="3.15" fill="#ecb478" opacity="0.36"/><circle cx="211.7" cy="354.0" r="1.86" fill="#ecb478" opacity="0.17"/><circle cx="248.5" cy="355.5" r="3.80" fill="#ecb478" opacity="0.35"/><circle cx="280.9" cy="354.5" r="2.52" fill="#ecb478" opacity="0.25"/><circle cx="320.1" cy="355.0" r="3.63" fill="#ecb478" opacity="0.18"/><circle cx="352.2" cy="354.0" r="1.92" fill="#ecb478" opacity="0.26"/><circle cx="388.8" cy="353.7" r="2.24" fill="#ecb478" opacity="0.23"/><circle cx="426.4" cy="356.5" r="2.55" fill="#ecb478" opacity="0.17"/><circle cx="463.8" cy="353.0" r="3.57" fill="#ecb478" opacity="0.16"/><circle cx="496.1" cy="355.4" r="1.83" fill="#ecb478" opacity="0.17"/><circle cx="531.7" cy="352.4" r="1.90" fill="#ecb478" opacity="0.25"/><circle cx="570.0" cy="353.0" r="1.78" fill="#ecb478" opacity="0.25"/><circle cx="605.7" cy="355.4" r="3.41" fill="#ecb478" opacity="0.18"/><circle cx="639.1" cy="351.1" r="3.45" fill="#ecb478" opacity="0.27"/><circle cx="678.9" cy="353.4" r="3.68" fill="#ecb478" opacity="0.17"/><circle cx="714.4" cy="355.7" r="3.54" fill="#ecb478" opacity="0.26"/><circle cx="747.5" cy="356.7" r="3.17" fill="#ecb478" opacity="0.23"/><circle cx="783.2" cy="353.2" r="3.17" fill="#ecb478" opacity="0.22"/><circle cx="820.7" cy="353.4" r="2.46" fill="#ecb478" opacity="0.29"/><circle cx="859.4" cy="353.7" r="2.72" fill="#ecb478" opacity="0.19"/><circle cx="892.3" cy="355.1" r="3.92" fill="#ecb478" opacity="0.25"/><circle cx="929.2" cy="353.5" r="2.68" fill="#ecb478" opacity="0.30"/><circle cx="967.9" cy="354.7" r="2.21" fill="#ecb478" opacity="0.29"/><circle cx="1004.2" cy="353.5" r="2.74" fill="#ecb478" opacity="0.18"/><circle cx="1040.7" cy="353.2" r="3.12" fill="#ecb478" opacity="0.26"/><circle cx="1071.5" cy="354.2" r="2.00" fill="#ecb478" opacity="0.19"/><circle cx="1113.0" cy="355.2" r="3.15" fill="#ecb478" opacity="0.34"/><circle cx="1143.8" cy="351.5" r="3.82" fill="#ecb478" opacity="0.21"/><circle cx="1180.7" cy="355.7" r="2.53" fill="#ecb478" opacity="0.28"/><circle cx="27.8" cy="388.4" r="2.69" fill="#ecb478" opacity="0.30"/><circle cx="67.1" cy="388.1" r="2.64" fill="#ecb478" opacity="0.25"/><circle cx="103.6" cy="391.4" r="3.93" fill="#ecb478" opacity="0.20"/><circle cx="136.7" cy="392.5" r="2.60" fill="#ecb478" opacity="0.31"/><circle cx="171.5" cy="389.5" r="3.55" fill="#ecb478" opacity="0.29"/><circle cx="210.8" cy="392.3" r="3.90" fill="#ecb478" opacity="0.19"/><circle cx="245.1" cy="391.0" r="2.66" fill="#ecb478" opacity="0.32"/><circle cx="281.2" cy="392.9" r="3.79" fill="#ecb478" opacity="0.20"/><circle cx="317.7" cy="390.7" r="1.66" fill="#ecb478" opacity="0.26"/><circle cx="356.4" cy="387.9" r="2.08" fill="#ecb478" opacity="0.23"/><circle cx="391.5" cy="391.8" r="2.52" fill="#ecb478" opacity="0.26"/><circle cx="426.2" cy="391.9" r="3.75" fill="#ecb478" opacity="0.22"/><circle cx="460.3" cy="391.5" r="2.85" fill="#ecb478" opacity="0.31"/><circle cx="495.2" cy="391.0" r="2.47" fill="#ecb478" opacity="0.30"/><circle cx="534.6" cy="390.2" r="2.12" fill="#ecb478" opacity="0.21"/><circle cx="570.5" cy="387.2" r="3.34" fill="#ecb478" opacity="0.26"/><circle cx="605.1" cy="390.0" r="3.50" fill="#ecb478" opacity="0.22"/><circle cx="644.7" cy="389.9" r="1.98" fill="#ecb478" opacity="0.35"/><circle cx="678.3" cy="392.7" r="2.72" fill="#ecb478" opacity="0.15"/><circle cx="713.0" cy="388.7" r="3.32" fill="#ecb478" opacity="0.26"/><circle cx="749.2" cy="387.0" r="2.87" fill="#ecb478" opacity="0.31"/><circle cx="785.4" cy="391.2" r="3.31" fill="#ecb478" opacity="0.34"/><circle cx="824.9" cy="392.4" r="3.83" fill="#ecb478" opacity="0.34"/><circle cx="858.7" cy="390.6" r="2.88" fill="#ecb478" opacity="0.17"/><circle cx="896.6" cy="388.1" r="3.72" fill="#ecb478" opacity="0.16"/><circle cx="929.3" cy="392.2" r="1.92" fill="#ecb478" opacity="0.25"/><circle cx="965.1" cy="388.4" r="2.01" fill="#ecb478" opacity="0.30"/><circle cx="999.3" cy="388.8" r="2.09" fill="#ecb478" opacity="0.28"/><circle cx="1040.3" cy="389.4" r="3.81" fill="#ecb478" opacity="0.35"/><circle cx="1074.1" cy="389.5" r="2.89" fill="#ecb478" opacity="0.22"/><circle cx="1110.7" cy="392.4" r="2.37" fill="#ecb478" opacity="0.30"/><circle cx="1145.7" cy="389.6" r="3.14" fill="#ecb478" opacity="0.16"/><circle cx="1183.6" cy="392.0" r="3.66" fill="#ecb478" opacity="0.31"/><circle cx="28.3" cy="423.9" r="3.14" fill="#ecb478" opacity="0.22"/><circle cx="65.6" cy="423.7" r="3.72" fill="#ecb478" opacity="0.27"/><circle cx="104.8" cy="428.2" r="1.84" fill="#ecb478" opacity="0.22"/><circle cx="139.6" cy="425.1" r="2.79" fill="#ecb478" opacity="0.20"/><circle cx="176.0" cy="424.9" r="3.14" fill="#ecb478" opacity="0.20"/><circle cx="212.7" cy="425.5" r="2.96" fill="#ecb478" opacity="0.34"/><circle cx="248.3" cy="427.7" r="2.97" fill="#ecb478" opacity="0.31"/><circle cx="283.7" cy="426.4" r="2.31" fill="#ecb478" opacity="0.29"/><circle cx="319.0" cy="427.6" r="2.46" fill="#ecb478" opacity="0.19"/><circle cx="356.4" cy="425.4" r="2.32" fill="#ecb478" opacity="0.27"/><circle cx="388.6" cy="424.1" r="2.83" fill="#ecb478" opacity="0.20"/><circle cx="423.0" cy="427.3" r="3.25" fill="#ecb478" opacity="0.32"/><circle cx="463.9" cy="425.8" r="2.42" fill="#ecb478" opacity="0.24"/><circle cx="495.4" cy="427.1" r="2.67" fill="#ecb478" opacity="0.26"/><circle cx="535.2" cy="425.0" r="2.00" fill="#ecb478" opacity="0.28"/><circle cx="572.4" cy="423.1" r="1.86" fill="#ecb478" opacity="0.17"/><circle cx="606.6" cy="426.1" r="3.51" fill="#ecb478" opacity="0.29"/><circle cx="641.2" cy="426.4" r="2.69" fill="#ecb478" opacity="0.28"/><circle cx="679.3" cy="426.1" r="1.68" fill="#ecb478" opacity="0.19"/><circle cx="716.9" cy="428.9" r="2.41" fill="#ecb478" opacity="0.16"/><circle cx="749.0" cy="427.0" r="2.54" fill="#ecb478" opacity="0.18"/><circle cx="788.6" cy="425.5" r="3.15" fill="#ecb478" opacity="0.32"/><circle cx="820.0" cy="424.2" r="2.79" fill="#ecb478" opacity="0.27"/><circle cx="858.9" cy="428.6" r="3.45" fill="#ecb478" opacity="0.35"/><circle cx="896.7" cy="426.1" r="2.62" fill="#ecb478" opacity="0.33"/><circle cx="927.4" cy="427.3" r="2.86" fill="#ecb478" opacity="0.27"/><circle cx="964.6" cy="426.9" r="1.80" fill="#ecb478" opacity="0.23"/><circle cx="1004.9" cy="428.8" r="2.03" fill="#ecb478" opacity="0.29"/><circle cx="1039.5" cy="427.0" r="1.97" fill="#ecb478" opacity="0.28"/><circle cx="1072.0" cy="423.4" r="2.81" fill="#ecb478" opacity="0.20"/><circle cx="1107.4" cy="424.8" r="2.34" fill="#ecb478" opacity="0.29"/><circle cx="1145.0" cy="424.1" r="2.38" fill="#ecb478" opacity="0.15"/><circle cx="1182.9" cy="423.4" r="1.64" fill="#ecb478" opacity="0.35"/><circle cx="30.7" cy="464.7" r="2.40" fill="#ecb478" opacity="0.32"/><circle cx="68.5" cy="459.2" r="1.80" fill="#ecb478" opacity="0.31"/><circle cx="103.6" cy="460.0" r="2.12" fill="#ecb478" opacity="0.27"/><circle cx="140.2" cy="463.9" r="2.12" fill="#ecb478" opacity="0.21"/><circle cx="175.6" cy="460.8" r="1.61" fill="#ecb478" opacity="0.25"/><circle cx="208.6" cy="462.1" r="2.81" fill="#ecb478" opacity="0.32"/><circle cx="248.7" cy="462.7" r="3.87" fill="#ecb478" opacity="0.25"/><circle cx="284.0" cy="460.0" r="2.30" fill="#ecb478" opacity="0.16"/><circle cx="318.8" cy="464.1" r="2.45" fill="#ecb478" opacity="0.24"/><circle cx="352.4" cy="463.2" r="1.92" fill="#ecb478" opacity="0.33"/><circle cx="388.4" cy="464.1" r="3.34" fill="#ecb478" opacity="0.34"/><circle cx="424.0" cy="464.3" r="2.91" fill="#ecb478" opacity="0.24"/><circle cx="459.4" cy="464.7" r="3.14" fill="#ecb478" opacity="0.25"/><circle cx="499.0" cy="459.5" r="1.74" fill="#ecb478" opacity="0.16"/><circle cx="535.3" cy="459.6" r="2.61" fill="#ecb478" opacity="0.28"/><circle cx="567.1" cy="463.6" r="2.71" fill="#ecb478" opacity="0.25"/><circle cx="604.4" cy="463.3" r="2.63" fill="#ecb478" opacity="0.25"/><circle cx="643.2" cy="462.2" r="2.37" fill="#ecb478" opacity="0.18"/><circle cx="675.2" cy="464.2" r="2.69" fill="#ecb478" opacity="0.19"/><circle cx="712.3" cy="464.0" r="3.01" fill="#ecb478" opacity="0.33"/><circle cx="749.4" cy="460.8" r="1.76" fill="#ecb478" opacity="0.25"/><circle cx="785.7" cy="462.0" r="1.90" fill="#ecb478" opacity="0.20"/><circle cx="820.9" cy="463.3" r="3.97" fill="#ecb478" opacity="0.23"/><circle cx="860.1" cy="462.6" r="2.47" fill="#ecb478" opacity="0.15"/><circle cx="891.5" cy="464.9" r="3.59" fill="#ecb478" opacity="0.34"/><circle cx="931.0" cy="464.5" r="2.72" fill="#ecb478" opacity="0.21"/><circle cx="965.3" cy="464.5" r="3.75" fill="#ecb478" opacity="0.26"/><circle cx="1002.7" cy="463.4" r="1.69" fill="#ecb478" opacity="0.29"/><circle cx="1037.6" cy="464.8" r="1.64" fill="#ecb478" opacity="0.22"/><circle cx="1072.1" cy="461.5" r="3.04" fill="#ecb478" opacity="0.29"/><circle cx="1111.0" cy="461.7" r="2.59" fill="#ecb478" opacity="0.16"/><circle cx="1148.0" cy="459.2" r="2.10" fill="#ecb478" opacity="0.18"/><circle cx="1180.6" cy="459.6" r="2.70" fill="#ecb478" opacity="0.33"/><circle cx="30.2" cy="497.2" r="3.92" fill="#ecb478" opacity="0.25"/><circle cx="68.6" cy="500.9" r="1.64" fill="#ecb478" opacity="0.31"/><circle cx="104.5" cy="496.9" r="2.42" fill="#ecb478" opacity="0.17"/><circle cx="138.9" cy="496.5" r="2.52" fill="#ecb478" opacity="0.16"/><circle cx="175.1" cy="500.3" r="2.70" fill="#ecb478" opacity="0.24"/><circle cx="212.1" cy="497.5" r="1.68" fill="#ecb478" opacity="0.21"/><circle cx="244.1" cy="496.5" r="3.74" fill="#ecb478" opacity="0.19"/><circle cx="281.4" cy="498.3" r="1.78" fill="#ecb478" opacity="0.35"/><circle cx="318.8" cy="500.1" r="3.64" fill="#ecb478" opacity="0.26"/><circle cx="356.7" cy="499.1" r="1.68" fill="#ecb478" opacity="0.24"/><circle cx="389.9" cy="499.5" r="3.61" fill="#ecb478" opacity="0.35"/><circle cx="426.9" cy="499.1" r="2.59" fill="#ecb478" opacity="0.15"/><circle cx="459.9" cy="498.1" r="1.70" fill="#ecb478" opacity="0.34"/><circle cx="497.7" cy="498.4" r="3.66" fill="#ecb478" opacity="0.20"/><circle cx="532.6" cy="497.6" r="2.54" fill="#ecb478" opacity="0.31"/><circle cx="569.3" cy="499.5" r="2.11" fill="#ecb478" opacity="0.16"/><circle cx="608.2" cy="495.2" r="3.19" fill="#ecb478" opacity="0.18"/><circle cx="643.6" cy="495.9" r="1.79" fill="#ecb478" opacity="0.35"/><circle cx="678.9" cy="498.0" r="2.84" fill="#ecb478" opacity="0.23"/><circle cx="715.6" cy="495.6" r="2.76" fill="#ecb478" opacity="0.24"/><circle cx="752.5" cy="496.2" r="1.90" fill="#ecb478" opacity="0.33"/><circle cx="786.5" cy="500.5" r="2.73" fill="#ecb478" opacity="0.25"/><circle cx="819.4" cy="499.0" r="3.03" fill="#ecb478" opacity="0.18"/><circle cx="859.4" cy="495.2" r="2.13" fill="#ecb478" opacity="0.29"/><circle cx="894.0" cy="496.6" r="3.21" fill="#ecb478" opacity="0.35"/><circle cx="928.4" cy="499.7" r="3.93" fill="#ecb478" opacity="0.31"/><circle cx="965.9" cy="495.9" r="1.70" fill="#ecb478" opacity="0.16"/><circle cx="1002.0" cy="495.5" r="3.42" fill="#ecb478" opacity="0.26"/><circle cx="1038.7" cy="497.1" r="2.27" fill="#ecb478" opacity="0.18"/><circle cx="1076.6" cy="498.9" r="2.43" fill="#ecb478" opacity="0.26"/><circle cx="1112.0" cy="499.6" r="2.48" fill="#ecb478" opacity="0.31"/><circle cx="1147.3" cy="500.2" r="1.86" fill="#ecb478" opacity="0.16"/><circle cx="1183.5" cy="500.8" r="3.32" fill="#ecb478" opacity="0.21"/><circle cx="27.0" cy="535.8" r="1.66" fill="#ecb478" opacity="0.31"/><circle cx="67.8" cy="535.4" r="3.35" fill="#ecb478" opacity="0.22"/><circle cx="99.4" cy="534.8" r="1.91" fill="#ecb478" opacity="0.26"/><circle cx="137.5" cy="534.3" r="3.22" fill="#ecb478" opacity="0.26"/><circle cx="173.7" cy="533.8" r="3.14" fill="#ecb478" opacity="0.34"/><circle cx="207.5" cy="531.5" r="3.09" fill="#ecb478" opacity="0.19"/><circle cx="244.2" cy="535.8" r="2.97" fill="#ecb478" opacity="0.30"/><circle cx="281.6" cy="535.9" r="1.70" fill="#ecb478" opacity="0.22"/><circle cx="319.5" cy="532.8" r="2.71" fill="#ecb478" opacity="0.17"/><circle cx="355.5" cy="534.1" r="2.36" fill="#ecb478" opacity="0.33"/><circle cx="391.1" cy="534.4" r="3.07" fill="#ecb478" opacity="0.27"/><circle cx="425.9" cy="533.0" r="1.95" fill="#ecb478" opacity="0.30"/><circle cx="461.5" cy="534.4" r="1.62" fill="#ecb478" opacity="0.19"/><circle cx="496.1" cy="532.8" r="2.18" fill="#ecb478" opacity="0.16"/><circle cx="533.1" cy="535.9" r="2.47" fill="#ecb478" opacity="0.26"/><circle cx="571.4" cy="531.5" r="3.75" fill="#ecb478" opacity="0.33"/><circle cx="607.8" cy="536.2" r="3.39" fill="#ecb478" opacity="0.24"/><circle cx="640.3" cy="536.5" r="2.69" fill="#ecb478" opacity="0.36"/><circle cx="675.3" cy="532.6" r="3.90" fill="#ecb478" opacity="0.31"/><circle cx="712.0" cy="534.6" r="2.67" fill="#ecb478" opacity="0.16"/><circle cx="751.7" cy="531.9" r="3.58" fill="#ecb478" opacity="0.23"/><circle cx="787.2" cy="531.6" r="3.90" fill="#ecb478" opacity="0.27"/><circle cx="824.2" cy="536.6" r="3.34" fill="#ecb478" opacity="0.34"/><circle cx="856.5" cy="536.3" r="2.41" fill="#ecb478" opacity="0.20"/><circle cx="894.2" cy="535.0" r="2.88" fill="#ecb478" opacity="0.22"/><circle cx="932.2" cy="531.8" r="3.15" fill="#ecb478" opacity="0.21"/><circle cx="967.6" cy="535.5" r="1.71" fill="#ecb478" opacity="0.28"/><circle cx="999.3" cy="533.1" r="2.88" fill="#ecb478" opacity="0.25"/><circle cx="1040.2" cy="531.1" r="2.16" fill="#ecb478" opacity="0.26"/><circle cx="1071.9" cy="536.9" r="3.65" fill="#ecb478" opacity="0.17"/><circle cx="1111.1" cy="531.6" r="3.52" fill="#ecb478" opacity="0.29"/><circle cx="1148.1" cy="535.1" r="2.22" fill="#ecb478" opacity="0.34"/><circle cx="1183.6" cy="535.8" r="3.18" fill="#ecb478" opacity="0.25"/><circle cx="32.8" cy="567.9" r="2.36" fill="#ecb478" opacity="0.28"/><circle cx="64.2" cy="567.2" r="3.39" fill="#ecb478" opacity="0.33"/><circle cx="102.4" cy="571.8" r="3.02" fill="#ecb478" opacity="0.28"/><circle cx="137.9" cy="569.9" r="2.18" fill="#ecb478" opacity="0.33"/><circle cx="173.5" cy="568.5" r="2.63" fill="#ecb478" opacity="0.19"/><circle cx="207.2" cy="568.9" r="1.88" fill="#ecb478" opacity="0.23"/><circle cx="243.5" cy="573.0" r="2.25" fill="#ecb478" opacity="0.21"/><circle cx="279.9" cy="568.6" r="2.50" fill="#ecb478" opacity="0.20"/><circle cx="315.8" cy="570.8" r="2.05" fill="#ecb478" opacity="0.28"/><circle cx="356.3" cy="571.9" r="1.82" fill="#ecb478" opacity="0.26"/><circle cx="389.6" cy="571.4" r="1.60" fill="#ecb478" opacity="0.29"/><circle cx="423.9" cy="571.5" r="1.80" fill="#ecb478" opacity="0.19"/><circle cx="459.2" cy="572.8" r="2.98" fill="#ecb478" opacity="0.28"/><circle cx="496.7" cy="567.0" r="1.78" fill="#ecb478" opacity="0.34"/><circle cx="533.4" cy="572.0" r="2.54" fill="#ecb478" opacity="0.15"/><circle cx="568.2" cy="569.8" r="2.70" fill="#ecb478" opacity="0.23"/><circle cx="605.5" cy="571.7" r="1.91" fill="#ecb478" opacity="0.24"/><circle cx="643.2" cy="568.2" r="2.54" fill="#ecb478" opacity="0.32"/><circle cx="676.4" cy="569.4" r="2.29" fill="#ecb478" opacity="0.23"/><circle cx="712.1" cy="567.3" r="2.28" fill="#ecb478" opacity="0.26"/><circle cx="751.9" cy="572.5" r="2.39" fill="#ecb478" opacity="0.17"/><circle cx="783.5" cy="568.5" r="3.45" fill="#ecb478" opacity="0.21"/><circle cx="821.3" cy="571.3" r="3.20" fill="#ecb478" opacity="0.19"/><circle cx="858.1" cy="567.4" r="2.23" fill="#ecb478" opacity="0.25"/><circle cx="894.5" cy="571.8" r="1.74" fill="#ecb478" opacity="0.34"/><circle cx="930.5" cy="569.7" r="2.60" fill="#ecb478" opacity="0.28"/><circle cx="963.3" cy="568.2" r="2.31" fill="#ecb478" opacity="0.17"/><circle cx="999.2" cy="571.7" r="2.10" fill="#ecb478" opacity="0.28"/><circle cx="1037.4" cy="568.0" r="3.31" fill="#ecb478" opacity="0.17"/><circle cx="1072.8" cy="572.7" r="1.90" fill="#ecb478" opacity="0.21"/><circle cx="1107.0" cy="568.4" r="2.79" fill="#ecb478" opacity="0.20"/><circle cx="1145.4" cy="569.0" r="3.36" fill="#ecb478" opacity="0.21"/><circle cx="1183.7" cy="571.9" r="1.97" fill="#ecb478" opacity="0.31"/><circle cx="31.4" cy="606.0" r="4.00" fill="#ecb478" opacity="0.19"/><circle cx="66.7" cy="605.4" r="2.60" fill="#ecb478" opacity="0.16"/><circle cx="99.1" cy="604.0" r="3.66" fill="#ecb478" opacity="0.18"/><circle cx="137.9" cy="604.2" r="3.69" fill="#ecb478" opacity="0.28"/><circle cx="171.3" cy="604.3" r="3.05" fill="#ecb478" opacity="0.34"/><circle cx="211.4" cy="604.1" r="2.82" fill="#ecb478" opacity="0.17"/><circle cx="243.9" cy="608.0" r="3.52" fill="#ecb478" opacity="0.24"/><circle cx="283.3" cy="603.4" r="3.30" fill="#ecb478" opacity="0.21"/><circle cx="315.6" cy="608.9" r="3.55" fill="#ecb478" opacity="0.31"/><circle cx="351.7" cy="604.3" r="3.65" fill="#ecb478" opacity="0.19"/><circle cx="392.5" cy="603.6" r="2.29" fill="#ecb478" opacity="0.22"/><circle cx="427.3" cy="605.6" r="3.77" fill="#ecb478" opacity="0.28"/><circle cx="459.0" cy="606.5" r="3.25" fill="#ecb478" opacity="0.30"/><circle cx="495.1" cy="604.9" r="1.89" fill="#ecb478" opacity="0.32"/><circle cx="536.0" cy="608.6" r="2.93" fill="#ecb478" opacity="0.20"/><circle cx="571.9" cy="606.1" r="1.82" fill="#ecb478" opacity="0.25"/><circle cx="604.2" cy="605.2" r="1.96" fill="#ecb478" opacity="0.17"/><circle cx="643.0" cy="604.9" r="2.07" fill="#ecb478" opacity="0.19"/><circle cx="676.5" cy="606.1" r="3.91" fill="#ecb478" opacity="0.30"/><circle cx="715.7" cy="604.8" r="3.66" fill="#ecb478" opacity="0.35"/><circle cx="751.9" cy="603.3" r="3.42" fill="#ecb478" opacity="0.24"/><circle cx="785.0" cy="605.8" r="3.25" fill="#ecb478" opacity="0.31"/><circle cx="823.5" cy="603.6" r="2.01" fill="#ecb478" opacity="0.23"/><circle cx="856.3" cy="604.2" r="1.70" fill="#ecb478" opacity="0.18"/><circle cx="893.3" cy="605.1" r="3.40" fill="#ecb478" opacity="0.33"/><circle cx="927.4" cy="604.5" r="1.97" fill="#ecb478" opacity="0.35"/><circle cx="966.6" cy="606.9" r="3.28" fill="#ecb478" opacity="0.17"/><circle cx="1004.9" cy="605.2" r="3.92" fill="#ecb478" opacity="0.24"/><circle cx="1036.1" cy="608.9" r="2.33" fill="#ecb478" opacity="0.19"/><circle cx="1072.8" cy="606.6" r="2.03" fill="#ecb478" opacity="0.24"/><circle cx="1107.2" cy="608.9" r="2.47" fill="#ecb478" opacity="0.34"/><circle cx="1143.4" cy="608.6" r="2.60" fill="#ecb478" opacity="0.20"/><circle cx="1184.6" cy="607.2" r="3.25" fill="#ecb478" opacity="0.21"/><circle cx="28.2" cy="639.2" r="3.93" fill="#ecb478" opacity="0.26"/><circle cx="63.2" cy="643.5" r="3.72" fill="#ecb478" opacity="0.25"/><circle cx="102.5" cy="639.6" r="3.80" fill="#ecb478" opacity="0.22"/><circle cx="138.4" cy="642.0" r="2.62" fill="#ecb478" opacity="0.29"/><circle cx="175.0" cy="639.3" r="1.97" fill="#ecb478" opacity="0.17"/><circle cx="210.1" cy="643.7" r="3.27" fill="#ecb478" opacity="0.29"/><circle cx="245.7" cy="639.5" r="3.69" fill="#ecb478" opacity="0.35"/><circle cx="281.7" cy="640.0" r="3.43" fill="#ecb478" opacity="0.33"/><circle cx="316.3" cy="642.5" r="2.55" fill="#ecb478" opacity="0.36"/><circle cx="351.5" cy="642.0" r="3.57" fill="#ecb478" opacity="0.25"/><circle cx="390.6" cy="642.9" r="2.28" fill="#ecb478" opacity="0.19"/><circle cx="424.1" cy="642.7" r="2.91" fill="#ecb478" opacity="0.23"/><circle cx="464.7" cy="644.0" r="1.71" fill="#ecb478" opacity="0.29"/><circle cx="500.5" cy="644.8" r="2.66" fill="#ecb478" opacity="0.30"/><circle cx="536.6" cy="641.3" r="2.89" fill="#ecb478" opacity="0.22"/><circle cx="568.4" cy="639.2" r="3.99" fill="#ecb478" opacity="0.33"/><circle cx="608.5" cy="641.6" r="2.01" fill="#ecb478" opacity="0.20"/><circle cx="641.5" cy="644.5" r="2.61" fill="#ecb478" opacity="0.30"/><circle cx="679.5" cy="643.2" r="1.66" fill="#ecb478" opacity="0.35"/><circle cx="711.7" cy="643.1" r="2.06" fill="#ecb478" opacity="0.33"/><circle cx="750.9" cy="643.6" r="2.78" fill="#ecb478" opacity="0.33"/><circle cx="785.9" cy="642.5" r="2.90" fill="#ecb478" opacity="0.22"/><circle cx="823.0" cy="639.2" r="2.06" fill="#ecb478" opacity="0.23"/><circle cx="855.2" cy="642.2" r="1.66" fill="#ecb478" opacity="0.36"/><circle cx="896.2" cy="640.9" r="3.94" fill="#ecb478" opacity="0.24"/><circle cx="931.0" cy="643.2" r="3.21" fill="#ecb478" opacity="0.36"/><circle cx="968.6" cy="640.1" r="3.43" fill="#ecb478" opacity="0.26"/><circle cx="1002.4" cy="644.8" r="3.89" fill="#ecb478" opacity="0.22"/><circle cx="1036.5" cy="640.1" r="3.66" fill="#ecb478" opacity="0.25"/><circle cx="1073.9" cy="643.2" r="2.09" fill="#ecb478" opacity="0.22"/><circle cx="1109.9" cy="639.1" r="2.24" fill="#ecb478" opacity="0.15"/><circle cx="1143.7" cy="642.3" r="1.88" fill="#ecb478" opacity="0.32"/><circle cx="1179.4" cy="643.2" r="2.21" fill="#ecb478" opacity="0.23"/><circle cx="188.0" cy="272.2" r="220" fill="url(#glow)" opacity="0.9"/>
  <g opacity="0.85" transform="translate(1020, 495)">
        <polygon points="0,-50 43,25 -43,25" fill="none" stroke="#ecb478" stroke-width="2"/>
        <polygon points="0,-30 26,15 -26,15" fill="#faebd6" opacity="0.4"/>
      </g>
  <g transform="translate(80, 90)">
    <rect x="0" y="0" rx="20" ry="20" width="145" height="38" fill="#ecb478" opacity="0.18" stroke="#ecb478" stroke-width="1.5"/>
    <text x="72.5" y="25" font-family="ui-sans-serif, Inter, sans-serif" font-weight="700" font-size="14" letter-spacing="2.5" fill="#ecb478" text-anchor="middle">INFORMATION</text>
  </g>
  <text x="80" y="465" font-family="ui-sans-serif, -apple-system, Segoe UI, Inter, sans-serif" font-weight="800" font-size="44" fill="#faf8f5" opacity="0.98"><tspan x="80" dy="0">PDR COURT Articles: All</tspan><tspan x="80" dy="56">about Alternate Dispute</tspan><tspan x="80" dy="56">Resolution</tspan></text>
  <rect x="0" y="669" width="1200" height="6" fill="url(#gold)"/>
</svg>