<?xml version="1.0" encoding="UTF-8"?>
<svg xmlns="http://www.w3.org/2000/svg" viewBox="0 0 1200 675" width="1200" height="675" role="img" aria-label="Bangladesh Hindu Crisis is A Fight for Cultural Survival">
  <defs>
    <linearGradient id="bg" x1="0%" y1="0%" x2="100%" y2="100%">
      <stop offset="0%" stop-color="#532d15"/>
      <stop offset="100%" stop-color="#bd6b20"/>
    </linearGradient>
    <linearGradient id="gold" x1="0%" y1="0%" x2="100%" y2="100%">
      <stop offset="0%" stop-color="#e09440"/>
      <stop offset="100%" stop-color="#fdf6ee"/>
    </linearGradient>
    <radialGradient id="glow" cx="50%" cy="50%" r="50%">
      <stop offset="0%" stop-color="#e09440" stop-opacity="0.45"/>
      <stop offset="100%" stop-color="#e09440" stop-opacity="0"/>
    </radialGradient>
  </defs>
  <rect width="1200" height="675" fill="url(#bg)"/>
  <rect x="-677.4" y="-80" width="102.6" height="875" transform="rotate(18 -677.4 337.5)" fill="#e09440" opacity="0.15"/><rect x="-465.8" y="-80" width="139.8" height="875" transform="rotate(18 -465.8 337.5)" fill="#e09440" opacity="0.09"/><rect x="-303.1" y="-80" width="96.2" height="875" transform="rotate(18 -303.1 337.5)" fill="#e09440" opacity="0.07"/><rect x="-147.8" y="-80" width="87.6" height="875" transform="rotate(18 -147.8 337.5)" fill="#e09440" opacity="0.19"/><rect x="0.5" y="-80" width="102.0" height="875" transform="rotate(18 0.5 337.5)" fill="#e09440" opacity="0.12"/><rect x="221.4" y="-80" width="62.0" height="875" transform="rotate(18 221.4 337.5)" fill="#e09440" opacity="0.06"/><rect x="438.8" y="-80" width="90.1" height="875" transform="rotate(18 438.8 337.5)" fill="#e09440" opacity="0.13"/><rect x="601.2" y="-80" width="79.3" height="875" transform="rotate(18 601.2 337.5)" fill="#e09440" opacity="0.12"/><rect x="778.3" y="-80" width="123.6" height="875" transform="rotate(18 778.3 337.5)" fill="#e09440" opacity="0.15"/><rect x="957.8" y="-80" width="74.6" height="875" transform="rotate(18 957.8 337.5)" fill="#e09440" opacity="0.14"/><rect x="1120.0" y="-80" width="82.6" height="875" transform="rotate(18 1120.0 337.5)" fill="#e09440" opacity="0.07"/><rect x="1281.4" y="-80" width="72.2" height="875" transform="rotate(18 1281.4 337.5)" fill="#e09440" opacity="0.11"/><rect x="1501.5" y="-80" width="101.5" height="875" transform="rotate(18 1501.5 337.5)" fill="#e09440" opacity="0.11"/><rect x="1652.0" y="-80" width="88.1" height="875" transform="rotate(18 1652.0 337.5)" fill="#e09440" opacity="0.07"/><rect x="0" y="0" width="1200" height="675" fill="url(#glow)" opacity="0.6"/>
  <g opacity="0.85" transform="translate(1020, 495)">
        <rect x="-46" y="-60" width="92" height="115" fill="#e09440" opacity="0.18" rx="6"/>
        <path d="M -28 -36 L 28 -36 M -28 -12 L 28 -12 M -28 12 L 18 12 M -28 36 L 28 36" stroke="#fdf6ee" stroke-width="3" stroke-linecap="round"/>
      </g>
  <g transform="translate(80, 90)">
    <rect x="0" y="0" rx="20" ry="20" width="101" height="38" fill="#e09440" opacity="0.18" stroke="#e09440" stroke-width="1.5"/>
    <text x="50.5" y="25" font-family="ui-sans-serif, Inter, sans-serif" font-weight="700" font-size="14" letter-spacing="2.5" fill="#e09440" text-anchor="middle">ARTICLE</text>
  </g>
  <text x="80" y="465" font-family="ui-sans-serif, -apple-system, Segoe UI, Inter, sans-serif" font-weight="800" font-size="44" fill="#faf8f5" opacity="0.98"><tspan x="80" dy="0">Bangladesh Hindu Crisis is</tspan><tspan x="80" dy="56">A Fight for Cultural</tspan><tspan x="80" dy="56">Survival</tspan></text>
  <rect x="0" y="669" width="1200" height="6" fill="url(#gold)"/>
</svg>