<?xml version="1.0" encoding="UTF-8"?>
<svg xmlns="http://www.w3.org/2000/svg" viewBox="0 0 1200 675" width="1200" height="675" role="img" aria-label="PDR COURT Beginner's Guide: Know about our ADR services.">
  <defs>
    <linearGradient id="bg" x1="0%" y1="0%" x2="100%" y2="100%">
      <stop offset="0%" stop-color="#643516"/>
      <stop offset="100%" stop-color="#7d4315"/>
    </linearGradient>
    <linearGradient id="gold" x1="0%" y1="0%" x2="100%" y2="100%">
      <stop offset="0%" stop-color="#ecb478"/>
      <stop offset="100%" stop-color="#faebd6"/>
    </linearGradient>
    <radialGradient id="glow" cx="50%" cy="50%" r="50%">
      <stop offset="0%" stop-color="#ecb478" stop-opacity="0.45"/>
      <stop offset="100%" stop-color="#ecb478" stop-opacity="0"/>
    </radialGradient>
  </defs>
  <rect width="1200" height="675" fill="url(#bg)"/>
  <polygon points="-50,340.6 -20,340.7 10,339.6 40,337.3 70,333.9 100,329.4 130,324.0 160,317.8 190,310.9 220,303.4 250,295.6 280,287.6 310,279.6 340,271.8 370,264.3 400,257.3 430,251.0 460,245.5 490,241.0 520,237.5 550,235.1 580,233.9 610,233.9 640,235.1 670,237.4 700,240.9 730,245.4 760,250.9 790,257.2 820,264.1 850,271.6 880,279.4 910,287.4 940,295.4 970,303.2 1000,310.7 1030,317.6 1060,323.9 1090,329.3 1120,333.8 1150,337.2 1180,339.6 1210,340.7 1240,340.6 1250,725 -50,725" fill="#ecb478" opacity="0.08"/><polygon points="-50,264.5 -20,267.2 10,271.7 40,277.8 70,285.4 100,294.3 130,304.3 160,315.2 190,326.7 220,338.7 250,350.7 280,362.6 310,374.1 340,384.9 370,394.8 400,403.6 430,411.0 460,416.9 490,421.1 520,423.7 550,424.4 580,423.4 610,420.5 640,416.0 670,409.8 700,402.1 730,393.2 760,383.1 790,372.2 820,360.6 850,348.6 880,336.6 910,324.7 940,313.2 970,302.5 1000,292.6 1030,284.0 1060,276.6 1090,270.8 1120,266.6 1150,264.2 1180,263.6 1210,264.7 1240,267.7 1250,725 -50,725" fill="#ecb478" opacity="0.13"/><polygon points="-50,371.3 -20,361.2 10,352.2 40,344.3 70,337.8 100,332.8 130,329.5 160,327.9 190,328.0 220,329.9 250,333.5 280,338.6 310,345.4 340,353.4 370,362.6 400,372.8 430,383.8 460,395.2 490,406.9 520,418.5 550,429.9 580,440.7 610,450.7 640,459.7 670,467.5 700,473.9 730,478.8 760,482.0 790,483.6 820,483.3 850,481.4 880,477.7 910,472.4 940,465.6 970,457.5 1000,448.2 1030,438.0 1060,427.0 1090,415.5 1120,403.9 1150,392.2 1180,380.9 1210,370.1 1240,360.2 1250,725 -50,725" fill="#ecb478" opacity="0.18"/><polygon points="-50,412.5 -20,416.0 10,420.9 40,427.0 70,434.2 100,442.3 130,451.2 160,460.6 190,470.4 220,480.2 250,490.0 280,499.4 310,508.3 340,516.5 370,523.8 400,529.9 430,534.9 460,538.5 490,540.7 520,541.4 550,540.7 580,538.5 610,534.9 640,530.0 670,523.8 700,516.5 730,508.4 760,499.5 790,490.0 820,480.3 850,470.4 880,460.6 910,451.2 940,442.4 970,434.2 1000,427.0 1030,420.9 1060,416.1 1090,412.5 1120,410.4 1150,409.7 1180,410.5 1210,412.8 1240,416.5 1250,725 -50,725" fill="#ecb478" opacity="0.23"/><circle cx="300.0" cy="189.0" r="160" fill="url(#glow)"/>
  <g opacity="0.85" transform="translate(1020, 495)">
        <polygon points="0,-50 43,25 -43,25" fill="none" stroke="#ecb478" stroke-width="2"/>
        <polygon points="0,-30 26,15 -26,15" fill="#faebd6" opacity="0.4"/>
      </g>
  <g transform="translate(80, 90)">
    <rect x="0" y="0" rx="20" ry="20" width="145" height="38" fill="#ecb478" opacity="0.18" stroke="#ecb478" stroke-width="1.5"/>
    <text x="72.5" y="25" font-family="ui-sans-serif, Inter, sans-serif" font-weight="700" font-size="14" letter-spacing="2.5" fill="#ecb478" text-anchor="middle">INFORMATION</text>
  </g>
  <text x="80" y="465" font-family="ui-sans-serif, -apple-system, Segoe UI, Inter, sans-serif" font-weight="800" font-size="44" fill="#faf8f5" opacity="0.98"><tspan x="80" dy="0">PDR COURT Beginner's</tspan><tspan x="80" dy="56">Guide: Know about our ADR</tspan><tspan x="80" dy="56">services.</tspan></text>
  <rect x="0" y="669" width="1200" height="6" fill="url(#gold)"/>
</svg>