<?xml version="1.0" encoding="UTF-8"?>
<svg xmlns="http://www.w3.org/2000/svg" viewBox="0 0 1200 675" width="1200" height="675" role="img" aria-label="Legal Disputes in IPL &amp; Why ADR Is the Way Forward">
  <defs>
    <linearGradient id="bg" x1="0%" y1="0%" x2="100%" y2="100%">
      <stop offset="0%" stop-color="#0c0a09"/>
      <stop offset="100%" stop-color="#291813"/>
    </linearGradient>
    <linearGradient id="gold" x1="0%" y1="0%" x2="100%" y2="100%">
      <stop offset="0%" stop-color="#d4862a"/>
      <stop offset="100%" stop-color="#bd6b20"/>
    </linearGradient>
    <radialGradient id="glow" cx="50%" cy="50%" r="50%">
      <stop offset="0%" stop-color="#d4862a" stop-opacity="0.45"/>
      <stop offset="100%" stop-color="#d4862a" stop-opacity="0"/>
    </radialGradient>
  </defs>
  <rect width="1200" height="675" fill="url(#bg)"/>
  <rect x="-685.9" y="-80" width="68.9" height="875" transform="rotate(18 -685.9 337.5)" fill="#d4862a" opacity="0.08"/><rect x="-538.7" y="-80" width="88.4" height="875" transform="rotate(18 -538.7 337.5)" fill="#d4862a" opacity="0.11"/><rect x="-358.8" y="-80" width="114.6" height="875" transform="rotate(18 -358.8 337.5)" fill="#d4862a" opacity="0.11"/><rect x="-177.7" y="-80" width="92.3" height="875" transform="rotate(18 -177.7 337.5)" fill="#d4862a" opacity="0.13"/><rect x="16.6" y="-80" width="118.0" height="875" transform="rotate(18 16.6 337.5)" fill="#d4862a" opacity="0.06"/><rect x="202.2" y="-80" width="67.2" height="875" transform="rotate(18 202.2 337.5)" fill="#d4862a" opacity="0.16"/><rect x="430.7" y="-80" width="103.1" height="875" transform="rotate(18 430.7 337.5)" fill="#d4862a" opacity="0.16"/><rect x="610.8" y="-80" width="101.4" height="875" transform="rotate(18 610.8 337.5)" fill="#d4862a" opacity="0.11"/><rect x="725.3" y="-80" width="97.9" height="875" transform="rotate(18 725.3 337.5)" fill="#d4862a" opacity="0.08"/><rect x="909.0" y="-80" width="73.5" height="875" transform="rotate(18 909.0 337.5)" fill="#d4862a" opacity="0.16"/><rect x="1118.4" y="-80" width="100.6" height="875" transform="rotate(18 1118.4 337.5)" fill="#d4862a" opacity="0.17"/><rect x="1317.0" y="-80" width="88.9" height="875" transform="rotate(18 1317.0 337.5)" fill="#d4862a" opacity="0.08"/><rect x="1498.6" y="-80" width="67.3" height="875" transform="rotate(18 1498.6 337.5)" fill="#d4862a" opacity="0.07"/><rect x="1660.0" y="-80" width="105.7" height="875" transform="rotate(18 1660.0 337.5)" fill="#d4862a" opacity="0.16"/><rect x="0" y="0" width="1200" height="675" fill="url(#glow)" opacity="0.6"/>
  <g opacity="0.85" transform="translate(1020, 495)">
        <rect x="-46" y="-60" width="92" height="115" fill="#d4862a" opacity="0.18" rx="6"/>
        <path d="M -28 -36 L 28 -36 M -28 -12 L 28 -12 M -28 12 L 18 12 M -28 36 L 28 36" stroke="#bd6b20" stroke-width="3" stroke-linecap="round"/>
      </g>
  <g transform="translate(80, 90)">
    <rect x="0" y="0" rx="20" ry="20" width="101" height="38" fill="#d4862a" opacity="0.18" stroke="#d4862a" stroke-width="1.5"/>
    <text x="50.5" y="25" font-family="ui-sans-serif, Inter, sans-serif" font-weight="700" font-size="14" letter-spacing="2.5" fill="#d4862a" text-anchor="middle">ARTICLE</text>
  </g>
  <text x="80" y="515" font-family="ui-sans-serif, -apple-system, Segoe UI, Inter, sans-serif" font-weight="800" font-size="44" fill="#faf8f5" opacity="0.98"><tspan x="80" dy="0">Legal Disputes in IPL &amp;</tspan><tspan x="80" dy="56">Why ADR Is the Way Forward</tspan></text>
  <rect x="0" y="669" width="1200" height="6" fill="url(#gold)"/>
</svg>