<?xml version="1.0" encoding="UTF-8"?>
<svg xmlns="http://www.w3.org/2000/svg" viewBox="0 0 1200 675" width="1200" height="675" role="img" aria-label="Bombay HC Appoints Arbitrator in Fab Tech-Savvology Investment Row">
  <defs>
    <linearGradient id="bg" x1="0%" y1="0%" x2="100%" y2="100%">
      <stop offset="0%" stop-color="#643516"/>
      <stop offset="100%" stop-color="#7d4315"/>
    </linearGradient>
    <linearGradient id="gold" x1="0%" y1="0%" x2="100%" y2="100%">
      <stop offset="0%" stop-color="#ecb478"/>
      <stop offset="100%" stop-color="#faebd6"/>
    </linearGradient>
    <radialGradient id="glow" cx="50%" cy="50%" r="50%">
      <stop offset="0%" stop-color="#ecb478" stop-opacity="0.45"/>
      <stop offset="100%" stop-color="#ecb478" stop-opacity="0"/>
    </radialGradient>
  </defs>
  <rect width="1200" height="675" fill="url(#bg)"/>
  <polygon points="1039.5,642.5 1017.5,521.9 1132.9,563.1" fill="#faebd6" opacity="0.11"/><polygon points="71.7,486.4 274.2,502.1 159.4,669.6" fill="#faebd6" opacity="0.17"/><polygon points="965.6,449.1 792.5,407.1 834.5,234.0 1007.6,276.0" fill="#faebd6" opacity="0.08"/><polygon points="28.4,594.1 146.4,484.8 182.0,641.7" fill="#faebd6" opacity="0.06"/><polygon points="1034.5,659.5 1018.9,711.3 964.7,712.4 946.9,661.3 990.1,628.6" fill="#faebd6" opacity="0.13"/><polygon points="35.7,84.6 120.9,-1.0 228.7,53.6 210.1,173.0 90.8,192.2" fill="#faebd6" opacity="0.13"/><polygon points="883.2,198.7 1009.5,247.3 1002.3,382.4 871.6,417.4 798.0,303.8" fill="#faebd6" opacity="0.06"/><polygon points="367.8,528.3 385.7,625.3 299.1,672.3 227.6,604.4 270.1,515.4" fill="#faebd6" opacity="0.18"/><polygon points="1263.8,424.5 1240.4,557.4 1106.7,576.2 1047.5,454.9 1144.6,361.2" fill="#faebd6" opacity="0.10"/><polygon points="595.8,74.7 638.3,143.5 569.6,186.0 527.0,117.2" fill="#faebd6" opacity="0.09"/><polygon points="537.2,-51.7 688.0,-67.1 749.2,71.5 636.4,172.6 505.3,96.5" fill="#faebd6" opacity="0.16"/><polygon points="699.9,51.2 439.3,179.6 458.4,-110.3" fill="#faebd6" opacity="0.08"/><polygon points="1118.9,117.3 1137.3,171.5 1083.1,190.0 1064.7,135.8" fill="#faebd6" opacity="0.11"/><polygon points="644.1,567.7 743.8,569.3 742.2,669.0 642.5,667.4" fill="#faebd6" opacity="0.09"/><circle cx="936.0" cy="202.5" r="180" fill="url(#glow)"/>
  <g opacity="0.85" transform="translate(1020, 495)">
        <circle r="68" fill="none" stroke="#ecb478" stroke-width="2" opacity="0.35"/>
        <path d="M -38 12 L 38 12 M -32 -8 L 32 -8 M -45 -28 L 45 -28" stroke="#faebd6" stroke-width="3" stroke-linecap="round"/>
        <rect x="-50" y="-44" width="100" height="80" fill="none" stroke="#ecb478" stroke-width="2"/>
      </g>
  <g transform="translate(80, 90)">
    <rect x="0" y="0" rx="20" ry="20" width="112" height="38" fill="#ecb478" opacity="0.18" stroke="#ecb478" stroke-width="1.5"/>
    <text x="56" y="25" font-family="ui-sans-serif, Inter, sans-serif" font-weight="700" font-size="14" letter-spacing="2.5" fill="#ecb478" text-anchor="middle">NEWSROOM</text>
  </g>
  <text x="80" y="465" font-family="ui-sans-serif, -apple-system, Segoe UI, Inter, sans-serif" font-weight="800" font-size="44" fill="#faf8f5" opacity="0.98"><tspan x="80" dy="0">Bombay HC Appoints</tspan><tspan x="80" dy="56">Arbitrator in Fab</tspan><tspan x="80" dy="56">Tech-Savvology Investment</tspan></text>
  <rect x="0" y="669" width="1200" height="6" fill="url(#gold)"/>
</svg>