<?xml version="1.0" encoding="UTF-8"?>
<svg xmlns="http://www.w3.org/2000/svg" viewBox="0 0 1200 675" width="1200" height="675" role="img" aria-label="Bombay HC Upholds Arbitration Clause in Invoices | Legal News">
  <defs>
    <linearGradient id="bg" x1="0%" y1="0%" x2="100%" y2="100%">
      <stop offset="0%" stop-color="#0c0a09"/>
      <stop offset="100%" stop-color="#291813"/>
    </linearGradient>
    <linearGradient id="gold" x1="0%" y1="0%" x2="100%" y2="100%">
      <stop offset="0%" stop-color="#d4862a"/>
      <stop offset="100%" stop-color="#bd6b20"/>
    </linearGradient>
    <radialGradient id="glow" cx="50%" cy="50%" r="50%">
      <stop offset="0%" stop-color="#d4862a" stop-opacity="0.45"/>
      <stop offset="100%" stop-color="#d4862a" stop-opacity="0"/>
    </radialGradient>
  </defs>
  <rect width="1200" height="675" fill="url(#bg)"/>
  <circle cx="32.9" cy="31.8" r="3.58" fill="#d4862a" opacity="0.21"/><circle cx="64.3" cy="31.0" r="2.82" fill="#d4862a" opacity="0.26"/><circle cx="104.9" cy="28.6" r="3.88" fill="#d4862a" opacity="0.28"/><circle cx="138.5" cy="32.1" r="3.91" fill="#d4862a" opacity="0.22"/><circle cx="172.0" cy="29.5" r="3.36" fill="#d4862a" opacity="0.20"/><circle cx="208.0" cy="29.2" r="3.01" fill="#d4862a" opacity="0.21"/><circle cx="247.9" cy="28.7" r="1.75" fill="#d4862a" opacity="0.29"/><circle cx="283.6" cy="32.7" r="3.01" fill="#d4862a" opacity="0.23"/><circle cx="315.2" cy="27.9" r="2.05" fill="#d4862a" opacity="0.23"/><circle cx="355.5" cy="32.4" r="3.01" fill="#d4862a" opacity="0.33"/><circle cx="389.7" cy="28.0" r="3.04" fill="#d4862a" opacity="0.30"/><circle cx="424.4" cy="32.2" r="1.78" fill="#d4862a" opacity="0.24"/><circle cx="464.3" cy="31.9" r="3.38" fill="#d4862a" opacity="0.18"/><circle cx="495.6" cy="32.0" r="2.12" fill="#d4862a" opacity="0.22"/><circle cx="532.5" cy="29.2" r="2.16" fill="#d4862a" opacity="0.16"/><circle cx="567.4" cy="27.7" r="3.49" fill="#d4862a" opacity="0.33"/><circle cx="604.8" cy="28.8" r="3.76" fill="#d4862a" opacity="0.25"/><circle cx="640.6" cy="30.8" r="2.88" fill="#d4862a" opacity="0.25"/><circle cx="675.3" cy="28.5" r="2.42" fill="#d4862a" opacity="0.35"/><circle cx="716.2" cy="30.3" r="1.61" fill="#d4862a" opacity="0.20"/><circle cx="751.6" cy="30.2" r="3.66" fill="#d4862a" opacity="0.22"/><circle cx="784.8" cy="31.8" r="2.16" fill="#d4862a" opacity="0.34"/><circle cx="822.5" cy="28.0" r="2.97" fill="#d4862a" opacity="0.23"/><circle cx="860.5" cy="27.8" r="1.80" fill="#d4862a" opacity="0.17"/><circle cx="894.9" cy="30.2" r="2.46" fill="#d4862a" opacity="0.21"/><circle cx="927.5" cy="32.2" r="2.32" fill="#d4862a" opacity="0.32"/><circle cx="968.1" cy="31.3" r="2.25" fill="#d4862a" opacity="0.22"/><circle cx="1001.3" cy="27.6" r="3.41" fill="#d4862a" opacity="0.25"/><circle cx="1036.0" cy="32.5" r="2.32" fill="#d4862a" opacity="0.34"/><circle cx="1073.6" cy="27.2" r="2.70" fill="#d4862a" opacity="0.20"/><circle cx="1110.3" cy="29.8" r="3.75" fill="#d4862a" opacity="0.36"/><circle cx="1144.3" cy="28.2" r="1.76" fill="#d4862a" opacity="0.17"/><circle cx="1182.5" cy="27.2" r="3.61" fill="#d4862a" opacity="0.27"/><circle cx="28.0" cy="67.7" r="2.67" fill="#d4862a" opacity="0.24"/><circle cx="67.6" cy="66.6" r="1.73" fill="#d4862a" opacity="0.27"/><circle cx="101.9" cy="67.1" r="2.82" fill="#d4862a" opacity="0.25"/><circle cx="135.4" cy="66.2" r="3.98" fill="#d4862a" opacity="0.23"/><circle cx="171.9" cy="64.1" r="2.79" fill="#d4862a" opacity="0.29"/><circle cx="211.0" cy="64.9" r="3.24" fill="#d4862a" opacity="0.32"/><circle cx="248.5" cy="68.6" r="3.93" fill="#d4862a" opacity="0.16"/><circle cx="281.5" cy="68.6" r="2.89" fill="#d4862a" opacity="0.21"/><circle cx="320.8" cy="64.5" r="3.73" fill="#d4862a" opacity="0.35"/><circle cx="355.9" cy="67.3" r="1.68" fill="#d4862a" opacity="0.18"/><circle cx="390.3" cy="67.3" r="3.59" fill="#d4862a" opacity="0.20"/><circle cx="427.9" cy="66.3" r="3.10" fill="#d4862a" opacity="0.19"/><circle cx="461.5" cy="65.4" r="3.91" fill="#d4862a" opacity="0.29"/><circle cx="497.6" cy="63.5" r="3.88" fill="#d4862a" opacity="0.30"/><circle cx="531.4" cy="67.3" r="3.95" fill="#d4862a" opacity="0.18"/><circle cx="567.4" cy="64.9" r="2.17" fill="#d4862a" opacity="0.24"/><circle cx="603.3" cy="65.3" r="2.26" fill="#d4862a" opacity="0.33"/><circle cx="639.9" cy="64.8" r="3.71" fill="#d4862a" opacity="0.30"/><circle cx="675.2" cy="65.3" r="1.74" fill="#d4862a" opacity="0.35"/><circle cx="711.3" cy="66.3" r="3.31" fill="#d4862a" opacity="0.31"/><circle cx="747.3" cy="63.0" r="3.66" fill="#d4862a" opacity="0.35"/><circle cx="783.8" cy="65.1" r="2.06" fill="#d4862a" opacity="0.27"/><circle cx="821.5" cy="65.2" r="2.14" fill="#d4862a" opacity="0.18"/><circle cx="861.0" cy="67.6" r="2.10" fill="#d4862a" opacity="0.22"/><circle cx="891.5" cy="64.8" r="1.80" fill="#d4862a" opacity="0.34"/><circle cx="929.3" cy="67.2" r="2.29" fill="#d4862a" opacity="0.33"/><circle cx="965.0" cy="66.5" r="3.24" fill="#d4862a" opacity="0.16"/><circle cx="1000.9" cy="68.1" r="2.10" fill="#d4862a" opacity="0.30"/><circle cx="1039.7" cy="67.0" r="2.29" fill="#d4862a" opacity="0.26"/><circle cx="1073.2" cy="68.7" r="2.76" fill="#d4862a" opacity="0.31"/><circle cx="1108.6" cy="65.8" r="2.03" fill="#d4862a" opacity="0.26"/><circle cx="1147.1" cy="65.5" r="2.38" fill="#d4862a" opacity="0.27"/><circle cx="1179.7" cy="65.0" r="1.68" fill="#d4862a" opacity="0.30"/><circle cx="30.8" cy="104.3" r="3.34" fill="#d4862a" opacity="0.25"/><circle cx="66.7" cy="103.4" r="3.13" fill="#d4862a" opacity="0.26"/><circle cx="100.8" cy="100.9" r="1.77" fill="#d4862a" opacity="0.27"/><circle cx="140.4" cy="102.0" r="3.40" fill="#d4862a" opacity="0.25"/><circle cx="173.0" cy="99.0" r="2.99" fill="#d4862a" opacity="0.35"/><circle cx="209.7" cy="101.4" r="3.80" fill="#d4862a" opacity="0.16"/><circle cx="248.0" cy="100.2" r="2.40" fill="#d4862a" opacity="0.20"/><circle cx="282.1" cy="105.0" r="2.95" fill="#d4862a" opacity="0.31"/><circle cx="318.9" cy="102.0" r="3.64" fill="#d4862a" opacity="0.30"/><circle cx="352.1" cy="101.7" r="1.93" fill="#d4862a" opacity="0.33"/><circle cx="391.3" cy="101.7" r="1.78" fill="#d4862a" opacity="0.27"/><circle cx="423.6" cy="102.7" r="2.73" fill="#d4862a" opacity="0.29"/><circle cx="461.8" cy="102.1" r="3.69" fill="#d4862a" opacity="0.30"/><circle cx="498.5" cy="99.1" r="2.58" fill="#d4862a" opacity="0.23"/><circle cx="533.6" cy="101.0" r="3.77" fill="#d4862a" opacity="0.27"/><circle cx="567.8" cy="100.5" r="3.64" fill="#d4862a" opacity="0.22"/><circle cx="603.1" cy="104.7" r="1.91" fill="#d4862a" opacity="0.26"/><circle cx="643.5" cy="104.5" r="3.85" fill="#d4862a" opacity="0.36"/><circle cx="677.4" cy="99.9" r="3.05" fill="#d4862a" opacity="0.28"/><circle cx="713.2" cy="99.2" r="3.15" fill="#d4862a" opacity="0.22"/><circle cx="752.1" cy="102.8" r="1.66" fill="#d4862a" opacity="0.16"/><circle cx="785.6" cy="103.6" r="2.18" fill="#d4862a" opacity="0.18"/><circle cx="822.8" cy="102.8" r="3.50" fill="#d4862a" opacity="0.19"/><circle cx="856.1" cy="101.3" r="2.61" fill="#d4862a" opacity="0.16"/><circle cx="892.8" cy="101.1" r="2.31" fill="#d4862a" opacity="0.20"/><circle cx="929.7" cy="102.9" r="2.11" fill="#d4862a" opacity="0.20"/><circle cx="965.6" cy="99.9" r="2.05" fill="#d4862a" opacity="0.21"/><circle cx="1001.1" cy="99.7" r="2.79" fill="#d4862a" opacity="0.29"/><circle cx="1036.8" cy="99.7" r="3.01" fill="#d4862a" opacity="0.35"/><circle cx="1074.2" cy="102.3" r="3.87" fill="#d4862a" opacity="0.23"/><circle cx="1109.3" cy="100.7" r="2.87" fill="#d4862a" opacity="0.23"/><circle cx="1148.8" cy="99.8" r="2.14" fill="#d4862a" opacity="0.19"/><circle cx="1179.4" cy="99.9" r="3.30" fill="#d4862a" opacity="0.23"/><circle cx="32.4" cy="140.2" r="2.98" fill="#d4862a" opacity="0.24"/><circle cx="65.7" cy="135.5" r="3.55" fill="#d4862a" opacity="0.19"/><circle cx="100.0" cy="139.0" r="2.65" fill="#d4862a" opacity="0.23"/><circle cx="140.0" cy="140.5" r="2.24" fill="#d4862a" opacity="0.30"/><circle cx="173.8" cy="137.6" r="3.50" fill="#d4862a" opacity="0.17"/><circle cx="212.2" cy="138.1" r="2.53" fill="#d4862a" opacity="0.28"/><circle cx="247.1" cy="135.8" r="2.50" fill="#d4862a" opacity="0.17"/><circle cx="281.2" cy="138.4" r="2.72" fill="#d4862a" opacity="0.28"/><circle cx="317.5" cy="137.4" r="3.71" fill="#d4862a" opacity="0.31"/><circle cx="353.2" cy="138.8" r="3.78" fill="#d4862a" opacity="0.18"/><circle cx="387.5" cy="139.9" r="2.52" fill="#d4862a" opacity="0.24"/><circle cx="427.0" cy="137.9" r="3.06" fill="#d4862a" opacity="0.15"/><circle cx="459.6" cy="140.4" r="4.00" fill="#d4862a" opacity="0.28"/><circle cx="499.1" cy="139.3" r="1.87" fill="#d4862a" opacity="0.26"/><circle cx="533.6" cy="140.1" r="2.55" fill="#d4862a" opacity="0.32"/><circle cx="568.2" cy="140.5" r="2.16" fill="#d4862a" opacity="0.33"/><circle cx="607.3" cy="138.3" r="2.69" fill="#d4862a" opacity="0.17"/><circle cx="644.2" cy="136.7" r="3.99" fill="#d4862a" opacity="0.18"/><circle cx="680.4" cy="136.1" r="3.68" fill="#d4862a" opacity="0.17"/><circle cx="711.6" cy="136.0" r="1.90" fill="#d4862a" opacity="0.16"/><circle cx="749.9" cy="136.8" r="2.21" fill="#d4862a" opacity="0.34"/><circle cx="788.2" cy="138.5" r="1.87" fill="#d4862a" opacity="0.24"/><circle cx="825.0" cy="138.0" r="1.68" fill="#d4862a" opacity="0.29"/><circle cx="859.8" cy="138.6" r="2.25" fill="#d4862a" opacity="0.19"/><circle cx="895.5" cy="139.1" r="2.88" fill="#d4862a" opacity="0.33"/><circle cx="930.5" cy="136.8" r="3.31" fill="#d4862a" opacity="0.34"/><circle cx="967.7" cy="138.7" r="2.13" fill="#d4862a" opacity="0.22"/><circle cx="1004.1" cy="138.2" r="3.60" fill="#d4862a" opacity="0.27"/><circle cx="1037.3" cy="139.3" r="2.68" fill="#d4862a" opacity="0.17"/><circle cx="1074.5" cy="136.0" r="2.14" fill="#d4862a" opacity="0.23"/><circle cx="1107.4" cy="138.4" r="1.93" fill="#d4862a" opacity="0.35"/><circle cx="1146.7" cy="135.3" r="2.23" fill="#d4862a" opacity="0.35"/><circle cx="1179.7" cy="135.5" r="2.29" fill="#d4862a" opacity="0.35"/><circle cx="27.5" cy="174.5" r="3.01" fill="#d4862a" opacity="0.19"/><circle cx="64.0" cy="176.0" r="3.69" fill="#d4862a" opacity="0.32"/><circle cx="103.8" cy="176.2" r="2.16" fill="#d4862a" opacity="0.33"/><circle cx="135.5" cy="174.9" r="2.12" fill="#d4862a" opacity="0.16"/><circle cx="173.2" cy="174.8" r="1.95" fill="#d4862a" opacity="0.20"/><circle cx="211.4" cy="172.2" r="3.57" fill="#d4862a" opacity="0.23"/><circle cx="247.2" cy="176.4" r="1.75" fill="#d4862a" opacity="0.34"/><circle cx="281.1" cy="171.0" r="3.80" fill="#d4862a" opacity="0.18"/><circle cx="318.5" cy="176.8" r="3.06" fill="#d4862a" opacity="0.36"/><circle cx="352.4" cy="171.5" r="3.07" fill="#d4862a" opacity="0.16"/><circle cx="390.8" cy="175.5" r="2.25" fill="#d4862a" opacity="0.26"/><circle cx="424.7" cy="171.2" r="1.70" fill="#d4862a" opacity="0.19"/><circle cx="459.7" cy="176.0" r="2.69" fill="#d4862a" opacity="0.20"/><circle cx="499.5" cy="173.5" r="1.90" fill="#d4862a" opacity="0.22"/><circle cx="534.5" cy="174.8" r="3.97" fill="#d4862a" opacity="0.27"/><circle cx="572.1" cy="173.2" r="3.84" fill="#d4862a" opacity="0.27"/><circle cx="603.6" cy="175.2" r="3.76" fill="#d4862a" opacity="0.25"/><circle cx="640.5" cy="175.5" r="2.53" fill="#d4862a" opacity="0.30"/><circle cx="680.5" cy="172.5" r="2.97" fill="#d4862a" opacity="0.17"/><circle cx="711.8" cy="173.4" r="3.82" fill="#d4862a" opacity="0.34"/><circle cx="751.0" cy="175.7" r="2.69" fill="#d4862a" opacity="0.17"/><circle cx="788.4" cy="171.6" r="3.52" fill="#d4862a" opacity="0.35"/><circle cx="822.9" cy="176.3" r="2.76" fill="#d4862a" opacity="0.26"/><circle cx="856.4" cy="174.6" r="3.07" fill="#d4862a" opacity="0.17"/><circle cx="891.2" cy="174.2" r="1.86" fill="#d4862a" opacity="0.17"/><circle cx="927.7" cy="176.5" r="3.64" fill="#d4862a" opacity="0.25"/><circle cx="964.8" cy="171.7" r="1.84" fill="#d4862a" opacity="0.19"/><circle cx="1000.4" cy="176.4" r="2.71" fill="#d4862a" opacity="0.24"/><circle cx="1039.3" cy="173.5" r="3.50" fill="#d4862a" opacity="0.35"/><circle cx="1073.0" cy="172.4" r="1.78" fill="#d4862a" opacity="0.23"/><circle cx="1108.9" cy="173.6" r="2.99" fill="#d4862a" opacity="0.34"/><circle cx="1145.6" cy="171.0" r="1.66" fill="#d4862a" opacity="0.21"/><circle cx="1184.8" cy="173.0" r="3.08" fill="#d4862a" opacity="0.30"/><circle cx="28.8" cy="210.1" r="3.22" fill="#d4862a" opacity="0.22"/><circle cx="67.4" cy="208.8" r="1.67" fill="#d4862a" opacity="0.19"/><circle cx="103.6" cy="207.7" r="3.76" fill="#d4862a" opacity="0.34"/><circle cx="140.6" cy="209.9" r="3.44" fill="#d4862a" opacity="0.32"/><circle cx="175.6" cy="211.5" r="3.27" fill="#d4862a" opacity="0.18"/><circle cx="211.8" cy="209.4" r="3.25" fill="#d4862a" opacity="0.19"/><circle cx="244.9" cy="212.5" r="1.77" fill="#d4862a" opacity="0.17"/><circle cx="283.2" cy="207.9" r="3.58" fill="#d4862a" opacity="0.35"/><circle cx="318.7" cy="210.5" r="1.90" fill="#d4862a" opacity="0.27"/><circle cx="355.3" cy="210.3" r="2.66" fill="#d4862a" opacity="0.26"/><circle cx="392.8" cy="209.8" r="3.06" fill="#d4862a" opacity="0.29"/><circle cx="426.7" cy="207.8" r="3.12" fill="#d4862a" opacity="0.20"/><circle cx="460.7" cy="210.3" r="3.56" fill="#d4862a" opacity="0.19"/><circle cx="497.3" cy="212.5" r="2.98" fill="#d4862a" opacity="0.28"/><circle cx="534.4" cy="211.4" r="2.24" fill="#d4862a" opacity="0.32"/><circle cx="567.6" cy="211.5" r="2.44" fill="#d4862a" opacity="0.21"/><circle cx="604.6" cy="209.2" r="3.67" fill="#d4862a" opacity="0.31"/><circle cx="644.3" cy="209.1" r="3.88" fill="#d4862a" opacity="0.24"/><circle cx="676.7" cy="211.7" r="3.82" fill="#d4862a" opacity="0.24"/><circle cx="711.5" cy="210.8" r="2.42" fill="#d4862a" opacity="0.29"/><circle cx="752.6" cy="212.1" r="1.91" fill="#d4862a" opacity="0.29"/><circle cx="785.7" cy="212.5" r="2.68" fill="#d4862a" opacity="0.25"/><circle cx="824.6" cy="207.7" r="1.87" fill="#d4862a" opacity="0.30"/><circle cx="860.9" cy="212.3" r="3.71" fill="#d4862a" opacity="0.22"/><circle cx="891.5" cy="207.7" r="3.62" fill="#d4862a" opacity="0.26"/><circle cx="930.0" cy="210.7" r="3.01" fill="#d4862a" opacity="0.17"/><circle cx="966.0" cy="213.0" r="2.28" fill="#d4862a" opacity="0.30"/><circle cx="1004.1" cy="208.8" r="2.39" fill="#d4862a" opacity="0.21"/><circle cx="1038.7" cy="210.8" r="3.09" fill="#d4862a" opacity="0.31"/><circle cx="1074.1" cy="207.4" r="3.69" fill="#d4862a" opacity="0.17"/><circle cx="1107.7" cy="210.5" r="1.62" fill="#d4862a" opacity="0.34"/><circle cx="1146.0" cy="207.6" r="2.26" fill="#d4862a" opacity="0.17"/><circle cx="1179.8" cy="207.8" r="2.46" fill="#d4862a" opacity="0.33"/><circle cx="29.4" cy="246.8" r="2.57" fill="#d4862a" opacity="0.32"/><circle cx="67.0" cy="243.4" r="2.50" fill="#d4862a" opacity="0.17"/><circle cx="101.6" cy="247.5" r="3.38" fill="#d4862a" opacity="0.32"/><circle cx="137.6" cy="246.3" r="3.84" fill="#d4862a" opacity="0.28"/><circle cx="171.6" cy="245.5" r="2.09" fill="#d4862a" opacity="0.21"/><circle cx="209.9" cy="245.7" r="1.92" fill="#d4862a" opacity="0.17"/><circle cx="247.3" cy="244.6" r="3.67" fill="#d4862a" opacity="0.18"/><circle cx="279.1" cy="246.5" r="3.80" fill="#d4862a" opacity="0.26"/><circle cx="316.9" cy="245.4" r="2.80" fill="#d4862a" opacity="0.19"/><circle cx="354.7" cy="248.7" r="2.44" fill="#d4862a" opacity="0.28"/><circle cx="391.4" cy="246.2" r="2.86" fill="#d4862a" opacity="0.32"/><circle cx="424.8" cy="244.6" r="2.14" fill="#d4862a" opacity="0.33"/><circle cx="461.5" cy="248.1" r="2.14" fill="#d4862a" opacity="0.19"/><circle cx="500.7" cy="247.5" r="1.89" fill="#d4862a" opacity="0.31"/><circle cx="537.0" cy="243.3" r="2.91" fill="#d4862a" opacity="0.32"/><circle cx="571.1" cy="245.8" r="3.96" fill="#d4862a" opacity="0.24"/><circle cx="607.8" cy="245.2" r="3.93" fill="#d4862a" opacity="0.34"/><circle cx="641.8" cy="248.8" r="2.50" fill="#d4862a" opacity="0.33"/><circle cx="675.0" cy="243.5" r="3.02" fill="#d4862a" opacity="0.24"/><circle cx="712.8" cy="247.7" r="3.34" fill="#d4862a" opacity="0.26"/><circle cx="749.9" cy="243.4" r="3.44" fill="#d4862a" opacity="0.23"/><circle cx="784.3" cy="246.8" r="1.71" fill="#d4862a" opacity="0.32"/><circle cx="824.4" cy="244.8" r="2.00" fill="#d4862a" opacity="0.33"/><circle cx="860.3" cy="247.6" r="2.06" fill="#d4862a" opacity="0.33"/><circle cx="895.8" cy="246.7" r="2.51" fill="#d4862a" opacity="0.21"/><circle cx="929.7" cy="244.9" r="2.01" fill="#d4862a" opacity="0.18"/><circle cx="968.1" cy="244.5" r="2.79" fill="#d4862a" opacity="0.28"/><circle cx="999.4" cy="247.4" r="2.15" fill="#d4862a" opacity="0.23"/><circle cx="1035.9" cy="247.8" r="3.87" fill="#d4862a" opacity="0.27"/><circle cx="1074.0" cy="246.2" r="3.28" fill="#d4862a" opacity="0.30"/><circle cx="1109.6" cy="245.0" r="3.42" fill="#d4862a" opacity="0.30"/><circle cx="1143.1" cy="247.6" r="3.17" fill="#d4862a" opacity="0.24"/><circle cx="1181.2" cy="246.8" r="3.90" fill="#d4862a" opacity="0.30"/><circle cx="31.3" cy="281.8" r="2.79" fill="#d4862a" opacity="0.32"/><circle cx="66.0" cy="284.1" r="2.94" fill="#d4862a" opacity="0.28"/><circle cx="99.1" cy="279.4" r="3.52" fill="#d4862a" opacity="0.24"/><circle cx="138.6" cy="279.9" r="3.86" fill="#d4862a" opacity="0.21"/><circle cx="171.4" cy="281.3" r="3.87" fill="#d4862a" opacity="0.24"/><circle cx="210.0" cy="284.2" r="3.44" fill="#d4862a" opacity="0.16"/><circle cx="248.9" cy="279.7" r="1.76" fill="#d4862a" opacity="0.29"/><circle cx="281.6" cy="284.1" r="3.39" fill="#d4862a" opacity="0.33"/><circle cx="315.3" cy="281.1" r="2.34" fill="#d4862a" opacity="0.17"/><circle cx="353.7" cy="284.4" r="3.03" fill="#d4862a" opacity="0.25"/><circle cx="390.7" cy="284.5" r="2.42" fill="#d4862a" opacity="0.23"/><circle cx="426.0" cy="283.2" r="2.30" fill="#d4862a" opacity="0.19"/><circle cx="461.2" cy="283.7" r="1.87" fill="#d4862a" opacity="0.36"/><circle cx="498.1" cy="279.9" r="1.93" fill="#d4862a" opacity="0.22"/><circle cx="534.6" cy="282.5" r="2.73" fill="#d4862a" opacity="0.31"/><circle cx="572.0" cy="284.3" r="3.98" fill="#d4862a" opacity="0.24"/><circle cx="608.8" cy="283.0" r="2.75" fill="#d4862a" opacity="0.16"/><circle cx="639.5" cy="283.2" r="2.86" fill="#d4862a" opacity="0.24"/><circle cx="680.4" cy="282.6" r="3.31" fill="#d4862a" opacity="0.29"/><circle cx="712.1" cy="282.0" r="2.34" fill="#d4862a" opacity="0.17"/><circle cx="749.3" cy="279.4" r="3.46" fill="#d4862a" opacity="0.32"/><circle cx="784.9" cy="282.2" r="1.63" fill="#d4862a" opacity="0.20"/><circle cx="820.2" cy="279.7" r="3.54" fill="#d4862a" opacity="0.32"/><circle cx="857.8" cy="279.6" r="3.61" fill="#d4862a" opacity="0.32"/><circle cx="893.5" cy="281.0" r="3.31" fill="#d4862a" opacity="0.27"/><circle cx="931.7" cy="283.4" r="3.13" fill="#d4862a" opacity="0.15"/><circle cx="969.0" cy="284.4" r="2.86" fill="#d4862a" opacity="0.24"/><circle cx="1001.7" cy="285.0" r="2.44" fill="#d4862a" opacity="0.18"/><circle cx="1035.3" cy="281.5" r="3.78" fill="#d4862a" opacity="0.36"/><circle cx="1075.4" cy="279.9" r="3.90" fill="#d4862a" opacity="0.25"/><circle cx="1107.6" cy="280.0" r="3.33" fill="#d4862a" opacity="0.32"/><circle cx="1146.0" cy="283.7" r="2.18" fill="#d4862a" opacity="0.35"/><circle cx="1184.1" cy="281.5" r="2.54" fill="#d4862a" opacity="0.29"/><circle cx="30.2" cy="318.5" r="1.71" fill="#d4862a" opacity="0.32"/><circle cx="67.1" cy="319.9" r="2.70" fill="#d4862a" opacity="0.21"/><circle cx="100.1" cy="318.4" r="1.88" fill="#d4862a" opacity="0.17"/><circle cx="139.5" cy="316.0" r="2.67" fill="#d4862a" opacity="0.27"/><circle cx="173.9" cy="315.1" r="2.95" fill="#d4862a" opacity="0.32"/><circle cx="207.6" cy="319.9" r="3.79" fill="#d4862a" opacity="0.34"/><circle cx="245.3" cy="317.5" r="3.12" fill="#d4862a" opacity="0.28"/><circle cx="282.7" cy="318.8" r="1.75" fill="#d4862a" opacity="0.18"/><circle cx="318.5" cy="317.7" r="1.97" fill="#d4862a" opacity="0.28"/><circle cx="353.7" cy="317.7" r="2.83" fill="#d4862a" opacity="0.27"/><circle cx="391.2" cy="318.9" r="3.95" fill="#d4862a" opacity="0.35"/><circle cx="426.0" cy="319.3" r="3.57" fill="#d4862a" opacity="0.16"/><circle cx="460.6" cy="320.5" r="2.04" fill="#d4862a" opacity="0.18"/><circle cx="500.1" cy="318.2" r="2.69" fill="#d4862a" opacity="0.17"/><circle cx="537.0" cy="316.5" r="2.15" fill="#d4862a" opacity="0.31"/><circle cx="571.2" cy="316.7" r="3.78" fill="#d4862a" opacity="0.30"/><circle cx="603.7" cy="318.3" r="3.46" fill="#d4862a" opacity="0.25"/><circle cx="639.9" cy="316.0" r="2.08" fill="#d4862a" opacity="0.26"/><circle cx="675.5" cy="316.5" r="1.69" fill="#d4862a" opacity="0.29"/><circle cx="712.4" cy="316.8" r="1.91" fill="#d4862a" opacity="0.23"/><circle cx="748.0" cy="316.1" r="2.03" fill="#d4862a" opacity="0.22"/><circle cx="785.2" cy="319.5" r="2.10" fill="#d4862a" opacity="0.26"/><circle cx="820.1" cy="319.6" r="3.94" fill="#d4862a" opacity="0.27"/><circle cx="859.5" cy="317.5" r="2.34" fill="#d4862a" opacity="0.31"/><circle cx="891.0" cy="316.0" r="3.44" fill="#d4862a" opacity="0.17"/><circle cx="930.0" cy="316.6" r="1.79" fill="#d4862a" opacity="0.32"/><circle cx="968.6" cy="318.8" r="2.24" fill="#d4862a" opacity="0.28"/><circle cx="1004.0" cy="315.4" r="3.93" fill="#d4862a" opacity="0.25"/><circle cx="1036.2" cy="315.8" r="2.57" fill="#d4862a" opacity="0.30"/><circle cx="1071.5" cy="316.8" r="1.82" fill="#d4862a" opacity="0.17"/><circle cx="1107.2" cy="320.9" r="2.69" fill="#d4862a" opacity="0.15"/><circle cx="1147.2" cy="315.8" r="3.13" fill="#d4862a" opacity="0.21"/><circle cx="1181.0" cy="320.8" r="2.28" fill="#d4862a" opacity="0.31"/><circle cx="31.7" cy="352.6" r="3.52" fill="#d4862a" opacity="0.23"/><circle cx="67.6" cy="351.1" r="1.80" fill="#d4862a" opacity="0.18"/><circle cx="104.9" cy="352.4" r="2.95" fill="#d4862a" opacity="0.23"/><circle cx="136.8" cy="356.2" r="3.08" fill="#d4862a" opacity="0.32"/><circle cx="171.2" cy="355.0" r="3.14" fill="#d4862a" opacity="0.27"/><circle cx="210.8" cy="355.8" r="2.22" fill="#d4862a" opacity="0.27"/><circle cx="248.7" cy="356.6" r="2.15" fill="#d4862a" opacity="0.21"/><circle cx="281.8" cy="351.3" r="1.92" fill="#d4862a" opacity="0.21"/><circle cx="318.5" cy="355.1" r="3.20" fill="#d4862a" opacity="0.24"/><circle cx="353.7" cy="356.0" r="2.45" fill="#d4862a" opacity="0.19"/><circle cx="388.3" cy="352.9" r="3.05" fill="#d4862a" opacity="0.32"/><circle cx="425.1" cy="356.0" r="3.39" fill="#d4862a" opacity="0.19"/><circle cx="463.2" cy="355.5" r="2.55" fill="#d4862a" opacity="0.32"/><circle cx="499.5" cy="354.3" r="2.23" fill="#d4862a" opacity="0.31"/><circle cx="533.8" cy="352.7" r="2.26" fill="#d4862a" opacity="0.26"/><circle cx="570.7" cy="355.2" r="2.11" fill="#d4862a" opacity="0.34"/><circle cx="608.8" cy="351.7" r="2.49" fill="#d4862a" opacity="0.15"/><circle cx="643.8" cy="355.1" r="1.76" fill="#d4862a" opacity="0.33"/><circle cx="678.7" cy="352.4" r="2.04" fill="#d4862a" opacity="0.32"/><circle cx="711.3" cy="352.8" r="3.49" fill="#d4862a" opacity="0.30"/><circle cx="747.6" cy="353.7" r="2.11" fill="#d4862a" opacity="0.17"/><circle cx="787.2" cy="356.5" r="2.82" fill="#d4862a" opacity="0.23"/><circle cx="820.0" cy="351.8" r="3.25" fill="#d4862a" opacity="0.20"/><circle cx="856.0" cy="352.7" r="3.60" fill="#d4862a" opacity="0.30"/><circle cx="895.5" cy="355.6" r="3.50" fill="#d4862a" opacity="0.28"/><circle cx="930.0" cy="351.1" r="2.98" fill="#d4862a" opacity="0.31"/><circle cx="967.9" cy="356.1" r="2.33" fill="#d4862a" opacity="0.18"/><circle cx="1000.4" cy="354.1" r="3.38" fill="#d4862a" opacity="0.35"/><circle cx="1035.5" cy="356.0" r="1.74" fill="#d4862a" opacity="0.26"/><circle cx="1075.6" cy="353.7" r="1.90" fill="#d4862a" opacity="0.22"/><circle cx="1110.8" cy="351.1" r="3.80" fill="#d4862a" opacity="0.35"/><circle cx="1147.6" cy="352.1" r="2.09" fill="#d4862a" opacity="0.26"/><circle cx="1180.5" cy="354.9" r="2.71" fill="#d4862a" opacity="0.30"/><circle cx="32.3" cy="392.1" r="2.55" fill="#d4862a" opacity="0.27"/><circle cx="64.1" cy="390.1" r="2.18" fill="#d4862a" opacity="0.27"/><circle cx="102.6" cy="387.2" r="2.38" fill="#d4862a" opacity="0.34"/><circle cx="136.9" cy="388.4" r="2.90" fill="#d4862a" opacity="0.36"/><circle cx="174.2" cy="391.3" r="3.29" fill="#d4862a" opacity="0.20"/><circle cx="211.6" cy="389.6" r="2.70" fill="#d4862a" opacity="0.19"/><circle cx="248.8" cy="388.8" r="3.83" fill="#d4862a" opacity="0.18"/><circle cx="282.9" cy="389.3" r="1.65" fill="#d4862a" opacity="0.23"/><circle cx="315.7" cy="390.0" r="1.99" fill="#d4862a" opacity="0.30"/><circle cx="351.1" cy="390.4" r="1.95" fill="#d4862a" opacity="0.20"/><circle cx="389.5" cy="389.4" r="2.39" fill="#d4862a" opacity="0.19"/><circle cx="423.3" cy="387.4" r="3.92" fill="#d4862a" opacity="0.26"/><circle cx="465.0" cy="390.6" r="2.27" fill="#d4862a" opacity="0.23"/><circle cx="498.5" cy="390.2" r="2.06" fill="#d4862a" opacity="0.29"/><circle cx="536.3" cy="389.4" r="2.00" fill="#d4862a" opacity="0.34"/><circle cx="568.0" cy="389.2" r="3.76" fill="#d4862a" opacity="0.21"/><circle cx="607.9" cy="392.9" r="2.96" fill="#d4862a" opacity="0.27"/><circle cx="644.5" cy="389.3" r="1.65" fill="#d4862a" opacity="0.35"/><circle cx="680.5" cy="388.6" r="2.66" fill="#d4862a" opacity="0.21"/><circle cx="713.9" cy="391.7" r="2.31" fill="#d4862a" opacity="0.21"/><circle cx="747.2" cy="389.9" r="3.14" fill="#d4862a" opacity="0.27"/><circle cx="786.2" cy="388.4" r="1.72" fill="#d4862a" opacity="0.17"/><circle cx="824.2" cy="392.3" r="2.38" fill="#d4862a" opacity="0.19"/><circle cx="859.8" cy="392.1" r="2.54" fill="#d4862a" opacity="0.33"/><circle cx="895.2" cy="389.1" r="2.35" fill="#d4862a" opacity="0.21"/><circle cx="929.3" cy="391.5" r="2.55" fill="#d4862a" opacity="0.23"/><circle cx="966.4" cy="390.9" r="3.07" fill="#d4862a" opacity="0.31"/><circle cx="1003.2" cy="388.9" r="3.40" fill="#d4862a" opacity="0.26"/><circle cx="1036.5" cy="389.5" r="3.39" fill="#d4862a" opacity="0.29"/><circle cx="1072.4" cy="391.9" r="2.15" fill="#d4862a" opacity="0.36"/><circle cx="1109.1" cy="392.7" r="2.83" fill="#d4862a" opacity="0.16"/><circle cx="1144.2" cy="389.8" r="2.10" fill="#d4862a" opacity="0.27"/><circle cx="1181.2" cy="391.2" r="3.97" fill="#d4862a" opacity="0.21"/><circle cx="30.8" cy="426.2" r="2.94" fill="#d4862a" opacity="0.29"/><circle cx="65.6" cy="424.1" r="2.20" fill="#d4862a" opacity="0.31"/><circle cx="104.4" cy="426.9" r="2.83" fill="#d4862a" opacity="0.25"/><circle cx="135.6" cy="423.9" r="2.68" fill="#d4862a" opacity="0.36"/><circle cx="177.0" cy="423.9" r="2.32" fill="#d4862a" opacity="0.32"/><circle cx="210.9" cy="427.2" r="2.82" fill="#d4862a" opacity="0.36"/><circle cx="244.1" cy="427.0" r="3.67" fill="#d4862a" opacity="0.21"/><circle cx="283.1" cy="425.4" r="2.82" fill="#d4862a" opacity="0.31"/><circle cx="317.8" cy="426.5" r="3.10" fill="#d4862a" opacity="0.20"/><circle cx="351.7" cy="423.0" r="2.39" fill="#d4862a" opacity="0.27"/><circle cx="392.4" cy="423.9" r="3.19" fill="#d4862a" opacity="0.26"/><circle cx="427.2" cy="423.5" r="2.47" fill="#d4862a" opacity="0.34"/><circle cx="459.9" cy="424.5" r="3.46" fill="#d4862a" opacity="0.35"/><circle cx="496.5" cy="423.4" r="3.96" fill="#d4862a" opacity="0.18"/><circle cx="535.4" cy="426.2" r="2.16" fill="#d4862a" opacity="0.26"/><circle cx="572.2" cy="423.7" r="1.89" fill="#d4862a" opacity="0.20"/><circle cx="608.8" cy="427.4" r="1.84" fill="#d4862a" opacity="0.18"/><circle cx="641.1" cy="423.9" r="3.53" fill="#d4862a" opacity="0.18"/><circle cx="678.7" cy="423.0" r="3.75" fill="#d4862a" opacity="0.26"/><circle cx="714.7" cy="426.6" r="1.85" fill="#d4862a" opacity="0.30"/><circle cx="749.1" cy="427.5" r="2.82" fill="#d4862a" opacity="0.36"/><circle cx="787.9" cy="427.1" r="1.68" fill="#d4862a" opacity="0.23"/><circle cx="820.0" cy="426.9" r="3.86" fill="#d4862a" opacity="0.16"/><circle cx="856.3" cy="428.1" r="3.32" fill="#d4862a" opacity="0.26"/><circle cx="896.9" cy="426.0" r="1.74" fill="#d4862a" opacity="0.17"/><circle cx="929.6" cy="428.8" r="1.87" fill="#d4862a" opacity="0.26"/><circle cx="963.2" cy="427.7" r="3.73" fill="#d4862a" opacity="0.20"/><circle cx="1001.8" cy="428.8" r="2.85" fill="#d4862a" opacity="0.33"/><circle cx="1035.3" cy="425.8" r="3.31" fill="#d4862a" opacity="0.18"/><circle cx="1076.9" cy="428.3" r="3.70" fill="#d4862a" opacity="0.24"/><circle cx="1110.4" cy="423.9" r="3.30" fill="#d4862a" opacity="0.32"/><circle cx="1143.7" cy="426.7" r="1.91" fill="#d4862a" opacity="0.23"/><circle cx="1179.7" cy="427.3" r="1.96" fill="#d4862a" opacity="0.28"/><circle cx="28.5" cy="459.9" r="1.65" fill="#d4862a" opacity="0.16"/><circle cx="67.7" cy="462.3" r="3.87" fill="#d4862a" opacity="0.18"/><circle cx="100.6" cy="462.4" r="3.84" fill="#d4862a" opacity="0.31"/><circle cx="140.7" cy="459.9" r="3.64" fill="#d4862a" opacity="0.33"/><circle cx="171.9" cy="464.8" r="2.80" fill="#d4862a" opacity="0.21"/><circle cx="212.8" cy="464.0" r="3.12" fill="#d4862a" opacity="0.24"/><circle cx="249.0" cy="464.9" r="2.61" fill="#d4862a" opacity="0.29"/><circle cx="281.0" cy="464.7" r="3.71" fill="#d4862a" opacity="0.28"/><circle cx="319.7" cy="460.0" r="3.67" fill="#d4862a" opacity="0.21"/><circle cx="355.1" cy="461.8" r="3.80" fill="#d4862a" opacity="0.21"/><circle cx="392.1" cy="463.5" r="2.92" fill="#d4862a" opacity="0.32"/><circle cx="423.3" cy="461.0" r="1.77" fill="#d4862a" opacity="0.26"/><circle cx="462.3" cy="460.8" r="2.26" fill="#d4862a" opacity="0.25"/><circle cx="498.0" cy="459.8" r="2.33" fill="#d4862a" opacity="0.22"/><circle cx="536.3" cy="461.7" r="2.98" fill="#d4862a" opacity="0.22"/><circle cx="567.4" cy="459.7" r="2.22" fill="#d4862a" opacity="0.32"/><circle cx="607.9" cy="464.6" r="2.86" fill="#d4862a" opacity="0.20"/><circle cx="639.9" cy="459.1" r="2.90" fill="#d4862a" opacity="0.30"/><circle cx="678.6" cy="461.6" r="3.16" fill="#d4862a" opacity="0.24"/><circle cx="713.4" cy="462.2" r="3.14" fill="#d4862a" opacity="0.33"/><circle cx="752.1" cy="463.6" r="3.96" fill="#d4862a" opacity="0.31"/><circle cx="784.0" cy="463.2" r="2.90" fill="#d4862a" opacity="0.17"/><circle cx="822.4" cy="459.1" r="3.01" fill="#d4862a" opacity="0.27"/><circle cx="860.2" cy="465.0" r="2.13" fill="#d4862a" opacity="0.25"/><circle cx="892.9" cy="459.1" r="1.72" fill="#d4862a" opacity="0.34"/><circle cx="931.9" cy="459.9" r="1.70" fill="#d4862a" opacity="0.27"/><circle cx="968.5" cy="463.4" r="3.66" fill="#d4862a" opacity="0.31"/><circle cx="1003.6" cy="464.5" r="3.52" fill="#d4862a" opacity="0.18"/><circle cx="1039.0" cy="461.9" r="3.99" fill="#d4862a" opacity="0.32"/><circle cx="1073.0" cy="459.7" r="3.68" fill="#d4862a" opacity="0.23"/><circle cx="1107.9" cy="459.9" r="2.89" fill="#d4862a" opacity="0.29"/><circle cx="1145.7" cy="461.2" r="2.21" fill="#d4862a" opacity="0.19"/><circle cx="1181.8" cy="462.0" r="3.00" fill="#d4862a" opacity="0.24"/><circle cx="29.8" cy="497.1" r="3.64" fill="#d4862a" opacity="0.29"/><circle cx="63.8" cy="495.5" r="2.55" fill="#d4862a" opacity="0.19"/><circle cx="103.4" cy="499.3" r="3.94" fill="#d4862a" opacity="0.17"/><circle cx="139.1" cy="498.9" r="2.33" fill="#d4862a" opacity="0.25"/><circle cx="172.9" cy="500.4" r="2.50" fill="#d4862a" opacity="0.17"/><circle cx="211.2" cy="495.3" r="3.51" fill="#d4862a" opacity="0.26"/><circle cx="245.2" cy="498.2" r="1.95" fill="#d4862a" opacity="0.22"/><circle cx="280.0" cy="499.5" r="3.67" fill="#d4862a" opacity="0.34"/><circle cx="315.4" cy="495.5" r="3.18" fill="#d4862a" opacity="0.35"/><circle cx="352.4" cy="495.6" r="2.28" fill="#d4862a" opacity="0.26"/><circle cx="391.3" cy="498.0" r="3.72" fill="#d4862a" opacity="0.27"/><circle cx="427.0" cy="495.3" r="2.34" fill="#d4862a" opacity="0.29"/><circle cx="464.5" cy="499.1" r="1.89" fill="#d4862a" opacity="0.26"/><circle cx="496.4" cy="498.6" r="3.69" fill="#d4862a" opacity="0.20"/><circle cx="532.3" cy="499.9" r="3.97" fill="#d4862a" opacity="0.27"/><circle cx="571.7" cy="499.3" r="3.74" fill="#d4862a" opacity="0.22"/><circle cx="608.3" cy="497.2" r="1.64" fill="#d4862a" opacity="0.32"/><circle cx="641.9" cy="495.4" r="1.70" fill="#d4862a" opacity="0.19"/><circle cx="677.5" cy="496.2" r="1.84" fill="#d4862a" opacity="0.31"/><circle cx="714.9" cy="497.0" r="2.18" fill="#d4862a" opacity="0.33"/><circle cx="749.3" cy="498.3" r="3.48" fill="#d4862a" opacity="0.20"/><circle cx="786.0" cy="500.7" r="3.37" fill="#d4862a" opacity="0.30"/><circle cx="821.8" cy="497.7" r="1.70" fill="#d4862a" opacity="0.32"/><circle cx="858.0" cy="497.9" r="2.51" fill="#d4862a" opacity="0.30"/><circle cx="891.7" cy="495.2" r="3.43" fill="#d4862a" opacity="0.18"/><circle cx="927.4" cy="497.4" r="2.35" fill="#d4862a" opacity="0.19"/><circle cx="968.5" cy="495.9" r="2.26" fill="#d4862a" opacity="0.34"/><circle cx="1002.6" cy="498.5" r="2.18" fill="#d4862a" opacity="0.23"/><circle cx="1040.2" cy="499.8" r="2.45" fill="#d4862a" opacity="0.26"/><circle cx="1071.1" cy="497.0" r="1.99" fill="#d4862a" opacity="0.35"/><circle cx="1112.2" cy="498.3" r="1.66" fill="#d4862a" opacity="0.19"/><circle cx="1145.2" cy="500.3" r="2.40" fill="#d4862a" opacity="0.16"/><circle cx="1183.5" cy="497.3" r="3.83" fill="#d4862a" opacity="0.21"/><circle cx="31.6" cy="533.1" r="3.54" fill="#d4862a" opacity="0.25"/><circle cx="63.0" cy="536.8" r="3.83" fill="#d4862a" opacity="0.29"/><circle cx="102.0" cy="535.6" r="2.00" fill="#d4862a" opacity="0.28"/><circle cx="136.7" cy="534.0" r="3.77" fill="#d4862a" opacity="0.24"/><circle cx="175.8" cy="534.6" r="1.68" fill="#d4862a" opacity="0.30"/><circle cx="207.6" cy="536.0" r="3.33" fill="#d4862a" opacity="0.24"/><circle cx="248.6" cy="533.8" r="1.97" fill="#d4862a" opacity="0.17"/><circle cx="281.8" cy="534.4" r="3.13" fill="#d4862a" opacity="0.21"/><circle cx="316.0" cy="536.5" r="2.98" fill="#d4862a" opacity="0.23"/><circle cx="355.1" cy="533.4" r="2.17" fill="#d4862a" opacity="0.34"/><circle cx="392.1" cy="531.0" r="2.21" fill="#d4862a" opacity="0.20"/><circle cx="424.9" cy="531.5" r="1.87" fill="#d4862a" opacity="0.35"/><circle cx="460.2" cy="531.1" r="2.49" fill="#d4862a" opacity="0.32"/><circle cx="499.8" cy="531.9" r="2.56" fill="#d4862a" opacity="0.34"/><circle cx="533.2" cy="534.1" r="2.57" fill="#d4862a" opacity="0.25"/><circle cx="567.7" cy="531.7" r="3.57" fill="#d4862a" opacity="0.18"/><circle cx="607.1" cy="534.2" r="3.55" fill="#d4862a" opacity="0.28"/><circle cx="643.9" cy="537.0" r="3.46" fill="#d4862a" opacity="0.36"/><circle cx="675.7" cy="532.8" r="2.98" fill="#d4862a" opacity="0.23"/><circle cx="715.5" cy="533.9" r="2.13" fill="#d4862a" opacity="0.16"/><circle cx="749.5" cy="532.2" r="1.75" fill="#d4862a" opacity="0.34"/><circle cx="784.0" cy="534.4" r="2.35" fill="#d4862a" opacity="0.36"/><circle cx="819.5" cy="532.2" r="3.25" fill="#d4862a" opacity="0.27"/><circle cx="857.3" cy="535.2" r="2.71" fill="#d4862a" opacity="0.21"/><circle cx="892.3" cy="532.9" r="1.97" fill="#d4862a" opacity="0.30"/><circle cx="931.2" cy="534.4" r="3.89" fill="#d4862a" opacity="0.18"/><circle cx="968.7" cy="536.3" r="2.70" fill="#d4862a" opacity="0.17"/><circle cx="999.2" cy="534.9" r="1.98" fill="#d4862a" opacity="0.29"/><circle cx="1036.8" cy="535.4" r="3.22" fill="#d4862a" opacity="0.22"/><circle cx="1072.2" cy="533.7" r="2.25" fill="#d4862a" opacity="0.25"/><circle cx="1109.8" cy="532.8" r="3.01" fill="#d4862a" opacity="0.23"/><circle cx="1147.2" cy="532.3" r="1.88" fill="#d4862a" opacity="0.25"/><circle cx="1180.1" cy="533.9" r="3.97" fill="#d4862a" opacity="0.15"/><circle cx="27.1" cy="572.6" r="3.83" fill="#d4862a" opacity="0.15"/><circle cx="67.6" cy="571.5" r="2.81" fill="#d4862a" opacity="0.16"/><circle cx="101.2" cy="567.8" r="2.74" fill="#d4862a" opacity="0.25"/><circle cx="135.7" cy="570.3" r="3.85" fill="#d4862a" opacity="0.35"/><circle cx="172.1" cy="571.3" r="3.43" fill="#d4862a" opacity="0.22"/><circle cx="207.0" cy="570.0" r="3.18" fill="#d4862a" opacity="0.17"/><circle cx="245.9" cy="568.1" r="3.36" fill="#d4862a" opacity="0.24"/><circle cx="280.6" cy="567.3" r="3.10" fill="#d4862a" opacity="0.36"/><circle cx="319.2" cy="570.4" r="3.86" fill="#d4862a" opacity="0.21"/><circle cx="354.1" cy="567.1" r="3.83" fill="#d4862a" opacity="0.32"/><circle cx="391.1" cy="568.5" r="2.32" fill="#d4862a" opacity="0.35"/><circle cx="428.2" cy="568.3" r="2.44" fill="#d4862a" opacity="0.33"/><circle cx="461.9" cy="568.1" r="3.61" fill="#d4862a" opacity="0.35"/><circle cx="498.1" cy="571.0" r="3.11" fill="#d4862a" opacity="0.17"/><circle cx="536.5" cy="571.2" r="1.80" fill="#d4862a" opacity="0.20"/><circle cx="572.7" cy="571.4" r="2.29" fill="#d4862a" opacity="0.16"/><circle cx="605.1" cy="572.9" r="2.18" fill="#d4862a" opacity="0.19"/><circle cx="644.1" cy="567.0" r="2.03" fill="#d4862a" opacity="0.29"/><circle cx="676.2" cy="569.9" r="2.34" fill="#d4862a" opacity="0.31"/><circle cx="714.5" cy="568.4" r="2.18" fill="#d4862a" opacity="0.35"/><circle cx="752.4" cy="569.1" r="1.69" fill="#d4862a" opacity="0.24"/><circle cx="783.6" cy="571.2" r="3.62" fill="#d4862a" opacity="0.23"/><circle cx="819.8" cy="571.7" r="2.77" fill="#d4862a" opacity="0.27"/><circle cx="858.0" cy="571.5" r="2.21" fill="#d4862a" opacity="0.32"/><circle cx="894.5" cy="568.0" r="2.95" fill="#d4862a" opacity="0.31"/><circle cx="929.4" cy="570.4" r="3.26" fill="#d4862a" opacity="0.16"/><circle cx="965.7" cy="568.5" r="3.37" fill="#d4862a" opacity="0.24"/><circle cx="1000.9" cy="570.7" r="2.72" fill="#d4862a" opacity="0.35"/><circle cx="1038.7" cy="572.6" r="2.52" fill="#d4862a" opacity="0.32"/><circle cx="1071.2" cy="572.1" r="3.28" fill="#d4862a" opacity="0.25"/><circle cx="1107.5" cy="571.8" r="2.39" fill="#d4862a" opacity="0.30"/><circle cx="1143.2" cy="567.1" r="3.37" fill="#d4862a" opacity="0.32"/><circle cx="1184.3" cy="572.7" r="2.66" fill="#d4862a" opacity="0.19"/><circle cx="30.6" cy="604.3" r="2.04" fill="#d4862a" opacity="0.15"/><circle cx="67.2" cy="608.3" r="3.22" fill="#d4862a" opacity="0.22"/><circle cx="103.5" cy="604.6" r="2.29" fill="#d4862a" opacity="0.29"/><circle cx="135.8" cy="607.0" r="2.05" fill="#d4862a" opacity="0.24"/><circle cx="173.6" cy="603.0" r="2.91" fill="#d4862a" opacity="0.17"/><circle cx="209.7" cy="605.6" r="2.83" fill="#d4862a" opacity="0.26"/><circle cx="244.2" cy="603.8" r="3.04" fill="#d4862a" opacity="0.19"/><circle cx="284.8" cy="603.2" r="1.72" fill="#d4862a" opacity="0.20"/><circle cx="319.4" cy="606.0" r="1.69" fill="#d4862a" opacity="0.24"/><circle cx="355.6" cy="605.3" r="3.62" fill="#d4862a" opacity="0.20"/><circle cx="392.3" cy="607.7" r="3.72" fill="#d4862a" opacity="0.21"/><circle cx="426.4" cy="605.1" r="2.44" fill="#d4862a" opacity="0.28"/><circle cx="463.1" cy="604.1" r="1.89" fill="#d4862a" opacity="0.18"/><circle cx="497.1" cy="608.3" r="1.62" fill="#d4862a" opacity="0.29"/><circle cx="531.2" cy="605.0" r="2.48" fill="#d4862a" opacity="0.22"/><circle cx="570.2" cy="604.8" r="2.57" fill="#d4862a" opacity="0.28"/><circle cx="603.9" cy="608.3" r="3.61" fill="#d4862a" opacity="0.28"/><circle cx="644.9" cy="604.7" r="2.05" fill="#d4862a" opacity="0.34"/><circle cx="675.3" cy="604.8" r="3.07" fill="#d4862a" opacity="0.21"/><circle cx="716.3" cy="606.5" r="2.52" fill="#d4862a" opacity="0.22"/><circle cx="748.2" cy="605.2" r="3.60" fill="#d4862a" opacity="0.26"/><circle cx="787.6" cy="606.2" r="4.00" fill="#d4862a" opacity="0.31"/><circle cx="824.6" cy="607.1" r="2.80" fill="#d4862a" opacity="0.35"/><circle cx="856.1" cy="607.5" r="1.91" fill="#d4862a" opacity="0.35"/><circle cx="895.9" cy="608.7" r="3.02" fill="#d4862a" opacity="0.25"/><circle cx="930.1" cy="604.7" r="2.91" fill="#d4862a" opacity="0.25"/><circle cx="967.0" cy="607.3" r="3.71" fill="#d4862a" opacity="0.22"/><circle cx="1000.1" cy="608.2" r="1.83" fill="#d4862a" opacity="0.19"/><circle cx="1038.7" cy="608.1" r="3.02" fill="#d4862a" opacity="0.33"/><circle cx="1073.6" cy="606.0" r="2.11" fill="#d4862a" opacity="0.15"/><circle cx="1109.4" cy="607.1" r="2.40" fill="#d4862a" opacity="0.35"/><circle cx="1144.6" cy="607.3" r="1.62" fill="#d4862a" opacity="0.15"/><circle cx="1183.4" cy="606.7" r="2.25" fill="#d4862a" opacity="0.24"/><circle cx="28.4" cy="641.8" r="3.04" fill="#d4862a" opacity="0.26"/><circle cx="64.6" cy="639.6" r="2.34" fill="#d4862a" opacity="0.34"/><circle cx="100.7" cy="643.6" r="3.63" fill="#d4862a" opacity="0.18"/><circle cx="135.6" cy="644.2" r="3.41" fill="#d4862a" opacity="0.22"/><circle cx="172.9" cy="642.0" r="3.51" fill="#d4862a" opacity="0.15"/><circle cx="211.2" cy="641.3" r="3.49" fill="#d4862a" opacity="0.28"/><circle cx="243.3" cy="640.9" r="2.21" fill="#d4862a" opacity="0.36"/><circle cx="280.1" cy="643.2" r="2.72" fill="#d4862a" opacity="0.33"/><circle cx="320.6" cy="639.5" r="2.07" fill="#d4862a" opacity="0.24"/><circle cx="355.5" cy="644.7" r="2.31" fill="#d4862a" opacity="0.16"/><circle cx="390.4" cy="642.7" r="3.95" fill="#d4862a" opacity="0.20"/><circle cx="428.6" cy="643.2" r="3.73" fill="#d4862a" opacity="0.21"/><circle cx="464.3" cy="639.1" r="1.88" fill="#d4862a" opacity="0.26"/><circle cx="500.5" cy="642.2" r="1.69" fill="#d4862a" opacity="0.29"/><circle cx="531.9" cy="639.3" r="3.02" fill="#d4862a" opacity="0.32"/><circle cx="567.1" cy="639.5" r="3.27" fill="#d4862a" opacity="0.29"/><circle cx="606.5" cy="644.0" r="2.89" fill="#d4862a" opacity="0.18"/><circle cx="642.2" cy="644.1" r="3.15" fill="#d4862a" opacity="0.20"/><circle cx="680.5" cy="644.0" r="2.03" fill="#d4862a" opacity="0.23"/><circle cx="716.4" cy="641.0" r="3.37" fill="#d4862a" opacity="0.36"/><circle cx="750.2" cy="642.8" r="3.82" fill="#d4862a" opacity="0.30"/><circle cx="788.9" cy="644.9" r="2.61" fill="#d4862a" opacity="0.32"/><circle cx="824.9" cy="643.3" r="3.87" fill="#d4862a" opacity="0.30"/><circle cx="858.4" cy="643.3" r="2.59" fill="#d4862a" opacity="0.22"/><circle cx="892.9" cy="643.1" r="3.80" fill="#d4862a" opacity="0.35"/><circle cx="932.9" cy="644.0" r="1.70" fill="#d4862a" opacity="0.30"/><circle cx="968.2" cy="639.4" r="2.52" fill="#d4862a" opacity="0.25"/><circle cx="1002.3" cy="644.9" r="3.27" fill="#d4862a" opacity="0.29"/><circle cx="1039.6" cy="641.5" r="1.74" fill="#d4862a" opacity="0.16"/><circle cx="1071.3" cy="643.8" r="3.59" fill="#d4862a" opacity="0.24"/><circle cx="1112.0" cy="641.1" r="1.90" fill="#d4862a" opacity="0.25"/><circle cx="1148.6" cy="639.2" r="3.52" fill="#d4862a" opacity="0.18"/><circle cx="1179.4" cy="641.1" r="3.07" fill="#d4862a" opacity="0.23"/><circle cx="207.9" cy="279.5" r="220" fill="url(#glow)" opacity="0.9"/>
  <g opacity="0.85" transform="translate(1020, 495)">
        <circle r="68" fill="none" stroke="#d4862a" stroke-width="2" opacity="0.35"/>
        <path d="M -38 12 L 38 12 M -32 -8 L 32 -8 M -45 -28 L 45 -28" stroke="#bd6b20" stroke-width="3" stroke-linecap="round"/>
        <rect x="-50" y="-44" width="100" height="80" fill="none" stroke="#d4862a" stroke-width="2"/>
      </g>
  <g transform="translate(80, 90)">
    <rect x="0" y="0" rx="20" ry="20" width="112" height="38" fill="#d4862a" opacity="0.18" stroke="#d4862a" stroke-width="1.5"/>
    <text x="56" y="25" font-family="ui-sans-serif, Inter, sans-serif" font-weight="700" font-size="14" letter-spacing="2.5" fill="#d4862a" text-anchor="middle">NEWSROOM</text>
  </g>
  <text x="80" y="465" font-family="ui-sans-serif, -apple-system, Segoe UI, Inter, sans-serif" font-weight="800" font-size="44" fill="#faf8f5" opacity="0.98"><tspan x="80" dy="0">Bombay HC Upholds</tspan><tspan x="80" dy="56">Arbitration Clause in</tspan><tspan x="80" dy="56">Invoices | Legal News</tspan></text>
  <rect x="0" y="669" width="1200" height="6" fill="url(#gold)"/>
</svg>