<?xml version="1.0" encoding="UTF-8"?>
<svg xmlns="http://www.w3.org/2000/svg" viewBox="0 0 1200 675" width="1200" height="675" role="img" aria-label="Bombay High Court: Discretionary Power in Section 34(4) of the Act">
  <defs>
    <linearGradient id="bg" x1="0%" y1="0%" x2="100%" y2="100%">
      <stop offset="0%" stop-color="#faf8f5"/>
      <stop offset="100%" stop-color="#f4efe8"/>
    </linearGradient>
    <linearGradient id="gold" x1="0%" y1="0%" x2="100%" y2="100%">
      <stop offset="0%" stop-color="#bd6b20"/>
      <stop offset="100%" stop-color="#9a5518"/>
    </linearGradient>
    <radialGradient id="glow" cx="50%" cy="50%" r="50%">
      <stop offset="0%" stop-color="#bd6b20" stop-opacity="0.45"/>
      <stop offset="100%" stop-color="#bd6b20" stop-opacity="0"/>
    </radialGradient>
  </defs>
  <rect width="1200" height="675" fill="url(#bg)"/>
  <circle cx="29.2" cy="32.5" r="3.22" fill="#bd6b20" opacity="0.35"/><circle cx="67.7" cy="27.2" r="2.66" fill="#bd6b20" opacity="0.34"/><circle cx="104.4" cy="29.6" r="2.11" fill="#bd6b20" opacity="0.21"/><circle cx="135.2" cy="29.4" r="3.74" fill="#bd6b20" opacity="0.21"/><circle cx="172.1" cy="30.8" r="3.16" fill="#bd6b20" opacity="0.30"/><circle cx="210.9" cy="31.5" r="3.09" fill="#bd6b20" opacity="0.24"/><circle cx="244.7" cy="32.3" r="3.09" fill="#bd6b20" opacity="0.27"/><circle cx="279.8" cy="28.8" r="2.00" fill="#bd6b20" opacity="0.28"/><circle cx="319.5" cy="31.6" r="3.48" fill="#bd6b20" opacity="0.19"/><circle cx="353.4" cy="30.0" r="3.00" fill="#bd6b20" opacity="0.35"/><circle cx="392.5" cy="32.5" r="3.47" fill="#bd6b20" opacity="0.27"/><circle cx="426.7" cy="29.0" r="1.66" fill="#bd6b20" opacity="0.28"/><circle cx="459.3" cy="27.2" r="3.33" fill="#bd6b20" opacity="0.26"/><circle cx="499.4" cy="30.1" r="2.22" fill="#bd6b20" opacity="0.26"/><circle cx="533.7" cy="30.2" r="3.49" fill="#bd6b20" opacity="0.29"/><circle cx="572.7" cy="32.8" r="3.19" fill="#bd6b20" opacity="0.28"/><circle cx="605.4" cy="27.1" r="3.11" fill="#bd6b20" opacity="0.28"/><circle cx="643.0" cy="31.7" r="3.60" fill="#bd6b20" opacity="0.20"/><circle cx="679.8" cy="28.9" r="3.73" fill="#bd6b20" opacity="0.31"/><circle cx="715.2" cy="29.7" r="2.74" fill="#bd6b20" opacity="0.16"/><circle cx="748.9" cy="30.3" r="1.78" fill="#bd6b20" opacity="0.29"/><circle cx="785.2" cy="28.4" r="2.18" fill="#bd6b20" opacity="0.32"/><circle cx="824.2" cy="30.0" r="1.73" fill="#bd6b20" opacity="0.21"/><circle cx="855.4" cy="31.0" r="3.29" fill="#bd6b20" opacity="0.15"/><circle cx="896.6" cy="27.8" r="3.98" fill="#bd6b20" opacity="0.26"/><circle cx="930.0" cy="31.8" r="2.62" fill="#bd6b20" opacity="0.23"/><circle cx="968.6" cy="27.6" r="1.73" fill="#bd6b20" opacity="0.34"/><circle cx="1001.3" cy="30.5" r="2.90" fill="#bd6b20" opacity="0.31"/><circle cx="1038.8" cy="29.8" r="2.91" fill="#bd6b20" opacity="0.24"/><circle cx="1076.9" cy="30.0" r="3.34" fill="#bd6b20" opacity="0.34"/><circle cx="1107.5" cy="29.5" r="3.02" fill="#bd6b20" opacity="0.34"/><circle cx="1148.1" cy="27.4" r="3.53" fill="#bd6b20" opacity="0.22"/><circle cx="1180.1" cy="30.0" r="2.78" fill="#bd6b20" opacity="0.17"/><circle cx="27.0" cy="65.9" r="2.48" fill="#bd6b20" opacity="0.21"/><circle cx="68.9" cy="66.8" r="1.61" fill="#bd6b20" opacity="0.18"/><circle cx="101.7" cy="67.2" r="2.33" fill="#bd6b20" opacity="0.29"/><circle cx="140.1" cy="67.1" r="3.55" fill="#bd6b20" opacity="0.31"/><circle cx="173.8" cy="68.8" r="2.71" fill="#bd6b20" opacity="0.33"/><circle cx="209.6" cy="65.2" r="2.16" fill="#bd6b20" opacity="0.32"/><circle cx="248.9" cy="67.7" r="3.23" fill="#bd6b20" opacity="0.25"/><circle cx="282.9" cy="68.2" r="3.26" fill="#bd6b20" opacity="0.22"/><circle cx="317.8" cy="67.4" r="2.90" fill="#bd6b20" opacity="0.25"/><circle cx="352.3" cy="64.7" r="2.18" fill="#bd6b20" opacity="0.26"/><circle cx="392.6" cy="65.2" r="3.55" fill="#bd6b20" opacity="0.33"/><circle cx="423.1" cy="63.3" r="3.83" fill="#bd6b20" opacity="0.16"/><circle cx="461.0" cy="64.7" r="2.62" fill="#bd6b20" opacity="0.28"/><circle cx="498.3" cy="63.4" r="2.75" fill="#bd6b20" opacity="0.22"/><circle cx="535.9" cy="67.0" r="3.55" fill="#bd6b20" opacity="0.24"/><circle cx="568.3" cy="67.9" r="2.65" fill="#bd6b20" opacity="0.35"/><circle cx="606.0" cy="63.7" r="1.79" fill="#bd6b20" opacity="0.22"/><circle cx="642.3" cy="64.5" r="2.88" fill="#bd6b20" opacity="0.32"/><circle cx="677.5" cy="65.5" r="3.96" fill="#bd6b20" opacity="0.34"/><circle cx="712.1" cy="65.1" r="2.33" fill="#bd6b20" opacity="0.15"/><circle cx="750.3" cy="68.9" r="2.08" fill="#bd6b20" opacity="0.28"/><circle cx="784.3" cy="65.8" r="3.03" fill="#bd6b20" opacity="0.25"/><circle cx="819.6" cy="65.7" r="3.94" fill="#bd6b20" opacity="0.19"/><circle cx="855.1" cy="63.4" r="3.01" fill="#bd6b20" opacity="0.29"/><circle cx="891.8" cy="65.9" r="3.13" fill="#bd6b20" opacity="0.31"/><circle cx="931.5" cy="65.6" r="2.88" fill="#bd6b20" opacity="0.25"/><circle cx="966.7" cy="65.7" r="3.32" fill="#bd6b20" opacity="0.19"/><circle cx="1000.2" cy="63.5" r="3.41" fill="#bd6b20" opacity="0.33"/><circle cx="1039.6" cy="65.8" r="2.73" fill="#bd6b20" opacity="0.21"/><circle cx="1075.5" cy="65.5" r="3.16" fill="#bd6b20" opacity="0.27"/><circle cx="1111.2" cy="65.5" r="3.57" fill="#bd6b20" opacity="0.18"/><circle cx="1147.9" cy="67.2" r="2.54" fill="#bd6b20" opacity="0.18"/><circle cx="1184.3" cy="65.4" r="2.18" fill="#bd6b20" opacity="0.34"/><circle cx="29.1" cy="101.7" r="2.11" fill="#bd6b20" opacity="0.35"/><circle cx="68.8" cy="103.9" r="3.66" fill="#bd6b20" opacity="0.20"/><circle cx="99.0" cy="102.1" r="3.63" fill="#bd6b20" opacity="0.32"/><circle cx="135.3" cy="102.4" r="3.30" fill="#bd6b20" opacity="0.20"/><circle cx="175.0" cy="102.2" r="3.82" fill="#bd6b20" opacity="0.22"/><circle cx="208.5" cy="101.4" r="2.95" fill="#bd6b20" opacity="0.26"/><circle cx="245.3" cy="100.6" r="2.69" fill="#bd6b20" opacity="0.32"/><circle cx="282.4" cy="104.6" r="2.37" fill="#bd6b20" opacity="0.22"/><circle cx="317.9" cy="104.2" r="3.55" fill="#bd6b20" opacity="0.18"/><circle cx="355.2" cy="104.8" r="2.89" fill="#bd6b20" opacity="0.25"/><circle cx="392.2" cy="100.5" r="2.66" fill="#bd6b20" opacity="0.20"/><circle cx="428.2" cy="102.6" r="2.87" fill="#bd6b20" opacity="0.27"/><circle cx="459.7" cy="104.7" r="3.93" fill="#bd6b20" opacity="0.20"/><circle cx="500.1" cy="102.2" r="3.85" fill="#bd6b20" opacity="0.23"/><circle cx="535.0" cy="103.4" r="3.68" fill="#bd6b20" opacity="0.36"/><circle cx="572.9" cy="104.2" r="2.10" fill="#bd6b20" opacity="0.36"/><circle cx="608.0" cy="99.2" r="3.87" fill="#bd6b20" opacity="0.30"/><circle cx="644.1" cy="103.2" r="2.98" fill="#bd6b20" opacity="0.20"/><circle cx="675.1" cy="102.7" r="2.13" fill="#bd6b20" opacity="0.29"/><circle cx="714.1" cy="99.7" r="1.66" fill="#bd6b20" opacity="0.26"/><circle cx="750.2" cy="101.4" r="2.86" fill="#bd6b20" opacity="0.33"/><circle cx="784.3" cy="103.9" r="2.85" fill="#bd6b20" opacity="0.35"/><circle cx="820.1" cy="101.3" r="2.08" fill="#bd6b20" opacity="0.26"/><circle cx="855.6" cy="101.4" r="2.97" fill="#bd6b20" opacity="0.24"/><circle cx="893.8" cy="102.9" r="2.00" fill="#bd6b20" opacity="0.21"/><circle cx="931.4" cy="105.0" r="3.09" fill="#bd6b20" opacity="0.36"/><circle cx="966.1" cy="101.8" r="3.70" fill="#bd6b20" opacity="0.36"/><circle cx="999.1" cy="102.8" r="3.43" fill="#bd6b20" opacity="0.20"/><circle cx="1037.8" cy="102.4" r="2.07" fill="#bd6b20" opacity="0.17"/><circle cx="1072.2" cy="100.3" r="3.82" fill="#bd6b20" opacity="0.23"/><circle cx="1110.9" cy="100.6" r="3.31" fill="#bd6b20" opacity="0.19"/><circle cx="1145.9" cy="101.6" r="2.81" fill="#bd6b20" opacity="0.19"/><circle cx="1185.0" cy="100.7" r="3.65" fill="#bd6b20" opacity="0.19"/><circle cx="31.2" cy="136.5" r="2.31" fill="#bd6b20" opacity="0.32"/><circle cx="66.8" cy="138.3" r="2.94" fill="#bd6b20" opacity="0.26"/><circle cx="99.9" cy="140.3" r="3.40" fill="#bd6b20" opacity="0.33"/><circle cx="138.7" cy="138.5" r="1.91" fill="#bd6b20" opacity="0.23"/><circle cx="176.5" cy="138.1" r="2.24" fill="#bd6b20" opacity="0.16"/><circle cx="212.4" cy="136.5" r="3.39" fill="#bd6b20" opacity="0.28"/><circle cx="246.0" cy="139.6" r="2.35" fill="#bd6b20" opacity="0.27"/><circle cx="282.9" cy="135.5" r="2.09" fill="#bd6b20" opacity="0.18"/><circle cx="320.8" cy="135.2" r="1.90" fill="#bd6b20" opacity="0.31"/><circle cx="351.0" cy="136.8" r="1.83" fill="#bd6b20" opacity="0.23"/><circle cx="392.2" cy="135.4" r="2.73" fill="#bd6b20" opacity="0.28"/><circle cx="428.3" cy="137.7" r="2.95" fill="#bd6b20" opacity="0.27"/><circle cx="462.5" cy="137.9" r="2.64" fill="#bd6b20" opacity="0.31"/><circle cx="499.0" cy="138.1" r="3.93" fill="#bd6b20" opacity="0.19"/><circle cx="535.8" cy="136.8" r="3.35" fill="#bd6b20" opacity="0.28"/><circle cx="569.3" cy="138.2" r="3.41" fill="#bd6b20" opacity="0.32"/><circle cx="606.5" cy="139.3" r="3.49" fill="#bd6b20" opacity="0.17"/><circle cx="644.6" cy="140.0" r="2.39" fill="#bd6b20" opacity="0.27"/><circle cx="675.8" cy="135.4" r="1.81" fill="#bd6b20" opacity="0.30"/><circle cx="712.9" cy="135.9" r="2.68" fill="#bd6b20" opacity="0.29"/><circle cx="748.8" cy="135.5" r="2.28" fill="#bd6b20" opacity="0.17"/><circle cx="783.8" cy="140.9" r="2.86" fill="#bd6b20" opacity="0.26"/><circle cx="824.0" cy="138.9" r="2.22" fill="#bd6b20" opacity="0.25"/><circle cx="860.8" cy="135.7" r="1.84" fill="#bd6b20" opacity="0.18"/><circle cx="895.9" cy="138.2" r="1.68" fill="#bd6b20" opacity="0.20"/><circle cx="929.7" cy="138.9" r="2.45" fill="#bd6b20" opacity="0.25"/><circle cx="966.4" cy="138.4" r="2.09" fill="#bd6b20" opacity="0.28"/><circle cx="999.5" cy="139.3" r="2.73" fill="#bd6b20" opacity="0.22"/><circle cx="1040.0" cy="138.0" r="3.98" fill="#bd6b20" opacity="0.18"/><circle cx="1072.0" cy="138.2" r="3.14" fill="#bd6b20" opacity="0.16"/><circle cx="1109.3" cy="138.2" r="3.68" fill="#bd6b20" opacity="0.31"/><circle cx="1143.1" cy="139.4" r="2.18" fill="#bd6b20" opacity="0.32"/><circle cx="1184.5" cy="138.5" r="3.96" fill="#bd6b20" opacity="0.21"/><circle cx="28.5" cy="174.4" r="3.97" fill="#bd6b20" opacity="0.23"/><circle cx="64.6" cy="174.0" r="1.79" fill="#bd6b20" opacity="0.34"/><circle cx="101.5" cy="174.6" r="1.87" fill="#bd6b20" opacity="0.33"/><circle cx="138.8" cy="176.7" r="2.46" fill="#bd6b20" opacity="0.24"/><circle cx="175.1" cy="173.3" r="1.74" fill="#bd6b20" opacity="0.23"/><circle cx="208.7" cy="171.4" r="2.62" fill="#bd6b20" opacity="0.33"/><circle cx="243.6" cy="175.8" r="1.96" fill="#bd6b20" opacity="0.22"/><circle cx="284.9" cy="171.5" r="3.53" fill="#bd6b20" opacity="0.20"/><circle cx="317.2" cy="171.7" r="1.87" fill="#bd6b20" opacity="0.31"/><circle cx="354.2" cy="172.7" r="1.78" fill="#bd6b20" opacity="0.31"/><circle cx="387.3" cy="176.7" r="1.98" fill="#bd6b20" opacity="0.17"/><circle cx="425.4" cy="174.0" r="3.28" fill="#bd6b20" opacity="0.24"/><circle cx="463.4" cy="175.2" r="2.12" fill="#bd6b20" opacity="0.34"/><circle cx="500.8" cy="172.9" r="3.15" fill="#bd6b20" opacity="0.21"/><circle cx="533.9" cy="174.4" r="2.00" fill="#bd6b20" opacity="0.18"/><circle cx="567.3" cy="176.9" r="3.77" fill="#bd6b20" opacity="0.16"/><circle cx="603.8" cy="175.1" r="3.77" fill="#bd6b20" opacity="0.16"/><circle cx="642.1" cy="171.4" r="3.39" fill="#bd6b20" opacity="0.24"/><circle cx="676.3" cy="173.5" r="2.15" fill="#bd6b20" opacity="0.23"/><circle cx="711.8" cy="173.9" r="3.28" fill="#bd6b20" opacity="0.26"/><circle cx="749.5" cy="171.0" r="3.96" fill="#bd6b20" opacity="0.23"/><circle cx="788.1" cy="174.9" r="3.85" fill="#bd6b20" opacity="0.30"/><circle cx="820.2" cy="174.2" r="3.04" fill="#bd6b20" opacity="0.29"/><circle cx="860.6" cy="172.3" r="2.00" fill="#bd6b20" opacity="0.24"/><circle cx="893.2" cy="176.2" r="2.78" fill="#bd6b20" opacity="0.21"/><circle cx="930.9" cy="176.3" r="3.75" fill="#bd6b20" opacity="0.20"/><circle cx="963.7" cy="176.6" r="3.69" fill="#bd6b20" opacity="0.27"/><circle cx="1003.4" cy="173.2" r="3.11" fill="#bd6b20" opacity="0.28"/><circle cx="1035.4" cy="173.2" r="2.64" fill="#bd6b20" opacity="0.25"/><circle cx="1076.9" cy="175.4" r="3.19" fill="#bd6b20" opacity="0.33"/><circle cx="1108.7" cy="176.1" r="1.79" fill="#bd6b20" opacity="0.26"/><circle cx="1147.6" cy="172.9" r="1.78" fill="#bd6b20" opacity="0.24"/><circle cx="1184.2" cy="173.9" r="3.20" fill="#bd6b20" opacity="0.35"/><circle cx="28.8" cy="209.7" r="1.91" fill="#bd6b20" opacity="0.25"/><circle cx="66.4" cy="208.6" r="2.93" fill="#bd6b20" opacity="0.20"/><circle cx="104.3" cy="208.2" r="2.33" fill="#bd6b20" opacity="0.22"/><circle cx="136.0" cy="211.5" r="2.47" fill="#bd6b20" opacity="0.26"/><circle cx="174.1" cy="207.1" r="2.21" fill="#bd6b20" opacity="0.23"/><circle cx="211.9" cy="208.9" r="2.61" fill="#bd6b20" opacity="0.22"/><circle cx="248.2" cy="209.0" r="2.57" fill="#bd6b20" opacity="0.36"/><circle cx="279.0" cy="210.8" r="2.81" fill="#bd6b20" opacity="0.16"/><circle cx="319.3" cy="209.7" r="2.82" fill="#bd6b20" opacity="0.27"/><circle cx="353.5" cy="212.4" r="1.81" fill="#bd6b20" opacity="0.29"/><circle cx="389.6" cy="208.0" r="2.37" fill="#bd6b20" opacity="0.16"/><circle cx="426.0" cy="212.5" r="3.45" fill="#bd6b20" opacity="0.35"/><circle cx="464.6" cy="207.7" r="3.33" fill="#bd6b20" opacity="0.23"/><circle cx="496.5" cy="211.3" r="2.26" fill="#bd6b20" opacity="0.24"/><circle cx="533.0" cy="212.9" r="3.14" fill="#bd6b20" opacity="0.35"/><circle cx="568.2" cy="210.7" r="3.55" fill="#bd6b20" opacity="0.27"/><circle cx="606.8" cy="209.1" r="2.44" fill="#bd6b20" opacity="0.33"/><circle cx="642.8" cy="207.6" r="1.90" fill="#bd6b20" opacity="0.31"/><circle cx="678.3" cy="208.5" r="1.87" fill="#bd6b20" opacity="0.28"/><circle cx="713.4" cy="210.3" r="2.43" fill="#bd6b20" opacity="0.36"/><circle cx="748.8" cy="211.8" r="3.09" fill="#bd6b20" opacity="0.19"/><circle cx="784.0" cy="211.0" r="1.85" fill="#bd6b20" opacity="0.36"/><circle cx="822.0" cy="211.4" r="3.69" fill="#bd6b20" opacity="0.19"/><circle cx="857.1" cy="212.4" r="2.46" fill="#bd6b20" opacity="0.32"/><circle cx="892.6" cy="207.5" r="1.78" fill="#bd6b20" opacity="0.15"/><circle cx="927.6" cy="211.8" r="2.35" fill="#bd6b20" opacity="0.18"/><circle cx="967.1" cy="207.8" r="1.85" fill="#bd6b20" opacity="0.27"/><circle cx="1003.6" cy="211.3" r="3.15" fill="#bd6b20" opacity="0.27"/><circle cx="1037.9" cy="209.5" r="2.86" fill="#bd6b20" opacity="0.22"/><circle cx="1072.3" cy="212.3" r="2.95" fill="#bd6b20" opacity="0.36"/><circle cx="1110.1" cy="212.8" r="3.58" fill="#bd6b20" opacity="0.21"/><circle cx="1145.2" cy="207.4" r="3.90" fill="#bd6b20" opacity="0.24"/><circle cx="1179.5" cy="210.7" r="2.45" fill="#bd6b20" opacity="0.21"/><circle cx="33.0" cy="244.5" r="3.04" fill="#bd6b20" opacity="0.24"/><circle cx="64.6" cy="247.1" r="1.79" fill="#bd6b20" opacity="0.33"/><circle cx="100.8" cy="245.2" r="1.63" fill="#bd6b20" opacity="0.19"/><circle cx="139.0" cy="245.1" r="2.06" fill="#bd6b20" opacity="0.25"/><circle cx="172.1" cy="246.7" r="2.15" fill="#bd6b20" opacity="0.25"/><circle cx="212.7" cy="247.4" r="1.81" fill="#bd6b20" opacity="0.33"/><circle cx="246.2" cy="247.4" r="2.26" fill="#bd6b20" opacity="0.33"/><circle cx="280.6" cy="248.6" r="1.99" fill="#bd6b20" opacity="0.17"/><circle cx="320.2" cy="246.5" r="1.78" fill="#bd6b20" opacity="0.19"/><circle cx="355.4" cy="245.0" r="2.95" fill="#bd6b20" opacity="0.31"/><circle cx="390.2" cy="248.9" r="2.27" fill="#bd6b20" opacity="0.31"/><circle cx="427.4" cy="247.4" r="3.45" fill="#bd6b20" opacity="0.23"/><circle cx="463.9" cy="246.9" r="3.76" fill="#bd6b20" opacity="0.29"/><circle cx="495.3" cy="244.6" r="1.73" fill="#bd6b20" opacity="0.27"/><circle cx="535.3" cy="246.2" r="3.64" fill="#bd6b20" opacity="0.35"/><circle cx="569.5" cy="246.2" r="4.00" fill="#bd6b20" opacity="0.21"/><circle cx="605.3" cy="248.0" r="2.30" fill="#bd6b20" opacity="0.20"/><circle cx="644.9" cy="245.5" r="3.08" fill="#bd6b20" opacity="0.16"/><circle cx="676.7" cy="248.4" r="2.98" fill="#bd6b20" opacity="0.32"/><circle cx="711.3" cy="243.7" r="3.92" fill="#bd6b20" opacity="0.18"/><circle cx="747.6" cy="246.8" r="2.67" fill="#bd6b20" opacity="0.35"/><circle cx="784.5" cy="244.8" r="2.84" fill="#bd6b20" opacity="0.23"/><circle cx="820.1" cy="246.6" r="3.24" fill="#bd6b20" opacity="0.23"/><circle cx="858.9" cy="244.4" r="3.71" fill="#bd6b20" opacity="0.34"/><circle cx="895.5" cy="247.3" r="3.28" fill="#bd6b20" opacity="0.27"/><circle cx="932.4" cy="246.9" r="3.25" fill="#bd6b20" opacity="0.15"/><circle cx="969.0" cy="248.3" r="2.99" fill="#bd6b20" opacity="0.19"/><circle cx="1002.1" cy="244.3" r="2.95" fill="#bd6b20" opacity="0.33"/><circle cx="1040.5" cy="245.6" r="1.77" fill="#bd6b20" opacity="0.34"/><circle cx="1074.7" cy="245.9" r="2.27" fill="#bd6b20" opacity="0.16"/><circle cx="1109.1" cy="245.2" r="2.69" fill="#bd6b20" opacity="0.31"/><circle cx="1147.1" cy="247.6" r="3.74" fill="#bd6b20" opacity="0.32"/><circle cx="1181.0" cy="248.8" r="2.63" fill="#bd6b20" opacity="0.20"/><circle cx="27.1" cy="284.2" r="3.13" fill="#bd6b20" opacity="0.26"/><circle cx="66.9" cy="280.5" r="3.55" fill="#bd6b20" opacity="0.18"/><circle cx="99.1" cy="281.9" r="2.99" fill="#bd6b20" opacity="0.33"/><circle cx="135.3" cy="283.0" r="2.44" fill="#bd6b20" opacity="0.25"/><circle cx="176.5" cy="281.9" r="2.06" fill="#bd6b20" opacity="0.18"/><circle cx="211.8" cy="279.1" r="3.21" fill="#bd6b20" opacity="0.35"/><circle cx="245.5" cy="279.7" r="3.55" fill="#bd6b20" opacity="0.27"/><circle cx="283.4" cy="279.8" r="3.36" fill="#bd6b20" opacity="0.25"/><circle cx="316.4" cy="283.9" r="2.33" fill="#bd6b20" opacity="0.16"/><circle cx="353.0" cy="279.1" r="2.95" fill="#bd6b20" opacity="0.19"/><circle cx="387.7" cy="280.8" r="3.08" fill="#bd6b20" opacity="0.23"/><circle cx="424.8" cy="280.8" r="2.66" fill="#bd6b20" opacity="0.31"/><circle cx="459.4" cy="284.8" r="3.19" fill="#bd6b20" opacity="0.29"/><circle cx="498.8" cy="283.9" r="2.29" fill="#bd6b20" opacity="0.16"/><circle cx="531.1" cy="279.3" r="2.09" fill="#bd6b20" opacity="0.18"/><circle cx="572.8" cy="282.1" r="2.30" fill="#bd6b20" opacity="0.36"/><circle cx="608.0" cy="280.8" r="2.06" fill="#bd6b20" opacity="0.17"/><circle cx="639.8" cy="280.9" r="3.68" fill="#bd6b20" opacity="0.33"/><circle cx="677.1" cy="283.8" r="3.22" fill="#bd6b20" opacity="0.26"/><circle cx="713.1" cy="279.4" r="3.00" fill="#bd6b20" opacity="0.25"/><circle cx="748.3" cy="279.7" r="3.63" fill="#bd6b20" opacity="0.23"/><circle cx="785.5" cy="284.8" r="1.69" fill="#bd6b20" opacity="0.30"/><circle cx="824.5" cy="284.3" r="3.49" fill="#bd6b20" opacity="0.30"/><circle cx="860.7" cy="283.5" r="1.71" fill="#bd6b20" opacity="0.31"/><circle cx="896.7" cy="281.4" r="2.24" fill="#bd6b20" opacity="0.23"/><circle cx="932.2" cy="281.7" r="1.65" fill="#bd6b20" opacity="0.19"/><circle cx="965.9" cy="283.5" r="2.44" fill="#bd6b20" opacity="0.35"/><circle cx="1003.3" cy="282.3" r="3.72" fill="#bd6b20" opacity="0.32"/><circle cx="1035.4" cy="284.2" r="2.83" fill="#bd6b20" opacity="0.31"/><circle cx="1073.2" cy="282.1" r="2.63" fill="#bd6b20" opacity="0.16"/><circle cx="1108.5" cy="284.0" r="1.92" fill="#bd6b20" opacity="0.32"/><circle cx="1144.7" cy="281.2" r="3.36" fill="#bd6b20" opacity="0.32"/><circle cx="1180.4" cy="279.6" r="3.76" fill="#bd6b20" opacity="0.26"/><circle cx="30.2" cy="316.5" r="3.71" fill="#bd6b20" opacity="0.25"/><circle cx="65.0" cy="318.9" r="3.26" fill="#bd6b20" opacity="0.20"/><circle cx="99.3" cy="318.7" r="1.84" fill="#bd6b20" opacity="0.28"/><circle cx="136.7" cy="320.8" r="2.73" fill="#bd6b20" opacity="0.22"/><circle cx="172.8" cy="319.2" r="3.46" fill="#bd6b20" opacity="0.32"/><circle cx="208.1" cy="318.1" r="2.39" fill="#bd6b20" opacity="0.27"/><circle cx="244.8" cy="319.5" r="3.53" fill="#bd6b20" opacity="0.21"/><circle cx="279.3" cy="320.6" r="3.19" fill="#bd6b20" opacity="0.35"/><circle cx="318.7" cy="318.9" r="2.25" fill="#bd6b20" opacity="0.22"/><circle cx="353.6" cy="317.5" r="1.90" fill="#bd6b20" opacity="0.28"/><circle cx="392.9" cy="317.0" r="3.38" fill="#bd6b20" opacity="0.36"/><circle cx="423.8" cy="316.7" r="3.04" fill="#bd6b20" opacity="0.18"/><circle cx="459.2" cy="319.5" r="3.74" fill="#bd6b20" opacity="0.26"/><circle cx="499.8" cy="319.6" r="1.67" fill="#bd6b20" opacity="0.20"/><circle cx="532.8" cy="317.5" r="1.92" fill="#bd6b20" opacity="0.33"/><circle cx="572.7" cy="317.2" r="3.99" fill="#bd6b20" opacity="0.32"/><circle cx="604.9" cy="320.7" r="2.49" fill="#bd6b20" opacity="0.27"/><circle cx="642.1" cy="319.6" r="3.48" fill="#bd6b20" opacity="0.35"/><circle cx="677.5" cy="319.0" r="3.72" fill="#bd6b20" opacity="0.20"/><circle cx="715.1" cy="320.3" r="2.62" fill="#bd6b20" opacity="0.22"/><circle cx="750.7" cy="320.0" r="3.06" fill="#bd6b20" opacity="0.19"/><circle cx="785.7" cy="316.1" r="3.55" fill="#bd6b20" opacity="0.28"/><circle cx="822.2" cy="319.2" r="2.88" fill="#bd6b20" opacity="0.25"/><circle cx="860.4" cy="318.3" r="2.82" fill="#bd6b20" opacity="0.19"/><circle cx="896.0" cy="318.7" r="2.92" fill="#bd6b20" opacity="0.19"/><circle cx="932.8" cy="316.5" r="3.69" fill="#bd6b20" opacity="0.25"/><circle cx="968.9" cy="319.7" r="3.41" fill="#bd6b20" opacity="0.26"/><circle cx="1001.5" cy="316.0" r="2.62" fill="#bd6b20" opacity="0.16"/><circle cx="1038.9" cy="315.5" r="2.20" fill="#bd6b20" opacity="0.28"/><circle cx="1074.8" cy="316.3" r="2.10" fill="#bd6b20" opacity="0.22"/><circle cx="1111.4" cy="317.8" r="3.89" fill="#bd6b20" opacity="0.32"/><circle cx="1148.1" cy="315.4" r="1.67" fill="#bd6b20" opacity="0.32"/><circle cx="1182.7" cy="318.9" r="2.35" fill="#bd6b20" opacity="0.29"/><circle cx="32.5" cy="352.3" r="2.08" fill="#bd6b20" opacity="0.25"/><circle cx="65.8" cy="353.1" r="3.79" fill="#bd6b20" opacity="0.19"/><circle cx="99.3" cy="356.0" r="3.95" fill="#bd6b20" opacity="0.28"/><circle cx="139.3" cy="351.9" r="3.21" fill="#bd6b20" opacity="0.30"/><circle cx="174.3" cy="353.6" r="2.04" fill="#bd6b20" opacity="0.22"/><circle cx="212.8" cy="356.9" r="2.70" fill="#bd6b20" opacity="0.31"/><circle cx="248.0" cy="351.5" r="3.00" fill="#bd6b20" opacity="0.25"/><circle cx="281.7" cy="352.8" r="1.94" fill="#bd6b20" opacity="0.31"/><circle cx="320.2" cy="352.6" r="3.51" fill="#bd6b20" opacity="0.29"/><circle cx="353.5" cy="356.7" r="3.56" fill="#bd6b20" opacity="0.23"/><circle cx="389.9" cy="354.4" r="3.01" fill="#bd6b20" opacity="0.30"/><circle cx="428.9" cy="355.0" r="3.58" fill="#bd6b20" opacity="0.36"/><circle cx="461.6" cy="351.6" r="2.49" fill="#bd6b20" opacity="0.22"/><circle cx="500.9" cy="356.3" r="2.46" fill="#bd6b20" opacity="0.30"/><circle cx="535.3" cy="355.3" r="2.59" fill="#bd6b20" opacity="0.23"/><circle cx="568.3" cy="354.3" r="3.39" fill="#bd6b20" opacity="0.16"/><circle cx="608.4" cy="353.9" r="3.32" fill="#bd6b20" opacity="0.20"/><circle cx="641.7" cy="357.0" r="2.70" fill="#bd6b20" opacity="0.17"/><circle cx="677.5" cy="355.2" r="3.45" fill="#bd6b20" opacity="0.15"/><circle cx="715.9" cy="353.7" r="3.26" fill="#bd6b20" opacity="0.17"/><circle cx="749.0" cy="353.0" r="2.97" fill="#bd6b20" opacity="0.27"/><circle cx="784.8" cy="351.4" r="3.81" fill="#bd6b20" opacity="0.30"/><circle cx="822.9" cy="355.7" r="2.43" fill="#bd6b20" opacity="0.31"/><circle cx="860.9" cy="353.0" r="3.28" fill="#bd6b20" opacity="0.29"/><circle cx="893.2" cy="355.8" r="3.18" fill="#bd6b20" opacity="0.29"/><circle cx="928.1" cy="354.7" r="2.16" fill="#bd6b20" opacity="0.16"/><circle cx="965.0" cy="356.2" r="2.28" fill="#bd6b20" opacity="0.33"/><circle cx="1003.7" cy="351.1" r="3.88" fill="#bd6b20" opacity="0.31"/><circle cx="1040.6" cy="356.6" r="3.60" fill="#bd6b20" opacity="0.34"/><circle cx="1071.5" cy="351.5" r="2.58" fill="#bd6b20" opacity="0.23"/><circle cx="1109.4" cy="353.3" r="2.27" fill="#bd6b20" opacity="0.31"/><circle cx="1145.5" cy="357.0" r="3.84" fill="#bd6b20" opacity="0.24"/><circle cx="1181.7" cy="353.8" r="2.05" fill="#bd6b20" opacity="0.31"/><circle cx="29.9" cy="387.4" r="2.87" fill="#bd6b20" opacity="0.23"/><circle cx="63.1" cy="389.4" r="3.27" fill="#bd6b20" opacity="0.31"/><circle cx="103.4" cy="387.2" r="1.91" fill="#bd6b20" opacity="0.34"/><circle cx="140.5" cy="391.1" r="2.88" fill="#bd6b20" opacity="0.35"/><circle cx="175.8" cy="387.1" r="2.67" fill="#bd6b20" opacity="0.33"/><circle cx="210.8" cy="388.7" r="1.95" fill="#bd6b20" opacity="0.28"/><circle cx="247.7" cy="387.5" r="3.47" fill="#bd6b20" opacity="0.29"/><circle cx="283.8" cy="391.7" r="2.66" fill="#bd6b20" opacity="0.28"/><circle cx="317.8" cy="392.8" r="3.16" fill="#bd6b20" opacity="0.23"/><circle cx="353.8" cy="388.1" r="2.85" fill="#bd6b20" opacity="0.18"/><circle cx="392.3" cy="387.6" r="3.72" fill="#bd6b20" opacity="0.32"/><circle cx="423.1" cy="388.9" r="2.04" fill="#bd6b20" opacity="0.30"/><circle cx="459.8" cy="390.2" r="1.69" fill="#bd6b20" opacity="0.27"/><circle cx="495.7" cy="388.0" r="1.74" fill="#bd6b20" opacity="0.17"/><circle cx="531.2" cy="391.2" r="2.99" fill="#bd6b20" opacity="0.18"/><circle cx="572.7" cy="388.8" r="3.54" fill="#bd6b20" opacity="0.24"/><circle cx="607.7" cy="389.3" r="3.56" fill="#bd6b20" opacity="0.27"/><circle cx="641.3" cy="391.7" r="1.64" fill="#bd6b20" opacity="0.19"/><circle cx="680.4" cy="388.6" r="1.62" fill="#bd6b20" opacity="0.23"/><circle cx="711.8" cy="390.4" r="1.60" fill="#bd6b20" opacity="0.34"/><circle cx="748.2" cy="392.5" r="1.74" fill="#bd6b20" opacity="0.16"/><circle cx="786.7" cy="389.7" r="3.54" fill="#bd6b20" opacity="0.21"/><circle cx="822.5" cy="391.6" r="1.99" fill="#bd6b20" opacity="0.17"/><circle cx="857.9" cy="388.1" r="1.77" fill="#bd6b20" opacity="0.17"/><circle cx="893.0" cy="387.3" r="2.23" fill="#bd6b20" opacity="0.27"/><circle cx="928.2" cy="393.0" r="2.72" fill="#bd6b20" opacity="0.25"/><circle cx="968.4" cy="390.7" r="2.84" fill="#bd6b20" opacity="0.29"/><circle cx="1000.0" cy="391.8" r="2.50" fill="#bd6b20" opacity="0.17"/><circle cx="1035.1" cy="391.8" r="2.25" fill="#bd6b20" opacity="0.27"/><circle cx="1073.5" cy="391.8" r="1.94" fill="#bd6b20" opacity="0.21"/><circle cx="1110.0" cy="387.7" r="1.77" fill="#bd6b20" opacity="0.32"/><circle cx="1148.6" cy="390.9" r="3.10" fill="#bd6b20" opacity="0.28"/><circle cx="1181.8" cy="390.3" r="2.34" fill="#bd6b20" opacity="0.29"/><circle cx="31.9" cy="426.3" r="2.66" fill="#bd6b20" opacity="0.36"/><circle cx="66.3" cy="427.4" r="3.41" fill="#bd6b20" opacity="0.24"/><circle cx="100.9" cy="427.6" r="3.44" fill="#bd6b20" opacity="0.30"/><circle cx="140.5" cy="428.1" r="2.78" fill="#bd6b20" opacity="0.35"/><circle cx="171.7" cy="426.8" r="1.86" fill="#bd6b20" opacity="0.25"/><circle cx="210.5" cy="423.9" r="1.99" fill="#bd6b20" opacity="0.25"/><circle cx="245.7" cy="426.6" r="3.47" fill="#bd6b20" opacity="0.19"/><circle cx="281.9" cy="423.4" r="2.04" fill="#bd6b20" opacity="0.30"/><circle cx="315.4" cy="424.5" r="2.71" fill="#bd6b20" opacity="0.18"/><circle cx="352.5" cy="426.1" r="2.94" fill="#bd6b20" opacity="0.28"/><circle cx="390.2" cy="428.1" r="2.14" fill="#bd6b20" opacity="0.15"/><circle cx="424.8" cy="425.0" r="2.08" fill="#bd6b20" opacity="0.34"/><circle cx="460.8" cy="423.5" r="3.16" fill="#bd6b20" opacity="0.28"/><circle cx="498.6" cy="423.3" r="1.63" fill="#bd6b20" opacity="0.31"/><circle cx="532.8" cy="427.5" r="2.74" fill="#bd6b20" opacity="0.33"/><circle cx="569.0" cy="426.0" r="3.26" fill="#bd6b20" opacity="0.35"/><circle cx="603.4" cy="426.7" r="2.84" fill="#bd6b20" opacity="0.31"/><circle cx="641.3" cy="427.1" r="1.61" fill="#bd6b20" opacity="0.28"/><circle cx="675.9" cy="427.1" r="1.98" fill="#bd6b20" opacity="0.27"/><circle cx="714.6" cy="427.6" r="3.30" fill="#bd6b20" opacity="0.19"/><circle cx="749.0" cy="428.6" r="2.03" fill="#bd6b20" opacity="0.30"/><circle cx="785.6" cy="424.0" r="1.99" fill="#bd6b20" opacity="0.25"/><circle cx="824.0" cy="428.9" r="2.54" fill="#bd6b20" opacity="0.26"/><circle cx="858.2" cy="427.7" r="2.88" fill="#bd6b20" opacity="0.21"/><circle cx="892.5" cy="423.5" r="1.76" fill="#bd6b20" opacity="0.17"/><circle cx="928.2" cy="424.5" r="2.17" fill="#bd6b20" opacity="0.26"/><circle cx="968.5" cy="423.2" r="1.99" fill="#bd6b20" opacity="0.20"/><circle cx="1004.0" cy="423.8" r="2.99" fill="#bd6b20" opacity="0.32"/><circle cx="1036.9" cy="426.0" r="3.39" fill="#bd6b20" opacity="0.29"/><circle cx="1076.3" cy="424.8" r="3.59" fill="#bd6b20" opacity="0.17"/><circle cx="1108.1" cy="428.9" r="2.56" fill="#bd6b20" opacity="0.22"/><circle cx="1144.5" cy="426.3" r="3.93" fill="#bd6b20" opacity="0.30"/><circle cx="1183.5" cy="428.7" r="3.31" fill="#bd6b20" opacity="0.17"/><circle cx="30.5" cy="461.7" r="3.20" fill="#bd6b20" opacity="0.24"/><circle cx="67.1" cy="462.1" r="2.32" fill="#bd6b20" opacity="0.28"/><circle cx="99.7" cy="463.8" r="3.50" fill="#bd6b20" opacity="0.18"/><circle cx="137.9" cy="464.2" r="3.65" fill="#bd6b20" opacity="0.24"/><circle cx="176.4" cy="464.9" r="3.72" fill="#bd6b20" opacity="0.23"/><circle cx="209.5" cy="460.7" r="2.90" fill="#bd6b20" opacity="0.20"/><circle cx="243.6" cy="463.1" r="2.08" fill="#bd6b20" opacity="0.35"/><circle cx="280.2" cy="463.1" r="3.32" fill="#bd6b20" opacity="0.25"/><circle cx="317.2" cy="461.1" r="2.67" fill="#bd6b20" opacity="0.25"/><circle cx="355.7" cy="462.2" r="2.63" fill="#bd6b20" opacity="0.25"/><circle cx="391.5" cy="462.9" r="3.78" fill="#bd6b20" opacity="0.23"/><circle cx="424.1" cy="462.3" r="2.12" fill="#bd6b20" opacity="0.28"/><circle cx="464.9" cy="461.3" r="2.69" fill="#bd6b20" opacity="0.17"/><circle cx="498.5" cy="463.1" r="2.60" fill="#bd6b20" opacity="0.28"/><circle cx="534.8" cy="462.1" r="1.72" fill="#bd6b20" opacity="0.26"/><circle cx="571.1" cy="459.1" r="3.80" fill="#bd6b20" opacity="0.32"/><circle cx="606.3" cy="459.4" r="3.35" fill="#bd6b20" opacity="0.22"/><circle cx="639.4" cy="461.5" r="1.85" fill="#bd6b20" opacity="0.26"/><circle cx="676.6" cy="461.5" r="2.08" fill="#bd6b20" opacity="0.19"/><circle cx="716.1" cy="463.5" r="3.03" fill="#bd6b20" opacity="0.28"/><circle cx="748.7" cy="461.0" r="1.85" fill="#bd6b20" opacity="0.28"/><circle cx="786.1" cy="464.4" r="2.59" fill="#bd6b20" opacity="0.22"/><circle cx="823.9" cy="462.6" r="1.85" fill="#bd6b20" opacity="0.17"/><circle cx="855.9" cy="463.5" r="1.88" fill="#bd6b20" opacity="0.16"/><circle cx="895.5" cy="463.9" r="3.87" fill="#bd6b20" opacity="0.34"/><circle cx="928.0" cy="459.0" r="2.48" fill="#bd6b20" opacity="0.29"/><circle cx="966.6" cy="463.6" r="3.36" fill="#bd6b20" opacity="0.19"/><circle cx="1001.1" cy="459.1" r="3.77" fill="#bd6b20" opacity="0.24"/><circle cx="1039.9" cy="463.6" r="2.27" fill="#bd6b20" opacity="0.18"/><circle cx="1075.7" cy="463.4" r="3.64" fill="#bd6b20" opacity="0.22"/><circle cx="1108.6" cy="461.4" r="2.82" fill="#bd6b20" opacity="0.21"/><circle cx="1147.1" cy="464.5" r="3.27" fill="#bd6b20" opacity="0.16"/><circle cx="1182.7" cy="464.5" r="1.86" fill="#bd6b20" opacity="0.36"/><circle cx="28.6" cy="496.9" r="2.92" fill="#bd6b20" opacity="0.27"/><circle cx="66.8" cy="499.5" r="2.63" fill="#bd6b20" opacity="0.31"/><circle cx="101.9" cy="495.9" r="2.77" fill="#bd6b20" opacity="0.34"/><circle cx="140.8" cy="499.4" r="3.23" fill="#bd6b20" opacity="0.22"/><circle cx="175.4" cy="497.9" r="2.07" fill="#bd6b20" opacity="0.32"/><circle cx="212.0" cy="496.2" r="2.33" fill="#bd6b20" opacity="0.20"/><circle cx="243.9" cy="495.7" r="1.97" fill="#bd6b20" opacity="0.29"/><circle cx="279.5" cy="495.0" r="3.17" fill="#bd6b20" opacity="0.27"/><circle cx="319.7" cy="498.9" r="2.33" fill="#bd6b20" opacity="0.27"/><circle cx="352.1" cy="500.1" r="3.58" fill="#bd6b20" opacity="0.31"/><circle cx="391.0" cy="495.3" r="3.11" fill="#bd6b20" opacity="0.24"/><circle cx="423.4" cy="496.1" r="3.58" fill="#bd6b20" opacity="0.25"/><circle cx="463.4" cy="500.7" r="2.12" fill="#bd6b20" opacity="0.27"/><circle cx="499.5" cy="495.9" r="3.75" fill="#bd6b20" opacity="0.15"/><circle cx="532.9" cy="495.2" r="2.52" fill="#bd6b20" opacity="0.21"/><circle cx="572.3" cy="500.9" r="2.00" fill="#bd6b20" opacity="0.22"/><circle cx="607.6" cy="497.2" r="3.34" fill="#bd6b20" opacity="0.33"/><circle cx="639.6" cy="497.5" r="2.40" fill="#bd6b20" opacity="0.17"/><circle cx="679.7" cy="500.4" r="1.70" fill="#bd6b20" opacity="0.25"/><circle cx="711.4" cy="500.2" r="3.62" fill="#bd6b20" opacity="0.27"/><circle cx="749.4" cy="499.1" r="1.64" fill="#bd6b20" opacity="0.22"/><circle cx="786.6" cy="499.5" r="3.73" fill="#bd6b20" opacity="0.17"/><circle cx="822.5" cy="499.6" r="3.67" fill="#bd6b20" opacity="0.18"/><circle cx="859.5" cy="497.0" r="2.70" fill="#bd6b20" opacity="0.28"/><circle cx="891.4" cy="499.4" r="3.95" fill="#bd6b20" opacity="0.24"/><circle cx="927.0" cy="499.4" r="2.01" fill="#bd6b20" opacity="0.16"/><circle cx="963.1" cy="496.9" r="2.46" fill="#bd6b20" opacity="0.24"/><circle cx="1003.0" cy="500.8" r="2.50" fill="#bd6b20" opacity="0.33"/><circle cx="1038.3" cy="500.0" r="3.66" fill="#bd6b20" opacity="0.19"/><circle cx="1072.4" cy="496.9" r="2.76" fill="#bd6b20" opacity="0.36"/><circle cx="1108.8" cy="497.5" r="3.98" fill="#bd6b20" opacity="0.30"/><circle cx="1146.2" cy="499.7" r="3.13" fill="#bd6b20" opacity="0.21"/><circle cx="1184.2" cy="500.3" r="2.40" fill="#bd6b20" opacity="0.26"/><circle cx="27.9" cy="535.4" r="3.64" fill="#bd6b20" opacity="0.33"/><circle cx="64.7" cy="532.8" r="1.61" fill="#bd6b20" opacity="0.35"/><circle cx="102.5" cy="531.7" r="2.73" fill="#bd6b20" opacity="0.27"/><circle cx="139.9" cy="535.1" r="3.53" fill="#bd6b20" opacity="0.28"/><circle cx="176.8" cy="536.7" r="3.59" fill="#bd6b20" opacity="0.22"/><circle cx="212.8" cy="535.7" r="3.21" fill="#bd6b20" opacity="0.33"/><circle cx="246.9" cy="532.4" r="3.08" fill="#bd6b20" opacity="0.21"/><circle cx="280.3" cy="536.6" r="3.00" fill="#bd6b20" opacity="0.31"/><circle cx="315.9" cy="536.4" r="1.97" fill="#bd6b20" opacity="0.29"/><circle cx="356.7" cy="535.3" r="3.63" fill="#bd6b20" opacity="0.25"/><circle cx="387.2" cy="536.9" r="3.50" fill="#bd6b20" opacity="0.33"/><circle cx="428.0" cy="532.7" r="2.97" fill="#bd6b20" opacity="0.19"/><circle cx="459.5" cy="535.2" r="2.08" fill="#bd6b20" opacity="0.21"/><circle cx="495.8" cy="532.1" r="3.04" fill="#bd6b20" opacity="0.27"/><circle cx="534.5" cy="532.1" r="3.98" fill="#bd6b20" opacity="0.18"/><circle cx="567.5" cy="534.4" r="3.76" fill="#bd6b20" opacity="0.31"/><circle cx="603.1" cy="531.4" r="1.96" fill="#bd6b20" opacity="0.35"/><circle cx="643.9" cy="531.3" r="3.30" fill="#bd6b20" opacity="0.19"/><circle cx="680.1" cy="532.8" r="3.49" fill="#bd6b20" opacity="0.18"/><circle cx="712.2" cy="534.5" r="4.00" fill="#bd6b20" opacity="0.30"/><circle cx="747.3" cy="533.3" r="2.30" fill="#bd6b20" opacity="0.22"/><circle cx="784.4" cy="531.2" r="3.20" fill="#bd6b20" opacity="0.18"/><circle cx="819.5" cy="535.4" r="1.90" fill="#bd6b20" opacity="0.25"/><circle cx="859.9" cy="536.1" r="2.25" fill="#bd6b20" opacity="0.23"/><circle cx="892.5" cy="533.6" r="3.97" fill="#bd6b20" opacity="0.16"/><circle cx="932.7" cy="536.8" r="3.30" fill="#bd6b20" opacity="0.19"/><circle cx="963.9" cy="531.4" r="1.71" fill="#bd6b20" opacity="0.21"/><circle cx="1000.1" cy="535.2" r="3.46" fill="#bd6b20" opacity="0.15"/><circle cx="1037.4" cy="534.4" r="2.98" fill="#bd6b20" opacity="0.35"/><circle cx="1072.0" cy="533.1" r="1.65" fill="#bd6b20" opacity="0.33"/><circle cx="1111.5" cy="533.6" r="3.89" fill="#bd6b20" opacity="0.16"/><circle cx="1145.1" cy="536.2" r="3.44" fill="#bd6b20" opacity="0.22"/><circle cx="1180.4" cy="532.9" r="3.56" fill="#bd6b20" opacity="0.24"/><circle cx="27.3" cy="571.8" r="2.57" fill="#bd6b20" opacity="0.22"/><circle cx="63.3" cy="571.2" r="2.73" fill="#bd6b20" opacity="0.22"/><circle cx="100.8" cy="568.0" r="1.70" fill="#bd6b20" opacity="0.20"/><circle cx="139.7" cy="569.9" r="3.61" fill="#bd6b20" opacity="0.28"/><circle cx="173.2" cy="571.8" r="2.96" fill="#bd6b20" opacity="0.18"/><circle cx="207.5" cy="571.3" r="2.91" fill="#bd6b20" opacity="0.22"/><circle cx="247.8" cy="567.9" r="3.68" fill="#bd6b20" opacity="0.17"/><circle cx="283.2" cy="568.0" r="2.87" fill="#bd6b20" opacity="0.15"/><circle cx="320.9" cy="570.1" r="2.68" fill="#bd6b20" opacity="0.30"/><circle cx="355.1" cy="569.7" r="3.08" fill="#bd6b20" opacity="0.31"/><circle cx="389.3" cy="567.7" r="2.76" fill="#bd6b20" opacity="0.19"/><circle cx="428.6" cy="569.0" r="3.77" fill="#bd6b20" opacity="0.23"/><circle cx="461.7" cy="573.0" r="3.84" fill="#bd6b20" opacity="0.19"/><circle cx="495.6" cy="572.0" r="2.63" fill="#bd6b20" opacity="0.21"/><circle cx="532.9" cy="570.5" r="2.11" fill="#bd6b20" opacity="0.35"/><circle cx="567.6" cy="567.3" r="3.51" fill="#bd6b20" opacity="0.22"/><circle cx="603.5" cy="568.5" r="3.99" fill="#bd6b20" opacity="0.20"/><circle cx="639.3" cy="570.1" r="2.68" fill="#bd6b20" opacity="0.18"/><circle cx="675.9" cy="568.3" r="2.07" fill="#bd6b20" opacity="0.18"/><circle cx="714.9" cy="571.0" r="2.68" fill="#bd6b20" opacity="0.16"/><circle cx="751.1" cy="568.7" r="3.16" fill="#bd6b20" opacity="0.32"/><circle cx="787.1" cy="570.4" r="3.66" fill="#bd6b20" opacity="0.26"/><circle cx="819.6" cy="567.5" r="3.57" fill="#bd6b20" opacity="0.18"/><circle cx="858.7" cy="569.7" r="1.72" fill="#bd6b20" opacity="0.26"/><circle cx="894.8" cy="570.3" r="3.04" fill="#bd6b20" opacity="0.20"/><circle cx="931.9" cy="568.4" r="2.47" fill="#bd6b20" opacity="0.33"/><circle cx="963.6" cy="570.6" r="2.49" fill="#bd6b20" opacity="0.29"/><circle cx="1004.6" cy="570.0" r="3.85" fill="#bd6b20" opacity="0.22"/><circle cx="1037.9" cy="569.2" r="3.07" fill="#bd6b20" opacity="0.29"/><circle cx="1073.6" cy="572.9" r="3.37" fill="#bd6b20" opacity="0.22"/><circle cx="1112.1" cy="571.9" r="3.65" fill="#bd6b20" opacity="0.28"/><circle cx="1145.4" cy="571.7" r="3.25" fill="#bd6b20" opacity="0.31"/><circle cx="1184.0" cy="569.9" r="2.75" fill="#bd6b20" opacity="0.26"/><circle cx="29.8" cy="608.1" r="1.89" fill="#bd6b20" opacity="0.23"/><circle cx="67.8" cy="605.9" r="2.16" fill="#bd6b20" opacity="0.19"/><circle cx="100.3" cy="606.2" r="2.57" fill="#bd6b20" opacity="0.16"/><circle cx="137.2" cy="604.1" r="2.56" fill="#bd6b20" opacity="0.31"/><circle cx="176.3" cy="603.2" r="2.97" fill="#bd6b20" opacity="0.35"/><circle cx="207.0" cy="604.8" r="3.30" fill="#bd6b20" opacity="0.36"/><circle cx="244.7" cy="604.1" r="2.92" fill="#bd6b20" opacity="0.16"/><circle cx="282.7" cy="608.8" r="3.93" fill="#bd6b20" opacity="0.25"/><circle cx="315.7" cy="604.8" r="1.68" fill="#bd6b20" opacity="0.16"/><circle cx="353.9" cy="605.5" r="2.03" fill="#bd6b20" opacity="0.33"/><circle cx="388.1" cy="608.2" r="3.95" fill="#bd6b20" opacity="0.34"/><circle cx="426.9" cy="604.2" r="3.23" fill="#bd6b20" opacity="0.34"/><circle cx="463.1" cy="605.7" r="1.78" fill="#bd6b20" opacity="0.31"/><circle cx="497.4" cy="607.3" r="2.74" fill="#bd6b20" opacity="0.15"/><circle cx="531.3" cy="606.8" r="3.78" fill="#bd6b20" opacity="0.34"/><circle cx="570.3" cy="605.1" r="2.66" fill="#bd6b20" opacity="0.16"/><circle cx="608.8" cy="604.6" r="2.41" fill="#bd6b20" opacity="0.35"/><circle cx="643.4" cy="606.0" r="3.81" fill="#bd6b20" opacity="0.15"/><circle cx="675.6" cy="605.1" r="3.48" fill="#bd6b20" opacity="0.33"/><circle cx="711.5" cy="605.4" r="2.60" fill="#bd6b20" opacity="0.26"/><circle cx="750.2" cy="606.6" r="1.94" fill="#bd6b20" opacity="0.21"/><circle cx="784.6" cy="603.3" r="1.83" fill="#bd6b20" opacity="0.35"/><circle cx="823.9" cy="607.4" r="3.58" fill="#bd6b20" opacity="0.25"/><circle cx="855.8" cy="603.4" r="2.82" fill="#bd6b20" opacity="0.21"/><circle cx="896.7" cy="603.2" r="1.67" fill="#bd6b20" opacity="0.28"/><circle cx="932.5" cy="606.7" r="2.12" fill="#bd6b20" opacity="0.35"/><circle cx="964.3" cy="603.2" r="2.78" fill="#bd6b20" opacity="0.23"/><circle cx="1003.6" cy="603.0" r="3.05" fill="#bd6b20" opacity="0.34"/><circle cx="1040.4" cy="604.4" r="3.25" fill="#bd6b20" opacity="0.20"/><circle cx="1073.8" cy="604.5" r="3.79" fill="#bd6b20" opacity="0.22"/><circle cx="1108.8" cy="604.0" r="1.61" fill="#bd6b20" opacity="0.16"/><circle cx="1144.0" cy="607.8" r="3.68" fill="#bd6b20" opacity="0.16"/><circle cx="1180.9" cy="607.1" r="3.53" fill="#bd6b20" opacity="0.18"/><circle cx="28.5" cy="639.4" r="3.00" fill="#bd6b20" opacity="0.34"/><circle cx="65.6" cy="644.8" r="1.87" fill="#bd6b20" opacity="0.32"/><circle cx="103.4" cy="642.7" r="1.92" fill="#bd6b20" opacity="0.31"/><circle cx="138.3" cy="644.8" r="3.84" fill="#bd6b20" opacity="0.15"/><circle cx="173.3" cy="643.9" r="2.12" fill="#bd6b20" opacity="0.16"/><circle cx="210.1" cy="644.2" r="3.35" fill="#bd6b20" opacity="0.15"/><circle cx="245.1" cy="644.0" r="3.96" fill="#bd6b20" opacity="0.21"/><circle cx="282.8" cy="641.3" r="3.21" fill="#bd6b20" opacity="0.29"/><circle cx="321.0" cy="644.4" r="2.64" fill="#bd6b20" opacity="0.16"/><circle cx="351.3" cy="642.2" r="3.73" fill="#bd6b20" opacity="0.28"/><circle cx="388.2" cy="643.3" r="2.50" fill="#bd6b20" opacity="0.19"/><circle cx="423.5" cy="639.7" r="3.36" fill="#bd6b20" opacity="0.26"/><circle cx="460.3" cy="639.3" r="1.84" fill="#bd6b20" opacity="0.36"/><circle cx="496.6" cy="639.2" r="1.72" fill="#bd6b20" opacity="0.23"/><circle cx="535.9" cy="644.2" r="3.21" fill="#bd6b20" opacity="0.35"/><circle cx="572.1" cy="642.3" r="2.47" fill="#bd6b20" opacity="0.17"/><circle cx="603.4" cy="643.8" r="2.73" fill="#bd6b20" opacity="0.20"/><circle cx="643.9" cy="642.8" r="3.46" fill="#bd6b20" opacity="0.32"/><circle cx="680.0" cy="641.9" r="2.48" fill="#bd6b20" opacity="0.19"/><circle cx="716.8" cy="639.6" r="3.07" fill="#bd6b20" opacity="0.23"/><circle cx="747.7" cy="640.9" r="2.44" fill="#bd6b20" opacity="0.32"/><circle cx="787.8" cy="643.2" r="2.76" fill="#bd6b20" opacity="0.34"/><circle cx="824.2" cy="639.6" r="2.43" fill="#bd6b20" opacity="0.18"/><circle cx="857.3" cy="644.4" r="2.64" fill="#bd6b20" opacity="0.21"/><circle cx="894.9" cy="642.5" r="2.90" fill="#bd6b20" opacity="0.28"/><circle cx="927.8" cy="644.9" r="2.65" fill="#bd6b20" opacity="0.32"/><circle cx="967.7" cy="639.4" r="2.93" fill="#bd6b20" opacity="0.31"/><circle cx="999.4" cy="642.5" r="2.08" fill="#bd6b20" opacity="0.18"/><circle cx="1035.8" cy="639.7" r="2.39" fill="#bd6b20" opacity="0.27"/><circle cx="1073.2" cy="639.4" r="1.87" fill="#bd6b20" opacity="0.34"/><circle cx="1111.6" cy="641.2" r="3.32" fill="#bd6b20" opacity="0.19"/><circle cx="1145.3" cy="640.7" r="2.56" fill="#bd6b20" opacity="0.24"/><circle cx="1180.4" cy="644.8" r="2.26" fill="#bd6b20" opacity="0.33"/><circle cx="277.8" cy="214.7" r="220" fill="url(#glow)" opacity="0.9"/>
  <g opacity="0.85" transform="translate(1020, 495)">
        <circle r="68" fill="none" stroke="#bd6b20" stroke-width="2" opacity="0.35"/>
        <path d="M -38 12 L 38 12 M -32 -8 L 32 -8 M -45 -28 L 45 -28" stroke="#9a5518" stroke-width="3" stroke-linecap="round"/>
        <rect x="-50" y="-44" width="100" height="80" fill="none" stroke="#bd6b20" stroke-width="2"/>
      </g>
  <g transform="translate(80, 90)">
    <rect x="0" y="0" rx="20" ry="20" width="112" height="38" fill="#bd6b20" opacity="0.18" stroke="#bd6b20" stroke-width="1.5"/>
    <text x="56" y="25" font-family="ui-sans-serif, Inter, sans-serif" font-weight="700" font-size="14" letter-spacing="2.5" fill="#bd6b20" text-anchor="middle">NEWSROOM</text>
  </g>
  <text x="80" y="465" font-family="ui-sans-serif, -apple-system, Segoe UI, Inter, sans-serif" font-weight="800" font-size="44" fill="#12100e" opacity="0.98"><tspan x="80" dy="0">Bombay High Court:</tspan><tspan x="80" dy="56">Discretionary Power in</tspan><tspan x="80" dy="56">Section 34(4) of the Act</tspan></text>
  <rect x="0" y="669" width="1200" height="6" fill="url(#gold)"/>
</svg>