<?xml version="1.0" encoding="UTF-8"?>
<svg xmlns="http://www.w3.org/2000/svg" viewBox="0 0 1200 675" width="1200" height="675" role="img" aria-label="Bombay High Court: Validity of Arbitration Clause in "Sales Terms and Conditions"">
  <defs>
    <linearGradient id="bg" x1="0%" y1="0%" x2="100%" y2="100%">
      <stop offset="0%" stop-color="#532d15"/>
      <stop offset="100%" stop-color="#bd6b20"/>
    </linearGradient>
    <linearGradient id="gold" x1="0%" y1="0%" x2="100%" y2="100%">
      <stop offset="0%" stop-color="#e09440"/>
      <stop offset="100%" stop-color="#fdf6ee"/>
    </linearGradient>
    <radialGradient id="glow" cx="50%" cy="50%" r="50%">
      <stop offset="0%" stop-color="#e09440" stop-opacity="0.45"/>
      <stop offset="100%" stop-color="#e09440" stop-opacity="0"/>
    </radialGradient>
  </defs>
  <rect width="1200" height="675" fill="url(#bg)"/>
  <rect x="-702.6" y="-80" width="116.3" height="875" transform="rotate(18 -702.6 337.5)" fill="#e09440" opacity="0.13"/><rect x="-515.4" y="-80" width="96.8" height="875" transform="rotate(18 -515.4 337.5)" fill="#e09440" opacity="0.07"/><rect x="-298.6" y="-80" width="84.0" height="875" transform="rotate(18 -298.6 337.5)" fill="#e09440" opacity="0.16"/><rect x="-140.8" y="-80" width="81.7" height="875" transform="rotate(18 -140.8 337.5)" fill="#e09440" opacity="0.06"/><rect x="22.0" y="-80" width="121.0" height="875" transform="rotate(18 22.0 337.5)" fill="#e09440" opacity="0.11"/><rect x="190.1" y="-80" width="82.7" height="875" transform="rotate(18 190.1 337.5)" fill="#e09440" opacity="0.12"/><rect x="380.6" y="-80" width="102.7" height="875" transform="rotate(18 380.6 337.5)" fill="#e09440" opacity="0.09"/><rect x="591.1" y="-80" width="81.1" height="875" transform="rotate(18 591.1 337.5)" fill="#e09440" opacity="0.07"/><rect x="790.0" y="-80" width="117.5" height="875" transform="rotate(18 790.0 337.5)" fill="#e09440" opacity="0.13"/><rect x="928.2" y="-80" width="116.2" height="875" transform="rotate(18 928.2 337.5)" fill="#e09440" opacity="0.15"/><rect x="1149.0" y="-80" width="93.4" height="875" transform="rotate(18 1149.0 337.5)" fill="#e09440" opacity="0.14"/><rect x="1273.7" y="-80" width="65.3" height="875" transform="rotate(18 1273.7 337.5)" fill="#e09440" opacity="0.09"/><rect x="1487.7" y="-80" width="136.2" height="875" transform="rotate(18 1487.7 337.5)" fill="#e09440" opacity="0.17"/><rect x="1688.8" y="-80" width="93.9" height="875" transform="rotate(18 1688.8 337.5)" fill="#e09440" opacity="0.05"/><rect x="0" y="0" width="1200" height="675" fill="url(#glow)" opacity="0.6"/>
  <g opacity="0.85" transform="translate(1020, 495)">
        <circle r="68" fill="none" stroke="#e09440" stroke-width="2" opacity="0.35"/>
        <path d="M -38 12 L 38 12 M -32 -8 L 32 -8 M -45 -28 L 45 -28" stroke="#fdf6ee" stroke-width="3" stroke-linecap="round"/>
        <rect x="-50" y="-44" width="100" height="80" fill="none" stroke="#e09440" stroke-width="2"/>
      </g>
  <g transform="translate(80, 90)">
    <rect x="0" y="0" rx="20" ry="20" width="112" height="38" fill="#e09440" opacity="0.18" stroke="#e09440" stroke-width="1.5"/>
    <text x="56" y="25" font-family="ui-sans-serif, Inter, sans-serif" font-weight="700" font-size="14" letter-spacing="2.5" fill="#e09440" text-anchor="middle">NEWSROOM</text>
  </g>
  <text x="80" y="465" font-family="ui-sans-serif, -apple-system, Segoe UI, Inter, sans-serif" font-weight="800" font-size="44" fill="#faf8f5" opacity="0.98"><tspan x="80" dy="0">Bombay High Court:</tspan><tspan x="80" dy="56">Validity of Arbitration</tspan><tspan x="80" dy="56">Clause in "Sales Terms and</tspan></text>
  <rect x="0" y="669" width="1200" height="6" fill="url(#gold)"/>
</svg>