<?xml version="1.0" encoding="UTF-8"?>
<svg xmlns="http://www.w3.org/2000/svg" viewBox="0 0 1200 675" width="1200" height="675" role="img" aria-label="Breaking Barriers: Gender Equality in Indian Arbitration Still a Challenge, Says Chief Justice">
  <defs>
    <linearGradient id="bg" x1="0%" y1="0%" x2="100%" y2="100%">
      <stop offset="0%" stop-color="#12100e"/>
      <stop offset="100%" stop-color="#1c1917"/>
    </linearGradient>
    <linearGradient id="gold" x1="0%" y1="0%" x2="100%" y2="100%">
      <stop offset="0%" stop-color="#bd6b20"/>
      <stop offset="100%" stop-color="#e09440"/>
    </linearGradient>
    <radialGradient id="glow" cx="50%" cy="50%" r="50%">
      <stop offset="0%" stop-color="#bd6b20" stop-opacity="0.45"/>
      <stop offset="100%" stop-color="#bd6b20" stop-opacity="0"/>
    </radialGradient>
  </defs>
  <rect width="1200" height="675" fill="url(#bg)"/>
  <circle cx="27.2" cy="28.7" r="3.72" fill="#bd6b20" opacity="0.34"/><circle cx="66.9" cy="31.8" r="2.09" fill="#bd6b20" opacity="0.23"/><circle cx="100.9" cy="29.3" r="1.71" fill="#bd6b20" opacity="0.22"/><circle cx="138.7" cy="28.6" r="3.01" fill="#bd6b20" opacity="0.25"/><circle cx="175.9" cy="29.7" r="3.56" fill="#bd6b20" opacity="0.33"/><circle cx="207.3" cy="32.6" r="3.41" fill="#bd6b20" opacity="0.30"/><circle cx="246.7" cy="28.1" r="3.35" fill="#bd6b20" opacity="0.15"/><circle cx="281.3" cy="29.7" r="3.59" fill="#bd6b20" opacity="0.21"/><circle cx="315.1" cy="32.5" r="1.77" fill="#bd6b20" opacity="0.18"/><circle cx="352.5" cy="29.8" r="2.70" fill="#bd6b20" opacity="0.15"/><circle cx="391.5" cy="28.6" r="1.65" fill="#bd6b20" opacity="0.20"/><circle cx="424.0" cy="30.8" r="1.77" fill="#bd6b20" opacity="0.22"/><circle cx="463.1" cy="32.7" r="1.73" fill="#bd6b20" opacity="0.25"/><circle cx="501.0" cy="29.7" r="2.20" fill="#bd6b20" opacity="0.27"/><circle cx="531.1" cy="31.9" r="2.05" fill="#bd6b20" opacity="0.18"/><circle cx="570.6" cy="30.7" r="1.74" fill="#bd6b20" opacity="0.33"/><circle cx="603.6" cy="28.9" r="2.05" fill="#bd6b20" opacity="0.28"/><circle cx="640.9" cy="29.8" r="2.13" fill="#bd6b20" opacity="0.19"/><circle cx="678.2" cy="28.9" r="3.28" fill="#bd6b20" opacity="0.22"/><circle cx="711.2" cy="31.2" r="3.71" fill="#bd6b20" opacity="0.17"/><circle cx="752.0" cy="28.8" r="3.14" fill="#bd6b20" opacity="0.16"/><circle cx="785.1" cy="31.3" r="2.46" fill="#bd6b20" opacity="0.29"/><circle cx="819.6" cy="31.7" r="3.80" fill="#bd6b20" opacity="0.35"/><circle cx="857.1" cy="29.0" r="3.51" fill="#bd6b20" opacity="0.31"/><circle cx="892.8" cy="29.3" r="2.81" fill="#bd6b20" opacity="0.19"/><circle cx="928.7" cy="28.8" r="2.22" fill="#bd6b20" opacity="0.19"/><circle cx="967.4" cy="31.1" r="2.03" fill="#bd6b20" opacity="0.23"/><circle cx="999.2" cy="31.8" r="3.91" fill="#bd6b20" opacity="0.16"/><circle cx="1040.6" cy="27.9" r="2.09" fill="#bd6b20" opacity="0.17"/><circle cx="1075.5" cy="30.1" r="2.67" fill="#bd6b20" opacity="0.25"/><circle cx="1109.5" cy="32.3" r="2.40" fill="#bd6b20" opacity="0.15"/><circle cx="1148.5" cy="27.6" r="3.58" fill="#bd6b20" opacity="0.15"/><circle cx="1184.8" cy="32.0" r="2.54" fill="#bd6b20" opacity="0.20"/><circle cx="27.5" cy="67.2" r="3.05" fill="#bd6b20" opacity="0.27"/><circle cx="66.4" cy="64.8" r="2.59" fill="#bd6b20" opacity="0.29"/><circle cx="102.4" cy="66.9" r="3.24" fill="#bd6b20" opacity="0.23"/><circle cx="139.1" cy="67.3" r="3.99" fill="#bd6b20" opacity="0.31"/><circle cx="174.4" cy="66.0" r="2.85" fill="#bd6b20" opacity="0.16"/><circle cx="212.5" cy="67.2" r="2.23" fill="#bd6b20" opacity="0.25"/><circle cx="246.3" cy="67.4" r="2.23" fill="#bd6b20" opacity="0.18"/><circle cx="282.7" cy="65.5" r="3.86" fill="#bd6b20" opacity="0.32"/><circle cx="317.2" cy="67.0" r="2.47" fill="#bd6b20" opacity="0.27"/><circle cx="354.5" cy="64.7" r="2.06" fill="#bd6b20" opacity="0.24"/><circle cx="388.6" cy="67.1" r="2.23" fill="#bd6b20" opacity="0.27"/><circle cx="425.4" cy="68.4" r="1.65" fill="#bd6b20" opacity="0.22"/><circle cx="464.8" cy="68.0" r="3.89" fill="#bd6b20" opacity="0.35"/><circle cx="496.7" cy="68.9" r="3.92" fill="#bd6b20" opacity="0.31"/><circle cx="533.1" cy="65.1" r="1.79" fill="#bd6b20" opacity="0.20"/><circle cx="567.6" cy="64.5" r="2.76" fill="#bd6b20" opacity="0.22"/><circle cx="604.9" cy="68.3" r="3.83" fill="#bd6b20" opacity="0.18"/><circle cx="639.4" cy="65.9" r="2.43" fill="#bd6b20" opacity="0.29"/><circle cx="678.2" cy="67.2" r="1.69" fill="#bd6b20" opacity="0.18"/><circle cx="715.6" cy="64.1" r="2.65" fill="#bd6b20" opacity="0.15"/><circle cx="747.6" cy="66.5" r="3.78" fill="#bd6b20" opacity="0.19"/><circle cx="783.3" cy="68.7" r="2.15" fill="#bd6b20" opacity="0.19"/><circle cx="821.5" cy="67.4" r="2.51" fill="#bd6b20" opacity="0.24"/><circle cx="860.7" cy="64.6" r="3.67" fill="#bd6b20" opacity="0.18"/><circle cx="895.7" cy="64.0" r="2.03" fill="#bd6b20" opacity="0.29"/><circle cx="932.0" cy="67.9" r="3.60" fill="#bd6b20" opacity="0.28"/><circle cx="964.3" cy="68.2" r="1.87" fill="#bd6b20" opacity="0.20"/><circle cx="1004.6" cy="65.4" r="1.84" fill="#bd6b20" opacity="0.34"/><circle cx="1039.7" cy="64.9" r="3.50" fill="#bd6b20" opacity="0.24"/><circle cx="1071.5" cy="68.3" r="3.95" fill="#bd6b20" opacity="0.32"/><circle cx="1107.5" cy="66.5" r="2.87" fill="#bd6b20" opacity="0.27"/><circle cx="1144.5" cy="64.1" r="2.18" fill="#bd6b20" opacity="0.34"/><circle cx="1181.8" cy="63.7" r="1.83" fill="#bd6b20" opacity="0.31"/><circle cx="30.5" cy="100.6" r="2.62" fill="#bd6b20" opacity="0.25"/><circle cx="65.5" cy="102.1" r="3.65" fill="#bd6b20" opacity="0.33"/><circle cx="99.0" cy="100.1" r="2.56" fill="#bd6b20" opacity="0.16"/><circle cx="136.0" cy="101.7" r="1.61" fill="#bd6b20" opacity="0.30"/><circle cx="173.0" cy="102.6" r="2.58" fill="#bd6b20" opacity="0.16"/><circle cx="207.6" cy="101.4" r="3.38" fill="#bd6b20" opacity="0.31"/><circle cx="244.4" cy="102.3" r="3.75" fill="#bd6b20" opacity="0.24"/><circle cx="283.9" cy="99.3" r="2.51" fill="#bd6b20" opacity="0.29"/><circle cx="315.0" cy="104.8" r="1.99" fill="#bd6b20" opacity="0.19"/><circle cx="352.1" cy="102.8" r="3.36" fill="#bd6b20" opacity="0.20"/><circle cx="389.4" cy="101.1" r="3.98" fill="#bd6b20" opacity="0.36"/><circle cx="426.4" cy="99.2" r="1.66" fill="#bd6b20" opacity="0.31"/><circle cx="461.1" cy="101.1" r="2.63" fill="#bd6b20" opacity="0.30"/><circle cx="500.8" cy="103.0" r="2.55" fill="#bd6b20" opacity="0.22"/><circle cx="535.0" cy="102.0" r="2.54" fill="#bd6b20" opacity="0.32"/><circle cx="570.3" cy="102.9" r="3.50" fill="#bd6b20" opacity="0.31"/><circle cx="606.9" cy="102.4" r="2.25" fill="#bd6b20" opacity="0.24"/><circle cx="642.3" cy="103.4" r="2.10" fill="#bd6b20" opacity="0.21"/><circle cx="677.5" cy="101.3" r="3.02" fill="#bd6b20" opacity="0.30"/><circle cx="712.7" cy="102.9" r="2.72" fill="#bd6b20" opacity="0.31"/><circle cx="749.4" cy="101.1" r="3.95" fill="#bd6b20" opacity="0.17"/><circle cx="784.3" cy="102.5" r="2.61" fill="#bd6b20" opacity="0.32"/><circle cx="823.4" cy="103.4" r="1.80" fill="#bd6b20" opacity="0.25"/><circle cx="858.7" cy="101.7" r="3.99" fill="#bd6b20" opacity="0.34"/><circle cx="892.9" cy="103.5" r="2.09" fill="#bd6b20" opacity="0.17"/><circle cx="931.9" cy="102.7" r="3.86" fill="#bd6b20" opacity="0.16"/><circle cx="964.6" cy="101.1" r="2.04" fill="#bd6b20" opacity="0.24"/><circle cx="1004.5" cy="99.7" r="2.84" fill="#bd6b20" opacity="0.29"/><circle cx="1037.4" cy="100.7" r="1.62" fill="#bd6b20" opacity="0.19"/><circle cx="1075.3" cy="104.6" r="2.32" fill="#bd6b20" opacity="0.29"/><circle cx="1109.5" cy="101.7" r="3.47" fill="#bd6b20" opacity="0.20"/><circle cx="1145.1" cy="101.0" r="3.26" fill="#bd6b20" opacity="0.34"/><circle cx="1184.3" cy="101.5" r="2.32" fill="#bd6b20" opacity="0.27"/><circle cx="28.7" cy="135.4" r="3.60" fill="#bd6b20" opacity="0.26"/><circle cx="67.8" cy="138.4" r="3.67" fill="#bd6b20" opacity="0.32"/><circle cx="99.3" cy="137.8" r="1.69" fill="#bd6b20" opacity="0.19"/><circle cx="136.9" cy="140.9" r="2.65" fill="#bd6b20" opacity="0.20"/><circle cx="173.0" cy="140.2" r="3.06" fill="#bd6b20" opacity="0.28"/><circle cx="208.4" cy="136.6" r="1.65" fill="#bd6b20" opacity="0.24"/><circle cx="243.8" cy="138.5" r="3.08" fill="#bd6b20" opacity="0.19"/><circle cx="283.9" cy="139.7" r="3.94" fill="#bd6b20" opacity="0.36"/><circle cx="315.9" cy="139.9" r="1.77" fill="#bd6b20" opacity="0.24"/><circle cx="355.0" cy="140.6" r="2.18" fill="#bd6b20" opacity="0.18"/><circle cx="387.0" cy="139.0" r="2.70" fill="#bd6b20" opacity="0.33"/><circle cx="426.0" cy="137.8" r="3.06" fill="#bd6b20" opacity="0.29"/><circle cx="462.7" cy="140.3" r="3.44" fill="#bd6b20" opacity="0.29"/><circle cx="497.9" cy="138.4" r="1.88" fill="#bd6b20" opacity="0.19"/><circle cx="535.2" cy="135.8" r="3.90" fill="#bd6b20" opacity="0.30"/><circle cx="567.7" cy="138.0" r="2.87" fill="#bd6b20" opacity="0.35"/><circle cx="603.7" cy="135.1" r="3.13" fill="#bd6b20" opacity="0.30"/><circle cx="640.8" cy="138.4" r="3.24" fill="#bd6b20" opacity="0.20"/><circle cx="676.6" cy="140.4" r="2.72" fill="#bd6b20" opacity="0.29"/><circle cx="714.3" cy="138.3" r="1.61" fill="#bd6b20" opacity="0.30"/><circle cx="748.1" cy="137.2" r="3.50" fill="#bd6b20" opacity="0.22"/><circle cx="786.0" cy="136.9" r="2.80" fill="#bd6b20" opacity="0.36"/><circle cx="819.9" cy="138.1" r="3.27" fill="#bd6b20" opacity="0.33"/><circle cx="857.7" cy="140.6" r="2.32" fill="#bd6b20" opacity="0.22"/><circle cx="893.7" cy="140.1" r="1.99" fill="#bd6b20" opacity="0.21"/><circle cx="929.2" cy="137.6" r="1.68" fill="#bd6b20" opacity="0.23"/><circle cx="963.8" cy="139.1" r="3.40" fill="#bd6b20" opacity="0.34"/><circle cx="1000.4" cy="138.8" r="3.48" fill="#bd6b20" opacity="0.34"/><circle cx="1035.5" cy="135.6" r="2.25" fill="#bd6b20" opacity="0.28"/><circle cx="1075.4" cy="139.1" r="2.40" fill="#bd6b20" opacity="0.18"/><circle cx="1110.9" cy="138.6" r="2.77" fill="#bd6b20" opacity="0.21"/><circle cx="1147.4" cy="136.4" r="3.25" fill="#bd6b20" opacity="0.27"/><circle cx="1180.0" cy="140.4" r="2.83" fill="#bd6b20" opacity="0.25"/><circle cx="30.2" cy="171.6" r="2.59" fill="#bd6b20" opacity="0.19"/><circle cx="65.0" cy="175.7" r="3.59" fill="#bd6b20" opacity="0.24"/><circle cx="104.3" cy="176.5" r="2.98" fill="#bd6b20" opacity="0.15"/><circle cx="140.3" cy="175.4" r="1.93" fill="#bd6b20" opacity="0.22"/><circle cx="172.2" cy="171.3" r="3.08" fill="#bd6b20" opacity="0.32"/><circle cx="210.7" cy="174.1" r="3.15" fill="#bd6b20" opacity="0.25"/><circle cx="246.1" cy="171.4" r="2.33" fill="#bd6b20" opacity="0.23"/><circle cx="280.8" cy="173.7" r="3.13" fill="#bd6b20" opacity="0.35"/><circle cx="320.3" cy="171.8" r="2.76" fill="#bd6b20" opacity="0.25"/><circle cx="354.5" cy="174.8" r="1.67" fill="#bd6b20" opacity="0.19"/><circle cx="388.4" cy="173.0" r="3.43" fill="#bd6b20" opacity="0.31"/><circle cx="427.4" cy="174.6" r="3.90" fill="#bd6b20" opacity="0.31"/><circle cx="463.0" cy="174.6" r="3.92" fill="#bd6b20" opacity="0.16"/><circle cx="495.8" cy="174.7" r="3.34" fill="#bd6b20" opacity="0.29"/><circle cx="534.5" cy="174.0" r="2.97" fill="#bd6b20" opacity="0.19"/><circle cx="569.6" cy="173.7" r="3.55" fill="#bd6b20" opacity="0.29"/><circle cx="605.4" cy="171.1" r="3.85" fill="#bd6b20" opacity="0.24"/><circle cx="642.2" cy="171.7" r="3.46" fill="#bd6b20" opacity="0.23"/><circle cx="677.5" cy="173.0" r="1.74" fill="#bd6b20" opacity="0.15"/><circle cx="712.8" cy="171.9" r="3.40" fill="#bd6b20" opacity="0.17"/><circle cx="750.8" cy="173.1" r="1.70" fill="#bd6b20" opacity="0.33"/><circle cx="788.9" cy="173.6" r="2.19" fill="#bd6b20" opacity="0.20"/><circle cx="824.5" cy="172.0" r="3.86" fill="#bd6b20" opacity="0.17"/><circle cx="858.8" cy="175.3" r="2.21" fill="#bd6b20" opacity="0.27"/><circle cx="896.8" cy="175.1" r="3.24" fill="#bd6b20" opacity="0.19"/><circle cx="930.7" cy="176.1" r="3.33" fill="#bd6b20" opacity="0.35"/><circle cx="967.5" cy="171.9" r="2.07" fill="#bd6b20" opacity="0.35"/><circle cx="999.4" cy="173.4" r="3.14" fill="#bd6b20" opacity="0.20"/><circle cx="1037.2" cy="171.1" r="1.79" fill="#bd6b20" opacity="0.27"/><circle cx="1074.1" cy="174.3" r="2.41" fill="#bd6b20" opacity="0.32"/><circle cx="1111.2" cy="172.8" r="2.00" fill="#bd6b20" opacity="0.17"/><circle cx="1148.4" cy="173.4" r="3.20" fill="#bd6b20" opacity="0.31"/><circle cx="1182.1" cy="173.7" r="3.60" fill="#bd6b20" opacity="0.20"/><circle cx="28.3" cy="211.1" r="1.72" fill="#bd6b20" opacity="0.31"/><circle cx="65.7" cy="212.0" r="2.71" fill="#bd6b20" opacity="0.18"/><circle cx="99.1" cy="210.2" r="3.39" fill="#bd6b20" opacity="0.31"/><circle cx="135.3" cy="210.6" r="3.13" fill="#bd6b20" opacity="0.25"/><circle cx="173.0" cy="207.5" r="2.55" fill="#bd6b20" opacity="0.24"/><circle cx="209.6" cy="209.8" r="3.17" fill="#bd6b20" opacity="0.15"/><circle cx="243.2" cy="211.8" r="2.57" fill="#bd6b20" opacity="0.17"/><circle cx="283.8" cy="209.3" r="1.89" fill="#bd6b20" opacity="0.17"/><circle cx="320.5" cy="210.0" r="3.71" fill="#bd6b20" opacity="0.30"/><circle cx="354.6" cy="209.6" r="3.64" fill="#bd6b20" opacity="0.28"/><circle cx="387.4" cy="212.3" r="2.73" fill="#bd6b20" opacity="0.21"/><circle cx="425.0" cy="208.2" r="3.14" fill="#bd6b20" opacity="0.18"/><circle cx="462.6" cy="212.2" r="2.65" fill="#bd6b20" opacity="0.20"/><circle cx="499.4" cy="210.7" r="3.70" fill="#bd6b20" opacity="0.20"/><circle cx="534.7" cy="211.9" r="1.77" fill="#bd6b20" opacity="0.35"/><circle cx="569.8" cy="207.2" r="2.59" fill="#bd6b20" opacity="0.29"/><circle cx="605.2" cy="210.1" r="3.04" fill="#bd6b20" opacity="0.25"/><circle cx="641.9" cy="212.5" r="3.81" fill="#bd6b20" opacity="0.19"/><circle cx="675.8" cy="211.6" r="2.69" fill="#bd6b20" opacity="0.20"/><circle cx="711.9" cy="208.2" r="3.78" fill="#bd6b20" opacity="0.33"/><circle cx="751.5" cy="211.3" r="2.12" fill="#bd6b20" opacity="0.27"/><circle cx="784.3" cy="213.0" r="2.54" fill="#bd6b20" opacity="0.24"/><circle cx="820.8" cy="209.3" r="1.83" fill="#bd6b20" opacity="0.22"/><circle cx="856.5" cy="210.9" r="2.34" fill="#bd6b20" opacity="0.22"/><circle cx="894.7" cy="212.0" r="2.60" fill="#bd6b20" opacity="0.19"/><circle cx="928.6" cy="212.9" r="3.86" fill="#bd6b20" opacity="0.25"/><circle cx="965.1" cy="207.6" r="2.00" fill="#bd6b20" opacity="0.35"/><circle cx="1004.7" cy="208.4" r="1.92" fill="#bd6b20" opacity="0.31"/><circle cx="1036.5" cy="210.3" r="2.51" fill="#bd6b20" opacity="0.33"/><circle cx="1074.1" cy="211.7" r="1.71" fill="#bd6b20" opacity="0.26"/><circle cx="1112.1" cy="209.0" r="3.84" fill="#bd6b20" opacity="0.20"/><circle cx="1143.6" cy="211.9" r="2.70" fill="#bd6b20" opacity="0.30"/><circle cx="1181.6" cy="208.7" r="2.46" fill="#bd6b20" opacity="0.24"/><circle cx="32.0" cy="245.0" r="2.09" fill="#bd6b20" opacity="0.16"/><circle cx="65.3" cy="243.5" r="1.70" fill="#bd6b20" opacity="0.30"/><circle cx="104.2" cy="246.2" r="3.35" fill="#bd6b20" opacity="0.21"/><circle cx="140.1" cy="248.7" r="3.81" fill="#bd6b20" opacity="0.29"/><circle cx="173.9" cy="246.8" r="3.30" fill="#bd6b20" opacity="0.36"/><circle cx="209.8" cy="245.2" r="3.48" fill="#bd6b20" opacity="0.18"/><circle cx="247.7" cy="246.1" r="3.14" fill="#bd6b20" opacity="0.19"/><circle cx="283.2" cy="244.5" r="3.33" fill="#bd6b20" opacity="0.36"/><circle cx="318.1" cy="247.0" r="3.11" fill="#bd6b20" opacity="0.23"/><circle cx="352.1" cy="247.7" r="3.77" fill="#bd6b20" opacity="0.28"/><circle cx="393.0" cy="245.6" r="2.60" fill="#bd6b20" opacity="0.20"/><circle cx="426.2" cy="245.0" r="1.61" fill="#bd6b20" opacity="0.22"/><circle cx="462.2" cy="247.5" r="1.64" fill="#bd6b20" opacity="0.25"/><circle cx="496.1" cy="243.0" r="3.88" fill="#bd6b20" opacity="0.21"/><circle cx="534.4" cy="248.4" r="2.46" fill="#bd6b20" opacity="0.20"/><circle cx="568.5" cy="247.3" r="1.97" fill="#bd6b20" opacity="0.16"/><circle cx="604.8" cy="247.9" r="3.95" fill="#bd6b20" opacity="0.16"/><circle cx="644.6" cy="246.8" r="3.53" fill="#bd6b20" opacity="0.18"/><circle cx="680.7" cy="245.8" r="3.86" fill="#bd6b20" opacity="0.17"/><circle cx="711.3" cy="246.7" r="3.37" fill="#bd6b20" opacity="0.15"/><circle cx="747.8" cy="245.8" r="3.34" fill="#bd6b20" opacity="0.22"/><circle cx="784.8" cy="248.8" r="2.13" fill="#bd6b20" opacity="0.33"/><circle cx="824.2" cy="245.4" r="3.01" fill="#bd6b20" opacity="0.16"/><circle cx="860.6" cy="247.8" r="3.22" fill="#bd6b20" opacity="0.22"/><circle cx="896.2" cy="243.7" r="1.81" fill="#bd6b20" opacity="0.29"/><circle cx="932.2" cy="248.1" r="3.68" fill="#bd6b20" opacity="0.20"/><circle cx="966.2" cy="246.7" r="2.37" fill="#bd6b20" opacity="0.27"/><circle cx="1001.1" cy="248.4" r="2.41" fill="#bd6b20" opacity="0.21"/><circle cx="1037.3" cy="247.1" r="3.22" fill="#bd6b20" opacity="0.28"/><circle cx="1074.3" cy="245.7" r="1.63" fill="#bd6b20" opacity="0.29"/><circle cx="1110.2" cy="246.8" r="2.86" fill="#bd6b20" opacity="0.35"/><circle cx="1146.0" cy="247.0" r="3.36" fill="#bd6b20" opacity="0.16"/><circle cx="1184.0" cy="243.9" r="2.24" fill="#bd6b20" opacity="0.19"/><circle cx="30.2" cy="281.5" r="2.94" fill="#bd6b20" opacity="0.36"/><circle cx="66.9" cy="284.7" r="2.70" fill="#bd6b20" opacity="0.18"/><circle cx="102.3" cy="284.8" r="3.41" fill="#bd6b20" opacity="0.23"/><circle cx="135.2" cy="283.3" r="2.58" fill="#bd6b20" opacity="0.23"/><circle cx="175.4" cy="282.6" r="2.54" fill="#bd6b20" opacity="0.30"/><circle cx="207.1" cy="280.1" r="3.42" fill="#bd6b20" opacity="0.34"/><circle cx="245.9" cy="281.2" r="3.79" fill="#bd6b20" opacity="0.33"/><circle cx="283.6" cy="282.0" r="2.94" fill="#bd6b20" opacity="0.34"/><circle cx="318.2" cy="283.9" r="1.88" fill="#bd6b20" opacity="0.30"/><circle cx="352.7" cy="280.9" r="3.23" fill="#bd6b20" opacity="0.29"/><circle cx="391.0" cy="284.4" r="2.43" fill="#bd6b20" opacity="0.31"/><circle cx="424.2" cy="282.7" r="2.79" fill="#bd6b20" opacity="0.32"/><circle cx="460.6" cy="281.3" r="2.14" fill="#bd6b20" opacity="0.20"/><circle cx="499.8" cy="279.4" r="3.84" fill="#bd6b20" opacity="0.18"/><circle cx="531.6" cy="280.6" r="1.89" fill="#bd6b20" opacity="0.31"/><circle cx="572.1" cy="279.1" r="3.07" fill="#bd6b20" opacity="0.28"/><circle cx="606.2" cy="282.1" r="1.81" fill="#bd6b20" opacity="0.28"/><circle cx="642.4" cy="284.8" r="1.67" fill="#bd6b20" opacity="0.31"/><circle cx="676.3" cy="282.6" r="3.54" fill="#bd6b20" opacity="0.23"/><circle cx="714.2" cy="283.0" r="2.70" fill="#bd6b20" opacity="0.33"/><circle cx="749.4" cy="282.0" r="3.11" fill="#bd6b20" opacity="0.27"/><circle cx="783.6" cy="284.1" r="2.77" fill="#bd6b20" opacity="0.34"/><circle cx="823.6" cy="279.2" r="2.61" fill="#bd6b20" opacity="0.33"/><circle cx="858.3" cy="282.1" r="3.66" fill="#bd6b20" opacity="0.19"/><circle cx="893.3" cy="281.7" r="2.83" fill="#bd6b20" opacity="0.28"/><circle cx="931.0" cy="280.7" r="3.35" fill="#bd6b20" opacity="0.20"/><circle cx="965.9" cy="279.4" r="1.66" fill="#bd6b20" opacity="0.25"/><circle cx="999.3" cy="282.1" r="1.72" fill="#bd6b20" opacity="0.36"/><circle cx="1038.6" cy="284.3" r="3.46" fill="#bd6b20" opacity="0.22"/><circle cx="1076.6" cy="283.3" r="3.19" fill="#bd6b20" opacity="0.22"/><circle cx="1111.1" cy="279.7" r="2.41" fill="#bd6b20" opacity="0.27"/><circle cx="1148.9" cy="282.0" r="3.76" fill="#bd6b20" opacity="0.23"/><circle cx="1184.2" cy="280.6" r="3.71" fill="#bd6b20" opacity="0.16"/><circle cx="31.9" cy="315.5" r="3.78" fill="#bd6b20" opacity="0.33"/><circle cx="66.7" cy="320.2" r="3.25" fill="#bd6b20" opacity="0.31"/><circle cx="101.1" cy="317.4" r="1.86" fill="#bd6b20" opacity="0.28"/><circle cx="141.0" cy="317.2" r="2.54" fill="#bd6b20" opacity="0.29"/><circle cx="173.6" cy="320.7" r="2.77" fill="#bd6b20" opacity="0.16"/><circle cx="210.8" cy="318.9" r="1.67" fill="#bd6b20" opacity="0.33"/><circle cx="246.9" cy="316.8" r="2.01" fill="#bd6b20" opacity="0.21"/><circle cx="284.6" cy="315.4" r="2.08" fill="#bd6b20" opacity="0.22"/><circle cx="319.3" cy="317.1" r="2.27" fill="#bd6b20" opacity="0.33"/><circle cx="355.2" cy="316.9" r="2.06" fill="#bd6b20" opacity="0.26"/><circle cx="388.0" cy="319.9" r="2.79" fill="#bd6b20" opacity="0.33"/><circle cx="425.4" cy="316.9" r="1.80" fill="#bd6b20" opacity="0.28"/><circle cx="464.8" cy="318.1" r="2.26" fill="#bd6b20" opacity="0.34"/><circle cx="495.2" cy="318.2" r="1.72" fill="#bd6b20" opacity="0.23"/><circle cx="532.4" cy="319.4" r="3.40" fill="#bd6b20" opacity="0.24"/><circle cx="570.2" cy="318.4" r="2.61" fill="#bd6b20" opacity="0.27"/><circle cx="603.4" cy="316.8" r="3.05" fill="#bd6b20" opacity="0.27"/><circle cx="641.2" cy="318.8" r="2.56" fill="#bd6b20" opacity="0.29"/><circle cx="677.6" cy="317.9" r="3.50" fill="#bd6b20" opacity="0.23"/><circle cx="711.9" cy="319.8" r="3.45" fill="#bd6b20" opacity="0.20"/><circle cx="747.5" cy="315.2" r="3.36" fill="#bd6b20" opacity="0.22"/><circle cx="785.7" cy="316.8" r="3.16" fill="#bd6b20" opacity="0.30"/><circle cx="820.3" cy="318.3" r="2.68" fill="#bd6b20" opacity="0.32"/><circle cx="856.3" cy="318.9" r="3.34" fill="#bd6b20" opacity="0.22"/><circle cx="894.7" cy="319.4" r="2.47" fill="#bd6b20" opacity="0.24"/><circle cx="927.4" cy="316.7" r="2.56" fill="#bd6b20" opacity="0.27"/><circle cx="963.6" cy="315.6" r="3.35" fill="#bd6b20" opacity="0.35"/><circle cx="1001.8" cy="316.1" r="3.47" fill="#bd6b20" opacity="0.16"/><circle cx="1036.6" cy="320.8" r="3.49" fill="#bd6b20" opacity="0.21"/><circle cx="1071.2" cy="315.2" r="2.05" fill="#bd6b20" opacity="0.25"/><circle cx="1107.0" cy="318.1" r="3.93" fill="#bd6b20" opacity="0.22"/><circle cx="1146.9" cy="316.2" r="2.51" fill="#bd6b20" opacity="0.25"/><circle cx="1184.4" cy="320.1" r="3.38" fill="#bd6b20" opacity="0.19"/><circle cx="32.5" cy="353.4" r="2.49" fill="#bd6b20" opacity="0.32"/><circle cx="68.0" cy="354.8" r="1.70" fill="#bd6b20" opacity="0.22"/><circle cx="100.9" cy="351.7" r="1.99" fill="#bd6b20" opacity="0.26"/><circle cx="135.2" cy="356.0" r="2.36" fill="#bd6b20" opacity="0.30"/><circle cx="175.4" cy="351.8" r="2.09" fill="#bd6b20" opacity="0.22"/><circle cx="208.7" cy="353.9" r="2.90" fill="#bd6b20" opacity="0.35"/><circle cx="245.8" cy="355.3" r="1.88" fill="#bd6b20" opacity="0.22"/><circle cx="283.3" cy="353.8" r="3.66" fill="#bd6b20" opacity="0.24"/><circle cx="317.8" cy="351.7" r="1.71" fill="#bd6b20" opacity="0.23"/><circle cx="355.8" cy="352.7" r="1.92" fill="#bd6b20" opacity="0.36"/><circle cx="387.2" cy="356.5" r="2.25" fill="#bd6b20" opacity="0.15"/><circle cx="428.2" cy="355.7" r="3.93" fill="#bd6b20" opacity="0.28"/><circle cx="462.1" cy="355.3" r="1.61" fill="#bd6b20" opacity="0.16"/><circle cx="500.7" cy="354.9" r="1.67" fill="#bd6b20" opacity="0.21"/><circle cx="535.6" cy="353.7" r="2.92" fill="#bd6b20" opacity="0.21"/><circle cx="571.7" cy="351.8" r="3.99" fill="#bd6b20" opacity="0.25"/><circle cx="606.3" cy="355.7" r="3.61" fill="#bd6b20" opacity="0.23"/><circle cx="642.5" cy="356.0" r="3.40" fill="#bd6b20" opacity="0.20"/><circle cx="679.9" cy="353.7" r="1.98" fill="#bd6b20" opacity="0.34"/><circle cx="716.4" cy="355.1" r="1.92" fill="#bd6b20" opacity="0.24"/><circle cx="748.6" cy="353.4" r="3.09" fill="#bd6b20" opacity="0.24"/><circle cx="788.2" cy="356.1" r="2.39" fill="#bd6b20" opacity="0.35"/><circle cx="820.5" cy="355.2" r="3.91" fill="#bd6b20" opacity="0.26"/><circle cx="855.9" cy="352.2" r="3.31" fill="#bd6b20" opacity="0.34"/><circle cx="893.6" cy="354.9" r="1.65" fill="#bd6b20" opacity="0.17"/><circle cx="930.7" cy="355.9" r="3.75" fill="#bd6b20" opacity="0.16"/><circle cx="967.3" cy="353.7" r="2.10" fill="#bd6b20" opacity="0.25"/><circle cx="999.7" cy="353.6" r="2.30" fill="#bd6b20" opacity="0.18"/><circle cx="1040.3" cy="355.5" r="3.93" fill="#bd6b20" opacity="0.35"/><circle cx="1072.7" cy="351.4" r="3.86" fill="#bd6b20" opacity="0.17"/><circle cx="1109.9" cy="351.9" r="3.83" fill="#bd6b20" opacity="0.32"/><circle cx="1143.4" cy="353.4" r="2.97" fill="#bd6b20" opacity="0.34"/><circle cx="1182.8" cy="353.1" r="3.21" fill="#bd6b20" opacity="0.18"/><circle cx="28.3" cy="389.0" r="1.97" fill="#bd6b20" opacity="0.15"/><circle cx="68.4" cy="389.6" r="1.78" fill="#bd6b20" opacity="0.18"/><circle cx="102.1" cy="388.2" r="2.77" fill="#bd6b20" opacity="0.30"/><circle cx="139.4" cy="390.7" r="1.84" fill="#bd6b20" opacity="0.34"/><circle cx="175.3" cy="387.6" r="2.82" fill="#bd6b20" opacity="0.18"/><circle cx="208.2" cy="391.8" r="2.22" fill="#bd6b20" opacity="0.33"/><circle cx="245.3" cy="392.5" r="3.62" fill="#bd6b20" opacity="0.16"/><circle cx="281.3" cy="392.3" r="3.71" fill="#bd6b20" opacity="0.22"/><circle cx="315.3" cy="387.3" r="2.92" fill="#bd6b20" opacity="0.29"/><circle cx="353.6" cy="391.8" r="3.29" fill="#bd6b20" opacity="0.23"/><circle cx="391.0" cy="388.1" r="2.94" fill="#bd6b20" opacity="0.23"/><circle cx="428.5" cy="387.7" r="3.13" fill="#bd6b20" opacity="0.35"/><circle cx="459.5" cy="388.3" r="3.62" fill="#bd6b20" opacity="0.30"/><circle cx="498.9" cy="391.2" r="3.62" fill="#bd6b20" opacity="0.19"/><circle cx="536.4" cy="391.2" r="3.88" fill="#bd6b20" opacity="0.35"/><circle cx="569.1" cy="390.7" r="1.98" fill="#bd6b20" opacity="0.18"/><circle cx="603.1" cy="390.8" r="3.69" fill="#bd6b20" opacity="0.16"/><circle cx="639.7" cy="388.7" r="1.75" fill="#bd6b20" opacity="0.28"/><circle cx="675.9" cy="389.9" r="2.03" fill="#bd6b20" opacity="0.35"/><circle cx="711.8" cy="387.2" r="2.81" fill="#bd6b20" opacity="0.29"/><circle cx="752.2" cy="392.5" r="1.99" fill="#bd6b20" opacity="0.16"/><circle cx="785.5" cy="390.8" r="3.69" fill="#bd6b20" opacity="0.35"/><circle cx="824.3" cy="387.3" r="3.96" fill="#bd6b20" opacity="0.31"/><circle cx="858.2" cy="390.3" r="1.97" fill="#bd6b20" opacity="0.25"/><circle cx="892.3" cy="392.3" r="1.92" fill="#bd6b20" opacity="0.21"/><circle cx="930.8" cy="390.2" r="3.78" fill="#bd6b20" opacity="0.34"/><circle cx="966.2" cy="390.1" r="2.28" fill="#bd6b20" opacity="0.34"/><circle cx="1001.8" cy="388.4" r="3.44" fill="#bd6b20" opacity="0.28"/><circle cx="1040.9" cy="387.1" r="3.25" fill="#bd6b20" opacity="0.16"/><circle cx="1075.5" cy="390.6" r="3.10" fill="#bd6b20" opacity="0.35"/><circle cx="1107.3" cy="392.2" r="2.31" fill="#bd6b20" opacity="0.16"/><circle cx="1146.2" cy="389.7" r="2.21" fill="#bd6b20" opacity="0.34"/><circle cx="1184.7" cy="387.6" r="1.88" fill="#bd6b20" opacity="0.29"/><circle cx="28.6" cy="424.0" r="3.01" fill="#bd6b20" opacity="0.32"/><circle cx="65.9" cy="423.2" r="2.69" fill="#bd6b20" opacity="0.29"/><circle cx="103.7" cy="428.0" r="2.24" fill="#bd6b20" opacity="0.31"/><circle cx="137.2" cy="426.8" r="2.75" fill="#bd6b20" opacity="0.15"/><circle cx="175.9" cy="426.9" r="1.92" fill="#bd6b20" opacity="0.27"/><circle cx="207.6" cy="427.5" r="2.37" fill="#bd6b20" opacity="0.26"/><circle cx="246.2" cy="424.7" r="3.18" fill="#bd6b20" opacity="0.22"/><circle cx="284.7" cy="425.7" r="1.93" fill="#bd6b20" opacity="0.20"/><circle cx="317.1" cy="427.7" r="2.74" fill="#bd6b20" opacity="0.27"/><circle cx="352.9" cy="425.9" r="3.02" fill="#bd6b20" opacity="0.27"/><circle cx="389.3" cy="427.2" r="3.11" fill="#bd6b20" opacity="0.16"/><circle cx="427.7" cy="427.2" r="2.65" fill="#bd6b20" opacity="0.17"/><circle cx="460.0" cy="426.4" r="3.92" fill="#bd6b20" opacity="0.30"/><circle cx="499.2" cy="425.7" r="1.74" fill="#bd6b20" opacity="0.22"/><circle cx="536.0" cy="423.6" r="2.17" fill="#bd6b20" opacity="0.18"/><circle cx="571.5" cy="426.2" r="3.77" fill="#bd6b20" opacity="0.20"/><circle cx="607.4" cy="428.2" r="2.75" fill="#bd6b20" opacity="0.26"/><circle cx="643.1" cy="424.6" r="2.11" fill="#bd6b20" opacity="0.25"/><circle cx="675.5" cy="426.8" r="1.77" fill="#bd6b20" opacity="0.17"/><circle cx="715.8" cy="423.1" r="3.97" fill="#bd6b20" opacity="0.15"/><circle cx="751.6" cy="425.8" r="2.34" fill="#bd6b20" opacity="0.21"/><circle cx="785.3" cy="426.5" r="3.95" fill="#bd6b20" opacity="0.35"/><circle cx="824.9" cy="423.3" r="3.32" fill="#bd6b20" opacity="0.28"/><circle cx="859.1" cy="427.6" r="3.07" fill="#bd6b20" opacity="0.17"/><circle cx="894.8" cy="426.7" r="2.86" fill="#bd6b20" opacity="0.23"/><circle cx="932.4" cy="428.4" r="2.31" fill="#bd6b20" opacity="0.35"/><circle cx="963.8" cy="428.0" r="3.25" fill="#bd6b20" opacity="0.15"/><circle cx="1004.1" cy="426.1" r="1.68" fill="#bd6b20" opacity="0.27"/><circle cx="1035.2" cy="427.0" r="3.67" fill="#bd6b20" opacity="0.28"/><circle cx="1076.8" cy="426.3" r="3.17" fill="#bd6b20" opacity="0.23"/><circle cx="1107.5" cy="423.7" r="3.66" fill="#bd6b20" opacity="0.28"/><circle cx="1146.6" cy="426.7" r="2.97" fill="#bd6b20" opacity="0.35"/><circle cx="1184.8" cy="427.2" r="3.58" fill="#bd6b20" opacity="0.34"/><circle cx="29.3" cy="461.8" r="1.93" fill="#bd6b20" opacity="0.35"/><circle cx="63.1" cy="461.4" r="2.89" fill="#bd6b20" opacity="0.17"/><circle cx="101.7" cy="460.8" r="3.94" fill="#bd6b20" opacity="0.27"/><circle cx="140.6" cy="461.9" r="3.77" fill="#bd6b20" opacity="0.35"/><circle cx="173.3" cy="463.8" r="3.04" fill="#bd6b20" opacity="0.17"/><circle cx="207.5" cy="459.7" r="2.29" fill="#bd6b20" opacity="0.19"/><circle cx="248.9" cy="464.6" r="2.23" fill="#bd6b20" opacity="0.18"/><circle cx="283.3" cy="465.0" r="3.56" fill="#bd6b20" opacity="0.16"/><circle cx="316.6" cy="461.0" r="2.97" fill="#bd6b20" opacity="0.32"/><circle cx="354.2" cy="463.8" r="3.73" fill="#bd6b20" opacity="0.27"/><circle cx="391.3" cy="464.1" r="3.92" fill="#bd6b20" opacity="0.30"/><circle cx="427.3" cy="463.7" r="2.47" fill="#bd6b20" opacity="0.26"/><circle cx="461.4" cy="461.8" r="3.92" fill="#bd6b20" opacity="0.20"/><circle cx="495.9" cy="464.7" r="2.18" fill="#bd6b20" opacity="0.34"/><circle cx="536.7" cy="463.8" r="2.68" fill="#bd6b20" opacity="0.27"/><circle cx="568.6" cy="461.7" r="1.71" fill="#bd6b20" opacity="0.32"/><circle cx="608.5" cy="461.9" r="3.16" fill="#bd6b20" opacity="0.33"/><circle cx="641.7" cy="459.4" r="1.99" fill="#bd6b20" opacity="0.22"/><circle cx="678.7" cy="461.9" r="2.31" fill="#bd6b20" opacity="0.27"/><circle cx="716.9" cy="459.9" r="1.63" fill="#bd6b20" opacity="0.16"/><circle cx="751.9" cy="462.7" r="3.13" fill="#bd6b20" opacity="0.35"/><circle cx="786.1" cy="461.1" r="3.48" fill="#bd6b20" opacity="0.24"/><circle cx="825.0" cy="464.7" r="2.37" fill="#bd6b20" opacity="0.22"/><circle cx="858.5" cy="462.4" r="1.79" fill="#bd6b20" opacity="0.19"/><circle cx="893.5" cy="463.6" r="3.51" fill="#bd6b20" opacity="0.16"/><circle cx="929.2" cy="462.5" r="3.64" fill="#bd6b20" opacity="0.18"/><circle cx="967.5" cy="461.4" r="3.32" fill="#bd6b20" opacity="0.22"/><circle cx="999.1" cy="463.9" r="2.57" fill="#bd6b20" opacity="0.24"/><circle cx="1037.7" cy="461.7" r="3.66" fill="#bd6b20" opacity="0.16"/><circle cx="1076.1" cy="463.2" r="2.60" fill="#bd6b20" opacity="0.28"/><circle cx="1108.3" cy="460.8" r="3.83" fill="#bd6b20" opacity="0.27"/><circle cx="1143.6" cy="464.1" r="2.76" fill="#bd6b20" opacity="0.29"/><circle cx="1183.7" cy="464.7" r="2.06" fill="#bd6b20" opacity="0.26"/><circle cx="31.2" cy="496.9" r="3.44" fill="#bd6b20" opacity="0.33"/><circle cx="64.9" cy="496.4" r="3.80" fill="#bd6b20" opacity="0.30"/><circle cx="99.2" cy="498.2" r="2.69" fill="#bd6b20" opacity="0.28"/><circle cx="140.7" cy="499.8" r="3.80" fill="#bd6b20" opacity="0.32"/><circle cx="176.2" cy="499.9" r="3.64" fill="#bd6b20" opacity="0.36"/><circle cx="209.1" cy="498.1" r="2.52" fill="#bd6b20" opacity="0.16"/><circle cx="245.7" cy="497.3" r="3.58" fill="#bd6b20" opacity="0.33"/><circle cx="280.9" cy="498.6" r="2.44" fill="#bd6b20" opacity="0.31"/><circle cx="318.1" cy="499.3" r="2.54" fill="#bd6b20" opacity="0.28"/><circle cx="356.0" cy="495.4" r="2.98" fill="#bd6b20" opacity="0.20"/><circle cx="388.5" cy="500.6" r="3.34" fill="#bd6b20" opacity="0.20"/><circle cx="427.5" cy="495.5" r="1.96" fill="#bd6b20" opacity="0.23"/><circle cx="459.7" cy="498.4" r="3.25" fill="#bd6b20" opacity="0.24"/><circle cx="495.5" cy="498.3" r="3.73" fill="#bd6b20" opacity="0.32"/><circle cx="531.7" cy="495.8" r="1.74" fill="#bd6b20" opacity="0.27"/><circle cx="571.4" cy="499.2" r="3.88" fill="#bd6b20" opacity="0.33"/><circle cx="603.9" cy="496.0" r="2.72" fill="#bd6b20" opacity="0.26"/><circle cx="641.2" cy="495.2" r="3.46" fill="#bd6b20" opacity="0.34"/><circle cx="676.8" cy="497.1" r="3.77" fill="#bd6b20" opacity="0.28"/><circle cx="712.2" cy="500.9" r="3.75" fill="#bd6b20" opacity="0.27"/><circle cx="752.1" cy="496.4" r="3.63" fill="#bd6b20" opacity="0.28"/><circle cx="783.0" cy="499.0" r="2.29" fill="#bd6b20" opacity="0.19"/><circle cx="824.1" cy="499.6" r="2.61" fill="#bd6b20" opacity="0.16"/><circle cx="861.0" cy="496.6" r="1.98" fill="#bd6b20" opacity="0.29"/><circle cx="894.5" cy="496.9" r="1.71" fill="#bd6b20" opacity="0.21"/><circle cx="930.3" cy="499.0" r="1.86" fill="#bd6b20" opacity="0.17"/><circle cx="966.6" cy="499.4" r="3.87" fill="#bd6b20" opacity="0.29"/><circle cx="1004.1" cy="498.6" r="2.75" fill="#bd6b20" opacity="0.22"/><circle cx="1037.4" cy="497.9" r="2.59" fill="#bd6b20" opacity="0.30"/><circle cx="1076.4" cy="495.7" r="1.80" fill="#bd6b20" opacity="0.34"/><circle cx="1111.3" cy="497.7" r="3.54" fill="#bd6b20" opacity="0.24"/><circle cx="1145.2" cy="496.8" r="2.96" fill="#bd6b20" opacity="0.19"/><circle cx="1179.8" cy="496.6" r="2.10" fill="#bd6b20" opacity="0.21"/><circle cx="30.8" cy="534.5" r="2.51" fill="#bd6b20" opacity="0.16"/><circle cx="66.9" cy="535.4" r="3.06" fill="#bd6b20" opacity="0.31"/><circle cx="102.8" cy="536.2" r="3.30" fill="#bd6b20" opacity="0.20"/><circle cx="135.6" cy="532.1" r="3.96" fill="#bd6b20" opacity="0.16"/><circle cx="172.4" cy="532.1" r="3.86" fill="#bd6b20" opacity="0.31"/><circle cx="212.8" cy="533.4" r="2.37" fill="#bd6b20" opacity="0.19"/><circle cx="246.2" cy="532.9" r="3.60" fill="#bd6b20" opacity="0.25"/><circle cx="283.2" cy="536.5" r="3.23" fill="#bd6b20" opacity="0.31"/><circle cx="319.7" cy="534.4" r="2.81" fill="#bd6b20" opacity="0.25"/><circle cx="351.3" cy="532.7" r="2.61" fill="#bd6b20" opacity="0.28"/><circle cx="392.0" cy="533.1" r="1.65" fill="#bd6b20" opacity="0.33"/><circle cx="426.4" cy="534.8" r="2.54" fill="#bd6b20" opacity="0.21"/><circle cx="460.7" cy="533.4" r="1.93" fill="#bd6b20" opacity="0.23"/><circle cx="497.7" cy="536.6" r="1.70" fill="#bd6b20" opacity="0.30"/><circle cx="534.5" cy="532.6" r="2.22" fill="#bd6b20" opacity="0.29"/><circle cx="569.1" cy="536.5" r="2.41" fill="#bd6b20" opacity="0.24"/><circle cx="607.8" cy="531.9" r="2.12" fill="#bd6b20" opacity="0.18"/><circle cx="641.8" cy="534.2" r="3.08" fill="#bd6b20" opacity="0.20"/><circle cx="677.9" cy="534.1" r="3.35" fill="#bd6b20" opacity="0.18"/><circle cx="714.6" cy="533.4" r="2.46" fill="#bd6b20" opacity="0.20"/><circle cx="751.5" cy="532.8" r="2.21" fill="#bd6b20" opacity="0.28"/><circle cx="786.6" cy="531.1" r="3.46" fill="#bd6b20" opacity="0.17"/><circle cx="825.0" cy="531.4" r="2.05" fill="#bd6b20" opacity="0.23"/><circle cx="855.7" cy="531.8" r="3.15" fill="#bd6b20" opacity="0.33"/><circle cx="892.7" cy="532.5" r="2.30" fill="#bd6b20" opacity="0.16"/><circle cx="930.3" cy="533.4" r="2.62" fill="#bd6b20" opacity="0.17"/><circle cx="968.0" cy="535.5" r="2.64" fill="#bd6b20" opacity="0.21"/><circle cx="1000.6" cy="534.0" r="2.44" fill="#bd6b20" opacity="0.23"/><circle cx="1036.7" cy="533.2" r="2.62" fill="#bd6b20" opacity="0.28"/><circle cx="1072.4" cy="536.8" r="1.79" fill="#bd6b20" opacity="0.27"/><circle cx="1107.6" cy="533.7" r="2.76" fill="#bd6b20" opacity="0.22"/><circle cx="1146.5" cy="531.7" r="1.61" fill="#bd6b20" opacity="0.35"/><circle cx="1179.5" cy="535.1" r="3.17" fill="#bd6b20" opacity="0.33"/><circle cx="27.1" cy="570.9" r="3.17" fill="#bd6b20" opacity="0.21"/><circle cx="66.9" cy="571.8" r="2.92" fill="#bd6b20" opacity="0.28"/><circle cx="101.1" cy="570.2" r="3.17" fill="#bd6b20" opacity="0.34"/><circle cx="136.2" cy="571.5" r="2.72" fill="#bd6b20" opacity="0.15"/><circle cx="176.0" cy="569.4" r="3.41" fill="#bd6b20" opacity="0.33"/><circle cx="208.7" cy="567.9" r="2.71" fill="#bd6b20" opacity="0.29"/><circle cx="247.1" cy="569.7" r="3.46" fill="#bd6b20" opacity="0.16"/><circle cx="281.9" cy="570.6" r="3.72" fill="#bd6b20" opacity="0.34"/><circle cx="316.4" cy="567.7" r="1.75" fill="#bd6b20" opacity="0.24"/><circle cx="355.4" cy="571.4" r="3.13" fill="#bd6b20" opacity="0.28"/><circle cx="388.9" cy="570.7" r="2.47" fill="#bd6b20" opacity="0.18"/><circle cx="424.3" cy="569.5" r="3.64" fill="#bd6b20" opacity="0.17"/><circle cx="463.0" cy="572.5" r="3.10" fill="#bd6b20" opacity="0.16"/><circle cx="497.4" cy="572.5" r="3.98" fill="#bd6b20" opacity="0.32"/><circle cx="532.2" cy="567.9" r="2.37" fill="#bd6b20" opacity="0.29"/><circle cx="569.4" cy="571.1" r="2.61" fill="#bd6b20" opacity="0.24"/><circle cx="606.4" cy="569.8" r="3.01" fill="#bd6b20" opacity="0.24"/><circle cx="642.8" cy="568.5" r="3.42" fill="#bd6b20" opacity="0.20"/><circle cx="676.3" cy="569.5" r="2.01" fill="#bd6b20" opacity="0.34"/><circle cx="712.6" cy="570.5" r="3.04" fill="#bd6b20" opacity="0.16"/><circle cx="749.2" cy="572.5" r="2.36" fill="#bd6b20" opacity="0.36"/><circle cx="788.6" cy="571.2" r="3.23" fill="#bd6b20" opacity="0.29"/><circle cx="821.3" cy="569.3" r="2.04" fill="#bd6b20" opacity="0.24"/><circle cx="857.1" cy="570.2" r="1.97" fill="#bd6b20" opacity="0.28"/><circle cx="895.7" cy="569.7" r="3.76" fill="#bd6b20" opacity="0.27"/><circle cx="930.4" cy="571.1" r="3.92" fill="#bd6b20" opacity="0.22"/><circle cx="965.2" cy="567.6" r="1.82" fill="#bd6b20" opacity="0.17"/><circle cx="1001.4" cy="569.3" r="3.26" fill="#bd6b20" opacity="0.33"/><circle cx="1038.4" cy="572.7" r="1.99" fill="#bd6b20" opacity="0.35"/><circle cx="1072.1" cy="567.4" r="1.61" fill="#bd6b20" opacity="0.16"/><circle cx="1112.3" cy="571.8" r="1.88" fill="#bd6b20" opacity="0.33"/><circle cx="1144.9" cy="569.5" r="1.63" fill="#bd6b20" opacity="0.17"/><circle cx="1179.9" cy="570.5" r="3.30" fill="#bd6b20" opacity="0.23"/><circle cx="32.2" cy="606.4" r="3.99" fill="#bd6b20" opacity="0.20"/><circle cx="68.2" cy="605.1" r="2.25" fill="#bd6b20" opacity="0.21"/><circle cx="103.2" cy="607.7" r="1.83" fill="#bd6b20" opacity="0.26"/><circle cx="136.3" cy="605.1" r="2.35" fill="#bd6b20" opacity="0.29"/><circle cx="172.1" cy="608.2" r="3.77" fill="#bd6b20" opacity="0.33"/><circle cx="209.4" cy="603.9" r="3.15" fill="#bd6b20" opacity="0.34"/><circle cx="246.4" cy="608.1" r="2.85" fill="#bd6b20" opacity="0.32"/><circle cx="282.2" cy="605.7" r="2.17" fill="#bd6b20" opacity="0.34"/><circle cx="315.6" cy="608.3" r="3.58" fill="#bd6b20" opacity="0.25"/><circle cx="352.0" cy="608.0" r="3.81" fill="#bd6b20" opacity="0.31"/><circle cx="391.5" cy="605.4" r="2.58" fill="#bd6b20" opacity="0.17"/><circle cx="426.5" cy="608.8" r="2.23" fill="#bd6b20" opacity="0.18"/><circle cx="464.5" cy="603.3" r="2.74" fill="#bd6b20" opacity="0.27"/><circle cx="499.0" cy="604.2" r="3.26" fill="#bd6b20" opacity="0.33"/><circle cx="533.9" cy="607.1" r="2.28" fill="#bd6b20" opacity="0.24"/><circle cx="569.3" cy="608.2" r="3.86" fill="#bd6b20" opacity="0.22"/><circle cx="605.5" cy="606.4" r="3.52" fill="#bd6b20" opacity="0.34"/><circle cx="643.7" cy="605.5" r="2.81" fill="#bd6b20" opacity="0.22"/><circle cx="675.9" cy="608.8" r="3.44" fill="#bd6b20" opacity="0.34"/><circle cx="711.3" cy="607.0" r="3.04" fill="#bd6b20" opacity="0.35"/><circle cx="748.6" cy="606.8" r="1.79" fill="#bd6b20" opacity="0.21"/><circle cx="784.0" cy="608.5" r="3.87" fill="#bd6b20" opacity="0.35"/><circle cx="822.0" cy="605.0" r="2.71" fill="#bd6b20" opacity="0.33"/><circle cx="860.9" cy="607.7" r="3.25" fill="#bd6b20" opacity="0.23"/><circle cx="895.7" cy="603.4" r="2.77" fill="#bd6b20" opacity="0.18"/><circle cx="930.2" cy="605.9" r="3.54" fill="#bd6b20" opacity="0.22"/><circle cx="966.2" cy="603.1" r="1.78" fill="#bd6b20" opacity="0.23"/><circle cx="1000.8" cy="603.7" r="1.88" fill="#bd6b20" opacity="0.31"/><circle cx="1038.9" cy="608.6" r="3.68" fill="#bd6b20" opacity="0.28"/><circle cx="1073.4" cy="605.8" r="3.30" fill="#bd6b20" opacity="0.26"/><circle cx="1111.6" cy="608.8" r="3.22" fill="#bd6b20" opacity="0.23"/><circle cx="1143.6" cy="607.4" r="3.44" fill="#bd6b20" opacity="0.22"/><circle cx="1179.4" cy="607.7" r="3.49" fill="#bd6b20" opacity="0.29"/><circle cx="28.7" cy="642.1" r="2.66" fill="#bd6b20" opacity="0.24"/><circle cx="67.6" cy="641.9" r="3.54" fill="#bd6b20" opacity="0.36"/><circle cx="101.9" cy="639.0" r="3.28" fill="#bd6b20" opacity="0.28"/><circle cx="137.0" cy="640.3" r="3.07" fill="#bd6b20" opacity="0.26"/><circle cx="176.0" cy="644.2" r="2.82" fill="#bd6b20" opacity="0.32"/><circle cx="209.6" cy="643.2" r="3.42" fill="#bd6b20" opacity="0.33"/><circle cx="244.6" cy="640.9" r="1.66" fill="#bd6b20" opacity="0.19"/><circle cx="281.1" cy="644.0" r="1.82" fill="#bd6b20" opacity="0.17"/><circle cx="316.6" cy="643.6" r="1.93" fill="#bd6b20" opacity="0.32"/><circle cx="351.5" cy="642.8" r="3.52" fill="#bd6b20" opacity="0.20"/><circle cx="391.8" cy="641.0" r="3.52" fill="#bd6b20" opacity="0.22"/><circle cx="425.7" cy="639.4" r="2.31" fill="#bd6b20" opacity="0.25"/><circle cx="462.6" cy="643.4" r="2.24" fill="#bd6b20" opacity="0.29"/><circle cx="495.7" cy="640.6" r="3.30" fill="#bd6b20" opacity="0.18"/><circle cx="535.4" cy="643.8" r="2.43" fill="#bd6b20" opacity="0.24"/><circle cx="572.1" cy="643.3" r="1.60" fill="#bd6b20" opacity="0.17"/><circle cx="608.3" cy="639.9" r="2.46" fill="#bd6b20" opacity="0.22"/><circle cx="639.8" cy="642.9" r="2.63" fill="#bd6b20" opacity="0.18"/><circle cx="678.2" cy="642.3" r="3.89" fill="#bd6b20" opacity="0.34"/><circle cx="713.4" cy="639.4" r="2.02" fill="#bd6b20" opacity="0.17"/><circle cx="751.5" cy="641.5" r="1.68" fill="#bd6b20" opacity="0.16"/><circle cx="784.6" cy="644.2" r="3.33" fill="#bd6b20" opacity="0.22"/><circle cx="821.8" cy="643.0" r="3.59" fill="#bd6b20" opacity="0.17"/><circle cx="856.7" cy="644.3" r="4.00" fill="#bd6b20" opacity="0.34"/><circle cx="893.0" cy="644.1" r="2.75" fill="#bd6b20" opacity="0.33"/><circle cx="931.8" cy="644.6" r="1.70" fill="#bd6b20" opacity="0.34"/><circle cx="965.6" cy="641.2" r="3.71" fill="#bd6b20" opacity="0.33"/><circle cx="999.9" cy="643.8" r="3.51" fill="#bd6b20" opacity="0.35"/><circle cx="1040.4" cy="639.1" r="1.80" fill="#bd6b20" opacity="0.29"/><circle cx="1074.9" cy="644.3" r="1.98" fill="#bd6b20" opacity="0.32"/><circle cx="1109.3" cy="641.4" r="3.71" fill="#bd6b20" opacity="0.17"/><circle cx="1148.0" cy="642.4" r="3.80" fill="#bd6b20" opacity="0.17"/><circle cx="1182.8" cy="644.3" r="2.35" fill="#bd6b20" opacity="0.21"/><circle cx="197.0" cy="254.7" r="220" fill="url(#glow)" opacity="0.9"/>
  <g opacity="0.85" transform="translate(1020, 495)">
        <circle r="68" fill="none" stroke="#bd6b20" stroke-width="2" opacity="0.35"/>
        <path d="M -38 12 L 38 12 M -32 -8 L 32 -8 M -45 -28 L 45 -28" stroke="#e09440" stroke-width="3" stroke-linecap="round"/>
        <rect x="-50" y="-44" width="100" height="80" fill="none" stroke="#bd6b20" stroke-width="2"/>
      </g>
  <g transform="translate(80, 90)">
    <rect x="0" y="0" rx="20" ry="20" width="112" height="38" fill="#bd6b20" opacity="0.18" stroke="#bd6b20" stroke-width="1.5"/>
    <text x="56" y="25" font-family="ui-sans-serif, Inter, sans-serif" font-weight="700" font-size="14" letter-spacing="2.5" fill="#bd6b20" text-anchor="middle">NEWSROOM</text>
  </g>
  <text x="80" y="465" font-family="ui-sans-serif, -apple-system, Segoe UI, Inter, sans-serif" font-weight="800" font-size="44" fill="#faf8f5" opacity="0.98"><tspan x="80" dy="0">Breaking Barriers: Gender</tspan><tspan x="80" dy="56">Equality in Indian</tspan><tspan x="80" dy="56">Arbitration Still a</tspan></text>
  <rect x="0" y="669" width="1200" height="6" fill="url(#gold)"/>
</svg>