<?xml version="1.0" encoding="UTF-8"?>
<svg xmlns="http://www.w3.org/2000/svg" viewBox="0 0 1200 675" width="1200" height="675" role="img" aria-label="Calcutta HC Directs Composite Arbitration in Rs.12.35 Cr Case">
  <defs>
    <linearGradient id="bg" x1="0%" y1="0%" x2="100%" y2="100%">
      <stop offset="0%" stop-color="#12100e"/>
      <stop offset="100%" stop-color="#1c1917"/>
    </linearGradient>
    <linearGradient id="gold" x1="0%" y1="0%" x2="100%" y2="100%">
      <stop offset="0%" stop-color="#bd6b20"/>
      <stop offset="100%" stop-color="#e09440"/>
    </linearGradient>
    <radialGradient id="glow" cx="50%" cy="50%" r="50%">
      <stop offset="0%" stop-color="#bd6b20" stop-opacity="0.45"/>
      <stop offset="100%" stop-color="#bd6b20" stop-opacity="0"/>
    </radialGradient>
  </defs>
  <rect width="1200" height="675" fill="url(#bg)"/>
  <polygon points="-50,246.0 -20,235.1 10,225.3 40,217.0 70,210.2 100,205.1 130,201.9 160,200.6 190,201.3 220,203.9 250,208.3 280,214.6 310,222.4 340,231.7 370,242.3 400,253.9 430,266.2 460,279.0 490,291.9 520,304.8 550,317.3 580,329.1 610,339.9 640,349.6 670,357.9 700,364.6 730,369.5 760,372.6 790,373.8 820,373.0 850,370.3 880,365.8 910,359.5 940,351.5 970,342.1 1000,331.5 1030,319.9 1060,307.5 1090,294.7 1120,281.8 1150,268.9 1180,256.5 1210,244.7 1240,233.9 1250,725 -50,725" fill="#bd6b20" opacity="0.08"/><polygon points="-50,401.4 -20,411.4 10,420.3 40,427.9 70,433.9 100,438.3 130,440.9 160,441.7 190,440.7 220,437.9 250,433.3 280,427.1 310,419.4 340,410.3 370,400.2 400,389.1 430,377.4 460,365.4 490,353.2 520,341.1 550,329.5 580,318.6 610,308.6 640,299.8 670,292.3 700,286.4 730,282.1 760,279.6 790,278.9 820,280.0 850,282.9 880,287.6 910,293.9 940,301.7 970,310.8 1000,321.0 1030,332.1 1060,343.8 1090,355.9 1120,368.1 1150,380.1 1180,391.7 1210,402.6 1240,412.5 1250,725 -50,725" fill="#bd6b20" opacity="0.13"/><polygon points="-50,406.7 -20,402.1 10,397.7 40,393.6 70,389.9 100,386.6 130,383.9 160,381.7 190,380.3 220,379.4 250,379.3 280,379.9 310,381.2 340,383.1 370,385.6 400,388.7 430,392.3 460,396.3 490,400.6 520,405.1 550,409.8 580,414.5 610,419.0 640,423.4 670,427.5 700,431.2 730,434.5 760,437.2 790,439.3 820,440.7 850,441.5 880,441.6 910,441.0 940,439.7 970,437.7 1000,435.1 1030,432.0 1060,428.4 1090,424.4 1120,420.1 1150,415.5 1180,410.9 1210,406.2 1240,401.6 1250,725 -50,725" fill="#bd6b20" opacity="0.18"/><polygon points="-50,457.8 -20,457.8 10,458.6 40,460.2 70,462.6 100,465.6 130,469.3 160,473.5 190,478.2 220,483.3 250,488.5 280,493.9 310,499.3 340,504.6 370,509.6 400,514.3 430,518.5 460,522.2 490,525.2 520,527.5 550,529.1 580,529.9 610,529.8 640,529.0 670,527.4 700,525.0 730,521.9 760,518.2 790,513.9 820,509.2 850,504.1 880,498.9 910,493.5 940,488.1 970,482.8 1000,477.8 1030,473.1 1060,468.9 1090,465.3 1120,462.3 1150,460.0 1180,458.5 1210,457.8 1240,457.9 1250,725 -50,725" fill="#bd6b20" opacity="0.23"/><circle cx="300.0" cy="189.0" r="160" fill="url(#glow)"/>
  <g opacity="0.85" transform="translate(1020, 495)">
        <circle r="68" fill="none" stroke="#bd6b20" stroke-width="2" opacity="0.35"/>
        <path d="M -38 12 L 38 12 M -32 -8 L 32 -8 M -45 -28 L 45 -28" stroke="#e09440" stroke-width="3" stroke-linecap="round"/>
        <rect x="-50" y="-44" width="100" height="80" fill="none" stroke="#bd6b20" stroke-width="2"/>
      </g>
  <g transform="translate(80, 90)">
    <rect x="0" y="0" rx="20" ry="20" width="112" height="38" fill="#bd6b20" opacity="0.18" stroke="#bd6b20" stroke-width="1.5"/>
    <text x="56" y="25" font-family="ui-sans-serif, Inter, sans-serif" font-weight="700" font-size="14" letter-spacing="2.5" fill="#bd6b20" text-anchor="middle">NEWSROOM</text>
  </g>
  <text x="80" y="465" font-family="ui-sans-serif, -apple-system, Segoe UI, Inter, sans-serif" font-weight="800" font-size="44" fill="#faf8f5" opacity="0.98"><tspan x="80" dy="0">Calcutta HC Directs</tspan><tspan x="80" dy="56">Composite Arbitration in</tspan><tspan x="80" dy="56">Rs.12.35 Cr Case</tspan></text>
  <rect x="0" y="669" width="1200" height="6" fill="url(#gold)"/>
</svg>