<?xml version="1.0" encoding="UTF-8"?>
<svg xmlns="http://www.w3.org/2000/svg" viewBox="0 0 1200 675" width="1200" height="675" role="img" aria-label="Calcutta High Court: Stamping Rules and Arbitration Clauses">
  <defs>
    <linearGradient id="bg" x1="0%" y1="0%" x2="100%" y2="100%">
      <stop offset="0%" stop-color="#532d15"/>
      <stop offset="100%" stop-color="#bd6b20"/>
    </linearGradient>
    <linearGradient id="gold" x1="0%" y1="0%" x2="100%" y2="100%">
      <stop offset="0%" stop-color="#e09440"/>
      <stop offset="100%" stop-color="#fdf6ee"/>
    </linearGradient>
    <radialGradient id="glow" cx="50%" cy="50%" r="50%">
      <stop offset="0%" stop-color="#e09440" stop-opacity="0.45"/>
      <stop offset="100%" stop-color="#e09440" stop-opacity="0"/>
    </radialGradient>
  </defs>
  <rect width="1200" height="675" fill="url(#bg)"/>
  <polygon points="447.5,99.5 437.1,12.7 523.9,2.4 534.3,89.2" fill="#fdf6ee" opacity="0.10"/><polygon points="430.6,550.9 329.7,490.0 356.5,375.3 473.8,365.2 519.6,473.8" fill="#fdf6ee" opacity="0.14"/><polygon points="70.2,615.6 -13.6,456.4 111.9,327.5 273.2,407.1 247.4,585.1" fill="#fdf6ee" opacity="0.10"/><polygon points="453.9,327.4 328.0,413.1 207.5,319.9 259.0,176.5 411.2,181.1" fill="#fdf6ee" opacity="0.06"/><polygon points="264.1,459.6 409.3,509.7 293.3,610.5" fill="#fdf6ee" opacity="0.15"/><polygon points="349.4,438.7 319.8,690.8 116.3,539.1" fill="#fdf6ee" opacity="0.11"/><polygon points="901.0,522.9 836.4,625.4 733.9,560.8 798.5,458.3" fill="#fdf6ee" opacity="0.07"/><polygon points="-5.2,535.7 -122.7,408.9 -38.5,258.0 131.2,291.5 151.7,463.1" fill="#fdf6ee" opacity="0.15"/><polygon points="1160.1,413.9 1221.1,547.0 1088.0,608.1 1027.0,475.0" fill="#fdf6ee" opacity="0.08"/><polygon points="1025.2,793.5 871.7,580.6 1132.8,554.2" fill="#fdf6ee" opacity="0.09"/><polygon points="654.9,356.4 577.2,229.0 704.5,151.3 782.2,278.7" fill="#fdf6ee" opacity="0.06"/><polygon points="1080.8,317.8 1081.8,226.6 1160.4,273.1" fill="#fdf6ee" opacity="0.15"/><polygon points="41.2,161.4 152.9,345.2 -30.9,457.0 -142.6,273.1" fill="#fdf6ee" opacity="0.08"/><polygon points="920.5,613.3 1013.2,587.4 989.3,680.7" fill="#fdf6ee" opacity="0.07"/><circle cx="936.0" cy="202.5" r="180" fill="url(#glow)"/>
  <g opacity="0.85" transform="translate(1020, 495)">
        <circle r="68" fill="none" stroke="#e09440" stroke-width="2" opacity="0.35"/>
        <path d="M -38 12 L 38 12 M -32 -8 L 32 -8 M -45 -28 L 45 -28" stroke="#fdf6ee" stroke-width="3" stroke-linecap="round"/>
        <rect x="-50" y="-44" width="100" height="80" fill="none" stroke="#e09440" stroke-width="2"/>
      </g>
  <g transform="translate(80, 90)">
    <rect x="0" y="0" rx="20" ry="20" width="112" height="38" fill="#e09440" opacity="0.18" stroke="#e09440" stroke-width="1.5"/>
    <text x="56" y="25" font-family="ui-sans-serif, Inter, sans-serif" font-weight="700" font-size="14" letter-spacing="2.5" fill="#e09440" text-anchor="middle">NEWSROOM</text>
  </g>
  <text x="80" y="465" font-family="ui-sans-serif, -apple-system, Segoe UI, Inter, sans-serif" font-weight="800" font-size="44" fill="#faf8f5" opacity="0.98"><tspan x="80" dy="0">Calcutta High Court:</tspan><tspan x="80" dy="56">Stamping Rules and</tspan><tspan x="80" dy="56">Arbitration Clauses</tspan></text>
  <rect x="0" y="669" width="1200" height="6" fill="url(#gold)"/>
</svg>