<?xml version="1.0" encoding="UTF-8"?>
<svg xmlns="http://www.w3.org/2000/svg" viewBox="0 0 1200 675" width="1200" height="675" role="img" aria-label="Calcutta High Court Appoints Arbitrator in Rs. 21 Cr ACC Plant Deal Dispute">
  <defs>
    <linearGradient id="bg" x1="0%" y1="0%" x2="100%" y2="100%">
      <stop offset="0%" stop-color="#0c0a09"/>
      <stop offset="100%" stop-color="#291813"/>
    </linearGradient>
    <linearGradient id="gold" x1="0%" y1="0%" x2="100%" y2="100%">
      <stop offset="0%" stop-color="#d4862a"/>
      <stop offset="100%" stop-color="#bd6b20"/>
    </linearGradient>
    <radialGradient id="glow" cx="50%" cy="50%" r="50%">
      <stop offset="0%" stop-color="#d4862a" stop-opacity="0.45"/>
      <stop offset="100%" stop-color="#d4862a" stop-opacity="0"/>
    </radialGradient>
  </defs>
  <rect width="1200" height="675" fill="url(#bg)"/>
  <polygon points="-50,330.0 -20,326.6 10,322.1 40,316.6 70,310.2 100,303.2 130,295.6 160,287.6 190,279.4 220,271.1 250,263.1 280,255.3 310,248.1 340,241.6 370,235.9 400,231.2 430,227.5 460,225.0 490,223.6 520,223.5 550,224.7 580,227.0 610,230.5 640,235.1 670,240.6 700,247.0 730,254.1 760,261.7 790,269.8 820,278.0 850,286.2 880,294.2 910,301.9 940,309.1 970,315.6 1000,321.2 1030,325.9 1060,329.5 1090,332.0 1120,333.3 1150,333.3 1180,332.1 1210,329.7 1240,326.1 1250,725 -50,725" fill="#d4862a" opacity="0.08"/><polygon points="-50,421.4 -20,410.6 10,398.6 40,385.9 70,372.7 100,359.2 130,345.8 160,332.8 190,320.5 220,309.1 250,298.9 280,290.2 310,283.1 340,277.7 370,274.3 400,272.9 430,273.5 460,276.0 490,280.6 520,287.0 550,295.1 580,304.7 610,315.6 640,327.5 670,340.3 700,353.6 730,367.0 760,380.4 790,393.4 820,405.7 850,417.0 880,427.1 910,435.7 940,442.8 970,448.0 1000,451.3 1030,452.6 1060,451.9 1090,449.2 1120,444.6 1150,438.1 1180,429.9 1210,420.2 1240,409.3 1250,725 -50,725" fill="#d4862a" opacity="0.13"/><polygon points="-50,446.4 -20,442.3 10,437.9 40,433.2 70,428.3 100,423.3 130,418.4 160,413.6 190,409.1 220,405.0 250,401.3 280,398.1 310,395.6 340,393.7 370,392.6 400,392.1 430,392.4 460,393.5 490,395.2 520,397.7 550,400.7 580,404.3 610,408.4 640,412.9 670,417.6 700,422.5 730,427.4 760,432.4 790,437.1 820,441.6 850,445.7 880,449.4 910,452.5 940,455.0 970,456.8 1000,458.0 1030,458.4 1060,458.0 1090,456.9 1120,455.1 1150,452.6 1180,449.6 1210,445.9 1240,441.8 1250,725 -50,725" fill="#d4862a" opacity="0.18"/><polygon points="-50,481.8 -20,477.1 10,472.3 40,467.3 70,462.4 100,457.6 130,453.0 160,448.8 190,445.0 220,441.7 250,439.0 280,437.0 310,435.6 340,435.0 370,435.1 400,436.0 430,437.5 460,439.8 490,442.7 520,446.2 550,450.1 580,454.5 610,459.1 640,464.0 670,468.9 700,473.8 730,478.6 760,483.2 790,487.4 820,491.2 850,494.4 880,497.1 910,499.1 940,500.4 970,501.0 1000,500.8 1030,499.9 1060,498.3 1090,496.0 1120,493.1 1150,489.6 1180,485.6 1210,481.3 1240,476.6 1250,725 -50,725" fill="#d4862a" opacity="0.23"/><circle cx="300.0" cy="189.0" r="160" fill="url(#glow)"/>
  <g opacity="0.85" transform="translate(1020, 495)">
        <circle r="68" fill="none" stroke="#d4862a" stroke-width="2" opacity="0.35"/>
        <path d="M -38 12 L 38 12 M -32 -8 L 32 -8 M -45 -28 L 45 -28" stroke="#bd6b20" stroke-width="3" stroke-linecap="round"/>
        <rect x="-50" y="-44" width="100" height="80" fill="none" stroke="#d4862a" stroke-width="2"/>
      </g>
  <g transform="translate(80, 90)">
    <rect x="0" y="0" rx="20" ry="20" width="112" height="38" fill="#d4862a" opacity="0.18" stroke="#d4862a" stroke-width="1.5"/>
    <text x="56" y="25" font-family="ui-sans-serif, Inter, sans-serif" font-weight="700" font-size="14" letter-spacing="2.5" fill="#d4862a" text-anchor="middle">NEWSROOM</text>
  </g>
  <text x="80" y="465" font-family="ui-sans-serif, -apple-system, Segoe UI, Inter, sans-serif" font-weight="800" font-size="44" fill="#faf8f5" opacity="0.98"><tspan x="80" dy="0">Calcutta High Court</tspan><tspan x="80" dy="56">Appoints Arbitrator in Rs.</tspan><tspan x="80" dy="56">21 Cr ACC Plant Deal</tspan></text>
  <rect x="0" y="669" width="1200" height="6" fill="url(#gold)"/>
</svg>