<?xml version="1.0" encoding="UTF-8"?>
<svg xmlns="http://www.w3.org/2000/svg" viewBox="0 0 1200 675" width="1200" height="675" role="img" aria-label="High Court Rules on Arbitration Seat Jurisdiction">
  <defs>
    <linearGradient id="bg" x1="0%" y1="0%" x2="100%" y2="100%">
      <stop offset="0%" stop-color="#12100e"/>
      <stop offset="100%" stop-color="#1c1917"/>
    </linearGradient>
    <linearGradient id="gold" x1="0%" y1="0%" x2="100%" y2="100%">
      <stop offset="0%" stop-color="#bd6b20"/>
      <stop offset="100%" stop-color="#e09440"/>
    </linearGradient>
    <radialGradient id="glow" cx="50%" cy="50%" r="50%">
      <stop offset="0%" stop-color="#bd6b20" stop-opacity="0.45"/>
      <stop offset="100%" stop-color="#bd6b20" stop-opacity="0"/>
    </radialGradient>
  </defs>
  <rect width="1200" height="675" fill="url(#bg)"/>
  <rect x="-693.9" y="-80" width="101.8" height="875" transform="rotate(18 -693.9 337.5)" fill="#bd6b20" opacity="0.14"/><rect x="-490.5" y="-80" width="109.6" height="875" transform="rotate(18 -490.5 337.5)" fill="#bd6b20" opacity="0.05"/><rect x="-341.4" y="-80" width="139.1" height="875" transform="rotate(18 -341.4 337.5)" fill="#bd6b20" opacity="0.20"/><rect x="-170.2" y="-80" width="97.2" height="875" transform="rotate(18 -170.2 337.5)" fill="#bd6b20" opacity="0.09"/><rect x="38.8" y="-80" width="125.0" height="875" transform="rotate(18 38.8 337.5)" fill="#bd6b20" opacity="0.10"/><rect x="188.2" y="-80" width="130.7" height="875" transform="rotate(18 188.2 337.5)" fill="#bd6b20" opacity="0.18"/><rect x="415.1" y="-80" width="69.6" height="875" transform="rotate(18 415.1 337.5)" fill="#bd6b20" opacity="0.15"/><rect x="553.5" y="-80" width="91.7" height="875" transform="rotate(18 553.5 337.5)" fill="#bd6b20" opacity="0.10"/><rect x="782.1" y="-80" width="113.1" height="875" transform="rotate(18 782.1 337.5)" fill="#bd6b20" opacity="0.13"/><rect x="972.3" y="-80" width="67.1" height="875" transform="rotate(18 972.3 337.5)" fill="#bd6b20" opacity="0.15"/><rect x="1085.1" y="-80" width="63.0" height="875" transform="rotate(18 1085.1 337.5)" fill="#bd6b20" opacity="0.11"/><rect x="1282.7" y="-80" width="138.7" height="875" transform="rotate(18 1282.7 337.5)" fill="#bd6b20" opacity="0.11"/><rect x="1514.3" y="-80" width="60.1" height="875" transform="rotate(18 1514.3 337.5)" fill="#bd6b20" opacity="0.18"/><rect x="1643.8" y="-80" width="95.2" height="875" transform="rotate(18 1643.8 337.5)" fill="#bd6b20" opacity="0.15"/><rect x="0" y="0" width="1200" height="675" fill="url(#glow)" opacity="0.6"/>
  <g opacity="0.85" transform="translate(1020, 495)">
        <circle r="60" fill="#bd6b20" opacity="0.18"/>
        <path d="M -34 6 Q -10 -22 14 6 Q 34 24 14 26 L -22 26 Q -38 24 -34 6 Z" fill="none" stroke="#e09440" stroke-width="3" stroke-linejoin="round"/>
      </g>
  <g transform="translate(80, 90)">
    <rect x="0" y="0" rx="20" ry="20" width="134" height="38" fill="#bd6b20" opacity="0.18" stroke="#bd6b20" stroke-width="1.5"/>
    <text x="67" y="25" font-family="ui-sans-serif, Inter, sans-serif" font-weight="700" font-size="14" letter-spacing="2.5" fill="#bd6b20" text-anchor="middle">CASE STUDY</text>
  </g>
  <text x="80" y="465" font-family="ui-sans-serif, -apple-system, Segoe UI, Inter, sans-serif" font-weight="800" font-size="44" fill="#faf8f5" opacity="0.98"><tspan x="80" dy="0">High Court Rules on</tspan><tspan x="80" dy="56">Arbitration Seat</tspan><tspan x="80" dy="56">Jurisdiction</tspan></text>
  <rect x="0" y="669" width="1200" height="6" fill="url(#gold)"/>
</svg>