<?xml version="1.0" encoding="UTF-8"?>
<svg xmlns="http://www.w3.org/2000/svg" viewBox="0 0 1200 675" width="1200" height="675" role="img" aria-label="Can ADR Be Enforced Like Court Judgments? Find Out">
  <defs>
    <linearGradient id="bg" x1="0%" y1="0%" x2="100%" y2="100%">
      <stop offset="0%" stop-color="#643516"/>
      <stop offset="100%" stop-color="#7d4315"/>
    </linearGradient>
    <linearGradient id="gold" x1="0%" y1="0%" x2="100%" y2="100%">
      <stop offset="0%" stop-color="#ecb478"/>
      <stop offset="100%" stop-color="#faebd6"/>
    </linearGradient>
    <radialGradient id="glow" cx="50%" cy="50%" r="50%">
      <stop offset="0%" stop-color="#ecb478" stop-opacity="0.45"/>
      <stop offset="100%" stop-color="#ecb478" stop-opacity="0"/>
    </radialGradient>
  </defs>
  <rect width="1200" height="675" fill="url(#bg)"/>
  <circle cx="29.9" cy="29.0" r="3.22" fill="#ecb478" opacity="0.26"/><circle cx="65.9" cy="28.7" r="3.42" fill="#ecb478" opacity="0.30"/><circle cx="101.2" cy="30.0" r="2.65" fill="#ecb478" opacity="0.31"/><circle cx="136.1" cy="32.5" r="1.87" fill="#ecb478" opacity="0.21"/><circle cx="175.7" cy="30.9" r="3.47" fill="#ecb478" opacity="0.22"/><circle cx="211.3" cy="27.3" r="2.96" fill="#ecb478" opacity="0.19"/><circle cx="247.3" cy="28.1" r="3.56" fill="#ecb478" opacity="0.24"/><circle cx="283.9" cy="27.1" r="1.62" fill="#ecb478" opacity="0.28"/><circle cx="316.0" cy="29.9" r="1.90" fill="#ecb478" opacity="0.25"/><circle cx="356.9" cy="31.5" r="2.01" fill="#ecb478" opacity="0.15"/><circle cx="390.6" cy="29.9" r="3.28" fill="#ecb478" opacity="0.20"/><circle cx="424.5" cy="28.3" r="2.21" fill="#ecb478" opacity="0.16"/><circle cx="460.3" cy="31.6" r="3.96" fill="#ecb478" opacity="0.33"/><circle cx="498.3" cy="31.4" r="1.86" fill="#ecb478" opacity="0.31"/><circle cx="536.9" cy="28.4" r="2.99" fill="#ecb478" opacity="0.20"/><circle cx="569.4" cy="27.5" r="3.86" fill="#ecb478" opacity="0.28"/><circle cx="605.7" cy="28.8" r="3.86" fill="#ecb478" opacity="0.18"/><circle cx="644.2" cy="27.0" r="2.83" fill="#ecb478" opacity="0.17"/><circle cx="676.3" cy="29.5" r="1.70" fill="#ecb478" opacity="0.29"/><circle cx="715.6" cy="32.5" r="2.32" fill="#ecb478" opacity="0.29"/><circle cx="747.1" cy="28.6" r="2.74" fill="#ecb478" opacity="0.15"/><circle cx="786.9" cy="31.4" r="2.12" fill="#ecb478" opacity="0.26"/><circle cx="824.2" cy="29.9" r="3.70" fill="#ecb478" opacity="0.34"/><circle cx="857.3" cy="27.3" r="2.99" fill="#ecb478" opacity="0.25"/><circle cx="892.5" cy="31.9" r="3.45" fill="#ecb478" opacity="0.26"/><circle cx="927.5" cy="27.8" r="2.29" fill="#ecb478" opacity="0.34"/><circle cx="968.5" cy="29.2" r="3.26" fill="#ecb478" opacity="0.18"/><circle cx="1002.9" cy="30.6" r="3.49" fill="#ecb478" opacity="0.29"/><circle cx="1040.1" cy="31.4" r="4.00" fill="#ecb478" opacity="0.19"/><circle cx="1071.5" cy="32.6" r="1.83" fill="#ecb478" opacity="0.16"/><circle cx="1111.7" cy="32.0" r="3.08" fill="#ecb478" opacity="0.24"/><circle cx="1145.4" cy="31.3" r="3.19" fill="#ecb478" opacity="0.19"/><circle cx="1182.2" cy="30.1" r="2.50" fill="#ecb478" opacity="0.16"/><circle cx="28.9" cy="67.9" r="2.63" fill="#ecb478" opacity="0.26"/><circle cx="66.1" cy="68.8" r="2.77" fill="#ecb478" opacity="0.29"/><circle cx="100.3" cy="68.9" r="1.91" fill="#ecb478" opacity="0.26"/><circle cx="139.3" cy="66.2" r="2.46" fill="#ecb478" opacity="0.30"/><circle cx="171.3" cy="64.7" r="3.75" fill="#ecb478" opacity="0.24"/><circle cx="209.9" cy="63.2" r="1.75" fill="#ecb478" opacity="0.19"/><circle cx="244.9" cy="64.5" r="1.77" fill="#ecb478" opacity="0.31"/><circle cx="284.6" cy="66.4" r="2.27" fill="#ecb478" opacity="0.16"/><circle cx="319.3" cy="67.3" r="3.01" fill="#ecb478" opacity="0.17"/><circle cx="351.5" cy="68.4" r="2.72" fill="#ecb478" opacity="0.16"/><circle cx="389.1" cy="67.3" r="2.28" fill="#ecb478" opacity="0.27"/><circle cx="425.5" cy="68.3" r="1.92" fill="#ecb478" opacity="0.29"/><circle cx="463.7" cy="65.5" r="2.16" fill="#ecb478" opacity="0.27"/><circle cx="498.8" cy="64.6" r="3.60" fill="#ecb478" opacity="0.34"/><circle cx="531.5" cy="66.9" r="1.95" fill="#ecb478" opacity="0.19"/><circle cx="572.5" cy="67.3" r="2.46" fill="#ecb478" opacity="0.29"/><circle cx="605.2" cy="65.4" r="2.03" fill="#ecb478" opacity="0.28"/><circle cx="643.1" cy="66.3" r="3.28" fill="#ecb478" opacity="0.20"/><circle cx="680.4" cy="63.2" r="3.80" fill="#ecb478" opacity="0.15"/><circle cx="714.9" cy="64.9" r="3.71" fill="#ecb478" opacity="0.29"/><circle cx="747.7" cy="66.7" r="2.10" fill="#ecb478" opacity="0.32"/><circle cx="787.6" cy="63.3" r="2.87" fill="#ecb478" opacity="0.20"/><circle cx="823.3" cy="66.9" r="2.60" fill="#ecb478" opacity="0.27"/><circle cx="859.2" cy="63.3" r="2.21" fill="#ecb478" opacity="0.32"/><circle cx="893.1" cy="63.0" r="2.70" fill="#ecb478" opacity="0.20"/><circle cx="931.6" cy="67.6" r="2.17" fill="#ecb478" opacity="0.32"/><circle cx="968.9" cy="66.7" r="1.96" fill="#ecb478" opacity="0.20"/><circle cx="1003.9" cy="65.6" r="1.92" fill="#ecb478" opacity="0.19"/><circle cx="1037.5" cy="67.0" r="2.68" fill="#ecb478" opacity="0.30"/><circle cx="1076.4" cy="65.8" r="2.07" fill="#ecb478" opacity="0.27"/><circle cx="1107.9" cy="63.6" r="1.98" fill="#ecb478" opacity="0.35"/><circle cx="1146.5" cy="63.4" r="2.62" fill="#ecb478" opacity="0.28"/><circle cx="1179.2" cy="65.5" r="2.28" fill="#ecb478" opacity="0.27"/><circle cx="29.9" cy="103.1" r="3.60" fill="#ecb478" opacity="0.33"/><circle cx="63.3" cy="101.0" r="3.18" fill="#ecb478" opacity="0.27"/><circle cx="102.0" cy="103.3" r="3.30" fill="#ecb478" opacity="0.30"/><circle cx="137.8" cy="104.2" r="2.66" fill="#ecb478" opacity="0.35"/><circle cx="174.9" cy="99.5" r="3.24" fill="#ecb478" opacity="0.23"/><circle cx="207.1" cy="99.8" r="2.44" fill="#ecb478" opacity="0.35"/><circle cx="244.1" cy="102.6" r="3.28" fill="#ecb478" opacity="0.32"/><circle cx="282.0" cy="101.2" r="1.98" fill="#ecb478" opacity="0.21"/><circle cx="319.8" cy="99.8" r="3.41" fill="#ecb478" opacity="0.32"/><circle cx="352.8" cy="100.3" r="3.89" fill="#ecb478" opacity="0.17"/><circle cx="391.3" cy="101.6" r="2.58" fill="#ecb478" opacity="0.21"/><circle cx="423.1" cy="99.5" r="3.96" fill="#ecb478" opacity="0.23"/><circle cx="461.5" cy="103.3" r="1.77" fill="#ecb478" opacity="0.24"/><circle cx="496.1" cy="103.7" r="3.13" fill="#ecb478" opacity="0.34"/><circle cx="534.2" cy="99.9" r="1.79" fill="#ecb478" opacity="0.30"/><circle cx="572.7" cy="100.0" r="1.93" fill="#ecb478" opacity="0.30"/><circle cx="604.0" cy="104.2" r="2.95" fill="#ecb478" opacity="0.27"/><circle cx="641.6" cy="99.4" r="3.42" fill="#ecb478" opacity="0.19"/><circle cx="680.7" cy="100.8" r="3.04" fill="#ecb478" opacity="0.33"/><circle cx="713.6" cy="99.9" r="3.52" fill="#ecb478" opacity="0.19"/><circle cx="751.2" cy="101.9" r="2.08" fill="#ecb478" opacity="0.30"/><circle cx="788.4" cy="101.4" r="2.71" fill="#ecb478" opacity="0.27"/><circle cx="824.5" cy="104.4" r="3.69" fill="#ecb478" opacity="0.20"/><circle cx="860.6" cy="104.8" r="2.28" fill="#ecb478" opacity="0.26"/><circle cx="892.7" cy="104.5" r="3.39" fill="#ecb478" opacity="0.33"/><circle cx="931.2" cy="100.0" r="2.91" fill="#ecb478" opacity="0.20"/><circle cx="968.2" cy="102.1" r="3.61" fill="#ecb478" opacity="0.35"/><circle cx="999.3" cy="99.5" r="3.31" fill="#ecb478" opacity="0.17"/><circle cx="1035.2" cy="101.0" r="3.44" fill="#ecb478" opacity="0.32"/><circle cx="1074.7" cy="100.2" r="2.64" fill="#ecb478" opacity="0.31"/><circle cx="1110.0" cy="100.4" r="3.69" fill="#ecb478" opacity="0.35"/><circle cx="1143.7" cy="102.7" r="3.60" fill="#ecb478" opacity="0.26"/><circle cx="1180.2" cy="99.9" r="3.62" fill="#ecb478" opacity="0.17"/><circle cx="29.1" cy="135.6" r="3.17" fill="#ecb478" opacity="0.31"/><circle cx="64.9" cy="138.1" r="3.82" fill="#ecb478" opacity="0.30"/><circle cx="101.4" cy="141.0" r="2.11" fill="#ecb478" opacity="0.27"/><circle cx="138.2" cy="139.8" r="3.83" fill="#ecb478" opacity="0.28"/><circle cx="176.3" cy="136.8" r="2.23" fill="#ecb478" opacity="0.22"/><circle cx="211.8" cy="137.7" r="2.06" fill="#ecb478" opacity="0.22"/><circle cx="243.5" cy="137.9" r="2.03" fill="#ecb478" opacity="0.29"/><circle cx="279.3" cy="135.6" r="3.05" fill="#ecb478" opacity="0.26"/><circle cx="316.5" cy="137.8" r="2.39" fill="#ecb478" opacity="0.33"/><circle cx="355.0" cy="140.6" r="2.62" fill="#ecb478" opacity="0.35"/><circle cx="390.9" cy="138.8" r="3.50" fill="#ecb478" opacity="0.17"/><circle cx="428.2" cy="140.8" r="2.61" fill="#ecb478" opacity="0.15"/><circle cx="460.4" cy="139.6" r="2.04" fill="#ecb478" opacity="0.20"/><circle cx="495.3" cy="140.3" r="3.90" fill="#ecb478" opacity="0.26"/><circle cx="531.7" cy="139.4" r="2.71" fill="#ecb478" opacity="0.15"/><circle cx="567.2" cy="135.8" r="3.76" fill="#ecb478" opacity="0.26"/><circle cx="605.4" cy="137.8" r="2.85" fill="#ecb478" opacity="0.20"/><circle cx="643.4" cy="137.4" r="3.91" fill="#ecb478" opacity="0.34"/><circle cx="678.0" cy="139.6" r="3.32" fill="#ecb478" opacity="0.16"/><circle cx="712.5" cy="140.2" r="3.43" fill="#ecb478" opacity="0.31"/><circle cx="750.9" cy="139.4" r="3.84" fill="#ecb478" opacity="0.28"/><circle cx="787.2" cy="138.8" r="2.38" fill="#ecb478" opacity="0.20"/><circle cx="819.9" cy="138.6" r="2.73" fill="#ecb478" opacity="0.33"/><circle cx="860.6" cy="140.7" r="2.05" fill="#ecb478" opacity="0.27"/><circle cx="892.5" cy="136.6" r="3.16" fill="#ecb478" opacity="0.27"/><circle cx="929.3" cy="141.0" r="2.29" fill="#ecb478" opacity="0.21"/><circle cx="966.0" cy="139.0" r="3.31" fill="#ecb478" opacity="0.23"/><circle cx="999.6" cy="136.7" r="2.25" fill="#ecb478" opacity="0.26"/><circle cx="1037.2" cy="136.3" r="2.77" fill="#ecb478" opacity="0.31"/><circle cx="1073.2" cy="138.5" r="2.10" fill="#ecb478" opacity="0.24"/><circle cx="1107.9" cy="135.1" r="2.98" fill="#ecb478" opacity="0.16"/><circle cx="1148.8" cy="135.6" r="2.83" fill="#ecb478" opacity="0.32"/><circle cx="1180.9" cy="139.1" r="3.13" fill="#ecb478" opacity="0.20"/><circle cx="30.6" cy="174.7" r="3.71" fill="#ecb478" opacity="0.25"/><circle cx="66.5" cy="171.4" r="3.04" fill="#ecb478" opacity="0.35"/><circle cx="99.1" cy="175.1" r="2.35" fill="#ecb478" opacity="0.23"/><circle cx="136.7" cy="171.4" r="1.98" fill="#ecb478" opacity="0.26"/><circle cx="174.9" cy="172.3" r="1.81" fill="#ecb478" opacity="0.17"/><circle cx="212.7" cy="173.0" r="3.25" fill="#ecb478" opacity="0.19"/><circle cx="244.0" cy="171.9" r="3.41" fill="#ecb478" opacity="0.32"/><circle cx="280.6" cy="173.3" r="2.73" fill="#ecb478" opacity="0.20"/><circle cx="318.3" cy="176.8" r="2.29" fill="#ecb478" opacity="0.26"/><circle cx="352.4" cy="171.2" r="1.82" fill="#ecb478" opacity="0.22"/><circle cx="389.6" cy="173.5" r="2.49" fill="#ecb478" opacity="0.30"/><circle cx="427.6" cy="173.9" r="2.38" fill="#ecb478" opacity="0.20"/><circle cx="462.2" cy="172.3" r="3.10" fill="#ecb478" opacity="0.15"/><circle cx="500.7" cy="173.5" r="1.67" fill="#ecb478" opacity="0.18"/><circle cx="531.2" cy="171.7" r="2.28" fill="#ecb478" opacity="0.18"/><circle cx="568.5" cy="173.4" r="1.99" fill="#ecb478" opacity="0.36"/><circle cx="607.4" cy="171.7" r="3.49" fill="#ecb478" opacity="0.19"/><circle cx="643.2" cy="176.9" r="3.55" fill="#ecb478" opacity="0.21"/><circle cx="678.7" cy="173.5" r="1.76" fill="#ecb478" opacity="0.22"/><circle cx="714.7" cy="173.0" r="3.97" fill="#ecb478" opacity="0.34"/><circle cx="750.4" cy="176.2" r="3.31" fill="#ecb478" opacity="0.18"/><circle cx="787.9" cy="172.0" r="2.65" fill="#ecb478" opacity="0.21"/><circle cx="823.5" cy="175.6" r="3.01" fill="#ecb478" opacity="0.32"/><circle cx="857.9" cy="171.2" r="2.52" fill="#ecb478" opacity="0.30"/><circle cx="894.5" cy="174.5" r="3.97" fill="#ecb478" opacity="0.25"/><circle cx="930.5" cy="173.9" r="1.84" fill="#ecb478" opacity="0.24"/><circle cx="963.9" cy="172.0" r="2.73" fill="#ecb478" opacity="0.16"/><circle cx="1003.7" cy="174.6" r="2.75" fill="#ecb478" opacity="0.21"/><circle cx="1036.2" cy="174.0" r="3.46" fill="#ecb478" opacity="0.22"/><circle cx="1071.5" cy="173.2" r="2.97" fill="#ecb478" opacity="0.30"/><circle cx="1113.0" cy="176.3" r="3.93" fill="#ecb478" opacity="0.17"/><circle cx="1145.7" cy="171.8" r="2.59" fill="#ecb478" opacity="0.20"/><circle cx="1181.1" cy="174.3" r="2.41" fill="#ecb478" opacity="0.18"/><circle cx="28.1" cy="211.6" r="3.58" fill="#ecb478" opacity="0.27"/><circle cx="65.8" cy="212.0" r="1.90" fill="#ecb478" opacity="0.29"/><circle cx="104.7" cy="212.2" r="3.24" fill="#ecb478" opacity="0.31"/><circle cx="135.8" cy="211.8" r="1.75" fill="#ecb478" opacity="0.35"/><circle cx="175.3" cy="212.2" r="2.31" fill="#ecb478" opacity="0.35"/><circle cx="209.9" cy="207.0" r="3.90" fill="#ecb478" opacity="0.19"/><circle cx="243.7" cy="211.7" r="3.00" fill="#ecb478" opacity="0.28"/><circle cx="283.2" cy="208.2" r="1.85" fill="#ecb478" opacity="0.16"/><circle cx="318.5" cy="208.4" r="3.92" fill="#ecb478" opacity="0.28"/><circle cx="352.5" cy="209.9" r="2.07" fill="#ecb478" opacity="0.19"/><circle cx="388.8" cy="209.1" r="2.48" fill="#ecb478" opacity="0.30"/><circle cx="423.6" cy="211.1" r="3.65" fill="#ecb478" opacity="0.23"/><circle cx="463.7" cy="211.0" r="3.84" fill="#ecb478" opacity="0.33"/><circle cx="497.4" cy="209.1" r="2.40" fill="#ecb478" opacity="0.16"/><circle cx="533.9" cy="208.4" r="3.62" fill="#ecb478" opacity="0.28"/><circle cx="572.9" cy="208.6" r="3.15" fill="#ecb478" opacity="0.35"/><circle cx="605.5" cy="212.0" r="3.40" fill="#ecb478" opacity="0.21"/><circle cx="643.5" cy="207.2" r="3.00" fill="#ecb478" opacity="0.19"/><circle cx="675.3" cy="212.4" r="3.81" fill="#ecb478" opacity="0.25"/><circle cx="715.7" cy="208.2" r="1.89" fill="#ecb478" opacity="0.26"/><circle cx="749.8" cy="209.1" r="3.07" fill="#ecb478" opacity="0.17"/><circle cx="785.0" cy="211.5" r="3.25" fill="#ecb478" opacity="0.32"/><circle cx="821.7" cy="212.3" r="3.88" fill="#ecb478" opacity="0.23"/><circle cx="858.6" cy="207.0" r="2.74" fill="#ecb478" opacity="0.32"/><circle cx="893.5" cy="208.5" r="3.57" fill="#ecb478" opacity="0.18"/><circle cx="929.8" cy="209.2" r="2.93" fill="#ecb478" opacity="0.35"/><circle cx="967.1" cy="212.4" r="3.99" fill="#ecb478" opacity="0.26"/><circle cx="1003.8" cy="208.2" r="3.70" fill="#ecb478" opacity="0.32"/><circle cx="1039.2" cy="209.5" r="3.64" fill="#ecb478" opacity="0.21"/><circle cx="1071.7" cy="210.8" r="2.30" fill="#ecb478" opacity="0.34"/><circle cx="1112.0" cy="211.1" r="2.31" fill="#ecb478" opacity="0.25"/><circle cx="1146.0" cy="208.8" r="3.70" fill="#ecb478" opacity="0.16"/><circle cx="1184.5" cy="208.6" r="3.41" fill="#ecb478" opacity="0.24"/><circle cx="27.3" cy="246.6" r="1.71" fill="#ecb478" opacity="0.24"/><circle cx="63.3" cy="244.4" r="3.88" fill="#ecb478" opacity="0.29"/><circle cx="104.3" cy="244.2" r="2.81" fill="#ecb478" opacity="0.17"/><circle cx="135.7" cy="243.4" r="1.96" fill="#ecb478" opacity="0.21"/><circle cx="172.3" cy="247.7" r="2.52" fill="#ecb478" opacity="0.25"/><circle cx="211.3" cy="245.7" r="2.42" fill="#ecb478" opacity="0.29"/><circle cx="247.2" cy="244.6" r="3.91" fill="#ecb478" opacity="0.23"/><circle cx="284.0" cy="244.0" r="1.98" fill="#ecb478" opacity="0.22"/><circle cx="320.8" cy="243.9" r="1.66" fill="#ecb478" opacity="0.34"/><circle cx="356.6" cy="247.9" r="3.21" fill="#ecb478" opacity="0.30"/><circle cx="390.9" cy="244.7" r="3.80" fill="#ecb478" opacity="0.34"/><circle cx="426.9" cy="244.4" r="1.88" fill="#ecb478" opacity="0.18"/><circle cx="461.9" cy="247.3" r="2.60" fill="#ecb478" opacity="0.27"/><circle cx="498.9" cy="247.2" r="2.21" fill="#ecb478" opacity="0.31"/><circle cx="532.7" cy="248.4" r="3.92" fill="#ecb478" opacity="0.30"/><circle cx="568.8" cy="247.2" r="2.79" fill="#ecb478" opacity="0.25"/><circle cx="607.0" cy="245.5" r="2.80" fill="#ecb478" opacity="0.34"/><circle cx="641.8" cy="243.6" r="3.77" fill="#ecb478" opacity="0.23"/><circle cx="676.9" cy="243.1" r="3.89" fill="#ecb478" opacity="0.28"/><circle cx="713.3" cy="244.6" r="2.39" fill="#ecb478" opacity="0.32"/><circle cx="752.6" cy="246.2" r="2.98" fill="#ecb478" opacity="0.30"/><circle cx="783.1" cy="246.6" r="2.51" fill="#ecb478" opacity="0.26"/><circle cx="820.2" cy="248.8" r="3.74" fill="#ecb478" opacity="0.32"/><circle cx="856.6" cy="244.3" r="1.81" fill="#ecb478" opacity="0.33"/><circle cx="893.3" cy="244.1" r="1.81" fill="#ecb478" opacity="0.19"/><circle cx="928.8" cy="246.8" r="3.29" fill="#ecb478" opacity="0.21"/><circle cx="968.9" cy="244.7" r="3.73" fill="#ecb478" opacity="0.23"/><circle cx="999.9" cy="246.6" r="2.72" fill="#ecb478" opacity="0.16"/><circle cx="1036.8" cy="244.5" r="1.96" fill="#ecb478" opacity="0.32"/><circle cx="1075.4" cy="244.2" r="3.42" fill="#ecb478" opacity="0.20"/><circle cx="1108.5" cy="243.2" r="2.83" fill="#ecb478" opacity="0.26"/><circle cx="1143.5" cy="248.3" r="2.54" fill="#ecb478" opacity="0.30"/><circle cx="1182.0" cy="247.6" r="3.40" fill="#ecb478" opacity="0.33"/><circle cx="30.5" cy="281.2" r="2.69" fill="#ecb478" opacity="0.26"/><circle cx="66.6" cy="280.7" r="3.94" fill="#ecb478" opacity="0.22"/><circle cx="100.2" cy="282.2" r="2.99" fill="#ecb478" opacity="0.35"/><circle cx="140.6" cy="282.5" r="2.61" fill="#ecb478" opacity="0.30"/><circle cx="172.0" cy="283.3" r="2.45" fill="#ecb478" opacity="0.22"/><circle cx="211.7" cy="284.2" r="2.10" fill="#ecb478" opacity="0.33"/><circle cx="245.7" cy="279.8" r="3.67" fill="#ecb478" opacity="0.28"/><circle cx="279.7" cy="281.1" r="2.23" fill="#ecb478" opacity="0.19"/><circle cx="316.5" cy="283.7" r="3.38" fill="#ecb478" opacity="0.18"/><circle cx="353.5" cy="284.6" r="2.22" fill="#ecb478" opacity="0.19"/><circle cx="390.9" cy="280.3" r="2.65" fill="#ecb478" opacity="0.27"/><circle cx="426.3" cy="281.1" r="2.26" fill="#ecb478" opacity="0.21"/><circle cx="463.0" cy="283.6" r="3.41" fill="#ecb478" opacity="0.20"/><circle cx="496.9" cy="280.9" r="2.18" fill="#ecb478" opacity="0.21"/><circle cx="531.4" cy="281.4" r="3.15" fill="#ecb478" opacity="0.30"/><circle cx="570.6" cy="279.9" r="3.00" fill="#ecb478" opacity="0.29"/><circle cx="608.1" cy="284.9" r="3.65" fill="#ecb478" opacity="0.16"/><circle cx="645.0" cy="279.4" r="2.97" fill="#ecb478" opacity="0.17"/><circle cx="677.2" cy="280.6" r="3.26" fill="#ecb478" opacity="0.35"/><circle cx="712.5" cy="282.2" r="3.41" fill="#ecb478" opacity="0.26"/><circle cx="751.7" cy="281.5" r="2.65" fill="#ecb478" opacity="0.24"/><circle cx="787.7" cy="282.5" r="2.72" fill="#ecb478" opacity="0.24"/><circle cx="821.6" cy="280.9" r="3.78" fill="#ecb478" opacity="0.27"/><circle cx="856.1" cy="283.4" r="2.87" fill="#ecb478" opacity="0.34"/><circle cx="892.3" cy="284.2" r="2.70" fill="#ecb478" opacity="0.19"/><circle cx="927.1" cy="279.6" r="2.05" fill="#ecb478" opacity="0.33"/><circle cx="965.9" cy="282.5" r="3.16" fill="#ecb478" opacity="0.26"/><circle cx="1002.8" cy="283.7" r="3.43" fill="#ecb478" opacity="0.22"/><circle cx="1040.5" cy="280.3" r="3.75" fill="#ecb478" opacity="0.30"/><circle cx="1074.1" cy="284.5" r="3.97" fill="#ecb478" opacity="0.34"/><circle cx="1110.5" cy="280.9" r="2.30" fill="#ecb478" opacity="0.20"/><circle cx="1145.0" cy="280.5" r="2.61" fill="#ecb478" opacity="0.32"/><circle cx="1182.2" cy="284.0" r="2.97" fill="#ecb478" opacity="0.20"/><circle cx="32.6" cy="321.0" r="1.76" fill="#ecb478" opacity="0.30"/><circle cx="66.9" cy="316.2" r="2.97" fill="#ecb478" opacity="0.25"/><circle cx="103.2" cy="318.2" r="2.07" fill="#ecb478" opacity="0.25"/><circle cx="138.4" cy="315.5" r="2.66" fill="#ecb478" opacity="0.28"/><circle cx="176.1" cy="317.8" r="3.14" fill="#ecb478" opacity="0.26"/><circle cx="210.1" cy="320.3" r="3.17" fill="#ecb478" opacity="0.21"/><circle cx="243.4" cy="315.3" r="2.48" fill="#ecb478" opacity="0.20"/><circle cx="280.6" cy="318.4" r="2.39" fill="#ecb478" opacity="0.33"/><circle cx="315.8" cy="316.7" r="2.13" fill="#ecb478" opacity="0.16"/><circle cx="354.8" cy="320.8" r="3.73" fill="#ecb478" opacity="0.22"/><circle cx="389.0" cy="320.1" r="2.06" fill="#ecb478" opacity="0.19"/><circle cx="428.9" cy="317.3" r="3.13" fill="#ecb478" opacity="0.19"/><circle cx="464.5" cy="315.1" r="3.45" fill="#ecb478" opacity="0.20"/><circle cx="496.2" cy="317.3" r="2.36" fill="#ecb478" opacity="0.27"/><circle cx="533.1" cy="317.6" r="2.22" fill="#ecb478" opacity="0.20"/><circle cx="568.0" cy="316.5" r="1.97" fill="#ecb478" opacity="0.26"/><circle cx="603.7" cy="315.3" r="3.40" fill="#ecb478" opacity="0.16"/><circle cx="639.8" cy="315.8" r="2.61" fill="#ecb478" opacity="0.34"/><circle cx="675.8" cy="315.7" r="1.79" fill="#ecb478" opacity="0.26"/><circle cx="713.5" cy="319.2" r="3.19" fill="#ecb478" opacity="0.35"/><circle cx="747.6" cy="317.3" r="2.86" fill="#ecb478" opacity="0.17"/><circle cx="783.0" cy="317.8" r="1.69" fill="#ecb478" opacity="0.29"/><circle cx="823.3" cy="316.8" r="1.70" fill="#ecb478" opacity="0.34"/><circle cx="856.2" cy="315.9" r="2.44" fill="#ecb478" opacity="0.24"/><circle cx="895.7" cy="317.8" r="2.24" fill="#ecb478" opacity="0.18"/><circle cx="931.4" cy="316.1" r="3.35" fill="#ecb478" opacity="0.34"/><circle cx="966.9" cy="319.7" r="3.12" fill="#ecb478" opacity="0.34"/><circle cx="1002.9" cy="317.7" r="2.14" fill="#ecb478" opacity="0.17"/><circle cx="1038.4" cy="315.6" r="2.29" fill="#ecb478" opacity="0.34"/><circle cx="1071.6" cy="317.6" r="3.57" fill="#ecb478" opacity="0.29"/><circle cx="1107.2" cy="320.2" r="3.24" fill="#ecb478" opacity="0.25"/><circle cx="1144.1" cy="315.2" r="2.41" fill="#ecb478" opacity="0.19"/><circle cx="1184.4" cy="315.2" r="3.89" fill="#ecb478" opacity="0.20"/><circle cx="32.8" cy="356.0" r="3.39" fill="#ecb478" opacity="0.26"/><circle cx="64.6" cy="356.6" r="2.26" fill="#ecb478" opacity="0.21"/><circle cx="104.7" cy="356.2" r="3.03" fill="#ecb478" opacity="0.26"/><circle cx="140.0" cy="351.8" r="3.78" fill="#ecb478" opacity="0.23"/><circle cx="171.1" cy="352.0" r="3.76" fill="#ecb478" opacity="0.21"/><circle cx="209.1" cy="353.4" r="2.68" fill="#ecb478" opacity="0.22"/><circle cx="245.2" cy="353.5" r="3.68" fill="#ecb478" opacity="0.24"/><circle cx="279.7" cy="354.5" r="2.93" fill="#ecb478" opacity="0.17"/><circle cx="320.8" cy="354.8" r="3.57" fill="#ecb478" opacity="0.26"/><circle cx="354.8" cy="355.2" r="3.28" fill="#ecb478" opacity="0.15"/><circle cx="391.7" cy="351.7" r="3.93" fill="#ecb478" opacity="0.24"/><circle cx="425.5" cy="354.0" r="3.67" fill="#ecb478" opacity="0.26"/><circle cx="463.0" cy="351.8" r="3.18" fill="#ecb478" opacity="0.26"/><circle cx="500.8" cy="354.1" r="2.29" fill="#ecb478" opacity="0.24"/><circle cx="531.9" cy="351.1" r="1.69" fill="#ecb478" opacity="0.26"/><circle cx="572.2" cy="352.3" r="2.82" fill="#ecb478" opacity="0.17"/><circle cx="603.4" cy="352.9" r="2.03" fill="#ecb478" opacity="0.34"/><circle cx="643.6" cy="352.2" r="2.83" fill="#ecb478" opacity="0.24"/><circle cx="679.9" cy="354.3" r="2.82" fill="#ecb478" opacity="0.28"/><circle cx="711.8" cy="355.3" r="2.47" fill="#ecb478" opacity="0.24"/><circle cx="748.1" cy="356.4" r="3.14" fill="#ecb478" opacity="0.29"/><circle cx="783.5" cy="351.3" r="1.81" fill="#ecb478" opacity="0.29"/><circle cx="824.9" cy="352.0" r="3.35" fill="#ecb478" opacity="0.30"/><circle cx="859.4" cy="355.2" r="1.65" fill="#ecb478" opacity="0.20"/><circle cx="895.1" cy="351.5" r="2.36" fill="#ecb478" opacity="0.35"/><circle cx="929.7" cy="352.7" r="2.44" fill="#ecb478" opacity="0.28"/><circle cx="967.8" cy="356.6" r="3.65" fill="#ecb478" opacity="0.27"/><circle cx="1002.9" cy="355.6" r="3.21" fill="#ecb478" opacity="0.36"/><circle cx="1038.0" cy="351.7" r="2.11" fill="#ecb478" opacity="0.29"/><circle cx="1074.1" cy="353.0" r="2.75" fill="#ecb478" opacity="0.22"/><circle cx="1109.4" cy="354.1" r="3.03" fill="#ecb478" opacity="0.30"/><circle cx="1147.4" cy="353.1" r="1.90" fill="#ecb478" opacity="0.26"/><circle cx="1182.4" cy="351.9" r="3.87" fill="#ecb478" opacity="0.20"/><circle cx="31.9" cy="389.4" r="1.74" fill="#ecb478" opacity="0.27"/><circle cx="67.9" cy="391.6" r="3.75" fill="#ecb478" opacity="0.20"/><circle cx="104.0" cy="391.7" r="1.68" fill="#ecb478" opacity="0.36"/><circle cx="137.4" cy="389.2" r="3.89" fill="#ecb478" opacity="0.29"/><circle cx="174.9" cy="387.3" r="2.76" fill="#ecb478" opacity="0.25"/><circle cx="210.8" cy="392.8" r="2.66" fill="#ecb478" opacity="0.33"/><circle cx="243.1" cy="388.6" r="1.69" fill="#ecb478" opacity="0.19"/><circle cx="281.2" cy="389.3" r="2.65" fill="#ecb478" opacity="0.15"/><circle cx="317.5" cy="391.6" r="1.65" fill="#ecb478" opacity="0.28"/><circle cx="356.9" cy="391.0" r="2.58" fill="#ecb478" opacity="0.31"/><circle cx="388.6" cy="390.1" r="3.40" fill="#ecb478" opacity="0.21"/><circle cx="426.8" cy="389.9" r="2.36" fill="#ecb478" opacity="0.26"/><circle cx="464.8" cy="387.3" r="2.40" fill="#ecb478" opacity="0.26"/><circle cx="498.3" cy="388.2" r="3.13" fill="#ecb478" opacity="0.34"/><circle cx="536.5" cy="388.4" r="1.75" fill="#ecb478" opacity="0.31"/><circle cx="567.8" cy="392.8" r="3.63" fill="#ecb478" opacity="0.23"/><circle cx="607.3" cy="391.1" r="3.32" fill="#ecb478" opacity="0.21"/><circle cx="642.9" cy="388.4" r="3.49" fill="#ecb478" opacity="0.21"/><circle cx="675.0" cy="389.6" r="3.71" fill="#ecb478" opacity="0.26"/><circle cx="714.7" cy="390.4" r="1.90" fill="#ecb478" opacity="0.18"/><circle cx="748.6" cy="388.3" r="2.07" fill="#ecb478" opacity="0.25"/><circle cx="785.2" cy="389.0" r="3.64" fill="#ecb478" opacity="0.28"/><circle cx="822.3" cy="387.0" r="3.71" fill="#ecb478" opacity="0.25"/><circle cx="858.6" cy="392.3" r="3.20" fill="#ecb478" opacity="0.18"/><circle cx="892.0" cy="387.2" r="2.71" fill="#ecb478" opacity="0.25"/><circle cx="931.6" cy="389.1" r="3.29" fill="#ecb478" opacity="0.36"/><circle cx="965.7" cy="389.9" r="3.92" fill="#ecb478" opacity="0.27"/><circle cx="1003.6" cy="388.1" r="3.83" fill="#ecb478" opacity="0.22"/><circle cx="1035.6" cy="389.1" r="3.84" fill="#ecb478" opacity="0.19"/><circle cx="1071.1" cy="387.3" r="2.61" fill="#ecb478" opacity="0.26"/><circle cx="1108.1" cy="388.3" r="2.89" fill="#ecb478" opacity="0.35"/><circle cx="1143.9" cy="389.9" r="3.48" fill="#ecb478" opacity="0.19"/><circle cx="1180.8" cy="389.8" r="3.05" fill="#ecb478" opacity="0.20"/><circle cx="28.4" cy="425.7" r="3.76" fill="#ecb478" opacity="0.22"/><circle cx="68.8" cy="426.7" r="2.65" fill="#ecb478" opacity="0.31"/><circle cx="103.9" cy="423.2" r="2.07" fill="#ecb478" opacity="0.24"/><circle cx="140.8" cy="425.7" r="3.35" fill="#ecb478" opacity="0.30"/><circle cx="173.3" cy="425.4" r="2.74" fill="#ecb478" opacity="0.21"/><circle cx="207.9" cy="426.0" r="3.79" fill="#ecb478" opacity="0.31"/><circle cx="243.2" cy="424.3" r="2.33" fill="#ecb478" opacity="0.20"/><circle cx="281.6" cy="425.0" r="3.31" fill="#ecb478" opacity="0.19"/><circle cx="319.7" cy="427.6" r="2.03" fill="#ecb478" opacity="0.21"/><circle cx="354.4" cy="425.6" r="3.00" fill="#ecb478" opacity="0.21"/><circle cx="387.3" cy="425.7" r="2.50" fill="#ecb478" opacity="0.34"/><circle cx="427.3" cy="423.6" r="1.63" fill="#ecb478" opacity="0.22"/><circle cx="464.8" cy="424.4" r="3.67" fill="#ecb478" opacity="0.25"/><circle cx="497.2" cy="425.2" r="3.44" fill="#ecb478" opacity="0.27"/><circle cx="536.7" cy="426.8" r="1.92" fill="#ecb478" opacity="0.26"/><circle cx="572.0" cy="428.8" r="1.85" fill="#ecb478" opacity="0.26"/><circle cx="604.8" cy="426.5" r="3.61" fill="#ecb478" opacity="0.23"/><circle cx="644.3" cy="425.3" r="3.62" fill="#ecb478" opacity="0.30"/><circle cx="678.4" cy="423.1" r="3.51" fill="#ecb478" opacity="0.32"/><circle cx="711.8" cy="428.6" r="3.19" fill="#ecb478" opacity="0.26"/><circle cx="749.8" cy="428.6" r="2.24" fill="#ecb478" opacity="0.25"/><circle cx="783.6" cy="426.2" r="1.64" fill="#ecb478" opacity="0.31"/><circle cx="824.2" cy="423.9" r="2.26" fill="#ecb478" opacity="0.25"/><circle cx="859.9" cy="425.8" r="3.49" fill="#ecb478" opacity="0.22"/><circle cx="891.1" cy="424.5" r="2.54" fill="#ecb478" opacity="0.32"/><circle cx="928.9" cy="428.1" r="2.71" fill="#ecb478" opacity="0.33"/><circle cx="968.4" cy="427.0" r="2.80" fill="#ecb478" opacity="0.17"/><circle cx="1002.7" cy="428.0" r="1.95" fill="#ecb478" opacity="0.16"/><circle cx="1035.1" cy="425.9" r="2.89" fill="#ecb478" opacity="0.19"/><circle cx="1073.6" cy="425.4" r="3.42" fill="#ecb478" opacity="0.30"/><circle cx="1111.8" cy="426.9" r="3.90" fill="#ecb478" opacity="0.20"/><circle cx="1145.1" cy="426.9" r="3.79" fill="#ecb478" opacity="0.17"/><circle cx="1184.7" cy="426.2" r="2.06" fill="#ecb478" opacity="0.26"/><circle cx="31.5" cy="460.4" r="2.04" fill="#ecb478" opacity="0.17"/><circle cx="67.3" cy="463.2" r="1.82" fill="#ecb478" opacity="0.31"/><circle cx="103.4" cy="461.4" r="3.76" fill="#ecb478" opacity="0.31"/><circle cx="140.4" cy="462.6" r="2.74" fill="#ecb478" opacity="0.21"/><circle cx="172.1" cy="461.5" r="1.86" fill="#ecb478" opacity="0.35"/><circle cx="207.5" cy="459.9" r="3.06" fill="#ecb478" opacity="0.15"/><circle cx="247.3" cy="463.0" r="2.39" fill="#ecb478" opacity="0.24"/><circle cx="281.1" cy="464.3" r="1.93" fill="#ecb478" opacity="0.30"/><circle cx="317.1" cy="464.8" r="2.57" fill="#ecb478" opacity="0.28"/><circle cx="355.0" cy="459.8" r="3.57" fill="#ecb478" opacity="0.34"/><circle cx="388.0" cy="461.5" r="2.51" fill="#ecb478" opacity="0.24"/><circle cx="424.9" cy="459.6" r="2.97" fill="#ecb478" opacity="0.34"/><circle cx="460.7" cy="464.1" r="1.94" fill="#ecb478" opacity="0.27"/><circle cx="500.2" cy="463.0" r="2.97" fill="#ecb478" opacity="0.15"/><circle cx="535.0" cy="460.7" r="3.11" fill="#ecb478" opacity="0.16"/><circle cx="568.2" cy="461.5" r="3.71" fill="#ecb478" opacity="0.25"/><circle cx="608.9" cy="462.7" r="3.12" fill="#ecb478" opacity="0.23"/><circle cx="643.7" cy="463.6" r="2.24" fill="#ecb478" opacity="0.16"/><circle cx="679.0" cy="464.7" r="3.32" fill="#ecb478" opacity="0.30"/><circle cx="712.5" cy="463.9" r="3.51" fill="#ecb478" opacity="0.26"/><circle cx="747.7" cy="463.7" r="2.10" fill="#ecb478" opacity="0.24"/><circle cx="788.8" cy="463.9" r="2.58" fill="#ecb478" opacity="0.32"/><circle cx="819.6" cy="461.0" r="2.89" fill="#ecb478" opacity="0.18"/><circle cx="857.0" cy="464.3" r="3.04" fill="#ecb478" opacity="0.19"/><circle cx="894.0" cy="462.4" r="2.26" fill="#ecb478" opacity="0.34"/><circle cx="932.0" cy="462.3" r="3.38" fill="#ecb478" opacity="0.30"/><circle cx="966.7" cy="459.9" r="2.81" fill="#ecb478" opacity="0.30"/><circle cx="1002.3" cy="465.0" r="2.18" fill="#ecb478" opacity="0.16"/><circle cx="1036.2" cy="460.0" r="3.06" fill="#ecb478" opacity="0.24"/><circle cx="1075.6" cy="461.2" r="1.79" fill="#ecb478" opacity="0.28"/><circle cx="1108.2" cy="462.8" r="2.23" fill="#ecb478" opacity="0.32"/><circle cx="1145.3" cy="462.8" r="2.05" fill="#ecb478" opacity="0.32"/><circle cx="1183.2" cy="459.8" r="3.90" fill="#ecb478" opacity="0.35"/><circle cx="28.3" cy="496.6" r="1.89" fill="#ecb478" opacity="0.17"/><circle cx="66.0" cy="499.5" r="1.77" fill="#ecb478" opacity="0.17"/><circle cx="102.7" cy="497.7" r="2.79" fill="#ecb478" opacity="0.32"/><circle cx="135.5" cy="498.2" r="1.99" fill="#ecb478" opacity="0.25"/><circle cx="171.5" cy="497.9" r="2.70" fill="#ecb478" opacity="0.28"/><circle cx="209.8" cy="499.7" r="2.38" fill="#ecb478" opacity="0.32"/><circle cx="245.0" cy="499.8" r="2.47" fill="#ecb478" opacity="0.17"/><circle cx="280.9" cy="495.4" r="1.71" fill="#ecb478" opacity="0.17"/><circle cx="317.1" cy="498.6" r="3.04" fill="#ecb478" opacity="0.35"/><circle cx="355.2" cy="500.9" r="2.18" fill="#ecb478" opacity="0.23"/><circle cx="390.6" cy="497.3" r="2.91" fill="#ecb478" opacity="0.25"/><circle cx="428.1" cy="500.6" r="3.98" fill="#ecb478" opacity="0.23"/><circle cx="459.1" cy="497.6" r="3.70" fill="#ecb478" opacity="0.33"/><circle cx="497.9" cy="499.0" r="2.93" fill="#ecb478" opacity="0.32"/><circle cx="533.8" cy="498.6" r="2.39" fill="#ecb478" opacity="0.20"/><circle cx="567.8" cy="495.9" r="2.88" fill="#ecb478" opacity="0.20"/><circle cx="605.2" cy="499.6" r="2.18" fill="#ecb478" opacity="0.21"/><circle cx="640.7" cy="501.0" r="1.95" fill="#ecb478" opacity="0.20"/><circle cx="677.8" cy="496.8" r="3.72" fill="#ecb478" opacity="0.16"/><circle cx="711.7" cy="497.7" r="2.49" fill="#ecb478" opacity="0.30"/><circle cx="748.5" cy="497.1" r="3.53" fill="#ecb478" opacity="0.21"/><circle cx="787.5" cy="497.7" r="3.76" fill="#ecb478" opacity="0.22"/><circle cx="821.9" cy="498.9" r="3.15" fill="#ecb478" opacity="0.32"/><circle cx="856.4" cy="499.9" r="2.77" fill="#ecb478" opacity="0.20"/><circle cx="894.4" cy="499.6" r="3.25" fill="#ecb478" opacity="0.33"/><circle cx="932.6" cy="499.3" r="2.69" fill="#ecb478" opacity="0.33"/><circle cx="966.1" cy="500.7" r="1.85" fill="#ecb478" opacity="0.33"/><circle cx="1004.8" cy="497.7" r="3.04" fill="#ecb478" opacity="0.23"/><circle cx="1037.4" cy="496.1" r="3.02" fill="#ecb478" opacity="0.33"/><circle cx="1074.0" cy="497.4" r="2.67" fill="#ecb478" opacity="0.34"/><circle cx="1111.8" cy="499.7" r="1.96" fill="#ecb478" opacity="0.18"/><circle cx="1146.1" cy="500.2" r="3.34" fill="#ecb478" opacity="0.16"/><circle cx="1180.2" cy="497.3" r="3.65" fill="#ecb478" opacity="0.27"/><circle cx="32.6" cy="533.8" r="2.94" fill="#ecb478" opacity="0.31"/><circle cx="63.4" cy="536.0" r="3.25" fill="#ecb478" opacity="0.19"/><circle cx="101.6" cy="532.8" r="1.72" fill="#ecb478" opacity="0.35"/><circle cx="135.5" cy="532.8" r="3.99" fill="#ecb478" opacity="0.26"/><circle cx="171.8" cy="532.3" r="2.37" fill="#ecb478" opacity="0.20"/><circle cx="209.3" cy="531.2" r="2.45" fill="#ecb478" opacity="0.23"/><circle cx="246.7" cy="536.4" r="1.79" fill="#ecb478" opacity="0.15"/><circle cx="280.1" cy="533.4" r="3.83" fill="#ecb478" opacity="0.17"/><circle cx="319.0" cy="533.8" r="3.41" fill="#ecb478" opacity="0.31"/><circle cx="353.5" cy="532.6" r="1.74" fill="#ecb478" opacity="0.23"/><circle cx="390.8" cy="532.0" r="2.47" fill="#ecb478" opacity="0.31"/><circle cx="425.8" cy="531.3" r="1.72" fill="#ecb478" opacity="0.32"/><circle cx="462.7" cy="536.4" r="2.66" fill="#ecb478" opacity="0.30"/><circle cx="497.5" cy="531.2" r="1.60" fill="#ecb478" opacity="0.15"/><circle cx="534.1" cy="531.4" r="3.28" fill="#ecb478" opacity="0.34"/><circle cx="568.7" cy="532.3" r="3.50" fill="#ecb478" opacity="0.22"/><circle cx="608.8" cy="535.9" r="2.40" fill="#ecb478" opacity="0.30"/><circle cx="644.4" cy="531.5" r="3.01" fill="#ecb478" opacity="0.25"/><circle cx="679.9" cy="534.2" r="3.65" fill="#ecb478" opacity="0.26"/><circle cx="712.7" cy="533.5" r="2.49" fill="#ecb478" opacity="0.34"/><circle cx="749.6" cy="534.5" r="3.05" fill="#ecb478" opacity="0.16"/><circle cx="784.9" cy="532.2" r="2.05" fill="#ecb478" opacity="0.31"/><circle cx="821.4" cy="533.6" r="3.82" fill="#ecb478" opacity="0.35"/><circle cx="856.7" cy="532.6" r="3.38" fill="#ecb478" opacity="0.36"/><circle cx="891.1" cy="534.2" r="2.69" fill="#ecb478" opacity="0.35"/><circle cx="930.9" cy="532.0" r="3.14" fill="#ecb478" opacity="0.33"/><circle cx="966.7" cy="535.5" r="1.83" fill="#ecb478" opacity="0.35"/><circle cx="1000.7" cy="532.1" r="2.08" fill="#ecb478" opacity="0.34"/><circle cx="1038.6" cy="532.7" r="2.37" fill="#ecb478" opacity="0.30"/><circle cx="1072.7" cy="535.6" r="3.24" fill="#ecb478" opacity="0.27"/><circle cx="1107.6" cy="533.6" r="1.78" fill="#ecb478" opacity="0.16"/><circle cx="1146.4" cy="533.4" r="2.21" fill="#ecb478" opacity="0.30"/><circle cx="1181.3" cy="536.3" r="2.04" fill="#ecb478" opacity="0.25"/><circle cx="32.5" cy="571.1" r="2.69" fill="#ecb478" opacity="0.32"/><circle cx="68.4" cy="571.4" r="3.56" fill="#ecb478" opacity="0.36"/><circle cx="104.7" cy="568.4" r="3.78" fill="#ecb478" opacity="0.17"/><circle cx="139.5" cy="568.7" r="2.67" fill="#ecb478" opacity="0.31"/><circle cx="175.4" cy="571.7" r="2.31" fill="#ecb478" opacity="0.21"/><circle cx="207.9" cy="570.4" r="1.83" fill="#ecb478" opacity="0.30"/><circle cx="245.6" cy="567.5" r="3.57" fill="#ecb478" opacity="0.32"/><circle cx="282.7" cy="572.6" r="3.39" fill="#ecb478" opacity="0.33"/><circle cx="315.7" cy="571.6" r="2.22" fill="#ecb478" opacity="0.36"/><circle cx="353.3" cy="568.3" r="3.40" fill="#ecb478" opacity="0.21"/><circle cx="388.4" cy="572.6" r="3.18" fill="#ecb478" opacity="0.17"/><circle cx="428.4" cy="570.1" r="2.11" fill="#ecb478" opacity="0.24"/><circle cx="460.2" cy="568.1" r="2.43" fill="#ecb478" opacity="0.30"/><circle cx="497.0" cy="572.3" r="2.23" fill="#ecb478" opacity="0.16"/><circle cx="533.9" cy="570.5" r="2.95" fill="#ecb478" opacity="0.29"/><circle cx="569.8" cy="568.9" r="2.35" fill="#ecb478" opacity="0.23"/><circle cx="607.6" cy="568.5" r="3.74" fill="#ecb478" opacity="0.20"/><circle cx="641.2" cy="567.1" r="2.48" fill="#ecb478" opacity="0.23"/><circle cx="676.1" cy="567.7" r="3.93" fill="#ecb478" opacity="0.31"/><circle cx="712.2" cy="569.2" r="3.27" fill="#ecb478" opacity="0.28"/><circle cx="747.0" cy="567.7" r="1.90" fill="#ecb478" opacity="0.30"/><circle cx="788.0" cy="569.7" r="3.45" fill="#ecb478" opacity="0.21"/><circle cx="819.4" cy="567.4" r="1.91" fill="#ecb478" opacity="0.34"/><circle cx="855.2" cy="569.5" r="2.73" fill="#ecb478" opacity="0.27"/><circle cx="891.4" cy="568.1" r="2.18" fill="#ecb478" opacity="0.24"/><circle cx="928.6" cy="571.6" r="3.18" fill="#ecb478" opacity="0.19"/><circle cx="964.2" cy="569.3" r="3.94" fill="#ecb478" opacity="0.16"/><circle cx="999.8" cy="571.4" r="2.20" fill="#ecb478" opacity="0.26"/><circle cx="1038.1" cy="569.7" r="2.07" fill="#ecb478" opacity="0.33"/><circle cx="1076.5" cy="571.3" r="2.57" fill="#ecb478" opacity="0.27"/><circle cx="1108.8" cy="568.2" r="2.75" fill="#ecb478" opacity="0.24"/><circle cx="1144.4" cy="569.7" r="1.92" fill="#ecb478" opacity="0.22"/><circle cx="1182.8" cy="572.1" r="3.95" fill="#ecb478" opacity="0.18"/><circle cx="31.3" cy="607.7" r="3.23" fill="#ecb478" opacity="0.25"/><circle cx="63.1" cy="604.9" r="3.69" fill="#ecb478" opacity="0.16"/><circle cx="102.8" cy="603.6" r="3.57" fill="#ecb478" opacity="0.16"/><circle cx="140.6" cy="605.9" r="2.74" fill="#ecb478" opacity="0.24"/><circle cx="171.8" cy="605.1" r="3.97" fill="#ecb478" opacity="0.18"/><circle cx="208.7" cy="608.3" r="3.55" fill="#ecb478" opacity="0.16"/><circle cx="248.2" cy="603.2" r="1.88" fill="#ecb478" opacity="0.19"/><circle cx="282.9" cy="607.4" r="2.24" fill="#ecb478" opacity="0.23"/><circle cx="320.3" cy="605.1" r="3.84" fill="#ecb478" opacity="0.21"/><circle cx="357.0" cy="607.1" r="3.50" fill="#ecb478" opacity="0.25"/><circle cx="388.4" cy="605.4" r="2.02" fill="#ecb478" opacity="0.20"/><circle cx="428.5" cy="603.6" r="2.43" fill="#ecb478" opacity="0.23"/><circle cx="460.2" cy="605.2" r="2.87" fill="#ecb478" opacity="0.17"/><circle cx="497.1" cy="603.3" r="3.78" fill="#ecb478" opacity="0.24"/><circle cx="535.4" cy="603.7" r="2.15" fill="#ecb478" opacity="0.28"/><circle cx="570.4" cy="605.8" r="3.36" fill="#ecb478" opacity="0.34"/><circle cx="607.5" cy="606.4" r="2.18" fill="#ecb478" opacity="0.28"/><circle cx="643.5" cy="604.3" r="3.70" fill="#ecb478" opacity="0.28"/><circle cx="677.1" cy="604.5" r="2.68" fill="#ecb478" opacity="0.32"/><circle cx="712.8" cy="605.4" r="3.70" fill="#ecb478" opacity="0.24"/><circle cx="752.4" cy="606.6" r="1.99" fill="#ecb478" opacity="0.15"/><circle cx="788.7" cy="605.5" r="2.23" fill="#ecb478" opacity="0.21"/><circle cx="820.3" cy="604.8" r="1.75" fill="#ecb478" opacity="0.28"/><circle cx="857.3" cy="604.1" r="1.94" fill="#ecb478" opacity="0.24"/><circle cx="896.1" cy="606.3" r="2.00" fill="#ecb478" opacity="0.15"/><circle cx="932.1" cy="604.8" r="3.94" fill="#ecb478" opacity="0.25"/><circle cx="964.9" cy="603.7" r="1.87" fill="#ecb478" opacity="0.31"/><circle cx="1001.4" cy="604.2" r="2.44" fill="#ecb478" opacity="0.33"/><circle cx="1036.5" cy="605.4" r="2.80" fill="#ecb478" opacity="0.27"/><circle cx="1072.4" cy="605.5" r="2.17" fill="#ecb478" opacity="0.16"/><circle cx="1107.6" cy="608.4" r="3.66" fill="#ecb478" opacity="0.31"/><circle cx="1147.1" cy="607.0" r="3.73" fill="#ecb478" opacity="0.34"/><circle cx="1182.9" cy="603.7" r="3.49" fill="#ecb478" opacity="0.26"/><circle cx="28.7" cy="640.6" r="2.51" fill="#ecb478" opacity="0.19"/><circle cx="63.8" cy="640.1" r="1.94" fill="#ecb478" opacity="0.24"/><circle cx="102.7" cy="644.2" r="3.21" fill="#ecb478" opacity="0.19"/><circle cx="137.3" cy="644.8" r="1.85" fill="#ecb478" opacity="0.18"/><circle cx="174.1" cy="642.9" r="2.21" fill="#ecb478" opacity="0.29"/><circle cx="210.7" cy="644.2" r="3.37" fill="#ecb478" opacity="0.21"/><circle cx="243.4" cy="643.9" r="3.55" fill="#ecb478" opacity="0.20"/><circle cx="284.1" cy="644.2" r="1.80" fill="#ecb478" opacity="0.19"/><circle cx="319.9" cy="644.0" r="3.31" fill="#ecb478" opacity="0.29"/><circle cx="356.9" cy="642.2" r="1.73" fill="#ecb478" opacity="0.31"/><circle cx="391.7" cy="642.0" r="2.82" fill="#ecb478" opacity="0.20"/><circle cx="423.5" cy="641.0" r="3.65" fill="#ecb478" opacity="0.16"/><circle cx="462.3" cy="643.5" r="3.27" fill="#ecb478" opacity="0.18"/><circle cx="500.9" cy="641.4" r="3.10" fill="#ecb478" opacity="0.34"/><circle cx="536.8" cy="639.9" r="1.78" fill="#ecb478" opacity="0.21"/><circle cx="568.6" cy="641.1" r="2.80" fill="#ecb478" opacity="0.26"/><circle cx="607.8" cy="642.0" r="3.01" fill="#ecb478" opacity="0.32"/><circle cx="642.4" cy="642.8" r="2.82" fill="#ecb478" opacity="0.29"/><circle cx="677.8" cy="639.5" r="1.70" fill="#ecb478" opacity="0.26"/><circle cx="715.2" cy="643.8" r="1.67" fill="#ecb478" opacity="0.18"/><circle cx="749.2" cy="644.2" r="3.50" fill="#ecb478" opacity="0.19"/><circle cx="783.2" cy="642.7" r="3.38" fill="#ecb478" opacity="0.35"/><circle cx="820.5" cy="644.8" r="3.11" fill="#ecb478" opacity="0.17"/><circle cx="859.7" cy="643.4" r="3.38" fill="#ecb478" opacity="0.34"/><circle cx="893.1" cy="641.3" r="3.54" fill="#ecb478" opacity="0.33"/><circle cx="932.0" cy="644.7" r="3.58" fill="#ecb478" opacity="0.32"/><circle cx="965.0" cy="644.6" r="1.66" fill="#ecb478" opacity="0.19"/><circle cx="1002.2" cy="640.3" r="2.18" fill="#ecb478" opacity="0.22"/><circle cx="1037.8" cy="639.7" r="1.82" fill="#ecb478" opacity="0.24"/><circle cx="1071.6" cy="644.2" r="2.73" fill="#ecb478" opacity="0.17"/><circle cx="1111.2" cy="644.0" r="3.44" fill="#ecb478" opacity="0.32"/><circle cx="1146.8" cy="644.2" r="3.58" fill="#ecb478" opacity="0.20"/><circle cx="1182.2" cy="642.6" r="3.42" fill="#ecb478" opacity="0.30"/><circle cx="218.6" cy="262.2" r="220" fill="url(#glow)" opacity="0.9"/>
  <g opacity="0.85" transform="translate(1020, 495)">
        <circle r="68" fill="none" stroke="#ecb478" stroke-width="2" opacity="0.35"/>
        <path d="M -38 12 L 38 12 M -32 -8 L 32 -8 M -45 -28 L 45 -28" stroke="#faebd6" stroke-width="3" stroke-linecap="round"/>
        <rect x="-50" y="-44" width="100" height="80" fill="none" stroke="#ecb478" stroke-width="2"/>
      </g>
  <g transform="translate(80, 90)">
    <rect x="0" y="0" rx="20" ry="20" width="112" height="38" fill="#ecb478" opacity="0.18" stroke="#ecb478" stroke-width="1.5"/>
    <text x="56" y="25" font-family="ui-sans-serif, Inter, sans-serif" font-weight="700" font-size="14" letter-spacing="2.5" fill="#ecb478" text-anchor="middle">NEWSROOM</text>
  </g>
  <text x="80" y="515" font-family="ui-sans-serif, -apple-system, Segoe UI, Inter, sans-serif" font-weight="800" font-size="44" fill="#faf8f5" opacity="0.98"><tspan x="80" dy="0">Can ADR Be Enforced Like</tspan><tspan x="80" dy="56">Court Judgments? Find Out</tspan></text>
  <rect x="0" y="669" width="1200" height="6" fill="url(#gold)"/>
</svg>