<?xml version="1.0" encoding="UTF-8"?>
<svg xmlns="http://www.w3.org/2000/svg" viewBox="0 0 1200 675" width="1200" height="675" role="img" aria-label="Over 5 Crore Cases Pending—Can AI Fix India’s Legal System?">
  <defs>
    <linearGradient id="bg" x1="0%" y1="0%" x2="100%" y2="100%">
      <stop offset="0%" stop-color="#12100e"/>
      <stop offset="100%" stop-color="#1c1917"/>
    </linearGradient>
    <linearGradient id="gold" x1="0%" y1="0%" x2="100%" y2="100%">
      <stop offset="0%" stop-color="#bd6b20"/>
      <stop offset="100%" stop-color="#e09440"/>
    </linearGradient>
    <radialGradient id="glow" cx="50%" cy="50%" r="50%">
      <stop offset="0%" stop-color="#bd6b20" stop-opacity="0.45"/>
      <stop offset="100%" stop-color="#bd6b20" stop-opacity="0"/>
    </radialGradient>
  </defs>
  <rect width="1200" height="675" fill="url(#bg)"/>
  <circle cx="29.7" cy="29.6" r="3.15" fill="#bd6b20" opacity="0.21"/><circle cx="64.0" cy="30.1" r="2.53" fill="#bd6b20" opacity="0.33"/><circle cx="100.5" cy="29.5" r="3.02" fill="#bd6b20" opacity="0.15"/><circle cx="140.9" cy="27.5" r="3.95" fill="#bd6b20" opacity="0.35"/><circle cx="175.5" cy="29.9" r="3.76" fill="#bd6b20" opacity="0.16"/><circle cx="212.9" cy="32.7" r="3.37" fill="#bd6b20" opacity="0.21"/><circle cx="247.7" cy="31.0" r="3.97" fill="#bd6b20" opacity="0.18"/><circle cx="280.1" cy="27.1" r="1.72" fill="#bd6b20" opacity="0.23"/><circle cx="318.7" cy="29.0" r="1.91" fill="#bd6b20" opacity="0.26"/><circle cx="353.4" cy="31.5" r="3.53" fill="#bd6b20" opacity="0.30"/><circle cx="389.8" cy="30.2" r="1.65" fill="#bd6b20" opacity="0.15"/><circle cx="424.0" cy="30.7" r="3.91" fill="#bd6b20" opacity="0.26"/><circle cx="460.0" cy="30.5" r="2.20" fill="#bd6b20" opacity="0.16"/><circle cx="498.8" cy="28.1" r="2.61" fill="#bd6b20" opacity="0.19"/><circle cx="535.3" cy="30.9" r="2.86" fill="#bd6b20" opacity="0.26"/><circle cx="567.8" cy="32.1" r="3.78" fill="#bd6b20" opacity="0.31"/><circle cx="603.8" cy="29.8" r="2.14" fill="#bd6b20" opacity="0.34"/><circle cx="640.6" cy="29.1" r="1.96" fill="#bd6b20" opacity="0.28"/><circle cx="680.4" cy="30.6" r="1.99" fill="#bd6b20" opacity="0.35"/><circle cx="712.7" cy="27.1" r="1.70" fill="#bd6b20" opacity="0.28"/><circle cx="750.3" cy="31.0" r="3.60" fill="#bd6b20" opacity="0.26"/><circle cx="787.0" cy="31.5" r="2.62" fill="#bd6b20" opacity="0.27"/><circle cx="823.1" cy="33.0" r="2.75" fill="#bd6b20" opacity="0.35"/><circle cx="859.1" cy="28.0" r="1.92" fill="#bd6b20" opacity="0.36"/><circle cx="895.0" cy="28.3" r="3.16" fill="#bd6b20" opacity="0.20"/><circle cx="929.8" cy="31.5" r="2.98" fill="#bd6b20" opacity="0.17"/><circle cx="964.5" cy="28.9" r="2.17" fill="#bd6b20" opacity="0.34"/><circle cx="1002.1" cy="27.6" r="3.05" fill="#bd6b20" opacity="0.36"/><circle cx="1037.1" cy="28.5" r="2.59" fill="#bd6b20" opacity="0.25"/><circle cx="1076.5" cy="32.8" r="3.99" fill="#bd6b20" opacity="0.17"/><circle cx="1109.7" cy="32.0" r="2.63" fill="#bd6b20" opacity="0.22"/><circle cx="1144.0" cy="32.5" r="2.77" fill="#bd6b20" opacity="0.26"/><circle cx="1183.7" cy="29.8" r="3.87" fill="#bd6b20" opacity="0.36"/><circle cx="29.8" cy="67.0" r="2.02" fill="#bd6b20" opacity="0.26"/><circle cx="64.8" cy="68.7" r="3.52" fill="#bd6b20" opacity="0.24"/><circle cx="104.6" cy="63.9" r="3.12" fill="#bd6b20" opacity="0.35"/><circle cx="140.7" cy="66.3" r="2.74" fill="#bd6b20" opacity="0.30"/><circle cx="171.5" cy="66.6" r="3.94" fill="#bd6b20" opacity="0.15"/><circle cx="212.6" cy="63.6" r="3.58" fill="#bd6b20" opacity="0.34"/><circle cx="244.0" cy="68.7" r="3.80" fill="#bd6b20" opacity="0.29"/><circle cx="283.8" cy="63.9" r="1.74" fill="#bd6b20" opacity="0.32"/><circle cx="317.4" cy="67.0" r="2.59" fill="#bd6b20" opacity="0.23"/><circle cx="352.3" cy="67.5" r="1.85" fill="#bd6b20" opacity="0.34"/><circle cx="391.7" cy="66.1" r="2.46" fill="#bd6b20" opacity="0.28"/><circle cx="425.2" cy="67.9" r="3.82" fill="#bd6b20" opacity="0.33"/><circle cx="464.9" cy="66.5" r="3.61" fill="#bd6b20" opacity="0.35"/><circle cx="499.5" cy="68.0" r="2.33" fill="#bd6b20" opacity="0.17"/><circle cx="532.1" cy="67.8" r="2.63" fill="#bd6b20" opacity="0.16"/><circle cx="567.6" cy="66.8" r="1.63" fill="#bd6b20" opacity="0.29"/><circle cx="607.8" cy="68.1" r="3.80" fill="#bd6b20" opacity="0.15"/><circle cx="644.6" cy="63.9" r="3.27" fill="#bd6b20" opacity="0.30"/><circle cx="676.3" cy="66.7" r="3.06" fill="#bd6b20" opacity="0.20"/><circle cx="711.3" cy="66.4" r="2.60" fill="#bd6b20" opacity="0.15"/><circle cx="749.7" cy="63.7" r="2.86" fill="#bd6b20" opacity="0.35"/><circle cx="784.1" cy="68.1" r="2.89" fill="#bd6b20" opacity="0.23"/><circle cx="823.5" cy="64.1" r="1.99" fill="#bd6b20" opacity="0.30"/><circle cx="859.0" cy="68.6" r="2.40" fill="#bd6b20" opacity="0.28"/><circle cx="896.0" cy="65.1" r="2.35" fill="#bd6b20" opacity="0.26"/><circle cx="932.9" cy="63.1" r="3.70" fill="#bd6b20" opacity="0.19"/><circle cx="967.6" cy="63.2" r="3.13" fill="#bd6b20" opacity="0.34"/><circle cx="1000.0" cy="65.8" r="2.72" fill="#bd6b20" opacity="0.35"/><circle cx="1038.2" cy="67.4" r="1.71" fill="#bd6b20" opacity="0.26"/><circle cx="1075.9" cy="68.5" r="2.63" fill="#bd6b20" opacity="0.26"/><circle cx="1111.2" cy="67.4" r="1.93" fill="#bd6b20" opacity="0.26"/><circle cx="1148.6" cy="65.0" r="1.90" fill="#bd6b20" opacity="0.34"/><circle cx="1184.3" cy="68.3" r="2.26" fill="#bd6b20" opacity="0.28"/><circle cx="28.6" cy="100.9" r="2.60" fill="#bd6b20" opacity="0.21"/><circle cx="65.5" cy="100.3" r="2.17" fill="#bd6b20" opacity="0.27"/><circle cx="101.7" cy="102.0" r="2.10" fill="#bd6b20" opacity="0.20"/><circle cx="136.7" cy="103.6" r="3.35" fill="#bd6b20" opacity="0.28"/><circle cx="173.4" cy="99.7" r="3.01" fill="#bd6b20" opacity="0.18"/><circle cx="207.5" cy="103.7" r="1.69" fill="#bd6b20" opacity="0.25"/><circle cx="248.1" cy="99.7" r="2.05" fill="#bd6b20" opacity="0.33"/><circle cx="279.8" cy="99.5" r="1.71" fill="#bd6b20" opacity="0.20"/><circle cx="315.8" cy="100.8" r="2.31" fill="#bd6b20" opacity="0.17"/><circle cx="355.0" cy="99.0" r="3.32" fill="#bd6b20" opacity="0.18"/><circle cx="391.2" cy="99.2" r="3.44" fill="#bd6b20" opacity="0.18"/><circle cx="426.9" cy="104.9" r="2.51" fill="#bd6b20" opacity="0.32"/><circle cx="462.8" cy="101.9" r="3.27" fill="#bd6b20" opacity="0.17"/><circle cx="499.3" cy="104.7" r="2.67" fill="#bd6b20" opacity="0.29"/><circle cx="537.0" cy="102.5" r="2.93" fill="#bd6b20" opacity="0.35"/><circle cx="569.4" cy="103.1" r="3.55" fill="#bd6b20" opacity="0.21"/><circle cx="606.5" cy="99.3" r="2.59" fill="#bd6b20" opacity="0.15"/><circle cx="641.7" cy="102.7" r="3.06" fill="#bd6b20" opacity="0.29"/><circle cx="680.7" cy="99.9" r="3.80" fill="#bd6b20" opacity="0.28"/><circle cx="712.4" cy="104.3" r="2.57" fill="#bd6b20" opacity="0.17"/><circle cx="747.6" cy="101.3" r="2.94" fill="#bd6b20" opacity="0.35"/><circle cx="785.4" cy="102.3" r="3.83" fill="#bd6b20" opacity="0.33"/><circle cx="822.6" cy="99.0" r="2.64" fill="#bd6b20" opacity="0.25"/><circle cx="859.7" cy="101.3" r="3.54" fill="#bd6b20" opacity="0.26"/><circle cx="896.3" cy="99.5" r="2.46" fill="#bd6b20" opacity="0.15"/><circle cx="929.5" cy="101.1" r="3.49" fill="#bd6b20" opacity="0.36"/><circle cx="964.6" cy="103.8" r="2.19" fill="#bd6b20" opacity="0.29"/><circle cx="1003.6" cy="104.2" r="1.83" fill="#bd6b20" opacity="0.28"/><circle cx="1038.3" cy="101.7" r="2.81" fill="#bd6b20" opacity="0.32"/><circle cx="1076.6" cy="102.5" r="3.42" fill="#bd6b20" opacity="0.23"/><circle cx="1107.5" cy="104.0" r="3.16" fill="#bd6b20" opacity="0.20"/><circle cx="1146.6" cy="100.4" r="3.82" fill="#bd6b20" opacity="0.33"/><circle cx="1183.2" cy="100.2" r="1.70" fill="#bd6b20" opacity="0.28"/><circle cx="31.3" cy="139.2" r="2.32" fill="#bd6b20" opacity="0.35"/><circle cx="67.4" cy="139.0" r="3.74" fill="#bd6b20" opacity="0.33"/><circle cx="99.5" cy="135.2" r="3.47" fill="#bd6b20" opacity="0.27"/><circle cx="135.7" cy="137.6" r="2.47" fill="#bd6b20" opacity="0.23"/><circle cx="172.3" cy="136.9" r="2.94" fill="#bd6b20" opacity="0.27"/><circle cx="209.4" cy="136.9" r="1.69" fill="#bd6b20" opacity="0.18"/><circle cx="245.9" cy="135.3" r="2.21" fill="#bd6b20" opacity="0.19"/><circle cx="283.2" cy="136.5" r="3.66" fill="#bd6b20" opacity="0.32"/><circle cx="317.9" cy="138.5" r="2.12" fill="#bd6b20" opacity="0.18"/><circle cx="351.8" cy="137.4" r="2.06" fill="#bd6b20" opacity="0.21"/><circle cx="388.7" cy="140.7" r="3.85" fill="#bd6b20" opacity="0.17"/><circle cx="427.0" cy="140.8" r="3.26" fill="#bd6b20" opacity="0.19"/><circle cx="463.4" cy="137.6" r="2.75" fill="#bd6b20" opacity="0.16"/><circle cx="498.8" cy="139.0" r="1.85" fill="#bd6b20" opacity="0.21"/><circle cx="532.6" cy="135.4" r="1.86" fill="#bd6b20" opacity="0.34"/><circle cx="572.4" cy="138.5" r="2.75" fill="#bd6b20" opacity="0.18"/><circle cx="604.9" cy="138.2" r="3.42" fill="#bd6b20" opacity="0.29"/><circle cx="639.2" cy="138.3" r="2.69" fill="#bd6b20" opacity="0.35"/><circle cx="678.3" cy="138.6" r="2.56" fill="#bd6b20" opacity="0.22"/><circle cx="714.9" cy="139.6" r="2.30" fill="#bd6b20" opacity="0.21"/><circle cx="749.0" cy="136.4" r="2.91" fill="#bd6b20" opacity="0.27"/><circle cx="787.6" cy="139.6" r="2.37" fill="#bd6b20" opacity="0.22"/><circle cx="819.8" cy="138.8" r="2.48" fill="#bd6b20" opacity="0.19"/><circle cx="858.6" cy="136.4" r="3.30" fill="#bd6b20" opacity="0.21"/><circle cx="895.8" cy="140.9" r="2.48" fill="#bd6b20" opacity="0.29"/><circle cx="929.1" cy="137.3" r="2.25" fill="#bd6b20" opacity="0.33"/><circle cx="965.7" cy="137.2" r="2.10" fill="#bd6b20" opacity="0.17"/><circle cx="1004.9" cy="135.1" r="2.56" fill="#bd6b20" opacity="0.23"/><circle cx="1038.9" cy="136.7" r="2.52" fill="#bd6b20" opacity="0.15"/><circle cx="1076.1" cy="140.1" r="3.26" fill="#bd6b20" opacity="0.15"/><circle cx="1110.3" cy="135.1" r="1.63" fill="#bd6b20" opacity="0.35"/><circle cx="1148.1" cy="137.1" r="3.13" fill="#bd6b20" opacity="0.35"/><circle cx="1181.5" cy="139.1" r="2.87" fill="#bd6b20" opacity="0.24"/><circle cx="28.7" cy="176.0" r="3.94" fill="#bd6b20" opacity="0.18"/><circle cx="65.4" cy="171.7" r="3.67" fill="#bd6b20" opacity="0.31"/><circle cx="100.0" cy="173.9" r="3.74" fill="#bd6b20" opacity="0.35"/><circle cx="136.9" cy="172.8" r="3.52" fill="#bd6b20" opacity="0.25"/><circle cx="175.5" cy="173.8" r="3.48" fill="#bd6b20" opacity="0.26"/><circle cx="209.5" cy="172.2" r="2.03" fill="#bd6b20" opacity="0.31"/><circle cx="243.5" cy="171.3" r="3.33" fill="#bd6b20" opacity="0.32"/><circle cx="283.1" cy="173.5" r="2.53" fill="#bd6b20" opacity="0.30"/><circle cx="317.2" cy="174.6" r="3.99" fill="#bd6b20" opacity="0.28"/><circle cx="351.7" cy="173.5" r="2.07" fill="#bd6b20" opacity="0.29"/><circle cx="391.5" cy="176.6" r="2.37" fill="#bd6b20" opacity="0.25"/><circle cx="429.0" cy="173.0" r="2.00" fill="#bd6b20" opacity="0.26"/><circle cx="464.5" cy="175.0" r="2.10" fill="#bd6b20" opacity="0.28"/><circle cx="500.8" cy="174.1" r="3.75" fill="#bd6b20" opacity="0.18"/><circle cx="536.4" cy="176.7" r="2.45" fill="#bd6b20" opacity="0.17"/><circle cx="568.9" cy="176.1" r="3.87" fill="#bd6b20" opacity="0.31"/><circle cx="605.0" cy="175.6" r="2.90" fill="#bd6b20" opacity="0.25"/><circle cx="639.6" cy="171.1" r="2.32" fill="#bd6b20" opacity="0.23"/><circle cx="678.8" cy="174.7" r="3.16" fill="#bd6b20" opacity="0.17"/><circle cx="711.8" cy="173.1" r="3.40" fill="#bd6b20" opacity="0.25"/><circle cx="751.2" cy="172.7" r="1.74" fill="#bd6b20" opacity="0.33"/><circle cx="787.8" cy="172.0" r="1.88" fill="#bd6b20" opacity="0.22"/><circle cx="821.8" cy="172.3" r="3.78" fill="#bd6b20" opacity="0.23"/><circle cx="858.7" cy="173.4" r="3.52" fill="#bd6b20" opacity="0.16"/><circle cx="893.9" cy="174.3" r="2.82" fill="#bd6b20" opacity="0.34"/><circle cx="930.8" cy="173.5" r="2.96" fill="#bd6b20" opacity="0.21"/><circle cx="964.4" cy="175.8" r="2.75" fill="#bd6b20" opacity="0.22"/><circle cx="1002.5" cy="176.3" r="3.87" fill="#bd6b20" opacity="0.27"/><circle cx="1035.1" cy="176.9" r="3.82" fill="#bd6b20" opacity="0.33"/><circle cx="1073.0" cy="171.3" r="2.32" fill="#bd6b20" opacity="0.28"/><circle cx="1110.5" cy="174.3" r="2.04" fill="#bd6b20" opacity="0.31"/><circle cx="1148.2" cy="171.0" r="2.53" fill="#bd6b20" opacity="0.31"/><circle cx="1180.7" cy="174.6" r="2.14" fill="#bd6b20" opacity="0.24"/><circle cx="32.4" cy="209.1" r="3.16" fill="#bd6b20" opacity="0.29"/><circle cx="67.4" cy="207.4" r="3.93" fill="#bd6b20" opacity="0.33"/><circle cx="99.5" cy="211.0" r="3.45" fill="#bd6b20" opacity="0.20"/><circle cx="135.0" cy="212.9" r="3.15" fill="#bd6b20" opacity="0.24"/><circle cx="175.6" cy="210.1" r="1.98" fill="#bd6b20" opacity="0.31"/><circle cx="212.7" cy="208.5" r="2.42" fill="#bd6b20" opacity="0.19"/><circle cx="243.4" cy="208.8" r="2.59" fill="#bd6b20" opacity="0.34"/><circle cx="284.0" cy="212.7" r="3.64" fill="#bd6b20" opacity="0.16"/><circle cx="320.6" cy="211.4" r="1.67" fill="#bd6b20" opacity="0.17"/><circle cx="355.5" cy="209.9" r="1.67" fill="#bd6b20" opacity="0.26"/><circle cx="387.7" cy="210.8" r="3.66" fill="#bd6b20" opacity="0.26"/><circle cx="424.6" cy="208.0" r="1.71" fill="#bd6b20" opacity="0.35"/><circle cx="462.7" cy="212.8" r="3.57" fill="#bd6b20" opacity="0.18"/><circle cx="497.0" cy="208.4" r="3.68" fill="#bd6b20" opacity="0.29"/><circle cx="535.1" cy="212.9" r="3.88" fill="#bd6b20" opacity="0.27"/><circle cx="570.1" cy="211.3" r="3.67" fill="#bd6b20" opacity="0.18"/><circle cx="606.8" cy="210.2" r="3.03" fill="#bd6b20" opacity="0.19"/><circle cx="644.3" cy="209.3" r="2.97" fill="#bd6b20" opacity="0.24"/><circle cx="677.2" cy="208.2" r="3.40" fill="#bd6b20" opacity="0.32"/><circle cx="716.8" cy="210.7" r="1.89" fill="#bd6b20" opacity="0.18"/><circle cx="750.5" cy="211.7" r="3.57" fill="#bd6b20" opacity="0.34"/><circle cx="788.7" cy="208.1" r="1.87" fill="#bd6b20" opacity="0.18"/><circle cx="824.1" cy="211.1" r="2.42" fill="#bd6b20" opacity="0.29"/><circle cx="857.2" cy="209.3" r="3.95" fill="#bd6b20" opacity="0.32"/><circle cx="891.4" cy="212.1" r="2.99" fill="#bd6b20" opacity="0.33"/><circle cx="932.2" cy="211.6" r="2.12" fill="#bd6b20" opacity="0.33"/><circle cx="964.8" cy="212.5" r="1.77" fill="#bd6b20" opacity="0.36"/><circle cx="1003.3" cy="211.2" r="3.90" fill="#bd6b20" opacity="0.21"/><circle cx="1040.3" cy="209.6" r="1.94" fill="#bd6b20" opacity="0.22"/><circle cx="1075.2" cy="211.0" r="1.65" fill="#bd6b20" opacity="0.36"/><circle cx="1112.3" cy="212.9" r="1.90" fill="#bd6b20" opacity="0.29"/><circle cx="1146.9" cy="210.9" r="3.77" fill="#bd6b20" opacity="0.26"/><circle cx="1181.9" cy="212.6" r="2.70" fill="#bd6b20" opacity="0.20"/><circle cx="33.0" cy="243.9" r="3.23" fill="#bd6b20" opacity="0.29"/><circle cx="65.1" cy="246.2" r="2.58" fill="#bd6b20" opacity="0.22"/><circle cx="100.8" cy="248.1" r="2.23" fill="#bd6b20" opacity="0.30"/><circle cx="140.9" cy="245.6" r="3.23" fill="#bd6b20" opacity="0.26"/><circle cx="175.1" cy="243.9" r="2.30" fill="#bd6b20" opacity="0.17"/><circle cx="212.3" cy="246.0" r="2.06" fill="#bd6b20" opacity="0.21"/><circle cx="247.6" cy="243.8" r="3.87" fill="#bd6b20" opacity="0.29"/><circle cx="282.6" cy="243.6" r="1.70" fill="#bd6b20" opacity="0.23"/><circle cx="315.3" cy="244.9" r="2.90" fill="#bd6b20" opacity="0.16"/><circle cx="354.8" cy="245.3" r="2.87" fill="#bd6b20" opacity="0.31"/><circle cx="388.5" cy="243.2" r="3.11" fill="#bd6b20" opacity="0.33"/><circle cx="428.6" cy="243.9" r="2.01" fill="#bd6b20" opacity="0.30"/><circle cx="459.3" cy="245.1" r="1.91" fill="#bd6b20" opacity="0.34"/><circle cx="499.5" cy="243.1" r="2.43" fill="#bd6b20" opacity="0.28"/><circle cx="531.8" cy="247.0" r="1.67" fill="#bd6b20" opacity="0.22"/><circle cx="571.0" cy="247.2" r="3.82" fill="#bd6b20" opacity="0.27"/><circle cx="605.7" cy="246.8" r="1.63" fill="#bd6b20" opacity="0.19"/><circle cx="641.1" cy="245.9" r="3.32" fill="#bd6b20" opacity="0.20"/><circle cx="677.1" cy="247.2" r="2.54" fill="#bd6b20" opacity="0.18"/><circle cx="716.7" cy="246.6" r="3.02" fill="#bd6b20" opacity="0.22"/><circle cx="751.1" cy="247.5" r="3.43" fill="#bd6b20" opacity="0.29"/><circle cx="784.5" cy="244.8" r="3.09" fill="#bd6b20" opacity="0.26"/><circle cx="824.0" cy="246.6" r="3.55" fill="#bd6b20" opacity="0.15"/><circle cx="859.9" cy="246.5" r="3.17" fill="#bd6b20" opacity="0.22"/><circle cx="891.7" cy="247.3" r="2.45" fill="#bd6b20" opacity="0.30"/><circle cx="929.6" cy="247.4" r="3.35" fill="#bd6b20" opacity="0.22"/><circle cx="966.0" cy="245.2" r="3.35" fill="#bd6b20" opacity="0.22"/><circle cx="1004.4" cy="246.4" r="2.62" fill="#bd6b20" opacity="0.31"/><circle cx="1040.2" cy="244.5" r="3.44" fill="#bd6b20" opacity="0.31"/><circle cx="1076.2" cy="243.7" r="2.67" fill="#bd6b20" opacity="0.23"/><circle cx="1108.2" cy="244.0" r="2.24" fill="#bd6b20" opacity="0.15"/><circle cx="1148.5" cy="244.0" r="3.08" fill="#bd6b20" opacity="0.35"/><circle cx="1184.7" cy="243.2" r="3.15" fill="#bd6b20" opacity="0.19"/><circle cx="32.8" cy="281.1" r="2.91" fill="#bd6b20" opacity="0.15"/><circle cx="67.5" cy="281.6" r="3.95" fill="#bd6b20" opacity="0.29"/><circle cx="101.2" cy="282.7" r="3.56" fill="#bd6b20" opacity="0.25"/><circle cx="136.9" cy="279.8" r="2.73" fill="#bd6b20" opacity="0.32"/><circle cx="173.6" cy="280.7" r="2.19" fill="#bd6b20" opacity="0.26"/><circle cx="209.6" cy="280.0" r="2.44" fill="#bd6b20" opacity="0.18"/><circle cx="247.4" cy="283.6" r="1.86" fill="#bd6b20" opacity="0.23"/><circle cx="281.9" cy="282.3" r="2.47" fill="#bd6b20" opacity="0.16"/><circle cx="316.2" cy="282.2" r="2.53" fill="#bd6b20" opacity="0.29"/><circle cx="352.3" cy="281.7" r="2.45" fill="#bd6b20" opacity="0.16"/><circle cx="390.1" cy="279.8" r="2.85" fill="#bd6b20" opacity="0.20"/><circle cx="426.1" cy="282.3" r="3.14" fill="#bd6b20" opacity="0.36"/><circle cx="462.6" cy="282.0" r="2.85" fill="#bd6b20" opacity="0.20"/><circle cx="500.2" cy="280.9" r="1.95" fill="#bd6b20" opacity="0.23"/><circle cx="534.8" cy="283.3" r="2.02" fill="#bd6b20" opacity="0.35"/><circle cx="571.9" cy="281.6" r="3.12" fill="#bd6b20" opacity="0.22"/><circle cx="606.8" cy="280.1" r="1.70" fill="#bd6b20" opacity="0.20"/><circle cx="641.5" cy="284.8" r="2.63" fill="#bd6b20" opacity="0.30"/><circle cx="679.2" cy="280.3" r="2.41" fill="#bd6b20" opacity="0.25"/><circle cx="711.9" cy="282.1" r="2.35" fill="#bd6b20" opacity="0.16"/><circle cx="751.4" cy="279.0" r="1.83" fill="#bd6b20" opacity="0.18"/><circle cx="788.1" cy="281.4" r="1.96" fill="#bd6b20" opacity="0.32"/><circle cx="819.7" cy="281.1" r="2.50" fill="#bd6b20" opacity="0.17"/><circle cx="859.7" cy="282.2" r="2.08" fill="#bd6b20" opacity="0.27"/><circle cx="894.0" cy="279.8" r="2.45" fill="#bd6b20" opacity="0.27"/><circle cx="929.6" cy="281.7" r="3.23" fill="#bd6b20" opacity="0.16"/><circle cx="968.1" cy="283.4" r="2.42" fill="#bd6b20" opacity="0.20"/><circle cx="1002.4" cy="284.0" r="1.90" fill="#bd6b20" opacity="0.19"/><circle cx="1037.9" cy="283.5" r="2.43" fill="#bd6b20" opacity="0.32"/><circle cx="1074.7" cy="284.7" r="1.76" fill="#bd6b20" opacity="0.16"/><circle cx="1107.2" cy="284.8" r="3.59" fill="#bd6b20" opacity="0.16"/><circle cx="1148.9" cy="279.4" r="3.59" fill="#bd6b20" opacity="0.18"/><circle cx="1179.7" cy="284.8" r="3.82" fill="#bd6b20" opacity="0.26"/><circle cx="32.6" cy="317.4" r="3.81" fill="#bd6b20" opacity="0.36"/><circle cx="63.7" cy="317.2" r="3.27" fill="#bd6b20" opacity="0.16"/><circle cx="103.2" cy="318.9" r="2.18" fill="#bd6b20" opacity="0.18"/><circle cx="139.3" cy="318.0" r="2.52" fill="#bd6b20" opacity="0.32"/><circle cx="172.7" cy="318.2" r="3.77" fill="#bd6b20" opacity="0.17"/><circle cx="207.6" cy="320.5" r="1.70" fill="#bd6b20" opacity="0.24"/><circle cx="247.4" cy="316.8" r="3.48" fill="#bd6b20" opacity="0.17"/><circle cx="283.6" cy="315.7" r="2.24" fill="#bd6b20" opacity="0.35"/><circle cx="320.3" cy="321.0" r="3.37" fill="#bd6b20" opacity="0.30"/><circle cx="353.5" cy="317.6" r="2.65" fill="#bd6b20" opacity="0.32"/><circle cx="387.4" cy="320.8" r="3.38" fill="#bd6b20" opacity="0.35"/><circle cx="425.0" cy="320.5" r="3.80" fill="#bd6b20" opacity="0.18"/><circle cx="461.4" cy="320.5" r="3.22" fill="#bd6b20" opacity="0.35"/><circle cx="497.3" cy="319.5" r="1.99" fill="#bd6b20" opacity="0.19"/><circle cx="533.4" cy="319.3" r="3.05" fill="#bd6b20" opacity="0.18"/><circle cx="570.4" cy="320.3" r="3.86" fill="#bd6b20" opacity="0.20"/><circle cx="605.0" cy="315.1" r="2.35" fill="#bd6b20" opacity="0.34"/><circle cx="644.2" cy="318.8" r="2.71" fill="#bd6b20" opacity="0.18"/><circle cx="678.7" cy="317.6" r="2.68" fill="#bd6b20" opacity="0.28"/><circle cx="712.5" cy="320.1" r="3.47" fill="#bd6b20" opacity="0.21"/><circle cx="751.5" cy="317.7" r="3.30" fill="#bd6b20" opacity="0.29"/><circle cx="788.9" cy="319.4" r="2.93" fill="#bd6b20" opacity="0.35"/><circle cx="819.7" cy="318.8" r="1.87" fill="#bd6b20" opacity="0.32"/><circle cx="858.7" cy="316.4" r="2.27" fill="#bd6b20" opacity="0.27"/><circle cx="892.9" cy="316.4" r="3.59" fill="#bd6b20" opacity="0.20"/><circle cx="932.8" cy="319.0" r="3.34" fill="#bd6b20" opacity="0.29"/><circle cx="967.6" cy="317.2" r="2.18" fill="#bd6b20" opacity="0.25"/><circle cx="1004.4" cy="317.5" r="3.89" fill="#bd6b20" opacity="0.28"/><circle cx="1037.6" cy="317.3" r="2.70" fill="#bd6b20" opacity="0.15"/><circle cx="1075.6" cy="317.0" r="3.96" fill="#bd6b20" opacity="0.33"/><circle cx="1110.2" cy="315.1" r="2.99" fill="#bd6b20" opacity="0.17"/><circle cx="1143.9" cy="317.9" r="3.89" fill="#bd6b20" opacity="0.25"/><circle cx="1184.2" cy="316.8" r="1.68" fill="#bd6b20" opacity="0.32"/><circle cx="28.3" cy="353.4" r="2.44" fill="#bd6b20" opacity="0.34"/><circle cx="66.6" cy="352.3" r="3.74" fill="#bd6b20" opacity="0.25"/><circle cx="99.9" cy="354.1" r="3.27" fill="#bd6b20" opacity="0.27"/><circle cx="138.3" cy="353.9" r="2.33" fill="#bd6b20" opacity="0.28"/><circle cx="172.8" cy="355.3" r="3.81" fill="#bd6b20" opacity="0.29"/><circle cx="212.0" cy="356.9" r="2.24" fill="#bd6b20" opacity="0.19"/><circle cx="246.5" cy="356.6" r="2.35" fill="#bd6b20" opacity="0.35"/><circle cx="280.3" cy="354.8" r="3.84" fill="#bd6b20" opacity="0.22"/><circle cx="316.5" cy="353.9" r="1.68" fill="#bd6b20" opacity="0.24"/><circle cx="356.1" cy="356.5" r="1.70" fill="#bd6b20" opacity="0.26"/><circle cx="390.6" cy="355.6" r="2.53" fill="#bd6b20" opacity="0.30"/><circle cx="428.3" cy="353.1" r="2.30" fill="#bd6b20" opacity="0.20"/><circle cx="462.9" cy="353.4" r="1.71" fill="#bd6b20" opacity="0.32"/><circle cx="495.8" cy="356.7" r="2.30" fill="#bd6b20" opacity="0.26"/><circle cx="534.2" cy="353.6" r="3.24" fill="#bd6b20" opacity="0.31"/><circle cx="572.0" cy="351.4" r="2.08" fill="#bd6b20" opacity="0.33"/><circle cx="606.9" cy="351.3" r="3.47" fill="#bd6b20" opacity="0.19"/><circle cx="640.7" cy="351.6" r="2.03" fill="#bd6b20" opacity="0.18"/><circle cx="679.7" cy="354.1" r="3.90" fill="#bd6b20" opacity="0.23"/><circle cx="711.8" cy="353.4" r="2.75" fill="#bd6b20" opacity="0.29"/><circle cx="751.7" cy="356.6" r="2.94" fill="#bd6b20" opacity="0.26"/><circle cx="784.6" cy="351.7" r="3.65" fill="#bd6b20" opacity="0.27"/><circle cx="820.7" cy="351.5" r="2.50" fill="#bd6b20" opacity="0.18"/><circle cx="855.3" cy="356.6" r="1.70" fill="#bd6b20" opacity="0.25"/><circle cx="894.5" cy="355.2" r="3.79" fill="#bd6b20" opacity="0.34"/><circle cx="930.6" cy="356.1" r="2.03" fill="#bd6b20" opacity="0.19"/><circle cx="963.1" cy="353.4" r="3.53" fill="#bd6b20" opacity="0.22"/><circle cx="999.4" cy="352.9" r="2.42" fill="#bd6b20" opacity="0.21"/><circle cx="1038.9" cy="355.9" r="2.49" fill="#bd6b20" opacity="0.31"/><circle cx="1071.3" cy="352.2" r="2.95" fill="#bd6b20" opacity="0.22"/><circle cx="1107.3" cy="351.8" r="1.68" fill="#bd6b20" opacity="0.32"/><circle cx="1146.9" cy="351.7" r="3.00" fill="#bd6b20" opacity="0.25"/><circle cx="1183.9" cy="353.5" r="2.32" fill="#bd6b20" opacity="0.19"/><circle cx="27.4" cy="392.6" r="2.26" fill="#bd6b20" opacity="0.20"/><circle cx="69.0" cy="391.3" r="2.25" fill="#bd6b20" opacity="0.17"/><circle cx="103.1" cy="387.6" r="3.27" fill="#bd6b20" opacity="0.16"/><circle cx="140.0" cy="393.0" r="1.77" fill="#bd6b20" opacity="0.16"/><circle cx="172.5" cy="389.5" r="3.12" fill="#bd6b20" opacity="0.30"/><circle cx="211.2" cy="391.0" r="2.04" fill="#bd6b20" opacity="0.24"/><circle cx="246.2" cy="391.1" r="2.28" fill="#bd6b20" opacity="0.16"/><circle cx="284.1" cy="392.0" r="2.13" fill="#bd6b20" opacity="0.26"/><circle cx="320.6" cy="387.6" r="2.35" fill="#bd6b20" opacity="0.33"/><circle cx="352.8" cy="388.4" r="3.55" fill="#bd6b20" opacity="0.25"/><circle cx="388.1" cy="387.5" r="2.26" fill="#bd6b20" opacity="0.28"/><circle cx="424.9" cy="387.1" r="2.03" fill="#bd6b20" opacity="0.18"/><circle cx="462.3" cy="387.1" r="3.29" fill="#bd6b20" opacity="0.31"/><circle cx="500.0" cy="387.8" r="2.54" fill="#bd6b20" opacity="0.21"/><circle cx="531.6" cy="388.2" r="3.49" fill="#bd6b20" opacity="0.27"/><circle cx="572.3" cy="389.8" r="3.13" fill="#bd6b20" opacity="0.22"/><circle cx="605.9" cy="392.2" r="2.22" fill="#bd6b20" opacity="0.31"/><circle cx="644.3" cy="390.1" r="3.35" fill="#bd6b20" opacity="0.34"/><circle cx="677.7" cy="392.3" r="2.90" fill="#bd6b20" opacity="0.19"/><circle cx="716.7" cy="392.3" r="4.00" fill="#bd6b20" opacity="0.23"/><circle cx="747.8" cy="390.1" r="2.83" fill="#bd6b20" opacity="0.21"/><circle cx="784.2" cy="391.8" r="2.77" fill="#bd6b20" opacity="0.35"/><circle cx="823.7" cy="389.6" r="2.90" fill="#bd6b20" opacity="0.18"/><circle cx="860.7" cy="390.6" r="2.90" fill="#bd6b20" opacity="0.31"/><circle cx="896.0" cy="390.1" r="1.71" fill="#bd6b20" opacity="0.27"/><circle cx="932.3" cy="392.1" r="2.90" fill="#bd6b20" opacity="0.19"/><circle cx="967.1" cy="390.0" r="3.67" fill="#bd6b20" opacity="0.17"/><circle cx="1000.4" cy="392.7" r="2.87" fill="#bd6b20" opacity="0.35"/><circle cx="1037.9" cy="389.0" r="3.24" fill="#bd6b20" opacity="0.23"/><circle cx="1074.6" cy="391.0" r="3.50" fill="#bd6b20" opacity="0.32"/><circle cx="1107.4" cy="391.5" r="3.28" fill="#bd6b20" opacity="0.15"/><circle cx="1148.4" cy="392.0" r="3.91" fill="#bd6b20" opacity="0.33"/><circle cx="1184.4" cy="390.1" r="2.11" fill="#bd6b20" opacity="0.18"/><circle cx="30.7" cy="428.8" r="2.60" fill="#bd6b20" opacity="0.31"/><circle cx="64.6" cy="423.4" r="2.27" fill="#bd6b20" opacity="0.16"/><circle cx="100.2" cy="423.7" r="3.69" fill="#bd6b20" opacity="0.25"/><circle cx="135.3" cy="425.6" r="3.87" fill="#bd6b20" opacity="0.18"/><circle cx="173.8" cy="425.6" r="1.89" fill="#bd6b20" opacity="0.23"/><circle cx="209.9" cy="425.2" r="1.79" fill="#bd6b20" opacity="0.27"/><circle cx="245.4" cy="427.8" r="3.69" fill="#bd6b20" opacity="0.36"/><circle cx="281.8" cy="423.9" r="3.21" fill="#bd6b20" opacity="0.32"/><circle cx="318.4" cy="427.9" r="1.86" fill="#bd6b20" opacity="0.24"/><circle cx="351.9" cy="428.4" r="1.98" fill="#bd6b20" opacity="0.21"/><circle cx="392.2" cy="423.9" r="2.54" fill="#bd6b20" opacity="0.16"/><circle cx="423.6" cy="428.8" r="1.91" fill="#bd6b20" opacity="0.15"/><circle cx="464.5" cy="428.9" r="1.72" fill="#bd6b20" opacity="0.20"/><circle cx="498.2" cy="425.4" r="3.87" fill="#bd6b20" opacity="0.26"/><circle cx="534.3" cy="425.1" r="1.85" fill="#bd6b20" opacity="0.33"/><circle cx="572.9" cy="428.6" r="3.79" fill="#bd6b20" opacity="0.25"/><circle cx="604.6" cy="427.2" r="1.69" fill="#bd6b20" opacity="0.17"/><circle cx="641.8" cy="423.6" r="2.89" fill="#bd6b20" opacity="0.18"/><circle cx="676.0" cy="428.2" r="3.47" fill="#bd6b20" opacity="0.32"/><circle cx="715.9" cy="424.7" r="3.94" fill="#bd6b20" opacity="0.19"/><circle cx="747.0" cy="428.6" r="3.06" fill="#bd6b20" opacity="0.20"/><circle cx="786.6" cy="425.0" r="3.51" fill="#bd6b20" opacity="0.30"/><circle cx="824.1" cy="424.1" r="3.95" fill="#bd6b20" opacity="0.32"/><circle cx="855.6" cy="428.4" r="2.05" fill="#bd6b20" opacity="0.25"/><circle cx="895.9" cy="424.0" r="2.76" fill="#bd6b20" opacity="0.15"/><circle cx="928.1" cy="425.0" r="3.85" fill="#bd6b20" opacity="0.34"/><circle cx="967.4" cy="425.5" r="3.74" fill="#bd6b20" opacity="0.21"/><circle cx="1000.6" cy="427.9" r="1.68" fill="#bd6b20" opacity="0.31"/><circle cx="1035.2" cy="428.8" r="3.73" fill="#bd6b20" opacity="0.15"/><circle cx="1071.7" cy="428.1" r="1.90" fill="#bd6b20" opacity="0.22"/><circle cx="1111.1" cy="424.7" r="3.90" fill="#bd6b20" opacity="0.17"/><circle cx="1148.5" cy="424.6" r="1.90" fill="#bd6b20" opacity="0.21"/><circle cx="1183.2" cy="423.1" r="2.79" fill="#bd6b20" opacity="0.36"/><circle cx="30.1" cy="463.3" r="3.27" fill="#bd6b20" opacity="0.29"/><circle cx="65.0" cy="459.9" r="2.26" fill="#bd6b20" opacity="0.21"/><circle cx="103.5" cy="460.5" r="2.56" fill="#bd6b20" opacity="0.32"/><circle cx="140.5" cy="459.6" r="2.69" fill="#bd6b20" opacity="0.17"/><circle cx="174.6" cy="462.6" r="3.05" fill="#bd6b20" opacity="0.33"/><circle cx="210.1" cy="464.6" r="2.76" fill="#bd6b20" opacity="0.29"/><circle cx="246.9" cy="460.0" r="2.46" fill="#bd6b20" opacity="0.33"/><circle cx="283.7" cy="461.9" r="2.78" fill="#bd6b20" opacity="0.36"/><circle cx="317.2" cy="462.4" r="3.30" fill="#bd6b20" opacity="0.26"/><circle cx="356.1" cy="459.5" r="2.01" fill="#bd6b20" opacity="0.31"/><circle cx="389.9" cy="461.0" r="3.89" fill="#bd6b20" opacity="0.35"/><circle cx="424.3" cy="459.9" r="3.34" fill="#bd6b20" opacity="0.30"/><circle cx="464.3" cy="462.0" r="3.55" fill="#bd6b20" opacity="0.31"/><circle cx="497.8" cy="460.6" r="3.04" fill="#bd6b20" opacity="0.18"/><circle cx="535.1" cy="461.9" r="3.05" fill="#bd6b20" opacity="0.18"/><circle cx="570.2" cy="461.1" r="2.37" fill="#bd6b20" opacity="0.33"/><circle cx="609.0" cy="461.4" r="2.93" fill="#bd6b20" opacity="0.16"/><circle cx="640.4" cy="463.6" r="2.59" fill="#bd6b20" opacity="0.34"/><circle cx="676.9" cy="460.1" r="1.92" fill="#bd6b20" opacity="0.32"/><circle cx="713.0" cy="464.2" r="3.06" fill="#bd6b20" opacity="0.32"/><circle cx="748.2" cy="461.3" r="2.60" fill="#bd6b20" opacity="0.26"/><circle cx="787.8" cy="464.7" r="2.69" fill="#bd6b20" opacity="0.23"/><circle cx="824.1" cy="463.4" r="2.12" fill="#bd6b20" opacity="0.22"/><circle cx="859.6" cy="462.4" r="2.78" fill="#bd6b20" opacity="0.28"/><circle cx="895.7" cy="463.2" r="3.78" fill="#bd6b20" opacity="0.33"/><circle cx="930.2" cy="463.8" r="1.91" fill="#bd6b20" opacity="0.31"/><circle cx="964.8" cy="463.4" r="2.24" fill="#bd6b20" opacity="0.21"/><circle cx="1000.4" cy="460.3" r="2.24" fill="#bd6b20" opacity="0.19"/><circle cx="1038.1" cy="464.2" r="2.58" fill="#bd6b20" opacity="0.18"/><circle cx="1076.4" cy="461.6" r="1.90" fill="#bd6b20" opacity="0.20"/><circle cx="1107.4" cy="464.1" r="2.52" fill="#bd6b20" opacity="0.19"/><circle cx="1146.2" cy="463.7" r="3.83" fill="#bd6b20" opacity="0.21"/><circle cx="1182.2" cy="463.7" r="1.97" fill="#bd6b20" opacity="0.22"/><circle cx="30.8" cy="498.6" r="1.65" fill="#bd6b20" opacity="0.27"/><circle cx="67.9" cy="500.9" r="2.75" fill="#bd6b20" opacity="0.20"/><circle cx="103.2" cy="498.4" r="2.51" fill="#bd6b20" opacity="0.29"/><circle cx="139.4" cy="498.1" r="3.23" fill="#bd6b20" opacity="0.34"/><circle cx="174.4" cy="495.3" r="1.83" fill="#bd6b20" opacity="0.16"/><circle cx="209.6" cy="499.4" r="2.83" fill="#bd6b20" opacity="0.23"/><circle cx="245.3" cy="499.3" r="3.40" fill="#bd6b20" opacity="0.15"/><circle cx="279.1" cy="499.3" r="3.62" fill="#bd6b20" opacity="0.25"/><circle cx="320.5" cy="500.2" r="3.39" fill="#bd6b20" opacity="0.21"/><circle cx="355.8" cy="496.4" r="3.88" fill="#bd6b20" opacity="0.24"/><circle cx="387.7" cy="495.8" r="3.08" fill="#bd6b20" opacity="0.21"/><circle cx="426.9" cy="500.5" r="3.64" fill="#bd6b20" opacity="0.17"/><circle cx="461.8" cy="500.0" r="2.97" fill="#bd6b20" opacity="0.26"/><circle cx="500.9" cy="500.8" r="1.78" fill="#bd6b20" opacity="0.33"/><circle cx="535.4" cy="497.5" r="3.56" fill="#bd6b20" opacity="0.16"/><circle cx="571.3" cy="500.2" r="2.85" fill="#bd6b20" opacity="0.28"/><circle cx="605.2" cy="497.0" r="1.62" fill="#bd6b20" opacity="0.17"/><circle cx="641.6" cy="498.7" r="3.58" fill="#bd6b20" opacity="0.27"/><circle cx="680.0" cy="500.8" r="3.28" fill="#bd6b20" opacity="0.33"/><circle cx="714.7" cy="500.6" r="3.73" fill="#bd6b20" opacity="0.33"/><circle cx="752.6" cy="498.1" r="2.17" fill="#bd6b20" opacity="0.21"/><circle cx="785.0" cy="499.3" r="3.68" fill="#bd6b20" opacity="0.23"/><circle cx="824.8" cy="495.3" r="1.70" fill="#bd6b20" opacity="0.35"/><circle cx="859.2" cy="495.6" r="1.98" fill="#bd6b20" opacity="0.35"/><circle cx="892.5" cy="496.9" r="2.39" fill="#bd6b20" opacity="0.19"/><circle cx="927.1" cy="498.2" r="1.71" fill="#bd6b20" opacity="0.35"/><circle cx="967.9" cy="496.0" r="2.16" fill="#bd6b20" opacity="0.20"/><circle cx="1001.9" cy="495.4" r="3.71" fill="#bd6b20" opacity="0.33"/><circle cx="1040.1" cy="496.1" r="1.99" fill="#bd6b20" opacity="0.18"/><circle cx="1071.3" cy="499.0" r="3.73" fill="#bd6b20" opacity="0.18"/><circle cx="1110.2" cy="495.3" r="2.29" fill="#bd6b20" opacity="0.29"/><circle cx="1146.0" cy="500.6" r="2.21" fill="#bd6b20" opacity="0.24"/><circle cx="1183.8" cy="496.2" r="1.65" fill="#bd6b20" opacity="0.30"/><circle cx="27.4" cy="535.9" r="2.14" fill="#bd6b20" opacity="0.20"/><circle cx="68.7" cy="533.1" r="2.16" fill="#bd6b20" opacity="0.29"/><circle cx="104.7" cy="533.4" r="3.47" fill="#bd6b20" opacity="0.19"/><circle cx="136.1" cy="532.7" r="3.80" fill="#bd6b20" opacity="0.33"/><circle cx="176.5" cy="536.9" r="1.91" fill="#bd6b20" opacity="0.18"/><circle cx="208.7" cy="536.0" r="3.67" fill="#bd6b20" opacity="0.34"/><circle cx="247.5" cy="536.2" r="1.88" fill="#bd6b20" opacity="0.34"/><circle cx="281.0" cy="531.4" r="2.96" fill="#bd6b20" opacity="0.15"/><circle cx="319.0" cy="533.0" r="3.61" fill="#bd6b20" opacity="0.25"/><circle cx="354.0" cy="532.0" r="3.41" fill="#bd6b20" opacity="0.33"/><circle cx="392.2" cy="531.3" r="3.12" fill="#bd6b20" opacity="0.17"/><circle cx="427.8" cy="534.8" r="1.91" fill="#bd6b20" opacity="0.24"/><circle cx="461.0" cy="533.4" r="2.07" fill="#bd6b20" opacity="0.16"/><circle cx="495.2" cy="535.6" r="3.63" fill="#bd6b20" opacity="0.18"/><circle cx="531.1" cy="534.4" r="2.28" fill="#bd6b20" opacity="0.26"/><circle cx="570.6" cy="533.3" r="1.74" fill="#bd6b20" opacity="0.33"/><circle cx="604.6" cy="535.2" r="3.71" fill="#bd6b20" opacity="0.30"/><circle cx="642.8" cy="533.3" r="2.21" fill="#bd6b20" opacity="0.19"/><circle cx="678.9" cy="534.0" r="3.85" fill="#bd6b20" opacity="0.27"/><circle cx="711.5" cy="532.2" r="3.17" fill="#bd6b20" opacity="0.18"/><circle cx="750.0" cy="533.5" r="2.77" fill="#bd6b20" opacity="0.20"/><circle cx="787.7" cy="535.7" r="2.86" fill="#bd6b20" opacity="0.28"/><circle cx="824.6" cy="531.3" r="2.26" fill="#bd6b20" opacity="0.24"/><circle cx="859.7" cy="533.3" r="3.50" fill="#bd6b20" opacity="0.20"/><circle cx="891.3" cy="536.9" r="2.15" fill="#bd6b20" opacity="0.33"/><circle cx="931.9" cy="534.6" r="2.32" fill="#bd6b20" opacity="0.26"/><circle cx="967.3" cy="536.4" r="2.06" fill="#bd6b20" opacity="0.33"/><circle cx="999.4" cy="536.9" r="2.06" fill="#bd6b20" opacity="0.23"/><circle cx="1037.2" cy="533.8" r="3.53" fill="#bd6b20" opacity="0.27"/><circle cx="1071.3" cy="533.0" r="1.66" fill="#bd6b20" opacity="0.16"/><circle cx="1110.8" cy="531.6" r="2.10" fill="#bd6b20" opacity="0.34"/><circle cx="1145.1" cy="532.4" r="3.73" fill="#bd6b20" opacity="0.34"/><circle cx="1181.4" cy="534.3" r="2.75" fill="#bd6b20" opacity="0.32"/><circle cx="31.5" cy="569.9" r="2.98" fill="#bd6b20" opacity="0.35"/><circle cx="68.9" cy="572.4" r="3.50" fill="#bd6b20" opacity="0.24"/><circle cx="101.9" cy="571.2" r="3.75" fill="#bd6b20" opacity="0.16"/><circle cx="135.9" cy="572.1" r="2.35" fill="#bd6b20" opacity="0.17"/><circle cx="175.4" cy="571.4" r="2.95" fill="#bd6b20" opacity="0.33"/><circle cx="210.5" cy="571.6" r="2.65" fill="#bd6b20" opacity="0.16"/><circle cx="245.4" cy="569.5" r="3.29" fill="#bd6b20" opacity="0.25"/><circle cx="279.0" cy="571.8" r="3.59" fill="#bd6b20" opacity="0.18"/><circle cx="320.0" cy="567.7" r="2.58" fill="#bd6b20" opacity="0.30"/><circle cx="353.8" cy="569.4" r="3.25" fill="#bd6b20" opacity="0.28"/><circle cx="388.0" cy="572.1" r="3.48" fill="#bd6b20" opacity="0.36"/><circle cx="423.1" cy="572.2" r="2.25" fill="#bd6b20" opacity="0.35"/><circle cx="464.9" cy="569.3" r="2.38" fill="#bd6b20" opacity="0.16"/><circle cx="497.3" cy="569.1" r="2.21" fill="#bd6b20" opacity="0.17"/><circle cx="531.1" cy="569.3" r="1.99" fill="#bd6b20" opacity="0.35"/><circle cx="570.3" cy="572.2" r="2.38" fill="#bd6b20" opacity="0.33"/><circle cx="608.2" cy="568.9" r="3.00" fill="#bd6b20" opacity="0.24"/><circle cx="642.0" cy="567.2" r="1.72" fill="#bd6b20" opacity="0.22"/><circle cx="680.2" cy="572.1" r="3.72" fill="#bd6b20" opacity="0.29"/><circle cx="716.9" cy="571.5" r="3.39" fill="#bd6b20" opacity="0.22"/><circle cx="748.4" cy="570.0" r="3.98" fill="#bd6b20" opacity="0.21"/><circle cx="787.4" cy="572.6" r="2.85" fill="#bd6b20" opacity="0.25"/><circle cx="821.1" cy="569.3" r="2.37" fill="#bd6b20" opacity="0.27"/><circle cx="858.3" cy="570.9" r="3.30" fill="#bd6b20" opacity="0.29"/><circle cx="896.3" cy="569.0" r="2.80" fill="#bd6b20" opacity="0.26"/><circle cx="929.4" cy="571.2" r="2.55" fill="#bd6b20" opacity="0.20"/><circle cx="968.6" cy="568.8" r="3.23" fill="#bd6b20" opacity="0.23"/><circle cx="999.1" cy="570.7" r="3.13" fill="#bd6b20" opacity="0.26"/><circle cx="1035.5" cy="571.5" r="2.86" fill="#bd6b20" opacity="0.32"/><circle cx="1074.4" cy="569.4" r="3.82" fill="#bd6b20" opacity="0.31"/><circle cx="1107.2" cy="568.8" r="2.52" fill="#bd6b20" opacity="0.35"/><circle cx="1144.6" cy="569.6" r="2.74" fill="#bd6b20" opacity="0.35"/><circle cx="1184.4" cy="570.9" r="3.34" fill="#bd6b20" opacity="0.29"/><circle cx="28.5" cy="607.2" r="2.21" fill="#bd6b20" opacity="0.34"/><circle cx="65.0" cy="608.6" r="2.19" fill="#bd6b20" opacity="0.22"/><circle cx="100.1" cy="603.2" r="2.32" fill="#bd6b20" opacity="0.17"/><circle cx="139.8" cy="604.1" r="2.44" fill="#bd6b20" opacity="0.23"/><circle cx="173.5" cy="607.6" r="1.72" fill="#bd6b20" opacity="0.15"/><circle cx="212.3" cy="609.0" r="3.72" fill="#bd6b20" opacity="0.19"/><circle cx="243.7" cy="604.8" r="2.25" fill="#bd6b20" opacity="0.27"/><circle cx="283.4" cy="606.0" r="3.37" fill="#bd6b20" opacity="0.29"/><circle cx="315.2" cy="607.0" r="3.77" fill="#bd6b20" opacity="0.35"/><circle cx="356.8" cy="605.5" r="1.69" fill="#bd6b20" opacity="0.26"/><circle cx="390.9" cy="604.4" r="2.48" fill="#bd6b20" opacity="0.18"/><circle cx="424.2" cy="607.6" r="2.53" fill="#bd6b20" opacity="0.30"/><circle cx="460.9" cy="605.4" r="1.90" fill="#bd6b20" opacity="0.24"/><circle cx="496.3" cy="608.2" r="3.86" fill="#bd6b20" opacity="0.36"/><circle cx="533.0" cy="606.3" r="2.18" fill="#bd6b20" opacity="0.25"/><circle cx="570.4" cy="608.2" r="3.31" fill="#bd6b20" opacity="0.26"/><circle cx="608.2" cy="604.4" r="2.47" fill="#bd6b20" opacity="0.19"/><circle cx="641.2" cy="603.0" r="1.82" fill="#bd6b20" opacity="0.35"/><circle cx="675.1" cy="606.0" r="2.94" fill="#bd6b20" opacity="0.23"/><circle cx="711.4" cy="608.6" r="2.28" fill="#bd6b20" opacity="0.25"/><circle cx="748.7" cy="608.3" r="1.85" fill="#bd6b20" opacity="0.16"/><circle cx="783.5" cy="603.8" r="3.86" fill="#bd6b20" opacity="0.22"/><circle cx="822.7" cy="605.8" r="2.70" fill="#bd6b20" opacity="0.34"/><circle cx="855.7" cy="607.4" r="2.23" fill="#bd6b20" opacity="0.26"/><circle cx="894.1" cy="604.9" r="3.25" fill="#bd6b20" opacity="0.28"/><circle cx="932.0" cy="604.5" r="2.57" fill="#bd6b20" opacity="0.31"/><circle cx="965.0" cy="603.8" r="2.70" fill="#bd6b20" opacity="0.27"/><circle cx="1004.6" cy="604.3" r="2.56" fill="#bd6b20" opacity="0.24"/><circle cx="1035.3" cy="604.5" r="2.82" fill="#bd6b20" opacity="0.24"/><circle cx="1075.9" cy="604.5" r="3.89" fill="#bd6b20" opacity="0.27"/><circle cx="1111.6" cy="604.9" r="3.78" fill="#bd6b20" opacity="0.23"/><circle cx="1148.3" cy="605.7" r="3.03" fill="#bd6b20" opacity="0.33"/><circle cx="1184.6" cy="605.6" r="3.53" fill="#bd6b20" opacity="0.16"/><circle cx="30.9" cy="644.7" r="3.34" fill="#bd6b20" opacity="0.18"/><circle cx="65.3" cy="641.8" r="3.71" fill="#bd6b20" opacity="0.20"/><circle cx="102.7" cy="641.2" r="1.96" fill="#bd6b20" opacity="0.19"/><circle cx="135.1" cy="642.8" r="3.29" fill="#bd6b20" opacity="0.30"/><circle cx="176.2" cy="640.3" r="3.93" fill="#bd6b20" opacity="0.19"/><circle cx="211.4" cy="640.9" r="2.12" fill="#bd6b20" opacity="0.33"/><circle cx="243.9" cy="642.7" r="2.79" fill="#bd6b20" opacity="0.24"/><circle cx="282.8" cy="640.6" r="3.81" fill="#bd6b20" opacity="0.27"/><circle cx="319.5" cy="639.0" r="3.32" fill="#bd6b20" opacity="0.23"/><circle cx="356.1" cy="644.9" r="3.00" fill="#bd6b20" opacity="0.16"/><circle cx="391.8" cy="644.2" r="2.35" fill="#bd6b20" opacity="0.27"/><circle cx="425.5" cy="639.3" r="1.97" fill="#bd6b20" opacity="0.18"/><circle cx="460.8" cy="644.3" r="3.87" fill="#bd6b20" opacity="0.30"/><circle cx="498.3" cy="642.6" r="3.51" fill="#bd6b20" opacity="0.17"/><circle cx="535.5" cy="639.6" r="3.29" fill="#bd6b20" opacity="0.18"/><circle cx="567.2" cy="640.7" r="2.78" fill="#bd6b20" opacity="0.35"/><circle cx="608.1" cy="642.3" r="3.93" fill="#bd6b20" opacity="0.19"/><circle cx="642.2" cy="642.9" r="2.20" fill="#bd6b20" opacity="0.23"/><circle cx="676.4" cy="640.9" r="2.96" fill="#bd6b20" opacity="0.24"/><circle cx="713.0" cy="640.1" r="3.79" fill="#bd6b20" opacity="0.26"/><circle cx="750.2" cy="644.1" r="3.39" fill="#bd6b20" opacity="0.31"/><circle cx="785.3" cy="641.4" r="2.04" fill="#bd6b20" opacity="0.16"/><circle cx="823.8" cy="639.8" r="2.27" fill="#bd6b20" opacity="0.19"/><circle cx="859.7" cy="641.2" r="2.75" fill="#bd6b20" opacity="0.27"/><circle cx="893.8" cy="642.0" r="1.93" fill="#bd6b20" opacity="0.22"/><circle cx="931.4" cy="641.1" r="1.73" fill="#bd6b20" opacity="0.28"/><circle cx="966.0" cy="644.8" r="3.21" fill="#bd6b20" opacity="0.18"/><circle cx="1002.6" cy="640.9" r="3.72" fill="#bd6b20" opacity="0.21"/><circle cx="1039.6" cy="640.3" r="2.90" fill="#bd6b20" opacity="0.26"/><circle cx="1074.8" cy="641.2" r="1.81" fill="#bd6b20" opacity="0.20"/><circle cx="1111.1" cy="641.1" r="2.29" fill="#bd6b20" opacity="0.21"/><circle cx="1148.8" cy="642.3" r="3.33" fill="#bd6b20" opacity="0.30"/><circle cx="1183.0" cy="641.6" r="2.60" fill="#bd6b20" opacity="0.31"/><circle cx="276.0" cy="222.9" r="220" fill="url(#glow)" opacity="0.9"/>
  <g opacity="0.85" transform="translate(1020, 495)">
        <rect x="-46" y="-60" width="92" height="115" fill="#bd6b20" opacity="0.18" rx="6"/>
        <path d="M -28 -36 L 28 -36 M -28 -12 L 28 -12 M -28 12 L 18 12 M -28 36 L 28 36" stroke="#e09440" stroke-width="3" stroke-linecap="round"/>
      </g>
  <g transform="translate(80, 90)">
    <rect x="0" y="0" rx="20" ry="20" width="101" height="38" fill="#bd6b20" opacity="0.18" stroke="#bd6b20" stroke-width="1.5"/>
    <text x="50.5" y="25" font-family="ui-sans-serif, Inter, sans-serif" font-weight="700" font-size="14" letter-spacing="2.5" fill="#bd6b20" text-anchor="middle">ARTICLE</text>
  </g>
  <text x="80" y="465" font-family="ui-sans-serif, -apple-system, Segoe UI, Inter, sans-serif" font-weight="800" font-size="44" fill="#faf8f5" opacity="0.98"><tspan x="80" dy="0">Over 5 Crore Cases</tspan><tspan x="80" dy="56">Pending—Can AI Fix India’s</tspan><tspan x="80" dy="56">Legal System?</tspan></text>
  <rect x="0" y="669" width="1200" height="6" fill="url(#gold)"/>
</svg>