<?xml version="1.0" encoding="UTF-8"?>
<svg xmlns="http://www.w3.org/2000/svg" viewBox="0 0 1200 675" width="1200" height="675" role="img" aria-label="Dispute Resolution Centre | Debt Recovery through Arbitration | Employee Mediation">
  <defs>
    <linearGradient id="bg" x1="0%" y1="0%" x2="100%" y2="100%">
      <stop offset="0%" stop-color="#643516"/>
      <stop offset="100%" stop-color="#7d4315"/>
    </linearGradient>
    <linearGradient id="gold" x1="0%" y1="0%" x2="100%" y2="100%">
      <stop offset="0%" stop-color="#ecb478"/>
      <stop offset="100%" stop-color="#faebd6"/>
    </linearGradient>
    <radialGradient id="glow" cx="50%" cy="50%" r="50%">
      <stop offset="0%" stop-color="#ecb478" stop-opacity="0.45"/>
      <stop offset="100%" stop-color="#ecb478" stop-opacity="0"/>
    </radialGradient>
  </defs>
  <rect width="1200" height="675" fill="url(#bg)"/>
  <circle cx="840.0" cy="135.0" r="240" fill="url(#glow)" opacity="0.8"/><rect x="318.7" y="448.1" width="19.3" height="19.3" rx="4" transform="rotate(331.9 328.4 457.8)" fill="#ecb478" opacity="0.12"/><circle cx="305.2" cy="303.6" r="21.4" fill="#faebd6" opacity="0.10"/><circle cx="812.0" cy="257.4" r="13.8" fill="#faebd6" opacity="0.26"/><circle cx="562.9" cy="211.3" r="26.5" fill="#faebd6" opacity="0.32"/><rect x="1022.2" y="509.2" width="25.7" height="25.7" rx="4" transform="rotate(319.8 1035.0 522.0)" fill="#ecb478" opacity="0.28"/><circle cx="813.9" cy="65.2" r="12.4" fill="#faebd6" opacity="0.17"/><polygon points="107.8,414.3 124.2,447.1 91.4,447.1" fill="#f4d2ac" opacity="0.22"/><polygon points="559.8,515.8 583.0,562.1 536.6,562.1" fill="#f4d2ac" opacity="0.13"/><polygon points="423.5,-21.2 446.8,25.3 400.2,25.3" fill="#f4d2ac" opacity="0.30"/><polygon points="228.8,102.1 244.7,133.8 213.0,133.8" fill="#f4d2ac" opacity="0.18"/><polygon points="1081.8,164.2 1097.9,196.4 1065.7,196.4" fill="#f4d2ac" opacity="0.12"/><rect x="40.2" y="122.0" width="40.7" height="40.7" rx="4" transform="rotate(141.2 60.5 142.4)" fill="#ecb478" opacity="0.30"/><circle cx="799.1" cy="565.1" r="10.3" fill="#faebd6" opacity="0.27"/><rect x="139.8" y="274.2" width="54.0" height="54.0" rx="4" transform="rotate(134.9 166.8 301.2)" fill="#ecb478" opacity="0.27"/><rect x="608.4" y="170.7" width="16.4" height="16.4" rx="4" transform="rotate(187.8 616.6 178.9)" fill="#ecb478" opacity="0.22"/><rect x="565.0" y="126.8" width="53.1" height="53.1" rx="4" transform="rotate(138.4 591.6 153.3)" fill="#ecb478" opacity="0.16"/><polygon points="223.6,104.1 233.0,123.0 214.1,123.0" fill="#f4d2ac" opacity="0.24"/><circle cx="476.5" cy="115.4" r="24.6" fill="#faebd6" opacity="0.26"/><polygon points="11.9,440.6 37.5,491.7 -13.6,491.7" fill="#f4d2ac" opacity="0.29"/><rect x="43.2" y="410.4" width="17.0" height="17.0" rx="4" transform="rotate(124.7 51.7 418.9)" fill="#ecb478" opacity="0.14"/><circle cx="265.2" cy="205.7" r="15.7" fill="#faebd6" opacity="0.13"/><circle cx="222.9" cy="528.1" r="11.1" fill="#faebd6" opacity="0.12"/>
  <g opacity="0.85" transform="translate(1020, 495)">
        <polygon points="0,-50 43,25 -43,25" fill="none" stroke="#ecb478" stroke-width="2"/>
        <polygon points="0,-30 26,15 -26,15" fill="#faebd6" opacity="0.4"/>
      </g>
  <g transform="translate(80, 90)">
    <rect x="0" y="0" rx="20" ry="20" width="145" height="38" fill="#ecb478" opacity="0.18" stroke="#ecb478" stroke-width="1.5"/>
    <text x="72.5" y="25" font-family="ui-sans-serif, Inter, sans-serif" font-weight="700" font-size="14" letter-spacing="2.5" fill="#ecb478" text-anchor="middle">INFORMATION</text>
  </g>
  <text x="80" y="465" font-family="ui-sans-serif, -apple-system, Segoe UI, Inter, sans-serif" font-weight="800" font-size="44" fill="#faf8f5" opacity="0.98"><tspan x="80" dy="0">Dispute Resolution Centre</tspan><tspan x="80" dy="56">| Debt Recovery through</tspan><tspan x="80" dy="56">Arbitration | Employee</tspan></text>
  <rect x="0" y="669" width="1200" height="6" fill="url(#gold)"/>
</svg>