<?xml version="1.0" encoding="UTF-8"?>
<svg xmlns="http://www.w3.org/2000/svg" viewBox="0 0 1200 675" width="1200" height="675" role="img" aria-label="PDR COURT Case Studies: Review, Read &amp; Analyse our cases">
  <defs>
    <linearGradient id="bg" x1="0%" y1="0%" x2="100%" y2="100%">
      <stop offset="0%" stop-color="#532d15"/>
      <stop offset="100%" stop-color="#bd6b20"/>
    </linearGradient>
    <linearGradient id="gold" x1="0%" y1="0%" x2="100%" y2="100%">
      <stop offset="0%" stop-color="#e09440"/>
      <stop offset="100%" stop-color="#fdf6ee"/>
    </linearGradient>
    <radialGradient id="glow" cx="50%" cy="50%" r="50%">
      <stop offset="0%" stop-color="#e09440" stop-opacity="0.45"/>
      <stop offset="100%" stop-color="#e09440" stop-opacity="0"/>
    </radialGradient>
  </defs>
  <rect width="1200" height="675" fill="url(#bg)"/>
  <rect x="-714.8" y="-80" width="87.7" height="875" transform="rotate(18 -714.8 337.5)" fill="#e09440" opacity="0.17"/><rect x="-469.6" y="-80" width="126.7" height="875" transform="rotate(18 -469.6 337.5)" fill="#e09440" opacity="0.13"/><rect x="-284.3" y="-80" width="98.2" height="875" transform="rotate(18 -284.3 337.5)" fill="#e09440" opacity="0.17"/><rect x="-152.0" y="-80" width="110.6" height="875" transform="rotate(18 -152.0 337.5)" fill="#e09440" opacity="0.06"/><rect x="77.9" y="-80" width="133.5" height="875" transform="rotate(18 77.9 337.5)" fill="#e09440" opacity="0.06"/><rect x="187.6" y="-80" width="132.7" height="875" transform="rotate(18 187.6 337.5)" fill="#e09440" opacity="0.10"/><rect x="376.7" y="-80" width="85.9" height="875" transform="rotate(18 376.7 337.5)" fill="#e09440" opacity="0.08"/><rect x="578.1" y="-80" width="139.3" height="875" transform="rotate(18 578.1 337.5)" fill="#e09440" opacity="0.11"/><rect x="757.9" y="-80" width="84.2" height="875" transform="rotate(18 757.9 337.5)" fill="#e09440" opacity="0.14"/><rect x="924.1" y="-80" width="71.0" height="875" transform="rotate(18 924.1 337.5)" fill="#e09440" opacity="0.12"/><rect x="1087.8" y="-80" width="104.0" height="875" transform="rotate(18 1087.8 337.5)" fill="#e09440" opacity="0.18"/><rect x="1320.2" y="-80" width="106.2" height="875" transform="rotate(18 1320.2 337.5)" fill="#e09440" opacity="0.07"/><rect x="1510.4" y="-80" width="122.7" height="875" transform="rotate(18 1510.4 337.5)" fill="#e09440" opacity="0.17"/><rect x="1635.3" y="-80" width="76.3" height="875" transform="rotate(18 1635.3 337.5)" fill="#e09440" opacity="0.13"/><rect x="0" y="0" width="1200" height="675" fill="url(#glow)" opacity="0.6"/>
  <g opacity="0.85" transform="translate(1020, 495)">
        <polygon points="0,-50 43,25 -43,25" fill="none" stroke="#e09440" stroke-width="2"/>
        <polygon points="0,-30 26,15 -26,15" fill="#fdf6ee" opacity="0.4"/>
      </g>
  <g transform="translate(80, 90)">
    <rect x="0" y="0" rx="20" ry="20" width="145" height="38" fill="#e09440" opacity="0.18" stroke="#e09440" stroke-width="1.5"/>
    <text x="72.5" y="25" font-family="ui-sans-serif, Inter, sans-serif" font-weight="700" font-size="14" letter-spacing="2.5" fill="#e09440" text-anchor="middle">INFORMATION</text>
  </g>
  <text x="80" y="465" font-family="ui-sans-serif, -apple-system, Segoe UI, Inter, sans-serif" font-weight="800" font-size="44" fill="#faf8f5" opacity="0.98"><tspan x="80" dy="0">PDR COURT Case Studies:</tspan><tspan x="80" dy="56">Review, Read &amp; Analyse our</tspan><tspan x="80" dy="56">cases</tspan></text>
  <rect x="0" y="669" width="1200" height="6" fill="url(#gold)"/>
</svg>