<?xml version="1.0" encoding="UTF-8"?>
<svg xmlns="http://www.w3.org/2000/svg" viewBox="0 0 1200 675" width="1200" height="675" role="img" aria-label="Dispute Resolution Centre | Debt Recovery through Arbitration | Employee Mediation">
  <defs>
    <linearGradient id="bg" x1="0%" y1="0%" x2="100%" y2="100%">
      <stop offset="0%" stop-color="#643516"/>
      <stop offset="100%" stop-color="#7d4315"/>
    </linearGradient>
    <linearGradient id="gold" x1="0%" y1="0%" x2="100%" y2="100%">
      <stop offset="0%" stop-color="#ecb478"/>
      <stop offset="100%" stop-color="#faebd6"/>
    </linearGradient>
    <radialGradient id="glow" cx="50%" cy="50%" r="50%">
      <stop offset="0%" stop-color="#ecb478" stop-opacity="0.45"/>
      <stop offset="100%" stop-color="#ecb478" stop-opacity="0"/>
    </radialGradient>
  </defs>
  <rect width="1200" height="675" fill="url(#bg)"/>
  <polygon points="-50,354.8 -20,354.4 10,352.4 40,348.9 70,343.8 100,337.4 130,329.7 160,321.0 190,311.4 220,301.2 250,290.6 280,279.7 310,269.0 340,258.5 370,248.6 400,239.5 430,231.3 460,224.3 490,218.6 520,214.3 550,211.6 580,210.4 610,210.9 640,213.0 670,216.6 700,221.8 730,228.3 760,236.0 790,244.8 820,254.4 850,264.7 880,275.3 910,286.1 940,296.9 970,307.3 1000,317.2 1030,326.3 1060,334.4 1090,341.3 1120,347.0 1150,351.2 1180,353.8 1210,354.9 1240,354.3 1250,725 -50,725" fill="#ecb478" opacity="0.08"/><polygon points="-50,349.7 -20,360.2 10,370.4 40,379.8 70,388.4 100,395.9 130,402.1 160,406.9 190,410.2 220,412.0 250,412.1 280,410.6 310,407.5 340,402.9 370,396.9 400,389.6 430,381.2 460,371.9 490,361.8 520,351.3 550,340.5 580,329.7 610,319.1 640,309.0 670,299.6 700,291.1 730,283.7 760,277.5 790,272.8 820,269.6 850,267.9 880,267.9 910,269.5 940,272.6 970,277.3 1000,283.4 1030,290.8 1060,299.2 1090,308.6 1120,318.7 1150,329.3 1180,340.1 1210,350.9 1240,361.4 1250,725 -50,725" fill="#ecb478" opacity="0.13"/><polygon points="-50,389.9 -20,389.2 10,389.4 40,390.4 70,392.3 100,394.9 130,398.3 160,402.3 190,406.9 220,412.0 250,417.4 280,423.1 310,428.8 340,434.6 370,440.1 400,445.4 430,450.3 460,454.7 490,458.5 520,461.6 550,463.9 580,465.4 610,466.0 640,465.8 670,464.8 700,462.9 730,460.2 760,456.8 790,452.7 820,448.1 850,443.0 880,437.5 910,431.9 940,426.1 970,420.4 1000,414.8 1030,409.6 1060,404.7 1090,400.3 1120,396.6 1150,393.6 1180,391.3 1210,389.8 1240,389.2 1250,725 -50,725" fill="#ecb478" opacity="0.18"/><polygon points="-50,512.0 -20,516.1 10,519.6 40,522.3 70,524.2 100,525.3 130,525.6 160,525.0 190,523.5 220,521.3 250,518.2 280,514.5 310,510.2 340,505.4 370,500.1 400,494.6 430,488.9 460,483.2 490,477.5 520,472.1 550,467.1 580,462.5 610,458.4 640,455.0 670,452.3 700,450.4 730,449.4 760,449.2 790,449.8 820,451.3 850,453.6 880,456.7 910,460.5 940,464.8 970,469.7 1000,474.9 1030,480.5 1060,486.2 1090,491.9 1120,497.5 1150,502.9 1180,508.0 1210,512.5 1240,516.6 1250,725 -50,725" fill="#ecb478" opacity="0.23"/><circle cx="300.0" cy="189.0" r="160" fill="url(#glow)"/>
  <g opacity="0.85" transform="translate(1020, 495)">
        <rect x="-46" y="-60" width="92" height="115" fill="#ecb478" opacity="0.18" rx="6"/>
        <path d="M -28 -36 L 28 -36 M -28 -12 L 28 -12 M -28 12 L 18 12 M -28 36 L 28 36" stroke="#faebd6" stroke-width="3" stroke-linecap="round"/>
      </g>
  <g transform="translate(80, 90)">
    <rect x="0" y="0" rx="20" ry="20" width="101" height="38" fill="#ecb478" opacity="0.18" stroke="#ecb478" stroke-width="1.5"/>
    <text x="50.5" y="25" font-family="ui-sans-serif, Inter, sans-serif" font-weight="700" font-size="14" letter-spacing="2.5" fill="#ecb478" text-anchor="middle">ARTICLE</text>
  </g>
  <text x="80" y="465" font-family="ui-sans-serif, -apple-system, Segoe UI, Inter, sans-serif" font-weight="800" font-size="44" fill="#faf8f5" opacity="0.98"><tspan x="80" dy="0">Dispute Resolution Centre</tspan><tspan x="80" dy="56">| Debt Recovery through</tspan><tspan x="80" dy="56">Arbitration | Employee</tspan></text>
  <rect x="0" y="669" width="1200" height="6" fill="url(#gold)"/>
</svg>