<?xml version="1.0" encoding="UTF-8"?>
<svg xmlns="http://www.w3.org/2000/svg" viewBox="0 0 1200 675" width="1200" height="675" role="img" aria-label="Exploring the Impact of PDR COURT on SAMA's Shark Tank">
  <defs>
    <linearGradient id="bg" x1="0%" y1="0%" x2="100%" y2="100%">
      <stop offset="0%" stop-color="#faf8f5"/>
      <stop offset="100%" stop-color="#f4efe8"/>
    </linearGradient>
    <linearGradient id="gold" x1="0%" y1="0%" x2="100%" y2="100%">
      <stop offset="0%" stop-color="#bd6b20"/>
      <stop offset="100%" stop-color="#9a5518"/>
    </linearGradient>
    <radialGradient id="glow" cx="50%" cy="50%" r="50%">
      <stop offset="0%" stop-color="#bd6b20" stop-opacity="0.45"/>
      <stop offset="100%" stop-color="#bd6b20" stop-opacity="0"/>
    </radialGradient>
  </defs>
  <rect width="1200" height="675" fill="url(#bg)"/>
  <circle cx="28.6" cy="28.0" r="3.46" fill="#bd6b20" opacity="0.17"/><circle cx="66.7" cy="27.5" r="3.46" fill="#bd6b20" opacity="0.19"/><circle cx="102.4" cy="31.7" r="2.68" fill="#bd6b20" opacity="0.17"/><circle cx="135.0" cy="27.8" r="3.14" fill="#bd6b20" opacity="0.35"/><circle cx="173.6" cy="31.6" r="2.76" fill="#bd6b20" opacity="0.27"/><circle cx="208.9" cy="27.7" r="3.13" fill="#bd6b20" opacity="0.30"/><circle cx="245.4" cy="32.8" r="2.58" fill="#bd6b20" opacity="0.19"/><circle cx="280.1" cy="32.1" r="3.45" fill="#bd6b20" opacity="0.36"/><circle cx="317.9" cy="29.2" r="2.81" fill="#bd6b20" opacity="0.25"/><circle cx="356.7" cy="28.5" r="3.04" fill="#bd6b20" opacity="0.27"/><circle cx="387.1" cy="28.2" r="2.99" fill="#bd6b20" opacity="0.34"/><circle cx="424.6" cy="31.9" r="1.91" fill="#bd6b20" opacity="0.18"/><circle cx="463.1" cy="27.3" r="1.87" fill="#bd6b20" opacity="0.28"/><circle cx="496.2" cy="27.9" r="3.27" fill="#bd6b20" opacity="0.25"/><circle cx="533.2" cy="28.7" r="1.89" fill="#bd6b20" opacity="0.27"/><circle cx="570.8" cy="27.4" r="3.41" fill="#bd6b20" opacity="0.18"/><circle cx="607.8" cy="32.4" r="2.38" fill="#bd6b20" opacity="0.29"/><circle cx="644.7" cy="29.7" r="3.18" fill="#bd6b20" opacity="0.28"/><circle cx="678.1" cy="27.7" r="2.62" fill="#bd6b20" opacity="0.35"/><circle cx="713.1" cy="28.8" r="3.10" fill="#bd6b20" opacity="0.25"/><circle cx="748.4" cy="30.4" r="1.98" fill="#bd6b20" opacity="0.18"/><circle cx="787.4" cy="30.8" r="2.85" fill="#bd6b20" opacity="0.22"/><circle cx="819.7" cy="28.3" r="2.99" fill="#bd6b20" opacity="0.32"/><circle cx="859.4" cy="27.4" r="2.41" fill="#bd6b20" opacity="0.19"/><circle cx="895.5" cy="29.0" r="1.82" fill="#bd6b20" opacity="0.18"/><circle cx="928.6" cy="31.8" r="1.76" fill="#bd6b20" opacity="0.26"/><circle cx="968.2" cy="30.8" r="3.63" fill="#bd6b20" opacity="0.25"/><circle cx="1003.2" cy="27.2" r="1.98" fill="#bd6b20" opacity="0.20"/><circle cx="1039.4" cy="29.7" r="2.09" fill="#bd6b20" opacity="0.24"/><circle cx="1071.6" cy="28.6" r="3.29" fill="#bd6b20" opacity="0.19"/><circle cx="1109.9" cy="29.4" r="3.91" fill="#bd6b20" opacity="0.21"/><circle cx="1144.9" cy="29.5" r="2.11" fill="#bd6b20" opacity="0.27"/><circle cx="1185.0" cy="28.9" r="2.02" fill="#bd6b20" opacity="0.22"/><circle cx="28.5" cy="68.4" r="2.85" fill="#bd6b20" opacity="0.23"/><circle cx="68.7" cy="65.9" r="1.87" fill="#bd6b20" opacity="0.17"/><circle cx="101.1" cy="64.7" r="2.41" fill="#bd6b20" opacity="0.35"/><circle cx="136.2" cy="67.1" r="3.77" fill="#bd6b20" opacity="0.28"/><circle cx="176.6" cy="64.6" r="2.19" fill="#bd6b20" opacity="0.29"/><circle cx="212.5" cy="67.6" r="3.80" fill="#bd6b20" opacity="0.28"/><circle cx="247.6" cy="64.2" r="1.75" fill="#bd6b20" opacity="0.16"/><circle cx="283.2" cy="67.4" r="2.45" fill="#bd6b20" opacity="0.35"/><circle cx="316.6" cy="65.3" r="1.95" fill="#bd6b20" opacity="0.17"/><circle cx="355.5" cy="64.7" r="1.87" fill="#bd6b20" opacity="0.35"/><circle cx="391.3" cy="64.7" r="3.74" fill="#bd6b20" opacity="0.33"/><circle cx="423.9" cy="65.2" r="1.76" fill="#bd6b20" opacity="0.33"/><circle cx="464.6" cy="64.5" r="3.87" fill="#bd6b20" opacity="0.31"/><circle cx="498.0" cy="65.0" r="3.70" fill="#bd6b20" opacity="0.36"/><circle cx="532.7" cy="68.9" r="1.86" fill="#bd6b20" opacity="0.18"/><circle cx="571.4" cy="63.9" r="3.60" fill="#bd6b20" opacity="0.28"/><circle cx="607.3" cy="64.6" r="3.25" fill="#bd6b20" opacity="0.19"/><circle cx="643.1" cy="66.6" r="3.19" fill="#bd6b20" opacity="0.23"/><circle cx="675.3" cy="65.0" r="2.67" fill="#bd6b20" opacity="0.32"/><circle cx="713.1" cy="67.8" r="2.26" fill="#bd6b20" opacity="0.17"/><circle cx="752.0" cy="68.0" r="3.54" fill="#bd6b20" opacity="0.27"/><circle cx="788.2" cy="64.9" r="2.90" fill="#bd6b20" opacity="0.23"/><circle cx="820.8" cy="66.2" r="3.92" fill="#bd6b20" opacity="0.22"/><circle cx="860.9" cy="65.8" r="1.69" fill="#bd6b20" opacity="0.24"/><circle cx="896.5" cy="67.0" r="2.86" fill="#bd6b20" opacity="0.28"/><circle cx="930.7" cy="66.6" r="2.19" fill="#bd6b20" opacity="0.28"/><circle cx="965.4" cy="65.2" r="2.24" fill="#bd6b20" opacity="0.28"/><circle cx="1002.4" cy="63.4" r="3.16" fill="#bd6b20" opacity="0.17"/><circle cx="1037.6" cy="63.4" r="3.78" fill="#bd6b20" opacity="0.22"/><circle cx="1076.0" cy="67.7" r="3.43" fill="#bd6b20" opacity="0.34"/><circle cx="1110.1" cy="65.7" r="2.27" fill="#bd6b20" opacity="0.34"/><circle cx="1144.3" cy="69.0" r="2.43" fill="#bd6b20" opacity="0.16"/><circle cx="1183.4" cy="64.6" r="2.44" fill="#bd6b20" opacity="0.26"/><circle cx="29.0" cy="102.5" r="2.22" fill="#bd6b20" opacity="0.36"/><circle cx="68.2" cy="103.2" r="2.04" fill="#bd6b20" opacity="0.24"/><circle cx="104.8" cy="103.8" r="3.11" fill="#bd6b20" opacity="0.24"/><circle cx="140.3" cy="101.0" r="3.28" fill="#bd6b20" opacity="0.29"/><circle cx="176.3" cy="99.2" r="3.36" fill="#bd6b20" opacity="0.32"/><circle cx="208.8" cy="101.9" r="3.74" fill="#bd6b20" opacity="0.17"/><circle cx="244.3" cy="100.6" r="2.60" fill="#bd6b20" opacity="0.17"/><circle cx="283.1" cy="101.9" r="1.80" fill="#bd6b20" opacity="0.17"/><circle cx="316.5" cy="102.6" r="3.12" fill="#bd6b20" opacity="0.17"/><circle cx="355.6" cy="99.5" r="3.56" fill="#bd6b20" opacity="0.18"/><circle cx="392.8" cy="99.5" r="2.19" fill="#bd6b20" opacity="0.35"/><circle cx="423.6" cy="101.5" r="1.95" fill="#bd6b20" opacity="0.17"/><circle cx="462.0" cy="100.9" r="2.05" fill="#bd6b20" opacity="0.23"/><circle cx="497.8" cy="104.1" r="2.13" fill="#bd6b20" opacity="0.17"/><circle cx="532.3" cy="100.9" r="1.83" fill="#bd6b20" opacity="0.21"/><circle cx="572.9" cy="99.1" r="2.07" fill="#bd6b20" opacity="0.20"/><circle cx="604.9" cy="100.0" r="3.27" fill="#bd6b20" opacity="0.24"/><circle cx="640.7" cy="102.9" r="2.77" fill="#bd6b20" opacity="0.31"/><circle cx="675.3" cy="103.5" r="1.63" fill="#bd6b20" opacity="0.33"/><circle cx="711.9" cy="102.2" r="3.15" fill="#bd6b20" opacity="0.17"/><circle cx="751.0" cy="101.9" r="3.98" fill="#bd6b20" opacity="0.17"/><circle cx="785.5" cy="104.2" r="1.61" fill="#bd6b20" opacity="0.22"/><circle cx="820.1" cy="100.3" r="1.76" fill="#bd6b20" opacity="0.22"/><circle cx="858.0" cy="103.7" r="1.71" fill="#bd6b20" opacity="0.26"/><circle cx="893.9" cy="101.6" r="3.79" fill="#bd6b20" opacity="0.26"/><circle cx="930.2" cy="103.4" r="2.08" fill="#bd6b20" opacity="0.20"/><circle cx="964.9" cy="101.5" r="1.79" fill="#bd6b20" opacity="0.35"/><circle cx="1004.5" cy="104.3" r="2.05" fill="#bd6b20" opacity="0.22"/><circle cx="1040.2" cy="101.6" r="3.26" fill="#bd6b20" opacity="0.23"/><circle cx="1074.7" cy="101.1" r="3.72" fill="#bd6b20" opacity="0.25"/><circle cx="1110.7" cy="102.9" r="3.67" fill="#bd6b20" opacity="0.35"/><circle cx="1146.6" cy="102.9" r="2.31" fill="#bd6b20" opacity="0.26"/><circle cx="1182.5" cy="99.7" r="2.90" fill="#bd6b20" opacity="0.16"/><circle cx="32.7" cy="140.5" r="3.73" fill="#bd6b20" opacity="0.24"/><circle cx="63.8" cy="137.9" r="2.76" fill="#bd6b20" opacity="0.29"/><circle cx="100.9" cy="140.7" r="2.67" fill="#bd6b20" opacity="0.21"/><circle cx="138.9" cy="135.1" r="1.95" fill="#bd6b20" opacity="0.26"/><circle cx="175.6" cy="139.3" r="3.62" fill="#bd6b20" opacity="0.25"/><circle cx="211.1" cy="136.3" r="3.43" fill="#bd6b20" opacity="0.30"/><circle cx="245.3" cy="139.0" r="3.41" fill="#bd6b20" opacity="0.19"/><circle cx="279.0" cy="138.0" r="2.07" fill="#bd6b20" opacity="0.21"/><circle cx="317.1" cy="135.4" r="2.96" fill="#bd6b20" opacity="0.32"/><circle cx="351.6" cy="138.1" r="3.39" fill="#bd6b20" opacity="0.22"/><circle cx="387.1" cy="137.5" r="2.79" fill="#bd6b20" opacity="0.16"/><circle cx="428.1" cy="135.8" r="1.98" fill="#bd6b20" opacity="0.20"/><circle cx="462.5" cy="138.7" r="2.74" fill="#bd6b20" opacity="0.34"/><circle cx="497.3" cy="137.9" r="2.95" fill="#bd6b20" opacity="0.31"/><circle cx="532.7" cy="136.2" r="2.08" fill="#bd6b20" opacity="0.31"/><circle cx="569.5" cy="135.1" r="3.57" fill="#bd6b20" opacity="0.31"/><circle cx="606.7" cy="139.8" r="3.13" fill="#bd6b20" opacity="0.25"/><circle cx="644.7" cy="137.7" r="2.50" fill="#bd6b20" opacity="0.23"/><circle cx="676.4" cy="140.7" r="2.99" fill="#bd6b20" opacity="0.29"/><circle cx="713.0" cy="139.2" r="3.90" fill="#bd6b20" opacity="0.27"/><circle cx="748.2" cy="140.4" r="2.03" fill="#bd6b20" opacity="0.32"/><circle cx="788.4" cy="137.9" r="2.25" fill="#bd6b20" opacity="0.35"/><circle cx="824.4" cy="139.8" r="1.85" fill="#bd6b20" opacity="0.23"/><circle cx="860.4" cy="136.6" r="2.21" fill="#bd6b20" opacity="0.21"/><circle cx="891.4" cy="140.9" r="2.42" fill="#bd6b20" opacity="0.19"/><circle cx="931.2" cy="135.2" r="3.17" fill="#bd6b20" opacity="0.28"/><circle cx="967.7" cy="137.0" r="3.34" fill="#bd6b20" opacity="0.19"/><circle cx="1003.1" cy="140.2" r="2.09" fill="#bd6b20" opacity="0.19"/><circle cx="1037.3" cy="137.3" r="2.75" fill="#bd6b20" opacity="0.27"/><circle cx="1072.9" cy="136.0" r="2.47" fill="#bd6b20" opacity="0.28"/><circle cx="1111.8" cy="137.5" r="3.73" fill="#bd6b20" opacity="0.17"/><circle cx="1145.8" cy="137.4" r="2.63" fill="#bd6b20" opacity="0.21"/><circle cx="1179.8" cy="136.9" r="2.80" fill="#bd6b20" opacity="0.29"/><circle cx="28.2" cy="174.3" r="2.77" fill="#bd6b20" opacity="0.19"/><circle cx="64.1" cy="176.5" r="3.74" fill="#bd6b20" opacity="0.28"/><circle cx="104.2" cy="175.7" r="2.01" fill="#bd6b20" opacity="0.25"/><circle cx="140.2" cy="176.6" r="3.32" fill="#bd6b20" opacity="0.30"/><circle cx="175.2" cy="173.8" r="3.02" fill="#bd6b20" opacity="0.15"/><circle cx="212.3" cy="171.2" r="3.43" fill="#bd6b20" opacity="0.20"/><circle cx="244.5" cy="176.2" r="2.50" fill="#bd6b20" opacity="0.19"/><circle cx="282.2" cy="173.4" r="3.86" fill="#bd6b20" opacity="0.28"/><circle cx="319.7" cy="172.0" r="3.81" fill="#bd6b20" opacity="0.22"/><circle cx="356.0" cy="174.9" r="2.40" fill="#bd6b20" opacity="0.26"/><circle cx="391.1" cy="174.4" r="2.77" fill="#bd6b20" opacity="0.31"/><circle cx="428.0" cy="175.3" r="1.90" fill="#bd6b20" opacity="0.18"/><circle cx="459.1" cy="172.5" r="2.77" fill="#bd6b20" opacity="0.29"/><circle cx="498.8" cy="172.5" r="2.48" fill="#bd6b20" opacity="0.19"/><circle cx="534.2" cy="174.8" r="2.50" fill="#bd6b20" opacity="0.31"/><circle cx="567.0" cy="176.4" r="2.58" fill="#bd6b20" opacity="0.24"/><circle cx="607.5" cy="173.9" r="2.51" fill="#bd6b20" opacity="0.29"/><circle cx="640.4" cy="174.0" r="2.06" fill="#bd6b20" opacity="0.29"/><circle cx="680.9" cy="171.2" r="1.88" fill="#bd6b20" opacity="0.23"/><circle cx="713.2" cy="172.4" r="3.05" fill="#bd6b20" opacity="0.22"/><circle cx="748.8" cy="171.2" r="3.62" fill="#bd6b20" opacity="0.22"/><circle cx="788.4" cy="173.9" r="3.34" fill="#bd6b20" opacity="0.22"/><circle cx="823.7" cy="173.1" r="3.08" fill="#bd6b20" opacity="0.22"/><circle cx="855.8" cy="172.4" r="3.05" fill="#bd6b20" opacity="0.22"/><circle cx="892.4" cy="175.6" r="2.23" fill="#bd6b20" opacity="0.16"/><circle cx="929.1" cy="171.8" r="3.65" fill="#bd6b20" opacity="0.33"/><circle cx="966.3" cy="174.0" r="3.22" fill="#bd6b20" opacity="0.20"/><circle cx="999.9" cy="173.9" r="1.72" fill="#bd6b20" opacity="0.32"/><circle cx="1037.1" cy="173.2" r="3.98" fill="#bd6b20" opacity="0.26"/><circle cx="1074.8" cy="173.1" r="1.85" fill="#bd6b20" opacity="0.35"/><circle cx="1111.4" cy="171.1" r="1.97" fill="#bd6b20" opacity="0.31"/><circle cx="1147.9" cy="171.9" r="3.37" fill="#bd6b20" opacity="0.29"/><circle cx="1179.6" cy="171.8" r="3.36" fill="#bd6b20" opacity="0.21"/><circle cx="29.4" cy="211.2" r="2.84" fill="#bd6b20" opacity="0.29"/><circle cx="67.9" cy="207.1" r="2.96" fill="#bd6b20" opacity="0.31"/><circle cx="100.6" cy="208.6" r="2.92" fill="#bd6b20" opacity="0.24"/><circle cx="139.7" cy="210.0" r="3.40" fill="#bd6b20" opacity="0.34"/><circle cx="174.2" cy="207.8" r="3.97" fill="#bd6b20" opacity="0.28"/><circle cx="208.5" cy="209.8" r="2.64" fill="#bd6b20" opacity="0.17"/><circle cx="244.8" cy="208.1" r="3.90" fill="#bd6b20" opacity="0.31"/><circle cx="282.6" cy="207.9" r="3.24" fill="#bd6b20" opacity="0.22"/><circle cx="317.4" cy="213.0" r="1.74" fill="#bd6b20" opacity="0.24"/><circle cx="352.3" cy="212.6" r="3.01" fill="#bd6b20" opacity="0.23"/><circle cx="387.4" cy="209.8" r="2.66" fill="#bd6b20" opacity="0.15"/><circle cx="423.7" cy="207.2" r="2.03" fill="#bd6b20" opacity="0.29"/><circle cx="459.1" cy="210.0" r="2.31" fill="#bd6b20" opacity="0.22"/><circle cx="500.4" cy="210.9" r="2.00" fill="#bd6b20" opacity="0.17"/><circle cx="536.9" cy="208.0" r="2.60" fill="#bd6b20" opacity="0.34"/><circle cx="568.5" cy="208.8" r="1.98" fill="#bd6b20" opacity="0.27"/><circle cx="606.2" cy="212.9" r="1.63" fill="#bd6b20" opacity="0.33"/><circle cx="639.6" cy="210.9" r="2.51" fill="#bd6b20" opacity="0.29"/><circle cx="676.1" cy="211.0" r="2.85" fill="#bd6b20" opacity="0.19"/><circle cx="711.6" cy="210.3" r="3.29" fill="#bd6b20" opacity="0.35"/><circle cx="750.0" cy="211.9" r="3.18" fill="#bd6b20" opacity="0.24"/><circle cx="785.8" cy="212.5" r="3.26" fill="#bd6b20" opacity="0.18"/><circle cx="823.1" cy="210.3" r="3.69" fill="#bd6b20" opacity="0.33"/><circle cx="859.0" cy="208.9" r="2.51" fill="#bd6b20" opacity="0.23"/><circle cx="893.0" cy="209.0" r="3.26" fill="#bd6b20" opacity="0.28"/><circle cx="931.0" cy="212.2" r="1.88" fill="#bd6b20" opacity="0.28"/><circle cx="967.6" cy="207.9" r="3.35" fill="#bd6b20" opacity="0.26"/><circle cx="1003.9" cy="209.4" r="3.77" fill="#bd6b20" opacity="0.17"/><circle cx="1036.8" cy="207.5" r="2.76" fill="#bd6b20" opacity="0.17"/><circle cx="1076.5" cy="211.6" r="1.89" fill="#bd6b20" opacity="0.25"/><circle cx="1111.9" cy="209.4" r="1.71" fill="#bd6b20" opacity="0.21"/><circle cx="1145.7" cy="210.0" r="1.73" fill="#bd6b20" opacity="0.21"/><circle cx="1182.4" cy="211.4" r="3.60" fill="#bd6b20" opacity="0.21"/><circle cx="27.2" cy="243.6" r="3.30" fill="#bd6b20" opacity="0.25"/><circle cx="64.1" cy="244.8" r="2.50" fill="#bd6b20" opacity="0.16"/><circle cx="104.9" cy="245.4" r="2.23" fill="#bd6b20" opacity="0.28"/><circle cx="139.3" cy="246.5" r="1.99" fill="#bd6b20" opacity="0.35"/><circle cx="173.9" cy="245.5" r="1.80" fill="#bd6b20" opacity="0.28"/><circle cx="211.9" cy="244.5" r="3.81" fill="#bd6b20" opacity="0.32"/><circle cx="246.6" cy="247.9" r="1.73" fill="#bd6b20" opacity="0.30"/><circle cx="283.7" cy="248.8" r="3.01" fill="#bd6b20" opacity="0.35"/><circle cx="315.0" cy="246.0" r="2.42" fill="#bd6b20" opacity="0.16"/><circle cx="353.7" cy="248.6" r="2.23" fill="#bd6b20" opacity="0.32"/><circle cx="389.3" cy="245.4" r="3.48" fill="#bd6b20" opacity="0.28"/><circle cx="424.8" cy="244.4" r="3.62" fill="#bd6b20" opacity="0.30"/><circle cx="462.7" cy="244.0" r="2.14" fill="#bd6b20" opacity="0.27"/><circle cx="496.9" cy="244.1" r="3.22" fill="#bd6b20" opacity="0.30"/><circle cx="533.0" cy="243.6" r="2.03" fill="#bd6b20" opacity="0.33"/><circle cx="569.9" cy="246.5" r="3.00" fill="#bd6b20" opacity="0.28"/><circle cx="604.2" cy="244.1" r="3.07" fill="#bd6b20" opacity="0.29"/><circle cx="642.9" cy="246.7" r="1.90" fill="#bd6b20" opacity="0.17"/><circle cx="676.9" cy="244.6" r="1.63" fill="#bd6b20" opacity="0.21"/><circle cx="716.2" cy="245.6" r="1.80" fill="#bd6b20" opacity="0.22"/><circle cx="752.1" cy="245.9" r="2.40" fill="#bd6b20" opacity="0.18"/><circle cx="788.7" cy="244.2" r="3.44" fill="#bd6b20" opacity="0.36"/><circle cx="823.7" cy="244.3" r="2.68" fill="#bd6b20" opacity="0.22"/><circle cx="856.6" cy="246.7" r="2.97" fill="#bd6b20" opacity="0.30"/><circle cx="894.3" cy="243.6" r="3.63" fill="#bd6b20" opacity="0.24"/><circle cx="928.7" cy="247.9" r="3.97" fill="#bd6b20" opacity="0.27"/><circle cx="964.2" cy="247.7" r="3.39" fill="#bd6b20" opacity="0.19"/><circle cx="1004.4" cy="244.0" r="2.38" fill="#bd6b20" opacity="0.23"/><circle cx="1035.7" cy="246.6" r="2.97" fill="#bd6b20" opacity="0.32"/><circle cx="1074.0" cy="248.6" r="2.34" fill="#bd6b20" opacity="0.35"/><circle cx="1111.5" cy="246.9" r="3.20" fill="#bd6b20" opacity="0.21"/><circle cx="1143.2" cy="248.9" r="3.03" fill="#bd6b20" opacity="0.26"/><circle cx="1181.2" cy="246.2" r="2.49" fill="#bd6b20" opacity="0.29"/><circle cx="32.1" cy="279.2" r="3.34" fill="#bd6b20" opacity="0.30"/><circle cx="65.6" cy="284.1" r="2.62" fill="#bd6b20" opacity="0.33"/><circle cx="103.5" cy="284.3" r="2.57" fill="#bd6b20" opacity="0.32"/><circle cx="137.2" cy="284.5" r="2.20" fill="#bd6b20" opacity="0.21"/><circle cx="173.1" cy="281.5" r="3.89" fill="#bd6b20" opacity="0.21"/><circle cx="208.0" cy="282.2" r="2.40" fill="#bd6b20" opacity="0.33"/><circle cx="245.7" cy="284.6" r="2.80" fill="#bd6b20" opacity="0.16"/><circle cx="284.4" cy="282.2" r="1.99" fill="#bd6b20" opacity="0.24"/><circle cx="316.5" cy="281.0" r="3.58" fill="#bd6b20" opacity="0.34"/><circle cx="352.4" cy="284.9" r="1.74" fill="#bd6b20" opacity="0.36"/><circle cx="388.9" cy="281.5" r="2.69" fill="#bd6b20" opacity="0.26"/><circle cx="423.7" cy="284.6" r="3.27" fill="#bd6b20" opacity="0.35"/><circle cx="460.0" cy="280.5" r="3.19" fill="#bd6b20" opacity="0.21"/><circle cx="497.3" cy="283.2" r="2.09" fill="#bd6b20" opacity="0.29"/><circle cx="534.6" cy="283.2" r="3.05" fill="#bd6b20" opacity="0.25"/><circle cx="569.9" cy="279.1" r="4.00" fill="#bd6b20" opacity="0.20"/><circle cx="604.9" cy="284.0" r="2.33" fill="#bd6b20" opacity="0.27"/><circle cx="644.7" cy="279.4" r="2.43" fill="#bd6b20" opacity="0.31"/><circle cx="677.7" cy="280.5" r="2.24" fill="#bd6b20" opacity="0.19"/><circle cx="713.9" cy="281.1" r="3.59" fill="#bd6b20" opacity="0.21"/><circle cx="751.3" cy="280.1" r="3.27" fill="#bd6b20" opacity="0.30"/><circle cx="788.7" cy="282.3" r="2.44" fill="#bd6b20" opacity="0.25"/><circle cx="823.9" cy="282.7" r="3.34" fill="#bd6b20" opacity="0.30"/><circle cx="855.8" cy="279.2" r="3.12" fill="#bd6b20" opacity="0.20"/><circle cx="894.6" cy="282.9" r="2.45" fill="#bd6b20" opacity="0.19"/><circle cx="933.0" cy="280.2" r="1.68" fill="#bd6b20" opacity="0.22"/><circle cx="967.3" cy="283.0" r="3.70" fill="#bd6b20" opacity="0.21"/><circle cx="1004.6" cy="282.6" r="3.35" fill="#bd6b20" opacity="0.22"/><circle cx="1035.8" cy="282.3" r="2.31" fill="#bd6b20" opacity="0.24"/><circle cx="1073.4" cy="280.2" r="1.61" fill="#bd6b20" opacity="0.22"/><circle cx="1111.5" cy="284.5" r="2.43" fill="#bd6b20" opacity="0.35"/><circle cx="1146.3" cy="280.5" r="3.54" fill="#bd6b20" opacity="0.28"/><circle cx="1182.7" cy="284.4" r="3.89" fill="#bd6b20" opacity="0.27"/><circle cx="28.6" cy="315.9" r="1.79" fill="#bd6b20" opacity="0.31"/><circle cx="63.7" cy="315.7" r="2.76" fill="#bd6b20" opacity="0.22"/><circle cx="103.8" cy="317.8" r="3.61" fill="#bd6b20" opacity="0.25"/><circle cx="137.6" cy="319.7" r="3.94" fill="#bd6b20" opacity="0.20"/><circle cx="174.2" cy="318.1" r="2.47" fill="#bd6b20" opacity="0.22"/><circle cx="208.5" cy="319.5" r="2.67" fill="#bd6b20" opacity="0.33"/><circle cx="243.6" cy="316.6" r="3.50" fill="#bd6b20" opacity="0.19"/><circle cx="284.8" cy="320.6" r="3.93" fill="#bd6b20" opacity="0.30"/><circle cx="320.5" cy="317.2" r="3.11" fill="#bd6b20" opacity="0.32"/><circle cx="353.3" cy="316.0" r="2.29" fill="#bd6b20" opacity="0.25"/><circle cx="387.7" cy="321.0" r="3.12" fill="#bd6b20" opacity="0.15"/><circle cx="424.5" cy="317.4" r="1.77" fill="#bd6b20" opacity="0.32"/><circle cx="459.9" cy="318.4" r="1.68" fill="#bd6b20" opacity="0.26"/><circle cx="500.9" cy="318.2" r="2.11" fill="#bd6b20" opacity="0.20"/><circle cx="534.8" cy="318.1" r="3.61" fill="#bd6b20" opacity="0.30"/><circle cx="567.1" cy="317.0" r="3.37" fill="#bd6b20" opacity="0.22"/><circle cx="604.1" cy="315.2" r="2.96" fill="#bd6b20" opacity="0.23"/><circle cx="641.8" cy="318.1" r="2.71" fill="#bd6b20" opacity="0.26"/><circle cx="676.4" cy="320.1" r="2.14" fill="#bd6b20" opacity="0.30"/><circle cx="715.2" cy="318.8" r="2.30" fill="#bd6b20" opacity="0.19"/><circle cx="750.5" cy="320.1" r="1.70" fill="#bd6b20" opacity="0.34"/><circle cx="788.5" cy="316.2" r="3.40" fill="#bd6b20" opacity="0.18"/><circle cx="822.0" cy="318.4" r="2.55" fill="#bd6b20" opacity="0.20"/><circle cx="860.7" cy="318.7" r="3.56" fill="#bd6b20" opacity="0.24"/><circle cx="896.8" cy="315.4" r="2.72" fill="#bd6b20" opacity="0.24"/><circle cx="928.4" cy="317.9" r="3.77" fill="#bd6b20" opacity="0.33"/><circle cx="965.4" cy="318.1" r="3.86" fill="#bd6b20" opacity="0.17"/><circle cx="1003.4" cy="320.5" r="1.91" fill="#bd6b20" opacity="0.27"/><circle cx="1038.0" cy="317.6" r="3.94" fill="#bd6b20" opacity="0.31"/><circle cx="1072.9" cy="316.8" r="2.45" fill="#bd6b20" opacity="0.23"/><circle cx="1107.8" cy="317.0" r="1.75" fill="#bd6b20" opacity="0.24"/><circle cx="1147.1" cy="316.0" r="3.05" fill="#bd6b20" opacity="0.16"/><circle cx="1182.9" cy="316.1" r="2.52" fill="#bd6b20" opacity="0.16"/><circle cx="28.5" cy="353.4" r="2.87" fill="#bd6b20" opacity="0.30"/><circle cx="66.8" cy="356.4" r="3.02" fill="#bd6b20" opacity="0.33"/><circle cx="99.5" cy="356.0" r="2.95" fill="#bd6b20" opacity="0.34"/><circle cx="138.8" cy="354.5" r="1.93" fill="#bd6b20" opacity="0.32"/><circle cx="173.1" cy="355.8" r="3.00" fill="#bd6b20" opacity="0.33"/><circle cx="209.5" cy="351.4" r="2.02" fill="#bd6b20" opacity="0.16"/><circle cx="245.7" cy="352.9" r="2.40" fill="#bd6b20" opacity="0.16"/><circle cx="283.2" cy="355.7" r="3.90" fill="#bd6b20" opacity="0.33"/><circle cx="316.6" cy="356.4" r="3.97" fill="#bd6b20" opacity="0.25"/><circle cx="353.9" cy="353.2" r="2.21" fill="#bd6b20" opacity="0.32"/><circle cx="389.6" cy="356.4" r="1.68" fill="#bd6b20" opacity="0.24"/><circle cx="428.4" cy="355.8" r="2.22" fill="#bd6b20" opacity="0.31"/><circle cx="462.5" cy="351.2" r="3.54" fill="#bd6b20" opacity="0.24"/><circle cx="497.0" cy="354.4" r="3.22" fill="#bd6b20" opacity="0.29"/><circle cx="534.3" cy="353.8" r="3.24" fill="#bd6b20" opacity="0.24"/><circle cx="567.3" cy="351.6" r="3.44" fill="#bd6b20" opacity="0.18"/><circle cx="608.3" cy="352.5" r="2.47" fill="#bd6b20" opacity="0.20"/><circle cx="642.5" cy="354.2" r="3.44" fill="#bd6b20" opacity="0.25"/><circle cx="679.2" cy="356.4" r="2.25" fill="#bd6b20" opacity="0.18"/><circle cx="716.1" cy="354.9" r="2.77" fill="#bd6b20" opacity="0.24"/><circle cx="751.8" cy="354.0" r="2.18" fill="#bd6b20" opacity="0.17"/><circle cx="783.2" cy="352.1" r="3.54" fill="#bd6b20" opacity="0.16"/><circle cx="822.3" cy="356.5" r="2.72" fill="#bd6b20" opacity="0.19"/><circle cx="855.8" cy="351.4" r="3.21" fill="#bd6b20" opacity="0.15"/><circle cx="896.5" cy="352.1" r="3.01" fill="#bd6b20" opacity="0.34"/><circle cx="930.9" cy="352.2" r="3.17" fill="#bd6b20" opacity="0.26"/><circle cx="963.6" cy="354.0" r="3.39" fill="#bd6b20" opacity="0.29"/><circle cx="1004.4" cy="351.6" r="2.34" fill="#bd6b20" opacity="0.34"/><circle cx="1039.2" cy="352.6" r="3.98" fill="#bd6b20" opacity="0.25"/><circle cx="1077.0" cy="356.2" r="2.31" fill="#bd6b20" opacity="0.26"/><circle cx="1111.5" cy="354.2" r="3.12" fill="#bd6b20" opacity="0.32"/><circle cx="1144.3" cy="356.4" r="2.07" fill="#bd6b20" opacity="0.24"/><circle cx="1180.7" cy="356.2" r="3.37" fill="#bd6b20" opacity="0.26"/><circle cx="28.8" cy="388.3" r="1.62" fill="#bd6b20" opacity="0.26"/><circle cx="67.8" cy="391.0" r="1.90" fill="#bd6b20" opacity="0.16"/><circle cx="101.3" cy="389.7" r="2.85" fill="#bd6b20" opacity="0.23"/><circle cx="138.4" cy="390.9" r="3.83" fill="#bd6b20" opacity="0.27"/><circle cx="176.6" cy="392.3" r="1.67" fill="#bd6b20" opacity="0.26"/><circle cx="209.7" cy="389.0" r="3.71" fill="#bd6b20" opacity="0.24"/><circle cx="243.1" cy="387.2" r="1.65" fill="#bd6b20" opacity="0.33"/><circle cx="279.8" cy="391.2" r="2.00" fill="#bd6b20" opacity="0.19"/><circle cx="319.7" cy="392.9" r="2.61" fill="#bd6b20" opacity="0.24"/><circle cx="355.7" cy="388.1" r="2.26" fill="#bd6b20" opacity="0.34"/><circle cx="389.3" cy="388.2" r="1.84" fill="#bd6b20" opacity="0.17"/><circle cx="423.2" cy="388.1" r="3.85" fill="#bd6b20" opacity="0.30"/><circle cx="462.2" cy="388.5" r="2.42" fill="#bd6b20" opacity="0.36"/><circle cx="501.0" cy="389.3" r="1.73" fill="#bd6b20" opacity="0.20"/><circle cx="532.7" cy="392.9" r="2.57" fill="#bd6b20" opacity="0.21"/><circle cx="572.4" cy="390.8" r="3.48" fill="#bd6b20" opacity="0.32"/><circle cx="608.8" cy="391.5" r="2.92" fill="#bd6b20" opacity="0.17"/><circle cx="642.2" cy="392.8" r="3.99" fill="#bd6b20" opacity="0.36"/><circle cx="678.8" cy="388.8" r="2.29" fill="#bd6b20" opacity="0.19"/><circle cx="713.9" cy="387.7" r="1.81" fill="#bd6b20" opacity="0.26"/><circle cx="749.4" cy="387.7" r="1.63" fill="#bd6b20" opacity="0.25"/><circle cx="783.8" cy="388.9" r="2.06" fill="#bd6b20" opacity="0.34"/><circle cx="821.4" cy="387.8" r="2.48" fill="#bd6b20" opacity="0.30"/><circle cx="858.8" cy="391.3" r="2.66" fill="#bd6b20" opacity="0.28"/><circle cx="892.8" cy="391.0" r="3.22" fill="#bd6b20" opacity="0.34"/><circle cx="927.9" cy="389.4" r="2.73" fill="#bd6b20" opacity="0.19"/><circle cx="967.0" cy="387.5" r="2.61" fill="#bd6b20" opacity="0.16"/><circle cx="1004.5" cy="391.4" r="2.19" fill="#bd6b20" opacity="0.26"/><circle cx="1038.2" cy="391.0" r="3.52" fill="#bd6b20" opacity="0.18"/><circle cx="1075.3" cy="388.0" r="3.56" fill="#bd6b20" opacity="0.19"/><circle cx="1111.1" cy="392.1" r="2.92" fill="#bd6b20" opacity="0.30"/><circle cx="1148.5" cy="390.4" r="3.70" fill="#bd6b20" opacity="0.36"/><circle cx="1182.4" cy="392.7" r="1.67" fill="#bd6b20" opacity="0.28"/><circle cx="30.5" cy="428.4" r="3.86" fill="#bd6b20" opacity="0.17"/><circle cx="66.1" cy="425.9" r="3.28" fill="#bd6b20" opacity="0.30"/><circle cx="102.0" cy="427.4" r="2.58" fill="#bd6b20" opacity="0.17"/><circle cx="138.2" cy="426.8" r="2.31" fill="#bd6b20" opacity="0.21"/><circle cx="171.3" cy="424.5" r="3.54" fill="#bd6b20" opacity="0.20"/><circle cx="209.9" cy="427.8" r="1.69" fill="#bd6b20" opacity="0.20"/><circle cx="248.8" cy="427.2" r="3.76" fill="#bd6b20" opacity="0.29"/><circle cx="281.8" cy="425.6" r="3.65" fill="#bd6b20" opacity="0.32"/><circle cx="316.9" cy="424.1" r="3.55" fill="#bd6b20" opacity="0.25"/><circle cx="352.0" cy="428.2" r="2.65" fill="#bd6b20" opacity="0.18"/><circle cx="389.5" cy="425.3" r="3.80" fill="#bd6b20" opacity="0.21"/><circle cx="423.9" cy="427.0" r="3.08" fill="#bd6b20" opacity="0.34"/><circle cx="460.3" cy="423.8" r="1.99" fill="#bd6b20" opacity="0.30"/><circle cx="496.8" cy="423.4" r="3.68" fill="#bd6b20" opacity="0.30"/><circle cx="532.1" cy="428.1" r="3.54" fill="#bd6b20" opacity="0.32"/><circle cx="571.9" cy="425.9" r="2.96" fill="#bd6b20" opacity="0.34"/><circle cx="606.1" cy="428.8" r="2.06" fill="#bd6b20" opacity="0.30"/><circle cx="644.8" cy="427.9" r="3.04" fill="#bd6b20" opacity="0.17"/><circle cx="679.3" cy="427.1" r="3.40" fill="#bd6b20" opacity="0.21"/><circle cx="711.5" cy="428.2" r="2.27" fill="#bd6b20" opacity="0.34"/><circle cx="749.8" cy="423.7" r="3.04" fill="#bd6b20" opacity="0.29"/><circle cx="786.0" cy="426.8" r="1.72" fill="#bd6b20" opacity="0.29"/><circle cx="820.5" cy="425.5" r="1.65" fill="#bd6b20" opacity="0.25"/><circle cx="860.1" cy="427.1" r="2.83" fill="#bd6b20" opacity="0.18"/><circle cx="895.6" cy="424.4" r="3.31" fill="#bd6b20" opacity="0.32"/><circle cx="932.1" cy="424.4" r="1.92" fill="#bd6b20" opacity="0.24"/><circle cx="964.8" cy="424.5" r="2.03" fill="#bd6b20" opacity="0.33"/><circle cx="999.9" cy="423.6" r="1.82" fill="#bd6b20" opacity="0.28"/><circle cx="1038.2" cy="424.6" r="3.53" fill="#bd6b20" opacity="0.17"/><circle cx="1074.7" cy="425.0" r="1.93" fill="#bd6b20" opacity="0.21"/><circle cx="1110.5" cy="424.4" r="1.91" fill="#bd6b20" opacity="0.19"/><circle cx="1143.6" cy="427.8" r="3.96" fill="#bd6b20" opacity="0.28"/><circle cx="1182.9" cy="426.6" r="3.98" fill="#bd6b20" opacity="0.26"/><circle cx="29.3" cy="461.6" r="2.12" fill="#bd6b20" opacity="0.16"/><circle cx="65.7" cy="465.0" r="1.76" fill="#bd6b20" opacity="0.16"/><circle cx="100.1" cy="462.2" r="1.76" fill="#bd6b20" opacity="0.21"/><circle cx="140.9" cy="460.7" r="3.62" fill="#bd6b20" opacity="0.34"/><circle cx="174.2" cy="462.2" r="3.67" fill="#bd6b20" opacity="0.23"/><circle cx="208.5" cy="464.1" r="3.55" fill="#bd6b20" opacity="0.34"/><circle cx="244.8" cy="464.6" r="1.60" fill="#bd6b20" opacity="0.23"/><circle cx="280.9" cy="464.5" r="3.79" fill="#bd6b20" opacity="0.19"/><circle cx="319.8" cy="460.8" r="1.61" fill="#bd6b20" opacity="0.15"/><circle cx="353.4" cy="464.4" r="3.20" fill="#bd6b20" opacity="0.26"/><circle cx="387.5" cy="462.4" r="3.66" fill="#bd6b20" opacity="0.17"/><circle cx="428.6" cy="461.3" r="3.20" fill="#bd6b20" opacity="0.16"/><circle cx="462.5" cy="464.5" r="1.98" fill="#bd6b20" opacity="0.32"/><circle cx="498.0" cy="459.2" r="2.04" fill="#bd6b20" opacity="0.30"/><circle cx="534.6" cy="463.4" r="3.96" fill="#bd6b20" opacity="0.15"/><circle cx="570.1" cy="464.3" r="3.26" fill="#bd6b20" opacity="0.31"/><circle cx="604.6" cy="460.0" r="1.98" fill="#bd6b20" opacity="0.20"/><circle cx="639.6" cy="460.8" r="1.92" fill="#bd6b20" opacity="0.28"/><circle cx="679.7" cy="462.2" r="1.71" fill="#bd6b20" opacity="0.22"/><circle cx="713.0" cy="461.1" r="3.79" fill="#bd6b20" opacity="0.36"/><circle cx="750.0" cy="459.6" r="2.08" fill="#bd6b20" opacity="0.30"/><circle cx="783.0" cy="462.6" r="1.67" fill="#bd6b20" opacity="0.32"/><circle cx="820.2" cy="459.1" r="2.63" fill="#bd6b20" opacity="0.20"/><circle cx="860.2" cy="459.4" r="3.67" fill="#bd6b20" opacity="0.27"/><circle cx="896.6" cy="463.2" r="3.52" fill="#bd6b20" opacity="0.33"/><circle cx="930.6" cy="460.6" r="3.80" fill="#bd6b20" opacity="0.28"/><circle cx="966.5" cy="459.1" r="3.53" fill="#bd6b20" opacity="0.29"/><circle cx="1001.1" cy="462.8" r="3.55" fill="#bd6b20" opacity="0.31"/><circle cx="1038.5" cy="460.1" r="2.26" fill="#bd6b20" opacity="0.17"/><circle cx="1074.1" cy="459.6" r="3.57" fill="#bd6b20" opacity="0.24"/><circle cx="1110.2" cy="459.3" r="3.70" fill="#bd6b20" opacity="0.34"/><circle cx="1143.2" cy="463.2" r="2.89" fill="#bd6b20" opacity="0.20"/><circle cx="1183.1" cy="459.2" r="2.82" fill="#bd6b20" opacity="0.27"/><circle cx="29.9" cy="496.1" r="3.27" fill="#bd6b20" opacity="0.30"/><circle cx="63.9" cy="500.7" r="2.65" fill="#bd6b20" opacity="0.27"/><circle cx="103.5" cy="496.5" r="2.15" fill="#bd6b20" opacity="0.29"/><circle cx="139.5" cy="495.9" r="1.73" fill="#bd6b20" opacity="0.30"/><circle cx="176.0" cy="497.2" r="3.81" fill="#bd6b20" opacity="0.26"/><circle cx="209.4" cy="497.7" r="2.60" fill="#bd6b20" opacity="0.19"/><circle cx="245.0" cy="495.6" r="2.17" fill="#bd6b20" opacity="0.24"/><circle cx="279.8" cy="495.6" r="3.90" fill="#bd6b20" opacity="0.31"/><circle cx="319.3" cy="499.6" r="2.88" fill="#bd6b20" opacity="0.24"/><circle cx="354.0" cy="500.2" r="2.84" fill="#bd6b20" opacity="0.33"/><circle cx="389.6" cy="499.5" r="3.33" fill="#bd6b20" opacity="0.18"/><circle cx="424.3" cy="499.8" r="2.37" fill="#bd6b20" opacity="0.28"/><circle cx="461.3" cy="495.5" r="3.99" fill="#bd6b20" opacity="0.29"/><circle cx="499.9" cy="498.4" r="3.71" fill="#bd6b20" opacity="0.35"/><circle cx="535.1" cy="497.3" r="2.02" fill="#bd6b20" opacity="0.21"/><circle cx="570.2" cy="497.9" r="2.89" fill="#bd6b20" opacity="0.19"/><circle cx="605.7" cy="499.3" r="1.77" fill="#bd6b20" opacity="0.22"/><circle cx="643.0" cy="500.5" r="3.88" fill="#bd6b20" opacity="0.24"/><circle cx="678.1" cy="497.2" r="1.84" fill="#bd6b20" opacity="0.34"/><circle cx="712.7" cy="497.1" r="2.96" fill="#bd6b20" opacity="0.20"/><circle cx="750.2" cy="500.8" r="2.74" fill="#bd6b20" opacity="0.21"/><circle cx="783.8" cy="496.3" r="2.56" fill="#bd6b20" opacity="0.17"/><circle cx="820.8" cy="496.3" r="2.77" fill="#bd6b20" opacity="0.29"/><circle cx="856.3" cy="497.3" r="2.26" fill="#bd6b20" opacity="0.24"/><circle cx="896.6" cy="496.4" r="3.29" fill="#bd6b20" opacity="0.22"/><circle cx="932.1" cy="497.3" r="3.27" fill="#bd6b20" opacity="0.19"/><circle cx="965.4" cy="496.3" r="3.74" fill="#bd6b20" opacity="0.16"/><circle cx="1000.3" cy="495.9" r="3.70" fill="#bd6b20" opacity="0.21"/><circle cx="1038.2" cy="495.5" r="1.93" fill="#bd6b20" opacity="0.36"/><circle cx="1073.5" cy="500.5" r="3.39" fill="#bd6b20" opacity="0.27"/><circle cx="1109.5" cy="496.9" r="1.99" fill="#bd6b20" opacity="0.22"/><circle cx="1147.5" cy="497.0" r="3.41" fill="#bd6b20" opacity="0.21"/><circle cx="1182.6" cy="500.1" r="2.00" fill="#bd6b20" opacity="0.19"/><circle cx="29.3" cy="535.7" r="3.38" fill="#bd6b20" opacity="0.35"/><circle cx="67.2" cy="534.0" r="1.86" fill="#bd6b20" opacity="0.32"/><circle cx="101.3" cy="533.1" r="1.75" fill="#bd6b20" opacity="0.21"/><circle cx="138.3" cy="534.0" r="2.33" fill="#bd6b20" opacity="0.35"/><circle cx="175.3" cy="537.0" r="3.95" fill="#bd6b20" opacity="0.31"/><circle cx="211.4" cy="535.0" r="2.41" fill="#bd6b20" opacity="0.34"/><circle cx="245.7" cy="536.5" r="3.94" fill="#bd6b20" opacity="0.17"/><circle cx="283.8" cy="535.0" r="3.55" fill="#bd6b20" opacity="0.21"/><circle cx="317.1" cy="531.6" r="2.22" fill="#bd6b20" opacity="0.24"/><circle cx="356.1" cy="534.6" r="3.31" fill="#bd6b20" opacity="0.17"/><circle cx="392.3" cy="532.2" r="2.40" fill="#bd6b20" opacity="0.34"/><circle cx="425.8" cy="533.6" r="3.33" fill="#bd6b20" opacity="0.30"/><circle cx="460.1" cy="531.9" r="3.63" fill="#bd6b20" opacity="0.22"/><circle cx="498.5" cy="533.8" r="3.28" fill="#bd6b20" opacity="0.22"/><circle cx="534.2" cy="533.8" r="1.85" fill="#bd6b20" opacity="0.32"/><circle cx="567.5" cy="532.4" r="3.11" fill="#bd6b20" opacity="0.30"/><circle cx="606.0" cy="535.0" r="3.26" fill="#bd6b20" opacity="0.36"/><circle cx="642.8" cy="535.5" r="2.03" fill="#bd6b20" opacity="0.28"/><circle cx="675.2" cy="534.5" r="3.23" fill="#bd6b20" opacity="0.27"/><circle cx="714.3" cy="531.6" r="3.14" fill="#bd6b20" opacity="0.21"/><circle cx="750.2" cy="535.7" r="2.52" fill="#bd6b20" opacity="0.33"/><circle cx="784.2" cy="533.4" r="3.60" fill="#bd6b20" opacity="0.30"/><circle cx="823.8" cy="533.2" r="3.35" fill="#bd6b20" opacity="0.30"/><circle cx="856.6" cy="536.0" r="3.57" fill="#bd6b20" opacity="0.18"/><circle cx="896.8" cy="534.6" r="3.73" fill="#bd6b20" opacity="0.30"/><circle cx="928.9" cy="533.4" r="2.34" fill="#bd6b20" opacity="0.26"/><circle cx="963.7" cy="532.1" r="2.33" fill="#bd6b20" opacity="0.27"/><circle cx="1001.1" cy="533.7" r="1.73" fill="#bd6b20" opacity="0.23"/><circle cx="1039.4" cy="534.5" r="2.85" fill="#bd6b20" opacity="0.27"/><circle cx="1072.1" cy="532.0" r="3.12" fill="#bd6b20" opacity="0.18"/><circle cx="1110.1" cy="534.8" r="2.86" fill="#bd6b20" opacity="0.21"/><circle cx="1149.0" cy="533.8" r="2.44" fill="#bd6b20" opacity="0.24"/><circle cx="1184.9" cy="535.0" r="3.82" fill="#bd6b20" opacity="0.36"/><circle cx="32.4" cy="567.4" r="3.46" fill="#bd6b20" opacity="0.27"/><circle cx="65.2" cy="570.2" r="3.87" fill="#bd6b20" opacity="0.24"/><circle cx="103.7" cy="568.8" r="3.39" fill="#bd6b20" opacity="0.28"/><circle cx="137.6" cy="570.1" r="2.20" fill="#bd6b20" opacity="0.25"/><circle cx="174.6" cy="570.2" r="3.99" fill="#bd6b20" opacity="0.19"/><circle cx="211.1" cy="571.6" r="2.68" fill="#bd6b20" opacity="0.26"/><circle cx="248.3" cy="567.8" r="3.73" fill="#bd6b20" opacity="0.20"/><circle cx="279.1" cy="571.9" r="3.46" fill="#bd6b20" opacity="0.29"/><circle cx="316.7" cy="570.3" r="2.47" fill="#bd6b20" opacity="0.24"/><circle cx="356.7" cy="568.6" r="2.11" fill="#bd6b20" opacity="0.29"/><circle cx="391.9" cy="572.2" r="1.89" fill="#bd6b20" opacity="0.28"/><circle cx="427.8" cy="572.7" r="2.99" fill="#bd6b20" opacity="0.27"/><circle cx="460.8" cy="571.9" r="3.56" fill="#bd6b20" opacity="0.19"/><circle cx="499.7" cy="567.5" r="2.43" fill="#bd6b20" opacity="0.30"/><circle cx="535.8" cy="568.4" r="3.12" fill="#bd6b20" opacity="0.27"/><circle cx="568.9" cy="570.7" r="3.78" fill="#bd6b20" opacity="0.28"/><circle cx="608.2" cy="570.0" r="2.21" fill="#bd6b20" opacity="0.29"/><circle cx="642.6" cy="572.6" r="1.99" fill="#bd6b20" opacity="0.23"/><circle cx="676.6" cy="571.8" r="3.76" fill="#bd6b20" opacity="0.24"/><circle cx="714.7" cy="568.7" r="3.05" fill="#bd6b20" opacity="0.25"/><circle cx="751.8" cy="572.4" r="3.57" fill="#bd6b20" opacity="0.16"/><circle cx="785.1" cy="571.0" r="3.99" fill="#bd6b20" opacity="0.27"/><circle cx="824.1" cy="571.2" r="3.27" fill="#bd6b20" opacity="0.28"/><circle cx="855.1" cy="567.9" r="3.37" fill="#bd6b20" opacity="0.19"/><circle cx="896.1" cy="569.3" r="1.91" fill="#bd6b20" opacity="0.26"/><circle cx="931.0" cy="570.9" r="2.38" fill="#bd6b20" opacity="0.24"/><circle cx="963.9" cy="572.1" r="2.05" fill="#bd6b20" opacity="0.26"/><circle cx="1001.4" cy="569.6" r="3.22" fill="#bd6b20" opacity="0.20"/><circle cx="1040.0" cy="571.4" r="2.61" fill="#bd6b20" opacity="0.22"/><circle cx="1072.1" cy="569.5" r="1.85" fill="#bd6b20" opacity="0.24"/><circle cx="1109.9" cy="570.5" r="2.48" fill="#bd6b20" opacity="0.31"/><circle cx="1144.1" cy="571.9" r="3.74" fill="#bd6b20" opacity="0.26"/><circle cx="1182.1" cy="570.5" r="3.73" fill="#bd6b20" opacity="0.22"/><circle cx="28.1" cy="608.9" r="2.24" fill="#bd6b20" opacity="0.36"/><circle cx="63.6" cy="607.3" r="3.23" fill="#bd6b20" opacity="0.27"/><circle cx="99.9" cy="603.0" r="3.85" fill="#bd6b20" opacity="0.31"/><circle cx="137.2" cy="605.3" r="2.91" fill="#bd6b20" opacity="0.19"/><circle cx="175.1" cy="603.9" r="1.73" fill="#bd6b20" opacity="0.25"/><circle cx="209.6" cy="606.4" r="2.74" fill="#bd6b20" opacity="0.35"/><circle cx="248.4" cy="604.8" r="3.97" fill="#bd6b20" opacity="0.32"/><circle cx="281.5" cy="603.1" r="1.76" fill="#bd6b20" opacity="0.15"/><circle cx="318.5" cy="608.7" r="3.51" fill="#bd6b20" opacity="0.25"/><circle cx="351.6" cy="604.7" r="3.99" fill="#bd6b20" opacity="0.33"/><circle cx="388.3" cy="604.0" r="3.11" fill="#bd6b20" opacity="0.33"/><circle cx="423.7" cy="605.4" r="2.49" fill="#bd6b20" opacity="0.36"/><circle cx="460.7" cy="606.7" r="2.92" fill="#bd6b20" opacity="0.18"/><circle cx="500.2" cy="607.0" r="2.32" fill="#bd6b20" opacity="0.16"/><circle cx="531.5" cy="606.6" r="3.97" fill="#bd6b20" opacity="0.34"/><circle cx="568.6" cy="605.6" r="3.69" fill="#bd6b20" opacity="0.31"/><circle cx="604.9" cy="608.1" r="3.00" fill="#bd6b20" opacity="0.20"/><circle cx="639.2" cy="604.7" r="3.59" fill="#bd6b20" opacity="0.20"/><circle cx="680.1" cy="603.0" r="3.39" fill="#bd6b20" opacity="0.24"/><circle cx="715.0" cy="603.7" r="2.14" fill="#bd6b20" opacity="0.30"/><circle cx="752.7" cy="607.1" r="2.09" fill="#bd6b20" opacity="0.21"/><circle cx="788.9" cy="603.9" r="3.52" fill="#bd6b20" opacity="0.35"/><circle cx="824.1" cy="606.7" r="2.87" fill="#bd6b20" opacity="0.32"/><circle cx="857.6" cy="608.4" r="2.60" fill="#bd6b20" opacity="0.21"/><circle cx="892.0" cy="604.2" r="3.06" fill="#bd6b20" opacity="0.25"/><circle cx="927.1" cy="608.4" r="2.51" fill="#bd6b20" opacity="0.35"/><circle cx="966.3" cy="606.2" r="3.27" fill="#bd6b20" opacity="0.18"/><circle cx="1004.2" cy="603.9" r="3.81" fill="#bd6b20" opacity="0.16"/><circle cx="1035.1" cy="603.2" r="2.77" fill="#bd6b20" opacity="0.30"/><circle cx="1072.0" cy="603.3" r="2.47" fill="#bd6b20" opacity="0.25"/><circle cx="1111.2" cy="607.3" r="2.84" fill="#bd6b20" opacity="0.31"/><circle cx="1144.0" cy="604.8" r="2.58" fill="#bd6b20" opacity="0.36"/><circle cx="1184.0" cy="609.0" r="1.61" fill="#bd6b20" opacity="0.31"/><circle cx="28.2" cy="642.0" r="1.84" fill="#bd6b20" opacity="0.24"/><circle cx="67.1" cy="641.4" r="3.74" fill="#bd6b20" opacity="0.26"/><circle cx="104.5" cy="644.3" r="3.57" fill="#bd6b20" opacity="0.21"/><circle cx="135.2" cy="640.8" r="1.82" fill="#bd6b20" opacity="0.19"/><circle cx="176.5" cy="640.6" r="2.67" fill="#bd6b20" opacity="0.27"/><circle cx="209.6" cy="644.6" r="3.12" fill="#bd6b20" opacity="0.29"/><circle cx="244.5" cy="639.1" r="1.72" fill="#bd6b20" opacity="0.30"/><circle cx="279.9" cy="640.8" r="2.67" fill="#bd6b20" opacity="0.35"/><circle cx="315.1" cy="640.9" r="3.42" fill="#bd6b20" opacity="0.30"/><circle cx="351.4" cy="643.6" r="3.66" fill="#bd6b20" opacity="0.31"/><circle cx="391.5" cy="645.0" r="2.76" fill="#bd6b20" opacity="0.15"/><circle cx="424.8" cy="641.2" r="3.71" fill="#bd6b20" opacity="0.33"/><circle cx="463.7" cy="644.5" r="2.62" fill="#bd6b20" opacity="0.34"/><circle cx="499.0" cy="644.6" r="2.32" fill="#bd6b20" opacity="0.23"/><circle cx="533.2" cy="643.6" r="2.67" fill="#bd6b20" opacity="0.32"/><circle cx="571.9" cy="642.9" r="3.89" fill="#bd6b20" opacity="0.29"/><circle cx="604.5" cy="645.0" r="3.45" fill="#bd6b20" opacity="0.23"/><circle cx="641.0" cy="644.3" r="3.07" fill="#bd6b20" opacity="0.28"/><circle cx="679.8" cy="641.9" r="2.05" fill="#bd6b20" opacity="0.21"/><circle cx="712.8" cy="639.2" r="2.89" fill="#bd6b20" opacity="0.17"/><circle cx="752.5" cy="643.2" r="2.64" fill="#bd6b20" opacity="0.24"/><circle cx="783.8" cy="640.2" r="2.27" fill="#bd6b20" opacity="0.17"/><circle cx="819.6" cy="639.9" r="2.09" fill="#bd6b20" opacity="0.23"/><circle cx="858.6" cy="640.7" r="3.02" fill="#bd6b20" opacity="0.28"/><circle cx="892.3" cy="640.0" r="3.63" fill="#bd6b20" opacity="0.29"/><circle cx="930.5" cy="644.1" r="1.69" fill="#bd6b20" opacity="0.15"/><circle cx="968.7" cy="639.0" r="3.15" fill="#bd6b20" opacity="0.32"/><circle cx="1002.1" cy="642.2" r="3.04" fill="#bd6b20" opacity="0.31"/><circle cx="1038.0" cy="644.7" r="2.40" fill="#bd6b20" opacity="0.27"/><circle cx="1072.3" cy="643.7" r="2.99" fill="#bd6b20" opacity="0.34"/><circle cx="1107.8" cy="641.8" r="2.70" fill="#bd6b20" opacity="0.20"/><circle cx="1145.8" cy="642.1" r="1.61" fill="#bd6b20" opacity="0.32"/><circle cx="1182.7" cy="639.9" r="2.00" fill="#bd6b20" opacity="0.36"/><circle cx="204.5" cy="232.2" r="220" fill="url(#glow)" opacity="0.9"/>
  <g opacity="0.85" transform="translate(1020, 495)">
        <rect x="-46" y="-60" width="92" height="115" fill="#bd6b20" opacity="0.18" rx="6"/>
        <path d="M -28 -36 L 28 -36 M -28 -12 L 28 -12 M -28 12 L 18 12 M -28 36 L 28 36" stroke="#9a5518" stroke-width="3" stroke-linecap="round"/>
      </g>
  <g transform="translate(80, 90)">
    <rect x="0" y="0" rx="20" ry="20" width="101" height="38" fill="#bd6b20" opacity="0.18" stroke="#bd6b20" stroke-width="1.5"/>
    <text x="50.5" y="25" font-family="ui-sans-serif, Inter, sans-serif" font-weight="700" font-size="14" letter-spacing="2.5" fill="#bd6b20" text-anchor="middle">ARTICLE</text>
  </g>
  <text x="80" y="465" font-family="ui-sans-serif, -apple-system, Segoe UI, Inter, sans-serif" font-weight="800" font-size="44" fill="#12100e" opacity="0.98"><tspan x="80" dy="0">Exploring the Impact of</tspan><tspan x="80" dy="56">PDR COURT on SAMA's Shark</tspan><tspan x="80" dy="56">Tank</tspan></text>
  <rect x="0" y="669" width="1200" height="6" fill="url(#gold)"/>
</svg>