<?xml version="1.0" encoding="UTF-8"?>
<svg xmlns="http://www.w3.org/2000/svg" viewBox="0 0 1200 675" width="1200" height="675" role="img" aria-label="What are the ways to Celebrate International mothers Day 2024">
  <defs>
    <linearGradient id="bg" x1="0%" y1="0%" x2="100%" y2="100%">
      <stop offset="0%" stop-color="#0c0a09"/>
      <stop offset="100%" stop-color="#291813"/>
    </linearGradient>
    <linearGradient id="gold" x1="0%" y1="0%" x2="100%" y2="100%">
      <stop offset="0%" stop-color="#d4862a"/>
      <stop offset="100%" stop-color="#bd6b20"/>
    </linearGradient>
    <radialGradient id="glow" cx="50%" cy="50%" r="50%">
      <stop offset="0%" stop-color="#d4862a" stop-opacity="0.45"/>
      <stop offset="100%" stop-color="#d4862a" stop-opacity="0"/>
    </radialGradient>
  </defs>
  <rect width="1200" height="675" fill="url(#bg)"/>
  <polygon points="-50,218.0 -20,225.9 10,235.0 40,245.1 70,255.9 100,267.3 130,279.0 160,290.7 190,302.2 220,313.1 250,323.4 280,332.6 310,340.6 340,347.3 370,352.4 400,355.9 430,357.7 460,357.8 490,356.1 520,352.7 550,347.6 580,341.0 610,333.1 640,323.9 670,313.8 700,302.8 730,291.4 760,279.7 790,268.0 820,256.6 850,245.7 880,235.5 910,226.4 940,218.4 970,211.8 1000,206.7 1030,203.3 1060,201.6 1090,201.7 1120,203.5 1150,207.0 1180,212.1 1210,218.8 1240,226.8 1250,725 -50,725" fill="#d4862a" opacity="0.08"/><polygon points="-50,330.0 -20,333.6 10,337.6 40,341.9 70,346.5 100,351.2 130,356.0 160,360.7 190,365.2 220,369.4 250,373.2 280,376.6 310,379.5 340,381.7 370,383.3 400,384.2 430,384.4 460,383.9 490,382.7 520,380.8 550,378.3 580,375.2 610,371.6 640,367.6 670,363.2 700,358.6 730,353.9 760,349.2 790,344.5 820,340.0 850,335.8 880,332.0 910,328.6 940,325.8 970,323.6 1000,322.0 1030,321.1 1060,321.0 1090,321.5 1120,322.8 1150,324.7 1180,327.3 1210,330.4 1240,334.0 1250,725 -50,725" fill="#d4862a" opacity="0.13"/><polygon points="-50,429.0 -20,418.3 10,407.4 40,396.5 70,386.0 100,376.0 130,366.8 160,358.5 190,351.4 220,345.6 250,341.3 280,338.5 310,337.3 340,337.7 370,339.8 400,343.4 430,348.6 460,355.1 490,362.8 520,371.6 550,381.3 580,391.6 610,402.3 640,413.2 670,424.0 700,434.5 730,444.5 760,453.6 790,461.8 820,468.9 850,474.6 880,478.8 910,481.5 940,482.7 970,482.1 1000,480.0 1030,476.3 1060,471.0 1090,464.5 1120,456.7 1150,447.8 1180,438.1 1210,427.8 1240,417.0 1250,725 -50,725" fill="#d4862a" opacity="0.18"/><polygon points="-50,492.5 -20,502.4 10,512.1 40,521.3 70,529.8 100,537.5 130,544.1 160,549.5 190,553.6 220,556.4 250,557.7 280,557.4 310,555.7 340,552.6 370,548.1 400,542.3 430,535.3 460,527.4 490,518.7 520,509.3 550,499.6 580,489.6 610,479.8 640,470.1 670,461.0 700,452.5 730,444.9 760,438.3 790,433.0 820,428.9 850,426.3 880,425.1 910,425.4 940,427.1 970,430.4 1000,435.0 1030,440.8 1060,447.8 1090,455.8 1120,464.6 1150,473.9 1180,483.7 1210,493.7 1240,503.5 1250,725 -50,725" fill="#d4862a" opacity="0.23"/><circle cx="300.0" cy="189.0" r="160" fill="url(#glow)"/>
  <g opacity="0.85" transform="translate(1020, 495)">
        <rect x="-46" y="-60" width="92" height="115" fill="#d4862a" opacity="0.18" rx="6"/>
        <path d="M -28 -36 L 28 -36 M -28 -12 L 28 -12 M -28 12 L 18 12 M -28 36 L 28 36" stroke="#bd6b20" stroke-width="3" stroke-linecap="round"/>
      </g>
  <g transform="translate(80, 90)">
    <rect x="0" y="0" rx="20" ry="20" width="101" height="38" fill="#d4862a" opacity="0.18" stroke="#d4862a" stroke-width="1.5"/>
    <text x="50.5" y="25" font-family="ui-sans-serif, Inter, sans-serif" font-weight="700" font-size="14" letter-spacing="2.5" fill="#d4862a" text-anchor="middle">ARTICLE</text>
  </g>
  <text x="80" y="465" font-family="ui-sans-serif, -apple-system, Segoe UI, Inter, sans-serif" font-weight="800" font-size="44" fill="#faf8f5" opacity="0.98"><tspan x="80" dy="0">What are the ways to</tspan><tspan x="80" dy="56">Celebrate International</tspan><tspan x="80" dy="56">mothers Day 2024</tspan></text>
  <rect x="0" y="669" width="1200" height="6" fill="url(#gold)"/>
</svg>