<?xml version="1.0" encoding="UTF-8"?>
<svg xmlns="http://www.w3.org/2000/svg" viewBox="0 0 1200 675" width="1200" height="675" role="img" aria-label="What are the challenges faced by banking sectors by npa.">
  <defs>
    <linearGradient id="bg" x1="0%" y1="0%" x2="100%" y2="100%">
      <stop offset="0%" stop-color="#12100e"/>
      <stop offset="100%" stop-color="#1c1917"/>
    </linearGradient>
    <linearGradient id="gold" x1="0%" y1="0%" x2="100%" y2="100%">
      <stop offset="0%" stop-color="#bd6b20"/>
      <stop offset="100%" stop-color="#e09440"/>
    </linearGradient>
    <radialGradient id="glow" cx="50%" cy="50%" r="50%">
      <stop offset="0%" stop-color="#bd6b20" stop-opacity="0.45"/>
      <stop offset="100%" stop-color="#bd6b20" stop-opacity="0"/>
    </radialGradient>
  </defs>
  <rect width="1200" height="675" fill="url(#bg)"/>
  <polygon points="991.4,122.2 1217.2,46.5 1169.8,279.8" fill="#e09440" opacity="0.09"/><polygon points="949.0,219.6 1129.2,299.1 970.2,415.4" fill="#e09440" opacity="0.09"/><polygon points="423.6,96.1 244.3,214.9 231.1,0.3" fill="#e09440" opacity="0.12"/><polygon points="1182.6,227.2 1112.9,266.3 1113.8,186.4" fill="#e09440" opacity="0.07"/><polygon points="905.2,70.6 1067.8,221.9 916.5,384.5 753.9,233.1" fill="#e09440" opacity="0.07"/><polygon points="809.2,-14.6 751.8,107.7 674.6,-3.1" fill="#e09440" opacity="0.14"/><polygon points="820.3,336.3 692.1,320.8 769.6,217.6" fill="#e09440" opacity="0.18"/><polygon points="802.1,620.1 680.9,590.6 671.6,466.2 787.0,418.8 867.7,514.0" fill="#e09440" opacity="0.14"/><polygon points="1044.4,603.7 1136.2,561.8 1178.0,653.7 1086.2,695.5" fill="#e09440" opacity="0.18"/><polygon points="-30.2,294.5 189.9,356.9 25.8,516.3" fill="#e09440" opacity="0.15"/><polygon points="580.8,138.4 658.1,131.1 688.9,202.4 630.6,253.8 563.8,214.2" fill="#e09440" opacity="0.13"/><polygon points="1247.9,383.2 1074.0,450.8 1102.5,266.4" fill="#e09440" opacity="0.06"/><polygon points="-142.7,398.1 -55.6,177.4 165.0,264.5 78.0,485.2" fill="#e09440" opacity="0.13"/><polygon points="541.6,308.6 410.0,271.7 446.9,140.1 578.5,177.0" fill="#e09440" opacity="0.07"/><circle cx="936.0" cy="202.5" r="180" fill="url(#glow)"/>
  <g opacity="0.85" transform="translate(1020, 495)">
        <rect x="-46" y="-60" width="92" height="115" fill="#bd6b20" opacity="0.18" rx="6"/>
        <path d="M -28 -36 L 28 -36 M -28 -12 L 28 -12 M -28 12 L 18 12 M -28 36 L 28 36" stroke="#e09440" stroke-width="3" stroke-linecap="round"/>
      </g>
  <g transform="translate(80, 90)">
    <rect x="0" y="0" rx="20" ry="20" width="101" height="38" fill="#bd6b20" opacity="0.18" stroke="#bd6b20" stroke-width="1.5"/>
    <text x="50.5" y="25" font-family="ui-sans-serif, Inter, sans-serif" font-weight="700" font-size="14" letter-spacing="2.5" fill="#bd6b20" text-anchor="middle">ARTICLE</text>
  </g>
  <text x="80" y="465" font-family="ui-sans-serif, -apple-system, Segoe UI, Inter, sans-serif" font-weight="800" font-size="44" fill="#faf8f5" opacity="0.98"><tspan x="80" dy="0">What are the challenges</tspan><tspan x="80" dy="56">faced by banking sectors</tspan><tspan x="80" dy="56">by npa.</tspan></text>
  <rect x="0" y="669" width="1200" height="6" fill="url(#gold)"/>
</svg>