<?xml version="1.0" encoding="UTF-8"?>
<svg xmlns="http://www.w3.org/2000/svg" viewBox="0 0 1200 675" width="1200" height="675" role="img" aria-label="What are the new rules of  Government on Coaching Classes for Students Under 16">
  <defs>
    <linearGradient id="bg" x1="0%" y1="0%" x2="100%" y2="100%">
      <stop offset="0%" stop-color="#0c0a09"/>
      <stop offset="100%" stop-color="#291813"/>
    </linearGradient>
    <linearGradient id="gold" x1="0%" y1="0%" x2="100%" y2="100%">
      <stop offset="0%" stop-color="#d4862a"/>
      <stop offset="100%" stop-color="#bd6b20"/>
    </linearGradient>
    <radialGradient id="glow" cx="50%" cy="50%" r="50%">
      <stop offset="0%" stop-color="#d4862a" stop-opacity="0.45"/>
      <stop offset="100%" stop-color="#d4862a" stop-opacity="0"/>
    </radialGradient>
  </defs>
  <rect width="1200" height="675" fill="url(#bg)"/>
  <polygon points="-50,337.6 -20,335.7 10,332.5 40,328.0 70,322.4 100,315.9 130,308.4 160,300.3 190,291.6 220,282.7 250,273.6 280,264.6 310,255.9 340,247.7 370,240.1 400,233.4 430,227.7 460,223.1 490,219.7 520,217.7 550,216.9 580,217.6 610,219.5 640,222.8 670,227.3 700,233.0 730,239.6 760,247.1 790,255.3 820,263.9 850,272.9 880,282.0 910,291.0 940,299.7 970,307.8 1000,315.3 1030,322.0 1060,327.6 1090,332.2 1120,335.5 1150,337.5 1180,338.1 1210,337.4 1240,335.4 1250,725 -50,725" fill="#d4862a" opacity="0.08"/><polygon points="-50,280.0 -20,284.1 10,289.4 40,295.8 70,303.1 100,311.2 130,319.9 160,328.9 190,338.2 220,347.4 250,356.4 280,364.9 310,372.9 340,380.1 370,386.2 400,391.3 430,395.2 460,397.8 490,399.0 520,398.9 550,397.3 580,394.4 610,390.3 640,384.9 670,378.5 700,371.1 730,363.0 760,354.3 790,345.2 820,336.0 850,326.8 880,317.8 910,309.2 940,301.3 970,294.2 1000,288.1 1030,283.1 1060,279.3 1090,276.7 1120,275.6 1150,275.8 1180,277.5 1210,280.4 1240,284.7 1250,725 -50,725" fill="#d4862a" opacity="0.13"/><polygon points="-50,447.2 -20,442.6 10,437.5 40,432.1 70,426.4 100,420.7 130,415.0 160,409.4 190,404.1 220,399.2 250,394.8 280,391.1 310,388.0 340,385.7 370,384.2 400,383.5 430,383.7 460,384.8 490,386.7 520,389.4 550,392.8 580,396.9 610,401.6 640,406.7 670,412.1 700,417.8 730,423.5 760,429.2 790,434.8 820,440.1 850,444.9 880,449.3 910,453.0 940,456.0 970,458.3 1000,459.8 1030,460.4 1060,460.1 1090,459.0 1120,457.0 1150,454.3 1180,450.8 1210,446.7 1240,442.0 1250,725 -50,725" fill="#d4862a" opacity="0.18"/><polygon points="-50,465.2 -20,470.4 10,475.6 40,480.9 70,485.9 100,490.7 130,495.0 160,498.9 190,502.2 220,504.9 250,506.9 280,508.1 310,508.5 340,508.1 370,507.0 400,505.1 430,502.5 460,499.2 490,495.4 520,491.0 550,486.3 580,481.3 610,476.1 640,470.8 670,465.6 700,460.6 730,455.8 760,451.5 790,447.6 820,444.3 850,441.7 880,439.8 910,438.6 940,438.2 970,438.6 1000,439.8 1030,441.8 1060,444.4 1090,447.7 1120,451.6 1150,456.0 1180,460.7 1210,465.8 1240,471.0 1250,725 -50,725" fill="#d4862a" opacity="0.23"/><circle cx="300.0" cy="189.0" r="160" fill="url(#glow)"/>
  <g opacity="0.85" transform="translate(1020, 495)">
        <rect x="-46" y="-60" width="92" height="115" fill="#d4862a" opacity="0.18" rx="6"/>
        <path d="M -28 -36 L 28 -36 M -28 -12 L 28 -12 M -28 12 L 18 12 M -28 36 L 28 36" stroke="#bd6b20" stroke-width="3" stroke-linecap="round"/>
      </g>
  <g transform="translate(80, 90)">
    <rect x="0" y="0" rx="20" ry="20" width="101" height="38" fill="#d4862a" opacity="0.18" stroke="#d4862a" stroke-width="1.5"/>
    <text x="50.5" y="25" font-family="ui-sans-serif, Inter, sans-serif" font-weight="700" font-size="14" letter-spacing="2.5" fill="#d4862a" text-anchor="middle">ARTICLE</text>
  </g>
  <text x="80" y="465" font-family="ui-sans-serif, -apple-system, Segoe UI, Inter, sans-serif" font-weight="800" font-size="44" fill="#faf8f5" opacity="0.98"><tspan x="80" dy="0">What are the new rules of</tspan><tspan x="80" dy="56">Government on Coaching</tspan><tspan x="80" dy="56">Classes for Students Under</tspan></text>
  <rect x="0" y="669" width="1200" height="6" fill="url(#gold)"/>
</svg>