<?xml version="1.0" encoding="UTF-8"?>
<svg xmlns="http://www.w3.org/2000/svg" viewBox="0 0 1200 675" width="1200" height="675" role="img" aria-label="Chemical Products Supplier vs. Food Wholesaler: A Dispute Resolved through Quality Audit">
  <defs>
    <linearGradient id="bg" x1="0%" y1="0%" x2="100%" y2="100%">
      <stop offset="0%" stop-color="#532d15"/>
      <stop offset="100%" stop-color="#bd6b20"/>
    </linearGradient>
    <linearGradient id="gold" x1="0%" y1="0%" x2="100%" y2="100%">
      <stop offset="0%" stop-color="#e09440"/>
      <stop offset="100%" stop-color="#fdf6ee"/>
    </linearGradient>
    <radialGradient id="glow" cx="50%" cy="50%" r="50%">
      <stop offset="0%" stop-color="#e09440" stop-opacity="0.45"/>
      <stop offset="100%" stop-color="#e09440" stop-opacity="0"/>
    </radialGradient>
  </defs>
  <rect width="1200" height="675" fill="url(#bg)"/>
  <polygon points="-50,238.0 -20,237.5 10,237.9 40,239.3 70,241.5 100,244.6 130,248.5 160,253.0 190,258.1 220,263.8 250,269.7 280,275.9 310,282.1 340,288.3 370,294.2 400,299.8 430,305.0 460,309.5 490,313.4 520,316.5 550,318.8 580,320.2 610,320.6 640,320.2 670,318.7 700,316.4 730,313.3 760,309.4 790,304.8 820,299.6 850,294.0 880,288.1 910,281.9 940,275.7 970,269.5 1000,263.6 1030,258.0 1060,252.8 1090,248.3 1120,244.5 1150,241.4 1180,239.2 1210,237.9 1240,237.5 1250,725 -50,725" fill="#e09440" opacity="0.08"/><polygon points="-50,383.5 -20,386.7 10,389.1 40,390.8 70,391.7 100,391.7 130,391.0 160,389.5 190,387.2 220,384.2 250,380.6 280,376.4 310,371.8 340,366.7 370,361.5 400,356.1 430,350.7 460,345.4 490,340.3 520,335.6 550,331.4 580,327.7 610,324.6 640,322.2 670,320.6 700,319.7 730,319.7 760,320.5 790,322.0 820,324.3 850,327.4 880,331.0 910,335.2 940,339.9 970,344.9 1000,350.2 1030,355.6 1060,361.0 1090,366.3 1120,371.3 1150,376.0 1180,380.2 1210,383.9 1240,387.0 1250,725 -50,725" fill="#e09440" opacity="0.13"/><polygon points="-50,398.1 -20,405.7 10,413.5 40,421.1 70,428.6 100,435.5 130,442.0 160,447.6 190,452.5 220,456.4 250,459.2 280,460.9 310,461.5 340,461.0 370,459.2 400,456.4 430,452.5 460,447.7 490,442.0 520,435.6 550,428.6 580,421.2 610,413.5 640,405.8 670,398.1 700,390.7 730,383.8 760,377.4 790,371.8 820,367.0 850,363.1 880,360.4 910,358.7 940,358.2 970,358.8 1000,360.6 1030,363.5 1060,367.4 1090,372.3 1120,378.0 1150,384.5 1180,391.5 1210,398.9 1240,406.6 1250,725 -50,725" fill="#e09440" opacity="0.18"/><polygon points="-50,427.8 -20,432.1 10,437.2 40,443.2 70,449.8 100,457.0 130,464.5 160,472.2 190,480.0 220,487.6 250,494.9 280,501.6 310,507.8 340,513.2 370,517.6 400,521.1 430,523.5 460,524.8 490,524.9 520,523.9 550,521.7 580,518.4 610,514.2 640,509.0 670,502.9 700,496.3 730,489.1 760,481.5 790,473.8 820,466.1 850,458.5 880,451.2 910,444.5 940,438.4 970,433.0 1000,428.6 1030,425.2 1060,422.9 1090,421.6 1120,421.6 1150,422.7 1180,424.9 1210,428.3 1240,432.6 1250,725 -50,725" fill="#e09440" opacity="0.23"/><circle cx="300.0" cy="189.0" r="160" fill="url(#glow)"/>
  <g opacity="0.85" transform="translate(1020, 495)">
        <circle r="60" fill="#e09440" opacity="0.18"/>
        <path d="M -34 6 Q -10 -22 14 6 Q 34 24 14 26 L -22 26 Q -38 24 -34 6 Z" fill="none" stroke="#fdf6ee" stroke-width="3" stroke-linejoin="round"/>
      </g>
  <g transform="translate(80, 90)">
    <rect x="0" y="0" rx="20" ry="20" width="134" height="38" fill="#e09440" opacity="0.18" stroke="#e09440" stroke-width="1.5"/>
    <text x="67" y="25" font-family="ui-sans-serif, Inter, sans-serif" font-weight="700" font-size="14" letter-spacing="2.5" fill="#e09440" text-anchor="middle">CASE STUDY</text>
  </g>
  <text x="80" y="465" font-family="ui-sans-serif, -apple-system, Segoe UI, Inter, sans-serif" font-weight="800" font-size="44" fill="#faf8f5" opacity="0.98"><tspan x="80" dy="0">Chemical Products Supplier</tspan><tspan x="80" dy="56">vs. Food Wholesaler: A</tspan><tspan x="80" dy="56">Dispute Resolved through</tspan></text>
  <rect x="0" y="669" width="1200" height="6" fill="url(#gold)"/>
</svg>