<?xml version="1.0" encoding="UTF-8"?>
<svg xmlns="http://www.w3.org/2000/svg" viewBox="0 0 1200 675" width="1200" height="675" role="img" aria-label="Resolving a Payment Dispute: A Case Study in Chemical Manufacturing">
  <defs>
    <linearGradient id="bg" x1="0%" y1="0%" x2="100%" y2="100%">
      <stop offset="0%" stop-color="#0c0a09"/>
      <stop offset="100%" stop-color="#291813"/>
    </linearGradient>
    <linearGradient id="gold" x1="0%" y1="0%" x2="100%" y2="100%">
      <stop offset="0%" stop-color="#d4862a"/>
      <stop offset="100%" stop-color="#bd6b20"/>
    </linearGradient>
    <radialGradient id="glow" cx="50%" cy="50%" r="50%">
      <stop offset="0%" stop-color="#d4862a" stop-opacity="0.45"/>
      <stop offset="100%" stop-color="#d4862a" stop-opacity="0"/>
    </radialGradient>
  </defs>
  <rect width="1200" height="675" fill="url(#bg)"/>
  <polygon points="755.7,508.7 874.8,694.5 689.0,813.6 569.9,627.8" fill="#bd6b20" opacity="0.16"/><polygon points="1218.5,182.5 1096.5,387.0 891.9,265.0 1013.9,60.4" fill="#bd6b20" opacity="0.08"/><polygon points="895.0,253.8 1048.2,310.9 991.1,464.2 837.9,407.0" fill="#bd6b20" opacity="0.17"/><polygon points="978.5,695.5 951.3,497.1 1149.7,469.9 1176.9,668.3" fill="#bd6b20" opacity="0.18"/><polygon points="332.7,131.0 429.6,60.2 442.5,179.6" fill="#bd6b20" opacity="0.14"/><polygon points="837.1,45.4 931.0,195.4 817.4,331.0 653.2,264.9 665.4,88.3" fill="#bd6b20" opacity="0.06"/><polygon points="39.7,115.5 36.5,228.5 -59.7,169.2" fill="#bd6b20" opacity="0.10"/><polygon points="1054.7,563.9 867.0,502.6 928.2,314.9 1115.9,376.2" fill="#bd6b20" opacity="0.09"/><polygon points="323.9,409.4 243.5,226.4 442.2,248.2" fill="#bd6b20" opacity="0.13"/><polygon points="664.8,258.8 507.4,308.3 543.3,147.3" fill="#bd6b20" opacity="0.12"/><polygon points="1228.0,447.7 1082.3,545.4 944.3,437.1 1004.8,272.4 1180.1,279.0" fill="#bd6b20" opacity="0.12"/><polygon points="1162.2,100.4 1195.0,169.5 1125.9,202.3 1093.1,133.2" fill="#bd6b20" opacity="0.10"/><polygon points="539.1,260.6 709.0,232.9 787.8,385.9 666.7,508.2 513.0,430.8" fill="#bd6b20" opacity="0.06"/><polygon points="1279.9,352.7 1292.6,517.8 1139.5,580.9 1032.2,454.8 1119.0,313.8" fill="#bd6b20" opacity="0.15"/><circle cx="936.0" cy="202.5" r="180" fill="url(#glow)"/>
  <g opacity="0.85" transform="translate(1020, 495)">
        <circle r="60" fill="#d4862a" opacity="0.18"/>
        <path d="M -34 6 Q -10 -22 14 6 Q 34 24 14 26 L -22 26 Q -38 24 -34 6 Z" fill="none" stroke="#bd6b20" stroke-width="3" stroke-linejoin="round"/>
      </g>
  <g transform="translate(80, 90)">
    <rect x="0" y="0" rx="20" ry="20" width="134" height="38" fill="#d4862a" opacity="0.18" stroke="#d4862a" stroke-width="1.5"/>
    <text x="67" y="25" font-family="ui-sans-serif, Inter, sans-serif" font-weight="700" font-size="14" letter-spacing="2.5" fill="#d4862a" text-anchor="middle">CASE STUDY</text>
  </g>
  <text x="80" y="465" font-family="ui-sans-serif, -apple-system, Segoe UI, Inter, sans-serif" font-weight="800" font-size="44" fill="#faf8f5" opacity="0.98"><tspan x="80" dy="0">Resolving a Payment</tspan><tspan x="80" dy="56">Dispute: A Case Study in</tspan><tspan x="80" dy="56">Chemical Manufacturing</tspan></text>
  <rect x="0" y="669" width="1200" height="6" fill="url(#gold)"/>
</svg>