<?xml version="1.0" encoding="UTF-8"?>
<svg xmlns="http://www.w3.org/2000/svg" viewBox="0 0 1200 675" width="1200" height="675" role="img" aria-label="Resolving a 3D Printer Order Dispute: A Kolhapur Case Study">
  <defs>
    <linearGradient id="bg" x1="0%" y1="0%" x2="100%" y2="100%">
      <stop offset="0%" stop-color="#12100e"/>
      <stop offset="100%" stop-color="#1c1917"/>
    </linearGradient>
    <linearGradient id="gold" x1="0%" y1="0%" x2="100%" y2="100%">
      <stop offset="0%" stop-color="#bd6b20"/>
      <stop offset="100%" stop-color="#e09440"/>
    </linearGradient>
    <radialGradient id="glow" cx="50%" cy="50%" r="50%">
      <stop offset="0%" stop-color="#bd6b20" stop-opacity="0.45"/>
      <stop offset="100%" stop-color="#bd6b20" stop-opacity="0"/>
    </radialGradient>
  </defs>
  <rect width="1200" height="675" fill="url(#bg)"/>
  <rect x="-662.6" y="-80" width="87.5" height="875" transform="rotate(18 -662.6 337.5)" fill="#bd6b20" opacity="0.13"/><rect x="-505.1" y="-80" width="68.6" height="875" transform="rotate(18 -505.1 337.5)" fill="#bd6b20" opacity="0.09"/><rect x="-317.6" y="-80" width="88.1" height="875" transform="rotate(18 -317.6 337.5)" fill="#bd6b20" opacity="0.16"/><rect x="-144.9" y="-80" width="117.8" height="875" transform="rotate(18 -144.9 337.5)" fill="#bd6b20" opacity="0.13"/><rect x="66.4" y="-80" width="137.6" height="875" transform="rotate(18 66.4 337.5)" fill="#bd6b20" opacity="0.15"/><rect x="247.9" y="-80" width="92.1" height="875" transform="rotate(18 247.9 337.5)" fill="#bd6b20" opacity="0.08"/><rect x="381.5" y="-80" width="129.4" height="875" transform="rotate(18 381.5 337.5)" fill="#bd6b20" opacity="0.18"/><rect x="604.0" y="-80" width="83.4" height="875" transform="rotate(18 604.0 337.5)" fill="#bd6b20" opacity="0.14"/><rect x="761.3" y="-80" width="129.4" height="875" transform="rotate(18 761.3 337.5)" fill="#bd6b20" opacity="0.10"/><rect x="904.6" y="-80" width="96.1" height="875" transform="rotate(18 904.6 337.5)" fill="#bd6b20" opacity="0.11"/><rect x="1081.9" y="-80" width="115.0" height="875" transform="rotate(18 1081.9 337.5)" fill="#bd6b20" opacity="0.11"/><rect x="1288.3" y="-80" width="78.9" height="875" transform="rotate(18 1288.3 337.5)" fill="#bd6b20" opacity="0.15"/><rect x="1480.6" y="-80" width="82.7" height="875" transform="rotate(18 1480.6 337.5)" fill="#bd6b20" opacity="0.16"/><rect x="1622.6" y="-80" width="67.8" height="875" transform="rotate(18 1622.6 337.5)" fill="#bd6b20" opacity="0.12"/><rect x="0" y="0" width="1200" height="675" fill="url(#glow)" opacity="0.6"/>
  <g opacity="0.85" transform="translate(1020, 495)">
        <circle r="60" fill="#bd6b20" opacity="0.18"/>
        <path d="M -34 6 Q -10 -22 14 6 Q 34 24 14 26 L -22 26 Q -38 24 -34 6 Z" fill="none" stroke="#e09440" stroke-width="3" stroke-linejoin="round"/>
      </g>
  <g transform="translate(80, 90)">
    <rect x="0" y="0" rx="20" ry="20" width="134" height="38" fill="#bd6b20" opacity="0.18" stroke="#bd6b20" stroke-width="1.5"/>
    <text x="67" y="25" font-family="ui-sans-serif, Inter, sans-serif" font-weight="700" font-size="14" letter-spacing="2.5" fill="#bd6b20" text-anchor="middle">CASE STUDY</text>
  </g>
  <text x="80" y="465" font-family="ui-sans-serif, -apple-system, Segoe UI, Inter, sans-serif" font-weight="800" font-size="44" fill="#faf8f5" opacity="0.98"><tspan x="80" dy="0">Resolving a 3D Printer</tspan><tspan x="80" dy="56">Order Dispute: A Kolhapur</tspan><tspan x="80" dy="56">Case Study</tspan></text>
  <rect x="0" y="669" width="1200" height="6" fill="url(#gold)"/>
</svg>