<?xml version="1.0" encoding="UTF-8"?>
<svg xmlns="http://www.w3.org/2000/svg" viewBox="0 0 1200 675" width="1200" height="675" role="img" aria-label="Mediated Settlement: Resolving a Computer Peripherals Dispute in Maharashtra">
  <defs>
    <linearGradient id="bg" x1="0%" y1="0%" x2="100%" y2="100%">
      <stop offset="0%" stop-color="#532d15"/>
      <stop offset="100%" stop-color="#bd6b20"/>
    </linearGradient>
    <linearGradient id="gold" x1="0%" y1="0%" x2="100%" y2="100%">
      <stop offset="0%" stop-color="#e09440"/>
      <stop offset="100%" stop-color="#fdf6ee"/>
    </linearGradient>
    <radialGradient id="glow" cx="50%" cy="50%" r="50%">
      <stop offset="0%" stop-color="#e09440" stop-opacity="0.45"/>
      <stop offset="100%" stop-color="#e09440" stop-opacity="0"/>
    </radialGradient>
  </defs>
  <rect width="1200" height="675" fill="url(#bg)"/>
  <polygon points="518.6,177.1 342.8,171.2 348.7,-4.6 524.5,1.3" fill="#fdf6ee" opacity="0.13"/><polygon points="3.1,189.0 177.8,93.0 273.9,267.7 99.1,363.8" fill="#fdf6ee" opacity="0.08"/><polygon points="214.9,513.3 457.3,439.2 400.3,686.2" fill="#fdf6ee" opacity="0.12"/><polygon points="1159.4,68.2 1146.8,306.3 946.9,176.3" fill="#fdf6ee" opacity="0.17"/><polygon points="860.0,481.5 835.3,392.0 924.8,367.3 949.5,456.8" fill="#fdf6ee" opacity="0.11"/><polygon points="73.6,323.8 95.1,188.3 201.7,274.6" fill="#fdf6ee" opacity="0.15"/><polygon points="49.0,97.6 127.3,-10.9 254.7,30.1 255.1,163.9 128.0,205.6" fill="#fdf6ee" opacity="0.06"/><polygon points="271.4,320.4 165.2,393.4 63.0,314.9 106.0,193.5 234.8,196.9" fill="#fdf6ee" opacity="0.16"/><polygon points="1234.4,144.8 1259.2,315.2 1088.9,340.0 1064.1,169.6" fill="#fdf6ee" opacity="0.06"/><polygon points="1039.6,93.4 818.6,99.7 923.6,-94.8" fill="#fdf6ee" opacity="0.05"/><polygon points="167.3,331.6 210.7,242.4 266.2,324.6" fill="#fdf6ee" opacity="0.19"/><polygon points="71.4,305.2 297.1,282.9 319.5,508.6 93.7,530.9" fill="#fdf6ee" opacity="0.06"/><polygon points="1021.8,593.5 865.2,772.5 686.1,616.0 842.7,436.9" fill="#fdf6ee" opacity="0.16"/><polygon points="184.5,28.8 66.0,77.2 83.4,-49.6" fill="#fdf6ee" opacity="0.15"/><circle cx="936.0" cy="202.5" r="180" fill="url(#glow)"/>
  <g opacity="0.85" transform="translate(1020, 495)">
        <circle r="60" fill="#e09440" opacity="0.18"/>
        <path d="M -34 6 Q -10 -22 14 6 Q 34 24 14 26 L -22 26 Q -38 24 -34 6 Z" fill="none" stroke="#fdf6ee" stroke-width="3" stroke-linejoin="round"/>
      </g>
  <g transform="translate(80, 90)">
    <rect x="0" y="0" rx="20" ry="20" width="134" height="38" fill="#e09440" opacity="0.18" stroke="#e09440" stroke-width="1.5"/>
    <text x="67" y="25" font-family="ui-sans-serif, Inter, sans-serif" font-weight="700" font-size="14" letter-spacing="2.5" fill="#e09440" text-anchor="middle">CASE STUDY</text>
  </g>
  <text x="80" y="465" font-family="ui-sans-serif, -apple-system, Segoe UI, Inter, sans-serif" font-weight="800" font-size="44" fill="#faf8f5" opacity="0.98"><tspan x="80" dy="0">Mediated Settlement:</tspan><tspan x="80" dy="56">Resolving a Computer</tspan><tspan x="80" dy="56">Peripherals Dispute in</tspan></text>
  <rect x="0" y="669" width="1200" height="6" fill="url(#gold)"/>
</svg>