<?xml version="1.0" encoding="UTF-8"?>
<svg xmlns="http://www.w3.org/2000/svg" viewBox="0 0 1200 675" width="1200" height="675" role="img" aria-label="Join our team as a Conciliator &amp; be a part of our success">
  <defs>
    <linearGradient id="bg" x1="0%" y1="0%" x2="100%" y2="100%">
      <stop offset="0%" stop-color="#0c0a09"/>
      <stop offset="100%" stop-color="#291813"/>
    </linearGradient>
    <linearGradient id="gold" x1="0%" y1="0%" x2="100%" y2="100%">
      <stop offset="0%" stop-color="#d4862a"/>
      <stop offset="100%" stop-color="#bd6b20"/>
    </linearGradient>
    <radialGradient id="glow" cx="50%" cy="50%" r="50%">
      <stop offset="0%" stop-color="#d4862a" stop-opacity="0.45"/>
      <stop offset="100%" stop-color="#d4862a" stop-opacity="0"/>
    </radialGradient>
  </defs>
  <rect width="1200" height="675" fill="url(#bg)"/>
  <circle cx="31.0" cy="30.9" r="2.69" fill="#d4862a" opacity="0.19"/><circle cx="65.5" cy="27.5" r="2.62" fill="#d4862a" opacity="0.28"/><circle cx="101.9" cy="28.7" r="2.59" fill="#d4862a" opacity="0.24"/><circle cx="137.7" cy="28.6" r="2.81" fill="#d4862a" opacity="0.27"/><circle cx="172.5" cy="30.5" r="2.68" fill="#d4862a" opacity="0.25"/><circle cx="212.0" cy="29.7" r="3.35" fill="#d4862a" opacity="0.35"/><circle cx="243.6" cy="30.5" r="1.92" fill="#d4862a" opacity="0.29"/><circle cx="280.6" cy="30.1" r="1.96" fill="#d4862a" opacity="0.23"/><circle cx="315.8" cy="29.6" r="3.39" fill="#d4862a" opacity="0.15"/><circle cx="355.7" cy="32.5" r="2.72" fill="#d4862a" opacity="0.29"/><circle cx="391.2" cy="32.4" r="3.51" fill="#d4862a" opacity="0.23"/><circle cx="428.6" cy="31.4" r="1.87" fill="#d4862a" opacity="0.24"/><circle cx="463.8" cy="27.2" r="2.74" fill="#d4862a" opacity="0.30"/><circle cx="499.4" cy="30.6" r="2.61" fill="#d4862a" opacity="0.31"/><circle cx="533.1" cy="30.6" r="2.25" fill="#d4862a" opacity="0.26"/><circle cx="569.5" cy="31.4" r="3.96" fill="#d4862a" opacity="0.27"/><circle cx="606.6" cy="32.5" r="2.67" fill="#d4862a" opacity="0.34"/><circle cx="639.9" cy="30.7" r="3.22" fill="#d4862a" opacity="0.18"/><circle cx="679.6" cy="31.0" r="3.00" fill="#d4862a" opacity="0.31"/><circle cx="716.9" cy="32.5" r="3.76" fill="#d4862a" opacity="0.29"/><circle cx="747.1" cy="28.3" r="2.16" fill="#d4862a" opacity="0.17"/><circle cx="783.1" cy="28.4" r="3.87" fill="#d4862a" opacity="0.28"/><circle cx="821.0" cy="31.2" r="3.43" fill="#d4862a" opacity="0.27"/><circle cx="856.8" cy="27.2" r="3.19" fill="#d4862a" opacity="0.23"/><circle cx="892.3" cy="29.1" r="3.60" fill="#d4862a" opacity="0.16"/><circle cx="931.9" cy="30.8" r="3.52" fill="#d4862a" opacity="0.34"/><circle cx="963.3" cy="27.0" r="2.30" fill="#d4862a" opacity="0.33"/><circle cx="1002.9" cy="28.5" r="2.95" fill="#d4862a" opacity="0.23"/><circle cx="1036.9" cy="27.1" r="2.44" fill="#d4862a" opacity="0.19"/><circle cx="1071.1" cy="27.3" r="2.57" fill="#d4862a" opacity="0.17"/><circle cx="1108.3" cy="30.5" r="1.79" fill="#d4862a" opacity="0.26"/><circle cx="1143.5" cy="32.5" r="2.08" fill="#d4862a" opacity="0.30"/><circle cx="1182.3" cy="29.2" r="3.49" fill="#d4862a" opacity="0.29"/><circle cx="28.9" cy="67.1" r="2.84" fill="#d4862a" opacity="0.22"/><circle cx="64.7" cy="67.1" r="3.41" fill="#d4862a" opacity="0.23"/><circle cx="102.6" cy="68.0" r="3.66" fill="#d4862a" opacity="0.35"/><circle cx="137.6" cy="64.8" r="1.82" fill="#d4862a" opacity="0.23"/><circle cx="176.6" cy="64.5" r="2.68" fill="#d4862a" opacity="0.25"/><circle cx="208.3" cy="66.9" r="2.69" fill="#d4862a" opacity="0.19"/><circle cx="243.6" cy="68.2" r="2.92" fill="#d4862a" opacity="0.33"/><circle cx="280.4" cy="64.3" r="1.61" fill="#d4862a" opacity="0.22"/><circle cx="318.0" cy="66.8" r="3.65" fill="#d4862a" opacity="0.22"/><circle cx="355.7" cy="64.9" r="3.56" fill="#d4862a" opacity="0.21"/><circle cx="389.0" cy="64.3" r="3.67" fill="#d4862a" opacity="0.23"/><circle cx="424.0" cy="63.1" r="2.04" fill="#d4862a" opacity="0.26"/><circle cx="461.4" cy="66.6" r="1.87" fill="#d4862a" opacity="0.28"/><circle cx="499.6" cy="63.2" r="2.07" fill="#d4862a" opacity="0.28"/><circle cx="532.4" cy="63.5" r="1.91" fill="#d4862a" opacity="0.22"/><circle cx="569.8" cy="63.5" r="2.72" fill="#d4862a" opacity="0.19"/><circle cx="604.6" cy="63.1" r="2.88" fill="#d4862a" opacity="0.34"/><circle cx="643.7" cy="67.9" r="2.91" fill="#d4862a" opacity="0.29"/><circle cx="675.9" cy="66.9" r="3.58" fill="#d4862a" opacity="0.25"/><circle cx="716.8" cy="67.7" r="2.08" fill="#d4862a" opacity="0.32"/><circle cx="751.9" cy="67.0" r="3.28" fill="#d4862a" opacity="0.28"/><circle cx="787.2" cy="65.7" r="3.41" fill="#d4862a" opacity="0.30"/><circle cx="819.0" cy="66.6" r="3.44" fill="#d4862a" opacity="0.27"/><circle cx="856.2" cy="68.4" r="3.09" fill="#d4862a" opacity="0.16"/><circle cx="896.2" cy="69.0" r="3.54" fill="#d4862a" opacity="0.28"/><circle cx="927.1" cy="68.5" r="3.93" fill="#d4862a" opacity="0.22"/><circle cx="963.2" cy="65.9" r="2.07" fill="#d4862a" opacity="0.23"/><circle cx="999.2" cy="68.5" r="3.73" fill="#d4862a" opacity="0.19"/><circle cx="1038.4" cy="64.6" r="1.86" fill="#d4862a" opacity="0.25"/><circle cx="1072.0" cy="68.3" r="3.81" fill="#d4862a" opacity="0.23"/><circle cx="1112.9" cy="68.0" r="2.96" fill="#d4862a" opacity="0.18"/><circle cx="1148.1" cy="68.4" r="2.43" fill="#d4862a" opacity="0.29"/><circle cx="1179.9" cy="65.0" r="2.69" fill="#d4862a" opacity="0.32"/><circle cx="31.4" cy="102.1" r="1.74" fill="#d4862a" opacity="0.16"/><circle cx="67.2" cy="103.3" r="3.99" fill="#d4862a" opacity="0.18"/><circle cx="104.6" cy="99.4" r="2.45" fill="#d4862a" opacity="0.23"/><circle cx="138.0" cy="101.2" r="3.93" fill="#d4862a" opacity="0.29"/><circle cx="171.4" cy="104.2" r="1.62" fill="#d4862a" opacity="0.35"/><circle cx="209.9" cy="100.4" r="2.90" fill="#d4862a" opacity="0.17"/><circle cx="245.2" cy="102.9" r="2.63" fill="#d4862a" opacity="0.30"/><circle cx="283.9" cy="99.9" r="2.93" fill="#d4862a" opacity="0.36"/><circle cx="315.4" cy="101.3" r="2.13" fill="#d4862a" opacity="0.24"/><circle cx="354.2" cy="100.9" r="1.66" fill="#d4862a" opacity="0.16"/><circle cx="391.3" cy="104.6" r="1.96" fill="#d4862a" opacity="0.31"/><circle cx="425.9" cy="104.2" r="2.29" fill="#d4862a" opacity="0.34"/><circle cx="463.0" cy="100.6" r="2.92" fill="#d4862a" opacity="0.35"/><circle cx="495.4" cy="104.3" r="1.60" fill="#d4862a" opacity="0.30"/><circle cx="532.1" cy="99.2" r="3.00" fill="#d4862a" opacity="0.30"/><circle cx="572.7" cy="102.6" r="1.62" fill="#d4862a" opacity="0.30"/><circle cx="608.6" cy="102.1" r="3.52" fill="#d4862a" opacity="0.18"/><circle cx="641.1" cy="99.7" r="3.30" fill="#d4862a" opacity="0.36"/><circle cx="679.3" cy="100.0" r="1.74" fill="#d4862a" opacity="0.34"/><circle cx="716.4" cy="99.2" r="1.78" fill="#d4862a" opacity="0.27"/><circle cx="751.5" cy="104.9" r="1.68" fill="#d4862a" opacity="0.28"/><circle cx="786.9" cy="101.9" r="3.42" fill="#d4862a" opacity="0.35"/><circle cx="822.1" cy="99.8" r="3.65" fill="#d4862a" opacity="0.34"/><circle cx="857.7" cy="103.7" r="3.61" fill="#d4862a" opacity="0.29"/><circle cx="893.7" cy="103.6" r="3.15" fill="#d4862a" opacity="0.19"/><circle cx="932.3" cy="103.0" r="1.80" fill="#d4862a" opacity="0.28"/><circle cx="966.2" cy="102.9" r="1.93" fill="#d4862a" opacity="0.19"/><circle cx="1003.1" cy="101.7" r="2.69" fill="#d4862a" opacity="0.24"/><circle cx="1036.5" cy="104.3" r="2.60" fill="#d4862a" opacity="0.19"/><circle cx="1072.9" cy="104.8" r="2.48" fill="#d4862a" opacity="0.25"/><circle cx="1107.5" cy="99.5" r="1.84" fill="#d4862a" opacity="0.25"/><circle cx="1143.1" cy="102.9" r="3.13" fill="#d4862a" opacity="0.16"/><circle cx="1179.7" cy="99.2" r="3.01" fill="#d4862a" opacity="0.21"/><circle cx="28.3" cy="138.2" r="3.56" fill="#d4862a" opacity="0.21"/><circle cx="67.3" cy="137.0" r="3.27" fill="#d4862a" opacity="0.23"/><circle cx="103.0" cy="136.9" r="2.25" fill="#d4862a" opacity="0.20"/><circle cx="135.5" cy="139.0" r="3.04" fill="#d4862a" opacity="0.30"/><circle cx="175.3" cy="136.0" r="2.47" fill="#d4862a" opacity="0.35"/><circle cx="212.6" cy="138.2" r="3.12" fill="#d4862a" opacity="0.26"/><circle cx="244.9" cy="140.9" r="3.59" fill="#d4862a" opacity="0.21"/><circle cx="279.8" cy="136.9" r="3.14" fill="#d4862a" opacity="0.27"/><circle cx="318.1" cy="139.1" r="2.53" fill="#d4862a" opacity="0.26"/><circle cx="352.1" cy="139.0" r="3.86" fill="#d4862a" opacity="0.33"/><circle cx="391.8" cy="139.2" r="3.58" fill="#d4862a" opacity="0.30"/><circle cx="428.4" cy="137.9" r="2.72" fill="#d4862a" opacity="0.17"/><circle cx="462.0" cy="137.6" r="3.74" fill="#d4862a" opacity="0.21"/><circle cx="497.3" cy="135.9" r="2.51" fill="#d4862a" opacity="0.26"/><circle cx="534.6" cy="138.8" r="2.83" fill="#d4862a" opacity="0.18"/><circle cx="567.7" cy="138.1" r="2.04" fill="#d4862a" opacity="0.28"/><circle cx="605.9" cy="138.9" r="3.39" fill="#d4862a" opacity="0.33"/><circle cx="640.0" cy="138.8" r="1.94" fill="#d4862a" opacity="0.34"/><circle cx="676.6" cy="138.7" r="1.65" fill="#d4862a" opacity="0.24"/><circle cx="715.6" cy="140.0" r="3.61" fill="#d4862a" opacity="0.19"/><circle cx="747.8" cy="139.9" r="2.04" fill="#d4862a" opacity="0.31"/><circle cx="784.8" cy="139.3" r="3.51" fill="#d4862a" opacity="0.32"/><circle cx="819.8" cy="140.4" r="2.40" fill="#d4862a" opacity="0.33"/><circle cx="856.2" cy="139.6" r="2.02" fill="#d4862a" opacity="0.29"/><circle cx="892.5" cy="135.5" r="3.41" fill="#d4862a" opacity="0.16"/><circle cx="932.3" cy="137.4" r="3.01" fill="#d4862a" opacity="0.27"/><circle cx="963.5" cy="137.3" r="3.58" fill="#d4862a" opacity="0.33"/><circle cx="1001.7" cy="136.0" r="2.41" fill="#d4862a" opacity="0.29"/><circle cx="1035.4" cy="135.2" r="3.74" fill="#d4862a" opacity="0.36"/><circle cx="1073.6" cy="138.1" r="3.53" fill="#d4862a" opacity="0.27"/><circle cx="1109.0" cy="140.6" r="2.09" fill="#d4862a" opacity="0.33"/><circle cx="1144.6" cy="135.0" r="3.55" fill="#d4862a" opacity="0.35"/><circle cx="1182.8" cy="138.7" r="3.28" fill="#d4862a" opacity="0.28"/><circle cx="30.4" cy="174.3" r="2.68" fill="#d4862a" opacity="0.30"/><circle cx="68.7" cy="175.6" r="2.59" fill="#d4862a" opacity="0.35"/><circle cx="104.7" cy="176.5" r="2.23" fill="#d4862a" opacity="0.22"/><circle cx="135.0" cy="171.5" r="2.96" fill="#d4862a" opacity="0.32"/><circle cx="173.5" cy="172.6" r="1.64" fill="#d4862a" opacity="0.32"/><circle cx="211.2" cy="175.0" r="1.64" fill="#d4862a" opacity="0.34"/><circle cx="246.2" cy="176.7" r="2.05" fill="#d4862a" opacity="0.29"/><circle cx="280.4" cy="176.5" r="2.80" fill="#d4862a" opacity="0.27"/><circle cx="320.3" cy="176.0" r="3.66" fill="#d4862a" opacity="0.31"/><circle cx="356.8" cy="172.4" r="3.07" fill="#d4862a" opacity="0.34"/><circle cx="392.8" cy="175.8" r="2.11" fill="#d4862a" opacity="0.34"/><circle cx="425.3" cy="175.8" r="3.36" fill="#d4862a" opacity="0.32"/><circle cx="464.1" cy="175.7" r="2.04" fill="#d4862a" opacity="0.36"/><circle cx="496.8" cy="175.9" r="2.52" fill="#d4862a" opacity="0.18"/><circle cx="534.0" cy="173.7" r="2.35" fill="#d4862a" opacity="0.15"/><circle cx="572.4" cy="175.7" r="3.26" fill="#d4862a" opacity="0.24"/><circle cx="605.4" cy="171.9" r="3.26" fill="#d4862a" opacity="0.27"/><circle cx="639.0" cy="173.7" r="3.59" fill="#d4862a" opacity="0.33"/><circle cx="678.4" cy="176.1" r="2.75" fill="#d4862a" opacity="0.26"/><circle cx="716.1" cy="175.1" r="3.39" fill="#d4862a" opacity="0.25"/><circle cx="750.4" cy="175.4" r="2.35" fill="#d4862a" opacity="0.28"/><circle cx="785.2" cy="171.5" r="3.46" fill="#d4862a" opacity="0.18"/><circle cx="821.1" cy="174.8" r="3.09" fill="#d4862a" opacity="0.16"/><circle cx="856.1" cy="173.7" r="2.17" fill="#d4862a" opacity="0.22"/><circle cx="891.7" cy="172.4" r="2.79" fill="#d4862a" opacity="0.17"/><circle cx="932.9" cy="173.2" r="1.75" fill="#d4862a" opacity="0.17"/><circle cx="964.6" cy="171.4" r="3.62" fill="#d4862a" opacity="0.21"/><circle cx="999.4" cy="174.6" r="2.72" fill="#d4862a" opacity="0.34"/><circle cx="1039.1" cy="173.0" r="1.91" fill="#d4862a" opacity="0.24"/><circle cx="1074.3" cy="173.5" r="2.63" fill="#d4862a" opacity="0.21"/><circle cx="1111.9" cy="173.2" r="2.27" fill="#d4862a" opacity="0.26"/><circle cx="1143.9" cy="174.4" r="1.95" fill="#d4862a" opacity="0.26"/><circle cx="1184.3" cy="175.2" r="3.74" fill="#d4862a" opacity="0.21"/><circle cx="31.0" cy="208.6" r="3.65" fill="#d4862a" opacity="0.27"/><circle cx="65.8" cy="207.9" r="2.14" fill="#d4862a" opacity="0.28"/><circle cx="104.9" cy="210.3" r="3.24" fill="#d4862a" opacity="0.26"/><circle cx="138.6" cy="209.2" r="2.74" fill="#d4862a" opacity="0.25"/><circle cx="175.5" cy="208.8" r="2.85" fill="#d4862a" opacity="0.17"/><circle cx="209.1" cy="212.3" r="3.73" fill="#d4862a" opacity="0.20"/><circle cx="246.7" cy="211.7" r="2.55" fill="#d4862a" opacity="0.27"/><circle cx="283.3" cy="209.9" r="1.70" fill="#d4862a" opacity="0.21"/><circle cx="319.1" cy="211.2" r="3.02" fill="#d4862a" opacity="0.27"/><circle cx="355.1" cy="208.7" r="2.78" fill="#d4862a" opacity="0.21"/><circle cx="388.3" cy="212.3" r="2.32" fill="#d4862a" opacity="0.26"/><circle cx="425.4" cy="208.7" r="3.15" fill="#d4862a" opacity="0.28"/><circle cx="465.0" cy="208.9" r="1.92" fill="#d4862a" opacity="0.23"/><circle cx="495.7" cy="210.5" r="3.61" fill="#d4862a" opacity="0.34"/><circle cx="534.9" cy="207.1" r="3.25" fill="#d4862a" opacity="0.35"/><circle cx="572.7" cy="212.0" r="3.18" fill="#d4862a" opacity="0.21"/><circle cx="603.5" cy="211.2" r="2.77" fill="#d4862a" opacity="0.36"/><circle cx="639.3" cy="209.8" r="3.68" fill="#d4862a" opacity="0.21"/><circle cx="678.4" cy="207.7" r="2.29" fill="#d4862a" opacity="0.29"/><circle cx="711.6" cy="209.0" r="2.87" fill="#d4862a" opacity="0.33"/><circle cx="747.1" cy="211.9" r="2.65" fill="#d4862a" opacity="0.23"/><circle cx="784.9" cy="212.3" r="3.28" fill="#d4862a" opacity="0.16"/><circle cx="824.7" cy="211.2" r="2.67" fill="#d4862a" opacity="0.20"/><circle cx="857.5" cy="208.4" r="1.93" fill="#d4862a" opacity="0.31"/><circle cx="895.8" cy="211.6" r="3.23" fill="#d4862a" opacity="0.27"/><circle cx="929.6" cy="207.7" r="1.77" fill="#d4862a" opacity="0.29"/><circle cx="965.4" cy="212.4" r="3.47" fill="#d4862a" opacity="0.23"/><circle cx="1001.3" cy="210.0" r="2.11" fill="#d4862a" opacity="0.19"/><circle cx="1040.9" cy="212.5" r="2.36" fill="#d4862a" opacity="0.29"/><circle cx="1075.8" cy="207.2" r="1.88" fill="#d4862a" opacity="0.26"/><circle cx="1110.6" cy="207.9" r="3.88" fill="#d4862a" opacity="0.27"/><circle cx="1147.6" cy="207.9" r="2.70" fill="#d4862a" opacity="0.25"/><circle cx="1180.2" cy="207.6" r="3.22" fill="#d4862a" opacity="0.15"/><circle cx="28.7" cy="245.0" r="2.68" fill="#d4862a" opacity="0.34"/><circle cx="67.0" cy="248.6" r="3.41" fill="#d4862a" opacity="0.33"/><circle cx="102.3" cy="245.7" r="2.35" fill="#d4862a" opacity="0.21"/><circle cx="135.3" cy="243.3" r="3.93" fill="#d4862a" opacity="0.19"/><circle cx="174.0" cy="245.6" r="3.17" fill="#d4862a" opacity="0.27"/><circle cx="212.9" cy="243.8" r="3.38" fill="#d4862a" opacity="0.20"/><circle cx="245.9" cy="247.9" r="3.92" fill="#d4862a" opacity="0.33"/><circle cx="284.1" cy="248.3" r="3.36" fill="#d4862a" opacity="0.17"/><circle cx="319.7" cy="244.6" r="3.87" fill="#d4862a" opacity="0.35"/><circle cx="356.3" cy="244.6" r="2.11" fill="#d4862a" opacity="0.21"/><circle cx="391.3" cy="247.3" r="2.33" fill="#d4862a" opacity="0.18"/><circle cx="424.1" cy="248.1" r="1.64" fill="#d4862a" opacity="0.23"/><circle cx="460.0" cy="248.6" r="3.31" fill="#d4862a" opacity="0.23"/><circle cx="495.8" cy="244.8" r="2.22" fill="#d4862a" opacity="0.35"/><circle cx="531.4" cy="244.9" r="2.72" fill="#d4862a" opacity="0.16"/><circle cx="570.6" cy="248.4" r="3.01" fill="#d4862a" opacity="0.16"/><circle cx="607.1" cy="245.7" r="2.08" fill="#d4862a" opacity="0.21"/><circle cx="643.1" cy="243.5" r="3.37" fill="#d4862a" opacity="0.17"/><circle cx="680.3" cy="247.8" r="3.53" fill="#d4862a" opacity="0.30"/><circle cx="714.2" cy="245.9" r="3.56" fill="#d4862a" opacity="0.28"/><circle cx="750.3" cy="243.9" r="2.88" fill="#d4862a" opacity="0.16"/><circle cx="786.5" cy="248.6" r="3.36" fill="#d4862a" opacity="0.33"/><circle cx="824.4" cy="243.7" r="3.16" fill="#d4862a" opacity="0.31"/><circle cx="855.8" cy="246.5" r="2.91" fill="#d4862a" opacity="0.21"/><circle cx="892.3" cy="243.3" r="2.07" fill="#d4862a" opacity="0.33"/><circle cx="931.5" cy="246.4" r="3.51" fill="#d4862a" opacity="0.29"/><circle cx="963.0" cy="245.8" r="3.73" fill="#d4862a" opacity="0.16"/><circle cx="1000.7" cy="246.9" r="3.94" fill="#d4862a" opacity="0.28"/><circle cx="1037.5" cy="245.5" r="3.58" fill="#d4862a" opacity="0.31"/><circle cx="1072.5" cy="246.5" r="3.30" fill="#d4862a" opacity="0.33"/><circle cx="1111.2" cy="246.3" r="3.79" fill="#d4862a" opacity="0.32"/><circle cx="1147.1" cy="244.5" r="2.69" fill="#d4862a" opacity="0.15"/><circle cx="1180.9" cy="246.8" r="3.43" fill="#d4862a" opacity="0.20"/><circle cx="30.3" cy="284.8" r="2.50" fill="#d4862a" opacity="0.24"/><circle cx="68.2" cy="281.7" r="2.01" fill="#d4862a" opacity="0.34"/><circle cx="101.6" cy="282.1" r="2.78" fill="#d4862a" opacity="0.32"/><circle cx="138.4" cy="279.2" r="1.75" fill="#d4862a" opacity="0.24"/><circle cx="175.6" cy="279.2" r="2.35" fill="#d4862a" opacity="0.26"/><circle cx="207.1" cy="283.2" r="1.96" fill="#d4862a" opacity="0.18"/><circle cx="246.1" cy="284.5" r="3.24" fill="#d4862a" opacity="0.27"/><circle cx="283.3" cy="279.9" r="3.18" fill="#d4862a" opacity="0.21"/><circle cx="317.9" cy="282.9" r="3.44" fill="#d4862a" opacity="0.27"/><circle cx="352.2" cy="283.7" r="3.24" fill="#d4862a" opacity="0.24"/><circle cx="387.4" cy="280.7" r="3.10" fill="#d4862a" opacity="0.28"/><circle cx="428.3" cy="279.7" r="2.20" fill="#d4862a" opacity="0.35"/><circle cx="463.4" cy="283.8" r="3.70" fill="#d4862a" opacity="0.34"/><circle cx="496.6" cy="279.7" r="1.94" fill="#d4862a" opacity="0.31"/><circle cx="531.7" cy="282.5" r="2.31" fill="#d4862a" opacity="0.24"/><circle cx="572.6" cy="282.4" r="3.16" fill="#d4862a" opacity="0.30"/><circle cx="603.2" cy="280.8" r="1.81" fill="#d4862a" opacity="0.31"/><circle cx="643.7" cy="282.0" r="2.37" fill="#d4862a" opacity="0.18"/><circle cx="677.0" cy="281.0" r="2.31" fill="#d4862a" opacity="0.34"/><circle cx="714.8" cy="281.5" r="1.82" fill="#d4862a" opacity="0.31"/><circle cx="752.3" cy="281.4" r="1.63" fill="#d4862a" opacity="0.18"/><circle cx="786.4" cy="280.6" r="1.66" fill="#d4862a" opacity="0.27"/><circle cx="824.0" cy="279.8" r="3.53" fill="#d4862a" opacity="0.29"/><circle cx="860.1" cy="284.3" r="2.51" fill="#d4862a" opacity="0.24"/><circle cx="894.7" cy="279.6" r="3.24" fill="#d4862a" opacity="0.31"/><circle cx="928.0" cy="282.1" r="3.88" fill="#d4862a" opacity="0.23"/><circle cx="967.1" cy="281.3" r="2.86" fill="#d4862a" opacity="0.30"/><circle cx="1004.9" cy="284.4" r="2.39" fill="#d4862a" opacity="0.16"/><circle cx="1035.6" cy="281.4" r="3.59" fill="#d4862a" opacity="0.15"/><circle cx="1072.4" cy="279.1" r="1.95" fill="#d4862a" opacity="0.35"/><circle cx="1110.3" cy="284.1" r="3.57" fill="#d4862a" opacity="0.19"/><circle cx="1143.7" cy="283.2" r="3.49" fill="#d4862a" opacity="0.18"/><circle cx="1182.4" cy="282.5" r="2.40" fill="#d4862a" opacity="0.28"/><circle cx="27.0" cy="318.0" r="3.19" fill="#d4862a" opacity="0.31"/><circle cx="68.5" cy="315.8" r="2.88" fill="#d4862a" opacity="0.20"/><circle cx="102.0" cy="319.9" r="1.69" fill="#d4862a" opacity="0.23"/><circle cx="135.5" cy="318.6" r="1.94" fill="#d4862a" opacity="0.21"/><circle cx="171.1" cy="316.8" r="3.29" fill="#d4862a" opacity="0.21"/><circle cx="208.9" cy="320.6" r="3.08" fill="#d4862a" opacity="0.34"/><circle cx="243.9" cy="319.3" r="2.54" fill="#d4862a" opacity="0.34"/><circle cx="282.6" cy="320.1" r="2.66" fill="#d4862a" opacity="0.18"/><circle cx="315.6" cy="319.5" r="1.63" fill="#d4862a" opacity="0.21"/><circle cx="353.4" cy="318.0" r="3.23" fill="#d4862a" opacity="0.25"/><circle cx="388.8" cy="317.6" r="3.31" fill="#d4862a" opacity="0.24"/><circle cx="427.3" cy="318.4" r="3.49" fill="#d4862a" opacity="0.19"/><circle cx="462.7" cy="316.0" r="2.83" fill="#d4862a" opacity="0.17"/><circle cx="496.1" cy="318.1" r="3.22" fill="#d4862a" opacity="0.25"/><circle cx="536.1" cy="315.2" r="3.36" fill="#d4862a" opacity="0.35"/><circle cx="572.1" cy="316.1" r="2.63" fill="#d4862a" opacity="0.24"/><circle cx="605.9" cy="315.4" r="2.00" fill="#d4862a" opacity="0.27"/><circle cx="641.3" cy="316.8" r="2.88" fill="#d4862a" opacity="0.34"/><circle cx="680.5" cy="320.7" r="3.55" fill="#d4862a" opacity="0.33"/><circle cx="714.5" cy="316.1" r="2.93" fill="#d4862a" opacity="0.34"/><circle cx="749.8" cy="316.4" r="3.15" fill="#d4862a" opacity="0.32"/><circle cx="788.7" cy="315.3" r="2.27" fill="#d4862a" opacity="0.26"/><circle cx="821.5" cy="318.7" r="3.11" fill="#d4862a" opacity="0.26"/><circle cx="857.5" cy="315.2" r="2.41" fill="#d4862a" opacity="0.33"/><circle cx="893.2" cy="316.2" r="2.92" fill="#d4862a" opacity="0.35"/><circle cx="928.2" cy="318.8" r="2.27" fill="#d4862a" opacity="0.17"/><circle cx="965.3" cy="317.1" r="3.62" fill="#d4862a" opacity="0.19"/><circle cx="1001.8" cy="320.0" r="2.27" fill="#d4862a" opacity="0.22"/><circle cx="1040.9" cy="317.9" r="2.77" fill="#d4862a" opacity="0.28"/><circle cx="1072.4" cy="317.2" r="3.63" fill="#d4862a" opacity="0.29"/><circle cx="1107.2" cy="318.4" r="2.12" fill="#d4862a" opacity="0.22"/><circle cx="1148.8" cy="320.1" r="2.46" fill="#d4862a" opacity="0.28"/><circle cx="1183.8" cy="319.3" r="3.43" fill="#d4862a" opacity="0.25"/><circle cx="29.3" cy="351.3" r="2.35" fill="#d4862a" opacity="0.23"/><circle cx="67.7" cy="352.6" r="2.62" fill="#d4862a" opacity="0.21"/><circle cx="104.2" cy="355.1" r="2.25" fill="#d4862a" opacity="0.15"/><circle cx="138.1" cy="354.4" r="3.20" fill="#d4862a" opacity="0.20"/><circle cx="171.6" cy="354.2" r="1.88" fill="#d4862a" opacity="0.31"/><circle cx="209.3" cy="356.4" r="1.97" fill="#d4862a" opacity="0.21"/><circle cx="244.5" cy="355.7" r="1.81" fill="#d4862a" opacity="0.31"/><circle cx="281.4" cy="354.1" r="2.68" fill="#d4862a" opacity="0.16"/><circle cx="317.1" cy="353.4" r="2.66" fill="#d4862a" opacity="0.35"/><circle cx="354.0" cy="355.6" r="2.88" fill="#d4862a" opacity="0.23"/><circle cx="392.2" cy="352.7" r="3.87" fill="#d4862a" opacity="0.33"/><circle cx="424.4" cy="355.0" r="3.42" fill="#d4862a" opacity="0.28"/><circle cx="460.6" cy="353.5" r="3.82" fill="#d4862a" opacity="0.26"/><circle cx="498.0" cy="354.2" r="3.03" fill="#d4862a" opacity="0.26"/><circle cx="534.8" cy="356.7" r="2.91" fill="#d4862a" opacity="0.20"/><circle cx="572.7" cy="353.6" r="3.76" fill="#d4862a" opacity="0.21"/><circle cx="606.2" cy="352.1" r="3.01" fill="#d4862a" opacity="0.24"/><circle cx="643.5" cy="355.4" r="3.55" fill="#d4862a" opacity="0.31"/><circle cx="676.6" cy="356.0" r="2.54" fill="#d4862a" opacity="0.35"/><circle cx="717.0" cy="355.4" r="1.65" fill="#d4862a" opacity="0.25"/><circle cx="751.4" cy="351.1" r="2.80" fill="#d4862a" opacity="0.26"/><circle cx="788.2" cy="356.6" r="2.89" fill="#d4862a" opacity="0.22"/><circle cx="820.9" cy="352.9" r="3.88" fill="#d4862a" opacity="0.16"/><circle cx="857.4" cy="352.1" r="2.22" fill="#d4862a" opacity="0.26"/><circle cx="895.6" cy="356.9" r="3.91" fill="#d4862a" opacity="0.36"/><circle cx="930.5" cy="351.1" r="2.42" fill="#d4862a" opacity="0.20"/><circle cx="968.0" cy="351.3" r="3.23" fill="#d4862a" opacity="0.17"/><circle cx="1002.3" cy="355.4" r="2.57" fill="#d4862a" opacity="0.28"/><circle cx="1039.5" cy="356.5" r="3.53" fill="#d4862a" opacity="0.18"/><circle cx="1074.1" cy="352.9" r="3.75" fill="#d4862a" opacity="0.21"/><circle cx="1112.4" cy="354.6" r="2.19" fill="#d4862a" opacity="0.16"/><circle cx="1143.3" cy="351.4" r="2.62" fill="#d4862a" opacity="0.36"/><circle cx="1180.4" cy="354.2" r="2.44" fill="#d4862a" opacity="0.29"/><circle cx="28.9" cy="391.5" r="3.90" fill="#d4862a" opacity="0.27"/><circle cx="67.2" cy="392.7" r="2.56" fill="#d4862a" opacity="0.28"/><circle cx="99.5" cy="391.9" r="3.16" fill="#d4862a" opacity="0.36"/><circle cx="140.8" cy="392.5" r="2.82" fill="#d4862a" opacity="0.36"/><circle cx="172.7" cy="388.2" r="2.33" fill="#d4862a" opacity="0.30"/><circle cx="212.8" cy="392.2" r="2.33" fill="#d4862a" opacity="0.25"/><circle cx="245.8" cy="390.8" r="1.60" fill="#d4862a" opacity="0.25"/><circle cx="283.3" cy="390.0" r="3.86" fill="#d4862a" opacity="0.32"/><circle cx="316.9" cy="391.9" r="2.26" fill="#d4862a" opacity="0.18"/><circle cx="352.9" cy="387.5" r="2.34" fill="#d4862a" opacity="0.35"/><circle cx="392.5" cy="391.3" r="2.89" fill="#d4862a" opacity="0.32"/><circle cx="428.8" cy="389.9" r="1.87" fill="#d4862a" opacity="0.29"/><circle cx="461.9" cy="392.0" r="1.77" fill="#d4862a" opacity="0.20"/><circle cx="500.2" cy="387.1" r="3.04" fill="#d4862a" opacity="0.20"/><circle cx="536.1" cy="389.8" r="3.06" fill="#d4862a" opacity="0.35"/><circle cx="569.2" cy="391.1" r="2.07" fill="#d4862a" opacity="0.27"/><circle cx="607.3" cy="390.6" r="2.81" fill="#d4862a" opacity="0.35"/><circle cx="643.9" cy="392.4" r="2.22" fill="#d4862a" opacity="0.32"/><circle cx="680.5" cy="387.4" r="2.45" fill="#d4862a" opacity="0.20"/><circle cx="716.5" cy="387.7" r="3.16" fill="#d4862a" opacity="0.15"/><circle cx="748.0" cy="392.6" r="1.72" fill="#d4862a" opacity="0.36"/><circle cx="784.7" cy="389.4" r="1.80" fill="#d4862a" opacity="0.27"/><circle cx="820.6" cy="389.1" r="3.23" fill="#d4862a" opacity="0.18"/><circle cx="858.2" cy="387.8" r="2.87" fill="#d4862a" opacity="0.24"/><circle cx="894.4" cy="390.5" r="3.78" fill="#d4862a" opacity="0.34"/><circle cx="931.2" cy="390.4" r="3.73" fill="#d4862a" opacity="0.29"/><circle cx="967.8" cy="389.7" r="3.76" fill="#d4862a" opacity="0.34"/><circle cx="1002.8" cy="389.7" r="2.81" fill="#d4862a" opacity="0.27"/><circle cx="1035.8" cy="389.9" r="2.68" fill="#d4862a" opacity="0.19"/><circle cx="1075.9" cy="389.5" r="2.29" fill="#d4862a" opacity="0.16"/><circle cx="1109.1" cy="390.6" r="2.86" fill="#d4862a" opacity="0.25"/><circle cx="1148.3" cy="390.6" r="2.29" fill="#d4862a" opacity="0.23"/><circle cx="1180.0" cy="388.8" r="2.90" fill="#d4862a" opacity="0.31"/><circle cx="31.5" cy="427.1" r="2.43" fill="#d4862a" opacity="0.32"/><circle cx="67.1" cy="428.2" r="2.15" fill="#d4862a" opacity="0.32"/><circle cx="103.5" cy="423.2" r="3.89" fill="#d4862a" opacity="0.24"/><circle cx="137.8" cy="426.2" r="2.60" fill="#d4862a" opacity="0.28"/><circle cx="176.3" cy="427.1" r="3.52" fill="#d4862a" opacity="0.19"/><circle cx="207.9" cy="424.8" r="2.83" fill="#d4862a" opacity="0.32"/><circle cx="248.5" cy="426.2" r="2.37" fill="#d4862a" opacity="0.32"/><circle cx="281.9" cy="424.9" r="2.12" fill="#d4862a" opacity="0.31"/><circle cx="315.6" cy="428.1" r="3.01" fill="#d4862a" opacity="0.17"/><circle cx="356.5" cy="425.1" r="2.75" fill="#d4862a" opacity="0.19"/><circle cx="387.6" cy="426.2" r="2.02" fill="#d4862a" opacity="0.23"/><circle cx="427.1" cy="426.2" r="2.17" fill="#d4862a" opacity="0.20"/><circle cx="463.0" cy="424.3" r="2.02" fill="#d4862a" opacity="0.24"/><circle cx="500.5" cy="429.0" r="1.80" fill="#d4862a" opacity="0.26"/><circle cx="534.9" cy="428.3" r="2.52" fill="#d4862a" opacity="0.25"/><circle cx="569.8" cy="429.0" r="1.94" fill="#d4862a" opacity="0.36"/><circle cx="606.2" cy="428.2" r="2.36" fill="#d4862a" opacity="0.35"/><circle cx="639.3" cy="426.4" r="3.98" fill="#d4862a" opacity="0.29"/><circle cx="680.0" cy="427.9" r="2.89" fill="#d4862a" opacity="0.19"/><circle cx="714.0" cy="428.7" r="1.90" fill="#d4862a" opacity="0.33"/><circle cx="748.5" cy="425.0" r="3.18" fill="#d4862a" opacity="0.21"/><circle cx="785.3" cy="424.3" r="2.43" fill="#d4862a" opacity="0.17"/><circle cx="823.5" cy="424.1" r="3.75" fill="#d4862a" opacity="0.24"/><circle cx="858.7" cy="428.4" r="2.12" fill="#d4862a" opacity="0.35"/><circle cx="895.3" cy="425.9" r="3.61" fill="#d4862a" opacity="0.27"/><circle cx="931.9" cy="429.0" r="2.09" fill="#d4862a" opacity="0.23"/><circle cx="963.8" cy="423.0" r="2.00" fill="#d4862a" opacity="0.35"/><circle cx="1003.1" cy="423.8" r="2.50" fill="#d4862a" opacity="0.17"/><circle cx="1038.0" cy="423.6" r="3.91" fill="#d4862a" opacity="0.34"/><circle cx="1075.7" cy="427.9" r="3.71" fill="#d4862a" opacity="0.28"/><circle cx="1112.1" cy="428.0" r="2.85" fill="#d4862a" opacity="0.27"/><circle cx="1147.7" cy="428.5" r="2.78" fill="#d4862a" opacity="0.32"/><circle cx="1184.4" cy="423.6" r="2.27" fill="#d4862a" opacity="0.25"/><circle cx="32.3" cy="464.2" r="3.47" fill="#d4862a" opacity="0.19"/><circle cx="67.3" cy="461.3" r="2.50" fill="#d4862a" opacity="0.35"/><circle cx="104.3" cy="462.2" r="2.80" fill="#d4862a" opacity="0.19"/><circle cx="139.6" cy="463.0" r="1.99" fill="#d4862a" opacity="0.21"/><circle cx="174.1" cy="462.3" r="2.80" fill="#d4862a" opacity="0.23"/><circle cx="209.7" cy="462.5" r="2.42" fill="#d4862a" opacity="0.25"/><circle cx="245.5" cy="459.4" r="3.91" fill="#d4862a" opacity="0.33"/><circle cx="284.0" cy="462.1" r="2.59" fill="#d4862a" opacity="0.28"/><circle cx="316.1" cy="462.7" r="2.61" fill="#d4862a" opacity="0.33"/><circle cx="352.7" cy="464.2" r="1.93" fill="#d4862a" opacity="0.20"/><circle cx="387.4" cy="459.8" r="2.73" fill="#d4862a" opacity="0.17"/><circle cx="426.6" cy="460.3" r="3.76" fill="#d4862a" opacity="0.33"/><circle cx="459.7" cy="463.9" r="2.13" fill="#d4862a" opacity="0.29"/><circle cx="495.6" cy="460.6" r="1.66" fill="#d4862a" opacity="0.24"/><circle cx="533.9" cy="459.5" r="3.30" fill="#d4862a" opacity="0.16"/><circle cx="572.9" cy="462.4" r="3.84" fill="#d4862a" opacity="0.35"/><circle cx="605.2" cy="460.6" r="2.78" fill="#d4862a" opacity="0.36"/><circle cx="642.3" cy="464.9" r="3.86" fill="#d4862a" opacity="0.36"/><circle cx="675.1" cy="462.8" r="1.69" fill="#d4862a" opacity="0.28"/><circle cx="714.3" cy="463.9" r="3.27" fill="#d4862a" opacity="0.29"/><circle cx="747.4" cy="461.6" r="1.61" fill="#d4862a" opacity="0.30"/><circle cx="785.8" cy="463.1" r="1.80" fill="#d4862a" opacity="0.16"/><circle cx="822.8" cy="462.2" r="3.80" fill="#d4862a" opacity="0.31"/><circle cx="857.1" cy="461.1" r="2.57" fill="#d4862a" opacity="0.28"/><circle cx="896.5" cy="461.0" r="1.70" fill="#d4862a" opacity="0.16"/><circle cx="932.0" cy="459.4" r="1.96" fill="#d4862a" opacity="0.32"/><circle cx="963.1" cy="459.8" r="1.80" fill="#d4862a" opacity="0.34"/><circle cx="1001.3" cy="461.8" r="1.65" fill="#d4862a" opacity="0.17"/><circle cx="1040.5" cy="463.9" r="2.20" fill="#d4862a" opacity="0.35"/><circle cx="1072.0" cy="460.2" r="1.72" fill="#d4862a" opacity="0.18"/><circle cx="1111.5" cy="461.7" r="3.06" fill="#d4862a" opacity="0.18"/><circle cx="1147.4" cy="464.9" r="2.74" fill="#d4862a" opacity="0.19"/><circle cx="1179.0" cy="461.3" r="3.50" fill="#d4862a" opacity="0.18"/><circle cx="30.1" cy="498.7" r="3.02" fill="#d4862a" opacity="0.23"/><circle cx="68.0" cy="497.0" r="3.05" fill="#d4862a" opacity="0.23"/><circle cx="104.3" cy="500.9" r="3.74" fill="#d4862a" opacity="0.18"/><circle cx="140.0" cy="497.5" r="2.17" fill="#d4862a" opacity="0.16"/><circle cx="172.3" cy="500.6" r="2.65" fill="#d4862a" opacity="0.20"/><circle cx="210.2" cy="498.1" r="2.30" fill="#d4862a" opacity="0.33"/><circle cx="248.0" cy="500.5" r="3.60" fill="#d4862a" opacity="0.18"/><circle cx="279.2" cy="497.3" r="1.82" fill="#d4862a" opacity="0.27"/><circle cx="320.6" cy="498.1" r="2.76" fill="#d4862a" opacity="0.33"/><circle cx="352.5" cy="499.1" r="3.73" fill="#d4862a" opacity="0.23"/><circle cx="392.5" cy="498.5" r="3.96" fill="#d4862a" opacity="0.18"/><circle cx="428.8" cy="497.7" r="3.80" fill="#d4862a" opacity="0.28"/><circle cx="459.5" cy="498.1" r="2.69" fill="#d4862a" opacity="0.32"/><circle cx="499.4" cy="496.1" r="3.07" fill="#d4862a" opacity="0.20"/><circle cx="536.9" cy="496.7" r="2.08" fill="#d4862a" opacity="0.18"/><circle cx="570.6" cy="496.0" r="2.95" fill="#d4862a" opacity="0.21"/><circle cx="603.6" cy="495.8" r="2.93" fill="#d4862a" opacity="0.32"/><circle cx="640.5" cy="496.9" r="3.39" fill="#d4862a" opacity="0.30"/><circle cx="680.0" cy="500.6" r="3.02" fill="#d4862a" opacity="0.35"/><circle cx="716.2" cy="495.6" r="1.89" fill="#d4862a" opacity="0.19"/><circle cx="753.0" cy="497.9" r="3.41" fill="#d4862a" opacity="0.29"/><circle cx="783.2" cy="496.3" r="3.16" fill="#d4862a" opacity="0.34"/><circle cx="821.6" cy="498.6" r="3.98" fill="#d4862a" opacity="0.23"/><circle cx="856.6" cy="497.1" r="2.01" fill="#d4862a" opacity="0.25"/><circle cx="896.1" cy="498.2" r="3.98" fill="#d4862a" opacity="0.36"/><circle cx="929.8" cy="498.2" r="2.61" fill="#d4862a" opacity="0.21"/><circle cx="967.6" cy="495.9" r="2.50" fill="#d4862a" opacity="0.27"/><circle cx="1004.9" cy="498.0" r="2.76" fill="#d4862a" opacity="0.32"/><circle cx="1039.4" cy="497.4" r="1.62" fill="#d4862a" opacity="0.31"/><circle cx="1073.6" cy="495.8" r="2.53" fill="#d4862a" opacity="0.19"/><circle cx="1107.4" cy="499.7" r="2.99" fill="#d4862a" opacity="0.30"/><circle cx="1143.4" cy="500.7" r="2.08" fill="#d4862a" opacity="0.26"/><circle cx="1181.8" cy="495.6" r="2.83" fill="#d4862a" opacity="0.18"/><circle cx="29.5" cy="534.2" r="1.94" fill="#d4862a" opacity="0.17"/><circle cx="65.9" cy="532.0" r="3.46" fill="#d4862a" opacity="0.25"/><circle cx="104.5" cy="531.3" r="2.91" fill="#d4862a" opacity="0.21"/><circle cx="139.5" cy="533.6" r="2.70" fill="#d4862a" opacity="0.25"/><circle cx="175.3" cy="532.2" r="2.95" fill="#d4862a" opacity="0.32"/><circle cx="207.1" cy="533.7" r="3.34" fill="#d4862a" opacity="0.27"/><circle cx="244.9" cy="534.3" r="2.09" fill="#d4862a" opacity="0.30"/><circle cx="280.8" cy="531.5" r="2.49" fill="#d4862a" opacity="0.29"/><circle cx="320.3" cy="531.5" r="2.95" fill="#d4862a" opacity="0.22"/><circle cx="354.9" cy="532.8" r="2.82" fill="#d4862a" opacity="0.30"/><circle cx="391.4" cy="532.3" r="1.76" fill="#d4862a" opacity="0.22"/><circle cx="424.6" cy="535.8" r="2.91" fill="#d4862a" opacity="0.26"/><circle cx="464.7" cy="532.9" r="3.08" fill="#d4862a" opacity="0.31"/><circle cx="500.7" cy="531.3" r="1.92" fill="#d4862a" opacity="0.32"/><circle cx="534.9" cy="531.6" r="1.67" fill="#d4862a" opacity="0.17"/><circle cx="570.3" cy="534.8" r="2.22" fill="#d4862a" opacity="0.18"/><circle cx="608.1" cy="533.0" r="1.64" fill="#d4862a" opacity="0.21"/><circle cx="643.5" cy="535.3" r="1.72" fill="#d4862a" opacity="0.33"/><circle cx="678.5" cy="532.8" r="3.00" fill="#d4862a" opacity="0.34"/><circle cx="713.0" cy="534.7" r="1.61" fill="#d4862a" opacity="0.18"/><circle cx="749.1" cy="535.2" r="1.62" fill="#d4862a" opacity="0.17"/><circle cx="783.1" cy="533.7" r="2.66" fill="#d4862a" opacity="0.20"/><circle cx="822.6" cy="531.6" r="2.66" fill="#d4862a" opacity="0.33"/><circle cx="859.6" cy="535.4" r="3.83" fill="#d4862a" opacity="0.30"/><circle cx="896.2" cy="531.1" r="3.51" fill="#d4862a" opacity="0.31"/><circle cx="932.5" cy="533.0" r="2.06" fill="#d4862a" opacity="0.32"/><circle cx="963.4" cy="533.1" r="1.72" fill="#d4862a" opacity="0.27"/><circle cx="1003.6" cy="535.8" r="2.23" fill="#d4862a" opacity="0.35"/><circle cx="1039.4" cy="532.5" r="2.22" fill="#d4862a" opacity="0.21"/><circle cx="1074.7" cy="531.1" r="3.28" fill="#d4862a" opacity="0.23"/><circle cx="1107.9" cy="534.4" r="3.96" fill="#d4862a" opacity="0.29"/><circle cx="1146.9" cy="534.7" r="3.44" fill="#d4862a" opacity="0.19"/><circle cx="1182.0" cy="533.0" r="3.31" fill="#d4862a" opacity="0.16"/><circle cx="31.7" cy="572.7" r="2.42" fill="#d4862a" opacity="0.29"/><circle cx="66.9" cy="572.8" r="1.97" fill="#d4862a" opacity="0.32"/><circle cx="103.9" cy="572.5" r="3.55" fill="#d4862a" opacity="0.22"/><circle cx="141.0" cy="571.2" r="2.24" fill="#d4862a" opacity="0.20"/><circle cx="173.6" cy="570.6" r="2.71" fill="#d4862a" opacity="0.21"/><circle cx="208.3" cy="571.8" r="2.77" fill="#d4862a" opacity="0.34"/><circle cx="247.2" cy="570.6" r="3.93" fill="#d4862a" opacity="0.21"/><circle cx="281.0" cy="571.6" r="2.91" fill="#d4862a" opacity="0.26"/><circle cx="316.1" cy="571.3" r="1.71" fill="#d4862a" opacity="0.30"/><circle cx="352.7" cy="568.2" r="3.22" fill="#d4862a" opacity="0.17"/><circle cx="392.9" cy="568.0" r="3.35" fill="#d4862a" opacity="0.30"/><circle cx="424.8" cy="568.8" r="3.38" fill="#d4862a" opacity="0.31"/><circle cx="459.6" cy="569.0" r="1.87" fill="#d4862a" opacity="0.25"/><circle cx="497.0" cy="569.6" r="2.16" fill="#d4862a" opacity="0.17"/><circle cx="533.6" cy="572.8" r="1.98" fill="#d4862a" opacity="0.32"/><circle cx="570.7" cy="571.2" r="2.45" fill="#d4862a" opacity="0.21"/><circle cx="607.9" cy="570.4" r="3.60" fill="#d4862a" opacity="0.22"/><circle cx="639.8" cy="570.2" r="2.70" fill="#d4862a" opacity="0.34"/><circle cx="677.9" cy="571.4" r="3.20" fill="#d4862a" opacity="0.23"/><circle cx="713.7" cy="569.8" r="3.08" fill="#d4862a" opacity="0.18"/><circle cx="747.1" cy="569.1" r="3.26" fill="#d4862a" opacity="0.30"/><circle cx="788.3" cy="569.8" r="3.22" fill="#d4862a" opacity="0.36"/><circle cx="819.6" cy="569.5" r="2.71" fill="#d4862a" opacity="0.27"/><circle cx="859.3" cy="571.3" r="3.84" fill="#d4862a" opacity="0.34"/><circle cx="893.8" cy="567.4" r="2.64" fill="#d4862a" opacity="0.18"/><circle cx="930.5" cy="572.7" r="3.84" fill="#d4862a" opacity="0.28"/><circle cx="965.7" cy="567.9" r="1.70" fill="#d4862a" opacity="0.24"/><circle cx="1002.1" cy="568.2" r="1.70" fill="#d4862a" opacity="0.29"/><circle cx="1040.5" cy="569.0" r="2.39" fill="#d4862a" opacity="0.22"/><circle cx="1075.5" cy="568.1" r="2.14" fill="#d4862a" opacity="0.16"/><circle cx="1109.6" cy="571.8" r="3.84" fill="#d4862a" opacity="0.26"/><circle cx="1143.6" cy="572.4" r="3.36" fill="#d4862a" opacity="0.23"/><circle cx="1182.8" cy="567.6" r="3.59" fill="#d4862a" opacity="0.29"/><circle cx="28.9" cy="608.6" r="2.91" fill="#d4862a" opacity="0.32"/><circle cx="63.5" cy="606.4" r="2.32" fill="#d4862a" opacity="0.18"/><circle cx="101.5" cy="604.2" r="3.09" fill="#d4862a" opacity="0.16"/><circle cx="136.6" cy="606.5" r="1.81" fill="#d4862a" opacity="0.30"/><circle cx="176.1" cy="608.5" r="3.79" fill="#d4862a" opacity="0.17"/><circle cx="208.9" cy="608.3" r="1.69" fill="#d4862a" opacity="0.26"/><circle cx="247.4" cy="606.2" r="1.76" fill="#d4862a" opacity="0.35"/><circle cx="281.3" cy="604.1" r="2.94" fill="#d4862a" opacity="0.31"/><circle cx="317.3" cy="603.7" r="2.91" fill="#d4862a" opacity="0.27"/><circle cx="356.7" cy="605.0" r="1.96" fill="#d4862a" opacity="0.15"/><circle cx="391.4" cy="606.1" r="3.06" fill="#d4862a" opacity="0.26"/><circle cx="428.7" cy="603.0" r="3.64" fill="#d4862a" opacity="0.26"/><circle cx="460.1" cy="607.5" r="2.91" fill="#d4862a" opacity="0.32"/><circle cx="500.7" cy="603.9" r="3.75" fill="#d4862a" opacity="0.29"/><circle cx="533.5" cy="606.5" r="3.52" fill="#d4862a" opacity="0.21"/><circle cx="569.9" cy="607.9" r="1.90" fill="#d4862a" opacity="0.32"/><circle cx="604.8" cy="608.8" r="2.01" fill="#d4862a" opacity="0.17"/><circle cx="644.6" cy="603.3" r="2.93" fill="#d4862a" opacity="0.23"/><circle cx="680.0" cy="605.9" r="2.31" fill="#d4862a" opacity="0.26"/><circle cx="713.1" cy="605.0" r="1.97" fill="#d4862a" opacity="0.28"/><circle cx="749.5" cy="606.1" r="1.81" fill="#d4862a" opacity="0.24"/><circle cx="785.4" cy="603.6" r="2.50" fill="#d4862a" opacity="0.35"/><circle cx="819.9" cy="606.6" r="2.90" fill="#d4862a" opacity="0.15"/><circle cx="857.1" cy="608.3" r="3.10" fill="#d4862a" opacity="0.22"/><circle cx="895.9" cy="605.4" r="2.89" fill="#d4862a" opacity="0.32"/><circle cx="931.9" cy="605.7" r="3.17" fill="#d4862a" opacity="0.21"/><circle cx="967.0" cy="607.1" r="2.23" fill="#d4862a" opacity="0.18"/><circle cx="1001.4" cy="603.4" r="3.97" fill="#d4862a" opacity="0.22"/><circle cx="1039.7" cy="605.5" r="3.22" fill="#d4862a" opacity="0.31"/><circle cx="1071.6" cy="605.9" r="4.00" fill="#d4862a" opacity="0.21"/><circle cx="1109.5" cy="604.9" r="1.75" fill="#d4862a" opacity="0.35"/><circle cx="1147.2" cy="605.1" r="2.76" fill="#d4862a" opacity="0.23"/><circle cx="1183.0" cy="604.6" r="3.12" fill="#d4862a" opacity="0.22"/><circle cx="31.4" cy="644.9" r="3.97" fill="#d4862a" opacity="0.32"/><circle cx="63.9" cy="639.2" r="3.58" fill="#d4862a" opacity="0.27"/><circle cx="99.1" cy="643.1" r="2.87" fill="#d4862a" opacity="0.24"/><circle cx="140.6" cy="643.5" r="3.88" fill="#d4862a" opacity="0.22"/><circle cx="176.5" cy="641.7" r="1.77" fill="#d4862a" opacity="0.20"/><circle cx="210.3" cy="641.1" r="2.84" fill="#d4862a" opacity="0.28"/><circle cx="244.6" cy="642.5" r="3.85" fill="#d4862a" opacity="0.28"/><circle cx="284.0" cy="643.9" r="2.01" fill="#d4862a" opacity="0.33"/><circle cx="317.2" cy="639.3" r="3.60" fill="#d4862a" opacity="0.18"/><circle cx="351.1" cy="641.4" r="2.49" fill="#d4862a" opacity="0.31"/><circle cx="387.3" cy="639.3" r="3.17" fill="#d4862a" opacity="0.17"/><circle cx="429.0" cy="640.9" r="2.90" fill="#d4862a" opacity="0.21"/><circle cx="459.4" cy="643.7" r="2.72" fill="#d4862a" opacity="0.22"/><circle cx="501.0" cy="639.7" r="3.43" fill="#d4862a" opacity="0.26"/><circle cx="536.8" cy="641.3" r="2.33" fill="#d4862a" opacity="0.26"/><circle cx="568.4" cy="642.4" r="2.42" fill="#d4862a" opacity="0.22"/><circle cx="606.7" cy="640.8" r="3.84" fill="#d4862a" opacity="0.30"/><circle cx="639.8" cy="641.5" r="3.42" fill="#d4862a" opacity="0.19"/><circle cx="680.0" cy="640.7" r="2.74" fill="#d4862a" opacity="0.27"/><circle cx="714.2" cy="641.3" r="3.91" fill="#d4862a" opacity="0.17"/><circle cx="747.1" cy="643.2" r="2.49" fill="#d4862a" opacity="0.33"/><circle cx="783.4" cy="639.0" r="2.00" fill="#d4862a" opacity="0.20"/><circle cx="821.1" cy="643.9" r="2.02" fill="#d4862a" opacity="0.16"/><circle cx="858.3" cy="641.0" r="1.71" fill="#d4862a" opacity="0.35"/><circle cx="895.3" cy="642.0" r="2.03" fill="#d4862a" opacity="0.17"/><circle cx="932.7" cy="641.6" r="1.97" fill="#d4862a" opacity="0.19"/><circle cx="964.7" cy="642.7" r="3.70" fill="#d4862a" opacity="0.29"/><circle cx="999.8" cy="640.2" r="2.31" fill="#d4862a" opacity="0.28"/><circle cx="1037.7" cy="641.8" r="2.74" fill="#d4862a" opacity="0.26"/><circle cx="1076.1" cy="644.5" r="2.83" fill="#d4862a" opacity="0.27"/><circle cx="1108.9" cy="639.0" r="2.44" fill="#d4862a" opacity="0.17"/><circle cx="1145.6" cy="643.5" r="2.19" fill="#d4862a" opacity="0.18"/><circle cx="1180.7" cy="641.7" r="3.36" fill="#d4862a" opacity="0.27"/><circle cx="213.3" cy="224.5" r="220" fill="url(#glow)" opacity="0.9"/>
  <g opacity="0.85" transform="translate(1020, 495)">
        <polygon points="0,-50 43,25 -43,25" fill="none" stroke="#d4862a" stroke-width="2"/>
        <polygon points="0,-30 26,15 -26,15" fill="#bd6b20" opacity="0.4"/>
      </g>
  <g transform="translate(80, 90)">
    <rect x="0" y="0" rx="20" ry="20" width="145" height="38" fill="#d4862a" opacity="0.18" stroke="#d4862a" stroke-width="1.5"/>
    <text x="72.5" y="25" font-family="ui-sans-serif, Inter, sans-serif" font-weight="700" font-size="14" letter-spacing="2.5" fill="#d4862a" text-anchor="middle">INFORMATION</text>
  </g>
  <text x="80" y="465" font-family="ui-sans-serif, -apple-system, Segoe UI, Inter, sans-serif" font-weight="800" font-size="44" fill="#faf8f5" opacity="0.98"><tspan x="80" dy="0">Join our team as a</tspan><tspan x="80" dy="56">Conciliator &amp; be a part of</tspan><tspan x="80" dy="56">our success</tspan></text>
  <rect x="0" y="669" width="1200" height="6" fill="url(#gold)"/>
</svg>