<?xml version="1.0" encoding="UTF-8"?>
<svg xmlns="http://www.w3.org/2000/svg" viewBox="0 0 1200 675" width="1200" height="675" role="img" aria-label="Connect with PDR COURT as Your ADR Partner">
  <defs>
    <linearGradient id="bg" x1="0%" y1="0%" x2="100%" y2="100%">
      <stop offset="0%" stop-color="#532d15"/>
      <stop offset="100%" stop-color="#bd6b20"/>
    </linearGradient>
    <linearGradient id="gold" x1="0%" y1="0%" x2="100%" y2="100%">
      <stop offset="0%" stop-color="#e09440"/>
      <stop offset="100%" stop-color="#fdf6ee"/>
    </linearGradient>
    <radialGradient id="glow" cx="50%" cy="50%" r="50%">
      <stop offset="0%" stop-color="#e09440" stop-opacity="0.45"/>
      <stop offset="100%" stop-color="#e09440" stop-opacity="0"/>
    </radialGradient>
  </defs>
  <rect width="1200" height="675" fill="url(#bg)"/>
  <rect x="-706.0" y="-80" width="66.8" height="875" transform="rotate(18 -706.0 337.5)" fill="#e09440" opacity="0.16"/><rect x="-472.2" y="-80" width="130.9" height="875" transform="rotate(18 -472.2 337.5)" fill="#e09440" opacity="0.13"/><rect x="-326.5" y="-80" width="76.7" height="875" transform="rotate(18 -326.5 337.5)" fill="#e09440" opacity="0.16"/><rect x="-157.7" y="-80" width="99.5" height="875" transform="rotate(18 -157.7 337.5)" fill="#e09440" opacity="0.10"/><rect x="19.7" y="-80" width="133.9" height="875" transform="rotate(18 19.7 337.5)" fill="#e09440" opacity="0.09"/><rect x="201.1" y="-80" width="135.5" height="875" transform="rotate(18 201.1 337.5)" fill="#e09440" opacity="0.08"/><rect x="407.6" y="-80" width="90.7" height="875" transform="rotate(18 407.6 337.5)" fill="#e09440" opacity="0.19"/><rect x="586.6" y="-80" width="82.3" height="875" transform="rotate(18 586.6 337.5)" fill="#e09440" opacity="0.17"/><rect x="741.5" y="-80" width="116.2" height="875" transform="rotate(18 741.5 337.5)" fill="#e09440" opacity="0.07"/><rect x="962.3" y="-80" width="120.6" height="875" transform="rotate(18 962.3 337.5)" fill="#e09440" opacity="0.19"/><rect x="1115.2" y="-80" width="74.1" height="875" transform="rotate(18 1115.2 337.5)" fill="#e09440" opacity="0.14"/><rect x="1332.8" y="-80" width="121.0" height="875" transform="rotate(18 1332.8 337.5)" fill="#e09440" opacity="0.19"/><rect x="1468.4" y="-80" width="120.3" height="875" transform="rotate(18 1468.4 337.5)" fill="#e09440" opacity="0.13"/><rect x="1654.1" y="-80" width="68.9" height="875" transform="rotate(18 1654.1 337.5)" fill="#e09440" opacity="0.18"/><rect x="0" y="0" width="1200" height="675" fill="url(#glow)" opacity="0.6"/>
  <g opacity="0.85" transform="translate(1020, 495)">
        <polygon points="0,-50 43,25 -43,25" fill="none" stroke="#e09440" stroke-width="2"/>
        <polygon points="0,-30 26,15 -26,15" fill="#fdf6ee" opacity="0.4"/>
      </g>
  <g transform="translate(80, 90)">
    <rect x="0" y="0" rx="20" ry="20" width="145" height="38" fill="#e09440" opacity="0.18" stroke="#e09440" stroke-width="1.5"/>
    <text x="72.5" y="25" font-family="ui-sans-serif, Inter, sans-serif" font-weight="700" font-size="14" letter-spacing="2.5" fill="#e09440" text-anchor="middle">INFORMATION</text>
  </g>
  <text x="80" y="515" font-family="ui-sans-serif, -apple-system, Segoe UI, Inter, sans-serif" font-weight="800" font-size="44" fill="#faf8f5" opacity="0.98"><tspan x="80" dy="0">Connect with PDR COURT as</tspan><tspan x="80" dy="56">Your ADR Partner</tspan></text>
  <rect x="0" y="669" width="1200" height="6" fill="url(#gold)"/>
</svg>