<?xml version="1.0" encoding="UTF-8"?>
<svg xmlns="http://www.w3.org/2000/svg" viewBox="0 0 1200 675" width="1200" height="675" role="img" aria-label="Dispute Resolution Centre | Debt Recovery through Arbitration | Employee Mediation">
  <defs>
    <linearGradient id="bg" x1="0%" y1="0%" x2="100%" y2="100%">
      <stop offset="0%" stop-color="#643516"/>
      <stop offset="100%" stop-color="#7d4315"/>
    </linearGradient>
    <linearGradient id="gold" x1="0%" y1="0%" x2="100%" y2="100%">
      <stop offset="0%" stop-color="#ecb478"/>
      <stop offset="100%" stop-color="#faebd6"/>
    </linearGradient>
    <radialGradient id="glow" cx="50%" cy="50%" r="50%">
      <stop offset="0%" stop-color="#ecb478" stop-opacity="0.45"/>
      <stop offset="100%" stop-color="#ecb478" stop-opacity="0"/>
    </radialGradient>
  </defs>
  <rect width="1200" height="675" fill="url(#bg)"/>
  <circle cx="29.0" cy="28.1" r="2.23" fill="#ecb478" opacity="0.21"/><circle cx="64.8" cy="31.9" r="3.76" fill="#ecb478" opacity="0.24"/><circle cx="102.4" cy="29.8" r="1.62" fill="#ecb478" opacity="0.29"/><circle cx="136.2" cy="32.4" r="3.26" fill="#ecb478" opacity="0.18"/><circle cx="172.5" cy="30.3" r="1.90" fill="#ecb478" opacity="0.33"/><circle cx="210.0" cy="29.6" r="2.91" fill="#ecb478" opacity="0.16"/><circle cx="246.3" cy="28.3" r="3.93" fill="#ecb478" opacity="0.29"/><circle cx="282.1" cy="28.0" r="2.62" fill="#ecb478" opacity="0.33"/><circle cx="317.6" cy="30.8" r="2.95" fill="#ecb478" opacity="0.33"/><circle cx="351.3" cy="27.5" r="3.98" fill="#ecb478" opacity="0.17"/><circle cx="388.2" cy="32.4" r="1.96" fill="#ecb478" opacity="0.24"/><circle cx="427.9" cy="32.3" r="3.42" fill="#ecb478" opacity="0.20"/><circle cx="459.2" cy="31.4" r="3.91" fill="#ecb478" opacity="0.30"/><circle cx="498.8" cy="31.8" r="1.87" fill="#ecb478" opacity="0.24"/><circle cx="531.1" cy="32.7" r="3.14" fill="#ecb478" opacity="0.24"/><circle cx="569.7" cy="31.6" r="3.74" fill="#ecb478" opacity="0.16"/><circle cx="608.7" cy="27.5" r="3.51" fill="#ecb478" opacity="0.25"/><circle cx="644.0" cy="28.9" r="1.93" fill="#ecb478" opacity="0.34"/><circle cx="675.5" cy="27.8" r="2.07" fill="#ecb478" opacity="0.33"/><circle cx="716.1" cy="31.3" r="2.69" fill="#ecb478" opacity="0.17"/><circle cx="751.9" cy="28.7" r="3.28" fill="#ecb478" opacity="0.25"/><circle cx="786.6" cy="31.8" r="2.25" fill="#ecb478" opacity="0.32"/><circle cx="823.0" cy="32.7" r="3.57" fill="#ecb478" opacity="0.16"/><circle cx="855.4" cy="32.2" r="2.59" fill="#ecb478" opacity="0.23"/><circle cx="892.5" cy="28.2" r="2.78" fill="#ecb478" opacity="0.22"/><circle cx="928.6" cy="30.3" r="3.98" fill="#ecb478" opacity="0.18"/><circle cx="968.4" cy="28.3" r="2.46" fill="#ecb478" opacity="0.26"/><circle cx="1002.9" cy="27.5" r="3.48" fill="#ecb478" opacity="0.30"/><circle cx="1038.4" cy="31.1" r="2.56" fill="#ecb478" opacity="0.29"/><circle cx="1076.4" cy="29.3" r="1.98" fill="#ecb478" opacity="0.34"/><circle cx="1107.0" cy="29.4" r="1.93" fill="#ecb478" opacity="0.25"/><circle cx="1146.2" cy="29.7" r="3.80" fill="#ecb478" opacity="0.31"/><circle cx="1183.4" cy="30.1" r="1.81" fill="#ecb478" opacity="0.22"/><circle cx="28.7" cy="63.3" r="2.15" fill="#ecb478" opacity="0.30"/><circle cx="67.3" cy="67.6" r="3.92" fill="#ecb478" opacity="0.17"/><circle cx="102.0" cy="67.4" r="2.02" fill="#ecb478" opacity="0.35"/><circle cx="138.1" cy="66.3" r="3.17" fill="#ecb478" opacity="0.17"/><circle cx="175.5" cy="68.8" r="1.75" fill="#ecb478" opacity="0.28"/><circle cx="208.4" cy="67.4" r="3.34" fill="#ecb478" opacity="0.30"/><circle cx="248.7" cy="67.0" r="2.27" fill="#ecb478" opacity="0.31"/><circle cx="279.5" cy="68.9" r="2.30" fill="#ecb478" opacity="0.35"/><circle cx="316.7" cy="68.9" r="1.76" fill="#ecb478" opacity="0.35"/><circle cx="351.4" cy="63.7" r="2.98" fill="#ecb478" opacity="0.34"/><circle cx="391.7" cy="68.6" r="3.86" fill="#ecb478" opacity="0.32"/><circle cx="423.3" cy="68.5" r="3.65" fill="#ecb478" opacity="0.18"/><circle cx="462.3" cy="65.6" r="3.62" fill="#ecb478" opacity="0.25"/><circle cx="495.9" cy="68.7" r="3.99" fill="#ecb478" opacity="0.22"/><circle cx="535.6" cy="65.2" r="2.87" fill="#ecb478" opacity="0.16"/><circle cx="567.3" cy="66.0" r="2.66" fill="#ecb478" opacity="0.27"/><circle cx="604.3" cy="64.3" r="3.53" fill="#ecb478" opacity="0.21"/><circle cx="641.3" cy="67.3" r="2.73" fill="#ecb478" opacity="0.31"/><circle cx="678.3" cy="68.7" r="2.10" fill="#ecb478" opacity="0.16"/><circle cx="713.0" cy="64.8" r="2.72" fill="#ecb478" opacity="0.31"/><circle cx="747.8" cy="63.4" r="1.82" fill="#ecb478" opacity="0.30"/><circle cx="784.5" cy="67.5" r="3.75" fill="#ecb478" opacity="0.16"/><circle cx="819.6" cy="68.4" r="3.50" fill="#ecb478" opacity="0.17"/><circle cx="855.5" cy="64.8" r="1.79" fill="#ecb478" opacity="0.20"/><circle cx="895.7" cy="66.7" r="3.29" fill="#ecb478" opacity="0.32"/><circle cx="927.4" cy="69.0" r="1.69" fill="#ecb478" opacity="0.27"/><circle cx="964.8" cy="63.4" r="3.89" fill="#ecb478" opacity="0.18"/><circle cx="1002.5" cy="67.6" r="2.43" fill="#ecb478" opacity="0.21"/><circle cx="1036.6" cy="64.9" r="3.87" fill="#ecb478" opacity="0.24"/><circle cx="1071.4" cy="63.9" r="2.31" fill="#ecb478" opacity="0.19"/><circle cx="1108.8" cy="65.3" r="3.56" fill="#ecb478" opacity="0.36"/><circle cx="1145.2" cy="66.9" r="2.84" fill="#ecb478" opacity="0.35"/><circle cx="1183.9" cy="67.0" r="2.75" fill="#ecb478" opacity="0.30"/><circle cx="32.3" cy="99.8" r="2.09" fill="#ecb478" opacity="0.29"/><circle cx="64.9" cy="99.0" r="2.92" fill="#ecb478" opacity="0.18"/><circle cx="102.3" cy="103.5" r="2.94" fill="#ecb478" opacity="0.35"/><circle cx="140.4" cy="99.5" r="1.79" fill="#ecb478" opacity="0.23"/><circle cx="172.6" cy="99.7" r="2.77" fill="#ecb478" opacity="0.26"/><circle cx="208.5" cy="102.8" r="3.08" fill="#ecb478" opacity="0.22"/><circle cx="246.9" cy="101.9" r="2.72" fill="#ecb478" opacity="0.19"/><circle cx="284.0" cy="103.4" r="2.04" fill="#ecb478" opacity="0.17"/><circle cx="320.0" cy="101.7" r="1.83" fill="#ecb478" opacity="0.30"/><circle cx="356.9" cy="100.5" r="3.19" fill="#ecb478" opacity="0.32"/><circle cx="391.8" cy="103.5" r="2.94" fill="#ecb478" opacity="0.18"/><circle cx="424.7" cy="103.5" r="3.05" fill="#ecb478" opacity="0.18"/><circle cx="461.6" cy="99.9" r="2.23" fill="#ecb478" opacity="0.35"/><circle cx="499.1" cy="101.9" r="2.27" fill="#ecb478" opacity="0.24"/><circle cx="532.0" cy="103.2" r="1.94" fill="#ecb478" opacity="0.31"/><circle cx="569.6" cy="104.4" r="2.33" fill="#ecb478" opacity="0.19"/><circle cx="605.8" cy="99.8" r="2.32" fill="#ecb478" opacity="0.31"/><circle cx="644.1" cy="103.5" r="3.45" fill="#ecb478" opacity="0.18"/><circle cx="680.4" cy="101.5" r="2.10" fill="#ecb478" opacity="0.35"/><circle cx="711.7" cy="103.0" r="2.95" fill="#ecb478" opacity="0.21"/><circle cx="752.4" cy="102.9" r="2.48" fill="#ecb478" opacity="0.23"/><circle cx="785.1" cy="100.4" r="2.22" fill="#ecb478" opacity="0.23"/><circle cx="823.9" cy="99.3" r="2.44" fill="#ecb478" opacity="0.26"/><circle cx="860.1" cy="102.7" r="2.33" fill="#ecb478" opacity="0.36"/><circle cx="891.7" cy="101.7" r="3.15" fill="#ecb478" opacity="0.33"/><circle cx="931.5" cy="101.7" r="3.48" fill="#ecb478" opacity="0.26"/><circle cx="965.0" cy="102.4" r="2.87" fill="#ecb478" opacity="0.20"/><circle cx="1001.1" cy="101.3" r="3.90" fill="#ecb478" opacity="0.16"/><circle cx="1036.6" cy="104.0" r="2.90" fill="#ecb478" opacity="0.34"/><circle cx="1076.2" cy="100.4" r="2.07" fill="#ecb478" opacity="0.24"/><circle cx="1109.6" cy="102.9" r="1.80" fill="#ecb478" opacity="0.23"/><circle cx="1144.5" cy="102.7" r="2.21" fill="#ecb478" opacity="0.27"/><circle cx="1180.9" cy="103.7" r="2.87" fill="#ecb478" opacity="0.35"/><circle cx="29.8" cy="137.0" r="1.79" fill="#ecb478" opacity="0.20"/><circle cx="67.6" cy="140.8" r="2.10" fill="#ecb478" opacity="0.21"/><circle cx="100.6" cy="139.6" r="3.31" fill="#ecb478" opacity="0.23"/><circle cx="138.3" cy="135.2" r="2.62" fill="#ecb478" opacity="0.29"/><circle cx="174.2" cy="139.4" r="1.83" fill="#ecb478" opacity="0.18"/><circle cx="210.0" cy="136.1" r="3.88" fill="#ecb478" opacity="0.21"/><circle cx="248.7" cy="139.3" r="1.77" fill="#ecb478" opacity="0.27"/><circle cx="279.7" cy="140.5" r="2.13" fill="#ecb478" opacity="0.26"/><circle cx="315.5" cy="135.2" r="2.94" fill="#ecb478" opacity="0.28"/><circle cx="356.5" cy="140.3" r="2.02" fill="#ecb478" opacity="0.33"/><circle cx="392.0" cy="139.7" r="2.52" fill="#ecb478" opacity="0.32"/><circle cx="428.1" cy="138.0" r="2.18" fill="#ecb478" opacity="0.16"/><circle cx="461.4" cy="135.1" r="3.11" fill="#ecb478" opacity="0.30"/><circle cx="500.3" cy="137.2" r="2.57" fill="#ecb478" opacity="0.36"/><circle cx="534.8" cy="136.1" r="3.55" fill="#ecb478" opacity="0.19"/><circle cx="569.2" cy="139.3" r="3.83" fill="#ecb478" opacity="0.15"/><circle cx="607.3" cy="138.6" r="2.66" fill="#ecb478" opacity="0.34"/><circle cx="645.0" cy="137.5" r="1.68" fill="#ecb478" opacity="0.22"/><circle cx="681.0" cy="135.1" r="2.68" fill="#ecb478" opacity="0.36"/><circle cx="716.7" cy="135.8" r="3.32" fill="#ecb478" opacity="0.25"/><circle cx="748.6" cy="136.6" r="3.25" fill="#ecb478" opacity="0.30"/><circle cx="786.0" cy="138.2" r="3.94" fill="#ecb478" opacity="0.25"/><circle cx="819.0" cy="140.1" r="2.72" fill="#ecb478" opacity="0.18"/><circle cx="858.2" cy="138.4" r="2.99" fill="#ecb478" opacity="0.23"/><circle cx="895.4" cy="135.8" r="3.52" fill="#ecb478" opacity="0.25"/><circle cx="928.1" cy="139.0" r="3.53" fill="#ecb478" opacity="0.29"/><circle cx="966.5" cy="137.3" r="2.54" fill="#ecb478" opacity="0.31"/><circle cx="1002.6" cy="137.7" r="3.12" fill="#ecb478" opacity="0.24"/><circle cx="1035.0" cy="138.0" r="2.08" fill="#ecb478" opacity="0.29"/><circle cx="1072.2" cy="137.3" r="3.66" fill="#ecb478" opacity="0.18"/><circle cx="1108.2" cy="139.9" r="3.73" fill="#ecb478" opacity="0.22"/><circle cx="1148.6" cy="137.4" r="3.07" fill="#ecb478" opacity="0.26"/><circle cx="1179.6" cy="137.2" r="3.27" fill="#ecb478" opacity="0.17"/><circle cx="27.6" cy="176.6" r="3.75" fill="#ecb478" opacity="0.25"/><circle cx="67.1" cy="175.9" r="3.47" fill="#ecb478" opacity="0.21"/><circle cx="104.4" cy="173.7" r="1.65" fill="#ecb478" opacity="0.34"/><circle cx="138.7" cy="171.8" r="1.70" fill="#ecb478" opacity="0.22"/><circle cx="172.3" cy="173.8" r="3.13" fill="#ecb478" opacity="0.30"/><circle cx="210.7" cy="173.1" r="3.54" fill="#ecb478" opacity="0.15"/><circle cx="248.5" cy="175.6" r="2.21" fill="#ecb478" opacity="0.34"/><circle cx="279.2" cy="174.4" r="3.97" fill="#ecb478" opacity="0.15"/><circle cx="320.1" cy="176.3" r="3.50" fill="#ecb478" opacity="0.26"/><circle cx="353.5" cy="173.2" r="3.50" fill="#ecb478" opacity="0.29"/><circle cx="390.5" cy="171.1" r="3.57" fill="#ecb478" opacity="0.22"/><circle cx="428.5" cy="174.7" r="3.56" fill="#ecb478" opacity="0.24"/><circle cx="463.7" cy="171.0" r="2.75" fill="#ecb478" opacity="0.17"/><circle cx="497.5" cy="174.6" r="3.25" fill="#ecb478" opacity="0.22"/><circle cx="536.4" cy="173.2" r="2.17" fill="#ecb478" opacity="0.22"/><circle cx="568.8" cy="175.5" r="2.59" fill="#ecb478" opacity="0.32"/><circle cx="606.5" cy="172.8" r="3.61" fill="#ecb478" opacity="0.28"/><circle cx="643.6" cy="175.4" r="3.13" fill="#ecb478" opacity="0.28"/><circle cx="680.1" cy="174.8" r="3.60" fill="#ecb478" opacity="0.16"/><circle cx="713.3" cy="173.3" r="3.55" fill="#ecb478" opacity="0.29"/><circle cx="748.1" cy="175.5" r="1.95" fill="#ecb478" opacity="0.29"/><circle cx="786.6" cy="175.2" r="2.48" fill="#ecb478" opacity="0.19"/><circle cx="822.7" cy="176.0" r="1.92" fill="#ecb478" opacity="0.30"/><circle cx="859.0" cy="172.1" r="3.08" fill="#ecb478" opacity="0.17"/><circle cx="895.2" cy="175.5" r="3.42" fill="#ecb478" opacity="0.16"/><circle cx="929.1" cy="174.5" r="1.93" fill="#ecb478" opacity="0.15"/><circle cx="964.6" cy="174.8" r="2.40" fill="#ecb478" opacity="0.24"/><circle cx="1003.6" cy="172.1" r="3.68" fill="#ecb478" opacity="0.21"/><circle cx="1035.5" cy="172.4" r="3.79" fill="#ecb478" opacity="0.33"/><circle cx="1073.0" cy="176.0" r="3.44" fill="#ecb478" opacity="0.15"/><circle cx="1109.2" cy="172.9" r="1.98" fill="#ecb478" opacity="0.31"/><circle cx="1145.3" cy="174.4" r="1.98" fill="#ecb478" opacity="0.29"/><circle cx="1180.7" cy="174.0" r="2.57" fill="#ecb478" opacity="0.35"/><circle cx="29.6" cy="211.2" r="2.88" fill="#ecb478" opacity="0.32"/><circle cx="67.9" cy="210.7" r="3.54" fill="#ecb478" opacity="0.23"/><circle cx="102.2" cy="207.4" r="3.66" fill="#ecb478" opacity="0.21"/><circle cx="140.7" cy="208.2" r="2.28" fill="#ecb478" opacity="0.16"/><circle cx="175.5" cy="207.3" r="2.58" fill="#ecb478" opacity="0.36"/><circle cx="211.6" cy="211.7" r="3.94" fill="#ecb478" opacity="0.29"/><circle cx="248.9" cy="212.4" r="2.35" fill="#ecb478" opacity="0.24"/><circle cx="281.4" cy="210.2" r="1.95" fill="#ecb478" opacity="0.32"/><circle cx="318.2" cy="207.4" r="3.74" fill="#ecb478" opacity="0.34"/><circle cx="351.3" cy="210.8" r="3.39" fill="#ecb478" opacity="0.21"/><circle cx="391.9" cy="208.7" r="1.93" fill="#ecb478" opacity="0.17"/><circle cx="426.0" cy="212.6" r="2.39" fill="#ecb478" opacity="0.26"/><circle cx="459.0" cy="212.2" r="2.87" fill="#ecb478" opacity="0.28"/><circle cx="497.3" cy="210.6" r="2.44" fill="#ecb478" opacity="0.23"/><circle cx="534.2" cy="208.4" r="3.48" fill="#ecb478" opacity="0.35"/><circle cx="570.3" cy="208.7" r="3.39" fill="#ecb478" opacity="0.17"/><circle cx="603.0" cy="208.1" r="1.82" fill="#ecb478" opacity="0.31"/><circle cx="644.9" cy="211.9" r="2.54" fill="#ecb478" opacity="0.24"/><circle cx="675.9" cy="208.8" r="2.67" fill="#ecb478" opacity="0.31"/><circle cx="713.1" cy="212.3" r="2.85" fill="#ecb478" opacity="0.19"/><circle cx="752.8" cy="212.7" r="2.06" fill="#ecb478" opacity="0.28"/><circle cx="787.3" cy="211.7" r="2.47" fill="#ecb478" opacity="0.30"/><circle cx="821.7" cy="208.8" r="3.47" fill="#ecb478" opacity="0.32"/><circle cx="858.2" cy="209.7" r="2.89" fill="#ecb478" opacity="0.21"/><circle cx="894.1" cy="211.3" r="1.81" fill="#ecb478" opacity="0.22"/><circle cx="932.2" cy="212.4" r="2.54" fill="#ecb478" opacity="0.18"/><circle cx="967.6" cy="210.6" r="2.61" fill="#ecb478" opacity="0.21"/><circle cx="1002.0" cy="211.4" r="3.17" fill="#ecb478" opacity="0.24"/><circle cx="1036.0" cy="210.7" r="3.49" fill="#ecb478" opacity="0.22"/><circle cx="1072.9" cy="207.1" r="2.83" fill="#ecb478" opacity="0.30"/><circle cx="1110.7" cy="208.9" r="3.28" fill="#ecb478" opacity="0.34"/><circle cx="1143.0" cy="207.4" r="3.73" fill="#ecb478" opacity="0.31"/><circle cx="1183.0" cy="212.8" r="2.86" fill="#ecb478" opacity="0.28"/><circle cx="28.8" cy="245.6" r="2.71" fill="#ecb478" opacity="0.21"/><circle cx="63.2" cy="247.0" r="1.78" fill="#ecb478" opacity="0.26"/><circle cx="104.1" cy="246.5" r="2.69" fill="#ecb478" opacity="0.22"/><circle cx="136.2" cy="248.9" r="1.99" fill="#ecb478" opacity="0.29"/><circle cx="173.9" cy="243.2" r="2.27" fill="#ecb478" opacity="0.30"/><circle cx="212.9" cy="243.5" r="2.66" fill="#ecb478" opacity="0.35"/><circle cx="246.9" cy="248.6" r="2.55" fill="#ecb478" opacity="0.22"/><circle cx="283.5" cy="247.9" r="2.62" fill="#ecb478" opacity="0.22"/><circle cx="319.8" cy="244.6" r="2.89" fill="#ecb478" opacity="0.36"/><circle cx="353.8" cy="243.0" r="2.67" fill="#ecb478" opacity="0.22"/><circle cx="392.9" cy="243.9" r="1.88" fill="#ecb478" opacity="0.28"/><circle cx="428.9" cy="244.1" r="2.81" fill="#ecb478" opacity="0.35"/><circle cx="461.3" cy="244.7" r="2.99" fill="#ecb478" opacity="0.27"/><circle cx="500.4" cy="247.4" r="3.82" fill="#ecb478" opacity="0.35"/><circle cx="534.7" cy="246.4" r="3.80" fill="#ecb478" opacity="0.35"/><circle cx="567.6" cy="244.5" r="2.62" fill="#ecb478" opacity="0.20"/><circle cx="604.5" cy="246.5" r="3.97" fill="#ecb478" opacity="0.30"/><circle cx="643.6" cy="248.0" r="3.93" fill="#ecb478" opacity="0.23"/><circle cx="678.9" cy="248.3" r="2.84" fill="#ecb478" opacity="0.19"/><circle cx="711.6" cy="247.6" r="3.44" fill="#ecb478" opacity="0.15"/><circle cx="749.3" cy="244.4" r="1.93" fill="#ecb478" opacity="0.28"/><circle cx="788.1" cy="247.4" r="2.26" fill="#ecb478" opacity="0.18"/><circle cx="820.4" cy="244.9" r="2.08" fill="#ecb478" opacity="0.26"/><circle cx="856.6" cy="246.5" r="1.87" fill="#ecb478" opacity="0.30"/><circle cx="895.8" cy="246.8" r="2.97" fill="#ecb478" opacity="0.17"/><circle cx="929.8" cy="244.5" r="2.57" fill="#ecb478" opacity="0.34"/><circle cx="965.1" cy="243.8" r="3.76" fill="#ecb478" opacity="0.29"/><circle cx="999.6" cy="246.9" r="1.61" fill="#ecb478" opacity="0.18"/><circle cx="1038.2" cy="244.8" r="3.45" fill="#ecb478" opacity="0.35"/><circle cx="1075.8" cy="244.4" r="1.65" fill="#ecb478" opacity="0.32"/><circle cx="1110.6" cy="246.1" r="3.71" fill="#ecb478" opacity="0.26"/><circle cx="1143.9" cy="243.9" r="2.00" fill="#ecb478" opacity="0.19"/><circle cx="1184.5" cy="243.2" r="3.08" fill="#ecb478" opacity="0.29"/><circle cx="32.6" cy="279.5" r="1.92" fill="#ecb478" opacity="0.31"/><circle cx="67.3" cy="284.5" r="3.47" fill="#ecb478" opacity="0.25"/><circle cx="103.6" cy="282.1" r="1.82" fill="#ecb478" opacity="0.25"/><circle cx="136.8" cy="280.8" r="1.94" fill="#ecb478" opacity="0.20"/><circle cx="171.6" cy="282.6" r="1.73" fill="#ecb478" opacity="0.17"/><circle cx="213.0" cy="280.7" r="3.74" fill="#ecb478" opacity="0.35"/><circle cx="249.0" cy="283.8" r="3.46" fill="#ecb478" opacity="0.21"/><circle cx="284.3" cy="284.7" r="3.62" fill="#ecb478" opacity="0.23"/><circle cx="317.3" cy="279.5" r="3.97" fill="#ecb478" opacity="0.34"/><circle cx="351.8" cy="280.9" r="2.19" fill="#ecb478" opacity="0.17"/><circle cx="390.4" cy="284.3" r="3.12" fill="#ecb478" opacity="0.30"/><circle cx="423.1" cy="281.9" r="3.53" fill="#ecb478" opacity="0.29"/><circle cx="463.7" cy="282.5" r="2.76" fill="#ecb478" opacity="0.19"/><circle cx="500.9" cy="282.9" r="1.60" fill="#ecb478" opacity="0.20"/><circle cx="533.1" cy="283.8" r="1.99" fill="#ecb478" opacity="0.27"/><circle cx="568.2" cy="284.9" r="3.93" fill="#ecb478" opacity="0.33"/><circle cx="608.5" cy="279.7" r="2.59" fill="#ecb478" opacity="0.27"/><circle cx="640.8" cy="281.1" r="3.07" fill="#ecb478" opacity="0.26"/><circle cx="678.1" cy="283.9" r="1.93" fill="#ecb478" opacity="0.24"/><circle cx="713.1" cy="282.9" r="2.64" fill="#ecb478" opacity="0.20"/><circle cx="752.9" cy="284.4" r="3.23" fill="#ecb478" opacity="0.21"/><circle cx="787.2" cy="279.2" r="1.77" fill="#ecb478" opacity="0.35"/><circle cx="820.2" cy="279.5" r="2.19" fill="#ecb478" opacity="0.25"/><circle cx="855.6" cy="282.0" r="3.42" fill="#ecb478" opacity="0.25"/><circle cx="896.8" cy="282.6" r="3.96" fill="#ecb478" opacity="0.28"/><circle cx="932.0" cy="283.2" r="2.67" fill="#ecb478" opacity="0.16"/><circle cx="965.1" cy="280.0" r="2.23" fill="#ecb478" opacity="0.33"/><circle cx="1001.6" cy="281.6" r="1.69" fill="#ecb478" opacity="0.27"/><circle cx="1040.9" cy="280.3" r="2.39" fill="#ecb478" opacity="0.34"/><circle cx="1073.1" cy="285.0" r="2.22" fill="#ecb478" opacity="0.17"/><circle cx="1107.9" cy="284.0" r="2.47" fill="#ecb478" opacity="0.15"/><circle cx="1146.0" cy="283.8" r="1.66" fill="#ecb478" opacity="0.23"/><circle cx="1180.4" cy="282.5" r="3.12" fill="#ecb478" opacity="0.15"/><circle cx="29.8" cy="319.0" r="2.17" fill="#ecb478" opacity="0.34"/><circle cx="67.4" cy="318.7" r="2.41" fill="#ecb478" opacity="0.29"/><circle cx="104.0" cy="319.1" r="2.46" fill="#ecb478" opacity="0.26"/><circle cx="135.4" cy="316.6" r="3.22" fill="#ecb478" opacity="0.22"/><circle cx="175.6" cy="319.5" r="2.68" fill="#ecb478" opacity="0.29"/><circle cx="212.1" cy="317.0" r="2.42" fill="#ecb478" opacity="0.34"/><circle cx="248.9" cy="319.5" r="2.30" fill="#ecb478" opacity="0.17"/><circle cx="284.2" cy="316.7" r="3.90" fill="#ecb478" opacity="0.28"/><circle cx="320.8" cy="315.2" r="3.28" fill="#ecb478" opacity="0.19"/><circle cx="352.1" cy="316.2" r="2.50" fill="#ecb478" opacity="0.18"/><circle cx="390.6" cy="320.2" r="1.98" fill="#ecb478" opacity="0.15"/><circle cx="423.5" cy="318.9" r="2.03" fill="#ecb478" opacity="0.29"/><circle cx="463.5" cy="318.6" r="2.55" fill="#ecb478" opacity="0.25"/><circle cx="500.4" cy="319.6" r="2.19" fill="#ecb478" opacity="0.19"/><circle cx="531.2" cy="316.0" r="1.94" fill="#ecb478" opacity="0.23"/><circle cx="571.2" cy="316.9" r="2.71" fill="#ecb478" opacity="0.24"/><circle cx="607.9" cy="317.4" r="2.93" fill="#ecb478" opacity="0.33"/><circle cx="641.2" cy="318.2" r="2.43" fill="#ecb478" opacity="0.35"/><circle cx="678.9" cy="320.5" r="3.66" fill="#ecb478" opacity="0.17"/><circle cx="714.5" cy="317.6" r="3.16" fill="#ecb478" opacity="0.19"/><circle cx="748.3" cy="319.0" r="1.89" fill="#ecb478" opacity="0.26"/><circle cx="786.8" cy="318.7" r="3.79" fill="#ecb478" opacity="0.19"/><circle cx="819.3" cy="320.3" r="2.08" fill="#ecb478" opacity="0.33"/><circle cx="859.4" cy="316.6" r="2.21" fill="#ecb478" opacity="0.15"/><circle cx="892.4" cy="317.6" r="3.15" fill="#ecb478" opacity="0.15"/><circle cx="931.7" cy="317.9" r="2.28" fill="#ecb478" opacity="0.18"/><circle cx="963.3" cy="315.1" r="2.13" fill="#ecb478" opacity="0.28"/><circle cx="1000.4" cy="320.6" r="3.47" fill="#ecb478" opacity="0.33"/><circle cx="1036.9" cy="316.8" r="3.37" fill="#ecb478" opacity="0.18"/><circle cx="1073.2" cy="317.9" r="3.25" fill="#ecb478" opacity="0.15"/><circle cx="1110.5" cy="316.6" r="3.54" fill="#ecb478" opacity="0.16"/><circle cx="1143.3" cy="317.3" r="2.85" fill="#ecb478" opacity="0.16"/><circle cx="1184.9" cy="316.8" r="2.05" fill="#ecb478" opacity="0.19"/><circle cx="29.7" cy="355.9" r="3.34" fill="#ecb478" opacity="0.35"/><circle cx="64.6" cy="355.0" r="1.85" fill="#ecb478" opacity="0.26"/><circle cx="102.3" cy="352.5" r="2.22" fill="#ecb478" opacity="0.24"/><circle cx="135.1" cy="351.5" r="2.44" fill="#ecb478" opacity="0.21"/><circle cx="175.7" cy="354.7" r="3.07" fill="#ecb478" opacity="0.33"/><circle cx="209.7" cy="354.7" r="3.46" fill="#ecb478" opacity="0.19"/><circle cx="247.4" cy="356.1" r="3.13" fill="#ecb478" opacity="0.23"/><circle cx="282.5" cy="353.9" r="3.74" fill="#ecb478" opacity="0.30"/><circle cx="320.8" cy="351.2" r="2.69" fill="#ecb478" opacity="0.21"/><circle cx="355.0" cy="355.2" r="2.28" fill="#ecb478" opacity="0.27"/><circle cx="387.4" cy="356.7" r="2.79" fill="#ecb478" opacity="0.24"/><circle cx="428.0" cy="355.6" r="3.22" fill="#ecb478" opacity="0.24"/><circle cx="461.7" cy="356.4" r="1.99" fill="#ecb478" opacity="0.32"/><circle cx="500.8" cy="354.7" r="3.09" fill="#ecb478" opacity="0.34"/><circle cx="534.4" cy="354.5" r="3.16" fill="#ecb478" opacity="0.21"/><circle cx="568.4" cy="353.7" r="3.32" fill="#ecb478" opacity="0.21"/><circle cx="603.2" cy="352.5" r="1.90" fill="#ecb478" opacity="0.31"/><circle cx="642.1" cy="354.6" r="3.82" fill="#ecb478" opacity="0.21"/><circle cx="680.7" cy="354.6" r="3.38" fill="#ecb478" opacity="0.25"/><circle cx="711.8" cy="353.2" r="3.38" fill="#ecb478" opacity="0.36"/><circle cx="750.2" cy="356.8" r="3.85" fill="#ecb478" opacity="0.19"/><circle cx="784.7" cy="353.8" r="2.71" fill="#ecb478" opacity="0.16"/><circle cx="819.7" cy="352.8" r="3.77" fill="#ecb478" opacity="0.20"/><circle cx="856.8" cy="353.9" r="1.90" fill="#ecb478" opacity="0.25"/><circle cx="895.8" cy="351.8" r="2.67" fill="#ecb478" opacity="0.28"/><circle cx="930.8" cy="355.2" r="3.80" fill="#ecb478" opacity="0.21"/><circle cx="965.2" cy="351.9" r="2.31" fill="#ecb478" opacity="0.19"/><circle cx="1002.4" cy="352.8" r="2.49" fill="#ecb478" opacity="0.31"/><circle cx="1036.6" cy="355.3" r="3.79" fill="#ecb478" opacity="0.18"/><circle cx="1072.5" cy="355.7" r="2.12" fill="#ecb478" opacity="0.21"/><circle cx="1110.3" cy="352.3" r="2.64" fill="#ecb478" opacity="0.21"/><circle cx="1144.9" cy="353.2" r="1.92" fill="#ecb478" opacity="0.29"/><circle cx="1184.5" cy="353.2" r="3.32" fill="#ecb478" opacity="0.31"/><circle cx="27.4" cy="388.9" r="2.82" fill="#ecb478" opacity="0.16"/><circle cx="66.8" cy="393.0" r="2.76" fill="#ecb478" opacity="0.25"/><circle cx="101.5" cy="390.7" r="1.64" fill="#ecb478" opacity="0.23"/><circle cx="138.9" cy="388.5" r="2.36" fill="#ecb478" opacity="0.22"/><circle cx="176.6" cy="388.8" r="3.58" fill="#ecb478" opacity="0.27"/><circle cx="209.8" cy="392.7" r="1.76" fill="#ecb478" opacity="0.28"/><circle cx="245.5" cy="390.5" r="3.81" fill="#ecb478" opacity="0.18"/><circle cx="282.5" cy="388.1" r="3.20" fill="#ecb478" opacity="0.31"/><circle cx="319.5" cy="391.5" r="3.19" fill="#ecb478" opacity="0.36"/><circle cx="353.3" cy="389.2" r="2.18" fill="#ecb478" opacity="0.33"/><circle cx="387.2" cy="387.5" r="3.94" fill="#ecb478" opacity="0.30"/><circle cx="423.9" cy="391.4" r="2.79" fill="#ecb478" opacity="0.17"/><circle cx="460.1" cy="390.7" r="2.61" fill="#ecb478" opacity="0.25"/><circle cx="497.2" cy="387.5" r="3.40" fill="#ecb478" opacity="0.18"/><circle cx="534.6" cy="388.5" r="3.72" fill="#ecb478" opacity="0.32"/><circle cx="569.1" cy="387.9" r="2.45" fill="#ecb478" opacity="0.25"/><circle cx="604.2" cy="388.0" r="3.07" fill="#ecb478" opacity="0.31"/><circle cx="639.2" cy="389.9" r="1.67" fill="#ecb478" opacity="0.33"/><circle cx="677.0" cy="389.6" r="3.39" fill="#ecb478" opacity="0.29"/><circle cx="715.2" cy="392.1" r="2.21" fill="#ecb478" opacity="0.34"/><circle cx="750.0" cy="387.6" r="2.04" fill="#ecb478" opacity="0.19"/><circle cx="783.7" cy="389.5" r="1.88" fill="#ecb478" opacity="0.20"/><circle cx="821.7" cy="392.5" r="1.98" fill="#ecb478" opacity="0.28"/><circle cx="859.7" cy="390.9" r="3.47" fill="#ecb478" opacity="0.20"/><circle cx="896.8" cy="387.5" r="2.09" fill="#ecb478" opacity="0.30"/><circle cx="927.1" cy="388.4" r="2.51" fill="#ecb478" opacity="0.16"/><circle cx="964.9" cy="389.5" r="3.98" fill="#ecb478" opacity="0.18"/><circle cx="1004.4" cy="388.7" r="3.08" fill="#ecb478" opacity="0.21"/><circle cx="1039.8" cy="388.7" r="2.15" fill="#ecb478" opacity="0.18"/><circle cx="1076.8" cy="392.4" r="2.08" fill="#ecb478" opacity="0.23"/><circle cx="1108.9" cy="389.5" r="3.30" fill="#ecb478" opacity="0.16"/><circle cx="1143.1" cy="389.7" r="3.69" fill="#ecb478" opacity="0.33"/><circle cx="1182.4" cy="390.6" r="3.71" fill="#ecb478" opacity="0.32"/><circle cx="27.9" cy="424.4" r="2.48" fill="#ecb478" opacity="0.29"/><circle cx="65.5" cy="428.6" r="2.17" fill="#ecb478" opacity="0.29"/><circle cx="101.3" cy="423.4" r="3.39" fill="#ecb478" opacity="0.33"/><circle cx="136.6" cy="424.3" r="3.63" fill="#ecb478" opacity="0.21"/><circle cx="176.7" cy="425.2" r="1.75" fill="#ecb478" opacity="0.18"/><circle cx="212.1" cy="425.1" r="3.23" fill="#ecb478" opacity="0.16"/><circle cx="248.2" cy="426.6" r="2.04" fill="#ecb478" opacity="0.27"/><circle cx="281.4" cy="426.6" r="2.60" fill="#ecb478" opacity="0.33"/><circle cx="315.7" cy="428.9" r="1.73" fill="#ecb478" opacity="0.25"/><circle cx="354.6" cy="426.7" r="3.95" fill="#ecb478" opacity="0.28"/><circle cx="392.6" cy="427.8" r="2.94" fill="#ecb478" opacity="0.24"/><circle cx="424.8" cy="426.4" r="2.59" fill="#ecb478" opacity="0.29"/><circle cx="464.5" cy="428.9" r="3.28" fill="#ecb478" opacity="0.21"/><circle cx="497.3" cy="428.5" r="2.35" fill="#ecb478" opacity="0.28"/><circle cx="531.5" cy="425.3" r="3.06" fill="#ecb478" opacity="0.26"/><circle cx="570.3" cy="426.8" r="3.81" fill="#ecb478" opacity="0.28"/><circle cx="604.9" cy="425.9" r="1.94" fill="#ecb478" opacity="0.27"/><circle cx="641.0" cy="427.5" r="1.76" fill="#ecb478" opacity="0.32"/><circle cx="676.9" cy="427.9" r="3.22" fill="#ecb478" opacity="0.21"/><circle cx="711.9" cy="427.9" r="3.04" fill="#ecb478" opacity="0.19"/><circle cx="752.5" cy="428.9" r="1.82" fill="#ecb478" opacity="0.28"/><circle cx="788.4" cy="428.0" r="3.35" fill="#ecb478" opacity="0.20"/><circle cx="824.1" cy="427.1" r="3.14" fill="#ecb478" opacity="0.30"/><circle cx="858.8" cy="424.2" r="2.57" fill="#ecb478" opacity="0.18"/><circle cx="891.5" cy="425.8" r="3.99" fill="#ecb478" opacity="0.20"/><circle cx="927.3" cy="428.8" r="2.75" fill="#ecb478" opacity="0.36"/><circle cx="965.2" cy="425.1" r="2.17" fill="#ecb478" opacity="0.17"/><circle cx="999.2" cy="424.9" r="2.84" fill="#ecb478" opacity="0.28"/><circle cx="1035.1" cy="427.1" r="1.82" fill="#ecb478" opacity="0.31"/><circle cx="1073.1" cy="425.9" r="3.74" fill="#ecb478" opacity="0.31"/><circle cx="1110.2" cy="427.9" r="1.90" fill="#ecb478" opacity="0.30"/><circle cx="1143.5" cy="427.8" r="2.14" fill="#ecb478" opacity="0.19"/><circle cx="1183.2" cy="425.3" r="3.28" fill="#ecb478" opacity="0.24"/><circle cx="29.0" cy="461.4" r="3.55" fill="#ecb478" opacity="0.31"/><circle cx="67.7" cy="459.4" r="1.64" fill="#ecb478" opacity="0.19"/><circle cx="99.4" cy="459.6" r="2.53" fill="#ecb478" opacity="0.32"/><circle cx="138.9" cy="462.2" r="1.61" fill="#ecb478" opacity="0.22"/><circle cx="173.3" cy="462.7" r="3.90" fill="#ecb478" opacity="0.22"/><circle cx="208.8" cy="461.6" r="3.16" fill="#ecb478" opacity="0.23"/><circle cx="249.0" cy="463.6" r="2.73" fill="#ecb478" opacity="0.20"/><circle cx="280.5" cy="460.2" r="3.40" fill="#ecb478" opacity="0.21"/><circle cx="317.1" cy="460.2" r="1.81" fill="#ecb478" opacity="0.22"/><circle cx="355.4" cy="460.2" r="2.04" fill="#ecb478" opacity="0.15"/><circle cx="389.9" cy="462.7" r="2.87" fill="#ecb478" opacity="0.34"/><circle cx="428.1" cy="463.0" r="1.65" fill="#ecb478" opacity="0.31"/><circle cx="459.9" cy="464.8" r="3.28" fill="#ecb478" opacity="0.22"/><circle cx="495.1" cy="459.4" r="3.72" fill="#ecb478" opacity="0.19"/><circle cx="533.7" cy="463.7" r="3.66" fill="#ecb478" opacity="0.29"/><circle cx="567.3" cy="461.1" r="3.10" fill="#ecb478" opacity="0.24"/><circle cx="608.7" cy="459.7" r="3.37" fill="#ecb478" opacity="0.22"/><circle cx="641.4" cy="462.5" r="2.84" fill="#ecb478" opacity="0.18"/><circle cx="676.7" cy="462.5" r="3.47" fill="#ecb478" opacity="0.18"/><circle cx="713.6" cy="462.3" r="2.60" fill="#ecb478" opacity="0.36"/><circle cx="752.0" cy="459.2" r="2.07" fill="#ecb478" opacity="0.20"/><circle cx="785.1" cy="460.9" r="2.12" fill="#ecb478" opacity="0.26"/><circle cx="820.6" cy="460.7" r="3.59" fill="#ecb478" opacity="0.36"/><circle cx="858.1" cy="461.7" r="3.11" fill="#ecb478" opacity="0.20"/><circle cx="894.4" cy="464.5" r="2.42" fill="#ecb478" opacity="0.27"/><circle cx="931.1" cy="463.6" r="1.77" fill="#ecb478" opacity="0.24"/><circle cx="963.1" cy="461.1" r="3.45" fill="#ecb478" opacity="0.26"/><circle cx="1004.4" cy="463.9" r="2.48" fill="#ecb478" opacity="0.25"/><circle cx="1040.4" cy="462.1" r="3.03" fill="#ecb478" opacity="0.34"/><circle cx="1072.4" cy="461.7" r="2.68" fill="#ecb478" opacity="0.35"/><circle cx="1108.3" cy="459.2" r="3.33" fill="#ecb478" opacity="0.30"/><circle cx="1144.1" cy="462.0" r="3.60" fill="#ecb478" opacity="0.17"/><circle cx="1179.2" cy="464.5" r="1.88" fill="#ecb478" opacity="0.16"/><circle cx="30.3" cy="501.0" r="2.02" fill="#ecb478" opacity="0.17"/><circle cx="64.2" cy="499.1" r="3.72" fill="#ecb478" opacity="0.27"/><circle cx="99.3" cy="500.1" r="3.06" fill="#ecb478" opacity="0.22"/><circle cx="140.8" cy="499.2" r="1.74" fill="#ecb478" opacity="0.21"/><circle cx="175.4" cy="495.9" r="2.39" fill="#ecb478" opacity="0.29"/><circle cx="211.7" cy="500.0" r="2.61" fill="#ecb478" opacity="0.33"/><circle cx="243.1" cy="496.3" r="3.05" fill="#ecb478" opacity="0.31"/><circle cx="279.9" cy="497.8" r="1.82" fill="#ecb478" opacity="0.31"/><circle cx="317.4" cy="499.8" r="2.55" fill="#ecb478" opacity="0.19"/><circle cx="355.9" cy="496.8" r="1.66" fill="#ecb478" opacity="0.29"/><circle cx="392.8" cy="495.4" r="3.23" fill="#ecb478" opacity="0.28"/><circle cx="426.2" cy="496.8" r="3.21" fill="#ecb478" opacity="0.35"/><circle cx="464.0" cy="498.2" r="3.79" fill="#ecb478" opacity="0.17"/><circle cx="497.2" cy="496.3" r="3.16" fill="#ecb478" opacity="0.19"/><circle cx="534.3" cy="500.0" r="2.86" fill="#ecb478" opacity="0.36"/><circle cx="571.0" cy="500.1" r="3.30" fill="#ecb478" opacity="0.28"/><circle cx="603.4" cy="500.7" r="2.58" fill="#ecb478" opacity="0.29"/><circle cx="644.1" cy="499.2" r="3.83" fill="#ecb478" opacity="0.24"/><circle cx="675.2" cy="496.4" r="2.75" fill="#ecb478" opacity="0.29"/><circle cx="714.4" cy="498.8" r="3.30" fill="#ecb478" opacity="0.16"/><circle cx="750.4" cy="500.6" r="2.38" fill="#ecb478" opacity="0.25"/><circle cx="785.2" cy="500.2" r="1.93" fill="#ecb478" opacity="0.20"/><circle cx="819.0" cy="495.5" r="2.08" fill="#ecb478" opacity="0.23"/><circle cx="858.9" cy="497.7" r="3.83" fill="#ecb478" opacity="0.30"/><circle cx="893.5" cy="500.6" r="2.40" fill="#ecb478" opacity="0.15"/><circle cx="929.8" cy="500.5" r="3.33" fill="#ecb478" opacity="0.16"/><circle cx="963.3" cy="498.8" r="3.06" fill="#ecb478" opacity="0.29"/><circle cx="999.5" cy="495.1" r="3.95" fill="#ecb478" opacity="0.28"/><circle cx="1039.0" cy="498.9" r="3.35" fill="#ecb478" opacity="0.19"/><circle cx="1076.9" cy="499.0" r="2.98" fill="#ecb478" opacity="0.29"/><circle cx="1108.8" cy="496.4" r="3.16" fill="#ecb478" opacity="0.29"/><circle cx="1144.0" cy="496.7" r="2.21" fill="#ecb478" opacity="0.30"/><circle cx="1180.2" cy="495.6" r="3.54" fill="#ecb478" opacity="0.25"/><circle cx="27.3" cy="536.0" r="1.76" fill="#ecb478" opacity="0.34"/><circle cx="67.2" cy="534.3" r="3.06" fill="#ecb478" opacity="0.30"/><circle cx="100.5" cy="534.6" r="2.70" fill="#ecb478" opacity="0.19"/><circle cx="136.2" cy="537.0" r="3.67" fill="#ecb478" opacity="0.23"/><circle cx="172.1" cy="533.0" r="2.33" fill="#ecb478" opacity="0.17"/><circle cx="211.9" cy="535.2" r="3.74" fill="#ecb478" opacity="0.31"/><circle cx="243.9" cy="536.8" r="1.71" fill="#ecb478" opacity="0.29"/><circle cx="280.6" cy="536.7" r="2.00" fill="#ecb478" opacity="0.16"/><circle cx="320.7" cy="535.2" r="2.10" fill="#ecb478" opacity="0.26"/><circle cx="355.6" cy="531.5" r="2.06" fill="#ecb478" opacity="0.23"/><circle cx="390.3" cy="536.5" r="3.09" fill="#ecb478" opacity="0.17"/><circle cx="423.8" cy="533.6" r="2.76" fill="#ecb478" opacity="0.20"/><circle cx="461.3" cy="534.4" r="3.46" fill="#ecb478" opacity="0.28"/><circle cx="497.5" cy="535.9" r="3.95" fill="#ecb478" opacity="0.26"/><circle cx="535.1" cy="534.5" r="2.19" fill="#ecb478" opacity="0.19"/><circle cx="570.6" cy="533.5" r="2.65" fill="#ecb478" opacity="0.17"/><circle cx="603.9" cy="535.7" r="1.86" fill="#ecb478" opacity="0.21"/><circle cx="641.7" cy="532.1" r="3.90" fill="#ecb478" opacity="0.30"/><circle cx="676.9" cy="536.0" r="2.37" fill="#ecb478" opacity="0.21"/><circle cx="712.1" cy="535.3" r="3.30" fill="#ecb478" opacity="0.35"/><circle cx="752.7" cy="531.0" r="2.03" fill="#ecb478" opacity="0.22"/><circle cx="786.6" cy="535.0" r="2.05" fill="#ecb478" opacity="0.34"/><circle cx="819.0" cy="534.5" r="3.72" fill="#ecb478" opacity="0.27"/><circle cx="859.8" cy="534.3" r="3.77" fill="#ecb478" opacity="0.32"/><circle cx="893.2" cy="533.0" r="3.53" fill="#ecb478" opacity="0.19"/><circle cx="931.7" cy="532.4" r="2.27" fill="#ecb478" opacity="0.24"/><circle cx="964.1" cy="535.7" r="1.86" fill="#ecb478" opacity="0.20"/><circle cx="1004.0" cy="534.1" r="1.83" fill="#ecb478" opacity="0.20"/><circle cx="1038.6" cy="535.9" r="2.39" fill="#ecb478" opacity="0.18"/><circle cx="1075.2" cy="532.7" r="2.40" fill="#ecb478" opacity="0.35"/><circle cx="1111.7" cy="534.8" r="3.94" fill="#ecb478" opacity="0.18"/><circle cx="1144.9" cy="532.7" r="2.23" fill="#ecb478" opacity="0.30"/><circle cx="1179.2" cy="531.9" r="2.64" fill="#ecb478" opacity="0.28"/><circle cx="31.1" cy="571.1" r="2.68" fill="#ecb478" opacity="0.34"/><circle cx="67.8" cy="568.6" r="2.41" fill="#ecb478" opacity="0.15"/><circle cx="99.5" cy="572.0" r="1.62" fill="#ecb478" opacity="0.35"/><circle cx="136.9" cy="567.2" r="3.93" fill="#ecb478" opacity="0.22"/><circle cx="173.3" cy="567.2" r="3.89" fill="#ecb478" opacity="0.29"/><circle cx="208.8" cy="567.4" r="3.33" fill="#ecb478" opacity="0.29"/><circle cx="245.8" cy="571.9" r="2.39" fill="#ecb478" opacity="0.27"/><circle cx="284.8" cy="570.5" r="2.62" fill="#ecb478" opacity="0.16"/><circle cx="320.5" cy="572.1" r="2.73" fill="#ecb478" opacity="0.20"/><circle cx="354.9" cy="569.1" r="3.69" fill="#ecb478" opacity="0.24"/><circle cx="388.5" cy="572.4" r="1.60" fill="#ecb478" opacity="0.28"/><circle cx="428.6" cy="568.7" r="3.60" fill="#ecb478" opacity="0.34"/><circle cx="461.9" cy="567.0" r="2.52" fill="#ecb478" opacity="0.16"/><circle cx="498.2" cy="572.5" r="3.17" fill="#ecb478" opacity="0.23"/><circle cx="536.5" cy="572.2" r="3.25" fill="#ecb478" opacity="0.20"/><circle cx="572.6" cy="568.9" r="2.64" fill="#ecb478" opacity="0.34"/><circle cx="607.4" cy="567.0" r="2.48" fill="#ecb478" opacity="0.28"/><circle cx="644.7" cy="567.1" r="1.85" fill="#ecb478" opacity="0.23"/><circle cx="678.0" cy="570.5" r="2.55" fill="#ecb478" opacity="0.18"/><circle cx="715.2" cy="569.3" r="2.50" fill="#ecb478" opacity="0.32"/><circle cx="748.8" cy="571.5" r="1.78" fill="#ecb478" opacity="0.27"/><circle cx="785.3" cy="570.4" r="3.91" fill="#ecb478" opacity="0.24"/><circle cx="824.2" cy="567.4" r="2.76" fill="#ecb478" opacity="0.35"/><circle cx="859.5" cy="572.9" r="3.34" fill="#ecb478" opacity="0.16"/><circle cx="892.5" cy="569.9" r="3.26" fill="#ecb478" opacity="0.15"/><circle cx="932.1" cy="569.3" r="2.97" fill="#ecb478" opacity="0.26"/><circle cx="963.9" cy="569.5" r="3.61" fill="#ecb478" opacity="0.21"/><circle cx="1004.8" cy="568.8" r="3.98" fill="#ecb478" opacity="0.19"/><circle cx="1038.9" cy="567.9" r="3.37" fill="#ecb478" opacity="0.29"/><circle cx="1073.7" cy="570.1" r="3.53" fill="#ecb478" opacity="0.27"/><circle cx="1108.0" cy="568.5" r="1.70" fill="#ecb478" opacity="0.22"/><circle cx="1145.2" cy="569.8" r="3.95" fill="#ecb478" opacity="0.21"/><circle cx="1181.1" cy="571.1" r="1.62" fill="#ecb478" opacity="0.16"/><circle cx="29.3" cy="607.3" r="3.93" fill="#ecb478" opacity="0.20"/><circle cx="66.7" cy="608.5" r="3.71" fill="#ecb478" opacity="0.21"/><circle cx="102.0" cy="607.9" r="3.39" fill="#ecb478" opacity="0.29"/><circle cx="140.8" cy="604.2" r="2.15" fill="#ecb478" opacity="0.18"/><circle cx="172.7" cy="604.5" r="3.77" fill="#ecb478" opacity="0.30"/><circle cx="208.9" cy="606.9" r="2.65" fill="#ecb478" opacity="0.30"/><circle cx="246.4" cy="606.0" r="3.01" fill="#ecb478" opacity="0.25"/><circle cx="279.6" cy="607.9" r="1.91" fill="#ecb478" opacity="0.23"/><circle cx="315.2" cy="608.3" r="3.32" fill="#ecb478" opacity="0.19"/><circle cx="353.9" cy="608.1" r="3.92" fill="#ecb478" opacity="0.22"/><circle cx="390.1" cy="605.4" r="3.41" fill="#ecb478" opacity="0.26"/><circle cx="426.2" cy="604.1" r="2.12" fill="#ecb478" opacity="0.17"/><circle cx="461.8" cy="603.7" r="2.72" fill="#ecb478" opacity="0.34"/><circle cx="498.2" cy="603.8" r="3.38" fill="#ecb478" opacity="0.26"/><circle cx="534.6" cy="608.9" r="1.64" fill="#ecb478" opacity="0.32"/><circle cx="570.0" cy="604.1" r="2.96" fill="#ecb478" opacity="0.27"/><circle cx="606.0" cy="604.2" r="2.74" fill="#ecb478" opacity="0.27"/><circle cx="643.6" cy="603.6" r="2.23" fill="#ecb478" opacity="0.18"/><circle cx="678.2" cy="603.4" r="2.36" fill="#ecb478" opacity="0.22"/><circle cx="711.0" cy="606.7" r="3.73" fill="#ecb478" opacity="0.22"/><circle cx="748.6" cy="603.2" r="3.86" fill="#ecb478" opacity="0.32"/><circle cx="785.6" cy="605.3" r="2.38" fill="#ecb478" opacity="0.29"/><circle cx="824.3" cy="603.3" r="3.24" fill="#ecb478" opacity="0.16"/><circle cx="857.0" cy="605.1" r="2.60" fill="#ecb478" opacity="0.32"/><circle cx="894.3" cy="603.7" r="1.89" fill="#ecb478" opacity="0.29"/><circle cx="930.7" cy="605.4" r="2.20" fill="#ecb478" opacity="0.16"/><circle cx="966.2" cy="609.0" r="2.73" fill="#ecb478" opacity="0.33"/><circle cx="1003.1" cy="607.7" r="2.62" fill="#ecb478" opacity="0.24"/><circle cx="1040.2" cy="604.9" r="2.98" fill="#ecb478" opacity="0.16"/><circle cx="1073.4" cy="608.1" r="2.27" fill="#ecb478" opacity="0.28"/><circle cx="1110.3" cy="607.2" r="3.15" fill="#ecb478" opacity="0.25"/><circle cx="1147.7" cy="608.6" r="2.27" fill="#ecb478" opacity="0.26"/><circle cx="1183.7" cy="603.1" r="2.63" fill="#ecb478" opacity="0.28"/><circle cx="27.2" cy="643.6" r="2.35" fill="#ecb478" opacity="0.24"/><circle cx="64.0" cy="641.5" r="3.15" fill="#ecb478" opacity="0.28"/><circle cx="99.7" cy="641.3" r="2.12" fill="#ecb478" opacity="0.17"/><circle cx="135.5" cy="643.1" r="3.07" fill="#ecb478" opacity="0.17"/><circle cx="175.7" cy="643.0" r="2.42" fill="#ecb478" opacity="0.26"/><circle cx="210.8" cy="639.7" r="2.78" fill="#ecb478" opacity="0.21"/><circle cx="244.8" cy="640.0" r="3.21" fill="#ecb478" opacity="0.28"/><circle cx="279.5" cy="641.8" r="3.08" fill="#ecb478" opacity="0.28"/><circle cx="315.8" cy="641.5" r="2.24" fill="#ecb478" opacity="0.20"/><circle cx="353.3" cy="644.0" r="3.54" fill="#ecb478" opacity="0.18"/><circle cx="390.4" cy="639.4" r="1.91" fill="#ecb478" opacity="0.32"/><circle cx="423.5" cy="639.8" r="2.86" fill="#ecb478" opacity="0.19"/><circle cx="461.9" cy="641.2" r="3.88" fill="#ecb478" opacity="0.21"/><circle cx="497.3" cy="639.3" r="2.31" fill="#ecb478" opacity="0.26"/><circle cx="536.5" cy="640.9" r="3.34" fill="#ecb478" opacity="0.25"/><circle cx="567.2" cy="641.6" r="2.98" fill="#ecb478" opacity="0.35"/><circle cx="604.2" cy="639.1" r="1.93" fill="#ecb478" opacity="0.23"/><circle cx="641.3" cy="640.2" r="2.21" fill="#ecb478" opacity="0.21"/><circle cx="678.9" cy="644.9" r="2.72" fill="#ecb478" opacity="0.24"/><circle cx="711.9" cy="643.0" r="3.19" fill="#ecb478" opacity="0.28"/><circle cx="748.0" cy="641.2" r="1.66" fill="#ecb478" opacity="0.21"/><circle cx="783.3" cy="639.3" r="1.92" fill="#ecb478" opacity="0.23"/><circle cx="823.9" cy="644.2" r="3.32" fill="#ecb478" opacity="0.19"/><circle cx="858.0" cy="641.2" r="2.72" fill="#ecb478" opacity="0.17"/><circle cx="895.2" cy="640.5" r="3.74" fill="#ecb478" opacity="0.24"/><circle cx="930.0" cy="641.7" r="2.04" fill="#ecb478" opacity="0.18"/><circle cx="965.2" cy="641.5" r="2.59" fill="#ecb478" opacity="0.23"/><circle cx="1003.9" cy="639.4" r="2.29" fill="#ecb478" opacity="0.15"/><circle cx="1039.9" cy="643.4" r="1.64" fill="#ecb478" opacity="0.27"/><circle cx="1072.6" cy="640.2" r="2.55" fill="#ecb478" opacity="0.15"/><circle cx="1112.4" cy="644.6" r="1.61" fill="#ecb478" opacity="0.20"/><circle cx="1148.1" cy="643.6" r="1.89" fill="#ecb478" opacity="0.30"/><circle cx="1179.5" cy="642.5" r="2.33" fill="#ecb478" opacity="0.31"/><circle cx="269.6" cy="249.4" r="220" fill="url(#glow)" opacity="0.9"/>
  <g opacity="0.85" transform="translate(1020, 495)">
        <polygon points="0,-50 43,25 -43,25" fill="none" stroke="#ecb478" stroke-width="2"/>
        <polygon points="0,-30 26,15 -26,15" fill="#faebd6" opacity="0.4"/>
      </g>
  <g transform="translate(80, 90)">
    <rect x="0" y="0" rx="20" ry="20" width="145" height="38" fill="#ecb478" opacity="0.18" stroke="#ecb478" stroke-width="1.5"/>
    <text x="72.5" y="25" font-family="ui-sans-serif, Inter, sans-serif" font-weight="700" font-size="14" letter-spacing="2.5" fill="#ecb478" text-anchor="middle">INFORMATION</text>
  </g>
  <text x="80" y="465" font-family="ui-sans-serif, -apple-system, Segoe UI, Inter, sans-serif" font-weight="800" font-size="44" fill="#faf8f5" opacity="0.98"><tspan x="80" dy="0">Dispute Resolution Centre</tspan><tspan x="80" dy="56">| Debt Recovery through</tspan><tspan x="80" dy="56">Arbitration | Employee</tspan></text>
  <rect x="0" y="669" width="1200" height="6" fill="url(#gold)"/>
</svg>