<?xml version="1.0" encoding="UTF-8"?>
<svg xmlns="http://www.w3.org/2000/svg" viewBox="0 0 1200 675" width="1200" height="675" role="img" aria-label="Contact PDR COURT to get information about  ADR services">
  <defs>
    <linearGradient id="bg" x1="0%" y1="0%" x2="100%" y2="100%">
      <stop offset="0%" stop-color="#0c0a09"/>
      <stop offset="100%" stop-color="#291813"/>
    </linearGradient>
    <linearGradient id="gold" x1="0%" y1="0%" x2="100%" y2="100%">
      <stop offset="0%" stop-color="#d4862a"/>
      <stop offset="100%" stop-color="#bd6b20"/>
    </linearGradient>
    <radialGradient id="glow" cx="50%" cy="50%" r="50%">
      <stop offset="0%" stop-color="#d4862a" stop-opacity="0.45"/>
      <stop offset="100%" stop-color="#d4862a" stop-opacity="0"/>
    </radialGradient>
  </defs>
  <rect width="1200" height="675" fill="url(#bg)"/>
  <circle cx="840.0" cy="135.0" r="240" fill="url(#glow)" opacity="0.8"/><polygon points="782.0,225.5 792.4,246.2 771.7,246.2" fill="#f4d2ac" opacity="0.10"/><circle cx="234.1" cy="16.8" r="27.0" fill="#bd6b20" opacity="0.26"/><circle cx="1010.6" cy="417.2" r="16.4" fill="#bd6b20" opacity="0.30"/><rect x="249.2" y="393.0" width="37.2" height="37.2" rx="4" transform="rotate(194.3 267.8 411.6)" fill="#d4862a" opacity="0.12"/><circle cx="269.6" cy="202.2" r="29.8" fill="#bd6b20" opacity="0.23"/><polygon points="164.7,428.1 174.7,448.1 154.7,448.1" fill="#f4d2ac" opacity="0.30"/><polygon points="973.1,427.6 981.0,443.3 965.3,443.3" fill="#f4d2ac" opacity="0.31"/><rect x="364.0" y="286.3" width="59.5" height="59.5" rx="4" transform="rotate(101.1 393.7 316.0)" fill="#d4862a" opacity="0.28"/><polygon points="1176.7,320.5 1188.7,344.5 1164.7,344.5" fill="#f4d2ac" opacity="0.28"/><circle cx="107.3" cy="281.5" r="7.6" fill="#bd6b20" opacity="0.34"/><circle cx="185.8" cy="534.1" r="11.9" fill="#bd6b20" opacity="0.22"/><circle cx="314.4" cy="395.8" r="20.4" fill="#bd6b20" opacity="0.26"/><rect x="414.6" y="126.6" width="30.2" height="30.2" rx="4" transform="rotate(29.8 429.6 141.7)" fill="#d4862a" opacity="0.16"/><circle cx="276.1" cy="396.2" r="16.3" fill="#bd6b20" opacity="0.17"/><rect x="280.2" y="31.2" width="38.9" height="38.9" rx="4" transform="rotate(72.1 299.7 50.7)" fill="#d4862a" opacity="0.29"/><polygon points="1098.0,32.5 1110.6,57.7 1085.4,57.7" fill="#f4d2ac" opacity="0.16"/><circle cx="152.4" cy="209.9" r="29.4" fill="#bd6b20" opacity="0.16"/><rect x="75.0" y="493.7" width="32.7" height="32.7" rx="4" transform="rotate(270.9 91.4 510.0)" fill="#d4862a" opacity="0.29"/><rect x="1018.0" y="66.1" width="27.0" height="27.0" rx="4" transform="rotate(207.4 1031.5 79.6)" fill="#d4862a" opacity="0.24"/><polygon points="421.3,380.8 443.3,424.8 399.3,424.8" fill="#f4d2ac" opacity="0.20"/><circle cx="42.1" cy="122.1" r="7.9" fill="#bd6b20" opacity="0.33"/><circle cx="498.5" cy="439.0" r="23.6" fill="#bd6b20" opacity="0.31"/>
  <g opacity="0.85" transform="translate(1020, 495)">
        <polygon points="0,-50 43,25 -43,25" fill="none" stroke="#d4862a" stroke-width="2"/>
        <polygon points="0,-30 26,15 -26,15" fill="#bd6b20" opacity="0.4"/>
      </g>
  <g transform="translate(80, 90)">
    <rect x="0" y="0" rx="20" ry="20" width="145" height="38" fill="#d4862a" opacity="0.18" stroke="#d4862a" stroke-width="1.5"/>
    <text x="72.5" y="25" font-family="ui-sans-serif, Inter, sans-serif" font-weight="700" font-size="14" letter-spacing="2.5" fill="#d4862a" text-anchor="middle">INFORMATION</text>
  </g>
  <text x="80" y="465" font-family="ui-sans-serif, -apple-system, Segoe UI, Inter, sans-serif" font-weight="800" font-size="44" fill="#faf8f5" opacity="0.98"><tspan x="80" dy="0">Contact PDR COURT to get</tspan><tspan x="80" dy="56">information about ADR</tspan><tspan x="80" dy="56">services</tspan></text>
  <rect x="0" y="669" width="1200" height="6" fill="url(#gold)"/>
</svg>