<?xml version="1.0" encoding="UTF-8"?>
<svg xmlns="http://www.w3.org/2000/svg" viewBox="0 0 1200 675" width="1200" height="675" role="img" aria-label="Dispute Resolution Centre | Debt Recovery through Arbitration | Employee Mediation">
  <defs>
    <linearGradient id="bg" x1="0%" y1="0%" x2="100%" y2="100%">
      <stop offset="0%" stop-color="#532d15"/>
      <stop offset="100%" stop-color="#bd6b20"/>
    </linearGradient>
    <linearGradient id="gold" x1="0%" y1="0%" x2="100%" y2="100%">
      <stop offset="0%" stop-color="#e09440"/>
      <stop offset="100%" stop-color="#fdf6ee"/>
    </linearGradient>
    <radialGradient id="glow" cx="50%" cy="50%" r="50%">
      <stop offset="0%" stop-color="#e09440" stop-opacity="0.45"/>
      <stop offset="100%" stop-color="#e09440" stop-opacity="0"/>
    </radialGradient>
  </defs>
  <rect width="1200" height="675" fill="url(#bg)"/>
  <polygon points="-50,223.2 -20,221.0 10,220.2 40,220.7 70,222.5 100,225.6 130,229.9 160,235.3 190,241.8 220,249.0 250,257.0 280,265.5 310,274.3 340,283.2 370,292.0 400,300.5 430,308.6 460,316.0 490,322.7 520,328.3 550,332.8 580,336.2 610,338.3 640,339.0 670,338.5 700,336.6 730,333.4 760,329.0 790,323.5 820,317.1 850,309.7 880,301.7 910,293.2 940,284.4 970,275.5 1000,266.7 1030,258.2 1060,250.1 1090,242.8 1120,236.2 1150,230.6 1180,226.1 1210,222.9 1240,220.8 1250,725 -50,725" fill="#e09440" opacity="0.08"/><polygon points="-50,289.0 -20,289.0 10,290.6 40,293.9 70,298.8 100,305.2 130,313.0 160,321.9 190,331.7 220,342.3 250,353.4 280,364.8 310,376.2 340,387.3 370,397.9 400,407.7 430,416.6 460,424.3 490,430.7 520,435.6 550,439.0 580,440.6 610,440.6 640,438.8 670,435.4 700,430.4 730,423.9 760,416.1 790,407.1 820,397.2 850,386.6 880,375.5 910,364.1 940,352.8 970,341.7 1000,331.1 1030,321.3 1060,312.5 1090,304.8 1120,298.5 1150,293.7 1180,290.5 1210,288.9 1240,289.1 1250,725 -50,725" fill="#e09440" opacity="0.13"/><polygon points="-50,385.3 -20,375.3 10,365.9 40,357.2 70,349.6 100,343.1 130,337.9 160,334.1 190,331.9 220,331.2 250,332.0 280,334.4 310,338.3 340,343.6 370,350.2 400,358.0 430,366.7 460,376.1 490,386.2 520,396.5 550,407.0 580,417.3 610,427.3 640,436.7 670,445.3 700,452.8 730,459.3 760,464.4 790,468.0 820,470.2 850,470.9 880,469.9 910,467.4 940,463.4 970,458.1 1000,451.4 1030,443.6 1060,434.8 1090,425.3 1120,415.3 1150,404.9 1180,394.4 1210,384.1 1240,374.2 1250,725 -50,725" fill="#e09440" opacity="0.18"/><polygon points="-50,409.4 -20,403.6 10,399.6 40,397.5 70,397.3 100,399.0 130,402.5 160,407.9 190,414.9 220,423.4 250,433.3 280,444.2 310,456.0 340,468.4 370,481.1 400,493.8 430,506.3 460,518.2 490,529.4 520,539.4 550,548.2 580,555.5 610,561.1 640,565.0 670,567.0 700,567.1 730,565.4 760,561.7 790,556.2 820,549.1 850,540.5 880,530.6 910,519.6 940,507.8 970,495.4 1000,482.6 1030,469.9 1060,457.5 1090,445.6 1120,434.5 1150,424.5 1180,415.8 1210,408.6 1240,403.1 1250,725 -50,725" fill="#e09440" opacity="0.23"/><circle cx="300.0" cy="189.0" r="160" fill="url(#glow)"/>
  <g opacity="0.85" transform="translate(1020, 495)">
        <polygon points="0,-50 43,25 -43,25" fill="none" stroke="#e09440" stroke-width="2"/>
        <polygon points="0,-30 26,15 -26,15" fill="#fdf6ee" opacity="0.4"/>
      </g>
  <g transform="translate(80, 90)">
    <rect x="0" y="0" rx="20" ry="20" width="145" height="38" fill="#e09440" opacity="0.18" stroke="#e09440" stroke-width="1.5"/>
    <text x="72.5" y="25" font-family="ui-sans-serif, Inter, sans-serif" font-weight="700" font-size="14" letter-spacing="2.5" fill="#e09440" text-anchor="middle">INFORMATION</text>
  </g>
  <text x="80" y="465" font-family="ui-sans-serif, -apple-system, Segoe UI, Inter, sans-serif" font-weight="800" font-size="44" fill="#faf8f5" opacity="0.98"><tspan x="80" dy="0">Dispute Resolution Centre</tspan><tspan x="80" dy="56">| Debt Recovery through</tspan><tspan x="80" dy="56">Arbitration | Employee</tspan></text>
  <rect x="0" y="669" width="1200" height="6" fill="url(#gold)"/>
</svg>