<?xml version="1.0" encoding="UTF-8"?>
<svg xmlns="http://www.w3.org/2000/svg" viewBox="0 0 1200 675" width="1200" height="675" role="img" aria-label="PDR COURT promptly informs its cookie policy to users">
  <defs>
    <linearGradient id="bg" x1="0%" y1="0%" x2="100%" y2="100%">
      <stop offset="0%" stop-color="#0c0a09"/>
      <stop offset="100%" stop-color="#291813"/>
    </linearGradient>
    <linearGradient id="gold" x1="0%" y1="0%" x2="100%" y2="100%">
      <stop offset="0%" stop-color="#d4862a"/>
      <stop offset="100%" stop-color="#bd6b20"/>
    </linearGradient>
    <radialGradient id="glow" cx="50%" cy="50%" r="50%">
      <stop offset="0%" stop-color="#d4862a" stop-opacity="0.45"/>
      <stop offset="100%" stop-color="#d4862a" stop-opacity="0"/>
    </radialGradient>
  </defs>
  <rect width="1200" height="675" fill="url(#bg)"/>
  <circle cx="31.8" cy="29.5" r="2.35" fill="#d4862a" opacity="0.21"/><circle cx="68.5" cy="31.8" r="2.29" fill="#d4862a" opacity="0.31"/><circle cx="100.4" cy="28.0" r="2.71" fill="#d4862a" opacity="0.23"/><circle cx="139.2" cy="28.8" r="3.82" fill="#d4862a" opacity="0.30"/><circle cx="172.1" cy="31.9" r="4.00" fill="#d4862a" opacity="0.24"/><circle cx="208.5" cy="28.3" r="3.81" fill="#d4862a" opacity="0.33"/><circle cx="248.0" cy="27.7" r="1.62" fill="#d4862a" opacity="0.31"/><circle cx="282.7" cy="28.1" r="2.09" fill="#d4862a" opacity="0.16"/><circle cx="320.3" cy="30.7" r="3.77" fill="#d4862a" opacity="0.18"/><circle cx="355.5" cy="33.0" r="3.96" fill="#d4862a" opacity="0.36"/><circle cx="389.0" cy="30.0" r="3.19" fill="#d4862a" opacity="0.33"/><circle cx="428.7" cy="31.0" r="1.90" fill="#d4862a" opacity="0.32"/><circle cx="464.0" cy="30.4" r="2.66" fill="#d4862a" opacity="0.26"/><circle cx="497.6" cy="29.5" r="1.79" fill="#d4862a" opacity="0.25"/><circle cx="532.1" cy="32.9" r="1.80" fill="#d4862a" opacity="0.17"/><circle cx="568.7" cy="31.8" r="3.91" fill="#d4862a" opacity="0.33"/><circle cx="607.5" cy="30.9" r="1.78" fill="#d4862a" opacity="0.28"/><circle cx="642.6" cy="31.5" r="3.03" fill="#d4862a" opacity="0.19"/><circle cx="677.7" cy="31.6" r="3.26" fill="#d4862a" opacity="0.25"/><circle cx="713.5" cy="31.1" r="3.09" fill="#d4862a" opacity="0.21"/><circle cx="752.5" cy="32.9" r="1.95" fill="#d4862a" opacity="0.17"/><circle cx="784.6" cy="28.6" r="3.69" fill="#d4862a" opacity="0.34"/><circle cx="821.0" cy="29.2" r="1.96" fill="#d4862a" opacity="0.25"/><circle cx="857.5" cy="29.8" r="3.89" fill="#d4862a" opacity="0.21"/><circle cx="891.4" cy="30.9" r="1.99" fill="#d4862a" opacity="0.29"/><circle cx="931.1" cy="28.8" r="1.97" fill="#d4862a" opacity="0.34"/><circle cx="968.4" cy="27.6" r="1.92" fill="#d4862a" opacity="0.33"/><circle cx="1001.1" cy="31.8" r="3.80" fill="#d4862a" opacity="0.29"/><circle cx="1036.3" cy="32.5" r="2.02" fill="#d4862a" opacity="0.17"/><circle cx="1075.7" cy="31.9" r="3.49" fill="#d4862a" opacity="0.31"/><circle cx="1112.4" cy="32.3" r="3.61" fill="#d4862a" opacity="0.24"/><circle cx="1148.1" cy="28.6" r="3.14" fill="#d4862a" opacity="0.30"/><circle cx="1182.8" cy="32.4" r="2.91" fill="#d4862a" opacity="0.21"/><circle cx="29.9" cy="63.1" r="2.66" fill="#d4862a" opacity="0.36"/><circle cx="65.2" cy="67.1" r="3.12" fill="#d4862a" opacity="0.32"/><circle cx="102.9" cy="65.6" r="2.32" fill="#d4862a" opacity="0.25"/><circle cx="140.7" cy="64.3" r="3.95" fill="#d4862a" opacity="0.36"/><circle cx="172.2" cy="64.0" r="1.80" fill="#d4862a" opacity="0.32"/><circle cx="211.3" cy="66.5" r="2.43" fill="#d4862a" opacity="0.28"/><circle cx="248.6" cy="63.3" r="3.30" fill="#d4862a" opacity="0.25"/><circle cx="279.2" cy="64.2" r="2.50" fill="#d4862a" opacity="0.28"/><circle cx="315.8" cy="63.0" r="3.25" fill="#d4862a" opacity="0.22"/><circle cx="353.8" cy="66.0" r="1.61" fill="#d4862a" opacity="0.24"/><circle cx="388.8" cy="65.5" r="2.10" fill="#d4862a" opacity="0.17"/><circle cx="428.6" cy="65.3" r="3.37" fill="#d4862a" opacity="0.34"/><circle cx="464.4" cy="67.7" r="2.86" fill="#d4862a" opacity="0.19"/><circle cx="498.1" cy="66.8" r="1.96" fill="#d4862a" opacity="0.25"/><circle cx="533.2" cy="64.0" r="3.60" fill="#d4862a" opacity="0.32"/><circle cx="567.5" cy="68.6" r="1.95" fill="#d4862a" opacity="0.25"/><circle cx="605.2" cy="63.1" r="3.20" fill="#d4862a" opacity="0.23"/><circle cx="644.1" cy="64.5" r="2.45" fill="#d4862a" opacity="0.34"/><circle cx="679.9" cy="64.4" r="2.32" fill="#d4862a" opacity="0.34"/><circle cx="716.3" cy="67.7" r="3.85" fill="#d4862a" opacity="0.21"/><circle cx="752.7" cy="67.8" r="2.11" fill="#d4862a" opacity="0.31"/><circle cx="786.3" cy="64.0" r="2.37" fill="#d4862a" opacity="0.30"/><circle cx="819.2" cy="65.8" r="2.76" fill="#d4862a" opacity="0.20"/><circle cx="857.8" cy="63.6" r="3.25" fill="#d4862a" opacity="0.21"/><circle cx="895.0" cy="66.6" r="2.71" fill="#d4862a" opacity="0.21"/><circle cx="928.8" cy="64.5" r="3.42" fill="#d4862a" opacity="0.19"/><circle cx="967.4" cy="65.9" r="3.23" fill="#d4862a" opacity="0.22"/><circle cx="1000.8" cy="66.3" r="3.37" fill="#d4862a" opacity="0.22"/><circle cx="1037.3" cy="68.5" r="3.05" fill="#d4862a" opacity="0.28"/><circle cx="1075.3" cy="66.6" r="3.82" fill="#d4862a" opacity="0.32"/><circle cx="1109.0" cy="66.6" r="1.73" fill="#d4862a" opacity="0.18"/><circle cx="1146.8" cy="67.2" r="2.11" fill="#d4862a" opacity="0.33"/><circle cx="1179.7" cy="63.5" r="2.21" fill="#d4862a" opacity="0.16"/><circle cx="29.6" cy="100.8" r="3.47" fill="#d4862a" opacity="0.22"/><circle cx="65.5" cy="100.0" r="2.46" fill="#d4862a" opacity="0.26"/><circle cx="103.6" cy="102.3" r="3.37" fill="#d4862a" opacity="0.31"/><circle cx="137.3" cy="100.9" r="1.63" fill="#d4862a" opacity="0.25"/><circle cx="174.4" cy="102.9" r="2.84" fill="#d4862a" opacity="0.30"/><circle cx="212.9" cy="101.2" r="2.42" fill="#d4862a" opacity="0.23"/><circle cx="245.9" cy="104.8" r="1.82" fill="#d4862a" opacity="0.29"/><circle cx="280.8" cy="100.6" r="3.19" fill="#d4862a" opacity="0.28"/><circle cx="317.9" cy="99.8" r="3.33" fill="#d4862a" opacity="0.32"/><circle cx="353.0" cy="100.0" r="2.03" fill="#d4862a" opacity="0.31"/><circle cx="391.8" cy="104.9" r="2.48" fill="#d4862a" opacity="0.26"/><circle cx="428.8" cy="103.9" r="2.62" fill="#d4862a" opacity="0.29"/><circle cx="460.6" cy="104.1" r="3.35" fill="#d4862a" opacity="0.35"/><circle cx="498.2" cy="101.3" r="3.33" fill="#d4862a" opacity="0.25"/><circle cx="535.3" cy="101.2" r="2.80" fill="#d4862a" opacity="0.25"/><circle cx="568.2" cy="99.0" r="2.24" fill="#d4862a" opacity="0.20"/><circle cx="605.3" cy="101.4" r="3.61" fill="#d4862a" opacity="0.18"/><circle cx="644.1" cy="103.0" r="3.92" fill="#d4862a" opacity="0.31"/><circle cx="679.5" cy="101.0" r="3.01" fill="#d4862a" opacity="0.25"/><circle cx="714.5" cy="101.4" r="2.27" fill="#d4862a" opacity="0.33"/><circle cx="752.0" cy="103.4" r="1.99" fill="#d4862a" opacity="0.19"/><circle cx="783.3" cy="101.4" r="3.50" fill="#d4862a" opacity="0.19"/><circle cx="819.7" cy="99.2" r="3.25" fill="#d4862a" opacity="0.23"/><circle cx="855.7" cy="101.3" r="3.16" fill="#d4862a" opacity="0.20"/><circle cx="892.0" cy="103.8" r="3.62" fill="#d4862a" opacity="0.32"/><circle cx="930.7" cy="102.1" r="3.28" fill="#d4862a" opacity="0.23"/><circle cx="963.0" cy="101.3" r="3.77" fill="#d4862a" opacity="0.23"/><circle cx="1003.8" cy="100.8" r="3.69" fill="#d4862a" opacity="0.35"/><circle cx="1038.3" cy="103.2" r="3.82" fill="#d4862a" opacity="0.29"/><circle cx="1077.0" cy="102.5" r="2.27" fill="#d4862a" opacity="0.15"/><circle cx="1108.5" cy="100.4" r="3.61" fill="#d4862a" opacity="0.28"/><circle cx="1146.9" cy="101.9" r="3.31" fill="#d4862a" opacity="0.19"/><circle cx="1179.7" cy="103.7" r="4.00" fill="#d4862a" opacity="0.25"/><circle cx="32.2" cy="136.3" r="1.79" fill="#d4862a" opacity="0.30"/><circle cx="63.9" cy="137.0" r="3.57" fill="#d4862a" opacity="0.22"/><circle cx="101.8" cy="136.4" r="3.09" fill="#d4862a" opacity="0.20"/><circle cx="135.5" cy="140.2" r="3.67" fill="#d4862a" opacity="0.32"/><circle cx="176.3" cy="137.0" r="2.63" fill="#d4862a" opacity="0.25"/><circle cx="212.7" cy="138.9" r="3.36" fill="#d4862a" opacity="0.19"/><circle cx="248.5" cy="136.4" r="2.96" fill="#d4862a" opacity="0.36"/><circle cx="280.4" cy="139.4" r="2.02" fill="#d4862a" opacity="0.26"/><circle cx="316.5" cy="138.4" r="2.10" fill="#d4862a" opacity="0.21"/><circle cx="352.6" cy="140.8" r="2.88" fill="#d4862a" opacity="0.16"/><circle cx="388.4" cy="139.1" r="3.31" fill="#d4862a" opacity="0.34"/><circle cx="424.3" cy="138.9" r="1.98" fill="#d4862a" opacity="0.28"/><circle cx="462.4" cy="140.4" r="1.61" fill="#d4862a" opacity="0.16"/><circle cx="496.5" cy="138.2" r="2.85" fill="#d4862a" opacity="0.27"/><circle cx="534.7" cy="138.3" r="2.95" fill="#d4862a" opacity="0.29"/><circle cx="568.1" cy="139.2" r="2.62" fill="#d4862a" opacity="0.36"/><circle cx="607.1" cy="138.4" r="2.47" fill="#d4862a" opacity="0.35"/><circle cx="642.1" cy="139.0" r="3.53" fill="#d4862a" opacity="0.22"/><circle cx="680.9" cy="135.8" r="1.82" fill="#d4862a" opacity="0.35"/><circle cx="713.7" cy="138.4" r="2.74" fill="#d4862a" opacity="0.28"/><circle cx="751.9" cy="140.7" r="3.92" fill="#d4862a" opacity="0.30"/><circle cx="787.2" cy="136.7" r="1.85" fill="#d4862a" opacity="0.18"/><circle cx="820.7" cy="138.3" r="2.03" fill="#d4862a" opacity="0.25"/><circle cx="856.2" cy="140.4" r="2.85" fill="#d4862a" opacity="0.31"/><circle cx="894.0" cy="136.6" r="3.13" fill="#d4862a" opacity="0.30"/><circle cx="932.0" cy="135.8" r="3.41" fill="#d4862a" opacity="0.16"/><circle cx="965.6" cy="135.9" r="3.86" fill="#d4862a" opacity="0.21"/><circle cx="1002.9" cy="140.1" r="2.70" fill="#d4862a" opacity="0.17"/><circle cx="1039.1" cy="136.4" r="3.56" fill="#d4862a" opacity="0.24"/><circle cx="1071.8" cy="139.0" r="2.50" fill="#d4862a" opacity="0.30"/><circle cx="1107.6" cy="140.5" r="3.11" fill="#d4862a" opacity="0.35"/><circle cx="1148.3" cy="139.4" r="3.46" fill="#d4862a" opacity="0.26"/><circle cx="1181.4" cy="139.6" r="1.76" fill="#d4862a" opacity="0.23"/><circle cx="28.0" cy="174.2" r="2.01" fill="#d4862a" opacity="0.32"/><circle cx="68.9" cy="176.0" r="2.93" fill="#d4862a" opacity="0.19"/><circle cx="101.8" cy="176.5" r="1.93" fill="#d4862a" opacity="0.34"/><circle cx="138.3" cy="171.5" r="2.35" fill="#d4862a" opacity="0.28"/><circle cx="174.6" cy="175.0" r="3.54" fill="#d4862a" opacity="0.18"/><circle cx="207.7" cy="171.4" r="2.26" fill="#d4862a" opacity="0.34"/><circle cx="247.3" cy="176.2" r="3.63" fill="#d4862a" opacity="0.36"/><circle cx="279.1" cy="177.0" r="2.56" fill="#d4862a" opacity="0.22"/><circle cx="320.9" cy="173.2" r="2.88" fill="#d4862a" opacity="0.27"/><circle cx="353.9" cy="176.1" r="2.42" fill="#d4862a" opacity="0.21"/><circle cx="387.7" cy="173.0" r="2.34" fill="#d4862a" opacity="0.17"/><circle cx="424.8" cy="176.0" r="2.57" fill="#d4862a" opacity="0.35"/><circle cx="460.1" cy="174.9" r="2.42" fill="#d4862a" opacity="0.33"/><circle cx="499.2" cy="173.2" r="3.13" fill="#d4862a" opacity="0.24"/><circle cx="536.5" cy="171.0" r="2.70" fill="#d4862a" opacity="0.17"/><circle cx="572.9" cy="174.5" r="3.32" fill="#d4862a" opacity="0.32"/><circle cx="605.8" cy="172.5" r="3.67" fill="#d4862a" opacity="0.21"/><circle cx="641.0" cy="174.4" r="2.02" fill="#d4862a" opacity="0.19"/><circle cx="676.6" cy="171.1" r="2.37" fill="#d4862a" opacity="0.24"/><circle cx="714.2" cy="173.7" r="1.75" fill="#d4862a" opacity="0.19"/><circle cx="747.6" cy="175.0" r="3.74" fill="#d4862a" opacity="0.30"/><circle cx="785.7" cy="171.8" r="1.99" fill="#d4862a" opacity="0.18"/><circle cx="824.9" cy="172.4" r="2.05" fill="#d4862a" opacity="0.18"/><circle cx="860.1" cy="172.9" r="1.89" fill="#d4862a" opacity="0.24"/><circle cx="895.5" cy="171.2" r="2.51" fill="#d4862a" opacity="0.16"/><circle cx="927.6" cy="175.7" r="2.70" fill="#d4862a" opacity="0.25"/><circle cx="964.3" cy="175.9" r="2.30" fill="#d4862a" opacity="0.31"/><circle cx="1004.4" cy="172.8" r="2.68" fill="#d4862a" opacity="0.30"/><circle cx="1035.9" cy="174.5" r="1.66" fill="#d4862a" opacity="0.34"/><circle cx="1071.1" cy="171.1" r="3.85" fill="#d4862a" opacity="0.22"/><circle cx="1110.0" cy="173.2" r="3.43" fill="#d4862a" opacity="0.26"/><circle cx="1147.2" cy="171.9" r="3.37" fill="#d4862a" opacity="0.20"/><circle cx="1184.0" cy="171.5" r="3.22" fill="#d4862a" opacity="0.23"/><circle cx="30.5" cy="211.0" r="2.65" fill="#d4862a" opacity="0.22"/><circle cx="66.2" cy="210.9" r="2.54" fill="#d4862a" opacity="0.29"/><circle cx="102.4" cy="207.8" r="2.49" fill="#d4862a" opacity="0.35"/><circle cx="139.7" cy="207.5" r="1.62" fill="#d4862a" opacity="0.32"/><circle cx="173.3" cy="209.1" r="1.81" fill="#d4862a" opacity="0.26"/><circle cx="212.0" cy="210.5" r="1.82" fill="#d4862a" opacity="0.34"/><circle cx="243.6" cy="210.9" r="3.70" fill="#d4862a" opacity="0.30"/><circle cx="282.3" cy="212.5" r="2.67" fill="#d4862a" opacity="0.30"/><circle cx="318.7" cy="211.0" r="3.88" fill="#d4862a" opacity="0.30"/><circle cx="354.3" cy="207.5" r="3.79" fill="#d4862a" opacity="0.18"/><circle cx="391.3" cy="207.7" r="1.70" fill="#d4862a" opacity="0.22"/><circle cx="427.2" cy="208.0" r="1.89" fill="#d4862a" opacity="0.15"/><circle cx="464.9" cy="208.3" r="1.69" fill="#d4862a" opacity="0.29"/><circle cx="500.6" cy="211.8" r="2.76" fill="#d4862a" opacity="0.17"/><circle cx="535.2" cy="210.3" r="3.85" fill="#d4862a" opacity="0.26"/><circle cx="572.5" cy="209.3" r="3.34" fill="#d4862a" opacity="0.25"/><circle cx="608.7" cy="209.9" r="1.77" fill="#d4862a" opacity="0.27"/><circle cx="642.3" cy="208.2" r="3.22" fill="#d4862a" opacity="0.36"/><circle cx="676.7" cy="209.3" r="1.90" fill="#d4862a" opacity="0.26"/><circle cx="712.9" cy="208.7" r="3.98" fill="#d4862a" opacity="0.19"/><circle cx="751.8" cy="208.3" r="2.54" fill="#d4862a" opacity="0.34"/><circle cx="786.0" cy="210.4" r="3.08" fill="#d4862a" opacity="0.24"/><circle cx="823.7" cy="208.1" r="3.69" fill="#d4862a" opacity="0.22"/><circle cx="859.8" cy="209.2" r="2.29" fill="#d4862a" opacity="0.19"/><circle cx="895.0" cy="207.7" r="3.37" fill="#d4862a" opacity="0.31"/><circle cx="930.6" cy="213.0" r="3.19" fill="#d4862a" opacity="0.20"/><circle cx="966.5" cy="208.3" r="3.17" fill="#d4862a" opacity="0.17"/><circle cx="1002.9" cy="208.8" r="2.27" fill="#d4862a" opacity="0.29"/><circle cx="1036.4" cy="211.1" r="2.98" fill="#d4862a" opacity="0.19"/><circle cx="1073.1" cy="210.8" r="3.91" fill="#d4862a" opacity="0.26"/><circle cx="1111.0" cy="213.0" r="1.95" fill="#d4862a" opacity="0.19"/><circle cx="1145.6" cy="209.7" r="3.19" fill="#d4862a" opacity="0.18"/><circle cx="1182.2" cy="212.0" r="3.38" fill="#d4862a" opacity="0.29"/><circle cx="30.4" cy="246.0" r="2.81" fill="#d4862a" opacity="0.21"/><circle cx="63.9" cy="248.8" r="2.03" fill="#d4862a" opacity="0.35"/><circle cx="99.5" cy="247.1" r="2.73" fill="#d4862a" opacity="0.22"/><circle cx="138.2" cy="246.3" r="1.99" fill="#d4862a" opacity="0.22"/><circle cx="174.4" cy="245.9" r="2.22" fill="#d4862a" opacity="0.35"/><circle cx="210.0" cy="245.3" r="3.29" fill="#d4862a" opacity="0.24"/><circle cx="246.9" cy="246.5" r="1.94" fill="#d4862a" opacity="0.35"/><circle cx="279.7" cy="246.7" r="3.86" fill="#d4862a" opacity="0.19"/><circle cx="318.2" cy="245.1" r="1.87" fill="#d4862a" opacity="0.24"/><circle cx="356.1" cy="248.7" r="3.61" fill="#d4862a" opacity="0.22"/><circle cx="389.4" cy="248.5" r="2.87" fill="#d4862a" opacity="0.21"/><circle cx="424.6" cy="246.3" r="1.65" fill="#d4862a" opacity="0.34"/><circle cx="464.5" cy="243.9" r="3.70" fill="#d4862a" opacity="0.31"/><circle cx="498.2" cy="247.0" r="2.72" fill="#d4862a" opacity="0.34"/><circle cx="535.0" cy="248.2" r="2.74" fill="#d4862a" opacity="0.26"/><circle cx="568.5" cy="245.4" r="3.55" fill="#d4862a" opacity="0.31"/><circle cx="607.2" cy="247.8" r="3.79" fill="#d4862a" opacity="0.33"/><circle cx="644.8" cy="246.3" r="2.63" fill="#d4862a" opacity="0.30"/><circle cx="679.7" cy="248.7" r="2.73" fill="#d4862a" opacity="0.29"/><circle cx="715.3" cy="248.3" r="1.80" fill="#d4862a" opacity="0.20"/><circle cx="749.5" cy="246.1" r="3.04" fill="#d4862a" opacity="0.19"/><circle cx="786.7" cy="244.4" r="3.11" fill="#d4862a" opacity="0.34"/><circle cx="819.0" cy="246.3" r="3.74" fill="#d4862a" opacity="0.34"/><circle cx="858.9" cy="245.7" r="1.78" fill="#d4862a" opacity="0.28"/><circle cx="893.4" cy="244.8" r="2.05" fill="#d4862a" opacity="0.18"/><circle cx="929.6" cy="243.3" r="1.85" fill="#d4862a" opacity="0.31"/><circle cx="966.4" cy="244.5" r="3.42" fill="#d4862a" opacity="0.35"/><circle cx="1001.5" cy="244.9" r="3.88" fill="#d4862a" opacity="0.21"/><circle cx="1035.5" cy="248.8" r="2.38" fill="#d4862a" opacity="0.20"/><circle cx="1071.1" cy="244.0" r="1.71" fill="#d4862a" opacity="0.27"/><circle cx="1108.6" cy="248.8" r="1.94" fill="#d4862a" opacity="0.18"/><circle cx="1148.3" cy="246.1" r="3.65" fill="#d4862a" opacity="0.33"/><circle cx="1180.0" cy="243.3" r="2.26" fill="#d4862a" opacity="0.22"/><circle cx="30.8" cy="280.6" r="1.67" fill="#d4862a" opacity="0.30"/><circle cx="66.6" cy="280.3" r="1.84" fill="#d4862a" opacity="0.16"/><circle cx="103.6" cy="280.5" r="2.81" fill="#d4862a" opacity="0.16"/><circle cx="137.7" cy="279.4" r="1.99" fill="#d4862a" opacity="0.17"/><circle cx="174.9" cy="282.0" r="1.92" fill="#d4862a" opacity="0.15"/><circle cx="211.3" cy="281.4" r="3.96" fill="#d4862a" opacity="0.25"/><circle cx="246.1" cy="279.1" r="3.40" fill="#d4862a" opacity="0.26"/><circle cx="280.8" cy="281.9" r="2.79" fill="#d4862a" opacity="0.24"/><circle cx="319.9" cy="282.0" r="3.03" fill="#d4862a" opacity="0.24"/><circle cx="353.5" cy="283.1" r="1.83" fill="#d4862a" opacity="0.28"/><circle cx="387.4" cy="279.8" r="2.86" fill="#d4862a" opacity="0.21"/><circle cx="424.3" cy="282.3" r="1.98" fill="#d4862a" opacity="0.25"/><circle cx="464.6" cy="281.5" r="2.77" fill="#d4862a" opacity="0.29"/><circle cx="497.9" cy="279.5" r="3.04" fill="#d4862a" opacity="0.16"/><circle cx="534.5" cy="279.5" r="3.11" fill="#d4862a" opacity="0.31"/><circle cx="570.7" cy="282.0" r="3.04" fill="#d4862a" opacity="0.18"/><circle cx="608.4" cy="284.6" r="3.15" fill="#d4862a" opacity="0.17"/><circle cx="643.7" cy="283.2" r="3.32" fill="#d4862a" opacity="0.28"/><circle cx="675.8" cy="282.5" r="2.57" fill="#d4862a" opacity="0.21"/><circle cx="711.4" cy="281.4" r="3.66" fill="#d4862a" opacity="0.26"/><circle cx="748.1" cy="283.8" r="3.23" fill="#d4862a" opacity="0.30"/><circle cx="784.4" cy="279.9" r="3.18" fill="#d4862a" opacity="0.21"/><circle cx="822.7" cy="283.2" r="2.49" fill="#d4862a" opacity="0.31"/><circle cx="860.4" cy="284.3" r="2.55" fill="#d4862a" opacity="0.20"/><circle cx="894.0" cy="281.1" r="2.39" fill="#d4862a" opacity="0.16"/><circle cx="930.0" cy="283.9" r="3.88" fill="#d4862a" opacity="0.22"/><circle cx="964.4" cy="283.6" r="3.11" fill="#d4862a" opacity="0.26"/><circle cx="1002.6" cy="279.6" r="2.53" fill="#d4862a" opacity="0.16"/><circle cx="1038.0" cy="284.9" r="2.70" fill="#d4862a" opacity="0.23"/><circle cx="1073.2" cy="281.5" r="3.49" fill="#d4862a" opacity="0.16"/><circle cx="1109.3" cy="282.1" r="3.08" fill="#d4862a" opacity="0.22"/><circle cx="1145.7" cy="280.0" r="2.96" fill="#d4862a" opacity="0.34"/><circle cx="1183.0" cy="283.7" r="3.10" fill="#d4862a" opacity="0.30"/><circle cx="28.8" cy="319.1" r="3.08" fill="#d4862a" opacity="0.23"/><circle cx="68.5" cy="315.3" r="3.36" fill="#d4862a" opacity="0.17"/><circle cx="101.1" cy="317.2" r="3.05" fill="#d4862a" opacity="0.25"/><circle cx="137.7" cy="315.6" r="3.50" fill="#d4862a" opacity="0.18"/><circle cx="172.2" cy="316.5" r="3.73" fill="#d4862a" opacity="0.24"/><circle cx="211.5" cy="315.5" r="1.69" fill="#d4862a" opacity="0.26"/><circle cx="244.4" cy="315.6" r="2.79" fill="#d4862a" opacity="0.29"/><circle cx="281.2" cy="316.3" r="3.54" fill="#d4862a" opacity="0.24"/><circle cx="319.9" cy="315.2" r="3.49" fill="#d4862a" opacity="0.28"/><circle cx="351.3" cy="318.6" r="3.97" fill="#d4862a" opacity="0.20"/><circle cx="391.4" cy="320.9" r="2.44" fill="#d4862a" opacity="0.32"/><circle cx="425.7" cy="318.4" r="3.54" fill="#d4862a" opacity="0.20"/><circle cx="459.8" cy="315.2" r="3.50" fill="#d4862a" opacity="0.20"/><circle cx="496.7" cy="319.0" r="1.69" fill="#d4862a" opacity="0.35"/><circle cx="535.3" cy="320.2" r="3.72" fill="#d4862a" opacity="0.32"/><circle cx="567.6" cy="318.8" r="1.72" fill="#d4862a" opacity="0.21"/><circle cx="604.5" cy="319.7" r="3.56" fill="#d4862a" opacity="0.27"/><circle cx="642.3" cy="318.9" r="3.30" fill="#d4862a" opacity="0.21"/><circle cx="677.7" cy="318.2" r="2.95" fill="#d4862a" opacity="0.16"/><circle cx="716.6" cy="315.9" r="3.14" fill="#d4862a" opacity="0.20"/><circle cx="749.5" cy="317.3" r="1.63" fill="#d4862a" opacity="0.23"/><circle cx="788.9" cy="318.2" r="2.32" fill="#d4862a" opacity="0.18"/><circle cx="823.2" cy="317.4" r="2.62" fill="#d4862a" opacity="0.33"/><circle cx="859.1" cy="317.4" r="2.08" fill="#d4862a" opacity="0.35"/><circle cx="894.1" cy="315.7" r="1.80" fill="#d4862a" opacity="0.25"/><circle cx="927.7" cy="320.8" r="2.05" fill="#d4862a" opacity="0.29"/><circle cx="966.1" cy="316.8" r="2.36" fill="#d4862a" opacity="0.23"/><circle cx="1001.9" cy="315.4" r="2.48" fill="#d4862a" opacity="0.17"/><circle cx="1040.2" cy="320.5" r="3.53" fill="#d4862a" opacity="0.24"/><circle cx="1074.0" cy="318.6" r="3.06" fill="#d4862a" opacity="0.28"/><circle cx="1110.1" cy="320.1" r="3.63" fill="#d4862a" opacity="0.23"/><circle cx="1148.7" cy="320.1" r="2.77" fill="#d4862a" opacity="0.24"/><circle cx="1184.4" cy="317.7" r="2.74" fill="#d4862a" opacity="0.19"/><circle cx="27.9" cy="353.3" r="3.91" fill="#d4862a" opacity="0.26"/><circle cx="65.4" cy="354.7" r="3.08" fill="#d4862a" opacity="0.28"/><circle cx="103.0" cy="352.0" r="2.83" fill="#d4862a" opacity="0.29"/><circle cx="140.7" cy="351.3" r="2.31" fill="#d4862a" opacity="0.23"/><circle cx="174.1" cy="354.2" r="2.24" fill="#d4862a" opacity="0.29"/><circle cx="211.8" cy="354.8" r="2.25" fill="#d4862a" opacity="0.22"/><circle cx="248.2" cy="354.7" r="3.40" fill="#d4862a" opacity="0.35"/><circle cx="284.1" cy="352.5" r="2.31" fill="#d4862a" opacity="0.16"/><circle cx="317.8" cy="352.9" r="2.37" fill="#d4862a" opacity="0.31"/><circle cx="351.9" cy="354.4" r="3.75" fill="#d4862a" opacity="0.22"/><circle cx="391.0" cy="355.1" r="2.37" fill="#d4862a" opacity="0.16"/><circle cx="426.8" cy="357.0" r="2.53" fill="#d4862a" opacity="0.33"/><circle cx="463.4" cy="356.3" r="3.64" fill="#d4862a" opacity="0.24"/><circle cx="499.5" cy="356.5" r="2.27" fill="#d4862a" opacity="0.31"/><circle cx="536.6" cy="354.3" r="2.37" fill="#d4862a" opacity="0.20"/><circle cx="569.4" cy="354.5" r="2.09" fill="#d4862a" opacity="0.28"/><circle cx="607.7" cy="356.9" r="2.65" fill="#d4862a" opacity="0.25"/><circle cx="640.0" cy="356.7" r="2.62" fill="#d4862a" opacity="0.33"/><circle cx="680.6" cy="354.0" r="2.70" fill="#d4862a" opacity="0.27"/><circle cx="716.3" cy="353.8" r="2.59" fill="#d4862a" opacity="0.19"/><circle cx="752.3" cy="355.8" r="3.83" fill="#d4862a" opacity="0.34"/><circle cx="786.0" cy="355.4" r="2.38" fill="#d4862a" opacity="0.33"/><circle cx="819.5" cy="351.4" r="2.58" fill="#d4862a" opacity="0.19"/><circle cx="857.2" cy="356.3" r="2.02" fill="#d4862a" opacity="0.32"/><circle cx="896.1" cy="352.9" r="1.92" fill="#d4862a" opacity="0.25"/><circle cx="927.5" cy="353.8" r="2.07" fill="#d4862a" opacity="0.23"/><circle cx="964.3" cy="356.9" r="2.96" fill="#d4862a" opacity="0.32"/><circle cx="1003.3" cy="352.2" r="3.80" fill="#d4862a" opacity="0.28"/><circle cx="1040.0" cy="357.0" r="3.91" fill="#d4862a" opacity="0.29"/><circle cx="1075.3" cy="354.8" r="2.76" fill="#d4862a" opacity="0.36"/><circle cx="1110.8" cy="354.3" r="2.45" fill="#d4862a" opacity="0.19"/><circle cx="1146.3" cy="351.9" r="1.62" fill="#d4862a" opacity="0.19"/><circle cx="1182.9" cy="355.0" r="2.71" fill="#d4862a" opacity="0.22"/><circle cx="28.3" cy="389.7" r="3.37" fill="#d4862a" opacity="0.20"/><circle cx="68.6" cy="391.1" r="1.76" fill="#d4862a" opacity="0.34"/><circle cx="103.4" cy="392.6" r="2.98" fill="#d4862a" opacity="0.24"/><circle cx="139.8" cy="391.4" r="3.90" fill="#d4862a" opacity="0.22"/><circle cx="176.8" cy="390.4" r="2.54" fill="#d4862a" opacity="0.30"/><circle cx="210.8" cy="390.0" r="3.46" fill="#d4862a" opacity="0.32"/><circle cx="243.6" cy="390.7" r="3.71" fill="#d4862a" opacity="0.18"/><circle cx="283.7" cy="389.4" r="2.25" fill="#d4862a" opacity="0.34"/><circle cx="319.3" cy="391.1" r="2.74" fill="#d4862a" opacity="0.15"/><circle cx="355.4" cy="389.4" r="2.49" fill="#d4862a" opacity="0.32"/><circle cx="387.1" cy="393.0" r="1.84" fill="#d4862a" opacity="0.32"/><circle cx="425.0" cy="390.5" r="3.28" fill="#d4862a" opacity="0.22"/><circle cx="460.2" cy="388.4" r="1.75" fill="#d4862a" opacity="0.17"/><circle cx="500.4" cy="389.9" r="3.62" fill="#d4862a" opacity="0.35"/><circle cx="533.3" cy="392.8" r="2.98" fill="#d4862a" opacity="0.33"/><circle cx="568.8" cy="387.3" r="1.99" fill="#d4862a" opacity="0.36"/><circle cx="605.7" cy="388.4" r="3.01" fill="#d4862a" opacity="0.33"/><circle cx="641.1" cy="387.4" r="3.67" fill="#d4862a" opacity="0.34"/><circle cx="680.2" cy="392.5" r="3.01" fill="#d4862a" opacity="0.25"/><circle cx="716.0" cy="387.0" r="2.41" fill="#d4862a" opacity="0.24"/><circle cx="749.1" cy="392.9" r="2.44" fill="#d4862a" opacity="0.27"/><circle cx="788.5" cy="389.0" r="2.23" fill="#d4862a" opacity="0.23"/><circle cx="819.7" cy="390.5" r="2.52" fill="#d4862a" opacity="0.16"/><circle cx="856.1" cy="391.8" r="2.93" fill="#d4862a" opacity="0.26"/><circle cx="893.8" cy="391.2" r="3.70" fill="#d4862a" opacity="0.36"/><circle cx="931.8" cy="391.8" r="3.13" fill="#d4862a" opacity="0.21"/><circle cx="967.5" cy="389.8" r="3.00" fill="#d4862a" opacity="0.28"/><circle cx="1004.4" cy="388.0" r="2.41" fill="#d4862a" opacity="0.24"/><circle cx="1036.2" cy="390.7" r="2.35" fill="#d4862a" opacity="0.16"/><circle cx="1071.4" cy="391.0" r="2.64" fill="#d4862a" opacity="0.19"/><circle cx="1111.1" cy="392.8" r="2.80" fill="#d4862a" opacity="0.26"/><circle cx="1146.6" cy="390.8" r="3.91" fill="#d4862a" opacity="0.30"/><circle cx="1183.1" cy="387.0" r="2.79" fill="#d4862a" opacity="0.18"/><circle cx="28.3" cy="423.9" r="3.36" fill="#d4862a" opacity="0.26"/><circle cx="67.8" cy="426.1" r="3.69" fill="#d4862a" opacity="0.16"/><circle cx="100.5" cy="424.8" r="3.99" fill="#d4862a" opacity="0.34"/><circle cx="135.7" cy="424.2" r="1.71" fill="#d4862a" opacity="0.25"/><circle cx="173.9" cy="427.8" r="3.04" fill="#d4862a" opacity="0.25"/><circle cx="207.4" cy="428.7" r="3.29" fill="#d4862a" opacity="0.23"/><circle cx="246.7" cy="426.4" r="3.12" fill="#d4862a" opacity="0.30"/><circle cx="282.4" cy="425.1" r="2.66" fill="#d4862a" opacity="0.16"/><circle cx="316.3" cy="429.0" r="3.92" fill="#d4862a" opacity="0.35"/><circle cx="355.3" cy="428.2" r="3.05" fill="#d4862a" opacity="0.17"/><circle cx="390.1" cy="427.0" r="2.16" fill="#d4862a" opacity="0.29"/><circle cx="428.7" cy="428.4" r="2.17" fill="#d4862a" opacity="0.17"/><circle cx="461.0" cy="425.3" r="2.11" fill="#d4862a" opacity="0.20"/><circle cx="497.6" cy="426.5" r="3.95" fill="#d4862a" opacity="0.35"/><circle cx="533.2" cy="426.6" r="1.69" fill="#d4862a" opacity="0.23"/><circle cx="572.2" cy="427.6" r="3.86" fill="#d4862a" opacity="0.15"/><circle cx="604.9" cy="427.8" r="2.00" fill="#d4862a" opacity="0.20"/><circle cx="642.4" cy="423.3" r="3.58" fill="#d4862a" opacity="0.18"/><circle cx="676.1" cy="423.3" r="2.54" fill="#d4862a" opacity="0.27"/><circle cx="711.5" cy="425.2" r="3.21" fill="#d4862a" opacity="0.26"/><circle cx="750.2" cy="425.9" r="1.70" fill="#d4862a" opacity="0.28"/><circle cx="783.8" cy="427.9" r="3.16" fill="#d4862a" opacity="0.26"/><circle cx="822.6" cy="423.5" r="2.83" fill="#d4862a" opacity="0.21"/><circle cx="858.6" cy="424.3" r="3.69" fill="#d4862a" opacity="0.30"/><circle cx="893.4" cy="424.5" r="1.63" fill="#d4862a" opacity="0.20"/><circle cx="929.5" cy="423.3" r="3.65" fill="#d4862a" opacity="0.25"/><circle cx="967.7" cy="425.9" r="1.70" fill="#d4862a" opacity="0.20"/><circle cx="1003.2" cy="425.1" r="3.22" fill="#d4862a" opacity="0.16"/><circle cx="1037.7" cy="425.7" r="2.92" fill="#d4862a" opacity="0.16"/><circle cx="1076.6" cy="425.2" r="3.95" fill="#d4862a" opacity="0.33"/><circle cx="1108.9" cy="426.5" r="3.30" fill="#d4862a" opacity="0.16"/><circle cx="1148.2" cy="423.3" r="2.28" fill="#d4862a" opacity="0.29"/><circle cx="1184.6" cy="427.9" r="3.68" fill="#d4862a" opacity="0.22"/><circle cx="32.5" cy="461.6" r="2.89" fill="#d4862a" opacity="0.24"/><circle cx="65.2" cy="459.7" r="3.21" fill="#d4862a" opacity="0.16"/><circle cx="100.0" cy="461.3" r="1.83" fill="#d4862a" opacity="0.33"/><circle cx="139.4" cy="459.3" r="2.39" fill="#d4862a" opacity="0.19"/><circle cx="176.2" cy="462.4" r="3.28" fill="#d4862a" opacity="0.33"/><circle cx="210.8" cy="461.8" r="1.89" fill="#d4862a" opacity="0.35"/><circle cx="243.4" cy="459.3" r="2.24" fill="#d4862a" opacity="0.29"/><circle cx="282.6" cy="459.2" r="2.84" fill="#d4862a" opacity="0.29"/><circle cx="315.1" cy="459.1" r="3.28" fill="#d4862a" opacity="0.35"/><circle cx="354.4" cy="464.5" r="2.60" fill="#d4862a" opacity="0.22"/><circle cx="388.0" cy="462.4" r="3.68" fill="#d4862a" opacity="0.25"/><circle cx="427.2" cy="464.2" r="3.03" fill="#d4862a" opacity="0.19"/><circle cx="464.8" cy="463.0" r="3.30" fill="#d4862a" opacity="0.31"/><circle cx="496.2" cy="462.0" r="3.29" fill="#d4862a" opacity="0.33"/><circle cx="531.5" cy="461.7" r="2.81" fill="#d4862a" opacity="0.26"/><circle cx="568.2" cy="460.3" r="3.64" fill="#d4862a" opacity="0.35"/><circle cx="607.8" cy="463.5" r="1.71" fill="#d4862a" opacity="0.35"/><circle cx="644.5" cy="461.7" r="2.09" fill="#d4862a" opacity="0.29"/><circle cx="679.7" cy="462.9" r="2.56" fill="#d4862a" opacity="0.16"/><circle cx="711.4" cy="463.5" r="3.13" fill="#d4862a" opacity="0.28"/><circle cx="749.2" cy="463.5" r="3.52" fill="#d4862a" opacity="0.31"/><circle cx="785.4" cy="463.9" r="2.57" fill="#d4862a" opacity="0.23"/><circle cx="819.9" cy="459.2" r="2.17" fill="#d4862a" opacity="0.20"/><circle cx="858.2" cy="462.8" r="2.20" fill="#d4862a" opacity="0.23"/><circle cx="891.5" cy="463.5" r="1.71" fill="#d4862a" opacity="0.21"/><circle cx="928.4" cy="462.0" r="1.60" fill="#d4862a" opacity="0.29"/><circle cx="965.7" cy="459.7" r="2.27" fill="#d4862a" opacity="0.36"/><circle cx="999.2" cy="464.9" r="3.02" fill="#d4862a" opacity="0.24"/><circle cx="1037.6" cy="461.1" r="3.10" fill="#d4862a" opacity="0.20"/><circle cx="1071.8" cy="464.3" r="2.64" fill="#d4862a" opacity="0.17"/><circle cx="1109.1" cy="460.2" r="3.71" fill="#d4862a" opacity="0.15"/><circle cx="1146.1" cy="459.3" r="2.58" fill="#d4862a" opacity="0.29"/><circle cx="1182.7" cy="459.4" r="2.70" fill="#d4862a" opacity="0.21"/><circle cx="30.4" cy="498.5" r="2.17" fill="#d4862a" opacity="0.25"/><circle cx="68.5" cy="500.3" r="2.87" fill="#d4862a" opacity="0.22"/><circle cx="101.4" cy="498.9" r="2.14" fill="#d4862a" opacity="0.17"/><circle cx="138.9" cy="495.4" r="2.08" fill="#d4862a" opacity="0.29"/><circle cx="173.7" cy="497.6" r="3.40" fill="#d4862a" opacity="0.23"/><circle cx="209.2" cy="498.4" r="2.68" fill="#d4862a" opacity="0.33"/><circle cx="245.9" cy="495.7" r="2.71" fill="#d4862a" opacity="0.28"/><circle cx="281.0" cy="497.9" r="3.18" fill="#d4862a" opacity="0.30"/><circle cx="319.3" cy="500.8" r="3.35" fill="#d4862a" opacity="0.15"/><circle cx="351.3" cy="495.4" r="1.67" fill="#d4862a" opacity="0.24"/><circle cx="392.6" cy="498.7" r="2.84" fill="#d4862a" opacity="0.31"/><circle cx="424.9" cy="496.1" r="1.76" fill="#d4862a" opacity="0.15"/><circle cx="461.8" cy="496.8" r="1.66" fill="#d4862a" opacity="0.24"/><circle cx="495.2" cy="497.3" r="3.06" fill="#d4862a" opacity="0.31"/><circle cx="535.0" cy="500.1" r="2.53" fill="#d4862a" opacity="0.17"/><circle cx="569.5" cy="495.9" r="3.47" fill="#d4862a" opacity="0.30"/><circle cx="604.3" cy="500.4" r="2.38" fill="#d4862a" opacity="0.35"/><circle cx="643.0" cy="499.5" r="2.57" fill="#d4862a" opacity="0.30"/><circle cx="677.9" cy="499.6" r="2.78" fill="#d4862a" opacity="0.26"/><circle cx="712.5" cy="497.4" r="3.43" fill="#d4862a" opacity="0.22"/><circle cx="752.7" cy="498.0" r="2.94" fill="#d4862a" opacity="0.27"/><circle cx="784.3" cy="499.6" r="3.07" fill="#d4862a" opacity="0.15"/><circle cx="823.3" cy="497.2" r="1.78" fill="#d4862a" opacity="0.36"/><circle cx="859.4" cy="496.3" r="3.65" fill="#d4862a" opacity="0.22"/><circle cx="893.9" cy="500.4" r="3.77" fill="#d4862a" opacity="0.35"/><circle cx="929.2" cy="500.0" r="3.68" fill="#d4862a" opacity="0.21"/><circle cx="967.9" cy="500.6" r="3.33" fill="#d4862a" opacity="0.26"/><circle cx="1002.7" cy="497.2" r="3.85" fill="#d4862a" opacity="0.22"/><circle cx="1037.0" cy="498.7" r="2.77" fill="#d4862a" opacity="0.18"/><circle cx="1075.5" cy="495.6" r="1.62" fill="#d4862a" opacity="0.25"/><circle cx="1112.0" cy="496.1" r="3.69" fill="#d4862a" opacity="0.16"/><circle cx="1144.2" cy="495.7" r="3.74" fill="#d4862a" opacity="0.20"/><circle cx="1181.8" cy="495.8" r="2.71" fill="#d4862a" opacity="0.16"/><circle cx="31.9" cy="531.9" r="3.69" fill="#d4862a" opacity="0.35"/><circle cx="65.7" cy="533.6" r="2.04" fill="#d4862a" opacity="0.21"/><circle cx="101.3" cy="535.0" r="2.73" fill="#d4862a" opacity="0.18"/><circle cx="138.9" cy="534.0" r="2.78" fill="#d4862a" opacity="0.30"/><circle cx="176.3" cy="531.9" r="2.78" fill="#d4862a" opacity="0.33"/><circle cx="209.8" cy="531.2" r="3.14" fill="#d4862a" opacity="0.32"/><circle cx="243.4" cy="534.4" r="1.77" fill="#d4862a" opacity="0.30"/><circle cx="281.7" cy="532.3" r="3.63" fill="#d4862a" opacity="0.25"/><circle cx="315.2" cy="533.0" r="3.96" fill="#d4862a" opacity="0.18"/><circle cx="353.5" cy="532.6" r="3.84" fill="#d4862a" opacity="0.19"/><circle cx="393.0" cy="536.4" r="2.66" fill="#d4862a" opacity="0.25"/><circle cx="429.0" cy="531.6" r="2.90" fill="#d4862a" opacity="0.18"/><circle cx="463.2" cy="532.1" r="3.95" fill="#d4862a" opacity="0.36"/><circle cx="495.0" cy="533.1" r="1.82" fill="#d4862a" opacity="0.26"/><circle cx="536.7" cy="532.3" r="2.68" fill="#d4862a" opacity="0.16"/><circle cx="570.3" cy="534.3" r="2.96" fill="#d4862a" opacity="0.35"/><circle cx="603.8" cy="536.4" r="1.70" fill="#d4862a" opacity="0.19"/><circle cx="639.5" cy="534.5" r="1.79" fill="#d4862a" opacity="0.28"/><circle cx="680.6" cy="534.0" r="3.89" fill="#d4862a" opacity="0.32"/><circle cx="712.2" cy="531.7" r="1.64" fill="#d4862a" opacity="0.27"/><circle cx="751.2" cy="535.8" r="2.01" fill="#d4862a" opacity="0.19"/><circle cx="783.4" cy="534.4" r="1.68" fill="#d4862a" opacity="0.25"/><circle cx="822.8" cy="536.8" r="3.54" fill="#d4862a" opacity="0.20"/><circle cx="856.8" cy="534.8" r="1.98" fill="#d4862a" opacity="0.26"/><circle cx="891.8" cy="531.8" r="2.70" fill="#d4862a" opacity="0.28"/><circle cx="930.8" cy="534.7" r="2.98" fill="#d4862a" opacity="0.36"/><circle cx="964.3" cy="536.2" r="3.15" fill="#d4862a" opacity="0.28"/><circle cx="999.4" cy="533.1" r="3.01" fill="#d4862a" opacity="0.28"/><circle cx="1036.9" cy="536.3" r="2.19" fill="#d4862a" opacity="0.17"/><circle cx="1075.1" cy="533.5" r="2.95" fill="#d4862a" opacity="0.31"/><circle cx="1108.2" cy="536.5" r="3.15" fill="#d4862a" opacity="0.18"/><circle cx="1145.6" cy="536.2" r="3.93" fill="#d4862a" opacity="0.22"/><circle cx="1179.5" cy="535.7" r="1.83" fill="#d4862a" opacity="0.19"/><circle cx="32.5" cy="570.8" r="1.77" fill="#d4862a" opacity="0.34"/><circle cx="66.7" cy="568.5" r="1.82" fill="#d4862a" opacity="0.22"/><circle cx="102.3" cy="568.1" r="2.94" fill="#d4862a" opacity="0.31"/><circle cx="135.6" cy="572.4" r="3.93" fill="#d4862a" opacity="0.32"/><circle cx="175.1" cy="570.2" r="3.65" fill="#d4862a" opacity="0.28"/><circle cx="209.7" cy="572.9" r="2.73" fill="#d4862a" opacity="0.32"/><circle cx="247.6" cy="568.8" r="2.75" fill="#d4862a" opacity="0.24"/><circle cx="283.9" cy="569.5" r="1.87" fill="#d4862a" opacity="0.21"/><circle cx="316.9" cy="567.6" r="2.22" fill="#d4862a" opacity="0.26"/><circle cx="355.3" cy="569.0" r="2.54" fill="#d4862a" opacity="0.22"/><circle cx="390.4" cy="570.7" r="2.39" fill="#d4862a" opacity="0.15"/><circle cx="423.8" cy="570.4" r="1.95" fill="#d4862a" opacity="0.26"/><circle cx="461.3" cy="570.7" r="2.94" fill="#d4862a" opacity="0.34"/><circle cx="496.6" cy="569.2" r="2.53" fill="#d4862a" opacity="0.34"/><circle cx="531.8" cy="570.1" r="3.90" fill="#d4862a" opacity="0.31"/><circle cx="572.3" cy="568.2" r="2.90" fill="#d4862a" opacity="0.30"/><circle cx="607.6" cy="569.0" r="2.11" fill="#d4862a" opacity="0.17"/><circle cx="642.7" cy="569.1" r="2.87" fill="#d4862a" opacity="0.27"/><circle cx="676.0" cy="568.3" r="2.80" fill="#d4862a" opacity="0.33"/><circle cx="713.2" cy="571.7" r="2.19" fill="#d4862a" opacity="0.18"/><circle cx="752.9" cy="572.7" r="2.12" fill="#d4862a" opacity="0.16"/><circle cx="785.3" cy="570.3" r="2.98" fill="#d4862a" opacity="0.23"/><circle cx="820.2" cy="568.7" r="3.38" fill="#d4862a" opacity="0.19"/><circle cx="856.2" cy="567.3" r="2.60" fill="#d4862a" opacity="0.23"/><circle cx="893.3" cy="567.4" r="2.54" fill="#d4862a" opacity="0.35"/><circle cx="929.5" cy="571.3" r="3.66" fill="#d4862a" opacity="0.16"/><circle cx="968.1" cy="571.7" r="3.67" fill="#d4862a" opacity="0.16"/><circle cx="1003.9" cy="567.1" r="1.67" fill="#d4862a" opacity="0.36"/><circle cx="1037.7" cy="568.2" r="2.82" fill="#d4862a" opacity="0.25"/><circle cx="1076.0" cy="571.8" r="3.99" fill="#d4862a" opacity="0.29"/><circle cx="1110.0" cy="568.2" r="1.68" fill="#d4862a" opacity="0.23"/><circle cx="1147.1" cy="568.6" r="2.53" fill="#d4862a" opacity="0.22"/><circle cx="1181.7" cy="572.6" r="3.44" fill="#d4862a" opacity="0.20"/><circle cx="29.1" cy="604.0" r="3.65" fill="#d4862a" opacity="0.32"/><circle cx="63.4" cy="608.1" r="2.45" fill="#d4862a" opacity="0.31"/><circle cx="102.1" cy="604.1" r="1.94" fill="#d4862a" opacity="0.19"/><circle cx="138.8" cy="604.1" r="2.09" fill="#d4862a" opacity="0.33"/><circle cx="172.7" cy="603.8" r="2.54" fill="#d4862a" opacity="0.24"/><circle cx="210.6" cy="604.6" r="3.63" fill="#d4862a" opacity="0.24"/><circle cx="247.9" cy="606.9" r="1.83" fill="#d4862a" opacity="0.22"/><circle cx="283.6" cy="608.8" r="1.73" fill="#d4862a" opacity="0.36"/><circle cx="320.3" cy="605.9" r="1.86" fill="#d4862a" opacity="0.35"/><circle cx="353.4" cy="606.4" r="2.30" fill="#d4862a" opacity="0.31"/><circle cx="391.0" cy="608.3" r="1.77" fill="#d4862a" opacity="0.16"/><circle cx="426.8" cy="606.7" r="2.78" fill="#d4862a" opacity="0.16"/><circle cx="460.3" cy="606.6" r="3.87" fill="#d4862a" opacity="0.35"/><circle cx="499.8" cy="604.0" r="2.99" fill="#d4862a" opacity="0.25"/><circle cx="536.7" cy="603.8" r="3.60" fill="#d4862a" opacity="0.25"/><circle cx="567.2" cy="604.2" r="3.95" fill="#d4862a" opacity="0.19"/><circle cx="608.6" cy="606.1" r="3.01" fill="#d4862a" opacity="0.15"/><circle cx="641.2" cy="608.0" r="2.02" fill="#d4862a" opacity="0.21"/><circle cx="675.1" cy="608.5" r="2.78" fill="#d4862a" opacity="0.21"/><circle cx="714.9" cy="607.7" r="3.84" fill="#d4862a" opacity="0.29"/><circle cx="749.8" cy="604.8" r="3.01" fill="#d4862a" opacity="0.19"/><circle cx="783.7" cy="604.7" r="3.85" fill="#d4862a" opacity="0.36"/><circle cx="821.6" cy="604.9" r="1.96" fill="#d4862a" opacity="0.29"/><circle cx="857.8" cy="607.7" r="2.68" fill="#d4862a" opacity="0.18"/><circle cx="895.0" cy="608.5" r="3.44" fill="#d4862a" opacity="0.17"/><circle cx="930.7" cy="604.2" r="2.58" fill="#d4862a" opacity="0.23"/><circle cx="965.3" cy="604.9" r="3.38" fill="#d4862a" opacity="0.16"/><circle cx="1004.4" cy="607.1" r="3.36" fill="#d4862a" opacity="0.32"/><circle cx="1040.6" cy="604.7" r="1.65" fill="#d4862a" opacity="0.26"/><circle cx="1071.7" cy="603.8" r="2.13" fill="#d4862a" opacity="0.36"/><circle cx="1107.9" cy="608.5" r="1.95" fill="#d4862a" opacity="0.21"/><circle cx="1143.7" cy="606.0" r="3.64" fill="#d4862a" opacity="0.18"/><circle cx="1179.3" cy="609.0" r="3.27" fill="#d4862a" opacity="0.21"/><circle cx="31.0" cy="643.7" r="2.05" fill="#d4862a" opacity="0.34"/><circle cx="66.4" cy="644.4" r="3.76" fill="#d4862a" opacity="0.25"/><circle cx="100.2" cy="643.6" r="3.66" fill="#d4862a" opacity="0.28"/><circle cx="140.5" cy="643.4" r="3.08" fill="#d4862a" opacity="0.20"/><circle cx="175.3" cy="641.3" r="3.22" fill="#d4862a" opacity="0.36"/><circle cx="208.5" cy="642.0" r="2.82" fill="#d4862a" opacity="0.26"/><circle cx="246.5" cy="642.4" r="3.02" fill="#d4862a" opacity="0.26"/><circle cx="280.4" cy="642.2" r="1.93" fill="#d4862a" opacity="0.21"/><circle cx="318.2" cy="642.5" r="3.91" fill="#d4862a" opacity="0.27"/><circle cx="354.6" cy="642.3" r="3.73" fill="#d4862a" opacity="0.20"/><circle cx="391.0" cy="644.3" r="2.02" fill="#d4862a" opacity="0.23"/><circle cx="425.4" cy="644.3" r="2.85" fill="#d4862a" opacity="0.29"/><circle cx="460.0" cy="639.9" r="1.66" fill="#d4862a" opacity="0.31"/><circle cx="495.5" cy="643.2" r="2.00" fill="#d4862a" opacity="0.33"/><circle cx="531.7" cy="644.0" r="3.86" fill="#d4862a" opacity="0.31"/><circle cx="570.4" cy="641.7" r="1.84" fill="#d4862a" opacity="0.36"/><circle cx="604.5" cy="639.7" r="1.72" fill="#d4862a" opacity="0.32"/><circle cx="640.9" cy="639.5" r="3.30" fill="#d4862a" opacity="0.32"/><circle cx="680.1" cy="640.8" r="3.64" fill="#d4862a" opacity="0.17"/><circle cx="712.3" cy="644.3" r="3.01" fill="#d4862a" opacity="0.18"/><circle cx="752.5" cy="643.7" r="2.50" fill="#d4862a" opacity="0.19"/><circle cx="784.0" cy="643.5" r="2.96" fill="#d4862a" opacity="0.34"/><circle cx="822.7" cy="644.9" r="2.49" fill="#d4862a" opacity="0.35"/><circle cx="858.4" cy="639.1" r="1.69" fill="#d4862a" opacity="0.23"/><circle cx="894.9" cy="644.8" r="2.43" fill="#d4862a" opacity="0.22"/><circle cx="930.5" cy="642.0" r="2.07" fill="#d4862a" opacity="0.25"/><circle cx="966.9" cy="643.9" r="3.93" fill="#d4862a" opacity="0.32"/><circle cx="1001.9" cy="644.5" r="3.10" fill="#d4862a" opacity="0.31"/><circle cx="1035.3" cy="643.4" r="1.84" fill="#d4862a" opacity="0.27"/><circle cx="1073.9" cy="640.0" r="2.68" fill="#d4862a" opacity="0.33"/><circle cx="1110.1" cy="642.4" r="3.42" fill="#d4862a" opacity="0.28"/><circle cx="1148.3" cy="644.2" r="3.75" fill="#d4862a" opacity="0.28"/><circle cx="1181.1" cy="640.5" r="3.56" fill="#d4862a" opacity="0.36"/><circle cx="262.8" cy="231.8" r="220" fill="url(#glow)" opacity="0.9"/>
  <g opacity="0.85" transform="translate(1020, 495)">
        <polygon points="0,-50 43,25 -43,25" fill="none" stroke="#d4862a" stroke-width="2"/>
        <polygon points="0,-30 26,15 -26,15" fill="#bd6b20" opacity="0.4"/>
      </g>
  <g transform="translate(80, 90)">
    <rect x="0" y="0" rx="20" ry="20" width="145" height="38" fill="#d4862a" opacity="0.18" stroke="#d4862a" stroke-width="1.5"/>
    <text x="72.5" y="25" font-family="ui-sans-serif, Inter, sans-serif" font-weight="700" font-size="14" letter-spacing="2.5" fill="#d4862a" text-anchor="middle">INFORMATION</text>
  </g>
  <text x="80" y="515" font-family="ui-sans-serif, -apple-system, Segoe UI, Inter, sans-serif" font-weight="800" font-size="44" fill="#faf8f5" opacity="0.98"><tspan x="80" dy="0">PDR COURT promptly informs</tspan><tspan x="80" dy="56">its cookie policy to users</tspan></text>
  <rect x="0" y="669" width="1200" height="6" fill="url(#gold)"/>
</svg>