<?xml version="1.0" encoding="UTF-8"?>
<svg xmlns="http://www.w3.org/2000/svg" viewBox="0 0 1200 675" width="1200" height="675" role="img" aria-label="Rs 2.66 Cr Lok Adalat Payout &amp; Legal Accord">
  <defs>
    <linearGradient id="bg" x1="0%" y1="0%" x2="100%" y2="100%">
      <stop offset="0%" stop-color="#643516"/>
      <stop offset="100%" stop-color="#7d4315"/>
    </linearGradient>
    <linearGradient id="gold" x1="0%" y1="0%" x2="100%" y2="100%">
      <stop offset="0%" stop-color="#ecb478"/>
      <stop offset="100%" stop-color="#faebd6"/>
    </linearGradient>
    <radialGradient id="glow" cx="50%" cy="50%" r="50%">
      <stop offset="0%" stop-color="#ecb478" stop-opacity="0.45"/>
      <stop offset="100%" stop-color="#ecb478" stop-opacity="0"/>
    </radialGradient>
  </defs>
  <rect width="1200" height="675" fill="url(#bg)"/>
  <polygon points="-50,262.0 -20,257.5 10,253.3 40,249.7 70,246.6 100,244.2 130,242.6 160,241.6 190,241.4 220,242.0 250,243.4 280,245.4 310,248.2 340,251.5 370,255.4 400,259.8 430,264.5 460,269.5 490,274.6 520,279.7 550,284.8 580,289.6 610,294.2 640,298.3 670,301.9 700,304.9 730,307.2 760,308.9 790,309.8 820,309.9 850,309.3 880,307.9 910,305.8 940,303.0 970,299.6 1000,295.7 1030,291.3 1060,286.6 1090,281.6 1120,276.5 1150,271.4 1180,266.3 1210,261.5 1240,257.0 1250,725 -50,725" fill="#ecb478" opacity="0.08"/><polygon points="-50,406.2 -20,413.3 10,418.8 40,422.8 70,424.9 100,425.4 130,424.0 160,420.8 190,416.0 220,409.6 250,401.7 280,392.6 310,382.5 340,371.5 370,359.9 400,348.0 430,336.1 460,324.4 490,313.1 520,302.6 550,293.0 580,284.7 610,277.7 640,272.2 670,268.4 700,266.3 730,266.0 760,267.5 790,270.7 820,275.6 850,282.1 880,290.0 910,299.2 940,309.4 970,320.4 1000,332.0 1030,343.9 1060,355.9 1090,367.6 1120,378.8 1150,389.3 1180,398.8 1210,407.0 1240,414.0 1250,725 -50,725" fill="#ecb478" opacity="0.13"/><polygon points="-50,462.5 -20,455.5 10,447.2 40,438.0 70,428.0 100,417.3 130,406.4 160,395.3 190,384.4 220,373.9 250,364.0 280,355.0 310,347.1 340,340.3 370,335.0 400,331.2 430,329.0 460,328.4 490,329.4 520,332.1 550,336.4 580,342.2 610,349.3 640,357.5 670,366.8 700,376.9 730,387.6 760,398.5 790,409.6 820,420.5 850,431.0 880,440.8 910,449.8 940,457.6 970,464.3 1000,469.5 1030,473.3 1060,475.4 1090,475.9 1120,474.8 1150,472.0 1180,467.6 1210,461.8 1240,454.6 1250,725 -50,725" fill="#ecb478" opacity="0.18"/><polygon points="-50,548.1 -20,548.9 10,548.2 40,546.0 70,542.4 100,537.4 130,531.2 160,523.8 190,515.5 220,506.4 250,496.8 280,486.8 310,476.7 340,466.7 370,457.1 400,448.0 430,439.6 460,432.2 490,425.9 520,420.9 550,417.2 580,415.0 610,414.2 640,415.0 670,417.2 700,420.9 730,426.0 760,432.3 790,439.7 820,448.1 850,457.2 880,466.9 910,476.9 940,487.0 970,496.9 1000,506.5 1030,515.6 1060,523.9 1090,531.3 1120,537.5 1150,542.5 1180,546.1 1210,548.2 1240,548.9 1250,725 -50,725" fill="#ecb478" opacity="0.23"/><circle cx="300.0" cy="189.0" r="160" fill="url(#glow)"/>
  <g opacity="0.85" transform="translate(1020, 495)">
        <circle r="68" fill="none" stroke="#ecb478" stroke-width="2" opacity="0.35"/>
        <path d="M -38 12 L 38 12 M -32 -8 L 32 -8 M -45 -28 L 45 -28" stroke="#faebd6" stroke-width="3" stroke-linecap="round"/>
        <rect x="-50" y="-44" width="100" height="80" fill="none" stroke="#ecb478" stroke-width="2"/>
      </g>
  <g transform="translate(80, 90)">
    <rect x="0" y="0" rx="20" ry="20" width="112" height="38" fill="#ecb478" opacity="0.18" stroke="#ecb478" stroke-width="1.5"/>
    <text x="56" y="25" font-family="ui-sans-serif, Inter, sans-serif" font-weight="700" font-size="14" letter-spacing="2.5" fill="#ecb478" text-anchor="middle">NEWSROOM</text>
  </g>
  <text x="80" y="515" font-family="ui-sans-serif, -apple-system, Segoe UI, Inter, sans-serif" font-weight="800" font-size="44" fill="#faf8f5" opacity="0.98"><tspan x="80" dy="0">Rs 2.66 Cr Lok Adalat</tspan><tspan x="80" dy="56">Payout &amp; Legal Accord</tspan></text>
  <rect x="0" y="669" width="1200" height="6" fill="url(#gold)"/>
</svg>