<?xml version="1.0" encoding="UTF-8"?>
<svg xmlns="http://www.w3.org/2000/svg" viewBox="0 0 1200 675" width="1200" height="675" role="img" aria-label="Cta1">
  <defs>
    <linearGradient id="bg" x1="0%" y1="0%" x2="100%" y2="100%">
      <stop offset="0%" stop-color="#0c0a09"/>
      <stop offset="100%" stop-color="#291813"/>
    </linearGradient>
    <linearGradient id="gold" x1="0%" y1="0%" x2="100%" y2="100%">
      <stop offset="0%" stop-color="#d4862a"/>
      <stop offset="100%" stop-color="#bd6b20"/>
    </linearGradient>
    <radialGradient id="glow" cx="50%" cy="50%" r="50%">
      <stop offset="0%" stop-color="#d4862a" stop-opacity="0.45"/>
      <stop offset="100%" stop-color="#d4862a" stop-opacity="0"/>
    </radialGradient>
  </defs>
  <rect width="1200" height="675" fill="url(#bg)"/>
  <circle cx="227.2" cy="265.0" r="115" fill="none" stroke="#d4862a" stroke-width="2.0" opacity="0.36"/><circle cx="227.2" cy="265.0" r="170" fill="none" stroke="#d4862a" stroke-width="1.7" opacity="0.32"/><circle cx="227.2" cy="265.0" r="225" fill="none" stroke="#d4862a" stroke-width="2.0" opacity="0.28"/><circle cx="227.2" cy="265.0" r="280" fill="none" stroke="#d4862a" stroke-width="1.9" opacity="0.24"/><circle cx="227.2" cy="265.0" r="335" fill="none" stroke="#d4862a" stroke-width="2.1" opacity="0.20"/><circle cx="227.2" cy="265.0" r="390" fill="none" stroke="#d4862a" stroke-width="1.7" opacity="0.16"/><circle cx="227.2" cy="265.0" r="445" fill="none" stroke="#d4862a" stroke-width="1.5" opacity="0.12"/><circle cx="227.2" cy="265.0" r="500" fill="none" stroke="#d4862a" stroke-width="2.4" opacity="0.08"/><circle cx="227.2" cy="265.0" r="555" fill="none" stroke="#d4862a" stroke-width="2.0" opacity="0.04"/><circle cx="227.2" cy="265.0" r="40" fill="url(#gold)" opacity="0.85"/>
  <g opacity="0.85" transform="translate(1020, 495)">
        <polygon points="0,-50 43,25 -43,25" fill="none" stroke="#d4862a" stroke-width="2"/>
        <polygon points="0,-30 26,15 -26,15" fill="#bd6b20" opacity="0.4"/>
      </g>
  <g transform="translate(80, 90)">
    <rect x="0" y="0" rx="20" ry="20" width="145" height="38" fill="#d4862a" opacity="0.18" stroke="#d4862a" stroke-width="1.5"/>
    <text x="72.5" y="25" font-family="ui-sans-serif, Inter, sans-serif" font-weight="700" font-size="14" letter-spacing="2.5" fill="#d4862a" text-anchor="middle">INFORMATION</text>
  </g>
  <text x="80" y="565" font-family="ui-sans-serif, -apple-system, Segoe UI, Inter, sans-serif" font-weight="800" font-size="44" fill="#faf8f5" opacity="0.98"><tspan x="80" dy="0">Cta1</tspan></text>
  <rect x="0" y="669" width="1200" height="6" fill="url(#gold)"/>
</svg>