<?xml version="1.0" encoding="UTF-8"?>
<svg xmlns="http://www.w3.org/2000/svg" viewBox="0 0 1200 675" width="1200" height="675" role="img" aria-label="Cta2">
  <defs>
    <linearGradient id="bg" x1="0%" y1="0%" x2="100%" y2="100%">
      <stop offset="0%" stop-color="#532d15"/>
      <stop offset="100%" stop-color="#bd6b20"/>
    </linearGradient>
    <linearGradient id="gold" x1="0%" y1="0%" x2="100%" y2="100%">
      <stop offset="0%" stop-color="#e09440"/>
      <stop offset="100%" stop-color="#fdf6ee"/>
    </linearGradient>
    <radialGradient id="glow" cx="50%" cy="50%" r="50%">
      <stop offset="0%" stop-color="#e09440" stop-opacity="0.45"/>
      <stop offset="100%" stop-color="#e09440" stop-opacity="0"/>
    </radialGradient>
  </defs>
  <rect width="1200" height="675" fill="url(#bg)"/>
  <circle cx="840.0" cy="135.0" r="240" fill="url(#glow)" opacity="0.8"/><rect x="204.4" y="551.2" width="34.4" height="34.4" rx="4" transform="rotate(186.9 221.7 568.4)" fill="#e09440" opacity="0.11"/><polygon points="1100.9,543.3 1127.1,595.7 1074.7,595.7" fill="#f4d2ac" opacity="0.16"/><rect x="1032.5" y="428.5" width="28.0" height="28.0" rx="4" transform="rotate(15.2 1046.5 442.5)" fill="#e09440" opacity="0.17"/><polygon points="923.5,513.7 938.3,543.3 908.7,543.3" fill="#f4d2ac" opacity="0.31"/><polygon points="544.6,27.5 552.3,43.1 536.8,43.1" fill="#f4d2ac" opacity="0.17"/><circle cx="491.3" cy="123.5" r="14.5" fill="#fdf6ee" opacity="0.32"/><rect x="727.4" y="325.3" width="45.3" height="45.3" rx="4" transform="rotate(270.0 750.1 347.9)" fill="#e09440" opacity="0.11"/><rect x="1098.6" y="60.6" width="32.8" height="32.8" rx="4" transform="rotate(217.4 1115.0 76.9)" fill="#e09440" opacity="0.23"/><polygon points="250.2,354.9 271.1,396.7 229.3,396.7" fill="#f4d2ac" opacity="0.17"/><rect x="882.7" y="11.0" width="32.2" height="32.2" rx="4" transform="rotate(36.0 898.8 27.1)" fill="#e09440" opacity="0.35"/><polygon points="1010.7,301.7 1033.4,347.2 987.9,347.2" fill="#f4d2ac" opacity="0.15"/><circle cx="606.3" cy="255.9" r="28.5" fill="#fdf6ee" opacity="0.12"/><rect x="937.4" y="488.6" width="46.6" height="46.6" rx="4" transform="rotate(142.9 960.7 512.0)" fill="#e09440" opacity="0.23"/><polygon points="635.3,216.6 647.8,241.7 622.7,241.7" fill="#f4d2ac" opacity="0.33"/><circle cx="515.5" cy="516.9" r="31.8" fill="#fdf6ee" opacity="0.27"/><circle cx="143.5" cy="462.4" r="8.1" fill="#fdf6ee" opacity="0.18"/><rect x="332.5" y="440.2" width="20.2" height="20.2" rx="4" transform="rotate(251.9 342.6 450.3)" fill="#e09440" opacity="0.16"/><rect x="515.3" y="361.7" width="18.0" height="18.0" rx="4" transform="rotate(313.1 524.3 370.7)" fill="#e09440" opacity="0.20"/><polygon points="572.7,445.7 598.3,496.7 547.2,496.7" fill="#f4d2ac" opacity="0.14"/><rect x="672.9" y="541.7" width="39.7" height="39.7" rx="4" transform="rotate(122.8 692.8 561.5)" fill="#e09440" opacity="0.14"/><rect x="944.8" y="511.9" width="15.9" height="15.9" rx="4" transform="rotate(111.8 952.7 519.8)" fill="#e09440" opacity="0.23"/><circle cx="268.0" cy="114.1" r="21.5" fill="#fdf6ee" opacity="0.16"/>
  <g opacity="0.85" transform="translate(1020, 495)">
        <polygon points="0,-50 43,25 -43,25" fill="none" stroke="#e09440" stroke-width="2"/>
        <polygon points="0,-30 26,15 -26,15" fill="#fdf6ee" opacity="0.4"/>
      </g>
  <g transform="translate(80, 90)">
    <rect x="0" y="0" rx="20" ry="20" width="145" height="38" fill="#e09440" opacity="0.18" stroke="#e09440" stroke-width="1.5"/>
    <text x="72.5" y="25" font-family="ui-sans-serif, Inter, sans-serif" font-weight="700" font-size="14" letter-spacing="2.5" fill="#e09440" text-anchor="middle">INFORMATION</text>
  </g>
  <text x="80" y="565" font-family="ui-sans-serif, -apple-system, Segoe UI, Inter, sans-serif" font-weight="800" font-size="44" fill="#faf8f5" opacity="0.98"><tspan x="80" dy="0">Cta2</tspan></text>
  <rect x="0" y="669" width="1200" height="6" fill="url(#gold)"/>
</svg>