<?xml version="1.0" encoding="UTF-8"?>
<svg xmlns="http://www.w3.org/2000/svg" viewBox="0 0 1200 675" width="1200" height="675" role="img" aria-label="Cta4">
  <defs>
    <linearGradient id="bg" x1="0%" y1="0%" x2="100%" y2="100%">
      <stop offset="0%" stop-color="#12100e"/>
      <stop offset="100%" stop-color="#1c1917"/>
    </linearGradient>
    <linearGradient id="gold" x1="0%" y1="0%" x2="100%" y2="100%">
      <stop offset="0%" stop-color="#bd6b20"/>
      <stop offset="100%" stop-color="#e09440"/>
    </linearGradient>
    <radialGradient id="glow" cx="50%" cy="50%" r="50%">
      <stop offset="0%" stop-color="#bd6b20" stop-opacity="0.45"/>
      <stop offset="100%" stop-color="#bd6b20" stop-opacity="0"/>
    </radialGradient>
  </defs>
  <rect width="1200" height="675" fill="url(#bg)"/>
  <rect x="-716.6" y="-80" width="129.4" height="875" transform="rotate(18 -716.6 337.5)" fill="#bd6b20" opacity="0.08"/><rect x="-476.1" y="-80" width="94.5" height="875" transform="rotate(18 -476.1 337.5)" fill="#bd6b20" opacity="0.08"/><rect x="-359.0" y="-80" width="134.2" height="875" transform="rotate(18 -359.0 337.5)" fill="#bd6b20" opacity="0.05"/><rect x="-121.3" y="-80" width="116.1" height="875" transform="rotate(18 -121.3 337.5)" fill="#bd6b20" opacity="0.10"/><rect x="47.3" y="-80" width="89.6" height="875" transform="rotate(18 47.3 337.5)" fill="#bd6b20" opacity="0.16"/><rect x="189.3" y="-80" width="114.3" height="875" transform="rotate(18 189.3 337.5)" fill="#bd6b20" opacity="0.14"/><rect x="374.3" y="-80" width="119.3" height="875" transform="rotate(18 374.3 337.5)" fill="#bd6b20" opacity="0.07"/><rect x="590.4" y="-80" width="72.8" height="875" transform="rotate(18 590.4 337.5)" fill="#bd6b20" opacity="0.14"/><rect x="747.9" y="-80" width="102.5" height="875" transform="rotate(18 747.9 337.5)" fill="#bd6b20" opacity="0.06"/><rect x="900.1" y="-80" width="139.9" height="875" transform="rotate(18 900.1 337.5)" fill="#bd6b20" opacity="0.18"/><rect x="1110.0" y="-80" width="80.5" height="875" transform="rotate(18 1110.0 337.5)" fill="#bd6b20" opacity="0.08"/><rect x="1290.2" y="-80" width="102.4" height="875" transform="rotate(18 1290.2 337.5)" fill="#bd6b20" opacity="0.16"/><rect x="1446.8" y="-80" width="116.7" height="875" transform="rotate(18 1446.8 337.5)" fill="#bd6b20" opacity="0.12"/><rect x="1653.1" y="-80" width="76.2" height="875" transform="rotate(18 1653.1 337.5)" fill="#bd6b20" opacity="0.15"/><rect x="0" y="0" width="1200" height="675" fill="url(#glow)" opacity="0.6"/>
  <g opacity="0.85" transform="translate(1020, 495)">
        <polygon points="0,-50 43,25 -43,25" fill="none" stroke="#bd6b20" stroke-width="2"/>
        <polygon points="0,-30 26,15 -26,15" fill="#e09440" opacity="0.4"/>
      </g>
  <g transform="translate(80, 90)">
    <rect x="0" y="0" rx="20" ry="20" width="145" height="38" fill="#bd6b20" opacity="0.18" stroke="#bd6b20" stroke-width="1.5"/>
    <text x="72.5" y="25" font-family="ui-sans-serif, Inter, sans-serif" font-weight="700" font-size="14" letter-spacing="2.5" fill="#bd6b20" text-anchor="middle">INFORMATION</text>
  </g>
  <text x="80" y="565" font-family="ui-sans-serif, -apple-system, Segoe UI, Inter, sans-serif" font-weight="800" font-size="44" fill="#faf8f5" opacity="0.98"><tspan x="80" dy="0">Cta4</tspan></text>
  <rect x="0" y="669" width="1200" height="6" fill="url(#gold)"/>
</svg>