<?xml version="1.0" encoding="UTF-8"?>
<svg xmlns="http://www.w3.org/2000/svg" viewBox="0 0 1200 675" width="1200" height="675" role="img" aria-label="Cta5">
  <defs>
    <linearGradient id="bg" x1="0%" y1="0%" x2="100%" y2="100%">
      <stop offset="0%" stop-color="#faf8f5"/>
      <stop offset="100%" stop-color="#f4efe8"/>
    </linearGradient>
    <linearGradient id="gold" x1="0%" y1="0%" x2="100%" y2="100%">
      <stop offset="0%" stop-color="#bd6b20"/>
      <stop offset="100%" stop-color="#9a5518"/>
    </linearGradient>
    <radialGradient id="glow" cx="50%" cy="50%" r="50%">
      <stop offset="0%" stop-color="#bd6b20" stop-opacity="0.45"/>
      <stop offset="100%" stop-color="#bd6b20" stop-opacity="0"/>
    </radialGradient>
  </defs>
  <rect width="1200" height="675" fill="url(#bg)"/>
  <polygon points="169.1,388.0 220.9,450.0 141.3,463.9" fill="#9a5518" opacity="0.17"/><polygon points="254.8,119.0 186.2,4.0 301.2,-64.6 369.8,50.3" fill="#9a5518" opacity="0.08"/><polygon points="262.7,-120.5 386.4,3.5 262.3,127.2 138.6,3.2" fill="#9a5518" opacity="0.11"/><polygon points="1120.7,348.0 1196.9,267.2 1277.7,343.3 1201.6,424.2" fill="#9a5518" opacity="0.15"/><polygon points="1137.9,408.7 1014.2,293.8 1129.1,170.1 1252.8,285.0" fill="#9a5518" opacity="0.12"/><polygon points="576.1,262.3 748.0,353.7 714.3,545.5 521.5,572.6 436.0,397.6" fill="#9a5518" opacity="0.06"/><polygon points="549.6,271.4 672.8,408.4 492.6,446.6" fill="#9a5518" opacity="0.15"/><polygon points="940.8,747.7 902.2,526.6 1123.4,488.0 1162.0,709.1" fill="#9a5518" opacity="0.18"/><polygon points="176.5,-37.1 208.5,139.2 32.2,171.2 0.2,-5.2" fill="#9a5518" opacity="0.12"/><polygon points="491.7,564.7 708.5,555.1 718.1,771.8 501.3,781.5" fill="#9a5518" opacity="0.06"/><polygon points="615.5,517.0 619.1,610.3 525.8,613.9 522.1,520.6" fill="#9a5518" opacity="0.05"/><polygon points="763.2,79.6 876.8,23.3 933.1,136.9 819.5,193.2" fill="#9a5518" opacity="0.10"/><polygon points="158.9,166.9 213.6,348.9 57.5,457.2 -93.7,342.2 -31.1,162.8" fill="#9a5518" opacity="0.05"/><polygon points="74.6,660.3 23.1,527.0 164.3,549.0" fill="#9a5518" opacity="0.13"/><circle cx="936.0" cy="202.5" r="180" fill="url(#glow)"/>
  <g opacity="0.85" transform="translate(1020, 495)">
        <polygon points="0,-50 43,25 -43,25" fill="none" stroke="#bd6b20" stroke-width="2"/>
        <polygon points="0,-30 26,15 -26,15" fill="#9a5518" opacity="0.4"/>
      </g>
  <g transform="translate(80, 90)">
    <rect x="0" y="0" rx="20" ry="20" width="145" height="38" fill="#bd6b20" opacity="0.18" stroke="#bd6b20" stroke-width="1.5"/>
    <text x="72.5" y="25" font-family="ui-sans-serif, Inter, sans-serif" font-weight="700" font-size="14" letter-spacing="2.5" fill="#bd6b20" text-anchor="middle">INFORMATION</text>
  </g>
  <text x="80" y="565" font-family="ui-sans-serif, -apple-system, Segoe UI, Inter, sans-serif" font-weight="800" font-size="44" fill="#12100e" opacity="0.98"><tspan x="80" dy="0">Cta5</tspan></text>
  <rect x="0" y="669" width="1200" height="6" fill="url(#gold)"/>
</svg>