<?xml version="1.0" encoding="UTF-8"?>
<svg xmlns="http://www.w3.org/2000/svg" viewBox="0 0 1200 675" width="1200" height="675" role="img" aria-label="Furnishing Private Limited, dispute resolution, non-payment issue, curtain fabrics, settlement agreement, ADR, PDR COURT, financial difficulties, payment terms, conciliation, e-arbitration">
  <defs>
    <linearGradient id="bg" x1="0%" y1="0%" x2="100%" y2="100%">
      <stop offset="0%" stop-color="#643516"/>
      <stop offset="100%" stop-color="#7d4315"/>
    </linearGradient>
    <linearGradient id="gold" x1="0%" y1="0%" x2="100%" y2="100%">
      <stop offset="0%" stop-color="#ecb478"/>
      <stop offset="100%" stop-color="#faebd6"/>
    </linearGradient>
    <radialGradient id="glow" cx="50%" cy="50%" r="50%">
      <stop offset="0%" stop-color="#ecb478" stop-opacity="0.45"/>
      <stop offset="100%" stop-color="#ecb478" stop-opacity="0"/>
    </radialGradient>
  </defs>
  <rect width="1200" height="675" fill="url(#bg)"/>
  <circle cx="30.2" cy="28.5" r="3.20" fill="#ecb478" opacity="0.21"/><circle cx="63.4" cy="29.5" r="1.68" fill="#ecb478" opacity="0.30"/><circle cx="104.8" cy="30.3" r="3.44" fill="#ecb478" opacity="0.27"/><circle cx="139.7" cy="32.1" r="2.41" fill="#ecb478" opacity="0.36"/><circle cx="175.8" cy="27.3" r="2.81" fill="#ecb478" opacity="0.34"/><circle cx="210.5" cy="29.3" r="1.61" fill="#ecb478" opacity="0.34"/><circle cx="248.8" cy="28.6" r="3.32" fill="#ecb478" opacity="0.16"/><circle cx="284.0" cy="30.0" r="3.99" fill="#ecb478" opacity="0.31"/><circle cx="315.8" cy="28.7" r="2.76" fill="#ecb478" opacity="0.19"/><circle cx="351.1" cy="29.0" r="3.22" fill="#ecb478" opacity="0.36"/><circle cx="388.8" cy="32.1" r="1.96" fill="#ecb478" opacity="0.28"/><circle cx="426.2" cy="31.9" r="2.79" fill="#ecb478" opacity="0.16"/><circle cx="462.7" cy="27.5" r="2.00" fill="#ecb478" opacity="0.35"/><circle cx="496.6" cy="27.9" r="3.08" fill="#ecb478" opacity="0.24"/><circle cx="532.7" cy="31.9" r="3.13" fill="#ecb478" opacity="0.32"/><circle cx="568.7" cy="27.5" r="1.68" fill="#ecb478" opacity="0.33"/><circle cx="603.0" cy="27.1" r="1.92" fill="#ecb478" opacity="0.26"/><circle cx="644.6" cy="28.0" r="2.22" fill="#ecb478" opacity="0.21"/><circle cx="677.9" cy="29.4" r="3.56" fill="#ecb478" opacity="0.25"/><circle cx="715.8" cy="28.4" r="2.48" fill="#ecb478" opacity="0.32"/><circle cx="752.0" cy="27.7" r="2.77" fill="#ecb478" opacity="0.24"/><circle cx="785.2" cy="32.7" r="3.86" fill="#ecb478" opacity="0.16"/><circle cx="824.0" cy="27.6" r="3.98" fill="#ecb478" opacity="0.20"/><circle cx="857.8" cy="29.9" r="2.06" fill="#ecb478" opacity="0.17"/><circle cx="892.4" cy="31.6" r="3.71" fill="#ecb478" opacity="0.31"/><circle cx="928.5" cy="30.2" r="2.35" fill="#ecb478" opacity="0.18"/><circle cx="964.4" cy="28.0" r="1.83" fill="#ecb478" opacity="0.26"/><circle cx="1004.9" cy="30.7" r="3.80" fill="#ecb478" opacity="0.36"/><circle cx="1036.5" cy="28.2" r="3.32" fill="#ecb478" opacity="0.23"/><circle cx="1074.6" cy="31.3" r="2.34" fill="#ecb478" opacity="0.33"/><circle cx="1111.3" cy="29.2" r="3.00" fill="#ecb478" opacity="0.26"/><circle cx="1147.3" cy="29.0" r="3.29" fill="#ecb478" opacity="0.17"/><circle cx="1182.1" cy="32.3" r="3.21" fill="#ecb478" opacity="0.21"/><circle cx="30.0" cy="67.1" r="3.40" fill="#ecb478" opacity="0.17"/><circle cx="66.5" cy="67.5" r="2.60" fill="#ecb478" opacity="0.23"/><circle cx="99.9" cy="65.5" r="2.28" fill="#ecb478" opacity="0.24"/><circle cx="135.2" cy="67.9" r="2.50" fill="#ecb478" opacity="0.28"/><circle cx="174.1" cy="64.5" r="3.97" fill="#ecb478" opacity="0.29"/><circle cx="212.9" cy="66.4" r="3.21" fill="#ecb478" opacity="0.16"/><circle cx="243.5" cy="64.1" r="2.88" fill="#ecb478" opacity="0.20"/><circle cx="284.2" cy="65.6" r="2.04" fill="#ecb478" opacity="0.36"/><circle cx="315.5" cy="65.2" r="3.78" fill="#ecb478" opacity="0.24"/><circle cx="355.6" cy="66.9" r="3.03" fill="#ecb478" opacity="0.20"/><circle cx="389.9" cy="68.6" r="3.32" fill="#ecb478" opacity="0.34"/><circle cx="427.7" cy="67.9" r="3.95" fill="#ecb478" opacity="0.23"/><circle cx="461.5" cy="63.7" r="3.53" fill="#ecb478" opacity="0.31"/><circle cx="496.0" cy="68.9" r="2.53" fill="#ecb478" opacity="0.27"/><circle cx="531.2" cy="66.0" r="3.20" fill="#ecb478" opacity="0.22"/><circle cx="572.0" cy="67.3" r="3.10" fill="#ecb478" opacity="0.23"/><circle cx="606.9" cy="63.0" r="2.66" fill="#ecb478" opacity="0.26"/><circle cx="644.4" cy="67.7" r="2.84" fill="#ecb478" opacity="0.24"/><circle cx="678.1" cy="64.6" r="3.67" fill="#ecb478" opacity="0.23"/><circle cx="712.1" cy="66.9" r="3.93" fill="#ecb478" opacity="0.29"/><circle cx="749.0" cy="68.5" r="3.97" fill="#ecb478" opacity="0.23"/><circle cx="783.7" cy="63.7" r="2.28" fill="#ecb478" opacity="0.16"/><circle cx="824.8" cy="68.6" r="2.29" fill="#ecb478" opacity="0.35"/><circle cx="857.9" cy="65.8" r="3.51" fill="#ecb478" opacity="0.17"/><circle cx="894.6" cy="66.2" r="3.86" fill="#ecb478" opacity="0.23"/><circle cx="929.4" cy="66.7" r="2.27" fill="#ecb478" opacity="0.16"/><circle cx="964.5" cy="65.4" r="3.59" fill="#ecb478" opacity="0.21"/><circle cx="1001.6" cy="67.1" r="2.86" fill="#ecb478" opacity="0.30"/><circle cx="1039.1" cy="63.5" r="3.39" fill="#ecb478" opacity="0.31"/><circle cx="1073.9" cy="65.1" r="3.19" fill="#ecb478" opacity="0.30"/><circle cx="1109.4" cy="63.2" r="2.19" fill="#ecb478" opacity="0.28"/><circle cx="1147.1" cy="68.1" r="2.21" fill="#ecb478" opacity="0.31"/><circle cx="1182.4" cy="68.7" r="3.67" fill="#ecb478" opacity="0.29"/><circle cx="28.3" cy="99.3" r="2.05" fill="#ecb478" opacity="0.20"/><circle cx="68.8" cy="103.1" r="2.13" fill="#ecb478" opacity="0.24"/><circle cx="103.2" cy="102.3" r="2.16" fill="#ecb478" opacity="0.31"/><circle cx="136.1" cy="102.2" r="1.73" fill="#ecb478" opacity="0.35"/><circle cx="174.6" cy="103.1" r="1.83" fill="#ecb478" opacity="0.32"/><circle cx="211.7" cy="102.3" r="4.00" fill="#ecb478" opacity="0.19"/><circle cx="243.4" cy="102.0" r="2.26" fill="#ecb478" opacity="0.32"/><circle cx="283.0" cy="103.3" r="2.07" fill="#ecb478" opacity="0.18"/><circle cx="320.7" cy="104.2" r="2.62" fill="#ecb478" opacity="0.18"/><circle cx="352.0" cy="100.8" r="3.03" fill="#ecb478" opacity="0.17"/><circle cx="389.0" cy="100.0" r="1.61" fill="#ecb478" opacity="0.20"/><circle cx="424.0" cy="104.0" r="3.41" fill="#ecb478" opacity="0.26"/><circle cx="461.2" cy="102.3" r="3.80" fill="#ecb478" opacity="0.24"/><circle cx="500.0" cy="104.3" r="2.17" fill="#ecb478" opacity="0.20"/><circle cx="535.5" cy="105.0" r="1.68" fill="#ecb478" opacity="0.18"/><circle cx="571.5" cy="102.0" r="3.52" fill="#ecb478" opacity="0.30"/><circle cx="605.2" cy="99.1" r="2.67" fill="#ecb478" opacity="0.22"/><circle cx="642.6" cy="99.1" r="1.63" fill="#ecb478" opacity="0.31"/><circle cx="679.8" cy="102.5" r="2.55" fill="#ecb478" opacity="0.19"/><circle cx="713.3" cy="103.5" r="1.78" fill="#ecb478" opacity="0.21"/><circle cx="749.5" cy="101.3" r="2.95" fill="#ecb478" opacity="0.30"/><circle cx="784.0" cy="105.0" r="3.29" fill="#ecb478" opacity="0.30"/><circle cx="819.6" cy="104.5" r="3.50" fill="#ecb478" opacity="0.30"/><circle cx="857.8" cy="101.9" r="2.03" fill="#ecb478" opacity="0.17"/><circle cx="891.9" cy="102.5" r="3.88" fill="#ecb478" opacity="0.24"/><circle cx="927.3" cy="99.9" r="1.91" fill="#ecb478" opacity="0.34"/><circle cx="966.1" cy="105.0" r="2.61" fill="#ecb478" opacity="0.32"/><circle cx="1004.9" cy="100.6" r="3.93" fill="#ecb478" opacity="0.28"/><circle cx="1040.3" cy="104.3" r="2.08" fill="#ecb478" opacity="0.26"/><circle cx="1075.7" cy="99.0" r="3.69" fill="#ecb478" opacity="0.36"/><circle cx="1111.2" cy="99.4" r="1.66" fill="#ecb478" opacity="0.16"/><circle cx="1145.5" cy="102.7" r="2.24" fill="#ecb478" opacity="0.16"/><circle cx="1181.9" cy="101.9" r="1.87" fill="#ecb478" opacity="0.28"/><circle cx="30.1" cy="140.8" r="1.89" fill="#ecb478" opacity="0.16"/><circle cx="68.3" cy="139.5" r="3.27" fill="#ecb478" opacity="0.15"/><circle cx="100.8" cy="139.8" r="2.03" fill="#ecb478" opacity="0.21"/><circle cx="137.8" cy="140.9" r="3.32" fill="#ecb478" opacity="0.36"/><circle cx="176.8" cy="138.9" r="2.07" fill="#ecb478" opacity="0.23"/><circle cx="210.7" cy="140.9" r="3.81" fill="#ecb478" opacity="0.31"/><circle cx="244.0" cy="139.5" r="3.66" fill="#ecb478" opacity="0.18"/><circle cx="284.9" cy="139.0" r="1.86" fill="#ecb478" opacity="0.27"/><circle cx="317.9" cy="138.5" r="2.65" fill="#ecb478" opacity="0.30"/><circle cx="356.3" cy="135.9" r="3.34" fill="#ecb478" opacity="0.24"/><circle cx="391.0" cy="136.9" r="3.63" fill="#ecb478" opacity="0.35"/><circle cx="423.9" cy="140.6" r="1.87" fill="#ecb478" opacity="0.20"/><circle cx="463.0" cy="135.4" r="2.55" fill="#ecb478" opacity="0.15"/><circle cx="496.2" cy="137.2" r="2.81" fill="#ecb478" opacity="0.23"/><circle cx="536.2" cy="135.2" r="3.39" fill="#ecb478" opacity="0.30"/><circle cx="569.0" cy="139.3" r="1.67" fill="#ecb478" opacity="0.24"/><circle cx="605.2" cy="138.6" r="1.74" fill="#ecb478" opacity="0.32"/><circle cx="642.3" cy="136.2" r="1.90" fill="#ecb478" opacity="0.30"/><circle cx="678.3" cy="140.1" r="1.63" fill="#ecb478" opacity="0.22"/><circle cx="715.3" cy="141.0" r="2.42" fill="#ecb478" opacity="0.29"/><circle cx="747.2" cy="135.8" r="2.35" fill="#ecb478" opacity="0.35"/><circle cx="785.3" cy="138.4" r="1.91" fill="#ecb478" opacity="0.30"/><circle cx="821.1" cy="138.3" r="2.86" fill="#ecb478" opacity="0.34"/><circle cx="859.4" cy="135.0" r="3.41" fill="#ecb478" opacity="0.18"/><circle cx="892.1" cy="137.6" r="3.29" fill="#ecb478" opacity="0.21"/><circle cx="932.6" cy="137.1" r="1.76" fill="#ecb478" opacity="0.20"/><circle cx="968.9" cy="135.7" r="2.86" fill="#ecb478" opacity="0.18"/><circle cx="1002.2" cy="135.8" r="1.79" fill="#ecb478" opacity="0.23"/><circle cx="1036.5" cy="139.9" r="1.92" fill="#ecb478" opacity="0.26"/><circle cx="1073.2" cy="136.8" r="2.28" fill="#ecb478" opacity="0.26"/><circle cx="1111.1" cy="135.7" r="3.67" fill="#ecb478" opacity="0.35"/><circle cx="1143.8" cy="136.8" r="3.95" fill="#ecb478" opacity="0.17"/><circle cx="1181.0" cy="140.3" r="3.16" fill="#ecb478" opacity="0.29"/><circle cx="28.9" cy="172.1" r="3.67" fill="#ecb478" opacity="0.25"/><circle cx="67.4" cy="173.5" r="3.15" fill="#ecb478" opacity="0.32"/><circle cx="100.3" cy="172.9" r="1.84" fill="#ecb478" opacity="0.24"/><circle cx="139.4" cy="176.1" r="2.59" fill="#ecb478" opacity="0.19"/><circle cx="171.3" cy="176.2" r="3.16" fill="#ecb478" opacity="0.16"/><circle cx="208.0" cy="175.4" r="2.65" fill="#ecb478" opacity="0.35"/><circle cx="244.8" cy="175.9" r="3.69" fill="#ecb478" opacity="0.21"/><circle cx="284.6" cy="171.3" r="2.60" fill="#ecb478" opacity="0.35"/><circle cx="320.9" cy="172.4" r="2.81" fill="#ecb478" opacity="0.16"/><circle cx="356.9" cy="173.2" r="3.65" fill="#ecb478" opacity="0.35"/><circle cx="388.2" cy="175.1" r="1.68" fill="#ecb478" opacity="0.27"/><circle cx="428.2" cy="176.5" r="1.93" fill="#ecb478" opacity="0.19"/><circle cx="461.2" cy="175.0" r="2.48" fill="#ecb478" opacity="0.31"/><circle cx="499.5" cy="173.6" r="1.82" fill="#ecb478" opacity="0.22"/><circle cx="533.3" cy="171.6" r="2.26" fill="#ecb478" opacity="0.19"/><circle cx="567.7" cy="173.5" r="2.21" fill="#ecb478" opacity="0.23"/><circle cx="608.1" cy="171.8" r="1.98" fill="#ecb478" opacity="0.22"/><circle cx="642.5" cy="174.3" r="2.16" fill="#ecb478" opacity="0.16"/><circle cx="678.0" cy="172.5" r="2.10" fill="#ecb478" opacity="0.20"/><circle cx="716.0" cy="171.7" r="3.92" fill="#ecb478" opacity="0.30"/><circle cx="747.7" cy="174.6" r="2.25" fill="#ecb478" opacity="0.22"/><circle cx="783.8" cy="173.0" r="2.87" fill="#ecb478" opacity="0.31"/><circle cx="821.2" cy="171.5" r="2.68" fill="#ecb478" opacity="0.21"/><circle cx="858.0" cy="175.0" r="3.97" fill="#ecb478" opacity="0.32"/><circle cx="893.1" cy="172.8" r="2.27" fill="#ecb478" opacity="0.22"/><circle cx="932.0" cy="176.1" r="3.77" fill="#ecb478" opacity="0.34"/><circle cx="966.6" cy="172.0" r="3.16" fill="#ecb478" opacity="0.19"/><circle cx="1001.7" cy="173.4" r="2.51" fill="#ecb478" opacity="0.35"/><circle cx="1038.2" cy="173.4" r="2.55" fill="#ecb478" opacity="0.26"/><circle cx="1076.7" cy="172.5" r="2.46" fill="#ecb478" opacity="0.27"/><circle cx="1110.3" cy="173.2" r="2.94" fill="#ecb478" opacity="0.16"/><circle cx="1144.6" cy="175.5" r="2.96" fill="#ecb478" opacity="0.35"/><circle cx="1183.8" cy="174.1" r="3.12" fill="#ecb478" opacity="0.32"/><circle cx="28.1" cy="213.0" r="2.76" fill="#ecb478" opacity="0.19"/><circle cx="63.1" cy="212.3" r="3.56" fill="#ecb478" opacity="0.34"/><circle cx="102.2" cy="209.1" r="2.65" fill="#ecb478" opacity="0.32"/><circle cx="139.1" cy="207.2" r="2.11" fill="#ecb478" opacity="0.33"/><circle cx="173.5" cy="210.7" r="1.86" fill="#ecb478" opacity="0.19"/><circle cx="208.2" cy="212.3" r="1.99" fill="#ecb478" opacity="0.35"/><circle cx="247.9" cy="209.1" r="4.00" fill="#ecb478" opacity="0.17"/><circle cx="283.2" cy="212.1" r="3.12" fill="#ecb478" opacity="0.32"/><circle cx="315.8" cy="212.0" r="1.92" fill="#ecb478" opacity="0.24"/><circle cx="356.7" cy="207.0" r="2.91" fill="#ecb478" opacity="0.33"/><circle cx="389.6" cy="212.5" r="3.84" fill="#ecb478" opacity="0.32"/><circle cx="426.9" cy="211.5" r="1.99" fill="#ecb478" opacity="0.24"/><circle cx="462.7" cy="209.0" r="2.01" fill="#ecb478" opacity="0.26"/><circle cx="497.5" cy="212.7" r="3.62" fill="#ecb478" opacity="0.23"/><circle cx="534.2" cy="208.6" r="3.52" fill="#ecb478" opacity="0.15"/><circle cx="570.8" cy="209.2" r="3.87" fill="#ecb478" opacity="0.21"/><circle cx="606.1" cy="211.7" r="1.94" fill="#ecb478" opacity="0.17"/><circle cx="642.9" cy="210.9" r="2.25" fill="#ecb478" opacity="0.32"/><circle cx="679.7" cy="210.9" r="3.82" fill="#ecb478" opacity="0.23"/><circle cx="712.6" cy="212.7" r="2.28" fill="#ecb478" opacity="0.30"/><circle cx="747.9" cy="210.6" r="3.07" fill="#ecb478" opacity="0.33"/><circle cx="783.0" cy="209.0" r="2.42" fill="#ecb478" opacity="0.17"/><circle cx="822.9" cy="208.7" r="1.98" fill="#ecb478" opacity="0.27"/><circle cx="859.1" cy="210.5" r="2.77" fill="#ecb478" opacity="0.30"/><circle cx="893.8" cy="211.2" r="3.62" fill="#ecb478" opacity="0.30"/><circle cx="931.8" cy="208.7" r="3.32" fill="#ecb478" opacity="0.32"/><circle cx="965.8" cy="209.3" r="3.08" fill="#ecb478" opacity="0.30"/><circle cx="999.9" cy="210.1" r="2.82" fill="#ecb478" opacity="0.27"/><circle cx="1039.7" cy="210.9" r="3.77" fill="#ecb478" opacity="0.22"/><circle cx="1073.1" cy="210.4" r="1.75" fill="#ecb478" opacity="0.25"/><circle cx="1112.7" cy="207.7" r="2.29" fill="#ecb478" opacity="0.30"/><circle cx="1146.4" cy="210.5" r="3.42" fill="#ecb478" opacity="0.19"/><circle cx="1183.4" cy="212.1" r="2.07" fill="#ecb478" opacity="0.33"/><circle cx="31.8" cy="243.2" r="3.43" fill="#ecb478" opacity="0.27"/><circle cx="65.1" cy="245.9" r="3.76" fill="#ecb478" opacity="0.19"/><circle cx="100.3" cy="244.4" r="3.53" fill="#ecb478" opacity="0.21"/><circle cx="139.5" cy="248.5" r="1.91" fill="#ecb478" opacity="0.23"/><circle cx="173.9" cy="244.3" r="2.73" fill="#ecb478" opacity="0.35"/><circle cx="209.9" cy="243.7" r="2.07" fill="#ecb478" opacity="0.30"/><circle cx="248.8" cy="246.2" r="3.34" fill="#ecb478" opacity="0.25"/><circle cx="284.1" cy="247.0" r="2.47" fill="#ecb478" opacity="0.27"/><circle cx="319.7" cy="248.7" r="2.81" fill="#ecb478" opacity="0.31"/><circle cx="355.5" cy="247.6" r="1.91" fill="#ecb478" opacity="0.36"/><circle cx="392.0" cy="248.3" r="1.90" fill="#ecb478" opacity="0.32"/><circle cx="427.0" cy="244.7" r="2.05" fill="#ecb478" opacity="0.26"/><circle cx="460.4" cy="244.8" r="3.13" fill="#ecb478" opacity="0.25"/><circle cx="496.1" cy="244.9" r="2.23" fill="#ecb478" opacity="0.24"/><circle cx="531.2" cy="245.8" r="3.99" fill="#ecb478" opacity="0.23"/><circle cx="571.9" cy="248.5" r="2.65" fill="#ecb478" opacity="0.20"/><circle cx="605.4" cy="246.2" r="3.99" fill="#ecb478" opacity="0.28"/><circle cx="639.8" cy="248.9" r="2.88" fill="#ecb478" opacity="0.35"/><circle cx="678.3" cy="246.6" r="3.28" fill="#ecb478" opacity="0.16"/><circle cx="712.6" cy="245.8" r="1.70" fill="#ecb478" opacity="0.23"/><circle cx="751.4" cy="247.2" r="2.00" fill="#ecb478" opacity="0.27"/><circle cx="786.2" cy="245.4" r="1.73" fill="#ecb478" opacity="0.29"/><circle cx="824.4" cy="243.1" r="2.55" fill="#ecb478" opacity="0.32"/><circle cx="858.0" cy="244.3" r="3.68" fill="#ecb478" opacity="0.18"/><circle cx="894.1" cy="247.4" r="2.17" fill="#ecb478" opacity="0.26"/><circle cx="927.0" cy="245.9" r="3.94" fill="#ecb478" opacity="0.15"/><circle cx="964.6" cy="243.7" r="2.57" fill="#ecb478" opacity="0.35"/><circle cx="999.0" cy="246.5" r="2.92" fill="#ecb478" opacity="0.25"/><circle cx="1039.9" cy="247.3" r="3.65" fill="#ecb478" opacity="0.34"/><circle cx="1076.6" cy="245.3" r="2.74" fill="#ecb478" opacity="0.23"/><circle cx="1111.9" cy="244.4" r="3.30" fill="#ecb478" opacity="0.26"/><circle cx="1143.0" cy="247.6" r="3.74" fill="#ecb478" opacity="0.16"/><circle cx="1181.8" cy="243.4" r="2.05" fill="#ecb478" opacity="0.21"/><circle cx="31.0" cy="279.4" r="3.02" fill="#ecb478" opacity="0.19"/><circle cx="68.3" cy="283.6" r="3.36" fill="#ecb478" opacity="0.29"/><circle cx="101.2" cy="279.7" r="2.05" fill="#ecb478" opacity="0.16"/><circle cx="136.9" cy="279.2" r="2.78" fill="#ecb478" opacity="0.33"/><circle cx="175.0" cy="284.8" r="2.24" fill="#ecb478" opacity="0.29"/><circle cx="207.9" cy="281.7" r="2.81" fill="#ecb478" opacity="0.20"/><circle cx="246.0" cy="283.5" r="2.52" fill="#ecb478" opacity="0.32"/><circle cx="280.5" cy="282.2" r="3.33" fill="#ecb478" opacity="0.19"/><circle cx="315.7" cy="282.9" r="2.97" fill="#ecb478" opacity="0.15"/><circle cx="352.2" cy="282.2" r="1.88" fill="#ecb478" opacity="0.20"/><circle cx="388.4" cy="284.2" r="2.21" fill="#ecb478" opacity="0.33"/><circle cx="426.9" cy="283.0" r="2.44" fill="#ecb478" opacity="0.19"/><circle cx="459.5" cy="284.1" r="3.22" fill="#ecb478" opacity="0.29"/><circle cx="496.4" cy="281.9" r="3.27" fill="#ecb478" opacity="0.25"/><circle cx="532.4" cy="283.1" r="3.80" fill="#ecb478" opacity="0.26"/><circle cx="568.8" cy="283.0" r="3.50" fill="#ecb478" opacity="0.26"/><circle cx="608.3" cy="283.4" r="4.00" fill="#ecb478" opacity="0.24"/><circle cx="644.9" cy="279.7" r="1.96" fill="#ecb478" opacity="0.30"/><circle cx="678.4" cy="282.1" r="2.51" fill="#ecb478" opacity="0.34"/><circle cx="716.2" cy="281.0" r="3.92" fill="#ecb478" opacity="0.27"/><circle cx="748.0" cy="281.6" r="2.92" fill="#ecb478" opacity="0.23"/><circle cx="787.1" cy="283.2" r="1.99" fill="#ecb478" opacity="0.19"/><circle cx="824.0" cy="284.9" r="3.44" fill="#ecb478" opacity="0.29"/><circle cx="860.2" cy="279.9" r="2.77" fill="#ecb478" opacity="0.31"/><circle cx="895.4" cy="279.4" r="3.80" fill="#ecb478" opacity="0.26"/><circle cx="927.8" cy="280.0" r="3.55" fill="#ecb478" opacity="0.16"/><circle cx="964.3" cy="282.4" r="2.40" fill="#ecb478" opacity="0.17"/><circle cx="1002.6" cy="280.7" r="3.23" fill="#ecb478" opacity="0.19"/><circle cx="1037.7" cy="279.2" r="2.55" fill="#ecb478" opacity="0.23"/><circle cx="1074.7" cy="280.1" r="3.30" fill="#ecb478" opacity="0.26"/><circle cx="1111.5" cy="280.7" r="3.96" fill="#ecb478" opacity="0.28"/><circle cx="1147.1" cy="280.1" r="1.98" fill="#ecb478" opacity="0.31"/><circle cx="1181.4" cy="279.9" r="2.19" fill="#ecb478" opacity="0.34"/><circle cx="32.6" cy="315.3" r="3.24" fill="#ecb478" opacity="0.28"/><circle cx="67.0" cy="317.3" r="2.76" fill="#ecb478" opacity="0.26"/><circle cx="104.4" cy="320.7" r="2.96" fill="#ecb478" opacity="0.26"/><circle cx="135.3" cy="319.9" r="2.19" fill="#ecb478" opacity="0.21"/><circle cx="173.9" cy="316.3" r="3.88" fill="#ecb478" opacity="0.22"/><circle cx="210.9" cy="316.1" r="1.75" fill="#ecb478" opacity="0.16"/><circle cx="243.4" cy="320.3" r="2.72" fill="#ecb478" opacity="0.21"/><circle cx="284.6" cy="320.4" r="1.76" fill="#ecb478" opacity="0.19"/><circle cx="319.6" cy="319.7" r="3.18" fill="#ecb478" opacity="0.26"/><circle cx="353.2" cy="316.8" r="1.68" fill="#ecb478" opacity="0.17"/><circle cx="390.3" cy="320.9" r="3.21" fill="#ecb478" opacity="0.16"/><circle cx="427.0" cy="320.5" r="1.99" fill="#ecb478" opacity="0.30"/><circle cx="459.9" cy="320.1" r="3.76" fill="#ecb478" opacity="0.33"/><circle cx="497.7" cy="318.2" r="3.49" fill="#ecb478" opacity="0.24"/><circle cx="536.6" cy="320.7" r="3.97" fill="#ecb478" opacity="0.16"/><circle cx="570.3" cy="317.2" r="2.25" fill="#ecb478" opacity="0.25"/><circle cx="606.0" cy="321.0" r="2.43" fill="#ecb478" opacity="0.24"/><circle cx="640.1" cy="319.3" r="1.62" fill="#ecb478" opacity="0.26"/><circle cx="675.3" cy="319.3" r="2.11" fill="#ecb478" opacity="0.22"/><circle cx="712.5" cy="315.9" r="3.55" fill="#ecb478" opacity="0.16"/><circle cx="751.0" cy="319.5" r="2.41" fill="#ecb478" opacity="0.27"/><circle cx="786.1" cy="319.6" r="3.18" fill="#ecb478" opacity="0.17"/><circle cx="820.6" cy="320.1" r="2.45" fill="#ecb478" opacity="0.28"/><circle cx="858.2" cy="319.4" r="1.81" fill="#ecb478" opacity="0.34"/><circle cx="894.6" cy="316.0" r="3.08" fill="#ecb478" opacity="0.27"/><circle cx="930.9" cy="320.7" r="3.29" fill="#ecb478" opacity="0.31"/><circle cx="968.8" cy="316.7" r="1.73" fill="#ecb478" opacity="0.27"/><circle cx="1003.8" cy="317.4" r="3.53" fill="#ecb478" opacity="0.31"/><circle cx="1038.4" cy="318.4" r="1.82" fill="#ecb478" opacity="0.19"/><circle cx="1077.0" cy="316.8" r="2.13" fill="#ecb478" opacity="0.25"/><circle cx="1107.0" cy="320.6" r="3.34" fill="#ecb478" opacity="0.26"/><circle cx="1147.1" cy="317.3" r="3.11" fill="#ecb478" opacity="0.24"/><circle cx="1179.6" cy="318.4" r="3.77" fill="#ecb478" opacity="0.18"/><circle cx="28.1" cy="354.5" r="2.70" fill="#ecb478" opacity="0.16"/><circle cx="65.2" cy="352.5" r="3.77" fill="#ecb478" opacity="0.24"/><circle cx="99.9" cy="353.7" r="2.30" fill="#ecb478" opacity="0.20"/><circle cx="135.7" cy="352.0" r="3.56" fill="#ecb478" opacity="0.23"/><circle cx="175.6" cy="355.1" r="2.81" fill="#ecb478" opacity="0.19"/><circle cx="211.4" cy="355.7" r="3.16" fill="#ecb478" opacity="0.30"/><circle cx="243.7" cy="356.1" r="1.86" fill="#ecb478" opacity="0.25"/><circle cx="283.3" cy="351.9" r="2.16" fill="#ecb478" opacity="0.30"/><circle cx="315.1" cy="351.0" r="1.84" fill="#ecb478" opacity="0.31"/><circle cx="354.9" cy="353.2" r="2.20" fill="#ecb478" opacity="0.30"/><circle cx="390.6" cy="353.3" r="2.36" fill="#ecb478" opacity="0.21"/><circle cx="423.1" cy="356.8" r="2.73" fill="#ecb478" opacity="0.35"/><circle cx="461.8" cy="355.8" r="1.67" fill="#ecb478" opacity="0.29"/><circle cx="497.1" cy="354.1" r="3.03" fill="#ecb478" opacity="0.16"/><circle cx="532.8" cy="352.6" r="2.29" fill="#ecb478" opacity="0.29"/><circle cx="571.3" cy="356.3" r="3.24" fill="#ecb478" opacity="0.27"/><circle cx="604.8" cy="355.1" r="1.67" fill="#ecb478" opacity="0.25"/><circle cx="643.0" cy="351.1" r="3.80" fill="#ecb478" opacity="0.34"/><circle cx="675.7" cy="356.7" r="2.54" fill="#ecb478" opacity="0.16"/><circle cx="716.0" cy="355.4" r="3.26" fill="#ecb478" opacity="0.21"/><circle cx="749.4" cy="353.5" r="3.48" fill="#ecb478" opacity="0.32"/><circle cx="783.1" cy="356.0" r="1.77" fill="#ecb478" opacity="0.25"/><circle cx="820.8" cy="352.4" r="2.67" fill="#ecb478" opacity="0.17"/><circle cx="855.1" cy="355.7" r="3.46" fill="#ecb478" opacity="0.36"/><circle cx="893.5" cy="352.3" r="3.52" fill="#ecb478" opacity="0.24"/><circle cx="929.5" cy="351.5" r="2.59" fill="#ecb478" opacity="0.28"/><circle cx="966.6" cy="351.7" r="3.09" fill="#ecb478" opacity="0.31"/><circle cx="999.4" cy="352.4" r="2.90" fill="#ecb478" opacity="0.16"/><circle cx="1035.6" cy="352.7" r="2.00" fill="#ecb478" opacity="0.35"/><circle cx="1072.1" cy="353.1" r="3.03" fill="#ecb478" opacity="0.27"/><circle cx="1112.6" cy="353.2" r="2.81" fill="#ecb478" opacity="0.28"/><circle cx="1143.0" cy="351.8" r="2.13" fill="#ecb478" opacity="0.26"/><circle cx="1182.8" cy="352.4" r="2.54" fill="#ecb478" opacity="0.32"/><circle cx="31.5" cy="387.3" r="4.00" fill="#ecb478" opacity="0.21"/><circle cx="66.7" cy="389.2" r="2.69" fill="#ecb478" opacity="0.26"/><circle cx="99.9" cy="392.2" r="2.76" fill="#ecb478" opacity="0.33"/><circle cx="141.0" cy="389.7" r="1.75" fill="#ecb478" opacity="0.26"/><circle cx="171.4" cy="387.7" r="3.32" fill="#ecb478" opacity="0.24"/><circle cx="207.5" cy="392.9" r="2.70" fill="#ecb478" opacity="0.23"/><circle cx="247.1" cy="387.4" r="3.81" fill="#ecb478" opacity="0.32"/><circle cx="280.1" cy="388.3" r="3.80" fill="#ecb478" opacity="0.34"/><circle cx="318.0" cy="387.8" r="2.62" fill="#ecb478" opacity="0.27"/><circle cx="353.3" cy="387.1" r="3.55" fill="#ecb478" opacity="0.33"/><circle cx="390.2" cy="389.7" r="2.25" fill="#ecb478" opacity="0.25"/><circle cx="428.0" cy="388.9" r="1.64" fill="#ecb478" opacity="0.28"/><circle cx="464.8" cy="387.9" r="1.81" fill="#ecb478" opacity="0.21"/><circle cx="495.6" cy="392.6" r="3.90" fill="#ecb478" opacity="0.28"/><circle cx="533.8" cy="391.1" r="3.35" fill="#ecb478" opacity="0.25"/><circle cx="571.5" cy="391.8" r="1.78" fill="#ecb478" opacity="0.18"/><circle cx="606.7" cy="388.6" r="1.99" fill="#ecb478" opacity="0.35"/><circle cx="644.4" cy="392.9" r="1.65" fill="#ecb478" opacity="0.15"/><circle cx="680.7" cy="391.7" r="2.00" fill="#ecb478" opacity="0.20"/><circle cx="713.5" cy="389.8" r="2.12" fill="#ecb478" opacity="0.16"/><circle cx="749.4" cy="388.1" r="3.74" fill="#ecb478" opacity="0.35"/><circle cx="788.3" cy="389.9" r="3.66" fill="#ecb478" opacity="0.22"/><circle cx="819.9" cy="392.3" r="2.75" fill="#ecb478" opacity="0.33"/><circle cx="857.5" cy="388.2" r="3.48" fill="#ecb478" opacity="0.30"/><circle cx="894.9" cy="387.1" r="2.46" fill="#ecb478" opacity="0.22"/><circle cx="930.2" cy="389.1" r="1.79" fill="#ecb478" opacity="0.15"/><circle cx="964.4" cy="387.1" r="2.35" fill="#ecb478" opacity="0.28"/><circle cx="999.5" cy="387.1" r="3.90" fill="#ecb478" opacity="0.34"/><circle cx="1037.8" cy="388.4" r="2.56" fill="#ecb478" opacity="0.22"/><circle cx="1072.3" cy="392.1" r="3.18" fill="#ecb478" opacity="0.20"/><circle cx="1108.6" cy="391.9" r="2.46" fill="#ecb478" opacity="0.17"/><circle cx="1143.5" cy="391.1" r="2.63" fill="#ecb478" opacity="0.20"/><circle cx="1184.0" cy="390.5" r="2.37" fill="#ecb478" opacity="0.34"/><circle cx="32.5" cy="426.5" r="2.09" fill="#ecb478" opacity="0.24"/><circle cx="63.8" cy="423.8" r="3.03" fill="#ecb478" opacity="0.25"/><circle cx="101.5" cy="428.9" r="2.48" fill="#ecb478" opacity="0.20"/><circle cx="140.4" cy="424.4" r="2.01" fill="#ecb478" opacity="0.26"/><circle cx="174.2" cy="423.9" r="3.84" fill="#ecb478" opacity="0.34"/><circle cx="210.8" cy="423.2" r="3.15" fill="#ecb478" opacity="0.22"/><circle cx="246.4" cy="425.5" r="2.55" fill="#ecb478" opacity="0.27"/><circle cx="282.8" cy="425.9" r="2.46" fill="#ecb478" opacity="0.22"/><circle cx="320.2" cy="427.5" r="1.77" fill="#ecb478" opacity="0.20"/><circle cx="351.6" cy="423.1" r="1.65" fill="#ecb478" opacity="0.32"/><circle cx="390.2" cy="426.7" r="3.52" fill="#ecb478" opacity="0.20"/><circle cx="426.9" cy="426.9" r="2.58" fill="#ecb478" opacity="0.24"/><circle cx="462.7" cy="425.0" r="1.88" fill="#ecb478" opacity="0.29"/><circle cx="498.7" cy="426.3" r="2.02" fill="#ecb478" opacity="0.26"/><circle cx="531.8" cy="427.5" r="2.53" fill="#ecb478" opacity="0.21"/><circle cx="569.0" cy="425.4" r="3.34" fill="#ecb478" opacity="0.27"/><circle cx="604.2" cy="427.5" r="1.99" fill="#ecb478" opacity="0.32"/><circle cx="644.1" cy="425.5" r="1.89" fill="#ecb478" opacity="0.30"/><circle cx="679.7" cy="424.0" r="1.93" fill="#ecb478" opacity="0.16"/><circle cx="712.9" cy="423.1" r="3.35" fill="#ecb478" opacity="0.25"/><circle cx="750.7" cy="423.2" r="2.83" fill="#ecb478" opacity="0.26"/><circle cx="788.3" cy="427.0" r="1.74" fill="#ecb478" opacity="0.28"/><circle cx="819.7" cy="425.4" r="2.53" fill="#ecb478" opacity="0.22"/><circle cx="859.4" cy="426.5" r="1.63" fill="#ecb478" opacity="0.22"/><circle cx="893.4" cy="425.1" r="2.32" fill="#ecb478" opacity="0.21"/><circle cx="932.2" cy="427.0" r="3.18" fill="#ecb478" opacity="0.18"/><circle cx="965.2" cy="425.7" r="3.45" fill="#ecb478" opacity="0.19"/><circle cx="1003.3" cy="424.3" r="2.51" fill="#ecb478" opacity="0.15"/><circle cx="1038.1" cy="428.0" r="2.12" fill="#ecb478" opacity="0.27"/><circle cx="1073.3" cy="424.8" r="3.06" fill="#ecb478" opacity="0.22"/><circle cx="1107.6" cy="428.2" r="2.75" fill="#ecb478" opacity="0.23"/><circle cx="1145.8" cy="425.5" r="3.44" fill="#ecb478" opacity="0.36"/><circle cx="1182.1" cy="427.9" r="2.79" fill="#ecb478" opacity="0.24"/><circle cx="27.3" cy="461.9" r="3.25" fill="#ecb478" opacity="0.19"/><circle cx="66.8" cy="463.6" r="3.16" fill="#ecb478" opacity="0.29"/><circle cx="100.8" cy="460.5" r="2.68" fill="#ecb478" opacity="0.27"/><circle cx="138.8" cy="464.5" r="1.61" fill="#ecb478" opacity="0.32"/><circle cx="171.6" cy="462.3" r="2.04" fill="#ecb478" opacity="0.29"/><circle cx="211.4" cy="461.9" r="2.68" fill="#ecb478" opacity="0.35"/><circle cx="246.3" cy="460.0" r="3.27" fill="#ecb478" opacity="0.21"/><circle cx="282.4" cy="464.0" r="1.96" fill="#ecb478" opacity="0.16"/><circle cx="318.5" cy="460.4" r="2.72" fill="#ecb478" opacity="0.28"/><circle cx="354.0" cy="461.2" r="1.66" fill="#ecb478" opacity="0.15"/><circle cx="392.2" cy="459.2" r="1.64" fill="#ecb478" opacity="0.23"/><circle cx="423.4" cy="460.9" r="3.65" fill="#ecb478" opacity="0.33"/><circle cx="461.9" cy="463.8" r="3.23" fill="#ecb478" opacity="0.23"/><circle cx="499.9" cy="462.7" r="1.80" fill="#ecb478" opacity="0.27"/><circle cx="531.9" cy="463.1" r="1.86" fill="#ecb478" opacity="0.19"/><circle cx="571.9" cy="459.4" r="1.89" fill="#ecb478" opacity="0.32"/><circle cx="606.7" cy="459.4" r="1.97" fill="#ecb478" opacity="0.27"/><circle cx="641.3" cy="460.9" r="3.27" fill="#ecb478" opacity="0.20"/><circle cx="676.2" cy="462.0" r="2.06" fill="#ecb478" opacity="0.30"/><circle cx="711.2" cy="464.7" r="1.67" fill="#ecb478" opacity="0.32"/><circle cx="747.9" cy="461.0" r="2.77" fill="#ecb478" opacity="0.31"/><circle cx="784.0" cy="461.8" r="2.55" fill="#ecb478" opacity="0.21"/><circle cx="823.8" cy="463.0" r="2.74" fill="#ecb478" opacity="0.34"/><circle cx="858.4" cy="464.2" r="2.70" fill="#ecb478" opacity="0.26"/><circle cx="891.6" cy="464.5" r="3.49" fill="#ecb478" opacity="0.15"/><circle cx="930.4" cy="465.0" r="2.26" fill="#ecb478" opacity="0.31"/><circle cx="968.5" cy="461.5" r="2.00" fill="#ecb478" opacity="0.20"/><circle cx="1004.1" cy="462.0" r="2.42" fill="#ecb478" opacity="0.30"/><circle cx="1039.3" cy="460.9" r="2.34" fill="#ecb478" opacity="0.34"/><circle cx="1072.0" cy="464.4" r="3.05" fill="#ecb478" opacity="0.36"/><circle cx="1109.5" cy="460.4" r="3.67" fill="#ecb478" opacity="0.34"/><circle cx="1145.1" cy="459.2" r="2.43" fill="#ecb478" opacity="0.30"/><circle cx="1179.6" cy="460.1" r="2.39" fill="#ecb478" opacity="0.29"/><circle cx="30.4" cy="499.1" r="2.97" fill="#ecb478" opacity="0.35"/><circle cx="63.3" cy="495.0" r="3.84" fill="#ecb478" opacity="0.25"/><circle cx="102.5" cy="497.3" r="1.69" fill="#ecb478" opacity="0.22"/><circle cx="140.1" cy="498.5" r="2.03" fill="#ecb478" opacity="0.36"/><circle cx="173.3" cy="496.4" r="3.86" fill="#ecb478" opacity="0.33"/><circle cx="208.6" cy="498.8" r="3.57" fill="#ecb478" opacity="0.22"/><circle cx="243.4" cy="498.1" r="3.74" fill="#ecb478" opacity="0.33"/><circle cx="283.2" cy="500.4" r="3.70" fill="#ecb478" opacity="0.36"/><circle cx="315.4" cy="499.6" r="2.05" fill="#ecb478" opacity="0.34"/><circle cx="351.4" cy="497.2" r="3.39" fill="#ecb478" opacity="0.25"/><circle cx="391.9" cy="498.7" r="3.22" fill="#ecb478" opacity="0.24"/><circle cx="428.5" cy="500.6" r="2.62" fill="#ecb478" opacity="0.32"/><circle cx="460.7" cy="499.4" r="2.55" fill="#ecb478" opacity="0.19"/><circle cx="498.2" cy="496.0" r="3.95" fill="#ecb478" opacity="0.15"/><circle cx="535.2" cy="497.0" r="3.66" fill="#ecb478" opacity="0.20"/><circle cx="571.4" cy="495.5" r="3.74" fill="#ecb478" opacity="0.28"/><circle cx="604.9" cy="499.1" r="3.94" fill="#ecb478" opacity="0.16"/><circle cx="644.2" cy="496.9" r="3.80" fill="#ecb478" opacity="0.18"/><circle cx="675.7" cy="497.5" r="3.99" fill="#ecb478" opacity="0.16"/><circle cx="713.1" cy="499.7" r="3.44" fill="#ecb478" opacity="0.28"/><circle cx="752.2" cy="500.9" r="3.88" fill="#ecb478" opacity="0.22"/><circle cx="787.1" cy="499.6" r="3.32" fill="#ecb478" opacity="0.34"/><circle cx="821.4" cy="495.3" r="3.82" fill="#ecb478" opacity="0.27"/><circle cx="857.3" cy="496.5" r="3.77" fill="#ecb478" opacity="0.18"/><circle cx="893.1" cy="497.1" r="1.80" fill="#ecb478" opacity="0.17"/><circle cx="931.4" cy="500.4" r="3.79" fill="#ecb478" opacity="0.17"/><circle cx="965.0" cy="500.0" r="1.75" fill="#ecb478" opacity="0.22"/><circle cx="1002.5" cy="499.7" r="3.31" fill="#ecb478" opacity="0.19"/><circle cx="1035.1" cy="497.7" r="3.03" fill="#ecb478" opacity="0.19"/><circle cx="1076.5" cy="497.3" r="3.54" fill="#ecb478" opacity="0.18"/><circle cx="1107.2" cy="497.8" r="1.83" fill="#ecb478" opacity="0.29"/><circle cx="1146.3" cy="500.8" r="1.88" fill="#ecb478" opacity="0.17"/><circle cx="1180.8" cy="499.9" r="2.30" fill="#ecb478" opacity="0.24"/><circle cx="32.9" cy="533.3" r="3.53" fill="#ecb478" opacity="0.18"/><circle cx="64.3" cy="536.3" r="2.16" fill="#ecb478" opacity="0.36"/><circle cx="103.5" cy="534.6" r="3.24" fill="#ecb478" opacity="0.27"/><circle cx="139.2" cy="535.0" r="2.93" fill="#ecb478" opacity="0.33"/><circle cx="172.7" cy="533.2" r="2.00" fill="#ecb478" opacity="0.31"/><circle cx="212.5" cy="533.2" r="3.17" fill="#ecb478" opacity="0.23"/><circle cx="246.7" cy="535.8" r="3.74" fill="#ecb478" opacity="0.33"/><circle cx="284.4" cy="534.5" r="1.98" fill="#ecb478" opacity="0.19"/><circle cx="318.6" cy="532.3" r="3.90" fill="#ecb478" opacity="0.29"/><circle cx="354.7" cy="533.7" r="3.33" fill="#ecb478" opacity="0.17"/><circle cx="392.0" cy="534.8" r="3.52" fill="#ecb478" opacity="0.33"/><circle cx="423.5" cy="537.0" r="3.90" fill="#ecb478" opacity="0.24"/><circle cx="461.2" cy="531.7" r="2.95" fill="#ecb478" opacity="0.28"/><circle cx="495.4" cy="533.8" r="3.59" fill="#ecb478" opacity="0.15"/><circle cx="536.6" cy="533.3" r="2.69" fill="#ecb478" opacity="0.29"/><circle cx="569.9" cy="531.3" r="1.89" fill="#ecb478" opacity="0.24"/><circle cx="605.6" cy="534.4" r="2.39" fill="#ecb478" opacity="0.35"/><circle cx="643.2" cy="533.0" r="1.73" fill="#ecb478" opacity="0.16"/><circle cx="678.8" cy="534.8" r="2.23" fill="#ecb478" opacity="0.34"/><circle cx="711.2" cy="535.9" r="2.86" fill="#ecb478" opacity="0.31"/><circle cx="750.1" cy="534.5" r="1.64" fill="#ecb478" opacity="0.30"/><circle cx="787.1" cy="535.4" r="2.30" fill="#ecb478" opacity="0.22"/><circle cx="822.7" cy="535.1" r="3.88" fill="#ecb478" opacity="0.32"/><circle cx="858.3" cy="533.2" r="2.11" fill="#ecb478" opacity="0.25"/><circle cx="894.1" cy="534.6" r="3.19" fill="#ecb478" opacity="0.30"/><circle cx="932.7" cy="532.9" r="2.21" fill="#ecb478" opacity="0.21"/><circle cx="966.4" cy="531.4" r="3.34" fill="#ecb478" opacity="0.28"/><circle cx="1001.7" cy="535.2" r="3.02" fill="#ecb478" opacity="0.22"/><circle cx="1036.1" cy="536.7" r="3.50" fill="#ecb478" opacity="0.18"/><circle cx="1074.4" cy="533.1" r="3.01" fill="#ecb478" opacity="0.35"/><circle cx="1111.7" cy="534.6" r="3.03" fill="#ecb478" opacity="0.35"/><circle cx="1146.0" cy="535.4" r="2.17" fill="#ecb478" opacity="0.19"/><circle cx="1181.8" cy="534.9" r="2.55" fill="#ecb478" opacity="0.18"/><circle cx="32.2" cy="567.4" r="3.07" fill="#ecb478" opacity="0.32"/><circle cx="68.9" cy="570.6" r="3.88" fill="#ecb478" opacity="0.31"/><circle cx="99.8" cy="569.5" r="2.83" fill="#ecb478" opacity="0.21"/><circle cx="135.6" cy="568.3" r="3.15" fill="#ecb478" opacity="0.27"/><circle cx="174.2" cy="567.1" r="3.56" fill="#ecb478" opacity="0.20"/><circle cx="209.4" cy="570.7" r="3.65" fill="#ecb478" opacity="0.20"/><circle cx="244.3" cy="567.3" r="2.75" fill="#ecb478" opacity="0.21"/><circle cx="280.0" cy="570.9" r="1.63" fill="#ecb478" opacity="0.20"/><circle cx="319.0" cy="568.2" r="2.92" fill="#ecb478" opacity="0.27"/><circle cx="352.5" cy="569.8" r="2.16" fill="#ecb478" opacity="0.31"/><circle cx="390.5" cy="568.0" r="2.07" fill="#ecb478" opacity="0.19"/><circle cx="423.5" cy="570.4" r="2.98" fill="#ecb478" opacity="0.27"/><circle cx="463.9" cy="567.9" r="1.93" fill="#ecb478" opacity="0.22"/><circle cx="496.5" cy="571.3" r="3.93" fill="#ecb478" opacity="0.28"/><circle cx="533.4" cy="570.1" r="3.16" fill="#ecb478" opacity="0.22"/><circle cx="570.1" cy="572.9" r="3.72" fill="#ecb478" opacity="0.26"/><circle cx="607.3" cy="568.4" r="2.55" fill="#ecb478" opacity="0.19"/><circle cx="644.6" cy="570.9" r="3.03" fill="#ecb478" opacity="0.20"/><circle cx="678.7" cy="567.4" r="1.63" fill="#ecb478" opacity="0.20"/><circle cx="712.4" cy="567.9" r="2.01" fill="#ecb478" opacity="0.22"/><circle cx="747.1" cy="571.9" r="1.93" fill="#ecb478" opacity="0.17"/><circle cx="783.0" cy="571.8" r="2.03" fill="#ecb478" opacity="0.35"/><circle cx="824.2" cy="572.0" r="1.80" fill="#ecb478" opacity="0.31"/><circle cx="859.1" cy="567.7" r="1.90" fill="#ecb478" opacity="0.28"/><circle cx="892.9" cy="567.2" r="2.58" fill="#ecb478" opacity="0.19"/><circle cx="928.1" cy="569.8" r="2.46" fill="#ecb478" opacity="0.23"/><circle cx="964.7" cy="570.0" r="3.05" fill="#ecb478" opacity="0.15"/><circle cx="1000.2" cy="571.9" r="3.87" fill="#ecb478" opacity="0.31"/><circle cx="1035.2" cy="569.5" r="2.60" fill="#ecb478" opacity="0.28"/><circle cx="1072.7" cy="572.6" r="1.85" fill="#ecb478" opacity="0.35"/><circle cx="1107.4" cy="567.3" r="3.03" fill="#ecb478" opacity="0.29"/><circle cx="1147.0" cy="568.6" r="2.99" fill="#ecb478" opacity="0.24"/><circle cx="1183.6" cy="567.9" r="1.72" fill="#ecb478" opacity="0.31"/><circle cx="29.6" cy="605.8" r="1.71" fill="#ecb478" opacity="0.30"/><circle cx="64.8" cy="608.9" r="3.94" fill="#ecb478" opacity="0.31"/><circle cx="100.8" cy="606.7" r="2.14" fill="#ecb478" opacity="0.22"/><circle cx="138.0" cy="603.1" r="2.03" fill="#ecb478" opacity="0.29"/><circle cx="173.5" cy="607.3" r="2.51" fill="#ecb478" opacity="0.31"/><circle cx="210.1" cy="608.2" r="3.84" fill="#ecb478" opacity="0.21"/><circle cx="247.5" cy="607.7" r="2.63" fill="#ecb478" opacity="0.18"/><circle cx="281.1" cy="605.3" r="2.65" fill="#ecb478" opacity="0.20"/><circle cx="316.2" cy="606.5" r="3.00" fill="#ecb478" opacity="0.30"/><circle cx="356.5" cy="603.0" r="3.75" fill="#ecb478" opacity="0.32"/><circle cx="388.7" cy="608.5" r="3.80" fill="#ecb478" opacity="0.29"/><circle cx="428.5" cy="603.1" r="3.46" fill="#ecb478" opacity="0.25"/><circle cx="460.6" cy="606.6" r="2.10" fill="#ecb478" opacity="0.23"/><circle cx="499.2" cy="605.2" r="3.91" fill="#ecb478" opacity="0.18"/><circle cx="536.7" cy="603.9" r="3.81" fill="#ecb478" opacity="0.22"/><circle cx="568.1" cy="608.0" r="2.77" fill="#ecb478" opacity="0.15"/><circle cx="604.0" cy="604.0" r="3.43" fill="#ecb478" opacity="0.35"/><circle cx="642.2" cy="607.0" r="2.33" fill="#ecb478" opacity="0.20"/><circle cx="678.2" cy="605.0" r="3.68" fill="#ecb478" opacity="0.31"/><circle cx="713.1" cy="603.8" r="3.72" fill="#ecb478" opacity="0.15"/><circle cx="751.6" cy="608.3" r="3.07" fill="#ecb478" opacity="0.31"/><circle cx="785.9" cy="607.4" r="2.03" fill="#ecb478" opacity="0.34"/><circle cx="823.6" cy="604.9" r="3.63" fill="#ecb478" opacity="0.28"/><circle cx="860.1" cy="607.3" r="3.20" fill="#ecb478" opacity="0.22"/><circle cx="896.1" cy="607.1" r="3.76" fill="#ecb478" opacity="0.24"/><circle cx="932.5" cy="606.4" r="1.99" fill="#ecb478" opacity="0.17"/><circle cx="967.5" cy="604.8" r="2.76" fill="#ecb478" opacity="0.28"/><circle cx="1000.0" cy="605.6" r="1.65" fill="#ecb478" opacity="0.30"/><circle cx="1036.2" cy="607.9" r="2.31" fill="#ecb478" opacity="0.21"/><circle cx="1075.5" cy="608.8" r="1.87" fill="#ecb478" opacity="0.20"/><circle cx="1112.8" cy="606.2" r="3.03" fill="#ecb478" opacity="0.15"/><circle cx="1148.0" cy="607.1" r="3.88" fill="#ecb478" opacity="0.20"/><circle cx="1182.4" cy="606.2" r="2.40" fill="#ecb478" opacity="0.27"/><circle cx="30.4" cy="640.8" r="1.74" fill="#ecb478" opacity="0.21"/><circle cx="66.5" cy="640.6" r="2.31" fill="#ecb478" opacity="0.29"/><circle cx="103.6" cy="639.9" r="3.62" fill="#ecb478" opacity="0.27"/><circle cx="135.7" cy="640.1" r="3.87" fill="#ecb478" opacity="0.31"/><circle cx="173.6" cy="640.4" r="2.44" fill="#ecb478" opacity="0.35"/><circle cx="210.6" cy="643.6" r="1.93" fill="#ecb478" opacity="0.30"/><circle cx="245.3" cy="644.4" r="2.70" fill="#ecb478" opacity="0.21"/><circle cx="284.6" cy="644.3" r="2.19" fill="#ecb478" opacity="0.18"/><circle cx="318.3" cy="639.0" r="3.20" fill="#ecb478" opacity="0.36"/><circle cx="355.1" cy="643.4" r="2.54" fill="#ecb478" opacity="0.33"/><circle cx="392.4" cy="641.3" r="3.47" fill="#ecb478" opacity="0.25"/><circle cx="427.1" cy="643.9" r="2.04" fill="#ecb478" opacity="0.33"/><circle cx="464.7" cy="639.4" r="3.76" fill="#ecb478" opacity="0.19"/><circle cx="499.9" cy="640.5" r="2.16" fill="#ecb478" opacity="0.29"/><circle cx="534.7" cy="641.2" r="1.87" fill="#ecb478" opacity="0.35"/><circle cx="568.1" cy="644.1" r="3.96" fill="#ecb478" opacity="0.28"/><circle cx="603.2" cy="642.8" r="2.64" fill="#ecb478" opacity="0.34"/><circle cx="645.0" cy="639.5" r="3.45" fill="#ecb478" opacity="0.20"/><circle cx="677.5" cy="644.9" r="1.73" fill="#ecb478" opacity="0.16"/><circle cx="715.8" cy="644.7" r="1.92" fill="#ecb478" opacity="0.27"/><circle cx="749.8" cy="640.2" r="2.02" fill="#ecb478" opacity="0.21"/><circle cx="784.7" cy="641.3" r="3.93" fill="#ecb478" opacity="0.28"/><circle cx="820.3" cy="640.5" r="3.42" fill="#ecb478" opacity="0.32"/><circle cx="861.0" cy="640.3" r="2.99" fill="#ecb478" opacity="0.26"/><circle cx="896.1" cy="641.3" r="2.99" fill="#ecb478" opacity="0.35"/><circle cx="928.6" cy="639.9" r="1.85" fill="#ecb478" opacity="0.33"/><circle cx="963.1" cy="640.4" r="3.51" fill="#ecb478" opacity="0.36"/><circle cx="1004.7" cy="644.0" r="1.82" fill="#ecb478" opacity="0.31"/><circle cx="1035.6" cy="644.1" r="3.28" fill="#ecb478" opacity="0.32"/><circle cx="1073.4" cy="641.1" r="3.80" fill="#ecb478" opacity="0.32"/><circle cx="1110.6" cy="642.2" r="2.84" fill="#ecb478" opacity="0.34"/><circle cx="1145.8" cy="644.4" r="2.99" fill="#ecb478" opacity="0.33"/><circle cx="1180.2" cy="642.9" r="1.90" fill="#ecb478" opacity="0.18"/><circle cx="217.6" cy="264.6" r="220" fill="url(#glow)" opacity="0.9"/>
  <g opacity="0.85" transform="translate(1020, 495)">
        <circle r="60" fill="#ecb478" opacity="0.18"/>
        <path d="M -34 6 Q -10 -22 14 6 Q 34 24 14 26 L -22 26 Q -38 24 -34 6 Z" fill="none" stroke="#faebd6" stroke-width="3" stroke-linejoin="round"/>
      </g>
  <g transform="translate(80, 90)">
    <rect x="0" y="0" rx="20" ry="20" width="134" height="38" fill="#ecb478" opacity="0.18" stroke="#ecb478" stroke-width="1.5"/>
    <text x="67" y="25" font-family="ui-sans-serif, Inter, sans-serif" font-weight="700" font-size="14" letter-spacing="2.5" fill="#ecb478" text-anchor="middle">CASE STUDY</text>
  </g>
  <text x="80" y="465" font-family="ui-sans-serif, -apple-system, Segoe UI, Inter, sans-serif" font-weight="800" font-size="44" fill="#faf8f5" opacity="0.98"><tspan x="80" dy="0">Furnishing Private</tspan><tspan x="80" dy="56">Limited, dispute</tspan><tspan x="80" dy="56">resolution, non-payment</tspan></text>
  <rect x="0" y="669" width="1200" height="6" fill="url(#gold)"/>
</svg>