<?xml version="1.0" encoding="UTF-8"?>
<svg xmlns="http://www.w3.org/2000/svg" viewBox="0 0 1200 675" width="1200" height="675" role="img" aria-label="Swift Resolution of Commercial Dispute in Kolkata: A PDR COURT Case Study">
  <defs>
    <linearGradient id="bg" x1="0%" y1="0%" x2="100%" y2="100%">
      <stop offset="0%" stop-color="#faf8f5"/>
      <stop offset="100%" stop-color="#f4efe8"/>
    </linearGradient>
    <linearGradient id="gold" x1="0%" y1="0%" x2="100%" y2="100%">
      <stop offset="0%" stop-color="#bd6b20"/>
      <stop offset="100%" stop-color="#9a5518"/>
    </linearGradient>
    <radialGradient id="glow" cx="50%" cy="50%" r="50%">
      <stop offset="0%" stop-color="#bd6b20" stop-opacity="0.45"/>
      <stop offset="100%" stop-color="#bd6b20" stop-opacity="0"/>
    </radialGradient>
  </defs>
  <rect width="1200" height="675" fill="url(#bg)"/>
  <circle cx="840.0" cy="135.0" r="240" fill="url(#glow)" opacity="0.8"/><rect x="12.1" y="82.1" width="20.5" height="20.5" rx="4" transform="rotate(216.3 22.3 92.4)" fill="#bd6b20" opacity="0.27"/><polygon points="442.0,226.8 460.2,263.2 423.9,263.2" fill="#ecb478" opacity="0.25"/><polygon points="410.2,143.4 435.3,193.5 385.1,193.5" fill="#ecb478" opacity="0.18"/><polygon points="183.2,133.9 196.2,160.0 170.1,160.0" fill="#ecb478" opacity="0.32"/><polygon points="100.0,349.2 111.3,371.8 88.7,371.8" fill="#ecb478" opacity="0.11"/><circle cx="225.0" cy="396.7" r="13.9" fill="#9a5518" opacity="0.21"/><circle cx="1024.7" cy="523.2" r="21.6" fill="#9a5518" opacity="0.25"/><polygon points="257.0,41.4 286.6,100.5 227.4,100.5" fill="#ecb478" opacity="0.34"/><rect x="889.4" y="109.2" width="15.7" height="15.7" rx="4" transform="rotate(191.4 897.3 117.1)" fill="#bd6b20" opacity="0.32"/><circle cx="979.8" cy="420.7" r="30.9" fill="#9a5518" opacity="0.14"/><rect x="649.3" y="-4.7" width="35.6" height="35.6" rx="4" transform="rotate(191.7 667.1 13.0)" fill="#bd6b20" opacity="0.31"/><rect x="578.7" y="473.5" width="17.5" height="17.5" rx="4" transform="rotate(306.4 587.4 482.3)" fill="#bd6b20" opacity="0.33"/><rect x="421.4" y="482.5" width="40.3" height="40.3" rx="4" transform="rotate(150.0 441.6 502.6)" fill="#bd6b20" opacity="0.13"/><rect x="1097.7" y="339.9" width="33.0" height="33.0" rx="4" transform="rotate(246.8 1114.2 356.4)" fill="#bd6b20" opacity="0.11"/><rect x="728.5" y="288.8" width="31.4" height="31.4" rx="4" transform="rotate(153.4 744.2 304.5)" fill="#bd6b20" opacity="0.28"/><circle cx="1133.5" cy="392.4" r="17.6" fill="#9a5518" opacity="0.34"/><rect x="270.3" y="331.1" width="57.6" height="57.6" rx="4" transform="rotate(122.2 299.1 359.9)" fill="#bd6b20" opacity="0.23"/><polygon points="846.2,354.9 871.7,406.0 820.6,406.0" fill="#ecb478" opacity="0.13"/><circle cx="1199.0" cy="445.9" r="22.5" fill="#9a5518" opacity="0.29"/><rect x="690.6" y="183.2" width="43.6" height="43.6" rx="4" transform="rotate(103.6 712.3 205.0)" fill="#bd6b20" opacity="0.11"/><circle cx="1100.5" cy="154.2" r="13.4" fill="#9a5518" opacity="0.35"/><rect x="303.4" y="381.3" width="54.6" height="54.6" rx="4" transform="rotate(161.6 330.7 408.6)" fill="#bd6b20" opacity="0.21"/>
  <g opacity="0.85" transform="translate(1020, 495)">
        <circle r="60" fill="#bd6b20" opacity="0.18"/>
        <path d="M -34 6 Q -10 -22 14 6 Q 34 24 14 26 L -22 26 Q -38 24 -34 6 Z" fill="none" stroke="#9a5518" stroke-width="3" stroke-linejoin="round"/>
      </g>
  <g transform="translate(80, 90)">
    <rect x="0" y="0" rx="20" ry="20" width="134" height="38" fill="#bd6b20" opacity="0.18" stroke="#bd6b20" stroke-width="1.5"/>
    <text x="67" y="25" font-family="ui-sans-serif, Inter, sans-serif" font-weight="700" font-size="14" letter-spacing="2.5" fill="#bd6b20" text-anchor="middle">CASE STUDY</text>
  </g>
  <text x="80" y="465" font-family="ui-sans-serif, -apple-system, Segoe UI, Inter, sans-serif" font-weight="800" font-size="44" fill="#12100e" opacity="0.98"><tspan x="80" dy="0">Swift Resolution of</tspan><tspan x="80" dy="56">Commercial Dispute in</tspan><tspan x="80" dy="56">Kolkata: A PDR COURT Case</tspan></text>
  <rect x="0" y="669" width="1200" height="6" fill="url(#gold)"/>
</svg>