<?xml version="1.0" encoding="UTF-8"?>
<svg xmlns="http://www.w3.org/2000/svg" viewBox="0 0 1200 675" width="1200" height="675" role="img" aria-label="Resolving a Dispute Between a Cycle Manufacturer and a Sporting Goods Company: A Case Study in Mediation and Fair Settlement">
  <defs>
    <linearGradient id="bg" x1="0%" y1="0%" x2="100%" y2="100%">
      <stop offset="0%" stop-color="#12100e"/>
      <stop offset="100%" stop-color="#1c1917"/>
    </linearGradient>
    <linearGradient id="gold" x1="0%" y1="0%" x2="100%" y2="100%">
      <stop offset="0%" stop-color="#bd6b20"/>
      <stop offset="100%" stop-color="#e09440"/>
    </linearGradient>
    <radialGradient id="glow" cx="50%" cy="50%" r="50%">
      <stop offset="0%" stop-color="#bd6b20" stop-opacity="0.45"/>
      <stop offset="100%" stop-color="#bd6b20" stop-opacity="0"/>
    </radialGradient>
  </defs>
  <rect width="1200" height="675" fill="url(#bg)"/>
  <polygon points="567.6,415.8 288.2,431.2 414.6,181.5" fill="#e09440" opacity="0.05"/><polygon points="142.7,444.4 32.8,456.8 77.0,355.4" fill="#e09440" opacity="0.16"/><polygon points="1039.8,645.2 829.4,656.0 925.3,468.4" fill="#e09440" opacity="0.12"/><polygon points="796.1,239.2 795.1,363.0 677.1,400.3 605.2,299.6 678.7,200.0" fill="#e09440" opacity="0.16"/><polygon points="566.4,226.6 573.2,295.4 509.9,323.1 464.0,271.5 498.9,211.9" fill="#e09440" opacity="0.06"/><polygon points="417.0,480.1 349.5,284.0 545.5,216.5 613.1,412.5" fill="#e09440" opacity="0.19"/><polygon points="433.6,76.1 598.3,15.5 706.9,153.4 609.2,299.3 440.3,251.5" fill="#e09440" opacity="0.10"/><polygon points="1201.1,375.6 1176.8,568.0 1022.3,450.7" fill="#e09440" opacity="0.18"/><polygon points="868.3,222.6 972.1,248.6 946.0,352.4 842.2,326.3" fill="#e09440" opacity="0.15"/><polygon points="364.8,89.5 284.5,69.3 278.9,-13.4 355.8,-44.1 408.9,19.5" fill="#e09440" opacity="0.17"/><polygon points="630.6,709.5 386.1,771.3 454.9,528.6" fill="#e09440" opacity="0.19"/><polygon points="649.7,614.5 866.2,452.8 898.0,721.1" fill="#e09440" opacity="0.19"/><polygon points="508.9,542.4 380.5,370.2 593.8,345.1" fill="#e09440" opacity="0.12"/><polygon points="652.4,534.8 480.4,540.3 422.0,378.4 557.9,272.8 700.3,369.5" fill="#e09440" opacity="0.08"/><circle cx="936.0" cy="202.5" r="180" fill="url(#glow)"/>
  <g opacity="0.85" transform="translate(1020, 495)">
        <circle r="60" fill="#bd6b20" opacity="0.18"/>
        <path d="M -34 6 Q -10 -22 14 6 Q 34 24 14 26 L -22 26 Q -38 24 -34 6 Z" fill="none" stroke="#e09440" stroke-width="3" stroke-linejoin="round"/>
      </g>
  <g transform="translate(80, 90)">
    <rect x="0" y="0" rx="20" ry="20" width="134" height="38" fill="#bd6b20" opacity="0.18" stroke="#bd6b20" stroke-width="1.5"/>
    <text x="67" y="25" font-family="ui-sans-serif, Inter, sans-serif" font-weight="700" font-size="14" letter-spacing="2.5" fill="#bd6b20" text-anchor="middle">CASE STUDY</text>
  </g>
  <text x="80" y="465" font-family="ui-sans-serif, -apple-system, Segoe UI, Inter, sans-serif" font-weight="800" font-size="44" fill="#faf8f5" opacity="0.98"><tspan x="80" dy="0">Resolving a Dispute</tspan><tspan x="80" dy="56">Between a Cycle</tspan><tspan x="80" dy="56">Manufacturer and a</tspan></text>
  <rect x="0" y="669" width="1200" height="6" fill="url(#gold)"/>
</svg>