<?xml version="1.0" encoding="UTF-8"?>
<svg xmlns="http://www.w3.org/2000/svg" viewBox="0 0 1200 675" width="1200" height="675" role="img" aria-label="Resolving a Family-Related Business Dispute: A Case Study">
  <defs>
    <linearGradient id="bg" x1="0%" y1="0%" x2="100%" y2="100%">
      <stop offset="0%" stop-color="#faf8f5"/>
      <stop offset="100%" stop-color="#f4efe8"/>
    </linearGradient>
    <linearGradient id="gold" x1="0%" y1="0%" x2="100%" y2="100%">
      <stop offset="0%" stop-color="#bd6b20"/>
      <stop offset="100%" stop-color="#9a5518"/>
    </linearGradient>
    <radialGradient id="glow" cx="50%" cy="50%" r="50%">
      <stop offset="0%" stop-color="#bd6b20" stop-opacity="0.45"/>
      <stop offset="100%" stop-color="#bd6b20" stop-opacity="0"/>
    </radialGradient>
  </defs>
  <rect width="1200" height="675" fill="url(#bg)"/>
  <circle cx="30.1" cy="28.3" r="2.55" fill="#bd6b20" opacity="0.22"/><circle cx="68.6" cy="30.5" r="3.83" fill="#bd6b20" opacity="0.36"/><circle cx="101.0" cy="27.7" r="3.37" fill="#bd6b20" opacity="0.18"/><circle cx="139.0" cy="32.1" r="2.90" fill="#bd6b20" opacity="0.22"/><circle cx="173.4" cy="31.1" r="3.03" fill="#bd6b20" opacity="0.30"/><circle cx="212.5" cy="32.3" r="2.51" fill="#bd6b20" opacity="0.31"/><circle cx="247.8" cy="29.5" r="2.85" fill="#bd6b20" opacity="0.34"/><circle cx="281.4" cy="30.8" r="3.13" fill="#bd6b20" opacity="0.18"/><circle cx="316.3" cy="30.8" r="3.77" fill="#bd6b20" opacity="0.16"/><circle cx="356.4" cy="32.6" r="3.37" fill="#bd6b20" opacity="0.17"/><circle cx="388.2" cy="32.9" r="3.24" fill="#bd6b20" opacity="0.18"/><circle cx="427.6" cy="27.2" r="3.12" fill="#bd6b20" opacity="0.15"/><circle cx="460.1" cy="27.1" r="3.58" fill="#bd6b20" opacity="0.19"/><circle cx="497.1" cy="29.6" r="3.05" fill="#bd6b20" opacity="0.30"/><circle cx="536.8" cy="27.9" r="3.41" fill="#bd6b20" opacity="0.18"/><circle cx="568.7" cy="30.5" r="1.71" fill="#bd6b20" opacity="0.19"/><circle cx="605.4" cy="27.8" r="3.41" fill="#bd6b20" opacity="0.31"/><circle cx="642.0" cy="28.1" r="3.22" fill="#bd6b20" opacity="0.23"/><circle cx="679.5" cy="30.8" r="2.13" fill="#bd6b20" opacity="0.23"/><circle cx="714.1" cy="30.9" r="2.59" fill="#bd6b20" opacity="0.25"/><circle cx="747.4" cy="28.7" r="2.11" fill="#bd6b20" opacity="0.22"/><circle cx="784.1" cy="31.0" r="3.06" fill="#bd6b20" opacity="0.33"/><circle cx="823.6" cy="31.8" r="3.23" fill="#bd6b20" opacity="0.18"/><circle cx="855.6" cy="29.1" r="2.16" fill="#bd6b20" opacity="0.24"/><circle cx="896.9" cy="32.5" r="3.10" fill="#bd6b20" opacity="0.26"/><circle cx="932.4" cy="31.5" r="2.49" fill="#bd6b20" opacity="0.25"/><circle cx="964.5" cy="29.6" r="1.70" fill="#bd6b20" opacity="0.25"/><circle cx="1003.2" cy="28.6" r="1.94" fill="#bd6b20" opacity="0.26"/><circle cx="1037.2" cy="27.7" r="2.68" fill="#bd6b20" opacity="0.24"/><circle cx="1076.3" cy="28.3" r="1.96" fill="#bd6b20" opacity="0.23"/><circle cx="1110.3" cy="27.6" r="3.77" fill="#bd6b20" opacity="0.23"/><circle cx="1144.9" cy="32.5" r="3.61" fill="#bd6b20" opacity="0.21"/><circle cx="1179.1" cy="29.3" r="1.87" fill="#bd6b20" opacity="0.26"/><circle cx="30.1" cy="66.1" r="1.99" fill="#bd6b20" opacity="0.16"/><circle cx="65.4" cy="63.2" r="3.23" fill="#bd6b20" opacity="0.34"/><circle cx="99.8" cy="65.4" r="3.27" fill="#bd6b20" opacity="0.23"/><circle cx="136.9" cy="68.6" r="1.86" fill="#bd6b20" opacity="0.34"/><circle cx="176.4" cy="64.2" r="2.33" fill="#bd6b20" opacity="0.25"/><circle cx="211.3" cy="63.8" r="3.69" fill="#bd6b20" opacity="0.35"/><circle cx="245.6" cy="67.3" r="3.73" fill="#bd6b20" opacity="0.26"/><circle cx="281.4" cy="67.5" r="3.54" fill="#bd6b20" opacity="0.16"/><circle cx="317.2" cy="65.9" r="1.75" fill="#bd6b20" opacity="0.15"/><circle cx="354.3" cy="68.2" r="2.11" fill="#bd6b20" opacity="0.16"/><circle cx="392.9" cy="65.8" r="2.59" fill="#bd6b20" opacity="0.30"/><circle cx="427.8" cy="65.2" r="3.77" fill="#bd6b20" opacity="0.33"/><circle cx="463.6" cy="64.0" r="2.46" fill="#bd6b20" opacity="0.16"/><circle cx="499.7" cy="64.8" r="3.07" fill="#bd6b20" opacity="0.33"/><circle cx="532.5" cy="63.1" r="2.03" fill="#bd6b20" opacity="0.35"/><circle cx="568.2" cy="68.3" r="3.84" fill="#bd6b20" opacity="0.23"/><circle cx="604.6" cy="65.2" r="1.73" fill="#bd6b20" opacity="0.35"/><circle cx="643.8" cy="68.7" r="1.88" fill="#bd6b20" opacity="0.21"/><circle cx="679.1" cy="63.5" r="4.00" fill="#bd6b20" opacity="0.30"/><circle cx="712.5" cy="66.6" r="3.59" fill="#bd6b20" opacity="0.15"/><circle cx="752.0" cy="68.1" r="2.81" fill="#bd6b20" opacity="0.31"/><circle cx="783.6" cy="64.7" r="3.17" fill="#bd6b20" opacity="0.20"/><circle cx="825.0" cy="68.0" r="2.99" fill="#bd6b20" opacity="0.31"/><circle cx="856.6" cy="68.2" r="3.00" fill="#bd6b20" opacity="0.28"/><circle cx="893.8" cy="67.4" r="3.61" fill="#bd6b20" opacity="0.26"/><circle cx="927.0" cy="67.8" r="2.17" fill="#bd6b20" opacity="0.16"/><circle cx="963.3" cy="65.5" r="3.67" fill="#bd6b20" opacity="0.31"/><circle cx="1002.0" cy="67.1" r="1.72" fill="#bd6b20" opacity="0.33"/><circle cx="1039.3" cy="68.9" r="1.63" fill="#bd6b20" opacity="0.27"/><circle cx="1074.3" cy="65.2" r="2.86" fill="#bd6b20" opacity="0.24"/><circle cx="1111.5" cy="63.6" r="2.08" fill="#bd6b20" opacity="0.24"/><circle cx="1145.5" cy="65.3" r="2.47" fill="#bd6b20" opacity="0.18"/><circle cx="1182.3" cy="64.9" r="3.96" fill="#bd6b20" opacity="0.25"/><circle cx="29.2" cy="103.7" r="2.81" fill="#bd6b20" opacity="0.27"/><circle cx="63.7" cy="100.0" r="2.19" fill="#bd6b20" opacity="0.32"/><circle cx="103.6" cy="102.4" r="2.27" fill="#bd6b20" opacity="0.31"/><circle cx="140.3" cy="99.4" r="2.68" fill="#bd6b20" opacity="0.26"/><circle cx="174.6" cy="99.0" r="3.09" fill="#bd6b20" opacity="0.24"/><circle cx="207.5" cy="102.3" r="3.66" fill="#bd6b20" opacity="0.30"/><circle cx="245.3" cy="100.0" r="2.67" fill="#bd6b20" opacity="0.18"/><circle cx="280.9" cy="104.2" r="3.03" fill="#bd6b20" opacity="0.25"/><circle cx="320.4" cy="104.8" r="1.66" fill="#bd6b20" opacity="0.25"/><circle cx="351.9" cy="100.7" r="1.62" fill="#bd6b20" opacity="0.20"/><circle cx="390.5" cy="99.5" r="2.41" fill="#bd6b20" opacity="0.28"/><circle cx="428.0" cy="101.4" r="2.28" fill="#bd6b20" opacity="0.27"/><circle cx="461.2" cy="104.3" r="3.39" fill="#bd6b20" opacity="0.17"/><circle cx="495.6" cy="101.9" r="2.57" fill="#bd6b20" opacity="0.27"/><circle cx="532.0" cy="99.7" r="3.46" fill="#bd6b20" opacity="0.34"/><circle cx="569.4" cy="104.6" r="3.20" fill="#bd6b20" opacity="0.25"/><circle cx="607.5" cy="100.0" r="2.85" fill="#bd6b20" opacity="0.32"/><circle cx="641.4" cy="103.9" r="2.81" fill="#bd6b20" opacity="0.28"/><circle cx="677.7" cy="104.9" r="2.20" fill="#bd6b20" opacity="0.20"/><circle cx="715.1" cy="103.8" r="2.32" fill="#bd6b20" opacity="0.22"/><circle cx="750.5" cy="103.4" r="2.30" fill="#bd6b20" opacity="0.15"/><circle cx="784.8" cy="100.7" r="2.45" fill="#bd6b20" opacity="0.32"/><circle cx="819.3" cy="104.0" r="1.92" fill="#bd6b20" opacity="0.22"/><circle cx="855.2" cy="103.9" r="3.93" fill="#bd6b20" opacity="0.17"/><circle cx="892.4" cy="102.8" r="3.66" fill="#bd6b20" opacity="0.31"/><circle cx="930.0" cy="102.7" r="2.71" fill="#bd6b20" opacity="0.35"/><circle cx="965.3" cy="104.0" r="2.47" fill="#bd6b20" opacity="0.32"/><circle cx="999.7" cy="100.0" r="3.49" fill="#bd6b20" opacity="0.34"/><circle cx="1040.4" cy="101.8" r="2.88" fill="#bd6b20" opacity="0.18"/><circle cx="1072.5" cy="100.0" r="3.89" fill="#bd6b20" opacity="0.25"/><circle cx="1107.2" cy="100.2" r="3.26" fill="#bd6b20" opacity="0.33"/><circle cx="1148.2" cy="100.7" r="2.87" fill="#bd6b20" opacity="0.31"/><circle cx="1182.7" cy="101.1" r="2.33" fill="#bd6b20" opacity="0.32"/><circle cx="30.2" cy="138.1" r="3.61" fill="#bd6b20" opacity="0.28"/><circle cx="63.1" cy="140.1" r="3.60" fill="#bd6b20" opacity="0.36"/><circle cx="104.7" cy="137.1" r="3.60" fill="#bd6b20" opacity="0.30"/><circle cx="139.6" cy="135.4" r="1.87" fill="#bd6b20" opacity="0.30"/><circle cx="173.0" cy="135.8" r="3.60" fill="#bd6b20" opacity="0.22"/><circle cx="210.0" cy="138.8" r="2.02" fill="#bd6b20" opacity="0.19"/><circle cx="247.6" cy="136.8" r="1.78" fill="#bd6b20" opacity="0.27"/><circle cx="282.4" cy="140.0" r="3.79" fill="#bd6b20" opacity="0.20"/><circle cx="318.9" cy="135.5" r="3.67" fill="#bd6b20" opacity="0.27"/><circle cx="355.9" cy="139.7" r="3.07" fill="#bd6b20" opacity="0.34"/><circle cx="390.1" cy="135.9" r="2.34" fill="#bd6b20" opacity="0.32"/><circle cx="426.7" cy="136.4" r="2.69" fill="#bd6b20" opacity="0.24"/><circle cx="463.9" cy="136.1" r="2.35" fill="#bd6b20" opacity="0.32"/><circle cx="495.7" cy="140.0" r="1.63" fill="#bd6b20" opacity="0.27"/><circle cx="531.5" cy="139.5" r="2.54" fill="#bd6b20" opacity="0.36"/><circle cx="568.2" cy="136.2" r="4.00" fill="#bd6b20" opacity="0.28"/><circle cx="604.6" cy="137.1" r="2.91" fill="#bd6b20" opacity="0.24"/><circle cx="641.6" cy="138.4" r="3.06" fill="#bd6b20" opacity="0.35"/><circle cx="675.8" cy="138.7" r="3.21" fill="#bd6b20" opacity="0.20"/><circle cx="714.3" cy="137.8" r="3.20" fill="#bd6b20" opacity="0.30"/><circle cx="749.2" cy="138.4" r="2.07" fill="#bd6b20" opacity="0.22"/><circle cx="788.4" cy="137.9" r="2.20" fill="#bd6b20" opacity="0.30"/><circle cx="820.2" cy="138.8" r="3.71" fill="#bd6b20" opacity="0.16"/><circle cx="860.9" cy="137.0" r="3.75" fill="#bd6b20" opacity="0.35"/><circle cx="892.2" cy="140.6" r="2.62" fill="#bd6b20" opacity="0.21"/><circle cx="930.4" cy="137.2" r="2.44" fill="#bd6b20" opacity="0.22"/><circle cx="965.3" cy="135.2" r="1.84" fill="#bd6b20" opacity="0.24"/><circle cx="1002.7" cy="137.3" r="2.45" fill="#bd6b20" opacity="0.25"/><circle cx="1037.4" cy="140.5" r="3.81" fill="#bd6b20" opacity="0.24"/><circle cx="1072.6" cy="137.4" r="3.92" fill="#bd6b20" opacity="0.28"/><circle cx="1109.0" cy="137.0" r="2.98" fill="#bd6b20" opacity="0.27"/><circle cx="1145.4" cy="139.4" r="2.76" fill="#bd6b20" opacity="0.35"/><circle cx="1182.7" cy="138.5" r="2.78" fill="#bd6b20" opacity="0.31"/><circle cx="29.7" cy="174.5" r="2.22" fill="#bd6b20" opacity="0.30"/><circle cx="67.4" cy="172.7" r="3.71" fill="#bd6b20" opacity="0.26"/><circle cx="104.2" cy="172.4" r="1.97" fill="#bd6b20" opacity="0.22"/><circle cx="139.9" cy="173.4" r="1.98" fill="#bd6b20" opacity="0.34"/><circle cx="176.0" cy="171.7" r="3.55" fill="#bd6b20" opacity="0.34"/><circle cx="212.5" cy="172.4" r="3.16" fill="#bd6b20" opacity="0.34"/><circle cx="246.4" cy="171.8" r="2.76" fill="#bd6b20" opacity="0.20"/><circle cx="279.9" cy="173.2" r="1.78" fill="#bd6b20" opacity="0.32"/><circle cx="319.4" cy="174.8" r="2.56" fill="#bd6b20" opacity="0.25"/><circle cx="356.0" cy="174.3" r="1.71" fill="#bd6b20" opacity="0.16"/><circle cx="387.2" cy="176.0" r="3.98" fill="#bd6b20" opacity="0.21"/><circle cx="426.6" cy="171.7" r="3.82" fill="#bd6b20" opacity="0.29"/><circle cx="463.5" cy="171.1" r="2.16" fill="#bd6b20" opacity="0.28"/><circle cx="496.6" cy="176.3" r="2.82" fill="#bd6b20" opacity="0.34"/><circle cx="534.2" cy="173.4" r="3.52" fill="#bd6b20" opacity="0.23"/><circle cx="568.8" cy="173.2" r="3.27" fill="#bd6b20" opacity="0.26"/><circle cx="608.0" cy="175.4" r="2.25" fill="#bd6b20" opacity="0.17"/><circle cx="640.1" cy="176.8" r="3.62" fill="#bd6b20" opacity="0.27"/><circle cx="677.9" cy="174.0" r="3.32" fill="#bd6b20" opacity="0.29"/><circle cx="716.1" cy="175.8" r="3.06" fill="#bd6b20" opacity="0.33"/><circle cx="748.0" cy="173.8" r="3.19" fill="#bd6b20" opacity="0.31"/><circle cx="786.1" cy="175.6" r="2.17" fill="#bd6b20" opacity="0.23"/><circle cx="822.9" cy="171.7" r="1.67" fill="#bd6b20" opacity="0.31"/><circle cx="860.3" cy="174.3" r="2.62" fill="#bd6b20" opacity="0.23"/><circle cx="891.8" cy="175.4" r="3.71" fill="#bd6b20" opacity="0.21"/><circle cx="932.0" cy="176.4" r="3.57" fill="#bd6b20" opacity="0.18"/><circle cx="963.3" cy="172.8" r="1.61" fill="#bd6b20" opacity="0.24"/><circle cx="1004.8" cy="171.6" r="1.88" fill="#bd6b20" opacity="0.34"/><circle cx="1040.1" cy="174.0" r="2.67" fill="#bd6b20" opacity="0.22"/><circle cx="1073.8" cy="176.6" r="2.10" fill="#bd6b20" opacity="0.27"/><circle cx="1109.5" cy="175.0" r="2.53" fill="#bd6b20" opacity="0.36"/><circle cx="1147.0" cy="172.4" r="3.26" fill="#bd6b20" opacity="0.19"/><circle cx="1183.8" cy="172.4" r="1.95" fill="#bd6b20" opacity="0.16"/><circle cx="30.2" cy="210.5" r="2.82" fill="#bd6b20" opacity="0.25"/><circle cx="68.5" cy="209.9" r="2.84" fill="#bd6b20" opacity="0.25"/><circle cx="103.3" cy="209.1" r="2.35" fill="#bd6b20" opacity="0.25"/><circle cx="135.7" cy="208.1" r="3.24" fill="#bd6b20" opacity="0.22"/><circle cx="173.5" cy="211.3" r="1.96" fill="#bd6b20" opacity="0.35"/><circle cx="210.2" cy="211.2" r="3.81" fill="#bd6b20" opacity="0.33"/><circle cx="246.5" cy="212.8" r="1.70" fill="#bd6b20" opacity="0.31"/><circle cx="282.0" cy="210.5" r="2.88" fill="#bd6b20" opacity="0.29"/><circle cx="317.2" cy="212.1" r="2.51" fill="#bd6b20" opacity="0.35"/><circle cx="356.7" cy="208.1" r="2.34" fill="#bd6b20" opacity="0.18"/><circle cx="392.9" cy="208.9" r="3.55" fill="#bd6b20" opacity="0.34"/><circle cx="425.9" cy="211.5" r="2.93" fill="#bd6b20" opacity="0.26"/><circle cx="461.6" cy="212.2" r="2.57" fill="#bd6b20" opacity="0.20"/><circle cx="495.5" cy="211.3" r="2.50" fill="#bd6b20" opacity="0.29"/><circle cx="532.0" cy="212.9" r="3.58" fill="#bd6b20" opacity="0.34"/><circle cx="572.4" cy="208.7" r="1.64" fill="#bd6b20" opacity="0.18"/><circle cx="604.4" cy="209.4" r="3.11" fill="#bd6b20" opacity="0.26"/><circle cx="640.1" cy="212.5" r="3.60" fill="#bd6b20" opacity="0.35"/><circle cx="679.6" cy="208.6" r="3.05" fill="#bd6b20" opacity="0.19"/><circle cx="715.5" cy="211.1" r="3.49" fill="#bd6b20" opacity="0.32"/><circle cx="747.8" cy="208.3" r="2.11" fill="#bd6b20" opacity="0.18"/><circle cx="783.6" cy="209.4" r="3.36" fill="#bd6b20" opacity="0.23"/><circle cx="824.9" cy="210.6" r="3.40" fill="#bd6b20" opacity="0.20"/><circle cx="857.5" cy="208.4" r="3.18" fill="#bd6b20" opacity="0.18"/><circle cx="891.5" cy="207.4" r="2.40" fill="#bd6b20" opacity="0.25"/><circle cx="930.3" cy="207.9" r="3.18" fill="#bd6b20" opacity="0.21"/><circle cx="964.1" cy="208.5" r="3.84" fill="#bd6b20" opacity="0.22"/><circle cx="1002.6" cy="207.2" r="2.13" fill="#bd6b20" opacity="0.32"/><circle cx="1037.3" cy="211.6" r="2.80" fill="#bd6b20" opacity="0.26"/><circle cx="1073.5" cy="212.6" r="2.92" fill="#bd6b20" opacity="0.27"/><circle cx="1111.0" cy="208.8" r="2.65" fill="#bd6b20" opacity="0.23"/><circle cx="1144.7" cy="207.6" r="2.02" fill="#bd6b20" opacity="0.20"/><circle cx="1183.6" cy="211.2" r="2.80" fill="#bd6b20" opacity="0.27"/><circle cx="29.6" cy="246.8" r="2.05" fill="#bd6b20" opacity="0.26"/><circle cx="66.7" cy="249.0" r="2.23" fill="#bd6b20" opacity="0.15"/><circle cx="100.3" cy="244.4" r="2.97" fill="#bd6b20" opacity="0.32"/><circle cx="140.3" cy="245.0" r="3.02" fill="#bd6b20" opacity="0.17"/><circle cx="172.9" cy="247.6" r="3.09" fill="#bd6b20" opacity="0.32"/><circle cx="210.2" cy="248.8" r="3.69" fill="#bd6b20" opacity="0.31"/><circle cx="246.9" cy="244.8" r="3.22" fill="#bd6b20" opacity="0.16"/><circle cx="280.0" cy="246.3" r="2.39" fill="#bd6b20" opacity="0.28"/><circle cx="315.1" cy="248.0" r="2.17" fill="#bd6b20" opacity="0.25"/><circle cx="354.7" cy="249.0" r="1.82" fill="#bd6b20" opacity="0.35"/><circle cx="390.6" cy="243.9" r="3.66" fill="#bd6b20" opacity="0.15"/><circle cx="427.8" cy="244.8" r="2.94" fill="#bd6b20" opacity="0.16"/><circle cx="464.5" cy="245.2" r="2.66" fill="#bd6b20" opacity="0.34"/><circle cx="499.2" cy="246.4" r="1.85" fill="#bd6b20" opacity="0.27"/><circle cx="534.3" cy="245.5" r="3.07" fill="#bd6b20" opacity="0.19"/><circle cx="568.2" cy="244.0" r="3.76" fill="#bd6b20" opacity="0.19"/><circle cx="604.0" cy="245.2" r="2.22" fill="#bd6b20" opacity="0.30"/><circle cx="643.8" cy="246.8" r="3.86" fill="#bd6b20" opacity="0.29"/><circle cx="678.8" cy="245.5" r="1.93" fill="#bd6b20" opacity="0.16"/><circle cx="714.2" cy="245.8" r="2.69" fill="#bd6b20" opacity="0.22"/><circle cx="751.3" cy="248.0" r="3.46" fill="#bd6b20" opacity="0.35"/><circle cx="786.7" cy="243.8" r="2.98" fill="#bd6b20" opacity="0.33"/><circle cx="823.4" cy="244.0" r="3.48" fill="#bd6b20" opacity="0.26"/><circle cx="860.6" cy="247.8" r="3.76" fill="#bd6b20" opacity="0.17"/><circle cx="894.5" cy="243.8" r="3.47" fill="#bd6b20" opacity="0.26"/><circle cx="928.2" cy="248.0" r="3.58" fill="#bd6b20" opacity="0.18"/><circle cx="964.3" cy="248.1" r="3.69" fill="#bd6b20" opacity="0.22"/><circle cx="1000.4" cy="244.6" r="2.05" fill="#bd6b20" opacity="0.28"/><circle cx="1035.2" cy="247.3" r="1.98" fill="#bd6b20" opacity="0.26"/><circle cx="1075.3" cy="245.4" r="3.83" fill="#bd6b20" opacity="0.33"/><circle cx="1112.2" cy="246.6" r="3.02" fill="#bd6b20" opacity="0.20"/><circle cx="1147.0" cy="248.3" r="3.57" fill="#bd6b20" opacity="0.16"/><circle cx="1183.1" cy="246.7" r="2.89" fill="#bd6b20" opacity="0.32"/><circle cx="27.9" cy="280.6" r="2.56" fill="#bd6b20" opacity="0.17"/><circle cx="63.2" cy="284.5" r="2.29" fill="#bd6b20" opacity="0.17"/><circle cx="101.6" cy="279.9" r="3.01" fill="#bd6b20" opacity="0.24"/><circle cx="138.9" cy="282.0" r="3.57" fill="#bd6b20" opacity="0.33"/><circle cx="172.5" cy="282.4" r="2.56" fill="#bd6b20" opacity="0.28"/><circle cx="210.6" cy="281.9" r="2.67" fill="#bd6b20" opacity="0.30"/><circle cx="243.5" cy="283.8" r="3.92" fill="#bd6b20" opacity="0.35"/><circle cx="282.0" cy="282.6" r="2.47" fill="#bd6b20" opacity="0.17"/><circle cx="320.1" cy="282.2" r="3.59" fill="#bd6b20" opacity="0.35"/><circle cx="351.5" cy="282.8" r="2.47" fill="#bd6b20" opacity="0.29"/><circle cx="390.7" cy="280.1" r="2.34" fill="#bd6b20" opacity="0.23"/><circle cx="426.9" cy="280.0" r="3.39" fill="#bd6b20" opacity="0.31"/><circle cx="462.6" cy="282.3" r="3.65" fill="#bd6b20" opacity="0.33"/><circle cx="500.5" cy="280.3" r="3.98" fill="#bd6b20" opacity="0.25"/><circle cx="536.3" cy="279.9" r="3.38" fill="#bd6b20" opacity="0.30"/><circle cx="567.9" cy="280.5" r="2.07" fill="#bd6b20" opacity="0.31"/><circle cx="605.2" cy="284.6" r="3.47" fill="#bd6b20" opacity="0.17"/><circle cx="644.3" cy="283.5" r="2.32" fill="#bd6b20" opacity="0.24"/><circle cx="676.5" cy="283.9" r="3.16" fill="#bd6b20" opacity="0.24"/><circle cx="716.9" cy="284.9" r="3.65" fill="#bd6b20" opacity="0.16"/><circle cx="748.3" cy="283.4" r="3.42" fill="#bd6b20" opacity="0.22"/><circle cx="784.9" cy="283.1" r="1.94" fill="#bd6b20" opacity="0.28"/><circle cx="822.5" cy="284.2" r="2.13" fill="#bd6b20" opacity="0.36"/><circle cx="860.7" cy="283.7" r="1.63" fill="#bd6b20" opacity="0.19"/><circle cx="892.4" cy="282.9" r="3.90" fill="#bd6b20" opacity="0.21"/><circle cx="931.1" cy="281.4" r="2.65" fill="#bd6b20" opacity="0.24"/><circle cx="966.1" cy="279.9" r="2.54" fill="#bd6b20" opacity="0.21"/><circle cx="1001.6" cy="284.5" r="3.81" fill="#bd6b20" opacity="0.31"/><circle cx="1036.4" cy="279.1" r="1.64" fill="#bd6b20" opacity="0.21"/><circle cx="1072.8" cy="280.9" r="2.60" fill="#bd6b20" opacity="0.17"/><circle cx="1109.3" cy="283.2" r="2.01" fill="#bd6b20" opacity="0.35"/><circle cx="1148.3" cy="280.9" r="3.29" fill="#bd6b20" opacity="0.24"/><circle cx="1182.2" cy="284.4" r="3.40" fill="#bd6b20" opacity="0.17"/><circle cx="30.3" cy="319.3" r="1.79" fill="#bd6b20" opacity="0.27"/><circle cx="68.0" cy="315.5" r="2.28" fill="#bd6b20" opacity="0.20"/><circle cx="99.9" cy="319.3" r="3.21" fill="#bd6b20" opacity="0.35"/><circle cx="136.9" cy="316.7" r="3.56" fill="#bd6b20" opacity="0.25"/><circle cx="171.5" cy="315.2" r="2.18" fill="#bd6b20" opacity="0.31"/><circle cx="212.3" cy="319.3" r="3.83" fill="#bd6b20" opacity="0.35"/><circle cx="248.2" cy="318.9" r="2.68" fill="#bd6b20" opacity="0.34"/><circle cx="281.8" cy="315.5" r="3.14" fill="#bd6b20" opacity="0.17"/><circle cx="320.7" cy="320.5" r="2.66" fill="#bd6b20" opacity="0.30"/><circle cx="355.0" cy="318.1" r="2.59" fill="#bd6b20" opacity="0.22"/><circle cx="388.6" cy="317.9" r="2.46" fill="#bd6b20" opacity="0.16"/><circle cx="426.2" cy="317.5" r="2.93" fill="#bd6b20" opacity="0.25"/><circle cx="459.1" cy="315.2" r="3.85" fill="#bd6b20" opacity="0.25"/><circle cx="495.1" cy="317.3" r="2.21" fill="#bd6b20" opacity="0.19"/><circle cx="532.7" cy="316.9" r="3.09" fill="#bd6b20" opacity="0.22"/><circle cx="567.4" cy="317.3" r="1.86" fill="#bd6b20" opacity="0.33"/><circle cx="608.9" cy="316.6" r="3.38" fill="#bd6b20" opacity="0.15"/><circle cx="639.6" cy="315.8" r="3.38" fill="#bd6b20" opacity="0.23"/><circle cx="677.8" cy="320.5" r="2.98" fill="#bd6b20" opacity="0.31"/><circle cx="714.4" cy="318.3" r="3.87" fill="#bd6b20" opacity="0.31"/><circle cx="752.8" cy="319.7" r="2.59" fill="#bd6b20" opacity="0.26"/><circle cx="784.3" cy="316.2" r="2.20" fill="#bd6b20" opacity="0.29"/><circle cx="822.9" cy="317.4" r="3.23" fill="#bd6b20" opacity="0.28"/><circle cx="860.5" cy="318.1" r="3.81" fill="#bd6b20" opacity="0.19"/><circle cx="896.5" cy="319.0" r="3.54" fill="#bd6b20" opacity="0.19"/><circle cx="932.5" cy="318.3" r="1.79" fill="#bd6b20" opacity="0.29"/><circle cx="967.6" cy="317.1" r="2.35" fill="#bd6b20" opacity="0.30"/><circle cx="1000.6" cy="317.4" r="3.98" fill="#bd6b20" opacity="0.21"/><circle cx="1037.6" cy="315.1" r="1.90" fill="#bd6b20" opacity="0.19"/><circle cx="1076.1" cy="319.9" r="2.68" fill="#bd6b20" opacity="0.16"/><circle cx="1109.8" cy="318.3" r="1.67" fill="#bd6b20" opacity="0.23"/><circle cx="1144.2" cy="319.8" r="2.71" fill="#bd6b20" opacity="0.29"/><circle cx="1183.0" cy="315.0" r="2.28" fill="#bd6b20" opacity="0.30"/><circle cx="29.1" cy="354.9" r="2.11" fill="#bd6b20" opacity="0.21"/><circle cx="64.7" cy="355.4" r="2.53" fill="#bd6b20" opacity="0.22"/><circle cx="102.2" cy="351.4" r="2.93" fill="#bd6b20" opacity="0.16"/><circle cx="139.2" cy="354.4" r="3.68" fill="#bd6b20" opacity="0.22"/><circle cx="172.8" cy="355.3" r="2.34" fill="#bd6b20" opacity="0.29"/><circle cx="209.1" cy="353.1" r="2.58" fill="#bd6b20" opacity="0.20"/><circle cx="247.1" cy="356.2" r="3.13" fill="#bd6b20" opacity="0.35"/><circle cx="283.0" cy="351.5" r="2.74" fill="#bd6b20" opacity="0.34"/><circle cx="316.7" cy="352.1" r="3.58" fill="#bd6b20" opacity="0.29"/><circle cx="354.3" cy="351.5" r="3.49" fill="#bd6b20" opacity="0.23"/><circle cx="388.7" cy="355.0" r="2.02" fill="#bd6b20" opacity="0.27"/><circle cx="425.8" cy="355.3" r="2.37" fill="#bd6b20" opacity="0.16"/><circle cx="464.2" cy="354.5" r="1.61" fill="#bd6b20" opacity="0.31"/><circle cx="495.7" cy="353.0" r="3.26" fill="#bd6b20" opacity="0.29"/><circle cx="534.4" cy="355.2" r="2.24" fill="#bd6b20" opacity="0.34"/><circle cx="569.1" cy="352.8" r="2.93" fill="#bd6b20" opacity="0.30"/><circle cx="606.6" cy="353.1" r="3.08" fill="#bd6b20" opacity="0.28"/><circle cx="643.2" cy="354.5" r="3.26" fill="#bd6b20" opacity="0.32"/><circle cx="676.3" cy="356.7" r="2.75" fill="#bd6b20" opacity="0.31"/><circle cx="716.2" cy="352.4" r="3.36" fill="#bd6b20" opacity="0.33"/><circle cx="752.7" cy="355.8" r="2.77" fill="#bd6b20" opacity="0.25"/><circle cx="785.9" cy="355.1" r="3.32" fill="#bd6b20" opacity="0.23"/><circle cx="823.3" cy="352.0" r="1.64" fill="#bd6b20" opacity="0.20"/><circle cx="857.4" cy="356.9" r="3.87" fill="#bd6b20" opacity="0.29"/><circle cx="892.7" cy="351.9" r="3.61" fill="#bd6b20" opacity="0.23"/><circle cx="932.6" cy="354.6" r="3.05" fill="#bd6b20" opacity="0.17"/><circle cx="968.3" cy="353.1" r="3.15" fill="#bd6b20" opacity="0.30"/><circle cx="1000.6" cy="354.2" r="3.11" fill="#bd6b20" opacity="0.20"/><circle cx="1037.0" cy="355.4" r="1.96" fill="#bd6b20" opacity="0.33"/><circle cx="1071.4" cy="355.3" r="2.21" fill="#bd6b20" opacity="0.29"/><circle cx="1113.0" cy="354.8" r="1.96" fill="#bd6b20" opacity="0.35"/><circle cx="1144.6" cy="356.5" r="1.60" fill="#bd6b20" opacity="0.27"/><circle cx="1184.2" cy="355.6" r="1.63" fill="#bd6b20" opacity="0.33"/><circle cx="30.4" cy="389.6" r="2.21" fill="#bd6b20" opacity="0.34"/><circle cx="65.8" cy="391.3" r="1.79" fill="#bd6b20" opacity="0.30"/><circle cx="102.2" cy="392.0" r="2.89" fill="#bd6b20" opacity="0.27"/><circle cx="136.3" cy="389.3" r="3.63" fill="#bd6b20" opacity="0.25"/><circle cx="173.6" cy="391.3" r="3.79" fill="#bd6b20" opacity="0.25"/><circle cx="210.0" cy="390.4" r="2.22" fill="#bd6b20" opacity="0.23"/><circle cx="243.9" cy="388.9" r="2.04" fill="#bd6b20" opacity="0.25"/><circle cx="282.8" cy="392.4" r="1.99" fill="#bd6b20" opacity="0.26"/><circle cx="318.0" cy="388.3" r="1.96" fill="#bd6b20" opacity="0.32"/><circle cx="352.0" cy="387.9" r="3.05" fill="#bd6b20" opacity="0.34"/><circle cx="387.8" cy="388.1" r="2.15" fill="#bd6b20" opacity="0.34"/><circle cx="426.6" cy="387.8" r="3.32" fill="#bd6b20" opacity="0.17"/><circle cx="460.3" cy="387.8" r="3.33" fill="#bd6b20" opacity="0.31"/><circle cx="495.5" cy="390.2" r="3.38" fill="#bd6b20" opacity="0.18"/><circle cx="535.7" cy="387.4" r="3.97" fill="#bd6b20" opacity="0.16"/><circle cx="568.5" cy="392.3" r="3.86" fill="#bd6b20" opacity="0.22"/><circle cx="607.8" cy="391.7" r="3.81" fill="#bd6b20" opacity="0.28"/><circle cx="642.2" cy="391.6" r="3.09" fill="#bd6b20" opacity="0.24"/><circle cx="676.5" cy="392.2" r="2.48" fill="#bd6b20" opacity="0.33"/><circle cx="713.5" cy="388.2" r="3.51" fill="#bd6b20" opacity="0.35"/><circle cx="748.9" cy="390.0" r="1.75" fill="#bd6b20" opacity="0.32"/><circle cx="783.3" cy="387.4" r="3.81" fill="#bd6b20" opacity="0.18"/><circle cx="821.6" cy="388.7" r="3.40" fill="#bd6b20" opacity="0.34"/><circle cx="859.6" cy="390.6" r="3.78" fill="#bd6b20" opacity="0.33"/><circle cx="896.2" cy="387.5" r="2.92" fill="#bd6b20" opacity="0.31"/><circle cx="927.8" cy="388.5" r="2.64" fill="#bd6b20" opacity="0.21"/><circle cx="964.2" cy="387.1" r="3.60" fill="#bd6b20" opacity="0.15"/><circle cx="1004.7" cy="390.7" r="3.48" fill="#bd6b20" opacity="0.28"/><circle cx="1037.3" cy="390.4" r="1.97" fill="#bd6b20" opacity="0.35"/><circle cx="1071.4" cy="387.3" r="3.04" fill="#bd6b20" opacity="0.24"/><circle cx="1109.5" cy="389.9" r="3.28" fill="#bd6b20" opacity="0.34"/><circle cx="1146.8" cy="389.6" r="3.06" fill="#bd6b20" opacity="0.33"/><circle cx="1184.6" cy="387.6" r="1.72" fill="#bd6b20" opacity="0.22"/><circle cx="30.8" cy="423.3" r="3.60" fill="#bd6b20" opacity="0.25"/><circle cx="63.5" cy="428.8" r="2.88" fill="#bd6b20" opacity="0.17"/><circle cx="101.6" cy="423.1" r="3.42" fill="#bd6b20" opacity="0.15"/><circle cx="140.0" cy="423.4" r="2.79" fill="#bd6b20" opacity="0.24"/><circle cx="171.3" cy="426.4" r="3.11" fill="#bd6b20" opacity="0.23"/><circle cx="209.0" cy="428.1" r="3.49" fill="#bd6b20" opacity="0.31"/><circle cx="244.6" cy="423.5" r="2.82" fill="#bd6b20" opacity="0.15"/><circle cx="282.6" cy="426.1" r="1.91" fill="#bd6b20" opacity="0.31"/><circle cx="316.3" cy="426.7" r="2.99" fill="#bd6b20" opacity="0.31"/><circle cx="355.4" cy="423.5" r="2.92" fill="#bd6b20" opacity="0.20"/><circle cx="391.8" cy="426.9" r="3.12" fill="#bd6b20" opacity="0.34"/><circle cx="427.0" cy="423.7" r="1.92" fill="#bd6b20" opacity="0.22"/><circle cx="462.5" cy="424.5" r="2.16" fill="#bd6b20" opacity="0.31"/><circle cx="499.2" cy="423.1" r="1.62" fill="#bd6b20" opacity="0.16"/><circle cx="531.7" cy="423.4" r="2.51" fill="#bd6b20" opacity="0.27"/><circle cx="569.5" cy="425.8" r="2.99" fill="#bd6b20" opacity="0.31"/><circle cx="606.6" cy="427.5" r="3.56" fill="#bd6b20" opacity="0.34"/><circle cx="643.8" cy="423.5" r="1.70" fill="#bd6b20" opacity="0.15"/><circle cx="677.7" cy="428.3" r="3.80" fill="#bd6b20" opacity="0.21"/><circle cx="714.8" cy="426.8" r="2.80" fill="#bd6b20" opacity="0.28"/><circle cx="749.4" cy="425.4" r="3.36" fill="#bd6b20" opacity="0.22"/><circle cx="788.6" cy="424.5" r="3.35" fill="#bd6b20" opacity="0.18"/><circle cx="821.8" cy="428.3" r="2.36" fill="#bd6b20" opacity="0.19"/><circle cx="857.9" cy="425.5" r="3.57" fill="#bd6b20" opacity="0.30"/><circle cx="893.7" cy="426.7" r="1.74" fill="#bd6b20" opacity="0.22"/><circle cx="929.4" cy="428.4" r="3.18" fill="#bd6b20" opacity="0.17"/><circle cx="963.1" cy="428.8" r="3.23" fill="#bd6b20" opacity="0.23"/><circle cx="1001.5" cy="424.2" r="3.34" fill="#bd6b20" opacity="0.27"/><circle cx="1039.1" cy="425.3" r="2.81" fill="#bd6b20" opacity="0.22"/><circle cx="1072.9" cy="425.1" r="2.74" fill="#bd6b20" opacity="0.25"/><circle cx="1112.5" cy="427.2" r="2.76" fill="#bd6b20" opacity="0.16"/><circle cx="1143.3" cy="428.5" r="1.88" fill="#bd6b20" opacity="0.23"/><circle cx="1184.0" cy="427.4" r="1.78" fill="#bd6b20" opacity="0.16"/><circle cx="28.8" cy="460.2" r="3.25" fill="#bd6b20" opacity="0.21"/><circle cx="63.1" cy="459.9" r="1.82" fill="#bd6b20" opacity="0.16"/><circle cx="101.1" cy="460.9" r="1.68" fill="#bd6b20" opacity="0.23"/><circle cx="136.7" cy="461.2" r="3.55" fill="#bd6b20" opacity="0.31"/><circle cx="173.3" cy="460.2" r="3.68" fill="#bd6b20" opacity="0.25"/><circle cx="212.0" cy="461.6" r="2.91" fill="#bd6b20" opacity="0.24"/><circle cx="244.1" cy="461.6" r="1.66" fill="#bd6b20" opacity="0.21"/><circle cx="284.4" cy="464.3" r="3.01" fill="#bd6b20" opacity="0.24"/><circle cx="319.7" cy="459.7" r="2.71" fill="#bd6b20" opacity="0.17"/><circle cx="351.0" cy="464.8" r="2.80" fill="#bd6b20" opacity="0.17"/><circle cx="391.4" cy="459.6" r="3.31" fill="#bd6b20" opacity="0.18"/><circle cx="425.1" cy="461.5" r="3.67" fill="#bd6b20" opacity="0.22"/><circle cx="461.7" cy="462.5" r="1.84" fill="#bd6b20" opacity="0.21"/><circle cx="498.8" cy="463.0" r="2.40" fill="#bd6b20" opacity="0.30"/><circle cx="533.8" cy="459.3" r="3.59" fill="#bd6b20" opacity="0.30"/><circle cx="568.7" cy="461.1" r="3.67" fill="#bd6b20" opacity="0.16"/><circle cx="608.7" cy="464.0" r="3.23" fill="#bd6b20" opacity="0.18"/><circle cx="640.1" cy="462.4" r="1.76" fill="#bd6b20" opacity="0.25"/><circle cx="677.0" cy="462.9" r="2.21" fill="#bd6b20" opacity="0.31"/><circle cx="712.9" cy="463.6" r="1.65" fill="#bd6b20" opacity="0.33"/><circle cx="752.7" cy="462.5" r="3.21" fill="#bd6b20" opacity="0.35"/><circle cx="785.4" cy="460.0" r="3.32" fill="#bd6b20" opacity="0.28"/><circle cx="824.1" cy="461.4" r="3.27" fill="#bd6b20" opacity="0.19"/><circle cx="855.6" cy="465.0" r="3.47" fill="#bd6b20" opacity="0.18"/><circle cx="894.2" cy="465.0" r="2.22" fill="#bd6b20" opacity="0.18"/><circle cx="929.6" cy="462.6" r="2.90" fill="#bd6b20" opacity="0.23"/><circle cx="969.0" cy="461.8" r="1.97" fill="#bd6b20" opacity="0.18"/><circle cx="1000.0" cy="460.0" r="2.58" fill="#bd6b20" opacity="0.18"/><circle cx="1039.5" cy="459.7" r="1.67" fill="#bd6b20" opacity="0.21"/><circle cx="1076.2" cy="460.2" r="2.57" fill="#bd6b20" opacity="0.21"/><circle cx="1110.5" cy="462.3" r="2.59" fill="#bd6b20" opacity="0.22"/><circle cx="1146.7" cy="463.5" r="1.62" fill="#bd6b20" opacity="0.20"/><circle cx="1182.2" cy="460.8" r="2.64" fill="#bd6b20" opacity="0.34"/><circle cx="30.4" cy="497.3" r="3.99" fill="#bd6b20" opacity="0.33"/><circle cx="68.6" cy="498.6" r="3.06" fill="#bd6b20" opacity="0.17"/><circle cx="100.0" cy="496.1" r="3.04" fill="#bd6b20" opacity="0.17"/><circle cx="135.2" cy="497.5" r="3.20" fill="#bd6b20" opacity="0.23"/><circle cx="172.4" cy="496.8" r="1.99" fill="#bd6b20" opacity="0.32"/><circle cx="210.1" cy="498.0" r="3.09" fill="#bd6b20" opacity="0.20"/><circle cx="246.1" cy="499.4" r="3.70" fill="#bd6b20" opacity="0.19"/><circle cx="284.0" cy="498.6" r="2.81" fill="#bd6b20" opacity="0.25"/><circle cx="315.8" cy="497.6" r="2.20" fill="#bd6b20" opacity="0.24"/><circle cx="355.3" cy="497.0" r="2.74" fill="#bd6b20" opacity="0.21"/><circle cx="388.6" cy="498.4" r="2.23" fill="#bd6b20" opacity="0.18"/><circle cx="427.4" cy="497.0" r="2.23" fill="#bd6b20" opacity="0.25"/><circle cx="460.9" cy="497.1" r="2.15" fill="#bd6b20" opacity="0.17"/><circle cx="496.3" cy="495.1" r="3.66" fill="#bd6b20" opacity="0.25"/><circle cx="533.9" cy="498.4" r="3.98" fill="#bd6b20" opacity="0.23"/><circle cx="572.0" cy="497.3" r="3.14" fill="#bd6b20" opacity="0.36"/><circle cx="608.9" cy="498.7" r="3.81" fill="#bd6b20" opacity="0.15"/><circle cx="642.9" cy="497.5" r="3.28" fill="#bd6b20" opacity="0.18"/><circle cx="680.3" cy="497.3" r="3.11" fill="#bd6b20" opacity="0.29"/><circle cx="711.3" cy="498.8" r="2.83" fill="#bd6b20" opacity="0.21"/><circle cx="750.0" cy="500.5" r="2.94" fill="#bd6b20" opacity="0.19"/><circle cx="785.2" cy="499.9" r="1.79" fill="#bd6b20" opacity="0.28"/><circle cx="821.0" cy="497.9" r="3.11" fill="#bd6b20" opacity="0.28"/><circle cx="858.4" cy="497.8" r="2.40" fill="#bd6b20" opacity="0.28"/><circle cx="894.4" cy="498.3" r="2.48" fill="#bd6b20" opacity="0.27"/><circle cx="927.7" cy="495.1" r="3.44" fill="#bd6b20" opacity="0.25"/><circle cx="963.5" cy="500.0" r="2.18" fill="#bd6b20" opacity="0.22"/><circle cx="1000.1" cy="500.5" r="2.87" fill="#bd6b20" opacity="0.16"/><circle cx="1036.4" cy="499.7" r="2.80" fill="#bd6b20" opacity="0.26"/><circle cx="1076.7" cy="499.2" r="2.90" fill="#bd6b20" opacity="0.34"/><circle cx="1111.3" cy="496.0" r="1.97" fill="#bd6b20" opacity="0.32"/><circle cx="1148.1" cy="498.3" r="3.56" fill="#bd6b20" opacity="0.35"/><circle cx="1183.6" cy="495.6" r="1.61" fill="#bd6b20" opacity="0.31"/><circle cx="29.8" cy="534.3" r="2.53" fill="#bd6b20" opacity="0.16"/><circle cx="65.4" cy="531.8" r="3.99" fill="#bd6b20" opacity="0.27"/><circle cx="101.2" cy="536.7" r="3.70" fill="#bd6b20" opacity="0.25"/><circle cx="139.3" cy="534.7" r="3.82" fill="#bd6b20" opacity="0.17"/><circle cx="171.1" cy="534.7" r="3.23" fill="#bd6b20" opacity="0.19"/><circle cx="209.4" cy="536.0" r="2.40" fill="#bd6b20" opacity="0.32"/><circle cx="244.6" cy="534.1" r="1.74" fill="#bd6b20" opacity="0.31"/><circle cx="282.6" cy="535.9" r="3.03" fill="#bd6b20" opacity="0.21"/><circle cx="317.4" cy="533.4" r="2.43" fill="#bd6b20" opacity="0.24"/><circle cx="352.0" cy="531.1" r="2.79" fill="#bd6b20" opacity="0.29"/><circle cx="389.7" cy="533.9" r="3.11" fill="#bd6b20" opacity="0.20"/><circle cx="428.0" cy="532.3" r="4.00" fill="#bd6b20" opacity="0.20"/><circle cx="460.5" cy="532.2" r="2.71" fill="#bd6b20" opacity="0.17"/><circle cx="496.6" cy="532.2" r="2.55" fill="#bd6b20" opacity="0.16"/><circle cx="535.1" cy="536.7" r="2.77" fill="#bd6b20" opacity="0.28"/><circle cx="569.2" cy="535.6" r="3.54" fill="#bd6b20" opacity="0.28"/><circle cx="604.0" cy="536.2" r="3.15" fill="#bd6b20" opacity="0.22"/><circle cx="644.7" cy="535.3" r="3.22" fill="#bd6b20" opacity="0.30"/><circle cx="676.9" cy="532.2" r="2.96" fill="#bd6b20" opacity="0.15"/><circle cx="715.8" cy="535.8" r="1.85" fill="#bd6b20" opacity="0.18"/><circle cx="751.6" cy="536.7" r="1.73" fill="#bd6b20" opacity="0.18"/><circle cx="787.3" cy="536.3" r="2.93" fill="#bd6b20" opacity="0.32"/><circle cx="819.1" cy="534.6" r="3.24" fill="#bd6b20" opacity="0.19"/><circle cx="855.7" cy="535.5" r="2.28" fill="#bd6b20" opacity="0.24"/><circle cx="895.0" cy="536.3" r="3.88" fill="#bd6b20" opacity="0.16"/><circle cx="928.3" cy="534.9" r="1.78" fill="#bd6b20" opacity="0.17"/><circle cx="963.3" cy="533.1" r="1.94" fill="#bd6b20" opacity="0.18"/><circle cx="1001.4" cy="532.0" r="2.92" fill="#bd6b20" opacity="0.16"/><circle cx="1038.4" cy="536.0" r="3.39" fill="#bd6b20" opacity="0.34"/><circle cx="1073.5" cy="534.2" r="3.52" fill="#bd6b20" opacity="0.29"/><circle cx="1111.2" cy="534.2" r="2.06" fill="#bd6b20" opacity="0.30"/><circle cx="1148.4" cy="533.0" r="3.70" fill="#bd6b20" opacity="0.18"/><circle cx="1180.5" cy="534.3" r="1.78" fill="#bd6b20" opacity="0.29"/><circle cx="29.7" cy="571.3" r="2.05" fill="#bd6b20" opacity="0.35"/><circle cx="66.4" cy="569.3" r="1.82" fill="#bd6b20" opacity="0.24"/><circle cx="105.0" cy="570.4" r="2.95" fill="#bd6b20" opacity="0.34"/><circle cx="138.6" cy="572.9" r="1.95" fill="#bd6b20" opacity="0.21"/><circle cx="173.4" cy="571.8" r="3.61" fill="#bd6b20" opacity="0.16"/><circle cx="207.3" cy="573.0" r="3.20" fill="#bd6b20" opacity="0.17"/><circle cx="243.9" cy="572.4" r="2.06" fill="#bd6b20" opacity="0.29"/><circle cx="281.1" cy="567.9" r="2.20" fill="#bd6b20" opacity="0.20"/><circle cx="315.9" cy="571.0" r="1.80" fill="#bd6b20" opacity="0.16"/><circle cx="357.0" cy="571.7" r="2.59" fill="#bd6b20" opacity="0.25"/><circle cx="393.0" cy="572.2" r="3.05" fill="#bd6b20" opacity="0.22"/><circle cx="425.4" cy="570.2" r="3.47" fill="#bd6b20" opacity="0.24"/><circle cx="459.9" cy="572.9" r="2.97" fill="#bd6b20" opacity="0.29"/><circle cx="496.4" cy="571.8" r="3.37" fill="#bd6b20" opacity="0.19"/><circle cx="532.7" cy="570.7" r="2.73" fill="#bd6b20" opacity="0.32"/><circle cx="567.3" cy="571.9" r="2.99" fill="#bd6b20" opacity="0.21"/><circle cx="606.0" cy="569.6" r="2.54" fill="#bd6b20" opacity="0.36"/><circle cx="643.8" cy="572.9" r="3.50" fill="#bd6b20" opacity="0.35"/><circle cx="676.8" cy="567.4" r="2.97" fill="#bd6b20" opacity="0.16"/><circle cx="714.9" cy="568.4" r="2.74" fill="#bd6b20" opacity="0.29"/><circle cx="748.8" cy="570.1" r="3.54" fill="#bd6b20" opacity="0.27"/><circle cx="783.9" cy="570.8" r="1.94" fill="#bd6b20" opacity="0.16"/><circle cx="824.4" cy="571.2" r="1.78" fill="#bd6b20" opacity="0.35"/><circle cx="855.3" cy="567.4" r="2.46" fill="#bd6b20" opacity="0.32"/><circle cx="896.1" cy="570.5" r="2.55" fill="#bd6b20" opacity="0.34"/><circle cx="931.0" cy="567.9" r="3.50" fill="#bd6b20" opacity="0.18"/><circle cx="963.8" cy="570.8" r="3.67" fill="#bd6b20" opacity="0.33"/><circle cx="1002.2" cy="570.0" r="2.03" fill="#bd6b20" opacity="0.31"/><circle cx="1040.0" cy="569.3" r="3.66" fill="#bd6b20" opacity="0.30"/><circle cx="1076.5" cy="567.5" r="1.64" fill="#bd6b20" opacity="0.32"/><circle cx="1110.1" cy="571.2" r="2.03" fill="#bd6b20" opacity="0.17"/><circle cx="1146.8" cy="571.3" r="2.37" fill="#bd6b20" opacity="0.26"/><circle cx="1183.2" cy="571.3" r="1.92" fill="#bd6b20" opacity="0.27"/><circle cx="29.3" cy="606.1" r="2.15" fill="#bd6b20" opacity="0.21"/><circle cx="66.1" cy="604.7" r="2.55" fill="#bd6b20" opacity="0.33"/><circle cx="102.0" cy="608.5" r="2.76" fill="#bd6b20" opacity="0.36"/><circle cx="140.4" cy="603.5" r="3.83" fill="#bd6b20" opacity="0.15"/><circle cx="172.9" cy="607.7" r="3.55" fill="#bd6b20" opacity="0.15"/><circle cx="212.0" cy="603.1" r="2.21" fill="#bd6b20" opacity="0.23"/><circle cx="246.7" cy="603.3" r="3.35" fill="#bd6b20" opacity="0.25"/><circle cx="282.6" cy="603.4" r="2.46" fill="#bd6b20" opacity="0.20"/><circle cx="317.6" cy="605.6" r="3.43" fill="#bd6b20" opacity="0.32"/><circle cx="356.5" cy="608.4" r="3.26" fill="#bd6b20" opacity="0.19"/><circle cx="392.7" cy="608.0" r="2.45" fill="#bd6b20" opacity="0.29"/><circle cx="428.0" cy="605.7" r="2.84" fill="#bd6b20" opacity="0.20"/><circle cx="461.1" cy="606.0" r="3.13" fill="#bd6b20" opacity="0.27"/><circle cx="495.7" cy="607.3" r="1.75" fill="#bd6b20" opacity="0.19"/><circle cx="531.9" cy="604.9" r="2.13" fill="#bd6b20" opacity="0.18"/><circle cx="572.2" cy="603.6" r="3.40" fill="#bd6b20" opacity="0.30"/><circle cx="608.8" cy="607.9" r="2.38" fill="#bd6b20" opacity="0.27"/><circle cx="640.6" cy="604.6" r="3.33" fill="#bd6b20" opacity="0.21"/><circle cx="677.3" cy="605.4" r="2.86" fill="#bd6b20" opacity="0.26"/><circle cx="715.0" cy="605.0" r="3.11" fill="#bd6b20" opacity="0.25"/><circle cx="751.7" cy="605.9" r="3.48" fill="#bd6b20" opacity="0.33"/><circle cx="783.9" cy="605.9" r="2.23" fill="#bd6b20" opacity="0.21"/><circle cx="820.1" cy="608.8" r="2.08" fill="#bd6b20" opacity="0.23"/><circle cx="858.6" cy="607.2" r="2.53" fill="#bd6b20" opacity="0.16"/><circle cx="896.6" cy="608.8" r="3.97" fill="#bd6b20" opacity="0.21"/><circle cx="929.1" cy="608.8" r="3.06" fill="#bd6b20" opacity="0.30"/><circle cx="966.8" cy="606.6" r="1.98" fill="#bd6b20" opacity="0.18"/><circle cx="999.2" cy="605.0" r="3.58" fill="#bd6b20" opacity="0.27"/><circle cx="1040.8" cy="604.2" r="3.65" fill="#bd6b20" opacity="0.34"/><circle cx="1075.5" cy="608.4" r="2.57" fill="#bd6b20" opacity="0.20"/><circle cx="1112.3" cy="608.4" r="2.50" fill="#bd6b20" opacity="0.21"/><circle cx="1145.6" cy="605.0" r="2.72" fill="#bd6b20" opacity="0.18"/><circle cx="1180.8" cy="604.1" r="3.46" fill="#bd6b20" opacity="0.32"/><circle cx="32.5" cy="639.2" r="3.35" fill="#bd6b20" opacity="0.18"/><circle cx="65.6" cy="644.6" r="1.93" fill="#bd6b20" opacity="0.25"/><circle cx="104.3" cy="644.3" r="3.40" fill="#bd6b20" opacity="0.22"/><circle cx="140.1" cy="643.0" r="3.32" fill="#bd6b20" opacity="0.31"/><circle cx="173.5" cy="641.7" r="2.82" fill="#bd6b20" opacity="0.28"/><circle cx="208.4" cy="640.6" r="2.43" fill="#bd6b20" opacity="0.30"/><circle cx="248.3" cy="643.8" r="2.11" fill="#bd6b20" opacity="0.15"/><circle cx="283.3" cy="640.8" r="2.43" fill="#bd6b20" opacity="0.24"/><circle cx="319.2" cy="644.1" r="2.09" fill="#bd6b20" opacity="0.26"/><circle cx="351.8" cy="641.3" r="2.14" fill="#bd6b20" opacity="0.26"/><circle cx="388.5" cy="641.1" r="3.12" fill="#bd6b20" opacity="0.22"/><circle cx="428.1" cy="644.3" r="3.17" fill="#bd6b20" opacity="0.16"/><circle cx="463.5" cy="644.3" r="3.05" fill="#bd6b20" opacity="0.16"/><circle cx="496.1" cy="639.1" r="2.82" fill="#bd6b20" opacity="0.21"/><circle cx="535.8" cy="643.8" r="3.92" fill="#bd6b20" opacity="0.24"/><circle cx="571.9" cy="640.4" r="3.17" fill="#bd6b20" opacity="0.19"/><circle cx="605.0" cy="641.4" r="1.96" fill="#bd6b20" opacity="0.15"/><circle cx="640.4" cy="640.8" r="1.71" fill="#bd6b20" opacity="0.23"/><circle cx="679.5" cy="644.8" r="1.71" fill="#bd6b20" opacity="0.20"/><circle cx="714.1" cy="643.1" r="3.83" fill="#bd6b20" opacity="0.20"/><circle cx="749.1" cy="639.6" r="2.30" fill="#bd6b20" opacity="0.24"/><circle cx="784.6" cy="642.7" r="3.99" fill="#bd6b20" opacity="0.28"/><circle cx="820.6" cy="645.0" r="3.21" fill="#bd6b20" opacity="0.27"/><circle cx="860.7" cy="639.3" r="3.80" fill="#bd6b20" opacity="0.22"/><circle cx="896.5" cy="639.8" r="2.51" fill="#bd6b20" opacity="0.22"/><circle cx="928.0" cy="643.4" r="3.34" fill="#bd6b20" opacity="0.29"/><circle cx="968.9" cy="643.3" r="3.98" fill="#bd6b20" opacity="0.34"/><circle cx="1004.1" cy="642.1" r="2.77" fill="#bd6b20" opacity="0.21"/><circle cx="1040.4" cy="644.2" r="2.15" fill="#bd6b20" opacity="0.21"/><circle cx="1075.7" cy="643.7" r="3.16" fill="#bd6b20" opacity="0.17"/><circle cx="1111.9" cy="639.1" r="1.76" fill="#bd6b20" opacity="0.17"/><circle cx="1145.4" cy="642.2" r="3.97" fill="#bd6b20" opacity="0.28"/><circle cx="1184.8" cy="641.1" r="2.55" fill="#bd6b20" opacity="0.31"/><circle cx="203.4" cy="230.9" r="220" fill="url(#glow)" opacity="0.9"/>
  <g opacity="0.85" transform="translate(1020, 495)">
        <circle r="60" fill="#bd6b20" opacity="0.18"/>
        <path d="M -34 6 Q -10 -22 14 6 Q 34 24 14 26 L -22 26 Q -38 24 -34 6 Z" fill="none" stroke="#9a5518" stroke-width="3" stroke-linejoin="round"/>
      </g>
  <g transform="translate(80, 90)">
    <rect x="0" y="0" rx="20" ry="20" width="134" height="38" fill="#bd6b20" opacity="0.18" stroke="#bd6b20" stroke-width="1.5"/>
    <text x="67" y="25" font-family="ui-sans-serif, Inter, sans-serif" font-weight="700" font-size="14" letter-spacing="2.5" fill="#bd6b20" text-anchor="middle">CASE STUDY</text>
  </g>
  <text x="80" y="465" font-family="ui-sans-serif, -apple-system, Segoe UI, Inter, sans-serif" font-weight="800" font-size="44" fill="#12100e" opacity="0.98"><tspan x="80" dy="0">Resolving a Family-Related</tspan><tspan x="80" dy="56">Business Dispute: A Case</tspan><tspan x="80" dy="56">Study</tspan></text>
  <rect x="0" y="669" width="1200" height="6" fill="url(#gold)"/>
</svg>