<?xml version="1.0" encoding="UTF-8"?>
<svg xmlns="http://www.w3.org/2000/svg" viewBox="0 0 1200 675" width="1200" height="675" role="img" aria-label="Cycle Manufacturing Company Resolves Dispute with Distributor through Mediation">
  <defs>
    <linearGradient id="bg" x1="0%" y1="0%" x2="100%" y2="100%">
      <stop offset="0%" stop-color="#12100e"/>
      <stop offset="100%" stop-color="#1c1917"/>
    </linearGradient>
    <linearGradient id="gold" x1="0%" y1="0%" x2="100%" y2="100%">
      <stop offset="0%" stop-color="#bd6b20"/>
      <stop offset="100%" stop-color="#e09440"/>
    </linearGradient>
    <radialGradient id="glow" cx="50%" cy="50%" r="50%">
      <stop offset="0%" stop-color="#bd6b20" stop-opacity="0.45"/>
      <stop offset="100%" stop-color="#bd6b20" stop-opacity="0"/>
    </radialGradient>
  </defs>
  <rect width="1200" height="675" fill="url(#bg)"/>
  <circle cx="31.4" cy="27.6" r="2.69" fill="#bd6b20" opacity="0.30"/><circle cx="68.0" cy="29.3" r="1.84" fill="#bd6b20" opacity="0.25"/><circle cx="103.5" cy="32.3" r="2.74" fill="#bd6b20" opacity="0.20"/><circle cx="135.3" cy="31.7" r="2.38" fill="#bd6b20" opacity="0.32"/><circle cx="175.5" cy="32.5" r="2.00" fill="#bd6b20" opacity="0.17"/><circle cx="207.6" cy="28.9" r="2.70" fill="#bd6b20" opacity="0.33"/><circle cx="248.2" cy="29.3" r="2.33" fill="#bd6b20" opacity="0.35"/><circle cx="281.7" cy="27.7" r="2.37" fill="#bd6b20" opacity="0.27"/><circle cx="320.4" cy="30.8" r="1.98" fill="#bd6b20" opacity="0.24"/><circle cx="353.2" cy="32.6" r="2.55" fill="#bd6b20" opacity="0.35"/><circle cx="391.4" cy="28.8" r="3.37" fill="#bd6b20" opacity="0.29"/><circle cx="428.9" cy="28.1" r="3.03" fill="#bd6b20" opacity="0.26"/><circle cx="459.1" cy="29.2" r="2.61" fill="#bd6b20" opacity="0.19"/><circle cx="496.5" cy="29.6" r="2.89" fill="#bd6b20" opacity="0.32"/><circle cx="535.9" cy="30.5" r="3.62" fill="#bd6b20" opacity="0.16"/><circle cx="568.5" cy="32.5" r="2.45" fill="#bd6b20" opacity="0.35"/><circle cx="603.4" cy="29.0" r="3.84" fill="#bd6b20" opacity="0.20"/><circle cx="639.8" cy="32.1" r="1.88" fill="#bd6b20" opacity="0.21"/><circle cx="678.9" cy="27.7" r="1.62" fill="#bd6b20" opacity="0.27"/><circle cx="716.1" cy="29.9" r="3.92" fill="#bd6b20" opacity="0.17"/><circle cx="752.7" cy="31.8" r="3.31" fill="#bd6b20" opacity="0.31"/><circle cx="786.0" cy="27.2" r="1.92" fill="#bd6b20" opacity="0.32"/><circle cx="823.4" cy="31.3" r="3.11" fill="#bd6b20" opacity="0.30"/><circle cx="859.9" cy="29.2" r="1.75" fill="#bd6b20" opacity="0.31"/><circle cx="892.3" cy="31.5" r="1.91" fill="#bd6b20" opacity="0.17"/><circle cx="931.8" cy="32.8" r="2.14" fill="#bd6b20" opacity="0.17"/><circle cx="964.4" cy="27.1" r="2.64" fill="#bd6b20" opacity="0.30"/><circle cx="1001.1" cy="30.6" r="3.90" fill="#bd6b20" opacity="0.25"/><circle cx="1038.7" cy="32.2" r="2.79" fill="#bd6b20" opacity="0.31"/><circle cx="1071.8" cy="29.5" r="2.43" fill="#bd6b20" opacity="0.31"/><circle cx="1109.2" cy="29.3" r="2.24" fill="#bd6b20" opacity="0.30"/><circle cx="1143.5" cy="32.9" r="1.77" fill="#bd6b20" opacity="0.23"/><circle cx="1179.0" cy="32.5" r="1.81" fill="#bd6b20" opacity="0.17"/><circle cx="30.7" cy="64.5" r="3.61" fill="#bd6b20" opacity="0.28"/><circle cx="68.1" cy="68.0" r="1.73" fill="#bd6b20" opacity="0.16"/><circle cx="101.1" cy="66.3" r="3.59" fill="#bd6b20" opacity="0.31"/><circle cx="135.4" cy="63.8" r="2.39" fill="#bd6b20" opacity="0.30"/><circle cx="176.4" cy="63.3" r="3.53" fill="#bd6b20" opacity="0.30"/><circle cx="211.9" cy="64.7" r="3.32" fill="#bd6b20" opacity="0.30"/><circle cx="244.9" cy="64.9" r="3.49" fill="#bd6b20" opacity="0.27"/><circle cx="280.7" cy="65.3" r="2.11" fill="#bd6b20" opacity="0.20"/><circle cx="317.4" cy="63.3" r="2.19" fill="#bd6b20" opacity="0.19"/><circle cx="355.0" cy="66.4" r="3.74" fill="#bd6b20" opacity="0.31"/><circle cx="387.0" cy="66.0" r="3.62" fill="#bd6b20" opacity="0.34"/><circle cx="427.2" cy="63.6" r="1.92" fill="#bd6b20" opacity="0.33"/><circle cx="462.7" cy="67.6" r="1.61" fill="#bd6b20" opacity="0.34"/><circle cx="495.1" cy="68.1" r="3.84" fill="#bd6b20" opacity="0.18"/><circle cx="531.0" cy="63.2" r="2.63" fill="#bd6b20" opacity="0.19"/><circle cx="572.8" cy="64.9" r="2.55" fill="#bd6b20" opacity="0.34"/><circle cx="604.4" cy="67.0" r="3.45" fill="#bd6b20" opacity="0.34"/><circle cx="643.5" cy="63.8" r="1.78" fill="#bd6b20" opacity="0.19"/><circle cx="677.6" cy="63.1" r="2.87" fill="#bd6b20" opacity="0.31"/><circle cx="715.4" cy="67.0" r="3.21" fill="#bd6b20" opacity="0.25"/><circle cx="749.2" cy="66.4" r="4.00" fill="#bd6b20" opacity="0.28"/><circle cx="783.6" cy="63.7" r="2.82" fill="#bd6b20" opacity="0.32"/><circle cx="820.3" cy="65.5" r="1.81" fill="#bd6b20" opacity="0.15"/><circle cx="856.1" cy="65.8" r="2.40" fill="#bd6b20" opacity="0.26"/><circle cx="895.1" cy="65.3" r="3.34" fill="#bd6b20" opacity="0.26"/><circle cx="932.2" cy="65.0" r="1.86" fill="#bd6b20" opacity="0.30"/><circle cx="963.2" cy="63.2" r="1.88" fill="#bd6b20" opacity="0.25"/><circle cx="1002.7" cy="68.6" r="3.30" fill="#bd6b20" opacity="0.32"/><circle cx="1037.2" cy="67.3" r="3.70" fill="#bd6b20" opacity="0.22"/><circle cx="1076.4" cy="67.3" r="2.79" fill="#bd6b20" opacity="0.32"/><circle cx="1110.3" cy="68.1" r="3.92" fill="#bd6b20" opacity="0.19"/><circle cx="1147.9" cy="63.1" r="1.98" fill="#bd6b20" opacity="0.19"/><circle cx="1182.9" cy="63.4" r="2.81" fill="#bd6b20" opacity="0.26"/><circle cx="27.3" cy="103.8" r="3.35" fill="#bd6b20" opacity="0.26"/><circle cx="64.4" cy="103.2" r="2.24" fill="#bd6b20" opacity="0.32"/><circle cx="101.3" cy="100.2" r="2.95" fill="#bd6b20" opacity="0.32"/><circle cx="139.0" cy="104.4" r="2.54" fill="#bd6b20" opacity="0.32"/><circle cx="173.5" cy="101.2" r="3.75" fill="#bd6b20" opacity="0.27"/><circle cx="208.5" cy="102.7" r="2.12" fill="#bd6b20" opacity="0.30"/><circle cx="248.4" cy="103.0" r="3.82" fill="#bd6b20" opacity="0.30"/><circle cx="279.7" cy="99.2" r="2.91" fill="#bd6b20" opacity="0.24"/><circle cx="315.1" cy="100.3" r="3.79" fill="#bd6b20" opacity="0.31"/><circle cx="354.0" cy="105.0" r="3.21" fill="#bd6b20" opacity="0.35"/><circle cx="392.1" cy="102.6" r="2.45" fill="#bd6b20" opacity="0.30"/><circle cx="424.4" cy="103.9" r="3.71" fill="#bd6b20" opacity="0.17"/><circle cx="461.7" cy="104.6" r="3.69" fill="#bd6b20" opacity="0.16"/><circle cx="497.8" cy="101.4" r="3.73" fill="#bd6b20" opacity="0.23"/><circle cx="535.9" cy="101.5" r="2.83" fill="#bd6b20" opacity="0.24"/><circle cx="569.3" cy="100.3" r="2.69" fill="#bd6b20" opacity="0.22"/><circle cx="603.2" cy="100.8" r="3.24" fill="#bd6b20" opacity="0.22"/><circle cx="641.1" cy="102.8" r="2.67" fill="#bd6b20" opacity="0.16"/><circle cx="679.8" cy="103.9" r="1.72" fill="#bd6b20" opacity="0.20"/><circle cx="713.8" cy="102.4" r="2.79" fill="#bd6b20" opacity="0.17"/><circle cx="748.8" cy="103.2" r="2.71" fill="#bd6b20" opacity="0.24"/><circle cx="785.0" cy="99.1" r="2.81" fill="#bd6b20" opacity="0.25"/><circle cx="822.7" cy="99.8" r="2.69" fill="#bd6b20" opacity="0.20"/><circle cx="859.8" cy="99.1" r="3.59" fill="#bd6b20" opacity="0.17"/><circle cx="893.7" cy="100.2" r="2.39" fill="#bd6b20" opacity="0.24"/><circle cx="930.8" cy="101.0" r="1.96" fill="#bd6b20" opacity="0.23"/><circle cx="967.1" cy="103.6" r="3.22" fill="#bd6b20" opacity="0.33"/><circle cx="1002.6" cy="105.0" r="2.44" fill="#bd6b20" opacity="0.34"/><circle cx="1035.1" cy="102.0" r="2.38" fill="#bd6b20" opacity="0.22"/><circle cx="1076.2" cy="104.6" r="2.91" fill="#bd6b20" opacity="0.28"/><circle cx="1111.4" cy="103.1" r="3.78" fill="#bd6b20" opacity="0.29"/><circle cx="1146.1" cy="102.7" r="1.63" fill="#bd6b20" opacity="0.15"/><circle cx="1183.5" cy="99.7" r="2.73" fill="#bd6b20" opacity="0.34"/><circle cx="32.8" cy="137.5" r="3.66" fill="#bd6b20" opacity="0.19"/><circle cx="68.0" cy="137.6" r="3.58" fill="#bd6b20" opacity="0.18"/><circle cx="102.4" cy="136.7" r="3.56" fill="#bd6b20" opacity="0.33"/><circle cx="139.1" cy="140.7" r="3.18" fill="#bd6b20" opacity="0.21"/><circle cx="171.8" cy="136.6" r="2.37" fill="#bd6b20" opacity="0.18"/><circle cx="212.2" cy="137.2" r="1.97" fill="#bd6b20" opacity="0.25"/><circle cx="243.7" cy="140.1" r="3.03" fill="#bd6b20" opacity="0.36"/><circle cx="280.0" cy="135.9" r="2.09" fill="#bd6b20" opacity="0.33"/><circle cx="318.9" cy="138.7" r="2.78" fill="#bd6b20" opacity="0.28"/><circle cx="354.8" cy="136.0" r="2.75" fill="#bd6b20" opacity="0.17"/><circle cx="392.0" cy="137.8" r="1.91" fill="#bd6b20" opacity="0.16"/><circle cx="427.9" cy="139.6" r="3.73" fill="#bd6b20" opacity="0.21"/><circle cx="459.0" cy="136.9" r="3.24" fill="#bd6b20" opacity="0.24"/><circle cx="497.7" cy="137.8" r="1.96" fill="#bd6b20" opacity="0.20"/><circle cx="535.2" cy="140.6" r="3.06" fill="#bd6b20" opacity="0.17"/><circle cx="572.3" cy="136.2" r="3.42" fill="#bd6b20" opacity="0.36"/><circle cx="608.3" cy="139.0" r="2.01" fill="#bd6b20" opacity="0.16"/><circle cx="640.6" cy="138.0" r="3.29" fill="#bd6b20" opacity="0.31"/><circle cx="679.2" cy="137.3" r="3.56" fill="#bd6b20" opacity="0.33"/><circle cx="712.1" cy="138.4" r="2.76" fill="#bd6b20" opacity="0.31"/><circle cx="750.9" cy="135.3" r="2.28" fill="#bd6b20" opacity="0.30"/><circle cx="788.0" cy="139.2" r="3.92" fill="#bd6b20" opacity="0.17"/><circle cx="820.5" cy="135.5" r="3.29" fill="#bd6b20" opacity="0.28"/><circle cx="858.3" cy="137.5" r="2.19" fill="#bd6b20" opacity="0.21"/><circle cx="891.2" cy="138.6" r="3.02" fill="#bd6b20" opacity="0.31"/><circle cx="931.1" cy="139.2" r="2.35" fill="#bd6b20" opacity="0.17"/><circle cx="966.9" cy="136.8" r="3.15" fill="#bd6b20" opacity="0.34"/><circle cx="1002.1" cy="140.3" r="1.86" fill="#bd6b20" opacity="0.26"/><circle cx="1040.9" cy="137.0" r="1.98" fill="#bd6b20" opacity="0.22"/><circle cx="1071.4" cy="140.0" r="2.94" fill="#bd6b20" opacity="0.27"/><circle cx="1111.9" cy="135.6" r="2.69" fill="#bd6b20" opacity="0.23"/><circle cx="1144.5" cy="139.0" r="2.97" fill="#bd6b20" opacity="0.33"/><circle cx="1181.7" cy="140.3" r="3.54" fill="#bd6b20" opacity="0.27"/><circle cx="30.8" cy="176.2" r="2.05" fill="#bd6b20" opacity="0.27"/><circle cx="64.8" cy="174.7" r="3.68" fill="#bd6b20" opacity="0.32"/><circle cx="103.5" cy="176.3" r="2.10" fill="#bd6b20" opacity="0.17"/><circle cx="137.7" cy="171.8" r="2.35" fill="#bd6b20" opacity="0.18"/><circle cx="173.9" cy="172.6" r="2.66" fill="#bd6b20" opacity="0.21"/><circle cx="212.2" cy="174.2" r="1.85" fill="#bd6b20" opacity="0.22"/><circle cx="246.5" cy="174.0" r="1.91" fill="#bd6b20" opacity="0.32"/><circle cx="280.8" cy="176.9" r="3.00" fill="#bd6b20" opacity="0.25"/><circle cx="320.5" cy="171.6" r="1.63" fill="#bd6b20" opacity="0.31"/><circle cx="355.4" cy="174.6" r="1.63" fill="#bd6b20" opacity="0.20"/><circle cx="389.6" cy="175.1" r="2.32" fill="#bd6b20" opacity="0.21"/><circle cx="426.4" cy="172.4" r="3.47" fill="#bd6b20" opacity="0.29"/><circle cx="460.9" cy="175.2" r="3.92" fill="#bd6b20" opacity="0.35"/><circle cx="498.7" cy="173.8" r="2.48" fill="#bd6b20" opacity="0.33"/><circle cx="535.1" cy="174.3" r="1.85" fill="#bd6b20" opacity="0.20"/><circle cx="569.2" cy="173.1" r="3.25" fill="#bd6b20" opacity="0.31"/><circle cx="604.9" cy="171.4" r="1.66" fill="#bd6b20" opacity="0.16"/><circle cx="643.3" cy="176.6" r="3.08" fill="#bd6b20" opacity="0.30"/><circle cx="677.6" cy="176.7" r="2.96" fill="#bd6b20" opacity="0.23"/><circle cx="716.1" cy="176.2" r="1.96" fill="#bd6b20" opacity="0.27"/><circle cx="749.8" cy="173.4" r="2.09" fill="#bd6b20" opacity="0.23"/><circle cx="787.2" cy="175.8" r="1.78" fill="#bd6b20" opacity="0.33"/><circle cx="820.6" cy="175.5" r="1.80" fill="#bd6b20" opacity="0.24"/><circle cx="859.1" cy="173.6" r="1.76" fill="#bd6b20" opacity="0.31"/><circle cx="891.5" cy="177.0" r="2.15" fill="#bd6b20" opacity="0.15"/><circle cx="931.8" cy="175.6" r="3.17" fill="#bd6b20" opacity="0.26"/><circle cx="965.5" cy="173.0" r="3.43" fill="#bd6b20" opacity="0.23"/><circle cx="1003.5" cy="175.0" r="3.11" fill="#bd6b20" opacity="0.24"/><circle cx="1037.7" cy="173.8" r="2.41" fill="#bd6b20" opacity="0.30"/><circle cx="1074.7" cy="173.1" r="3.39" fill="#bd6b20" opacity="0.16"/><circle cx="1111.4" cy="175.0" r="2.73" fill="#bd6b20" opacity="0.24"/><circle cx="1143.2" cy="172.0" r="3.11" fill="#bd6b20" opacity="0.16"/><circle cx="1182.8" cy="176.2" r="1.79" fill="#bd6b20" opacity="0.20"/><circle cx="28.7" cy="211.3" r="3.03" fill="#bd6b20" opacity="0.30"/><circle cx="67.5" cy="212.0" r="3.21" fill="#bd6b20" opacity="0.20"/><circle cx="103.4" cy="210.4" r="2.74" fill="#bd6b20" opacity="0.23"/><circle cx="135.3" cy="211.9" r="2.46" fill="#bd6b20" opacity="0.16"/><circle cx="172.2" cy="211.6" r="1.87" fill="#bd6b20" opacity="0.18"/><circle cx="210.8" cy="210.6" r="3.35" fill="#bd6b20" opacity="0.32"/><circle cx="246.1" cy="211.5" r="2.68" fill="#bd6b20" opacity="0.19"/><circle cx="279.2" cy="209.5" r="2.90" fill="#bd6b20" opacity="0.27"/><circle cx="318.0" cy="209.4" r="2.91" fill="#bd6b20" opacity="0.35"/><circle cx="353.4" cy="211.7" r="3.38" fill="#bd6b20" opacity="0.33"/><circle cx="389.4" cy="212.6" r="1.88" fill="#bd6b20" opacity="0.26"/><circle cx="425.4" cy="208.5" r="3.14" fill="#bd6b20" opacity="0.25"/><circle cx="462.7" cy="211.6" r="2.92" fill="#bd6b20" opacity="0.20"/><circle cx="497.7" cy="211.1" r="1.77" fill="#bd6b20" opacity="0.17"/><circle cx="531.1" cy="208.0" r="1.66" fill="#bd6b20" opacity="0.32"/><circle cx="568.9" cy="207.2" r="2.22" fill="#bd6b20" opacity="0.27"/><circle cx="605.1" cy="211.1" r="1.65" fill="#bd6b20" opacity="0.20"/><circle cx="642.6" cy="209.2" r="3.76" fill="#bd6b20" opacity="0.28"/><circle cx="680.7" cy="207.1" r="2.87" fill="#bd6b20" opacity="0.31"/><circle cx="711.5" cy="208.7" r="2.90" fill="#bd6b20" opacity="0.19"/><circle cx="748.5" cy="207.7" r="1.92" fill="#bd6b20" opacity="0.22"/><circle cx="787.8" cy="210.9" r="1.99" fill="#bd6b20" opacity="0.35"/><circle cx="819.2" cy="212.1" r="1.83" fill="#bd6b20" opacity="0.16"/><circle cx="860.3" cy="210.0" r="2.16" fill="#bd6b20" opacity="0.18"/><circle cx="893.8" cy="212.9" r="3.42" fill="#bd6b20" opacity="0.17"/><circle cx="929.1" cy="210.9" r="3.51" fill="#bd6b20" opacity="0.24"/><circle cx="965.0" cy="208.1" r="3.73" fill="#bd6b20" opacity="0.26"/><circle cx="1002.4" cy="210.2" r="1.62" fill="#bd6b20" opacity="0.16"/><circle cx="1040.3" cy="210.6" r="2.82" fill="#bd6b20" opacity="0.17"/><circle cx="1075.7" cy="210.4" r="3.64" fill="#bd6b20" opacity="0.21"/><circle cx="1108.5" cy="207.7" r="1.87" fill="#bd6b20" opacity="0.29"/><circle cx="1147.8" cy="210.6" r="3.17" fill="#bd6b20" opacity="0.22"/><circle cx="1181.1" cy="209.7" r="3.42" fill="#bd6b20" opacity="0.24"/><circle cx="27.3" cy="244.5" r="2.21" fill="#bd6b20" opacity="0.26"/><circle cx="64.1" cy="243.2" r="3.27" fill="#bd6b20" opacity="0.31"/><circle cx="100.5" cy="247.8" r="3.22" fill="#bd6b20" opacity="0.20"/><circle cx="136.5" cy="244.5" r="1.80" fill="#bd6b20" opacity="0.22"/><circle cx="173.3" cy="246.5" r="3.27" fill="#bd6b20" opacity="0.18"/><circle cx="208.0" cy="247.6" r="3.81" fill="#bd6b20" opacity="0.19"/><circle cx="244.6" cy="246.5" r="2.97" fill="#bd6b20" opacity="0.23"/><circle cx="282.2" cy="244.0" r="2.20" fill="#bd6b20" opacity="0.35"/><circle cx="317.3" cy="247.2" r="2.39" fill="#bd6b20" opacity="0.26"/><circle cx="353.9" cy="243.4" r="2.04" fill="#bd6b20" opacity="0.29"/><circle cx="390.7" cy="243.5" r="2.76" fill="#bd6b20" opacity="0.33"/><circle cx="427.2" cy="246.8" r="2.99" fill="#bd6b20" opacity="0.25"/><circle cx="462.7" cy="247.1" r="3.13" fill="#bd6b20" opacity="0.19"/><circle cx="500.1" cy="244.6" r="2.36" fill="#bd6b20" opacity="0.27"/><circle cx="535.1" cy="243.6" r="2.26" fill="#bd6b20" opacity="0.32"/><circle cx="570.2" cy="248.8" r="3.66" fill="#bd6b20" opacity="0.30"/><circle cx="603.8" cy="244.1" r="3.81" fill="#bd6b20" opacity="0.19"/><circle cx="644.0" cy="248.9" r="2.77" fill="#bd6b20" opacity="0.29"/><circle cx="679.9" cy="247.1" r="1.75" fill="#bd6b20" opacity="0.19"/><circle cx="714.1" cy="246.7" r="2.82" fill="#bd6b20" opacity="0.25"/><circle cx="752.3" cy="244.0" r="3.86" fill="#bd6b20" opacity="0.20"/><circle cx="785.9" cy="245.5" r="2.45" fill="#bd6b20" opacity="0.33"/><circle cx="822.9" cy="245.3" r="1.65" fill="#bd6b20" opacity="0.34"/><circle cx="856.8" cy="245.7" r="2.08" fill="#bd6b20" opacity="0.35"/><circle cx="896.9" cy="244.7" r="1.69" fill="#bd6b20" opacity="0.15"/><circle cx="932.7" cy="245.0" r="2.51" fill="#bd6b20" opacity="0.25"/><circle cx="964.0" cy="248.9" r="2.17" fill="#bd6b20" opacity="0.33"/><circle cx="1001.0" cy="247.3" r="2.76" fill="#bd6b20" opacity="0.26"/><circle cx="1039.5" cy="248.4" r="2.08" fill="#bd6b20" opacity="0.36"/><circle cx="1075.7" cy="243.2" r="2.93" fill="#bd6b20" opacity="0.23"/><circle cx="1109.3" cy="247.8" r="2.57" fill="#bd6b20" opacity="0.27"/><circle cx="1145.8" cy="246.1" r="3.42" fill="#bd6b20" opacity="0.18"/><circle cx="1180.5" cy="246.0" r="1.65" fill="#bd6b20" opacity="0.32"/><circle cx="29.6" cy="279.9" r="1.69" fill="#bd6b20" opacity="0.21"/><circle cx="68.9" cy="282.4" r="2.30" fill="#bd6b20" opacity="0.25"/><circle cx="103.8" cy="283.6" r="3.29" fill="#bd6b20" opacity="0.18"/><circle cx="136.1" cy="279.3" r="3.39" fill="#bd6b20" opacity="0.31"/><circle cx="173.0" cy="281.2" r="2.64" fill="#bd6b20" opacity="0.27"/><circle cx="210.0" cy="283.5" r="2.56" fill="#bd6b20" opacity="0.17"/><circle cx="246.4" cy="280.5" r="1.69" fill="#bd6b20" opacity="0.22"/><circle cx="279.0" cy="283.4" r="2.97" fill="#bd6b20" opacity="0.16"/><circle cx="316.0" cy="281.0" r="2.21" fill="#bd6b20" opacity="0.18"/><circle cx="352.2" cy="282.8" r="3.54" fill="#bd6b20" opacity="0.15"/><circle cx="392.2" cy="283.1" r="2.52" fill="#bd6b20" opacity="0.22"/><circle cx="425.2" cy="280.4" r="2.02" fill="#bd6b20" opacity="0.25"/><circle cx="462.0" cy="280.4" r="2.68" fill="#bd6b20" opacity="0.19"/><circle cx="498.4" cy="280.4" r="2.30" fill="#bd6b20" opacity="0.17"/><circle cx="534.5" cy="283.1" r="2.13" fill="#bd6b20" opacity="0.26"/><circle cx="570.6" cy="282.6" r="3.65" fill="#bd6b20" opacity="0.18"/><circle cx="604.7" cy="280.9" r="3.27" fill="#bd6b20" opacity="0.27"/><circle cx="641.5" cy="279.0" r="2.23" fill="#bd6b20" opacity="0.18"/><circle cx="680.1" cy="282.6" r="3.91" fill="#bd6b20" opacity="0.28"/><circle cx="715.8" cy="280.8" r="1.89" fill="#bd6b20" opacity="0.29"/><circle cx="750.5" cy="280.8" r="1.72" fill="#bd6b20" opacity="0.19"/><circle cx="783.8" cy="284.7" r="3.17" fill="#bd6b20" opacity="0.18"/><circle cx="824.1" cy="279.3" r="1.64" fill="#bd6b20" opacity="0.34"/><circle cx="860.0" cy="283.3" r="2.38" fill="#bd6b20" opacity="0.21"/><circle cx="892.0" cy="283.0" r="3.65" fill="#bd6b20" opacity="0.29"/><circle cx="930.7" cy="281.9" r="3.00" fill="#bd6b20" opacity="0.28"/><circle cx="968.6" cy="280.6" r="3.60" fill="#bd6b20" opacity="0.28"/><circle cx="1000.9" cy="283.4" r="3.96" fill="#bd6b20" opacity="0.17"/><circle cx="1039.4" cy="282.0" r="3.74" fill="#bd6b20" opacity="0.28"/><circle cx="1075.7" cy="284.4" r="3.67" fill="#bd6b20" opacity="0.18"/><circle cx="1107.7" cy="284.2" r="3.62" fill="#bd6b20" opacity="0.17"/><circle cx="1143.9" cy="280.9" r="2.80" fill="#bd6b20" opacity="0.34"/><circle cx="1181.7" cy="284.6" r="1.99" fill="#bd6b20" opacity="0.18"/><circle cx="31.3" cy="321.0" r="3.27" fill="#bd6b20" opacity="0.34"/><circle cx="65.8" cy="317.6" r="3.83" fill="#bd6b20" opacity="0.16"/><circle cx="100.1" cy="318.5" r="3.28" fill="#bd6b20" opacity="0.23"/><circle cx="139.7" cy="316.3" r="2.80" fill="#bd6b20" opacity="0.29"/><circle cx="171.4" cy="320.5" r="2.24" fill="#bd6b20" opacity="0.21"/><circle cx="207.4" cy="318.8" r="1.98" fill="#bd6b20" opacity="0.21"/><circle cx="247.7" cy="320.1" r="1.66" fill="#bd6b20" opacity="0.19"/><circle cx="283.4" cy="317.5" r="3.37" fill="#bd6b20" opacity="0.30"/><circle cx="315.3" cy="320.5" r="2.65" fill="#bd6b20" opacity="0.19"/><circle cx="351.8" cy="319.2" r="2.24" fill="#bd6b20" opacity="0.16"/><circle cx="391.1" cy="318.7" r="2.45" fill="#bd6b20" opacity="0.23"/><circle cx="426.2" cy="317.6" r="3.37" fill="#bd6b20" opacity="0.16"/><circle cx="460.4" cy="319.9" r="3.66" fill="#bd6b20" opacity="0.28"/><circle cx="497.2" cy="316.6" r="2.71" fill="#bd6b20" opacity="0.21"/><circle cx="535.2" cy="317.0" r="2.27" fill="#bd6b20" opacity="0.20"/><circle cx="571.6" cy="317.9" r="3.32" fill="#bd6b20" opacity="0.16"/><circle cx="606.1" cy="316.0" r="2.53" fill="#bd6b20" opacity="0.36"/><circle cx="644.4" cy="317.7" r="3.90" fill="#bd6b20" opacity="0.34"/><circle cx="680.2" cy="320.3" r="1.75" fill="#bd6b20" opacity="0.22"/><circle cx="714.4" cy="315.0" r="3.45" fill="#bd6b20" opacity="0.32"/><circle cx="748.4" cy="320.1" r="3.88" fill="#bd6b20" opacity="0.28"/><circle cx="785.6" cy="316.3" r="3.01" fill="#bd6b20" opacity="0.34"/><circle cx="820.9" cy="316.5" r="2.63" fill="#bd6b20" opacity="0.27"/><circle cx="860.7" cy="320.0" r="2.84" fill="#bd6b20" opacity="0.29"/><circle cx="895.9" cy="319.9" r="3.78" fill="#bd6b20" opacity="0.16"/><circle cx="932.2" cy="320.3" r="3.96" fill="#bd6b20" opacity="0.20"/><circle cx="963.7" cy="318.1" r="3.17" fill="#bd6b20" opacity="0.19"/><circle cx="1002.3" cy="318.5" r="1.90" fill="#bd6b20" opacity="0.22"/><circle cx="1036.9" cy="319.2" r="2.30" fill="#bd6b20" opacity="0.32"/><circle cx="1074.9" cy="316.3" r="3.39" fill="#bd6b20" opacity="0.18"/><circle cx="1108.1" cy="317.4" r="1.99" fill="#bd6b20" opacity="0.23"/><circle cx="1149.0" cy="319.4" r="2.35" fill="#bd6b20" opacity="0.26"/><circle cx="1179.3" cy="316.8" r="3.12" fill="#bd6b20" opacity="0.17"/><circle cx="31.5" cy="351.9" r="3.51" fill="#bd6b20" opacity="0.17"/><circle cx="67.6" cy="353.9" r="2.47" fill="#bd6b20" opacity="0.21"/><circle cx="100.5" cy="356.2" r="3.48" fill="#bd6b20" opacity="0.19"/><circle cx="138.3" cy="356.4" r="3.60" fill="#bd6b20" opacity="0.28"/><circle cx="172.8" cy="353.7" r="2.57" fill="#bd6b20" opacity="0.32"/><circle cx="207.3" cy="354.1" r="2.28" fill="#bd6b20" opacity="0.25"/><circle cx="246.5" cy="351.5" r="3.68" fill="#bd6b20" opacity="0.30"/><circle cx="283.4" cy="354.3" r="3.84" fill="#bd6b20" opacity="0.35"/><circle cx="318.4" cy="354.5" r="2.56" fill="#bd6b20" opacity="0.28"/><circle cx="354.8" cy="354.5" r="2.34" fill="#bd6b20" opacity="0.28"/><circle cx="391.8" cy="351.3" r="3.43" fill="#bd6b20" opacity="0.19"/><circle cx="423.9" cy="352.5" r="2.32" fill="#bd6b20" opacity="0.17"/><circle cx="459.9" cy="355.0" r="3.61" fill="#bd6b20" opacity="0.23"/><circle cx="495.8" cy="356.1" r="3.23" fill="#bd6b20" opacity="0.19"/><circle cx="535.1" cy="356.8" r="3.64" fill="#bd6b20" opacity="0.18"/><circle cx="570.0" cy="352.9" r="3.91" fill="#bd6b20" opacity="0.27"/><circle cx="606.9" cy="354.4" r="3.01" fill="#bd6b20" opacity="0.18"/><circle cx="643.7" cy="351.2" r="2.04" fill="#bd6b20" opacity="0.31"/><circle cx="676.1" cy="352.8" r="2.28" fill="#bd6b20" opacity="0.30"/><circle cx="715.9" cy="351.9" r="3.56" fill="#bd6b20" opacity="0.32"/><circle cx="748.3" cy="355.6" r="3.72" fill="#bd6b20" opacity="0.29"/><circle cx="783.8" cy="355.9" r="2.17" fill="#bd6b20" opacity="0.25"/><circle cx="819.4" cy="354.4" r="3.60" fill="#bd6b20" opacity="0.32"/><circle cx="859.9" cy="356.8" r="2.66" fill="#bd6b20" opacity="0.23"/><circle cx="894.4" cy="352.8" r="2.83" fill="#bd6b20" opacity="0.19"/><circle cx="928.7" cy="352.8" r="2.08" fill="#bd6b20" opacity="0.29"/><circle cx="969.0" cy="351.0" r="3.63" fill="#bd6b20" opacity="0.21"/><circle cx="999.7" cy="351.3" r="1.87" fill="#bd6b20" opacity="0.23"/><circle cx="1037.9" cy="354.3" r="3.08" fill="#bd6b20" opacity="0.25"/><circle cx="1072.8" cy="353.6" r="2.42" fill="#bd6b20" opacity="0.16"/><circle cx="1111.1" cy="353.6" r="2.19" fill="#bd6b20" opacity="0.18"/><circle cx="1145.8" cy="353.6" r="3.66" fill="#bd6b20" opacity="0.30"/><circle cx="1183.3" cy="351.7" r="3.74" fill="#bd6b20" opacity="0.18"/><circle cx="30.1" cy="391.9" r="1.99" fill="#bd6b20" opacity="0.33"/><circle cx="66.8" cy="387.5" r="3.20" fill="#bd6b20" opacity="0.26"/><circle cx="102.1" cy="391.6" r="3.23" fill="#bd6b20" opacity="0.26"/><circle cx="140.4" cy="391.0" r="2.70" fill="#bd6b20" opacity="0.30"/><circle cx="174.7" cy="392.5" r="2.85" fill="#bd6b20" opacity="0.21"/><circle cx="208.8" cy="391.7" r="2.95" fill="#bd6b20" opacity="0.23"/><circle cx="247.5" cy="388.3" r="2.16" fill="#bd6b20" opacity="0.19"/><circle cx="280.5" cy="388.5" r="2.96" fill="#bd6b20" opacity="0.18"/><circle cx="320.3" cy="392.7" r="2.19" fill="#bd6b20" opacity="0.18"/><circle cx="352.0" cy="388.5" r="1.81" fill="#bd6b20" opacity="0.16"/><circle cx="391.1" cy="389.1" r="1.69" fill="#bd6b20" opacity="0.16"/><circle cx="424.5" cy="390.7" r="2.61" fill="#bd6b20" opacity="0.31"/><circle cx="463.9" cy="392.2" r="1.80" fill="#bd6b20" opacity="0.28"/><circle cx="499.1" cy="388.6" r="2.85" fill="#bd6b20" opacity="0.30"/><circle cx="536.9" cy="387.5" r="2.36" fill="#bd6b20" opacity="0.28"/><circle cx="572.7" cy="390.5" r="3.71" fill="#bd6b20" opacity="0.31"/><circle cx="606.3" cy="390.8" r="2.15" fill="#bd6b20" opacity="0.26"/><circle cx="639.5" cy="387.8" r="3.95" fill="#bd6b20" opacity="0.17"/><circle cx="676.7" cy="392.3" r="2.38" fill="#bd6b20" opacity="0.23"/><circle cx="713.3" cy="390.2" r="2.62" fill="#bd6b20" opacity="0.24"/><circle cx="748.7" cy="387.7" r="3.42" fill="#bd6b20" opacity="0.27"/><circle cx="783.4" cy="392.3" r="3.24" fill="#bd6b20" opacity="0.30"/><circle cx="824.0" cy="390.7" r="2.77" fill="#bd6b20" opacity="0.27"/><circle cx="859.2" cy="390.1" r="2.88" fill="#bd6b20" opacity="0.17"/><circle cx="892.8" cy="390.8" r="1.90" fill="#bd6b20" opacity="0.21"/><circle cx="929.8" cy="391.1" r="2.01" fill="#bd6b20" opacity="0.27"/><circle cx="963.4" cy="391.1" r="3.11" fill="#bd6b20" opacity="0.27"/><circle cx="1000.9" cy="390.9" r="2.91" fill="#bd6b20" opacity="0.15"/><circle cx="1037.9" cy="388.3" r="1.86" fill="#bd6b20" opacity="0.20"/><circle cx="1072.8" cy="387.0" r="3.23" fill="#bd6b20" opacity="0.27"/><circle cx="1109.6" cy="390.2" r="2.52" fill="#bd6b20" opacity="0.18"/><circle cx="1144.6" cy="388.6" r="2.48" fill="#bd6b20" opacity="0.25"/><circle cx="1179.7" cy="390.1" r="3.32" fill="#bd6b20" opacity="0.20"/><circle cx="32.8" cy="427.5" r="3.60" fill="#bd6b20" opacity="0.18"/><circle cx="67.5" cy="427.4" r="3.86" fill="#bd6b20" opacity="0.16"/><circle cx="104.0" cy="427.2" r="2.09" fill="#bd6b20" opacity="0.19"/><circle cx="139.0" cy="423.6" r="2.39" fill="#bd6b20" opacity="0.21"/><circle cx="174.1" cy="428.4" r="3.45" fill="#bd6b20" opacity="0.22"/><circle cx="209.3" cy="427.9" r="1.77" fill="#bd6b20" opacity="0.17"/><circle cx="247.4" cy="427.1" r="1.90" fill="#bd6b20" opacity="0.18"/><circle cx="284.6" cy="426.2" r="3.34" fill="#bd6b20" opacity="0.24"/><circle cx="316.4" cy="424.0" r="3.02" fill="#bd6b20" opacity="0.31"/><circle cx="354.0" cy="425.5" r="2.57" fill="#bd6b20" opacity="0.32"/><circle cx="393.0" cy="428.8" r="3.25" fill="#bd6b20" opacity="0.21"/><circle cx="425.6" cy="427.9" r="3.64" fill="#bd6b20" opacity="0.23"/><circle cx="461.5" cy="427.7" r="3.84" fill="#bd6b20" opacity="0.15"/><circle cx="498.1" cy="424.8" r="3.87" fill="#bd6b20" opacity="0.21"/><circle cx="536.0" cy="425.0" r="3.74" fill="#bd6b20" opacity="0.16"/><circle cx="567.1" cy="428.6" r="1.94" fill="#bd6b20" opacity="0.28"/><circle cx="606.6" cy="427.4" r="3.64" fill="#bd6b20" opacity="0.25"/><circle cx="641.8" cy="424.1" r="3.38" fill="#bd6b20" opacity="0.32"/><circle cx="675.3" cy="425.0" r="3.22" fill="#bd6b20" opacity="0.35"/><circle cx="713.1" cy="428.7" r="3.36" fill="#bd6b20" opacity="0.28"/><circle cx="750.7" cy="428.4" r="2.82" fill="#bd6b20" opacity="0.21"/><circle cx="788.9" cy="423.7" r="3.84" fill="#bd6b20" opacity="0.33"/><circle cx="821.7" cy="427.7" r="2.41" fill="#bd6b20" opacity="0.35"/><circle cx="857.7" cy="423.9" r="3.94" fill="#bd6b20" opacity="0.32"/><circle cx="894.5" cy="426.4" r="3.48" fill="#bd6b20" opacity="0.20"/><circle cx="932.6" cy="427.8" r="2.81" fill="#bd6b20" opacity="0.34"/><circle cx="963.3" cy="426.9" r="2.01" fill="#bd6b20" opacity="0.28"/><circle cx="1002.9" cy="426.3" r="3.59" fill="#bd6b20" opacity="0.34"/><circle cx="1037.7" cy="423.4" r="2.66" fill="#bd6b20" opacity="0.16"/><circle cx="1073.2" cy="428.5" r="2.67" fill="#bd6b20" opacity="0.31"/><circle cx="1109.2" cy="423.3" r="2.82" fill="#bd6b20" opacity="0.32"/><circle cx="1145.0" cy="427.8" r="3.80" fill="#bd6b20" opacity="0.30"/><circle cx="1181.8" cy="426.6" r="3.33" fill="#bd6b20" opacity="0.21"/><circle cx="32.9" cy="463.0" r="1.85" fill="#bd6b20" opacity="0.26"/><circle cx="64.4" cy="461.8" r="2.56" fill="#bd6b20" opacity="0.17"/><circle cx="99.9" cy="460.1" r="3.85" fill="#bd6b20" opacity="0.26"/><circle cx="140.7" cy="464.5" r="3.44" fill="#bd6b20" opacity="0.16"/><circle cx="173.8" cy="464.1" r="2.87" fill="#bd6b20" opacity="0.18"/><circle cx="207.1" cy="463.2" r="2.55" fill="#bd6b20" opacity="0.26"/><circle cx="244.1" cy="464.4" r="2.70" fill="#bd6b20" opacity="0.16"/><circle cx="279.6" cy="464.3" r="3.13" fill="#bd6b20" opacity="0.35"/><circle cx="320.3" cy="464.3" r="3.77" fill="#bd6b20" opacity="0.32"/><circle cx="352.7" cy="461.1" r="2.32" fill="#bd6b20" opacity="0.16"/><circle cx="391.2" cy="462.7" r="3.38" fill="#bd6b20" opacity="0.33"/><circle cx="427.2" cy="461.2" r="1.99" fill="#bd6b20" opacity="0.29"/><circle cx="464.5" cy="464.9" r="2.60" fill="#bd6b20" opacity="0.25"/><circle cx="496.2" cy="463.2" r="3.83" fill="#bd6b20" opacity="0.17"/><circle cx="531.9" cy="460.9" r="3.85" fill="#bd6b20" opacity="0.21"/><circle cx="571.9" cy="464.9" r="3.83" fill="#bd6b20" opacity="0.34"/><circle cx="604.6" cy="461.0" r="3.26" fill="#bd6b20" opacity="0.30"/><circle cx="643.9" cy="461.2" r="3.92" fill="#bd6b20" opacity="0.31"/><circle cx="675.2" cy="464.7" r="3.30" fill="#bd6b20" opacity="0.24"/><circle cx="714.7" cy="459.6" r="2.05" fill="#bd6b20" opacity="0.23"/><circle cx="752.3" cy="459.1" r="2.67" fill="#bd6b20" opacity="0.19"/><circle cx="783.5" cy="462.2" r="3.39" fill="#bd6b20" opacity="0.29"/><circle cx="820.1" cy="462.5" r="2.39" fill="#bd6b20" opacity="0.26"/><circle cx="855.2" cy="459.7" r="1.86" fill="#bd6b20" opacity="0.33"/><circle cx="895.5" cy="461.3" r="2.49" fill="#bd6b20" opacity="0.15"/><circle cx="930.1" cy="461.8" r="2.65" fill="#bd6b20" opacity="0.27"/><circle cx="966.2" cy="463.4" r="3.22" fill="#bd6b20" opacity="0.16"/><circle cx="999.3" cy="460.2" r="1.91" fill="#bd6b20" opacity="0.36"/><circle cx="1036.8" cy="461.7" r="3.87" fill="#bd6b20" opacity="0.33"/><circle cx="1072.8" cy="459.5" r="3.63" fill="#bd6b20" opacity="0.19"/><circle cx="1111.1" cy="464.9" r="2.63" fill="#bd6b20" opacity="0.35"/><circle cx="1147.1" cy="460.0" r="3.98" fill="#bd6b20" opacity="0.30"/><circle cx="1181.7" cy="464.1" r="1.70" fill="#bd6b20" opacity="0.21"/><circle cx="32.1" cy="498.0" r="2.43" fill="#bd6b20" opacity="0.34"/><circle cx="65.5" cy="499.4" r="3.31" fill="#bd6b20" opacity="0.16"/><circle cx="104.8" cy="496.8" r="2.57" fill="#bd6b20" opacity="0.22"/><circle cx="135.7" cy="495.4" r="2.99" fill="#bd6b20" opacity="0.29"/><circle cx="171.3" cy="500.1" r="1.96" fill="#bd6b20" opacity="0.28"/><circle cx="211.4" cy="499.9" r="3.76" fill="#bd6b20" opacity="0.31"/><circle cx="247.8" cy="500.7" r="3.87" fill="#bd6b20" opacity="0.25"/><circle cx="282.4" cy="499.1" r="3.97" fill="#bd6b20" opacity="0.23"/><circle cx="316.4" cy="497.3" r="1.62" fill="#bd6b20" opacity="0.27"/><circle cx="352.6" cy="499.3" r="3.27" fill="#bd6b20" opacity="0.22"/><circle cx="387.9" cy="496.9" r="1.67" fill="#bd6b20" opacity="0.23"/><circle cx="426.8" cy="498.7" r="3.95" fill="#bd6b20" opacity="0.23"/><circle cx="460.4" cy="499.1" r="3.33" fill="#bd6b20" opacity="0.30"/><circle cx="499.9" cy="496.7" r="1.81" fill="#bd6b20" opacity="0.33"/><circle cx="532.6" cy="499.2" r="3.75" fill="#bd6b20" opacity="0.16"/><circle cx="568.2" cy="499.7" r="2.99" fill="#bd6b20" opacity="0.16"/><circle cx="605.7" cy="499.4" r="3.69" fill="#bd6b20" opacity="0.35"/><circle cx="644.2" cy="500.2" r="1.64" fill="#bd6b20" opacity="0.25"/><circle cx="676.4" cy="498.0" r="2.43" fill="#bd6b20" opacity="0.28"/><circle cx="712.7" cy="496.1" r="2.44" fill="#bd6b20" opacity="0.27"/><circle cx="749.9" cy="496.2" r="3.78" fill="#bd6b20" opacity="0.24"/><circle cx="786.0" cy="498.2" r="2.65" fill="#bd6b20" opacity="0.18"/><circle cx="822.2" cy="495.6" r="3.24" fill="#bd6b20" opacity="0.34"/><circle cx="855.5" cy="496.6" r="1.91" fill="#bd6b20" opacity="0.22"/><circle cx="894.4" cy="496.4" r="2.14" fill="#bd6b20" opacity="0.20"/><circle cx="929.0" cy="497.0" r="2.33" fill="#bd6b20" opacity="0.24"/><circle cx="963.9" cy="495.6" r="2.48" fill="#bd6b20" opacity="0.24"/><circle cx="999.2" cy="498.4" r="2.78" fill="#bd6b20" opacity="0.34"/><circle cx="1037.9" cy="499.7" r="3.33" fill="#bd6b20" opacity="0.26"/><circle cx="1075.8" cy="500.4" r="3.21" fill="#bd6b20" opacity="0.18"/><circle cx="1113.0" cy="498.1" r="2.16" fill="#bd6b20" opacity="0.29"/><circle cx="1144.9" cy="495.0" r="3.62" fill="#bd6b20" opacity="0.35"/><circle cx="1181.6" cy="496.0" r="1.70" fill="#bd6b20" opacity="0.34"/><circle cx="29.0" cy="532.0" r="3.29" fill="#bd6b20" opacity="0.23"/><circle cx="67.1" cy="534.3" r="3.94" fill="#bd6b20" opacity="0.31"/><circle cx="104.9" cy="535.8" r="3.10" fill="#bd6b20" opacity="0.19"/><circle cx="137.5" cy="531.6" r="3.06" fill="#bd6b20" opacity="0.22"/><circle cx="171.8" cy="536.9" r="1.84" fill="#bd6b20" opacity="0.29"/><circle cx="212.5" cy="536.6" r="2.47" fill="#bd6b20" opacity="0.33"/><circle cx="244.9" cy="531.5" r="1.67" fill="#bd6b20" opacity="0.23"/><circle cx="281.3" cy="536.9" r="3.07" fill="#bd6b20" opacity="0.32"/><circle cx="319.0" cy="533.9" r="3.63" fill="#bd6b20" opacity="0.17"/><circle cx="352.7" cy="535.9" r="3.59" fill="#bd6b20" opacity="0.17"/><circle cx="392.8" cy="534.0" r="3.34" fill="#bd6b20" opacity="0.25"/><circle cx="424.1" cy="536.7" r="2.82" fill="#bd6b20" opacity="0.30"/><circle cx="463.6" cy="535.0" r="2.79" fill="#bd6b20" opacity="0.17"/><circle cx="500.6" cy="535.8" r="2.90" fill="#bd6b20" opacity="0.24"/><circle cx="537.0" cy="531.7" r="2.64" fill="#bd6b20" opacity="0.36"/><circle cx="567.8" cy="534.5" r="2.49" fill="#bd6b20" opacity="0.35"/><circle cx="603.5" cy="532.0" r="3.22" fill="#bd6b20" opacity="0.23"/><circle cx="642.4" cy="534.9" r="3.73" fill="#bd6b20" opacity="0.32"/><circle cx="677.3" cy="535.6" r="2.60" fill="#bd6b20" opacity="0.30"/><circle cx="714.3" cy="531.4" r="3.91" fill="#bd6b20" opacity="0.26"/><circle cx="749.0" cy="533.2" r="2.83" fill="#bd6b20" opacity="0.16"/><circle cx="785.3" cy="535.4" r="1.95" fill="#bd6b20" opacity="0.35"/><circle cx="824.0" cy="531.3" r="3.18" fill="#bd6b20" opacity="0.35"/><circle cx="855.1" cy="534.1" r="2.29" fill="#bd6b20" opacity="0.30"/><circle cx="896.0" cy="532.7" r="3.65" fill="#bd6b20" opacity="0.22"/><circle cx="927.4" cy="534.0" r="2.38" fill="#bd6b20" opacity="0.23"/><circle cx="968.0" cy="536.2" r="1.65" fill="#bd6b20" opacity="0.33"/><circle cx="1004.0" cy="534.5" r="2.62" fill="#bd6b20" opacity="0.31"/><circle cx="1038.6" cy="532.5" r="3.96" fill="#bd6b20" opacity="0.33"/><circle cx="1075.7" cy="536.9" r="2.57" fill="#bd6b20" opacity="0.32"/><circle cx="1109.8" cy="534.3" r="2.38" fill="#bd6b20" opacity="0.31"/><circle cx="1146.7" cy="535.8" r="1.76" fill="#bd6b20" opacity="0.30"/><circle cx="1182.4" cy="534.7" r="2.83" fill="#bd6b20" opacity="0.16"/><circle cx="29.1" cy="568.2" r="1.91" fill="#bd6b20" opacity="0.15"/><circle cx="68.0" cy="571.7" r="3.95" fill="#bd6b20" opacity="0.31"/><circle cx="104.1" cy="572.1" r="1.62" fill="#bd6b20" opacity="0.26"/><circle cx="138.0" cy="568.5" r="2.91" fill="#bd6b20" opacity="0.19"/><circle cx="176.6" cy="569.8" r="2.14" fill="#bd6b20" opacity="0.33"/><circle cx="207.5" cy="568.4" r="3.85" fill="#bd6b20" opacity="0.16"/><circle cx="248.9" cy="572.5" r="3.83" fill="#bd6b20" opacity="0.35"/><circle cx="284.0" cy="570.0" r="2.73" fill="#bd6b20" opacity="0.28"/><circle cx="318.7" cy="573.0" r="1.81" fill="#bd6b20" opacity="0.15"/><circle cx="355.5" cy="567.8" r="4.00" fill="#bd6b20" opacity="0.24"/><circle cx="391.6" cy="572.2" r="2.82" fill="#bd6b20" opacity="0.21"/><circle cx="428.1" cy="570.4" r="2.33" fill="#bd6b20" opacity="0.23"/><circle cx="463.4" cy="570.0" r="2.90" fill="#bd6b20" opacity="0.15"/><circle cx="500.7" cy="572.3" r="3.89" fill="#bd6b20" opacity="0.31"/><circle cx="533.1" cy="568.4" r="3.26" fill="#bd6b20" opacity="0.19"/><circle cx="571.2" cy="569.0" r="3.95" fill="#bd6b20" opacity="0.25"/><circle cx="605.7" cy="570.3" r="1.92" fill="#bd6b20" opacity="0.15"/><circle cx="642.4" cy="569.4" r="1.74" fill="#bd6b20" opacity="0.22"/><circle cx="676.6" cy="570.5" r="3.71" fill="#bd6b20" opacity="0.15"/><circle cx="714.2" cy="570.2" r="3.02" fill="#bd6b20" opacity="0.30"/><circle cx="751.6" cy="568.6" r="3.99" fill="#bd6b20" opacity="0.34"/><circle cx="784.4" cy="572.1" r="3.82" fill="#bd6b20" opacity="0.18"/><circle cx="823.3" cy="568.3" r="3.67" fill="#bd6b20" opacity="0.23"/><circle cx="858.5" cy="571.9" r="3.96" fill="#bd6b20" opacity="0.20"/><circle cx="893.8" cy="568.3" r="1.80" fill="#bd6b20" opacity="0.33"/><circle cx="932.1" cy="572.8" r="2.24" fill="#bd6b20" opacity="0.28"/><circle cx="967.1" cy="567.1" r="3.44" fill="#bd6b20" opacity="0.19"/><circle cx="1002.8" cy="568.9" r="2.10" fill="#bd6b20" opacity="0.24"/><circle cx="1041.0" cy="568.9" r="1.86" fill="#bd6b20" opacity="0.34"/><circle cx="1072.4" cy="572.6" r="2.46" fill="#bd6b20" opacity="0.20"/><circle cx="1109.0" cy="567.4" r="2.91" fill="#bd6b20" opacity="0.24"/><circle cx="1146.3" cy="571.9" r="2.94" fill="#bd6b20" opacity="0.26"/><circle cx="1179.7" cy="570.7" r="2.65" fill="#bd6b20" opacity="0.22"/><circle cx="29.9" cy="603.2" r="2.14" fill="#bd6b20" opacity="0.36"/><circle cx="63.9" cy="604.4" r="1.91" fill="#bd6b20" opacity="0.20"/><circle cx="99.3" cy="608.8" r="1.94" fill="#bd6b20" opacity="0.22"/><circle cx="135.1" cy="604.0" r="1.74" fill="#bd6b20" opacity="0.29"/><circle cx="173.5" cy="604.4" r="3.09" fill="#bd6b20" opacity="0.31"/><circle cx="208.4" cy="603.6" r="2.23" fill="#bd6b20" opacity="0.29"/><circle cx="243.7" cy="606.3" r="2.39" fill="#bd6b20" opacity="0.15"/><circle cx="279.6" cy="608.6" r="3.92" fill="#bd6b20" opacity="0.23"/><circle cx="316.0" cy="604.7" r="3.74" fill="#bd6b20" opacity="0.22"/><circle cx="354.6" cy="603.9" r="1.72" fill="#bd6b20" opacity="0.16"/><circle cx="392.3" cy="607.9" r="3.05" fill="#bd6b20" opacity="0.25"/><circle cx="423.4" cy="607.5" r="2.23" fill="#bd6b20" opacity="0.21"/><circle cx="459.2" cy="607.9" r="2.85" fill="#bd6b20" opacity="0.28"/><circle cx="498.2" cy="605.4" r="1.82" fill="#bd6b20" opacity="0.16"/><circle cx="536.6" cy="605.1" r="3.73" fill="#bd6b20" opacity="0.32"/><circle cx="568.9" cy="607.5" r="2.90" fill="#bd6b20" opacity="0.24"/><circle cx="608.2" cy="608.6" r="3.46" fill="#bd6b20" opacity="0.36"/><circle cx="642.5" cy="603.3" r="3.44" fill="#bd6b20" opacity="0.28"/><circle cx="677.3" cy="603.2" r="2.63" fill="#bd6b20" opacity="0.33"/><circle cx="714.5" cy="603.0" r="2.51" fill="#bd6b20" opacity="0.24"/><circle cx="752.2" cy="604.4" r="2.86" fill="#bd6b20" opacity="0.27"/><circle cx="783.7" cy="604.8" r="2.92" fill="#bd6b20" opacity="0.27"/><circle cx="820.3" cy="608.8" r="1.84" fill="#bd6b20" opacity="0.23"/><circle cx="858.2" cy="606.3" r="3.55" fill="#bd6b20" opacity="0.25"/><circle cx="894.0" cy="606.5" r="2.45" fill="#bd6b20" opacity="0.29"/><circle cx="927.5" cy="607.9" r="3.49" fill="#bd6b20" opacity="0.36"/><circle cx="967.6" cy="607.5" r="3.56" fill="#bd6b20" opacity="0.30"/><circle cx="1002.6" cy="607.0" r="2.87" fill="#bd6b20" opacity="0.18"/><circle cx="1037.2" cy="607.4" r="2.01" fill="#bd6b20" opacity="0.35"/><circle cx="1071.8" cy="606.3" r="3.53" fill="#bd6b20" opacity="0.16"/><circle cx="1107.4" cy="607.5" r="1.71" fill="#bd6b20" opacity="0.28"/><circle cx="1145.2" cy="608.0" r="1.62" fill="#bd6b20" opacity="0.17"/><circle cx="1181.4" cy="604.7" r="2.22" fill="#bd6b20" opacity="0.34"/><circle cx="28.4" cy="644.4" r="3.51" fill="#bd6b20" opacity="0.21"/><circle cx="63.2" cy="642.9" r="3.20" fill="#bd6b20" opacity="0.32"/><circle cx="103.9" cy="643.9" r="2.42" fill="#bd6b20" opacity="0.21"/><circle cx="137.2" cy="639.6" r="2.50" fill="#bd6b20" opacity="0.20"/><circle cx="171.2" cy="640.8" r="3.42" fill="#bd6b20" opacity="0.35"/><circle cx="209.9" cy="644.2" r="3.43" fill="#bd6b20" opacity="0.15"/><circle cx="247.4" cy="642.1" r="3.48" fill="#bd6b20" opacity="0.34"/><circle cx="281.8" cy="642.1" r="3.91" fill="#bd6b20" opacity="0.32"/><circle cx="316.5" cy="641.4" r="3.42" fill="#bd6b20" opacity="0.21"/><circle cx="355.2" cy="640.5" r="3.24" fill="#bd6b20" opacity="0.21"/><circle cx="392.4" cy="644.8" r="2.65" fill="#bd6b20" opacity="0.18"/><circle cx="425.0" cy="643.9" r="3.41" fill="#bd6b20" opacity="0.23"/><circle cx="460.2" cy="639.1" r="1.80" fill="#bd6b20" opacity="0.22"/><circle cx="497.2" cy="639.7" r="2.00" fill="#bd6b20" opacity="0.19"/><circle cx="536.9" cy="642.6" r="1.75" fill="#bd6b20" opacity="0.30"/><circle cx="572.7" cy="642.4" r="2.29" fill="#bd6b20" opacity="0.15"/><circle cx="607.1" cy="641.5" r="3.28" fill="#bd6b20" opacity="0.16"/><circle cx="641.1" cy="640.8" r="1.61" fill="#bd6b20" opacity="0.36"/><circle cx="676.4" cy="640.5" r="1.77" fill="#bd6b20" opacity="0.21"/><circle cx="714.1" cy="644.6" r="3.14" fill="#bd6b20" opacity="0.19"/><circle cx="752.8" cy="644.6" r="3.75" fill="#bd6b20" opacity="0.16"/><circle cx="785.4" cy="641.3" r="2.71" fill="#bd6b20" opacity="0.20"/><circle cx="821.3" cy="641.4" r="2.34" fill="#bd6b20" opacity="0.18"/><circle cx="856.6" cy="642.3" r="3.71" fill="#bd6b20" opacity="0.17"/><circle cx="891.1" cy="643.7" r="3.73" fill="#bd6b20" opacity="0.25"/><circle cx="931.1" cy="644.0" r="2.54" fill="#bd6b20" opacity="0.30"/><circle cx="967.0" cy="639.6" r="2.62" fill="#bd6b20" opacity="0.20"/><circle cx="1003.4" cy="639.1" r="1.65" fill="#bd6b20" opacity="0.30"/><circle cx="1037.8" cy="642.3" r="2.71" fill="#bd6b20" opacity="0.26"/><circle cx="1075.9" cy="640.4" r="3.50" fill="#bd6b20" opacity="0.27"/><circle cx="1112.5" cy="641.8" r="2.09" fill="#bd6b20" opacity="0.23"/><circle cx="1143.6" cy="645.0" r="3.40" fill="#bd6b20" opacity="0.26"/><circle cx="1182.9" cy="644.9" r="4.00" fill="#bd6b20" opacity="0.34"/><circle cx="223.5" cy="228.8" r="220" fill="url(#glow)" opacity="0.9"/>
  <g opacity="0.85" transform="translate(1020, 495)">
        <circle r="60" fill="#bd6b20" opacity="0.18"/>
        <path d="M -34 6 Q -10 -22 14 6 Q 34 24 14 26 L -22 26 Q -38 24 -34 6 Z" fill="none" stroke="#e09440" stroke-width="3" stroke-linejoin="round"/>
      </g>
  <g transform="translate(80, 90)">
    <rect x="0" y="0" rx="20" ry="20" width="134" height="38" fill="#bd6b20" opacity="0.18" stroke="#bd6b20" stroke-width="1.5"/>
    <text x="67" y="25" font-family="ui-sans-serif, Inter, sans-serif" font-weight="700" font-size="14" letter-spacing="2.5" fill="#bd6b20" text-anchor="middle">CASE STUDY</text>
  </g>
  <text x="80" y="465" font-family="ui-sans-serif, -apple-system, Segoe UI, Inter, sans-serif" font-weight="800" font-size="44" fill="#faf8f5" opacity="0.98"><tspan x="80" dy="0">Cycle Manufacturing</tspan><tspan x="80" dy="56">Company Resolves Dispute</tspan><tspan x="80" dy="56">with Distributor through</tspan></text>
  <rect x="0" y="669" width="1200" height="6" fill="url(#gold)"/>
</svg>