<?xml version="1.0" encoding="UTF-8"?>
<svg xmlns="http://www.w3.org/2000/svg" viewBox="0 0 1200 675" width="1200" height="675" role="img" aria-label="How msme protect their data from cyber attack">
  <defs>
    <linearGradient id="bg" x1="0%" y1="0%" x2="100%" y2="100%">
      <stop offset="0%" stop-color="#faf8f5"/>
      <stop offset="100%" stop-color="#f4efe8"/>
    </linearGradient>
    <linearGradient id="gold" x1="0%" y1="0%" x2="100%" y2="100%">
      <stop offset="0%" stop-color="#bd6b20"/>
      <stop offset="100%" stop-color="#9a5518"/>
    </linearGradient>
    <radialGradient id="glow" cx="50%" cy="50%" r="50%">
      <stop offset="0%" stop-color="#bd6b20" stop-opacity="0.45"/>
      <stop offset="100%" stop-color="#bd6b20" stop-opacity="0"/>
    </radialGradient>
  </defs>
  <rect width="1200" height="675" fill="url(#bg)"/>
  <polygon points="-50,278.2 -20,287.2 10,295.9 40,304.2 70,311.8 100,318.6 130,324.5 160,329.2 190,332.6 220,334.8 250,335.7 280,335.2 310,333.3 340,330.2 370,325.8 400,320.2 430,313.7 460,306.2 490,298.1 520,289.5 550,280.5 580,271.4 610,262.4 640,253.7 670,245.4 700,237.9 730,231.1 760,225.4 790,220.7 820,217.3 850,215.2 880,214.4 910,215.0 940,216.9 970,220.1 1000,224.6 1030,230.2 1060,236.8 1090,244.3 1120,252.5 1150,261.1 1180,270.1 1210,279.2 1240,288.2 1250,725 -50,725" fill="#bd6b20" opacity="0.08"/><polygon points="-50,328.1 -20,323.9 10,320.6 40,318.2 70,316.8 100,316.4 130,317.0 160,318.6 190,321.2 220,324.7 250,329.0 280,334.1 310,339.8 340,345.9 370,352.4 400,359.2 430,365.9 460,372.6 490,379.0 520,385.1 550,390.6 580,395.5 610,399.6 640,402.8 670,405.2 700,406.5 730,406.9 760,406.2 790,404.5 820,401.9 850,398.4 880,394.0 910,388.9 940,383.2 970,377.0 1000,370.5 1030,363.8 1060,357.0 1090,350.3 1120,343.9 1150,337.9 1180,332.4 1210,327.6 1240,323.5 1250,725 -50,725" fill="#bd6b20" opacity="0.13"/><polygon points="-50,491.0 -20,491.8 10,490.9 40,488.3 70,484.0 100,478.2 130,471.0 160,462.5 190,453.0 220,442.6 250,431.6 280,420.2 310,408.7 340,397.3 370,386.3 400,376.0 430,366.6 460,358.2 490,351.1 520,345.5 550,341.4 580,338.9 610,338.2 640,339.2 670,341.9 700,346.2 730,352.1 760,359.4 790,367.9 820,377.5 850,388.0 880,399.0 910,410.4 940,421.9 970,433.3 1000,444.2 1030,454.5 1060,463.9 1090,472.2 1120,479.2 1150,484.8 1180,488.8 1210,491.1 1240,491.8 1250,725 -50,725" fill="#bd6b20" opacity="0.18"/><polygon points="-50,401.2 -20,397.1 10,394.8 40,394.3 70,395.8 100,399.2 130,404.3 160,411.1 190,419.4 220,429.1 250,439.9 280,451.6 310,463.8 340,476.5 370,489.1 400,501.6 430,513.5 460,524.7 490,534.8 520,543.7 550,551.1 580,556.9 610,561.0 640,563.2 670,563.5 700,561.9 730,558.5 760,553.2 790,546.3 820,537.9 850,528.2 880,517.3 910,505.6 940,493.3 970,480.7 1000,468.0 1030,455.6 1060,443.7 1090,432.6 1120,422.5 1150,413.7 1180,406.4 1210,400.7 1240,396.7 1250,725 -50,725" fill="#bd6b20" opacity="0.23"/><circle cx="300.0" cy="189.0" r="160" fill="url(#glow)"/>
  <g opacity="0.85" transform="translate(1020, 495)">
        <circle r="68" fill="none" stroke="#bd6b20" stroke-width="2" opacity="0.35"/>
        <path d="M -38 12 L 38 12 M -32 -8 L 32 -8 M -45 -28 L 45 -28" stroke="#9a5518" stroke-width="3" stroke-linecap="round"/>
        <rect x="-50" y="-44" width="100" height="80" fill="none" stroke="#bd6b20" stroke-width="2"/>
      </g>
  <g transform="translate(80, 90)">
    <rect x="0" y="0" rx="20" ry="20" width="112" height="38" fill="#bd6b20" opacity="0.18" stroke="#bd6b20" stroke-width="1.5"/>
    <text x="56" y="25" font-family="ui-sans-serif, Inter, sans-serif" font-weight="700" font-size="14" letter-spacing="2.5" fill="#bd6b20" text-anchor="middle">NEWSROOM</text>
  </g>
  <text x="80" y="515" font-family="ui-sans-serif, -apple-system, Segoe UI, Inter, sans-serif" font-weight="800" font-size="44" fill="#12100e" opacity="0.98"><tspan x="80" dy="0">How msme protect their</tspan><tspan x="80" dy="56">data from cyber attack</tspan></text>
  <rect x="0" y="669" width="1200" height="6" fill="url(#gold)"/>
</svg>