<?xml version="1.0" encoding="UTF-8"?>
<svg xmlns="http://www.w3.org/2000/svg" viewBox="0 0 1200 675" width="1200" height="675" role="img" aria-label="Delhi HC Rules: Arbitrators Must Demand Evidence in Math-Based Claims">
  <defs>
    <linearGradient id="bg" x1="0%" y1="0%" x2="100%" y2="100%">
      <stop offset="0%" stop-color="#12100e"/>
      <stop offset="100%" stop-color="#1c1917"/>
    </linearGradient>
    <linearGradient id="gold" x1="0%" y1="0%" x2="100%" y2="100%">
      <stop offset="0%" stop-color="#bd6b20"/>
      <stop offset="100%" stop-color="#e09440"/>
    </linearGradient>
    <radialGradient id="glow" cx="50%" cy="50%" r="50%">
      <stop offset="0%" stop-color="#bd6b20" stop-opacity="0.45"/>
      <stop offset="100%" stop-color="#bd6b20" stop-opacity="0"/>
    </radialGradient>
  </defs>
  <rect width="1200" height="675" fill="url(#bg)"/>
  <rect x="-653.6" y="-80" width="101.1" height="875" transform="rotate(18 -653.6 337.5)" fill="#bd6b20" opacity="0.19"/><rect x="-494.1" y="-80" width="117.2" height="875" transform="rotate(18 -494.1 337.5)" fill="#bd6b20" opacity="0.09"/><rect x="-304.4" y="-80" width="110.9" height="875" transform="rotate(18 -304.4 337.5)" fill="#bd6b20" opacity="0.18"/><rect x="-135.8" y="-80" width="124.3" height="875" transform="rotate(18 -135.8 337.5)" fill="#bd6b20" opacity="0.15"/><rect x="43.0" y="-80" width="134.0" height="875" transform="rotate(18 43.0 337.5)" fill="#bd6b20" opacity="0.17"/><rect x="237.9" y="-80" width="61.2" height="875" transform="rotate(18 237.9 337.5)" fill="#bd6b20" opacity="0.06"/><rect x="382.2" y="-80" width="116.1" height="875" transform="rotate(18 382.2 337.5)" fill="#bd6b20" opacity="0.20"/><rect x="599.3" y="-80" width="111.6" height="875" transform="rotate(18 599.3 337.5)" fill="#bd6b20" opacity="0.06"/><rect x="781.6" y="-80" width="76.3" height="875" transform="rotate(18 781.6 337.5)" fill="#bd6b20" opacity="0.17"/><rect x="956.0" y="-80" width="67.1" height="875" transform="rotate(18 956.0 337.5)" fill="#bd6b20" opacity="0.08"/><rect x="1135.9" y="-80" width="107.5" height="875" transform="rotate(18 1135.9 337.5)" fill="#bd6b20" opacity="0.05"/><rect x="1288.6" y="-80" width="108.0" height="875" transform="rotate(18 1288.6 337.5)" fill="#bd6b20" opacity="0.09"/><rect x="1470.3" y="-80" width="61.8" height="875" transform="rotate(18 1470.3 337.5)" fill="#bd6b20" opacity="0.08"/><rect x="1689.9" y="-80" width="68.7" height="875" transform="rotate(18 1689.9 337.5)" fill="#bd6b20" opacity="0.11"/><rect x="0" y="0" width="1200" height="675" fill="url(#glow)" opacity="0.6"/>
  <g opacity="0.85" transform="translate(1020, 495)">
        <circle r="68" fill="none" stroke="#bd6b20" stroke-width="2" opacity="0.35"/>
        <path d="M -38 12 L 38 12 M -32 -8 L 32 -8 M -45 -28 L 45 -28" stroke="#e09440" stroke-width="3" stroke-linecap="round"/>
        <rect x="-50" y="-44" width="100" height="80" fill="none" stroke="#bd6b20" stroke-width="2"/>
      </g>
  <g transform="translate(80, 90)">
    <rect x="0" y="0" rx="20" ry="20" width="112" height="38" fill="#bd6b20" opacity="0.18" stroke="#bd6b20" stroke-width="1.5"/>
    <text x="56" y="25" font-family="ui-sans-serif, Inter, sans-serif" font-weight="700" font-size="14" letter-spacing="2.5" fill="#bd6b20" text-anchor="middle">NEWSROOM</text>
  </g>
  <text x="80" y="465" font-family="ui-sans-serif, -apple-system, Segoe UI, Inter, sans-serif" font-weight="800" font-size="44" fill="#faf8f5" opacity="0.98"><tspan x="80" dy="0">Delhi HC Rules:</tspan><tspan x="80" dy="56">Arbitrators Must Demand</tspan><tspan x="80" dy="56">Evidence in Math-Based</tspan></text>
  <rect x="0" y="669" width="1200" height="6" fill="url(#gold)"/>
</svg>