<?xml version="1.0" encoding="UTF-8"?>
<svg xmlns="http://www.w3.org/2000/svg" viewBox="0 0 1200 675" width="1200" height="675" role="img" aria-label="Delhi High Court Upholds Arbitrator's Right to Manage Proceedings: Principles of Natural Justice Unaffected">
  <defs>
    <linearGradient id="bg" x1="0%" y1="0%" x2="100%" y2="100%">
      <stop offset="0%" stop-color="#12100e"/>
      <stop offset="100%" stop-color="#1c1917"/>
    </linearGradient>
    <linearGradient id="gold" x1="0%" y1="0%" x2="100%" y2="100%">
      <stop offset="0%" stop-color="#bd6b20"/>
      <stop offset="100%" stop-color="#e09440"/>
    </linearGradient>
    <radialGradient id="glow" cx="50%" cy="50%" r="50%">
      <stop offset="0%" stop-color="#bd6b20" stop-opacity="0.45"/>
      <stop offset="100%" stop-color="#bd6b20" stop-opacity="0"/>
    </radialGradient>
  </defs>
  <rect width="1200" height="675" fill="url(#bg)"/>
  <polygon points="115.1,172.2 28.4,130.0 70.6,43.3 157.3,85.5" fill="#e09440" opacity="0.05"/><polygon points="686.1,529.9 540.9,658.4 373.8,559.9 415.8,370.6 608.8,352.1" fill="#e09440" opacity="0.16"/><polygon points="121.8,193.4 342.9,191.6 344.6,412.7 123.5,414.5" fill="#e09440" opacity="0.15"/><polygon points="59.6,443.7 130.1,353.5 220.3,424.0 149.8,514.2" fill="#e09440" opacity="0.11"/><polygon points="836.1,269.1 738.0,374.8 695.5,237.0" fill="#e09440" opacity="0.10"/><polygon points="269.9,745.7 175.1,577.2 368.5,579.3" fill="#e09440" opacity="0.13"/><polygon points="664.7,665.3 753.8,539.8 817.9,679.7" fill="#e09440" opacity="0.15"/><polygon points="572.6,269.6 406.5,422.0 357.6,201.9" fill="#e09440" opacity="0.05"/><polygon points="1106.6,443.2 1072.0,521.3 1021.7,452.3" fill="#e09440" opacity="0.14"/><polygon points="385.5,440.8 252.2,343.1 303.9,186.1 469.2,186.8 519.6,344.2" fill="#e09440" opacity="0.08"/><polygon points="265.9,587.2 90.1,446.6 230.8,270.8 406.6,411.4" fill="#e09440" opacity="0.15"/><polygon points="641.5,469.8 653.4,422.0 702.6,418.6 721.1,464.3 683.3,495.9" fill="#e09440" opacity="0.12"/><polygon points="1145.5,264.1 1221.8,247.5 1261.2,315.0 1209.2,373.2 1137.7,341.8" fill="#e09440" opacity="0.10"/><polygon points="623.0,466.4 557.0,498.6 506.0,445.7 540.5,380.9 612.8,393.6" fill="#e09440" opacity="0.11"/><circle cx="936.0" cy="202.5" r="180" fill="url(#glow)"/>
  <g opacity="0.85" transform="translate(1020, 495)">
        <circle r="68" fill="none" stroke="#bd6b20" stroke-width="2" opacity="0.35"/>
        <path d="M -38 12 L 38 12 M -32 -8 L 32 -8 M -45 -28 L 45 -28" stroke="#e09440" stroke-width="3" stroke-linecap="round"/>
        <rect x="-50" y="-44" width="100" height="80" fill="none" stroke="#bd6b20" stroke-width="2"/>
      </g>
  <g transform="translate(80, 90)">
    <rect x="0" y="0" rx="20" ry="20" width="112" height="38" fill="#bd6b20" opacity="0.18" stroke="#bd6b20" stroke-width="1.5"/>
    <text x="56" y="25" font-family="ui-sans-serif, Inter, sans-serif" font-weight="700" font-size="14" letter-spacing="2.5" fill="#bd6b20" text-anchor="middle">NEWSROOM</text>
  </g>
  <text x="80" y="465" font-family="ui-sans-serif, -apple-system, Segoe UI, Inter, sans-serif" font-weight="800" font-size="44" fill="#faf8f5" opacity="0.98"><tspan x="80" dy="0">Delhi High Court Upholds</tspan><tspan x="80" dy="56">Arbitrator's Right to</tspan><tspan x="80" dy="56">Manage Proceedings:</tspan></text>
  <rect x="0" y="669" width="1200" height="6" fill="url(#gold)"/>
</svg>