<?xml version="1.0" encoding="UTF-8"?>
<svg xmlns="http://www.w3.org/2000/svg" viewBox="0 0 1200 675" width="1200" height="675" role="img" aria-label="Delhi HC Sets Precedent: Clarifies Contractual Arbitration Thresholds and Procedures">
  <defs>
    <linearGradient id="bg" x1="0%" y1="0%" x2="100%" y2="100%">
      <stop offset="0%" stop-color="#532d15"/>
      <stop offset="100%" stop-color="#bd6b20"/>
    </linearGradient>
    <linearGradient id="gold" x1="0%" y1="0%" x2="100%" y2="100%">
      <stop offset="0%" stop-color="#e09440"/>
      <stop offset="100%" stop-color="#fdf6ee"/>
    </linearGradient>
    <radialGradient id="glow" cx="50%" cy="50%" r="50%">
      <stop offset="0%" stop-color="#e09440" stop-opacity="0.45"/>
      <stop offset="100%" stop-color="#e09440" stop-opacity="0"/>
    </radialGradient>
  </defs>
  <rect width="1200" height="675" fill="url(#bg)"/>
  <circle cx="32.4" cy="32.6" r="2.38" fill="#e09440" opacity="0.26"/><circle cx="65.0" cy="29.9" r="1.70" fill="#e09440" opacity="0.33"/><circle cx="101.6" cy="31.1" r="3.43" fill="#e09440" opacity="0.18"/><circle cx="139.5" cy="27.4" r="1.65" fill="#e09440" opacity="0.34"/><circle cx="174.2" cy="31.5" r="3.05" fill="#e09440" opacity="0.28"/><circle cx="208.1" cy="28.2" r="3.09" fill="#e09440" opacity="0.29"/><circle cx="247.4" cy="31.7" r="1.83" fill="#e09440" opacity="0.31"/><circle cx="284.9" cy="29.1" r="2.89" fill="#e09440" opacity="0.21"/><circle cx="318.6" cy="32.3" r="3.51" fill="#e09440" opacity="0.25"/><circle cx="353.5" cy="31.3" r="1.61" fill="#e09440" opacity="0.17"/><circle cx="387.5" cy="27.3" r="3.01" fill="#e09440" opacity="0.21"/><circle cx="423.9" cy="29.2" r="2.68" fill="#e09440" opacity="0.32"/><circle cx="464.7" cy="30.0" r="3.85" fill="#e09440" opacity="0.23"/><circle cx="496.8" cy="29.6" r="2.95" fill="#e09440" opacity="0.26"/><circle cx="532.0" cy="29.3" r="3.90" fill="#e09440" opacity="0.32"/><circle cx="572.1" cy="29.5" r="3.75" fill="#e09440" opacity="0.16"/><circle cx="606.8" cy="28.5" r="2.22" fill="#e09440" opacity="0.35"/><circle cx="641.5" cy="31.6" r="2.13" fill="#e09440" opacity="0.34"/><circle cx="679.8" cy="29.9" r="2.94" fill="#e09440" opacity="0.23"/><circle cx="713.7" cy="31.0" r="3.06" fill="#e09440" opacity="0.20"/><circle cx="750.4" cy="30.7" r="3.65" fill="#e09440" opacity="0.27"/><circle cx="788.9" cy="30.2" r="3.94" fill="#e09440" opacity="0.16"/><circle cx="821.3" cy="31.9" r="2.03" fill="#e09440" opacity="0.27"/><circle cx="859.1" cy="27.5" r="3.66" fill="#e09440" opacity="0.21"/><circle cx="894.0" cy="27.2" r="2.79" fill="#e09440" opacity="0.15"/><circle cx="932.3" cy="31.3" r="2.29" fill="#e09440" opacity="0.20"/><circle cx="966.5" cy="28.6" r="1.72" fill="#e09440" opacity="0.16"/><circle cx="999.4" cy="32.3" r="3.39" fill="#e09440" opacity="0.25"/><circle cx="1036.9" cy="29.6" r="1.82" fill="#e09440" opacity="0.24"/><circle cx="1075.5" cy="29.5" r="2.17" fill="#e09440" opacity="0.17"/><circle cx="1111.2" cy="30.1" r="3.01" fill="#e09440" opacity="0.33"/><circle cx="1143.7" cy="32.4" r="1.64" fill="#e09440" opacity="0.28"/><circle cx="1183.9" cy="28.1" r="1.91" fill="#e09440" opacity="0.21"/><circle cx="28.2" cy="63.3" r="1.90" fill="#e09440" opacity="0.21"/><circle cx="65.1" cy="63.2" r="1.64" fill="#e09440" opacity="0.33"/><circle cx="104.4" cy="67.7" r="3.73" fill="#e09440" opacity="0.17"/><circle cx="137.7" cy="65.6" r="2.23" fill="#e09440" opacity="0.31"/><circle cx="172.6" cy="67.6" r="2.97" fill="#e09440" opacity="0.34"/><circle cx="211.7" cy="69.0" r="2.37" fill="#e09440" opacity="0.16"/><circle cx="244.0" cy="68.3" r="1.99" fill="#e09440" opacity="0.34"/><circle cx="283.6" cy="64.6" r="1.99" fill="#e09440" opacity="0.26"/><circle cx="316.2" cy="67.7" r="1.89" fill="#e09440" opacity="0.23"/><circle cx="356.8" cy="68.0" r="3.48" fill="#e09440" opacity="0.22"/><circle cx="388.0" cy="64.4" r="3.40" fill="#e09440" opacity="0.16"/><circle cx="425.7" cy="64.5" r="2.60" fill="#e09440" opacity="0.21"/><circle cx="465.0" cy="65.7" r="2.80" fill="#e09440" opacity="0.25"/><circle cx="495.9" cy="68.8" r="1.78" fill="#e09440" opacity="0.28"/><circle cx="532.4" cy="66.2" r="3.48" fill="#e09440" opacity="0.26"/><circle cx="569.4" cy="66.2" r="2.81" fill="#e09440" opacity="0.16"/><circle cx="608.9" cy="65.6" r="1.66" fill="#e09440" opacity="0.25"/><circle cx="640.3" cy="64.9" r="3.37" fill="#e09440" opacity="0.34"/><circle cx="680.1" cy="64.3" r="3.44" fill="#e09440" opacity="0.27"/><circle cx="713.6" cy="68.4" r="3.71" fill="#e09440" opacity="0.34"/><circle cx="747.9" cy="63.1" r="3.15" fill="#e09440" opacity="0.18"/><circle cx="784.3" cy="63.2" r="2.67" fill="#e09440" opacity="0.20"/><circle cx="824.4" cy="64.3" r="2.20" fill="#e09440" opacity="0.36"/><circle cx="859.7" cy="67.8" r="3.26" fill="#e09440" opacity="0.15"/><circle cx="896.5" cy="67.4" r="3.34" fill="#e09440" opacity="0.17"/><circle cx="928.2" cy="67.3" r="2.88" fill="#e09440" opacity="0.31"/><circle cx="968.4" cy="66.9" r="3.67" fill="#e09440" opacity="0.28"/><circle cx="1001.7" cy="68.6" r="2.19" fill="#e09440" opacity="0.24"/><circle cx="1036.5" cy="68.7" r="1.84" fill="#e09440" opacity="0.24"/><circle cx="1071.2" cy="66.6" r="3.87" fill="#e09440" opacity="0.35"/><circle cx="1108.5" cy="68.8" r="3.69" fill="#e09440" opacity="0.31"/><circle cx="1145.3" cy="65.0" r="3.73" fill="#e09440" opacity="0.24"/><circle cx="1181.2" cy="64.4" r="2.15" fill="#e09440" opacity="0.32"/><circle cx="29.3" cy="104.2" r="2.30" fill="#e09440" opacity="0.27"/><circle cx="66.2" cy="99.6" r="2.28" fill="#e09440" opacity="0.26"/><circle cx="100.8" cy="101.9" r="3.72" fill="#e09440" opacity="0.23"/><circle cx="136.0" cy="100.9" r="3.73" fill="#e09440" opacity="0.32"/><circle cx="174.8" cy="101.9" r="3.36" fill="#e09440" opacity="0.27"/><circle cx="210.7" cy="103.3" r="3.54" fill="#e09440" opacity="0.17"/><circle cx="244.1" cy="101.5" r="3.71" fill="#e09440" opacity="0.20"/><circle cx="279.2" cy="100.5" r="3.52" fill="#e09440" opacity="0.21"/><circle cx="318.2" cy="104.2" r="3.83" fill="#e09440" opacity="0.35"/><circle cx="353.5" cy="99.1" r="2.58" fill="#e09440" opacity="0.32"/><circle cx="389.3" cy="104.4" r="2.67" fill="#e09440" opacity="0.16"/><circle cx="427.7" cy="102.2" r="3.82" fill="#e09440" opacity="0.34"/><circle cx="462.5" cy="104.7" r="2.15" fill="#e09440" opacity="0.21"/><circle cx="500.3" cy="101.3" r="3.14" fill="#e09440" opacity="0.28"/><circle cx="534.5" cy="101.2" r="2.38" fill="#e09440" opacity="0.24"/><circle cx="570.8" cy="99.2" r="2.45" fill="#e09440" opacity="0.29"/><circle cx="605.2" cy="102.4" r="1.69" fill="#e09440" opacity="0.33"/><circle cx="642.9" cy="103.5" r="3.43" fill="#e09440" opacity="0.17"/><circle cx="678.0" cy="100.9" r="3.74" fill="#e09440" opacity="0.33"/><circle cx="714.0" cy="100.6" r="1.82" fill="#e09440" opacity="0.32"/><circle cx="751.8" cy="104.0" r="3.23" fill="#e09440" opacity="0.22"/><circle cx="786.6" cy="101.7" r="2.08" fill="#e09440" opacity="0.28"/><circle cx="822.3" cy="99.3" r="3.92" fill="#e09440" opacity="0.32"/><circle cx="855.7" cy="104.4" r="3.56" fill="#e09440" opacity="0.18"/><circle cx="895.2" cy="104.9" r="2.84" fill="#e09440" opacity="0.19"/><circle cx="928.6" cy="101.2" r="2.37" fill="#e09440" opacity="0.17"/><circle cx="965.6" cy="102.9" r="2.89" fill="#e09440" opacity="0.23"/><circle cx="999.7" cy="99.9" r="2.76" fill="#e09440" opacity="0.26"/><circle cx="1035.6" cy="102.9" r="3.62" fill="#e09440" opacity="0.33"/><circle cx="1071.3" cy="102.4" r="2.08" fill="#e09440" opacity="0.32"/><circle cx="1107.9" cy="104.9" r="3.53" fill="#e09440" opacity="0.22"/><circle cx="1145.1" cy="100.3" r="3.01" fill="#e09440" opacity="0.20"/><circle cx="1184.1" cy="103.2" r="3.97" fill="#e09440" opacity="0.20"/><circle cx="29.5" cy="137.8" r="1.80" fill="#e09440" opacity="0.20"/><circle cx="67.9" cy="136.9" r="2.13" fill="#e09440" opacity="0.34"/><circle cx="104.2" cy="137.6" r="2.83" fill="#e09440" opacity="0.26"/><circle cx="141.0" cy="136.2" r="3.69" fill="#e09440" opacity="0.19"/><circle cx="173.6" cy="138.7" r="2.07" fill="#e09440" opacity="0.33"/><circle cx="209.3" cy="138.6" r="2.71" fill="#e09440" opacity="0.22"/><circle cx="247.2" cy="136.6" r="2.11" fill="#e09440" opacity="0.33"/><circle cx="281.5" cy="137.9" r="2.67" fill="#e09440" opacity="0.20"/><circle cx="315.5" cy="140.3" r="2.12" fill="#e09440" opacity="0.26"/><circle cx="355.3" cy="138.7" r="2.59" fill="#e09440" opacity="0.28"/><circle cx="390.5" cy="139.2" r="3.12" fill="#e09440" opacity="0.23"/><circle cx="427.4" cy="135.5" r="3.96" fill="#e09440" opacity="0.22"/><circle cx="460.8" cy="139.3" r="2.40" fill="#e09440" opacity="0.26"/><circle cx="496.3" cy="135.8" r="2.42" fill="#e09440" opacity="0.19"/><circle cx="535.3" cy="135.4" r="2.19" fill="#e09440" opacity="0.28"/><circle cx="568.1" cy="140.5" r="2.70" fill="#e09440" opacity="0.34"/><circle cx="605.9" cy="136.3" r="2.74" fill="#e09440" opacity="0.35"/><circle cx="640.7" cy="137.3" r="2.26" fill="#e09440" opacity="0.28"/><circle cx="675.7" cy="136.1" r="2.31" fill="#e09440" opacity="0.22"/><circle cx="716.9" cy="137.8" r="2.93" fill="#e09440" opacity="0.27"/><circle cx="750.7" cy="136.1" r="2.28" fill="#e09440" opacity="0.16"/><circle cx="783.6" cy="135.5" r="3.72" fill="#e09440" opacity="0.24"/><circle cx="822.4" cy="138.6" r="1.94" fill="#e09440" opacity="0.34"/><circle cx="860.3" cy="137.8" r="1.97" fill="#e09440" opacity="0.35"/><circle cx="895.4" cy="139.8" r="2.38" fill="#e09440" opacity="0.26"/><circle cx="929.4" cy="136.1" r="3.36" fill="#e09440" opacity="0.20"/><circle cx="965.3" cy="136.5" r="2.32" fill="#e09440" opacity="0.26"/><circle cx="1003.0" cy="135.2" r="2.73" fill="#e09440" opacity="0.21"/><circle cx="1036.7" cy="140.6" r="3.54" fill="#e09440" opacity="0.26"/><circle cx="1075.4" cy="139.3" r="2.85" fill="#e09440" opacity="0.21"/><circle cx="1111.4" cy="137.3" r="2.91" fill="#e09440" opacity="0.24"/><circle cx="1146.8" cy="137.6" r="2.59" fill="#e09440" opacity="0.32"/><circle cx="1182.0" cy="136.9" r="2.87" fill="#e09440" opacity="0.17"/><circle cx="31.8" cy="175.2" r="2.64" fill="#e09440" opacity="0.32"/><circle cx="63.7" cy="176.8" r="3.12" fill="#e09440" opacity="0.21"/><circle cx="102.1" cy="176.7" r="2.20" fill="#e09440" opacity="0.34"/><circle cx="139.1" cy="176.3" r="1.87" fill="#e09440" opacity="0.27"/><circle cx="171.5" cy="171.5" r="2.64" fill="#e09440" opacity="0.21"/><circle cx="210.0" cy="173.7" r="2.48" fill="#e09440" opacity="0.22"/><circle cx="248.3" cy="173.4" r="3.62" fill="#e09440" opacity="0.21"/><circle cx="279.5" cy="175.7" r="1.75" fill="#e09440" opacity="0.32"/><circle cx="318.5" cy="171.7" r="3.82" fill="#e09440" opacity="0.27"/><circle cx="354.3" cy="176.1" r="2.89" fill="#e09440" opacity="0.19"/><circle cx="387.3" cy="173.3" r="3.44" fill="#e09440" opacity="0.25"/><circle cx="425.8" cy="174.8" r="2.33" fill="#e09440" opacity="0.29"/><circle cx="462.4" cy="174.3" r="3.79" fill="#e09440" opacity="0.19"/><circle cx="495.2" cy="173.6" r="3.18" fill="#e09440" opacity="0.31"/><circle cx="532.0" cy="177.0" r="2.67" fill="#e09440" opacity="0.25"/><circle cx="572.2" cy="171.1" r="2.53" fill="#e09440" opacity="0.22"/><circle cx="606.1" cy="172.0" r="2.83" fill="#e09440" opacity="0.33"/><circle cx="643.7" cy="171.4" r="3.33" fill="#e09440" opacity="0.23"/><circle cx="680.9" cy="172.3" r="1.70" fill="#e09440" opacity="0.16"/><circle cx="711.2" cy="175.6" r="3.99" fill="#e09440" opacity="0.30"/><circle cx="750.3" cy="171.4" r="2.02" fill="#e09440" opacity="0.23"/><circle cx="784.2" cy="173.9" r="3.75" fill="#e09440" opacity="0.15"/><circle cx="819.1" cy="175.9" r="2.00" fill="#e09440" opacity="0.19"/><circle cx="857.0" cy="175.0" r="2.96" fill="#e09440" opacity="0.31"/><circle cx="896.6" cy="175.8" r="2.74" fill="#e09440" opacity="0.26"/><circle cx="927.4" cy="172.5" r="3.60" fill="#e09440" opacity="0.19"/><circle cx="968.7" cy="174.1" r="2.05" fill="#e09440" opacity="0.30"/><circle cx="1003.2" cy="175.8" r="2.85" fill="#e09440" opacity="0.32"/><circle cx="1040.7" cy="171.3" r="2.31" fill="#e09440" opacity="0.17"/><circle cx="1073.6" cy="173.8" r="3.88" fill="#e09440" opacity="0.35"/><circle cx="1112.8" cy="174.9" r="3.78" fill="#e09440" opacity="0.23"/><circle cx="1146.6" cy="175.1" r="3.88" fill="#e09440" opacity="0.34"/><circle cx="1183.0" cy="174.7" r="3.32" fill="#e09440" opacity="0.35"/><circle cx="32.5" cy="211.0" r="1.68" fill="#e09440" opacity="0.30"/><circle cx="66.0" cy="208.7" r="3.28" fill="#e09440" opacity="0.29"/><circle cx="100.9" cy="207.9" r="2.40" fill="#e09440" opacity="0.30"/><circle cx="140.9" cy="207.0" r="2.19" fill="#e09440" opacity="0.28"/><circle cx="175.8" cy="207.8" r="3.26" fill="#e09440" opacity="0.29"/><circle cx="212.8" cy="212.2" r="2.03" fill="#e09440" opacity="0.23"/><circle cx="247.9" cy="210.5" r="2.13" fill="#e09440" opacity="0.20"/><circle cx="281.3" cy="209.1" r="3.90" fill="#e09440" opacity="0.25"/><circle cx="320.8" cy="207.3" r="3.42" fill="#e09440" opacity="0.15"/><circle cx="355.3" cy="209.6" r="1.68" fill="#e09440" opacity="0.24"/><circle cx="392.9" cy="207.7" r="2.35" fill="#e09440" opacity="0.15"/><circle cx="423.5" cy="207.2" r="3.20" fill="#e09440" opacity="0.25"/><circle cx="459.5" cy="207.1" r="1.69" fill="#e09440" opacity="0.34"/><circle cx="496.6" cy="212.4" r="2.30" fill="#e09440" opacity="0.20"/><circle cx="531.1" cy="208.6" r="3.32" fill="#e09440" opacity="0.24"/><circle cx="568.0" cy="211.2" r="1.90" fill="#e09440" opacity="0.20"/><circle cx="608.0" cy="211.4" r="2.05" fill="#e09440" opacity="0.27"/><circle cx="642.5" cy="212.2" r="2.66" fill="#e09440" opacity="0.34"/><circle cx="677.0" cy="207.2" r="3.70" fill="#e09440" opacity="0.22"/><circle cx="714.1" cy="212.1" r="3.14" fill="#e09440" opacity="0.24"/><circle cx="747.9" cy="209.9" r="2.70" fill="#e09440" opacity="0.30"/><circle cx="788.1" cy="211.4" r="3.69" fill="#e09440" opacity="0.26"/><circle cx="819.2" cy="208.1" r="3.11" fill="#e09440" opacity="0.21"/><circle cx="855.6" cy="212.1" r="3.84" fill="#e09440" opacity="0.24"/><circle cx="895.8" cy="209.2" r="2.97" fill="#e09440" opacity="0.22"/><circle cx="932.6" cy="208.9" r="1.86" fill="#e09440" opacity="0.17"/><circle cx="965.5" cy="208.2" r="2.87" fill="#e09440" opacity="0.31"/><circle cx="1004.0" cy="211.1" r="1.66" fill="#e09440" opacity="0.21"/><circle cx="1038.9" cy="211.7" r="2.93" fill="#e09440" opacity="0.29"/><circle cx="1071.6" cy="212.1" r="3.14" fill="#e09440" opacity="0.31"/><circle cx="1112.5" cy="211.3" r="3.27" fill="#e09440" opacity="0.31"/><circle cx="1145.8" cy="210.5" r="3.73" fill="#e09440" opacity="0.23"/><circle cx="1183.8" cy="210.9" r="1.94" fill="#e09440" opacity="0.33"/><circle cx="28.5" cy="247.8" r="1.75" fill="#e09440" opacity="0.33"/><circle cx="68.8" cy="245.1" r="2.70" fill="#e09440" opacity="0.34"/><circle cx="101.3" cy="245.7" r="3.59" fill="#e09440" opacity="0.22"/><circle cx="136.1" cy="247.4" r="2.33" fill="#e09440" opacity="0.20"/><circle cx="173.7" cy="245.1" r="1.64" fill="#e09440" opacity="0.24"/><circle cx="210.1" cy="244.8" r="2.84" fill="#e09440" opacity="0.19"/><circle cx="243.8" cy="245.8" r="2.48" fill="#e09440" opacity="0.29"/><circle cx="279.9" cy="246.4" r="3.60" fill="#e09440" opacity="0.30"/><circle cx="318.9" cy="246.0" r="3.40" fill="#e09440" opacity="0.15"/><circle cx="353.3" cy="245.6" r="2.65" fill="#e09440" opacity="0.25"/><circle cx="389.6" cy="244.1" r="3.43" fill="#e09440" opacity="0.25"/><circle cx="426.8" cy="246.6" r="3.83" fill="#e09440" opacity="0.21"/><circle cx="464.3" cy="248.5" r="3.25" fill="#e09440" opacity="0.35"/><circle cx="499.8" cy="246.4" r="3.21" fill="#e09440" opacity="0.21"/><circle cx="535.8" cy="246.5" r="1.63" fill="#e09440" opacity="0.16"/><circle cx="570.3" cy="245.6" r="3.70" fill="#e09440" opacity="0.16"/><circle cx="608.3" cy="247.8" r="3.54" fill="#e09440" opacity="0.34"/><circle cx="641.3" cy="244.4" r="3.37" fill="#e09440" opacity="0.32"/><circle cx="680.0" cy="248.2" r="3.74" fill="#e09440" opacity="0.33"/><circle cx="714.7" cy="244.8" r="2.01" fill="#e09440" opacity="0.33"/><circle cx="749.6" cy="244.1" r="3.63" fill="#e09440" opacity="0.33"/><circle cx="784.7" cy="243.6" r="3.18" fill="#e09440" opacity="0.26"/><circle cx="820.6" cy="248.3" r="3.05" fill="#e09440" opacity="0.24"/><circle cx="860.6" cy="247.3" r="3.32" fill="#e09440" opacity="0.18"/><circle cx="891.8" cy="245.1" r="2.29" fill="#e09440" opacity="0.23"/><circle cx="927.6" cy="245.1" r="3.47" fill="#e09440" opacity="0.19"/><circle cx="968.8" cy="243.0" r="2.21" fill="#e09440" opacity="0.17"/><circle cx="1004.6" cy="243.4" r="2.79" fill="#e09440" opacity="0.36"/><circle cx="1038.7" cy="244.2" r="1.81" fill="#e09440" opacity="0.16"/><circle cx="1072.0" cy="248.8" r="2.84" fill="#e09440" opacity="0.34"/><circle cx="1107.0" cy="243.5" r="1.67" fill="#e09440" opacity="0.16"/><circle cx="1146.5" cy="243.2" r="2.73" fill="#e09440" opacity="0.19"/><circle cx="1182.3" cy="246.6" r="1.70" fill="#e09440" opacity="0.20"/><circle cx="27.6" cy="282.4" r="3.55" fill="#e09440" opacity="0.32"/><circle cx="65.9" cy="284.7" r="2.89" fill="#e09440" opacity="0.18"/><circle cx="101.3" cy="282.5" r="1.74" fill="#e09440" opacity="0.23"/><circle cx="136.8" cy="280.3" r="2.04" fill="#e09440" opacity="0.31"/><circle cx="171.0" cy="284.8" r="1.90" fill="#e09440" opacity="0.32"/><circle cx="207.7" cy="283.1" r="2.82" fill="#e09440" opacity="0.23"/><circle cx="244.5" cy="283.7" r="2.84" fill="#e09440" opacity="0.29"/><circle cx="280.9" cy="284.6" r="1.91" fill="#e09440" opacity="0.23"/><circle cx="320.0" cy="281.2" r="2.93" fill="#e09440" opacity="0.34"/><circle cx="354.9" cy="283.0" r="3.17" fill="#e09440" opacity="0.36"/><circle cx="391.9" cy="283.9" r="3.61" fill="#e09440" opacity="0.29"/><circle cx="425.0" cy="280.4" r="2.68" fill="#e09440" opacity="0.27"/><circle cx="459.8" cy="280.6" r="1.79" fill="#e09440" opacity="0.29"/><circle cx="499.2" cy="282.2" r="3.51" fill="#e09440" opacity="0.28"/><circle cx="535.0" cy="283.6" r="3.87" fill="#e09440" opacity="0.17"/><circle cx="568.1" cy="283.3" r="2.27" fill="#e09440" opacity="0.25"/><circle cx="608.4" cy="279.3" r="1.79" fill="#e09440" opacity="0.21"/><circle cx="642.3" cy="280.1" r="2.07" fill="#e09440" opacity="0.17"/><circle cx="676.5" cy="283.3" r="3.17" fill="#e09440" opacity="0.15"/><circle cx="712.7" cy="281.9" r="2.83" fill="#e09440" opacity="0.20"/><circle cx="751.3" cy="281.4" r="2.93" fill="#e09440" opacity="0.29"/><circle cx="786.7" cy="284.8" r="2.39" fill="#e09440" opacity="0.21"/><circle cx="822.8" cy="280.3" r="2.14" fill="#e09440" opacity="0.33"/><circle cx="858.0" cy="280.6" r="3.63" fill="#e09440" opacity="0.26"/><circle cx="892.4" cy="280.5" r="3.65" fill="#e09440" opacity="0.33"/><circle cx="927.8" cy="281.9" r="3.32" fill="#e09440" opacity="0.31"/><circle cx="965.0" cy="279.1" r="1.87" fill="#e09440" opacity="0.34"/><circle cx="1004.1" cy="281.1" r="3.45" fill="#e09440" opacity="0.25"/><circle cx="1037.1" cy="279.4" r="1.76" fill="#e09440" opacity="0.32"/><circle cx="1073.0" cy="283.7" r="3.30" fill="#e09440" opacity="0.34"/><circle cx="1108.2" cy="282.7" r="3.20" fill="#e09440" opacity="0.18"/><circle cx="1145.4" cy="280.6" r="3.15" fill="#e09440" opacity="0.16"/><circle cx="1179.6" cy="280.0" r="2.27" fill="#e09440" opacity="0.20"/><circle cx="29.4" cy="320.9" r="2.77" fill="#e09440" opacity="0.18"/><circle cx="65.2" cy="318.7" r="2.55" fill="#e09440" opacity="0.16"/><circle cx="104.7" cy="317.0" r="2.51" fill="#e09440" opacity="0.34"/><circle cx="138.3" cy="318.4" r="3.92" fill="#e09440" opacity="0.31"/><circle cx="174.6" cy="316.1" r="3.96" fill="#e09440" opacity="0.35"/><circle cx="211.3" cy="318.9" r="3.62" fill="#e09440" opacity="0.29"/><circle cx="248.9" cy="320.8" r="3.73" fill="#e09440" opacity="0.20"/><circle cx="281.8" cy="316.2" r="2.95" fill="#e09440" opacity="0.33"/><circle cx="317.1" cy="318.4" r="1.67" fill="#e09440" opacity="0.26"/><circle cx="351.0" cy="317.2" r="2.17" fill="#e09440" opacity="0.25"/><circle cx="390.0" cy="320.3" r="2.64" fill="#e09440" opacity="0.24"/><circle cx="425.1" cy="320.0" r="2.47" fill="#e09440" opacity="0.16"/><circle cx="464.8" cy="320.7" r="3.77" fill="#e09440" opacity="0.21"/><circle cx="498.0" cy="319.9" r="2.61" fill="#e09440" opacity="0.17"/><circle cx="534.6" cy="319.5" r="2.17" fill="#e09440" opacity="0.32"/><circle cx="571.3" cy="316.3" r="2.73" fill="#e09440" opacity="0.16"/><circle cx="603.4" cy="318.5" r="1.61" fill="#e09440" opacity="0.30"/><circle cx="639.9" cy="320.8" r="3.11" fill="#e09440" opacity="0.27"/><circle cx="675.0" cy="319.7" r="3.78" fill="#e09440" opacity="0.18"/><circle cx="715.8" cy="317.9" r="2.99" fill="#e09440" opacity="0.24"/><circle cx="749.5" cy="320.2" r="3.64" fill="#e09440" opacity="0.30"/><circle cx="784.5" cy="319.4" r="2.13" fill="#e09440" opacity="0.24"/><circle cx="820.1" cy="320.4" r="3.75" fill="#e09440" opacity="0.30"/><circle cx="859.8" cy="318.7" r="2.65" fill="#e09440" opacity="0.18"/><circle cx="895.9" cy="315.3" r="1.85" fill="#e09440" opacity="0.28"/><circle cx="927.3" cy="320.4" r="3.10" fill="#e09440" opacity="0.30"/><circle cx="967.3" cy="317.1" r="3.34" fill="#e09440" opacity="0.31"/><circle cx="1002.3" cy="318.3" r="3.77" fill="#e09440" opacity="0.32"/><circle cx="1036.8" cy="315.9" r="2.90" fill="#e09440" opacity="0.26"/><circle cx="1071.6" cy="317.3" r="2.56" fill="#e09440" opacity="0.33"/><circle cx="1112.1" cy="318.6" r="1.61" fill="#e09440" opacity="0.19"/><circle cx="1148.3" cy="315.2" r="3.31" fill="#e09440" opacity="0.35"/><circle cx="1179.4" cy="320.5" r="3.77" fill="#e09440" opacity="0.30"/><circle cx="27.6" cy="351.7" r="2.98" fill="#e09440" opacity="0.22"/><circle cx="66.7" cy="356.0" r="3.45" fill="#e09440" opacity="0.25"/><circle cx="104.8" cy="353.1" r="2.55" fill="#e09440" opacity="0.28"/><circle cx="135.0" cy="352.7" r="3.74" fill="#e09440" opacity="0.28"/><circle cx="173.4" cy="352.6" r="2.75" fill="#e09440" opacity="0.30"/><circle cx="208.7" cy="351.5" r="3.11" fill="#e09440" opacity="0.32"/><circle cx="246.4" cy="353.5" r="1.71" fill="#e09440" opacity="0.28"/><circle cx="279.1" cy="356.9" r="3.91" fill="#e09440" opacity="0.25"/><circle cx="320.3" cy="352.7" r="3.24" fill="#e09440" opacity="0.32"/><circle cx="353.6" cy="356.3" r="2.92" fill="#e09440" opacity="0.32"/><circle cx="391.3" cy="355.8" r="3.71" fill="#e09440" opacity="0.34"/><circle cx="423.4" cy="355.4" r="1.95" fill="#e09440" opacity="0.26"/><circle cx="459.4" cy="354.3" r="1.79" fill="#e09440" opacity="0.17"/><circle cx="500.9" cy="353.8" r="1.68" fill="#e09440" opacity="0.20"/><circle cx="535.6" cy="351.2" r="2.35" fill="#e09440" opacity="0.17"/><circle cx="569.6" cy="352.0" r="2.55" fill="#e09440" opacity="0.29"/><circle cx="606.0" cy="351.9" r="2.09" fill="#e09440" opacity="0.23"/><circle cx="642.7" cy="352.0" r="2.61" fill="#e09440" opacity="0.27"/><circle cx="679.7" cy="353.4" r="3.18" fill="#e09440" opacity="0.28"/><circle cx="713.9" cy="351.3" r="2.78" fill="#e09440" opacity="0.29"/><circle cx="752.4" cy="352.6" r="2.30" fill="#e09440" opacity="0.21"/><circle cx="785.6" cy="355.3" r="3.48" fill="#e09440" opacity="0.33"/><circle cx="823.2" cy="354.5" r="1.95" fill="#e09440" opacity="0.35"/><circle cx="855.6" cy="354.9" r="3.05" fill="#e09440" opacity="0.25"/><circle cx="894.0" cy="351.7" r="3.46" fill="#e09440" opacity="0.24"/><circle cx="932.6" cy="355.2" r="3.61" fill="#e09440" opacity="0.26"/><circle cx="968.5" cy="354.8" r="1.93" fill="#e09440" opacity="0.35"/><circle cx="1002.8" cy="353.5" r="2.20" fill="#e09440" opacity="0.31"/><circle cx="1037.1" cy="354.4" r="3.53" fill="#e09440" opacity="0.27"/><circle cx="1071.5" cy="355.3" r="2.70" fill="#e09440" opacity="0.27"/><circle cx="1112.0" cy="355.3" r="2.90" fill="#e09440" opacity="0.21"/><circle cx="1147.4" cy="354.6" r="3.69" fill="#e09440" opacity="0.20"/><circle cx="1183.7" cy="356.1" r="2.74" fill="#e09440" opacity="0.16"/><circle cx="31.0" cy="389.4" r="3.67" fill="#e09440" opacity="0.27"/><circle cx="68.1" cy="392.6" r="1.67" fill="#e09440" opacity="0.21"/><circle cx="103.8" cy="392.9" r="2.21" fill="#e09440" opacity="0.32"/><circle cx="136.0" cy="389.5" r="2.91" fill="#e09440" opacity="0.20"/><circle cx="175.2" cy="387.3" r="2.56" fill="#e09440" opacity="0.22"/><circle cx="212.2" cy="389.2" r="2.86" fill="#e09440" opacity="0.34"/><circle cx="248.9" cy="391.9" r="3.25" fill="#e09440" opacity="0.25"/><circle cx="280.8" cy="389.0" r="3.34" fill="#e09440" opacity="0.25"/><circle cx="319.7" cy="392.7" r="2.05" fill="#e09440" opacity="0.35"/><circle cx="352.8" cy="389.7" r="2.25" fill="#e09440" opacity="0.35"/><circle cx="389.8" cy="387.7" r="3.00" fill="#e09440" opacity="0.27"/><circle cx="423.9" cy="391.2" r="3.67" fill="#e09440" opacity="0.35"/><circle cx="464.5" cy="392.0" r="2.48" fill="#e09440" opacity="0.24"/><circle cx="497.8" cy="392.1" r="2.65" fill="#e09440" opacity="0.28"/><circle cx="535.1" cy="387.9" r="3.17" fill="#e09440" opacity="0.25"/><circle cx="572.5" cy="392.8" r="3.78" fill="#e09440" opacity="0.34"/><circle cx="605.8" cy="388.8" r="2.18" fill="#e09440" opacity="0.28"/><circle cx="644.9" cy="390.5" r="3.08" fill="#e09440" opacity="0.32"/><circle cx="679.0" cy="392.0" r="3.86" fill="#e09440" opacity="0.18"/><circle cx="714.2" cy="387.4" r="2.49" fill="#e09440" opacity="0.26"/><circle cx="751.4" cy="388.6" r="1.93" fill="#e09440" opacity="0.33"/><circle cx="786.3" cy="389.8" r="2.94" fill="#e09440" opacity="0.17"/><circle cx="823.2" cy="387.9" r="1.99" fill="#e09440" opacity="0.35"/><circle cx="856.7" cy="387.1" r="2.37" fill="#e09440" opacity="0.35"/><circle cx="894.1" cy="391.3" r="2.29" fill="#e09440" opacity="0.28"/><circle cx="932.7" cy="388.2" r="3.15" fill="#e09440" opacity="0.32"/><circle cx="966.0" cy="388.7" r="2.07" fill="#e09440" opacity="0.31"/><circle cx="1003.7" cy="390.7" r="3.76" fill="#e09440" opacity="0.20"/><circle cx="1039.0" cy="388.9" r="3.07" fill="#e09440" opacity="0.36"/><circle cx="1073.0" cy="387.1" r="3.23" fill="#e09440" opacity="0.20"/><circle cx="1109.2" cy="388.0" r="2.36" fill="#e09440" opacity="0.23"/><circle cx="1143.3" cy="387.4" r="2.11" fill="#e09440" opacity="0.19"/><circle cx="1183.7" cy="387.0" r="3.43" fill="#e09440" opacity="0.20"/><circle cx="28.5" cy="427.3" r="2.52" fill="#e09440" opacity="0.21"/><circle cx="68.2" cy="423.1" r="2.59" fill="#e09440" opacity="0.26"/><circle cx="100.6" cy="425.8" r="3.87" fill="#e09440" opacity="0.29"/><circle cx="140.6" cy="427.5" r="3.21" fill="#e09440" opacity="0.21"/><circle cx="176.9" cy="427.1" r="2.18" fill="#e09440" opacity="0.32"/><circle cx="207.9" cy="423.5" r="2.37" fill="#e09440" opacity="0.24"/><circle cx="244.2" cy="425.7" r="2.90" fill="#e09440" opacity="0.20"/><circle cx="284.7" cy="426.0" r="3.21" fill="#e09440" opacity="0.22"/><circle cx="320.5" cy="427.0" r="3.83" fill="#e09440" opacity="0.20"/><circle cx="354.2" cy="425.6" r="1.67" fill="#e09440" opacity="0.26"/><circle cx="391.0" cy="427.2" r="3.50" fill="#e09440" opacity="0.36"/><circle cx="426.9" cy="427.8" r="3.66" fill="#e09440" opacity="0.29"/><circle cx="463.5" cy="423.5" r="3.67" fill="#e09440" opacity="0.15"/><circle cx="496.6" cy="423.0" r="3.12" fill="#e09440" opacity="0.31"/><circle cx="534.3" cy="425.8" r="3.35" fill="#e09440" opacity="0.22"/><circle cx="568.8" cy="424.7" r="3.60" fill="#e09440" opacity="0.20"/><circle cx="603.5" cy="428.0" r="2.52" fill="#e09440" opacity="0.19"/><circle cx="640.7" cy="423.6" r="2.24" fill="#e09440" opacity="0.28"/><circle cx="675.7" cy="424.2" r="2.32" fill="#e09440" opacity="0.33"/><circle cx="715.1" cy="423.3" r="1.84" fill="#e09440" opacity="0.27"/><circle cx="747.4" cy="425.2" r="2.98" fill="#e09440" opacity="0.22"/><circle cx="786.0" cy="423.7" r="3.41" fill="#e09440" opacity="0.26"/><circle cx="824.0" cy="427.9" r="2.54" fill="#e09440" opacity="0.35"/><circle cx="858.5" cy="426.1" r="2.18" fill="#e09440" opacity="0.21"/><circle cx="894.8" cy="423.6" r="3.29" fill="#e09440" opacity="0.30"/><circle cx="930.1" cy="428.1" r="2.86" fill="#e09440" opacity="0.28"/><circle cx="963.5" cy="428.5" r="3.12" fill="#e09440" opacity="0.30"/><circle cx="1003.2" cy="428.0" r="3.18" fill="#e09440" opacity="0.18"/><circle cx="1038.3" cy="428.0" r="3.92" fill="#e09440" opacity="0.32"/><circle cx="1074.8" cy="424.5" r="1.72" fill="#e09440" opacity="0.23"/><circle cx="1112.9" cy="423.7" r="3.77" fill="#e09440" opacity="0.19"/><circle cx="1145.3" cy="427.4" r="3.29" fill="#e09440" opacity="0.32"/><circle cx="1181.9" cy="428.8" r="3.06" fill="#e09440" opacity="0.32"/><circle cx="27.3" cy="463.3" r="3.31" fill="#e09440" opacity="0.16"/><circle cx="65.3" cy="459.3" r="1.82" fill="#e09440" opacity="0.18"/><circle cx="102.1" cy="461.8" r="1.98" fill="#e09440" opacity="0.19"/><circle cx="137.8" cy="464.1" r="3.23" fill="#e09440" opacity="0.18"/><circle cx="175.9" cy="462.7" r="3.76" fill="#e09440" opacity="0.28"/><circle cx="207.1" cy="459.8" r="3.90" fill="#e09440" opacity="0.19"/><circle cx="247.2" cy="463.2" r="1.82" fill="#e09440" opacity="0.18"/><circle cx="284.0" cy="463.7" r="3.59" fill="#e09440" opacity="0.31"/><circle cx="319.9" cy="464.1" r="1.74" fill="#e09440" opacity="0.32"/><circle cx="355.8" cy="459.1" r="3.55" fill="#e09440" opacity="0.35"/><circle cx="391.2" cy="464.2" r="2.95" fill="#e09440" opacity="0.35"/><circle cx="425.5" cy="462.5" r="1.87" fill="#e09440" opacity="0.18"/><circle cx="464.3" cy="464.9" r="2.57" fill="#e09440" opacity="0.25"/><circle cx="500.1" cy="462.9" r="3.91" fill="#e09440" opacity="0.29"/><circle cx="533.5" cy="464.2" r="1.78" fill="#e09440" opacity="0.27"/><circle cx="570.4" cy="460.2" r="1.97" fill="#e09440" opacity="0.23"/><circle cx="603.2" cy="463.2" r="1.66" fill="#e09440" opacity="0.28"/><circle cx="639.8" cy="464.4" r="1.71" fill="#e09440" opacity="0.19"/><circle cx="675.2" cy="463.2" r="3.26" fill="#e09440" opacity="0.23"/><circle cx="716.9" cy="461.5" r="2.02" fill="#e09440" opacity="0.16"/><circle cx="752.1" cy="462.1" r="3.13" fill="#e09440" opacity="0.24"/><circle cx="783.2" cy="462.7" r="2.22" fill="#e09440" opacity="0.32"/><circle cx="824.6" cy="459.5" r="3.39" fill="#e09440" opacity="0.31"/><circle cx="859.6" cy="461.7" r="2.37" fill="#e09440" opacity="0.19"/><circle cx="894.9" cy="464.3" r="3.70" fill="#e09440" opacity="0.31"/><circle cx="931.3" cy="463.5" r="2.26" fill="#e09440" opacity="0.33"/><circle cx="966.0" cy="460.0" r="1.69" fill="#e09440" opacity="0.20"/><circle cx="1002.7" cy="462.5" r="4.00" fill="#e09440" opacity="0.22"/><circle cx="1038.5" cy="460.3" r="2.08" fill="#e09440" opacity="0.22"/><circle cx="1071.1" cy="460.3" r="2.24" fill="#e09440" opacity="0.28"/><circle cx="1107.6" cy="463.3" r="3.14" fill="#e09440" opacity="0.19"/><circle cx="1148.9" cy="461.5" r="2.18" fill="#e09440" opacity="0.33"/><circle cx="1180.3" cy="461.9" r="3.07" fill="#e09440" opacity="0.21"/><circle cx="30.9" cy="498.1" r="1.69" fill="#e09440" opacity="0.35"/><circle cx="68.1" cy="497.9" r="2.85" fill="#e09440" opacity="0.19"/><circle cx="99.2" cy="498.3" r="3.34" fill="#e09440" opacity="0.34"/><circle cx="140.6" cy="499.8" r="2.28" fill="#e09440" opacity="0.32"/><circle cx="171.1" cy="498.0" r="1.65" fill="#e09440" opacity="0.32"/><circle cx="207.7" cy="498.4" r="3.29" fill="#e09440" opacity="0.27"/><circle cx="248.8" cy="497.6" r="1.88" fill="#e09440" opacity="0.34"/><circle cx="280.2" cy="497.9" r="2.73" fill="#e09440" opacity="0.17"/><circle cx="315.8" cy="498.1" r="3.12" fill="#e09440" opacity="0.24"/><circle cx="356.0" cy="500.4" r="3.43" fill="#e09440" opacity="0.17"/><circle cx="389.3" cy="496.4" r="1.74" fill="#e09440" opacity="0.34"/><circle cx="426.5" cy="497.2" r="3.90" fill="#e09440" opacity="0.23"/><circle cx="459.3" cy="497.0" r="3.51" fill="#e09440" opacity="0.28"/><circle cx="495.6" cy="495.5" r="3.63" fill="#e09440" opacity="0.22"/><circle cx="533.1" cy="499.0" r="2.80" fill="#e09440" opacity="0.32"/><circle cx="569.3" cy="495.7" r="3.78" fill="#e09440" opacity="0.19"/><circle cx="603.1" cy="497.0" r="2.06" fill="#e09440" opacity="0.20"/><circle cx="639.0" cy="497.2" r="3.92" fill="#e09440" opacity="0.36"/><circle cx="675.2" cy="497.2" r="3.04" fill="#e09440" opacity="0.18"/><circle cx="715.8" cy="496.5" r="3.75" fill="#e09440" opacity="0.16"/><circle cx="749.4" cy="498.9" r="2.16" fill="#e09440" opacity="0.21"/><circle cx="786.8" cy="497.9" r="3.48" fill="#e09440" opacity="0.33"/><circle cx="824.7" cy="495.5" r="3.00" fill="#e09440" opacity="0.29"/><circle cx="859.1" cy="496.9" r="3.44" fill="#e09440" opacity="0.26"/><circle cx="895.1" cy="499.5" r="1.94" fill="#e09440" opacity="0.19"/><circle cx="927.3" cy="499.9" r="2.66" fill="#e09440" opacity="0.30"/><circle cx="967.1" cy="495.7" r="3.00" fill="#e09440" opacity="0.32"/><circle cx="999.1" cy="496.7" r="3.97" fill="#e09440" opacity="0.16"/><circle cx="1037.2" cy="498.4" r="3.47" fill="#e09440" opacity="0.31"/><circle cx="1071.6" cy="498.7" r="2.25" fill="#e09440" opacity="0.18"/><circle cx="1109.8" cy="498.1" r="1.66" fill="#e09440" opacity="0.28"/><circle cx="1146.4" cy="499.5" r="2.35" fill="#e09440" opacity="0.30"/><circle cx="1181.5" cy="495.8" r="2.83" fill="#e09440" opacity="0.24"/><circle cx="27.5" cy="536.6" r="3.76" fill="#e09440" opacity="0.32"/><circle cx="64.1" cy="531.8" r="2.54" fill="#e09440" opacity="0.22"/><circle cx="101.0" cy="535.3" r="3.63" fill="#e09440" opacity="0.26"/><circle cx="139.6" cy="531.7" r="1.97" fill="#e09440" opacity="0.32"/><circle cx="174.1" cy="531.7" r="2.34" fill="#e09440" opacity="0.23"/><circle cx="207.2" cy="532.5" r="3.53" fill="#e09440" opacity="0.27"/><circle cx="248.3" cy="535.2" r="3.58" fill="#e09440" opacity="0.34"/><circle cx="282.4" cy="534.0" r="1.98" fill="#e09440" opacity="0.17"/><circle cx="316.3" cy="534.3" r="3.25" fill="#e09440" opacity="0.19"/><circle cx="351.4" cy="534.8" r="2.51" fill="#e09440" opacity="0.24"/><circle cx="389.0" cy="535.3" r="1.72" fill="#e09440" opacity="0.16"/><circle cx="426.6" cy="536.2" r="2.41" fill="#e09440" opacity="0.23"/><circle cx="459.7" cy="534.5" r="3.77" fill="#e09440" opacity="0.25"/><circle cx="497.9" cy="533.8" r="3.26" fill="#e09440" opacity="0.16"/><circle cx="533.0" cy="531.5" r="2.38" fill="#e09440" opacity="0.25"/><circle cx="570.7" cy="534.0" r="3.62" fill="#e09440" opacity="0.36"/><circle cx="608.5" cy="534.9" r="3.95" fill="#e09440" opacity="0.34"/><circle cx="644.7" cy="532.3" r="3.81" fill="#e09440" opacity="0.19"/><circle cx="680.9" cy="532.5" r="2.30" fill="#e09440" opacity="0.29"/><circle cx="714.6" cy="532.9" r="1.96" fill="#e09440" opacity="0.35"/><circle cx="751.2" cy="531.5" r="2.96" fill="#e09440" opacity="0.22"/><circle cx="787.8" cy="536.0" r="3.96" fill="#e09440" opacity="0.16"/><circle cx="822.1" cy="533.8" r="2.12" fill="#e09440" opacity="0.33"/><circle cx="860.6" cy="533.9" r="3.37" fill="#e09440" opacity="0.23"/><circle cx="892.3" cy="534.9" r="2.56" fill="#e09440" opacity="0.17"/><circle cx="932.3" cy="532.3" r="3.39" fill="#e09440" opacity="0.20"/><circle cx="964.0" cy="531.0" r="2.72" fill="#e09440" opacity="0.23"/><circle cx="1000.1" cy="536.4" r="3.20" fill="#e09440" opacity="0.33"/><circle cx="1038.0" cy="536.4" r="3.43" fill="#e09440" opacity="0.28"/><circle cx="1076.6" cy="535.7" r="1.62" fill="#e09440" opacity="0.27"/><circle cx="1109.2" cy="532.1" r="2.63" fill="#e09440" opacity="0.24"/><circle cx="1147.9" cy="533.9" r="3.85" fill="#e09440" opacity="0.29"/><circle cx="1183.9" cy="533.9" r="2.08" fill="#e09440" opacity="0.18"/><circle cx="30.7" cy="571.2" r="2.40" fill="#e09440" opacity="0.35"/><circle cx="66.1" cy="571.7" r="3.80" fill="#e09440" opacity="0.29"/><circle cx="100.8" cy="567.4" r="1.70" fill="#e09440" opacity="0.23"/><circle cx="139.7" cy="567.9" r="3.99" fill="#e09440" opacity="0.18"/><circle cx="172.5" cy="569.3" r="3.77" fill="#e09440" opacity="0.15"/><circle cx="207.0" cy="568.3" r="1.73" fill="#e09440" opacity="0.20"/><circle cx="245.3" cy="569.8" r="3.02" fill="#e09440" opacity="0.20"/><circle cx="283.0" cy="572.6" r="2.78" fill="#e09440" opacity="0.20"/><circle cx="317.9" cy="572.1" r="3.46" fill="#e09440" opacity="0.33"/><circle cx="352.7" cy="572.6" r="1.99" fill="#e09440" opacity="0.17"/><circle cx="389.5" cy="568.1" r="2.56" fill="#e09440" opacity="0.18"/><circle cx="428.7" cy="567.1" r="2.30" fill="#e09440" opacity="0.16"/><circle cx="461.8" cy="568.2" r="1.62" fill="#e09440" opacity="0.35"/><circle cx="495.7" cy="571.2" r="3.49" fill="#e09440" opacity="0.29"/><circle cx="533.6" cy="572.0" r="2.61" fill="#e09440" opacity="0.27"/><circle cx="571.3" cy="572.4" r="3.53" fill="#e09440" opacity="0.21"/><circle cx="605.2" cy="569.4" r="3.72" fill="#e09440" opacity="0.17"/><circle cx="639.1" cy="570.9" r="3.02" fill="#e09440" opacity="0.25"/><circle cx="679.4" cy="571.5" r="2.26" fill="#e09440" opacity="0.19"/><circle cx="711.7" cy="572.4" r="3.45" fill="#e09440" opacity="0.30"/><circle cx="749.8" cy="569.9" r="2.87" fill="#e09440" opacity="0.25"/><circle cx="786.9" cy="571.7" r="2.12" fill="#e09440" opacity="0.28"/><circle cx="822.8" cy="568.2" r="3.73" fill="#e09440" opacity="0.21"/><circle cx="855.2" cy="568.1" r="2.29" fill="#e09440" opacity="0.24"/><circle cx="894.3" cy="570.1" r="1.78" fill="#e09440" opacity="0.36"/><circle cx="928.2" cy="569.2" r="3.46" fill="#e09440" opacity="0.29"/><circle cx="966.2" cy="569.6" r="2.18" fill="#e09440" opacity="0.33"/><circle cx="1002.3" cy="570.5" r="2.48" fill="#e09440" opacity="0.20"/><circle cx="1037.3" cy="570.2" r="3.94" fill="#e09440" opacity="0.16"/><circle cx="1076.8" cy="570.6" r="1.70" fill="#e09440" opacity="0.34"/><circle cx="1107.8" cy="570.8" r="2.81" fill="#e09440" opacity="0.34"/><circle cx="1145.6" cy="568.3" r="2.11" fill="#e09440" opacity="0.16"/><circle cx="1184.1" cy="567.2" r="2.06" fill="#e09440" opacity="0.25"/><circle cx="29.1" cy="609.0" r="1.84" fill="#e09440" opacity="0.25"/><circle cx="64.9" cy="604.1" r="3.43" fill="#e09440" opacity="0.15"/><circle cx="100.7" cy="604.8" r="3.55" fill="#e09440" opacity="0.34"/><circle cx="137.3" cy="607.1" r="2.71" fill="#e09440" opacity="0.34"/><circle cx="173.3" cy="606.8" r="2.48" fill="#e09440" opacity="0.35"/><circle cx="209.6" cy="604.2" r="2.68" fill="#e09440" opacity="0.18"/><circle cx="243.9" cy="605.8" r="1.73" fill="#e09440" opacity="0.15"/><circle cx="282.0" cy="603.1" r="2.05" fill="#e09440" opacity="0.27"/><circle cx="320.2" cy="606.2" r="3.70" fill="#e09440" opacity="0.27"/><circle cx="352.8" cy="605.9" r="2.64" fill="#e09440" opacity="0.20"/><circle cx="391.9" cy="607.1" r="2.65" fill="#e09440" opacity="0.34"/><circle cx="425.0" cy="604.3" r="3.87" fill="#e09440" opacity="0.25"/><circle cx="460.9" cy="608.7" r="1.94" fill="#e09440" opacity="0.25"/><circle cx="497.0" cy="605.2" r="3.20" fill="#e09440" opacity="0.17"/><circle cx="532.8" cy="607.8" r="3.41" fill="#e09440" opacity="0.24"/><circle cx="571.3" cy="607.9" r="3.45" fill="#e09440" opacity="0.21"/><circle cx="607.0" cy="606.4" r="3.96" fill="#e09440" opacity="0.21"/><circle cx="643.1" cy="603.1" r="3.07" fill="#e09440" opacity="0.19"/><circle cx="676.5" cy="606.0" r="3.36" fill="#e09440" opacity="0.25"/><circle cx="712.3" cy="609.0" r="1.84" fill="#e09440" opacity="0.22"/><circle cx="750.1" cy="605.4" r="3.22" fill="#e09440" opacity="0.31"/><circle cx="783.3" cy="603.4" r="2.13" fill="#e09440" opacity="0.35"/><circle cx="823.8" cy="604.8" r="1.85" fill="#e09440" opacity="0.15"/><circle cx="856.2" cy="603.0" r="3.78" fill="#e09440" opacity="0.32"/><circle cx="893.9" cy="603.1" r="2.61" fill="#e09440" opacity="0.21"/><circle cx="931.6" cy="603.4" r="2.28" fill="#e09440" opacity="0.28"/><circle cx="968.7" cy="608.0" r="2.86" fill="#e09440" opacity="0.28"/><circle cx="1004.2" cy="605.0" r="2.94" fill="#e09440" opacity="0.28"/><circle cx="1039.0" cy="608.2" r="3.02" fill="#e09440" opacity="0.24"/><circle cx="1076.0" cy="608.2" r="4.00" fill="#e09440" opacity="0.27"/><circle cx="1110.6" cy="606.6" r="2.16" fill="#e09440" opacity="0.33"/><circle cx="1145.6" cy="608.8" r="2.07" fill="#e09440" opacity="0.32"/><circle cx="1183.5" cy="604.4" r="2.09" fill="#e09440" opacity="0.33"/><circle cx="27.7" cy="641.2" r="3.56" fill="#e09440" opacity="0.26"/><circle cx="63.8" cy="641.2" r="2.07" fill="#e09440" opacity="0.25"/><circle cx="99.9" cy="640.0" r="1.94" fill="#e09440" opacity="0.20"/><circle cx="140.4" cy="644.6" r="3.26" fill="#e09440" opacity="0.19"/><circle cx="176.1" cy="640.6" r="3.84" fill="#e09440" opacity="0.33"/><circle cx="210.3" cy="640.0" r="3.71" fill="#e09440" opacity="0.25"/><circle cx="246.9" cy="641.4" r="3.83" fill="#e09440" opacity="0.26"/><circle cx="280.0" cy="643.6" r="2.36" fill="#e09440" opacity="0.26"/><circle cx="318.5" cy="641.7" r="3.02" fill="#e09440" opacity="0.25"/><circle cx="356.0" cy="640.2" r="2.98" fill="#e09440" opacity="0.24"/><circle cx="389.9" cy="641.3" r="3.96" fill="#e09440" opacity="0.28"/><circle cx="426.8" cy="644.1" r="3.62" fill="#e09440" opacity="0.26"/><circle cx="461.5" cy="641.9" r="3.11" fill="#e09440" opacity="0.36"/><circle cx="499.1" cy="640.1" r="1.85" fill="#e09440" opacity="0.33"/><circle cx="534.5" cy="640.2" r="2.10" fill="#e09440" opacity="0.30"/><circle cx="567.6" cy="644.4" r="3.23" fill="#e09440" opacity="0.23"/><circle cx="608.1" cy="639.9" r="2.47" fill="#e09440" opacity="0.26"/><circle cx="641.4" cy="641.9" r="3.45" fill="#e09440" opacity="0.18"/><circle cx="678.6" cy="639.0" r="2.41" fill="#e09440" opacity="0.29"/><circle cx="715.8" cy="644.3" r="2.29" fill="#e09440" opacity="0.16"/><circle cx="748.1" cy="643.1" r="3.32" fill="#e09440" opacity="0.28"/><circle cx="785.6" cy="642.6" r="3.73" fill="#e09440" opacity="0.16"/><circle cx="823.9" cy="642.0" r="2.85" fill="#e09440" opacity="0.27"/><circle cx="860.7" cy="642.2" r="1.97" fill="#e09440" opacity="0.30"/><circle cx="895.2" cy="641.1" r="2.51" fill="#e09440" opacity="0.18"/><circle cx="931.3" cy="642.9" r="2.21" fill="#e09440" opacity="0.24"/><circle cx="963.7" cy="640.7" r="2.69" fill="#e09440" opacity="0.36"/><circle cx="1000.7" cy="644.7" r="2.88" fill="#e09440" opacity="0.35"/><circle cx="1037.3" cy="642.8" r="1.97" fill="#e09440" opacity="0.25"/><circle cx="1075.0" cy="640.3" r="2.02" fill="#e09440" opacity="0.31"/><circle cx="1108.9" cy="644.8" r="1.65" fill="#e09440" opacity="0.29"/><circle cx="1148.8" cy="639.3" r="1.73" fill="#e09440" opacity="0.32"/><circle cx="1179.7" cy="641.5" r="2.79" fill="#e09440" opacity="0.16"/><circle cx="238.0" cy="207.5" r="220" fill="url(#glow)" opacity="0.9"/>
  <g opacity="0.85" transform="translate(1020, 495)">
        <circle r="68" fill="none" stroke="#e09440" stroke-width="2" opacity="0.35"/>
        <path d="M -38 12 L 38 12 M -32 -8 L 32 -8 M -45 -28 L 45 -28" stroke="#fdf6ee" stroke-width="3" stroke-linecap="round"/>
        <rect x="-50" y="-44" width="100" height="80" fill="none" stroke="#e09440" stroke-width="2"/>
      </g>
  <g transform="translate(80, 90)">
    <rect x="0" y="0" rx="20" ry="20" width="112" height="38" fill="#e09440" opacity="0.18" stroke="#e09440" stroke-width="1.5"/>
    <text x="56" y="25" font-family="ui-sans-serif, Inter, sans-serif" font-weight="700" font-size="14" letter-spacing="2.5" fill="#e09440" text-anchor="middle">NEWSROOM</text>
  </g>
  <text x="80" y="465" font-family="ui-sans-serif, -apple-system, Segoe UI, Inter, sans-serif" font-weight="800" font-size="44" fill="#faf8f5" opacity="0.98"><tspan x="80" dy="0">Delhi HC Sets Precedent:</tspan><tspan x="80" dy="56">Clarifies Contractual</tspan><tspan x="80" dy="56">Arbitration Thresholds and</tspan></text>
  <rect x="0" y="669" width="1200" height="6" fill="url(#gold)"/>
</svg>