<?xml version="1.0" encoding="UTF-8"?>
<svg xmlns="http://www.w3.org/2000/svg" viewBox="0 0 1200 675" width="1200" height="675" role="img" aria-label="Delhi High Court: Distinguishing Place of Arbitration from Seat of Arbitration">
  <defs>
    <linearGradient id="bg" x1="0%" y1="0%" x2="100%" y2="100%">
      <stop offset="0%" stop-color="#faf8f5"/>
      <stop offset="100%" stop-color="#f4efe8"/>
    </linearGradient>
    <linearGradient id="gold" x1="0%" y1="0%" x2="100%" y2="100%">
      <stop offset="0%" stop-color="#bd6b20"/>
      <stop offset="100%" stop-color="#9a5518"/>
    </linearGradient>
    <radialGradient id="glow" cx="50%" cy="50%" r="50%">
      <stop offset="0%" stop-color="#bd6b20" stop-opacity="0.45"/>
      <stop offset="100%" stop-color="#bd6b20" stop-opacity="0"/>
    </radialGradient>
  </defs>
  <rect width="1200" height="675" fill="url(#bg)"/>
  <circle cx="840.0" cy="135.0" r="240" fill="url(#glow)" opacity="0.8"/><rect x="294.4" y="366.9" width="15.0" height="15.0" rx="4" transform="rotate(333.4 301.9 374.5)" fill="#bd6b20" opacity="0.32"/><polygon points="80.0,421.4 93.4,448.1 66.6,448.1" fill="#ecb478" opacity="0.15"/><rect x="735.2" y="167.8" width="14.5" height="14.5" rx="4" transform="rotate(259.0 742.4 175.1)" fill="#bd6b20" opacity="0.23"/><polygon points="1031.7,172.1 1062.5,233.7 1000.9,233.7" fill="#ecb478" opacity="0.20"/><rect x="461.6" y="252.5" width="34.9" height="34.9" rx="4" transform="rotate(35.3 479.1 270.0)" fill="#bd6b20" opacity="0.23"/><polygon points="1055.9,482.2 1069.7,509.9 1042.0,509.9" fill="#ecb478" opacity="0.12"/><circle cx="341.7" cy="404.6" r="16.3" fill="#9a5518" opacity="0.28"/><rect x="803.0" y="400.9" width="48.5" height="48.5" rx="4" transform="rotate(53.5 827.2 425.1)" fill="#bd6b20" opacity="0.26"/><rect x="1016.1" y="246.3" width="41.6" height="41.6" rx="4" transform="rotate(178.9 1036.9 267.0)" fill="#bd6b20" opacity="0.35"/><rect x="569.1" y="207.1" width="34.7" height="34.7" rx="4" transform="rotate(89.9 586.5 224.5)" fill="#bd6b20" opacity="0.26"/><circle cx="525.5" cy="109.2" r="11.1" fill="#9a5518" opacity="0.21"/><polygon points="1004.0,350.6 1030.1,402.7 978.0,402.7" fill="#ecb478" opacity="0.17"/><rect x="962.4" y="87.4" width="34.4" height="34.4" rx="4" transform="rotate(228.8 979.6 104.6)" fill="#bd6b20" opacity="0.14"/><circle cx="108.0" cy="504.1" r="18.0" fill="#9a5518" opacity="0.29"/><circle cx="1119.8" cy="114.1" r="19.2" fill="#9a5518" opacity="0.15"/><polygon points="215.8,146.7 228.9,173.0 202.6,173.0" fill="#ecb478" opacity="0.35"/><circle cx="767.0" cy="397.8" r="23.8" fill="#9a5518" opacity="0.33"/><polygon points="1001.0,140.1 1016.2,170.5 985.8,170.5" fill="#ecb478" opacity="0.26"/><polygon points="329.6,423.6 346.9,458.0 312.4,458.0" fill="#ecb478" opacity="0.29"/><circle cx="300.8" cy="393.6" r="9.2" fill="#9a5518" opacity="0.25"/><polygon points="34.4,256.2 59.8,306.9 9.1,306.9" fill="#ecb478" opacity="0.22"/><circle cx="979.9" cy="518.2" r="8.7" fill="#9a5518" opacity="0.21"/>
  <g opacity="0.85" transform="translate(1020, 495)">
        <circle r="68" fill="none" stroke="#bd6b20" stroke-width="2" opacity="0.35"/>
        <path d="M -38 12 L 38 12 M -32 -8 L 32 -8 M -45 -28 L 45 -28" stroke="#9a5518" stroke-width="3" stroke-linecap="round"/>
        <rect x="-50" y="-44" width="100" height="80" fill="none" stroke="#bd6b20" stroke-width="2"/>
      </g>
  <g transform="translate(80, 90)">
    <rect x="0" y="0" rx="20" ry="20" width="112" height="38" fill="#bd6b20" opacity="0.18" stroke="#bd6b20" stroke-width="1.5"/>
    <text x="56" y="25" font-family="ui-sans-serif, Inter, sans-serif" font-weight="700" font-size="14" letter-spacing="2.5" fill="#bd6b20" text-anchor="middle">NEWSROOM</text>
  </g>
  <text x="80" y="465" font-family="ui-sans-serif, -apple-system, Segoe UI, Inter, sans-serif" font-weight="800" font-size="44" fill="#12100e" opacity="0.98"><tspan x="80" dy="0">Delhi High Court:</tspan><tspan x="80" dy="56">Distinguishing Place of</tspan><tspan x="80" dy="56">Arbitration from Seat of</tspan></text>
  <rect x="0" y="669" width="1200" height="6" fill="url(#gold)"/>
</svg>