<?xml version="1.0" encoding="UTF-8"?>
<svg xmlns="http://www.w3.org/2000/svg" viewBox="0 0 1200 675" width="1200" height="675" role="img" aria-label="Delhi High Court Ruling: Pledgee-Pledgor Rights Clarified">
  <defs>
    <linearGradient id="bg" x1="0%" y1="0%" x2="100%" y2="100%">
      <stop offset="0%" stop-color="#643516"/>
      <stop offset="100%" stop-color="#7d4315"/>
    </linearGradient>
    <linearGradient id="gold" x1="0%" y1="0%" x2="100%" y2="100%">
      <stop offset="0%" stop-color="#ecb478"/>
      <stop offset="100%" stop-color="#faebd6"/>
    </linearGradient>
    <radialGradient id="glow" cx="50%" cy="50%" r="50%">
      <stop offset="0%" stop-color="#ecb478" stop-opacity="0.45"/>
      <stop offset="100%" stop-color="#ecb478" stop-opacity="0"/>
    </radialGradient>
  </defs>
  <rect width="1200" height="675" fill="url(#bg)"/>
  <circle cx="840.0" cy="135.0" r="240" fill="url(#glow)" opacity="0.8"/><circle cx="1007.3" cy="371.3" r="24.8" fill="#faebd6" opacity="0.29"/><circle cx="168.3" cy="150.2" r="26.4" fill="#faebd6" opacity="0.25"/><polygon points="1133.0,520.0 1159.5,572.9 1106.6,572.9" fill="#f4d2ac" opacity="0.31"/><circle cx="1188.2" cy="230.6" r="31.7" fill="#faebd6" opacity="0.33"/><rect x="648.3" y="503.4" width="46.0" height="46.0" rx="4" transform="rotate(358.9 671.3 526.4)" fill="#ecb478" opacity="0.32"/><circle cx="566.8" cy="371.8" r="7.7" fill="#faebd6" opacity="0.12"/><rect x="1142.0" y="447.4" width="22.2" height="22.2" rx="4" transform="rotate(273.8 1153.1 458.5)" fill="#ecb478" opacity="0.13"/><circle cx="941.5" cy="294.8" r="10.1" fill="#faebd6" opacity="0.31"/><polygon points="1100.4,-12.8 1113.4,13.4 1087.3,13.4" fill="#f4d2ac" opacity="0.23"/><circle cx="306.5" cy="422.4" r="24.4" fill="#faebd6" opacity="0.34"/><rect x="1152.5" y="409.8" width="50.0" height="50.0" rx="4" transform="rotate(272.1 1177.4 434.8)" fill="#ecb478" opacity="0.22"/><polygon points="126.1,326.0 148.1,370.0 104.1,370.0" fill="#f4d2ac" opacity="0.25"/><circle cx="1052.3" cy="116.0" r="10.1" fill="#faebd6" opacity="0.14"/><circle cx="936.7" cy="109.6" r="24.0" fill="#faebd6" opacity="0.31"/><rect x="727.5" y="315.5" width="34.9" height="34.9" rx="4" transform="rotate(192.5 744.9 332.9)" fill="#ecb478" opacity="0.25"/><polygon points="15.6,211.1 43.7,267.4 -12.6,267.4" fill="#f4d2ac" opacity="0.27"/><rect x="777.8" y="231.7" width="49.7" height="49.7" rx="4" transform="rotate(352.0 802.7 256.6)" fill="#ecb478" opacity="0.11"/><circle cx="318.2" cy="334.4" r="23.2" fill="#faebd6" opacity="0.30"/><rect x="1173.5" y="36.1" width="14.8" height="14.8" rx="4" transform="rotate(118.1 1180.9 43.5)" fill="#ecb478" opacity="0.30"/><circle cx="806.3" cy="334.0" r="14.8" fill="#faebd6" opacity="0.13"/><polygon points="63.6,94.4 73.3,114.0 53.8,114.0" fill="#f4d2ac" opacity="0.13"/><circle cx="387.9" cy="258.3" r="10.3" fill="#faebd6" opacity="0.31"/>
  <g opacity="0.85" transform="translate(1020, 495)">
        <circle r="68" fill="none" stroke="#ecb478" stroke-width="2" opacity="0.35"/>
        <path d="M -38 12 L 38 12 M -32 -8 L 32 -8 M -45 -28 L 45 -28" stroke="#faebd6" stroke-width="3" stroke-linecap="round"/>
        <rect x="-50" y="-44" width="100" height="80" fill="none" stroke="#ecb478" stroke-width="2"/>
      </g>
  <g transform="translate(80, 90)">
    <rect x="0" y="0" rx="20" ry="20" width="112" height="38" fill="#ecb478" opacity="0.18" stroke="#ecb478" stroke-width="1.5"/>
    <text x="56" y="25" font-family="ui-sans-serif, Inter, sans-serif" font-weight="700" font-size="14" letter-spacing="2.5" fill="#ecb478" text-anchor="middle">NEWSROOM</text>
  </g>
  <text x="80" y="465" font-family="ui-sans-serif, -apple-system, Segoe UI, Inter, sans-serif" font-weight="800" font-size="44" fill="#faf8f5" opacity="0.98"><tspan x="80" dy="0">Delhi High Court Ruling:</tspan><tspan x="80" dy="56">Pledgee-Pledgor Rights</tspan><tspan x="80" dy="56">Clarified</tspan></text>
  <rect x="0" y="669" width="1200" height="6" fill="url(#gold)"/>
</svg>