<?xml version="1.0" encoding="UTF-8"?>
<svg xmlns="http://www.w3.org/2000/svg" viewBox="0 0 1200 675" width="1200" height="675" role="img" aria-label="Delhi High Court Strikes Down Unilateral Arbitrator Appointments">
  <defs>
    <linearGradient id="bg" x1="0%" y1="0%" x2="100%" y2="100%">
      <stop offset="0%" stop-color="#532d15"/>
      <stop offset="100%" stop-color="#bd6b20"/>
    </linearGradient>
    <linearGradient id="gold" x1="0%" y1="0%" x2="100%" y2="100%">
      <stop offset="0%" stop-color="#e09440"/>
      <stop offset="100%" stop-color="#fdf6ee"/>
    </linearGradient>
    <radialGradient id="glow" cx="50%" cy="50%" r="50%">
      <stop offset="0%" stop-color="#e09440" stop-opacity="0.45"/>
      <stop offset="100%" stop-color="#e09440" stop-opacity="0"/>
    </radialGradient>
  </defs>
  <rect width="1200" height="675" fill="url(#bg)"/>
  <rect x="-648.4" y="-80" width="62.2" height="875" transform="rotate(18 -648.4 337.5)" fill="#e09440" opacity="0.18"/><rect x="-481.9" y="-80" width="111.5" height="875" transform="rotate(18 -481.9 337.5)" fill="#e09440" opacity="0.12"/><rect x="-291.6" y="-80" width="61.1" height="875" transform="rotate(18 -291.6 337.5)" fill="#e09440" opacity="0.14"/><rect x="-130.5" y="-80" width="109.9" height="875" transform="rotate(18 -130.5 337.5)" fill="#e09440" opacity="0.16"/><rect x="33.9" y="-80" width="88.4" height="875" transform="rotate(18 33.9 337.5)" fill="#e09440" opacity="0.07"/><rect x="253.4" y="-80" width="128.4" height="875" transform="rotate(18 253.4 337.5)" fill="#e09440" opacity="0.16"/><rect x="364.7" y="-80" width="76.7" height="875" transform="rotate(18 364.7 337.5)" fill="#e09440" opacity="0.20"/><rect x="570.1" y="-80" width="136.8" height="875" transform="rotate(18 570.1 337.5)" fill="#e09440" opacity="0.14"/><rect x="740.2" y="-80" width="110.4" height="875" transform="rotate(18 740.2 337.5)" fill="#e09440" opacity="0.20"/><rect x="922.1" y="-80" width="92.6" height="875" transform="rotate(18 922.1 337.5)" fill="#e09440" opacity="0.18"/><rect x="1118.6" y="-80" width="115.6" height="875" transform="rotate(18 1118.6 337.5)" fill="#e09440" opacity="0.05"/><rect x="1316.7" y="-80" width="117.4" height="875" transform="rotate(18 1316.7 337.5)" fill="#e09440" opacity="0.12"/><rect x="1443.7" y="-80" width="120.2" height="875" transform="rotate(18 1443.7 337.5)" fill="#e09440" opacity="0.12"/><rect x="1645.6" y="-80" width="99.7" height="875" transform="rotate(18 1645.6 337.5)" fill="#e09440" opacity="0.11"/><rect x="0" y="0" width="1200" height="675" fill="url(#glow)" opacity="0.6"/>
  <g opacity="0.85" transform="translate(1020, 495)">
        <circle r="68" fill="none" stroke="#e09440" stroke-width="2" opacity="0.35"/>
        <path d="M -38 12 L 38 12 M -32 -8 L 32 -8 M -45 -28 L 45 -28" stroke="#fdf6ee" stroke-width="3" stroke-linecap="round"/>
        <rect x="-50" y="-44" width="100" height="80" fill="none" stroke="#e09440" stroke-width="2"/>
      </g>
  <g transform="translate(80, 90)">
    <rect x="0" y="0" rx="20" ry="20" width="112" height="38" fill="#e09440" opacity="0.18" stroke="#e09440" stroke-width="1.5"/>
    <text x="56" y="25" font-family="ui-sans-serif, Inter, sans-serif" font-weight="700" font-size="14" letter-spacing="2.5" fill="#e09440" text-anchor="middle">NEWSROOM</text>
  </g>
  <text x="80" y="465" font-family="ui-sans-serif, -apple-system, Segoe UI, Inter, sans-serif" font-weight="800" font-size="44" fill="#faf8f5" opacity="0.98"><tspan x="80" dy="0">Delhi High Court Strikes</tspan><tspan x="80" dy="56">Down Unilateral Arbitrator</tspan><tspan x="80" dy="56">Appointments</tspan></text>
  <rect x="0" y="669" width="1200" height="6" fill="url(#gold)"/>
</svg>