<?xml version="1.0" encoding="UTF-8"?>
<svg xmlns="http://www.w3.org/2000/svg" viewBox="0 0 1200 675" width="1200" height="675" role="img" aria-label="Delhi HC Enforces Euro 5.5 Million Arbitration Award for Mercedes-Benz">
  <defs>
    <linearGradient id="bg" x1="0%" y1="0%" x2="100%" y2="100%">
      <stop offset="0%" stop-color="#faf8f5"/>
      <stop offset="100%" stop-color="#f4efe8"/>
    </linearGradient>
    <linearGradient id="gold" x1="0%" y1="0%" x2="100%" y2="100%">
      <stop offset="0%" stop-color="#bd6b20"/>
      <stop offset="100%" stop-color="#9a5518"/>
    </linearGradient>
    <radialGradient id="glow" cx="50%" cy="50%" r="50%">
      <stop offset="0%" stop-color="#bd6b20" stop-opacity="0.45"/>
      <stop offset="100%" stop-color="#bd6b20" stop-opacity="0"/>
    </radialGradient>
  </defs>
  <rect width="1200" height="675" fill="url(#bg)"/>
  <polygon points="-50,357.1 -20,354.7 10,351.0 40,346.0 70,339.8 100,332.7 130,324.7 160,316.0 190,306.8 220,297.3 250,287.8 280,278.4 310,269.4 340,261.0 370,253.3 400,246.5 430,240.8 460,236.3 490,233.1 520,231.3 550,230.9 580,232.0 610,234.4 640,238.2 670,243.3 700,249.5 730,256.7 760,264.8 790,273.5 820,282.7 850,292.2 880,301.7 910,311.0 940,320.0 970,328.4 1000,336.1 1030,342.8 1060,348.4 1090,352.8 1120,355.9 1150,357.7 1180,358.0 1210,356.9 1240,354.3 1250,725 -50,725" fill="#bd6b20" opacity="0.08"/><polygon points="-50,304.6 -20,302.0 10,300.7 40,300.8 70,302.1 100,304.8 130,308.6 160,313.6 190,319.6 220,326.5 250,334.1 280,342.3 310,350.8 340,359.6 370,368.3 400,376.8 430,384.9 460,392.5 490,399.2 520,405.1 550,410.0 580,413.7 610,416.1 640,417.3 670,417.2 700,415.8 730,413.1 760,409.2 790,404.1 820,398.1 850,391.2 880,383.5 910,375.3 940,366.7 970,358.0 1000,349.3 1030,340.8 1060,332.7 1090,325.2 1120,318.5 1150,312.6 1180,307.8 1210,304.2 1240,301.8 1250,725 -50,725" fill="#bd6b20" opacity="0.13"/><polygon points="-50,406.3 -20,413.6 10,420.6 40,427.3 70,433.4 100,438.8 130,443.3 160,447.0 190,449.7 220,451.3 250,451.8 280,451.2 310,449.5 340,446.8 370,443.1 400,438.4 430,433.0 460,426.8 490,420.1 520,413.1 550,405.8 580,398.4 610,391.1 640,384.0 670,377.4 700,371.4 730,366.0 760,361.5 790,357.9 820,355.2 850,353.7 880,353.2 910,353.9 940,355.6 970,358.4 1000,362.2 1030,366.9 1060,372.4 1090,378.6 1120,385.3 1150,392.4 1180,399.7 1210,407.1 1240,414.4 1250,725 -50,725" fill="#bd6b20" opacity="0.18"/><polygon points="-50,485.7 -20,474.7 10,464.0 40,453.8 70,444.3 100,435.8 130,428.4 160,422.3 190,417.7 220,414.6 250,413.2 280,413.4 310,415.2 340,418.7 370,423.6 400,430.0 430,437.7 460,446.5 490,456.1 520,466.5 550,477.3 580,488.3 610,499.3 640,510.0 670,520.2 700,529.6 730,538.1 760,545.4 790,551.4 820,555.9 850,558.9 880,560.3 910,560.0 940,558.0 970,554.5 1000,549.4 1030,543.0 1060,535.2 1090,526.4 1120,516.7 1150,506.3 1180,495.5 1210,484.4 1240,473.5 1250,725 -50,725" fill="#bd6b20" opacity="0.23"/><circle cx="300.0" cy="189.0" r="160" fill="url(#glow)"/>
  <g opacity="0.85" transform="translate(1020, 495)">
        <circle r="68" fill="none" stroke="#bd6b20" stroke-width="2" opacity="0.35"/>
        <path d="M -38 12 L 38 12 M -32 -8 L 32 -8 M -45 -28 L 45 -28" stroke="#9a5518" stroke-width="3" stroke-linecap="round"/>
        <rect x="-50" y="-44" width="100" height="80" fill="none" stroke="#bd6b20" stroke-width="2"/>
      </g>
  <g transform="translate(80, 90)">
    <rect x="0" y="0" rx="20" ry="20" width="112" height="38" fill="#bd6b20" opacity="0.18" stroke="#bd6b20" stroke-width="1.5"/>
    <text x="56" y="25" font-family="ui-sans-serif, Inter, sans-serif" font-weight="700" font-size="14" letter-spacing="2.5" fill="#bd6b20" text-anchor="middle">NEWSROOM</text>
  </g>
  <text x="80" y="465" font-family="ui-sans-serif, -apple-system, Segoe UI, Inter, sans-serif" font-weight="800" font-size="44" fill="#12100e" opacity="0.98"><tspan x="80" dy="0">Delhi HC Enforces Euro 5.5</tspan><tspan x="80" dy="56">Million Arbitration Award</tspan><tspan x="80" dy="56">for Mercedes-Benz</tspan></text>
  <rect x="0" y="669" width="1200" height="6" fill="url(#gold)"/>
</svg>