<?xml version="1.0" encoding="UTF-8"?>
<svg xmlns="http://www.w3.org/2000/svg" viewBox="0 0 1200 675" width="1200" height="675" role="img" aria-label="Important Facts to Know About Section 29A Petitions Timing Protocol in Delhi High Court">
  <defs>
    <linearGradient id="bg" x1="0%" y1="0%" x2="100%" y2="100%">
      <stop offset="0%" stop-color="#0c0a09"/>
      <stop offset="100%" stop-color="#291813"/>
    </linearGradient>
    <linearGradient id="gold" x1="0%" y1="0%" x2="100%" y2="100%">
      <stop offset="0%" stop-color="#d4862a"/>
      <stop offset="100%" stop-color="#bd6b20"/>
    </linearGradient>
    <radialGradient id="glow" cx="50%" cy="50%" r="50%">
      <stop offset="0%" stop-color="#d4862a" stop-opacity="0.45"/>
      <stop offset="100%" stop-color="#d4862a" stop-opacity="0"/>
    </radialGradient>
  </defs>
  <rect width="1200" height="675" fill="url(#bg)"/>
  <rect x="-688.7" y="-80" width="92.4" height="875" transform="rotate(18 -688.7 337.5)" fill="#d4862a" opacity="0.12"/><rect x="-480.5" y="-80" width="91.6" height="875" transform="rotate(18 -480.5 337.5)" fill="#d4862a" opacity="0.16"/><rect x="-284.2" y="-80" width="100.7" height="875" transform="rotate(18 -284.2 337.5)" fill="#d4862a" opacity="0.06"/><rect x="-131.8" y="-80" width="114.9" height="875" transform="rotate(18 -131.8 337.5)" fill="#d4862a" opacity="0.16"/><rect x="3.3" y="-80" width="91.3" height="875" transform="rotate(18 3.3 337.5)" fill="#d4862a" opacity="0.07"/><rect x="198.0" y="-80" width="78.8" height="875" transform="rotate(18 198.0 337.5)" fill="#d4862a" opacity="0.16"/><rect x="426.5" y="-80" width="99.6" height="875" transform="rotate(18 426.5 337.5)" fill="#d4862a" opacity="0.11"/><rect x="598.5" y="-80" width="116.9" height="875" transform="rotate(18 598.5 337.5)" fill="#d4862a" opacity="0.10"/><rect x="748.5" y="-80" width="134.6" height="875" transform="rotate(18 748.5 337.5)" fill="#d4862a" opacity="0.11"/><rect x="955.9" y="-80" width="95.3" height="875" transform="rotate(18 955.9 337.5)" fill="#d4862a" opacity="0.09"/><rect x="1126.7" y="-80" width="71.4" height="875" transform="rotate(18 1126.7 337.5)" fill="#d4862a" opacity="0.17"/><rect x="1286.9" y="-80" width="139.0" height="875" transform="rotate(18 1286.9 337.5)" fill="#d4862a" opacity="0.16"/><rect x="1454.2" y="-80" width="89.2" height="875" transform="rotate(18 1454.2 337.5)" fill="#d4862a" opacity="0.19"/><rect x="1665.3" y="-80" width="91.7" height="875" transform="rotate(18 1665.3 337.5)" fill="#d4862a" opacity="0.12"/><rect x="0" y="0" width="1200" height="675" fill="url(#glow)" opacity="0.6"/>
  <g opacity="0.85" transform="translate(1020, 495)">
        <circle r="68" fill="none" stroke="#d4862a" stroke-width="2" opacity="0.35"/>
        <path d="M -38 12 L 38 12 M -32 -8 L 32 -8 M -45 -28 L 45 -28" stroke="#bd6b20" stroke-width="3" stroke-linecap="round"/>
        <rect x="-50" y="-44" width="100" height="80" fill="none" stroke="#d4862a" stroke-width="2"/>
      </g>
  <g transform="translate(80, 90)">
    <rect x="0" y="0" rx="20" ry="20" width="112" height="38" fill="#d4862a" opacity="0.18" stroke="#d4862a" stroke-width="1.5"/>
    <text x="56" y="25" font-family="ui-sans-serif, Inter, sans-serif" font-weight="700" font-size="14" letter-spacing="2.5" fill="#d4862a" text-anchor="middle">NEWSROOM</text>
  </g>
  <text x="80" y="465" font-family="ui-sans-serif, -apple-system, Segoe UI, Inter, sans-serif" font-weight="800" font-size="44" fill="#faf8f5" opacity="0.98"><tspan x="80" dy="0">Important Facts to Know</tspan><tspan x="80" dy="56">About Section 29A</tspan><tspan x="80" dy="56">Petitions Timing Protocol</tspan></text>
  <rect x="0" y="669" width="1200" height="6" fill="url(#gold)"/>
</svg>