<?xml version="1.0" encoding="UTF-8"?>
<svg xmlns="http://www.w3.org/2000/svg" viewBox="0 0 1200 675" width="1200" height="675" role="img" aria-label="Delhi HC Upholds MSME Arbitration Over Private Contracts">
  <defs>
    <linearGradient id="bg" x1="0%" y1="0%" x2="100%" y2="100%">
      <stop offset="0%" stop-color="#0c0a09"/>
      <stop offset="100%" stop-color="#291813"/>
    </linearGradient>
    <linearGradient id="gold" x1="0%" y1="0%" x2="100%" y2="100%">
      <stop offset="0%" stop-color="#d4862a"/>
      <stop offset="100%" stop-color="#bd6b20"/>
    </linearGradient>
    <radialGradient id="glow" cx="50%" cy="50%" r="50%">
      <stop offset="0%" stop-color="#d4862a" stop-opacity="0.45"/>
      <stop offset="100%" stop-color="#d4862a" stop-opacity="0"/>
    </radialGradient>
  </defs>
  <rect width="1200" height="675" fill="url(#bg)"/>
  <circle cx="216" cy="236.24999999999997" r="291.29212744534016" fill="url(#glow)" opacity="0.8"/><circle cx="790.1" cy="132.2" r="219.9" fill="#d4862a" opacity="0.08"/><circle cx="411.4" cy="394.5" r="152.0" fill="#d4862a" opacity="0.17"/><circle cx="1144.1" cy="79.7" r="201.1" fill="#d4862a" opacity="0.15"/><circle cx="1116.0" cy="238.2" r="218.9" fill="#d4862a" opacity="0.13"/><circle cx="705.4" cy="214.0" r="115.2" fill="#d4862a" opacity="0.12"/><circle cx="984.0" cy="168.8" r="220" fill="none" stroke="#bd6b20" stroke-width="1.5" opacity="0.4"/>
  <g opacity="0.85" transform="translate(1020, 495)">
        <circle r="68" fill="none" stroke="#d4862a" stroke-width="2" opacity="0.35"/>
        <path d="M -38 12 L 38 12 M -32 -8 L 32 -8 M -45 -28 L 45 -28" stroke="#bd6b20" stroke-width="3" stroke-linecap="round"/>
        <rect x="-50" y="-44" width="100" height="80" fill="none" stroke="#d4862a" stroke-width="2"/>
      </g>
  <g transform="translate(80, 90)">
    <rect x="0" y="0" rx="20" ry="20" width="112" height="38" fill="#d4862a" opacity="0.18" stroke="#d4862a" stroke-width="1.5"/>
    <text x="56" y="25" font-family="ui-sans-serif, Inter, sans-serif" font-weight="700" font-size="14" letter-spacing="2.5" fill="#d4862a" text-anchor="middle">NEWSROOM</text>
  </g>
  <text x="80" y="465" font-family="ui-sans-serif, -apple-system, Segoe UI, Inter, sans-serif" font-weight="800" font-size="44" fill="#faf8f5" opacity="0.98"><tspan x="80" dy="0">Delhi HC Upholds MSME</tspan><tspan x="80" dy="56">Arbitration Over Private</tspan><tspan x="80" dy="56">Contracts</tspan></text>
  <rect x="0" y="669" width="1200" height="6" fill="url(#gold)"/>
</svg>