<?xml version="1.0" encoding="UTF-8"?>
<svg xmlns="http://www.w3.org/2000/svg" viewBox="0 0 1200 675" width="1200" height="675" role="img" aria-label="Delhi HC Dismisses Rs.176 Cr Arbitration Plea in NHIDCL Dispute">
  <defs>
    <linearGradient id="bg" x1="0%" y1="0%" x2="100%" y2="100%">
      <stop offset="0%" stop-color="#faf8f5"/>
      <stop offset="100%" stop-color="#f4efe8"/>
    </linearGradient>
    <linearGradient id="gold" x1="0%" y1="0%" x2="100%" y2="100%">
      <stop offset="0%" stop-color="#bd6b20"/>
      <stop offset="100%" stop-color="#9a5518"/>
    </linearGradient>
    <radialGradient id="glow" cx="50%" cy="50%" r="50%">
      <stop offset="0%" stop-color="#bd6b20" stop-opacity="0.45"/>
      <stop offset="100%" stop-color="#bd6b20" stop-opacity="0"/>
    </radialGradient>
  </defs>
  <rect width="1200" height="675" fill="url(#bg)"/>
  <circle cx="840.0" cy="135.0" r="240" fill="url(#glow)" opacity="0.8"/><circle cx="122.7" cy="323.1" r="18.3" fill="#9a5518" opacity="0.24"/><polygon points="1008.3,426.0 1031.1,471.7 985.4,471.7" fill="#ecb478" opacity="0.12"/><rect x="991.8" y="234.3" width="58.1" height="58.1" rx="4" transform="rotate(19.6 1020.8 263.4)" fill="#bd6b20" opacity="0.17"/><polygon points="758.8,38.2 773.7,68.0 743.9,68.0" fill="#ecb478" opacity="0.33"/><circle cx="4.7" cy="402.3" r="31.3" fill="#9a5518" opacity="0.14"/><polygon points="445.1,264.0 462.1,298.0 428.2,298.0" fill="#ecb478" opacity="0.26"/><polygon points="613.1,466.3 631.2,502.4 595.1,502.4" fill="#ecb478" opacity="0.12"/><rect x="147.7" y="162.9" width="23.3" height="23.3" rx="4" transform="rotate(26.7 159.3 174.6)" fill="#bd6b20" opacity="0.27"/><rect x="179.6" y="481.1" width="39.3" height="39.3" rx="4" transform="rotate(63.4 199.3 500.8)" fill="#bd6b20" opacity="0.28"/><rect x="949.6" y="270.5" width="48.2" height="48.2" rx="4" transform="rotate(89.3 973.7 294.6)" fill="#bd6b20" opacity="0.34"/><circle cx="66.8" cy="378.9" r="17.4" fill="#9a5518" opacity="0.14"/><rect x="331.8" y="221.0" width="14.2" height="14.2" rx="4" transform="rotate(82.8 338.9 228.1)" fill="#bd6b20" opacity="0.18"/><polygon points="815.9,350.3 827.1,372.7 804.7,372.7" fill="#ecb478" opacity="0.19"/><polygon points="400.8,81.8 421.2,122.6 380.4,122.6" fill="#ecb478" opacity="0.31"/><circle cx="1022.4" cy="319.9" r="24.7" fill="#9a5518" opacity="0.18"/><polygon points="302.7,-10.5 324.4,32.9 281.0,32.9" fill="#ecb478" opacity="0.29"/><circle cx="117.8" cy="325.0" r="10.4" fill="#9a5518" opacity="0.31"/><polygon points="132.5,509.3 160.7,565.7 104.3,565.7" fill="#ecb478" opacity="0.35"/><circle cx="436.4" cy="65.5" r="28.6" fill="#9a5518" opacity="0.27"/><rect x="995.7" y="126.5" width="60.4" height="60.4" rx="4" transform="rotate(211.5 1025.8 156.7)" fill="#bd6b20" opacity="0.14"/><rect x="524.8" y="379.0" width="22.5" height="22.5" rx="4" transform="rotate(24.1 536.0 390.3)" fill="#bd6b20" opacity="0.33"/><circle cx="849.1" cy="445.4" r="10.9" fill="#9a5518" opacity="0.21"/>
  <g opacity="0.85" transform="translate(1020, 495)">
        <circle r="68" fill="none" stroke="#bd6b20" stroke-width="2" opacity="0.35"/>
        <path d="M -38 12 L 38 12 M -32 -8 L 32 -8 M -45 -28 L 45 -28" stroke="#9a5518" stroke-width="3" stroke-linecap="round"/>
        <rect x="-50" y="-44" width="100" height="80" fill="none" stroke="#bd6b20" stroke-width="2"/>
      </g>
  <g transform="translate(80, 90)">
    <rect x="0" y="0" rx="20" ry="20" width="112" height="38" fill="#bd6b20" opacity="0.18" stroke="#bd6b20" stroke-width="1.5"/>
    <text x="56" y="25" font-family="ui-sans-serif, Inter, sans-serif" font-weight="700" font-size="14" letter-spacing="2.5" fill="#bd6b20" text-anchor="middle">NEWSROOM</text>
  </g>
  <text x="80" y="465" font-family="ui-sans-serif, -apple-system, Segoe UI, Inter, sans-serif" font-weight="800" font-size="44" fill="#12100e" opacity="0.98"><tspan x="80" dy="0">Delhi HC Dismisses Rs.176</tspan><tspan x="80" dy="56">Cr Arbitration Plea in</tspan><tspan x="80" dy="56">NHIDCL Dispute</tspan></text>
  <rect x="0" y="669" width="1200" height="6" fill="url(#gold)"/>
</svg>