<?xml version="1.0" encoding="UTF-8"?>
<svg xmlns="http://www.w3.org/2000/svg" viewBox="0 0 1200 675" width="1200" height="675" role="img" aria-label="Delhi High Court Upholds Arbitrator's Authority in Fraud Allegation Dispute">
  <defs>
    <linearGradient id="bg" x1="0%" y1="0%" x2="100%" y2="100%">
      <stop offset="0%" stop-color="#12100e"/>
      <stop offset="100%" stop-color="#1c1917"/>
    </linearGradient>
    <linearGradient id="gold" x1="0%" y1="0%" x2="100%" y2="100%">
      <stop offset="0%" stop-color="#bd6b20"/>
      <stop offset="100%" stop-color="#e09440"/>
    </linearGradient>
    <radialGradient id="glow" cx="50%" cy="50%" r="50%">
      <stop offset="0%" stop-color="#bd6b20" stop-opacity="0.45"/>
      <stop offset="100%" stop-color="#bd6b20" stop-opacity="0"/>
    </radialGradient>
  </defs>
  <rect width="1200" height="675" fill="url(#bg)"/>
  <circle cx="840.0" cy="135.0" r="240" fill="url(#glow)" opacity="0.8"/><rect x="445.8" y="234.8" width="62.6" height="62.6" rx="4" transform="rotate(113.4 477.1 266.1)" fill="#bd6b20" opacity="0.33"/><circle cx="1078.4" cy="293.8" r="16.9" fill="#e09440" opacity="0.28"/><polygon points="821.7,349.9 849.3,405.0 794.2,405.0" fill="#faebd6" opacity="0.13"/><circle cx="147.2" cy="71.1" r="24.9" fill="#e09440" opacity="0.12"/><rect x="1042.2" y="100.1" width="33.2" height="33.2" rx="4" transform="rotate(110.0 1058.9 116.7)" fill="#bd6b20" opacity="0.13"/><circle cx="1163.6" cy="553.7" r="24.2" fill="#e09440" opacity="0.21"/><polygon points="1033.6,406.9 1047.6,435.0 1019.5,435.0" fill="#faebd6" opacity="0.22"/><polygon points="400.6,23.5 411.1,44.5 390.1,44.5" fill="#faebd6" opacity="0.15"/><rect x="1030.5" y="123.9" width="53.2" height="53.2" rx="4" transform="rotate(150.3 1057.1 150.5)" fill="#bd6b20" opacity="0.19"/><polygon points="1196.0,62.9 1224.5,119.9 1167.5,119.9" fill="#faebd6" opacity="0.11"/><circle cx="499.0" cy="130.0" r="13.8" fill="#e09440" opacity="0.24"/><rect x="245.9" y="164.7" width="26.4" height="26.4" rx="4" transform="rotate(255.9 259.1 177.9)" fill="#bd6b20" opacity="0.12"/><circle cx="124.5" cy="362.6" r="12.6" fill="#e09440" opacity="0.14"/><circle cx="801.0" cy="54.8" r="12.9" fill="#e09440" opacity="0.18"/><polygon points="1085.3,11.9 1096.9,35.1 1073.6,35.1" fill="#faebd6" opacity="0.14"/><circle cx="279.4" cy="422.2" r="20.7" fill="#e09440" opacity="0.31"/><polygon points="1151.5,325.1 1178.1,378.3 1124.9,378.3" fill="#faebd6" opacity="0.15"/><circle cx="326.9" cy="497.4" r="19.9" fill="#e09440" opacity="0.26"/><rect x="58.2" y="475.2" width="16.2" height="16.2" rx="4" transform="rotate(34.9 66.3 483.3)" fill="#bd6b20" opacity="0.28"/><circle cx="74.4" cy="480.7" r="15.7" fill="#e09440" opacity="0.32"/><circle cx="1181.6" cy="110.6" r="30.6" fill="#e09440" opacity="0.21"/><rect x="1080.0" y="520.8" width="25.4" height="25.4" rx="4" transform="rotate(27.6 1092.7 533.5)" fill="#bd6b20" opacity="0.22"/>
  <g opacity="0.85" transform="translate(1020, 495)">
        <circle r="68" fill="none" stroke="#bd6b20" stroke-width="2" opacity="0.35"/>
        <path d="M -38 12 L 38 12 M -32 -8 L 32 -8 M -45 -28 L 45 -28" stroke="#e09440" stroke-width="3" stroke-linecap="round"/>
        <rect x="-50" y="-44" width="100" height="80" fill="none" stroke="#bd6b20" stroke-width="2"/>
      </g>
  <g transform="translate(80, 90)">
    <rect x="0" y="0" rx="20" ry="20" width="112" height="38" fill="#bd6b20" opacity="0.18" stroke="#bd6b20" stroke-width="1.5"/>
    <text x="56" y="25" font-family="ui-sans-serif, Inter, sans-serif" font-weight="700" font-size="14" letter-spacing="2.5" fill="#bd6b20" text-anchor="middle">NEWSROOM</text>
  </g>
  <text x="80" y="465" font-family="ui-sans-serif, -apple-system, Segoe UI, Inter, sans-serif" font-weight="800" font-size="44" fill="#faf8f5" opacity="0.98"><tspan x="80" dy="0">Delhi High Court Upholds</tspan><tspan x="80" dy="56">Arbitrator's Authority in</tspan><tspan x="80" dy="56">Fraud Allegation Dispute</tspan></text>
  <rect x="0" y="669" width="1200" height="6" fill="url(#gold)"/>
</svg>