<?xml version="1.0" encoding="UTF-8"?>
<svg xmlns="http://www.w3.org/2000/svg" viewBox="0 0 1200 675" width="1200" height="675" role="img" aria-label="Supreme Court Ruling on Balancing CPC Principles and Section 9 Power in Interim Relief - Analysis">
  <defs>
    <linearGradient id="bg" x1="0%" y1="0%" x2="100%" y2="100%">
      <stop offset="0%" stop-color="#faf8f5"/>
      <stop offset="100%" stop-color="#f4efe8"/>
    </linearGradient>
    <linearGradient id="gold" x1="0%" y1="0%" x2="100%" y2="100%">
      <stop offset="0%" stop-color="#bd6b20"/>
      <stop offset="100%" stop-color="#9a5518"/>
    </linearGradient>
    <radialGradient id="glow" cx="50%" cy="50%" r="50%">
      <stop offset="0%" stop-color="#bd6b20" stop-opacity="0.45"/>
      <stop offset="100%" stop-color="#bd6b20" stop-opacity="0"/>
    </radialGradient>
  </defs>
  <rect width="1200" height="675" fill="url(#bg)"/>
  <circle cx="28.7" cy="27.8" r="3.07" fill="#bd6b20" opacity="0.28"/><circle cx="65.9" cy="27.7" r="3.95" fill="#bd6b20" opacity="0.34"/><circle cx="104.4" cy="28.8" r="3.24" fill="#bd6b20" opacity="0.35"/><circle cx="139.5" cy="29.7" r="1.86" fill="#bd6b20" opacity="0.35"/><circle cx="175.5" cy="27.2" r="3.37" fill="#bd6b20" opacity="0.17"/><circle cx="208.2" cy="29.9" r="3.32" fill="#bd6b20" opacity="0.35"/><circle cx="244.4" cy="31.6" r="2.61" fill="#bd6b20" opacity="0.20"/><circle cx="282.2" cy="32.1" r="2.88" fill="#bd6b20" opacity="0.16"/><circle cx="320.9" cy="31.8" r="3.29" fill="#bd6b20" opacity="0.23"/><circle cx="356.7" cy="30.7" r="2.26" fill="#bd6b20" opacity="0.32"/><circle cx="391.7" cy="31.9" r="2.40" fill="#bd6b20" opacity="0.27"/><circle cx="428.5" cy="31.9" r="2.71" fill="#bd6b20" opacity="0.28"/><circle cx="462.2" cy="29.4" r="2.66" fill="#bd6b20" opacity="0.16"/><circle cx="497.1" cy="32.2" r="3.45" fill="#bd6b20" opacity="0.29"/><circle cx="533.9" cy="32.1" r="3.71" fill="#bd6b20" opacity="0.20"/><circle cx="572.3" cy="28.1" r="1.83" fill="#bd6b20" opacity="0.22"/><circle cx="606.3" cy="32.4" r="1.88" fill="#bd6b20" opacity="0.26"/><circle cx="644.8" cy="29.9" r="2.60" fill="#bd6b20" opacity="0.35"/><circle cx="680.0" cy="32.5" r="2.57" fill="#bd6b20" opacity="0.15"/><circle cx="714.9" cy="28.5" r="3.66" fill="#bd6b20" opacity="0.25"/><circle cx="748.6" cy="31.8" r="2.61" fill="#bd6b20" opacity="0.18"/><circle cx="784.5" cy="32.6" r="3.79" fill="#bd6b20" opacity="0.17"/><circle cx="821.5" cy="31.8" r="3.57" fill="#bd6b20" opacity="0.22"/><circle cx="859.8" cy="28.5" r="1.85" fill="#bd6b20" opacity="0.27"/><circle cx="892.7" cy="28.5" r="3.90" fill="#bd6b20" opacity="0.35"/><circle cx="932.1" cy="28.0" r="2.05" fill="#bd6b20" opacity="0.23"/><circle cx="965.8" cy="31.5" r="2.37" fill="#bd6b20" opacity="0.21"/><circle cx="1001.5" cy="32.2" r="2.99" fill="#bd6b20" opacity="0.26"/><circle cx="1036.1" cy="30.5" r="1.87" fill="#bd6b20" opacity="0.30"/><circle cx="1073.1" cy="28.0" r="3.92" fill="#bd6b20" opacity="0.18"/><circle cx="1113.0" cy="32.5" r="2.75" fill="#bd6b20" opacity="0.18"/><circle cx="1147.8" cy="27.5" r="1.70" fill="#bd6b20" opacity="0.26"/><circle cx="1179.3" cy="27.5" r="1.99" fill="#bd6b20" opacity="0.34"/><circle cx="27.8" cy="67.8" r="2.17" fill="#bd6b20" opacity="0.24"/><circle cx="66.7" cy="68.5" r="2.57" fill="#bd6b20" opacity="0.16"/><circle cx="104.9" cy="68.4" r="2.85" fill="#bd6b20" opacity="0.15"/><circle cx="137.2" cy="68.8" r="3.29" fill="#bd6b20" opacity="0.23"/><circle cx="173.4" cy="64.1" r="1.75" fill="#bd6b20" opacity="0.34"/><circle cx="208.8" cy="64.7" r="1.85" fill="#bd6b20" opacity="0.36"/><circle cx="247.4" cy="67.7" r="3.93" fill="#bd6b20" opacity="0.21"/><circle cx="281.6" cy="67.8" r="3.57" fill="#bd6b20" opacity="0.23"/><circle cx="316.4" cy="63.1" r="2.04" fill="#bd6b20" opacity="0.23"/><circle cx="351.3" cy="64.0" r="1.78" fill="#bd6b20" opacity="0.18"/><circle cx="390.7" cy="65.5" r="2.99" fill="#bd6b20" opacity="0.35"/><circle cx="427.3" cy="65.1" r="3.96" fill="#bd6b20" opacity="0.27"/><circle cx="465.0" cy="67.1" r="3.61" fill="#bd6b20" opacity="0.19"/><circle cx="497.5" cy="67.8" r="2.13" fill="#bd6b20" opacity="0.24"/><circle cx="531.0" cy="67.8" r="2.81" fill="#bd6b20" opacity="0.26"/><circle cx="569.0" cy="67.3" r="3.45" fill="#bd6b20" opacity="0.34"/><circle cx="608.2" cy="67.8" r="3.16" fill="#bd6b20" opacity="0.31"/><circle cx="639.6" cy="65.5" r="3.39" fill="#bd6b20" opacity="0.18"/><circle cx="680.7" cy="67.0" r="2.12" fill="#bd6b20" opacity="0.25"/><circle cx="712.1" cy="65.9" r="3.50" fill="#bd6b20" opacity="0.19"/><circle cx="749.9" cy="64.9" r="2.76" fill="#bd6b20" opacity="0.34"/><circle cx="785.6" cy="68.8" r="2.75" fill="#bd6b20" opacity="0.27"/><circle cx="820.9" cy="68.2" r="3.25" fill="#bd6b20" opacity="0.32"/><circle cx="855.5" cy="63.5" r="3.64" fill="#bd6b20" opacity="0.22"/><circle cx="893.1" cy="66.7" r="1.84" fill="#bd6b20" opacity="0.32"/><circle cx="929.4" cy="65.8" r="3.43" fill="#bd6b20" opacity="0.24"/><circle cx="964.7" cy="64.9" r="1.73" fill="#bd6b20" opacity="0.26"/><circle cx="1003.8" cy="65.4" r="2.65" fill="#bd6b20" opacity="0.25"/><circle cx="1038.0" cy="63.5" r="2.23" fill="#bd6b20" opacity="0.25"/><circle cx="1075.5" cy="65.6" r="2.49" fill="#bd6b20" opacity="0.35"/><circle cx="1107.9" cy="65.1" r="1.95" fill="#bd6b20" opacity="0.15"/><circle cx="1147.3" cy="64.4" r="2.13" fill="#bd6b20" opacity="0.18"/><circle cx="1181.2" cy="66.9" r="3.27" fill="#bd6b20" opacity="0.23"/><circle cx="29.5" cy="101.6" r="3.54" fill="#bd6b20" opacity="0.24"/><circle cx="64.9" cy="104.6" r="3.54" fill="#bd6b20" opacity="0.28"/><circle cx="104.5" cy="100.3" r="3.86" fill="#bd6b20" opacity="0.26"/><circle cx="135.5" cy="102.2" r="2.29" fill="#bd6b20" opacity="0.25"/><circle cx="173.1" cy="103.3" r="3.91" fill="#bd6b20" opacity="0.22"/><circle cx="208.5" cy="103.4" r="2.73" fill="#bd6b20" opacity="0.17"/><circle cx="247.7" cy="101.5" r="2.29" fill="#bd6b20" opacity="0.28"/><circle cx="279.5" cy="104.8" r="3.07" fill="#bd6b20" opacity="0.17"/><circle cx="315.2" cy="104.2" r="3.10" fill="#bd6b20" opacity="0.25"/><circle cx="351.5" cy="100.2" r="3.86" fill="#bd6b20" opacity="0.31"/><circle cx="392.0" cy="100.1" r="2.91" fill="#bd6b20" opacity="0.19"/><circle cx="423.8" cy="103.9" r="2.81" fill="#bd6b20" opacity="0.23"/><circle cx="459.2" cy="103.2" r="2.65" fill="#bd6b20" opacity="0.36"/><circle cx="496.1" cy="101.2" r="3.15" fill="#bd6b20" opacity="0.33"/><circle cx="534.3" cy="104.2" r="3.11" fill="#bd6b20" opacity="0.24"/><circle cx="572.4" cy="104.7" r="1.91" fill="#bd6b20" opacity="0.31"/><circle cx="603.2" cy="101.3" r="3.12" fill="#bd6b20" opacity="0.24"/><circle cx="639.0" cy="100.7" r="2.53" fill="#bd6b20" opacity="0.35"/><circle cx="680.6" cy="102.0" r="1.96" fill="#bd6b20" opacity="0.28"/><circle cx="714.5" cy="102.8" r="2.99" fill="#bd6b20" opacity="0.33"/><circle cx="750.2" cy="102.6" r="2.74" fill="#bd6b20" opacity="0.22"/><circle cx="787.8" cy="101.8" r="2.93" fill="#bd6b20" opacity="0.33"/><circle cx="824.6" cy="104.7" r="3.55" fill="#bd6b20" opacity="0.26"/><circle cx="858.0" cy="99.9" r="3.31" fill="#bd6b20" opacity="0.17"/><circle cx="894.9" cy="102.6" r="3.43" fill="#bd6b20" opacity="0.32"/><circle cx="932.4" cy="103.3" r="2.66" fill="#bd6b20" opacity="0.35"/><circle cx="965.7" cy="101.0" r="2.39" fill="#bd6b20" opacity="0.28"/><circle cx="1002.2" cy="102.8" r="3.03" fill="#bd6b20" opacity="0.35"/><circle cx="1039.8" cy="102.8" r="1.82" fill="#bd6b20" opacity="0.23"/><circle cx="1075.7" cy="102.4" r="3.28" fill="#bd6b20" opacity="0.19"/><circle cx="1112.2" cy="99.8" r="1.76" fill="#bd6b20" opacity="0.29"/><circle cx="1145.3" cy="103.3" r="2.09" fill="#bd6b20" opacity="0.25"/><circle cx="1183.3" cy="101.7" r="2.12" fill="#bd6b20" opacity="0.31"/><circle cx="31.7" cy="136.6" r="3.63" fill="#bd6b20" opacity="0.17"/><circle cx="67.2" cy="139.7" r="3.31" fill="#bd6b20" opacity="0.30"/><circle cx="99.3" cy="136.1" r="3.89" fill="#bd6b20" opacity="0.20"/><circle cx="138.7" cy="135.5" r="1.82" fill="#bd6b20" opacity="0.34"/><circle cx="176.1" cy="138.2" r="2.90" fill="#bd6b20" opacity="0.29"/><circle cx="212.8" cy="139.5" r="3.26" fill="#bd6b20" opacity="0.20"/><circle cx="244.7" cy="137.7" r="2.69" fill="#bd6b20" opacity="0.19"/><circle cx="282.1" cy="136.4" r="2.69" fill="#bd6b20" opacity="0.36"/><circle cx="317.5" cy="138.8" r="1.87" fill="#bd6b20" opacity="0.16"/><circle cx="353.9" cy="136.4" r="2.35" fill="#bd6b20" opacity="0.29"/><circle cx="387.6" cy="140.2" r="2.28" fill="#bd6b20" opacity="0.17"/><circle cx="424.1" cy="140.2" r="3.26" fill="#bd6b20" opacity="0.33"/><circle cx="459.2" cy="136.4" r="3.93" fill="#bd6b20" opacity="0.33"/><circle cx="498.9" cy="140.4" r="3.52" fill="#bd6b20" opacity="0.19"/><circle cx="532.3" cy="140.4" r="1.84" fill="#bd6b20" opacity="0.34"/><circle cx="571.8" cy="136.8" r="3.44" fill="#bd6b20" opacity="0.20"/><circle cx="608.6" cy="139.5" r="3.65" fill="#bd6b20" opacity="0.32"/><circle cx="644.1" cy="136.6" r="2.62" fill="#bd6b20" opacity="0.23"/><circle cx="680.6" cy="138.6" r="2.03" fill="#bd6b20" opacity="0.21"/><circle cx="711.3" cy="136.7" r="2.31" fill="#bd6b20" opacity="0.19"/><circle cx="750.2" cy="136.0" r="3.34" fill="#bd6b20" opacity="0.21"/><circle cx="786.1" cy="137.6" r="3.33" fill="#bd6b20" opacity="0.22"/><circle cx="823.2" cy="140.9" r="2.10" fill="#bd6b20" opacity="0.23"/><circle cx="857.2" cy="139.0" r="2.67" fill="#bd6b20" opacity="0.24"/><circle cx="895.7" cy="140.0" r="2.62" fill="#bd6b20" opacity="0.32"/><circle cx="927.9" cy="138.8" r="1.90" fill="#bd6b20" opacity="0.26"/><circle cx="966.6" cy="135.5" r="3.42" fill="#bd6b20" opacity="0.25"/><circle cx="1000.7" cy="137.2" r="3.04" fill="#bd6b20" opacity="0.34"/><circle cx="1036.4" cy="138.3" r="1.65" fill="#bd6b20" opacity="0.21"/><circle cx="1071.8" cy="137.8" r="2.09" fill="#bd6b20" opacity="0.27"/><circle cx="1109.8" cy="135.7" r="2.53" fill="#bd6b20" opacity="0.22"/><circle cx="1148.2" cy="140.4" r="1.74" fill="#bd6b20" opacity="0.20"/><circle cx="1179.2" cy="135.7" r="2.25" fill="#bd6b20" opacity="0.30"/><circle cx="28.0" cy="173.2" r="2.14" fill="#bd6b20" opacity="0.24"/><circle cx="67.6" cy="172.2" r="3.83" fill="#bd6b20" opacity="0.27"/><circle cx="101.6" cy="176.6" r="2.64" fill="#bd6b20" opacity="0.25"/><circle cx="140.6" cy="176.5" r="3.71" fill="#bd6b20" opacity="0.20"/><circle cx="172.7" cy="171.8" r="2.30" fill="#bd6b20" opacity="0.20"/><circle cx="208.5" cy="175.0" r="3.65" fill="#bd6b20" opacity="0.22"/><circle cx="248.2" cy="177.0" r="2.41" fill="#bd6b20" opacity="0.21"/><circle cx="283.2" cy="176.9" r="2.63" fill="#bd6b20" opacity="0.28"/><circle cx="317.6" cy="171.6" r="3.00" fill="#bd6b20" opacity="0.36"/><circle cx="356.1" cy="172.5" r="3.93" fill="#bd6b20" opacity="0.24"/><circle cx="390.6" cy="175.0" r="2.32" fill="#bd6b20" opacity="0.21"/><circle cx="427.0" cy="176.4" r="3.67" fill="#bd6b20" opacity="0.21"/><circle cx="462.3" cy="171.8" r="3.95" fill="#bd6b20" opacity="0.27"/><circle cx="499.0" cy="172.5" r="3.74" fill="#bd6b20" opacity="0.18"/><circle cx="535.7" cy="173.9" r="3.03" fill="#bd6b20" opacity="0.27"/><circle cx="570.1" cy="173.2" r="2.57" fill="#bd6b20" opacity="0.28"/><circle cx="606.0" cy="174.5" r="3.48" fill="#bd6b20" opacity="0.27"/><circle cx="640.0" cy="174.4" r="3.45" fill="#bd6b20" opacity="0.17"/><circle cx="677.8" cy="172.0" r="2.86" fill="#bd6b20" opacity="0.34"/><circle cx="716.2" cy="176.6" r="3.82" fill="#bd6b20" opacity="0.18"/><circle cx="750.6" cy="173.2" r="2.23" fill="#bd6b20" opacity="0.26"/><circle cx="784.8" cy="176.5" r="2.86" fill="#bd6b20" opacity="0.36"/><circle cx="819.6" cy="173.7" r="2.18" fill="#bd6b20" opacity="0.22"/><circle cx="860.9" cy="172.8" r="3.16" fill="#bd6b20" opacity="0.34"/><circle cx="891.2" cy="173.6" r="1.87" fill="#bd6b20" opacity="0.21"/><circle cx="932.4" cy="172.2" r="3.43" fill="#bd6b20" opacity="0.23"/><circle cx="968.9" cy="171.4" r="3.27" fill="#bd6b20" opacity="0.29"/><circle cx="1004.8" cy="173.5" r="2.53" fill="#bd6b20" opacity="0.35"/><circle cx="1035.9" cy="173.1" r="2.04" fill="#bd6b20" opacity="0.36"/><circle cx="1075.6" cy="175.0" r="2.75" fill="#bd6b20" opacity="0.25"/><circle cx="1108.7" cy="172.2" r="3.72" fill="#bd6b20" opacity="0.31"/><circle cx="1147.1" cy="175.1" r="2.53" fill="#bd6b20" opacity="0.36"/><circle cx="1184.2" cy="176.5" r="2.61" fill="#bd6b20" opacity="0.20"/><circle cx="27.6" cy="209.6" r="2.29" fill="#bd6b20" opacity="0.25"/><circle cx="65.4" cy="210.1" r="3.46" fill="#bd6b20" opacity="0.22"/><circle cx="102.6" cy="208.7" r="3.71" fill="#bd6b20" opacity="0.25"/><circle cx="138.4" cy="209.3" r="3.06" fill="#bd6b20" opacity="0.28"/><circle cx="173.4" cy="212.7" r="3.89" fill="#bd6b20" opacity="0.19"/><circle cx="211.5" cy="208.1" r="3.33" fill="#bd6b20" opacity="0.32"/><circle cx="247.9" cy="211.2" r="3.49" fill="#bd6b20" opacity="0.27"/><circle cx="282.5" cy="211.8" r="1.85" fill="#bd6b20" opacity="0.18"/><circle cx="317.5" cy="210.0" r="2.82" fill="#bd6b20" opacity="0.19"/><circle cx="353.1" cy="208.0" r="2.59" fill="#bd6b20" opacity="0.34"/><circle cx="388.6" cy="207.4" r="2.73" fill="#bd6b20" opacity="0.25"/><circle cx="427.2" cy="211.2" r="3.33" fill="#bd6b20" opacity="0.21"/><circle cx="460.0" cy="209.8" r="2.31" fill="#bd6b20" opacity="0.16"/><circle cx="499.2" cy="212.3" r="1.63" fill="#bd6b20" opacity="0.21"/><circle cx="535.5" cy="211.9" r="1.89" fill="#bd6b20" opacity="0.27"/><circle cx="570.0" cy="209.4" r="3.10" fill="#bd6b20" opacity="0.27"/><circle cx="604.5" cy="212.7" r="2.78" fill="#bd6b20" opacity="0.18"/><circle cx="642.6" cy="210.0" r="3.33" fill="#bd6b20" opacity="0.17"/><circle cx="675.9" cy="208.2" r="3.72" fill="#bd6b20" opacity="0.33"/><circle cx="716.2" cy="212.2" r="1.94" fill="#bd6b20" opacity="0.32"/><circle cx="748.9" cy="212.1" r="2.39" fill="#bd6b20" opacity="0.17"/><circle cx="788.0" cy="212.3" r="3.88" fill="#bd6b20" opacity="0.17"/><circle cx="819.9" cy="208.6" r="3.74" fill="#bd6b20" opacity="0.25"/><circle cx="857.2" cy="208.5" r="2.81" fill="#bd6b20" opacity="0.34"/><circle cx="893.7" cy="209.9" r="3.53" fill="#bd6b20" opacity="0.33"/><circle cx="931.9" cy="211.4" r="2.62" fill="#bd6b20" opacity="0.31"/><circle cx="965.5" cy="210.8" r="2.46" fill="#bd6b20" opacity="0.34"/><circle cx="1004.2" cy="211.6" r="1.62" fill="#bd6b20" opacity="0.29"/><circle cx="1035.4" cy="210.7" r="3.31" fill="#bd6b20" opacity="0.23"/><circle cx="1072.1" cy="210.0" r="1.68" fill="#bd6b20" opacity="0.18"/><circle cx="1108.2" cy="211.8" r="1.76" fill="#bd6b20" opacity="0.30"/><circle cx="1145.2" cy="212.9" r="3.45" fill="#bd6b20" opacity="0.23"/><circle cx="1180.1" cy="209.9" r="1.96" fill="#bd6b20" opacity="0.32"/><circle cx="30.9" cy="243.2" r="3.27" fill="#bd6b20" opacity="0.19"/><circle cx="67.0" cy="243.6" r="3.95" fill="#bd6b20" opacity="0.16"/><circle cx="102.3" cy="244.0" r="3.00" fill="#bd6b20" opacity="0.27"/><circle cx="137.6" cy="243.1" r="2.25" fill="#bd6b20" opacity="0.28"/><circle cx="174.7" cy="243.1" r="2.09" fill="#bd6b20" opacity="0.33"/><circle cx="209.6" cy="247.8" r="3.84" fill="#bd6b20" opacity="0.31"/><circle cx="245.9" cy="243.3" r="2.68" fill="#bd6b20" opacity="0.19"/><circle cx="283.5" cy="246.9" r="3.20" fill="#bd6b20" opacity="0.34"/><circle cx="319.1" cy="244.9" r="3.93" fill="#bd6b20" opacity="0.33"/><circle cx="353.6" cy="246.1" r="2.69" fill="#bd6b20" opacity="0.21"/><circle cx="389.9" cy="248.4" r="3.73" fill="#bd6b20" opacity="0.25"/><circle cx="424.1" cy="243.8" r="3.55" fill="#bd6b20" opacity="0.22"/><circle cx="464.3" cy="245.6" r="2.15" fill="#bd6b20" opacity="0.33"/><circle cx="495.5" cy="244.8" r="3.92" fill="#bd6b20" opacity="0.15"/><circle cx="534.5" cy="248.5" r="2.63" fill="#bd6b20" opacity="0.28"/><circle cx="571.2" cy="247.0" r="2.08" fill="#bd6b20" opacity="0.19"/><circle cx="607.8" cy="243.8" r="3.65" fill="#bd6b20" opacity="0.29"/><circle cx="639.8" cy="247.1" r="2.48" fill="#bd6b20" opacity="0.35"/><circle cx="675.0" cy="245.7" r="2.63" fill="#bd6b20" opacity="0.21"/><circle cx="717.0" cy="248.9" r="2.34" fill="#bd6b20" opacity="0.17"/><circle cx="750.1" cy="244.5" r="2.49" fill="#bd6b20" opacity="0.27"/><circle cx="785.2" cy="247.7" r="2.92" fill="#bd6b20" opacity="0.17"/><circle cx="821.7" cy="247.6" r="2.33" fill="#bd6b20" opacity="0.29"/><circle cx="858.3" cy="243.6" r="2.41" fill="#bd6b20" opacity="0.19"/><circle cx="891.9" cy="247.0" r="2.33" fill="#bd6b20" opacity="0.33"/><circle cx="931.8" cy="246.0" r="3.44" fill="#bd6b20" opacity="0.18"/><circle cx="964.6" cy="245.0" r="2.83" fill="#bd6b20" opacity="0.26"/><circle cx="1002.9" cy="248.9" r="3.97" fill="#bd6b20" opacity="0.34"/><circle cx="1040.3" cy="247.2" r="2.63" fill="#bd6b20" opacity="0.15"/><circle cx="1073.6" cy="246.2" r="2.54" fill="#bd6b20" opacity="0.34"/><circle cx="1111.7" cy="245.1" r="2.17" fill="#bd6b20" opacity="0.22"/><circle cx="1146.0" cy="244.3" r="2.07" fill="#bd6b20" opacity="0.18"/><circle cx="1183.4" cy="248.6" r="1.91" fill="#bd6b20" opacity="0.30"/><circle cx="30.9" cy="279.5" r="2.58" fill="#bd6b20" opacity="0.29"/><circle cx="64.3" cy="279.1" r="2.75" fill="#bd6b20" opacity="0.16"/><circle cx="100.5" cy="283.3" r="1.73" fill="#bd6b20" opacity="0.23"/><circle cx="135.7" cy="283.6" r="3.14" fill="#bd6b20" opacity="0.27"/><circle cx="172.6" cy="281.0" r="3.21" fill="#bd6b20" opacity="0.17"/><circle cx="211.2" cy="284.0" r="2.14" fill="#bd6b20" opacity="0.36"/><circle cx="247.4" cy="283.1" r="1.93" fill="#bd6b20" opacity="0.29"/><circle cx="283.0" cy="283.7" r="3.22" fill="#bd6b20" opacity="0.15"/><circle cx="319.4" cy="282.1" r="2.00" fill="#bd6b20" opacity="0.31"/><circle cx="351.3" cy="279.6" r="1.75" fill="#bd6b20" opacity="0.30"/><circle cx="389.8" cy="280.3" r="3.07" fill="#bd6b20" opacity="0.23"/><circle cx="424.6" cy="280.6" r="2.96" fill="#bd6b20" opacity="0.29"/><circle cx="462.2" cy="279.1" r="2.08" fill="#bd6b20" opacity="0.34"/><circle cx="495.3" cy="282.2" r="3.07" fill="#bd6b20" opacity="0.32"/><circle cx="534.9" cy="283.6" r="2.22" fill="#bd6b20" opacity="0.20"/><circle cx="569.8" cy="284.3" r="3.74" fill="#bd6b20" opacity="0.19"/><circle cx="603.3" cy="284.9" r="2.23" fill="#bd6b20" opacity="0.34"/><circle cx="644.2" cy="283.8" r="2.29" fill="#bd6b20" opacity="0.31"/><circle cx="680.1" cy="281.0" r="1.79" fill="#bd6b20" opacity="0.28"/><circle cx="714.0" cy="283.4" r="2.54" fill="#bd6b20" opacity="0.20"/><circle cx="750.4" cy="284.8" r="2.43" fill="#bd6b20" opacity="0.21"/><circle cx="787.3" cy="279.9" r="3.20" fill="#bd6b20" opacity="0.31"/><circle cx="821.1" cy="282.6" r="3.02" fill="#bd6b20" opacity="0.34"/><circle cx="857.7" cy="281.7" r="1.93" fill="#bd6b20" opacity="0.18"/><circle cx="891.6" cy="282.6" r="3.57" fill="#bd6b20" opacity="0.32"/><circle cx="932.5" cy="280.9" r="1.93" fill="#bd6b20" opacity="0.34"/><circle cx="968.2" cy="280.6" r="3.70" fill="#bd6b20" opacity="0.35"/><circle cx="1004.4" cy="280.6" r="1.69" fill="#bd6b20" opacity="0.34"/><circle cx="1040.3" cy="283.5" r="2.91" fill="#bd6b20" opacity="0.25"/><circle cx="1074.7" cy="284.3" r="2.42" fill="#bd6b20" opacity="0.25"/><circle cx="1107.7" cy="284.9" r="2.39" fill="#bd6b20" opacity="0.20"/><circle cx="1147.6" cy="283.8" r="2.77" fill="#bd6b20" opacity="0.24"/><circle cx="1183.5" cy="284.3" r="2.32" fill="#bd6b20" opacity="0.18"/><circle cx="27.1" cy="316.4" r="1.90" fill="#bd6b20" opacity="0.23"/><circle cx="63.2" cy="315.2" r="2.60" fill="#bd6b20" opacity="0.33"/><circle cx="104.2" cy="319.3" r="3.92" fill="#bd6b20" opacity="0.33"/><circle cx="140.2" cy="317.2" r="3.25" fill="#bd6b20" opacity="0.22"/><circle cx="171.4" cy="315.9" r="1.97" fill="#bd6b20" opacity="0.32"/><circle cx="212.5" cy="318.5" r="2.11" fill="#bd6b20" opacity="0.24"/><circle cx="247.2" cy="320.7" r="3.27" fill="#bd6b20" opacity="0.30"/><circle cx="281.0" cy="316.8" r="3.70" fill="#bd6b20" opacity="0.22"/><circle cx="318.6" cy="319.7" r="2.73" fill="#bd6b20" opacity="0.20"/><circle cx="353.1" cy="320.6" r="1.92" fill="#bd6b20" opacity="0.28"/><circle cx="392.7" cy="320.0" r="3.65" fill="#bd6b20" opacity="0.22"/><circle cx="424.2" cy="315.3" r="2.44" fill="#bd6b20" opacity="0.24"/><circle cx="463.0" cy="319.6" r="2.55" fill="#bd6b20" opacity="0.32"/><circle cx="500.6" cy="319.0" r="3.30" fill="#bd6b20" opacity="0.29"/><circle cx="533.9" cy="320.5" r="2.88" fill="#bd6b20" opacity="0.18"/><circle cx="571.9" cy="320.0" r="2.73" fill="#bd6b20" opacity="0.31"/><circle cx="608.6" cy="315.7" r="3.32" fill="#bd6b20" opacity="0.22"/><circle cx="642.9" cy="316.4" r="2.38" fill="#bd6b20" opacity="0.19"/><circle cx="678.9" cy="320.7" r="3.10" fill="#bd6b20" opacity="0.16"/><circle cx="712.5" cy="315.9" r="1.88" fill="#bd6b20" opacity="0.36"/><circle cx="748.2" cy="320.3" r="1.81" fill="#bd6b20" opacity="0.24"/><circle cx="784.9" cy="318.3" r="2.73" fill="#bd6b20" opacity="0.30"/><circle cx="819.7" cy="315.5" r="1.64" fill="#bd6b20" opacity="0.30"/><circle cx="857.4" cy="316.8" r="2.99" fill="#bd6b20" opacity="0.24"/><circle cx="894.0" cy="318.6" r="3.30" fill="#bd6b20" opacity="0.32"/><circle cx="929.1" cy="318.7" r="2.15" fill="#bd6b20" opacity="0.15"/><circle cx="967.7" cy="317.9" r="3.75" fill="#bd6b20" opacity="0.27"/><circle cx="1001.0" cy="320.8" r="1.98" fill="#bd6b20" opacity="0.21"/><circle cx="1036.5" cy="318.9" r="2.91" fill="#bd6b20" opacity="0.16"/><circle cx="1076.5" cy="316.2" r="3.68" fill="#bd6b20" opacity="0.22"/><circle cx="1110.7" cy="315.9" r="2.50" fill="#bd6b20" opacity="0.36"/><circle cx="1148.3" cy="315.9" r="2.82" fill="#bd6b20" opacity="0.33"/><circle cx="1180.5" cy="315.6" r="3.57" fill="#bd6b20" opacity="0.15"/><circle cx="32.4" cy="352.2" r="2.59" fill="#bd6b20" opacity="0.20"/><circle cx="68.2" cy="351.3" r="1.72" fill="#bd6b20" opacity="0.30"/><circle cx="104.9" cy="355.7" r="3.56" fill="#bd6b20" opacity="0.28"/><circle cx="140.5" cy="353.2" r="2.90" fill="#bd6b20" opacity="0.18"/><circle cx="176.9" cy="353.7" r="2.77" fill="#bd6b20" opacity="0.33"/><circle cx="207.3" cy="355.9" r="2.49" fill="#bd6b20" opacity="0.30"/><circle cx="246.5" cy="356.2" r="1.63" fill="#bd6b20" opacity="0.17"/><circle cx="279.4" cy="356.8" r="3.37" fill="#bd6b20" opacity="0.21"/><circle cx="317.0" cy="356.7" r="2.28" fill="#bd6b20" opacity="0.22"/><circle cx="356.3" cy="355.3" r="2.32" fill="#bd6b20" opacity="0.33"/><circle cx="392.2" cy="353.3" r="2.04" fill="#bd6b20" opacity="0.16"/><circle cx="426.1" cy="352.1" r="3.40" fill="#bd6b20" opacity="0.30"/><circle cx="461.6" cy="352.8" r="2.94" fill="#bd6b20" opacity="0.34"/><circle cx="498.4" cy="355.9" r="2.20" fill="#bd6b20" opacity="0.24"/><circle cx="534.5" cy="352.2" r="3.18" fill="#bd6b20" opacity="0.27"/><circle cx="567.2" cy="351.6" r="3.34" fill="#bd6b20" opacity="0.19"/><circle cx="606.6" cy="353.0" r="2.34" fill="#bd6b20" opacity="0.20"/><circle cx="643.7" cy="351.8" r="3.93" fill="#bd6b20" opacity="0.29"/><circle cx="677.0" cy="354.4" r="3.60" fill="#bd6b20" opacity="0.34"/><circle cx="714.6" cy="355.3" r="3.30" fill="#bd6b20" opacity="0.34"/><circle cx="752.3" cy="352.2" r="3.55" fill="#bd6b20" opacity="0.35"/><circle cx="788.5" cy="356.7" r="2.38" fill="#bd6b20" opacity="0.24"/><circle cx="824.8" cy="351.8" r="3.50" fill="#bd6b20" opacity="0.21"/><circle cx="859.7" cy="355.8" r="2.21" fill="#bd6b20" opacity="0.17"/><circle cx="897.0" cy="352.1" r="2.61" fill="#bd6b20" opacity="0.19"/><circle cx="932.9" cy="351.6" r="1.70" fill="#bd6b20" opacity="0.23"/><circle cx="964.9" cy="352.2" r="2.45" fill="#bd6b20" opacity="0.20"/><circle cx="1000.1" cy="351.5" r="2.99" fill="#bd6b20" opacity="0.32"/><circle cx="1038.4" cy="352.3" r="2.24" fill="#bd6b20" opacity="0.19"/><circle cx="1073.8" cy="351.3" r="2.19" fill="#bd6b20" opacity="0.23"/><circle cx="1110.2" cy="356.4" r="3.88" fill="#bd6b20" opacity="0.24"/><circle cx="1148.3" cy="355.9" r="1.77" fill="#bd6b20" opacity="0.30"/><circle cx="1183.0" cy="351.4" r="2.64" fill="#bd6b20" opacity="0.35"/><circle cx="32.0" cy="391.2" r="3.61" fill="#bd6b20" opacity="0.17"/><circle cx="66.3" cy="390.8" r="2.95" fill="#bd6b20" opacity="0.25"/><circle cx="104.2" cy="387.8" r="2.79" fill="#bd6b20" opacity="0.33"/><circle cx="135.2" cy="391.4" r="1.70" fill="#bd6b20" opacity="0.34"/><circle cx="176.1" cy="390.0" r="3.90" fill="#bd6b20" opacity="0.30"/><circle cx="208.4" cy="392.8" r="2.16" fill="#bd6b20" opacity="0.32"/><circle cx="247.2" cy="392.1" r="2.61" fill="#bd6b20" opacity="0.20"/><circle cx="279.7" cy="387.3" r="3.62" fill="#bd6b20" opacity="0.21"/><circle cx="319.1" cy="388.5" r="1.69" fill="#bd6b20" opacity="0.31"/><circle cx="351.5" cy="390.5" r="2.93" fill="#bd6b20" opacity="0.19"/><circle cx="389.8" cy="390.0" r="1.75" fill="#bd6b20" opacity="0.22"/><circle cx="425.8" cy="387.1" r="2.01" fill="#bd6b20" opacity="0.32"/><circle cx="463.3" cy="387.6" r="2.31" fill="#bd6b20" opacity="0.36"/><circle cx="498.6" cy="387.2" r="1.91" fill="#bd6b20" opacity="0.18"/><circle cx="534.1" cy="387.9" r="3.57" fill="#bd6b20" opacity="0.30"/><circle cx="570.7" cy="390.4" r="2.15" fill="#bd6b20" opacity="0.16"/><circle cx="603.8" cy="389.1" r="2.76" fill="#bd6b20" opacity="0.24"/><circle cx="641.5" cy="390.1" r="3.20" fill="#bd6b20" opacity="0.28"/><circle cx="678.6" cy="390.0" r="1.65" fill="#bd6b20" opacity="0.19"/><circle cx="712.8" cy="392.2" r="3.90" fill="#bd6b20" opacity="0.16"/><circle cx="751.1" cy="388.3" r="3.10" fill="#bd6b20" opacity="0.25"/><circle cx="785.3" cy="389.4" r="2.32" fill="#bd6b20" opacity="0.36"/><circle cx="819.5" cy="389.5" r="3.87" fill="#bd6b20" opacity="0.16"/><circle cx="860.9" cy="387.4" r="1.77" fill="#bd6b20" opacity="0.17"/><circle cx="893.6" cy="390.9" r="2.15" fill="#bd6b20" opacity="0.17"/><circle cx="929.5" cy="392.2" r="2.45" fill="#bd6b20" opacity="0.28"/><circle cx="965.3" cy="387.2" r="2.92" fill="#bd6b20" opacity="0.33"/><circle cx="1001.6" cy="390.0" r="2.43" fill="#bd6b20" opacity="0.28"/><circle cx="1035.3" cy="388.4" r="2.54" fill="#bd6b20" opacity="0.34"/><circle cx="1075.8" cy="388.7" r="2.09" fill="#bd6b20" opacity="0.16"/><circle cx="1107.7" cy="387.3" r="3.05" fill="#bd6b20" opacity="0.36"/><circle cx="1145.7" cy="387.6" r="2.21" fill="#bd6b20" opacity="0.31"/><circle cx="1183.1" cy="389.6" r="3.50" fill="#bd6b20" opacity="0.25"/><circle cx="31.9" cy="428.0" r="3.38" fill="#bd6b20" opacity="0.33"/><circle cx="63.1" cy="424.6" r="3.63" fill="#bd6b20" opacity="0.18"/><circle cx="101.9" cy="423.2" r="1.69" fill="#bd6b20" opacity="0.26"/><circle cx="135.3" cy="428.9" r="2.65" fill="#bd6b20" opacity="0.35"/><circle cx="176.1" cy="428.3" r="3.29" fill="#bd6b20" opacity="0.16"/><circle cx="210.4" cy="426.9" r="1.73" fill="#bd6b20" opacity="0.19"/><circle cx="245.0" cy="424.0" r="1.84" fill="#bd6b20" opacity="0.24"/><circle cx="283.6" cy="427.6" r="2.07" fill="#bd6b20" opacity="0.22"/><circle cx="316.8" cy="426.6" r="2.30" fill="#bd6b20" opacity="0.25"/><circle cx="355.5" cy="428.3" r="1.96" fill="#bd6b20" opacity="0.34"/><circle cx="392.2" cy="424.8" r="2.93" fill="#bd6b20" opacity="0.19"/><circle cx="423.2" cy="428.7" r="2.62" fill="#bd6b20" opacity="0.27"/><circle cx="459.3" cy="423.9" r="2.71" fill="#bd6b20" opacity="0.23"/><circle cx="495.2" cy="425.9" r="3.40" fill="#bd6b20" opacity="0.23"/><circle cx="531.2" cy="425.2" r="2.02" fill="#bd6b20" opacity="0.27"/><circle cx="568.2" cy="425.6" r="3.88" fill="#bd6b20" opacity="0.21"/><circle cx="604.1" cy="428.3" r="3.23" fill="#bd6b20" opacity="0.31"/><circle cx="639.6" cy="426.7" r="3.62" fill="#bd6b20" opacity="0.36"/><circle cx="679.8" cy="425.5" r="2.62" fill="#bd6b20" opacity="0.17"/><circle cx="715.4" cy="428.4" r="3.22" fill="#bd6b20" opacity="0.21"/><circle cx="749.4" cy="424.2" r="2.89" fill="#bd6b20" opacity="0.30"/><circle cx="787.3" cy="426.5" r="3.33" fill="#bd6b20" opacity="0.35"/><circle cx="820.8" cy="428.4" r="3.78" fill="#bd6b20" opacity="0.16"/><circle cx="857.8" cy="427.5" r="2.43" fill="#bd6b20" opacity="0.30"/><circle cx="891.8" cy="424.4" r="2.13" fill="#bd6b20" opacity="0.18"/><circle cx="928.2" cy="426.5" r="3.17" fill="#bd6b20" opacity="0.22"/><circle cx="966.5" cy="424.7" r="1.84" fill="#bd6b20" opacity="0.17"/><circle cx="1000.4" cy="426.1" r="2.30" fill="#bd6b20" opacity="0.17"/><circle cx="1040.8" cy="425.4" r="2.51" fill="#bd6b20" opacity="0.20"/><circle cx="1076.9" cy="424.4" r="3.72" fill="#bd6b20" opacity="0.23"/><circle cx="1109.8" cy="425.3" r="1.76" fill="#bd6b20" opacity="0.27"/><circle cx="1146.0" cy="429.0" r="3.96" fill="#bd6b20" opacity="0.31"/><circle cx="1180.4" cy="424.0" r="3.29" fill="#bd6b20" opacity="0.29"/><circle cx="31.6" cy="462.3" r="2.86" fill="#bd6b20" opacity="0.25"/><circle cx="66.9" cy="462.3" r="2.85" fill="#bd6b20" opacity="0.19"/><circle cx="99.4" cy="464.3" r="3.22" fill="#bd6b20" opacity="0.19"/><circle cx="135.4" cy="461.2" r="1.97" fill="#bd6b20" opacity="0.25"/><circle cx="174.8" cy="464.0" r="3.81" fill="#bd6b20" opacity="0.29"/><circle cx="207.8" cy="459.8" r="2.70" fill="#bd6b20" opacity="0.29"/><circle cx="247.1" cy="461.1" r="2.89" fill="#bd6b20" opacity="0.20"/><circle cx="279.3" cy="462.3" r="3.12" fill="#bd6b20" opacity="0.35"/><circle cx="320.8" cy="460.9" r="3.03" fill="#bd6b20" opacity="0.30"/><circle cx="351.8" cy="462.3" r="3.55" fill="#bd6b20" opacity="0.33"/><circle cx="388.6" cy="461.2" r="2.50" fill="#bd6b20" opacity="0.28"/><circle cx="424.4" cy="461.2" r="1.99" fill="#bd6b20" opacity="0.35"/><circle cx="464.5" cy="459.7" r="2.66" fill="#bd6b20" opacity="0.28"/><circle cx="496.4" cy="462.2" r="2.59" fill="#bd6b20" opacity="0.32"/><circle cx="536.2" cy="462.5" r="2.69" fill="#bd6b20" opacity="0.35"/><circle cx="567.4" cy="462.1" r="3.45" fill="#bd6b20" opacity="0.20"/><circle cx="603.1" cy="463.9" r="2.25" fill="#bd6b20" opacity="0.20"/><circle cx="642.8" cy="462.9" r="3.36" fill="#bd6b20" opacity="0.25"/><circle cx="680.8" cy="459.5" r="2.19" fill="#bd6b20" opacity="0.30"/><circle cx="715.7" cy="464.7" r="3.43" fill="#bd6b20" opacity="0.17"/><circle cx="751.0" cy="462.8" r="1.69" fill="#bd6b20" opacity="0.27"/><circle cx="788.1" cy="460.2" r="2.77" fill="#bd6b20" opacity="0.23"/><circle cx="822.5" cy="461.0" r="2.95" fill="#bd6b20" opacity="0.27"/><circle cx="856.0" cy="459.6" r="2.27" fill="#bd6b20" opacity="0.22"/><circle cx="893.0" cy="459.5" r="1.79" fill="#bd6b20" opacity="0.24"/><circle cx="929.2" cy="464.6" r="2.83" fill="#bd6b20" opacity="0.23"/><circle cx="967.7" cy="463.0" r="2.81" fill="#bd6b20" opacity="0.29"/><circle cx="1004.7" cy="459.5" r="3.94" fill="#bd6b20" opacity="0.19"/><circle cx="1040.0" cy="460.3" r="3.93" fill="#bd6b20" opacity="0.21"/><circle cx="1072.5" cy="460.9" r="3.11" fill="#bd6b20" opacity="0.23"/><circle cx="1111.3" cy="463.9" r="2.32" fill="#bd6b20" opacity="0.25"/><circle cx="1146.7" cy="463.9" r="3.06" fill="#bd6b20" opacity="0.29"/><circle cx="1184.6" cy="460.2" r="1.82" fill="#bd6b20" opacity="0.25"/><circle cx="29.8" cy="497.2" r="2.89" fill="#bd6b20" opacity="0.33"/><circle cx="66.1" cy="496.0" r="1.83" fill="#bd6b20" opacity="0.32"/><circle cx="101.6" cy="496.1" r="2.27" fill="#bd6b20" opacity="0.21"/><circle cx="137.3" cy="497.8" r="3.21" fill="#bd6b20" opacity="0.23"/><circle cx="176.7" cy="499.7" r="3.07" fill="#bd6b20" opacity="0.21"/><circle cx="210.0" cy="499.7" r="3.17" fill="#bd6b20" opacity="0.35"/><circle cx="244.1" cy="497.2" r="2.11" fill="#bd6b20" opacity="0.34"/><circle cx="284.8" cy="498.3" r="2.02" fill="#bd6b20" opacity="0.24"/><circle cx="318.7" cy="495.0" r="1.94" fill="#bd6b20" opacity="0.32"/><circle cx="352.7" cy="500.0" r="2.19" fill="#bd6b20" opacity="0.26"/><circle cx="389.2" cy="499.1" r="3.82" fill="#bd6b20" opacity="0.17"/><circle cx="424.4" cy="495.8" r="2.24" fill="#bd6b20" opacity="0.30"/><circle cx="463.9" cy="498.2" r="3.50" fill="#bd6b20" opacity="0.20"/><circle cx="495.7" cy="496.4" r="3.07" fill="#bd6b20" opacity="0.23"/><circle cx="533.7" cy="497.0" r="3.26" fill="#bd6b20" opacity="0.25"/><circle cx="572.2" cy="497.8" r="2.16" fill="#bd6b20" opacity="0.18"/><circle cx="606.3" cy="499.0" r="1.84" fill="#bd6b20" opacity="0.32"/><circle cx="643.9" cy="500.4" r="1.65" fill="#bd6b20" opacity="0.32"/><circle cx="678.2" cy="497.6" r="2.81" fill="#bd6b20" opacity="0.27"/><circle cx="711.9" cy="499.4" r="2.94" fill="#bd6b20" opacity="0.34"/><circle cx="748.5" cy="495.0" r="2.88" fill="#bd6b20" opacity="0.23"/><circle cx="784.1" cy="499.7" r="2.09" fill="#bd6b20" opacity="0.31"/><circle cx="820.4" cy="500.9" r="3.16" fill="#bd6b20" opacity="0.20"/><circle cx="860.2" cy="500.2" r="3.18" fill="#bd6b20" opacity="0.34"/><circle cx="891.9" cy="496.5" r="2.04" fill="#bd6b20" opacity="0.19"/><circle cx="929.4" cy="496.0" r="3.17" fill="#bd6b20" opacity="0.21"/><circle cx="965.1" cy="501.0" r="2.62" fill="#bd6b20" opacity="0.27"/><circle cx="1003.8" cy="496.4" r="1.67" fill="#bd6b20" opacity="0.24"/><circle cx="1035.5" cy="497.4" r="1.85" fill="#bd6b20" opacity="0.21"/><circle cx="1071.4" cy="499.3" r="3.19" fill="#bd6b20" opacity="0.35"/><circle cx="1111.0" cy="497.1" r="1.81" fill="#bd6b20" opacity="0.16"/><circle cx="1144.3" cy="496.9" r="2.12" fill="#bd6b20" opacity="0.31"/><circle cx="1183.4" cy="498.8" r="3.57" fill="#bd6b20" opacity="0.23"/><circle cx="29.6" cy="533.7" r="2.66" fill="#bd6b20" opacity="0.34"/><circle cx="64.8" cy="531.2" r="3.16" fill="#bd6b20" opacity="0.33"/><circle cx="101.2" cy="534.1" r="1.66" fill="#bd6b20" opacity="0.32"/><circle cx="136.7" cy="531.8" r="1.82" fill="#bd6b20" opacity="0.33"/><circle cx="175.0" cy="535.2" r="3.93" fill="#bd6b20" opacity="0.24"/><circle cx="209.9" cy="531.3" r="2.65" fill="#bd6b20" opacity="0.15"/><circle cx="244.9" cy="533.9" r="3.19" fill="#bd6b20" opacity="0.36"/><circle cx="284.6" cy="536.4" r="3.84" fill="#bd6b20" opacity="0.32"/><circle cx="318.1" cy="536.3" r="2.29" fill="#bd6b20" opacity="0.27"/><circle cx="354.5" cy="532.1" r="2.57" fill="#bd6b20" opacity="0.25"/><circle cx="391.5" cy="531.9" r="2.91" fill="#bd6b20" opacity="0.36"/><circle cx="428.1" cy="532.9" r="2.63" fill="#bd6b20" opacity="0.20"/><circle cx="461.0" cy="535.0" r="2.26" fill="#bd6b20" opacity="0.17"/><circle cx="499.9" cy="536.2" r="3.39" fill="#bd6b20" opacity="0.23"/><circle cx="533.9" cy="532.9" r="2.84" fill="#bd6b20" opacity="0.21"/><circle cx="571.9" cy="535.5" r="2.15" fill="#bd6b20" opacity="0.32"/><circle cx="605.0" cy="534.2" r="2.68" fill="#bd6b20" opacity="0.21"/><circle cx="641.9" cy="533.9" r="3.65" fill="#bd6b20" opacity="0.18"/><circle cx="675.2" cy="532.4" r="3.34" fill="#bd6b20" opacity="0.24"/><circle cx="713.6" cy="534.7" r="3.29" fill="#bd6b20" opacity="0.26"/><circle cx="752.2" cy="535.0" r="2.37" fill="#bd6b20" opacity="0.32"/><circle cx="783.5" cy="533.8" r="2.79" fill="#bd6b20" opacity="0.36"/><circle cx="820.5" cy="535.5" r="3.73" fill="#bd6b20" opacity="0.23"/><circle cx="858.0" cy="531.1" r="2.37" fill="#bd6b20" opacity="0.21"/><circle cx="893.6" cy="535.8" r="2.92" fill="#bd6b20" opacity="0.29"/><circle cx="932.8" cy="532.4" r="2.16" fill="#bd6b20" opacity="0.17"/><circle cx="966.9" cy="532.2" r="1.96" fill="#bd6b20" opacity="0.24"/><circle cx="999.5" cy="533.5" r="1.96" fill="#bd6b20" opacity="0.27"/><circle cx="1040.7" cy="532.4" r="3.80" fill="#bd6b20" opacity="0.22"/><circle cx="1074.1" cy="531.6" r="2.02" fill="#bd6b20" opacity="0.16"/><circle cx="1112.3" cy="534.3" r="3.73" fill="#bd6b20" opacity="0.28"/><circle cx="1148.9" cy="537.0" r="3.94" fill="#bd6b20" opacity="0.29"/><circle cx="1180.6" cy="531.5" r="1.81" fill="#bd6b20" opacity="0.18"/><circle cx="28.7" cy="570.9" r="3.02" fill="#bd6b20" opacity="0.35"/><circle cx="68.6" cy="572.4" r="1.96" fill="#bd6b20" opacity="0.30"/><circle cx="104.4" cy="572.8" r="2.27" fill="#bd6b20" opacity="0.22"/><circle cx="140.9" cy="571.7" r="3.10" fill="#bd6b20" opacity="0.22"/><circle cx="176.2" cy="570.3" r="3.40" fill="#bd6b20" opacity="0.23"/><circle cx="209.9" cy="571.9" r="4.00" fill="#bd6b20" opacity="0.20"/><circle cx="244.0" cy="572.5" r="2.55" fill="#bd6b20" opacity="0.15"/><circle cx="282.4" cy="571.6" r="2.34" fill="#bd6b20" opacity="0.16"/><circle cx="316.2" cy="571.1" r="2.89" fill="#bd6b20" opacity="0.29"/><circle cx="351.6" cy="569.9" r="1.73" fill="#bd6b20" opacity="0.20"/><circle cx="391.7" cy="572.0" r="2.32" fill="#bd6b20" opacity="0.30"/><circle cx="426.7" cy="572.1" r="3.03" fill="#bd6b20" opacity="0.32"/><circle cx="463.0" cy="570.6" r="2.14" fill="#bd6b20" opacity="0.27"/><circle cx="500.7" cy="567.6" r="3.24" fill="#bd6b20" opacity="0.27"/><circle cx="536.0" cy="567.9" r="3.97" fill="#bd6b20" opacity="0.19"/><circle cx="569.7" cy="568.8" r="3.49" fill="#bd6b20" opacity="0.15"/><circle cx="607.2" cy="571.5" r="3.36" fill="#bd6b20" opacity="0.33"/><circle cx="643.6" cy="570.9" r="2.04" fill="#bd6b20" opacity="0.28"/><circle cx="676.1" cy="570.4" r="1.69" fill="#bd6b20" opacity="0.28"/><circle cx="715.5" cy="572.8" r="3.98" fill="#bd6b20" opacity="0.19"/><circle cx="750.1" cy="567.8" r="2.90" fill="#bd6b20" opacity="0.25"/><circle cx="783.5" cy="568.6" r="2.67" fill="#bd6b20" opacity="0.25"/><circle cx="823.2" cy="572.5" r="2.27" fill="#bd6b20" opacity="0.23"/><circle cx="857.4" cy="570.9" r="2.01" fill="#bd6b20" opacity="0.35"/><circle cx="894.1" cy="567.6" r="1.87" fill="#bd6b20" opacity="0.30"/><circle cx="930.4" cy="571.1" r="2.04" fill="#bd6b20" opacity="0.28"/><circle cx="966.1" cy="569.1" r="3.92" fill="#bd6b20" opacity="0.28"/><circle cx="1002.0" cy="568.0" r="3.40" fill="#bd6b20" opacity="0.25"/><circle cx="1040.3" cy="568.6" r="2.38" fill="#bd6b20" opacity="0.36"/><circle cx="1076.5" cy="567.3" r="3.15" fill="#bd6b20" opacity="0.28"/><circle cx="1111.7" cy="567.3" r="2.83" fill="#bd6b20" opacity="0.17"/><circle cx="1147.9" cy="568.3" r="3.17" fill="#bd6b20" opacity="0.18"/><circle cx="1181.4" cy="571.3" r="2.56" fill="#bd6b20" opacity="0.22"/><circle cx="29.1" cy="606.4" r="2.76" fill="#bd6b20" opacity="0.18"/><circle cx="65.1" cy="606.0" r="1.89" fill="#bd6b20" opacity="0.35"/><circle cx="103.2" cy="604.5" r="3.11" fill="#bd6b20" opacity="0.18"/><circle cx="139.1" cy="608.6" r="2.30" fill="#bd6b20" opacity="0.18"/><circle cx="176.6" cy="608.0" r="2.38" fill="#bd6b20" opacity="0.23"/><circle cx="211.7" cy="607.4" r="1.65" fill="#bd6b20" opacity="0.23"/><circle cx="247.3" cy="606.3" r="3.42" fill="#bd6b20" opacity="0.33"/><circle cx="282.2" cy="604.8" r="2.84" fill="#bd6b20" opacity="0.32"/><circle cx="319.4" cy="605.4" r="2.72" fill="#bd6b20" opacity="0.29"/><circle cx="353.6" cy="603.4" r="1.65" fill="#bd6b20" opacity="0.27"/><circle cx="390.2" cy="604.3" r="2.88" fill="#bd6b20" opacity="0.29"/><circle cx="423.7" cy="606.6" r="2.40" fill="#bd6b20" opacity="0.17"/><circle cx="463.5" cy="605.2" r="3.54" fill="#bd6b20" opacity="0.21"/><circle cx="495.4" cy="606.3" r="1.89" fill="#bd6b20" opacity="0.33"/><circle cx="533.6" cy="608.5" r="2.89" fill="#bd6b20" opacity="0.17"/><circle cx="569.6" cy="603.2" r="2.46" fill="#bd6b20" opacity="0.28"/><circle cx="608.2" cy="605.4" r="2.46" fill="#bd6b20" opacity="0.23"/><circle cx="641.7" cy="603.3" r="1.86" fill="#bd6b20" opacity="0.34"/><circle cx="676.6" cy="607.9" r="2.11" fill="#bd6b20" opacity="0.24"/><circle cx="712.8" cy="605.4" r="2.29" fill="#bd6b20" opacity="0.22"/><circle cx="749.8" cy="603.8" r="2.34" fill="#bd6b20" opacity="0.18"/><circle cx="786.4" cy="605.8" r="3.84" fill="#bd6b20" opacity="0.34"/><circle cx="822.4" cy="608.0" r="1.60" fill="#bd6b20" opacity="0.36"/><circle cx="860.9" cy="608.5" r="1.70" fill="#bd6b20" opacity="0.34"/><circle cx="894.2" cy="603.5" r="3.32" fill="#bd6b20" opacity="0.30"/><circle cx="932.0" cy="606.3" r="1.64" fill="#bd6b20" opacity="0.25"/><circle cx="964.7" cy="605.0" r="2.49" fill="#bd6b20" opacity="0.35"/><circle cx="1002.3" cy="606.2" r="3.72" fill="#bd6b20" opacity="0.24"/><circle cx="1036.4" cy="606.2" r="3.70" fill="#bd6b20" opacity="0.17"/><circle cx="1072.6" cy="603.0" r="1.77" fill="#bd6b20" opacity="0.30"/><circle cx="1112.3" cy="606.1" r="2.54" fill="#bd6b20" opacity="0.35"/><circle cx="1148.8" cy="605.1" r="3.99" fill="#bd6b20" opacity="0.22"/><circle cx="1183.6" cy="605.6" r="2.82" fill="#bd6b20" opacity="0.31"/><circle cx="29.8" cy="640.3" r="2.95" fill="#bd6b20" opacity="0.28"/><circle cx="65.8" cy="643.4" r="2.59" fill="#bd6b20" opacity="0.16"/><circle cx="99.7" cy="640.1" r="3.80" fill="#bd6b20" opacity="0.18"/><circle cx="135.7" cy="640.1" r="3.21" fill="#bd6b20" opacity="0.32"/><circle cx="172.4" cy="639.2" r="3.02" fill="#bd6b20" opacity="0.16"/><circle cx="212.3" cy="642.5" r="3.85" fill="#bd6b20" opacity="0.23"/><circle cx="243.0" cy="642.5" r="3.83" fill="#bd6b20" opacity="0.24"/><circle cx="283.9" cy="643.6" r="2.16" fill="#bd6b20" opacity="0.36"/><circle cx="319.2" cy="644.4" r="2.47" fill="#bd6b20" opacity="0.26"/><circle cx="354.0" cy="644.0" r="2.42" fill="#bd6b20" opacity="0.30"/><circle cx="389.1" cy="642.8" r="3.97" fill="#bd6b20" opacity="0.28"/><circle cx="425.6" cy="641.5" r="2.15" fill="#bd6b20" opacity="0.15"/><circle cx="460.0" cy="640.1" r="3.76" fill="#bd6b20" opacity="0.15"/><circle cx="497.9" cy="642.4" r="3.64" fill="#bd6b20" opacity="0.36"/><circle cx="533.2" cy="644.9" r="2.01" fill="#bd6b20" opacity="0.21"/><circle cx="570.6" cy="641.5" r="3.98" fill="#bd6b20" opacity="0.35"/><circle cx="603.9" cy="643.4" r="2.48" fill="#bd6b20" opacity="0.21"/><circle cx="642.0" cy="641.8" r="2.00" fill="#bd6b20" opacity="0.16"/><circle cx="677.0" cy="641.0" r="1.66" fill="#bd6b20" opacity="0.19"/><circle cx="714.7" cy="641.4" r="1.97" fill="#bd6b20" opacity="0.32"/><circle cx="752.2" cy="642.7" r="2.21" fill="#bd6b20" opacity="0.20"/><circle cx="784.1" cy="639.9" r="3.60" fill="#bd6b20" opacity="0.32"/><circle cx="822.3" cy="642.5" r="1.84" fill="#bd6b20" opacity="0.29"/><circle cx="859.8" cy="639.1" r="3.25" fill="#bd6b20" opacity="0.22"/><circle cx="894.7" cy="642.6" r="3.73" fill="#bd6b20" opacity="0.16"/><circle cx="930.6" cy="643.7" r="2.35" fill="#bd6b20" opacity="0.31"/><circle cx="963.7" cy="644.5" r="3.57" fill="#bd6b20" opacity="0.23"/><circle cx="1003.4" cy="639.3" r="1.71" fill="#bd6b20" opacity="0.18"/><circle cx="1039.4" cy="643.5" r="3.76" fill="#bd6b20" opacity="0.18"/><circle cx="1074.0" cy="641.7" r="3.57" fill="#bd6b20" opacity="0.31"/><circle cx="1109.1" cy="640.2" r="1.90" fill="#bd6b20" opacity="0.22"/><circle cx="1147.6" cy="639.0" r="1.83" fill="#bd6b20" opacity="0.19"/><circle cx="1181.4" cy="642.0" r="3.93" fill="#bd6b20" opacity="0.25"/><circle cx="220.8" cy="223.5" r="220" fill="url(#glow)" opacity="0.9"/>
  <g opacity="0.85" transform="translate(1020, 495)">
        <circle r="68" fill="none" stroke="#bd6b20" stroke-width="2" opacity="0.35"/>
        <path d="M -38 12 L 38 12 M -32 -8 L 32 -8 M -45 -28 L 45 -28" stroke="#9a5518" stroke-width="3" stroke-linecap="round"/>
        <rect x="-50" y="-44" width="100" height="80" fill="none" stroke="#bd6b20" stroke-width="2"/>
      </g>
  <g transform="translate(80, 90)">
    <rect x="0" y="0" rx="20" ry="20" width="112" height="38" fill="#bd6b20" opacity="0.18" stroke="#bd6b20" stroke-width="1.5"/>
    <text x="56" y="25" font-family="ui-sans-serif, Inter, sans-serif" font-weight="700" font-size="14" letter-spacing="2.5" fill="#bd6b20" text-anchor="middle">NEWSROOM</text>
  </g>
  <text x="80" y="465" font-family="ui-sans-serif, -apple-system, Segoe UI, Inter, sans-serif" font-weight="800" font-size="44" fill="#12100e" opacity="0.98"><tspan x="80" dy="0">Supreme Court Ruling on</tspan><tspan x="80" dy="56">Balancing CPC Principles</tspan><tspan x="80" dy="56">and Section 9 Power in</tspan></text>
  <rect x="0" y="669" width="1200" height="6" fill="url(#gold)"/>
</svg>