<?xml version="1.0" encoding="UTF-8"?>
<svg xmlns="http://www.w3.org/2000/svg" viewBox="0 0 1200 675" width="1200" height="675" role="img" aria-label="Delhi HC: Exclusive Jurisdiction Clause Overrides Arbitral Seat">
  <defs>
    <linearGradient id="bg" x1="0%" y1="0%" x2="100%" y2="100%">
      <stop offset="0%" stop-color="#12100e"/>
      <stop offset="100%" stop-color="#1c1917"/>
    </linearGradient>
    <linearGradient id="gold" x1="0%" y1="0%" x2="100%" y2="100%">
      <stop offset="0%" stop-color="#bd6b20"/>
      <stop offset="100%" stop-color="#e09440"/>
    </linearGradient>
    <radialGradient id="glow" cx="50%" cy="50%" r="50%">
      <stop offset="0%" stop-color="#bd6b20" stop-opacity="0.45"/>
      <stop offset="100%" stop-color="#bd6b20" stop-opacity="0"/>
    </radialGradient>
  </defs>
  <rect width="1200" height="675" fill="url(#bg)"/>
  <circle cx="27.6" cy="31.3" r="1.81" fill="#bd6b20" opacity="0.26"/><circle cx="65.4" cy="31.6" r="2.99" fill="#bd6b20" opacity="0.22"/><circle cx="99.6" cy="27.0" r="1.94" fill="#bd6b20" opacity="0.19"/><circle cx="137.7" cy="28.6" r="3.19" fill="#bd6b20" opacity="0.36"/><circle cx="172.9" cy="27.0" r="2.08" fill="#bd6b20" opacity="0.34"/><circle cx="212.3" cy="29.6" r="2.53" fill="#bd6b20" opacity="0.22"/><circle cx="246.8" cy="30.4" r="2.23" fill="#bd6b20" opacity="0.29"/><circle cx="284.4" cy="28.7" r="1.72" fill="#bd6b20" opacity="0.19"/><circle cx="317.4" cy="27.2" r="2.31" fill="#bd6b20" opacity="0.17"/><circle cx="351.9" cy="31.8" r="1.94" fill="#bd6b20" opacity="0.27"/><circle cx="390.3" cy="27.5" r="3.51" fill="#bd6b20" opacity="0.17"/><circle cx="426.5" cy="31.2" r="1.88" fill="#bd6b20" opacity="0.28"/><circle cx="460.6" cy="28.3" r="3.65" fill="#bd6b20" opacity="0.33"/><circle cx="498.6" cy="30.6" r="3.73" fill="#bd6b20" opacity="0.27"/><circle cx="536.1" cy="27.2" r="2.03" fill="#bd6b20" opacity="0.34"/><circle cx="571.3" cy="29.4" r="1.89" fill="#bd6b20" opacity="0.23"/><circle cx="604.7" cy="32.7" r="2.40" fill="#bd6b20" opacity="0.21"/><circle cx="640.0" cy="31.2" r="2.70" fill="#bd6b20" opacity="0.30"/><circle cx="680.7" cy="31.9" r="2.65" fill="#bd6b20" opacity="0.17"/><circle cx="713.6" cy="31.5" r="2.35" fill="#bd6b20" opacity="0.33"/><circle cx="749.3" cy="29.3" r="3.96" fill="#bd6b20" opacity="0.18"/><circle cx="788.0" cy="30.4" r="2.51" fill="#bd6b20" opacity="0.28"/><circle cx="822.1" cy="31.3" r="2.77" fill="#bd6b20" opacity="0.31"/><circle cx="859.9" cy="27.6" r="3.35" fill="#bd6b20" opacity="0.28"/><circle cx="895.5" cy="31.8" r="2.52" fill="#bd6b20" opacity="0.23"/><circle cx="928.7" cy="28.3" r="2.84" fill="#bd6b20" opacity="0.30"/><circle cx="964.4" cy="28.3" r="2.02" fill="#bd6b20" opacity="0.33"/><circle cx="1000.6" cy="28.6" r="3.63" fill="#bd6b20" opacity="0.21"/><circle cx="1038.3" cy="27.3" r="1.81" fill="#bd6b20" opacity="0.26"/><circle cx="1073.1" cy="31.8" r="3.68" fill="#bd6b20" opacity="0.32"/><circle cx="1112.4" cy="31.1" r="3.10" fill="#bd6b20" opacity="0.34"/><circle cx="1145.6" cy="32.5" r="3.83" fill="#bd6b20" opacity="0.33"/><circle cx="1182.1" cy="31.8" r="2.73" fill="#bd6b20" opacity="0.32"/><circle cx="28.2" cy="64.3" r="1.77" fill="#bd6b20" opacity="0.25"/><circle cx="68.6" cy="64.1" r="2.97" fill="#bd6b20" opacity="0.22"/><circle cx="104.6" cy="64.5" r="1.61" fill="#bd6b20" opacity="0.34"/><circle cx="136.8" cy="67.0" r="1.93" fill="#bd6b20" opacity="0.18"/><circle cx="176.1" cy="67.4" r="3.25" fill="#bd6b20" opacity="0.22"/><circle cx="212.1" cy="64.5" r="1.65" fill="#bd6b20" opacity="0.29"/><circle cx="244.0" cy="65.2" r="1.99" fill="#bd6b20" opacity="0.25"/><circle cx="284.1" cy="63.8" r="3.25" fill="#bd6b20" opacity="0.26"/><circle cx="315.9" cy="66.6" r="2.62" fill="#bd6b20" opacity="0.22"/><circle cx="356.1" cy="64.7" r="3.11" fill="#bd6b20" opacity="0.25"/><circle cx="387.7" cy="66.4" r="2.19" fill="#bd6b20" opacity="0.28"/><circle cx="425.1" cy="66.0" r="3.60" fill="#bd6b20" opacity="0.16"/><circle cx="461.7" cy="67.7" r="3.55" fill="#bd6b20" opacity="0.18"/><circle cx="499.1" cy="64.9" r="2.34" fill="#bd6b20" opacity="0.35"/><circle cx="534.7" cy="65.6" r="2.55" fill="#bd6b20" opacity="0.26"/><circle cx="572.6" cy="63.7" r="3.12" fill="#bd6b20" opacity="0.34"/><circle cx="607.5" cy="63.5" r="2.87" fill="#bd6b20" opacity="0.35"/><circle cx="644.5" cy="63.2" r="1.88" fill="#bd6b20" opacity="0.24"/><circle cx="680.1" cy="65.8" r="3.57" fill="#bd6b20" opacity="0.27"/><circle cx="713.9" cy="67.3" r="3.47" fill="#bd6b20" opacity="0.29"/><circle cx="751.1" cy="65.8" r="2.26" fill="#bd6b20" opacity="0.32"/><circle cx="788.7" cy="65.2" r="2.04" fill="#bd6b20" opacity="0.23"/><circle cx="820.9" cy="64.7" r="2.49" fill="#bd6b20" opacity="0.24"/><circle cx="856.4" cy="66.6" r="1.90" fill="#bd6b20" opacity="0.24"/><circle cx="894.1" cy="65.1" r="2.67" fill="#bd6b20" opacity="0.22"/><circle cx="930.5" cy="68.0" r="2.81" fill="#bd6b20" opacity="0.22"/><circle cx="967.7" cy="65.0" r="3.56" fill="#bd6b20" opacity="0.17"/><circle cx="1001.0" cy="64.1" r="3.83" fill="#bd6b20" opacity="0.33"/><circle cx="1039.0" cy="64.7" r="3.91" fill="#bd6b20" opacity="0.36"/><circle cx="1074.7" cy="67.0" r="1.60" fill="#bd6b20" opacity="0.27"/><circle cx="1111.7" cy="64.1" r="3.89" fill="#bd6b20" opacity="0.31"/><circle cx="1145.3" cy="67.5" r="3.65" fill="#bd6b20" opacity="0.16"/><circle cx="1181.2" cy="67.3" r="2.84" fill="#bd6b20" opacity="0.29"/><circle cx="29.2" cy="99.3" r="3.79" fill="#bd6b20" opacity="0.19"/><circle cx="68.6" cy="102.9" r="3.46" fill="#bd6b20" opacity="0.18"/><circle cx="102.5" cy="104.2" r="2.22" fill="#bd6b20" opacity="0.18"/><circle cx="137.2" cy="102.2" r="2.72" fill="#bd6b20" opacity="0.18"/><circle cx="176.7" cy="99.1" r="3.55" fill="#bd6b20" opacity="0.18"/><circle cx="207.1" cy="103.3" r="1.63" fill="#bd6b20" opacity="0.22"/><circle cx="246.5" cy="102.0" r="2.70" fill="#bd6b20" opacity="0.30"/><circle cx="280.4" cy="104.7" r="2.73" fill="#bd6b20" opacity="0.31"/><circle cx="319.9" cy="99.1" r="2.89" fill="#bd6b20" opacity="0.31"/><circle cx="351.2" cy="104.6" r="3.44" fill="#bd6b20" opacity="0.31"/><circle cx="389.8" cy="104.9" r="2.28" fill="#bd6b20" opacity="0.29"/><circle cx="423.0" cy="100.7" r="1.74" fill="#bd6b20" opacity="0.17"/><circle cx="461.9" cy="100.5" r="2.89" fill="#bd6b20" opacity="0.30"/><circle cx="500.2" cy="103.3" r="1.62" fill="#bd6b20" opacity="0.31"/><circle cx="531.4" cy="102.6" r="2.39" fill="#bd6b20" opacity="0.26"/><circle cx="567.4" cy="99.7" r="3.96" fill="#bd6b20" opacity="0.22"/><circle cx="605.8" cy="103.7" r="2.86" fill="#bd6b20" opacity="0.22"/><circle cx="642.2" cy="99.4" r="3.44" fill="#bd6b20" opacity="0.30"/><circle cx="677.0" cy="100.8" r="2.13" fill="#bd6b20" opacity="0.16"/><circle cx="714.6" cy="100.1" r="2.38" fill="#bd6b20" opacity="0.23"/><circle cx="749.8" cy="99.7" r="1.73" fill="#bd6b20" opacity="0.34"/><circle cx="787.1" cy="103.1" r="1.72" fill="#bd6b20" opacity="0.29"/><circle cx="824.2" cy="101.5" r="3.54" fill="#bd6b20" opacity="0.19"/><circle cx="860.9" cy="103.9" r="2.33" fill="#bd6b20" opacity="0.31"/><circle cx="894.0" cy="100.5" r="2.48" fill="#bd6b20" opacity="0.23"/><circle cx="927.1" cy="101.3" r="3.51" fill="#bd6b20" opacity="0.17"/><circle cx="965.9" cy="102.5" r="2.35" fill="#bd6b20" opacity="0.24"/><circle cx="1000.2" cy="100.4" r="3.16" fill="#bd6b20" opacity="0.28"/><circle cx="1035.8" cy="102.3" r="3.50" fill="#bd6b20" opacity="0.31"/><circle cx="1071.9" cy="102.2" r="2.66" fill="#bd6b20" opacity="0.28"/><circle cx="1108.5" cy="103.7" r="3.95" fill="#bd6b20" opacity="0.26"/><circle cx="1146.0" cy="104.1" r="2.50" fill="#bd6b20" opacity="0.24"/><circle cx="1183.1" cy="103.9" r="2.67" fill="#bd6b20" opacity="0.22"/><circle cx="31.6" cy="139.1" r="3.92" fill="#bd6b20" opacity="0.30"/><circle cx="68.9" cy="138.6" r="2.56" fill="#bd6b20" opacity="0.31"/><circle cx="102.7" cy="137.1" r="3.44" fill="#bd6b20" opacity="0.36"/><circle cx="140.9" cy="135.2" r="3.86" fill="#bd6b20" opacity="0.16"/><circle cx="172.3" cy="139.8" r="2.19" fill="#bd6b20" opacity="0.15"/><circle cx="208.3" cy="139.2" r="2.81" fill="#bd6b20" opacity="0.30"/><circle cx="248.7" cy="138.4" r="2.11" fill="#bd6b20" opacity="0.33"/><circle cx="284.6" cy="138.1" r="2.22" fill="#bd6b20" opacity="0.17"/><circle cx="320.9" cy="137.0" r="2.44" fill="#bd6b20" opacity="0.30"/><circle cx="355.8" cy="137.7" r="2.14" fill="#bd6b20" opacity="0.16"/><circle cx="387.7" cy="138.2" r="1.78" fill="#bd6b20" opacity="0.30"/><circle cx="425.0" cy="139.5" r="1.88" fill="#bd6b20" opacity="0.17"/><circle cx="463.6" cy="139.9" r="3.22" fill="#bd6b20" opacity="0.25"/><circle cx="499.9" cy="139.6" r="1.76" fill="#bd6b20" opacity="0.18"/><circle cx="536.2" cy="135.5" r="2.03" fill="#bd6b20" opacity="0.19"/><circle cx="572.1" cy="136.0" r="2.03" fill="#bd6b20" opacity="0.28"/><circle cx="607.6" cy="139.7" r="2.81" fill="#bd6b20" opacity="0.28"/><circle cx="640.3" cy="136.4" r="3.34" fill="#bd6b20" opacity="0.34"/><circle cx="675.6" cy="136.0" r="3.64" fill="#bd6b20" opacity="0.35"/><circle cx="712.5" cy="138.1" r="3.64" fill="#bd6b20" opacity="0.22"/><circle cx="748.9" cy="135.5" r="2.11" fill="#bd6b20" opacity="0.17"/><circle cx="785.6" cy="135.8" r="3.76" fill="#bd6b20" opacity="0.33"/><circle cx="822.1" cy="140.3" r="2.41" fill="#bd6b20" opacity="0.26"/><circle cx="855.1" cy="136.8" r="3.13" fill="#bd6b20" opacity="0.33"/><circle cx="895.5" cy="136.9" r="2.59" fill="#bd6b20" opacity="0.16"/><circle cx="932.7" cy="135.3" r="3.41" fill="#bd6b20" opacity="0.21"/><circle cx="964.1" cy="138.4" r="3.61" fill="#bd6b20" opacity="0.35"/><circle cx="1003.7" cy="137.0" r="3.56" fill="#bd6b20" opacity="0.34"/><circle cx="1040.2" cy="138.6" r="4.00" fill="#bd6b20" opacity="0.25"/><circle cx="1076.0" cy="137.4" r="2.51" fill="#bd6b20" opacity="0.21"/><circle cx="1110.9" cy="137.4" r="2.42" fill="#bd6b20" opacity="0.17"/><circle cx="1144.9" cy="136.1" r="3.11" fill="#bd6b20" opacity="0.24"/><circle cx="1182.6" cy="135.8" r="2.93" fill="#bd6b20" opacity="0.28"/><circle cx="31.8" cy="175.1" r="2.10" fill="#bd6b20" opacity="0.20"/><circle cx="63.4" cy="171.5" r="3.40" fill="#bd6b20" opacity="0.30"/><circle cx="102.9" cy="175.6" r="2.98" fill="#bd6b20" opacity="0.21"/><circle cx="140.2" cy="174.7" r="3.88" fill="#bd6b20" opacity="0.21"/><circle cx="175.5" cy="174.0" r="1.80" fill="#bd6b20" opacity="0.29"/><circle cx="211.1" cy="171.2" r="3.43" fill="#bd6b20" opacity="0.26"/><circle cx="243.7" cy="176.6" r="2.31" fill="#bd6b20" opacity="0.21"/><circle cx="283.4" cy="175.4" r="3.10" fill="#bd6b20" opacity="0.33"/><circle cx="315.4" cy="171.2" r="2.18" fill="#bd6b20" opacity="0.20"/><circle cx="354.8" cy="175.8" r="3.37" fill="#bd6b20" opacity="0.16"/><circle cx="387.8" cy="173.7" r="1.96" fill="#bd6b20" opacity="0.32"/><circle cx="423.5" cy="173.3" r="2.27" fill="#bd6b20" opacity="0.17"/><circle cx="464.9" cy="176.1" r="2.13" fill="#bd6b20" opacity="0.30"/><circle cx="499.0" cy="174.3" r="3.83" fill="#bd6b20" opacity="0.20"/><circle cx="533.4" cy="173.4" r="3.54" fill="#bd6b20" opacity="0.28"/><circle cx="571.7" cy="176.8" r="3.92" fill="#bd6b20" opacity="0.19"/><circle cx="606.2" cy="172.4" r="2.81" fill="#bd6b20" opacity="0.27"/><circle cx="639.6" cy="173.1" r="3.61" fill="#bd6b20" opacity="0.22"/><circle cx="677.6" cy="171.1" r="2.05" fill="#bd6b20" opacity="0.27"/><circle cx="714.9" cy="172.9" r="2.38" fill="#bd6b20" opacity="0.24"/><circle cx="750.9" cy="171.9" r="2.81" fill="#bd6b20" opacity="0.20"/><circle cx="784.3" cy="174.5" r="1.92" fill="#bd6b20" opacity="0.28"/><circle cx="824.6" cy="173.5" r="2.40" fill="#bd6b20" opacity="0.23"/><circle cx="855.3" cy="171.1" r="1.92" fill="#bd6b20" opacity="0.21"/><circle cx="896.5" cy="177.0" r="3.73" fill="#bd6b20" opacity="0.21"/><circle cx="927.9" cy="172.6" r="3.01" fill="#bd6b20" opacity="0.18"/><circle cx="966.0" cy="173.5" r="3.11" fill="#bd6b20" opacity="0.18"/><circle cx="1001.0" cy="174.8" r="2.32" fill="#bd6b20" opacity="0.21"/><circle cx="1037.4" cy="176.7" r="2.66" fill="#bd6b20" opacity="0.21"/><circle cx="1076.9" cy="176.0" r="1.76" fill="#bd6b20" opacity="0.15"/><circle cx="1108.8" cy="172.6" r="2.22" fill="#bd6b20" opacity="0.34"/><circle cx="1145.0" cy="174.1" r="3.29" fill="#bd6b20" opacity="0.21"/><circle cx="1184.5" cy="174.7" r="1.86" fill="#bd6b20" opacity="0.24"/><circle cx="30.9" cy="207.6" r="2.46" fill="#bd6b20" opacity="0.35"/><circle cx="67.2" cy="211.2" r="3.32" fill="#bd6b20" opacity="0.15"/><circle cx="104.7" cy="209.1" r="2.10" fill="#bd6b20" opacity="0.19"/><circle cx="137.8" cy="211.6" r="3.81" fill="#bd6b20" opacity="0.34"/><circle cx="171.0" cy="210.3" r="3.46" fill="#bd6b20" opacity="0.19"/><circle cx="211.1" cy="211.7" r="3.90" fill="#bd6b20" opacity="0.31"/><circle cx="245.6" cy="208.4" r="1.63" fill="#bd6b20" opacity="0.35"/><circle cx="280.2" cy="211.4" r="2.37" fill="#bd6b20" opacity="0.26"/><circle cx="318.4" cy="210.1" r="3.94" fill="#bd6b20" opacity="0.27"/><circle cx="352.5" cy="209.5" r="3.63" fill="#bd6b20" opacity="0.30"/><circle cx="387.3" cy="209.1" r="1.70" fill="#bd6b20" opacity="0.35"/><circle cx="428.4" cy="209.6" r="2.89" fill="#bd6b20" opacity="0.33"/><circle cx="461.5" cy="211.8" r="3.13" fill="#bd6b20" opacity="0.22"/><circle cx="496.8" cy="207.0" r="3.59" fill="#bd6b20" opacity="0.35"/><circle cx="535.5" cy="210.2" r="3.14" fill="#bd6b20" opacity="0.30"/><circle cx="570.7" cy="207.9" r="3.71" fill="#bd6b20" opacity="0.31"/><circle cx="606.2" cy="210.4" r="3.73" fill="#bd6b20" opacity="0.28"/><circle cx="644.1" cy="211.4" r="3.32" fill="#bd6b20" opacity="0.36"/><circle cx="677.6" cy="210.3" r="1.97" fill="#bd6b20" opacity="0.18"/><circle cx="712.6" cy="209.2" r="3.23" fill="#bd6b20" opacity="0.32"/><circle cx="750.5" cy="211.4" r="3.60" fill="#bd6b20" opacity="0.17"/><circle cx="783.2" cy="208.0" r="3.06" fill="#bd6b20" opacity="0.26"/><circle cx="824.4" cy="212.7" r="1.82" fill="#bd6b20" opacity="0.27"/><circle cx="858.6" cy="213.0" r="2.90" fill="#bd6b20" opacity="0.35"/><circle cx="896.8" cy="208.2" r="2.88" fill="#bd6b20" opacity="0.16"/><circle cx="933.0" cy="213.0" r="2.34" fill="#bd6b20" opacity="0.29"/><circle cx="968.4" cy="209.7" r="2.37" fill="#bd6b20" opacity="0.30"/><circle cx="1003.4" cy="209.6" r="3.42" fill="#bd6b20" opacity="0.27"/><circle cx="1039.2" cy="212.4" r="3.15" fill="#bd6b20" opacity="0.17"/><circle cx="1072.3" cy="210.3" r="2.37" fill="#bd6b20" opacity="0.34"/><circle cx="1109.4" cy="207.2" r="3.03" fill="#bd6b20" opacity="0.32"/><circle cx="1143.4" cy="207.3" r="1.73" fill="#bd6b20" opacity="0.34"/><circle cx="1179.0" cy="209.7" r="2.98" fill="#bd6b20" opacity="0.26"/><circle cx="31.1" cy="249.0" r="3.76" fill="#bd6b20" opacity="0.25"/><circle cx="64.3" cy="247.9" r="1.82" fill="#bd6b20" opacity="0.28"/><circle cx="101.1" cy="245.4" r="2.40" fill="#bd6b20" opacity="0.20"/><circle cx="139.1" cy="246.1" r="1.73" fill="#bd6b20" opacity="0.25"/><circle cx="175.6" cy="248.6" r="2.81" fill="#bd6b20" opacity="0.33"/><circle cx="207.6" cy="243.3" r="1.92" fill="#bd6b20" opacity="0.30"/><circle cx="246.2" cy="245.2" r="2.15" fill="#bd6b20" opacity="0.16"/><circle cx="280.6" cy="243.7" r="3.67" fill="#bd6b20" opacity="0.31"/><circle cx="316.0" cy="247.4" r="3.96" fill="#bd6b20" opacity="0.18"/><circle cx="354.6" cy="247.5" r="1.83" fill="#bd6b20" opacity="0.28"/><circle cx="388.8" cy="244.0" r="1.67" fill="#bd6b20" opacity="0.30"/><circle cx="428.7" cy="247.0" r="3.30" fill="#bd6b20" opacity="0.26"/><circle cx="460.6" cy="247.1" r="1.62" fill="#bd6b20" opacity="0.22"/><circle cx="497.6" cy="245.3" r="3.92" fill="#bd6b20" opacity="0.26"/><circle cx="535.0" cy="248.2" r="2.56" fill="#bd6b20" opacity="0.26"/><circle cx="572.0" cy="243.6" r="1.67" fill="#bd6b20" opacity="0.29"/><circle cx="606.7" cy="248.8" r="3.00" fill="#bd6b20" opacity="0.25"/><circle cx="639.8" cy="243.6" r="3.41" fill="#bd6b20" opacity="0.32"/><circle cx="675.8" cy="243.3" r="3.95" fill="#bd6b20" opacity="0.17"/><circle cx="714.8" cy="244.2" r="2.91" fill="#bd6b20" opacity="0.35"/><circle cx="750.6" cy="245.5" r="3.30" fill="#bd6b20" opacity="0.17"/><circle cx="789.0" cy="247.2" r="3.90" fill="#bd6b20" opacity="0.16"/><circle cx="822.8" cy="245.9" r="3.17" fill="#bd6b20" opacity="0.28"/><circle cx="857.7" cy="247.2" r="2.92" fill="#bd6b20" opacity="0.18"/><circle cx="896.9" cy="246.5" r="3.00" fill="#bd6b20" opacity="0.29"/><circle cx="931.2" cy="248.7" r="1.63" fill="#bd6b20" opacity="0.17"/><circle cx="968.3" cy="248.0" r="2.17" fill="#bd6b20" opacity="0.22"/><circle cx="999.1" cy="244.8" r="3.71" fill="#bd6b20" opacity="0.28"/><circle cx="1038.1" cy="248.3" r="1.82" fill="#bd6b20" opacity="0.20"/><circle cx="1072.6" cy="245.7" r="3.16" fill="#bd6b20" opacity="0.31"/><circle cx="1112.1" cy="246.5" r="1.76" fill="#bd6b20" opacity="0.28"/><circle cx="1144.6" cy="243.5" r="2.98" fill="#bd6b20" opacity="0.22"/><circle cx="1183.3" cy="247.4" r="2.12" fill="#bd6b20" opacity="0.17"/><circle cx="33.0" cy="279.1" r="2.30" fill="#bd6b20" opacity="0.21"/><circle cx="63.1" cy="279.1" r="2.11" fill="#bd6b20" opacity="0.19"/><circle cx="102.7" cy="281.5" r="3.75" fill="#bd6b20" opacity="0.19"/><circle cx="140.3" cy="281.8" r="3.62" fill="#bd6b20" opacity="0.16"/><circle cx="175.8" cy="282.2" r="3.63" fill="#bd6b20" opacity="0.18"/><circle cx="207.2" cy="281.7" r="3.16" fill="#bd6b20" opacity="0.21"/><circle cx="248.9" cy="284.7" r="2.69" fill="#bd6b20" opacity="0.19"/><circle cx="284.5" cy="281.1" r="3.38" fill="#bd6b20" opacity="0.20"/><circle cx="315.7" cy="279.7" r="1.61" fill="#bd6b20" opacity="0.23"/><circle cx="354.8" cy="284.4" r="2.73" fill="#bd6b20" opacity="0.20"/><circle cx="388.6" cy="280.3" r="2.90" fill="#bd6b20" opacity="0.17"/><circle cx="426.8" cy="285.0" r="1.77" fill="#bd6b20" opacity="0.35"/><circle cx="460.9" cy="284.1" r="3.25" fill="#bd6b20" opacity="0.18"/><circle cx="496.0" cy="280.2" r="1.63" fill="#bd6b20" opacity="0.24"/><circle cx="533.4" cy="283.4" r="3.85" fill="#bd6b20" opacity="0.15"/><circle cx="570.3" cy="282.9" r="3.61" fill="#bd6b20" opacity="0.32"/><circle cx="608.2" cy="280.7" r="1.92" fill="#bd6b20" opacity="0.21"/><circle cx="640.5" cy="281.1" r="2.27" fill="#bd6b20" opacity="0.24"/><circle cx="678.4" cy="281.2" r="3.43" fill="#bd6b20" opacity="0.33"/><circle cx="711.7" cy="279.1" r="1.80" fill="#bd6b20" opacity="0.20"/><circle cx="750.2" cy="283.3" r="3.37" fill="#bd6b20" opacity="0.32"/><circle cx="785.8" cy="280.3" r="2.78" fill="#bd6b20" opacity="0.31"/><circle cx="823.4" cy="279.9" r="1.79" fill="#bd6b20" opacity="0.28"/><circle cx="860.9" cy="280.7" r="3.90" fill="#bd6b20" opacity="0.34"/><circle cx="893.5" cy="282.8" r="1.90" fill="#bd6b20" opacity="0.31"/><circle cx="931.6" cy="283.1" r="3.19" fill="#bd6b20" opacity="0.22"/><circle cx="964.1" cy="284.8" r="3.91" fill="#bd6b20" opacity="0.28"/><circle cx="999.1" cy="282.2" r="2.24" fill="#bd6b20" opacity="0.24"/><circle cx="1036.5" cy="283.7" r="2.08" fill="#bd6b20" opacity="0.26"/><circle cx="1074.8" cy="284.0" r="3.77" fill="#bd6b20" opacity="0.24"/><circle cx="1110.4" cy="284.9" r="1.84" fill="#bd6b20" opacity="0.25"/><circle cx="1146.6" cy="279.7" r="2.37" fill="#bd6b20" opacity="0.24"/><circle cx="1181.9" cy="280.1" r="2.43" fill="#bd6b20" opacity="0.35"/><circle cx="29.8" cy="318.0" r="3.00" fill="#bd6b20" opacity="0.21"/><circle cx="66.1" cy="321.0" r="1.79" fill="#bd6b20" opacity="0.19"/><circle cx="100.2" cy="320.3" r="3.65" fill="#bd6b20" opacity="0.28"/><circle cx="138.1" cy="317.9" r="2.02" fill="#bd6b20" opacity="0.33"/><circle cx="174.3" cy="318.7" r="1.74" fill="#bd6b20" opacity="0.18"/><circle cx="212.5" cy="320.8" r="2.26" fill="#bd6b20" opacity="0.20"/><circle cx="246.1" cy="315.4" r="2.31" fill="#bd6b20" opacity="0.21"/><circle cx="282.5" cy="319.4" r="3.26" fill="#bd6b20" opacity="0.35"/><circle cx="319.2" cy="316.7" r="2.51" fill="#bd6b20" opacity="0.30"/><circle cx="355.4" cy="316.7" r="3.91" fill="#bd6b20" opacity="0.32"/><circle cx="389.7" cy="317.2" r="2.73" fill="#bd6b20" opacity="0.23"/><circle cx="423.4" cy="317.1" r="3.38" fill="#bd6b20" opacity="0.24"/><circle cx="461.7" cy="319.6" r="3.73" fill="#bd6b20" opacity="0.15"/><circle cx="499.3" cy="318.2" r="3.11" fill="#bd6b20" opacity="0.34"/><circle cx="533.9" cy="316.0" r="2.79" fill="#bd6b20" opacity="0.24"/><circle cx="569.9" cy="315.4" r="2.91" fill="#bd6b20" opacity="0.18"/><circle cx="605.7" cy="320.1" r="2.67" fill="#bd6b20" opacity="0.25"/><circle cx="643.5" cy="316.2" r="3.22" fill="#bd6b20" opacity="0.36"/><circle cx="675.9" cy="316.1" r="3.10" fill="#bd6b20" opacity="0.23"/><circle cx="711.0" cy="317.8" r="1.76" fill="#bd6b20" opacity="0.20"/><circle cx="749.5" cy="315.2" r="2.06" fill="#bd6b20" opacity="0.21"/><circle cx="788.6" cy="318.3" r="2.50" fill="#bd6b20" opacity="0.19"/><circle cx="824.4" cy="318.9" r="2.28" fill="#bd6b20" opacity="0.20"/><circle cx="855.4" cy="318.5" r="3.73" fill="#bd6b20" opacity="0.35"/><circle cx="894.8" cy="316.5" r="2.59" fill="#bd6b20" opacity="0.15"/><circle cx="928.8" cy="320.3" r="4.00" fill="#bd6b20" opacity="0.24"/><circle cx="963.4" cy="319.5" r="2.60" fill="#bd6b20" opacity="0.31"/><circle cx="1003.2" cy="318.3" r="3.47" fill="#bd6b20" opacity="0.23"/><circle cx="1036.2" cy="316.7" r="3.01" fill="#bd6b20" opacity="0.26"/><circle cx="1076.6" cy="318.3" r="1.78" fill="#bd6b20" opacity="0.34"/><circle cx="1107.9" cy="317.2" r="3.31" fill="#bd6b20" opacity="0.32"/><circle cx="1148.6" cy="320.7" r="1.90" fill="#bd6b20" opacity="0.35"/><circle cx="1181.1" cy="315.9" r="2.12" fill="#bd6b20" opacity="0.33"/><circle cx="32.3" cy="356.8" r="2.75" fill="#bd6b20" opacity="0.20"/><circle cx="67.6" cy="352.8" r="2.76" fill="#bd6b20" opacity="0.17"/><circle cx="99.4" cy="354.9" r="3.82" fill="#bd6b20" opacity="0.34"/><circle cx="137.4" cy="354.0" r="3.03" fill="#bd6b20" opacity="0.34"/><circle cx="173.1" cy="354.0" r="3.15" fill="#bd6b20" opacity="0.26"/><circle cx="207.8" cy="351.5" r="3.76" fill="#bd6b20" opacity="0.30"/><circle cx="245.9" cy="353.2" r="3.74" fill="#bd6b20" opacity="0.35"/><circle cx="282.6" cy="356.0" r="2.96" fill="#bd6b20" opacity="0.19"/><circle cx="319.4" cy="351.7" r="2.74" fill="#bd6b20" opacity="0.25"/><circle cx="352.6" cy="354.1" r="2.10" fill="#bd6b20" opacity="0.35"/><circle cx="389.6" cy="351.3" r="2.51" fill="#bd6b20" opacity="0.19"/><circle cx="426.0" cy="355.3" r="2.67" fill="#bd6b20" opacity="0.22"/><circle cx="460.7" cy="357.0" r="2.97" fill="#bd6b20" opacity="0.31"/><circle cx="499.7" cy="351.6" r="2.79" fill="#bd6b20" opacity="0.16"/><circle cx="534.0" cy="356.5" r="3.35" fill="#bd6b20" opacity="0.24"/><circle cx="570.3" cy="352.7" r="3.76" fill="#bd6b20" opacity="0.27"/><circle cx="604.9" cy="353.8" r="2.99" fill="#bd6b20" opacity="0.36"/><circle cx="642.9" cy="354.2" r="2.67" fill="#bd6b20" opacity="0.28"/><circle cx="677.0" cy="351.1" r="3.97" fill="#bd6b20" opacity="0.31"/><circle cx="715.5" cy="356.6" r="3.88" fill="#bd6b20" opacity="0.21"/><circle cx="750.8" cy="351.4" r="1.80" fill="#bd6b20" opacity="0.31"/><circle cx="784.8" cy="356.0" r="3.71" fill="#bd6b20" opacity="0.24"/><circle cx="822.8" cy="353.7" r="3.51" fill="#bd6b20" opacity="0.22"/><circle cx="857.0" cy="354.2" r="2.15" fill="#bd6b20" opacity="0.25"/><circle cx="896.8" cy="355.9" r="3.53" fill="#bd6b20" opacity="0.19"/><circle cx="932.8" cy="353.4" r="2.78" fill="#bd6b20" opacity="0.19"/><circle cx="963.7" cy="351.8" r="3.73" fill="#bd6b20" opacity="0.19"/><circle cx="1002.2" cy="352.3" r="3.29" fill="#bd6b20" opacity="0.25"/><circle cx="1037.7" cy="353.1" r="1.88" fill="#bd6b20" opacity="0.26"/><circle cx="1077.0" cy="351.3" r="2.63" fill="#bd6b20" opacity="0.33"/><circle cx="1111.4" cy="354.9" r="3.83" fill="#bd6b20" opacity="0.32"/><circle cx="1148.2" cy="355.2" r="2.80" fill="#bd6b20" opacity="0.31"/><circle cx="1184.4" cy="356.8" r="2.73" fill="#bd6b20" opacity="0.32"/><circle cx="28.2" cy="392.3" r="3.19" fill="#bd6b20" opacity="0.24"/><circle cx="65.2" cy="388.2" r="3.31" fill="#bd6b20" opacity="0.23"/><circle cx="104.6" cy="391.4" r="3.53" fill="#bd6b20" opacity="0.33"/><circle cx="139.4" cy="389.6" r="3.35" fill="#bd6b20" opacity="0.16"/><circle cx="173.6" cy="387.6" r="3.32" fill="#bd6b20" opacity="0.16"/><circle cx="212.2" cy="388.4" r="3.46" fill="#bd6b20" opacity="0.28"/><circle cx="244.3" cy="387.8" r="1.64" fill="#bd6b20" opacity="0.17"/><circle cx="281.2" cy="388.2" r="3.85" fill="#bd6b20" opacity="0.21"/><circle cx="315.7" cy="389.5" r="1.71" fill="#bd6b20" opacity="0.35"/><circle cx="356.4" cy="392.8" r="2.77" fill="#bd6b20" opacity="0.27"/><circle cx="387.3" cy="388.6" r="2.07" fill="#bd6b20" opacity="0.27"/><circle cx="424.3" cy="389.6" r="3.83" fill="#bd6b20" opacity="0.27"/><circle cx="463.2" cy="391.4" r="2.26" fill="#bd6b20" opacity="0.30"/><circle cx="499.0" cy="387.6" r="1.67" fill="#bd6b20" opacity="0.31"/><circle cx="534.6" cy="388.9" r="2.48" fill="#bd6b20" opacity="0.24"/><circle cx="572.7" cy="390.1" r="3.97" fill="#bd6b20" opacity="0.17"/><circle cx="606.4" cy="389.6" r="1.91" fill="#bd6b20" opacity="0.28"/><circle cx="642.3" cy="389.3" r="2.70" fill="#bd6b20" opacity="0.22"/><circle cx="677.7" cy="389.6" r="2.60" fill="#bd6b20" opacity="0.16"/><circle cx="716.9" cy="387.4" r="2.64" fill="#bd6b20" opacity="0.21"/><circle cx="750.7" cy="391.2" r="3.11" fill="#bd6b20" opacity="0.28"/><circle cx="784.4" cy="388.7" r="1.94" fill="#bd6b20" opacity="0.17"/><circle cx="823.7" cy="390.3" r="2.32" fill="#bd6b20" opacity="0.26"/><circle cx="859.4" cy="391.5" r="1.61" fill="#bd6b20" opacity="0.19"/><circle cx="891.9" cy="388.5" r="2.79" fill="#bd6b20" opacity="0.21"/><circle cx="931.8" cy="391.0" r="3.27" fill="#bd6b20" opacity="0.28"/><circle cx="964.4" cy="391.5" r="2.90" fill="#bd6b20" opacity="0.24"/><circle cx="1001.5" cy="392.2" r="3.71" fill="#bd6b20" opacity="0.34"/><circle cx="1038.6" cy="387.1" r="2.88" fill="#bd6b20" opacity="0.21"/><circle cx="1076.2" cy="388.0" r="2.33" fill="#bd6b20" opacity="0.22"/><circle cx="1111.3" cy="388.4" r="3.55" fill="#bd6b20" opacity="0.33"/><circle cx="1146.2" cy="391.4" r="2.87" fill="#bd6b20" opacity="0.18"/><circle cx="1181.9" cy="390.3" r="3.23" fill="#bd6b20" opacity="0.28"/><circle cx="28.6" cy="423.1" r="2.86" fill="#bd6b20" opacity="0.22"/><circle cx="68.3" cy="425.0" r="3.15" fill="#bd6b20" opacity="0.33"/><circle cx="100.3" cy="426.5" r="2.38" fill="#bd6b20" opacity="0.21"/><circle cx="140.9" cy="426.0" r="2.35" fill="#bd6b20" opacity="0.18"/><circle cx="172.0" cy="424.1" r="3.42" fill="#bd6b20" opacity="0.15"/><circle cx="207.7" cy="427.5" r="2.20" fill="#bd6b20" opacity="0.29"/><circle cx="243.4" cy="425.2" r="3.48" fill="#bd6b20" opacity="0.20"/><circle cx="284.3" cy="428.1" r="3.94" fill="#bd6b20" opacity="0.31"/><circle cx="315.7" cy="423.5" r="3.63" fill="#bd6b20" opacity="0.36"/><circle cx="354.5" cy="427.3" r="2.24" fill="#bd6b20" opacity="0.21"/><circle cx="388.6" cy="427.6" r="2.09" fill="#bd6b20" opacity="0.28"/><circle cx="426.9" cy="424.8" r="3.92" fill="#bd6b20" opacity="0.28"/><circle cx="461.9" cy="425.0" r="1.64" fill="#bd6b20" opacity="0.22"/><circle cx="500.8" cy="427.3" r="2.89" fill="#bd6b20" opacity="0.30"/><circle cx="532.4" cy="424.9" r="1.96" fill="#bd6b20" opacity="0.17"/><circle cx="567.0" cy="423.4" r="2.36" fill="#bd6b20" opacity="0.29"/><circle cx="606.3" cy="425.6" r="3.98" fill="#bd6b20" opacity="0.24"/><circle cx="643.3" cy="427.0" r="3.47" fill="#bd6b20" opacity="0.26"/><circle cx="680.2" cy="426.3" r="3.46" fill="#bd6b20" opacity="0.30"/><circle cx="715.8" cy="425.6" r="2.85" fill="#bd6b20" opacity="0.31"/><circle cx="753.0" cy="424.5" r="3.55" fill="#bd6b20" opacity="0.34"/><circle cx="786.8" cy="424.3" r="3.52" fill="#bd6b20" opacity="0.20"/><circle cx="823.4" cy="427.8" r="2.40" fill="#bd6b20" opacity="0.18"/><circle cx="858.2" cy="427.0" r="3.33" fill="#bd6b20" opacity="0.27"/><circle cx="896.0" cy="427.3" r="3.72" fill="#bd6b20" opacity="0.35"/><circle cx="928.7" cy="427.7" r="3.39" fill="#bd6b20" opacity="0.31"/><circle cx="965.9" cy="424.0" r="3.80" fill="#bd6b20" opacity="0.21"/><circle cx="1004.4" cy="424.8" r="3.37" fill="#bd6b20" opacity="0.28"/><circle cx="1036.4" cy="423.7" r="3.37" fill="#bd6b20" opacity="0.31"/><circle cx="1076.8" cy="427.9" r="1.77" fill="#bd6b20" opacity="0.15"/><circle cx="1108.7" cy="428.0" r="2.25" fill="#bd6b20" opacity="0.28"/><circle cx="1145.2" cy="428.9" r="2.01" fill="#bd6b20" opacity="0.33"/><circle cx="1182.5" cy="423.6" r="3.75" fill="#bd6b20" opacity="0.35"/><circle cx="30.0" cy="460.9" r="3.55" fill="#bd6b20" opacity="0.19"/><circle cx="66.0" cy="459.9" r="3.49" fill="#bd6b20" opacity="0.32"/><circle cx="103.5" cy="461.6" r="2.73" fill="#bd6b20" opacity="0.19"/><circle cx="137.0" cy="461.9" r="1.86" fill="#bd6b20" opacity="0.20"/><circle cx="175.1" cy="461.7" r="2.07" fill="#bd6b20" opacity="0.22"/><circle cx="207.7" cy="464.2" r="3.85" fill="#bd6b20" opacity="0.23"/><circle cx="246.3" cy="463.0" r="1.74" fill="#bd6b20" opacity="0.30"/><circle cx="280.8" cy="462.3" r="3.47" fill="#bd6b20" opacity="0.26"/><circle cx="318.0" cy="460.4" r="2.94" fill="#bd6b20" opacity="0.16"/><circle cx="353.9" cy="463.6" r="3.01" fill="#bd6b20" opacity="0.22"/><circle cx="388.7" cy="461.2" r="2.38" fill="#bd6b20" opacity="0.19"/><circle cx="426.1" cy="461.5" r="3.61" fill="#bd6b20" opacity="0.18"/><circle cx="460.6" cy="464.0" r="3.25" fill="#bd6b20" opacity="0.24"/><circle cx="496.1" cy="459.6" r="2.23" fill="#bd6b20" opacity="0.22"/><circle cx="536.2" cy="460.8" r="2.15" fill="#bd6b20" opacity="0.19"/><circle cx="570.5" cy="464.4" r="3.40" fill="#bd6b20" opacity="0.19"/><circle cx="608.1" cy="460.8" r="2.41" fill="#bd6b20" opacity="0.17"/><circle cx="639.4" cy="464.5" r="1.97" fill="#bd6b20" opacity="0.31"/><circle cx="679.5" cy="461.2" r="3.50" fill="#bd6b20" opacity="0.25"/><circle cx="714.0" cy="459.1" r="2.09" fill="#bd6b20" opacity="0.32"/><circle cx="751.2" cy="461.6" r="3.53" fill="#bd6b20" opacity="0.24"/><circle cx="783.7" cy="462.4" r="1.97" fill="#bd6b20" opacity="0.23"/><circle cx="823.6" cy="461.1" r="2.66" fill="#bd6b20" opacity="0.31"/><circle cx="855.5" cy="463.8" r="1.64" fill="#bd6b20" opacity="0.19"/><circle cx="892.8" cy="460.1" r="2.84" fill="#bd6b20" opacity="0.23"/><circle cx="930.3" cy="462.7" r="2.88" fill="#bd6b20" opacity="0.27"/><circle cx="963.7" cy="464.9" r="3.03" fill="#bd6b20" opacity="0.31"/><circle cx="1003.6" cy="461.4" r="2.24" fill="#bd6b20" opacity="0.23"/><circle cx="1039.5" cy="459.7" r="1.68" fill="#bd6b20" opacity="0.15"/><circle cx="1075.0" cy="464.1" r="3.35" fill="#bd6b20" opacity="0.22"/><circle cx="1111.0" cy="459.1" r="2.53" fill="#bd6b20" opacity="0.17"/><circle cx="1145.4" cy="461.1" r="3.58" fill="#bd6b20" opacity="0.17"/><circle cx="1179.0" cy="462.7" r="3.85" fill="#bd6b20" opacity="0.36"/><circle cx="29.9" cy="497.9" r="2.40" fill="#bd6b20" opacity="0.31"/><circle cx="63.7" cy="495.0" r="3.03" fill="#bd6b20" opacity="0.35"/><circle cx="104.3" cy="495.6" r="3.84" fill="#bd6b20" opacity="0.22"/><circle cx="137.2" cy="495.9" r="3.99" fill="#bd6b20" opacity="0.27"/><circle cx="175.8" cy="497.3" r="3.63" fill="#bd6b20" opacity="0.26"/><circle cx="212.8" cy="496.7" r="2.04" fill="#bd6b20" opacity="0.15"/><circle cx="246.5" cy="497.6" r="3.36" fill="#bd6b20" opacity="0.20"/><circle cx="283.2" cy="497.6" r="2.37" fill="#bd6b20" opacity="0.33"/><circle cx="315.0" cy="495.6" r="3.11" fill="#bd6b20" opacity="0.28"/><circle cx="356.5" cy="499.1" r="1.86" fill="#bd6b20" opacity="0.24"/><circle cx="390.1" cy="498.2" r="1.66" fill="#bd6b20" opacity="0.25"/><circle cx="425.8" cy="500.6" r="3.61" fill="#bd6b20" opacity="0.35"/><circle cx="462.9" cy="496.0" r="1.80" fill="#bd6b20" opacity="0.28"/><circle cx="496.4" cy="498.4" r="2.46" fill="#bd6b20" opacity="0.15"/><circle cx="534.4" cy="495.7" r="2.76" fill="#bd6b20" opacity="0.33"/><circle cx="569.3" cy="496.7" r="2.18" fill="#bd6b20" opacity="0.27"/><circle cx="604.9" cy="497.8" r="2.05" fill="#bd6b20" opacity="0.35"/><circle cx="643.9" cy="497.1" r="3.86" fill="#bd6b20" opacity="0.26"/><circle cx="679.5" cy="498.8" r="1.87" fill="#bd6b20" opacity="0.17"/><circle cx="712.1" cy="496.8" r="2.04" fill="#bd6b20" opacity="0.18"/><circle cx="751.4" cy="497.5" r="4.00" fill="#bd6b20" opacity="0.35"/><circle cx="788.5" cy="497.2" r="3.79" fill="#bd6b20" opacity="0.33"/><circle cx="822.4" cy="496.6" r="2.65" fill="#bd6b20" opacity="0.25"/><circle cx="857.7" cy="500.6" r="3.97" fill="#bd6b20" opacity="0.35"/><circle cx="895.3" cy="497.4" r="2.03" fill="#bd6b20" opacity="0.27"/><circle cx="930.1" cy="496.2" r="3.94" fill="#bd6b20" opacity="0.23"/><circle cx="967.9" cy="498.2" r="2.35" fill="#bd6b20" opacity="0.21"/><circle cx="1002.2" cy="495.2" r="3.22" fill="#bd6b20" opacity="0.18"/><circle cx="1037.5" cy="498.1" r="3.96" fill="#bd6b20" opacity="0.32"/><circle cx="1076.3" cy="496.7" r="3.36" fill="#bd6b20" opacity="0.24"/><circle cx="1109.9" cy="499.5" r="2.65" fill="#bd6b20" opacity="0.30"/><circle cx="1146.7" cy="497.0" r="2.93" fill="#bd6b20" opacity="0.31"/><circle cx="1180.0" cy="496.8" r="2.72" fill="#bd6b20" opacity="0.16"/><circle cx="32.3" cy="533.3" r="2.48" fill="#bd6b20" opacity="0.34"/><circle cx="66.1" cy="533.6" r="3.36" fill="#bd6b20" opacity="0.28"/><circle cx="99.7" cy="532.7" r="3.31" fill="#bd6b20" opacity="0.24"/><circle cx="135.9" cy="532.9" r="2.34" fill="#bd6b20" opacity="0.15"/><circle cx="174.6" cy="534.3" r="3.52" fill="#bd6b20" opacity="0.21"/><circle cx="210.3" cy="533.4" r="2.09" fill="#bd6b20" opacity="0.26"/><circle cx="244.6" cy="536.5" r="3.44" fill="#bd6b20" opacity="0.31"/><circle cx="279.8" cy="535.4" r="1.80" fill="#bd6b20" opacity="0.21"/><circle cx="318.4" cy="533.1" r="2.82" fill="#bd6b20" opacity="0.22"/><circle cx="351.7" cy="535.3" r="2.69" fill="#bd6b20" opacity="0.29"/><circle cx="388.7" cy="534.4" r="3.59" fill="#bd6b20" opacity="0.32"/><circle cx="426.1" cy="534.1" r="2.82" fill="#bd6b20" opacity="0.20"/><circle cx="461.3" cy="533.1" r="3.89" fill="#bd6b20" opacity="0.17"/><circle cx="499.8" cy="531.1" r="3.72" fill="#bd6b20" opacity="0.30"/><circle cx="533.0" cy="534.4" r="3.83" fill="#bd6b20" opacity="0.19"/><circle cx="572.3" cy="533.4" r="3.08" fill="#bd6b20" opacity="0.32"/><circle cx="605.1" cy="536.9" r="2.36" fill="#bd6b20" opacity="0.20"/><circle cx="639.7" cy="535.7" r="2.29" fill="#bd6b20" opacity="0.19"/><circle cx="680.7" cy="534.3" r="1.84" fill="#bd6b20" opacity="0.31"/><circle cx="711.3" cy="535.8" r="1.90" fill="#bd6b20" opacity="0.28"/><circle cx="750.6" cy="535.9" r="1.98" fill="#bd6b20" opacity="0.19"/><circle cx="788.0" cy="536.3" r="3.33" fill="#bd6b20" opacity="0.26"/><circle cx="824.8" cy="536.6" r="3.57" fill="#bd6b20" opacity="0.26"/><circle cx="857.9" cy="531.6" r="2.48" fill="#bd6b20" opacity="0.19"/><circle cx="894.7" cy="533.5" r="3.17" fill="#bd6b20" opacity="0.25"/><circle cx="929.0" cy="532.0" r="2.38" fill="#bd6b20" opacity="0.23"/><circle cx="966.7" cy="534.2" r="3.79" fill="#bd6b20" opacity="0.32"/><circle cx="1004.9" cy="535.7" r="3.93" fill="#bd6b20" opacity="0.24"/><circle cx="1035.9" cy="535.0" r="3.11" fill="#bd6b20" opacity="0.29"/><circle cx="1075.8" cy="535.6" r="3.77" fill="#bd6b20" opacity="0.26"/><circle cx="1112.2" cy="534.2" r="1.64" fill="#bd6b20" opacity="0.23"/><circle cx="1145.7" cy="532.7" r="3.65" fill="#bd6b20" opacity="0.23"/><circle cx="1184.3" cy="536.5" r="3.04" fill="#bd6b20" opacity="0.31"/><circle cx="33.0" cy="572.9" r="2.43" fill="#bd6b20" opacity="0.30"/><circle cx="67.8" cy="572.0" r="2.54" fill="#bd6b20" opacity="0.28"/><circle cx="104.1" cy="568.8" r="2.25" fill="#bd6b20" opacity="0.30"/><circle cx="139.0" cy="572.5" r="2.75" fill="#bd6b20" opacity="0.26"/><circle cx="176.6" cy="572.6" r="2.78" fill="#bd6b20" opacity="0.30"/><circle cx="210.3" cy="571.0" r="1.82" fill="#bd6b20" opacity="0.22"/><circle cx="248.1" cy="569.1" r="2.23" fill="#bd6b20" opacity="0.18"/><circle cx="281.8" cy="569.2" r="3.33" fill="#bd6b20" opacity="0.21"/><circle cx="316.6" cy="570.3" r="2.56" fill="#bd6b20" opacity="0.20"/><circle cx="353.2" cy="572.0" r="3.64" fill="#bd6b20" opacity="0.15"/><circle cx="388.5" cy="568.6" r="3.55" fill="#bd6b20" opacity="0.28"/><circle cx="428.0" cy="567.8" r="3.95" fill="#bd6b20" opacity="0.32"/><circle cx="462.5" cy="570.2" r="1.94" fill="#bd6b20" opacity="0.20"/><circle cx="496.2" cy="570.0" r="2.56" fill="#bd6b20" opacity="0.17"/><circle cx="536.8" cy="567.7" r="3.68" fill="#bd6b20" opacity="0.17"/><circle cx="569.0" cy="572.3" r="3.10" fill="#bd6b20" opacity="0.23"/><circle cx="604.8" cy="570.6" r="3.88" fill="#bd6b20" opacity="0.23"/><circle cx="642.2" cy="572.1" r="1.65" fill="#bd6b20" opacity="0.17"/><circle cx="676.9" cy="569.2" r="2.65" fill="#bd6b20" opacity="0.20"/><circle cx="714.6" cy="572.2" r="1.92" fill="#bd6b20" opacity="0.29"/><circle cx="749.5" cy="572.1" r="3.68" fill="#bd6b20" opacity="0.26"/><circle cx="785.0" cy="571.6" r="3.18" fill="#bd6b20" opacity="0.34"/><circle cx="819.7" cy="570.4" r="1.95" fill="#bd6b20" opacity="0.29"/><circle cx="860.6" cy="567.8" r="1.79" fill="#bd6b20" opacity="0.21"/><circle cx="892.7" cy="570.0" r="1.89" fill="#bd6b20" opacity="0.36"/><circle cx="927.4" cy="572.6" r="2.82" fill="#bd6b20" opacity="0.17"/><circle cx="966.9" cy="572.5" r="2.40" fill="#bd6b20" opacity="0.16"/><circle cx="1003.1" cy="569.0" r="3.93" fill="#bd6b20" opacity="0.19"/><circle cx="1037.6" cy="570.2" r="1.87" fill="#bd6b20" opacity="0.26"/><circle cx="1076.6" cy="572.5" r="1.77" fill="#bd6b20" opacity="0.33"/><circle cx="1111.3" cy="570.5" r="3.59" fill="#bd6b20" opacity="0.23"/><circle cx="1148.6" cy="568.2" r="1.67" fill="#bd6b20" opacity="0.15"/><circle cx="1184.0" cy="567.4" r="3.30" fill="#bd6b20" opacity="0.18"/><circle cx="32.5" cy="604.9" r="2.04" fill="#bd6b20" opacity="0.15"/><circle cx="68.0" cy="608.1" r="3.33" fill="#bd6b20" opacity="0.33"/><circle cx="100.4" cy="607.2" r="3.65" fill="#bd6b20" opacity="0.20"/><circle cx="136.7" cy="607.8" r="3.90" fill="#bd6b20" opacity="0.16"/><circle cx="173.8" cy="608.1" r="2.23" fill="#bd6b20" opacity="0.35"/><circle cx="212.6" cy="605.7" r="3.28" fill="#bd6b20" opacity="0.18"/><circle cx="248.2" cy="607.9" r="1.97" fill="#bd6b20" opacity="0.26"/><circle cx="282.8" cy="607.4" r="1.69" fill="#bd6b20" opacity="0.21"/><circle cx="320.9" cy="607.2" r="2.09" fill="#bd6b20" opacity="0.23"/><circle cx="352.4" cy="606.0" r="3.83" fill="#bd6b20" opacity="0.31"/><circle cx="392.7" cy="608.0" r="3.82" fill="#bd6b20" opacity="0.31"/><circle cx="424.3" cy="604.5" r="2.28" fill="#bd6b20" opacity="0.22"/><circle cx="462.7" cy="606.2" r="2.53" fill="#bd6b20" opacity="0.32"/><circle cx="499.7" cy="606.3" r="2.91" fill="#bd6b20" opacity="0.29"/><circle cx="535.0" cy="604.1" r="3.11" fill="#bd6b20" opacity="0.33"/><circle cx="567.2" cy="604.4" r="3.52" fill="#bd6b20" opacity="0.16"/><circle cx="606.6" cy="605.4" r="2.14" fill="#bd6b20" opacity="0.35"/><circle cx="642.6" cy="607.6" r="1.73" fill="#bd6b20" opacity="0.22"/><circle cx="679.7" cy="604.2" r="2.82" fill="#bd6b20" opacity="0.34"/><circle cx="711.3" cy="606.4" r="3.21" fill="#bd6b20" opacity="0.36"/><circle cx="752.7" cy="605.2" r="3.25" fill="#bd6b20" opacity="0.30"/><circle cx="786.8" cy="608.0" r="3.54" fill="#bd6b20" opacity="0.22"/><circle cx="819.0" cy="608.9" r="2.15" fill="#bd6b20" opacity="0.31"/><circle cx="857.3" cy="606.2" r="2.23" fill="#bd6b20" opacity="0.27"/><circle cx="896.4" cy="606.0" r="2.63" fill="#bd6b20" opacity="0.34"/><circle cx="931.9" cy="606.3" r="2.73" fill="#bd6b20" opacity="0.33"/><circle cx="968.2" cy="605.6" r="2.62" fill="#bd6b20" opacity="0.35"/><circle cx="1004.4" cy="607.9" r="1.94" fill="#bd6b20" opacity="0.36"/><circle cx="1039.5" cy="609.0" r="3.67" fill="#bd6b20" opacity="0.30"/><circle cx="1072.5" cy="607.1" r="2.26" fill="#bd6b20" opacity="0.29"/><circle cx="1109.3" cy="607.5" r="3.93" fill="#bd6b20" opacity="0.35"/><circle cx="1148.6" cy="604.1" r="3.71" fill="#bd6b20" opacity="0.23"/><circle cx="1181.7" cy="608.5" r="3.52" fill="#bd6b20" opacity="0.23"/><circle cx="28.6" cy="641.8" r="3.07" fill="#bd6b20" opacity="0.29"/><circle cx="68.2" cy="644.9" r="3.28" fill="#bd6b20" opacity="0.23"/><circle cx="100.8" cy="640.8" r="3.26" fill="#bd6b20" opacity="0.25"/><circle cx="137.4" cy="642.3" r="3.56" fill="#bd6b20" opacity="0.33"/><circle cx="173.7" cy="639.9" r="3.21" fill="#bd6b20" opacity="0.30"/><circle cx="209.1" cy="645.0" r="1.95" fill="#bd6b20" opacity="0.16"/><circle cx="245.6" cy="641.2" r="2.02" fill="#bd6b20" opacity="0.20"/><circle cx="283.3" cy="639.9" r="2.87" fill="#bd6b20" opacity="0.24"/><circle cx="318.0" cy="640.6" r="2.48" fill="#bd6b20" opacity="0.29"/><circle cx="351.6" cy="643.9" r="1.96" fill="#bd6b20" opacity="0.25"/><circle cx="392.4" cy="644.4" r="3.54" fill="#bd6b20" opacity="0.26"/><circle cx="427.4" cy="644.1" r="2.58" fill="#bd6b20" opacity="0.35"/><circle cx="462.9" cy="641.7" r="2.90" fill="#bd6b20" opacity="0.15"/><circle cx="500.0" cy="643.7" r="2.39" fill="#bd6b20" opacity="0.21"/><circle cx="534.8" cy="642.4" r="2.31" fill="#bd6b20" opacity="0.23"/><circle cx="569.0" cy="643.8" r="3.14" fill="#bd6b20" opacity="0.17"/><circle cx="604.5" cy="643.4" r="2.90" fill="#bd6b20" opacity="0.34"/><circle cx="641.6" cy="643.2" r="3.84" fill="#bd6b20" opacity="0.27"/><circle cx="678.2" cy="640.4" r="1.76" fill="#bd6b20" opacity="0.16"/><circle cx="713.6" cy="642.7" r="1.66" fill="#bd6b20" opacity="0.17"/><circle cx="747.5" cy="643.5" r="2.58" fill="#bd6b20" opacity="0.23"/><circle cx="787.1" cy="641.8" r="3.80" fill="#bd6b20" opacity="0.36"/><circle cx="824.0" cy="639.2" r="2.16" fill="#bd6b20" opacity="0.31"/><circle cx="860.7" cy="644.1" r="1.88" fill="#bd6b20" opacity="0.35"/><circle cx="895.8" cy="641.7" r="3.35" fill="#bd6b20" opacity="0.35"/><circle cx="930.5" cy="641.1" r="3.15" fill="#bd6b20" opacity="0.31"/><circle cx="966.0" cy="639.2" r="2.31" fill="#bd6b20" opacity="0.25"/><circle cx="1002.8" cy="639.9" r="1.79" fill="#bd6b20" opacity="0.18"/><circle cx="1037.8" cy="640.5" r="3.61" fill="#bd6b20" opacity="0.20"/><circle cx="1076.5" cy="642.5" r="2.47" fill="#bd6b20" opacity="0.18"/><circle cx="1107.1" cy="642.4" r="2.93" fill="#bd6b20" opacity="0.32"/><circle cx="1143.4" cy="641.4" r="2.46" fill="#bd6b20" opacity="0.17"/><circle cx="1184.8" cy="643.7" r="1.99" fill="#bd6b20" opacity="0.30"/><circle cx="238.9" cy="245.4" r="220" fill="url(#glow)" opacity="0.9"/>
  <g opacity="0.85" transform="translate(1020, 495)">
        <circle r="68" fill="none" stroke="#bd6b20" stroke-width="2" opacity="0.35"/>
        <path d="M -38 12 L 38 12 M -32 -8 L 32 -8 M -45 -28 L 45 -28" stroke="#e09440" stroke-width="3" stroke-linecap="round"/>
        <rect x="-50" y="-44" width="100" height="80" fill="none" stroke="#bd6b20" stroke-width="2"/>
      </g>
  <g transform="translate(80, 90)">
    <rect x="0" y="0" rx="20" ry="20" width="112" height="38" fill="#bd6b20" opacity="0.18" stroke="#bd6b20" stroke-width="1.5"/>
    <text x="56" y="25" font-family="ui-sans-serif, Inter, sans-serif" font-weight="700" font-size="14" letter-spacing="2.5" fill="#bd6b20" text-anchor="middle">NEWSROOM</text>
  </g>
  <text x="80" y="465" font-family="ui-sans-serif, -apple-system, Segoe UI, Inter, sans-serif" font-weight="800" font-size="44" fill="#faf8f5" opacity="0.98"><tspan x="80" dy="0">Delhi HC: Exclusive</tspan><tspan x="80" dy="56">Jurisdiction Clause</tspan><tspan x="80" dy="56">Overrides Arbitral Seat</tspan></text>
  <rect x="0" y="669" width="1200" height="6" fill="url(#gold)"/>
</svg>