<?xml version="1.0" encoding="UTF-8"?>
<svg xmlns="http://www.w3.org/2000/svg" viewBox="0 0 1200 675" width="1200" height="675" role="img" aria-label="Delhi High Court Reinforces the Legal Authority of Arbitration Clauses in Loan Restructuring Agreements">
  <defs>
    <linearGradient id="bg" x1="0%" y1="0%" x2="100%" y2="100%">
      <stop offset="0%" stop-color="#643516"/>
      <stop offset="100%" stop-color="#7d4315"/>
    </linearGradient>
    <linearGradient id="gold" x1="0%" y1="0%" x2="100%" y2="100%">
      <stop offset="0%" stop-color="#ecb478"/>
      <stop offset="100%" stop-color="#faebd6"/>
    </linearGradient>
    <radialGradient id="glow" cx="50%" cy="50%" r="50%">
      <stop offset="0%" stop-color="#ecb478" stop-opacity="0.45"/>
      <stop offset="100%" stop-color="#ecb478" stop-opacity="0"/>
    </radialGradient>
  </defs>
  <rect width="1200" height="675" fill="url(#bg)"/>
  <circle cx="840.0" cy="135.0" r="240" fill="url(#glow)" opacity="0.8"/><polygon points="214.1,250.9 240.0,302.8 188.2,302.8" fill="#f4d2ac" opacity="0.30"/><polygon points="660.2,40.5 690.6,101.2 629.9,101.2" fill="#f4d2ac" opacity="0.26"/><rect x="262.7" y="-26.1" width="63.2" height="63.2" rx="4" transform="rotate(7.1 294.3 5.5)" fill="#ecb478" opacity="0.13"/><polygon points="710.8,464.0 726.3,495.0 695.3,495.0" fill="#f4d2ac" opacity="0.13"/><rect x="313.5" y="481.6" width="42.4" height="42.4" rx="4" transform="rotate(226.1 334.7 502.8)" fill="#ecb478" opacity="0.24"/><circle cx="712.7" cy="100.7" r="13.1" fill="#faebd6" opacity="0.21"/><circle cx="369.2" cy="17.6" r="23.5" fill="#faebd6" opacity="0.14"/><circle cx="970.9" cy="277.4" r="10.3" fill="#faebd6" opacity="0.13"/><circle cx="533.3" cy="142.0" r="20.8" fill="#faebd6" opacity="0.27"/><circle cx="836.9" cy="289.7" r="8.8" fill="#faebd6" opacity="0.13"/><rect x="941.5" y="328.9" width="23.4" height="23.4" rx="4" transform="rotate(169.4 953.2 340.6)" fill="#ecb478" opacity="0.28"/><polygon points="1102.1,543.9 1126.0,591.8 1078.1,591.8" fill="#f4d2ac" opacity="0.25"/><polygon points="560.8,154.8 576.0,185.2 545.7,185.2" fill="#f4d2ac" opacity="0.20"/><polygon points="1059.7,-9.3 1073.4,18.2 1046.0,18.2" fill="#f4d2ac" opacity="0.27"/><polygon points="725.1,426.4 750.2,476.6 700.0,476.6" fill="#f4d2ac" opacity="0.19"/><circle cx="285.2" cy="201.7" r="23.3" fill="#faebd6" opacity="0.19"/><polygon points="764.9,385.1 796.2,447.5 733.7,447.5" fill="#f4d2ac" opacity="0.21"/><polygon points="827.7,166.5 843.0,197.0 812.5,197.0" fill="#f4d2ac" opacity="0.18"/><rect x="16.3" y="263.4" width="22.8" height="22.8" rx="4" transform="rotate(344.9 27.7 274.8)" fill="#ecb478" opacity="0.21"/><circle cx="522.3" cy="159.9" r="21.3" fill="#faebd6" opacity="0.32"/><circle cx="184.4" cy="418.5" r="30.5" fill="#faebd6" opacity="0.30"/><circle cx="22.4" cy="325.0" r="11.3" fill="#faebd6" opacity="0.21"/>
  <g opacity="0.85" transform="translate(1020, 495)">
        <circle r="68" fill="none" stroke="#ecb478" stroke-width="2" opacity="0.35"/>
        <path d="M -38 12 L 38 12 M -32 -8 L 32 -8 M -45 -28 L 45 -28" stroke="#faebd6" stroke-width="3" stroke-linecap="round"/>
        <rect x="-50" y="-44" width="100" height="80" fill="none" stroke="#ecb478" stroke-width="2"/>
      </g>
  <g transform="translate(80, 90)">
    <rect x="0" y="0" rx="20" ry="20" width="112" height="38" fill="#ecb478" opacity="0.18" stroke="#ecb478" stroke-width="1.5"/>
    <text x="56" y="25" font-family="ui-sans-serif, Inter, sans-serif" font-weight="700" font-size="14" letter-spacing="2.5" fill="#ecb478" text-anchor="middle">NEWSROOM</text>
  </g>
  <text x="80" y="465" font-family="ui-sans-serif, -apple-system, Segoe UI, Inter, sans-serif" font-weight="800" font-size="44" fill="#faf8f5" opacity="0.98"><tspan x="80" dy="0">Delhi High Court</tspan><tspan x="80" dy="56">Reinforces the Legal</tspan><tspan x="80" dy="56">Authority of Arbitration</tspan></text>
  <rect x="0" y="669" width="1200" height="6" fill="url(#gold)"/>
</svg>