<?xml version="1.0" encoding="UTF-8"?>
<svg xmlns="http://www.w3.org/2000/svg" viewBox="0 0 1200 675" width="1200" height="675" role="img" aria-label="Delhi High Court: Non-Responsive Party Not Actively Negotiating, Refers Matter to Arbitration">
  <defs>
    <linearGradient id="bg" x1="0%" y1="0%" x2="100%" y2="100%">
      <stop offset="0%" stop-color="#faf8f5"/>
      <stop offset="100%" stop-color="#f4efe8"/>
    </linearGradient>
    <linearGradient id="gold" x1="0%" y1="0%" x2="100%" y2="100%">
      <stop offset="0%" stop-color="#bd6b20"/>
      <stop offset="100%" stop-color="#9a5518"/>
    </linearGradient>
    <radialGradient id="glow" cx="50%" cy="50%" r="50%">
      <stop offset="0%" stop-color="#bd6b20" stop-opacity="0.45"/>
      <stop offset="100%" stop-color="#bd6b20" stop-opacity="0"/>
    </radialGradient>
  </defs>
  <rect width="1200" height="675" fill="url(#bg)"/>
  <polygon points="265.7,285.7 290.9,129.4 413.8,229.4" fill="#9a5518" opacity="0.06"/><polygon points="379.4,171.5 310.7,242.1 222.3,198.7 236.3,101.2 333.4,84.4" fill="#9a5518" opacity="0.14"/><polygon points="543.5,651.2 381.2,724.8 261.1,593.2 349.1,438.3 523.7,474.1" fill="#9a5518" opacity="0.11"/><polygon points="90.1,628.0 301.0,571.4 244.6,782.4" fill="#9a5518" opacity="0.17"/><polygon points="257.4,384.9 443.9,317.3 565.9,473.8 454.7,638.2 264.0,583.2" fill="#9a5518" opacity="0.13"/><polygon points="1103.3,195.9 1060.3,120.7 1118.5,56.5 1197.5,92.1 1188.1,178.2" fill="#9a5518" opacity="0.07"/><polygon points="826.7,226.1 917.2,147.2 1020.1,208.9 993.3,325.9 873.8,336.5" fill="#9a5518" opacity="0.15"/><polygon points="886.9,340.2 925.8,543.0 723.1,581.9 684.1,379.2" fill="#9a5518" opacity="0.17"/><polygon points="1182.8,83.5 1265.0,261.9 1069.4,244.0" fill="#9a5518" opacity="0.05"/><polygon points="269.8,734.9 41.9,714.1 62.8,486.2 290.6,507.1" fill="#9a5518" opacity="0.17"/><polygon points="-115.7,306.2 102.1,136.1 140.6,409.8" fill="#9a5518" opacity="0.09"/><polygon points="106.3,481.2 17.2,294.0 223.9,310.4" fill="#9a5518" opacity="0.11"/><polygon points="467.8,-75.0 555.8,-30.6 540.8,66.8 443.5,82.7 398.3,-5.0" fill="#9a5518" opacity="0.09"/><polygon points="823.9,156.9 872.3,115.9 926.3,149.3 911.3,211.0 847.9,215.7" fill="#9a5518" opacity="0.10"/><circle cx="936.0" cy="202.5" r="180" fill="url(#glow)"/>
  <g opacity="0.85" transform="translate(1020, 495)">
        <circle r="68" fill="none" stroke="#bd6b20" stroke-width="2" opacity="0.35"/>
        <path d="M -38 12 L 38 12 M -32 -8 L 32 -8 M -45 -28 L 45 -28" stroke="#9a5518" stroke-width="3" stroke-linecap="round"/>
        <rect x="-50" y="-44" width="100" height="80" fill="none" stroke="#bd6b20" stroke-width="2"/>
      </g>
  <g transform="translate(80, 90)">
    <rect x="0" y="0" rx="20" ry="20" width="112" height="38" fill="#bd6b20" opacity="0.18" stroke="#bd6b20" stroke-width="1.5"/>
    <text x="56" y="25" font-family="ui-sans-serif, Inter, sans-serif" font-weight="700" font-size="14" letter-spacing="2.5" fill="#bd6b20" text-anchor="middle">NEWSROOM</text>
  </g>
  <text x="80" y="465" font-family="ui-sans-serif, -apple-system, Segoe UI, Inter, sans-serif" font-weight="800" font-size="44" fill="#12100e" opacity="0.98"><tspan x="80" dy="0">Delhi High Court:</tspan><tspan x="80" dy="56">Non-Responsive Party Not</tspan><tspan x="80" dy="56">Actively Negotiating,</tspan></text>
  <rect x="0" y="669" width="1200" height="6" fill="url(#gold)"/>
</svg>