<?xml version="1.0" encoding="UTF-8"?>
<svg xmlns="http://www.w3.org/2000/svg" viewBox="0 0 1200 675" width="1200" height="675" role="img" aria-label="Delhi High Court: Bias Issue and Arbitrator Challenge under Section 13">
  <defs>
    <linearGradient id="bg" x1="0%" y1="0%" x2="100%" y2="100%">
      <stop offset="0%" stop-color="#643516"/>
      <stop offset="100%" stop-color="#7d4315"/>
    </linearGradient>
    <linearGradient id="gold" x1="0%" y1="0%" x2="100%" y2="100%">
      <stop offset="0%" stop-color="#ecb478"/>
      <stop offset="100%" stop-color="#faebd6"/>
    </linearGradient>
    <radialGradient id="glow" cx="50%" cy="50%" r="50%">
      <stop offset="0%" stop-color="#ecb478" stop-opacity="0.45"/>
      <stop offset="100%" stop-color="#ecb478" stop-opacity="0"/>
    </radialGradient>
  </defs>
  <rect width="1200" height="675" fill="url(#bg)"/>
  <circle cx="840.0" cy="135.0" r="240" fill="url(#glow)" opacity="0.8"/><circle cx="248.3" cy="460.4" r="23.2" fill="#faebd6" opacity="0.27"/><rect x="625.1" y="113.0" width="37.0" height="37.0" rx="4" transform="rotate(258.5 643.5 131.5)" fill="#ecb478" opacity="0.13"/><rect x="1116.3" y="514.8" width="19.2" height="19.2" rx="4" transform="rotate(2.4 1125.9 524.4)" fill="#ecb478" opacity="0.18"/><polygon points="123.6,448.1 144.9,490.8 102.2,490.8" fill="#f4d2ac" opacity="0.31"/><rect x="826.4" y="487.7" width="15.2" height="15.2" rx="4" transform="rotate(283.9 834.0 495.3)" fill="#ecb478" opacity="0.19"/><circle cx="70.8" cy="27.8" r="12.6" fill="#faebd6" opacity="0.16"/><polygon points="773.0,-15.0 796.6,32.2 749.4,32.2" fill="#f4d2ac" opacity="0.21"/><rect x="736.0" y="174.2" width="15.4" height="15.4" rx="4" transform="rotate(71.4 743.7 182.0)" fill="#ecb478" opacity="0.11"/><polygon points="620.0,306.2 641.5,349.2 598.5,349.2" fill="#f4d2ac" opacity="0.34"/><circle cx="1179.6" cy="100.9" r="12.3" fill="#faebd6" opacity="0.28"/><polygon points="1160.3,98.9 1168.0,114.4 1152.5,114.4" fill="#f4d2ac" opacity="0.24"/><polygon points="393.5,17.2 402.6,35.4 384.4,35.4" fill="#f4d2ac" opacity="0.32"/><rect x="342.5" y="135.9" width="56.4" height="56.4" rx="4" transform="rotate(338.3 370.7 164.1)" fill="#ecb478" opacity="0.18"/><polygon points="1186.8,297.4 1201.0,325.9 1172.5,325.9" fill="#f4d2ac" opacity="0.18"/><circle cx="204.7" cy="35.3" r="31.7" fill="#faebd6" opacity="0.26"/><rect x="1119.0" y="175.7" width="63.4" height="63.4" rx="4" transform="rotate(337.2 1150.8 207.4)" fill="#ecb478" opacity="0.30"/><circle cx="922.6" cy="56.2" r="9.0" fill="#faebd6" opacity="0.30"/><circle cx="723.3" cy="159.1" r="13.5" fill="#faebd6" opacity="0.23"/><rect x="764.3" y="379.5" width="21.9" height="21.9" rx="4" transform="rotate(165.3 775.3 390.5)" fill="#ecb478" opacity="0.24"/><rect x="1021.4" y="318.7" width="35.4" height="35.4" rx="4" transform="rotate(230.8 1039.2 336.4)" fill="#ecb478" opacity="0.13"/><rect x="-1.5" y="493.0" width="29.9" height="29.9" rx="4" transform="rotate(118.9 13.5 507.9)" fill="#ecb478" opacity="0.25"/><polygon points="645.6,11.8 662.6,45.8 628.5,45.8" fill="#f4d2ac" opacity="0.29"/>
  <g opacity="0.85" transform="translate(1020, 495)">
        <circle r="68" fill="none" stroke="#ecb478" stroke-width="2" opacity="0.35"/>
        <path d="M -38 12 L 38 12 M -32 -8 L 32 -8 M -45 -28 L 45 -28" stroke="#faebd6" stroke-width="3" stroke-linecap="round"/>
        <rect x="-50" y="-44" width="100" height="80" fill="none" stroke="#ecb478" stroke-width="2"/>
      </g>
  <g transform="translate(80, 90)">
    <rect x="0" y="0" rx="20" ry="20" width="112" height="38" fill="#ecb478" opacity="0.18" stroke="#ecb478" stroke-width="1.5"/>
    <text x="56" y="25" font-family="ui-sans-serif, Inter, sans-serif" font-weight="700" font-size="14" letter-spacing="2.5" fill="#ecb478" text-anchor="middle">NEWSROOM</text>
  </g>
  <text x="80" y="465" font-family="ui-sans-serif, -apple-system, Segoe UI, Inter, sans-serif" font-weight="800" font-size="44" fill="#faf8f5" opacity="0.98"><tspan x="80" dy="0">Delhi High Court: Bias</tspan><tspan x="80" dy="56">Issue and Arbitrator</tspan><tspan x="80" dy="56">Challenge under Section 13</tspan></text>
  <rect x="0" y="669" width="1200" height="6" fill="url(#gold)"/>
</svg>