<?xml version="1.0" encoding="UTF-8"?>
<svg xmlns="http://www.w3.org/2000/svg" viewBox="0 0 1200 675" width="1200" height="675" role="img" aria-label="Delhi High Court: Arbitrator's Right to Manage Proceedings Upheld">
  <defs>
    <linearGradient id="bg" x1="0%" y1="0%" x2="100%" y2="100%">
      <stop offset="0%" stop-color="#643516"/>
      <stop offset="100%" stop-color="#7d4315"/>
    </linearGradient>
    <linearGradient id="gold" x1="0%" y1="0%" x2="100%" y2="100%">
      <stop offset="0%" stop-color="#ecb478"/>
      <stop offset="100%" stop-color="#faebd6"/>
    </linearGradient>
    <radialGradient id="glow" cx="50%" cy="50%" r="50%">
      <stop offset="0%" stop-color="#ecb478" stop-opacity="0.45"/>
      <stop offset="100%" stop-color="#ecb478" stop-opacity="0"/>
    </radialGradient>
  </defs>
  <rect width="1200" height="675" fill="url(#bg)"/>
  <polygon points="362.1,162.1 250.6,150.7 262.0,39.1 373.5,50.5" fill="#faebd6" opacity="0.07"/><polygon points="330.2,343.7 553.5,389.9 401.7,560.2" fill="#faebd6" opacity="0.07"/><polygon points="263.5,235.0 316.2,240.9 326.9,292.9 280.7,319.1 241.6,283.3" fill="#faebd6" opacity="0.10"/><polygon points="433.1,364.0 465.0,269.7 559.3,301.6 527.4,395.9" fill="#faebd6" opacity="0.08"/><polygon points="76.2,701.9 -39.3,661.1 1.5,545.6 117.0,586.4" fill="#faebd6" opacity="0.13"/><polygon points="247.5,442.0 305.8,216.3 531.4,274.6 473.1,500.3" fill="#faebd6" opacity="0.10"/><polygon points="193.5,347.5 175.7,416.6 124.7,366.7" fill="#faebd6" opacity="0.08"/><polygon points="160.3,251.2 149.8,369.5 52.6,301.2" fill="#faebd6" opacity="0.14"/><polygon points="1083.8,182.2 1083.7,256.7 1019.2,219.3" fill="#faebd6" opacity="0.16"/><polygon points="1252.5,16.9 1209.2,72.5 1143.0,48.5 1145.3,-21.8 1213.0,-41.4" fill="#faebd6" opacity="0.05"/><polygon points="265.5,644.0 228.9,707.7 157.0,692.6 149.2,619.6 216.2,589.5" fill="#faebd6" opacity="0.17"/><polygon points="864.6,687.5 745.3,688.6 744.2,569.3 863.5,568.2" fill="#faebd6" opacity="0.07"/><polygon points="404.8,479.5 452.0,600.6 323.5,581.0" fill="#faebd6" opacity="0.10"/><polygon points="584.6,431.1 467.4,593.9 385.1,411.0" fill="#faebd6" opacity="0.19"/><circle cx="936.0" cy="202.5" r="180" fill="url(#glow)"/>
  <g opacity="0.85" transform="translate(1020, 495)">
        <circle r="68" fill="none" stroke="#ecb478" stroke-width="2" opacity="0.35"/>
        <path d="M -38 12 L 38 12 M -32 -8 L 32 -8 M -45 -28 L 45 -28" stroke="#faebd6" stroke-width="3" stroke-linecap="round"/>
        <rect x="-50" y="-44" width="100" height="80" fill="none" stroke="#ecb478" stroke-width="2"/>
      </g>
  <g transform="translate(80, 90)">
    <rect x="0" y="0" rx="20" ry="20" width="112" height="38" fill="#ecb478" opacity="0.18" stroke="#ecb478" stroke-width="1.5"/>
    <text x="56" y="25" font-family="ui-sans-serif, Inter, sans-serif" font-weight="700" font-size="14" letter-spacing="2.5" fill="#ecb478" text-anchor="middle">NEWSROOM</text>
  </g>
  <text x="80" y="465" font-family="ui-sans-serif, -apple-system, Segoe UI, Inter, sans-serif" font-weight="800" font-size="44" fill="#faf8f5" opacity="0.98"><tspan x="80" dy="0">Delhi High Court:</tspan><tspan x="80" dy="56">Arbitrator's Right to</tspan><tspan x="80" dy="56">Manage Proceedings Upheld</tspan></text>
  <rect x="0" y="669" width="1200" height="6" fill="url(#gold)"/>
</svg>