<?xml version="1.0" encoding="UTF-8"?>
<svg xmlns="http://www.w3.org/2000/svg" viewBox="0 0 1200 675" width="1200" height="675" role="img" aria-label="Delhi High Court- Limitation Period for Substitute Arbitrator and Date of Recusal">
  <defs>
    <linearGradient id="bg" x1="0%" y1="0%" x2="100%" y2="100%">
      <stop offset="0%" stop-color="#faf8f5"/>
      <stop offset="100%" stop-color="#f4efe8"/>
    </linearGradient>
    <linearGradient id="gold" x1="0%" y1="0%" x2="100%" y2="100%">
      <stop offset="0%" stop-color="#bd6b20"/>
      <stop offset="100%" stop-color="#9a5518"/>
    </linearGradient>
    <radialGradient id="glow" cx="50%" cy="50%" r="50%">
      <stop offset="0%" stop-color="#bd6b20" stop-opacity="0.45"/>
      <stop offset="100%" stop-color="#bd6b20" stop-opacity="0"/>
    </radialGradient>
  </defs>
  <rect width="1200" height="675" fill="url(#bg)"/>
  <polygon points="744.5,780.7 694.4,573.8 898.6,633.8" fill="#9a5518" opacity="0.14"/><polygon points="928.6,405.4 1057.6,308.2 1189.9,400.8 1142.6,555.3 981.1,558.1" fill="#9a5518" opacity="0.13"/><polygon points="924.0,121.6 1051.2,138.2 1074.8,264.3 962.1,325.6 869.0,237.5" fill="#9a5518" opacity="0.18"/><polygon points="95.5,479.5 20.0,514.8 -36.9,453.9 3.4,380.9 85.3,396.7" fill="#9a5518" opacity="0.11"/><polygon points="1026.9,27.6 1161.7,98.7 1135.7,248.9 984.8,270.6 917.6,133.9" fill="#9a5518" opacity="0.09"/><polygon points="947.1,479.0 1018.0,316.8 1123.0,459.3" fill="#9a5518" opacity="0.10"/><polygon points="251.8,565.4 220.1,462.8 322.7,431.2 354.4,533.8" fill="#9a5518" opacity="0.16"/><polygon points="768.8,249.1 882.3,135.0 996.4,248.5 882.9,362.6" fill="#9a5518" opacity="0.06"/><polygon points="160.2,362.0 74.5,354.8 54.8,271.0 128.4,226.4 193.6,282.6" fill="#9a5518" opacity="0.15"/><polygon points="1125.4,62.2 1227.1,220.8 1107.7,366.5 932.2,298.0 943.1,109.9" fill="#9a5518" opacity="0.16"/><polygon points="1081.5,472.9 1187.3,653.9 1006.2,759.7 900.4,578.7" fill="#9a5518" opacity="0.11"/><polygon points="313.8,116.2 194.1,102.5 170.2,-15.7 275.1,-74.9 363.9,6.6" fill="#9a5518" opacity="0.16"/><polygon points="627.1,45.5 417.3,84.4 488.5,-116.7" fill="#9a5518" opacity="0.12"/><polygon points="898.6,276.5 1081.3,375.0 982.8,557.8 800.1,459.2" fill="#9a5518" opacity="0.07"/><circle cx="936.0" cy="202.5" r="180" fill="url(#glow)"/>
  <g opacity="0.85" transform="translate(1020, 495)">
        <circle r="68" fill="none" stroke="#bd6b20" stroke-width="2" opacity="0.35"/>
        <path d="M -38 12 L 38 12 M -32 -8 L 32 -8 M -45 -28 L 45 -28" stroke="#9a5518" stroke-width="3" stroke-linecap="round"/>
        <rect x="-50" y="-44" width="100" height="80" fill="none" stroke="#bd6b20" stroke-width="2"/>
      </g>
  <g transform="translate(80, 90)">
    <rect x="0" y="0" rx="20" ry="20" width="112" height="38" fill="#bd6b20" opacity="0.18" stroke="#bd6b20" stroke-width="1.5"/>
    <text x="56" y="25" font-family="ui-sans-serif, Inter, sans-serif" font-weight="700" font-size="14" letter-spacing="2.5" fill="#bd6b20" text-anchor="middle">NEWSROOM</text>
  </g>
  <text x="80" y="465" font-family="ui-sans-serif, -apple-system, Segoe UI, Inter, sans-serif" font-weight="800" font-size="44" fill="#12100e" opacity="0.98"><tspan x="80" dy="0">Delhi High Court-</tspan><tspan x="80" dy="56">Limitation Period for</tspan><tspan x="80" dy="56">Substitute Arbitrator and</tspan></text>
  <rect x="0" y="669" width="1200" height="6" fill="url(#gold)"/>
</svg>