<?xml version="1.0" encoding="UTF-8"?>
<svg xmlns="http://www.w3.org/2000/svg" viewBox="0 0 1200 675" width="1200" height="675" role="img" aria-label="Delhi HC Dismisses Bhadra International’s Arbitration Appeal">
  <defs>
    <linearGradient id="bg" x1="0%" y1="0%" x2="100%" y2="100%">
      <stop offset="0%" stop-color="#0c0a09"/>
      <stop offset="100%" stop-color="#291813"/>
    </linearGradient>
    <linearGradient id="gold" x1="0%" y1="0%" x2="100%" y2="100%">
      <stop offset="0%" stop-color="#d4862a"/>
      <stop offset="100%" stop-color="#bd6b20"/>
    </linearGradient>
    <radialGradient id="glow" cx="50%" cy="50%" r="50%">
      <stop offset="0%" stop-color="#d4862a" stop-opacity="0.45"/>
      <stop offset="100%" stop-color="#d4862a" stop-opacity="0"/>
    </radialGradient>
  </defs>
  <rect width="1200" height="675" fill="url(#bg)"/>
  <rect x="-689.3" y="-80" width="80.6" height="875" transform="rotate(18 -689.3 337.5)" fill="#d4862a" opacity="0.20"/><rect x="-488.2" y="-80" width="106.2" height="875" transform="rotate(18 -488.2 337.5)" fill="#d4862a" opacity="0.05"/><rect x="-304.6" y="-80" width="132.7" height="875" transform="rotate(18 -304.6 337.5)" fill="#d4862a" opacity="0.08"/><rect x="-132.6" y="-80" width="89.0" height="875" transform="rotate(18 -132.6 337.5)" fill="#d4862a" opacity="0.18"/><rect x="48.3" y="-80" width="91.7" height="875" transform="rotate(18 48.3 337.5)" fill="#d4862a" opacity="0.16"/><rect x="213.8" y="-80" width="119.8" height="875" transform="rotate(18 213.8 337.5)" fill="#d4862a" opacity="0.07"/><rect x="393.6" y="-80" width="86.6" height="875" transform="rotate(18 393.6 337.5)" fill="#d4862a" opacity="0.06"/><rect x="557.7" y="-80" width="71.8" height="875" transform="rotate(18 557.7 337.5)" fill="#d4862a" opacity="0.14"/><rect x="751.4" y="-80" width="123.3" height="875" transform="rotate(18 751.4 337.5)" fill="#d4862a" opacity="0.12"/><rect x="950.2" y="-80" width="128.7" height="875" transform="rotate(18 950.2 337.5)" fill="#d4862a" opacity="0.16"/><rect x="1146.2" y="-80" width="86.7" height="875" transform="rotate(18 1146.2 337.5)" fill="#d4862a" opacity="0.17"/><rect x="1291.0" y="-80" width="62.9" height="875" transform="rotate(18 1291.0 337.5)" fill="#d4862a" opacity="0.19"/><rect x="1453.6" y="-80" width="69.2" height="875" transform="rotate(18 1453.6 337.5)" fill="#d4862a" opacity="0.09"/><rect x="1678.7" y="-80" width="112.8" height="875" transform="rotate(18 1678.7 337.5)" fill="#d4862a" opacity="0.08"/><rect x="0" y="0" width="1200" height="675" fill="url(#glow)" opacity="0.6"/>
  <g opacity="0.85" transform="translate(1020, 495)">
        <circle r="68" fill="none" stroke="#d4862a" stroke-width="2" opacity="0.35"/>
        <path d="M -38 12 L 38 12 M -32 -8 L 32 -8 M -45 -28 L 45 -28" stroke="#bd6b20" stroke-width="3" stroke-linecap="round"/>
        <rect x="-50" y="-44" width="100" height="80" fill="none" stroke="#d4862a" stroke-width="2"/>
      </g>
  <g transform="translate(80, 90)">
    <rect x="0" y="0" rx="20" ry="20" width="112" height="38" fill="#d4862a" opacity="0.18" stroke="#d4862a" stroke-width="1.5"/>
    <text x="56" y="25" font-family="ui-sans-serif, Inter, sans-serif" font-weight="700" font-size="14" letter-spacing="2.5" fill="#d4862a" text-anchor="middle">NEWSROOM</text>
  </g>
  <text x="80" y="465" font-family="ui-sans-serif, -apple-system, Segoe UI, Inter, sans-serif" font-weight="800" font-size="44" fill="#faf8f5" opacity="0.98"><tspan x="80" dy="0">Delhi HC Dismisses Bhadra</tspan><tspan x="80" dy="56">International’s</tspan><tspan x="80" dy="56">Arbitration Appeal</tspan></text>
  <rect x="0" y="669" width="1200" height="6" fill="url(#gold)"/>
</svg>