<?xml version="1.0" encoding="UTF-8"?>
<svg xmlns="http://www.w3.org/2000/svg" viewBox="0 0 1200 675" width="1200" height="675" role="img" aria-label="PDR COURT software to transform Report Generation &amp; Analysis">
  <defs>
    <linearGradient id="bg" x1="0%" y1="0%" x2="100%" y2="100%">
      <stop offset="0%" stop-color="#12100e"/>
      <stop offset="100%" stop-color="#1c1917"/>
    </linearGradient>
    <linearGradient id="gold" x1="0%" y1="0%" x2="100%" y2="100%">
      <stop offset="0%" stop-color="#bd6b20"/>
      <stop offset="100%" stop-color="#e09440"/>
    </linearGradient>
    <radialGradient id="glow" cx="50%" cy="50%" r="50%">
      <stop offset="0%" stop-color="#bd6b20" stop-opacity="0.45"/>
      <stop offset="100%" stop-color="#bd6b20" stop-opacity="0"/>
    </radialGradient>
  </defs>
  <rect width="1200" height="675" fill="url(#bg)"/>
  <polygon points="-50,247.8 -20,241.1 10,235.2 40,230.0 70,225.7 100,222.4 130,220.1 160,219.0 190,219.1 220,220.2 250,222.5 280,225.9 310,230.3 340,235.5 370,241.5 400,248.2 430,255.4 460,262.8 490,270.5 520,278.1 550,285.6 580,292.7 610,299.3 640,305.2 670,310.3 700,314.6 730,317.8 760,320.0 790,321.0 820,320.9 850,319.7 880,317.3 910,313.9 940,309.5 970,304.2 1000,298.1 1030,291.5 1060,284.3 1090,276.8 1120,269.1 1150,261.5 1180,254.1 1210,247.0 1240,240.4 1250,725 -50,725" fill="#bd6b20" opacity="0.08"/><polygon points="-50,290.4 -20,289.4 10,289.6 40,291.0 70,293.7 100,297.5 130,302.3 160,308.0 190,314.6 220,321.8 250,329.6 280,337.6 310,345.8 340,354.0 370,361.9 400,369.5 430,376.5 460,382.7 490,388.1 520,392.5 550,395.8 580,397.9 610,398.9 640,398.6 670,397.1 700,394.4 730,390.5 760,385.6 790,379.8 820,373.2 850,366.0 880,358.2 910,350.1 940,341.9 970,333.8 1000,325.8 1030,318.3 1060,311.4 1090,305.2 1120,299.9 1150,295.5 1180,292.3 1210,290.2 1240,289.3 1250,725 -50,725" fill="#bd6b20" opacity="0.13"/><polygon points="-50,474.6 -20,477.1 10,478.0 40,477.4 70,475.3 100,471.7 130,466.7 160,460.4 190,452.9 220,444.5 250,435.3 280,425.4 310,415.3 340,404.9 370,394.7 400,384.8 430,375.4 460,366.8 490,359.2 520,352.6 550,347.3 580,343.5 610,341.1 640,340.2 670,340.9 700,343.1 730,346.7 760,351.8 790,358.2 820,365.7 850,374.2 880,383.5 910,393.3 940,403.5 970,413.9 1000,424.1 1030,434.0 1060,443.3 1090,451.9 1120,459.5 1150,465.9 1180,471.1 1210,474.9 1240,477.3 1250,725 -50,725" fill="#bd6b20" opacity="0.18"/><polygon points="-50,412.9 -20,415.3 10,418.9 40,423.5 70,429.1 100,435.5 130,442.6 160,450.2 190,458.2 220,466.4 250,474.6 280,482.6 310,490.3 340,497.4 370,503.8 400,509.3 430,513.9 460,517.4 490,519.8 520,521.0 550,521.0 580,519.7 610,517.2 640,513.6 670,508.9 700,503.3 730,496.8 760,489.7 790,482.0 820,474.0 850,465.8 880,457.6 910,449.6 940,442.0 970,434.9 1000,428.6 1030,423.1 1060,418.5 1090,415.1 1120,412.8 1150,411.6 1180,411.8 1210,413.1 1240,415.6 1250,725 -50,725" fill="#bd6b20" opacity="0.23"/><circle cx="300.0" cy="189.0" r="160" fill="url(#glow)"/>
  <g opacity="0.85" transform="translate(1020, 495)">
        <polygon points="0,-50 43,25 -43,25" fill="none" stroke="#bd6b20" stroke-width="2"/>
        <polygon points="0,-30 26,15 -26,15" fill="#e09440" opacity="0.4"/>
      </g>
  <g transform="translate(80, 90)">
    <rect x="0" y="0" rx="20" ry="20" width="145" height="38" fill="#bd6b20" opacity="0.18" stroke="#bd6b20" stroke-width="1.5"/>
    <text x="72.5" y="25" font-family="ui-sans-serif, Inter, sans-serif" font-weight="700" font-size="14" letter-spacing="2.5" fill="#bd6b20" text-anchor="middle">INFORMATION</text>
  </g>
  <text x="80" y="465" font-family="ui-sans-serif, -apple-system, Segoe UI, Inter, sans-serif" font-weight="800" font-size="44" fill="#faf8f5" opacity="0.98"><tspan x="80" dy="0">PDR COURT software to</tspan><tspan x="80" dy="56">transform Report</tspan><tspan x="80" dy="56">Generation &amp; Analysis</tspan></text>
  <rect x="0" y="669" width="1200" height="6" fill="url(#gold)"/>
</svg>