<?xml version="1.0" encoding="UTF-8"?>
<svg xmlns="http://www.w3.org/2000/svg" viewBox="0 0 1200 675" width="1200" height="675" role="img" aria-label="Resolving a Payment Dispute: A Case Study of Digital Marketing and Online Apparel Startup">
  <defs>
    <linearGradient id="bg" x1="0%" y1="0%" x2="100%" y2="100%">
      <stop offset="0%" stop-color="#643516"/>
      <stop offset="100%" stop-color="#7d4315"/>
    </linearGradient>
    <linearGradient id="gold" x1="0%" y1="0%" x2="100%" y2="100%">
      <stop offset="0%" stop-color="#ecb478"/>
      <stop offset="100%" stop-color="#faebd6"/>
    </linearGradient>
    <radialGradient id="glow" cx="50%" cy="50%" r="50%">
      <stop offset="0%" stop-color="#ecb478" stop-opacity="0.45"/>
      <stop offset="100%" stop-color="#ecb478" stop-opacity="0"/>
    </radialGradient>
  </defs>
  <rect width="1200" height="675" fill="url(#bg)"/>
  <circle cx="840.0" cy="135.0" r="240" fill="url(#glow)" opacity="0.8"/><polygon points="273.3,370.1 295.6,414.5 251.1,414.5" fill="#f4d2ac" opacity="0.18"/><polygon points="1154.5,230.0 1180.6,282.3 1128.3,282.3" fill="#f4d2ac" opacity="0.25"/><circle cx="237.0" cy="104.8" r="7.4" fill="#faebd6" opacity="0.34"/><circle cx="1054.1" cy="572.7" r="15.2" fill="#faebd6" opacity="0.15"/><rect x="1165.9" y="60.3" width="42.6" height="42.6" rx="4" transform="rotate(120.3 1187.2 81.6)" fill="#ecb478" opacity="0.11"/><rect x="1075.1" y="129.3" width="20.4" height="20.4" rx="4" transform="rotate(257.6 1085.3 139.5)" fill="#ecb478" opacity="0.18"/><rect x="704.6" y="391.7" width="25.2" height="25.2" rx="4" transform="rotate(178.6 717.2 404.2)" fill="#ecb478" opacity="0.22"/><circle cx="479.1" cy="295.8" r="22.5" fill="#faebd6" opacity="0.12"/><rect x="585.1" y="234.8" width="46.5" height="46.5" rx="4" transform="rotate(247.1 608.3 258.0)" fill="#ecb478" opacity="0.26"/><polygon points="1035.5,328.9 1054.5,366.9 1016.5,366.9" fill="#f4d2ac" opacity="0.32"/><circle cx="2.4" cy="138.1" r="29.1" fill="#faebd6" opacity="0.14"/><circle cx="908.4" cy="162.2" r="10.3" fill="#faebd6" opacity="0.14"/><circle cx="266.8" cy="453.7" r="30.2" fill="#faebd6" opacity="0.33"/><polygon points="720.6,374.9 752.4,438.4 688.9,438.4" fill="#f4d2ac" opacity="0.23"/><rect x="-14.0" y="19.3" width="53.1" height="53.1" rx="4" transform="rotate(11.3 12.5 45.9)" fill="#ecb478" opacity="0.30"/><rect x="696.8" y="359.4" width="26.8" height="26.8" rx="4" transform="rotate(300.4 710.2 372.8)" fill="#ecb478" opacity="0.21"/><circle cx="17.3" cy="158.0" r="29.1" fill="#faebd6" opacity="0.23"/><rect x="184.0" y="100.9" width="61.5" height="61.5" rx="4" transform="rotate(295.7 214.8 131.7)" fill="#ecb478" opacity="0.16"/><rect x="708.1" y="22.1" width="37.8" height="37.8" rx="4" transform="rotate(40.1 727.0 41.0)" fill="#ecb478" opacity="0.31"/><rect x="642.4" y="515.0" width="60.4" height="60.4" rx="4" transform="rotate(281.7 672.6 545.2)" fill="#ecb478" opacity="0.24"/><circle cx="736.9" cy="213.4" r="13.2" fill="#faebd6" opacity="0.18"/><circle cx="1096.5" cy="565.3" r="13.2" fill="#faebd6" opacity="0.35"/>
  <g opacity="0.85" transform="translate(1020, 495)">
        <circle r="60" fill="#ecb478" opacity="0.18"/>
        <path d="M -34 6 Q -10 -22 14 6 Q 34 24 14 26 L -22 26 Q -38 24 -34 6 Z" fill="none" stroke="#faebd6" stroke-width="3" stroke-linejoin="round"/>
      </g>
  <g transform="translate(80, 90)">
    <rect x="0" y="0" rx="20" ry="20" width="134" height="38" fill="#ecb478" opacity="0.18" stroke="#ecb478" stroke-width="1.5"/>
    <text x="67" y="25" font-family="ui-sans-serif, Inter, sans-serif" font-weight="700" font-size="14" letter-spacing="2.5" fill="#ecb478" text-anchor="middle">CASE STUDY</text>
  </g>
  <text x="80" y="465" font-family="ui-sans-serif, -apple-system, Segoe UI, Inter, sans-serif" font-weight="800" font-size="44" fill="#faf8f5" opacity="0.98"><tspan x="80" dy="0">Resolving a Payment</tspan><tspan x="80" dy="56">Dispute: A Case Study of</tspan><tspan x="80" dy="56">Digital Marketing and</tspan></text>
  <rect x="0" y="669" width="1200" height="6" fill="url(#gold)"/>
</svg>