<?xml version="1.0" encoding="UTF-8"?>
<svg xmlns="http://www.w3.org/2000/svg" viewBox="0 0 1200 675" width="1200" height="675" role="img" aria-label="Payment Dispute Case Study: Resolving Delays and Quality Issues Through Conciliation">
  <defs>
    <linearGradient id="bg" x1="0%" y1="0%" x2="100%" y2="100%">
      <stop offset="0%" stop-color="#faf8f5"/>
      <stop offset="100%" stop-color="#f4efe8"/>
    </linearGradient>
    <linearGradient id="gold" x1="0%" y1="0%" x2="100%" y2="100%">
      <stop offset="0%" stop-color="#bd6b20"/>
      <stop offset="100%" stop-color="#9a5518"/>
    </linearGradient>
    <radialGradient id="glow" cx="50%" cy="50%" r="50%">
      <stop offset="0%" stop-color="#bd6b20" stop-opacity="0.45"/>
      <stop offset="100%" stop-color="#bd6b20" stop-opacity="0"/>
    </radialGradient>
  </defs>
  <rect width="1200" height="675" fill="url(#bg)"/>
  <polygon points="-50,210.3 -20,203.9 10,199.0 40,196.0 70,194.7 100,195.4 130,197.8 160,202.0 190,208.0 220,215.4 250,224.3 280,234.3 310,245.3 340,257.0 370,269.2 400,281.5 430,293.8 460,305.6 490,316.9 520,327.2 550,336.4 580,344.3 610,350.6 640,355.4 670,358.3 700,359.5 730,358.7 760,356.2 790,351.9 820,345.9 850,338.3 880,329.4 910,319.3 940,308.2 970,296.5 1000,284.3 1030,272.0 1060,259.7 1090,247.9 1120,236.7 1150,226.4 1180,217.3 1210,209.5 1240,203.2 1250,725 -50,725" fill="#bd6b20" opacity="0.08"/><polygon points="-50,419.7 -20,419.8 10,418.5 40,416.0 70,412.2 100,407.3 130,401.4 160,394.5 190,387.0 220,378.8 250,370.3 280,361.5 310,352.8 340,344.2 370,336.0 400,328.4 430,321.6 460,315.6 490,310.7 520,306.9 550,304.3 580,303.0 610,303.0 640,304.3 670,306.9 700,310.8 730,315.7 760,321.7 790,328.6 820,336.2 850,344.4 880,353.0 910,361.7 940,370.5 970,379.0 1000,387.2 1030,394.7 1060,401.5 1090,407.5 1120,412.3 1150,416.1 1180,418.6 1210,419.8 1240,419.7 1250,725 -50,725" fill="#bd6b20" opacity="0.13"/><polygon points="-50,338.1 -20,338.5 10,340.4 40,343.7 70,348.3 100,354.2 130,361.2 160,369.2 190,377.9 220,387.3 250,397.0 280,406.8 310,416.7 340,426.2 370,435.2 400,443.5 430,451.0 460,457.3 490,462.5 520,466.4 550,468.8 580,469.9 610,469.4 640,467.4 670,464.1 700,459.4 730,453.4 760,446.3 790,438.3 820,429.5 850,420.2 880,410.4 910,400.6 940,390.8 970,381.3 1000,372.3 1030,364.0 1060,356.6 1090,350.3 1120,345.2 1150,341.4 1180,339.0 1210,338.1 1240,338.7 1250,725 -50,725" fill="#bd6b20" opacity="0.18"/><polygon points="-50,472.6 -20,461.2 10,450.6 40,440.9 70,432.4 100,425.3 130,419.6 160,415.7 190,413.5 220,413.0 250,414.4 280,417.5 310,422.3 340,428.8 370,436.6 400,445.8 430,456.0 460,467.0 490,478.7 520,490.6 550,502.6 580,514.4 610,525.7 640,536.3 670,546.0 700,554.4 730,561.5 760,567.0 790,570.9 820,573.0 850,573.3 880,571.9 910,568.6 940,563.7 970,557.2 1000,549.2 1030,540.0 1060,529.8 1090,518.7 1120,507.0 1150,495.1 1180,483.1 1210,471.3 1240,460.0 1250,725 -50,725" fill="#bd6b20" opacity="0.23"/><circle cx="300.0" cy="189.0" r="160" fill="url(#glow)"/>
  <g opacity="0.85" transform="translate(1020, 495)">
        <circle r="60" fill="#bd6b20" opacity="0.18"/>
        <path d="M -34 6 Q -10 -22 14 6 Q 34 24 14 26 L -22 26 Q -38 24 -34 6 Z" fill="none" stroke="#9a5518" stroke-width="3" stroke-linejoin="round"/>
      </g>
  <g transform="translate(80, 90)">
    <rect x="0" y="0" rx="20" ry="20" width="134" height="38" fill="#bd6b20" opacity="0.18" stroke="#bd6b20" stroke-width="1.5"/>
    <text x="67" y="25" font-family="ui-sans-serif, Inter, sans-serif" font-weight="700" font-size="14" letter-spacing="2.5" fill="#bd6b20" text-anchor="middle">CASE STUDY</text>
  </g>
  <text x="80" y="465" font-family="ui-sans-serif, -apple-system, Segoe UI, Inter, sans-serif" font-weight="800" font-size="44" fill="#12100e" opacity="0.98"><tspan x="80" dy="0">Payment Dispute Case</tspan><tspan x="80" dy="56">Study: Resolving Delays</tspan><tspan x="80" dy="56">and Quality Issues Through</tspan></text>
  <rect x="0" y="669" width="1200" height="6" fill="url(#gold)"/>
</svg>