<?xml version="1.0" encoding="UTF-8"?>
<svg xmlns="http://www.w3.org/2000/svg" viewBox="0 0 1200 675" width="1200" height="675" role="img" aria-label="Resolving a Nonpayment Dispute Through Conciliation: A Case Study">
  <defs>
    <linearGradient id="bg" x1="0%" y1="0%" x2="100%" y2="100%">
      <stop offset="0%" stop-color="#643516"/>
      <stop offset="100%" stop-color="#7d4315"/>
    </linearGradient>
    <linearGradient id="gold" x1="0%" y1="0%" x2="100%" y2="100%">
      <stop offset="0%" stop-color="#ecb478"/>
      <stop offset="100%" stop-color="#faebd6"/>
    </linearGradient>
    <radialGradient id="glow" cx="50%" cy="50%" r="50%">
      <stop offset="0%" stop-color="#ecb478" stop-opacity="0.45"/>
      <stop offset="100%" stop-color="#ecb478" stop-opacity="0"/>
    </radialGradient>
  </defs>
  <rect width="1200" height="675" fill="url(#bg)"/>
  <rect x="-649.0" y="-80" width="132.8" height="875" transform="rotate(18 -649.0 337.5)" fill="#ecb478" opacity="0.17"/><rect x="-483.2" y="-80" width="112.2" height="875" transform="rotate(18 -483.2 337.5)" fill="#ecb478" opacity="0.15"/><rect x="-353.5" y="-80" width="78.5" height="875" transform="rotate(18 -353.5 337.5)" fill="#ecb478" opacity="0.07"/><rect x="-103.6" y="-80" width="97.8" height="875" transform="rotate(18 -103.6 337.5)" fill="#ecb478" opacity="0.08"/><rect x="67.0" y="-80" width="119.5" height="875" transform="rotate(18 67.0 337.5)" fill="#ecb478" opacity="0.06"/><rect x="202.9" y="-80" width="99.5" height="875" transform="rotate(18 202.9 337.5)" fill="#ecb478" opacity="0.18"/><rect x="372.4" y="-80" width="125.6" height="875" transform="rotate(18 372.4 337.5)" fill="#ecb478" opacity="0.10"/><rect x="563.8" y="-80" width="120.3" height="875" transform="rotate(18 563.8 337.5)" fill="#ecb478" opacity="0.09"/><rect x="766.2" y="-80" width="123.7" height="875" transform="rotate(18 766.2 337.5)" fill="#ecb478" opacity="0.07"/><rect x="944.6" y="-80" width="128.3" height="875" transform="rotate(18 944.6 337.5)" fill="#ecb478" opacity="0.18"/><rect x="1116.0" y="-80" width="105.3" height="875" transform="rotate(18 1116.0 337.5)" fill="#ecb478" opacity="0.08"/><rect x="1268.1" y="-80" width="134.3" height="875" transform="rotate(18 1268.1 337.5)" fill="#ecb478" opacity="0.12"/><rect x="1483.2" y="-80" width="79.0" height="875" transform="rotate(18 1483.2 337.5)" fill="#ecb478" opacity="0.19"/><rect x="1656.9" y="-80" width="92.1" height="875" transform="rotate(18 1656.9 337.5)" fill="#ecb478" opacity="0.13"/><rect x="0" y="0" width="1200" height="675" fill="url(#glow)" opacity="0.6"/>
  <g opacity="0.85" transform="translate(1020, 495)">
        <circle r="60" fill="#ecb478" opacity="0.18"/>
        <path d="M -34 6 Q -10 -22 14 6 Q 34 24 14 26 L -22 26 Q -38 24 -34 6 Z" fill="none" stroke="#faebd6" stroke-width="3" stroke-linejoin="round"/>
      </g>
  <g transform="translate(80, 90)">
    <rect x="0" y="0" rx="20" ry="20" width="134" height="38" fill="#ecb478" opacity="0.18" stroke="#ecb478" stroke-width="1.5"/>
    <text x="67" y="25" font-family="ui-sans-serif, Inter, sans-serif" font-weight="700" font-size="14" letter-spacing="2.5" fill="#ecb478" text-anchor="middle">CASE STUDY</text>
  </g>
  <text x="80" y="465" font-family="ui-sans-serif, -apple-system, Segoe UI, Inter, sans-serif" font-weight="800" font-size="44" fill="#faf8f5" opacity="0.98"><tspan x="80" dy="0">Resolving a Nonpayment</tspan><tspan x="80" dy="56">Dispute Through</tspan><tspan x="80" dy="56">Conciliation: A Case Study</tspan></text>
  <rect x="0" y="669" width="1200" height="6" fill="url(#gold)"/>
</svg>