<?xml version="1.0" encoding="UTF-8"?>
<svg xmlns="http://www.w3.org/2000/svg" viewBox="0 0 1200 675" width="1200" height="675" role="img" aria-label="Digital Marketing Dispute Resolution: Settlement and Payment Agreement">
  <defs>
    <linearGradient id="bg" x1="0%" y1="0%" x2="100%" y2="100%">
      <stop offset="0%" stop-color="#532d15"/>
      <stop offset="100%" stop-color="#bd6b20"/>
    </linearGradient>
    <linearGradient id="gold" x1="0%" y1="0%" x2="100%" y2="100%">
      <stop offset="0%" stop-color="#e09440"/>
      <stop offset="100%" stop-color="#fdf6ee"/>
    </linearGradient>
    <radialGradient id="glow" cx="50%" cy="50%" r="50%">
      <stop offset="0%" stop-color="#e09440" stop-opacity="0.45"/>
      <stop offset="100%" stop-color="#e09440" stop-opacity="0"/>
    </radialGradient>
  </defs>
  <rect width="1200" height="675" fill="url(#bg)"/>
  <rect x="-695.5" y="-80" width="116.9" height="875" transform="rotate(18 -695.5 337.5)" fill="#e09440" opacity="0.12"/><rect x="-473.2" y="-80" width="108.9" height="875" transform="rotate(18 -473.2 337.5)" fill="#e09440" opacity="0.06"/><rect x="-329.6" y="-80" width="74.2" height="875" transform="rotate(18 -329.6 337.5)" fill="#e09440" opacity="0.19"/><rect x="-134.4" y="-80" width="129.2" height="875" transform="rotate(18 -134.4 337.5)" fill="#e09440" opacity="0.12"/><rect x="38.2" y="-80" width="102.3" height="875" transform="rotate(18 38.2 337.5)" fill="#e09440" opacity="0.16"/><rect x="211.6" y="-80" width="75.9" height="875" transform="rotate(18 211.6 337.5)" fill="#e09440" opacity="0.15"/><rect x="381.0" y="-80" width="114.4" height="875" transform="rotate(18 381.0 337.5)" fill="#e09440" opacity="0.15"/><rect x="557.4" y="-80" width="83.4" height="875" transform="rotate(18 557.4 337.5)" fill="#e09440" opacity="0.12"/><rect x="782.7" y="-80" width="112.9" height="875" transform="rotate(18 782.7 337.5)" fill="#e09440" opacity="0.19"/><rect x="961.7" y="-80" width="105.2" height="875" transform="rotate(18 961.7 337.5)" fill="#e09440" opacity="0.13"/><rect x="1117.4" y="-80" width="129.4" height="875" transform="rotate(18 1117.4 337.5)" fill="#e09440" opacity="0.07"/><rect x="1304.8" y="-80" width="129.8" height="875" transform="rotate(18 1304.8 337.5)" fill="#e09440" opacity="0.12"/><rect x="1443.7" y="-80" width="125.9" height="875" transform="rotate(18 1443.7 337.5)" fill="#e09440" opacity="0.15"/><rect x="1686.6" y="-80" width="67.0" height="875" transform="rotate(18 1686.6 337.5)" fill="#e09440" opacity="0.07"/><rect x="0" y="0" width="1200" height="675" fill="url(#glow)" opacity="0.6"/>
  <g opacity="0.85" transform="translate(1020, 495)">
        <circle r="60" fill="#e09440" opacity="0.18"/>
        <path d="M -34 6 Q -10 -22 14 6 Q 34 24 14 26 L -22 26 Q -38 24 -34 6 Z" fill="none" stroke="#fdf6ee" stroke-width="3" stroke-linejoin="round"/>
      </g>
  <g transform="translate(80, 90)">
    <rect x="0" y="0" rx="20" ry="20" width="134" height="38" fill="#e09440" opacity="0.18" stroke="#e09440" stroke-width="1.5"/>
    <text x="67" y="25" font-family="ui-sans-serif, Inter, sans-serif" font-weight="700" font-size="14" letter-spacing="2.5" fill="#e09440" text-anchor="middle">CASE STUDY</text>
  </g>
  <text x="80" y="465" font-family="ui-sans-serif, -apple-system, Segoe UI, Inter, sans-serif" font-weight="800" font-size="44" fill="#faf8f5" opacity="0.98"><tspan x="80" dy="0">Digital Marketing Dispute</tspan><tspan x="80" dy="56">Resolution: Settlement and</tspan><tspan x="80" dy="56">Payment Agreement</tspan></text>
  <rect x="0" y="669" width="1200" height="6" fill="url(#gold)"/>
</svg>