<?xml version="1.0" encoding="UTF-8"?>
<svg xmlns="http://www.w3.org/2000/svg" viewBox="0 0 1200 675" width="1200" height="675" role="img" aria-label="Resolving a Complex Financial Dispute in Bangalore: PDR COURT's Success Story">
  <defs>
    <linearGradient id="bg" x1="0%" y1="0%" x2="100%" y2="100%">
      <stop offset="0%" stop-color="#12100e"/>
      <stop offset="100%" stop-color="#1c1917"/>
    </linearGradient>
    <linearGradient id="gold" x1="0%" y1="0%" x2="100%" y2="100%">
      <stop offset="0%" stop-color="#bd6b20"/>
      <stop offset="100%" stop-color="#e09440"/>
    </linearGradient>
    <radialGradient id="glow" cx="50%" cy="50%" r="50%">
      <stop offset="0%" stop-color="#bd6b20" stop-opacity="0.45"/>
      <stop offset="100%" stop-color="#bd6b20" stop-opacity="0"/>
    </radialGradient>
  </defs>
  <rect width="1200" height="675" fill="url(#bg)"/>
  <rect x="-655.5" y="-80" width="66.2" height="875" transform="rotate(18 -655.5 337.5)" fill="#bd6b20" opacity="0.19"/><rect x="-462.8" y="-80" width="110.6" height="875" transform="rotate(18 -462.8 337.5)" fill="#bd6b20" opacity="0.12"/><rect x="-319.5" y="-80" width="115.7" height="875" transform="rotate(18 -319.5 337.5)" fill="#bd6b20" opacity="0.17"/><rect x="-161.0" y="-80" width="120.5" height="875" transform="rotate(18 -161.0 337.5)" fill="#bd6b20" opacity="0.12"/><rect x="3.2" y="-80" width="138.0" height="875" transform="rotate(18 3.2 337.5)" fill="#bd6b20" opacity="0.19"/><rect x="223.2" y="-80" width="123.8" height="875" transform="rotate(18 223.2 337.5)" fill="#bd6b20" opacity="0.14"/><rect x="424.3" y="-80" width="112.0" height="875" transform="rotate(18 424.3 337.5)" fill="#bd6b20" opacity="0.06"/><rect x="597.7" y="-80" width="121.7" height="875" transform="rotate(18 597.7 337.5)" fill="#bd6b20" opacity="0.09"/><rect x="749.5" y="-80" width="125.0" height="875" transform="rotate(18 749.5 337.5)" fill="#bd6b20" opacity="0.14"/><rect x="960.3" y="-80" width="119.2" height="875" transform="rotate(18 960.3 337.5)" fill="#bd6b20" opacity="0.07"/><rect x="1083.4" y="-80" width="116.4" height="875" transform="rotate(18 1083.4 337.5)" fill="#bd6b20" opacity="0.19"/><rect x="1318.0" y="-80" width="79.3" height="875" transform="rotate(18 1318.0 337.5)" fill="#bd6b20" opacity="0.09"/><rect x="1487.7" y="-80" width="79.1" height="875" transform="rotate(18 1487.7 337.5)" fill="#bd6b20" opacity="0.16"/><rect x="1673.1" y="-80" width="94.7" height="875" transform="rotate(18 1673.1 337.5)" fill="#bd6b20" opacity="0.19"/><rect x="0" y="0" width="1200" height="675" fill="url(#glow)" opacity="0.6"/>
  <g opacity="0.85" transform="translate(1020, 495)">
        <circle r="60" fill="#bd6b20" opacity="0.18"/>
        <path d="M -34 6 Q -10 -22 14 6 Q 34 24 14 26 L -22 26 Q -38 24 -34 6 Z" fill="none" stroke="#e09440" stroke-width="3" stroke-linejoin="round"/>
      </g>
  <g transform="translate(80, 90)">
    <rect x="0" y="0" rx="20" ry="20" width="134" height="38" fill="#bd6b20" opacity="0.18" stroke="#bd6b20" stroke-width="1.5"/>
    <text x="67" y="25" font-family="ui-sans-serif, Inter, sans-serif" font-weight="700" font-size="14" letter-spacing="2.5" fill="#bd6b20" text-anchor="middle">CASE STUDY</text>
  </g>
  <text x="80" y="465" font-family="ui-sans-serif, -apple-system, Segoe UI, Inter, sans-serif" font-weight="800" font-size="44" fill="#faf8f5" opacity="0.98"><tspan x="80" dy="0">Resolving a Complex</tspan><tspan x="80" dy="56">Financial Dispute in</tspan><tspan x="80" dy="56">Bangalore: PDR COURT's</tspan></text>
  <rect x="0" y="669" width="1200" height="6" fill="url(#gold)"/>
</svg>