<?xml version="1.0" encoding="UTF-8"?>
<svg xmlns="http://www.w3.org/2000/svg" viewBox="0 0 1200 675" width="1200" height="675" role="img" aria-label="Digital Loan Default Settled Ex-Parte in Rs. 6.99L Arbitration">
  <defs>
    <linearGradient id="bg" x1="0%" y1="0%" x2="100%" y2="100%">
      <stop offset="0%" stop-color="#532d15"/>
      <stop offset="100%" stop-color="#bd6b20"/>
    </linearGradient>
    <linearGradient id="gold" x1="0%" y1="0%" x2="100%" y2="100%">
      <stop offset="0%" stop-color="#e09440"/>
      <stop offset="100%" stop-color="#fdf6ee"/>
    </linearGradient>
    <radialGradient id="glow" cx="50%" cy="50%" r="50%">
      <stop offset="0%" stop-color="#e09440" stop-opacity="0.45"/>
      <stop offset="100%" stop-color="#e09440" stop-opacity="0"/>
    </radialGradient>
  </defs>
  <rect width="1200" height="675" fill="url(#bg)"/>
  <circle cx="840.0" cy="135.0" r="240" fill="url(#glow)" opacity="0.8"/><rect x="219.0" y="45.0" width="38.2" height="38.2" rx="4" transform="rotate(306.2 238.2 64.1)" fill="#e09440" opacity="0.16"/><circle cx="744.3" cy="168.1" r="24.8" fill="#fdf6ee" opacity="0.24"/><circle cx="1150.0" cy="191.6" r="16.4" fill="#fdf6ee" opacity="0.21"/><circle cx="1152.6" cy="222.3" r="24.6" fill="#fdf6ee" opacity="0.15"/><circle cx="533.6" cy="264.5" r="26.8" fill="#fdf6ee" opacity="0.26"/><circle cx="903.4" cy="149.1" r="18.9" fill="#fdf6ee" opacity="0.26"/><circle cx="727.2" cy="255.8" r="25.6" fill="#fdf6ee" opacity="0.27"/><rect x="376.7" y="50.8" width="19.9" height="19.9" rx="4" transform="rotate(262.8 386.6 60.8)" fill="#e09440" opacity="0.32"/><circle cx="550.0" cy="211.9" r="11.8" fill="#fdf6ee" opacity="0.26"/><circle cx="203.9" cy="105.4" r="10.1" fill="#fdf6ee" opacity="0.22"/><circle cx="108.9" cy="172.8" r="8.7" fill="#fdf6ee" opacity="0.32"/><circle cx="1109.5" cy="558.6" r="25.4" fill="#fdf6ee" opacity="0.14"/><rect x="14.7" y="547.2" width="39.1" height="39.1" rx="4" transform="rotate(95.4 34.3 566.8)" fill="#e09440" opacity="0.25"/><polygon points="349.6,388.3 371.2,431.7 327.9,431.7" fill="#f4d2ac" opacity="0.28"/><rect x="617.1" y="199.5" width="63.3" height="63.3" rx="4" transform="rotate(226.4 648.8 231.2)" fill="#e09440" opacity="0.14"/><rect x="476.2" y="77.5" width="62.6" height="62.6" rx="4" transform="rotate(325.9 507.5 108.8)" fill="#e09440" opacity="0.21"/><circle cx="996.2" cy="381.9" r="28.3" fill="#fdf6ee" opacity="0.32"/><rect x="1116.6" y="171.6" width="26.2" height="26.2" rx="4" transform="rotate(349.5 1129.7 184.7)" fill="#e09440" opacity="0.28"/><rect x="481.2" y="40.1" width="21.9" height="21.9" rx="4" transform="rotate(168.5 492.1 51.1)" fill="#e09440" opacity="0.11"/><rect x="519.8" y="347.5" width="54.9" height="54.9" rx="4" transform="rotate(347.1 547.3 375.0)" fill="#e09440" opacity="0.21"/><polygon points="43.0,243.2 64.9,286.8 21.2,286.8" fill="#f4d2ac" opacity="0.27"/><circle cx="0.3" cy="377.2" r="18.2" fill="#fdf6ee" opacity="0.27"/>
  <g opacity="0.85" transform="translate(1020, 495)">
        <circle r="60" fill="#e09440" opacity="0.18"/>
        <path d="M -34 6 Q -10 -22 14 6 Q 34 24 14 26 L -22 26 Q -38 24 -34 6 Z" fill="none" stroke="#fdf6ee" stroke-width="3" stroke-linejoin="round"/>
      </g>
  <g transform="translate(80, 90)">
    <rect x="0" y="0" rx="20" ry="20" width="134" height="38" fill="#e09440" opacity="0.18" stroke="#e09440" stroke-width="1.5"/>
    <text x="67" y="25" font-family="ui-sans-serif, Inter, sans-serif" font-weight="700" font-size="14" letter-spacing="2.5" fill="#e09440" text-anchor="middle">CASE STUDY</text>
  </g>
  <text x="80" y="465" font-family="ui-sans-serif, -apple-system, Segoe UI, Inter, sans-serif" font-weight="800" font-size="44" fill="#faf8f5" opacity="0.98"><tspan x="80" dy="0">Digital Loan Default</tspan><tspan x="80" dy="56">Settled Ex-Parte in Rs.</tspan><tspan x="80" dy="56">6.99L Arbitration</tspan></text>
  <rect x="0" y="669" width="1200" height="6" fill="url(#gold)"/>
</svg>