<?xml version="1.0" encoding="UTF-8"?>
<svg xmlns="http://www.w3.org/2000/svg" viewBox="0 0 1200 675" width="1200" height="675" role="img" aria-label="Resolving a Digital Marketing Dispute: A Case Study in Bangalore vs. Mumbai">
  <defs>
    <linearGradient id="bg" x1="0%" y1="0%" x2="100%" y2="100%">
      <stop offset="0%" stop-color="#0c0a09"/>
      <stop offset="100%" stop-color="#291813"/>
    </linearGradient>
    <linearGradient id="gold" x1="0%" y1="0%" x2="100%" y2="100%">
      <stop offset="0%" stop-color="#d4862a"/>
      <stop offset="100%" stop-color="#bd6b20"/>
    </linearGradient>
    <radialGradient id="glow" cx="50%" cy="50%" r="50%">
      <stop offset="0%" stop-color="#d4862a" stop-opacity="0.45"/>
      <stop offset="100%" stop-color="#d4862a" stop-opacity="0"/>
    </radialGradient>
  </defs>
  <rect width="1200" height="675" fill="url(#bg)"/>
  <rect x="-646.3" y="-80" width="87.3" height="875" transform="rotate(18 -646.3 337.5)" fill="#d4862a" opacity="0.17"/><rect x="-521.0" y="-80" width="103.8" height="875" transform="rotate(18 -521.0 337.5)" fill="#d4862a" opacity="0.10"/><rect x="-345.4" y="-80" width="112.5" height="875" transform="rotate(18 -345.4 337.5)" fill="#d4862a" opacity="0.09"/><rect x="-150.5" y="-80" width="77.3" height="875" transform="rotate(18 -150.5 337.5)" fill="#d4862a" opacity="0.19"/><rect x="79.0" y="-80" width="87.0" height="875" transform="rotate(18 79.0 337.5)" fill="#d4862a" opacity="0.19"/><rect x="212.8" y="-80" width="107.1" height="875" transform="rotate(18 212.8 337.5)" fill="#d4862a" opacity="0.16"/><rect x="409.4" y="-80" width="99.5" height="875" transform="rotate(18 409.4 337.5)" fill="#d4862a" opacity="0.14"/><rect x="542.4" y="-80" width="130.5" height="875" transform="rotate(18 542.4 337.5)" fill="#d4862a" opacity="0.17"/><rect x="754.6" y="-80" width="78.4" height="875" transform="rotate(18 754.6 337.5)" fill="#d4862a" opacity="0.10"/><rect x="969.2" y="-80" width="125.3" height="875" transform="rotate(18 969.2 337.5)" fill="#d4862a" opacity="0.20"/><rect x="1117.9" y="-80" width="90.3" height="875" transform="rotate(18 1117.9 337.5)" fill="#d4862a" opacity="0.06"/><rect x="1285.6" y="-80" width="110.0" height="875" transform="rotate(18 1285.6 337.5)" fill="#d4862a" opacity="0.15"/><rect x="1481.7" y="-80" width="107.6" height="875" transform="rotate(18 1481.7 337.5)" fill="#d4862a" opacity="0.14"/><rect x="1695.4" y="-80" width="132.5" height="875" transform="rotate(18 1695.4 337.5)" fill="#d4862a" opacity="0.13"/><rect x="0" y="0" width="1200" height="675" fill="url(#glow)" opacity="0.6"/>
  <g opacity="0.85" transform="translate(1020, 495)">
        <circle r="60" fill="#d4862a" opacity="0.18"/>
        <path d="M -34 6 Q -10 -22 14 6 Q 34 24 14 26 L -22 26 Q -38 24 -34 6 Z" fill="none" stroke="#bd6b20" stroke-width="3" stroke-linejoin="round"/>
      </g>
  <g transform="translate(80, 90)">
    <rect x="0" y="0" rx="20" ry="20" width="134" height="38" fill="#d4862a" opacity="0.18" stroke="#d4862a" stroke-width="1.5"/>
    <text x="67" y="25" font-family="ui-sans-serif, Inter, sans-serif" font-weight="700" font-size="14" letter-spacing="2.5" fill="#d4862a" text-anchor="middle">CASE STUDY</text>
  </g>
  <text x="80" y="465" font-family="ui-sans-serif, -apple-system, Segoe UI, Inter, sans-serif" font-weight="800" font-size="44" fill="#faf8f5" opacity="0.98"><tspan x="80" dy="0">Resolving a Digital</tspan><tspan x="80" dy="56">Marketing Dispute: A Case</tspan><tspan x="80" dy="56">Study in Bangalore vs.</tspan></text>
  <rect x="0" y="669" width="1200" height="6" fill="url(#gold)"/>
</svg>