<?xml version="1.0" encoding="UTF-8"?>
<svg xmlns="http://www.w3.org/2000/svg" viewBox="0 0 1200 675" width="1200" height="675" role="img" aria-label="Resolving a Dispute: Digital Marketing vs. Online Maid Service - A Case Study">
  <defs>
    <linearGradient id="bg" x1="0%" y1="0%" x2="100%" y2="100%">
      <stop offset="0%" stop-color="#643516"/>
      <stop offset="100%" stop-color="#7d4315"/>
    </linearGradient>
    <linearGradient id="gold" x1="0%" y1="0%" x2="100%" y2="100%">
      <stop offset="0%" stop-color="#ecb478"/>
      <stop offset="100%" stop-color="#faebd6"/>
    </linearGradient>
    <radialGradient id="glow" cx="50%" cy="50%" r="50%">
      <stop offset="0%" stop-color="#ecb478" stop-opacity="0.45"/>
      <stop offset="100%" stop-color="#ecb478" stop-opacity="0"/>
    </radialGradient>
  </defs>
  <rect width="1200" height="675" fill="url(#bg)"/>
  <rect x="-699.8" y="-80" width="68.4" height="875" transform="rotate(18 -699.8 337.5)" fill="#ecb478" opacity="0.14"/><rect x="-529.1" y="-80" width="135.4" height="875" transform="rotate(18 -529.1 337.5)" fill="#ecb478" opacity="0.18"/><rect x="-317.3" y="-80" width="104.2" height="875" transform="rotate(18 -317.3 337.5)" fill="#ecb478" opacity="0.09"/><rect x="-138.9" y="-80" width="107.8" height="875" transform="rotate(18 -138.9 337.5)" fill="#ecb478" opacity="0.17"/><rect x="12.1" y="-80" width="89.1" height="875" transform="rotate(18 12.1 337.5)" fill="#ecb478" opacity="0.09"/><rect x="211.5" y="-80" width="77.9" height="875" transform="rotate(18 211.5 337.5)" fill="#ecb478" opacity="0.19"/><rect x="387.3" y="-80" width="111.2" height="875" transform="rotate(18 387.3 337.5)" fill="#ecb478" opacity="0.17"/><rect x="590.3" y="-80" width="73.5" height="875" transform="rotate(18 590.3 337.5)" fill="#ecb478" opacity="0.19"/><rect x="769.0" y="-80" width="77.5" height="875" transform="rotate(18 769.0 337.5)" fill="#ecb478" opacity="0.05"/><rect x="976.4" y="-80" width="77.5" height="875" transform="rotate(18 976.4 337.5)" fill="#ecb478" opacity="0.17"/><rect x="1147.9" y="-80" width="105.0" height="875" transform="rotate(18 1147.9 337.5)" fill="#ecb478" opacity="0.15"/><rect x="1306.9" y="-80" width="128.0" height="875" transform="rotate(18 1306.9 337.5)" fill="#ecb478" opacity="0.18"/><rect x="1492.5" y="-80" width="105.0" height="875" transform="rotate(18 1492.5 337.5)" fill="#ecb478" opacity="0.14"/><rect x="1693.0" y="-80" width="111.1" height="875" transform="rotate(18 1693.0 337.5)" fill="#ecb478" opacity="0.06"/><rect x="0" y="0" width="1200" height="675" fill="url(#glow)" opacity="0.6"/>
  <g opacity="0.85" transform="translate(1020, 495)">
        <circle r="60" fill="#ecb478" opacity="0.18"/>
        <path d="M -34 6 Q -10 -22 14 6 Q 34 24 14 26 L -22 26 Q -38 24 -34 6 Z" fill="none" stroke="#faebd6" stroke-width="3" stroke-linejoin="round"/>
      </g>
  <g transform="translate(80, 90)">
    <rect x="0" y="0" rx="20" ry="20" width="134" height="38" fill="#ecb478" opacity="0.18" stroke="#ecb478" stroke-width="1.5"/>
    <text x="67" y="25" font-family="ui-sans-serif, Inter, sans-serif" font-weight="700" font-size="14" letter-spacing="2.5" fill="#ecb478" text-anchor="middle">CASE STUDY</text>
  </g>
  <text x="80" y="465" font-family="ui-sans-serif, -apple-system, Segoe UI, Inter, sans-serif" font-weight="800" font-size="44" fill="#faf8f5" opacity="0.98"><tspan x="80" dy="0">Resolving a Dispute:</tspan><tspan x="80" dy="56">Digital Marketing vs.</tspan><tspan x="80" dy="56">Online Maid Service - A</tspan></text>
  <rect x="0" y="669" width="1200" height="6" fill="url(#gold)"/>
</svg>