<?xml version="1.0" encoding="UTF-8"?>
<svg xmlns="http://www.w3.org/2000/svg" viewBox="0 0 1200 675" width="1200" height="675" role="img" aria-label="Resolving a Commercial Dispute: Exporter vs. Cycle Store Owner in Kolkata">
  <defs>
    <linearGradient id="bg" x1="0%" y1="0%" x2="100%" y2="100%">
      <stop offset="0%" stop-color="#12100e"/>
      <stop offset="100%" stop-color="#1c1917"/>
    </linearGradient>
    <linearGradient id="gold" x1="0%" y1="0%" x2="100%" y2="100%">
      <stop offset="0%" stop-color="#bd6b20"/>
      <stop offset="100%" stop-color="#e09440"/>
    </linearGradient>
    <radialGradient id="glow" cx="50%" cy="50%" r="50%">
      <stop offset="0%" stop-color="#bd6b20" stop-opacity="0.45"/>
      <stop offset="100%" stop-color="#bd6b20" stop-opacity="0"/>
    </radialGradient>
  </defs>
  <rect width="1200" height="675" fill="url(#bg)"/>
  <rect x="-672.9" y="-80" width="84.6" height="875" transform="rotate(18 -672.9 337.5)" fill="#bd6b20" opacity="0.18"/><rect x="-518.5" y="-80" width="78.0" height="875" transform="rotate(18 -518.5 337.5)" fill="#bd6b20" opacity="0.17"/><rect x="-311.8" y="-80" width="133.5" height="875" transform="rotate(18 -311.8 337.5)" fill="#bd6b20" opacity="0.17"/><rect x="-123.9" y="-80" width="98.7" height="875" transform="rotate(18 -123.9 337.5)" fill="#bd6b20" opacity="0.08"/><rect x="26.8" y="-80" width="61.2" height="875" transform="rotate(18 26.8 337.5)" fill="#bd6b20" opacity="0.15"/><rect x="225.7" y="-80" width="94.8" height="875" transform="rotate(18 225.7 337.5)" fill="#bd6b20" opacity="0.10"/><rect x="405.5" y="-80" width="118.4" height="875" transform="rotate(18 405.5 337.5)" fill="#bd6b20" opacity="0.14"/><rect x="588.4" y="-80" width="92.3" height="875" transform="rotate(18 588.4 337.5)" fill="#bd6b20" opacity="0.19"/><rect x="768.6" y="-80" width="126.3" height="875" transform="rotate(18 768.6 337.5)" fill="#bd6b20" opacity="0.16"/><rect x="976.1" y="-80" width="74.5" height="875" transform="rotate(18 976.1 337.5)" fill="#bd6b20" opacity="0.10"/><rect x="1112.4" y="-80" width="105.8" height="875" transform="rotate(18 1112.4 337.5)" fill="#bd6b20" opacity="0.11"/><rect x="1281.2" y="-80" width="83.7" height="875" transform="rotate(18 1281.2 337.5)" fill="#bd6b20" opacity="0.17"/><rect x="1468.5" y="-80" width="73.9" height="875" transform="rotate(18 1468.5 337.5)" fill="#bd6b20" opacity="0.19"/><rect x="1647.5" y="-80" width="63.5" height="875" transform="rotate(18 1647.5 337.5)" fill="#bd6b20" opacity="0.19"/><rect x="0" y="0" width="1200" height="675" fill="url(#glow)" opacity="0.6"/>
  <g opacity="0.85" transform="translate(1020, 495)">
        <circle r="60" fill="#bd6b20" opacity="0.18"/>
        <path d="M -34 6 Q -10 -22 14 6 Q 34 24 14 26 L -22 26 Q -38 24 -34 6 Z" fill="none" stroke="#e09440" stroke-width="3" stroke-linejoin="round"/>
      </g>
  <g transform="translate(80, 90)">
    <rect x="0" y="0" rx="20" ry="20" width="134" height="38" fill="#bd6b20" opacity="0.18" stroke="#bd6b20" stroke-width="1.5"/>
    <text x="67" y="25" font-family="ui-sans-serif, Inter, sans-serif" font-weight="700" font-size="14" letter-spacing="2.5" fill="#bd6b20" text-anchor="middle">CASE STUDY</text>
  </g>
  <text x="80" y="465" font-family="ui-sans-serif, -apple-system, Segoe UI, Inter, sans-serif" font-weight="800" font-size="44" fill="#faf8f5" opacity="0.98"><tspan x="80" dy="0">Resolving a Commercial</tspan><tspan x="80" dy="56">Dispute: Exporter vs.</tspan><tspan x="80" dy="56">Cycle Store Owner in</tspan></text>
  <rect x="0" y="669" width="1200" height="6" fill="url(#gold)"/>
</svg>