<?xml version="1.0" encoding="UTF-8"?>
<svg xmlns="http://www.w3.org/2000/svg" viewBox="0 0 1200 675" width="1200" height="675" role="img" aria-label="Resolving a Digital Marketing Dispute: PDR COURT's Swift Intervention and Settlement Agreement">
  <defs>
    <linearGradient id="bg" x1="0%" y1="0%" x2="100%" y2="100%">
      <stop offset="0%" stop-color="#faf8f5"/>
      <stop offset="100%" stop-color="#f4efe8"/>
    </linearGradient>
    <linearGradient id="gold" x1="0%" y1="0%" x2="100%" y2="100%">
      <stop offset="0%" stop-color="#bd6b20"/>
      <stop offset="100%" stop-color="#9a5518"/>
    </linearGradient>
    <radialGradient id="glow" cx="50%" cy="50%" r="50%">
      <stop offset="0%" stop-color="#bd6b20" stop-opacity="0.45"/>
      <stop offset="100%" stop-color="#bd6b20" stop-opacity="0"/>
    </radialGradient>
  </defs>
  <rect width="1200" height="675" fill="url(#bg)"/>
  <circle cx="840.0" cy="135.0" r="240" fill="url(#glow)" opacity="0.8"/><circle cx="339.8" cy="218.0" r="28.1" fill="#9a5518" opacity="0.32"/><circle cx="122.0" cy="28.1" r="8.4" fill="#9a5518" opacity="0.19"/><polygon points="975.6,456.3 1002.7,510.4 948.5,510.4" fill="#ecb478" opacity="0.13"/><polygon points="1027.9,436.0 1050.3,480.8 1005.5,480.8" fill="#ecb478" opacity="0.24"/><polygon points="1041.6,397.0 1069.5,452.9 1013.7,452.9" fill="#ecb478" opacity="0.14"/><rect x="450.0" y="278.5" width="21.2" height="21.2" rx="4" transform="rotate(15.4 460.6 289.1)" fill="#bd6b20" opacity="0.23"/><circle cx="961.4" cy="53.1" r="26.4" fill="#9a5518" opacity="0.26"/><polygon points="432.6,41.3 451.8,79.6 413.5,79.6" fill="#ecb478" opacity="0.20"/><circle cx="913.0" cy="103.0" r="16.9" fill="#9a5518" opacity="0.23"/><polygon points="674.3,366.4 700.2,418.3 648.3,418.3" fill="#ecb478" opacity="0.34"/><circle cx="155.6" cy="289.0" r="24.2" fill="#9a5518" opacity="0.30"/><circle cx="259.5" cy="438.4" r="21.5" fill="#9a5518" opacity="0.16"/><rect x="112.5" y="369.9" width="23.4" height="23.4" rx="4" transform="rotate(291.3 124.2 381.6)" fill="#bd6b20" opacity="0.30"/><rect x="794.1" y="21.7" width="21.2" height="21.2" rx="4" transform="rotate(53.9 804.8 32.4)" fill="#bd6b20" opacity="0.35"/><circle cx="436.8" cy="180.6" r="22.6" fill="#9a5518" opacity="0.15"/><circle cx="309.1" cy="231.7" r="19.3" fill="#9a5518" opacity="0.13"/><circle cx="775.2" cy="54.8" r="11.1" fill="#9a5518" opacity="0.22"/><polygon points="1171.4,466.2 1195.1,513.5 1147.8,513.5" fill="#ecb478" opacity="0.19"/><polygon points="50.2,354.1 73.3,400.4 27.1,400.4" fill="#ecb478" opacity="0.30"/><circle cx="250.1" cy="89.5" r="23.7" fill="#9a5518" opacity="0.22"/><circle cx="478.5" cy="179.5" r="21.3" fill="#9a5518" opacity="0.30"/><polygon points="721.7,299.4 742.4,340.8 701.0,340.8" fill="#ecb478" opacity="0.24"/>
  <g opacity="0.85" transform="translate(1020, 495)">
        <circle r="60" fill="#bd6b20" opacity="0.18"/>
        <path d="M -34 6 Q -10 -22 14 6 Q 34 24 14 26 L -22 26 Q -38 24 -34 6 Z" fill="none" stroke="#9a5518" stroke-width="3" stroke-linejoin="round"/>
      </g>
  <g transform="translate(80, 90)">
    <rect x="0" y="0" rx="20" ry="20" width="134" height="38" fill="#bd6b20" opacity="0.18" stroke="#bd6b20" stroke-width="1.5"/>
    <text x="67" y="25" font-family="ui-sans-serif, Inter, sans-serif" font-weight="700" font-size="14" letter-spacing="2.5" fill="#bd6b20" text-anchor="middle">CASE STUDY</text>
  </g>
  <text x="80" y="465" font-family="ui-sans-serif, -apple-system, Segoe UI, Inter, sans-serif" font-weight="800" font-size="44" fill="#12100e" opacity="0.98"><tspan x="80" dy="0">Resolving a Digital</tspan><tspan x="80" dy="56">Marketing Dispute: PDR</tspan><tspan x="80" dy="56">COURT's Swift Intervention</tspan></text>
  <rect x="0" y="669" width="1200" height="6" fill="url(#gold)"/>
</svg>