<?xml version="1.0" encoding="UTF-8"?>
<svg xmlns="http://www.w3.org/2000/svg" viewBox="0 0 1200 675" width="1200" height="675" role="img" aria-label="Disclaimers: PDR COURT will not be held responsible for damages">
  <defs>
    <linearGradient id="bg" x1="0%" y1="0%" x2="100%" y2="100%">
      <stop offset="0%" stop-color="#0c0a09"/>
      <stop offset="100%" stop-color="#291813"/>
    </linearGradient>
    <linearGradient id="gold" x1="0%" y1="0%" x2="100%" y2="100%">
      <stop offset="0%" stop-color="#d4862a"/>
      <stop offset="100%" stop-color="#bd6b20"/>
    </linearGradient>
    <radialGradient id="glow" cx="50%" cy="50%" r="50%">
      <stop offset="0%" stop-color="#d4862a" stop-opacity="0.45"/>
      <stop offset="100%" stop-color="#d4862a" stop-opacity="0"/>
    </radialGradient>
  </defs>
  <rect width="1200" height="675" fill="url(#bg)"/>
  <polygon points="1326.7,335.8 1198.1,474.1 1059.8,345.5 1188.4,207.2" fill="#bd6b20" opacity="0.13"/><polygon points="897.3,289.6 844.9,384.7 749.8,332.3 802.2,237.2" fill="#bd6b20" opacity="0.18"/><polygon points="593.6,123.5 706.6,37.9 792.2,150.9 679.2,236.5" fill="#bd6b20" opacity="0.08"/><polygon points="243.3,735.8 107.2,576.1 267.0,440.0 403.1,599.7" fill="#bd6b20" opacity="0.18"/><polygon points="50.0,589.1 120.5,390.0 257.7,550.6" fill="#bd6b20" opacity="0.13"/><polygon points="363.5,586.7 429.6,507.0 465.6,604.1" fill="#bd6b20" opacity="0.15"/><polygon points="-109.8,389.7 103.3,231.2 133.9,495.0" fill="#bd6b20" opacity="0.12"/><polygon points="361.4,728.9 337.6,628.3 436.7,658.0" fill="#bd6b20" opacity="0.09"/><polygon points="939.9,735.5 836.8,687.2 850.9,574.3 962.7,552.7 1017.7,652.4" fill="#bd6b20" opacity="0.15"/><polygon points="903.8,703.3 758.2,680.7 850.6,565.9" fill="#bd6b20" opacity="0.05"/><polygon points="1213.1,218.9 1287.4,343.5 1162.7,417.8 1088.4,293.2" fill="#bd6b20" opacity="0.16"/><polygon points="933.4,484.7 962.2,372.9 1074.0,401.8 1045.1,513.6" fill="#bd6b20" opacity="0.15"/><polygon points="894.8,481.7 1029.5,462.9 978.4,588.9" fill="#bd6b20" opacity="0.11"/><polygon points="165.7,428.9 161.5,501.2 89.2,497.0 93.4,424.7" fill="#bd6b20" opacity="0.11"/><circle cx="936.0" cy="202.5" r="180" fill="url(#glow)"/>
  <g opacity="0.85" transform="translate(1020, 495)">
        <polygon points="0,-50 43,25 -43,25" fill="none" stroke="#d4862a" stroke-width="2"/>
        <polygon points="0,-30 26,15 -26,15" fill="#bd6b20" opacity="0.4"/>
      </g>
  <g transform="translate(80, 90)">
    <rect x="0" y="0" rx="20" ry="20" width="145" height="38" fill="#d4862a" opacity="0.18" stroke="#d4862a" stroke-width="1.5"/>
    <text x="72.5" y="25" font-family="ui-sans-serif, Inter, sans-serif" font-weight="700" font-size="14" letter-spacing="2.5" fill="#d4862a" text-anchor="middle">INFORMATION</text>
  </g>
  <text x="80" y="465" font-family="ui-sans-serif, -apple-system, Segoe UI, Inter, sans-serif" font-weight="800" font-size="44" fill="#faf8f5" opacity="0.98"><tspan x="80" dy="0">Disclaimers: PDR COURT</tspan><tspan x="80" dy="56">will not be held</tspan><tspan x="80" dy="56">responsible for damages</tspan></text>
  <rect x="0" y="669" width="1200" height="6" fill="url(#gold)"/>
</svg>