<?xml version="1.0" encoding="UTF-8"?>
<svg xmlns="http://www.w3.org/2000/svg" viewBox="0 0 1200 675" width="1200" height="675" role="img" aria-label="How Can AI Improve Fairness in Online Dispute Resolution?">
  <defs>
    <linearGradient id="bg" x1="0%" y1="0%" x2="100%" y2="100%">
      <stop offset="0%" stop-color="#643516"/>
      <stop offset="100%" stop-color="#7d4315"/>
    </linearGradient>
    <linearGradient id="gold" x1="0%" y1="0%" x2="100%" y2="100%">
      <stop offset="0%" stop-color="#ecb478"/>
      <stop offset="100%" stop-color="#faebd6"/>
    </linearGradient>
    <radialGradient id="glow" cx="50%" cy="50%" r="50%">
      <stop offset="0%" stop-color="#ecb478" stop-opacity="0.45"/>
      <stop offset="100%" stop-color="#ecb478" stop-opacity="0"/>
    </radialGradient>
  </defs>
  <rect width="1200" height="675" fill="url(#bg)"/>
  <polygon points="526.0,624.9 705.9,594.0 642.8,765.2" fill="#faebd6" opacity="0.08"/><polygon points="485.1,633.8 513.9,592.5 562.1,607.2 563.1,657.6 515.4,674.1" fill="#faebd6" opacity="0.12"/><polygon points="852.0,288.4 969.3,360.9 896.8,478.3 779.4,405.8" fill="#faebd6" opacity="0.10"/><polygon points="258.0,462.1 275.7,368.8 369.1,386.5 351.3,479.9" fill="#faebd6" opacity="0.14"/><polygon points="580.5,356.5 673.7,256.4 797.7,314.0 781.2,449.8 646.9,476.1" fill="#faebd6" opacity="0.15"/><polygon points="150.9,-107.6 135.2,145.3 -75.9,5.3" fill="#faebd6" opacity="0.07"/><polygon points="311.8,191.9 477.8,259.3 464.9,438.0 291.0,481.0 196.4,328.9" fill="#faebd6" opacity="0.08"/><polygon points="665.2,425.1 546.5,348.5 672.2,284.0" fill="#faebd6" opacity="0.06"/><polygon points="823.6,637.5 661.8,685.0 614.3,523.1 776.1,475.6" fill="#faebd6" opacity="0.12"/><polygon points="1036.3,509.5 1191.9,526.6 1099.2,652.9" fill="#faebd6" opacity="0.07"/><polygon points="215.1,186.4 395.2,43.1 538.5,223.1 358.4,366.4" fill="#faebd6" opacity="0.06"/><polygon points="851.0,561.5 746.6,455.3 815.3,323.3 962.1,347.8 984.1,495.0" fill="#faebd6" opacity="0.13"/><polygon points="1007.1,505.5 1117.7,433.2 1220.6,516.1 1173.6,639.5 1041.7,633.0" fill="#faebd6" opacity="0.17"/><polygon points="166.7,410.0 -11.0,355.3 125.2,228.7" fill="#faebd6" opacity="0.09"/><circle cx="936.0" cy="202.5" r="180" fill="url(#glow)"/>
  <g opacity="0.85" transform="translate(1020, 495)">
        <rect x="-46" y="-60" width="92" height="115" fill="#ecb478" opacity="0.18" rx="6"/>
        <path d="M -28 -36 L 28 -36 M -28 -12 L 28 -12 M -28 12 L 18 12 M -28 36 L 28 36" stroke="#faebd6" stroke-width="3" stroke-linecap="round"/>
      </g>
  <g transform="translate(80, 90)">
    <rect x="0" y="0" rx="20" ry="20" width="101" height="38" fill="#ecb478" opacity="0.18" stroke="#ecb478" stroke-width="1.5"/>
    <text x="50.5" y="25" font-family="ui-sans-serif, Inter, sans-serif" font-weight="700" font-size="14" letter-spacing="2.5" fill="#ecb478" text-anchor="middle">ARTICLE</text>
  </g>
  <text x="80" y="465" font-family="ui-sans-serif, -apple-system, Segoe UI, Inter, sans-serif" font-weight="800" font-size="44" fill="#faf8f5" opacity="0.98"><tspan x="80" dy="0">How Can AI Improve</tspan><tspan x="80" dy="56">Fairness in Online Dispute</tspan><tspan x="80" dy="56">Resolution?</tspan></text>
  <rect x="0" y="669" width="1200" height="6" fill="url(#gold)"/>
</svg>