<?xml version="1.0" encoding="UTF-8"?>
<svg xmlns="http://www.w3.org/2000/svg" viewBox="0 0 1200 675" width="1200" height="675" role="img" aria-label="Engine Oil Super Stockist and Distributor Dispute Resolution Case">
  <defs>
    <linearGradient id="bg" x1="0%" y1="0%" x2="100%" y2="100%">
      <stop offset="0%" stop-color="#643516"/>
      <stop offset="100%" stop-color="#7d4315"/>
    </linearGradient>
    <linearGradient id="gold" x1="0%" y1="0%" x2="100%" y2="100%">
      <stop offset="0%" stop-color="#ecb478"/>
      <stop offset="100%" stop-color="#faebd6"/>
    </linearGradient>
    <radialGradient id="glow" cx="50%" cy="50%" r="50%">
      <stop offset="0%" stop-color="#ecb478" stop-opacity="0.45"/>
      <stop offset="100%" stop-color="#ecb478" stop-opacity="0"/>
    </radialGradient>
  </defs>
  <rect width="1200" height="675" fill="url(#bg)"/>
  <circle cx="27.5" cy="27.8" r="2.03" fill="#ecb478" opacity="0.24"/><circle cx="68.0" cy="27.9" r="1.75" fill="#ecb478" opacity="0.16"/><circle cx="101.8" cy="32.9" r="3.92" fill="#ecb478" opacity="0.22"/><circle cx="139.2" cy="28.9" r="1.69" fill="#ecb478" opacity="0.17"/><circle cx="172.0" cy="28.4" r="3.04" fill="#ecb478" opacity="0.20"/><circle cx="208.9" cy="27.2" r="2.59" fill="#ecb478" opacity="0.19"/><circle cx="244.6" cy="31.1" r="3.59" fill="#ecb478" opacity="0.17"/><circle cx="279.2" cy="28.5" r="3.54" fill="#ecb478" opacity="0.23"/><circle cx="315.9" cy="30.0" r="1.66" fill="#ecb478" opacity="0.18"/><circle cx="352.0" cy="31.2" r="3.09" fill="#ecb478" opacity="0.16"/><circle cx="390.7" cy="29.6" r="2.58" fill="#ecb478" opacity="0.28"/><circle cx="427.6" cy="28.8" r="2.25" fill="#ecb478" opacity="0.29"/><circle cx="462.2" cy="28.7" r="2.31" fill="#ecb478" opacity="0.32"/><circle cx="497.1" cy="31.4" r="3.70" fill="#ecb478" opacity="0.28"/><circle cx="536.4" cy="27.7" r="3.45" fill="#ecb478" opacity="0.15"/><circle cx="568.0" cy="31.8" r="1.66" fill="#ecb478" opacity="0.34"/><circle cx="606.3" cy="31.7" r="3.83" fill="#ecb478" opacity="0.15"/><circle cx="642.0" cy="28.6" r="2.09" fill="#ecb478" opacity="0.16"/><circle cx="676.0" cy="31.3" r="2.71" fill="#ecb478" opacity="0.27"/><circle cx="712.9" cy="27.8" r="3.67" fill="#ecb478" opacity="0.28"/><circle cx="752.8" cy="29.1" r="2.89" fill="#ecb478" opacity="0.30"/><circle cx="783.6" cy="27.7" r="2.27" fill="#ecb478" opacity="0.22"/><circle cx="820.5" cy="27.9" r="1.69" fill="#ecb478" opacity="0.31"/><circle cx="858.9" cy="29.2" r="2.43" fill="#ecb478" opacity="0.20"/><circle cx="891.0" cy="27.1" r="3.22" fill="#ecb478" opacity="0.31"/><circle cx="927.4" cy="29.0" r="3.52" fill="#ecb478" opacity="0.22"/><circle cx="964.7" cy="31.9" r="2.46" fill="#ecb478" opacity="0.32"/><circle cx="999.8" cy="30.7" r="3.88" fill="#ecb478" opacity="0.32"/><circle cx="1040.8" cy="30.4" r="3.36" fill="#ecb478" opacity="0.19"/><circle cx="1076.4" cy="29.7" r="2.16" fill="#ecb478" opacity="0.24"/><circle cx="1111.8" cy="30.8" r="2.02" fill="#ecb478" opacity="0.19"/><circle cx="1147.6" cy="27.1" r="2.11" fill="#ecb478" opacity="0.32"/><circle cx="1184.8" cy="27.6" r="1.65" fill="#ecb478" opacity="0.33"/><circle cx="30.7" cy="64.3" r="2.23" fill="#ecb478" opacity="0.28"/><circle cx="65.7" cy="65.5" r="2.59" fill="#ecb478" opacity="0.21"/><circle cx="104.4" cy="67.9" r="3.17" fill="#ecb478" opacity="0.20"/><circle cx="135.4" cy="65.0" r="3.20" fill="#ecb478" opacity="0.18"/><circle cx="172.2" cy="64.8" r="3.00" fill="#ecb478" opacity="0.27"/><circle cx="208.1" cy="67.5" r="3.03" fill="#ecb478" opacity="0.31"/><circle cx="244.0" cy="64.3" r="1.61" fill="#ecb478" opacity="0.30"/><circle cx="280.2" cy="64.3" r="3.80" fill="#ecb478" opacity="0.21"/><circle cx="319.9" cy="64.2" r="2.57" fill="#ecb478" opacity="0.24"/><circle cx="356.1" cy="66.8" r="2.43" fill="#ecb478" opacity="0.31"/><circle cx="391.2" cy="63.7" r="3.02" fill="#ecb478" opacity="0.19"/><circle cx="425.8" cy="65.2" r="2.85" fill="#ecb478" opacity="0.18"/><circle cx="463.9" cy="64.6" r="2.10" fill="#ecb478" opacity="0.30"/><circle cx="498.7" cy="67.5" r="1.62" fill="#ecb478" opacity="0.34"/><circle cx="535.0" cy="66.8" r="2.67" fill="#ecb478" opacity="0.32"/><circle cx="569.6" cy="64.7" r="3.76" fill="#ecb478" opacity="0.19"/><circle cx="607.2" cy="64.4" r="1.94" fill="#ecb478" opacity="0.25"/><circle cx="644.0" cy="68.1" r="3.41" fill="#ecb478" opacity="0.27"/><circle cx="677.9" cy="64.2" r="1.96" fill="#ecb478" opacity="0.18"/><circle cx="713.3" cy="67.2" r="3.96" fill="#ecb478" opacity="0.22"/><circle cx="751.6" cy="68.9" r="3.02" fill="#ecb478" opacity="0.26"/><circle cx="783.9" cy="66.4" r="3.38" fill="#ecb478" opacity="0.19"/><circle cx="820.5" cy="67.0" r="2.47" fill="#ecb478" opacity="0.17"/><circle cx="859.0" cy="64.2" r="2.87" fill="#ecb478" opacity="0.31"/><circle cx="894.6" cy="65.9" r="2.98" fill="#ecb478" opacity="0.20"/><circle cx="931.7" cy="67.4" r="3.81" fill="#ecb478" opacity="0.34"/><circle cx="965.5" cy="68.4" r="2.89" fill="#ecb478" opacity="0.35"/><circle cx="1003.7" cy="65.7" r="2.99" fill="#ecb478" opacity="0.31"/><circle cx="1038.7" cy="67.2" r="3.35" fill="#ecb478" opacity="0.18"/><circle cx="1072.7" cy="66.9" r="3.66" fill="#ecb478" opacity="0.29"/><circle cx="1112.0" cy="65.8" r="1.64" fill="#ecb478" opacity="0.26"/><circle cx="1147.5" cy="66.0" r="3.29" fill="#ecb478" opacity="0.16"/><circle cx="1181.9" cy="68.9" r="3.30" fill="#ecb478" opacity="0.31"/><circle cx="27.1" cy="101.7" r="3.00" fill="#ecb478" opacity="0.26"/><circle cx="63.1" cy="103.0" r="2.30" fill="#ecb478" opacity="0.19"/><circle cx="102.1" cy="101.9" r="3.96" fill="#ecb478" opacity="0.17"/><circle cx="138.0" cy="104.2" r="3.58" fill="#ecb478" opacity="0.33"/><circle cx="175.7" cy="99.9" r="2.64" fill="#ecb478" opacity="0.24"/><circle cx="211.0" cy="100.5" r="3.81" fill="#ecb478" opacity="0.30"/><circle cx="245.3" cy="103.4" r="1.79" fill="#ecb478" opacity="0.18"/><circle cx="281.4" cy="99.6" r="2.55" fill="#ecb478" opacity="0.28"/><circle cx="320.0" cy="102.0" r="3.42" fill="#ecb478" opacity="0.22"/><circle cx="356.7" cy="104.5" r="1.61" fill="#ecb478" opacity="0.27"/><circle cx="387.1" cy="104.8" r="2.70" fill="#ecb478" opacity="0.35"/><circle cx="427.6" cy="104.5" r="3.16" fill="#ecb478" opacity="0.23"/><circle cx="461.1" cy="103.5" r="1.98" fill="#ecb478" opacity="0.30"/><circle cx="500.7" cy="104.9" r="2.42" fill="#ecb478" opacity="0.27"/><circle cx="535.8" cy="104.7" r="3.92" fill="#ecb478" opacity="0.32"/><circle cx="568.0" cy="103.8" r="1.97" fill="#ecb478" opacity="0.22"/><circle cx="604.7" cy="103.1" r="3.24" fill="#ecb478" opacity="0.34"/><circle cx="639.6" cy="99.0" r="2.13" fill="#ecb478" opacity="0.26"/><circle cx="677.3" cy="100.7" r="3.85" fill="#ecb478" opacity="0.36"/><circle cx="713.9" cy="102.3" r="2.58" fill="#ecb478" opacity="0.30"/><circle cx="747.4" cy="100.9" r="3.75" fill="#ecb478" opacity="0.27"/><circle cx="787.6" cy="104.0" r="2.39" fill="#ecb478" opacity="0.28"/><circle cx="824.6" cy="101.5" r="2.60" fill="#ecb478" opacity="0.30"/><circle cx="855.9" cy="99.8" r="3.59" fill="#ecb478" opacity="0.18"/><circle cx="895.9" cy="104.5" r="1.97" fill="#ecb478" opacity="0.25"/><circle cx="931.5" cy="104.5" r="2.43" fill="#ecb478" opacity="0.34"/><circle cx="967.6" cy="100.4" r="3.97" fill="#ecb478" opacity="0.34"/><circle cx="1001.5" cy="103.1" r="2.43" fill="#ecb478" opacity="0.35"/><circle cx="1037.7" cy="104.7" r="2.66" fill="#ecb478" opacity="0.21"/><circle cx="1071.3" cy="103.6" r="2.92" fill="#ecb478" opacity="0.34"/><circle cx="1109.1" cy="102.9" r="3.40" fill="#ecb478" opacity="0.21"/><circle cx="1143.8" cy="101.5" r="1.97" fill="#ecb478" opacity="0.16"/><circle cx="1179.8" cy="104.7" r="2.61" fill="#ecb478" opacity="0.22"/><circle cx="30.5" cy="135.8" r="2.45" fill="#ecb478" opacity="0.30"/><circle cx="68.2" cy="138.3" r="3.52" fill="#ecb478" opacity="0.29"/><circle cx="104.2" cy="137.3" r="2.04" fill="#ecb478" opacity="0.18"/><circle cx="139.5" cy="135.4" r="2.60" fill="#ecb478" opacity="0.32"/><circle cx="175.9" cy="137.1" r="2.44" fill="#ecb478" opacity="0.17"/><circle cx="210.9" cy="138.5" r="1.73" fill="#ecb478" opacity="0.22"/><circle cx="243.6" cy="138.9" r="2.82" fill="#ecb478" opacity="0.24"/><circle cx="282.7" cy="136.4" r="3.59" fill="#ecb478" opacity="0.29"/><circle cx="319.1" cy="138.5" r="2.34" fill="#ecb478" opacity="0.34"/><circle cx="353.9" cy="140.5" r="3.21" fill="#ecb478" opacity="0.32"/><circle cx="387.5" cy="135.7" r="3.39" fill="#ecb478" opacity="0.23"/><circle cx="424.8" cy="140.0" r="2.93" fill="#ecb478" opacity="0.26"/><circle cx="462.1" cy="140.7" r="3.20" fill="#ecb478" opacity="0.18"/><circle cx="499.0" cy="139.3" r="1.79" fill="#ecb478" opacity="0.19"/><circle cx="532.4" cy="138.2" r="2.54" fill="#ecb478" opacity="0.33"/><circle cx="568.3" cy="137.0" r="2.28" fill="#ecb478" opacity="0.27"/><circle cx="607.7" cy="138.0" r="2.81" fill="#ecb478" opacity="0.32"/><circle cx="643.4" cy="136.6" r="3.56" fill="#ecb478" opacity="0.35"/><circle cx="677.6" cy="137.5" r="1.97" fill="#ecb478" opacity="0.30"/><circle cx="716.6" cy="135.9" r="2.80" fill="#ecb478" opacity="0.33"/><circle cx="751.8" cy="137.5" r="1.86" fill="#ecb478" opacity="0.31"/><circle cx="783.8" cy="138.0" r="3.27" fill="#ecb478" opacity="0.27"/><circle cx="821.3" cy="136.5" r="3.01" fill="#ecb478" opacity="0.28"/><circle cx="858.9" cy="140.5" r="1.63" fill="#ecb478" opacity="0.30"/><circle cx="894.3" cy="140.5" r="2.24" fill="#ecb478" opacity="0.20"/><circle cx="932.9" cy="138.3" r="1.96" fill="#ecb478" opacity="0.19"/><circle cx="965.1" cy="140.5" r="3.85" fill="#ecb478" opacity="0.29"/><circle cx="1004.0" cy="136.4" r="2.04" fill="#ecb478" opacity="0.31"/><circle cx="1039.8" cy="135.4" r="2.79" fill="#ecb478" opacity="0.30"/><circle cx="1072.4" cy="135.4" r="3.47" fill="#ecb478" opacity="0.23"/><circle cx="1108.8" cy="135.7" r="3.12" fill="#ecb478" opacity="0.19"/><circle cx="1144.9" cy="140.6" r="3.29" fill="#ecb478" opacity="0.17"/><circle cx="1181.5" cy="140.7" r="3.37" fill="#ecb478" opacity="0.26"/><circle cx="32.1" cy="173.2" r="3.64" fill="#ecb478" opacity="0.17"/><circle cx="63.4" cy="172.2" r="2.29" fill="#ecb478" opacity="0.17"/><circle cx="102.1" cy="173.2" r="3.63" fill="#ecb478" opacity="0.23"/><circle cx="141.0" cy="175.9" r="1.75" fill="#ecb478" opacity="0.24"/><circle cx="172.7" cy="171.7" r="3.95" fill="#ecb478" opacity="0.29"/><circle cx="208.0" cy="174.1" r="3.28" fill="#ecb478" opacity="0.30"/><circle cx="248.9" cy="171.8" r="1.72" fill="#ecb478" opacity="0.24"/><circle cx="280.1" cy="173.8" r="2.76" fill="#ecb478" opacity="0.16"/><circle cx="317.7" cy="174.4" r="1.77" fill="#ecb478" opacity="0.29"/><circle cx="354.8" cy="172.9" r="2.23" fill="#ecb478" opacity="0.16"/><circle cx="390.0" cy="176.4" r="3.93" fill="#ecb478" opacity="0.35"/><circle cx="428.4" cy="172.9" r="2.68" fill="#ecb478" opacity="0.17"/><circle cx="462.6" cy="174.4" r="1.84" fill="#ecb478" opacity="0.33"/><circle cx="497.4" cy="175.8" r="1.73" fill="#ecb478" opacity="0.16"/><circle cx="531.8" cy="172.4" r="2.65" fill="#ecb478" opacity="0.26"/><circle cx="567.2" cy="175.6" r="1.94" fill="#ecb478" opacity="0.26"/><circle cx="608.0" cy="175.2" r="3.70" fill="#ecb478" opacity="0.33"/><circle cx="642.4" cy="176.1" r="3.29" fill="#ecb478" opacity="0.31"/><circle cx="677.2" cy="172.7" r="1.90" fill="#ecb478" opacity="0.33"/><circle cx="715.5" cy="174.8" r="3.21" fill="#ecb478" opacity="0.18"/><circle cx="751.5" cy="173.4" r="3.47" fill="#ecb478" opacity="0.18"/><circle cx="786.9" cy="176.9" r="2.20" fill="#ecb478" opacity="0.28"/><circle cx="819.6" cy="172.0" r="3.29" fill="#ecb478" opacity="0.30"/><circle cx="856.5" cy="174.4" r="3.55" fill="#ecb478" opacity="0.34"/><circle cx="893.4" cy="173.6" r="2.45" fill="#ecb478" opacity="0.33"/><circle cx="930.3" cy="173.4" r="3.72" fill="#ecb478" opacity="0.29"/><circle cx="966.7" cy="176.9" r="3.88" fill="#ecb478" opacity="0.25"/><circle cx="999.1" cy="172.3" r="2.21" fill="#ecb478" opacity="0.34"/><circle cx="1039.6" cy="175.5" r="2.88" fill="#ecb478" opacity="0.19"/><circle cx="1074.9" cy="176.3" r="3.72" fill="#ecb478" opacity="0.17"/><circle cx="1111.3" cy="175.0" r="2.21" fill="#ecb478" opacity="0.31"/><circle cx="1144.1" cy="173.8" r="1.98" fill="#ecb478" opacity="0.27"/><circle cx="1182.3" cy="174.8" r="3.68" fill="#ecb478" opacity="0.30"/><circle cx="30.7" cy="207.1" r="3.82" fill="#ecb478" opacity="0.35"/><circle cx="68.6" cy="207.4" r="2.06" fill="#ecb478" opacity="0.35"/><circle cx="101.1" cy="209.3" r="3.07" fill="#ecb478" opacity="0.19"/><circle cx="139.4" cy="207.7" r="1.82" fill="#ecb478" opacity="0.25"/><circle cx="174.7" cy="212.4" r="3.38" fill="#ecb478" opacity="0.30"/><circle cx="211.8" cy="207.7" r="1.93" fill="#ecb478" opacity="0.27"/><circle cx="246.9" cy="207.8" r="3.29" fill="#ecb478" opacity="0.33"/><circle cx="284.3" cy="210.8" r="1.63" fill="#ecb478" opacity="0.34"/><circle cx="317.8" cy="210.3" r="3.72" fill="#ecb478" opacity="0.35"/><circle cx="355.3" cy="210.7" r="3.50" fill="#ecb478" opacity="0.24"/><circle cx="390.5" cy="209.3" r="2.91" fill="#ecb478" opacity="0.31"/><circle cx="428.5" cy="211.8" r="3.78" fill="#ecb478" opacity="0.31"/><circle cx="462.9" cy="212.7" r="1.90" fill="#ecb478" opacity="0.20"/><circle cx="496.0" cy="208.9" r="1.67" fill="#ecb478" opacity="0.18"/><circle cx="535.4" cy="211.7" r="2.72" fill="#ecb478" opacity="0.28"/><circle cx="571.4" cy="208.8" r="1.76" fill="#ecb478" opacity="0.15"/><circle cx="603.3" cy="212.4" r="3.36" fill="#ecb478" opacity="0.23"/><circle cx="642.1" cy="211.4" r="3.50" fill="#ecb478" opacity="0.33"/><circle cx="677.6" cy="212.4" r="3.51" fill="#ecb478" opacity="0.24"/><circle cx="715.6" cy="208.5" r="3.08" fill="#ecb478" opacity="0.34"/><circle cx="747.9" cy="208.5" r="2.31" fill="#ecb478" opacity="0.31"/><circle cx="787.3" cy="208.3" r="3.39" fill="#ecb478" opacity="0.16"/><circle cx="822.9" cy="209.3" r="3.15" fill="#ecb478" opacity="0.30"/><circle cx="860.7" cy="209.6" r="3.20" fill="#ecb478" opacity="0.36"/><circle cx="893.3" cy="209.2" r="2.15" fill="#ecb478" opacity="0.16"/><circle cx="932.8" cy="210.6" r="2.72" fill="#ecb478" opacity="0.31"/><circle cx="967.9" cy="207.2" r="3.67" fill="#ecb478" opacity="0.36"/><circle cx="1002.2" cy="210.7" r="1.84" fill="#ecb478" opacity="0.25"/><circle cx="1038.4" cy="207.1" r="2.28" fill="#ecb478" opacity="0.27"/><circle cx="1072.8" cy="210.0" r="2.05" fill="#ecb478" opacity="0.16"/><circle cx="1107.4" cy="211.7" r="3.00" fill="#ecb478" opacity="0.18"/><circle cx="1143.4" cy="211.3" r="3.84" fill="#ecb478" opacity="0.19"/><circle cx="1182.6" cy="209.3" r="2.43" fill="#ecb478" opacity="0.24"/><circle cx="29.4" cy="246.8" r="2.18" fill="#ecb478" opacity="0.34"/><circle cx="64.8" cy="247.5" r="2.03" fill="#ecb478" opacity="0.20"/><circle cx="104.0" cy="246.3" r="2.54" fill="#ecb478" opacity="0.16"/><circle cx="137.5" cy="243.5" r="3.35" fill="#ecb478" opacity="0.24"/><circle cx="171.8" cy="248.6" r="3.03" fill="#ecb478" opacity="0.35"/><circle cx="207.6" cy="247.4" r="3.97" fill="#ecb478" opacity="0.16"/><circle cx="248.1" cy="247.7" r="2.55" fill="#ecb478" opacity="0.28"/><circle cx="282.3" cy="247.7" r="2.73" fill="#ecb478" opacity="0.23"/><circle cx="317.3" cy="243.1" r="3.00" fill="#ecb478" opacity="0.29"/><circle cx="351.9" cy="244.7" r="3.33" fill="#ecb478" opacity="0.36"/><circle cx="387.3" cy="243.8" r="3.50" fill="#ecb478" opacity="0.34"/><circle cx="425.3" cy="244.5" r="1.80" fill="#ecb478" opacity="0.33"/><circle cx="461.8" cy="248.5" r="3.73" fill="#ecb478" opacity="0.32"/><circle cx="498.9" cy="244.6" r="2.54" fill="#ecb478" opacity="0.26"/><circle cx="531.5" cy="244.3" r="2.26" fill="#ecb478" opacity="0.28"/><circle cx="570.5" cy="248.3" r="1.72" fill="#ecb478" opacity="0.31"/><circle cx="603.4" cy="248.5" r="2.90" fill="#ecb478" opacity="0.30"/><circle cx="639.8" cy="245.4" r="2.12" fill="#ecb478" opacity="0.31"/><circle cx="677.2" cy="248.8" r="2.65" fill="#ecb478" opacity="0.23"/><circle cx="715.3" cy="243.2" r="3.29" fill="#ecb478" opacity="0.24"/><circle cx="749.2" cy="247.2" r="2.01" fill="#ecb478" opacity="0.16"/><circle cx="784.6" cy="244.5" r="2.84" fill="#ecb478" opacity="0.21"/><circle cx="824.6" cy="244.0" r="3.80" fill="#ecb478" opacity="0.34"/><circle cx="857.3" cy="245.1" r="1.71" fill="#ecb478" opacity="0.30"/><circle cx="894.6" cy="243.3" r="1.70" fill="#ecb478" opacity="0.21"/><circle cx="927.5" cy="244.0" r="2.85" fill="#ecb478" opacity="0.27"/><circle cx="966.4" cy="246.4" r="3.99" fill="#ecb478" opacity="0.30"/><circle cx="1000.4" cy="243.2" r="2.19" fill="#ecb478" opacity="0.30"/><circle cx="1035.4" cy="248.1" r="2.08" fill="#ecb478" opacity="0.30"/><circle cx="1074.5" cy="243.1" r="2.36" fill="#ecb478" opacity="0.27"/><circle cx="1109.0" cy="247.9" r="3.12" fill="#ecb478" opacity="0.30"/><circle cx="1148.1" cy="243.5" r="3.16" fill="#ecb478" opacity="0.25"/><circle cx="1181.3" cy="248.2" r="1.68" fill="#ecb478" opacity="0.33"/><circle cx="29.0" cy="282.1" r="3.90" fill="#ecb478" opacity="0.32"/><circle cx="67.1" cy="284.8" r="2.51" fill="#ecb478" opacity="0.31"/><circle cx="104.8" cy="282.6" r="3.51" fill="#ecb478" opacity="0.29"/><circle cx="139.1" cy="280.3" r="3.38" fill="#ecb478" opacity="0.29"/><circle cx="175.6" cy="282.4" r="1.87" fill="#ecb478" opacity="0.34"/><circle cx="207.9" cy="284.1" r="3.55" fill="#ecb478" opacity="0.23"/><circle cx="248.1" cy="279.4" r="2.03" fill="#ecb478" opacity="0.19"/><circle cx="280.1" cy="284.8" r="2.95" fill="#ecb478" opacity="0.34"/><circle cx="318.1" cy="279.0" r="3.73" fill="#ecb478" opacity="0.16"/><circle cx="352.2" cy="283.1" r="2.03" fill="#ecb478" opacity="0.17"/><circle cx="392.1" cy="281.0" r="2.64" fill="#ecb478" opacity="0.27"/><circle cx="428.9" cy="282.6" r="3.19" fill="#ecb478" opacity="0.16"/><circle cx="464.4" cy="284.2" r="2.65" fill="#ecb478" opacity="0.26"/><circle cx="500.5" cy="281.5" r="2.00" fill="#ecb478" opacity="0.26"/><circle cx="534.5" cy="281.9" r="2.75" fill="#ecb478" opacity="0.17"/><circle cx="571.1" cy="279.3" r="3.54" fill="#ecb478" opacity="0.27"/><circle cx="606.3" cy="280.3" r="1.67" fill="#ecb478" opacity="0.31"/><circle cx="641.4" cy="282.4" r="2.95" fill="#ecb478" opacity="0.32"/><circle cx="676.7" cy="282.2" r="3.82" fill="#ecb478" opacity="0.28"/><circle cx="716.1" cy="281.7" r="3.36" fill="#ecb478" opacity="0.18"/><circle cx="750.3" cy="281.9" r="2.77" fill="#ecb478" opacity="0.25"/><circle cx="787.5" cy="283.3" r="2.72" fill="#ecb478" opacity="0.34"/><circle cx="819.4" cy="284.2" r="2.78" fill="#ecb478" opacity="0.20"/><circle cx="856.2" cy="281.3" r="3.93" fill="#ecb478" opacity="0.28"/><circle cx="896.4" cy="283.8" r="3.22" fill="#ecb478" opacity="0.26"/><circle cx="930.9" cy="279.3" r="3.17" fill="#ecb478" opacity="0.32"/><circle cx="966.2" cy="283.8" r="3.11" fill="#ecb478" opacity="0.28"/><circle cx="1002.9" cy="283.1" r="3.79" fill="#ecb478" opacity="0.23"/><circle cx="1035.5" cy="283.8" r="2.82" fill="#ecb478" opacity="0.22"/><circle cx="1072.8" cy="283.7" r="1.64" fill="#ecb478" opacity="0.32"/><circle cx="1108.8" cy="280.6" r="3.47" fill="#ecb478" opacity="0.24"/><circle cx="1146.3" cy="281.4" r="3.71" fill="#ecb478" opacity="0.36"/><circle cx="1179.3" cy="280.6" r="3.36" fill="#ecb478" opacity="0.23"/><circle cx="32.0" cy="316.2" r="2.73" fill="#ecb478" opacity="0.30"/><circle cx="65.8" cy="315.8" r="3.10" fill="#ecb478" opacity="0.29"/><circle cx="103.3" cy="319.4" r="2.14" fill="#ecb478" opacity="0.31"/><circle cx="139.6" cy="318.8" r="2.56" fill="#ecb478" opacity="0.17"/><circle cx="176.5" cy="315.0" r="3.17" fill="#ecb478" opacity="0.32"/><circle cx="208.3" cy="319.4" r="1.70" fill="#ecb478" opacity="0.17"/><circle cx="247.5" cy="317.1" r="3.97" fill="#ecb478" opacity="0.27"/><circle cx="282.8" cy="317.3" r="1.68" fill="#ecb478" opacity="0.28"/><circle cx="316.4" cy="317.1" r="2.90" fill="#ecb478" opacity="0.22"/><circle cx="353.7" cy="319.8" r="2.58" fill="#ecb478" opacity="0.32"/><circle cx="389.9" cy="317.5" r="3.91" fill="#ecb478" opacity="0.30"/><circle cx="423.2" cy="317.4" r="2.88" fill="#ecb478" opacity="0.33"/><circle cx="459.3" cy="318.6" r="1.62" fill="#ecb478" opacity="0.31"/><circle cx="500.2" cy="316.2" r="1.87" fill="#ecb478" opacity="0.18"/><circle cx="533.0" cy="315.3" r="1.70" fill="#ecb478" opacity="0.35"/><circle cx="571.3" cy="320.7" r="1.96" fill="#ecb478" opacity="0.17"/><circle cx="607.0" cy="318.9" r="2.87" fill="#ecb478" opacity="0.16"/><circle cx="643.7" cy="315.8" r="2.79" fill="#ecb478" opacity="0.19"/><circle cx="679.9" cy="315.8" r="2.80" fill="#ecb478" opacity="0.30"/><circle cx="715.3" cy="315.5" r="3.91" fill="#ecb478" opacity="0.15"/><circle cx="752.9" cy="317.0" r="2.80" fill="#ecb478" opacity="0.29"/><circle cx="788.2" cy="319.0" r="1.68" fill="#ecb478" opacity="0.18"/><circle cx="820.4" cy="317.3" r="3.57" fill="#ecb478" opacity="0.20"/><circle cx="860.4" cy="317.2" r="1.63" fill="#ecb478" opacity="0.21"/><circle cx="895.0" cy="315.8" r="1.66" fill="#ecb478" opacity="0.22"/><circle cx="927.2" cy="318.0" r="2.61" fill="#ecb478" opacity="0.16"/><circle cx="963.3" cy="317.1" r="3.92" fill="#ecb478" opacity="0.28"/><circle cx="999.4" cy="317.2" r="2.89" fill="#ecb478" opacity="0.29"/><circle cx="1037.7" cy="317.9" r="3.34" fill="#ecb478" opacity="0.16"/><circle cx="1071.1" cy="315.5" r="1.77" fill="#ecb478" opacity="0.33"/><circle cx="1111.1" cy="319.4" r="2.61" fill="#ecb478" opacity="0.28"/><circle cx="1145.1" cy="317.6" r="3.74" fill="#ecb478" opacity="0.16"/><circle cx="1179.1" cy="315.4" r="2.47" fill="#ecb478" opacity="0.27"/><circle cx="30.3" cy="355.7" r="3.85" fill="#ecb478" opacity="0.23"/><circle cx="63.3" cy="354.0" r="3.00" fill="#ecb478" opacity="0.16"/><circle cx="100.9" cy="353.0" r="3.90" fill="#ecb478" opacity="0.23"/><circle cx="136.8" cy="356.7" r="3.36" fill="#ecb478" opacity="0.16"/><circle cx="175.1" cy="351.0" r="1.85" fill="#ecb478" opacity="0.21"/><circle cx="209.3" cy="352.7" r="3.01" fill="#ecb478" opacity="0.21"/><circle cx="244.0" cy="353.4" r="2.04" fill="#ecb478" opacity="0.15"/><circle cx="280.6" cy="353.3" r="1.88" fill="#ecb478" opacity="0.30"/><circle cx="319.6" cy="354.9" r="2.30" fill="#ecb478" opacity="0.30"/><circle cx="351.3" cy="353.7" r="1.79" fill="#ecb478" opacity="0.21"/><circle cx="392.5" cy="352.6" r="2.62" fill="#ecb478" opacity="0.16"/><circle cx="424.1" cy="352.2" r="2.47" fill="#ecb478" opacity="0.30"/><circle cx="459.8" cy="354.0" r="3.34" fill="#ecb478" opacity="0.15"/><circle cx="498.2" cy="351.3" r="3.74" fill="#ecb478" opacity="0.19"/><circle cx="532.9" cy="354.1" r="1.73" fill="#ecb478" opacity="0.31"/><circle cx="568.8" cy="353.2" r="3.24" fill="#ecb478" opacity="0.33"/><circle cx="606.6" cy="352.6" r="3.35" fill="#ecb478" opacity="0.30"/><circle cx="639.5" cy="353.8" r="2.62" fill="#ecb478" opacity="0.21"/><circle cx="678.7" cy="351.9" r="2.53" fill="#ecb478" opacity="0.15"/><circle cx="713.8" cy="355.4" r="2.26" fill="#ecb478" opacity="0.16"/><circle cx="753.0" cy="354.4" r="2.66" fill="#ecb478" opacity="0.34"/><circle cx="785.6" cy="355.7" r="2.69" fill="#ecb478" opacity="0.33"/><circle cx="820.9" cy="352.2" r="3.02" fill="#ecb478" opacity="0.32"/><circle cx="860.0" cy="354.7" r="3.38" fill="#ecb478" opacity="0.23"/><circle cx="895.5" cy="355.6" r="3.37" fill="#ecb478" opacity="0.29"/><circle cx="927.5" cy="354.3" r="3.13" fill="#ecb478" opacity="0.21"/><circle cx="967.3" cy="352.8" r="1.85" fill="#ecb478" opacity="0.34"/><circle cx="999.9" cy="352.0" r="3.24" fill="#ecb478" opacity="0.21"/><circle cx="1040.5" cy="356.1" r="3.60" fill="#ecb478" opacity="0.29"/><circle cx="1072.3" cy="353.8" r="3.34" fill="#ecb478" opacity="0.35"/><circle cx="1112.3" cy="355.5" r="3.80" fill="#ecb478" opacity="0.18"/><circle cx="1144.9" cy="355.4" r="3.61" fill="#ecb478" opacity="0.32"/><circle cx="1182.3" cy="356.0" r="3.20" fill="#ecb478" opacity="0.24"/><circle cx="29.1" cy="389.5" r="3.95" fill="#ecb478" opacity="0.31"/><circle cx="68.9" cy="390.6" r="1.62" fill="#ecb478" opacity="0.24"/><circle cx="103.4" cy="387.6" r="1.61" fill="#ecb478" opacity="0.31"/><circle cx="139.4" cy="392.9" r="3.12" fill="#ecb478" opacity="0.17"/><circle cx="176.1" cy="389.0" r="2.11" fill="#ecb478" opacity="0.22"/><circle cx="208.6" cy="387.6" r="2.53" fill="#ecb478" opacity="0.19"/><circle cx="246.2" cy="389.0" r="2.54" fill="#ecb478" opacity="0.22"/><circle cx="279.5" cy="389.3" r="2.02" fill="#ecb478" opacity="0.19"/><circle cx="317.1" cy="392.4" r="2.71" fill="#ecb478" opacity="0.36"/><circle cx="351.1" cy="392.2" r="2.18" fill="#ecb478" opacity="0.21"/><circle cx="390.7" cy="388.8" r="2.82" fill="#ecb478" opacity="0.26"/><circle cx="428.7" cy="388.1" r="3.34" fill="#ecb478" opacity="0.15"/><circle cx="461.0" cy="391.4" r="3.88" fill="#ecb478" opacity="0.29"/><circle cx="498.8" cy="391.3" r="3.40" fill="#ecb478" opacity="0.31"/><circle cx="532.9" cy="388.5" r="2.20" fill="#ecb478" opacity="0.35"/><circle cx="570.3" cy="393.0" r="3.47" fill="#ecb478" opacity="0.18"/><circle cx="604.4" cy="387.1" r="1.88" fill="#ecb478" opacity="0.15"/><circle cx="643.2" cy="389.5" r="3.16" fill="#ecb478" opacity="0.15"/><circle cx="678.6" cy="389.3" r="2.90" fill="#ecb478" opacity="0.25"/><circle cx="712.2" cy="390.0" r="1.71" fill="#ecb478" opacity="0.34"/><circle cx="750.7" cy="390.6" r="1.87" fill="#ecb478" opacity="0.20"/><circle cx="787.5" cy="389.0" r="3.11" fill="#ecb478" opacity="0.30"/><circle cx="819.5" cy="392.4" r="1.79" fill="#ecb478" opacity="0.20"/><circle cx="855.7" cy="387.8" r="3.78" fill="#ecb478" opacity="0.22"/><circle cx="892.5" cy="391.6" r="2.14" fill="#ecb478" opacity="0.28"/><circle cx="931.8" cy="388.3" r="3.99" fill="#ecb478" opacity="0.18"/><circle cx="965.8" cy="390.6" r="3.87" fill="#ecb478" opacity="0.29"/><circle cx="1002.4" cy="391.6" r="1.89" fill="#ecb478" opacity="0.27"/><circle cx="1039.3" cy="388.6" r="3.99" fill="#ecb478" opacity="0.24"/><circle cx="1076.6" cy="392.2" r="2.79" fill="#ecb478" opacity="0.30"/><circle cx="1108.0" cy="392.0" r="3.87" fill="#ecb478" opacity="0.33"/><circle cx="1147.6" cy="390.4" r="3.70" fill="#ecb478" opacity="0.27"/><circle cx="1184.1" cy="392.2" r="2.83" fill="#ecb478" opacity="0.30"/><circle cx="32.1" cy="428.3" r="3.95" fill="#ecb478" opacity="0.23"/><circle cx="66.0" cy="427.4" r="3.93" fill="#ecb478" opacity="0.19"/><circle cx="102.8" cy="423.6" r="3.73" fill="#ecb478" opacity="0.35"/><circle cx="136.9" cy="428.9" r="1.68" fill="#ecb478" opacity="0.24"/><circle cx="174.0" cy="426.9" r="2.15" fill="#ecb478" opacity="0.21"/><circle cx="209.7" cy="428.8" r="2.31" fill="#ecb478" opacity="0.19"/><circle cx="245.4" cy="423.9" r="1.88" fill="#ecb478" opacity="0.20"/><circle cx="282.7" cy="423.5" r="1.89" fill="#ecb478" opacity="0.33"/><circle cx="320.5" cy="424.1" r="2.91" fill="#ecb478" opacity="0.35"/><circle cx="351.0" cy="423.9" r="2.41" fill="#ecb478" opacity="0.31"/><circle cx="388.0" cy="423.1" r="2.37" fill="#ecb478" opacity="0.21"/><circle cx="428.3" cy="426.4" r="3.95" fill="#ecb478" opacity="0.23"/><circle cx="462.1" cy="424.6" r="3.64" fill="#ecb478" opacity="0.34"/><circle cx="496.7" cy="423.4" r="2.59" fill="#ecb478" opacity="0.18"/><circle cx="533.7" cy="423.7" r="2.68" fill="#ecb478" opacity="0.28"/><circle cx="570.8" cy="427.8" r="1.81" fill="#ecb478" opacity="0.21"/><circle cx="603.7" cy="424.8" r="3.48" fill="#ecb478" opacity="0.31"/><circle cx="641.9" cy="425.5" r="2.11" fill="#ecb478" opacity="0.36"/><circle cx="680.8" cy="423.5" r="2.64" fill="#ecb478" opacity="0.32"/><circle cx="716.2" cy="426.3" r="3.38" fill="#ecb478" opacity="0.24"/><circle cx="751.0" cy="424.7" r="3.44" fill="#ecb478" opacity="0.31"/><circle cx="786.3" cy="427.8" r="3.83" fill="#ecb478" opacity="0.19"/><circle cx="819.6" cy="424.4" r="3.96" fill="#ecb478" opacity="0.29"/><circle cx="859.5" cy="428.9" r="2.79" fill="#ecb478" opacity="0.19"/><circle cx="893.7" cy="424.6" r="3.55" fill="#ecb478" opacity="0.32"/><circle cx="930.7" cy="424.0" r="2.62" fill="#ecb478" opacity="0.35"/><circle cx="966.1" cy="425.3" r="3.94" fill="#ecb478" opacity="0.18"/><circle cx="1001.6" cy="426.3" r="3.19" fill="#ecb478" opacity="0.33"/><circle cx="1038.8" cy="423.1" r="1.76" fill="#ecb478" opacity="0.21"/><circle cx="1076.2" cy="428.6" r="3.84" fill="#ecb478" opacity="0.28"/><circle cx="1112.9" cy="428.4" r="2.37" fill="#ecb478" opacity="0.32"/><circle cx="1144.0" cy="423.2" r="3.07" fill="#ecb478" opacity="0.23"/><circle cx="1181.4" cy="424.2" r="2.47" fill="#ecb478" opacity="0.30"/><circle cx="28.6" cy="464.3" r="3.33" fill="#ecb478" opacity="0.33"/><circle cx="68.4" cy="459.1" r="2.26" fill="#ecb478" opacity="0.34"/><circle cx="103.9" cy="460.5" r="2.82" fill="#ecb478" opacity="0.17"/><circle cx="139.0" cy="460.2" r="2.12" fill="#ecb478" opacity="0.18"/><circle cx="177.0" cy="463.1" r="2.20" fill="#ecb478" opacity="0.21"/><circle cx="210.2" cy="460.8" r="3.78" fill="#ecb478" opacity="0.31"/><circle cx="244.5" cy="459.5" r="2.35" fill="#ecb478" opacity="0.26"/><circle cx="281.0" cy="464.0" r="2.90" fill="#ecb478" opacity="0.16"/><circle cx="315.5" cy="463.9" r="2.79" fill="#ecb478" opacity="0.17"/><circle cx="353.2" cy="459.7" r="3.89" fill="#ecb478" opacity="0.16"/><circle cx="392.3" cy="462.5" r="1.77" fill="#ecb478" opacity="0.30"/><circle cx="426.0" cy="459.3" r="3.62" fill="#ecb478" opacity="0.27"/><circle cx="461.3" cy="462.4" r="3.78" fill="#ecb478" opacity="0.26"/><circle cx="499.3" cy="461.3" r="2.47" fill="#ecb478" opacity="0.27"/><circle cx="535.2" cy="460.9" r="3.90" fill="#ecb478" opacity="0.18"/><circle cx="567.8" cy="463.7" r="1.99" fill="#ecb478" opacity="0.15"/><circle cx="605.0" cy="459.9" r="2.07" fill="#ecb478" opacity="0.18"/><circle cx="640.2" cy="463.6" r="3.31" fill="#ecb478" opacity="0.32"/><circle cx="677.9" cy="464.4" r="3.82" fill="#ecb478" opacity="0.28"/><circle cx="715.8" cy="463.4" r="3.55" fill="#ecb478" opacity="0.18"/><circle cx="748.0" cy="463.6" r="2.74" fill="#ecb478" opacity="0.23"/><circle cx="785.6" cy="463.6" r="2.47" fill="#ecb478" opacity="0.18"/><circle cx="823.9" cy="461.2" r="2.99" fill="#ecb478" opacity="0.24"/><circle cx="858.6" cy="463.7" r="2.38" fill="#ecb478" opacity="0.34"/><circle cx="895.8" cy="464.2" r="2.38" fill="#ecb478" opacity="0.22"/><circle cx="931.0" cy="460.1" r="3.13" fill="#ecb478" opacity="0.22"/><circle cx="966.3" cy="459.2" r="2.68" fill="#ecb478" opacity="0.24"/><circle cx="1002.1" cy="459.6" r="2.32" fill="#ecb478" opacity="0.23"/><circle cx="1039.4" cy="464.3" r="3.90" fill="#ecb478" opacity="0.18"/><circle cx="1076.1" cy="460.6" r="2.11" fill="#ecb478" opacity="0.29"/><circle cx="1108.1" cy="460.4" r="1.62" fill="#ecb478" opacity="0.33"/><circle cx="1148.3" cy="459.2" r="3.01" fill="#ecb478" opacity="0.20"/><circle cx="1182.8" cy="462.9" r="2.92" fill="#ecb478" opacity="0.30"/><circle cx="29.3" cy="498.6" r="2.46" fill="#ecb478" opacity="0.22"/><circle cx="64.0" cy="497.2" r="2.16" fill="#ecb478" opacity="0.27"/><circle cx="100.0" cy="496.0" r="3.33" fill="#ecb478" opacity="0.32"/><circle cx="139.9" cy="499.6" r="1.91" fill="#ecb478" opacity="0.34"/><circle cx="176.3" cy="495.1" r="3.73" fill="#ecb478" opacity="0.27"/><circle cx="212.3" cy="499.5" r="2.39" fill="#ecb478" opacity="0.27"/><circle cx="243.9" cy="500.9" r="3.38" fill="#ecb478" opacity="0.30"/><circle cx="282.4" cy="498.6" r="3.88" fill="#ecb478" opacity="0.26"/><circle cx="317.5" cy="498.0" r="3.17" fill="#ecb478" opacity="0.33"/><circle cx="352.8" cy="499.5" r="3.39" fill="#ecb478" opacity="0.35"/><circle cx="389.3" cy="495.6" r="1.70" fill="#ecb478" opacity="0.15"/><circle cx="424.0" cy="500.1" r="2.78" fill="#ecb478" opacity="0.18"/><circle cx="459.8" cy="495.1" r="2.42" fill="#ecb478" opacity="0.32"/><circle cx="499.0" cy="500.8" r="2.35" fill="#ecb478" opacity="0.16"/><circle cx="531.2" cy="500.1" r="2.04" fill="#ecb478" opacity="0.31"/><circle cx="568.1" cy="497.7" r="3.73" fill="#ecb478" opacity="0.24"/><circle cx="607.1" cy="500.7" r="2.97" fill="#ecb478" opacity="0.26"/><circle cx="643.2" cy="497.0" r="3.53" fill="#ecb478" opacity="0.25"/><circle cx="675.6" cy="497.0" r="3.31" fill="#ecb478" opacity="0.27"/><circle cx="713.7" cy="499.4" r="2.72" fill="#ecb478" opacity="0.32"/><circle cx="751.5" cy="500.6" r="1.69" fill="#ecb478" opacity="0.21"/><circle cx="783.1" cy="497.7" r="2.58" fill="#ecb478" opacity="0.35"/><circle cx="822.0" cy="499.5" r="2.21" fill="#ecb478" opacity="0.29"/><circle cx="855.7" cy="496.5" r="2.12" fill="#ecb478" opacity="0.24"/><circle cx="894.7" cy="499.8" r="3.34" fill="#ecb478" opacity="0.17"/><circle cx="928.8" cy="496.3" r="3.93" fill="#ecb478" opacity="0.20"/><circle cx="967.5" cy="498.7" r="2.51" fill="#ecb478" opacity="0.19"/><circle cx="1000.2" cy="499.3" r="3.06" fill="#ecb478" opacity="0.27"/><circle cx="1037.4" cy="497.7" r="2.85" fill="#ecb478" opacity="0.28"/><circle cx="1076.9" cy="497.6" r="2.17" fill="#ecb478" opacity="0.27"/><circle cx="1110.2" cy="499.7" r="3.84" fill="#ecb478" opacity="0.19"/><circle cx="1146.1" cy="498.7" r="3.98" fill="#ecb478" opacity="0.35"/><circle cx="1179.5" cy="499.5" r="1.81" fill="#ecb478" opacity="0.21"/><circle cx="32.7" cy="535.6" r="2.58" fill="#ecb478" opacity="0.16"/><circle cx="66.3" cy="535.8" r="3.33" fill="#ecb478" opacity="0.28"/><circle cx="99.5" cy="532.4" r="2.06" fill="#ecb478" opacity="0.24"/><circle cx="137.3" cy="532.7" r="3.09" fill="#ecb478" opacity="0.31"/><circle cx="171.6" cy="534.2" r="2.73" fill="#ecb478" opacity="0.33"/><circle cx="209.1" cy="533.8" r="3.54" fill="#ecb478" opacity="0.27"/><circle cx="248.4" cy="532.9" r="2.94" fill="#ecb478" opacity="0.17"/><circle cx="282.2" cy="534.4" r="3.55" fill="#ecb478" opacity="0.18"/><circle cx="320.4" cy="533.3" r="2.06" fill="#ecb478" opacity="0.27"/><circle cx="354.1" cy="535.1" r="3.64" fill="#ecb478" opacity="0.22"/><circle cx="388.5" cy="534.6" r="3.77" fill="#ecb478" opacity="0.26"/><circle cx="428.2" cy="536.2" r="3.35" fill="#ecb478" opacity="0.22"/><circle cx="459.2" cy="536.5" r="3.37" fill="#ecb478" opacity="0.21"/><circle cx="500.2" cy="531.8" r="2.75" fill="#ecb478" opacity="0.29"/><circle cx="533.0" cy="531.5" r="3.12" fill="#ecb478" opacity="0.36"/><circle cx="567.7" cy="533.5" r="3.73" fill="#ecb478" opacity="0.16"/><circle cx="608.8" cy="534.1" r="3.52" fill="#ecb478" opacity="0.17"/><circle cx="643.1" cy="532.6" r="1.83" fill="#ecb478" opacity="0.29"/><circle cx="675.6" cy="531.0" r="2.73" fill="#ecb478" opacity="0.34"/><circle cx="711.7" cy="533.1" r="2.62" fill="#ecb478" opacity="0.17"/><circle cx="751.5" cy="535.0" r="3.64" fill="#ecb478" opacity="0.16"/><circle cx="788.9" cy="532.0" r="2.04" fill="#ecb478" opacity="0.27"/><circle cx="820.8" cy="534.2" r="1.63" fill="#ecb478" opacity="0.26"/><circle cx="859.8" cy="536.5" r="3.20" fill="#ecb478" opacity="0.26"/><circle cx="891.8" cy="533.0" r="2.22" fill="#ecb478" opacity="0.26"/><circle cx="931.6" cy="532.7" r="3.32" fill="#ecb478" opacity="0.19"/><circle cx="968.0" cy="534.2" r="3.54" fill="#ecb478" opacity="0.27"/><circle cx="1004.7" cy="535.5" r="3.14" fill="#ecb478" opacity="0.21"/><circle cx="1039.5" cy="532.1" r="3.21" fill="#ecb478" opacity="0.27"/><circle cx="1074.4" cy="536.6" r="2.57" fill="#ecb478" opacity="0.18"/><circle cx="1112.6" cy="534.4" r="3.67" fill="#ecb478" opacity="0.23"/><circle cx="1143.3" cy="532.1" r="2.27" fill="#ecb478" opacity="0.34"/><circle cx="1184.8" cy="535.8" r="3.07" fill="#ecb478" opacity="0.29"/><circle cx="31.8" cy="572.5" r="2.28" fill="#ecb478" opacity="0.22"/><circle cx="66.7" cy="568.3" r="3.71" fill="#ecb478" opacity="0.20"/><circle cx="101.1" cy="569.9" r="2.38" fill="#ecb478" opacity="0.35"/><circle cx="139.6" cy="571.2" r="3.17" fill="#ecb478" opacity="0.21"/><circle cx="174.0" cy="569.6" r="3.59" fill="#ecb478" opacity="0.29"/><circle cx="207.2" cy="572.0" r="3.47" fill="#ecb478" opacity="0.22"/><circle cx="248.4" cy="569.7" r="3.61" fill="#ecb478" opacity="0.17"/><circle cx="279.0" cy="567.6" r="3.03" fill="#ecb478" opacity="0.16"/><circle cx="320.4" cy="570.4" r="3.32" fill="#ecb478" opacity="0.19"/><circle cx="356.2" cy="570.6" r="3.86" fill="#ecb478" opacity="0.24"/><circle cx="391.2" cy="571.9" r="2.28" fill="#ecb478" opacity="0.25"/><circle cx="423.9" cy="569.6" r="2.77" fill="#ecb478" opacity="0.33"/><circle cx="459.9" cy="572.7" r="2.88" fill="#ecb478" opacity="0.35"/><circle cx="496.9" cy="572.1" r="3.67" fill="#ecb478" opacity="0.27"/><circle cx="536.9" cy="567.6" r="2.93" fill="#ecb478" opacity="0.26"/><circle cx="571.8" cy="567.0" r="3.79" fill="#ecb478" opacity="0.27"/><circle cx="604.8" cy="571.5" r="2.93" fill="#ecb478" opacity="0.21"/><circle cx="644.8" cy="571.0" r="1.98" fill="#ecb478" opacity="0.21"/><circle cx="677.7" cy="572.3" r="1.63" fill="#ecb478" opacity="0.33"/><circle cx="714.9" cy="570.7" r="2.53" fill="#ecb478" opacity="0.32"/><circle cx="747.5" cy="572.4" r="3.75" fill="#ecb478" opacity="0.20"/><circle cx="785.9" cy="569.5" r="1.95" fill="#ecb478" opacity="0.25"/><circle cx="819.5" cy="571.3" r="3.18" fill="#ecb478" opacity="0.16"/><circle cx="860.9" cy="570.1" r="1.89" fill="#ecb478" opacity="0.17"/><circle cx="896.6" cy="567.4" r="3.88" fill="#ecb478" opacity="0.25"/><circle cx="931.4" cy="568.5" r="3.68" fill="#ecb478" opacity="0.18"/><circle cx="967.4" cy="571.5" r="1.93" fill="#ecb478" opacity="0.19"/><circle cx="1001.5" cy="571.7" r="3.44" fill="#ecb478" opacity="0.32"/><circle cx="1040.3" cy="569.4" r="3.61" fill="#ecb478" opacity="0.21"/><circle cx="1071.7" cy="570.1" r="3.84" fill="#ecb478" opacity="0.19"/><circle cx="1112.6" cy="569.3" r="3.15" fill="#ecb478" opacity="0.15"/><circle cx="1147.4" cy="570.5" r="2.54" fill="#ecb478" opacity="0.33"/><circle cx="1182.0" cy="570.8" r="3.77" fill="#ecb478" opacity="0.35"/><circle cx="31.7" cy="604.3" r="3.50" fill="#ecb478" opacity="0.20"/><circle cx="63.7" cy="604.2" r="3.61" fill="#ecb478" opacity="0.31"/><circle cx="104.5" cy="608.2" r="2.98" fill="#ecb478" opacity="0.31"/><circle cx="138.4" cy="604.8" r="3.71" fill="#ecb478" opacity="0.31"/><circle cx="176.8" cy="607.8" r="2.35" fill="#ecb478" opacity="0.27"/><circle cx="208.2" cy="604.5" r="2.72" fill="#ecb478" opacity="0.16"/><circle cx="246.4" cy="604.8" r="2.56" fill="#ecb478" opacity="0.15"/><circle cx="284.4" cy="608.4" r="3.63" fill="#ecb478" opacity="0.17"/><circle cx="320.9" cy="608.0" r="3.01" fill="#ecb478" opacity="0.17"/><circle cx="356.1" cy="604.3" r="2.78" fill="#ecb478" opacity="0.30"/><circle cx="392.4" cy="606.8" r="3.31" fill="#ecb478" opacity="0.35"/><circle cx="428.8" cy="605.6" r="3.39" fill="#ecb478" opacity="0.22"/><circle cx="459.9" cy="605.4" r="3.81" fill="#ecb478" opacity="0.27"/><circle cx="499.7" cy="607.5" r="2.89" fill="#ecb478" opacity="0.24"/><circle cx="535.8" cy="604.9" r="1.99" fill="#ecb478" opacity="0.25"/><circle cx="570.9" cy="605.8" r="2.75" fill="#ecb478" opacity="0.17"/><circle cx="604.1" cy="607.3" r="3.00" fill="#ecb478" opacity="0.22"/><circle cx="642.9" cy="604.0" r="1.85" fill="#ecb478" opacity="0.22"/><circle cx="679.0" cy="606.8" r="1.95" fill="#ecb478" opacity="0.15"/><circle cx="714.2" cy="606.5" r="2.79" fill="#ecb478" opacity="0.22"/><circle cx="748.8" cy="607.8" r="2.74" fill="#ecb478" opacity="0.34"/><circle cx="785.4" cy="606.4" r="3.93" fill="#ecb478" opacity="0.32"/><circle cx="824.6" cy="603.1" r="2.88" fill="#ecb478" opacity="0.18"/><circle cx="858.0" cy="605.3" r="3.41" fill="#ecb478" opacity="0.28"/><circle cx="891.1" cy="606.9" r="1.95" fill="#ecb478" opacity="0.21"/><circle cx="928.6" cy="604.3" r="1.86" fill="#ecb478" opacity="0.30"/><circle cx="963.7" cy="605.2" r="2.35" fill="#ecb478" opacity="0.21"/><circle cx="1002.4" cy="606.9" r="3.49" fill="#ecb478" opacity="0.30"/><circle cx="1038.0" cy="603.1" r="1.93" fill="#ecb478" opacity="0.27"/><circle cx="1076.7" cy="607.5" r="1.99" fill="#ecb478" opacity="0.17"/><circle cx="1112.3" cy="607.6" r="2.64" fill="#ecb478" opacity="0.30"/><circle cx="1144.1" cy="608.7" r="1.63" fill="#ecb478" opacity="0.16"/><circle cx="1184.0" cy="603.8" r="2.64" fill="#ecb478" opacity="0.25"/><circle cx="32.4" cy="643.9" r="2.35" fill="#ecb478" opacity="0.35"/><circle cx="63.7" cy="641.1" r="3.47" fill="#ecb478" opacity="0.23"/><circle cx="101.2" cy="644.8" r="2.41" fill="#ecb478" opacity="0.19"/><circle cx="139.3" cy="641.2" r="1.66" fill="#ecb478" opacity="0.24"/><circle cx="171.9" cy="640.6" r="3.47" fill="#ecb478" opacity="0.18"/><circle cx="209.9" cy="641.5" r="3.69" fill="#ecb478" opacity="0.25"/><circle cx="244.5" cy="644.7" r="3.69" fill="#ecb478" opacity="0.16"/><circle cx="283.9" cy="639.1" r="3.59" fill="#ecb478" opacity="0.18"/><circle cx="320.3" cy="640.7" r="3.00" fill="#ecb478" opacity="0.21"/><circle cx="356.9" cy="641.5" r="3.85" fill="#ecb478" opacity="0.27"/><circle cx="389.2" cy="641.6" r="2.25" fill="#ecb478" opacity="0.33"/><circle cx="428.9" cy="639.3" r="3.00" fill="#ecb478" opacity="0.21"/><circle cx="459.1" cy="639.5" r="2.82" fill="#ecb478" opacity="0.28"/><circle cx="499.8" cy="640.5" r="2.26" fill="#ecb478" opacity="0.35"/><circle cx="535.1" cy="642.2" r="1.63" fill="#ecb478" opacity="0.26"/><circle cx="568.1" cy="643.8" r="3.54" fill="#ecb478" opacity="0.35"/><circle cx="605.3" cy="641.4" r="3.32" fill="#ecb478" opacity="0.19"/><circle cx="640.4" cy="644.5" r="2.66" fill="#ecb478" opacity="0.27"/><circle cx="678.5" cy="641.5" r="2.55" fill="#ecb478" opacity="0.28"/><circle cx="711.4" cy="640.6" r="2.63" fill="#ecb478" opacity="0.26"/><circle cx="751.2" cy="644.4" r="3.42" fill="#ecb478" opacity="0.17"/><circle cx="785.1" cy="644.2" r="3.65" fill="#ecb478" opacity="0.30"/><circle cx="819.7" cy="640.1" r="1.85" fill="#ecb478" opacity="0.19"/><circle cx="857.0" cy="639.2" r="2.97" fill="#ecb478" opacity="0.25"/><circle cx="896.3" cy="642.1" r="2.90" fill="#ecb478" opacity="0.28"/><circle cx="930.1" cy="642.1" r="2.86" fill="#ecb478" opacity="0.16"/><circle cx="964.3" cy="643.3" r="3.44" fill="#ecb478" opacity="0.28"/><circle cx="1000.1" cy="641.9" r="3.70" fill="#ecb478" opacity="0.20"/><circle cx="1036.8" cy="641.9" r="1.89" fill="#ecb478" opacity="0.24"/><circle cx="1074.6" cy="641.8" r="3.73" fill="#ecb478" opacity="0.16"/><circle cx="1108.9" cy="642.2" r="2.60" fill="#ecb478" opacity="0.18"/><circle cx="1148.5" cy="644.2" r="2.75" fill="#ecb478" opacity="0.24"/><circle cx="1183.8" cy="643.2" r="3.87" fill="#ecb478" opacity="0.20"/><circle cx="224.8" cy="277.0" r="220" fill="url(#glow)" opacity="0.9"/>
  <g opacity="0.85" transform="translate(1020, 495)">
        <circle r="60" fill="#ecb478" opacity="0.18"/>
        <path d="M -34 6 Q -10 -22 14 6 Q 34 24 14 26 L -22 26 Q -38 24 -34 6 Z" fill="none" stroke="#faebd6" stroke-width="3" stroke-linejoin="round"/>
      </g>
  <g transform="translate(80, 90)">
    <rect x="0" y="0" rx="20" ry="20" width="134" height="38" fill="#ecb478" opacity="0.18" stroke="#ecb478" stroke-width="1.5"/>
    <text x="67" y="25" font-family="ui-sans-serif, Inter, sans-serif" font-weight="700" font-size="14" letter-spacing="2.5" fill="#ecb478" text-anchor="middle">CASE STUDY</text>
  </g>
  <text x="80" y="465" font-family="ui-sans-serif, -apple-system, Segoe UI, Inter, sans-serif" font-weight="800" font-size="44" fill="#faf8f5" opacity="0.98"><tspan x="80" dy="0">Engine Oil Super Stockist</tspan><tspan x="80" dy="56">and Distributor Dispute</tspan><tspan x="80" dy="56">Resolution Case</tspan></text>
  <rect x="0" y="669" width="1200" height="6" fill="url(#gold)"/>
</svg>