<?xml version="1.0" encoding="UTF-8"?>
<svg xmlns="http://www.w3.org/2000/svg" viewBox="0 0 1200 675" width="1200" height="675" role="img" aria-label="Essar House Precedent: Calcutta High Court's View on Section 17 and CPC">
  <defs>
    <linearGradient id="bg" x1="0%" y1="0%" x2="100%" y2="100%">
      <stop offset="0%" stop-color="#faf8f5"/>
      <stop offset="100%" stop-color="#f4efe8"/>
    </linearGradient>
    <linearGradient id="gold" x1="0%" y1="0%" x2="100%" y2="100%">
      <stop offset="0%" stop-color="#bd6b20"/>
      <stop offset="100%" stop-color="#9a5518"/>
    </linearGradient>
    <radialGradient id="glow" cx="50%" cy="50%" r="50%">
      <stop offset="0%" stop-color="#bd6b20" stop-opacity="0.45"/>
      <stop offset="100%" stop-color="#bd6b20" stop-opacity="0"/>
    </radialGradient>
  </defs>
  <rect width="1200" height="675" fill="url(#bg)"/>
  <circle cx="28.7" cy="29.8" r="2.38" fill="#bd6b20" opacity="0.35"/><circle cx="67.9" cy="27.9" r="2.67" fill="#bd6b20" opacity="0.28"/><circle cx="103.2" cy="31.9" r="3.53" fill="#bd6b20" opacity="0.20"/><circle cx="136.1" cy="32.1" r="3.98" fill="#bd6b20" opacity="0.27"/><circle cx="175.3" cy="32.1" r="2.25" fill="#bd6b20" opacity="0.35"/><circle cx="212.3" cy="31.5" r="3.83" fill="#bd6b20" opacity="0.17"/><circle cx="244.6" cy="31.6" r="3.53" fill="#bd6b20" opacity="0.20"/><circle cx="280.5" cy="28.6" r="1.87" fill="#bd6b20" opacity="0.24"/><circle cx="317.4" cy="31.7" r="1.92" fill="#bd6b20" opacity="0.25"/><circle cx="355.8" cy="27.3" r="1.76" fill="#bd6b20" opacity="0.36"/><circle cx="392.6" cy="32.4" r="2.75" fill="#bd6b20" opacity="0.31"/><circle cx="428.2" cy="29.1" r="2.59" fill="#bd6b20" opacity="0.16"/><circle cx="464.4" cy="32.3" r="3.36" fill="#bd6b20" opacity="0.27"/><circle cx="500.1" cy="28.0" r="3.15" fill="#bd6b20" opacity="0.23"/><circle cx="531.6" cy="29.6" r="3.43" fill="#bd6b20" opacity="0.32"/><circle cx="572.2" cy="27.4" r="3.10" fill="#bd6b20" opacity="0.32"/><circle cx="607.5" cy="28.2" r="2.45" fill="#bd6b20" opacity="0.19"/><circle cx="644.3" cy="27.9" r="2.27" fill="#bd6b20" opacity="0.24"/><circle cx="679.0" cy="29.3" r="1.73" fill="#bd6b20" opacity="0.29"/><circle cx="715.0" cy="31.7" r="2.33" fill="#bd6b20" opacity="0.32"/><circle cx="749.4" cy="27.7" r="2.68" fill="#bd6b20" opacity="0.17"/><circle cx="787.2" cy="32.2" r="3.43" fill="#bd6b20" opacity="0.20"/><circle cx="821.9" cy="29.9" r="3.29" fill="#bd6b20" opacity="0.31"/><circle cx="860.2" cy="29.1" r="3.07" fill="#bd6b20" opacity="0.30"/><circle cx="894.5" cy="32.3" r="3.42" fill="#bd6b20" opacity="0.30"/><circle cx="931.2" cy="29.5" r="2.06" fill="#bd6b20" opacity="0.33"/><circle cx="963.3" cy="32.9" r="2.73" fill="#bd6b20" opacity="0.29"/><circle cx="1004.9" cy="29.7" r="3.39" fill="#bd6b20" opacity="0.18"/><circle cx="1040.3" cy="27.6" r="2.39" fill="#bd6b20" opacity="0.31"/><circle cx="1071.2" cy="30.9" r="3.26" fill="#bd6b20" opacity="0.28"/><circle cx="1110.2" cy="31.5" r="2.19" fill="#bd6b20" opacity="0.22"/><circle cx="1145.9" cy="32.4" r="2.85" fill="#bd6b20" opacity="0.26"/><circle cx="1182.5" cy="27.4" r="3.81" fill="#bd6b20" opacity="0.24"/><circle cx="29.7" cy="65.0" r="3.23" fill="#bd6b20" opacity="0.31"/><circle cx="65.9" cy="65.0" r="2.79" fill="#bd6b20" opacity="0.31"/><circle cx="103.0" cy="64.3" r="2.72" fill="#bd6b20" opacity="0.18"/><circle cx="138.5" cy="63.9" r="3.14" fill="#bd6b20" opacity="0.16"/><circle cx="171.4" cy="64.7" r="3.33" fill="#bd6b20" opacity="0.26"/><circle cx="211.3" cy="63.2" r="1.72" fill="#bd6b20" opacity="0.30"/><circle cx="247.7" cy="68.4" r="3.15" fill="#bd6b20" opacity="0.20"/><circle cx="279.3" cy="66.1" r="2.23" fill="#bd6b20" opacity="0.35"/><circle cx="318.2" cy="65.3" r="3.39" fill="#bd6b20" opacity="0.20"/><circle cx="352.0" cy="65.4" r="2.73" fill="#bd6b20" opacity="0.34"/><circle cx="391.9" cy="67.6" r="2.93" fill="#bd6b20" opacity="0.35"/><circle cx="427.8" cy="65.5" r="3.60" fill="#bd6b20" opacity="0.28"/><circle cx="461.6" cy="64.4" r="3.94" fill="#bd6b20" opacity="0.27"/><circle cx="497.1" cy="66.4" r="3.40" fill="#bd6b20" opacity="0.27"/><circle cx="536.2" cy="67.4" r="2.39" fill="#bd6b20" opacity="0.31"/><circle cx="570.6" cy="64.8" r="2.44" fill="#bd6b20" opacity="0.15"/><circle cx="607.0" cy="65.3" r="2.40" fill="#bd6b20" opacity="0.28"/><circle cx="640.8" cy="66.4" r="2.56" fill="#bd6b20" opacity="0.21"/><circle cx="679.0" cy="63.6" r="3.33" fill="#bd6b20" opacity="0.17"/><circle cx="712.3" cy="65.9" r="2.73" fill="#bd6b20" opacity="0.31"/><circle cx="750.8" cy="64.6" r="2.38" fill="#bd6b20" opacity="0.23"/><circle cx="784.5" cy="67.8" r="2.67" fill="#bd6b20" opacity="0.18"/><circle cx="822.8" cy="66.8" r="1.83" fill="#bd6b20" opacity="0.25"/><circle cx="860.9" cy="64.9" r="3.30" fill="#bd6b20" opacity="0.23"/><circle cx="895.5" cy="64.3" r="2.09" fill="#bd6b20" opacity="0.28"/><circle cx="932.5" cy="65.6" r="3.45" fill="#bd6b20" opacity="0.26"/><circle cx="967.5" cy="67.5" r="2.55" fill="#bd6b20" opacity="0.20"/><circle cx="1003.0" cy="64.5" r="2.92" fill="#bd6b20" opacity="0.22"/><circle cx="1040.1" cy="68.3" r="2.15" fill="#bd6b20" opacity="0.22"/><circle cx="1071.9" cy="65.0" r="3.56" fill="#bd6b20" opacity="0.27"/><circle cx="1111.4" cy="68.3" r="3.82" fill="#bd6b20" opacity="0.33"/><circle cx="1147.0" cy="66.2" r="2.97" fill="#bd6b20" opacity="0.32"/><circle cx="1183.1" cy="68.9" r="3.60" fill="#bd6b20" opacity="0.24"/><circle cx="31.6" cy="103.3" r="3.06" fill="#bd6b20" opacity="0.23"/><circle cx="68.3" cy="101.3" r="3.46" fill="#bd6b20" opacity="0.29"/><circle cx="104.1" cy="99.7" r="2.72" fill="#bd6b20" opacity="0.34"/><circle cx="135.4" cy="102.2" r="3.22" fill="#bd6b20" opacity="0.34"/><circle cx="175.6" cy="104.5" r="2.66" fill="#bd6b20" opacity="0.17"/><circle cx="210.7" cy="99.0" r="2.39" fill="#bd6b20" opacity="0.34"/><circle cx="249.0" cy="104.4" r="3.97" fill="#bd6b20" opacity="0.21"/><circle cx="281.2" cy="102.0" r="3.97" fill="#bd6b20" opacity="0.20"/><circle cx="317.5" cy="99.1" r="2.86" fill="#bd6b20" opacity="0.27"/><circle cx="352.1" cy="102.4" r="2.15" fill="#bd6b20" opacity="0.26"/><circle cx="388.6" cy="104.7" r="2.42" fill="#bd6b20" opacity="0.27"/><circle cx="425.4" cy="100.8" r="3.87" fill="#bd6b20" opacity="0.23"/><circle cx="462.8" cy="99.1" r="2.38" fill="#bd6b20" opacity="0.34"/><circle cx="495.6" cy="104.5" r="3.89" fill="#bd6b20" opacity="0.32"/><circle cx="535.9" cy="102.9" r="2.48" fill="#bd6b20" opacity="0.21"/><circle cx="568.6" cy="100.8" r="3.01" fill="#bd6b20" opacity="0.15"/><circle cx="605.8" cy="104.1" r="2.45" fill="#bd6b20" opacity="0.24"/><circle cx="642.7" cy="100.4" r="2.89" fill="#bd6b20" opacity="0.34"/><circle cx="680.2" cy="102.2" r="3.50" fill="#bd6b20" opacity="0.35"/><circle cx="713.6" cy="101.0" r="3.51" fill="#bd6b20" opacity="0.28"/><circle cx="749.6" cy="103.8" r="3.22" fill="#bd6b20" opacity="0.19"/><circle cx="786.6" cy="100.7" r="1.84" fill="#bd6b20" opacity="0.16"/><circle cx="822.4" cy="100.6" r="2.75" fill="#bd6b20" opacity="0.30"/><circle cx="860.0" cy="102.8" r="3.39" fill="#bd6b20" opacity="0.24"/><circle cx="894.8" cy="100.7" r="2.39" fill="#bd6b20" opacity="0.18"/><circle cx="930.5" cy="100.2" r="2.17" fill="#bd6b20" opacity="0.34"/><circle cx="968.3" cy="104.9" r="3.83" fill="#bd6b20" opacity="0.28"/><circle cx="1003.9" cy="103.9" r="2.64" fill="#bd6b20" opacity="0.26"/><circle cx="1039.9" cy="101.1" r="2.58" fill="#bd6b20" opacity="0.20"/><circle cx="1074.4" cy="104.0" r="3.24" fill="#bd6b20" opacity="0.35"/><circle cx="1108.9" cy="100.0" r="1.86" fill="#bd6b20" opacity="0.34"/><circle cx="1145.3" cy="101.3" r="3.45" fill="#bd6b20" opacity="0.21"/><circle cx="1179.8" cy="102.8" r="3.11" fill="#bd6b20" opacity="0.22"/><circle cx="32.4" cy="135.2" r="2.90" fill="#bd6b20" opacity="0.29"/><circle cx="63.1" cy="138.7" r="2.19" fill="#bd6b20" opacity="0.21"/><circle cx="104.4" cy="138.5" r="1.65" fill="#bd6b20" opacity="0.28"/><circle cx="136.9" cy="136.0" r="2.10" fill="#bd6b20" opacity="0.31"/><circle cx="175.3" cy="135.5" r="2.32" fill="#bd6b20" opacity="0.22"/><circle cx="210.6" cy="140.2" r="2.79" fill="#bd6b20" opacity="0.34"/><circle cx="245.3" cy="137.9" r="3.85" fill="#bd6b20" opacity="0.27"/><circle cx="279.0" cy="140.2" r="2.83" fill="#bd6b20" opacity="0.31"/><circle cx="315.4" cy="140.9" r="3.88" fill="#bd6b20" opacity="0.30"/><circle cx="356.5" cy="139.2" r="3.31" fill="#bd6b20" opacity="0.19"/><circle cx="389.9" cy="140.7" r="2.42" fill="#bd6b20" opacity="0.33"/><circle cx="423.4" cy="136.9" r="2.16" fill="#bd6b20" opacity="0.33"/><circle cx="461.4" cy="135.9" r="2.05" fill="#bd6b20" opacity="0.20"/><circle cx="499.5" cy="135.4" r="3.04" fill="#bd6b20" opacity="0.33"/><circle cx="536.7" cy="136.5" r="2.89" fill="#bd6b20" opacity="0.28"/><circle cx="571.5" cy="136.3" r="1.65" fill="#bd6b20" opacity="0.29"/><circle cx="604.0" cy="137.4" r="3.47" fill="#bd6b20" opacity="0.18"/><circle cx="644.4" cy="135.2" r="1.62" fill="#bd6b20" opacity="0.21"/><circle cx="677.8" cy="140.4" r="2.92" fill="#bd6b20" opacity="0.27"/><circle cx="714.6" cy="135.6" r="1.78" fill="#bd6b20" opacity="0.34"/><circle cx="748.3" cy="135.1" r="3.98" fill="#bd6b20" opacity="0.23"/><circle cx="785.3" cy="138.4" r="1.94" fill="#bd6b20" opacity="0.27"/><circle cx="819.1" cy="136.2" r="2.38" fill="#bd6b20" opacity="0.19"/><circle cx="855.7" cy="139.5" r="3.08" fill="#bd6b20" opacity="0.18"/><circle cx="891.4" cy="135.2" r="3.64" fill="#bd6b20" opacity="0.21"/><circle cx="928.5" cy="140.5" r="3.51" fill="#bd6b20" opacity="0.29"/><circle cx="965.4" cy="137.1" r="2.22" fill="#bd6b20" opacity="0.24"/><circle cx="1000.6" cy="137.5" r="2.31" fill="#bd6b20" opacity="0.31"/><circle cx="1036.9" cy="139.0" r="2.92" fill="#bd6b20" opacity="0.36"/><circle cx="1072.9" cy="139.6" r="2.08" fill="#bd6b20" opacity="0.20"/><circle cx="1112.0" cy="137.8" r="3.63" fill="#bd6b20" opacity="0.28"/><circle cx="1143.8" cy="135.5" r="3.06" fill="#bd6b20" opacity="0.24"/><circle cx="1181.3" cy="139.1" r="3.16" fill="#bd6b20" opacity="0.19"/><circle cx="27.9" cy="174.9" r="2.25" fill="#bd6b20" opacity="0.29"/><circle cx="63.3" cy="175.8" r="1.69" fill="#bd6b20" opacity="0.24"/><circle cx="104.7" cy="176.1" r="3.09" fill="#bd6b20" opacity="0.33"/><circle cx="135.6" cy="171.8" r="2.08" fill="#bd6b20" opacity="0.34"/><circle cx="173.7" cy="173.8" r="3.49" fill="#bd6b20" opacity="0.36"/><circle cx="210.8" cy="175.6" r="2.16" fill="#bd6b20" opacity="0.25"/><circle cx="246.6" cy="175.4" r="2.45" fill="#bd6b20" opacity="0.28"/><circle cx="281.6" cy="172.7" r="2.59" fill="#bd6b20" opacity="0.27"/><circle cx="317.3" cy="175.7" r="3.56" fill="#bd6b20" opacity="0.24"/><circle cx="351.8" cy="172.4" r="1.84" fill="#bd6b20" opacity="0.35"/><circle cx="391.2" cy="171.9" r="1.98" fill="#bd6b20" opacity="0.26"/><circle cx="426.6" cy="175.3" r="2.29" fill="#bd6b20" opacity="0.23"/><circle cx="463.0" cy="171.3" r="3.13" fill="#bd6b20" opacity="0.28"/><circle cx="500.7" cy="176.5" r="1.73" fill="#bd6b20" opacity="0.28"/><circle cx="533.4" cy="176.5" r="2.73" fill="#bd6b20" opacity="0.36"/><circle cx="571.1" cy="173.6" r="1.74" fill="#bd6b20" opacity="0.33"/><circle cx="607.8" cy="171.1" r="1.86" fill="#bd6b20" opacity="0.22"/><circle cx="639.3" cy="171.8" r="2.93" fill="#bd6b20" opacity="0.21"/><circle cx="680.6" cy="172.4" r="1.86" fill="#bd6b20" opacity="0.19"/><circle cx="712.4" cy="173.7" r="3.16" fill="#bd6b20" opacity="0.29"/><circle cx="750.6" cy="176.1" r="2.07" fill="#bd6b20" opacity="0.20"/><circle cx="787.2" cy="175.9" r="2.59" fill="#bd6b20" opacity="0.20"/><circle cx="823.2" cy="176.9" r="3.51" fill="#bd6b20" opacity="0.28"/><circle cx="856.6" cy="174.6" r="3.69" fill="#bd6b20" opacity="0.23"/><circle cx="893.4" cy="171.7" r="1.97" fill="#bd6b20" opacity="0.24"/><circle cx="929.2" cy="174.6" r="3.60" fill="#bd6b20" opacity="0.25"/><circle cx="966.6" cy="175.9" r="2.82" fill="#bd6b20" opacity="0.33"/><circle cx="1001.0" cy="172.2" r="2.34" fill="#bd6b20" opacity="0.25"/><circle cx="1037.2" cy="175.9" r="3.16" fill="#bd6b20" opacity="0.35"/><circle cx="1073.4" cy="176.5" r="3.88" fill="#bd6b20" opacity="0.25"/><circle cx="1108.0" cy="173.5" r="3.05" fill="#bd6b20" opacity="0.32"/><circle cx="1148.5" cy="171.6" r="2.85" fill="#bd6b20" opacity="0.34"/><circle cx="1184.3" cy="173.8" r="2.04" fill="#bd6b20" opacity="0.18"/><circle cx="31.1" cy="208.2" r="3.89" fill="#bd6b20" opacity="0.30"/><circle cx="63.1" cy="210.6" r="2.62" fill="#bd6b20" opacity="0.23"/><circle cx="101.6" cy="211.9" r="3.54" fill="#bd6b20" opacity="0.27"/><circle cx="135.2" cy="208.4" r="1.69" fill="#bd6b20" opacity="0.22"/><circle cx="174.4" cy="209.3" r="3.63" fill="#bd6b20" opacity="0.34"/><circle cx="210.6" cy="212.6" r="1.70" fill="#bd6b20" opacity="0.17"/><circle cx="247.8" cy="207.4" r="2.39" fill="#bd6b20" opacity="0.28"/><circle cx="282.2" cy="210.9" r="2.64" fill="#bd6b20" opacity="0.31"/><circle cx="319.1" cy="210.6" r="2.00" fill="#bd6b20" opacity="0.25"/><circle cx="356.9" cy="212.4" r="3.34" fill="#bd6b20" opacity="0.33"/><circle cx="392.4" cy="212.5" r="2.43" fill="#bd6b20" opacity="0.29"/><circle cx="425.6" cy="212.9" r="2.45" fill="#bd6b20" opacity="0.34"/><circle cx="462.4" cy="211.9" r="1.91" fill="#bd6b20" opacity="0.34"/><circle cx="499.3" cy="209.0" r="2.13" fill="#bd6b20" opacity="0.20"/><circle cx="534.1" cy="207.5" r="3.94" fill="#bd6b20" opacity="0.29"/><circle cx="570.5" cy="209.1" r="2.31" fill="#bd6b20" opacity="0.34"/><circle cx="608.6" cy="209.2" r="3.87" fill="#bd6b20" opacity="0.22"/><circle cx="642.6" cy="212.9" r="3.34" fill="#bd6b20" opacity="0.34"/><circle cx="677.7" cy="210.8" r="2.08" fill="#bd6b20" opacity="0.20"/><circle cx="711.9" cy="212.1" r="2.02" fill="#bd6b20" opacity="0.36"/><circle cx="752.1" cy="212.0" r="3.79" fill="#bd6b20" opacity="0.31"/><circle cx="786.7" cy="208.4" r="3.98" fill="#bd6b20" opacity="0.29"/><circle cx="819.3" cy="208.5" r="2.00" fill="#bd6b20" opacity="0.27"/><circle cx="855.6" cy="207.9" r="2.81" fill="#bd6b20" opacity="0.23"/><circle cx="893.8" cy="211.3" r="3.14" fill="#bd6b20" opacity="0.23"/><circle cx="929.1" cy="212.1" r="1.72" fill="#bd6b20" opacity="0.34"/><circle cx="967.6" cy="209.3" r="3.00" fill="#bd6b20" opacity="0.17"/><circle cx="1000.5" cy="209.8" r="3.24" fill="#bd6b20" opacity="0.17"/><circle cx="1035.4" cy="209.2" r="1.69" fill="#bd6b20" opacity="0.26"/><circle cx="1074.2" cy="210.5" r="3.99" fill="#bd6b20" opacity="0.32"/><circle cx="1109.7" cy="207.9" r="2.37" fill="#bd6b20" opacity="0.32"/><circle cx="1146.0" cy="210.6" r="2.71" fill="#bd6b20" opacity="0.18"/><circle cx="1182.6" cy="211.9" r="1.80" fill="#bd6b20" opacity="0.29"/><circle cx="30.5" cy="243.8" r="3.12" fill="#bd6b20" opacity="0.22"/><circle cx="63.8" cy="247.2" r="2.48" fill="#bd6b20" opacity="0.18"/><circle cx="99.0" cy="245.5" r="2.94" fill="#bd6b20" opacity="0.29"/><circle cx="135.7" cy="247.1" r="2.38" fill="#bd6b20" opacity="0.17"/><circle cx="175.5" cy="246.2" r="2.50" fill="#bd6b20" opacity="0.34"/><circle cx="207.5" cy="244.2" r="4.00" fill="#bd6b20" opacity="0.16"/><circle cx="243.5" cy="246.2" r="1.66" fill="#bd6b20" opacity="0.24"/><circle cx="281.6" cy="244.8" r="1.90" fill="#bd6b20" opacity="0.27"/><circle cx="316.5" cy="245.0" r="3.58" fill="#bd6b20" opacity="0.28"/><circle cx="356.0" cy="243.5" r="2.06" fill="#bd6b20" opacity="0.25"/><circle cx="388.7" cy="243.2" r="2.83" fill="#bd6b20" opacity="0.26"/><circle cx="427.3" cy="243.7" r="1.96" fill="#bd6b20" opacity="0.22"/><circle cx="460.0" cy="243.9" r="3.80" fill="#bd6b20" opacity="0.33"/><circle cx="497.8" cy="243.1" r="2.02" fill="#bd6b20" opacity="0.29"/><circle cx="533.8" cy="243.2" r="2.40" fill="#bd6b20" opacity="0.16"/><circle cx="570.2" cy="248.4" r="2.37" fill="#bd6b20" opacity="0.16"/><circle cx="607.3" cy="245.6" r="3.58" fill="#bd6b20" opacity="0.21"/><circle cx="639.5" cy="244.3" r="2.39" fill="#bd6b20" opacity="0.34"/><circle cx="677.4" cy="243.7" r="3.72" fill="#bd6b20" opacity="0.22"/><circle cx="714.7" cy="247.2" r="2.62" fill="#bd6b20" opacity="0.25"/><circle cx="750.2" cy="243.7" r="2.22" fill="#bd6b20" opacity="0.31"/><circle cx="788.8" cy="243.2" r="2.09" fill="#bd6b20" opacity="0.22"/><circle cx="820.5" cy="243.8" r="3.16" fill="#bd6b20" opacity="0.29"/><circle cx="856.2" cy="247.1" r="3.54" fill="#bd6b20" opacity="0.34"/><circle cx="896.5" cy="247.4" r="3.39" fill="#bd6b20" opacity="0.20"/><circle cx="928.6" cy="245.7" r="1.70" fill="#bd6b20" opacity="0.24"/><circle cx="968.3" cy="248.5" r="3.90" fill="#bd6b20" opacity="0.18"/><circle cx="1002.6" cy="247.9" r="3.83" fill="#bd6b20" opacity="0.23"/><circle cx="1035.4" cy="248.9" r="2.99" fill="#bd6b20" opacity="0.17"/><circle cx="1071.1" cy="245.9" r="3.22" fill="#bd6b20" opacity="0.18"/><circle cx="1109.1" cy="245.1" r="2.51" fill="#bd6b20" opacity="0.17"/><circle cx="1143.1" cy="245.3" r="3.95" fill="#bd6b20" opacity="0.21"/><circle cx="1183.8" cy="243.7" r="2.63" fill="#bd6b20" opacity="0.36"/><circle cx="27.9" cy="282.8" r="2.30" fill="#bd6b20" opacity="0.36"/><circle cx="66.7" cy="279.8" r="2.31" fill="#bd6b20" opacity="0.26"/><circle cx="101.4" cy="284.7" r="2.94" fill="#bd6b20" opacity="0.31"/><circle cx="138.6" cy="279.5" r="2.44" fill="#bd6b20" opacity="0.24"/><circle cx="174.4" cy="281.9" r="2.79" fill="#bd6b20" opacity="0.15"/><circle cx="212.5" cy="281.0" r="2.65" fill="#bd6b20" opacity="0.35"/><circle cx="243.7" cy="282.5" r="1.95" fill="#bd6b20" opacity="0.23"/><circle cx="279.1" cy="282.1" r="3.36" fill="#bd6b20" opacity="0.22"/><circle cx="316.5" cy="280.3" r="1.98" fill="#bd6b20" opacity="0.25"/><circle cx="354.4" cy="284.2" r="2.09" fill="#bd6b20" opacity="0.28"/><circle cx="389.6" cy="281.3" r="2.88" fill="#bd6b20" opacity="0.34"/><circle cx="425.6" cy="284.9" r="3.83" fill="#bd6b20" opacity="0.16"/><circle cx="464.5" cy="282.6" r="2.76" fill="#bd6b20" opacity="0.28"/><circle cx="496.4" cy="284.0" r="2.20" fill="#bd6b20" opacity="0.23"/><circle cx="531.3" cy="282.8" r="3.34" fill="#bd6b20" opacity="0.23"/><circle cx="568.9" cy="282.3" r="3.79" fill="#bd6b20" opacity="0.18"/><circle cx="608.1" cy="280.5" r="2.27" fill="#bd6b20" opacity="0.33"/><circle cx="640.6" cy="284.5" r="2.39" fill="#bd6b20" opacity="0.23"/><circle cx="678.9" cy="282.9" r="3.56" fill="#bd6b20" opacity="0.18"/><circle cx="714.8" cy="283.6" r="2.50" fill="#bd6b20" opacity="0.15"/><circle cx="749.0" cy="282.4" r="1.67" fill="#bd6b20" opacity="0.17"/><circle cx="788.7" cy="281.2" r="3.24" fill="#bd6b20" opacity="0.19"/><circle cx="822.9" cy="284.9" r="3.49" fill="#bd6b20" opacity="0.24"/><circle cx="859.8" cy="284.4" r="2.55" fill="#bd6b20" opacity="0.16"/><circle cx="896.8" cy="280.6" r="2.50" fill="#bd6b20" opacity="0.34"/><circle cx="928.4" cy="283.5" r="1.77" fill="#bd6b20" opacity="0.19"/><circle cx="968.5" cy="283.1" r="2.49" fill="#bd6b20" opacity="0.20"/><circle cx="1003.4" cy="281.2" r="1.87" fill="#bd6b20" opacity="0.22"/><circle cx="1038.7" cy="282.9" r="2.35" fill="#bd6b20" opacity="0.21"/><circle cx="1075.4" cy="281.4" r="3.01" fill="#bd6b20" opacity="0.31"/><circle cx="1111.0" cy="279.9" r="1.70" fill="#bd6b20" opacity="0.35"/><circle cx="1148.9" cy="279.2" r="2.26" fill="#bd6b20" opacity="0.24"/><circle cx="1184.6" cy="280.7" r="1.92" fill="#bd6b20" opacity="0.24"/><circle cx="30.9" cy="316.0" r="3.13" fill="#bd6b20" opacity="0.21"/><circle cx="67.4" cy="317.6" r="3.22" fill="#bd6b20" opacity="0.31"/><circle cx="100.0" cy="317.5" r="3.23" fill="#bd6b20" opacity="0.18"/><circle cx="137.7" cy="318.6" r="2.05" fill="#bd6b20" opacity="0.21"/><circle cx="173.6" cy="317.9" r="3.64" fill="#bd6b20" opacity="0.32"/><circle cx="211.4" cy="321.0" r="2.49" fill="#bd6b20" opacity="0.27"/><circle cx="247.8" cy="320.4" r="3.54" fill="#bd6b20" opacity="0.19"/><circle cx="282.2" cy="321.0" r="2.90" fill="#bd6b20" opacity="0.35"/><circle cx="316.9" cy="320.3" r="1.81" fill="#bd6b20" opacity="0.25"/><circle cx="355.0" cy="317.7" r="1.97" fill="#bd6b20" opacity="0.26"/><circle cx="391.4" cy="320.5" r="3.37" fill="#bd6b20" opacity="0.34"/><circle cx="426.1" cy="315.0" r="3.04" fill="#bd6b20" opacity="0.21"/><circle cx="462.0" cy="315.2" r="3.70" fill="#bd6b20" opacity="0.29"/><circle cx="499.5" cy="318.9" r="2.26" fill="#bd6b20" opacity="0.26"/><circle cx="534.1" cy="316.0" r="3.73" fill="#bd6b20" opacity="0.21"/><circle cx="570.6" cy="317.9" r="2.43" fill="#bd6b20" opacity="0.35"/><circle cx="604.0" cy="320.7" r="3.07" fill="#bd6b20" opacity="0.19"/><circle cx="641.5" cy="320.9" r="3.39" fill="#bd6b20" opacity="0.19"/><circle cx="676.7" cy="320.9" r="3.08" fill="#bd6b20" opacity="0.23"/><circle cx="714.0" cy="317.2" r="2.78" fill="#bd6b20" opacity="0.35"/><circle cx="747.1" cy="319.4" r="1.81" fill="#bd6b20" opacity="0.33"/><circle cx="788.3" cy="319.4" r="2.21" fill="#bd6b20" opacity="0.21"/><circle cx="824.8" cy="316.5" r="3.45" fill="#bd6b20" opacity="0.35"/><circle cx="857.0" cy="317.6" r="1.93" fill="#bd6b20" opacity="0.15"/><circle cx="893.5" cy="315.2" r="2.96" fill="#bd6b20" opacity="0.36"/><circle cx="929.2" cy="315.3" r="2.22" fill="#bd6b20" opacity="0.23"/><circle cx="966.2" cy="319.1" r="3.83" fill="#bd6b20" opacity="0.16"/><circle cx="1003.5" cy="315.8" r="2.46" fill="#bd6b20" opacity="0.28"/><circle cx="1039.3" cy="320.9" r="3.21" fill="#bd6b20" opacity="0.32"/><circle cx="1075.5" cy="319.2" r="3.72" fill="#bd6b20" opacity="0.24"/><circle cx="1110.9" cy="316.3" r="2.10" fill="#bd6b20" opacity="0.27"/><circle cx="1144.9" cy="315.4" r="2.29" fill="#bd6b20" opacity="0.31"/><circle cx="1181.7" cy="316.7" r="3.03" fill="#bd6b20" opacity="0.18"/><circle cx="30.4" cy="351.9" r="2.00" fill="#bd6b20" opacity="0.30"/><circle cx="68.0" cy="352.9" r="3.98" fill="#bd6b20" opacity="0.27"/><circle cx="99.4" cy="353.8" r="3.30" fill="#bd6b20" opacity="0.28"/><circle cx="135.9" cy="354.3" r="2.61" fill="#bd6b20" opacity="0.24"/><circle cx="173.2" cy="356.1" r="1.88" fill="#bd6b20" opacity="0.16"/><circle cx="208.5" cy="354.0" r="3.90" fill="#bd6b20" opacity="0.19"/><circle cx="245.0" cy="352.6" r="2.36" fill="#bd6b20" opacity="0.26"/><circle cx="284.2" cy="354.9" r="3.21" fill="#bd6b20" opacity="0.15"/><circle cx="319.0" cy="352.1" r="2.13" fill="#bd6b20" opacity="0.22"/><circle cx="353.8" cy="353.3" r="2.07" fill="#bd6b20" opacity="0.27"/><circle cx="392.2" cy="353.7" r="3.49" fill="#bd6b20" opacity="0.18"/><circle cx="428.6" cy="353.7" r="2.52" fill="#bd6b20" opacity="0.31"/><circle cx="461.8" cy="353.6" r="2.85" fill="#bd6b20" opacity="0.23"/><circle cx="495.9" cy="356.5" r="3.08" fill="#bd6b20" opacity="0.27"/><circle cx="536.9" cy="356.3" r="2.84" fill="#bd6b20" opacity="0.18"/><circle cx="568.8" cy="352.7" r="3.29" fill="#bd6b20" opacity="0.20"/><circle cx="603.1" cy="355.0" r="3.43" fill="#bd6b20" opacity="0.17"/><circle cx="641.8" cy="353.3" r="3.50" fill="#bd6b20" opacity="0.21"/><circle cx="680.6" cy="354.4" r="1.63" fill="#bd6b20" opacity="0.30"/><circle cx="711.7" cy="356.5" r="3.44" fill="#bd6b20" opacity="0.16"/><circle cx="751.9" cy="353.3" r="3.44" fill="#bd6b20" opacity="0.23"/><circle cx="789.0" cy="355.3" r="1.90" fill="#bd6b20" opacity="0.25"/><circle cx="819.1" cy="354.6" r="2.74" fill="#bd6b20" opacity="0.18"/><circle cx="859.0" cy="355.7" r="3.65" fill="#bd6b20" opacity="0.15"/><circle cx="891.8" cy="353.5" r="3.60" fill="#bd6b20" opacity="0.35"/><circle cx="930.0" cy="351.1" r="2.74" fill="#bd6b20" opacity="0.20"/><circle cx="967.0" cy="352.1" r="2.23" fill="#bd6b20" opacity="0.23"/><circle cx="1002.3" cy="351.2" r="3.26" fill="#bd6b20" opacity="0.16"/><circle cx="1040.3" cy="351.3" r="1.78" fill="#bd6b20" opacity="0.17"/><circle cx="1071.9" cy="354.2" r="3.23" fill="#bd6b20" opacity="0.25"/><circle cx="1112.3" cy="352.1" r="3.42" fill="#bd6b20" opacity="0.18"/><circle cx="1147.2" cy="355.3" r="3.80" fill="#bd6b20" opacity="0.34"/><circle cx="1183.8" cy="352.0" r="2.46" fill="#bd6b20" opacity="0.20"/><circle cx="28.5" cy="388.7" r="3.50" fill="#bd6b20" opacity="0.17"/><circle cx="63.1" cy="390.5" r="3.90" fill="#bd6b20" opacity="0.18"/><circle cx="102.1" cy="388.4" r="3.35" fill="#bd6b20" opacity="0.31"/><circle cx="136.6" cy="392.3" r="2.34" fill="#bd6b20" opacity="0.28"/><circle cx="173.6" cy="391.4" r="3.75" fill="#bd6b20" opacity="0.16"/><circle cx="212.7" cy="390.0" r="2.40" fill="#bd6b20" opacity="0.20"/><circle cx="243.9" cy="389.4" r="2.34" fill="#bd6b20" opacity="0.25"/><circle cx="280.5" cy="388.3" r="3.67" fill="#bd6b20" opacity="0.20"/><circle cx="315.3" cy="388.6" r="3.69" fill="#bd6b20" opacity="0.19"/><circle cx="356.8" cy="390.4" r="2.44" fill="#bd6b20" opacity="0.34"/><circle cx="393.0" cy="388.0" r="2.46" fill="#bd6b20" opacity="0.27"/><circle cx="428.1" cy="392.5" r="2.39" fill="#bd6b20" opacity="0.27"/><circle cx="459.4" cy="391.1" r="3.59" fill="#bd6b20" opacity="0.31"/><circle cx="500.5" cy="391.4" r="3.06" fill="#bd6b20" opacity="0.23"/><circle cx="535.9" cy="392.9" r="2.28" fill="#bd6b20" opacity="0.20"/><circle cx="573.0" cy="390.2" r="2.46" fill="#bd6b20" opacity="0.29"/><circle cx="606.4" cy="388.5" r="3.10" fill="#bd6b20" opacity="0.35"/><circle cx="642.3" cy="387.7" r="3.18" fill="#bd6b20" opacity="0.19"/><circle cx="677.4" cy="391.1" r="3.04" fill="#bd6b20" opacity="0.28"/><circle cx="714.6" cy="390.2" r="3.83" fill="#bd6b20" opacity="0.31"/><circle cx="749.0" cy="388.2" r="2.70" fill="#bd6b20" opacity="0.16"/><circle cx="784.2" cy="392.8" r="3.50" fill="#bd6b20" opacity="0.17"/><circle cx="819.6" cy="391.6" r="2.37" fill="#bd6b20" opacity="0.34"/><circle cx="859.4" cy="390.9" r="3.02" fill="#bd6b20" opacity="0.25"/><circle cx="891.2" cy="392.4" r="3.64" fill="#bd6b20" opacity="0.35"/><circle cx="929.8" cy="390.5" r="3.47" fill="#bd6b20" opacity="0.29"/><circle cx="966.5" cy="392.4" r="2.00" fill="#bd6b20" opacity="0.29"/><circle cx="1002.8" cy="391.4" r="1.92" fill="#bd6b20" opacity="0.21"/><circle cx="1040.1" cy="387.3" r="2.24" fill="#bd6b20" opacity="0.27"/><circle cx="1076.5" cy="388.3" r="1.67" fill="#bd6b20" opacity="0.30"/><circle cx="1109.7" cy="391.2" r="3.21" fill="#bd6b20" opacity="0.23"/><circle cx="1143.7" cy="390.4" r="1.97" fill="#bd6b20" opacity="0.16"/><circle cx="1180.0" cy="388.1" r="3.45" fill="#bd6b20" opacity="0.27"/><circle cx="28.2" cy="426.0" r="2.82" fill="#bd6b20" opacity="0.33"/><circle cx="68.8" cy="424.2" r="3.42" fill="#bd6b20" opacity="0.35"/><circle cx="104.5" cy="424.8" r="2.05" fill="#bd6b20" opacity="0.33"/><circle cx="138.2" cy="427.6" r="1.72" fill="#bd6b20" opacity="0.16"/><circle cx="175.5" cy="425.1" r="2.93" fill="#bd6b20" opacity="0.31"/><circle cx="207.9" cy="428.3" r="2.85" fill="#bd6b20" opacity="0.30"/><circle cx="244.1" cy="423.8" r="3.47" fill="#bd6b20" opacity="0.34"/><circle cx="280.8" cy="428.2" r="2.20" fill="#bd6b20" opacity="0.22"/><circle cx="316.4" cy="423.1" r="3.36" fill="#bd6b20" opacity="0.29"/><circle cx="356.0" cy="423.5" r="2.36" fill="#bd6b20" opacity="0.24"/><circle cx="392.8" cy="428.2" r="1.63" fill="#bd6b20" opacity="0.22"/><circle cx="425.9" cy="425.1" r="1.89" fill="#bd6b20" opacity="0.27"/><circle cx="461.4" cy="427.4" r="2.01" fill="#bd6b20" opacity="0.24"/><circle cx="500.1" cy="426.9" r="2.22" fill="#bd6b20" opacity="0.31"/><circle cx="533.3" cy="426.2" r="1.61" fill="#bd6b20" opacity="0.30"/><circle cx="572.6" cy="423.1" r="2.82" fill="#bd6b20" opacity="0.25"/><circle cx="606.1" cy="424.3" r="2.81" fill="#bd6b20" opacity="0.20"/><circle cx="639.3" cy="424.2" r="2.98" fill="#bd6b20" opacity="0.33"/><circle cx="677.2" cy="428.4" r="3.85" fill="#bd6b20" opacity="0.23"/><circle cx="716.7" cy="424.9" r="3.73" fill="#bd6b20" opacity="0.23"/><circle cx="752.4" cy="424.0" r="3.11" fill="#bd6b20" opacity="0.21"/><circle cx="785.3" cy="425.4" r="3.06" fill="#bd6b20" opacity="0.21"/><circle cx="822.4" cy="428.5" r="3.37" fill="#bd6b20" opacity="0.30"/><circle cx="860.3" cy="423.4" r="3.54" fill="#bd6b20" opacity="0.17"/><circle cx="895.7" cy="428.9" r="3.06" fill="#bd6b20" opacity="0.30"/><circle cx="929.9" cy="426.0" r="2.37" fill="#bd6b20" opacity="0.28"/><circle cx="968.5" cy="425.3" r="3.98" fill="#bd6b20" opacity="0.23"/><circle cx="1003.8" cy="427.2" r="3.06" fill="#bd6b20" opacity="0.18"/><circle cx="1038.1" cy="424.3" r="1.92" fill="#bd6b20" opacity="0.27"/><circle cx="1074.1" cy="424.4" r="3.94" fill="#bd6b20" opacity="0.15"/><circle cx="1108.9" cy="426.3" r="2.27" fill="#bd6b20" opacity="0.26"/><circle cx="1143.9" cy="424.0" r="3.38" fill="#bd6b20" opacity="0.30"/><circle cx="1184.3" cy="428.3" r="1.82" fill="#bd6b20" opacity="0.18"/><circle cx="32.9" cy="460.2" r="1.71" fill="#bd6b20" opacity="0.18"/><circle cx="65.4" cy="464.4" r="2.92" fill="#bd6b20" opacity="0.18"/><circle cx="101.6" cy="461.0" r="2.90" fill="#bd6b20" opacity="0.31"/><circle cx="137.6" cy="462.2" r="2.59" fill="#bd6b20" opacity="0.27"/><circle cx="176.1" cy="463.7" r="3.16" fill="#bd6b20" opacity="0.34"/><circle cx="209.9" cy="461.7" r="3.20" fill="#bd6b20" opacity="0.16"/><circle cx="246.7" cy="462.4" r="2.54" fill="#bd6b20" opacity="0.26"/><circle cx="281.5" cy="463.0" r="3.18" fill="#bd6b20" opacity="0.33"/><circle cx="320.6" cy="462.6" r="3.63" fill="#bd6b20" opacity="0.33"/><circle cx="352.4" cy="459.9" r="2.74" fill="#bd6b20" opacity="0.30"/><circle cx="391.6" cy="460.6" r="3.29" fill="#bd6b20" opacity="0.31"/><circle cx="425.3" cy="461.8" r="3.37" fill="#bd6b20" opacity="0.25"/><circle cx="461.0" cy="462.0" r="2.66" fill="#bd6b20" opacity="0.19"/><circle cx="499.3" cy="464.0" r="3.63" fill="#bd6b20" opacity="0.30"/><circle cx="535.6" cy="461.9" r="2.16" fill="#bd6b20" opacity="0.16"/><circle cx="572.9" cy="462.6" r="3.32" fill="#bd6b20" opacity="0.16"/><circle cx="608.5" cy="460.6" r="2.32" fill="#bd6b20" opacity="0.27"/><circle cx="644.7" cy="461.7" r="1.82" fill="#bd6b20" opacity="0.21"/><circle cx="676.1" cy="464.4" r="3.63" fill="#bd6b20" opacity="0.22"/><circle cx="716.9" cy="461.7" r="1.92" fill="#bd6b20" opacity="0.26"/><circle cx="751.4" cy="460.3" r="1.82" fill="#bd6b20" opacity="0.28"/><circle cx="784.7" cy="463.1" r="3.71" fill="#bd6b20" opacity="0.25"/><circle cx="819.8" cy="462.4" r="3.36" fill="#bd6b20" opacity="0.27"/><circle cx="858.8" cy="463.3" r="2.53" fill="#bd6b20" opacity="0.35"/><circle cx="893.3" cy="461.1" r="2.25" fill="#bd6b20" opacity="0.22"/><circle cx="930.4" cy="462.6" r="3.14" fill="#bd6b20" opacity="0.22"/><circle cx="965.4" cy="459.9" r="2.60" fill="#bd6b20" opacity="0.17"/><circle cx="1004.1" cy="461.2" r="2.29" fill="#bd6b20" opacity="0.21"/><circle cx="1039.3" cy="460.7" r="2.17" fill="#bd6b20" opacity="0.33"/><circle cx="1073.1" cy="464.9" r="3.32" fill="#bd6b20" opacity="0.25"/><circle cx="1110.4" cy="461.7" r="3.54" fill="#bd6b20" opacity="0.23"/><circle cx="1143.1" cy="459.6" r="2.30" fill="#bd6b20" opacity="0.31"/><circle cx="1182.1" cy="459.2" r="1.96" fill="#bd6b20" opacity="0.22"/><circle cx="32.4" cy="496.8" r="3.46" fill="#bd6b20" opacity="0.15"/><circle cx="63.2" cy="495.8" r="2.52" fill="#bd6b20" opacity="0.29"/><circle cx="100.4" cy="497.9" r="2.52" fill="#bd6b20" opacity="0.30"/><circle cx="137.7" cy="500.0" r="2.38" fill="#bd6b20" opacity="0.19"/><circle cx="173.3" cy="497.7" r="3.55" fill="#bd6b20" opacity="0.28"/><circle cx="209.6" cy="495.2" r="3.90" fill="#bd6b20" opacity="0.27"/><circle cx="244.6" cy="500.4" r="2.15" fill="#bd6b20" opacity="0.26"/><circle cx="282.5" cy="496.1" r="2.36" fill="#bd6b20" opacity="0.18"/><circle cx="320.2" cy="498.7" r="3.19" fill="#bd6b20" opacity="0.21"/><circle cx="356.9" cy="498.2" r="1.82" fill="#bd6b20" opacity="0.22"/><circle cx="391.7" cy="497.8" r="2.61" fill="#bd6b20" opacity="0.26"/><circle cx="424.2" cy="497.7" r="1.66" fill="#bd6b20" opacity="0.29"/><circle cx="464.4" cy="495.1" r="3.98" fill="#bd6b20" opacity="0.34"/><circle cx="497.2" cy="495.1" r="1.65" fill="#bd6b20" opacity="0.16"/><circle cx="532.2" cy="495.2" r="3.23" fill="#bd6b20" opacity="0.18"/><circle cx="572.3" cy="497.8" r="2.51" fill="#bd6b20" opacity="0.31"/><circle cx="605.9" cy="497.6" r="1.87" fill="#bd6b20" opacity="0.35"/><circle cx="639.5" cy="500.8" r="1.94" fill="#bd6b20" opacity="0.23"/><circle cx="678.1" cy="500.1" r="3.47" fill="#bd6b20" opacity="0.16"/><circle cx="716.1" cy="500.6" r="2.27" fill="#bd6b20" opacity="0.31"/><circle cx="750.3" cy="495.8" r="3.17" fill="#bd6b20" opacity="0.30"/><circle cx="787.2" cy="495.4" r="2.18" fill="#bd6b20" opacity="0.24"/><circle cx="824.7" cy="498.5" r="3.74" fill="#bd6b20" opacity="0.34"/><circle cx="859.1" cy="495.9" r="1.83" fill="#bd6b20" opacity="0.23"/><circle cx="896.8" cy="497.8" r="1.72" fill="#bd6b20" opacity="0.36"/><circle cx="927.6" cy="498.0" r="3.07" fill="#bd6b20" opacity="0.15"/><circle cx="966.5" cy="499.8" r="1.98" fill="#bd6b20" opacity="0.30"/><circle cx="1001.2" cy="499.0" r="2.00" fill="#bd6b20" opacity="0.21"/><circle cx="1039.0" cy="497.4" r="2.11" fill="#bd6b20" opacity="0.15"/><circle cx="1071.4" cy="496.5" r="2.21" fill="#bd6b20" opacity="0.19"/><circle cx="1112.5" cy="499.1" r="3.89" fill="#bd6b20" opacity="0.20"/><circle cx="1145.5" cy="498.1" r="1.61" fill="#bd6b20" opacity="0.30"/><circle cx="1182.3" cy="498.4" r="3.18" fill="#bd6b20" opacity="0.32"/><circle cx="32.6" cy="531.0" r="1.96" fill="#bd6b20" opacity="0.23"/><circle cx="68.5" cy="533.4" r="2.68" fill="#bd6b20" opacity="0.28"/><circle cx="101.3" cy="534.6" r="3.44" fill="#bd6b20" opacity="0.22"/><circle cx="137.5" cy="534.0" r="2.93" fill="#bd6b20" opacity="0.28"/><circle cx="175.3" cy="533.8" r="2.21" fill="#bd6b20" opacity="0.28"/><circle cx="207.5" cy="531.6" r="2.75" fill="#bd6b20" opacity="0.23"/><circle cx="243.1" cy="531.8" r="1.98" fill="#bd6b20" opacity="0.27"/><circle cx="284.4" cy="536.2" r="2.15" fill="#bd6b20" opacity="0.20"/><circle cx="317.5" cy="536.2" r="3.88" fill="#bd6b20" opacity="0.33"/><circle cx="351.8" cy="532.9" r="3.64" fill="#bd6b20" opacity="0.20"/><circle cx="389.9" cy="531.1" r="1.99" fill="#bd6b20" opacity="0.17"/><circle cx="428.2" cy="531.5" r="2.22" fill="#bd6b20" opacity="0.31"/><circle cx="460.1" cy="533.8" r="2.11" fill="#bd6b20" opacity="0.24"/><circle cx="498.9" cy="535.9" r="3.42" fill="#bd6b20" opacity="0.34"/><circle cx="533.8" cy="536.2" r="1.68" fill="#bd6b20" opacity="0.15"/><circle cx="570.6" cy="537.0" r="2.94" fill="#bd6b20" opacity="0.17"/><circle cx="604.4" cy="532.1" r="1.74" fill="#bd6b20" opacity="0.31"/><circle cx="644.3" cy="532.7" r="3.59" fill="#bd6b20" opacity="0.35"/><circle cx="680.7" cy="534.6" r="2.43" fill="#bd6b20" opacity="0.18"/><circle cx="714.9" cy="536.4" r="2.61" fill="#bd6b20" opacity="0.21"/><circle cx="751.1" cy="536.8" r="2.27" fill="#bd6b20" opacity="0.23"/><circle cx="787.4" cy="533.3" r="2.67" fill="#bd6b20" opacity="0.18"/><circle cx="819.5" cy="532.3" r="3.83" fill="#bd6b20" opacity="0.32"/><circle cx="856.8" cy="536.8" r="3.25" fill="#bd6b20" opacity="0.19"/><circle cx="892.4" cy="535.7" r="1.77" fill="#bd6b20" opacity="0.31"/><circle cx="927.7" cy="536.2" r="3.34" fill="#bd6b20" opacity="0.18"/><circle cx="965.5" cy="536.3" r="3.58" fill="#bd6b20" opacity="0.26"/><circle cx="1002.9" cy="532.8" r="3.09" fill="#bd6b20" opacity="0.32"/><circle cx="1035.1" cy="536.3" r="2.85" fill="#bd6b20" opacity="0.18"/><circle cx="1076.8" cy="535.3" r="3.91" fill="#bd6b20" opacity="0.27"/><circle cx="1109.0" cy="533.0" r="2.33" fill="#bd6b20" opacity="0.23"/><circle cx="1149.0" cy="533.5" r="3.44" fill="#bd6b20" opacity="0.35"/><circle cx="1179.1" cy="533.7" r="3.50" fill="#bd6b20" opacity="0.28"/><circle cx="29.1" cy="568.1" r="2.43" fill="#bd6b20" opacity="0.17"/><circle cx="65.6" cy="570.0" r="2.55" fill="#bd6b20" opacity="0.19"/><circle cx="99.5" cy="571.4" r="2.90" fill="#bd6b20" opacity="0.34"/><circle cx="140.7" cy="570.7" r="2.96" fill="#bd6b20" opacity="0.27"/><circle cx="172.0" cy="571.9" r="2.33" fill="#bd6b20" opacity="0.32"/><circle cx="207.9" cy="568.3" r="3.59" fill="#bd6b20" opacity="0.35"/><circle cx="248.3" cy="569.5" r="2.86" fill="#bd6b20" opacity="0.27"/><circle cx="279.9" cy="571.5" r="2.33" fill="#bd6b20" opacity="0.15"/><circle cx="320.2" cy="569.1" r="2.77" fill="#bd6b20" opacity="0.31"/><circle cx="355.4" cy="571.1" r="1.62" fill="#bd6b20" opacity="0.34"/><circle cx="388.8" cy="571.1" r="2.18" fill="#bd6b20" opacity="0.27"/><circle cx="423.7" cy="572.5" r="3.66" fill="#bd6b20" opacity="0.24"/><circle cx="464.0" cy="571.2" r="2.16" fill="#bd6b20" opacity="0.32"/><circle cx="499.9" cy="569.5" r="3.30" fill="#bd6b20" opacity="0.25"/><circle cx="533.9" cy="569.4" r="1.64" fill="#bd6b20" opacity="0.21"/><circle cx="572.7" cy="570.0" r="3.46" fill="#bd6b20" opacity="0.36"/><circle cx="606.4" cy="570.0" r="2.80" fill="#bd6b20" opacity="0.29"/><circle cx="644.0" cy="568.2" r="2.48" fill="#bd6b20" opacity="0.20"/><circle cx="678.9" cy="568.1" r="3.37" fill="#bd6b20" opacity="0.24"/><circle cx="716.4" cy="568.9" r="3.64" fill="#bd6b20" opacity="0.35"/><circle cx="751.6" cy="568.6" r="3.91" fill="#bd6b20" opacity="0.25"/><circle cx="786.7" cy="571.4" r="3.34" fill="#bd6b20" opacity="0.22"/><circle cx="821.2" cy="568.1" r="2.16" fill="#bd6b20" opacity="0.35"/><circle cx="855.7" cy="571.9" r="2.58" fill="#bd6b20" opacity="0.15"/><circle cx="896.7" cy="570.2" r="1.61" fill="#bd6b20" opacity="0.32"/><circle cx="930.7" cy="569.2" r="2.77" fill="#bd6b20" opacity="0.33"/><circle cx="966.4" cy="569.7" r="3.09" fill="#bd6b20" opacity="0.21"/><circle cx="1003.9" cy="572.5" r="3.02" fill="#bd6b20" opacity="0.28"/><circle cx="1040.7" cy="568.1" r="3.91" fill="#bd6b20" opacity="0.22"/><circle cx="1074.3" cy="569.7" r="3.13" fill="#bd6b20" opacity="0.34"/><circle cx="1112.0" cy="569.9" r="2.08" fill="#bd6b20" opacity="0.17"/><circle cx="1143.3" cy="567.6" r="3.92" fill="#bd6b20" opacity="0.24"/><circle cx="1184.3" cy="572.7" r="2.05" fill="#bd6b20" opacity="0.33"/><circle cx="30.3" cy="607.4" r="2.27" fill="#bd6b20" opacity="0.18"/><circle cx="63.0" cy="607.3" r="2.84" fill="#bd6b20" opacity="0.26"/><circle cx="100.6" cy="606.7" r="3.99" fill="#bd6b20" opacity="0.32"/><circle cx="138.8" cy="603.4" r="2.92" fill="#bd6b20" opacity="0.24"/><circle cx="171.6" cy="607.0" r="1.79" fill="#bd6b20" opacity="0.20"/><circle cx="210.5" cy="608.3" r="3.90" fill="#bd6b20" opacity="0.16"/><circle cx="245.0" cy="604.9" r="1.98" fill="#bd6b20" opacity="0.22"/><circle cx="282.9" cy="606.6" r="3.38" fill="#bd6b20" opacity="0.30"/><circle cx="320.6" cy="605.1" r="3.24" fill="#bd6b20" opacity="0.32"/><circle cx="352.2" cy="605.7" r="3.59" fill="#bd6b20" opacity="0.22"/><circle cx="392.5" cy="607.5" r="1.72" fill="#bd6b20" opacity="0.20"/><circle cx="424.2" cy="607.3" r="3.98" fill="#bd6b20" opacity="0.21"/><circle cx="462.4" cy="603.4" r="2.62" fill="#bd6b20" opacity="0.16"/><circle cx="495.4" cy="604.4" r="2.77" fill="#bd6b20" opacity="0.15"/><circle cx="532.9" cy="608.8" r="1.94" fill="#bd6b20" opacity="0.26"/><circle cx="572.3" cy="609.0" r="2.05" fill="#bd6b20" opacity="0.21"/><circle cx="606.6" cy="608.2" r="2.39" fill="#bd6b20" opacity="0.25"/><circle cx="641.7" cy="606.2" r="2.52" fill="#bd6b20" opacity="0.21"/><circle cx="676.1" cy="607.2" r="2.15" fill="#bd6b20" opacity="0.25"/><circle cx="712.7" cy="604.3" r="2.00" fill="#bd6b20" opacity="0.29"/><circle cx="751.2" cy="604.7" r="2.66" fill="#bd6b20" opacity="0.15"/><circle cx="788.9" cy="604.4" r="3.57" fill="#bd6b20" opacity="0.32"/><circle cx="819.7" cy="606.7" r="3.95" fill="#bd6b20" opacity="0.33"/><circle cx="860.7" cy="604.0" r="2.37" fill="#bd6b20" opacity="0.35"/><circle cx="894.7" cy="603.5" r="2.05" fill="#bd6b20" opacity="0.36"/><circle cx="930.6" cy="608.2" r="3.67" fill="#bd6b20" opacity="0.27"/><circle cx="963.8" cy="607.4" r="2.23" fill="#bd6b20" opacity="0.31"/><circle cx="1000.7" cy="609.0" r="1.85" fill="#bd6b20" opacity="0.18"/><circle cx="1038.1" cy="606.6" r="3.61" fill="#bd6b20" opacity="0.28"/><circle cx="1071.9" cy="606.4" r="2.08" fill="#bd6b20" opacity="0.26"/><circle cx="1111.3" cy="605.8" r="2.40" fill="#bd6b20" opacity="0.32"/><circle cx="1143.7" cy="607.8" r="2.84" fill="#bd6b20" opacity="0.20"/><circle cx="1182.6" cy="607.0" r="3.12" fill="#bd6b20" opacity="0.25"/><circle cx="28.0" cy="641.1" r="2.73" fill="#bd6b20" opacity="0.17"/><circle cx="63.7" cy="644.8" r="3.01" fill="#bd6b20" opacity="0.24"/><circle cx="102.3" cy="643.8" r="2.10" fill="#bd6b20" opacity="0.21"/><circle cx="135.5" cy="643.4" r="3.43" fill="#bd6b20" opacity="0.28"/><circle cx="176.5" cy="644.3" r="1.75" fill="#bd6b20" opacity="0.33"/><circle cx="210.0" cy="641.3" r="2.22" fill="#bd6b20" opacity="0.34"/><circle cx="243.2" cy="644.5" r="1.93" fill="#bd6b20" opacity="0.35"/><circle cx="280.9" cy="644.7" r="1.91" fill="#bd6b20" opacity="0.24"/><circle cx="316.1" cy="644.1" r="2.52" fill="#bd6b20" opacity="0.19"/><circle cx="355.3" cy="643.0" r="1.90" fill="#bd6b20" opacity="0.33"/><circle cx="388.5" cy="642.3" r="3.07" fill="#bd6b20" opacity="0.24"/><circle cx="424.5" cy="640.8" r="2.66" fill="#bd6b20" opacity="0.30"/><circle cx="463.7" cy="642.5" r="2.36" fill="#bd6b20" opacity="0.22"/><circle cx="497.3" cy="644.7" r="1.99" fill="#bd6b20" opacity="0.20"/><circle cx="535.0" cy="641.0" r="3.48" fill="#bd6b20" opacity="0.26"/><circle cx="569.6" cy="644.8" r="3.00" fill="#bd6b20" opacity="0.22"/><circle cx="608.1" cy="641.7" r="3.76" fill="#bd6b20" opacity="0.25"/><circle cx="640.9" cy="644.0" r="2.05" fill="#bd6b20" opacity="0.32"/><circle cx="678.1" cy="644.9" r="2.82" fill="#bd6b20" opacity="0.33"/><circle cx="716.8" cy="642.5" r="2.95" fill="#bd6b20" opacity="0.35"/><circle cx="750.7" cy="640.3" r="3.59" fill="#bd6b20" opacity="0.28"/><circle cx="783.7" cy="644.7" r="3.30" fill="#bd6b20" opacity="0.17"/><circle cx="821.6" cy="641.1" r="2.64" fill="#bd6b20" opacity="0.28"/><circle cx="859.8" cy="643.0" r="2.87" fill="#bd6b20" opacity="0.22"/><circle cx="891.1" cy="641.1" r="3.78" fill="#bd6b20" opacity="0.31"/><circle cx="931.7" cy="643.6" r="3.97" fill="#bd6b20" opacity="0.15"/><circle cx="968.9" cy="639.7" r="3.36" fill="#bd6b20" opacity="0.32"/><circle cx="1002.7" cy="640.1" r="3.34" fill="#bd6b20" opacity="0.18"/><circle cx="1036.1" cy="639.1" r="1.88" fill="#bd6b20" opacity="0.27"/><circle cx="1072.3" cy="641.3" r="3.72" fill="#bd6b20" opacity="0.35"/><circle cx="1112.8" cy="640.7" r="2.30" fill="#bd6b20" opacity="0.34"/><circle cx="1147.0" cy="643.8" r="1.72" fill="#bd6b20" opacity="0.19"/><circle cx="1183.7" cy="642.5" r="2.48" fill="#bd6b20" opacity="0.26"/><circle cx="197.3" cy="262.4" r="220" fill="url(#glow)" opacity="0.9"/>
  <g opacity="0.85" transform="translate(1020, 495)">
        <circle r="68" fill="none" stroke="#bd6b20" stroke-width="2" opacity="0.35"/>
        <path d="M -38 12 L 38 12 M -32 -8 L 32 -8 M -45 -28 L 45 -28" stroke="#9a5518" stroke-width="3" stroke-linecap="round"/>
        <rect x="-50" y="-44" width="100" height="80" fill="none" stroke="#bd6b20" stroke-width="2"/>
      </g>
  <g transform="translate(80, 90)">
    <rect x="0" y="0" rx="20" ry="20" width="112" height="38" fill="#bd6b20" opacity="0.18" stroke="#bd6b20" stroke-width="1.5"/>
    <text x="56" y="25" font-family="ui-sans-serif, Inter, sans-serif" font-weight="700" font-size="14" letter-spacing="2.5" fill="#bd6b20" text-anchor="middle">NEWSROOM</text>
  </g>
  <text x="80" y="465" font-family="ui-sans-serif, -apple-system, Segoe UI, Inter, sans-serif" font-weight="800" font-size="44" fill="#12100e" opacity="0.98"><tspan x="80" dy="0">Essar House Precedent:</tspan><tspan x="80" dy="56">Calcutta High Court's View</tspan><tspan x="80" dy="56">on Section 17 and CPC</tspan></text>
  <rect x="0" y="669" width="1200" height="6" fill="url(#gold)"/>
</svg>