<?xml version="1.0" encoding="UTF-8"?>
<svg xmlns="http://www.w3.org/2000/svg" viewBox="0 0 1200 675" width="1200" height="675" role="img" aria-label="Extra">
  <defs>
    <linearGradient id="bg" x1="0%" y1="0%" x2="100%" y2="100%">
      <stop offset="0%" stop-color="#532d15"/>
      <stop offset="100%" stop-color="#bd6b20"/>
    </linearGradient>
    <linearGradient id="gold" x1="0%" y1="0%" x2="100%" y2="100%">
      <stop offset="0%" stop-color="#e09440"/>
      <stop offset="100%" stop-color="#fdf6ee"/>
    </linearGradient>
    <radialGradient id="glow" cx="50%" cy="50%" r="50%">
      <stop offset="0%" stop-color="#e09440" stop-opacity="0.45"/>
      <stop offset="100%" stop-color="#e09440" stop-opacity="0"/>
    </radialGradient>
  </defs>
  <rect width="1200" height="675" fill="url(#bg)"/>
  <rect x="-655.4" y="-80" width="114.0" height="875" transform="rotate(18 -655.4 337.5)" fill="#e09440" opacity="0.17"/><rect x="-522.2" y="-80" width="130.8" height="875" transform="rotate(18 -522.2 337.5)" fill="#e09440" opacity="0.06"/><rect x="-337.1" y="-80" width="79.2" height="875" transform="rotate(18 -337.1 337.5)" fill="#e09440" opacity="0.15"/><rect x="-112.9" y="-80" width="67.0" height="875" transform="rotate(18 -112.9 337.5)" fill="#e09440" opacity="0.07"/><rect x="5.6" y="-80" width="92.8" height="875" transform="rotate(18 5.6 337.5)" fill="#e09440" opacity="0.16"/><rect x="235.2" y="-80" width="80.1" height="875" transform="rotate(18 235.2 337.5)" fill="#e09440" opacity="0.08"/><rect x="409.4" y="-80" width="94.1" height="875" transform="rotate(18 409.4 337.5)" fill="#e09440" opacity="0.11"/><rect x="599.9" y="-80" width="115.2" height="875" transform="rotate(18 599.9 337.5)" fill="#e09440" opacity="0.14"/><rect x="767.9" y="-80" width="94.3" height="875" transform="rotate(18 767.9 337.5)" fill="#e09440" opacity="0.17"/><rect x="949.9" y="-80" width="118.7" height="875" transform="rotate(18 949.9 337.5)" fill="#e09440" opacity="0.13"/><rect x="1086.1" y="-80" width="100.6" height="875" transform="rotate(18 1086.1 337.5)" fill="#e09440" opacity="0.20"/><rect x="1300.8" y="-80" width="85.1" height="875" transform="rotate(18 1300.8 337.5)" fill="#e09440" opacity="0.11"/><rect x="1450.1" y="-80" width="123.0" height="875" transform="rotate(18 1450.1 337.5)" fill="#e09440" opacity="0.10"/><rect x="1632.4" y="-80" width="113.6" height="875" transform="rotate(18 1632.4 337.5)" fill="#e09440" opacity="0.12"/><rect x="0" y="0" width="1200" height="675" fill="url(#glow)" opacity="0.6"/>
  <g opacity="0.85" transform="translate(1020, 495)">
        <polygon points="0,-50 43,25 -43,25" fill="none" stroke="#e09440" stroke-width="2"/>
        <polygon points="0,-30 26,15 -26,15" fill="#fdf6ee" opacity="0.4"/>
      </g>
  <g transform="translate(80, 90)">
    <rect x="0" y="0" rx="20" ry="20" width="145" height="38" fill="#e09440" opacity="0.18" stroke="#e09440" stroke-width="1.5"/>
    <text x="72.5" y="25" font-family="ui-sans-serif, Inter, sans-serif" font-weight="700" font-size="14" letter-spacing="2.5" fill="#e09440" text-anchor="middle">INFORMATION</text>
  </g>
  <text x="80" y="565" font-family="ui-sans-serif, -apple-system, Segoe UI, Inter, sans-serif" font-weight="800" font-size="44" fill="#faf8f5" opacity="0.98"><tspan x="80" dy="0">Extra</tspan></text>
  <rect x="0" y="669" width="1200" height="6" fill="url(#gold)"/>
</svg>