<?xml version="1.0" encoding="UTF-8"?>
<svg xmlns="http://www.w3.org/2000/svg" viewBox="0 0 1200 675" width="1200" height="675" role="img" aria-label="Payment Dispute Resolution: A Case Study in Ghaziabad's Garment Industry">
  <defs>
    <linearGradient id="bg" x1="0%" y1="0%" x2="100%" y2="100%">
      <stop offset="0%" stop-color="#643516"/>
      <stop offset="100%" stop-color="#7d4315"/>
    </linearGradient>
    <linearGradient id="gold" x1="0%" y1="0%" x2="100%" y2="100%">
      <stop offset="0%" stop-color="#ecb478"/>
      <stop offset="100%" stop-color="#faebd6"/>
    </linearGradient>
    <radialGradient id="glow" cx="50%" cy="50%" r="50%">
      <stop offset="0%" stop-color="#ecb478" stop-opacity="0.45"/>
      <stop offset="100%" stop-color="#ecb478" stop-opacity="0"/>
    </radialGradient>
  </defs>
  <rect width="1200" height="675" fill="url(#bg)"/>
  <circle cx="840.0" cy="135.0" r="240" fill="url(#glow)" opacity="0.8"/><polygon points="1098.9,101.9 1117.0,138.0 1080.8,138.0" fill="#f4d2ac" opacity="0.20"/><circle cx="667.1" cy="95.3" r="26.7" fill="#faebd6" opacity="0.28"/><polygon points="570.1,102.4 597.4,156.9 542.8,156.9" fill="#f4d2ac" opacity="0.33"/><rect x="485.1" y="308.8" width="14.4" height="14.4" rx="4" transform="rotate(179.9 492.3 316.0)" fill="#ecb478" opacity="0.32"/><circle cx="1132.2" cy="310.6" r="25.8" fill="#faebd6" opacity="0.24"/><circle cx="640.1" cy="41.2" r="28.9" fill="#faebd6" opacity="0.14"/><rect x="771.6" y="245.8" width="46.5" height="46.5" rx="4" transform="rotate(87.6 794.9 269.1)" fill="#ecb478" opacity="0.29"/><rect x="1065.0" y="371.9" width="45.1" height="45.1" rx="4" transform="rotate(138.4 1087.5 394.4)" fill="#ecb478" opacity="0.21"/><rect x="525.1" y="345.3" width="57.9" height="57.9" rx="4" transform="rotate(188.8 554.0 374.3)" fill="#ecb478" opacity="0.15"/><rect x="1087.8" y="189.7" width="63.9" height="63.9" rx="4" transform="rotate(328.0 1119.7 221.6)" fill="#ecb478" opacity="0.26"/><circle cx="1095.2" cy="55.9" r="22.7" fill="#faebd6" opacity="0.21"/><circle cx="65.6" cy="571.3" r="27.4" fill="#faebd6" opacity="0.35"/><polygon points="1103.8,376.2 1117.8,404.2 1089.8,404.2" fill="#f4d2ac" opacity="0.35"/><polygon points="67.4,351.3 97.0,410.6 37.7,410.6" fill="#f4d2ac" opacity="0.34"/><rect x="789.5" y="403.2" width="53.6" height="53.6" rx="4" transform="rotate(290.3 816.3 430.0)" fill="#ecb478" opacity="0.13"/><polygon points="69.7,298.6 96.0,351.2 43.4,351.2" fill="#f4d2ac" opacity="0.28"/><polygon points="666.4,7.3 677.9,30.2 654.9,30.2" fill="#f4d2ac" opacity="0.24"/><circle cx="1033.4" cy="103.5" r="12.3" fill="#faebd6" opacity="0.15"/><circle cx="592.6" cy="415.0" r="14.8" fill="#faebd6" opacity="0.16"/><circle cx="961.8" cy="512.5" r="18.6" fill="#faebd6" opacity="0.34"/><rect x="331.8" y="374.1" width="21.2" height="21.2" rx="4" transform="rotate(114.6 342.4 384.7)" fill="#ecb478" opacity="0.24"/><rect x="767.8" y="454.4" width="45.1" height="45.1" rx="4" transform="rotate(247.6 790.4 476.9)" fill="#ecb478" opacity="0.35"/>
  <g opacity="0.85" transform="translate(1020, 495)">
        <circle r="60" fill="#ecb478" opacity="0.18"/>
        <path d="M -34 6 Q -10 -22 14 6 Q 34 24 14 26 L -22 26 Q -38 24 -34 6 Z" fill="none" stroke="#faebd6" stroke-width="3" stroke-linejoin="round"/>
      </g>
  <g transform="translate(80, 90)">
    <rect x="0" y="0" rx="20" ry="20" width="134" height="38" fill="#ecb478" opacity="0.18" stroke="#ecb478" stroke-width="1.5"/>
    <text x="67" y="25" font-family="ui-sans-serif, Inter, sans-serif" font-weight="700" font-size="14" letter-spacing="2.5" fill="#ecb478" text-anchor="middle">CASE STUDY</text>
  </g>
  <text x="80" y="465" font-family="ui-sans-serif, -apple-system, Segoe UI, Inter, sans-serif" font-weight="800" font-size="44" fill="#faf8f5" opacity="0.98"><tspan x="80" dy="0">Payment Dispute</tspan><tspan x="80" dy="56">Resolution: A Case Study</tspan><tspan x="80" dy="56">in Ghaziabad's Garment</tspan></text>
  <rect x="0" y="669" width="1200" height="6" fill="url(#gold)"/>
</svg>