<?xml version="1.0" encoding="UTF-8"?>
<svg xmlns="http://www.w3.org/2000/svg" viewBox="0 0 1200 675" width="1200" height="675" role="img" aria-label="Resolving a Payment Dispute in Mumbai: A PDR COURT Success Story">
  <defs>
    <linearGradient id="bg" x1="0%" y1="0%" x2="100%" y2="100%">
      <stop offset="0%" stop-color="#532d15"/>
      <stop offset="100%" stop-color="#bd6b20"/>
    </linearGradient>
    <linearGradient id="gold" x1="0%" y1="0%" x2="100%" y2="100%">
      <stop offset="0%" stop-color="#e09440"/>
      <stop offset="100%" stop-color="#fdf6ee"/>
    </linearGradient>
    <radialGradient id="glow" cx="50%" cy="50%" r="50%">
      <stop offset="0%" stop-color="#e09440" stop-opacity="0.45"/>
      <stop offset="100%" stop-color="#e09440" stop-opacity="0"/>
    </radialGradient>
  </defs>
  <rect width="1200" height="675" fill="url(#bg)"/>
  <rect x="-675.8" y="-80" width="93.7" height="875" transform="rotate(18 -675.8 337.5)" fill="#e09440" opacity="0.08"/><rect x="-514.1" y="-80" width="131.7" height="875" transform="rotate(18 -514.1 337.5)" fill="#e09440" opacity="0.05"/><rect x="-302.2" y="-80" width="133.4" height="875" transform="rotate(18 -302.2 337.5)" fill="#e09440" opacity="0.07"/><rect x="-138.5" y="-80" width="70.7" height="875" transform="rotate(18 -138.5 337.5)" fill="#e09440" opacity="0.20"/><rect x="72.8" y="-80" width="112.1" height="875" transform="rotate(18 72.8 337.5)" fill="#e09440" opacity="0.13"/><rect x="240.6" y="-80" width="86.7" height="875" transform="rotate(18 240.6 337.5)" fill="#e09440" opacity="0.16"/><rect x="384.8" y="-80" width="115.4" height="875" transform="rotate(18 384.8 337.5)" fill="#e09440" opacity="0.16"/><rect x="575.4" y="-80" width="136.2" height="875" transform="rotate(18 575.4 337.5)" fill="#e09440" opacity="0.19"/><rect x="797.3" y="-80" width="82.8" height="875" transform="rotate(18 797.3 337.5)" fill="#e09440" opacity="0.10"/><rect x="947.4" y="-80" width="60.6" height="875" transform="rotate(18 947.4 337.5)" fill="#e09440" opacity="0.09"/><rect x="1154.9" y="-80" width="112.7" height="875" transform="rotate(18 1154.9 337.5)" fill="#e09440" opacity="0.09"/><rect x="1295.9" y="-80" width="61.9" height="875" transform="rotate(18 1295.9 337.5)" fill="#e09440" opacity="0.19"/><rect x="1490.1" y="-80" width="73.4" height="875" transform="rotate(18 1490.1 337.5)" fill="#e09440" opacity="0.12"/><rect x="1666.1" y="-80" width="103.1" height="875" transform="rotate(18 1666.1 337.5)" fill="#e09440" opacity="0.14"/><rect x="0" y="0" width="1200" height="675" fill="url(#glow)" opacity="0.6"/>
  <g opacity="0.85" transform="translate(1020, 495)">
        <circle r="60" fill="#e09440" opacity="0.18"/>
        <path d="M -34 6 Q -10 -22 14 6 Q 34 24 14 26 L -22 26 Q -38 24 -34 6 Z" fill="none" stroke="#fdf6ee" stroke-width="3" stroke-linejoin="round"/>
      </g>
  <g transform="translate(80, 90)">
    <rect x="0" y="0" rx="20" ry="20" width="134" height="38" fill="#e09440" opacity="0.18" stroke="#e09440" stroke-width="1.5"/>
    <text x="67" y="25" font-family="ui-sans-serif, Inter, sans-serif" font-weight="700" font-size="14" letter-spacing="2.5" fill="#e09440" text-anchor="middle">CASE STUDY</text>
  </g>
  <text x="80" y="465" font-family="ui-sans-serif, -apple-system, Segoe UI, Inter, sans-serif" font-weight="800" font-size="44" fill="#faf8f5" opacity="0.98"><tspan x="80" dy="0">Resolving a Payment</tspan><tspan x="80" dy="56">Dispute in Mumbai: A PDR</tspan><tspan x="80" dy="56">COURT Success Story</tspan></text>
  <rect x="0" y="669" width="1200" height="6" fill="url(#gold)"/>
</svg>