<?xml version="1.0" encoding="UTF-8"?>
<svg xmlns="http://www.w3.org/2000/svg" viewBox="0 0 1200 675" width="1200" height="675" role="img" aria-label="Resolving a Financial Dispute: PDR COURT's Success Story in Trikuta Nagar, Jammu">
  <defs>
    <linearGradient id="bg" x1="0%" y1="0%" x2="100%" y2="100%">
      <stop offset="0%" stop-color="#532d15"/>
      <stop offset="100%" stop-color="#bd6b20"/>
    </linearGradient>
    <linearGradient id="gold" x1="0%" y1="0%" x2="100%" y2="100%">
      <stop offset="0%" stop-color="#e09440"/>
      <stop offset="100%" stop-color="#fdf6ee"/>
    </linearGradient>
    <radialGradient id="glow" cx="50%" cy="50%" r="50%">
      <stop offset="0%" stop-color="#e09440" stop-opacity="0.45"/>
      <stop offset="100%" stop-color="#e09440" stop-opacity="0"/>
    </radialGradient>
  </defs>
  <rect width="1200" height="675" fill="url(#bg)"/>
  <polygon points="-50,241.5 -20,247.6 10,254.3 40,261.5 70,268.9 100,276.4 130,283.9 160,291.1 190,297.9 220,304.2 250,309.8 280,314.6 310,318.4 340,321.3 370,323.1 400,323.7 430,323.3 460,321.7 490,319.0 520,315.3 550,310.7 580,305.3 610,299.1 640,292.3 670,285.2 700,277.7 730,270.2 760,262.8 790,255.6 820,248.8 850,242.5 880,237.0 910,232.2 940,228.4 970,225.7 1000,223.9 1030,223.3 1060,223.9 1090,225.5 1120,228.2 1150,232.0 1180,236.7 1210,242.2 1240,248.4 1250,725 -50,725" fill="#e09440" opacity="0.08"/><polygon points="-50,312.5 -20,302.0 10,292.4 40,283.7 70,276.2 100,270.1 130,265.5 160,262.4 190,261.1 220,261.5 250,263.5 280,267.2 310,272.5 340,279.3 370,287.3 400,296.4 430,306.5 460,317.2 490,328.4 520,339.8 550,351.1 580,362.1 610,372.5 640,382.1 670,390.8 700,398.2 730,404.2 760,408.7 790,411.7 820,412.9 850,412.4 880,410.3 910,406.5 940,401.1 970,394.3 1000,386.2 1030,377.0 1060,366.9 1090,356.2 1120,345.0 1150,333.6 1180,322.3 1210,311.3 1240,300.9 1250,725 -50,725" fill="#e09440" opacity="0.13"/><polygon points="-50,371.2 -20,378.0 10,385.3 40,393.0 70,400.9 100,408.8 130,416.6 160,424.0 190,430.9 220,437.2 250,442.7 280,447.3 310,450.8 340,453.3 370,454.6 400,454.7 430,453.6 460,451.4 490,448.1 520,443.7 550,438.4 580,432.2 610,425.4 640,418.1 670,410.4 700,402.5 730,394.6 760,386.9 790,379.5 820,372.6 850,366.3 880,360.9 910,356.4 940,352.9 970,350.5 1000,349.2 1030,349.2 1060,350.3 1090,352.6 1120,356.0 1150,360.4 1180,365.8 1210,372.0 1240,378.8 1250,725 -50,725" fill="#e09440" opacity="0.18"/><polygon points="-50,523.4 -20,530.3 10,535.9 40,540.1 70,542.9 100,544.0 130,543.6 160,541.6 190,538.1 220,533.1 250,526.8 280,519.3 310,510.8 340,501.5 370,491.5 400,481.1 430,470.6 460,460.1 490,449.9 520,440.3 550,431.4 580,423.5 610,416.7 640,411.1 670,407.0 700,404.4 730,403.3 760,403.8 790,405.9 820,409.5 850,414.5 880,420.9 910,428.5 940,437.0 970,446.4 1000,456.4 1030,466.8 1060,477.4 1090,487.8 1120,498.0 1150,507.6 1180,516.4 1210,524.3 1240,531.0 1250,725 -50,725" fill="#e09440" opacity="0.23"/><circle cx="300.0" cy="189.0" r="160" fill="url(#glow)"/>
  <g opacity="0.85" transform="translate(1020, 495)">
        <circle r="60" fill="#e09440" opacity="0.18"/>
        <path d="M -34 6 Q -10 -22 14 6 Q 34 24 14 26 L -22 26 Q -38 24 -34 6 Z" fill="none" stroke="#fdf6ee" stroke-width="3" stroke-linejoin="round"/>
      </g>
  <g transform="translate(80, 90)">
    <rect x="0" y="0" rx="20" ry="20" width="134" height="38" fill="#e09440" opacity="0.18" stroke="#e09440" stroke-width="1.5"/>
    <text x="67" y="25" font-family="ui-sans-serif, Inter, sans-serif" font-weight="700" font-size="14" letter-spacing="2.5" fill="#e09440" text-anchor="middle">CASE STUDY</text>
  </g>
  <text x="80" y="465" font-family="ui-sans-serif, -apple-system, Segoe UI, Inter, sans-serif" font-weight="800" font-size="44" fill="#faf8f5" opacity="0.98"><tspan x="80" dy="0">Resolving a Financial</tspan><tspan x="80" dy="56">Dispute: PDR COURT's</tspan><tspan x="80" dy="56">Success Story in Trikuta</tspan></text>
  <rect x="0" y="669" width="1200" height="6" fill="url(#gold)"/>
</svg>