<?xml version="1.0" encoding="UTF-8"?>
<svg xmlns="http://www.w3.org/2000/svg" viewBox="0 0 1200 675" width="1200" height="675" role="img" aria-label="Innovative ADR for Financial Institutions">
  <defs>
    <linearGradient id="bg" x1="0%" y1="0%" x2="100%" y2="100%">
      <stop offset="0%" stop-color="#faf8f5"/>
      <stop offset="100%" stop-color="#f4efe8"/>
    </linearGradient>
    <linearGradient id="gold" x1="0%" y1="0%" x2="100%" y2="100%">
      <stop offset="0%" stop-color="#bd6b20"/>
      <stop offset="100%" stop-color="#9a5518"/>
    </linearGradient>
    <radialGradient id="glow" cx="50%" cy="50%" r="50%">
      <stop offset="0%" stop-color="#bd6b20" stop-opacity="0.45"/>
      <stop offset="100%" stop-color="#bd6b20" stop-opacity="0"/>
    </radialGradient>
  </defs>
  <rect width="1200" height="675" fill="url(#bg)"/>
  <circle cx="840.0" cy="135.0" r="240" fill="url(#glow)" opacity="0.8"/><rect x="1152.5" y="282.6" width="25.8" height="25.8" rx="4" transform="rotate(292.7 1165.4 295.5)" fill="#bd6b20" opacity="0.27"/><circle cx="617.7" cy="101.4" r="14.6" fill="#9a5518" opacity="0.24"/><polygon points="952.5,435.6 963.4,457.4 941.6,457.4" fill="#ecb478" opacity="0.32"/><polygon points="458.5,243.9 488.5,303.8 428.6,303.8" fill="#ecb478" opacity="0.32"/><circle cx="1148.7" cy="209.0" r="15.0" fill="#9a5518" opacity="0.23"/><polygon points="416.2,53.2 442.4,105.5 390.1,105.5" fill="#ecb478" opacity="0.30"/><rect x="542.1" y="174.1" width="36.9" height="36.9" rx="4" transform="rotate(202.7 560.6 192.5)" fill="#bd6b20" opacity="0.31"/><circle cx="1113.2" cy="264.6" r="8.5" fill="#9a5518" opacity="0.16"/><circle cx="1033.3" cy="320.1" r="24.9" fill="#9a5518" opacity="0.35"/><circle cx="240.1" cy="412.0" r="21.4" fill="#9a5518" opacity="0.24"/><circle cx="829.4" cy="50.6" r="20.5" fill="#9a5518" opacity="0.29"/><polygon points="726.2,9.5 735.1,27.4 717.2,27.4" fill="#ecb478" opacity="0.20"/><polygon points="292.2,19.4 313.5,61.9 271.0,61.9" fill="#ecb478" opacity="0.11"/><rect x="761.0" y="465.1" width="60.5" height="60.5" rx="4" transform="rotate(23.8 791.2 495.3)" fill="#bd6b20" opacity="0.15"/><circle cx="701.0" cy="166.6" r="25.6" fill="#9a5518" opacity="0.27"/><rect x="84.8" y="540.3" width="55.0" height="55.0" rx="4" transform="rotate(86.5 112.3 567.8)" fill="#bd6b20" opacity="0.35"/><polygon points="306.4,61.9 318.5,86.0 294.4,86.0" fill="#ecb478" opacity="0.31"/><rect x="1145.5" y="77.1" width="51.7" height="51.7" rx="4" transform="rotate(242.9 1171.4 102.9)" fill="#bd6b20" opacity="0.17"/><rect x="1064.4" y="11.7" width="17.1" height="17.1" rx="4" transform="rotate(297.6 1073.0 20.3)" fill="#bd6b20" opacity="0.34"/><rect x="764.3" y="285.5" width="60.0" height="60.0" rx="4" transform="rotate(202.3 794.3 315.5)" fill="#bd6b20" opacity="0.11"/><rect x="1106.6" y="86.8" width="47.3" height="47.3" rx="4" transform="rotate(63.7 1130.2 110.4)" fill="#bd6b20" opacity="0.33"/><rect x="461.5" y="21.1" width="42.4" height="42.4" rx="4" transform="rotate(197.4 482.7 42.3)" fill="#bd6b20" opacity="0.12"/>
  <g opacity="0.85" transform="translate(1020, 495)">
        <polygon points="0,-50 43,25 -43,25" fill="none" stroke="#bd6b20" stroke-width="2"/>
        <polygon points="0,-30 26,15 -26,15" fill="#9a5518" opacity="0.4"/>
      </g>
  <g transform="translate(80, 90)">
    <rect x="0" y="0" rx="20" ry="20" width="145" height="38" fill="#bd6b20" opacity="0.18" stroke="#bd6b20" stroke-width="1.5"/>
    <text x="72.5" y="25" font-family="ui-sans-serif, Inter, sans-serif" font-weight="700" font-size="14" letter-spacing="2.5" fill="#bd6b20" text-anchor="middle">INFORMATION</text>
  </g>
  <text x="80" y="515" font-family="ui-sans-serif, -apple-system, Segoe UI, Inter, sans-serif" font-weight="800" font-size="44" fill="#12100e" opacity="0.98"><tspan x="80" dy="0">Innovative ADR for</tspan><tspan x="80" dy="56">Financial Institutions</tspan></text>
  <rect x="0" y="669" width="1200" height="6" fill="url(#gold)"/>
</svg>