<?xml version="1.0" encoding="UTF-8"?>
<svg xmlns="http://www.w3.org/2000/svg" viewBox="0 0 1200 675" width="1200" height="675" role="img" aria-label="5 Ways Section 43B(h) Affects Businesses">
  <defs>
    <linearGradient id="bg" x1="0%" y1="0%" x2="100%" y2="100%">
      <stop offset="0%" stop-color="#532d15"/>
      <stop offset="100%" stop-color="#bd6b20"/>
    </linearGradient>
    <linearGradient id="gold" x1="0%" y1="0%" x2="100%" y2="100%">
      <stop offset="0%" stop-color="#e09440"/>
      <stop offset="100%" stop-color="#fdf6ee"/>
    </linearGradient>
    <radialGradient id="glow" cx="50%" cy="50%" r="50%">
      <stop offset="0%" stop-color="#e09440" stop-opacity="0.45"/>
      <stop offset="100%" stop-color="#e09440" stop-opacity="0"/>
    </radialGradient>
  </defs>
  <rect width="1200" height="675" fill="url(#bg)"/>
  <polygon points="-50,260.5 -20,261.8 10,263.8 40,266.5 70,269.8 100,273.7 130,277.9 160,282.6 190,287.4 220,292.4 250,297.5 280,302.4 310,307.1 340,311.5 370,315.6 400,319.1 430,322.0 460,324.3 490,325.9 520,326.8 550,326.9 580,326.3 610,324.9 640,322.8 670,320.1 700,316.7 730,312.9 760,308.6 790,303.9 820,299.0 850,294.0 880,289.0 910,284.1 940,279.4 970,275.0 1000,271.0 1030,267.5 1060,264.6 1090,262.4 1120,260.8 1150,260.0 1180,259.9 1210,260.6 1240,262.0 1250,725 -50,725" fill="#e09440" opacity="0.08"/><polygon points="-50,357.6 -20,363.1 10,368.6 40,374.0 70,379.2 100,384.0 130,388.4 160,392.2 190,395.4 220,397.9 250,399.6 280,400.5 310,400.5 340,399.8 370,398.2 400,395.9 430,392.9 460,389.1 490,384.9 520,380.1 550,375.0 580,369.6 610,364.1 640,358.6 670,353.2 700,348.1 730,343.3 760,338.9 790,335.1 820,332.0 850,329.5 880,327.9 910,327.0 940,327.0 970,327.8 1000,329.4 1030,331.8 1060,334.9 1090,338.6 1120,342.9 1150,347.7 1180,352.8 1210,358.2 1240,363.7 1250,725 -50,725" fill="#e09440" opacity="0.13"/><polygon points="-50,424.8 -20,418.7 10,412.3 40,405.8 70,399.4 100,393.2 130,387.3 160,381.9 190,377.0 220,372.9 250,369.6 280,367.1 310,365.6 340,365.0 370,365.4 400,366.8 430,369.1 460,372.2 490,376.2 520,380.9 550,386.2 580,392.0 610,398.2 640,404.6 670,411.1 700,417.5 730,423.7 760,429.6 790,435.0 820,439.8 850,443.8 880,447.1 910,449.5 940,451.0 970,451.5 1000,451.1 1030,449.7 1060,447.3 1090,444.1 1120,440.1 1150,435.3 1180,430.0 1210,424.2 1240,418.0 1250,725 -50,725" fill="#e09440" opacity="0.18"/><polygon points="-50,461.5 -20,458.7 10,456.5 40,455.0 70,454.2 100,454.2 130,454.9 160,456.3 190,458.4 220,461.2 250,464.5 280,468.3 310,472.6 340,477.1 370,481.9 400,486.8 430,491.7 460,496.5 490,501.1 520,505.4 550,509.2 580,512.6 610,515.4 640,517.5 670,518.9 700,519.7 730,519.7 760,518.9 790,517.5 820,515.3 850,512.5 880,509.2 910,505.3 940,501.1 970,496.5 1000,491.7 1030,486.8 1060,481.9 1090,477.1 1120,472.5 1150,468.3 1180,464.4 1210,461.1 1240,458.4 1250,725 -50,725" fill="#e09440" opacity="0.23"/><circle cx="300.0" cy="189.0" r="160" fill="url(#glow)"/>
  <g opacity="0.85" transform="translate(1020, 495)">
        <circle r="68" fill="none" stroke="#e09440" stroke-width="2" opacity="0.35"/>
        <path d="M -38 12 L 38 12 M -32 -8 L 32 -8 M -45 -28 L 45 -28" stroke="#fdf6ee" stroke-width="3" stroke-linecap="round"/>
        <rect x="-50" y="-44" width="100" height="80" fill="none" stroke="#e09440" stroke-width="2"/>
      </g>
  <g transform="translate(80, 90)">
    <rect x="0" y="0" rx="20" ry="20" width="112" height="38" fill="#e09440" opacity="0.18" stroke="#e09440" stroke-width="1.5"/>
    <text x="56" y="25" font-family="ui-sans-serif, Inter, sans-serif" font-weight="700" font-size="14" letter-spacing="2.5" fill="#e09440" text-anchor="middle">NEWSROOM</text>
  </g>
  <text x="80" y="515" font-family="ui-sans-serif, -apple-system, Segoe UI, Inter, sans-serif" font-weight="800" font-size="44" fill="#faf8f5" opacity="0.98"><tspan x="80" dy="0">5 Ways Section 43B(h)</tspan><tspan x="80" dy="56">Affects Businesses</tspan></text>
  <rect x="0" y="669" width="1200" height="6" fill="url(#gold)"/>
</svg>