<?xml version="1.0" encoding="UTF-8"?>
<svg xmlns="http://www.w3.org/2000/svg" viewBox="0 0 1200 675" width="1200" height="675" role="img" aria-label="Financial Dispute Resolution Case Study: PDR COURT's Success in New Delhi">
  <defs>
    <linearGradient id="bg" x1="0%" y1="0%" x2="100%" y2="100%">
      <stop offset="0%" stop-color="#faf8f5"/>
      <stop offset="100%" stop-color="#f4efe8"/>
    </linearGradient>
    <linearGradient id="gold" x1="0%" y1="0%" x2="100%" y2="100%">
      <stop offset="0%" stop-color="#bd6b20"/>
      <stop offset="100%" stop-color="#9a5518"/>
    </linearGradient>
    <radialGradient id="glow" cx="50%" cy="50%" r="50%">
      <stop offset="0%" stop-color="#bd6b20" stop-opacity="0.45"/>
      <stop offset="100%" stop-color="#bd6b20" stop-opacity="0"/>
    </radialGradient>
  </defs>
  <rect width="1200" height="675" fill="url(#bg)"/>
  <circle cx="216" cy="236.24999999999997" r="350.3102164552547" fill="url(#glow)" opacity="0.8"/><circle cx="1078.3" cy="453.7" r="174.1" fill="#bd6b20" opacity="0.10"/><circle cx="735.4" cy="338.3" r="74.8" fill="#bd6b20" opacity="0.09"/><circle cx="219.2" cy="81.8" r="259.1" fill="#bd6b20" opacity="0.17"/><circle cx="981.7" cy="25.4" r="274.8" fill="#bd6b20" opacity="0.17"/><circle cx="262.6" cy="391.0" r="119.7" fill="#bd6b20" opacity="0.16"/><circle cx="984.0" cy="168.8" r="220" fill="none" stroke="#9a5518" stroke-width="1.5" opacity="0.4"/>
  <g opacity="0.85" transform="translate(1020, 495)">
        <circle r="60" fill="#bd6b20" opacity="0.18"/>
        <path d="M -34 6 Q -10 -22 14 6 Q 34 24 14 26 L -22 26 Q -38 24 -34 6 Z" fill="none" stroke="#9a5518" stroke-width="3" stroke-linejoin="round"/>
      </g>
  <g transform="translate(80, 90)">
    <rect x="0" y="0" rx="20" ry="20" width="134" height="38" fill="#bd6b20" opacity="0.18" stroke="#bd6b20" stroke-width="1.5"/>
    <text x="67" y="25" font-family="ui-sans-serif, Inter, sans-serif" font-weight="700" font-size="14" letter-spacing="2.5" fill="#bd6b20" text-anchor="middle">CASE STUDY</text>
  </g>
  <text x="80" y="465" font-family="ui-sans-serif, -apple-system, Segoe UI, Inter, sans-serif" font-weight="800" font-size="44" fill="#12100e" opacity="0.98"><tspan x="80" dy="0">Financial Dispute</tspan><tspan x="80" dy="56">Resolution Case Study: PDR</tspan><tspan x="80" dy="56">COURT's Success in New</tspan></text>
  <rect x="0" y="669" width="1200" height="6" fill="url(#gold)"/>
</svg>