<?xml version="1.0" encoding="UTF-8"?>
<svg xmlns="http://www.w3.org/2000/svg" viewBox="0 0 1200 675" width="1200" height="675" role="img" aria-label="Dispute Resolution Centre | Debt Recovery through Arbitration | Employee Mediation">
  <defs>
    <linearGradient id="bg" x1="0%" y1="0%" x2="100%" y2="100%">
      <stop offset="0%" stop-color="#643516"/>
      <stop offset="100%" stop-color="#7d4315"/>
    </linearGradient>
    <linearGradient id="gold" x1="0%" y1="0%" x2="100%" y2="100%">
      <stop offset="0%" stop-color="#ecb478"/>
      <stop offset="100%" stop-color="#faebd6"/>
    </linearGradient>
    <radialGradient id="glow" cx="50%" cy="50%" r="50%">
      <stop offset="0%" stop-color="#ecb478" stop-opacity="0.45"/>
      <stop offset="100%" stop-color="#ecb478" stop-opacity="0"/>
    </radialGradient>
  </defs>
  <rect width="1200" height="675" fill="url(#bg)"/>
  <polygon points="586.9,289.2 527.1,345.3 471.1,285.4 530.9,229.4" fill="#faebd6" opacity="0.19"/><polygon points="519.9,350.1 601.1,176.9 710.5,333.9" fill="#faebd6" opacity="0.12"/><polygon points="761.0,414.7 718.3,448.4 673.1,418.2 687.8,365.8 742.2,363.6" fill="#faebd6" opacity="0.06"/><polygon points="406.9,-38.1 532.9,97.4 352.5,138.8" fill="#faebd6" opacity="0.11"/><polygon points="954.3,479.1 866.6,397.8 916.8,289.2 1035.6,303.4 1058.8,420.8" fill="#faebd6" opacity="0.19"/><polygon points="1186.3,317.8 1012.8,347.7 982.9,174.3 1156.4,144.4" fill="#faebd6" opacity="0.17"/><polygon points="298.4,628.4 187.5,671.4 205.7,553.9" fill="#faebd6" opacity="0.15"/><polygon points="1010.1,-86.2 1058.3,105.5 866.7,153.7 818.5,-38.0" fill="#faebd6" opacity="0.10"/><polygon points="1169.1,138.6 1112.6,129.0 1104.3,72.3 1155.6,47.0 1195.6,87.9" fill="#faebd6" opacity="0.12"/><polygon points="944.6,64.8 1045.8,267.2 843.4,368.4 742.2,166.0" fill="#faebd6" opacity="0.17"/><polygon points="1175.6,243.9 1110.1,336.6 1062.6,233.5" fill="#faebd6" opacity="0.13"/><polygon points="500.1,425.0 333.3,530.9 227.4,364.1 394.2,258.1" fill="#faebd6" opacity="0.18"/><polygon points="555.7,673.4 489.3,604.4 558.2,538.0 624.6,607.0" fill="#faebd6" opacity="0.07"/><polygon points="118.3,423.7 291.9,292.7 422.9,466.2 249.3,597.3" fill="#faebd6" opacity="0.18"/><circle cx="936.0" cy="202.5" r="180" fill="url(#glow)"/>
  <g opacity="0.85" transform="translate(1020, 495)">
        <polygon points="0,-50 43,25 -43,25" fill="none" stroke="#ecb478" stroke-width="2"/>
        <polygon points="0,-30 26,15 -26,15" fill="#faebd6" opacity="0.4"/>
      </g>
  <g transform="translate(80, 90)">
    <rect x="0" y="0" rx="20" ry="20" width="145" height="38" fill="#ecb478" opacity="0.18" stroke="#ecb478" stroke-width="1.5"/>
    <text x="72.5" y="25" font-family="ui-sans-serif, Inter, sans-serif" font-weight="700" font-size="14" letter-spacing="2.5" fill="#ecb478" text-anchor="middle">INFORMATION</text>
  </g>
  <text x="80" y="465" font-family="ui-sans-serif, -apple-system, Segoe UI, Inter, sans-serif" font-weight="800" font-size="44" fill="#faf8f5" opacity="0.98"><tspan x="80" dy="0">Dispute Resolution Centre</tspan><tspan x="80" dy="56">| Debt Recovery through</tspan><tspan x="80" dy="56">Arbitration | Employee</tspan></text>
  <rect x="0" y="669" width="1200" height="6" fill="url(#gold)"/>
</svg>