<?xml version="1.0" encoding="UTF-8"?>
<svg xmlns="http://www.w3.org/2000/svg" viewBox="0 0 1200 675" width="1200" height="675" role="img" aria-label="PDR COURT: 5 Years of Excellence, Zero Challenges">
  <defs>
    <linearGradient id="bg" x1="0%" y1="0%" x2="100%" y2="100%">
      <stop offset="0%" stop-color="#532d15"/>
      <stop offset="100%" stop-color="#bd6b20"/>
    </linearGradient>
    <linearGradient id="gold" x1="0%" y1="0%" x2="100%" y2="100%">
      <stop offset="0%" stop-color="#e09440"/>
      <stop offset="100%" stop-color="#fdf6ee"/>
    </linearGradient>
    <radialGradient id="glow" cx="50%" cy="50%" r="50%">
      <stop offset="0%" stop-color="#e09440" stop-opacity="0.45"/>
      <stop offset="100%" stop-color="#e09440" stop-opacity="0"/>
    </radialGradient>
  </defs>
  <rect width="1200" height="675" fill="url(#bg)"/>
  <polygon points="364.7,581.3 107.1,662.6 165.5,398.9" fill="#fdf6ee" opacity="0.08"/><polygon points="-58.2,410.7 -22.6,316.6 71.4,352.2 35.8,446.3" fill="#fdf6ee" opacity="0.11"/><polygon points="457.5,326.5 445.0,405.3 366.2,417.8 330.0,346.7 386.4,290.3" fill="#fdf6ee" opacity="0.19"/><polygon points="507.6,306.0 535.2,359.5 492.9,402.3 439.1,375.3 448.1,315.8" fill="#fdf6ee" opacity="0.14"/><polygon points="155.9,447.7 66.5,286.2 228.0,196.7 317.5,358.3" fill="#fdf6ee" opacity="0.12"/><polygon points="75.4,324.7 140.6,328.8 156.9,392.1 101.7,427.1 51.4,385.5" fill="#fdf6ee" opacity="0.07"/><polygon points="108.2,122.0 294.0,213.4 202.6,399.2 16.8,307.8" fill="#fdf6ee" opacity="0.17"/><polygon points="946.3,-68.9 1087.8,101.9 917.0,243.4 775.5,72.6" fill="#fdf6ee" opacity="0.15"/><polygon points="150.0,332.3 333.6,262.9 301.9,456.7" fill="#fdf6ee" opacity="0.16"/><polygon points="390.0,392.9 519.8,521.3 391.4,651.0 261.7,522.6" fill="#fdf6ee" opacity="0.06"/><polygon points="444.3,143.0 554.8,180.9 552.8,297.7 441.2,332.0 374.1,236.4" fill="#fdf6ee" opacity="0.13"/><polygon points="781.8,205.3 891.8,91.1 1034.4,160.5 1012.5,317.6 856.3,345.3" fill="#fdf6ee" opacity="0.15"/><polygon points="774.6,485.2 668.5,406.1 790.1,353.7" fill="#fdf6ee" opacity="0.15"/><polygon points="371.7,-32.8 511.6,142.3 336.5,282.1 196.6,107.1" fill="#fdf6ee" opacity="0.11"/><circle cx="936.0" cy="202.5" r="180" fill="url(#glow)"/>
  <g opacity="0.85" transform="translate(1020, 495)">
        <rect x="-46" y="-60" width="92" height="115" fill="#e09440" opacity="0.18" rx="6"/>
        <path d="M -28 -36 L 28 -36 M -28 -12 L 28 -12 M -28 12 L 18 12 M -28 36 L 28 36" stroke="#fdf6ee" stroke-width="3" stroke-linecap="round"/>
      </g>
  <g transform="translate(80, 90)">
    <rect x="0" y="0" rx="20" ry="20" width="101" height="38" fill="#e09440" opacity="0.18" stroke="#e09440" stroke-width="1.5"/>
    <text x="50.5" y="25" font-family="ui-sans-serif, Inter, sans-serif" font-weight="700" font-size="14" letter-spacing="2.5" fill="#e09440" text-anchor="middle">ARTICLE</text>
  </g>
  <text x="80" y="465" font-family="ui-sans-serif, -apple-system, Segoe UI, Inter, sans-serif" font-weight="800" font-size="44" fill="#faf8f5" opacity="0.98"><tspan x="80" dy="0">PDR COURT: 5 Years of</tspan><tspan x="80" dy="56">Excellence, Zero</tspan><tspan x="80" dy="56">Challenges</tspan></text>
  <rect x="0" y="669" width="1200" height="6" fill="url(#gold)"/>
</svg>