<?xml version="1.0" encoding="UTF-8"?>
<svg xmlns="http://www.w3.org/2000/svg" viewBox="0 0 1200 675" width="1200" height="675" role="img" aria-label="Furniture Manufacturing Dispute Resolution Case Study">
  <defs>
    <linearGradient id="bg" x1="0%" y1="0%" x2="100%" y2="100%">
      <stop offset="0%" stop-color="#532d15"/>
      <stop offset="100%" stop-color="#bd6b20"/>
    </linearGradient>
    <linearGradient id="gold" x1="0%" y1="0%" x2="100%" y2="100%">
      <stop offset="0%" stop-color="#e09440"/>
      <stop offset="100%" stop-color="#fdf6ee"/>
    </linearGradient>
    <radialGradient id="glow" cx="50%" cy="50%" r="50%">
      <stop offset="0%" stop-color="#e09440" stop-opacity="0.45"/>
      <stop offset="100%" stop-color="#e09440" stop-opacity="0"/>
    </radialGradient>
  </defs>
  <rect width="1200" height="675" fill="url(#bg)"/>
  <polygon points="-50,336.3 -20,336.0 10,334.4 40,331.7 70,327.8 100,322.9 130,317.0 160,310.3 190,303.0 220,295.2 250,287.0 280,278.8 310,270.6 340,262.6 370,255.0 400,248.1 430,241.8 460,236.5 490,232.2 520,228.9 550,226.9 580,226.0 610,226.4 640,228.0 670,230.9 700,234.8 730,239.8 760,245.7 790,252.4 820,259.8 850,267.6 880,275.8 910,284.1 940,292.3 970,300.2 1000,307.7 1030,314.7 1060,320.8 1090,326.1 1120,330.4 1150,333.6 1180,335.6 1210,336.3 1240,335.9 1250,725 -50,725" fill="#e09440" opacity="0.08"/><polygon points="-50,283.8 -20,276.7 10,271.0 40,266.8 70,264.2 100,263.2 130,263.9 160,266.2 190,270.1 220,275.5 250,282.3 280,290.3 310,299.3 340,309.2 370,319.7 400,330.6 430,341.7 460,352.6 490,363.2 520,373.2 550,382.4 580,390.5 610,397.5 640,403.1 670,407.2 700,409.7 730,410.6 760,409.9 790,407.5 820,403.5 850,398.0 880,391.2 910,383.1 940,374.0 970,364.1 1000,353.5 1030,342.6 1060,331.6 1090,320.7 1120,310.1 1150,300.1 1180,291.0 1210,282.9 1240,276.0 1250,725 -50,725" fill="#e09440" opacity="0.13"/><polygon points="-50,462.9 -20,460.1 10,456.1 40,451.0 70,444.9 100,438.0 130,430.4 160,422.2 190,413.7 220,405.0 250,396.4 280,388.0 310,380.1 340,372.7 370,366.1 400,360.5 430,355.8 460,352.3 490,350.1 520,349.1 550,349.4 580,351.0 610,353.9 640,357.9 670,363.1 700,369.2 730,376.2 760,383.9 790,392.1 820,400.6 850,409.3 880,417.9 910,426.2 940,434.2 970,441.5 1000,448.0 1030,453.6 1060,458.2 1090,461.6 1120,463.8 1150,464.7 1180,464.3 1210,462.6 1240,459.7 1250,725 -50,725" fill="#e09440" opacity="0.18"/><polygon points="-50,523.6 -20,532.7 10,540.5 40,546.9 70,551.7 100,554.9 130,556.4 160,556.0 190,553.9 220,550.1 250,544.7 280,537.7 310,529.4 340,520.0 370,509.6 400,498.4 430,486.8 460,475.0 490,463.2 520,451.8 550,440.9 580,430.9 610,421.9 640,414.1 670,407.8 700,403.0 730,400.0 760,398.6 790,399.0 820,401.2 850,405.1 880,410.7 910,417.7 940,426.1 970,435.6 1000,446.1 1030,457.2 1060,468.9 1090,480.7 1120,492.5 1150,503.9 1180,514.7 1210,524.7 1240,533.6 1250,725 -50,725" fill="#e09440" opacity="0.23"/><circle cx="300.0" cy="189.0" r="160" fill="url(#glow)"/>
  <g opacity="0.85" transform="translate(1020, 495)">
        <circle r="60" fill="#e09440" opacity="0.18"/>
        <path d="M -34 6 Q -10 -22 14 6 Q 34 24 14 26 L -22 26 Q -38 24 -34 6 Z" fill="none" stroke="#fdf6ee" stroke-width="3" stroke-linejoin="round"/>
      </g>
  <g transform="translate(80, 90)">
    <rect x="0" y="0" rx="20" ry="20" width="134" height="38" fill="#e09440" opacity="0.18" stroke="#e09440" stroke-width="1.5"/>
    <text x="67" y="25" font-family="ui-sans-serif, Inter, sans-serif" font-weight="700" font-size="14" letter-spacing="2.5" fill="#e09440" text-anchor="middle">CASE STUDY</text>
  </g>
  <text x="80" y="465" font-family="ui-sans-serif, -apple-system, Segoe UI, Inter, sans-serif" font-weight="800" font-size="44" fill="#faf8f5" opacity="0.98"><tspan x="80" dy="0">Furniture Manufacturing</tspan><tspan x="80" dy="56">Dispute Resolution Case</tspan><tspan x="80" dy="56">Study</tspan></text>
  <rect x="0" y="669" width="1200" height="6" fill="url(#gold)"/>
</svg>