<?xml version="1.0" encoding="UTF-8"?>
<svg xmlns="http://www.w3.org/2000/svg" viewBox="0 0 1200 675" width="1200" height="675" role="img" aria-label="Efficient Dispute Resolution: PDR COURT Resolves Curtain Fabrics Payment Dispute">
  <defs>
    <linearGradient id="bg" x1="0%" y1="0%" x2="100%" y2="100%">
      <stop offset="0%" stop-color="#12100e"/>
      <stop offset="100%" stop-color="#1c1917"/>
    </linearGradient>
    <linearGradient id="gold" x1="0%" y1="0%" x2="100%" y2="100%">
      <stop offset="0%" stop-color="#bd6b20"/>
      <stop offset="100%" stop-color="#e09440"/>
    </linearGradient>
    <radialGradient id="glow" cx="50%" cy="50%" r="50%">
      <stop offset="0%" stop-color="#bd6b20" stop-opacity="0.45"/>
      <stop offset="100%" stop-color="#bd6b20" stop-opacity="0"/>
    </radialGradient>
  </defs>
  <rect width="1200" height="675" fill="url(#bg)"/>
  <circle cx="31.5" cy="29.5" r="2.68" fill="#bd6b20" opacity="0.25"/><circle cx="67.1" cy="30.7" r="2.95" fill="#bd6b20" opacity="0.27"/><circle cx="102.1" cy="32.4" r="3.23" fill="#bd6b20" opacity="0.16"/><circle cx="135.5" cy="27.9" r="3.33" fill="#bd6b20" opacity="0.21"/><circle cx="173.4" cy="32.7" r="2.35" fill="#bd6b20" opacity="0.18"/><circle cx="209.6" cy="28.1" r="2.27" fill="#bd6b20" opacity="0.21"/><circle cx="248.4" cy="28.6" r="3.29" fill="#bd6b20" opacity="0.20"/><circle cx="279.8" cy="30.7" r="3.04" fill="#bd6b20" opacity="0.26"/><circle cx="319.2" cy="31.5" r="3.91" fill="#bd6b20" opacity="0.23"/><circle cx="354.9" cy="27.3" r="2.70" fill="#bd6b20" opacity="0.29"/><circle cx="391.2" cy="32.5" r="2.47" fill="#bd6b20" opacity="0.23"/><circle cx="425.5" cy="33.0" r="3.57" fill="#bd6b20" opacity="0.28"/><circle cx="463.0" cy="27.2" r="1.91" fill="#bd6b20" opacity="0.26"/><circle cx="496.3" cy="31.5" r="2.57" fill="#bd6b20" opacity="0.32"/><circle cx="532.1" cy="28.0" r="2.47" fill="#bd6b20" opacity="0.33"/><circle cx="567.9" cy="30.9" r="3.60" fill="#bd6b20" opacity="0.27"/><circle cx="604.4" cy="28.7" r="3.91" fill="#bd6b20" opacity="0.29"/><circle cx="641.7" cy="28.5" r="2.57" fill="#bd6b20" opacity="0.27"/><circle cx="678.7" cy="32.1" r="1.64" fill="#bd6b20" opacity="0.16"/><circle cx="716.8" cy="29.1" r="2.44" fill="#bd6b20" opacity="0.33"/><circle cx="752.3" cy="28.5" r="3.57" fill="#bd6b20" opacity="0.21"/><circle cx="788.9" cy="28.5" r="2.95" fill="#bd6b20" opacity="0.28"/><circle cx="824.2" cy="32.9" r="3.97" fill="#bd6b20" opacity="0.32"/><circle cx="857.7" cy="32.4" r="3.28" fill="#bd6b20" opacity="0.26"/><circle cx="891.7" cy="31.8" r="3.60" fill="#bd6b20" opacity="0.35"/><circle cx="930.2" cy="29.4" r="1.94" fill="#bd6b20" opacity="0.20"/><circle cx="964.8" cy="30.5" r="1.79" fill="#bd6b20" opacity="0.26"/><circle cx="1002.3" cy="30.5" r="3.01" fill="#bd6b20" opacity="0.32"/><circle cx="1041.0" cy="32.8" r="2.30" fill="#bd6b20" opacity="0.22"/><circle cx="1075.3" cy="27.1" r="2.29" fill="#bd6b20" opacity="0.26"/><circle cx="1111.3" cy="32.4" r="1.73" fill="#bd6b20" opacity="0.31"/><circle cx="1146.7" cy="28.4" r="2.20" fill="#bd6b20" opacity="0.23"/><circle cx="1180.0" cy="29.6" r="3.13" fill="#bd6b20" opacity="0.34"/><circle cx="32.4" cy="68.7" r="2.82" fill="#bd6b20" opacity="0.26"/><circle cx="65.3" cy="64.9" r="2.54" fill="#bd6b20" opacity="0.19"/><circle cx="103.7" cy="67.5" r="3.82" fill="#bd6b20" opacity="0.16"/><circle cx="137.4" cy="66.4" r="3.38" fill="#bd6b20" opacity="0.23"/><circle cx="174.0" cy="66.4" r="3.27" fill="#bd6b20" opacity="0.32"/><circle cx="212.4" cy="66.9" r="3.52" fill="#bd6b20" opacity="0.20"/><circle cx="243.4" cy="66.0" r="3.72" fill="#bd6b20" opacity="0.16"/><circle cx="280.0" cy="65.5" r="1.68" fill="#bd6b20" opacity="0.33"/><circle cx="315.1" cy="67.7" r="2.98" fill="#bd6b20" opacity="0.20"/><circle cx="356.4" cy="65.7" r="3.89" fill="#bd6b20" opacity="0.35"/><circle cx="387.8" cy="63.7" r="2.69" fill="#bd6b20" opacity="0.30"/><circle cx="428.6" cy="66.1" r="3.92" fill="#bd6b20" opacity="0.34"/><circle cx="463.7" cy="63.3" r="3.54" fill="#bd6b20" opacity="0.25"/><circle cx="495.8" cy="66.3" r="2.81" fill="#bd6b20" opacity="0.21"/><circle cx="531.9" cy="64.7" r="3.93" fill="#bd6b20" opacity="0.16"/><circle cx="572.8" cy="64.1" r="1.75" fill="#bd6b20" opacity="0.34"/><circle cx="607.4" cy="65.0" r="3.67" fill="#bd6b20" opacity="0.26"/><circle cx="641.0" cy="66.1" r="3.67" fill="#bd6b20" opacity="0.35"/><circle cx="679.5" cy="64.2" r="2.24" fill="#bd6b20" opacity="0.33"/><circle cx="711.2" cy="63.2" r="1.70" fill="#bd6b20" opacity="0.15"/><circle cx="749.7" cy="66.8" r="2.48" fill="#bd6b20" opacity="0.28"/><circle cx="784.1" cy="67.7" r="3.64" fill="#bd6b20" opacity="0.29"/><circle cx="822.3" cy="63.6" r="3.63" fill="#bd6b20" opacity="0.18"/><circle cx="855.3" cy="67.2" r="3.30" fill="#bd6b20" opacity="0.20"/><circle cx="891.2" cy="63.7" r="2.46" fill="#bd6b20" opacity="0.34"/><circle cx="931.0" cy="67.9" r="3.15" fill="#bd6b20" opacity="0.16"/><circle cx="964.8" cy="64.6" r="3.60" fill="#bd6b20" opacity="0.21"/><circle cx="999.3" cy="63.1" r="2.19" fill="#bd6b20" opacity="0.30"/><circle cx="1040.8" cy="64.8" r="2.44" fill="#bd6b20" opacity="0.26"/><circle cx="1073.3" cy="66.1" r="2.13" fill="#bd6b20" opacity="0.25"/><circle cx="1112.8" cy="68.5" r="2.19" fill="#bd6b20" opacity="0.23"/><circle cx="1144.2" cy="63.6" r="1.90" fill="#bd6b20" opacity="0.19"/><circle cx="1184.4" cy="65.9" r="3.70" fill="#bd6b20" opacity="0.22"/><circle cx="33.0" cy="99.1" r="2.76" fill="#bd6b20" opacity="0.27"/><circle cx="66.9" cy="99.8" r="3.38" fill="#bd6b20" opacity="0.29"/><circle cx="99.9" cy="101.0" r="3.61" fill="#bd6b20" opacity="0.31"/><circle cx="139.6" cy="101.9" r="1.97" fill="#bd6b20" opacity="0.34"/><circle cx="173.2" cy="100.1" r="2.65" fill="#bd6b20" opacity="0.24"/><circle cx="211.5" cy="102.6" r="3.47" fill="#bd6b20" opacity="0.16"/><circle cx="248.5" cy="101.1" r="2.43" fill="#bd6b20" opacity="0.20"/><circle cx="283.3" cy="102.9" r="1.98" fill="#bd6b20" opacity="0.29"/><circle cx="316.2" cy="103.3" r="3.85" fill="#bd6b20" opacity="0.17"/><circle cx="354.2" cy="99.9" r="1.73" fill="#bd6b20" opacity="0.33"/><circle cx="388.6" cy="99.6" r="2.59" fill="#bd6b20" opacity="0.22"/><circle cx="423.9" cy="102.8" r="3.42" fill="#bd6b20" opacity="0.32"/><circle cx="460.6" cy="99.9" r="3.16" fill="#bd6b20" opacity="0.19"/><circle cx="496.0" cy="99.8" r="3.45" fill="#bd6b20" opacity="0.28"/><circle cx="534.7" cy="102.7" r="3.98" fill="#bd6b20" opacity="0.36"/><circle cx="568.4" cy="102.7" r="2.89" fill="#bd6b20" opacity="0.15"/><circle cx="606.0" cy="100.1" r="3.56" fill="#bd6b20" opacity="0.23"/><circle cx="642.9" cy="103.3" r="3.73" fill="#bd6b20" opacity="0.21"/><circle cx="678.8" cy="100.1" r="2.84" fill="#bd6b20" opacity="0.27"/><circle cx="715.1" cy="102.9" r="3.79" fill="#bd6b20" opacity="0.22"/><circle cx="752.6" cy="102.8" r="3.11" fill="#bd6b20" opacity="0.30"/><circle cx="783.3" cy="102.2" r="3.03" fill="#bd6b20" opacity="0.26"/><circle cx="823.6" cy="102.7" r="3.18" fill="#bd6b20" opacity="0.24"/><circle cx="855.2" cy="99.3" r="3.69" fill="#bd6b20" opacity="0.25"/><circle cx="891.2" cy="104.3" r="2.81" fill="#bd6b20" opacity="0.27"/><circle cx="931.3" cy="103.2" r="3.42" fill="#bd6b20" opacity="0.26"/><circle cx="968.1" cy="103.8" r="3.94" fill="#bd6b20" opacity="0.27"/><circle cx="999.0" cy="102.3" r="3.21" fill="#bd6b20" opacity="0.16"/><circle cx="1039.7" cy="101.1" r="2.25" fill="#bd6b20" opacity="0.19"/><circle cx="1071.2" cy="104.5" r="2.93" fill="#bd6b20" opacity="0.15"/><circle cx="1107.9" cy="102.4" r="2.12" fill="#bd6b20" opacity="0.34"/><circle cx="1146.6" cy="102.6" r="1.69" fill="#bd6b20" opacity="0.20"/><circle cx="1182.9" cy="104.8" r="2.06" fill="#bd6b20" opacity="0.19"/><circle cx="27.2" cy="135.2" r="1.92" fill="#bd6b20" opacity="0.36"/><circle cx="67.2" cy="135.1" r="2.42" fill="#bd6b20" opacity="0.23"/><circle cx="103.1" cy="138.5" r="2.06" fill="#bd6b20" opacity="0.29"/><circle cx="135.4" cy="138.0" r="2.83" fill="#bd6b20" opacity="0.35"/><circle cx="174.7" cy="136.3" r="1.77" fill="#bd6b20" opacity="0.32"/><circle cx="209.8" cy="139.3" r="1.83" fill="#bd6b20" opacity="0.28"/><circle cx="244.8" cy="137.6" r="1.71" fill="#bd6b20" opacity="0.16"/><circle cx="281.2" cy="141.0" r="3.84" fill="#bd6b20" opacity="0.18"/><circle cx="315.8" cy="140.6" r="3.25" fill="#bd6b20" opacity="0.18"/><circle cx="352.8" cy="137.8" r="1.94" fill="#bd6b20" opacity="0.28"/><circle cx="389.6" cy="136.8" r="2.88" fill="#bd6b20" opacity="0.21"/><circle cx="424.5" cy="137.8" r="3.93" fill="#bd6b20" opacity="0.28"/><circle cx="462.0" cy="137.9" r="2.14" fill="#bd6b20" opacity="0.28"/><circle cx="498.3" cy="140.6" r="3.50" fill="#bd6b20" opacity="0.33"/><circle cx="536.7" cy="138.8" r="2.08" fill="#bd6b20" opacity="0.22"/><circle cx="571.8" cy="136.3" r="1.83" fill="#bd6b20" opacity="0.15"/><circle cx="607.8" cy="139.6" r="3.22" fill="#bd6b20" opacity="0.22"/><circle cx="640.6" cy="136.1" r="2.30" fill="#bd6b20" opacity="0.25"/><circle cx="679.4" cy="139.3" r="3.52" fill="#bd6b20" opacity="0.30"/><circle cx="711.3" cy="140.2" r="3.96" fill="#bd6b20" opacity="0.19"/><circle cx="751.6" cy="138.9" r="3.56" fill="#bd6b20" opacity="0.25"/><circle cx="783.7" cy="140.1" r="2.11" fill="#bd6b20" opacity="0.34"/><circle cx="820.0" cy="138.5" r="1.91" fill="#bd6b20" opacity="0.18"/><circle cx="856.5" cy="139.5" r="3.85" fill="#bd6b20" opacity="0.28"/><circle cx="892.6" cy="137.4" r="1.73" fill="#bd6b20" opacity="0.31"/><circle cx="930.8" cy="136.4" r="2.89" fill="#bd6b20" opacity="0.26"/><circle cx="963.1" cy="136.3" r="1.83" fill="#bd6b20" opacity="0.17"/><circle cx="1004.4" cy="135.9" r="1.69" fill="#bd6b20" opacity="0.26"/><circle cx="1038.7" cy="136.4" r="3.58" fill="#bd6b20" opacity="0.33"/><circle cx="1073.9" cy="135.4" r="3.62" fill="#bd6b20" opacity="0.18"/><circle cx="1111.3" cy="136.0" r="3.49" fill="#bd6b20" opacity="0.15"/><circle cx="1143.5" cy="135.7" r="2.28" fill="#bd6b20" opacity="0.31"/><circle cx="1179.1" cy="138.5" r="2.01" fill="#bd6b20" opacity="0.25"/><circle cx="29.9" cy="175.4" r="3.15" fill="#bd6b20" opacity="0.34"/><circle cx="66.6" cy="171.2" r="3.68" fill="#bd6b20" opacity="0.31"/><circle cx="100.6" cy="177.0" r="3.70" fill="#bd6b20" opacity="0.23"/><circle cx="140.1" cy="175.4" r="3.26" fill="#bd6b20" opacity="0.26"/><circle cx="176.0" cy="175.3" r="2.02" fill="#bd6b20" opacity="0.21"/><circle cx="207.5" cy="174.4" r="3.64" fill="#bd6b20" opacity="0.31"/><circle cx="243.8" cy="176.1" r="3.65" fill="#bd6b20" opacity="0.32"/><circle cx="284.9" cy="173.1" r="1.92" fill="#bd6b20" opacity="0.21"/><circle cx="319.2" cy="173.6" r="3.55" fill="#bd6b20" opacity="0.21"/><circle cx="352.9" cy="177.0" r="3.65" fill="#bd6b20" opacity="0.28"/><circle cx="387.3" cy="173.7" r="2.07" fill="#bd6b20" opacity="0.28"/><circle cx="428.5" cy="174.4" r="1.85" fill="#bd6b20" opacity="0.32"/><circle cx="461.6" cy="172.9" r="2.37" fill="#bd6b20" opacity="0.21"/><circle cx="497.6" cy="173.1" r="3.77" fill="#bd6b20" opacity="0.21"/><circle cx="531.9" cy="176.6" r="3.63" fill="#bd6b20" opacity="0.25"/><circle cx="567.2" cy="174.1" r="3.05" fill="#bd6b20" opacity="0.27"/><circle cx="605.9" cy="175.8" r="2.12" fill="#bd6b20" opacity="0.21"/><circle cx="642.0" cy="174.4" r="3.03" fill="#bd6b20" opacity="0.16"/><circle cx="679.4" cy="175.9" r="1.64" fill="#bd6b20" opacity="0.29"/><circle cx="711.0" cy="174.4" r="3.27" fill="#bd6b20" opacity="0.35"/><circle cx="751.5" cy="172.7" r="2.62" fill="#bd6b20" opacity="0.16"/><circle cx="787.6" cy="171.4" r="3.40" fill="#bd6b20" opacity="0.36"/><circle cx="819.1" cy="173.7" r="2.01" fill="#bd6b20" opacity="0.22"/><circle cx="860.4" cy="174.5" r="3.77" fill="#bd6b20" opacity="0.35"/><circle cx="894.7" cy="171.1" r="3.73" fill="#bd6b20" opacity="0.22"/><circle cx="928.4" cy="174.0" r="3.86" fill="#bd6b20" opacity="0.31"/><circle cx="967.9" cy="171.9" r="2.73" fill="#bd6b20" opacity="0.25"/><circle cx="1003.7" cy="173.5" r="2.93" fill="#bd6b20" opacity="0.35"/><circle cx="1038.6" cy="172.1" r="2.80" fill="#bd6b20" opacity="0.33"/><circle cx="1072.3" cy="176.1" r="3.37" fill="#bd6b20" opacity="0.21"/><circle cx="1109.1" cy="175.3" r="1.89" fill="#bd6b20" opacity="0.30"/><circle cx="1143.2" cy="172.3" r="2.49" fill="#bd6b20" opacity="0.28"/><circle cx="1180.7" cy="172.7" r="1.71" fill="#bd6b20" opacity="0.34"/><circle cx="28.7" cy="209.6" r="3.84" fill="#bd6b20" opacity="0.22"/><circle cx="68.9" cy="209.7" r="3.18" fill="#bd6b20" opacity="0.22"/><circle cx="103.0" cy="209.1" r="3.22" fill="#bd6b20" opacity="0.16"/><circle cx="138.6" cy="212.0" r="3.28" fill="#bd6b20" opacity="0.26"/><circle cx="176.7" cy="212.6" r="3.15" fill="#bd6b20" opacity="0.25"/><circle cx="210.6" cy="211.8" r="2.20" fill="#bd6b20" opacity="0.22"/><circle cx="248.9" cy="208.5" r="2.91" fill="#bd6b20" opacity="0.26"/><circle cx="280.6" cy="211.0" r="2.35" fill="#bd6b20" opacity="0.16"/><circle cx="316.2" cy="209.8" r="3.71" fill="#bd6b20" opacity="0.16"/><circle cx="355.0" cy="209.1" r="2.19" fill="#bd6b20" opacity="0.33"/><circle cx="387.9" cy="207.9" r="2.38" fill="#bd6b20" opacity="0.19"/><circle cx="428.7" cy="209.1" r="2.35" fill="#bd6b20" opacity="0.25"/><circle cx="462.3" cy="207.6" r="3.64" fill="#bd6b20" opacity="0.18"/><circle cx="498.3" cy="207.3" r="1.68" fill="#bd6b20" opacity="0.26"/><circle cx="532.1" cy="208.8" r="3.73" fill="#bd6b20" opacity="0.16"/><circle cx="570.0" cy="207.6" r="3.73" fill="#bd6b20" opacity="0.29"/><circle cx="606.9" cy="207.6" r="2.84" fill="#bd6b20" opacity="0.30"/><circle cx="640.2" cy="208.5" r="3.29" fill="#bd6b20" opacity="0.18"/><circle cx="678.8" cy="208.8" r="2.15" fill="#bd6b20" opacity="0.18"/><circle cx="716.1" cy="210.1" r="3.05" fill="#bd6b20" opacity="0.25"/><circle cx="749.0" cy="211.8" r="3.56" fill="#bd6b20" opacity="0.25"/><circle cx="787.6" cy="212.6" r="3.06" fill="#bd6b20" opacity="0.32"/><circle cx="823.3" cy="209.1" r="3.66" fill="#bd6b20" opacity="0.16"/><circle cx="859.9" cy="212.1" r="2.92" fill="#bd6b20" opacity="0.23"/><circle cx="891.6" cy="207.1" r="3.20" fill="#bd6b20" opacity="0.22"/><circle cx="927.8" cy="210.2" r="2.37" fill="#bd6b20" opacity="0.35"/><circle cx="965.2" cy="210.4" r="2.62" fill="#bd6b20" opacity="0.32"/><circle cx="1005.0" cy="210.4" r="1.95" fill="#bd6b20" opacity="0.35"/><circle cx="1037.1" cy="209.2" r="1.90" fill="#bd6b20" opacity="0.15"/><circle cx="1071.1" cy="208.3" r="3.89" fill="#bd6b20" opacity="0.18"/><circle cx="1108.3" cy="208.7" r="1.94" fill="#bd6b20" opacity="0.23"/><circle cx="1147.9" cy="208.9" r="2.09" fill="#bd6b20" opacity="0.20"/><circle cx="1179.0" cy="210.4" r="2.02" fill="#bd6b20" opacity="0.34"/><circle cx="31.4" cy="245.6" r="1.87" fill="#bd6b20" opacity="0.22"/><circle cx="67.7" cy="243.0" r="2.77" fill="#bd6b20" opacity="0.19"/><circle cx="101.5" cy="245.7" r="2.81" fill="#bd6b20" opacity="0.31"/><circle cx="137.7" cy="247.2" r="3.26" fill="#bd6b20" opacity="0.19"/><circle cx="175.5" cy="244.0" r="2.56" fill="#bd6b20" opacity="0.31"/><circle cx="212.9" cy="244.6" r="3.18" fill="#bd6b20" opacity="0.34"/><circle cx="247.7" cy="244.2" r="1.67" fill="#bd6b20" opacity="0.34"/><circle cx="280.1" cy="248.4" r="3.98" fill="#bd6b20" opacity="0.32"/><circle cx="315.6" cy="243.7" r="2.52" fill="#bd6b20" opacity="0.36"/><circle cx="355.6" cy="244.4" r="3.26" fill="#bd6b20" opacity="0.29"/><circle cx="392.1" cy="246.0" r="3.23" fill="#bd6b20" opacity="0.17"/><circle cx="426.0" cy="244.3" r="2.23" fill="#bd6b20" opacity="0.20"/><circle cx="462.8" cy="247.1" r="2.83" fill="#bd6b20" opacity="0.32"/><circle cx="496.8" cy="245.1" r="1.86" fill="#bd6b20" opacity="0.27"/><circle cx="532.9" cy="247.2" r="3.14" fill="#bd6b20" opacity="0.21"/><circle cx="571.4" cy="248.8" r="2.94" fill="#bd6b20" opacity="0.22"/><circle cx="605.7" cy="243.6" r="2.65" fill="#bd6b20" opacity="0.18"/><circle cx="642.2" cy="248.2" r="2.43" fill="#bd6b20" opacity="0.22"/><circle cx="675.0" cy="246.9" r="2.35" fill="#bd6b20" opacity="0.34"/><circle cx="716.8" cy="244.7" r="2.41" fill="#bd6b20" opacity="0.19"/><circle cx="751.3" cy="248.7" r="3.18" fill="#bd6b20" opacity="0.24"/><circle cx="784.6" cy="246.7" r="3.39" fill="#bd6b20" opacity="0.18"/><circle cx="824.6" cy="244.3" r="2.78" fill="#bd6b20" opacity="0.31"/><circle cx="859.9" cy="246.1" r="2.00" fill="#bd6b20" opacity="0.19"/><circle cx="892.4" cy="247.3" r="3.54" fill="#bd6b20" opacity="0.19"/><circle cx="932.6" cy="247.4" r="1.64" fill="#bd6b20" opacity="0.24"/><circle cx="963.8" cy="245.7" r="3.33" fill="#bd6b20" opacity="0.33"/><circle cx="1003.2" cy="245.1" r="2.39" fill="#bd6b20" opacity="0.29"/><circle cx="1038.0" cy="247.0" r="2.63" fill="#bd6b20" opacity="0.35"/><circle cx="1072.1" cy="246.4" r="3.37" fill="#bd6b20" opacity="0.26"/><circle cx="1109.0" cy="244.7" r="2.46" fill="#bd6b20" opacity="0.36"/><circle cx="1147.7" cy="245.6" r="3.90" fill="#bd6b20" opacity="0.33"/><circle cx="1181.2" cy="248.8" r="3.31" fill="#bd6b20" opacity="0.21"/><circle cx="31.2" cy="282.0" r="3.95" fill="#bd6b20" opacity="0.28"/><circle cx="64.7" cy="284.0" r="1.98" fill="#bd6b20" opacity="0.25"/><circle cx="100.2" cy="281.4" r="3.13" fill="#bd6b20" opacity="0.35"/><circle cx="140.5" cy="281.5" r="2.86" fill="#bd6b20" opacity="0.23"/><circle cx="172.5" cy="280.4" r="3.54" fill="#bd6b20" opacity="0.19"/><circle cx="209.2" cy="279.5" r="2.41" fill="#bd6b20" opacity="0.16"/><circle cx="245.1" cy="280.0" r="1.76" fill="#bd6b20" opacity="0.16"/><circle cx="279.6" cy="282.6" r="2.36" fill="#bd6b20" opacity="0.28"/><circle cx="315.3" cy="281.1" r="2.64" fill="#bd6b20" opacity="0.36"/><circle cx="356.4" cy="282.0" r="2.28" fill="#bd6b20" opacity="0.28"/><circle cx="387.3" cy="281.8" r="3.83" fill="#bd6b20" opacity="0.26"/><circle cx="423.6" cy="285.0" r="1.98" fill="#bd6b20" opacity="0.33"/><circle cx="459.2" cy="283.0" r="3.01" fill="#bd6b20" opacity="0.34"/><circle cx="497.6" cy="284.1" r="3.82" fill="#bd6b20" opacity="0.16"/><circle cx="535.3" cy="284.2" r="2.77" fill="#bd6b20" opacity="0.27"/><circle cx="572.0" cy="281.4" r="3.05" fill="#bd6b20" opacity="0.32"/><circle cx="605.8" cy="281.5" r="3.33" fill="#bd6b20" opacity="0.35"/><circle cx="644.7" cy="279.5" r="3.96" fill="#bd6b20" opacity="0.35"/><circle cx="678.8" cy="282.0" r="2.29" fill="#bd6b20" opacity="0.27"/><circle cx="714.7" cy="280.4" r="1.74" fill="#bd6b20" opacity="0.31"/><circle cx="747.8" cy="281.8" r="2.73" fill="#bd6b20" opacity="0.30"/><circle cx="784.9" cy="279.5" r="2.58" fill="#bd6b20" opacity="0.15"/><circle cx="822.2" cy="279.4" r="3.97" fill="#bd6b20" opacity="0.20"/><circle cx="859.1" cy="282.7" r="2.86" fill="#bd6b20" opacity="0.16"/><circle cx="896.1" cy="280.7" r="3.53" fill="#bd6b20" opacity="0.15"/><circle cx="931.6" cy="284.8" r="2.38" fill="#bd6b20" opacity="0.31"/><circle cx="967.0" cy="280.6" r="2.68" fill="#bd6b20" opacity="0.30"/><circle cx="1000.2" cy="282.9" r="3.22" fill="#bd6b20" opacity="0.34"/><circle cx="1037.5" cy="284.6" r="1.72" fill="#bd6b20" opacity="0.16"/><circle cx="1075.3" cy="283.7" r="2.69" fill="#bd6b20" opacity="0.20"/><circle cx="1110.5" cy="280.4" r="2.73" fill="#bd6b20" opacity="0.20"/><circle cx="1144.9" cy="279.9" r="3.05" fill="#bd6b20" opacity="0.17"/><circle cx="1180.0" cy="284.4" r="2.22" fill="#bd6b20" opacity="0.33"/><circle cx="27.4" cy="317.0" r="3.45" fill="#bd6b20" opacity="0.36"/><circle cx="66.4" cy="319.3" r="3.11" fill="#bd6b20" opacity="0.33"/><circle cx="103.3" cy="316.7" r="3.36" fill="#bd6b20" opacity="0.29"/><circle cx="137.5" cy="318.0" r="2.48" fill="#bd6b20" opacity="0.17"/><circle cx="176.1" cy="319.3" r="3.07" fill="#bd6b20" opacity="0.31"/><circle cx="207.6" cy="316.9" r="3.21" fill="#bd6b20" opacity="0.29"/><circle cx="245.8" cy="316.5" r="1.78" fill="#bd6b20" opacity="0.18"/><circle cx="284.1" cy="315.7" r="3.33" fill="#bd6b20" opacity="0.28"/><circle cx="315.2" cy="320.9" r="3.45" fill="#bd6b20" opacity="0.22"/><circle cx="352.9" cy="318.9" r="1.83" fill="#bd6b20" opacity="0.35"/><circle cx="387.1" cy="315.3" r="3.98" fill="#bd6b20" opacity="0.27"/><circle cx="424.8" cy="317.2" r="3.02" fill="#bd6b20" opacity="0.31"/><circle cx="460.4" cy="319.5" r="3.97" fill="#bd6b20" opacity="0.26"/><circle cx="497.8" cy="315.2" r="3.55" fill="#bd6b20" opacity="0.26"/><circle cx="533.9" cy="319.6" r="2.31" fill="#bd6b20" opacity="0.30"/><circle cx="569.8" cy="319.0" r="2.61" fill="#bd6b20" opacity="0.27"/><circle cx="607.6" cy="320.8" r="3.05" fill="#bd6b20" opacity="0.20"/><circle cx="644.9" cy="315.4" r="2.90" fill="#bd6b20" opacity="0.17"/><circle cx="676.4" cy="317.2" r="2.54" fill="#bd6b20" opacity="0.30"/><circle cx="713.7" cy="315.7" r="2.59" fill="#bd6b20" opacity="0.22"/><circle cx="750.5" cy="315.1" r="2.08" fill="#bd6b20" opacity="0.35"/><circle cx="784.0" cy="320.8" r="2.53" fill="#bd6b20" opacity="0.33"/><circle cx="820.7" cy="320.2" r="2.23" fill="#bd6b20" opacity="0.23"/><circle cx="859.7" cy="319.6" r="2.94" fill="#bd6b20" opacity="0.28"/><circle cx="896.7" cy="316.3" r="1.77" fill="#bd6b20" opacity="0.29"/><circle cx="927.2" cy="320.9" r="1.69" fill="#bd6b20" opacity="0.25"/><circle cx="967.5" cy="316.0" r="3.02" fill="#bd6b20" opacity="0.34"/><circle cx="1001.4" cy="320.7" r="1.95" fill="#bd6b20" opacity="0.27"/><circle cx="1040.9" cy="316.8" r="3.39" fill="#bd6b20" opacity="0.32"/><circle cx="1071.9" cy="320.6" r="2.82" fill="#bd6b20" opacity="0.35"/><circle cx="1108.3" cy="319.3" r="2.83" fill="#bd6b20" opacity="0.30"/><circle cx="1147.1" cy="320.2" r="1.94" fill="#bd6b20" opacity="0.32"/><circle cx="1181.8" cy="315.0" r="3.38" fill="#bd6b20" opacity="0.29"/><circle cx="29.1" cy="353.9" r="1.74" fill="#bd6b20" opacity="0.23"/><circle cx="65.3" cy="351.7" r="2.71" fill="#bd6b20" opacity="0.32"/><circle cx="101.0" cy="353.1" r="3.83" fill="#bd6b20" opacity="0.36"/><circle cx="135.8" cy="351.4" r="1.99" fill="#bd6b20" opacity="0.22"/><circle cx="173.2" cy="351.9" r="3.98" fill="#bd6b20" opacity="0.33"/><circle cx="212.9" cy="353.5" r="2.66" fill="#bd6b20" opacity="0.23"/><circle cx="245.4" cy="352.2" r="3.41" fill="#bd6b20" opacity="0.36"/><circle cx="279.5" cy="356.7" r="2.44" fill="#bd6b20" opacity="0.27"/><circle cx="320.9" cy="352.8" r="2.38" fill="#bd6b20" opacity="0.23"/><circle cx="355.4" cy="356.4" r="2.28" fill="#bd6b20" opacity="0.21"/><circle cx="388.1" cy="352.1" r="2.93" fill="#bd6b20" opacity="0.21"/><circle cx="428.5" cy="356.3" r="3.67" fill="#bd6b20" opacity="0.27"/><circle cx="463.5" cy="355.8" r="1.61" fill="#bd6b20" opacity="0.23"/><circle cx="496.9" cy="355.4" r="2.45" fill="#bd6b20" opacity="0.19"/><circle cx="532.6" cy="352.8" r="1.70" fill="#bd6b20" opacity="0.16"/><circle cx="570.7" cy="353.4" r="3.28" fill="#bd6b20" opacity="0.19"/><circle cx="607.9" cy="355.4" r="2.13" fill="#bd6b20" opacity="0.27"/><circle cx="642.1" cy="354.6" r="2.50" fill="#bd6b20" opacity="0.35"/><circle cx="679.5" cy="355.6" r="2.72" fill="#bd6b20" opacity="0.19"/><circle cx="713.7" cy="352.6" r="3.41" fill="#bd6b20" opacity="0.16"/><circle cx="749.1" cy="356.5" r="3.90" fill="#bd6b20" opacity="0.19"/><circle cx="787.0" cy="356.5" r="3.44" fill="#bd6b20" opacity="0.17"/><circle cx="821.9" cy="354.3" r="2.06" fill="#bd6b20" opacity="0.19"/><circle cx="857.2" cy="355.0" r="3.73" fill="#bd6b20" opacity="0.35"/><circle cx="891.8" cy="353.3" r="2.80" fill="#bd6b20" opacity="0.32"/><circle cx="927.5" cy="352.2" r="2.44" fill="#bd6b20" opacity="0.22"/><circle cx="964.6" cy="354.6" r="3.77" fill="#bd6b20" opacity="0.29"/><circle cx="999.5" cy="355.8" r="3.38" fill="#bd6b20" opacity="0.21"/><circle cx="1040.5" cy="353.9" r="2.11" fill="#bd6b20" opacity="0.20"/><circle cx="1071.7" cy="353.3" r="2.39" fill="#bd6b20" opacity="0.19"/><circle cx="1110.3" cy="356.7" r="2.22" fill="#bd6b20" opacity="0.19"/><circle cx="1145.3" cy="354.7" r="2.87" fill="#bd6b20" opacity="0.35"/><circle cx="1180.0" cy="355.4" r="2.77" fill="#bd6b20" opacity="0.30"/><circle cx="32.8" cy="392.1" r="2.88" fill="#bd6b20" opacity="0.30"/><circle cx="64.5" cy="387.9" r="3.93" fill="#bd6b20" opacity="0.22"/><circle cx="104.9" cy="392.2" r="1.71" fill="#bd6b20" opacity="0.34"/><circle cx="137.3" cy="388.7" r="3.08" fill="#bd6b20" opacity="0.26"/><circle cx="173.2" cy="392.5" r="2.82" fill="#bd6b20" opacity="0.32"/><circle cx="212.4" cy="391.9" r="3.32" fill="#bd6b20" opacity="0.19"/><circle cx="247.8" cy="388.4" r="1.92" fill="#bd6b20" opacity="0.24"/><circle cx="283.0" cy="390.5" r="3.34" fill="#bd6b20" opacity="0.30"/><circle cx="320.3" cy="391.4" r="1.86" fill="#bd6b20" opacity="0.31"/><circle cx="352.6" cy="389.2" r="1.71" fill="#bd6b20" opacity="0.19"/><circle cx="390.7" cy="390.9" r="3.92" fill="#bd6b20" opacity="0.34"/><circle cx="423.6" cy="387.5" r="1.93" fill="#bd6b20" opacity="0.17"/><circle cx="460.4" cy="387.4" r="2.90" fill="#bd6b20" opacity="0.22"/><circle cx="500.4" cy="387.6" r="1.76" fill="#bd6b20" opacity="0.19"/><circle cx="534.4" cy="388.5" r="3.95" fill="#bd6b20" opacity="0.35"/><circle cx="572.9" cy="390.1" r="2.64" fill="#bd6b20" opacity="0.30"/><circle cx="608.6" cy="391.6" r="2.64" fill="#bd6b20" opacity="0.32"/><circle cx="643.4" cy="387.5" r="1.62" fill="#bd6b20" opacity="0.30"/><circle cx="676.1" cy="389.6" r="2.47" fill="#bd6b20" opacity="0.21"/><circle cx="716.3" cy="392.0" r="3.81" fill="#bd6b20" opacity="0.34"/><circle cx="751.5" cy="392.7" r="3.01" fill="#bd6b20" opacity="0.17"/><circle cx="788.8" cy="389.8" r="3.94" fill="#bd6b20" opacity="0.18"/><circle cx="821.4" cy="388.6" r="2.85" fill="#bd6b20" opacity="0.20"/><circle cx="859.1" cy="388.3" r="2.12" fill="#bd6b20" opacity="0.22"/><circle cx="895.6" cy="388.3" r="2.38" fill="#bd6b20" opacity="0.28"/><circle cx="929.5" cy="388.2" r="2.99" fill="#bd6b20" opacity="0.31"/><circle cx="966.2" cy="392.5" r="2.63" fill="#bd6b20" opacity="0.19"/><circle cx="1000.7" cy="389.2" r="3.13" fill="#bd6b20" opacity="0.26"/><circle cx="1037.1" cy="391.7" r="2.98" fill="#bd6b20" opacity="0.28"/><circle cx="1074.7" cy="389.2" r="3.27" fill="#bd6b20" opacity="0.22"/><circle cx="1112.1" cy="387.8" r="3.02" fill="#bd6b20" opacity="0.21"/><circle cx="1143.4" cy="388.4" r="2.54" fill="#bd6b20" opacity="0.16"/><circle cx="1182.2" cy="387.6" r="2.33" fill="#bd6b20" opacity="0.19"/><circle cx="30.3" cy="423.1" r="2.27" fill="#bd6b20" opacity="0.25"/><circle cx="67.6" cy="425.4" r="1.79" fill="#bd6b20" opacity="0.27"/><circle cx="99.9" cy="426.7" r="2.76" fill="#bd6b20" opacity="0.25"/><circle cx="139.4" cy="424.5" r="2.30" fill="#bd6b20" opacity="0.34"/><circle cx="173.9" cy="426.0" r="3.74" fill="#bd6b20" opacity="0.27"/><circle cx="208.0" cy="425.9" r="2.02" fill="#bd6b20" opacity="0.26"/><circle cx="245.0" cy="427.1" r="2.39" fill="#bd6b20" opacity="0.32"/><circle cx="284.1" cy="427.3" r="1.85" fill="#bd6b20" opacity="0.21"/><circle cx="316.7" cy="428.4" r="1.66" fill="#bd6b20" opacity="0.24"/><circle cx="351.2" cy="424.9" r="3.20" fill="#bd6b20" opacity="0.18"/><circle cx="390.4" cy="424.9" r="3.92" fill="#bd6b20" opacity="0.16"/><circle cx="428.2" cy="428.9" r="1.79" fill="#bd6b20" opacity="0.28"/><circle cx="459.8" cy="427.8" r="1.77" fill="#bd6b20" opacity="0.21"/><circle cx="499.9" cy="426.9" r="3.15" fill="#bd6b20" opacity="0.18"/><circle cx="533.1" cy="426.9" r="2.41" fill="#bd6b20" opacity="0.23"/><circle cx="568.2" cy="424.5" r="3.22" fill="#bd6b20" opacity="0.20"/><circle cx="603.7" cy="428.0" r="3.40" fill="#bd6b20" opacity="0.22"/><circle cx="642.7" cy="423.0" r="2.71" fill="#bd6b20" opacity="0.34"/><circle cx="678.7" cy="425.6" r="2.42" fill="#bd6b20" opacity="0.27"/><circle cx="714.7" cy="426.7" r="3.76" fill="#bd6b20" opacity="0.35"/><circle cx="751.0" cy="426.5" r="2.82" fill="#bd6b20" opacity="0.23"/><circle cx="788.0" cy="424.7" r="2.45" fill="#bd6b20" opacity="0.18"/><circle cx="822.7" cy="424.1" r="3.80" fill="#bd6b20" opacity="0.26"/><circle cx="857.3" cy="424.9" r="1.90" fill="#bd6b20" opacity="0.28"/><circle cx="892.4" cy="426.4" r="2.43" fill="#bd6b20" opacity="0.25"/><circle cx="930.6" cy="428.6" r="2.68" fill="#bd6b20" opacity="0.23"/><circle cx="967.6" cy="424.9" r="3.21" fill="#bd6b20" opacity="0.16"/><circle cx="1003.5" cy="423.2" r="2.44" fill="#bd6b20" opacity="0.35"/><circle cx="1038.8" cy="423.8" r="3.35" fill="#bd6b20" opacity="0.22"/><circle cx="1076.7" cy="426.7" r="3.07" fill="#bd6b20" opacity="0.28"/><circle cx="1110.4" cy="425.3" r="2.43" fill="#bd6b20" opacity="0.17"/><circle cx="1146.7" cy="427.5" r="3.29" fill="#bd6b20" opacity="0.32"/><circle cx="1180.9" cy="428.5" r="3.62" fill="#bd6b20" opacity="0.25"/><circle cx="28.2" cy="459.6" r="2.98" fill="#bd6b20" opacity="0.22"/><circle cx="68.6" cy="461.1" r="3.58" fill="#bd6b20" opacity="0.25"/><circle cx="102.8" cy="463.3" r="3.51" fill="#bd6b20" opacity="0.16"/><circle cx="140.4" cy="460.6" r="2.83" fill="#bd6b20" opacity="0.25"/><circle cx="173.5" cy="465.0" r="1.88" fill="#bd6b20" opacity="0.19"/><circle cx="212.2" cy="463.9" r="3.73" fill="#bd6b20" opacity="0.34"/><circle cx="247.0" cy="461.7" r="2.35" fill="#bd6b20" opacity="0.35"/><circle cx="280.3" cy="463.9" r="3.15" fill="#bd6b20" opacity="0.19"/><circle cx="318.1" cy="462.4" r="3.58" fill="#bd6b20" opacity="0.28"/><circle cx="354.8" cy="462.2" r="3.73" fill="#bd6b20" opacity="0.30"/><circle cx="387.8" cy="463.1" r="3.37" fill="#bd6b20" opacity="0.19"/><circle cx="425.0" cy="461.5" r="2.70" fill="#bd6b20" opacity="0.22"/><circle cx="460.8" cy="464.5" r="1.89" fill="#bd6b20" opacity="0.16"/><circle cx="498.0" cy="460.1" r="3.56" fill="#bd6b20" opacity="0.18"/><circle cx="535.2" cy="462.9" r="3.94" fill="#bd6b20" opacity="0.21"/><circle cx="569.0" cy="463.0" r="2.86" fill="#bd6b20" opacity="0.17"/><circle cx="604.5" cy="463.0" r="2.58" fill="#bd6b20" opacity="0.36"/><circle cx="644.6" cy="462.5" r="3.73" fill="#bd6b20" opacity="0.34"/><circle cx="677.0" cy="464.7" r="1.93" fill="#bd6b20" opacity="0.32"/><circle cx="715.9" cy="462.0" r="1.98" fill="#bd6b20" opacity="0.30"/><circle cx="750.8" cy="461.7" r="1.69" fill="#bd6b20" opacity="0.33"/><circle cx="784.4" cy="459.2" r="3.39" fill="#bd6b20" opacity="0.27"/><circle cx="820.4" cy="464.9" r="2.20" fill="#bd6b20" opacity="0.33"/><circle cx="858.2" cy="463.6" r="3.83" fill="#bd6b20" opacity="0.24"/><circle cx="896.6" cy="461.2" r="2.59" fill="#bd6b20" opacity="0.28"/><circle cx="931.1" cy="463.3" r="3.15" fill="#bd6b20" opacity="0.20"/><circle cx="966.6" cy="464.3" r="3.32" fill="#bd6b20" opacity="0.24"/><circle cx="1002.5" cy="463.1" r="2.16" fill="#bd6b20" opacity="0.28"/><circle cx="1035.3" cy="461.5" r="2.50" fill="#bd6b20" opacity="0.24"/><circle cx="1073.5" cy="459.9" r="3.73" fill="#bd6b20" opacity="0.30"/><circle cx="1109.8" cy="460.5" r="3.64" fill="#bd6b20" opacity="0.30"/><circle cx="1143.4" cy="460.9" r="3.75" fill="#bd6b20" opacity="0.31"/><circle cx="1183.2" cy="463.8" r="3.85" fill="#bd6b20" opacity="0.32"/><circle cx="29.0" cy="498.3" r="1.83" fill="#bd6b20" opacity="0.23"/><circle cx="64.1" cy="499.3" r="1.71" fill="#bd6b20" opacity="0.17"/><circle cx="99.6" cy="497.6" r="1.94" fill="#bd6b20" opacity="0.16"/><circle cx="140.7" cy="496.9" r="1.65" fill="#bd6b20" opacity="0.36"/><circle cx="172.5" cy="497.8" r="2.20" fill="#bd6b20" opacity="0.24"/><circle cx="210.8" cy="496.1" r="4.00" fill="#bd6b20" opacity="0.30"/><circle cx="247.4" cy="500.0" r="3.17" fill="#bd6b20" opacity="0.29"/><circle cx="281.3" cy="496.5" r="3.16" fill="#bd6b20" opacity="0.29"/><circle cx="320.7" cy="497.8" r="3.92" fill="#bd6b20" opacity="0.29"/><circle cx="353.7" cy="499.2" r="3.20" fill="#bd6b20" opacity="0.20"/><circle cx="388.9" cy="500.6" r="1.96" fill="#bd6b20" opacity="0.18"/><circle cx="424.7" cy="496.0" r="2.66" fill="#bd6b20" opacity="0.19"/><circle cx="463.9" cy="498.4" r="1.62" fill="#bd6b20" opacity="0.32"/><circle cx="499.2" cy="497.1" r="1.94" fill="#bd6b20" opacity="0.32"/><circle cx="535.7" cy="499.3" r="2.82" fill="#bd6b20" opacity="0.31"/><circle cx="570.5" cy="497.8" r="3.35" fill="#bd6b20" opacity="0.27"/><circle cx="604.8" cy="498.9" r="1.90" fill="#bd6b20" opacity="0.32"/><circle cx="641.7" cy="499.6" r="1.78" fill="#bd6b20" opacity="0.19"/><circle cx="680.6" cy="497.7" r="3.67" fill="#bd6b20" opacity="0.23"/><circle cx="715.7" cy="495.1" r="2.42" fill="#bd6b20" opacity="0.35"/><circle cx="749.9" cy="496.0" r="3.22" fill="#bd6b20" opacity="0.33"/><circle cx="787.3" cy="496.7" r="2.59" fill="#bd6b20" opacity="0.25"/><circle cx="820.4" cy="498.5" r="3.22" fill="#bd6b20" opacity="0.22"/><circle cx="855.9" cy="495.3" r="2.81" fill="#bd6b20" opacity="0.23"/><circle cx="892.7" cy="495.4" r="2.82" fill="#bd6b20" opacity="0.28"/><circle cx="930.5" cy="499.7" r="2.09" fill="#bd6b20" opacity="0.22"/><circle cx="964.3" cy="499.7" r="1.65" fill="#bd6b20" opacity="0.21"/><circle cx="999.5" cy="500.4" r="3.79" fill="#bd6b20" opacity="0.20"/><circle cx="1038.6" cy="497.2" r="2.89" fill="#bd6b20" opacity="0.16"/><circle cx="1073.1" cy="496.5" r="3.29" fill="#bd6b20" opacity="0.32"/><circle cx="1108.9" cy="498.8" r="1.63" fill="#bd6b20" opacity="0.29"/><circle cx="1143.1" cy="498.1" r="2.88" fill="#bd6b20" opacity="0.23"/><circle cx="1180.9" cy="501.0" r="2.60" fill="#bd6b20" opacity="0.16"/><circle cx="29.8" cy="533.4" r="2.57" fill="#bd6b20" opacity="0.33"/><circle cx="68.8" cy="535.5" r="3.31" fill="#bd6b20" opacity="0.26"/><circle cx="104.2" cy="536.1" r="2.58" fill="#bd6b20" opacity="0.28"/><circle cx="139.6" cy="536.7" r="3.90" fill="#bd6b20" opacity="0.22"/><circle cx="171.8" cy="534.9" r="3.09" fill="#bd6b20" opacity="0.28"/><circle cx="211.3" cy="532.3" r="3.74" fill="#bd6b20" opacity="0.29"/><circle cx="247.4" cy="536.2" r="1.93" fill="#bd6b20" opacity="0.17"/><circle cx="281.0" cy="536.0" r="3.53" fill="#bd6b20" opacity="0.26"/><circle cx="319.7" cy="534.2" r="2.71" fill="#bd6b20" opacity="0.17"/><circle cx="356.8" cy="535.3" r="3.41" fill="#bd6b20" opacity="0.20"/><circle cx="392.8" cy="536.6" r="1.75" fill="#bd6b20" opacity="0.19"/><circle cx="427.8" cy="531.6" r="2.87" fill="#bd6b20" opacity="0.18"/><circle cx="464.7" cy="531.1" r="3.77" fill="#bd6b20" opacity="0.17"/><circle cx="500.2" cy="531.5" r="3.41" fill="#bd6b20" opacity="0.16"/><circle cx="534.1" cy="536.9" r="1.65" fill="#bd6b20" opacity="0.27"/><circle cx="572.4" cy="531.1" r="3.47" fill="#bd6b20" opacity="0.29"/><circle cx="604.6" cy="533.6" r="1.87" fill="#bd6b20" opacity="0.17"/><circle cx="642.7" cy="536.7" r="2.56" fill="#bd6b20" opacity="0.24"/><circle cx="680.0" cy="531.6" r="1.74" fill="#bd6b20" opacity="0.27"/><circle cx="711.3" cy="534.2" r="3.90" fill="#bd6b20" opacity="0.23"/><circle cx="749.2" cy="533.8" r="3.03" fill="#bd6b20" opacity="0.17"/><circle cx="785.4" cy="533.7" r="3.97" fill="#bd6b20" opacity="0.36"/><circle cx="821.2" cy="536.6" r="2.26" fill="#bd6b20" opacity="0.22"/><circle cx="860.2" cy="532.6" r="2.67" fill="#bd6b20" opacity="0.16"/><circle cx="895.2" cy="535.1" r="3.28" fill="#bd6b20" opacity="0.32"/><circle cx="931.8" cy="536.3" r="2.93" fill="#bd6b20" opacity="0.18"/><circle cx="963.4" cy="535.4" r="2.38" fill="#bd6b20" opacity="0.19"/><circle cx="1001.8" cy="531.1" r="3.41" fill="#bd6b20" opacity="0.17"/><circle cx="1035.5" cy="535.1" r="3.45" fill="#bd6b20" opacity="0.21"/><circle cx="1074.6" cy="536.1" r="3.28" fill="#bd6b20" opacity="0.25"/><circle cx="1108.3" cy="534.0" r="3.93" fill="#bd6b20" opacity="0.34"/><circle cx="1143.0" cy="534.9" r="1.77" fill="#bd6b20" opacity="0.30"/><circle cx="1183.9" cy="533.1" r="3.53" fill="#bd6b20" opacity="0.16"/><circle cx="32.3" cy="568.6" r="3.81" fill="#bd6b20" opacity="0.25"/><circle cx="63.7" cy="568.4" r="3.61" fill="#bd6b20" opacity="0.25"/><circle cx="100.3" cy="570.5" r="3.99" fill="#bd6b20" opacity="0.31"/><circle cx="137.4" cy="570.0" r="1.87" fill="#bd6b20" opacity="0.28"/><circle cx="173.1" cy="569.1" r="2.91" fill="#bd6b20" opacity="0.28"/><circle cx="208.0" cy="567.7" r="1.88" fill="#bd6b20" opacity="0.29"/><circle cx="247.6" cy="569.7" r="2.00" fill="#bd6b20" opacity="0.30"/><circle cx="279.6" cy="568.3" r="3.47" fill="#bd6b20" opacity="0.20"/><circle cx="318.5" cy="572.6" r="3.87" fill="#bd6b20" opacity="0.24"/><circle cx="352.7" cy="567.8" r="1.81" fill="#bd6b20" opacity="0.35"/><circle cx="389.4" cy="570.1" r="3.23" fill="#bd6b20" opacity="0.25"/><circle cx="427.0" cy="570.3" r="2.53" fill="#bd6b20" opacity="0.23"/><circle cx="462.6" cy="572.1" r="3.52" fill="#bd6b20" opacity="0.35"/><circle cx="497.8" cy="570.9" r="3.44" fill="#bd6b20" opacity="0.30"/><circle cx="536.2" cy="568.6" r="3.11" fill="#bd6b20" opacity="0.32"/><circle cx="568.4" cy="570.2" r="1.70" fill="#bd6b20" opacity="0.17"/><circle cx="607.6" cy="569.2" r="3.08" fill="#bd6b20" opacity="0.33"/><circle cx="639.8" cy="567.2" r="3.79" fill="#bd6b20" opacity="0.34"/><circle cx="678.6" cy="570.8" r="2.45" fill="#bd6b20" opacity="0.24"/><circle cx="712.3" cy="568.2" r="1.99" fill="#bd6b20" opacity="0.19"/><circle cx="751.3" cy="572.8" r="2.49" fill="#bd6b20" opacity="0.21"/><circle cx="784.7" cy="569.9" r="3.65" fill="#bd6b20" opacity="0.36"/><circle cx="824.4" cy="567.7" r="3.18" fill="#bd6b20" opacity="0.19"/><circle cx="855.3" cy="567.6" r="2.60" fill="#bd6b20" opacity="0.31"/><circle cx="892.3" cy="569.9" r="2.45" fill="#bd6b20" opacity="0.32"/><circle cx="931.8" cy="571.2" r="2.12" fill="#bd6b20" opacity="0.21"/><circle cx="968.7" cy="570.8" r="2.70" fill="#bd6b20" opacity="0.16"/><circle cx="999.5" cy="569.5" r="3.77" fill="#bd6b20" opacity="0.18"/><circle cx="1037.7" cy="568.6" r="3.96" fill="#bd6b20" opacity="0.23"/><circle cx="1073.3" cy="570.3" r="3.83" fill="#bd6b20" opacity="0.16"/><circle cx="1112.5" cy="567.4" r="2.34" fill="#bd6b20" opacity="0.21"/><circle cx="1144.6" cy="571.4" r="1.95" fill="#bd6b20" opacity="0.16"/><circle cx="1184.1" cy="568.9" r="3.82" fill="#bd6b20" opacity="0.22"/><circle cx="30.4" cy="607.8" r="3.71" fill="#bd6b20" opacity="0.22"/><circle cx="63.6" cy="603.3" r="3.10" fill="#bd6b20" opacity="0.23"/><circle cx="102.5" cy="606.1" r="2.39" fill="#bd6b20" opacity="0.21"/><circle cx="138.7" cy="608.6" r="2.43" fill="#bd6b20" opacity="0.26"/><circle cx="171.8" cy="608.2" r="2.52" fill="#bd6b20" opacity="0.25"/><circle cx="208.5" cy="604.5" r="3.59" fill="#bd6b20" opacity="0.25"/><circle cx="247.9" cy="605.4" r="3.20" fill="#bd6b20" opacity="0.25"/><circle cx="279.4" cy="608.6" r="2.89" fill="#bd6b20" opacity="0.26"/><circle cx="319.4" cy="606.4" r="3.20" fill="#bd6b20" opacity="0.27"/><circle cx="356.9" cy="605.2" r="3.66" fill="#bd6b20" opacity="0.33"/><circle cx="391.0" cy="608.0" r="3.74" fill="#bd6b20" opacity="0.19"/><circle cx="428.8" cy="605.3" r="2.36" fill="#bd6b20" opacity="0.20"/><circle cx="464.4" cy="607.4" r="2.91" fill="#bd6b20" opacity="0.22"/><circle cx="500.7" cy="603.0" r="3.48" fill="#bd6b20" opacity="0.29"/><circle cx="531.4" cy="606.8" r="2.38" fill="#bd6b20" opacity="0.28"/><circle cx="570.5" cy="608.7" r="3.89" fill="#bd6b20" opacity="0.26"/><circle cx="608.0" cy="603.2" r="3.02" fill="#bd6b20" opacity="0.18"/><circle cx="642.1" cy="604.5" r="3.48" fill="#bd6b20" opacity="0.20"/><circle cx="678.5" cy="604.9" r="2.55" fill="#bd6b20" opacity="0.23"/><circle cx="711.7" cy="607.7" r="2.07" fill="#bd6b20" opacity="0.36"/><circle cx="747.9" cy="605.2" r="3.07" fill="#bd6b20" opacity="0.36"/><circle cx="787.0" cy="605.4" r="2.81" fill="#bd6b20" opacity="0.35"/><circle cx="820.5" cy="608.8" r="2.73" fill="#bd6b20" opacity="0.32"/><circle cx="859.7" cy="605.8" r="3.83" fill="#bd6b20" opacity="0.27"/><circle cx="895.9" cy="608.4" r="1.95" fill="#bd6b20" opacity="0.21"/><circle cx="929.4" cy="607.4" r="3.41" fill="#bd6b20" opacity="0.25"/><circle cx="965.3" cy="607.5" r="2.04" fill="#bd6b20" opacity="0.24"/><circle cx="1003.4" cy="603.9" r="2.69" fill="#bd6b20" opacity="0.32"/><circle cx="1036.5" cy="603.8" r="2.69" fill="#bd6b20" opacity="0.20"/><circle cx="1076.9" cy="607.4" r="2.43" fill="#bd6b20" opacity="0.34"/><circle cx="1107.5" cy="605.7" r="2.70" fill="#bd6b20" opacity="0.33"/><circle cx="1147.7" cy="606.8" r="3.00" fill="#bd6b20" opacity="0.27"/><circle cx="1183.3" cy="603.7" r="3.70" fill="#bd6b20" opacity="0.31"/><circle cx="30.0" cy="640.7" r="3.98" fill="#bd6b20" opacity="0.22"/><circle cx="65.9" cy="641.7" r="2.36" fill="#bd6b20" opacity="0.31"/><circle cx="102.3" cy="643.9" r="2.12" fill="#bd6b20" opacity="0.36"/><circle cx="139.3" cy="643.5" r="3.60" fill="#bd6b20" opacity="0.29"/><circle cx="171.4" cy="639.2" r="3.93" fill="#bd6b20" opacity="0.28"/><circle cx="211.8" cy="644.0" r="3.81" fill="#bd6b20" opacity="0.36"/><circle cx="243.3" cy="639.5" r="1.88" fill="#bd6b20" opacity="0.22"/><circle cx="281.0" cy="639.8" r="3.12" fill="#bd6b20" opacity="0.20"/><circle cx="316.5" cy="643.1" r="3.84" fill="#bd6b20" opacity="0.25"/><circle cx="351.1" cy="642.4" r="1.67" fill="#bd6b20" opacity="0.18"/><circle cx="389.2" cy="642.4" r="3.29" fill="#bd6b20" opacity="0.23"/><circle cx="423.5" cy="639.4" r="2.56" fill="#bd6b20" opacity="0.25"/><circle cx="461.3" cy="644.3" r="2.52" fill="#bd6b20" opacity="0.18"/><circle cx="497.9" cy="642.4" r="2.78" fill="#bd6b20" opacity="0.27"/><circle cx="535.9" cy="644.8" r="1.88" fill="#bd6b20" opacity="0.16"/><circle cx="567.2" cy="639.2" r="3.43" fill="#bd6b20" opacity="0.23"/><circle cx="605.9" cy="639.8" r="2.71" fill="#bd6b20" opacity="0.18"/><circle cx="643.1" cy="642.2" r="2.00" fill="#bd6b20" opacity="0.20"/><circle cx="675.2" cy="642.7" r="2.29" fill="#bd6b20" opacity="0.25"/><circle cx="711.9" cy="642.1" r="2.80" fill="#bd6b20" opacity="0.31"/><circle cx="751.9" cy="643.0" r="2.86" fill="#bd6b20" opacity="0.23"/><circle cx="786.0" cy="640.5" r="3.23" fill="#bd6b20" opacity="0.22"/><circle cx="822.0" cy="640.8" r="3.17" fill="#bd6b20" opacity="0.19"/><circle cx="858.6" cy="642.1" r="1.77" fill="#bd6b20" opacity="0.29"/><circle cx="891.9" cy="643.1" r="3.97" fill="#bd6b20" opacity="0.24"/><circle cx="930.3" cy="641.9" r="3.83" fill="#bd6b20" opacity="0.36"/><circle cx="967.1" cy="640.3" r="2.28" fill="#bd6b20" opacity="0.26"/><circle cx="1005.0" cy="639.3" r="3.59" fill="#bd6b20" opacity="0.36"/><circle cx="1038.8" cy="642.1" r="1.80" fill="#bd6b20" opacity="0.20"/><circle cx="1073.8" cy="640.8" r="3.38" fill="#bd6b20" opacity="0.26"/><circle cx="1111.5" cy="640.3" r="2.00" fill="#bd6b20" opacity="0.31"/><circle cx="1143.5" cy="641.7" r="3.21" fill="#bd6b20" opacity="0.23"/><circle cx="1182.1" cy="644.9" r="3.54" fill="#bd6b20" opacity="0.24"/><circle cx="181.6" cy="212.7" r="220" fill="url(#glow)" opacity="0.9"/>
  <g opacity="0.85" transform="translate(1020, 495)">
        <circle r="60" fill="#bd6b20" opacity="0.18"/>
        <path d="M -34 6 Q -10 -22 14 6 Q 34 24 14 26 L -22 26 Q -38 24 -34 6 Z" fill="none" stroke="#e09440" stroke-width="3" stroke-linejoin="round"/>
      </g>
  <g transform="translate(80, 90)">
    <rect x="0" y="0" rx="20" ry="20" width="134" height="38" fill="#bd6b20" opacity="0.18" stroke="#bd6b20" stroke-width="1.5"/>
    <text x="67" y="25" font-family="ui-sans-serif, Inter, sans-serif" font-weight="700" font-size="14" letter-spacing="2.5" fill="#bd6b20" text-anchor="middle">CASE STUDY</text>
  </g>
  <text x="80" y="465" font-family="ui-sans-serif, -apple-system, Segoe UI, Inter, sans-serif" font-weight="800" font-size="44" fill="#faf8f5" opacity="0.98"><tspan x="80" dy="0">Efficient Dispute</tspan><tspan x="80" dy="56">Resolution: PDR COURT</tspan><tspan x="80" dy="56">Resolves Curtain Fabrics</tspan></text>
  <rect x="0" y="669" width="1200" height="6" fill="url(#gold)"/>
</svg>