<?xml version="1.0" encoding="UTF-8"?>
<svg xmlns="http://www.w3.org/2000/svg" viewBox="0 0 1200 675" width="1200" height="675" role="img" aria-label="Furniture Distributor Dispute Resolution Case Study">
  <defs>
    <linearGradient id="bg" x1="0%" y1="0%" x2="100%" y2="100%">
      <stop offset="0%" stop-color="#0c0a09"/>
      <stop offset="100%" stop-color="#291813"/>
    </linearGradient>
    <linearGradient id="gold" x1="0%" y1="0%" x2="100%" y2="100%">
      <stop offset="0%" stop-color="#d4862a"/>
      <stop offset="100%" stop-color="#bd6b20"/>
    </linearGradient>
    <radialGradient id="glow" cx="50%" cy="50%" r="50%">
      <stop offset="0%" stop-color="#d4862a" stop-opacity="0.45"/>
      <stop offset="100%" stop-color="#d4862a" stop-opacity="0"/>
    </radialGradient>
  </defs>
  <rect width="1200" height="675" fill="url(#bg)"/>
  <polygon points="919.6,119.6 842.7,189.1 820.9,87.7" fill="#bd6b20" opacity="0.05"/><polygon points="612.6,208.7 763.6,170.8 846.4,302.8 746.5,422.3 602.0,364.1" fill="#bd6b20" opacity="0.13"/><polygon points="1123.6,527.0 1024.9,778.6 856.4,567.3" fill="#bd6b20" opacity="0.13"/><polygon points="980.8,442.3 958.4,708.6 739.0,556.1" fill="#bd6b20" opacity="0.08"/><polygon points="521.0,628.2 498.3,450.7 660.1,374.3 782.7,504.5 696.8,661.4" fill="#bd6b20" opacity="0.09"/><polygon points="693.0,72.7 759.7,29.6 821.2,79.7 792.6,153.7 713.4,149.3" fill="#bd6b20" opacity="0.13"/><polygon points="775.3,275.9 637.8,149.4 816.1,93.6" fill="#bd6b20" opacity="0.17"/><polygon points="1063.4,35.4 1003.8,121.6 903.4,91.5 901.0,-13.2 999.9,-47.9" fill="#bd6b20" opacity="0.06"/><polygon points="169.1,167.4 224.9,125.1 233.7,194.6" fill="#bd6b20" opacity="0.18"/><polygon points="969.0,491.3 881.3,449.6 923.0,362.0 1010.7,403.6" fill="#bd6b20" opacity="0.11"/><polygon points="1043.7,617.3 971.6,594.4 994.4,522.3 1066.5,545.2" fill="#bd6b20" opacity="0.06"/><polygon points="-12.9,-16.3 200.9,151.5 -51.4,252.8" fill="#bd6b20" opacity="0.16"/><polygon points="1195.2,499.9 1150.8,540.0 1099.0,510.2 1111.4,451.7 1170.8,445.4" fill="#bd6b20" opacity="0.17"/><polygon points="1065.0,85.5 1015.8,284.3 816.9,235.0 866.2,36.2" fill="#bd6b20" opacity="0.10"/><circle cx="936.0" cy="202.5" r="180" fill="url(#glow)"/>
  <g opacity="0.85" transform="translate(1020, 495)">
        <circle r="60" fill="#d4862a" opacity="0.18"/>
        <path d="M -34 6 Q -10 -22 14 6 Q 34 24 14 26 L -22 26 Q -38 24 -34 6 Z" fill="none" stroke="#bd6b20" stroke-width="3" stroke-linejoin="round"/>
      </g>
  <g transform="translate(80, 90)">
    <rect x="0" y="0" rx="20" ry="20" width="134" height="38" fill="#d4862a" opacity="0.18" stroke="#d4862a" stroke-width="1.5"/>
    <text x="67" y="25" font-family="ui-sans-serif, Inter, sans-serif" font-weight="700" font-size="14" letter-spacing="2.5" fill="#d4862a" text-anchor="middle">CASE STUDY</text>
  </g>
  <text x="80" y="465" font-family="ui-sans-serif, -apple-system, Segoe UI, Inter, sans-serif" font-weight="800" font-size="44" fill="#faf8f5" opacity="0.98"><tspan x="80" dy="0">Furniture Distributor</tspan><tspan x="80" dy="56">Dispute Resolution Case</tspan><tspan x="80" dy="56">Study</tspan></text>
  <rect x="0" y="669" width="1200" height="6" fill="url(#gold)"/>
</svg>