<?xml version="1.0" encoding="UTF-8"?>
<svg xmlns="http://www.w3.org/2000/svg" viewBox="0 0 1200 675" width="1200" height="675" role="img" aria-label="Harnessing Youth Skills for Peaceful Resolutions">
  <defs>
    <linearGradient id="bg" x1="0%" y1="0%" x2="100%" y2="100%">
      <stop offset="0%" stop-color="#faf8f5"/>
      <stop offset="100%" stop-color="#f4efe8"/>
    </linearGradient>
    <linearGradient id="gold" x1="0%" y1="0%" x2="100%" y2="100%">
      <stop offset="0%" stop-color="#bd6b20"/>
      <stop offset="100%" stop-color="#9a5518"/>
    </linearGradient>
    <radialGradient id="glow" cx="50%" cy="50%" r="50%">
      <stop offset="0%" stop-color="#bd6b20" stop-opacity="0.45"/>
      <stop offset="100%" stop-color="#bd6b20" stop-opacity="0"/>
    </radialGradient>
  </defs>
  <rect width="1200" height="675" fill="url(#bg)"/>
  <polygon points="62.1,164.6 -59.4,142.1 20.9,48.2" fill="#9a5518" opacity="0.13"/><polygon points="221.4,134.8 158.1,244.8 34.0,218.6 20.5,92.5 136.3,40.6" fill="#9a5518" opacity="0.13"/><polygon points="513.1,177.1 330.9,168.1 340.0,-14.1 522.1,-5.1" fill="#9a5518" opacity="0.06"/><polygon points="522.7,174.3 436.5,-41.6 666.6,-8.3" fill="#9a5518" opacity="0.11"/><polygon points="1280.1,241.2 1284.2,466.2 1059.3,470.3 1055.2,245.4" fill="#9a5518" opacity="0.17"/><polygon points="1203.7,509.9 1049.5,613.0 1037.3,427.9" fill="#9a5518" opacity="0.16"/><polygon points="411.4,302.6 397.7,255.8 438.0,228.3 476.6,258.1 460.1,304.0" fill="#9a5518" opacity="0.19"/><polygon points="1096.5,416.0 901.7,397.3 859.3,206.3 1027.8,107.0 1174.4,236.6" fill="#9a5518" opacity="0.19"/><polygon points="447.6,250.6 588.9,185.8 653.6,327.1 512.4,391.9" fill="#9a5518" opacity="0.13"/><polygon points="996.1,325.3 933.3,321.7 936.9,258.9 999.7,262.4" fill="#9a5518" opacity="0.13"/><polygon points="1006.9,532.7 1108.5,590.4 1085.0,704.8 968.9,717.9 920.6,611.4" fill="#9a5518" opacity="0.16"/><polygon points="1031.6,60.4 1047.5,2.1 1105.7,18.0 1089.9,76.2" fill="#9a5518" opacity="0.13"/><polygon points="211.4,349.8 264.2,457.1 156.9,509.9 104.1,402.6" fill="#9a5518" opacity="0.12"/><polygon points="577.1,697.5 426.3,590.9 481.1,414.6 665.8,412.2 725.1,587.0" fill="#9a5518" opacity="0.11"/><circle cx="936.0" cy="202.5" r="180" fill="url(#glow)"/>
  <g opacity="0.85" transform="translate(1020, 495)">
        <rect x="-46" y="-60" width="92" height="115" fill="#bd6b20" opacity="0.18" rx="6"/>
        <path d="M -28 -36 L 28 -36 M -28 -12 L 28 -12 M -28 12 L 18 12 M -28 36 L 28 36" stroke="#9a5518" stroke-width="3" stroke-linecap="round"/>
      </g>
  <g transform="translate(80, 90)">
    <rect x="0" y="0" rx="20" ry="20" width="101" height="38" fill="#bd6b20" opacity="0.18" stroke="#bd6b20" stroke-width="1.5"/>
    <text x="50.5" y="25" font-family="ui-sans-serif, Inter, sans-serif" font-weight="700" font-size="14" letter-spacing="2.5" fill="#bd6b20" text-anchor="middle">ARTICLE</text>
  </g>
  <text x="80" y="515" font-family="ui-sans-serif, -apple-system, Segoe UI, Inter, sans-serif" font-weight="800" font-size="44" fill="#12100e" opacity="0.98"><tspan x="80" dy="0">Harnessing Youth Skills</tspan><tspan x="80" dy="56">for Peaceful Resolutions</tspan></text>
  <rect x="0" y="669" width="1200" height="6" fill="url(#gold)"/>
</svg>