<?xml version="1.0" encoding="UTF-8"?>
<svg xmlns="http://www.w3.org/2000/svg" viewBox="0 0 1200 675" width="1200" height="675" role="img" aria-label="Exploring the High Court's Role in Invalidating Arbitral Awards">
  <defs>
    <linearGradient id="bg" x1="0%" y1="0%" x2="100%" y2="100%">
      <stop offset="0%" stop-color="#532d15"/>
      <stop offset="100%" stop-color="#bd6b20"/>
    </linearGradient>
    <linearGradient id="gold" x1="0%" y1="0%" x2="100%" y2="100%">
      <stop offset="0%" stop-color="#e09440"/>
      <stop offset="100%" stop-color="#fdf6ee"/>
    </linearGradient>
    <radialGradient id="glow" cx="50%" cy="50%" r="50%">
      <stop offset="0%" stop-color="#e09440" stop-opacity="0.45"/>
      <stop offset="100%" stop-color="#e09440" stop-opacity="0"/>
    </radialGradient>
  </defs>
  <rect width="1200" height="675" fill="url(#bg)"/>
  <polygon points="-50,318.1 -20,326.4 10,333.5 40,339.2 70,343.4 100,346.0 130,347.0 160,346.3 190,343.9 220,339.9 250,334.4 280,327.5 310,319.4 340,310.3 370,300.2 400,289.6 430,278.6 460,267.4 490,256.3 520,245.6 550,235.6 580,226.3 610,218.1 640,211.1 670,205.4 700,201.3 730,198.8 760,197.9 790,198.8 820,201.2 850,205.3 880,210.9 910,217.8 940,226.0 970,235.2 1000,245.3 1030,256.0 1060,267.0 1090,278.2 1120,289.2 1150,299.9 1180,309.9 1210,319.1 1240,327.3 1250,725 -50,725" fill="#e09440" opacity="0.08"/><polygon points="-50,342.9 -20,335.9 10,329.3 40,323.2 70,317.7 100,313.0 130,309.2 160,306.4 190,304.7 220,304.0 250,304.4 280,305.9 310,308.4 340,311.9 370,316.4 400,321.6 430,327.6 460,334.1 490,341.1 520,348.3 550,355.6 580,362.8 610,369.8 640,376.4 670,382.5 700,387.9 730,392.6 760,396.3 790,399.0 820,400.8 850,401.4 880,400.9 910,399.4 940,396.8 970,393.2 1000,388.7 1030,383.4 1060,377.4 1090,370.8 1120,363.9 1150,356.7 1180,349.4 1210,342.1 1240,335.2 1250,725 -50,725" fill="#e09440" opacity="0.13"/><polygon points="-50,476.9 -20,482.5 10,486.9 40,490.0 70,491.7 100,492.0 130,490.8 160,488.2 190,484.2 220,478.9 250,472.6 280,465.1 310,456.9 340,448.0 370,438.6 400,429.0 430,419.4 460,409.9 490,400.9 520,392.4 550,384.7 580,378.0 610,372.4 640,368.1 670,365.1 700,363.5 730,363.3 760,364.6 790,367.3 820,371.3 850,376.6 880,383.1 910,390.5 940,398.8 970,407.8 1000,417.1 1030,426.8 1060,436.4 1090,445.8 1120,454.9 1150,463.3 1180,470.9 1210,477.6 1240,483.1 1250,725 -50,725" fill="#e09440" opacity="0.18"/><polygon points="-50,462.7 -20,458.2 10,454.5 40,451.7 70,449.8 100,448.9 130,449.0 160,450.1 190,452.2 220,455.2 250,459.0 280,463.7 310,469.0 340,474.8 370,481.1 400,487.6 430,494.3 460,500.9 490,507.4 520,513.6 550,519.3 580,524.4 610,528.8 640,532.5 670,535.3 700,537.1 730,537.9 760,537.8 790,536.6 820,534.5 850,531.5 880,527.6 910,522.9 940,517.6 970,511.7 1000,505.4 1030,498.9 1060,492.2 1090,485.6 1120,479.1 1150,473.0 1180,467.3 1210,462.2 1240,457.8 1250,725 -50,725" fill="#e09440" opacity="0.23"/><circle cx="300.0" cy="189.0" r="160" fill="url(#glow)"/>
  <g opacity="0.85" transform="translate(1020, 495)">
        <circle r="68" fill="none" stroke="#e09440" stroke-width="2" opacity="0.35"/>
        <path d="M -38 12 L 38 12 M -32 -8 L 32 -8 M -45 -28 L 45 -28" stroke="#fdf6ee" stroke-width="3" stroke-linecap="round"/>
        <rect x="-50" y="-44" width="100" height="80" fill="none" stroke="#e09440" stroke-width="2"/>
      </g>
  <g transform="translate(80, 90)">
    <rect x="0" y="0" rx="20" ry="20" width="112" height="38" fill="#e09440" opacity="0.18" stroke="#e09440" stroke-width="1.5"/>
    <text x="56" y="25" font-family="ui-sans-serif, Inter, sans-serif" font-weight="700" font-size="14" letter-spacing="2.5" fill="#e09440" text-anchor="middle">NEWSROOM</text>
  </g>
  <text x="80" y="465" font-family="ui-sans-serif, -apple-system, Segoe UI, Inter, sans-serif" font-weight="800" font-size="44" fill="#faf8f5" opacity="0.98"><tspan x="80" dy="0">Exploring the High Court's</tspan><tspan x="80" dy="56">Role in Invalidating</tspan><tspan x="80" dy="56">Arbitral Awards</tspan></text>
  <rect x="0" y="669" width="1200" height="6" fill="url(#gold)"/>
</svg>