<?xml version="1.0" encoding="UTF-8"?>
<svg xmlns="http://www.w3.org/2000/svg" viewBox="0 0 1200 675" width="1200" height="675" role="img" aria-label="High Court Upholds Arbitrator’s Award in Landmark SECL Contract Dispute">
  <defs>
    <linearGradient id="bg" x1="0%" y1="0%" x2="100%" y2="100%">
      <stop offset="0%" stop-color="#0c0a09"/>
      <stop offset="100%" stop-color="#291813"/>
    </linearGradient>
    <linearGradient id="gold" x1="0%" y1="0%" x2="100%" y2="100%">
      <stop offset="0%" stop-color="#d4862a"/>
      <stop offset="100%" stop-color="#bd6b20"/>
    </linearGradient>
    <radialGradient id="glow" cx="50%" cy="50%" r="50%">
      <stop offset="0%" stop-color="#d4862a" stop-opacity="0.45"/>
      <stop offset="100%" stop-color="#d4862a" stop-opacity="0"/>
    </radialGradient>
  </defs>
  <rect width="1200" height="675" fill="url(#bg)"/>
  <rect x="-687.5" y="-80" width="110.1" height="875" transform="rotate(18 -687.5 337.5)" fill="#d4862a" opacity="0.08"/><rect x="-475.4" y="-80" width="113.2" height="875" transform="rotate(18 -475.4 337.5)" fill="#d4862a" opacity="0.17"/><rect x="-319.9" y="-80" width="99.3" height="875" transform="rotate(18 -319.9 337.5)" fill="#d4862a" opacity="0.11"/><rect x="-115.3" y="-80" width="120.6" height="875" transform="rotate(18 -115.3 337.5)" fill="#d4862a" opacity="0.14"/><rect x="77.6" y="-80" width="107.1" height="875" transform="rotate(18 77.6 337.5)" fill="#d4862a" opacity="0.08"/><rect x="200.9" y="-80" width="104.2" height="875" transform="rotate(18 200.9 337.5)" fill="#d4862a" opacity="0.13"/><rect x="425.6" y="-80" width="136.7" height="875" transform="rotate(18 425.6 337.5)" fill="#d4862a" opacity="0.16"/><rect x="567.7" y="-80" width="127.0" height="875" transform="rotate(18 567.7 337.5)" fill="#d4862a" opacity="0.19"/><rect x="732.3" y="-80" width="78.0" height="875" transform="rotate(18 732.3 337.5)" fill="#d4862a" opacity="0.07"/><rect x="909.5" y="-80" width="64.4" height="875" transform="rotate(18 909.5 337.5)" fill="#d4862a" opacity="0.15"/><rect x="1085.2" y="-80" width="95.3" height="875" transform="rotate(18 1085.2 337.5)" fill="#d4862a" opacity="0.19"/><rect x="1315.1" y="-80" width="84.5" height="875" transform="rotate(18 1315.1 337.5)" fill="#d4862a" opacity="0.06"/><rect x="1459.5" y="-80" width="105.4" height="875" transform="rotate(18 1459.5 337.5)" fill="#d4862a" opacity="0.12"/><rect x="1636.1" y="-80" width="118.6" height="875" transform="rotate(18 1636.1 337.5)" fill="#d4862a" opacity="0.15"/><rect x="0" y="0" width="1200" height="675" fill="url(#glow)" opacity="0.6"/>
  <g opacity="0.85" transform="translate(1020, 495)">
        <circle r="68" fill="none" stroke="#d4862a" stroke-width="2" opacity="0.35"/>
        <path d="M -38 12 L 38 12 M -32 -8 L 32 -8 M -45 -28 L 45 -28" stroke="#bd6b20" stroke-width="3" stroke-linecap="round"/>
        <rect x="-50" y="-44" width="100" height="80" fill="none" stroke="#d4862a" stroke-width="2"/>
      </g>
  <g transform="translate(80, 90)">
    <rect x="0" y="0" rx="20" ry="20" width="112" height="38" fill="#d4862a" opacity="0.18" stroke="#d4862a" stroke-width="1.5"/>
    <text x="56" y="25" font-family="ui-sans-serif, Inter, sans-serif" font-weight="700" font-size="14" letter-spacing="2.5" fill="#d4862a" text-anchor="middle">NEWSROOM</text>
  </g>
  <text x="80" y="465" font-family="ui-sans-serif, -apple-system, Segoe UI, Inter, sans-serif" font-weight="800" font-size="44" fill="#faf8f5" opacity="0.98"><tspan x="80" dy="0">High Court Upholds</tspan><tspan x="80" dy="56">Arbitrator’s Award in</tspan><tspan x="80" dy="56">Landmark SECL Contract</tspan></text>
  <rect x="0" y="669" width="1200" height="6" fill="url(#gold)"/>
</svg>