<?xml version="1.0" encoding="UTF-8"?>
<svg xmlns="http://www.w3.org/2000/svg" viewBox="0 0 1200 675" width="1200" height="675" role="img" aria-label="Honouring Gurus in Dispute Resolution on Guru Purnima">
  <defs>
    <linearGradient id="bg" x1="0%" y1="0%" x2="100%" y2="100%">
      <stop offset="0%" stop-color="#faf8f5"/>
      <stop offset="100%" stop-color="#f4efe8"/>
    </linearGradient>
    <linearGradient id="gold" x1="0%" y1="0%" x2="100%" y2="100%">
      <stop offset="0%" stop-color="#bd6b20"/>
      <stop offset="100%" stop-color="#9a5518"/>
    </linearGradient>
    <radialGradient id="glow" cx="50%" cy="50%" r="50%">
      <stop offset="0%" stop-color="#bd6b20" stop-opacity="0.45"/>
      <stop offset="100%" stop-color="#bd6b20" stop-opacity="0"/>
    </radialGradient>
  </defs>
  <rect width="1200" height="675" fill="url(#bg)"/>
  <circle cx="28.2" cy="29.2" r="3.00" fill="#bd6b20" opacity="0.32"/><circle cx="67.2" cy="32.1" r="2.25" fill="#bd6b20" opacity="0.28"/><circle cx="99.4" cy="28.3" r="2.04" fill="#bd6b20" opacity="0.15"/><circle cx="138.4" cy="31.5" r="2.49" fill="#bd6b20" opacity="0.22"/><circle cx="174.8" cy="31.4" r="3.16" fill="#bd6b20" opacity="0.25"/><circle cx="207.5" cy="31.8" r="2.96" fill="#bd6b20" opacity="0.17"/><circle cx="246.7" cy="28.1" r="1.98" fill="#bd6b20" opacity="0.20"/><circle cx="279.2" cy="28.7" r="3.88" fill="#bd6b20" opacity="0.16"/><circle cx="320.5" cy="27.9" r="2.54" fill="#bd6b20" opacity="0.33"/><circle cx="355.6" cy="29.3" r="3.02" fill="#bd6b20" opacity="0.26"/><circle cx="390.8" cy="30.7" r="2.64" fill="#bd6b20" opacity="0.31"/><circle cx="427.4" cy="30.9" r="3.37" fill="#bd6b20" opacity="0.16"/><circle cx="459.3" cy="32.9" r="3.09" fill="#bd6b20" opacity="0.15"/><circle cx="495.6" cy="32.5" r="1.68" fill="#bd6b20" opacity="0.31"/><circle cx="532.6" cy="29.2" r="2.00" fill="#bd6b20" opacity="0.26"/><circle cx="572.8" cy="29.3" r="3.33" fill="#bd6b20" opacity="0.20"/><circle cx="607.3" cy="29.6" r="2.39" fill="#bd6b20" opacity="0.27"/><circle cx="641.4" cy="27.4" r="2.89" fill="#bd6b20" opacity="0.22"/><circle cx="678.6" cy="32.1" r="3.46" fill="#bd6b20" opacity="0.25"/><circle cx="712.0" cy="32.1" r="2.36" fill="#bd6b20" opacity="0.18"/><circle cx="750.3" cy="29.2" r="3.75" fill="#bd6b20" opacity="0.33"/><circle cx="783.6" cy="27.2" r="3.70" fill="#bd6b20" opacity="0.28"/><circle cx="822.4" cy="30.4" r="3.95" fill="#bd6b20" opacity="0.21"/><circle cx="859.8" cy="31.0" r="1.63" fill="#bd6b20" opacity="0.32"/><circle cx="895.5" cy="27.3" r="2.44" fill="#bd6b20" opacity="0.16"/><circle cx="928.3" cy="29.3" r="2.11" fill="#bd6b20" opacity="0.30"/><circle cx="966.2" cy="31.2" r="2.58" fill="#bd6b20" opacity="0.31"/><circle cx="999.6" cy="31.8" r="2.51" fill="#bd6b20" opacity="0.18"/><circle cx="1036.7" cy="29.9" r="3.86" fill="#bd6b20" opacity="0.18"/><circle cx="1076.0" cy="27.2" r="3.93" fill="#bd6b20" opacity="0.28"/><circle cx="1111.2" cy="27.3" r="2.25" fill="#bd6b20" opacity="0.16"/><circle cx="1146.7" cy="32.1" r="3.46" fill="#bd6b20" opacity="0.23"/><circle cx="1182.8" cy="30.2" r="3.52" fill="#bd6b20" opacity="0.29"/><circle cx="31.0" cy="64.2" r="2.01" fill="#bd6b20" opacity="0.36"/><circle cx="64.7" cy="65.0" r="1.90" fill="#bd6b20" opacity="0.20"/><circle cx="101.4" cy="64.6" r="2.29" fill="#bd6b20" opacity="0.15"/><circle cx="137.0" cy="68.9" r="1.80" fill="#bd6b20" opacity="0.29"/><circle cx="171.7" cy="66.0" r="2.50" fill="#bd6b20" opacity="0.21"/><circle cx="209.7" cy="68.5" r="3.78" fill="#bd6b20" opacity="0.27"/><circle cx="245.3" cy="68.5" r="2.65" fill="#bd6b20" opacity="0.29"/><circle cx="279.9" cy="65.6" r="2.65" fill="#bd6b20" opacity="0.24"/><circle cx="315.8" cy="65.6" r="3.52" fill="#bd6b20" opacity="0.25"/><circle cx="353.6" cy="64.9" r="3.36" fill="#bd6b20" opacity="0.32"/><circle cx="388.8" cy="67.6" r="1.88" fill="#bd6b20" opacity="0.29"/><circle cx="425.0" cy="63.0" r="3.74" fill="#bd6b20" opacity="0.16"/><circle cx="463.9" cy="65.1" r="2.42" fill="#bd6b20" opacity="0.33"/><circle cx="500.2" cy="67.4" r="1.91" fill="#bd6b20" opacity="0.28"/><circle cx="531.6" cy="68.3" r="2.59" fill="#bd6b20" opacity="0.27"/><circle cx="568.6" cy="67.6" r="3.36" fill="#bd6b20" opacity="0.27"/><circle cx="605.2" cy="63.7" r="3.97" fill="#bd6b20" opacity="0.32"/><circle cx="643.6" cy="64.4" r="3.61" fill="#bd6b20" opacity="0.18"/><circle cx="680.7" cy="63.8" r="3.40" fill="#bd6b20" opacity="0.17"/><circle cx="714.5" cy="63.3" r="2.94" fill="#bd6b20" opacity="0.26"/><circle cx="748.8" cy="66.6" r="2.57" fill="#bd6b20" opacity="0.20"/><circle cx="786.3" cy="68.0" r="2.88" fill="#bd6b20" opacity="0.31"/><circle cx="823.5" cy="66.6" r="1.81" fill="#bd6b20" opacity="0.31"/><circle cx="856.6" cy="66.9" r="1.71" fill="#bd6b20" opacity="0.17"/><circle cx="891.0" cy="63.3" r="3.83" fill="#bd6b20" opacity="0.21"/><circle cx="932.3" cy="67.3" r="2.13" fill="#bd6b20" opacity="0.34"/><circle cx="964.9" cy="67.7" r="2.58" fill="#bd6b20" opacity="0.18"/><circle cx="999.0" cy="66.0" r="3.08" fill="#bd6b20" opacity="0.21"/><circle cx="1039.0" cy="64.8" r="2.85" fill="#bd6b20" opacity="0.19"/><circle cx="1073.6" cy="66.7" r="3.30" fill="#bd6b20" opacity="0.18"/><circle cx="1108.4" cy="63.8" r="3.99" fill="#bd6b20" opacity="0.32"/><circle cx="1143.5" cy="64.8" r="3.86" fill="#bd6b20" opacity="0.15"/><circle cx="1182.5" cy="64.7" r="2.53" fill="#bd6b20" opacity="0.27"/><circle cx="32.7" cy="99.5" r="2.76" fill="#bd6b20" opacity="0.27"/><circle cx="67.6" cy="104.2" r="2.91" fill="#bd6b20" opacity="0.35"/><circle cx="101.4" cy="100.8" r="2.09" fill="#bd6b20" opacity="0.30"/><circle cx="135.2" cy="101.0" r="2.49" fill="#bd6b20" opacity="0.19"/><circle cx="175.2" cy="99.3" r="3.20" fill="#bd6b20" opacity="0.36"/><circle cx="208.6" cy="102.9" r="1.73" fill="#bd6b20" opacity="0.26"/><circle cx="245.9" cy="102.0" r="3.92" fill="#bd6b20" opacity="0.20"/><circle cx="279.5" cy="103.5" r="2.72" fill="#bd6b20" opacity="0.20"/><circle cx="316.2" cy="100.3" r="3.39" fill="#bd6b20" opacity="0.22"/><circle cx="352.1" cy="101.1" r="2.79" fill="#bd6b20" opacity="0.27"/><circle cx="389.6" cy="101.2" r="3.21" fill="#bd6b20" opacity="0.35"/><circle cx="428.9" cy="104.6" r="3.04" fill="#bd6b20" opacity="0.15"/><circle cx="462.3" cy="104.9" r="1.76" fill="#bd6b20" opacity="0.20"/><circle cx="499.1" cy="103.9" r="3.78" fill="#bd6b20" opacity="0.27"/><circle cx="532.2" cy="101.6" r="2.55" fill="#bd6b20" opacity="0.36"/><circle cx="572.6" cy="101.5" r="3.34" fill="#bd6b20" opacity="0.20"/><circle cx="606.8" cy="103.2" r="2.88" fill="#bd6b20" opacity="0.31"/><circle cx="643.0" cy="102.7" r="2.00" fill="#bd6b20" opacity="0.34"/><circle cx="677.9" cy="99.4" r="3.87" fill="#bd6b20" opacity="0.20"/><circle cx="713.1" cy="104.8" r="3.71" fill="#bd6b20" opacity="0.34"/><circle cx="750.6" cy="101.5" r="2.90" fill="#bd6b20" opacity="0.30"/><circle cx="783.9" cy="101.6" r="2.56" fill="#bd6b20" opacity="0.23"/><circle cx="822.4" cy="101.5" r="3.46" fill="#bd6b20" opacity="0.34"/><circle cx="859.8" cy="101.5" r="2.36" fill="#bd6b20" opacity="0.25"/><circle cx="893.1" cy="101.5" r="2.33" fill="#bd6b20" opacity="0.18"/><circle cx="930.8" cy="102.2" r="3.71" fill="#bd6b20" opacity="0.24"/><circle cx="967.9" cy="103.7" r="1.97" fill="#bd6b20" opacity="0.26"/><circle cx="1001.3" cy="99.1" r="2.33" fill="#bd6b20" opacity="0.22"/><circle cx="1038.4" cy="100.2" r="3.46" fill="#bd6b20" opacity="0.29"/><circle cx="1073.7" cy="103.0" r="2.44" fill="#bd6b20" opacity="0.20"/><circle cx="1107.1" cy="104.6" r="1.62" fill="#bd6b20" opacity="0.20"/><circle cx="1144.3" cy="100.4" r="2.79" fill="#bd6b20" opacity="0.17"/><circle cx="1179.8" cy="104.9" r="2.78" fill="#bd6b20" opacity="0.29"/><circle cx="31.7" cy="139.2" r="1.69" fill="#bd6b20" opacity="0.23"/><circle cx="63.3" cy="135.4" r="3.71" fill="#bd6b20" opacity="0.27"/><circle cx="103.4" cy="140.8" r="3.28" fill="#bd6b20" opacity="0.31"/><circle cx="140.8" cy="139.0" r="3.00" fill="#bd6b20" opacity="0.33"/><circle cx="174.9" cy="135.4" r="3.80" fill="#bd6b20" opacity="0.25"/><circle cx="211.8" cy="136.4" r="2.82" fill="#bd6b20" opacity="0.18"/><circle cx="247.4" cy="135.8" r="2.61" fill="#bd6b20" opacity="0.25"/><circle cx="282.1" cy="140.9" r="2.51" fill="#bd6b20" opacity="0.34"/><circle cx="316.5" cy="135.2" r="2.03" fill="#bd6b20" opacity="0.22"/><circle cx="352.5" cy="136.6" r="3.99" fill="#bd6b20" opacity="0.24"/><circle cx="388.8" cy="135.2" r="2.62" fill="#bd6b20" opacity="0.16"/><circle cx="423.7" cy="135.3" r="3.02" fill="#bd6b20" opacity="0.30"/><circle cx="459.8" cy="139.9" r="3.64" fill="#bd6b20" opacity="0.27"/><circle cx="497.6" cy="139.9" r="3.50" fill="#bd6b20" opacity="0.34"/><circle cx="533.6" cy="140.4" r="3.91" fill="#bd6b20" opacity="0.35"/><circle cx="571.9" cy="139.2" r="3.09" fill="#bd6b20" opacity="0.31"/><circle cx="606.4" cy="137.8" r="2.83" fill="#bd6b20" opacity="0.23"/><circle cx="643.6" cy="137.5" r="2.96" fill="#bd6b20" opacity="0.33"/><circle cx="677.5" cy="137.8" r="2.33" fill="#bd6b20" opacity="0.34"/><circle cx="712.6" cy="140.9" r="2.10" fill="#bd6b20" opacity="0.18"/><circle cx="750.0" cy="139.1" r="2.08" fill="#bd6b20" opacity="0.34"/><circle cx="784.2" cy="135.8" r="3.72" fill="#bd6b20" opacity="0.23"/><circle cx="823.4" cy="137.2" r="2.10" fill="#bd6b20" opacity="0.33"/><circle cx="856.5" cy="138.0" r="3.35" fill="#bd6b20" opacity="0.17"/><circle cx="894.6" cy="136.5" r="2.00" fill="#bd6b20" opacity="0.17"/><circle cx="931.4" cy="137.1" r="3.24" fill="#bd6b20" opacity="0.21"/><circle cx="965.1" cy="136.6" r="2.28" fill="#bd6b20" opacity="0.31"/><circle cx="999.5" cy="138.0" r="2.25" fill="#bd6b20" opacity="0.29"/><circle cx="1039.3" cy="137.2" r="3.19" fill="#bd6b20" opacity="0.17"/><circle cx="1072.4" cy="140.9" r="1.70" fill="#bd6b20" opacity="0.35"/><circle cx="1109.5" cy="137.9" r="2.93" fill="#bd6b20" opacity="0.29"/><circle cx="1144.5" cy="137.6" r="3.51" fill="#bd6b20" opacity="0.20"/><circle cx="1183.0" cy="135.1" r="3.04" fill="#bd6b20" opacity="0.35"/><circle cx="32.4" cy="176.0" r="1.86" fill="#bd6b20" opacity="0.33"/><circle cx="66.4" cy="173.1" r="2.32" fill="#bd6b20" opacity="0.28"/><circle cx="100.3" cy="175.2" r="3.18" fill="#bd6b20" opacity="0.23"/><circle cx="138.1" cy="171.2" r="1.86" fill="#bd6b20" opacity="0.34"/><circle cx="174.6" cy="174.4" r="2.45" fill="#bd6b20" opacity="0.32"/><circle cx="209.2" cy="174.4" r="3.03" fill="#bd6b20" opacity="0.30"/><circle cx="245.1" cy="175.5" r="3.98" fill="#bd6b20" opacity="0.18"/><circle cx="279.9" cy="172.6" r="1.66" fill="#bd6b20" opacity="0.20"/><circle cx="319.8" cy="171.0" r="3.68" fill="#bd6b20" opacity="0.15"/><circle cx="352.1" cy="176.2" r="3.76" fill="#bd6b20" opacity="0.30"/><circle cx="387.2" cy="176.2" r="3.54" fill="#bd6b20" opacity="0.34"/><circle cx="423.8" cy="172.7" r="2.79" fill="#bd6b20" opacity="0.28"/><circle cx="461.7" cy="172.6" r="2.07" fill="#bd6b20" opacity="0.16"/><circle cx="497.1" cy="171.8" r="1.95" fill="#bd6b20" opacity="0.27"/><circle cx="533.6" cy="172.6" r="3.45" fill="#bd6b20" opacity="0.16"/><circle cx="567.3" cy="173.8" r="3.47" fill="#bd6b20" opacity="0.34"/><circle cx="606.3" cy="172.7" r="2.95" fill="#bd6b20" opacity="0.15"/><circle cx="642.9" cy="175.4" r="3.76" fill="#bd6b20" opacity="0.26"/><circle cx="676.2" cy="172.2" r="3.59" fill="#bd6b20" opacity="0.20"/><circle cx="714.8" cy="173.9" r="3.95" fill="#bd6b20" opacity="0.16"/><circle cx="749.6" cy="174.0" r="2.53" fill="#bd6b20" opacity="0.18"/><circle cx="783.9" cy="176.7" r="2.43" fill="#bd6b20" opacity="0.23"/><circle cx="824.4" cy="171.8" r="2.72" fill="#bd6b20" opacity="0.15"/><circle cx="859.0" cy="176.8" r="2.61" fill="#bd6b20" opacity="0.16"/><circle cx="895.3" cy="176.9" r="3.82" fill="#bd6b20" opacity="0.24"/><circle cx="930.1" cy="172.6" r="3.49" fill="#bd6b20" opacity="0.27"/><circle cx="964.5" cy="171.3" r="3.99" fill="#bd6b20" opacity="0.22"/><circle cx="1005.0" cy="174.5" r="3.86" fill="#bd6b20" opacity="0.19"/><circle cx="1039.2" cy="173.3" r="3.00" fill="#bd6b20" opacity="0.35"/><circle cx="1071.3" cy="172.9" r="3.75" fill="#bd6b20" opacity="0.23"/><circle cx="1107.9" cy="173.6" r="1.86" fill="#bd6b20" opacity="0.32"/><circle cx="1143.4" cy="171.7" r="3.34" fill="#bd6b20" opacity="0.23"/><circle cx="1180.2" cy="175.2" r="2.02" fill="#bd6b20" opacity="0.18"/><circle cx="27.8" cy="208.5" r="1.87" fill="#bd6b20" opacity="0.17"/><circle cx="65.9" cy="211.5" r="3.76" fill="#bd6b20" opacity="0.36"/><circle cx="101.0" cy="207.6" r="2.92" fill="#bd6b20" opacity="0.30"/><circle cx="135.8" cy="209.3" r="3.35" fill="#bd6b20" opacity="0.19"/><circle cx="174.1" cy="207.8" r="3.21" fill="#bd6b20" opacity="0.32"/><circle cx="208.8" cy="208.5" r="2.30" fill="#bd6b20" opacity="0.23"/><circle cx="244.8" cy="207.5" r="3.53" fill="#bd6b20" opacity="0.19"/><circle cx="284.9" cy="212.2" r="2.04" fill="#bd6b20" opacity="0.16"/><circle cx="317.3" cy="210.3" r="3.93" fill="#bd6b20" opacity="0.25"/><circle cx="352.5" cy="209.0" r="3.55" fill="#bd6b20" opacity="0.29"/><circle cx="391.1" cy="209.3" r="2.18" fill="#bd6b20" opacity="0.17"/><circle cx="423.9" cy="208.7" r="3.41" fill="#bd6b20" opacity="0.24"/><circle cx="459.5" cy="209.3" r="3.38" fill="#bd6b20" opacity="0.29"/><circle cx="497.5" cy="212.1" r="3.77" fill="#bd6b20" opacity="0.24"/><circle cx="533.2" cy="212.8" r="3.47" fill="#bd6b20" opacity="0.28"/><circle cx="572.1" cy="208.9" r="2.81" fill="#bd6b20" opacity="0.31"/><circle cx="605.6" cy="208.8" r="3.87" fill="#bd6b20" opacity="0.22"/><circle cx="640.1" cy="209.4" r="2.26" fill="#bd6b20" opacity="0.32"/><circle cx="678.3" cy="210.7" r="1.92" fill="#bd6b20" opacity="0.16"/><circle cx="716.2" cy="210.0" r="3.88" fill="#bd6b20" opacity="0.33"/><circle cx="752.5" cy="207.2" r="2.55" fill="#bd6b20" opacity="0.17"/><circle cx="786.6" cy="210.5" r="2.11" fill="#bd6b20" opacity="0.30"/><circle cx="821.9" cy="211.1" r="3.69" fill="#bd6b20" opacity="0.20"/><circle cx="859.3" cy="208.0" r="3.05" fill="#bd6b20" opacity="0.31"/><circle cx="894.6" cy="210.6" r="2.11" fill="#bd6b20" opacity="0.16"/><circle cx="927.2" cy="210.9" r="3.16" fill="#bd6b20" opacity="0.33"/><circle cx="968.6" cy="211.4" r="3.16" fill="#bd6b20" opacity="0.25"/><circle cx="1001.1" cy="211.9" r="3.23" fill="#bd6b20" opacity="0.16"/><circle cx="1037.8" cy="210.1" r="2.16" fill="#bd6b20" opacity="0.17"/><circle cx="1076.0" cy="211.8" r="2.85" fill="#bd6b20" opacity="0.33"/><circle cx="1111.7" cy="212.9" r="2.68" fill="#bd6b20" opacity="0.23"/><circle cx="1144.5" cy="211.2" r="2.65" fill="#bd6b20" opacity="0.22"/><circle cx="1184.0" cy="210.0" r="3.50" fill="#bd6b20" opacity="0.34"/><circle cx="32.7" cy="246.9" r="2.17" fill="#bd6b20" opacity="0.24"/><circle cx="67.6" cy="246.4" r="3.14" fill="#bd6b20" opacity="0.30"/><circle cx="100.3" cy="245.1" r="3.35" fill="#bd6b20" opacity="0.16"/><circle cx="141.0" cy="246.9" r="2.78" fill="#bd6b20" opacity="0.36"/><circle cx="175.5" cy="244.2" r="3.40" fill="#bd6b20" opacity="0.20"/><circle cx="209.4" cy="247.7" r="2.96" fill="#bd6b20" opacity="0.30"/><circle cx="248.1" cy="246.6" r="2.32" fill="#bd6b20" opacity="0.33"/><circle cx="280.3" cy="246.8" r="2.87" fill="#bd6b20" opacity="0.29"/><circle cx="319.5" cy="245.7" r="2.93" fill="#bd6b20" opacity="0.34"/><circle cx="355.4" cy="247.6" r="1.61" fill="#bd6b20" opacity="0.29"/><circle cx="391.5" cy="247.2" r="3.35" fill="#bd6b20" opacity="0.34"/><circle cx="427.4" cy="246.1" r="3.98" fill="#bd6b20" opacity="0.31"/><circle cx="460.1" cy="244.3" r="3.33" fill="#bd6b20" opacity="0.16"/><circle cx="499.5" cy="243.6" r="3.31" fill="#bd6b20" opacity="0.19"/><circle cx="534.9" cy="243.0" r="2.61" fill="#bd6b20" opacity="0.23"/><circle cx="572.3" cy="245.8" r="1.92" fill="#bd6b20" opacity="0.30"/><circle cx="604.9" cy="246.4" r="1.89" fill="#bd6b20" opacity="0.26"/><circle cx="643.8" cy="243.7" r="2.49" fill="#bd6b20" opacity="0.26"/><circle cx="676.4" cy="248.2" r="2.88" fill="#bd6b20" opacity="0.31"/><circle cx="714.4" cy="246.5" r="2.14" fill="#bd6b20" opacity="0.23"/><circle cx="749.9" cy="244.9" r="1.97" fill="#bd6b20" opacity="0.35"/><circle cx="784.5" cy="244.5" r="2.14" fill="#bd6b20" opacity="0.35"/><circle cx="825.0" cy="244.8" r="3.15" fill="#bd6b20" opacity="0.18"/><circle cx="860.5" cy="246.0" r="3.01" fill="#bd6b20" opacity="0.17"/><circle cx="892.2" cy="246.2" r="3.97" fill="#bd6b20" opacity="0.18"/><circle cx="928.9" cy="248.6" r="1.88" fill="#bd6b20" opacity="0.24"/><circle cx="965.2" cy="246.3" r="1.94" fill="#bd6b20" opacity="0.33"/><circle cx="999.1" cy="247.5" r="2.24" fill="#bd6b20" opacity="0.28"/><circle cx="1038.4" cy="246.3" r="3.14" fill="#bd6b20" opacity="0.26"/><circle cx="1074.0" cy="246.6" r="1.79" fill="#bd6b20" opacity="0.21"/><circle cx="1109.9" cy="247.2" r="2.46" fill="#bd6b20" opacity="0.16"/><circle cx="1148.8" cy="245.0" r="3.96" fill="#bd6b20" opacity="0.30"/><circle cx="1180.6" cy="243.3" r="3.17" fill="#bd6b20" opacity="0.22"/><circle cx="29.7" cy="280.6" r="2.18" fill="#bd6b20" opacity="0.19"/><circle cx="67.6" cy="279.2" r="2.25" fill="#bd6b20" opacity="0.29"/><circle cx="103.3" cy="281.1" r="2.20" fill="#bd6b20" opacity="0.19"/><circle cx="140.1" cy="283.5" r="3.61" fill="#bd6b20" opacity="0.18"/><circle cx="171.2" cy="282.6" r="3.14" fill="#bd6b20" opacity="0.30"/><circle cx="210.5" cy="284.1" r="3.09" fill="#bd6b20" opacity="0.29"/><circle cx="245.6" cy="284.6" r="2.13" fill="#bd6b20" opacity="0.23"/><circle cx="284.1" cy="279.3" r="3.07" fill="#bd6b20" opacity="0.15"/><circle cx="320.1" cy="284.7" r="2.94" fill="#bd6b20" opacity="0.20"/><circle cx="356.3" cy="281.0" r="3.81" fill="#bd6b20" opacity="0.18"/><circle cx="391.1" cy="284.3" r="3.94" fill="#bd6b20" opacity="0.17"/><circle cx="425.0" cy="284.1" r="1.62" fill="#bd6b20" opacity="0.31"/><circle cx="464.7" cy="283.3" r="2.06" fill="#bd6b20" opacity="0.31"/><circle cx="497.6" cy="281.3" r="1.65" fill="#bd6b20" opacity="0.19"/><circle cx="531.2" cy="279.2" r="2.60" fill="#bd6b20" opacity="0.28"/><circle cx="569.6" cy="282.9" r="2.01" fill="#bd6b20" opacity="0.15"/><circle cx="607.6" cy="281.9" r="2.01" fill="#bd6b20" opacity="0.18"/><circle cx="642.9" cy="281.1" r="2.99" fill="#bd6b20" opacity="0.18"/><circle cx="677.6" cy="282.8" r="2.73" fill="#bd6b20" opacity="0.29"/><circle cx="716.4" cy="284.6" r="2.16" fill="#bd6b20" opacity="0.18"/><circle cx="751.4" cy="281.4" r="1.73" fill="#bd6b20" opacity="0.21"/><circle cx="784.2" cy="282.7" r="3.48" fill="#bd6b20" opacity="0.32"/><circle cx="821.0" cy="281.9" r="3.24" fill="#bd6b20" opacity="0.30"/><circle cx="860.8" cy="280.4" r="2.02" fill="#bd6b20" opacity="0.17"/><circle cx="892.2" cy="284.4" r="3.88" fill="#bd6b20" opacity="0.21"/><circle cx="928.6" cy="282.5" r="2.58" fill="#bd6b20" opacity="0.29"/><circle cx="966.8" cy="284.6" r="3.47" fill="#bd6b20" opacity="0.16"/><circle cx="1004.6" cy="284.0" r="2.95" fill="#bd6b20" opacity="0.16"/><circle cx="1040.7" cy="283.2" r="2.20" fill="#bd6b20" opacity="0.29"/><circle cx="1073.9" cy="280.5" r="3.12" fill="#bd6b20" opacity="0.19"/><circle cx="1110.5" cy="282.3" r="3.43" fill="#bd6b20" opacity="0.15"/><circle cx="1148.4" cy="285.0" r="1.80" fill="#bd6b20" opacity="0.23"/><circle cx="1179.3" cy="279.3" r="2.34" fill="#bd6b20" opacity="0.28"/><circle cx="28.7" cy="320.7" r="3.69" fill="#bd6b20" opacity="0.24"/><circle cx="65.0" cy="316.8" r="2.93" fill="#bd6b20" opacity="0.33"/><circle cx="101.2" cy="315.3" r="1.68" fill="#bd6b20" opacity="0.27"/><circle cx="140.4" cy="320.9" r="2.50" fill="#bd6b20" opacity="0.18"/><circle cx="175.0" cy="316.3" r="1.84" fill="#bd6b20" opacity="0.24"/><circle cx="210.3" cy="316.3" r="3.01" fill="#bd6b20" opacity="0.30"/><circle cx="243.5" cy="316.6" r="3.84" fill="#bd6b20" opacity="0.28"/><circle cx="283.1" cy="319.6" r="3.98" fill="#bd6b20" opacity="0.27"/><circle cx="320.6" cy="320.8" r="3.32" fill="#bd6b20" opacity="0.20"/><circle cx="355.1" cy="315.6" r="3.18" fill="#bd6b20" opacity="0.20"/><circle cx="392.0" cy="320.4" r="3.53" fill="#bd6b20" opacity="0.34"/><circle cx="423.6" cy="317.2" r="3.72" fill="#bd6b20" opacity="0.32"/><circle cx="459.6" cy="319.5" r="1.62" fill="#bd6b20" opacity="0.34"/><circle cx="497.4" cy="319.4" r="3.56" fill="#bd6b20" opacity="0.28"/><circle cx="532.6" cy="316.6" r="1.71" fill="#bd6b20" opacity="0.28"/><circle cx="571.6" cy="316.4" r="1.99" fill="#bd6b20" opacity="0.35"/><circle cx="605.4" cy="317.3" r="3.16" fill="#bd6b20" opacity="0.32"/><circle cx="643.3" cy="317.6" r="3.56" fill="#bd6b20" opacity="0.22"/><circle cx="678.8" cy="320.2" r="1.82" fill="#bd6b20" opacity="0.20"/><circle cx="716.1" cy="316.5" r="3.69" fill="#bd6b20" opacity="0.20"/><circle cx="751.9" cy="316.7" r="3.32" fill="#bd6b20" opacity="0.34"/><circle cx="787.8" cy="320.7" r="2.07" fill="#bd6b20" opacity="0.22"/><circle cx="819.3" cy="320.8" r="2.75" fill="#bd6b20" opacity="0.33"/><circle cx="855.9" cy="316.8" r="3.58" fill="#bd6b20" opacity="0.28"/><circle cx="894.5" cy="317.4" r="2.62" fill="#bd6b20" opacity="0.28"/><circle cx="930.0" cy="318.7" r="2.47" fill="#bd6b20" opacity="0.16"/><circle cx="967.2" cy="317.3" r="3.24" fill="#bd6b20" opacity="0.34"/><circle cx="1003.4" cy="319.4" r="3.70" fill="#bd6b20" opacity="0.29"/><circle cx="1038.0" cy="320.8" r="2.82" fill="#bd6b20" opacity="0.27"/><circle cx="1073.7" cy="316.0" r="2.81" fill="#bd6b20" opacity="0.22"/><circle cx="1110.1" cy="317.3" r="1.86" fill="#bd6b20" opacity="0.33"/><circle cx="1147.6" cy="317.1" r="2.45" fill="#bd6b20" opacity="0.21"/><circle cx="1180.0" cy="320.1" r="3.52" fill="#bd6b20" opacity="0.28"/><circle cx="31.4" cy="353.3" r="3.21" fill="#bd6b20" opacity="0.33"/><circle cx="64.4" cy="353.1" r="2.27" fill="#bd6b20" opacity="0.20"/><circle cx="104.4" cy="354.3" r="2.04" fill="#bd6b20" opacity="0.24"/><circle cx="135.2" cy="356.2" r="3.23" fill="#bd6b20" opacity="0.23"/><circle cx="174.2" cy="355.6" r="1.82" fill="#bd6b20" opacity="0.27"/><circle cx="210.1" cy="354.0" r="3.65" fill="#bd6b20" opacity="0.16"/><circle cx="247.2" cy="355.7" r="3.32" fill="#bd6b20" opacity="0.33"/><circle cx="280.1" cy="353.5" r="1.67" fill="#bd6b20" opacity="0.33"/><circle cx="315.0" cy="356.1" r="3.30" fill="#bd6b20" opacity="0.20"/><circle cx="356.6" cy="354.2" r="2.04" fill="#bd6b20" opacity="0.17"/><circle cx="390.5" cy="351.7" r="2.64" fill="#bd6b20" opacity="0.30"/><circle cx="424.2" cy="356.1" r="2.76" fill="#bd6b20" opacity="0.19"/><circle cx="463.0" cy="351.8" r="2.20" fill="#bd6b20" opacity="0.31"/><circle cx="500.1" cy="355.5" r="3.18" fill="#bd6b20" opacity="0.34"/><circle cx="536.0" cy="351.2" r="2.90" fill="#bd6b20" opacity="0.30"/><circle cx="569.0" cy="355.4" r="2.52" fill="#bd6b20" opacity="0.31"/><circle cx="609.0" cy="355.7" r="3.61" fill="#bd6b20" opacity="0.32"/><circle cx="640.8" cy="352.8" r="2.26" fill="#bd6b20" opacity="0.18"/><circle cx="676.6" cy="353.9" r="2.56" fill="#bd6b20" opacity="0.28"/><circle cx="715.9" cy="356.0" r="3.83" fill="#bd6b20" opacity="0.20"/><circle cx="748.1" cy="351.0" r="2.76" fill="#bd6b20" opacity="0.29"/><circle cx="786.5" cy="352.2" r="2.05" fill="#bd6b20" opacity="0.17"/><circle cx="824.9" cy="356.1" r="2.16" fill="#bd6b20" opacity="0.19"/><circle cx="855.4" cy="352.3" r="2.42" fill="#bd6b20" opacity="0.25"/><circle cx="895.2" cy="355.0" r="3.24" fill="#bd6b20" opacity="0.31"/><circle cx="930.2" cy="352.0" r="2.84" fill="#bd6b20" opacity="0.16"/><circle cx="963.4" cy="356.1" r="3.48" fill="#bd6b20" opacity="0.22"/><circle cx="999.4" cy="353.7" r="3.13" fill="#bd6b20" opacity="0.16"/><circle cx="1035.4" cy="352.3" r="3.85" fill="#bd6b20" opacity="0.27"/><circle cx="1072.9" cy="356.9" r="3.35" fill="#bd6b20" opacity="0.32"/><circle cx="1109.6" cy="356.3" r="3.52" fill="#bd6b20" opacity="0.36"/><circle cx="1143.7" cy="352.7" r="2.51" fill="#bd6b20" opacity="0.26"/><circle cx="1184.1" cy="351.6" r="2.83" fill="#bd6b20" opacity="0.28"/><circle cx="31.3" cy="388.1" r="3.76" fill="#bd6b20" opacity="0.31"/><circle cx="63.9" cy="391.8" r="2.67" fill="#bd6b20" opacity="0.30"/><circle cx="104.2" cy="388.7" r="3.04" fill="#bd6b20" opacity="0.29"/><circle cx="139.8" cy="388.6" r="2.24" fill="#bd6b20" opacity="0.30"/><circle cx="172.6" cy="392.5" r="3.18" fill="#bd6b20" opacity="0.26"/><circle cx="210.1" cy="392.8" r="3.83" fill="#bd6b20" opacity="0.34"/><circle cx="244.9" cy="391.6" r="3.88" fill="#bd6b20" opacity="0.33"/><circle cx="280.9" cy="391.2" r="3.70" fill="#bd6b20" opacity="0.33"/><circle cx="316.7" cy="388.9" r="3.07" fill="#bd6b20" opacity="0.30"/><circle cx="354.0" cy="389.8" r="2.08" fill="#bd6b20" opacity="0.23"/><circle cx="391.6" cy="390.7" r="3.63" fill="#bd6b20" opacity="0.35"/><circle cx="427.1" cy="389.1" r="3.72" fill="#bd6b20" opacity="0.32"/><circle cx="459.5" cy="392.7" r="2.52" fill="#bd6b20" opacity="0.33"/><circle cx="499.5" cy="389.3" r="3.19" fill="#bd6b20" opacity="0.20"/><circle cx="531.9" cy="391.9" r="1.92" fill="#bd6b20" opacity="0.31"/><circle cx="570.3" cy="389.0" r="3.54" fill="#bd6b20" opacity="0.31"/><circle cx="608.2" cy="392.4" r="2.99" fill="#bd6b20" opacity="0.26"/><circle cx="642.6" cy="389.2" r="2.39" fill="#bd6b20" opacity="0.30"/><circle cx="675.0" cy="389.6" r="3.80" fill="#bd6b20" opacity="0.28"/><circle cx="714.9" cy="390.5" r="1.78" fill="#bd6b20" opacity="0.29"/><circle cx="751.0" cy="387.9" r="2.04" fill="#bd6b20" opacity="0.32"/><circle cx="786.3" cy="389.1" r="2.64" fill="#bd6b20" opacity="0.21"/><circle cx="823.3" cy="389.2" r="2.94" fill="#bd6b20" opacity="0.27"/><circle cx="856.6" cy="391.0" r="2.53" fill="#bd6b20" opacity="0.35"/><circle cx="893.6" cy="387.2" r="1.77" fill="#bd6b20" opacity="0.24"/><circle cx="931.3" cy="387.2" r="1.81" fill="#bd6b20" opacity="0.15"/><circle cx="965.4" cy="392.3" r="1.68" fill="#bd6b20" opacity="0.35"/><circle cx="1002.1" cy="390.2" r="2.07" fill="#bd6b20" opacity="0.29"/><circle cx="1038.5" cy="390.1" r="3.04" fill="#bd6b20" opacity="0.19"/><circle cx="1071.2" cy="390.7" r="3.54" fill="#bd6b20" opacity="0.19"/><circle cx="1108.8" cy="387.2" r="3.70" fill="#bd6b20" opacity="0.24"/><circle cx="1143.5" cy="387.6" r="3.31" fill="#bd6b20" opacity="0.26"/><circle cx="1180.5" cy="390.5" r="3.16" fill="#bd6b20" opacity="0.19"/><circle cx="30.8" cy="424.4" r="2.68" fill="#bd6b20" opacity="0.32"/><circle cx="65.6" cy="425.4" r="3.83" fill="#bd6b20" opacity="0.21"/><circle cx="102.7" cy="427.7" r="3.63" fill="#bd6b20" opacity="0.32"/><circle cx="140.7" cy="427.8" r="3.53" fill="#bd6b20" opacity="0.17"/><circle cx="172.1" cy="425.6" r="3.65" fill="#bd6b20" opacity="0.23"/><circle cx="209.7" cy="428.9" r="2.31" fill="#bd6b20" opacity="0.29"/><circle cx="246.2" cy="428.1" r="2.16" fill="#bd6b20" opacity="0.18"/><circle cx="280.0" cy="426.4" r="3.94" fill="#bd6b20" opacity="0.27"/><circle cx="317.3" cy="429.0" r="3.38" fill="#bd6b20" opacity="0.31"/><circle cx="356.8" cy="428.7" r="1.71" fill="#bd6b20" opacity="0.29"/><circle cx="387.3" cy="424.5" r="2.35" fill="#bd6b20" opacity="0.20"/><circle cx="427.8" cy="423.4" r="3.99" fill="#bd6b20" opacity="0.25"/><circle cx="462.4" cy="427.5" r="2.96" fill="#bd6b20" opacity="0.32"/><circle cx="498.4" cy="427.9" r="2.55" fill="#bd6b20" opacity="0.29"/><circle cx="533.5" cy="427.8" r="2.37" fill="#bd6b20" opacity="0.15"/><circle cx="572.3" cy="428.8" r="3.44" fill="#bd6b20" opacity="0.33"/><circle cx="605.4" cy="427.1" r="3.80" fill="#bd6b20" opacity="0.22"/><circle cx="642.9" cy="427.3" r="2.92" fill="#bd6b20" opacity="0.32"/><circle cx="675.7" cy="426.5" r="2.27" fill="#bd6b20" opacity="0.26"/><circle cx="712.0" cy="423.7" r="3.89" fill="#bd6b20" opacity="0.34"/><circle cx="751.6" cy="425.5" r="2.74" fill="#bd6b20" opacity="0.17"/><circle cx="783.5" cy="426.5" r="3.63" fill="#bd6b20" opacity="0.33"/><circle cx="822.1" cy="423.5" r="2.13" fill="#bd6b20" opacity="0.34"/><circle cx="860.8" cy="423.1" r="1.83" fill="#bd6b20" opacity="0.32"/><circle cx="896.2" cy="424.8" r="2.04" fill="#bd6b20" opacity="0.23"/><circle cx="929.9" cy="425.6" r="2.50" fill="#bd6b20" opacity="0.31"/><circle cx="963.4" cy="424.3" r="3.80" fill="#bd6b20" opacity="0.26"/><circle cx="1000.2" cy="423.4" r="3.95" fill="#bd6b20" opacity="0.26"/><circle cx="1036.2" cy="426.9" r="2.33" fill="#bd6b20" opacity="0.17"/><circle cx="1071.8" cy="427.3" r="2.62" fill="#bd6b20" opacity="0.33"/><circle cx="1107.3" cy="423.6" r="2.63" fill="#bd6b20" opacity="0.22"/><circle cx="1146.1" cy="425.0" r="3.23" fill="#bd6b20" opacity="0.25"/><circle cx="1183.5" cy="425.2" r="3.13" fill="#bd6b20" opacity="0.15"/><circle cx="32.9" cy="464.5" r="3.30" fill="#bd6b20" opacity="0.36"/><circle cx="66.6" cy="461.7" r="3.33" fill="#bd6b20" opacity="0.29"/><circle cx="103.1" cy="463.8" r="2.00" fill="#bd6b20" opacity="0.30"/><circle cx="135.9" cy="463.8" r="2.68" fill="#bd6b20" opacity="0.19"/><circle cx="171.1" cy="459.8" r="2.27" fill="#bd6b20" opacity="0.27"/><circle cx="211.0" cy="461.4" r="1.69" fill="#bd6b20" opacity="0.26"/><circle cx="245.7" cy="460.3" r="2.76" fill="#bd6b20" opacity="0.32"/><circle cx="283.9" cy="459.1" r="2.21" fill="#bd6b20" opacity="0.27"/><circle cx="319.4" cy="464.2" r="2.23" fill="#bd6b20" opacity="0.15"/><circle cx="354.0" cy="460.4" r="1.87" fill="#bd6b20" opacity="0.27"/><circle cx="387.4" cy="460.9" r="1.77" fill="#bd6b20" opacity="0.28"/><circle cx="424.1" cy="459.3" r="3.60" fill="#bd6b20" opacity="0.34"/><circle cx="463.1" cy="460.1" r="2.35" fill="#bd6b20" opacity="0.31"/><circle cx="496.6" cy="460.6" r="2.81" fill="#bd6b20" opacity="0.27"/><circle cx="531.9" cy="460.8" r="2.12" fill="#bd6b20" opacity="0.23"/><circle cx="569.7" cy="463.7" r="2.01" fill="#bd6b20" opacity="0.30"/><circle cx="605.1" cy="459.0" r="3.20" fill="#bd6b20" opacity="0.27"/><circle cx="644.3" cy="464.4" r="2.73" fill="#bd6b20" opacity="0.28"/><circle cx="680.7" cy="461.2" r="2.34" fill="#bd6b20" opacity="0.20"/><circle cx="714.0" cy="460.0" r="3.13" fill="#bd6b20" opacity="0.17"/><circle cx="749.6" cy="461.1" r="2.62" fill="#bd6b20" opacity="0.34"/><circle cx="787.3" cy="464.4" r="2.72" fill="#bd6b20" opacity="0.26"/><circle cx="821.5" cy="463.4" r="2.82" fill="#bd6b20" opacity="0.19"/><circle cx="859.0" cy="461.8" r="2.47" fill="#bd6b20" opacity="0.32"/><circle cx="893.4" cy="461.9" r="1.97" fill="#bd6b20" opacity="0.29"/><circle cx="927.6" cy="460.2" r="2.32" fill="#bd6b20" opacity="0.21"/><circle cx="966.2" cy="461.2" r="2.30" fill="#bd6b20" opacity="0.21"/><circle cx="1000.3" cy="460.0" r="2.15" fill="#bd6b20" opacity="0.18"/><circle cx="1040.2" cy="463.7" r="2.40" fill="#bd6b20" opacity="0.16"/><circle cx="1074.6" cy="460.8" r="2.16" fill="#bd6b20" opacity="0.33"/><circle cx="1109.9" cy="463.8" r="3.17" fill="#bd6b20" opacity="0.29"/><circle cx="1146.6" cy="460.9" r="3.68" fill="#bd6b20" opacity="0.17"/><circle cx="1183.2" cy="459.5" r="1.82" fill="#bd6b20" opacity="0.25"/><circle cx="32.2" cy="496.0" r="1.79" fill="#bd6b20" opacity="0.19"/><circle cx="65.3" cy="495.6" r="3.44" fill="#bd6b20" opacity="0.24"/><circle cx="99.7" cy="495.9" r="1.69" fill="#bd6b20" opacity="0.30"/><circle cx="136.2" cy="499.4" r="3.80" fill="#bd6b20" opacity="0.20"/><circle cx="172.4" cy="500.7" r="3.41" fill="#bd6b20" opacity="0.22"/><circle cx="212.3" cy="500.2" r="1.79" fill="#bd6b20" opacity="0.35"/><circle cx="245.2" cy="495.9" r="3.90" fill="#bd6b20" opacity="0.31"/><circle cx="281.5" cy="500.3" r="1.76" fill="#bd6b20" opacity="0.28"/><circle cx="318.7" cy="500.9" r="1.70" fill="#bd6b20" opacity="0.18"/><circle cx="354.5" cy="500.5" r="3.97" fill="#bd6b20" opacity="0.36"/><circle cx="390.9" cy="496.4" r="1.89" fill="#bd6b20" opacity="0.29"/><circle cx="423.7" cy="498.8" r="3.51" fill="#bd6b20" opacity="0.25"/><circle cx="460.8" cy="495.9" r="1.76" fill="#bd6b20" opacity="0.25"/><circle cx="496.4" cy="497.1" r="2.41" fill="#bd6b20" opacity="0.33"/><circle cx="535.5" cy="499.6" r="3.32" fill="#bd6b20" opacity="0.20"/><circle cx="569.1" cy="496.5" r="3.78" fill="#bd6b20" opacity="0.18"/><circle cx="604.9" cy="500.1" r="2.34" fill="#bd6b20" opacity="0.20"/><circle cx="643.8" cy="497.1" r="3.95" fill="#bd6b20" opacity="0.24"/><circle cx="677.1" cy="496.4" r="3.56" fill="#bd6b20" opacity="0.26"/><circle cx="715.2" cy="496.4" r="2.64" fill="#bd6b20" opacity="0.32"/><circle cx="749.2" cy="498.6" r="2.44" fill="#bd6b20" opacity="0.18"/><circle cx="786.1" cy="498.0" r="3.27" fill="#bd6b20" opacity="0.21"/><circle cx="819.2" cy="497.1" r="3.98" fill="#bd6b20" opacity="0.21"/><circle cx="857.0" cy="496.9" r="3.34" fill="#bd6b20" opacity="0.25"/><circle cx="894.2" cy="498.9" r="3.40" fill="#bd6b20" opacity="0.33"/><circle cx="928.9" cy="498.3" r="2.40" fill="#bd6b20" opacity="0.31"/><circle cx="968.4" cy="499.6" r="1.73" fill="#bd6b20" opacity="0.22"/><circle cx="1002.2" cy="496.2" r="2.85" fill="#bd6b20" opacity="0.29"/><circle cx="1035.9" cy="497.3" r="2.88" fill="#bd6b20" opacity="0.26"/><circle cx="1071.7" cy="498.1" r="3.80" fill="#bd6b20" opacity="0.34"/><circle cx="1107.1" cy="499.7" r="3.95" fill="#bd6b20" opacity="0.35"/><circle cx="1143.1" cy="496.8" r="2.57" fill="#bd6b20" opacity="0.34"/><circle cx="1183.9" cy="497.4" r="1.75" fill="#bd6b20" opacity="0.22"/><circle cx="32.3" cy="534.1" r="2.53" fill="#bd6b20" opacity="0.21"/><circle cx="65.6" cy="536.9" r="2.84" fill="#bd6b20" opacity="0.28"/><circle cx="99.7" cy="535.7" r="3.71" fill="#bd6b20" opacity="0.35"/><circle cx="136.8" cy="532.6" r="2.73" fill="#bd6b20" opacity="0.28"/><circle cx="172.6" cy="536.2" r="2.79" fill="#bd6b20" opacity="0.35"/><circle cx="208.9" cy="534.0" r="2.43" fill="#bd6b20" opacity="0.24"/><circle cx="245.3" cy="533.5" r="1.82" fill="#bd6b20" opacity="0.17"/><circle cx="279.6" cy="533.5" r="3.92" fill="#bd6b20" opacity="0.26"/><circle cx="315.8" cy="536.1" r="3.44" fill="#bd6b20" opacity="0.27"/><circle cx="355.0" cy="533.7" r="2.01" fill="#bd6b20" opacity="0.32"/><circle cx="387.9" cy="533.3" r="2.68" fill="#bd6b20" opacity="0.17"/><circle cx="427.6" cy="532.1" r="3.57" fill="#bd6b20" opacity="0.27"/><circle cx="464.5" cy="537.0" r="2.52" fill="#bd6b20" opacity="0.16"/><circle cx="498.7" cy="533.6" r="1.79" fill="#bd6b20" opacity="0.20"/><circle cx="536.5" cy="532.4" r="2.35" fill="#bd6b20" opacity="0.24"/><circle cx="571.0" cy="536.2" r="3.00" fill="#bd6b20" opacity="0.29"/><circle cx="607.1" cy="535.1" r="2.05" fill="#bd6b20" opacity="0.23"/><circle cx="641.3" cy="533.7" r="2.38" fill="#bd6b20" opacity="0.34"/><circle cx="677.6" cy="534.8" r="3.16" fill="#bd6b20" opacity="0.25"/><circle cx="713.6" cy="534.2" r="3.01" fill="#bd6b20" opacity="0.20"/><circle cx="752.2" cy="531.8" r="3.18" fill="#bd6b20" opacity="0.19"/><circle cx="783.3" cy="535.8" r="1.94" fill="#bd6b20" opacity="0.32"/><circle cx="824.8" cy="531.1" r="3.96" fill="#bd6b20" opacity="0.31"/><circle cx="855.9" cy="536.5" r="3.16" fill="#bd6b20" opacity="0.29"/><circle cx="896.9" cy="535.6" r="2.04" fill="#bd6b20" opacity="0.36"/><circle cx="929.2" cy="535.9" r="2.17" fill="#bd6b20" opacity="0.34"/><circle cx="963.9" cy="534.6" r="3.97" fill="#bd6b20" opacity="0.36"/><circle cx="1000.5" cy="531.7" r="3.43" fill="#bd6b20" opacity="0.30"/><circle cx="1040.8" cy="531.3" r="3.43" fill="#bd6b20" opacity="0.22"/><circle cx="1073.9" cy="534.3" r="2.46" fill="#bd6b20" opacity="0.31"/><circle cx="1108.2" cy="536.7" r="2.79" fill="#bd6b20" opacity="0.21"/><circle cx="1146.0" cy="536.5" r="2.49" fill="#bd6b20" opacity="0.16"/><circle cx="1184.8" cy="534.7" r="3.01" fill="#bd6b20" opacity="0.34"/><circle cx="32.8" cy="568.2" r="3.34" fill="#bd6b20" opacity="0.26"/><circle cx="63.9" cy="567.3" r="3.66" fill="#bd6b20" opacity="0.30"/><circle cx="99.6" cy="568.2" r="3.37" fill="#bd6b20" opacity="0.33"/><circle cx="136.1" cy="567.3" r="3.50" fill="#bd6b20" opacity="0.18"/><circle cx="175.1" cy="571.7" r="2.32" fill="#bd6b20" opacity="0.19"/><circle cx="207.8" cy="571.2" r="3.35" fill="#bd6b20" opacity="0.26"/><circle cx="244.4" cy="572.9" r="3.85" fill="#bd6b20" opacity="0.25"/><circle cx="283.2" cy="570.7" r="2.70" fill="#bd6b20" opacity="0.25"/><circle cx="317.3" cy="567.1" r="2.84" fill="#bd6b20" opacity="0.24"/><circle cx="353.3" cy="570.2" r="3.10" fill="#bd6b20" opacity="0.22"/><circle cx="387.3" cy="572.3" r="3.02" fill="#bd6b20" opacity="0.30"/><circle cx="426.0" cy="569.3" r="3.56" fill="#bd6b20" opacity="0.19"/><circle cx="460.4" cy="567.7" r="1.60" fill="#bd6b20" opacity="0.25"/><circle cx="495.9" cy="570.7" r="2.92" fill="#bd6b20" opacity="0.29"/><circle cx="534.2" cy="571.6" r="1.93" fill="#bd6b20" opacity="0.33"/><circle cx="569.4" cy="572.8" r="3.03" fill="#bd6b20" opacity="0.24"/><circle cx="607.0" cy="571.3" r="2.10" fill="#bd6b20" opacity="0.31"/><circle cx="639.6" cy="569.1" r="3.82" fill="#bd6b20" opacity="0.16"/><circle cx="676.5" cy="569.4" r="2.81" fill="#bd6b20" opacity="0.28"/><circle cx="711.4" cy="569.3" r="3.90" fill="#bd6b20" opacity="0.23"/><circle cx="751.1" cy="572.9" r="3.82" fill="#bd6b20" opacity="0.28"/><circle cx="783.3" cy="571.3" r="3.46" fill="#bd6b20" opacity="0.19"/><circle cx="819.2" cy="572.6" r="2.12" fill="#bd6b20" opacity="0.27"/><circle cx="858.6" cy="568.5" r="3.49" fill="#bd6b20" opacity="0.32"/><circle cx="891.3" cy="568.3" r="1.61" fill="#bd6b20" opacity="0.29"/><circle cx="930.4" cy="570.3" r="2.81" fill="#bd6b20" opacity="0.30"/><circle cx="965.3" cy="568.7" r="2.04" fill="#bd6b20" opacity="0.35"/><circle cx="1004.4" cy="569.5" r="1.63" fill="#bd6b20" opacity="0.18"/><circle cx="1038.7" cy="568.0" r="3.51" fill="#bd6b20" opacity="0.34"/><circle cx="1074.8" cy="567.0" r="1.97" fill="#bd6b20" opacity="0.24"/><circle cx="1112.9" cy="569.0" r="2.19" fill="#bd6b20" opacity="0.17"/><circle cx="1146.4" cy="570.1" r="3.23" fill="#bd6b20" opacity="0.29"/><circle cx="1182.0" cy="567.3" r="2.93" fill="#bd6b20" opacity="0.26"/><circle cx="27.4" cy="603.1" r="2.83" fill="#bd6b20" opacity="0.34"/><circle cx="68.1" cy="604.9" r="2.53" fill="#bd6b20" opacity="0.24"/><circle cx="99.8" cy="607.9" r="3.44" fill="#bd6b20" opacity="0.17"/><circle cx="138.4" cy="608.0" r="2.11" fill="#bd6b20" opacity="0.16"/><circle cx="172.6" cy="607.3" r="2.03" fill="#bd6b20" opacity="0.36"/><circle cx="207.1" cy="606.3" r="3.15" fill="#bd6b20" opacity="0.30"/><circle cx="247.0" cy="603.9" r="2.59" fill="#bd6b20" opacity="0.32"/><circle cx="281.2" cy="604.8" r="3.79" fill="#bd6b20" opacity="0.36"/><circle cx="318.9" cy="607.1" r="3.65" fill="#bd6b20" opacity="0.15"/><circle cx="351.4" cy="603.2" r="3.02" fill="#bd6b20" opacity="0.22"/><circle cx="388.4" cy="604.4" r="2.80" fill="#bd6b20" opacity="0.24"/><circle cx="423.5" cy="608.4" r="3.21" fill="#bd6b20" opacity="0.30"/><circle cx="464.9" cy="609.0" r="1.89" fill="#bd6b20" opacity="0.24"/><circle cx="497.8" cy="604.4" r="1.81" fill="#bd6b20" opacity="0.24"/><circle cx="531.6" cy="607.3" r="1.90" fill="#bd6b20" opacity="0.26"/><circle cx="569.8" cy="605.7" r="1.75" fill="#bd6b20" opacity="0.35"/><circle cx="607.8" cy="603.1" r="2.84" fill="#bd6b20" opacity="0.35"/><circle cx="641.0" cy="607.5" r="1.66" fill="#bd6b20" opacity="0.17"/><circle cx="679.4" cy="604.1" r="3.33" fill="#bd6b20" opacity="0.35"/><circle cx="714.1" cy="608.7" r="3.46" fill="#bd6b20" opacity="0.18"/><circle cx="750.6" cy="604.6" r="3.61" fill="#bd6b20" opacity="0.16"/><circle cx="783.9" cy="607.4" r="3.28" fill="#bd6b20" opacity="0.32"/><circle cx="823.2" cy="608.0" r="2.97" fill="#bd6b20" opacity="0.20"/><circle cx="857.8" cy="605.0" r="2.01" fill="#bd6b20" opacity="0.20"/><circle cx="896.8" cy="604.4" r="2.23" fill="#bd6b20" opacity="0.19"/><circle cx="931.4" cy="603.4" r="3.85" fill="#bd6b20" opacity="0.26"/><circle cx="966.1" cy="607.0" r="2.67" fill="#bd6b20" opacity="0.26"/><circle cx="1000.4" cy="604.0" r="2.05" fill="#bd6b20" opacity="0.30"/><circle cx="1036.0" cy="604.8" r="3.10" fill="#bd6b20" opacity="0.17"/><circle cx="1075.5" cy="608.2" r="3.43" fill="#bd6b20" opacity="0.34"/><circle cx="1110.6" cy="606.9" r="2.62" fill="#bd6b20" opacity="0.34"/><circle cx="1148.4" cy="608.3" r="3.43" fill="#bd6b20" opacity="0.25"/><circle cx="1181.0" cy="605.1" r="2.05" fill="#bd6b20" opacity="0.26"/><circle cx="29.3" cy="643.1" r="2.69" fill="#bd6b20" opacity="0.26"/><circle cx="66.3" cy="640.9" r="2.83" fill="#bd6b20" opacity="0.18"/><circle cx="100.9" cy="644.0" r="3.11" fill="#bd6b20" opacity="0.28"/><circle cx="138.0" cy="639.5" r="3.63" fill="#bd6b20" opacity="0.22"/><circle cx="175.7" cy="641.8" r="1.82" fill="#bd6b20" opacity="0.16"/><circle cx="209.1" cy="640.7" r="3.82" fill="#bd6b20" opacity="0.31"/><circle cx="247.4" cy="639.0" r="3.67" fill="#bd6b20" opacity="0.34"/><circle cx="280.8" cy="643.8" r="2.44" fill="#bd6b20" opacity="0.26"/><circle cx="316.8" cy="641.7" r="2.82" fill="#bd6b20" opacity="0.23"/><circle cx="352.5" cy="639.9" r="3.25" fill="#bd6b20" opacity="0.15"/><circle cx="391.9" cy="641.7" r="3.09" fill="#bd6b20" opacity="0.30"/><circle cx="427.3" cy="641.4" r="1.95" fill="#bd6b20" opacity="0.27"/><circle cx="461.1" cy="642.7" r="2.93" fill="#bd6b20" opacity="0.36"/><circle cx="498.9" cy="641.7" r="1.88" fill="#bd6b20" opacity="0.19"/><circle cx="533.4" cy="639.4" r="2.08" fill="#bd6b20" opacity="0.15"/><circle cx="572.0" cy="643.4" r="3.93" fill="#bd6b20" opacity="0.26"/><circle cx="607.0" cy="640.4" r="3.83" fill="#bd6b20" opacity="0.15"/><circle cx="640.8" cy="639.3" r="2.44" fill="#bd6b20" opacity="0.33"/><circle cx="677.6" cy="642.4" r="3.37" fill="#bd6b20" opacity="0.27"/><circle cx="716.0" cy="640.1" r="2.43" fill="#bd6b20" opacity="0.19"/><circle cx="747.7" cy="640.5" r="3.68" fill="#bd6b20" opacity="0.17"/><circle cx="786.1" cy="644.2" r="2.31" fill="#bd6b20" opacity="0.19"/><circle cx="820.6" cy="644.5" r="2.78" fill="#bd6b20" opacity="0.27"/><circle cx="858.0" cy="639.3" r="3.51" fill="#bd6b20" opacity="0.25"/><circle cx="893.7" cy="640.7" r="2.01" fill="#bd6b20" opacity="0.27"/><circle cx="929.3" cy="639.7" r="2.95" fill="#bd6b20" opacity="0.21"/><circle cx="965.8" cy="639.5" r="3.46" fill="#bd6b20" opacity="0.15"/><circle cx="1002.8" cy="643.0" r="2.57" fill="#bd6b20" opacity="0.18"/><circle cx="1039.4" cy="642.0" r="2.69" fill="#bd6b20" opacity="0.35"/><circle cx="1072.9" cy="640.5" r="3.41" fill="#bd6b20" opacity="0.26"/><circle cx="1107.7" cy="639.7" r="3.34" fill="#bd6b20" opacity="0.32"/><circle cx="1143.8" cy="644.3" r="2.81" fill="#bd6b20" opacity="0.33"/><circle cx="1182.9" cy="639.8" r="1.73" fill="#bd6b20" opacity="0.17"/><circle cx="221.8" cy="216.6" r="220" fill="url(#glow)" opacity="0.9"/>
  <g opacity="0.85" transform="translate(1020, 495)">
        <rect x="-46" y="-60" width="92" height="115" fill="#bd6b20" opacity="0.18" rx="6"/>
        <path d="M -28 -36 L 28 -36 M -28 -12 L 28 -12 M -28 12 L 18 12 M -28 36 L 28 36" stroke="#9a5518" stroke-width="3" stroke-linecap="round"/>
      </g>
  <g transform="translate(80, 90)">
    <rect x="0" y="0" rx="20" ry="20" width="101" height="38" fill="#bd6b20" opacity="0.18" stroke="#bd6b20" stroke-width="1.5"/>
    <text x="50.5" y="25" font-family="ui-sans-serif, Inter, sans-serif" font-weight="700" font-size="14" letter-spacing="2.5" fill="#bd6b20" text-anchor="middle">ARTICLE</text>
  </g>
  <text x="80" y="515" font-family="ui-sans-serif, -apple-system, Segoe UI, Inter, sans-serif" font-weight="800" font-size="44" fill="#12100e" opacity="0.98"><tspan x="80" dy="0">Honouring Gurus in Dispute</tspan><tspan x="80" dy="56">Resolution on Guru Purnima</tspan></text>
  <rect x="0" y="669" width="1200" height="6" fill="url(#gold)"/>
</svg>