<?xml version="1.0" encoding="UTF-8"?>
<svg xmlns="http://www.w3.org/2000/svg" viewBox="0 0 1200 675" width="1200" height="675" role="img" aria-label="How to Check Your CIBIL Score: Free Options and Methods">
  <defs>
    <linearGradient id="bg" x1="0%" y1="0%" x2="100%" y2="100%">
      <stop offset="0%" stop-color="#12100e"/>
      <stop offset="100%" stop-color="#1c1917"/>
    </linearGradient>
    <linearGradient id="gold" x1="0%" y1="0%" x2="100%" y2="100%">
      <stop offset="0%" stop-color="#bd6b20"/>
      <stop offset="100%" stop-color="#e09440"/>
    </linearGradient>
    <radialGradient id="glow" cx="50%" cy="50%" r="50%">
      <stop offset="0%" stop-color="#bd6b20" stop-opacity="0.45"/>
      <stop offset="100%" stop-color="#bd6b20" stop-opacity="0"/>
    </radialGradient>
  </defs>
  <rect width="1200" height="675" fill="url(#bg)"/>
  <circle cx="32.0" cy="32.0" r="2.82" fill="#bd6b20" opacity="0.25"/><circle cx="67.4" cy="29.2" r="2.69" fill="#bd6b20" opacity="0.20"/><circle cx="99.9" cy="31.3" r="2.72" fill="#bd6b20" opacity="0.34"/><circle cx="139.0" cy="30.7" r="1.98" fill="#bd6b20" opacity="0.26"/><circle cx="177.0" cy="27.3" r="3.19" fill="#bd6b20" opacity="0.20"/><circle cx="208.0" cy="32.0" r="2.85" fill="#bd6b20" opacity="0.22"/><circle cx="243.0" cy="29.0" r="3.96" fill="#bd6b20" opacity="0.27"/><circle cx="284.3" cy="29.3" r="3.47" fill="#bd6b20" opacity="0.27"/><circle cx="320.6" cy="31.5" r="2.54" fill="#bd6b20" opacity="0.16"/><circle cx="353.3" cy="32.6" r="3.20" fill="#bd6b20" opacity="0.18"/><circle cx="392.6" cy="28.3" r="2.48" fill="#bd6b20" opacity="0.20"/><circle cx="425.4" cy="29.3" r="3.36" fill="#bd6b20" opacity="0.21"/><circle cx="464.2" cy="30.6" r="3.90" fill="#bd6b20" opacity="0.23"/><circle cx="497.7" cy="31.1" r="1.63" fill="#bd6b20" opacity="0.30"/><circle cx="533.8" cy="30.4" r="3.00" fill="#bd6b20" opacity="0.31"/><circle cx="568.7" cy="30.4" r="2.77" fill="#bd6b20" opacity="0.19"/><circle cx="604.2" cy="29.6" r="2.83" fill="#bd6b20" opacity="0.32"/><circle cx="644.8" cy="33.0" r="1.91" fill="#bd6b20" opacity="0.20"/><circle cx="680.6" cy="27.4" r="2.70" fill="#bd6b20" opacity="0.35"/><circle cx="716.6" cy="30.1" r="3.23" fill="#bd6b20" opacity="0.27"/><circle cx="752.5" cy="28.7" r="2.46" fill="#bd6b20" opacity="0.24"/><circle cx="785.4" cy="32.3" r="3.11" fill="#bd6b20" opacity="0.30"/><circle cx="823.9" cy="30.9" r="1.89" fill="#bd6b20" opacity="0.23"/><circle cx="860.9" cy="29.8" r="3.72" fill="#bd6b20" opacity="0.27"/><circle cx="896.2" cy="31.9" r="2.11" fill="#bd6b20" opacity="0.35"/><circle cx="930.1" cy="30.7" r="2.00" fill="#bd6b20" opacity="0.32"/><circle cx="963.7" cy="31.6" r="3.00" fill="#bd6b20" opacity="0.25"/><circle cx="1000.2" cy="32.6" r="3.84" fill="#bd6b20" opacity="0.17"/><circle cx="1036.5" cy="31.3" r="3.41" fill="#bd6b20" opacity="0.24"/><circle cx="1071.2" cy="27.7" r="1.98" fill="#bd6b20" opacity="0.30"/><circle cx="1110.1" cy="29.7" r="3.19" fill="#bd6b20" opacity="0.20"/><circle cx="1145.6" cy="32.8" r="3.38" fill="#bd6b20" opacity="0.26"/><circle cx="1180.0" cy="27.5" r="2.20" fill="#bd6b20" opacity="0.28"/><circle cx="31.7" cy="68.4" r="1.80" fill="#bd6b20" opacity="0.18"/><circle cx="65.2" cy="66.6" r="2.89" fill="#bd6b20" opacity="0.19"/><circle cx="100.9" cy="65.7" r="3.75" fill="#bd6b20" opacity="0.27"/><circle cx="138.5" cy="66.6" r="2.49" fill="#bd6b20" opacity="0.25"/><circle cx="173.7" cy="63.5" r="2.80" fill="#bd6b20" opacity="0.18"/><circle cx="212.1" cy="66.6" r="2.09" fill="#bd6b20" opacity="0.30"/><circle cx="247.1" cy="68.0" r="3.04" fill="#bd6b20" opacity="0.19"/><circle cx="283.2" cy="66.0" r="1.67" fill="#bd6b20" opacity="0.19"/><circle cx="317.4" cy="67.9" r="2.51" fill="#bd6b20" opacity="0.27"/><circle cx="352.3" cy="65.5" r="3.64" fill="#bd6b20" opacity="0.30"/><circle cx="387.7" cy="64.0" r="1.64" fill="#bd6b20" opacity="0.17"/><circle cx="427.2" cy="67.9" r="2.40" fill="#bd6b20" opacity="0.33"/><circle cx="459.8" cy="64.5" r="1.83" fill="#bd6b20" opacity="0.28"/><circle cx="497.8" cy="63.8" r="2.67" fill="#bd6b20" opacity="0.34"/><circle cx="533.1" cy="65.7" r="3.86" fill="#bd6b20" opacity="0.19"/><circle cx="567.8" cy="64.3" r="2.19" fill="#bd6b20" opacity="0.29"/><circle cx="603.8" cy="63.4" r="2.29" fill="#bd6b20" opacity="0.35"/><circle cx="644.4" cy="67.1" r="3.68" fill="#bd6b20" opacity="0.31"/><circle cx="679.5" cy="65.8" r="2.39" fill="#bd6b20" opacity="0.31"/><circle cx="714.7" cy="67.1" r="2.17" fill="#bd6b20" opacity="0.19"/><circle cx="752.9" cy="66.6" r="3.36" fill="#bd6b20" opacity="0.32"/><circle cx="783.7" cy="66.4" r="3.60" fill="#bd6b20" opacity="0.34"/><circle cx="823.4" cy="63.3" r="1.80" fill="#bd6b20" opacity="0.16"/><circle cx="857.2" cy="63.2" r="3.65" fill="#bd6b20" opacity="0.33"/><circle cx="893.1" cy="67.6" r="2.16" fill="#bd6b20" opacity="0.17"/><circle cx="930.9" cy="64.8" r="2.59" fill="#bd6b20" opacity="0.18"/><circle cx="968.9" cy="67.5" r="2.84" fill="#bd6b20" opacity="0.23"/><circle cx="1003.1" cy="68.9" r="2.89" fill="#bd6b20" opacity="0.22"/><circle cx="1036.0" cy="66.9" r="1.62" fill="#bd6b20" opacity="0.22"/><circle cx="1076.6" cy="66.9" r="1.93" fill="#bd6b20" opacity="0.36"/><circle cx="1112.0" cy="67.9" r="3.46" fill="#bd6b20" opacity="0.23"/><circle cx="1143.3" cy="67.4" r="3.79" fill="#bd6b20" opacity="0.25"/><circle cx="1182.9" cy="66.3" r="2.80" fill="#bd6b20" opacity="0.24"/><circle cx="30.2" cy="100.1" r="2.12" fill="#bd6b20" opacity="0.34"/><circle cx="65.1" cy="99.2" r="1.85" fill="#bd6b20" opacity="0.27"/><circle cx="103.4" cy="100.1" r="2.79" fill="#bd6b20" opacity="0.25"/><circle cx="138.4" cy="99.8" r="2.46" fill="#bd6b20" opacity="0.35"/><circle cx="175.6" cy="104.9" r="3.52" fill="#bd6b20" opacity="0.16"/><circle cx="209.6" cy="101.9" r="1.66" fill="#bd6b20" opacity="0.31"/><circle cx="244.4" cy="104.9" r="2.46" fill="#bd6b20" opacity="0.33"/><circle cx="284.8" cy="101.7" r="2.53" fill="#bd6b20" opacity="0.17"/><circle cx="315.5" cy="100.3" r="3.37" fill="#bd6b20" opacity="0.32"/><circle cx="356.3" cy="103.7" r="1.90" fill="#bd6b20" opacity="0.26"/><circle cx="389.0" cy="102.3" r="1.87" fill="#bd6b20" opacity="0.21"/><circle cx="424.4" cy="104.4" r="2.75" fill="#bd6b20" opacity="0.30"/><circle cx="460.9" cy="102.5" r="2.60" fill="#bd6b20" opacity="0.17"/><circle cx="498.0" cy="104.0" r="2.63" fill="#bd6b20" opacity="0.20"/><circle cx="533.4" cy="100.6" r="3.14" fill="#bd6b20" opacity="0.35"/><circle cx="567.6" cy="100.4" r="3.29" fill="#bd6b20" opacity="0.19"/><circle cx="607.6" cy="104.3" r="2.45" fill="#bd6b20" opacity="0.18"/><circle cx="640.4" cy="104.4" r="3.11" fill="#bd6b20" opacity="0.21"/><circle cx="677.4" cy="102.1" r="3.06" fill="#bd6b20" opacity="0.29"/><circle cx="715.4" cy="103.0" r="3.74" fill="#bd6b20" opacity="0.25"/><circle cx="750.1" cy="101.8" r="2.61" fill="#bd6b20" opacity="0.23"/><circle cx="784.7" cy="101.6" r="2.45" fill="#bd6b20" opacity="0.32"/><circle cx="823.6" cy="103.6" r="2.73" fill="#bd6b20" opacity="0.20"/><circle cx="857.4" cy="104.2" r="3.63" fill="#bd6b20" opacity="0.28"/><circle cx="896.2" cy="103.5" r="2.44" fill="#bd6b20" opacity="0.24"/><circle cx="928.9" cy="100.9" r="3.76" fill="#bd6b20" opacity="0.20"/><circle cx="963.9" cy="100.1" r="2.86" fill="#bd6b20" opacity="0.22"/><circle cx="999.7" cy="100.4" r="3.57" fill="#bd6b20" opacity="0.36"/><circle cx="1036.3" cy="100.1" r="2.99" fill="#bd6b20" opacity="0.19"/><circle cx="1075.9" cy="99.0" r="3.04" fill="#bd6b20" opacity="0.33"/><circle cx="1108.1" cy="103.3" r="3.27" fill="#bd6b20" opacity="0.21"/><circle cx="1148.6" cy="99.5" r="3.43" fill="#bd6b20" opacity="0.16"/><circle cx="1181.3" cy="99.6" r="3.69" fill="#bd6b20" opacity="0.30"/><circle cx="29.0" cy="137.8" r="2.64" fill="#bd6b20" opacity="0.36"/><circle cx="67.0" cy="135.6" r="2.22" fill="#bd6b20" opacity="0.22"/><circle cx="103.8" cy="137.6" r="3.44" fill="#bd6b20" opacity="0.35"/><circle cx="139.7" cy="136.0" r="3.81" fill="#bd6b20" opacity="0.32"/><circle cx="176.5" cy="138.8" r="1.68" fill="#bd6b20" opacity="0.23"/><circle cx="208.3" cy="137.7" r="3.32" fill="#bd6b20" opacity="0.27"/><circle cx="248.6" cy="137.2" r="2.49" fill="#bd6b20" opacity="0.21"/><circle cx="279.6" cy="138.0" r="2.68" fill="#bd6b20" opacity="0.33"/><circle cx="319.4" cy="135.4" r="2.38" fill="#bd6b20" opacity="0.19"/><circle cx="354.1" cy="135.8" r="2.59" fill="#bd6b20" opacity="0.30"/><circle cx="388.4" cy="136.4" r="3.60" fill="#bd6b20" opacity="0.27"/><circle cx="428.7" cy="140.8" r="2.72" fill="#bd6b20" opacity="0.23"/><circle cx="461.4" cy="139.0" r="3.79" fill="#bd6b20" opacity="0.32"/><circle cx="499.9" cy="138.9" r="3.71" fill="#bd6b20" opacity="0.31"/><circle cx="535.0" cy="136.1" r="2.80" fill="#bd6b20" opacity="0.26"/><circle cx="568.7" cy="136.4" r="3.98" fill="#bd6b20" opacity="0.20"/><circle cx="605.8" cy="135.4" r="3.75" fill="#bd6b20" opacity="0.31"/><circle cx="644.4" cy="135.6" r="2.79" fill="#bd6b20" opacity="0.28"/><circle cx="675.9" cy="138.8" r="3.95" fill="#bd6b20" opacity="0.36"/><circle cx="712.2" cy="136.4" r="1.99" fill="#bd6b20" opacity="0.22"/><circle cx="750.3" cy="135.1" r="2.13" fill="#bd6b20" opacity="0.15"/><circle cx="786.3" cy="136.3" r="2.13" fill="#bd6b20" opacity="0.29"/><circle cx="821.2" cy="136.0" r="2.12" fill="#bd6b20" opacity="0.18"/><circle cx="860.9" cy="136.6" r="2.38" fill="#bd6b20" opacity="0.32"/><circle cx="896.2" cy="136.0" r="2.83" fill="#bd6b20" opacity="0.27"/><circle cx="929.0" cy="135.3" r="2.28" fill="#bd6b20" opacity="0.24"/><circle cx="966.1" cy="138.2" r="3.34" fill="#bd6b20" opacity="0.35"/><circle cx="999.6" cy="136.8" r="3.63" fill="#bd6b20" opacity="0.23"/><circle cx="1040.0" cy="138.7" r="2.76" fill="#bd6b20" opacity="0.17"/><circle cx="1071.7" cy="139.2" r="2.85" fill="#bd6b20" opacity="0.34"/><circle cx="1110.5" cy="135.7" r="2.60" fill="#bd6b20" opacity="0.32"/><circle cx="1146.9" cy="139.9" r="3.93" fill="#bd6b20" opacity="0.19"/><circle cx="1180.2" cy="138.6" r="2.72" fill="#bd6b20" opacity="0.24"/><circle cx="28.5" cy="172.9" r="3.81" fill="#bd6b20" opacity="0.23"/><circle cx="68.0" cy="175.0" r="3.90" fill="#bd6b20" opacity="0.18"/><circle cx="100.3" cy="173.3" r="2.21" fill="#bd6b20" opacity="0.18"/><circle cx="139.6" cy="171.0" r="3.87" fill="#bd6b20" opacity="0.22"/><circle cx="173.2" cy="172.9" r="3.53" fill="#bd6b20" opacity="0.17"/><circle cx="209.8" cy="176.8" r="2.35" fill="#bd6b20" opacity="0.21"/><circle cx="244.8" cy="173.9" r="2.86" fill="#bd6b20" opacity="0.20"/><circle cx="284.7" cy="177.0" r="1.66" fill="#bd6b20" opacity="0.18"/><circle cx="320.4" cy="171.9" r="3.94" fill="#bd6b20" opacity="0.29"/><circle cx="355.5" cy="171.9" r="3.99" fill="#bd6b20" opacity="0.28"/><circle cx="388.0" cy="171.5" r="2.36" fill="#bd6b20" opacity="0.23"/><circle cx="428.5" cy="175.6" r="1.71" fill="#bd6b20" opacity="0.19"/><circle cx="460.6" cy="173.1" r="3.06" fill="#bd6b20" opacity="0.24"/><circle cx="500.1" cy="172.8" r="3.95" fill="#bd6b20" opacity="0.17"/><circle cx="535.0" cy="175.8" r="1.87" fill="#bd6b20" opacity="0.33"/><circle cx="570.6" cy="173.2" r="2.21" fill="#bd6b20" opacity="0.34"/><circle cx="606.1" cy="175.8" r="3.38" fill="#bd6b20" opacity="0.15"/><circle cx="639.5" cy="176.8" r="3.15" fill="#bd6b20" opacity="0.35"/><circle cx="676.5" cy="175.2" r="3.64" fill="#bd6b20" opacity="0.17"/><circle cx="714.8" cy="173.3" r="3.34" fill="#bd6b20" opacity="0.33"/><circle cx="749.9" cy="174.1" r="3.86" fill="#bd6b20" opacity="0.32"/><circle cx="785.5" cy="173.3" r="1.70" fill="#bd6b20" opacity="0.29"/><circle cx="820.7" cy="171.7" r="3.77" fill="#bd6b20" opacity="0.28"/><circle cx="855.3" cy="172.9" r="2.26" fill="#bd6b20" opacity="0.22"/><circle cx="893.2" cy="174.3" r="2.66" fill="#bd6b20" opacity="0.20"/><circle cx="929.0" cy="171.0" r="3.20" fill="#bd6b20" opacity="0.33"/><circle cx="963.3" cy="173.6" r="2.13" fill="#bd6b20" opacity="0.21"/><circle cx="999.0" cy="173.6" r="2.18" fill="#bd6b20" opacity="0.19"/><circle cx="1038.7" cy="176.9" r="3.08" fill="#bd6b20" opacity="0.19"/><circle cx="1075.0" cy="172.7" r="1.70" fill="#bd6b20" opacity="0.21"/><circle cx="1107.1" cy="171.9" r="2.33" fill="#bd6b20" opacity="0.32"/><circle cx="1146.9" cy="171.2" r="2.15" fill="#bd6b20" opacity="0.32"/><circle cx="1181.0" cy="176.0" r="2.36" fill="#bd6b20" opacity="0.23"/><circle cx="31.0" cy="208.9" r="3.20" fill="#bd6b20" opacity="0.27"/><circle cx="63.1" cy="208.3" r="2.69" fill="#bd6b20" opacity="0.20"/><circle cx="101.8" cy="211.6" r="3.69" fill="#bd6b20" opacity="0.20"/><circle cx="135.7" cy="211.3" r="1.81" fill="#bd6b20" opacity="0.22"/><circle cx="173.5" cy="210.0" r="3.07" fill="#bd6b20" opacity="0.26"/><circle cx="208.5" cy="212.7" r="1.76" fill="#bd6b20" opacity="0.19"/><circle cx="246.8" cy="207.3" r="3.60" fill="#bd6b20" opacity="0.31"/><circle cx="280.1" cy="208.6" r="3.74" fill="#bd6b20" opacity="0.31"/><circle cx="318.0" cy="210.3" r="1.96" fill="#bd6b20" opacity="0.23"/><circle cx="356.7" cy="210.4" r="2.70" fill="#bd6b20" opacity="0.32"/><circle cx="392.4" cy="209.8" r="3.16" fill="#bd6b20" opacity="0.27"/><circle cx="426.9" cy="210.9" r="2.28" fill="#bd6b20" opacity="0.17"/><circle cx="464.3" cy="209.5" r="3.38" fill="#bd6b20" opacity="0.17"/><circle cx="495.6" cy="209.2" r="3.24" fill="#bd6b20" opacity="0.30"/><circle cx="531.3" cy="208.4" r="2.61" fill="#bd6b20" opacity="0.36"/><circle cx="571.8" cy="212.5" r="1.84" fill="#bd6b20" opacity="0.19"/><circle cx="604.1" cy="208.6" r="2.43" fill="#bd6b20" opacity="0.18"/><circle cx="641.9" cy="211.9" r="1.68" fill="#bd6b20" opacity="0.20"/><circle cx="680.7" cy="208.3" r="2.80" fill="#bd6b20" opacity="0.31"/><circle cx="716.6" cy="207.4" r="2.82" fill="#bd6b20" opacity="0.25"/><circle cx="749.4" cy="212.7" r="3.43" fill="#bd6b20" opacity="0.27"/><circle cx="784.7" cy="207.2" r="1.91" fill="#bd6b20" opacity="0.32"/><circle cx="822.5" cy="211.2" r="3.12" fill="#bd6b20" opacity="0.26"/><circle cx="855.6" cy="207.9" r="2.54" fill="#bd6b20" opacity="0.34"/><circle cx="892.8" cy="210.0" r="2.93" fill="#bd6b20" opacity="0.30"/><circle cx="932.9" cy="212.5" r="1.79" fill="#bd6b20" opacity="0.32"/><circle cx="967.8" cy="212.1" r="3.80" fill="#bd6b20" opacity="0.31"/><circle cx="1000.5" cy="210.2" r="3.58" fill="#bd6b20" opacity="0.26"/><circle cx="1038.4" cy="207.9" r="2.69" fill="#bd6b20" opacity="0.20"/><circle cx="1072.3" cy="208.7" r="3.09" fill="#bd6b20" opacity="0.16"/><circle cx="1109.8" cy="207.1" r="3.78" fill="#bd6b20" opacity="0.19"/><circle cx="1149.0" cy="208.6" r="1.90" fill="#bd6b20" opacity="0.28"/><circle cx="1179.2" cy="212.4" r="2.48" fill="#bd6b20" opacity="0.22"/><circle cx="28.6" cy="247.6" r="3.42" fill="#bd6b20" opacity="0.29"/><circle cx="65.6" cy="246.7" r="3.29" fill="#bd6b20" opacity="0.35"/><circle cx="102.1" cy="244.3" r="3.97" fill="#bd6b20" opacity="0.19"/><circle cx="137.4" cy="244.6" r="1.62" fill="#bd6b20" opacity="0.31"/><circle cx="173.2" cy="248.3" r="2.41" fill="#bd6b20" opacity="0.19"/><circle cx="207.1" cy="245.4" r="3.19" fill="#bd6b20" opacity="0.26"/><circle cx="245.8" cy="243.7" r="2.56" fill="#bd6b20" opacity="0.27"/><circle cx="282.3" cy="243.2" r="3.93" fill="#bd6b20" opacity="0.29"/><circle cx="320.1" cy="245.4" r="3.27" fill="#bd6b20" opacity="0.15"/><circle cx="356.3" cy="248.6" r="2.43" fill="#bd6b20" opacity="0.16"/><circle cx="387.6" cy="244.0" r="3.81" fill="#bd6b20" opacity="0.28"/><circle cx="427.3" cy="245.8" r="2.49" fill="#bd6b20" opacity="0.28"/><circle cx="464.2" cy="246.6" r="2.77" fill="#bd6b20" opacity="0.28"/><circle cx="499.4" cy="247.6" r="2.23" fill="#bd6b20" opacity="0.35"/><circle cx="534.5" cy="245.8" r="1.98" fill="#bd6b20" opacity="0.31"/><circle cx="569.0" cy="248.2" r="1.84" fill="#bd6b20" opacity="0.34"/><circle cx="606.9" cy="248.6" r="3.71" fill="#bd6b20" opacity="0.22"/><circle cx="641.9" cy="244.2" r="3.19" fill="#bd6b20" opacity="0.33"/><circle cx="676.0" cy="243.5" r="2.66" fill="#bd6b20" opacity="0.25"/><circle cx="711.9" cy="246.7" r="2.77" fill="#bd6b20" opacity="0.24"/><circle cx="751.8" cy="248.9" r="1.94" fill="#bd6b20" opacity="0.28"/><circle cx="788.9" cy="246.8" r="2.44" fill="#bd6b20" opacity="0.26"/><circle cx="822.9" cy="248.4" r="1.90" fill="#bd6b20" opacity="0.15"/><circle cx="856.4" cy="248.2" r="3.64" fill="#bd6b20" opacity="0.19"/><circle cx="894.2" cy="244.5" r="3.32" fill="#bd6b20" opacity="0.21"/><circle cx="931.1" cy="243.3" r="1.68" fill="#bd6b20" opacity="0.22"/><circle cx="968.3" cy="245.2" r="2.59" fill="#bd6b20" opacity="0.20"/><circle cx="999.6" cy="244.3" r="2.06" fill="#bd6b20" opacity="0.28"/><circle cx="1036.4" cy="244.6" r="2.37" fill="#bd6b20" opacity="0.24"/><circle cx="1074.4" cy="246.6" r="3.18" fill="#bd6b20" opacity="0.35"/><circle cx="1111.9" cy="247.7" r="1.88" fill="#bd6b20" opacity="0.26"/><circle cx="1147.8" cy="245.9" r="2.63" fill="#bd6b20" opacity="0.21"/><circle cx="1181.4" cy="244.1" r="3.02" fill="#bd6b20" opacity="0.16"/><circle cx="30.1" cy="282.9" r="2.29" fill="#bd6b20" opacity="0.36"/><circle cx="63.9" cy="279.6" r="1.75" fill="#bd6b20" opacity="0.16"/><circle cx="100.9" cy="281.8" r="3.36" fill="#bd6b20" opacity="0.32"/><circle cx="140.8" cy="281.7" r="2.85" fill="#bd6b20" opacity="0.32"/><circle cx="173.6" cy="280.3" r="3.83" fill="#bd6b20" opacity="0.34"/><circle cx="211.9" cy="279.4" r="3.29" fill="#bd6b20" opacity="0.22"/><circle cx="248.0" cy="284.7" r="3.06" fill="#bd6b20" opacity="0.25"/><circle cx="281.8" cy="280.4" r="3.07" fill="#bd6b20" opacity="0.27"/><circle cx="318.2" cy="282.4" r="2.18" fill="#bd6b20" opacity="0.24"/><circle cx="352.0" cy="284.0" r="3.62" fill="#bd6b20" opacity="0.31"/><circle cx="387.1" cy="281.0" r="2.42" fill="#bd6b20" opacity="0.22"/><circle cx="428.9" cy="279.9" r="3.20" fill="#bd6b20" opacity="0.16"/><circle cx="461.6" cy="283.8" r="2.97" fill="#bd6b20" opacity="0.20"/><circle cx="496.3" cy="280.8" r="2.45" fill="#bd6b20" opacity="0.35"/><circle cx="532.3" cy="282.4" r="3.89" fill="#bd6b20" opacity="0.31"/><circle cx="568.0" cy="281.3" r="3.77" fill="#bd6b20" opacity="0.16"/><circle cx="607.0" cy="284.5" r="3.91" fill="#bd6b20" opacity="0.23"/><circle cx="643.9" cy="282.8" r="2.64" fill="#bd6b20" opacity="0.15"/><circle cx="675.1" cy="283.0" r="2.65" fill="#bd6b20" opacity="0.27"/><circle cx="716.8" cy="279.5" r="2.27" fill="#bd6b20" opacity="0.22"/><circle cx="748.8" cy="284.8" r="3.40" fill="#bd6b20" opacity="0.36"/><circle cx="784.1" cy="282.4" r="3.17" fill="#bd6b20" opacity="0.32"/><circle cx="823.9" cy="283.8" r="3.41" fill="#bd6b20" opacity="0.21"/><circle cx="855.8" cy="282.8" r="2.30" fill="#bd6b20" opacity="0.16"/><circle cx="894.2" cy="281.0" r="3.00" fill="#bd6b20" opacity="0.15"/><circle cx="928.4" cy="281.6" r="2.93" fill="#bd6b20" opacity="0.29"/><circle cx="964.7" cy="281.3" r="2.54" fill="#bd6b20" opacity="0.35"/><circle cx="1005.0" cy="280.5" r="3.29" fill="#bd6b20" opacity="0.18"/><circle cx="1036.4" cy="280.4" r="1.98" fill="#bd6b20" opacity="0.20"/><circle cx="1072.2" cy="279.0" r="1.92" fill="#bd6b20" opacity="0.18"/><circle cx="1107.3" cy="280.9" r="2.74" fill="#bd6b20" opacity="0.32"/><circle cx="1146.3" cy="284.2" r="3.54" fill="#bd6b20" opacity="0.19"/><circle cx="1183.3" cy="279.5" r="3.10" fill="#bd6b20" opacity="0.32"/><circle cx="28.8" cy="315.8" r="3.91" fill="#bd6b20" opacity="0.16"/><circle cx="67.2" cy="317.1" r="2.88" fill="#bd6b20" opacity="0.17"/><circle cx="99.2" cy="320.7" r="2.62" fill="#bd6b20" opacity="0.24"/><circle cx="136.6" cy="319.6" r="3.21" fill="#bd6b20" opacity="0.23"/><circle cx="176.5" cy="318.6" r="2.68" fill="#bd6b20" opacity="0.26"/><circle cx="212.1" cy="316.5" r="3.34" fill="#bd6b20" opacity="0.24"/><circle cx="244.0" cy="319.0" r="3.99" fill="#bd6b20" opacity="0.31"/><circle cx="282.2" cy="316.8" r="2.90" fill="#bd6b20" opacity="0.15"/><circle cx="315.8" cy="319.1" r="1.68" fill="#bd6b20" opacity="0.34"/><circle cx="351.5" cy="315.4" r="3.95" fill="#bd6b20" opacity="0.23"/><circle cx="391.9" cy="320.1" r="2.82" fill="#bd6b20" opacity="0.34"/><circle cx="424.5" cy="315.7" r="1.77" fill="#bd6b20" opacity="0.23"/><circle cx="464.2" cy="318.5" r="3.62" fill="#bd6b20" opacity="0.21"/><circle cx="499.2" cy="317.6" r="1.84" fill="#bd6b20" opacity="0.16"/><circle cx="535.9" cy="317.0" r="2.94" fill="#bd6b20" opacity="0.32"/><circle cx="569.8" cy="320.7" r="2.61" fill="#bd6b20" opacity="0.33"/><circle cx="603.9" cy="317.1" r="2.30" fill="#bd6b20" opacity="0.19"/><circle cx="640.7" cy="320.8" r="1.71" fill="#bd6b20" opacity="0.18"/><circle cx="679.9" cy="317.0" r="2.06" fill="#bd6b20" opacity="0.35"/><circle cx="716.0" cy="318.0" r="1.83" fill="#bd6b20" opacity="0.36"/><circle cx="747.5" cy="318.6" r="2.80" fill="#bd6b20" opacity="0.35"/><circle cx="785.7" cy="315.1" r="3.25" fill="#bd6b20" opacity="0.22"/><circle cx="824.0" cy="319.4" r="3.31" fill="#bd6b20" opacity="0.18"/><circle cx="860.6" cy="320.4" r="2.21" fill="#bd6b20" opacity="0.25"/><circle cx="894.6" cy="315.0" r="3.83" fill="#bd6b20" opacity="0.26"/><circle cx="928.1" cy="319.9" r="2.02" fill="#bd6b20" opacity="0.27"/><circle cx="968.6" cy="319.6" r="2.80" fill="#bd6b20" opacity="0.18"/><circle cx="1001.8" cy="320.4" r="2.86" fill="#bd6b20" opacity="0.24"/><circle cx="1037.5" cy="315.8" r="3.56" fill="#bd6b20" opacity="0.28"/><circle cx="1075.5" cy="315.6" r="1.81" fill="#bd6b20" opacity="0.23"/><circle cx="1112.1" cy="318.0" r="3.41" fill="#bd6b20" opacity="0.19"/><circle cx="1147.9" cy="316.9" r="3.96" fill="#bd6b20" opacity="0.25"/><circle cx="1180.5" cy="319.3" r="3.84" fill="#bd6b20" opacity="0.15"/><circle cx="27.3" cy="354.3" r="3.77" fill="#bd6b20" opacity="0.32"/><circle cx="65.4" cy="353.6" r="3.67" fill="#bd6b20" opacity="0.29"/><circle cx="104.6" cy="353.9" r="2.05" fill="#bd6b20" opacity="0.22"/><circle cx="137.8" cy="355.6" r="2.86" fill="#bd6b20" opacity="0.31"/><circle cx="172.8" cy="355.5" r="3.20" fill="#bd6b20" opacity="0.19"/><circle cx="210.2" cy="351.1" r="2.38" fill="#bd6b20" opacity="0.29"/><circle cx="246.4" cy="352.7" r="3.75" fill="#bd6b20" opacity="0.15"/><circle cx="282.6" cy="355.2" r="3.49" fill="#bd6b20" opacity="0.26"/><circle cx="318.3" cy="353.3" r="2.53" fill="#bd6b20" opacity="0.17"/><circle cx="356.0" cy="353.9" r="2.15" fill="#bd6b20" opacity="0.30"/><circle cx="392.0" cy="354.0" r="2.16" fill="#bd6b20" opacity="0.36"/><circle cx="425.1" cy="354.4" r="3.76" fill="#bd6b20" opacity="0.26"/><circle cx="460.0" cy="356.3" r="2.51" fill="#bd6b20" opacity="0.23"/><circle cx="499.8" cy="353.6" r="3.25" fill="#bd6b20" opacity="0.19"/><circle cx="536.5" cy="352.8" r="1.63" fill="#bd6b20" opacity="0.19"/><circle cx="568.3" cy="351.5" r="2.92" fill="#bd6b20" opacity="0.30"/><circle cx="607.0" cy="354.1" r="3.72" fill="#bd6b20" opacity="0.17"/><circle cx="642.1" cy="351.5" r="1.87" fill="#bd6b20" opacity="0.18"/><circle cx="678.4" cy="352.7" r="2.37" fill="#bd6b20" opacity="0.20"/><circle cx="712.3" cy="354.5" r="3.03" fill="#bd6b20" opacity="0.18"/><circle cx="752.3" cy="356.0" r="3.02" fill="#bd6b20" opacity="0.32"/><circle cx="785.3" cy="354.7" r="1.76" fill="#bd6b20" opacity="0.23"/><circle cx="822.8" cy="356.5" r="2.49" fill="#bd6b20" opacity="0.22"/><circle cx="860.9" cy="355.8" r="1.91" fill="#bd6b20" opacity="0.34"/><circle cx="893.9" cy="356.9" r="1.65" fill="#bd6b20" opacity="0.18"/><circle cx="929.0" cy="356.8" r="2.17" fill="#bd6b20" opacity="0.15"/><circle cx="966.0" cy="353.4" r="3.46" fill="#bd6b20" opacity="0.29"/><circle cx="1001.9" cy="354.2" r="3.72" fill="#bd6b20" opacity="0.34"/><circle cx="1038.6" cy="353.4" r="2.73" fill="#bd6b20" opacity="0.23"/><circle cx="1076.2" cy="351.2" r="3.11" fill="#bd6b20" opacity="0.34"/><circle cx="1112.3" cy="352.1" r="2.89" fill="#bd6b20" opacity="0.24"/><circle cx="1145.9" cy="352.8" r="3.64" fill="#bd6b20" opacity="0.28"/><circle cx="1180.2" cy="351.3" r="1.75" fill="#bd6b20" opacity="0.28"/><circle cx="27.3" cy="389.0" r="2.33" fill="#bd6b20" opacity="0.21"/><circle cx="67.8" cy="390.1" r="1.78" fill="#bd6b20" opacity="0.18"/><circle cx="100.4" cy="392.4" r="3.14" fill="#bd6b20" opacity="0.18"/><circle cx="136.9" cy="389.6" r="2.96" fill="#bd6b20" opacity="0.22"/><circle cx="171.1" cy="392.4" r="2.95" fill="#bd6b20" opacity="0.36"/><circle cx="210.5" cy="389.3" r="2.66" fill="#bd6b20" opacity="0.30"/><circle cx="244.1" cy="391.3" r="1.81" fill="#bd6b20" opacity="0.22"/><circle cx="283.3" cy="389.6" r="3.02" fill="#bd6b20" opacity="0.21"/><circle cx="317.5" cy="391.4" r="2.50" fill="#bd6b20" opacity="0.30"/><circle cx="353.1" cy="390.2" r="2.34" fill="#bd6b20" opacity="0.21"/><circle cx="388.0" cy="390.6" r="3.35" fill="#bd6b20" opacity="0.35"/><circle cx="424.1" cy="390.2" r="3.23" fill="#bd6b20" opacity="0.33"/><circle cx="461.9" cy="388.6" r="2.91" fill="#bd6b20" opacity="0.31"/><circle cx="496.2" cy="390.1" r="3.09" fill="#bd6b20" opacity="0.32"/><circle cx="534.1" cy="392.2" r="3.88" fill="#bd6b20" opacity="0.30"/><circle cx="570.4" cy="392.5" r="2.44" fill="#bd6b20" opacity="0.17"/><circle cx="608.4" cy="388.9" r="3.16" fill="#bd6b20" opacity="0.19"/><circle cx="644.7" cy="388.5" r="2.70" fill="#bd6b20" opacity="0.31"/><circle cx="680.2" cy="389.2" r="1.74" fill="#bd6b20" opacity="0.18"/><circle cx="712.5" cy="390.2" r="3.49" fill="#bd6b20" opacity="0.22"/><circle cx="749.2" cy="391.9" r="2.05" fill="#bd6b20" opacity="0.29"/><circle cx="783.8" cy="391.4" r="2.76" fill="#bd6b20" opacity="0.33"/><circle cx="824.6" cy="390.0" r="3.51" fill="#bd6b20" opacity="0.22"/><circle cx="860.3" cy="389.2" r="3.87" fill="#bd6b20" opacity="0.18"/><circle cx="892.6" cy="389.9" r="3.82" fill="#bd6b20" opacity="0.18"/><circle cx="928.8" cy="389.2" r="2.54" fill="#bd6b20" opacity="0.34"/><circle cx="963.5" cy="389.1" r="2.85" fill="#bd6b20" opacity="0.26"/><circle cx="1002.4" cy="388.7" r="2.56" fill="#bd6b20" opacity="0.22"/><circle cx="1037.8" cy="387.8" r="2.18" fill="#bd6b20" opacity="0.25"/><circle cx="1072.8" cy="387.6" r="3.44" fill="#bd6b20" opacity="0.36"/><circle cx="1109.4" cy="387.9" r="2.27" fill="#bd6b20" opacity="0.33"/><circle cx="1148.9" cy="389.8" r="3.78" fill="#bd6b20" opacity="0.19"/><circle cx="1182.7" cy="390.5" r="2.00" fill="#bd6b20" opacity="0.36"/><circle cx="31.1" cy="425.2" r="2.05" fill="#bd6b20" opacity="0.18"/><circle cx="67.3" cy="425.1" r="2.43" fill="#bd6b20" opacity="0.27"/><circle cx="104.7" cy="424.1" r="1.86" fill="#bd6b20" opacity="0.27"/><circle cx="139.8" cy="424.3" r="2.64" fill="#bd6b20" opacity="0.22"/><circle cx="176.7" cy="428.1" r="3.40" fill="#bd6b20" opacity="0.22"/><circle cx="207.7" cy="425.4" r="2.55" fill="#bd6b20" opacity="0.18"/><circle cx="243.5" cy="423.4" r="3.78" fill="#bd6b20" opacity="0.18"/><circle cx="281.5" cy="428.4" r="2.44" fill="#bd6b20" opacity="0.16"/><circle cx="315.4" cy="428.5" r="3.83" fill="#bd6b20" opacity="0.28"/><circle cx="354.8" cy="424.5" r="2.74" fill="#bd6b20" opacity="0.33"/><circle cx="390.0" cy="423.8" r="2.86" fill="#bd6b20" opacity="0.35"/><circle cx="423.5" cy="427.7" r="1.91" fill="#bd6b20" opacity="0.25"/><circle cx="464.2" cy="425.5" r="2.62" fill="#bd6b20" opacity="0.33"/><circle cx="498.9" cy="424.5" r="2.04" fill="#bd6b20" opacity="0.25"/><circle cx="536.5" cy="425.6" r="2.48" fill="#bd6b20" opacity="0.23"/><circle cx="572.1" cy="427.8" r="2.59" fill="#bd6b20" opacity="0.22"/><circle cx="608.8" cy="423.2" r="2.50" fill="#bd6b20" opacity="0.26"/><circle cx="644.9" cy="426.3" r="3.25" fill="#bd6b20" opacity="0.33"/><circle cx="678.2" cy="428.2" r="1.72" fill="#bd6b20" opacity="0.23"/><circle cx="711.2" cy="428.8" r="3.43" fill="#bd6b20" opacity="0.19"/><circle cx="752.2" cy="425.2" r="2.88" fill="#bd6b20" opacity="0.17"/><circle cx="787.2" cy="425.8" r="3.07" fill="#bd6b20" opacity="0.28"/><circle cx="821.0" cy="426.3" r="2.56" fill="#bd6b20" opacity="0.25"/><circle cx="857.2" cy="423.4" r="2.64" fill="#bd6b20" opacity="0.31"/><circle cx="895.0" cy="423.2" r="3.68" fill="#bd6b20" opacity="0.20"/><circle cx="930.9" cy="424.9" r="2.08" fill="#bd6b20" opacity="0.15"/><circle cx="963.2" cy="424.5" r="3.34" fill="#bd6b20" opacity="0.21"/><circle cx="1004.1" cy="423.6" r="2.76" fill="#bd6b20" opacity="0.20"/><circle cx="1035.7" cy="425.9" r="2.60" fill="#bd6b20" opacity="0.20"/><circle cx="1073.2" cy="428.0" r="2.69" fill="#bd6b20" opacity="0.19"/><circle cx="1110.1" cy="428.8" r="3.88" fill="#bd6b20" opacity="0.34"/><circle cx="1148.8" cy="427.2" r="2.61" fill="#bd6b20" opacity="0.17"/><circle cx="1183.9" cy="424.7" r="2.92" fill="#bd6b20" opacity="0.30"/><circle cx="29.8" cy="462.9" r="1.93" fill="#bd6b20" opacity="0.20"/><circle cx="67.9" cy="461.4" r="2.05" fill="#bd6b20" opacity="0.19"/><circle cx="99.9" cy="460.0" r="3.48" fill="#bd6b20" opacity="0.26"/><circle cx="139.7" cy="459.3" r="1.62" fill="#bd6b20" opacity="0.18"/><circle cx="172.4" cy="462.2" r="2.40" fill="#bd6b20" opacity="0.20"/><circle cx="212.3" cy="463.7" r="2.69" fill="#bd6b20" opacity="0.33"/><circle cx="246.1" cy="463.8" r="1.98" fill="#bd6b20" opacity="0.23"/><circle cx="283.0" cy="464.0" r="3.66" fill="#bd6b20" opacity="0.24"/><circle cx="320.9" cy="459.7" r="3.39" fill="#bd6b20" opacity="0.20"/><circle cx="356.0" cy="461.2" r="2.37" fill="#bd6b20" opacity="0.22"/><circle cx="391.3" cy="459.2" r="2.03" fill="#bd6b20" opacity="0.36"/><circle cx="428.3" cy="460.9" r="2.26" fill="#bd6b20" opacity="0.31"/><circle cx="459.8" cy="464.8" r="3.19" fill="#bd6b20" opacity="0.35"/><circle cx="497.0" cy="464.8" r="3.26" fill="#bd6b20" opacity="0.36"/><circle cx="533.4" cy="459.1" r="3.12" fill="#bd6b20" opacity="0.35"/><circle cx="571.1" cy="463.6" r="2.62" fill="#bd6b20" opacity="0.16"/><circle cx="606.7" cy="460.9" r="3.25" fill="#bd6b20" opacity="0.25"/><circle cx="642.4" cy="460.3" r="1.92" fill="#bd6b20" opacity="0.32"/><circle cx="678.0" cy="463.5" r="2.74" fill="#bd6b20" opacity="0.24"/><circle cx="711.8" cy="460.7" r="3.16" fill="#bd6b20" opacity="0.21"/><circle cx="749.3" cy="461.0" r="1.65" fill="#bd6b20" opacity="0.36"/><circle cx="788.3" cy="462.4" r="1.71" fill="#bd6b20" opacity="0.29"/><circle cx="822.1" cy="461.3" r="3.46" fill="#bd6b20" opacity="0.36"/><circle cx="855.7" cy="461.6" r="3.07" fill="#bd6b20" opacity="0.35"/><circle cx="893.4" cy="463.4" r="3.64" fill="#bd6b20" opacity="0.20"/><circle cx="928.1" cy="460.3" r="3.43" fill="#bd6b20" opacity="0.28"/><circle cx="964.2" cy="464.3" r="3.71" fill="#bd6b20" opacity="0.19"/><circle cx="999.2" cy="460.5" r="3.46" fill="#bd6b20" opacity="0.24"/><circle cx="1037.7" cy="464.1" r="2.05" fill="#bd6b20" opacity="0.19"/><circle cx="1075.1" cy="464.4" r="3.21" fill="#bd6b20" opacity="0.31"/><circle cx="1107.5" cy="459.1" r="1.69" fill="#bd6b20" opacity="0.28"/><circle cx="1148.5" cy="461.9" r="2.40" fill="#bd6b20" opacity="0.33"/><circle cx="1183.4" cy="464.2" r="3.30" fill="#bd6b20" opacity="0.22"/><circle cx="32.3" cy="496.0" r="1.73" fill="#bd6b20" opacity="0.35"/><circle cx="63.4" cy="496.1" r="2.66" fill="#bd6b20" opacity="0.28"/><circle cx="103.6" cy="495.0" r="3.09" fill="#bd6b20" opacity="0.33"/><circle cx="135.2" cy="495.4" r="1.81" fill="#bd6b20" opacity="0.26"/><circle cx="173.1" cy="497.4" r="2.03" fill="#bd6b20" opacity="0.21"/><circle cx="212.3" cy="499.4" r="2.34" fill="#bd6b20" opacity="0.30"/><circle cx="244.3" cy="500.1" r="3.50" fill="#bd6b20" opacity="0.28"/><circle cx="282.6" cy="498.4" r="1.86" fill="#bd6b20" opacity="0.27"/><circle cx="320.8" cy="498.9" r="2.39" fill="#bd6b20" opacity="0.18"/><circle cx="354.9" cy="500.3" r="2.84" fill="#bd6b20" opacity="0.30"/><circle cx="389.1" cy="498.1" r="3.59" fill="#bd6b20" opacity="0.25"/><circle cx="427.4" cy="499.5" r="3.01" fill="#bd6b20" opacity="0.22"/><circle cx="461.9" cy="496.3" r="3.09" fill="#bd6b20" opacity="0.17"/><circle cx="497.8" cy="500.2" r="3.54" fill="#bd6b20" opacity="0.19"/><circle cx="536.4" cy="495.6" r="3.28" fill="#bd6b20" opacity="0.19"/><circle cx="571.1" cy="499.2" r="3.26" fill="#bd6b20" opacity="0.25"/><circle cx="604.0" cy="495.2" r="3.61" fill="#bd6b20" opacity="0.26"/><circle cx="641.6" cy="495.3" r="2.88" fill="#bd6b20" opacity="0.31"/><circle cx="680.5" cy="497.3" r="2.02" fill="#bd6b20" opacity="0.32"/><circle cx="712.1" cy="500.5" r="3.91" fill="#bd6b20" opacity="0.32"/><circle cx="748.6" cy="499.4" r="1.91" fill="#bd6b20" opacity="0.20"/><circle cx="784.3" cy="499.5" r="1.69" fill="#bd6b20" opacity="0.32"/><circle cx="819.4" cy="495.7" r="2.51" fill="#bd6b20" opacity="0.32"/><circle cx="860.1" cy="497.5" r="3.91" fill="#bd6b20" opacity="0.31"/><circle cx="892.6" cy="495.4" r="2.70" fill="#bd6b20" opacity="0.28"/><circle cx="927.5" cy="501.0" r="1.80" fill="#bd6b20" opacity="0.31"/><circle cx="967.5" cy="495.9" r="2.54" fill="#bd6b20" opacity="0.31"/><circle cx="999.5" cy="499.3" r="2.28" fill="#bd6b20" opacity="0.33"/><circle cx="1038.7" cy="497.1" r="1.72" fill="#bd6b20" opacity="0.32"/><circle cx="1075.5" cy="499.8" r="2.93" fill="#bd6b20" opacity="0.28"/><circle cx="1107.6" cy="500.2" r="2.26" fill="#bd6b20" opacity="0.25"/><circle cx="1147.6" cy="498.3" r="2.51" fill="#bd6b20" opacity="0.35"/><circle cx="1183.6" cy="495.6" r="2.49" fill="#bd6b20" opacity="0.33"/><circle cx="27.8" cy="537.0" r="2.36" fill="#bd6b20" opacity="0.21"/><circle cx="64.2" cy="534.2" r="1.64" fill="#bd6b20" opacity="0.22"/><circle cx="104.7" cy="532.6" r="2.34" fill="#bd6b20" opacity="0.28"/><circle cx="139.2" cy="535.7" r="3.58" fill="#bd6b20" opacity="0.33"/><circle cx="175.9" cy="535.5" r="2.75" fill="#bd6b20" opacity="0.24"/><circle cx="209.1" cy="536.5" r="3.65" fill="#bd6b20" opacity="0.24"/><circle cx="245.0" cy="531.5" r="2.86" fill="#bd6b20" opacity="0.35"/><circle cx="284.5" cy="533.6" r="3.04" fill="#bd6b20" opacity="0.19"/><circle cx="319.3" cy="533.9" r="1.96" fill="#bd6b20" opacity="0.21"/><circle cx="352.1" cy="532.4" r="3.80" fill="#bd6b20" opacity="0.15"/><circle cx="388.7" cy="531.1" r="1.95" fill="#bd6b20" opacity="0.24"/><circle cx="428.9" cy="532.5" r="1.78" fill="#bd6b20" opacity="0.22"/><circle cx="459.6" cy="532.5" r="2.48" fill="#bd6b20" opacity="0.21"/><circle cx="495.8" cy="535.8" r="3.49" fill="#bd6b20" opacity="0.36"/><circle cx="533.8" cy="533.0" r="2.06" fill="#bd6b20" opacity="0.29"/><circle cx="569.8" cy="533.9" r="2.37" fill="#bd6b20" opacity="0.26"/><circle cx="608.5" cy="536.7" r="2.63" fill="#bd6b20" opacity="0.18"/><circle cx="641.2" cy="532.3" r="3.37" fill="#bd6b20" opacity="0.16"/><circle cx="675.1" cy="536.2" r="2.77" fill="#bd6b20" opacity="0.18"/><circle cx="713.1" cy="532.0" r="2.87" fill="#bd6b20" opacity="0.26"/><circle cx="748.2" cy="533.7" r="2.59" fill="#bd6b20" opacity="0.16"/><circle cx="784.2" cy="531.7" r="3.40" fill="#bd6b20" opacity="0.31"/><circle cx="820.1" cy="533.4" r="1.99" fill="#bd6b20" opacity="0.22"/><circle cx="860.6" cy="536.4" r="2.19" fill="#bd6b20" opacity="0.30"/><circle cx="896.7" cy="531.3" r="3.62" fill="#bd6b20" opacity="0.34"/><circle cx="928.5" cy="535.2" r="3.97" fill="#bd6b20" opacity="0.26"/><circle cx="966.8" cy="531.2" r="3.13" fill="#bd6b20" opacity="0.27"/><circle cx="1004.0" cy="531.3" r="3.65" fill="#bd6b20" opacity="0.23"/><circle cx="1040.8" cy="533.4" r="3.21" fill="#bd6b20" opacity="0.28"/><circle cx="1072.9" cy="536.9" r="2.53" fill="#bd6b20" opacity="0.27"/><circle cx="1107.9" cy="536.9" r="3.79" fill="#bd6b20" opacity="0.36"/><circle cx="1147.6" cy="535.7" r="2.25" fill="#bd6b20" opacity="0.33"/><circle cx="1180.7" cy="533.6" r="1.67" fill="#bd6b20" opacity="0.34"/><circle cx="28.1" cy="571.9" r="2.55" fill="#bd6b20" opacity="0.18"/><circle cx="68.8" cy="568.7" r="3.49" fill="#bd6b20" opacity="0.23"/><circle cx="99.7" cy="568.7" r="2.33" fill="#bd6b20" opacity="0.31"/><circle cx="138.4" cy="570.9" r="3.13" fill="#bd6b20" opacity="0.24"/><circle cx="175.5" cy="571.3" r="2.88" fill="#bd6b20" opacity="0.21"/><circle cx="210.6" cy="571.2" r="1.98" fill="#bd6b20" opacity="0.18"/><circle cx="243.9" cy="569.1" r="2.28" fill="#bd6b20" opacity="0.17"/><circle cx="280.8" cy="568.4" r="1.71" fill="#bd6b20" opacity="0.36"/><circle cx="318.6" cy="567.5" r="2.76" fill="#bd6b20" opacity="0.31"/><circle cx="352.7" cy="568.3" r="3.61" fill="#bd6b20" opacity="0.26"/><circle cx="387.6" cy="569.4" r="1.72" fill="#bd6b20" opacity="0.27"/><circle cx="423.0" cy="568.2" r="1.74" fill="#bd6b20" opacity="0.32"/><circle cx="463.0" cy="569.9" r="2.01" fill="#bd6b20" opacity="0.30"/><circle cx="499.9" cy="568.0" r="3.48" fill="#bd6b20" opacity="0.16"/><circle cx="535.9" cy="570.3" r="3.06" fill="#bd6b20" opacity="0.27"/><circle cx="567.7" cy="572.3" r="3.59" fill="#bd6b20" opacity="0.29"/><circle cx="604.0" cy="567.4" r="2.26" fill="#bd6b20" opacity="0.30"/><circle cx="640.7" cy="569.9" r="3.58" fill="#bd6b20" opacity="0.22"/><circle cx="677.6" cy="568.1" r="3.38" fill="#bd6b20" opacity="0.27"/><circle cx="714.4" cy="567.4" r="1.98" fill="#bd6b20" opacity="0.24"/><circle cx="748.0" cy="569.9" r="3.40" fill="#bd6b20" opacity="0.32"/><circle cx="784.9" cy="572.0" r="2.44" fill="#bd6b20" opacity="0.23"/><circle cx="820.5" cy="568.3" r="3.34" fill="#bd6b20" opacity="0.21"/><circle cx="855.8" cy="570.5" r="3.08" fill="#bd6b20" opacity="0.26"/><circle cx="892.3" cy="568.4" r="3.82" fill="#bd6b20" opacity="0.26"/><circle cx="927.8" cy="568.0" r="4.00" fill="#bd6b20" opacity="0.22"/><circle cx="968.1" cy="570.7" r="3.90" fill="#bd6b20" opacity="0.24"/><circle cx="1001.6" cy="567.4" r="3.86" fill="#bd6b20" opacity="0.25"/><circle cx="1038.8" cy="567.5" r="2.57" fill="#bd6b20" opacity="0.27"/><circle cx="1075.0" cy="569.7" r="3.66" fill="#bd6b20" opacity="0.21"/><circle cx="1111.8" cy="568.2" r="2.79" fill="#bd6b20" opacity="0.35"/><circle cx="1145.5" cy="572.1" r="1.82" fill="#bd6b20" opacity="0.15"/><circle cx="1180.5" cy="571.5" r="2.80" fill="#bd6b20" opacity="0.17"/><circle cx="31.4" cy="604.6" r="1.60" fill="#bd6b20" opacity="0.34"/><circle cx="64.2" cy="603.2" r="1.68" fill="#bd6b20" opacity="0.32"/><circle cx="100.0" cy="607.2" r="3.85" fill="#bd6b20" opacity="0.18"/><circle cx="136.2" cy="604.7" r="3.83" fill="#bd6b20" opacity="0.30"/><circle cx="175.0" cy="604.9" r="3.78" fill="#bd6b20" opacity="0.32"/><circle cx="212.6" cy="604.7" r="1.62" fill="#bd6b20" opacity="0.18"/><circle cx="245.6" cy="605.9" r="2.40" fill="#bd6b20" opacity="0.29"/><circle cx="279.8" cy="606.2" r="2.04" fill="#bd6b20" opacity="0.35"/><circle cx="320.6" cy="608.3" r="3.93" fill="#bd6b20" opacity="0.22"/><circle cx="353.5" cy="607.7" r="2.92" fill="#bd6b20" opacity="0.36"/><circle cx="387.7" cy="605.3" r="2.31" fill="#bd6b20" opacity="0.35"/><circle cx="425.6" cy="608.8" r="1.88" fill="#bd6b20" opacity="0.32"/><circle cx="461.6" cy="606.4" r="3.61" fill="#bd6b20" opacity="0.31"/><circle cx="497.1" cy="608.6" r="3.48" fill="#bd6b20" opacity="0.33"/><circle cx="536.6" cy="606.1" r="1.92" fill="#bd6b20" opacity="0.21"/><circle cx="570.7" cy="603.8" r="2.00" fill="#bd6b20" opacity="0.34"/><circle cx="608.9" cy="608.6" r="1.60" fill="#bd6b20" opacity="0.17"/><circle cx="644.5" cy="607.1" r="2.49" fill="#bd6b20" opacity="0.34"/><circle cx="680.9" cy="605.2" r="3.85" fill="#bd6b20" opacity="0.33"/><circle cx="716.1" cy="604.7" r="2.47" fill="#bd6b20" opacity="0.35"/><circle cx="747.2" cy="606.4" r="3.08" fill="#bd6b20" opacity="0.25"/><circle cx="786.9" cy="604.2" r="3.48" fill="#bd6b20" opacity="0.34"/><circle cx="821.8" cy="608.1" r="3.76" fill="#bd6b20" opacity="0.19"/><circle cx="855.9" cy="605.4" r="3.54" fill="#bd6b20" opacity="0.31"/><circle cx="893.6" cy="605.3" r="2.49" fill="#bd6b20" opacity="0.25"/><circle cx="930.4" cy="607.6" r="3.92" fill="#bd6b20" opacity="0.25"/><circle cx="968.7" cy="607.6" r="1.61" fill="#bd6b20" opacity="0.34"/><circle cx="999.6" cy="606.1" r="3.44" fill="#bd6b20" opacity="0.23"/><circle cx="1041.0" cy="603.6" r="1.95" fill="#bd6b20" opacity="0.21"/><circle cx="1072.9" cy="603.1" r="3.58" fill="#bd6b20" opacity="0.27"/><circle cx="1112.2" cy="608.9" r="3.87" fill="#bd6b20" opacity="0.29"/><circle cx="1147.7" cy="607.7" r="3.30" fill="#bd6b20" opacity="0.21"/><circle cx="1180.4" cy="605.8" r="3.03" fill="#bd6b20" opacity="0.27"/><circle cx="29.6" cy="644.5" r="1.81" fill="#bd6b20" opacity="0.18"/><circle cx="65.0" cy="644.8" r="1.79" fill="#bd6b20" opacity="0.34"/><circle cx="102.1" cy="639.9" r="3.24" fill="#bd6b20" opacity="0.24"/><circle cx="138.8" cy="642.5" r="3.43" fill="#bd6b20" opacity="0.24"/><circle cx="176.9" cy="639.4" r="3.76" fill="#bd6b20" opacity="0.30"/><circle cx="212.4" cy="639.0" r="3.06" fill="#bd6b20" opacity="0.24"/><circle cx="245.8" cy="643.3" r="3.94" fill="#bd6b20" opacity="0.16"/><circle cx="281.2" cy="641.5" r="2.25" fill="#bd6b20" opacity="0.30"/><circle cx="318.4" cy="639.5" r="2.97" fill="#bd6b20" opacity="0.23"/><circle cx="355.2" cy="639.2" r="2.65" fill="#bd6b20" opacity="0.20"/><circle cx="392.3" cy="643.4" r="2.65" fill="#bd6b20" opacity="0.21"/><circle cx="424.9" cy="641.2" r="1.94" fill="#bd6b20" opacity="0.24"/><circle cx="459.2" cy="644.4" r="1.62" fill="#bd6b20" opacity="0.32"/><circle cx="496.1" cy="641.6" r="3.05" fill="#bd6b20" opacity="0.15"/><circle cx="535.2" cy="643.6" r="1.84" fill="#bd6b20" opacity="0.21"/><circle cx="567.6" cy="641.1" r="3.58" fill="#bd6b20" opacity="0.18"/><circle cx="606.8" cy="643.1" r="3.03" fill="#bd6b20" opacity="0.33"/><circle cx="643.3" cy="642.0" r="2.98" fill="#bd6b20" opacity="0.31"/><circle cx="678.6" cy="640.5" r="2.24" fill="#bd6b20" opacity="0.28"/><circle cx="714.9" cy="643.2" r="1.76" fill="#bd6b20" opacity="0.32"/><circle cx="750.1" cy="639.2" r="3.34" fill="#bd6b20" opacity="0.23"/><circle cx="787.9" cy="644.7" r="2.70" fill="#bd6b20" opacity="0.22"/><circle cx="823.6" cy="641.0" r="2.05" fill="#bd6b20" opacity="0.32"/><circle cx="860.7" cy="644.3" r="3.09" fill="#bd6b20" opacity="0.28"/><circle cx="891.4" cy="640.0" r="2.45" fill="#bd6b20" opacity="0.33"/><circle cx="931.1" cy="644.7" r="1.79" fill="#bd6b20" opacity="0.29"/><circle cx="966.8" cy="641.4" r="1.93" fill="#bd6b20" opacity="0.19"/><circle cx="999.2" cy="643.3" r="3.34" fill="#bd6b20" opacity="0.18"/><circle cx="1038.3" cy="639.2" r="3.96" fill="#bd6b20" opacity="0.22"/><circle cx="1074.5" cy="640.9" r="3.02" fill="#bd6b20" opacity="0.23"/><circle cx="1108.2" cy="643.1" r="1.90" fill="#bd6b20" opacity="0.36"/><circle cx="1146.2" cy="640.9" r="2.72" fill="#bd6b20" opacity="0.25"/><circle cx="1182.2" cy="644.3" r="3.38" fill="#bd6b20" opacity="0.18"/><circle cx="200.3" cy="238.1" r="220" fill="url(#glow)" opacity="0.9"/>
  <g opacity="0.85" transform="translate(1020, 495)">
        <rect x="-46" y="-60" width="92" height="115" fill="#bd6b20" opacity="0.18" rx="6"/>
        <path d="M -28 -36 L 28 -36 M -28 -12 L 28 -12 M -28 12 L 18 12 M -28 36 L 28 36" stroke="#e09440" stroke-width="3" stroke-linecap="round"/>
      </g>
  <g transform="translate(80, 90)">
    <rect x="0" y="0" rx="20" ry="20" width="101" height="38" fill="#bd6b20" opacity="0.18" stroke="#bd6b20" stroke-width="1.5"/>
    <text x="50.5" y="25" font-family="ui-sans-serif, Inter, sans-serif" font-weight="700" font-size="14" letter-spacing="2.5" fill="#bd6b20" text-anchor="middle">ARTICLE</text>
  </g>
  <text x="80" y="465" font-family="ui-sans-serif, -apple-system, Segoe UI, Inter, sans-serif" font-weight="800" font-size="44" fill="#faf8f5" opacity="0.98"><tspan x="80" dy="0">How to Check Your CIBIL</tspan><tspan x="80" dy="56">Score: Free Options and</tspan><tspan x="80" dy="56">Methods</tspan></text>
  <rect x="0" y="669" width="1200" height="6" fill="url(#gold)"/>
</svg>