<?xml version="1.0" encoding="UTF-8"?>
<svg xmlns="http://www.w3.org/2000/svg" viewBox="0 0 1200 675" width="1200" height="675" role="img" aria-label="How to Choose the Best Dispute Resolution Method for Your Case">
  <defs>
    <linearGradient id="bg" x1="0%" y1="0%" x2="100%" y2="100%">
      <stop offset="0%" stop-color="#643516"/>
      <stop offset="100%" stop-color="#7d4315"/>
    </linearGradient>
    <linearGradient id="gold" x1="0%" y1="0%" x2="100%" y2="100%">
      <stop offset="0%" stop-color="#ecb478"/>
      <stop offset="100%" stop-color="#faebd6"/>
    </linearGradient>
    <radialGradient id="glow" cx="50%" cy="50%" r="50%">
      <stop offset="0%" stop-color="#ecb478" stop-opacity="0.45"/>
      <stop offset="100%" stop-color="#ecb478" stop-opacity="0"/>
    </radialGradient>
  </defs>
  <rect width="1200" height="675" fill="url(#bg)"/>
  <polygon points="-50,331.4 -20,329.5 10,326.6 40,322.6 70,317.7 100,312.0 130,305.7 160,298.8 190,291.5 220,284.1 250,276.5 280,269.1 310,262.0 340,255.4 370,249.3 400,244.0 430,239.5 460,236.0 490,233.5 520,232.1 550,231.8 580,232.7 610,234.6 640,237.7 670,241.7 700,246.6 730,252.3 760,258.7 790,265.6 820,272.9 850,280.4 880,287.9 910,295.3 940,302.4 970,309.0 1000,315.1 1030,320.3 1060,324.8 1090,328.2 1120,330.7 1150,332.0 1180,332.2 1210,331.3 1240,329.3 1250,725 -50,725" fill="#ecb478" opacity="0.08"/><polygon points="-50,356.3 -20,369.3 10,381.7 40,393.1 70,403.4 100,412.4 130,419.7 160,425.3 190,429.0 220,430.8 250,430.5 280,428.3 310,424.1 340,418.1 370,410.4 400,401.1 430,390.5 460,378.8 490,366.3 520,353.2 550,339.9 580,326.6 610,313.7 640,301.4 670,290.0 700,279.7 730,270.9 760,263.6 790,258.1 820,254.5 850,252.9 880,253.2 910,255.6 940,259.9 970,266.0 1000,273.8 1030,283.1 1060,293.8 1090,305.6 1120,318.1 1150,331.2 1180,344.5 1210,357.8 1240,370.7 1250,725 -50,725" fill="#ecb478" opacity="0.13"/><polygon points="-50,465.2 -20,468.1 10,469.7 40,470.0 70,468.8 100,466.4 130,462.7 160,457.7 190,451.7 220,444.7 250,436.9 280,428.5 310,419.7 340,410.7 370,401.6 400,392.6 430,384.1 460,376.1 490,368.9 520,362.5 550,357.2 580,353.1 610,350.3 640,348.7 670,348.6 700,349.7 730,352.3 760,356.1 790,361.1 820,367.2 850,374.2 880,382.0 910,390.4 940,399.3 970,408.3 1000,417.4 1030,426.3 1060,434.9 1090,442.8 1120,450.0 1150,456.3 1180,461.5 1210,465.6 1240,468.3 1250,725 -50,725" fill="#ecb478" opacity="0.18"/><polygon points="-50,461.4 -20,450.0 10,439.3 40,429.7 70,421.3 100,414.3 130,408.8 160,405.1 190,403.1 220,403.0 250,404.6 280,408.1 310,413.3 340,420.1 370,428.3 400,437.7 430,448.2 460,459.5 490,471.4 520,483.6 550,495.7 580,507.6 610,519.0 640,529.6 670,539.2 700,547.5 730,554.5 760,559.8 790,563.5 820,565.3 850,565.4 880,563.6 910,560.0 940,554.7 970,547.9 1000,539.6 1030,530.1 1060,519.5 1090,508.2 1120,496.3 1150,484.1 1180,472.0 1210,460.1 1240,448.7 1250,725 -50,725" fill="#ecb478" opacity="0.23"/><circle cx="300.0" cy="189.0" r="160" fill="url(#glow)"/>
  <g opacity="0.85" transform="translate(1020, 495)">
        <rect x="-46" y="-60" width="92" height="115" fill="#ecb478" opacity="0.18" rx="6"/>
        <path d="M -28 -36 L 28 -36 M -28 -12 L 28 -12 M -28 12 L 18 12 M -28 36 L 28 36" stroke="#faebd6" stroke-width="3" stroke-linecap="round"/>
      </g>
  <g transform="translate(80, 90)">
    <rect x="0" y="0" rx="20" ry="20" width="101" height="38" fill="#ecb478" opacity="0.18" stroke="#ecb478" stroke-width="1.5"/>
    <text x="50.5" y="25" font-family="ui-sans-serif, Inter, sans-serif" font-weight="700" font-size="14" letter-spacing="2.5" fill="#ecb478" text-anchor="middle">ARTICLE</text>
  </g>
  <text x="80" y="465" font-family="ui-sans-serif, -apple-system, Segoe UI, Inter, sans-serif" font-weight="800" font-size="44" fill="#faf8f5" opacity="0.98"><tspan x="80" dy="0">How to Choose the Best</tspan><tspan x="80" dy="56">Dispute Resolution Method</tspan><tspan x="80" dy="56">for Your Case</tspan></text>
  <rect x="0" y="669" width="1200" height="6" fill="url(#gold)"/>
</svg>