<?xml version="1.0" encoding="UTF-8"?>
<svg xmlns="http://www.w3.org/2000/svg" viewBox="0 0 1200 675" width="1200" height="675" role="img" aria-label="How Will the 2024 Indian General Election Impact the Political Landscape of Jammu and Kashmir?">
  <defs>
    <linearGradient id="bg" x1="0%" y1="0%" x2="100%" y2="100%">
      <stop offset="0%" stop-color="#643516"/>
      <stop offset="100%" stop-color="#7d4315"/>
    </linearGradient>
    <linearGradient id="gold" x1="0%" y1="0%" x2="100%" y2="100%">
      <stop offset="0%" stop-color="#ecb478"/>
      <stop offset="100%" stop-color="#faebd6"/>
    </linearGradient>
    <radialGradient id="glow" cx="50%" cy="50%" r="50%">
      <stop offset="0%" stop-color="#ecb478" stop-opacity="0.45"/>
      <stop offset="100%" stop-color="#ecb478" stop-opacity="0"/>
    </radialGradient>
  </defs>
  <rect width="1200" height="675" fill="url(#bg)"/>
  <polygon points="687.9,465.3 780.2,394.3 876.3,460.1 843.4,571.8 727.0,575.0" fill="#faebd6" opacity="0.07"/><polygon points="-2.5,324.6 9.6,131.5 202.6,143.6 190.6,336.6" fill="#faebd6" opacity="0.08"/><polygon points="829.7,32.5 1013.5,-4.8 953.9,172.9" fill="#faebd6" opacity="0.06"/><polygon points="678.5,421.4 835.3,637.5 569.8,665.3" fill="#faebd6" opacity="0.13"/><polygon points="349.7,631.7 359.5,575.7 415.8,567.7 440.8,618.7 400.0,658.3" fill="#faebd6" opacity="0.10"/><polygon points="771.2,531.6 859.7,614.6 776.7,703.1 688.2,620.1" fill="#faebd6" opacity="0.06"/><polygon points="263.9,190.4 358.8,81.8 405.4,218.3" fill="#faebd6" opacity="0.09"/><polygon points="183.7,494.1 7.0,449.2 51.9,272.5 228.6,317.4" fill="#faebd6" opacity="0.10"/><polygon points="1111.2,70.0 949.9,185.5 790.3,67.8 852.9,-120.4 1051.2,-119.0" fill="#faebd6" opacity="0.18"/><polygon points="517.8,284.6 663.1,314.6 679.5,462.0 544.3,523.2 444.3,413.6" fill="#faebd6" opacity="0.19"/><polygon points="612.6,690.3 614.9,600.2 701.2,574.6 752.3,648.7 697.6,720.3" fill="#faebd6" opacity="0.06"/><polygon points="-24.1,93.6 69.1,152.0 -28.1,203.5" fill="#faebd6" opacity="0.07"/><polygon points="78.5,574.0 247.2,531.0 290.2,699.7 121.5,742.7" fill="#faebd6" opacity="0.10"/><polygon points="658.4,196.8 484.9,280.3 401.3,106.8 574.9,23.2" fill="#faebd6" opacity="0.17"/><circle cx="936.0" cy="202.5" r="180" fill="url(#glow)"/>
  <g opacity="0.85" transform="translate(1020, 495)">
        <circle r="68" fill="none" stroke="#ecb478" stroke-width="2" opacity="0.35"/>
        <path d="M -38 12 L 38 12 M -32 -8 L 32 -8 M -45 -28 L 45 -28" stroke="#faebd6" stroke-width="3" stroke-linecap="round"/>
        <rect x="-50" y="-44" width="100" height="80" fill="none" stroke="#ecb478" stroke-width="2"/>
      </g>
  <g transform="translate(80, 90)">
    <rect x="0" y="0" rx="20" ry="20" width="112" height="38" fill="#ecb478" opacity="0.18" stroke="#ecb478" stroke-width="1.5"/>
    <text x="56" y="25" font-family="ui-sans-serif, Inter, sans-serif" font-weight="700" font-size="14" letter-spacing="2.5" fill="#ecb478" text-anchor="middle">NEWSROOM</text>
  </g>
  <text x="80" y="465" font-family="ui-sans-serif, -apple-system, Segoe UI, Inter, sans-serif" font-weight="800" font-size="44" fill="#faf8f5" opacity="0.98"><tspan x="80" dy="0">How Will the 2024 Indian</tspan><tspan x="80" dy="56">General Election Impact</tspan><tspan x="80" dy="56">the Political Landscape of</tspan></text>
  <rect x="0" y="669" width="1200" height="6" fill="url(#gold)"/>
</svg>