<?xml version="1.0" encoding="UTF-8"?>
<svg xmlns="http://www.w3.org/2000/svg" viewBox="0 0 1200 675" width="1200" height="675" role="img" aria-label="How Does the IPL Affect the Indian Economy?">
  <defs>
    <linearGradient id="bg" x1="0%" y1="0%" x2="100%" y2="100%">
      <stop offset="0%" stop-color="#0c0a09"/>
      <stop offset="100%" stop-color="#291813"/>
    </linearGradient>
    <linearGradient id="gold" x1="0%" y1="0%" x2="100%" y2="100%">
      <stop offset="0%" stop-color="#d4862a"/>
      <stop offset="100%" stop-color="#bd6b20"/>
    </linearGradient>
    <radialGradient id="glow" cx="50%" cy="50%" r="50%">
      <stop offset="0%" stop-color="#d4862a" stop-opacity="0.45"/>
      <stop offset="100%" stop-color="#d4862a" stop-opacity="0"/>
    </radialGradient>
  </defs>
  <rect width="1200" height="675" fill="url(#bg)"/>
  <polygon points="-50,329.4 -20,321.7 10,313.5 40,304.7 70,295.7 100,286.7 130,277.8 160,269.2 190,261.2 220,253.9 250,247.5 280,242.1 310,237.9 340,234.9 370,233.2 400,232.9 430,233.9 460,236.3 490,239.9 520,244.8 550,250.7 580,257.6 610,265.3 640,273.6 670,282.4 700,291.4 730,300.4 760,309.3 790,317.8 820,325.8 850,333.0 880,339.4 910,344.7 940,348.9 970,351.8 1000,353.4 1030,353.6 1060,352.5 1090,350.1 1120,346.4 1150,341.5 1180,335.5 1210,328.6 1240,320.8 1250,725 -50,725" fill="#d4862a" opacity="0.08"/><polygon points="-50,343.6 -20,339.3 10,335.5 40,332.2 70,329.4 100,327.3 130,325.8 160,325.0 190,325.0 220,325.7 250,327.1 280,329.1 310,331.8 340,335.1 370,338.8 400,343.0 430,347.4 460,352.2 490,357.0 520,361.8 550,366.5 580,371.0 610,375.2 640,379.0 670,382.3 700,385.0 730,387.1 760,388.6 790,389.3 820,389.3 850,388.6 880,387.2 910,385.1 940,382.3 970,379.1 1000,375.3 1030,371.1 1060,366.6 1090,361.9 1120,357.1 1150,352.3 1180,347.6 1210,343.1 1240,338.9 1250,725 -50,725" fill="#d4862a" opacity="0.13"/><polygon points="-50,355.4 -20,345.8 10,337.5 40,330.6 70,325.2 100,321.6 130,319.7 160,319.6 190,321.4 220,324.9 250,330.1 280,336.9 310,345.2 340,354.6 370,365.2 400,376.5 430,388.3 460,400.5 490,412.6 520,424.4 550,435.8 580,446.3 610,455.8 640,464.1 670,470.9 700,476.2 730,479.7 760,481.5 790,481.5 820,479.6 850,476.0 880,470.7 910,463.8 940,455.4 970,445.9 1000,435.3 1030,424.0 1060,412.1 1090,400.0 1120,387.9 1150,376.0 1180,364.7 1210,354.3 1240,344.8 1250,725 -50,725" fill="#d4862a" opacity="0.18"/><polygon points="-50,537.3 -20,539.6 10,540.6 40,540.2 70,538.5 100,535.5 130,531.3 160,526.0 190,519.6 220,512.5 250,504.6 280,496.2 310,487.4 340,478.6 370,469.8 400,461.2 430,453.1 460,445.7 490,439.0 520,433.3 550,428.7 580,425.2 610,423.0 640,422.2 670,422.6 700,424.4 730,427.5 760,431.7 790,437.1 820,443.5 850,450.7 880,458.6 910,467.0 940,475.8 970,484.7 1000,493.5 1030,502.0 1060,510.0 1090,517.5 1120,524.1 1150,529.7 1180,534.3 1210,537.7 1240,539.8 1250,725 -50,725" fill="#d4862a" opacity="0.23"/><circle cx="300.0" cy="189.0" r="160" fill="url(#glow)"/>
  <g opacity="0.85" transform="translate(1020, 495)">
        <circle r="68" fill="none" stroke="#d4862a" stroke-width="2" opacity="0.35"/>
        <path d="M -38 12 L 38 12 M -32 -8 L 32 -8 M -45 -28 L 45 -28" stroke="#bd6b20" stroke-width="3" stroke-linecap="round"/>
        <rect x="-50" y="-44" width="100" height="80" fill="none" stroke="#d4862a" stroke-width="2"/>
      </g>
  <g transform="translate(80, 90)">
    <rect x="0" y="0" rx="20" ry="20" width="112" height="38" fill="#d4862a" opacity="0.18" stroke="#d4862a" stroke-width="1.5"/>
    <text x="56" y="25" font-family="ui-sans-serif, Inter, sans-serif" font-weight="700" font-size="14" letter-spacing="2.5" fill="#d4862a" text-anchor="middle">NEWSROOM</text>
  </g>
  <text x="80" y="515" font-family="ui-sans-serif, -apple-system, Segoe UI, Inter, sans-serif" font-weight="800" font-size="44" fill="#faf8f5" opacity="0.98"><tspan x="80" dy="0">How Does the IPL Affect</tspan><tspan x="80" dy="56">the Indian Economy?</tspan></text>
  <rect x="0" y="669" width="1200" height="6" fill="url(#gold)"/>
</svg>