<?xml version="1.0" encoding="UTF-8"?>
<svg xmlns="http://www.w3.org/2000/svg" viewBox="0 0 1200 675" width="1200" height="675" role="img" aria-label="PDR COURT wants you to decide with a well-researched mind">
  <defs>
    <linearGradient id="bg" x1="0%" y1="0%" x2="100%" y2="100%">
      <stop offset="0%" stop-color="#643516"/>
      <stop offset="100%" stop-color="#7d4315"/>
    </linearGradient>
    <linearGradient id="gold" x1="0%" y1="0%" x2="100%" y2="100%">
      <stop offset="0%" stop-color="#ecb478"/>
      <stop offset="100%" stop-color="#faebd6"/>
    </linearGradient>
    <radialGradient id="glow" cx="50%" cy="50%" r="50%">
      <stop offset="0%" stop-color="#ecb478" stop-opacity="0.45"/>
      <stop offset="100%" stop-color="#ecb478" stop-opacity="0"/>
    </radialGradient>
  </defs>
  <rect width="1200" height="675" fill="url(#bg)"/>
  <circle cx="216" cy="236.24999999999997" r="362.45864564552903" fill="url(#glow)" opacity="0.8"/><circle cx="543.8" cy="304.7" r="139.9" fill="#ecb478" opacity="0.19"/><circle cx="1110.0" cy="230.5" r="279.7" fill="#ecb478" opacity="0.18"/><circle cx="327.4" cy="9.2" r="187.4" fill="#ecb478" opacity="0.09"/><circle cx="215.7" cy="179.7" r="146.5" fill="#ecb478" opacity="0.07"/><circle cx="696.4" cy="241.4" r="121.5" fill="#ecb478" opacity="0.18"/><circle cx="984.0" cy="168.8" r="220" fill="none" stroke="#faebd6" stroke-width="1.5" opacity="0.4"/>
  <g opacity="0.85" transform="translate(1020, 495)">
        <polygon points="0,-50 43,25 -43,25" fill="none" stroke="#ecb478" stroke-width="2"/>
        <polygon points="0,-30 26,15 -26,15" fill="#faebd6" opacity="0.4"/>
      </g>
  <g transform="translate(80, 90)">
    <rect x="0" y="0" rx="20" ry="20" width="145" height="38" fill="#ecb478" opacity="0.18" stroke="#ecb478" stroke-width="1.5"/>
    <text x="72.5" y="25" font-family="ui-sans-serif, Inter, sans-serif" font-weight="700" font-size="14" letter-spacing="2.5" fill="#ecb478" text-anchor="middle">INFORMATION</text>
  </g>
  <text x="80" y="465" font-family="ui-sans-serif, -apple-system, Segoe UI, Inter, sans-serif" font-weight="800" font-size="44" fill="#faf8f5" opacity="0.98"><tspan x="80" dy="0">PDR COURT wants you to</tspan><tspan x="80" dy="56">decide with a</tspan><tspan x="80" dy="56">well-researched mind</tspan></text>
  <rect x="0" y="669" width="1200" height="6" fill="url(#gold)"/>
</svg>