<?xml version="1.0" encoding="UTF-8"?>
<svg xmlns="http://www.w3.org/2000/svg" viewBox="0 0 1200 675" width="1200" height="675" role="img" aria-label="How Can You Prevent AI from Accessing Your Personal Information?">
  <defs>
    <linearGradient id="bg" x1="0%" y1="0%" x2="100%" y2="100%">
      <stop offset="0%" stop-color="#643516"/>
      <stop offset="100%" stop-color="#7d4315"/>
    </linearGradient>
    <linearGradient id="gold" x1="0%" y1="0%" x2="100%" y2="100%">
      <stop offset="0%" stop-color="#ecb478"/>
      <stop offset="100%" stop-color="#faebd6"/>
    </linearGradient>
    <radialGradient id="glow" cx="50%" cy="50%" r="50%">
      <stop offset="0%" stop-color="#ecb478" stop-opacity="0.45"/>
      <stop offset="100%" stop-color="#ecb478" stop-opacity="0"/>
    </radialGradient>
  </defs>
  <rect width="1200" height="675" fill="url(#bg)"/>
  <circle cx="840.0" cy="135.0" r="240" fill="url(#glow)" opacity="0.8"/><rect x="164.5" y="52.6" width="53.6" height="53.6" rx="4" transform="rotate(95.0 191.3 79.4)" fill="#ecb478" opacity="0.10"/><rect x="357.6" y="33.4" width="44.3" height="44.3" rx="4" transform="rotate(337.4 379.8 55.6)" fill="#ecb478" opacity="0.28"/><rect x="183.5" y="435.8" width="42.7" height="42.7" rx="4" transform="rotate(70.5 204.8 457.1)" fill="#ecb478" opacity="0.13"/><circle cx="1160.7" cy="408.3" r="15.9" fill="#faebd6" opacity="0.20"/><polygon points="159.8,172.4 175.6,204.0 144.0,204.0" fill="#f4d2ac" opacity="0.24"/><rect x="530.1" y="309.6" width="16.6" height="16.6" rx="4" transform="rotate(164.0 538.4 317.9)" fill="#ecb478" opacity="0.17"/><polygon points="804.2,304.1 813.6,322.8 794.9,322.8" fill="#f4d2ac" opacity="0.31"/><polygon points="730.7,529.0 752.1,571.7 709.3,571.7" fill="#f4d2ac" opacity="0.21"/><circle cx="510.5" cy="185.8" r="19.5" fill="#faebd6" opacity="0.12"/><polygon points="350.6,313.0 367.4,346.5 333.9,346.5" fill="#f4d2ac" opacity="0.24"/><polygon points="477.3,273.5 502.9,324.7 451.7,324.7" fill="#f4d2ac" opacity="0.30"/><circle cx="624.7" cy="554.6" r="13.3" fill="#faebd6" opacity="0.11"/><polygon points="1161.8,428.1 1181.3,467.1 1142.3,467.1" fill="#f4d2ac" opacity="0.17"/><circle cx="1070.8" cy="150.5" r="28.2" fill="#faebd6" opacity="0.33"/><circle cx="980.4" cy="140.9" r="11.6" fill="#faebd6" opacity="0.12"/><rect x="499.3" y="421.6" width="24.7" height="24.7" rx="4" transform="rotate(281.1 511.7 434.0)" fill="#ecb478" opacity="0.27"/><circle cx="529.6" cy="497.1" r="9.4" fill="#faebd6" opacity="0.23"/><polygon points="108.5,12.9 133.7,63.4 83.2,63.4" fill="#f4d2ac" opacity="0.28"/><rect x="335.8" y="142.5" width="30.4" height="30.4" rx="4" transform="rotate(224.0 351.0 157.8)" fill="#ecb478" opacity="0.27"/><polygon points="188.4,289.4 213.0,338.5 163.8,338.5" fill="#f4d2ac" opacity="0.26"/><rect x="1117.4" y="41.5" width="49.8" height="49.8" rx="4" transform="rotate(174.6 1142.3 66.4)" fill="#ecb478" opacity="0.20"/><polygon points="4.6,384.5 36.3,448.0 -27.2,448.0" fill="#f4d2ac" opacity="0.19"/>
  <g opacity="0.85" transform="translate(1020, 495)">
        <rect x="-46" y="-60" width="92" height="115" fill="#ecb478" opacity="0.18" rx="6"/>
        <path d="M -28 -36 L 28 -36 M -28 -12 L 28 -12 M -28 12 L 18 12 M -28 36 L 28 36" stroke="#faebd6" stroke-width="3" stroke-linecap="round"/>
      </g>
  <g transform="translate(80, 90)">
    <rect x="0" y="0" rx="20" ry="20" width="101" height="38" fill="#ecb478" opacity="0.18" stroke="#ecb478" stroke-width="1.5"/>
    <text x="50.5" y="25" font-family="ui-sans-serif, Inter, sans-serif" font-weight="700" font-size="14" letter-spacing="2.5" fill="#ecb478" text-anchor="middle">ARTICLE</text>
  </g>
  <text x="80" y="465" font-family="ui-sans-serif, -apple-system, Segoe UI, Inter, sans-serif" font-weight="800" font-size="44" fill="#faf8f5" opacity="0.98"><tspan x="80" dy="0">How Can You Prevent AI</tspan><tspan x="80" dy="56">from Accessing Your</tspan><tspan x="80" dy="56">Personal Information?</tspan></text>
  <rect x="0" y="669" width="1200" height="6" fill="url(#gold)"/>
</svg>