<?xml version="1.0" encoding="UTF-8"?>
<svg xmlns="http://www.w3.org/2000/svg" viewBox="0 0 1200 675" width="1200" height="675" role="img" aria-label="Step-by-Step Guide to Digital Dispute Filing">
  <defs>
    <linearGradient id="bg" x1="0%" y1="0%" x2="100%" y2="100%">
      <stop offset="0%" stop-color="#643516"/>
      <stop offset="100%" stop-color="#7d4315"/>
    </linearGradient>
    <linearGradient id="gold" x1="0%" y1="0%" x2="100%" y2="100%">
      <stop offset="0%" stop-color="#ecb478"/>
      <stop offset="100%" stop-color="#faebd6"/>
    </linearGradient>
    <radialGradient id="glow" cx="50%" cy="50%" r="50%">
      <stop offset="0%" stop-color="#ecb478" stop-opacity="0.45"/>
      <stop offset="100%" stop-color="#ecb478" stop-opacity="0"/>
    </radialGradient>
  </defs>
  <rect width="1200" height="675" fill="url(#bg)"/>
  <circle cx="840.0" cy="135.0" r="240" fill="url(#glow)" opacity="0.8"/><polygon points="1046.4,97.6 1066.5,137.7 1026.4,137.7" fill="#f4d2ac" opacity="0.24"/><polygon points="1127.0,263.9 1154.0,317.9 1100.0,317.9" fill="#f4d2ac" opacity="0.23"/><polygon points="671.2,471.6 696.6,522.3 645.9,522.3" fill="#f4d2ac" opacity="0.26"/><polygon points="1097.0,387.7 1127.6,448.9 1066.4,448.9" fill="#f4d2ac" opacity="0.11"/><rect x="519.7" y="152.9" width="22.4" height="22.4" rx="4" transform="rotate(282.0 530.9 164.1)" fill="#ecb478" opacity="0.21"/><rect x="781.6" y="248.8" width="62.8" height="62.8" rx="4" transform="rotate(34.8 813.0 280.2)" fill="#ecb478" opacity="0.32"/><rect x="102.8" y="387.7" width="35.2" height="35.2" rx="4" transform="rotate(306.7 120.4 405.3)" fill="#ecb478" opacity="0.25"/><rect x="442.7" y="399.3" width="48.9" height="48.9" rx="4" transform="rotate(351.1 467.1 423.7)" fill="#ecb478" opacity="0.17"/><rect x="980.4" y="86.1" width="16.6" height="16.6" rx="4" transform="rotate(2.6 988.7 94.4)" fill="#ecb478" opacity="0.14"/><polygon points="680.5,31.8 704.4,79.7 656.5,79.7" fill="#f4d2ac" opacity="0.20"/><polygon points="338.9,246.6 356.4,281.7 321.3,281.7" fill="#f4d2ac" opacity="0.10"/><rect x="232.1" y="472.8" width="54.0" height="54.0" rx="4" transform="rotate(53.9 259.0 499.7)" fill="#ecb478" opacity="0.19"/><polygon points="951.0,266.4 972.6,309.5 929.5,309.5" fill="#f4d2ac" opacity="0.30"/><rect x="961.4" y="519.7" width="62.3" height="62.3" rx="4" transform="rotate(339.2 992.5 550.9)" fill="#ecb478" opacity="0.34"/><rect x="853.1" y="412.0" width="29.8" height="29.8" rx="4" transform="rotate(142.2 868.0 426.9)" fill="#ecb478" opacity="0.24"/><circle cx="864.4" cy="110.1" r="20.9" fill="#faebd6" opacity="0.14"/><rect x="354.3" y="95.8" width="39.5" height="39.5" rx="4" transform="rotate(148.1 374.1 115.6)" fill="#ecb478" opacity="0.26"/><polygon points="404.3,236.7 416.2,260.4 392.4,260.4" fill="#f4d2ac" opacity="0.32"/><circle cx="217.1" cy="291.4" r="11.7" fill="#faebd6" opacity="0.16"/><rect x="1143.0" y="323.2" width="44.0" height="44.0" rx="4" transform="rotate(335.2 1165.0 345.2)" fill="#ecb478" opacity="0.18"/><circle cx="350.5" cy="318.4" r="24.6" fill="#faebd6" opacity="0.35"/><circle cx="1059.4" cy="429.4" r="24.3" fill="#faebd6" opacity="0.27"/>
  <g opacity="0.85" transform="translate(1020, 495)">
        <rect x="-46" y="-60" width="92" height="115" fill="#ecb478" opacity="0.18" rx="6"/>
        <path d="M -28 -36 L 28 -36 M -28 -12 L 28 -12 M -28 12 L 18 12 M -28 36 L 28 36" stroke="#faebd6" stroke-width="3" stroke-linecap="round"/>
      </g>
  <g transform="translate(80, 90)">
    <rect x="0" y="0" rx="20" ry="20" width="101" height="38" fill="#ecb478" opacity="0.18" stroke="#ecb478" stroke-width="1.5"/>
    <text x="50.5" y="25" font-family="ui-sans-serif, Inter, sans-serif" font-weight="700" font-size="14" letter-spacing="2.5" fill="#ecb478" text-anchor="middle">ARTICLE</text>
  </g>
  <text x="80" y="515" font-family="ui-sans-serif, -apple-system, Segoe UI, Inter, sans-serif" font-weight="800" font-size="44" fill="#faf8f5" opacity="0.98"><tspan x="80" dy="0">Step-by-Step Guide to</tspan><tspan x="80" dy="56">Digital Dispute Filing</tspan></text>
  <rect x="0" y="669" width="1200" height="6" fill="url(#gold)"/>
</svg>