<?xml version="1.0" encoding="UTF-8"?>
<svg xmlns="http://www.w3.org/2000/svg" viewBox="0 0 1200 675" width="1200" height="675" role="img" aria-label="Tile Importer vs. Dealer Dispute: Resolving Payment and Quality Issues">
  <defs>
    <linearGradient id="bg" x1="0%" y1="0%" x2="100%" y2="100%">
      <stop offset="0%" stop-color="#12100e"/>
      <stop offset="100%" stop-color="#1c1917"/>
    </linearGradient>
    <linearGradient id="gold" x1="0%" y1="0%" x2="100%" y2="100%">
      <stop offset="0%" stop-color="#bd6b20"/>
      <stop offset="100%" stop-color="#e09440"/>
    </linearGradient>
    <radialGradient id="glow" cx="50%" cy="50%" r="50%">
      <stop offset="0%" stop-color="#bd6b20" stop-opacity="0.45"/>
      <stop offset="100%" stop-color="#bd6b20" stop-opacity="0"/>
    </radialGradient>
  </defs>
  <rect width="1200" height="675" fill="url(#bg)"/>
  <circle cx="27.7" cy="32.2" r="1.90" fill="#bd6b20" opacity="0.36"/><circle cx="67.5" cy="29.3" r="3.08" fill="#bd6b20" opacity="0.35"/><circle cx="102.6" cy="29.0" r="3.58" fill="#bd6b20" opacity="0.16"/><circle cx="138.3" cy="32.5" r="3.82" fill="#bd6b20" opacity="0.28"/><circle cx="172.9" cy="27.5" r="3.69" fill="#bd6b20" opacity="0.15"/><circle cx="210.8" cy="29.2" r="2.06" fill="#bd6b20" opacity="0.26"/><circle cx="245.6" cy="31.3" r="3.96" fill="#bd6b20" opacity="0.32"/><circle cx="284.2" cy="27.7" r="2.62" fill="#bd6b20" opacity="0.18"/><circle cx="319.4" cy="30.5" r="3.50" fill="#bd6b20" opacity="0.23"/><circle cx="352.9" cy="29.9" r="3.90" fill="#bd6b20" opacity="0.21"/><circle cx="389.3" cy="30.3" r="1.95" fill="#bd6b20" opacity="0.34"/><circle cx="424.2" cy="28.9" r="2.56" fill="#bd6b20" opacity="0.35"/><circle cx="460.8" cy="29.0" r="1.79" fill="#bd6b20" opacity="0.34"/><circle cx="498.9" cy="29.0" r="3.93" fill="#bd6b20" opacity="0.22"/><circle cx="533.6" cy="32.4" r="1.64" fill="#bd6b20" opacity="0.16"/><circle cx="570.1" cy="29.0" r="2.04" fill="#bd6b20" opacity="0.20"/><circle cx="605.6" cy="29.4" r="1.64" fill="#bd6b20" opacity="0.22"/><circle cx="643.9" cy="32.6" r="3.74" fill="#bd6b20" opacity="0.24"/><circle cx="679.5" cy="29.7" r="3.51" fill="#bd6b20" opacity="0.32"/><circle cx="712.4" cy="28.9" r="3.36" fill="#bd6b20" opacity="0.29"/><circle cx="749.2" cy="29.9" r="3.37" fill="#bd6b20" opacity="0.20"/><circle cx="784.3" cy="32.3" r="2.79" fill="#bd6b20" opacity="0.34"/><circle cx="822.4" cy="30.2" r="2.16" fill="#bd6b20" opacity="0.22"/><circle cx="859.6" cy="30.1" r="2.34" fill="#bd6b20" opacity="0.34"/><circle cx="896.3" cy="29.9" r="2.39" fill="#bd6b20" opacity="0.18"/><circle cx="929.3" cy="28.2" r="2.94" fill="#bd6b20" opacity="0.26"/><circle cx="968.2" cy="27.9" r="1.78" fill="#bd6b20" opacity="0.34"/><circle cx="1001.3" cy="29.4" r="2.30" fill="#bd6b20" opacity="0.15"/><circle cx="1037.5" cy="31.2" r="2.21" fill="#bd6b20" opacity="0.24"/><circle cx="1072.7" cy="31.0" r="3.13" fill="#bd6b20" opacity="0.17"/><circle cx="1111.1" cy="27.0" r="1.67" fill="#bd6b20" opacity="0.34"/><circle cx="1145.1" cy="28.8" r="2.44" fill="#bd6b20" opacity="0.26"/><circle cx="1184.2" cy="31.0" r="2.27" fill="#bd6b20" opacity="0.23"/><circle cx="30.6" cy="63.3" r="3.55" fill="#bd6b20" opacity="0.32"/><circle cx="64.8" cy="66.2" r="3.56" fill="#bd6b20" opacity="0.26"/><circle cx="101.5" cy="63.6" r="3.66" fill="#bd6b20" opacity="0.34"/><circle cx="140.7" cy="67.2" r="3.17" fill="#bd6b20" opacity="0.29"/><circle cx="173.7" cy="66.3" r="2.57" fill="#bd6b20" opacity="0.30"/><circle cx="209.9" cy="67.4" r="1.97" fill="#bd6b20" opacity="0.23"/><circle cx="247.7" cy="66.1" r="3.03" fill="#bd6b20" opacity="0.31"/><circle cx="282.8" cy="65.2" r="3.06" fill="#bd6b20" opacity="0.26"/><circle cx="320.0" cy="65.4" r="3.36" fill="#bd6b20" opacity="0.35"/><circle cx="353.7" cy="64.8" r="2.34" fill="#bd6b20" opacity="0.27"/><circle cx="390.8" cy="63.3" r="3.44" fill="#bd6b20" opacity="0.18"/><circle cx="425.6" cy="65.4" r="1.97" fill="#bd6b20" opacity="0.22"/><circle cx="464.3" cy="64.2" r="2.13" fill="#bd6b20" opacity="0.24"/><circle cx="496.7" cy="68.2" r="2.46" fill="#bd6b20" opacity="0.25"/><circle cx="534.1" cy="63.6" r="3.51" fill="#bd6b20" opacity="0.15"/><circle cx="570.4" cy="65.4" r="2.32" fill="#bd6b20" opacity="0.28"/><circle cx="606.3" cy="67.9" r="2.55" fill="#bd6b20" opacity="0.17"/><circle cx="641.3" cy="66.3" r="3.15" fill="#bd6b20" opacity="0.29"/><circle cx="679.1" cy="64.9" r="3.24" fill="#bd6b20" opacity="0.23"/><circle cx="716.9" cy="67.8" r="2.13" fill="#bd6b20" opacity="0.31"/><circle cx="750.1" cy="64.2" r="3.59" fill="#bd6b20" opacity="0.30"/><circle cx="784.4" cy="65.7" r="3.48" fill="#bd6b20" opacity="0.32"/><circle cx="822.3" cy="66.6" r="2.24" fill="#bd6b20" opacity="0.16"/><circle cx="855.7" cy="64.2" r="2.11" fill="#bd6b20" opacity="0.28"/><circle cx="896.6" cy="68.8" r="1.96" fill="#bd6b20" opacity="0.34"/><circle cx="930.1" cy="65.5" r="2.18" fill="#bd6b20" opacity="0.25"/><circle cx="966.9" cy="68.3" r="3.66" fill="#bd6b20" opacity="0.17"/><circle cx="1003.2" cy="64.6" r="3.26" fill="#bd6b20" opacity="0.32"/><circle cx="1037.0" cy="64.8" r="2.66" fill="#bd6b20" opacity="0.33"/><circle cx="1074.8" cy="64.6" r="2.32" fill="#bd6b20" opacity="0.33"/><circle cx="1111.0" cy="64.3" r="3.16" fill="#bd6b20" opacity="0.35"/><circle cx="1145.0" cy="67.0" r="2.17" fill="#bd6b20" opacity="0.19"/><circle cx="1184.2" cy="65.6" r="3.79" fill="#bd6b20" opacity="0.27"/><circle cx="31.3" cy="104.9" r="2.76" fill="#bd6b20" opacity="0.34"/><circle cx="66.9" cy="99.1" r="2.84" fill="#bd6b20" opacity="0.35"/><circle cx="104.6" cy="99.3" r="3.54" fill="#bd6b20" opacity="0.27"/><circle cx="136.5" cy="101.9" r="2.18" fill="#bd6b20" opacity="0.18"/><circle cx="174.3" cy="104.8" r="3.69" fill="#bd6b20" opacity="0.34"/><circle cx="207.6" cy="100.9" r="3.20" fill="#bd6b20" opacity="0.17"/><circle cx="245.5" cy="102.1" r="2.82" fill="#bd6b20" opacity="0.32"/><circle cx="279.0" cy="100.7" r="3.66" fill="#bd6b20" opacity="0.23"/><circle cx="320.9" cy="101.7" r="3.33" fill="#bd6b20" opacity="0.32"/><circle cx="354.4" cy="101.0" r="2.46" fill="#bd6b20" opacity="0.32"/><circle cx="392.0" cy="102.7" r="3.36" fill="#bd6b20" opacity="0.24"/><circle cx="425.0" cy="103.7" r="2.45" fill="#bd6b20" opacity="0.28"/><circle cx="459.9" cy="101.0" r="3.59" fill="#bd6b20" opacity="0.33"/><circle cx="500.0" cy="101.7" r="3.16" fill="#bd6b20" opacity="0.15"/><circle cx="534.1" cy="104.7" r="2.92" fill="#bd6b20" opacity="0.19"/><circle cx="569.3" cy="100.9" r="3.25" fill="#bd6b20" opacity="0.17"/><circle cx="605.3" cy="104.9" r="3.50" fill="#bd6b20" opacity="0.19"/><circle cx="642.1" cy="100.9" r="1.77" fill="#bd6b20" opacity="0.18"/><circle cx="679.0" cy="99.2" r="2.71" fill="#bd6b20" opacity="0.35"/><circle cx="712.2" cy="100.0" r="2.00" fill="#bd6b20" opacity="0.32"/><circle cx="751.9" cy="100.7" r="3.01" fill="#bd6b20" opacity="0.31"/><circle cx="783.7" cy="104.3" r="1.76" fill="#bd6b20" opacity="0.22"/><circle cx="821.8" cy="104.8" r="2.87" fill="#bd6b20" opacity="0.33"/><circle cx="859.2" cy="100.5" r="2.36" fill="#bd6b20" opacity="0.28"/><circle cx="895.8" cy="102.7" r="3.05" fill="#bd6b20" opacity="0.28"/><circle cx="930.1" cy="99.9" r="3.96" fill="#bd6b20" opacity="0.36"/><circle cx="968.2" cy="99.7" r="2.24" fill="#bd6b20" opacity="0.21"/><circle cx="1003.2" cy="99.0" r="3.25" fill="#bd6b20" opacity="0.35"/><circle cx="1035.5" cy="104.1" r="3.24" fill="#bd6b20" opacity="0.32"/><circle cx="1075.4" cy="99.7" r="2.58" fill="#bd6b20" opacity="0.16"/><circle cx="1112.1" cy="102.2" r="2.32" fill="#bd6b20" opacity="0.24"/><circle cx="1146.7" cy="103.0" r="3.31" fill="#bd6b20" opacity="0.34"/><circle cx="1180.5" cy="102.9" r="3.43" fill="#bd6b20" opacity="0.23"/><circle cx="31.1" cy="139.6" r="1.86" fill="#bd6b20" opacity="0.36"/><circle cx="67.3" cy="138.3" r="3.69" fill="#bd6b20" opacity="0.24"/><circle cx="104.4" cy="137.1" r="3.13" fill="#bd6b20" opacity="0.26"/><circle cx="136.0" cy="137.9" r="2.60" fill="#bd6b20" opacity="0.36"/><circle cx="176.0" cy="138.4" r="3.71" fill="#bd6b20" opacity="0.24"/><circle cx="207.9" cy="138.0" r="2.50" fill="#bd6b20" opacity="0.31"/><circle cx="248.0" cy="137.8" r="1.67" fill="#bd6b20" opacity="0.35"/><circle cx="281.0" cy="139.8" r="2.72" fill="#bd6b20" opacity="0.27"/><circle cx="320.6" cy="135.7" r="2.25" fill="#bd6b20" opacity="0.19"/><circle cx="353.7" cy="137.5" r="2.44" fill="#bd6b20" opacity="0.18"/><circle cx="391.0" cy="139.2" r="2.81" fill="#bd6b20" opacity="0.28"/><circle cx="425.8" cy="140.9" r="1.70" fill="#bd6b20" opacity="0.17"/><circle cx="462.3" cy="138.4" r="2.61" fill="#bd6b20" opacity="0.28"/><circle cx="498.9" cy="135.8" r="2.46" fill="#bd6b20" opacity="0.26"/><circle cx="535.2" cy="137.6" r="1.75" fill="#bd6b20" opacity="0.15"/><circle cx="573.0" cy="139.0" r="2.88" fill="#bd6b20" opacity="0.33"/><circle cx="606.1" cy="139.2" r="3.07" fill="#bd6b20" opacity="0.15"/><circle cx="639.7" cy="136.7" r="3.24" fill="#bd6b20" opacity="0.25"/><circle cx="678.9" cy="136.0" r="3.75" fill="#bd6b20" opacity="0.16"/><circle cx="713.9" cy="136.5" r="3.19" fill="#bd6b20" opacity="0.25"/><circle cx="749.4" cy="140.2" r="3.60" fill="#bd6b20" opacity="0.29"/><circle cx="786.6" cy="138.4" r="2.27" fill="#bd6b20" opacity="0.36"/><circle cx="822.1" cy="139.3" r="2.97" fill="#bd6b20" opacity="0.18"/><circle cx="858.7" cy="140.6" r="2.28" fill="#bd6b20" opacity="0.20"/><circle cx="894.8" cy="140.7" r="2.38" fill="#bd6b20" opacity="0.33"/><circle cx="929.8" cy="137.2" r="3.33" fill="#bd6b20" opacity="0.23"/><circle cx="963.5" cy="138.6" r="2.27" fill="#bd6b20" opacity="0.17"/><circle cx="1004.9" cy="138.8" r="2.12" fill="#bd6b20" opacity="0.22"/><circle cx="1038.1" cy="139.7" r="1.98" fill="#bd6b20" opacity="0.32"/><circle cx="1071.8" cy="138.7" r="1.73" fill="#bd6b20" opacity="0.22"/><circle cx="1111.5" cy="138.7" r="3.56" fill="#bd6b20" opacity="0.34"/><circle cx="1143.7" cy="138.9" r="2.54" fill="#bd6b20" opacity="0.24"/><circle cx="1179.4" cy="140.3" r="2.93" fill="#bd6b20" opacity="0.26"/><circle cx="31.7" cy="173.9" r="3.77" fill="#bd6b20" opacity="0.27"/><circle cx="66.9" cy="176.0" r="1.96" fill="#bd6b20" opacity="0.25"/><circle cx="103.7" cy="173.9" r="2.54" fill="#bd6b20" opacity="0.30"/><circle cx="140.1" cy="173.1" r="2.45" fill="#bd6b20" opacity="0.27"/><circle cx="175.7" cy="175.8" r="2.90" fill="#bd6b20" opacity="0.30"/><circle cx="210.8" cy="174.9" r="3.41" fill="#bd6b20" opacity="0.17"/><circle cx="248.8" cy="172.6" r="2.51" fill="#bd6b20" opacity="0.27"/><circle cx="284.0" cy="172.4" r="3.73" fill="#bd6b20" opacity="0.18"/><circle cx="316.9" cy="173.0" r="3.90" fill="#bd6b20" opacity="0.23"/><circle cx="353.8" cy="175.2" r="1.65" fill="#bd6b20" opacity="0.31"/><circle cx="391.3" cy="174.2" r="3.60" fill="#bd6b20" opacity="0.33"/><circle cx="423.9" cy="175.7" r="2.52" fill="#bd6b20" opacity="0.28"/><circle cx="462.4" cy="171.6" r="3.48" fill="#bd6b20" opacity="0.27"/><circle cx="496.2" cy="172.0" r="3.76" fill="#bd6b20" opacity="0.32"/><circle cx="534.7" cy="175.9" r="2.43" fill="#bd6b20" opacity="0.16"/><circle cx="569.8" cy="171.4" r="3.94" fill="#bd6b20" opacity="0.24"/><circle cx="604.4" cy="175.2" r="2.03" fill="#bd6b20" opacity="0.28"/><circle cx="644.9" cy="174.2" r="2.44" fill="#bd6b20" opacity="0.33"/><circle cx="677.0" cy="173.4" r="3.59" fill="#bd6b20" opacity="0.30"/><circle cx="712.9" cy="176.5" r="2.15" fill="#bd6b20" opacity="0.27"/><circle cx="748.4" cy="173.8" r="2.94" fill="#bd6b20" opacity="0.23"/><circle cx="784.5" cy="175.7" r="2.81" fill="#bd6b20" opacity="0.16"/><circle cx="822.8" cy="176.1" r="3.91" fill="#bd6b20" opacity="0.27"/><circle cx="859.2" cy="171.9" r="2.09" fill="#bd6b20" opacity="0.21"/><circle cx="896.0" cy="175.2" r="3.42" fill="#bd6b20" opacity="0.19"/><circle cx="927.9" cy="174.0" r="2.24" fill="#bd6b20" opacity="0.22"/><circle cx="967.9" cy="173.4" r="2.41" fill="#bd6b20" opacity="0.21"/><circle cx="1002.6" cy="172.6" r="2.82" fill="#bd6b20" opacity="0.27"/><circle cx="1037.4" cy="172.8" r="1.90" fill="#bd6b20" opacity="0.23"/><circle cx="1074.7" cy="171.3" r="2.89" fill="#bd6b20" opacity="0.34"/><circle cx="1108.1" cy="176.0" r="2.75" fill="#bd6b20" opacity="0.31"/><circle cx="1148.2" cy="173.9" r="1.66" fill="#bd6b20" opacity="0.16"/><circle cx="1180.6" cy="174.5" r="3.16" fill="#bd6b20" opacity="0.30"/><circle cx="27.3" cy="207.1" r="3.06" fill="#bd6b20" opacity="0.19"/><circle cx="66.8" cy="211.5" r="2.58" fill="#bd6b20" opacity="0.16"/><circle cx="101.2" cy="209.1" r="2.68" fill="#bd6b20" opacity="0.16"/><circle cx="138.9" cy="208.0" r="2.89" fill="#bd6b20" opacity="0.26"/><circle cx="175.0" cy="210.6" r="3.50" fill="#bd6b20" opacity="0.28"/><circle cx="208.0" cy="212.5" r="2.34" fill="#bd6b20" opacity="0.17"/><circle cx="247.6" cy="208.0" r="3.15" fill="#bd6b20" opacity="0.36"/><circle cx="281.8" cy="207.8" r="2.26" fill="#bd6b20" opacity="0.34"/><circle cx="320.8" cy="211.7" r="2.83" fill="#bd6b20" opacity="0.35"/><circle cx="356.8" cy="211.4" r="1.93" fill="#bd6b20" opacity="0.17"/><circle cx="391.4" cy="212.7" r="2.15" fill="#bd6b20" opacity="0.23"/><circle cx="426.3" cy="210.9" r="3.58" fill="#bd6b20" opacity="0.27"/><circle cx="459.3" cy="211.6" r="3.99" fill="#bd6b20" opacity="0.17"/><circle cx="495.1" cy="209.9" r="2.84" fill="#bd6b20" opacity="0.35"/><circle cx="532.6" cy="207.9" r="3.72" fill="#bd6b20" opacity="0.36"/><circle cx="571.7" cy="211.7" r="1.71" fill="#bd6b20" opacity="0.28"/><circle cx="606.8" cy="211.3" r="2.88" fill="#bd6b20" opacity="0.35"/><circle cx="641.0" cy="211.5" r="2.15" fill="#bd6b20" opacity="0.24"/><circle cx="675.6" cy="210.7" r="2.85" fill="#bd6b20" opacity="0.20"/><circle cx="715.9" cy="211.2" r="2.35" fill="#bd6b20" opacity="0.23"/><circle cx="749.9" cy="212.8" r="3.42" fill="#bd6b20" opacity="0.15"/><circle cx="788.0" cy="208.1" r="3.23" fill="#bd6b20" opacity="0.28"/><circle cx="819.3" cy="207.5" r="3.96" fill="#bd6b20" opacity="0.32"/><circle cx="858.2" cy="208.3" r="1.67" fill="#bd6b20" opacity="0.35"/><circle cx="893.9" cy="212.7" r="3.02" fill="#bd6b20" opacity="0.33"/><circle cx="927.5" cy="208.9" r="3.91" fill="#bd6b20" opacity="0.20"/><circle cx="963.2" cy="208.0" r="3.55" fill="#bd6b20" opacity="0.33"/><circle cx="1004.9" cy="207.2" r="2.70" fill="#bd6b20" opacity="0.36"/><circle cx="1040.3" cy="210.5" r="2.84" fill="#bd6b20" opacity="0.20"/><circle cx="1075.9" cy="208.1" r="2.70" fill="#bd6b20" opacity="0.27"/><circle cx="1110.4" cy="209.6" r="3.98" fill="#bd6b20" opacity="0.23"/><circle cx="1145.3" cy="210.7" r="3.02" fill="#bd6b20" opacity="0.19"/><circle cx="1182.1" cy="207.5" r="3.21" fill="#bd6b20" opacity="0.22"/><circle cx="29.8" cy="248.0" r="3.76" fill="#bd6b20" opacity="0.17"/><circle cx="66.7" cy="248.5" r="2.63" fill="#bd6b20" opacity="0.20"/><circle cx="103.4" cy="244.4" r="2.88" fill="#bd6b20" opacity="0.16"/><circle cx="137.3" cy="247.5" r="1.70" fill="#bd6b20" opacity="0.23"/><circle cx="171.5" cy="243.1" r="2.33" fill="#bd6b20" opacity="0.28"/><circle cx="207.4" cy="245.4" r="3.11" fill="#bd6b20" opacity="0.30"/><circle cx="247.8" cy="247.4" r="3.03" fill="#bd6b20" opacity="0.27"/><circle cx="280.5" cy="244.5" r="2.69" fill="#bd6b20" opacity="0.31"/><circle cx="317.1" cy="244.5" r="3.68" fill="#bd6b20" opacity="0.22"/><circle cx="356.6" cy="248.8" r="3.44" fill="#bd6b20" opacity="0.36"/><circle cx="391.2" cy="243.0" r="2.18" fill="#bd6b20" opacity="0.28"/><circle cx="428.5" cy="246.9" r="3.33" fill="#bd6b20" opacity="0.30"/><circle cx="464.5" cy="246.9" r="3.76" fill="#bd6b20" opacity="0.16"/><circle cx="498.9" cy="248.6" r="3.85" fill="#bd6b20" opacity="0.35"/><circle cx="532.6" cy="246.1" r="3.71" fill="#bd6b20" opacity="0.26"/><circle cx="569.1" cy="245.7" r="3.59" fill="#bd6b20" opacity="0.27"/><circle cx="603.2" cy="247.2" r="3.50" fill="#bd6b20" opacity="0.17"/><circle cx="639.2" cy="247.7" r="3.92" fill="#bd6b20" opacity="0.27"/><circle cx="677.4" cy="249.0" r="3.46" fill="#bd6b20" opacity="0.34"/><circle cx="712.8" cy="244.6" r="2.93" fill="#bd6b20" opacity="0.33"/><circle cx="750.4" cy="247.6" r="1.80" fill="#bd6b20" opacity="0.15"/><circle cx="786.9" cy="243.0" r="3.53" fill="#bd6b20" opacity="0.15"/><circle cx="824.9" cy="243.2" r="3.98" fill="#bd6b20" opacity="0.27"/><circle cx="859.1" cy="246.7" r="2.76" fill="#bd6b20" opacity="0.22"/><circle cx="895.1" cy="245.5" r="2.19" fill="#bd6b20" opacity="0.35"/><circle cx="932.7" cy="243.7" r="1.64" fill="#bd6b20" opacity="0.24"/><circle cx="965.7" cy="247.3" r="2.43" fill="#bd6b20" opacity="0.25"/><circle cx="1002.0" cy="243.1" r="3.45" fill="#bd6b20" opacity="0.30"/><circle cx="1038.9" cy="246.7" r="3.76" fill="#bd6b20" opacity="0.17"/><circle cx="1072.2" cy="244.4" r="2.71" fill="#bd6b20" opacity="0.24"/><circle cx="1110.5" cy="247.7" r="3.85" fill="#bd6b20" opacity="0.19"/><circle cx="1148.5" cy="243.5" r="3.36" fill="#bd6b20" opacity="0.17"/><circle cx="1179.5" cy="245.4" r="3.24" fill="#bd6b20" opacity="0.28"/><circle cx="32.7" cy="280.2" r="2.41" fill="#bd6b20" opacity="0.33"/><circle cx="64.7" cy="282.7" r="2.54" fill="#bd6b20" opacity="0.18"/><circle cx="104.2" cy="280.1" r="2.54" fill="#bd6b20" opacity="0.34"/><circle cx="137.6" cy="283.8" r="3.63" fill="#bd6b20" opacity="0.27"/><circle cx="174.0" cy="281.3" r="2.97" fill="#bd6b20" opacity="0.28"/><circle cx="210.7" cy="281.8" r="3.02" fill="#bd6b20" opacity="0.21"/><circle cx="245.6" cy="283.9" r="2.40" fill="#bd6b20" opacity="0.21"/><circle cx="283.9" cy="281.9" r="2.06" fill="#bd6b20" opacity="0.21"/><circle cx="316.6" cy="282.7" r="1.96" fill="#bd6b20" opacity="0.25"/><circle cx="353.5" cy="283.6" r="3.95" fill="#bd6b20" opacity="0.30"/><circle cx="389.4" cy="283.1" r="2.51" fill="#bd6b20" opacity="0.28"/><circle cx="424.2" cy="284.6" r="2.68" fill="#bd6b20" opacity="0.28"/><circle cx="464.6" cy="280.5" r="3.95" fill="#bd6b20" opacity="0.23"/><circle cx="497.7" cy="283.5" r="2.02" fill="#bd6b20" opacity="0.18"/><circle cx="531.4" cy="279.5" r="1.96" fill="#bd6b20" opacity="0.20"/><circle cx="570.0" cy="280.6" r="2.53" fill="#bd6b20" opacity="0.21"/><circle cx="605.2" cy="282.1" r="1.64" fill="#bd6b20" opacity="0.16"/><circle cx="642.0" cy="284.8" r="2.79" fill="#bd6b20" opacity="0.29"/><circle cx="675.3" cy="282.7" r="2.69" fill="#bd6b20" opacity="0.23"/><circle cx="717.0" cy="282.2" r="3.09" fill="#bd6b20" opacity="0.26"/><circle cx="752.1" cy="282.6" r="1.73" fill="#bd6b20" opacity="0.24"/><circle cx="784.1" cy="281.6" r="3.98" fill="#bd6b20" opacity="0.22"/><circle cx="819.3" cy="283.6" r="1.99" fill="#bd6b20" opacity="0.28"/><circle cx="856.1" cy="281.8" r="2.38" fill="#bd6b20" opacity="0.32"/><circle cx="896.1" cy="284.8" r="3.52" fill="#bd6b20" opacity="0.21"/><circle cx="927.4" cy="283.7" r="2.39" fill="#bd6b20" opacity="0.23"/><circle cx="967.2" cy="282.3" r="3.55" fill="#bd6b20" opacity="0.24"/><circle cx="1000.6" cy="280.4" r="3.72" fill="#bd6b20" opacity="0.21"/><circle cx="1035.8" cy="283.4" r="3.45" fill="#bd6b20" opacity="0.35"/><circle cx="1075.9" cy="283.5" r="2.77" fill="#bd6b20" opacity="0.29"/><circle cx="1107.9" cy="282.4" r="2.02" fill="#bd6b20" opacity="0.32"/><circle cx="1144.1" cy="283.3" r="2.85" fill="#bd6b20" opacity="0.30"/><circle cx="1181.6" cy="279.9" r="2.94" fill="#bd6b20" opacity="0.28"/><circle cx="30.8" cy="316.2" r="3.42" fill="#bd6b20" opacity="0.16"/><circle cx="67.5" cy="320.6" r="3.54" fill="#bd6b20" opacity="0.32"/><circle cx="103.9" cy="320.6" r="2.54" fill="#bd6b20" opacity="0.15"/><circle cx="140.7" cy="317.6" r="2.73" fill="#bd6b20" opacity="0.22"/><circle cx="174.4" cy="319.7" r="2.86" fill="#bd6b20" opacity="0.33"/><circle cx="208.6" cy="320.9" r="1.75" fill="#bd6b20" opacity="0.36"/><circle cx="247.5" cy="318.4" r="2.05" fill="#bd6b20" opacity="0.28"/><circle cx="282.2" cy="319.2" r="3.05" fill="#bd6b20" opacity="0.15"/><circle cx="315.3" cy="317.2" r="3.89" fill="#bd6b20" opacity="0.17"/><circle cx="356.2" cy="320.1" r="1.97" fill="#bd6b20" opacity="0.16"/><circle cx="387.6" cy="317.5" r="3.67" fill="#bd6b20" opacity="0.30"/><circle cx="426.2" cy="319.5" r="3.28" fill="#bd6b20" opacity="0.26"/><circle cx="460.2" cy="319.0" r="3.87" fill="#bd6b20" opacity="0.30"/><circle cx="496.0" cy="319.2" r="3.00" fill="#bd6b20" opacity="0.26"/><circle cx="535.8" cy="318.8" r="3.09" fill="#bd6b20" opacity="0.31"/><circle cx="569.3" cy="320.5" r="2.77" fill="#bd6b20" opacity="0.23"/><circle cx="606.0" cy="321.0" r="3.74" fill="#bd6b20" opacity="0.33"/><circle cx="641.2" cy="318.2" r="1.91" fill="#bd6b20" opacity="0.32"/><circle cx="679.0" cy="317.6" r="3.85" fill="#bd6b20" opacity="0.17"/><circle cx="711.2" cy="316.4" r="3.44" fill="#bd6b20" opacity="0.29"/><circle cx="750.8" cy="319.7" r="2.63" fill="#bd6b20" opacity="0.18"/><circle cx="786.7" cy="318.9" r="1.89" fill="#bd6b20" opacity="0.30"/><circle cx="821.5" cy="316.9" r="1.64" fill="#bd6b20" opacity="0.25"/><circle cx="858.5" cy="315.7" r="3.38" fill="#bd6b20" opacity="0.19"/><circle cx="896.1" cy="318.9" r="2.16" fill="#bd6b20" opacity="0.15"/><circle cx="931.9" cy="317.8" r="3.52" fill="#bd6b20" opacity="0.31"/><circle cx="965.9" cy="318.0" r="3.23" fill="#bd6b20" opacity="0.25"/><circle cx="1001.9" cy="320.1" r="3.15" fill="#bd6b20" opacity="0.23"/><circle cx="1040.3" cy="317.2" r="3.07" fill="#bd6b20" opacity="0.17"/><circle cx="1074.7" cy="317.7" r="3.10" fill="#bd6b20" opacity="0.31"/><circle cx="1111.7" cy="318.2" r="2.64" fill="#bd6b20" opacity="0.23"/><circle cx="1143.2" cy="319.3" r="3.57" fill="#bd6b20" opacity="0.35"/><circle cx="1184.3" cy="316.7" r="3.63" fill="#bd6b20" opacity="0.28"/><circle cx="30.3" cy="352.9" r="3.05" fill="#bd6b20" opacity="0.20"/><circle cx="64.7" cy="357.0" r="2.21" fill="#bd6b20" opacity="0.29"/><circle cx="100.5" cy="351.2" r="3.40" fill="#bd6b20" opacity="0.25"/><circle cx="140.6" cy="356.3" r="3.40" fill="#bd6b20" opacity="0.15"/><circle cx="172.6" cy="355.5" r="3.42" fill="#bd6b20" opacity="0.20"/><circle cx="209.2" cy="352.3" r="3.15" fill="#bd6b20" opacity="0.25"/><circle cx="247.2" cy="352.5" r="2.25" fill="#bd6b20" opacity="0.26"/><circle cx="279.0" cy="355.4" r="3.46" fill="#bd6b20" opacity="0.21"/><circle cx="317.2" cy="354.7" r="3.38" fill="#bd6b20" opacity="0.17"/><circle cx="355.0" cy="355.6" r="3.54" fill="#bd6b20" opacity="0.34"/><circle cx="391.6" cy="351.9" r="3.67" fill="#bd6b20" opacity="0.24"/><circle cx="426.2" cy="352.5" r="3.08" fill="#bd6b20" opacity="0.28"/><circle cx="462.5" cy="353.2" r="3.88" fill="#bd6b20" opacity="0.35"/><circle cx="498.2" cy="353.6" r="3.22" fill="#bd6b20" opacity="0.18"/><circle cx="531.4" cy="355.4" r="2.19" fill="#bd6b20" opacity="0.29"/><circle cx="569.7" cy="355.1" r="3.87" fill="#bd6b20" opacity="0.33"/><circle cx="603.2" cy="353.6" r="2.62" fill="#bd6b20" opacity="0.33"/><circle cx="639.2" cy="352.5" r="2.03" fill="#bd6b20" opacity="0.16"/><circle cx="677.6" cy="355.9" r="2.58" fill="#bd6b20" opacity="0.28"/><circle cx="713.0" cy="356.0" r="2.53" fill="#bd6b20" opacity="0.19"/><circle cx="749.3" cy="352.2" r="2.48" fill="#bd6b20" opacity="0.19"/><circle cx="787.9" cy="352.7" r="2.27" fill="#bd6b20" opacity="0.31"/><circle cx="819.1" cy="353.0" r="2.58" fill="#bd6b20" opacity="0.34"/><circle cx="860.9" cy="351.9" r="2.37" fill="#bd6b20" opacity="0.26"/><circle cx="896.4" cy="352.2" r="3.49" fill="#bd6b20" opacity="0.28"/><circle cx="930.5" cy="354.5" r="1.90" fill="#bd6b20" opacity="0.26"/><circle cx="968.8" cy="353.9" r="1.87" fill="#bd6b20" opacity="0.32"/><circle cx="1004.3" cy="352.3" r="3.82" fill="#bd6b20" opacity="0.33"/><circle cx="1040.7" cy="355.5" r="3.55" fill="#bd6b20" opacity="0.18"/><circle cx="1076.4" cy="353.5" r="1.86" fill="#bd6b20" opacity="0.31"/><circle cx="1111.8" cy="354.8" r="1.75" fill="#bd6b20" opacity="0.30"/><circle cx="1146.5" cy="355.5" r="2.36" fill="#bd6b20" opacity="0.30"/><circle cx="1180.3" cy="354.6" r="2.70" fill="#bd6b20" opacity="0.25"/><circle cx="29.5" cy="392.8" r="3.91" fill="#bd6b20" opacity="0.35"/><circle cx="67.1" cy="390.0" r="3.04" fill="#bd6b20" opacity="0.17"/><circle cx="100.3" cy="392.2" r="2.58" fill="#bd6b20" opacity="0.31"/><circle cx="140.1" cy="390.4" r="1.92" fill="#bd6b20" opacity="0.20"/><circle cx="171.5" cy="390.9" r="1.87" fill="#bd6b20" opacity="0.19"/><circle cx="207.0" cy="392.7" r="2.75" fill="#bd6b20" opacity="0.21"/><circle cx="247.9" cy="391.2" r="2.59" fill="#bd6b20" opacity="0.30"/><circle cx="283.2" cy="392.3" r="3.61" fill="#bd6b20" opacity="0.18"/><circle cx="320.1" cy="392.4" r="3.29" fill="#bd6b20" opacity="0.28"/><circle cx="355.8" cy="390.5" r="2.50" fill="#bd6b20" opacity="0.22"/><circle cx="389.7" cy="390.0" r="3.68" fill="#bd6b20" opacity="0.17"/><circle cx="425.3" cy="391.9" r="2.75" fill="#bd6b20" opacity="0.26"/><circle cx="460.8" cy="389.3" r="3.35" fill="#bd6b20" opacity="0.28"/><circle cx="495.7" cy="387.3" r="2.20" fill="#bd6b20" opacity="0.31"/><circle cx="533.2" cy="388.1" r="3.73" fill="#bd6b20" opacity="0.32"/><circle cx="571.9" cy="387.4" r="3.06" fill="#bd6b20" opacity="0.20"/><circle cx="605.9" cy="392.2" r="2.16" fill="#bd6b20" opacity="0.27"/><circle cx="644.7" cy="391.9" r="3.97" fill="#bd6b20" opacity="0.27"/><circle cx="677.7" cy="389.1" r="3.18" fill="#bd6b20" opacity="0.15"/><circle cx="717.0" cy="391.1" r="2.61" fill="#bd6b20" opacity="0.16"/><circle cx="748.2" cy="391.2" r="3.28" fill="#bd6b20" opacity="0.21"/><circle cx="784.8" cy="391.2" r="2.87" fill="#bd6b20" opacity="0.16"/><circle cx="820.1" cy="392.5" r="2.29" fill="#bd6b20" opacity="0.27"/><circle cx="860.1" cy="387.5" r="1.74" fill="#bd6b20" opacity="0.34"/><circle cx="895.8" cy="392.4" r="3.55" fill="#bd6b20" opacity="0.20"/><circle cx="929.9" cy="390.3" r="2.33" fill="#bd6b20" opacity="0.30"/><circle cx="964.0" cy="388.1" r="1.88" fill="#bd6b20" opacity="0.31"/><circle cx="999.0" cy="391.4" r="2.19" fill="#bd6b20" opacity="0.33"/><circle cx="1037.8" cy="392.1" r="2.38" fill="#bd6b20" opacity="0.35"/><circle cx="1075.3" cy="392.2" r="3.99" fill="#bd6b20" opacity="0.30"/><circle cx="1111.7" cy="391.5" r="2.48" fill="#bd6b20" opacity="0.25"/><circle cx="1143.3" cy="388.4" r="2.22" fill="#bd6b20" opacity="0.28"/><circle cx="1180.9" cy="388.4" r="3.12" fill="#bd6b20" opacity="0.21"/><circle cx="29.8" cy="428.2" r="3.27" fill="#bd6b20" opacity="0.25"/><circle cx="66.0" cy="425.5" r="3.43" fill="#bd6b20" opacity="0.17"/><circle cx="99.5" cy="425.5" r="3.59" fill="#bd6b20" opacity="0.26"/><circle cx="137.0" cy="424.8" r="2.34" fill="#bd6b20" opacity="0.22"/><circle cx="175.8" cy="426.1" r="2.52" fill="#bd6b20" opacity="0.26"/><circle cx="208.4" cy="426.9" r="3.74" fill="#bd6b20" opacity="0.22"/><circle cx="243.2" cy="425.6" r="1.84" fill="#bd6b20" opacity="0.34"/><circle cx="279.8" cy="423.5" r="2.98" fill="#bd6b20" opacity="0.36"/><circle cx="316.1" cy="425.4" r="2.98" fill="#bd6b20" opacity="0.19"/><circle cx="352.3" cy="428.5" r="2.52" fill="#bd6b20" opacity="0.25"/><circle cx="388.9" cy="425.1" r="3.58" fill="#bd6b20" opacity="0.25"/><circle cx="428.0" cy="426.6" r="3.28" fill="#bd6b20" opacity="0.25"/><circle cx="461.6" cy="426.3" r="2.73" fill="#bd6b20" opacity="0.24"/><circle cx="500.2" cy="425.3" r="2.19" fill="#bd6b20" opacity="0.35"/><circle cx="536.6" cy="425.3" r="3.33" fill="#bd6b20" opacity="0.32"/><circle cx="568.2" cy="423.7" r="3.07" fill="#bd6b20" opacity="0.35"/><circle cx="606.2" cy="425.8" r="2.85" fill="#bd6b20" opacity="0.27"/><circle cx="640.5" cy="423.9" r="3.16" fill="#bd6b20" opacity="0.26"/><circle cx="677.2" cy="423.8" r="1.97" fill="#bd6b20" opacity="0.31"/><circle cx="715.7" cy="428.3" r="1.72" fill="#bd6b20" opacity="0.34"/><circle cx="750.2" cy="427.9" r="2.55" fill="#bd6b20" opacity="0.20"/><circle cx="788.5" cy="423.7" r="2.30" fill="#bd6b20" opacity="0.31"/><circle cx="820.2" cy="427.8" r="2.47" fill="#bd6b20" opacity="0.27"/><circle cx="857.4" cy="428.5" r="3.51" fill="#bd6b20" opacity="0.20"/><circle cx="893.3" cy="426.2" r="3.75" fill="#bd6b20" opacity="0.18"/><circle cx="931.7" cy="428.3" r="2.84" fill="#bd6b20" opacity="0.27"/><circle cx="963.1" cy="425.5" r="2.45" fill="#bd6b20" opacity="0.33"/><circle cx="1003.5" cy="424.6" r="2.37" fill="#bd6b20" opacity="0.29"/><circle cx="1039.2" cy="423.6" r="3.68" fill="#bd6b20" opacity="0.31"/><circle cx="1076.4" cy="426.7" r="3.60" fill="#bd6b20" opacity="0.35"/><circle cx="1109.5" cy="427.5" r="1.92" fill="#bd6b20" opacity="0.23"/><circle cx="1146.8" cy="423.3" r="2.67" fill="#bd6b20" opacity="0.35"/><circle cx="1183.4" cy="423.1" r="3.58" fill="#bd6b20" opacity="0.21"/><circle cx="30.3" cy="460.9" r="3.82" fill="#bd6b20" opacity="0.20"/><circle cx="66.5" cy="461.3" r="3.71" fill="#bd6b20" opacity="0.30"/><circle cx="101.9" cy="464.2" r="2.22" fill="#bd6b20" opacity="0.18"/><circle cx="138.5" cy="460.8" r="2.30" fill="#bd6b20" opacity="0.16"/><circle cx="171.9" cy="464.0" r="1.62" fill="#bd6b20" opacity="0.31"/><circle cx="212.7" cy="464.1" r="1.88" fill="#bd6b20" opacity="0.20"/><circle cx="243.3" cy="459.1" r="2.67" fill="#bd6b20" opacity="0.31"/><circle cx="279.4" cy="462.1" r="1.63" fill="#bd6b20" opacity="0.25"/><circle cx="317.7" cy="461.7" r="2.10" fill="#bd6b20" opacity="0.36"/><circle cx="351.1" cy="461.2" r="1.91" fill="#bd6b20" opacity="0.34"/><circle cx="388.5" cy="462.5" r="2.21" fill="#bd6b20" opacity="0.32"/><circle cx="424.9" cy="460.1" r="2.79" fill="#bd6b20" opacity="0.35"/><circle cx="460.5" cy="460.0" r="3.22" fill="#bd6b20" opacity="0.26"/><circle cx="499.9" cy="461.1" r="2.94" fill="#bd6b20" opacity="0.26"/><circle cx="531.9" cy="462.8" r="3.35" fill="#bd6b20" opacity="0.23"/><circle cx="572.5" cy="460.9" r="2.99" fill="#bd6b20" opacity="0.20"/><circle cx="603.4" cy="464.8" r="1.62" fill="#bd6b20" opacity="0.21"/><circle cx="642.6" cy="464.0" r="3.46" fill="#bd6b20" opacity="0.26"/><circle cx="675.2" cy="462.8" r="2.81" fill="#bd6b20" opacity="0.31"/><circle cx="716.3" cy="461.2" r="3.72" fill="#bd6b20" opacity="0.27"/><circle cx="749.5" cy="461.1" r="1.67" fill="#bd6b20" opacity="0.30"/><circle cx="783.4" cy="461.4" r="2.54" fill="#bd6b20" opacity="0.33"/><circle cx="822.8" cy="461.5" r="2.37" fill="#bd6b20" opacity="0.36"/><circle cx="859.3" cy="463.7" r="2.73" fill="#bd6b20" opacity="0.21"/><circle cx="893.3" cy="464.6" r="3.93" fill="#bd6b20" opacity="0.31"/><circle cx="929.9" cy="460.4" r="3.79" fill="#bd6b20" opacity="0.17"/><circle cx="964.6" cy="464.5" r="2.89" fill="#bd6b20" opacity="0.32"/><circle cx="1004.0" cy="463.7" r="2.84" fill="#bd6b20" opacity="0.19"/><circle cx="1035.4" cy="464.2" r="2.93" fill="#bd6b20" opacity="0.26"/><circle cx="1076.7" cy="462.2" r="3.99" fill="#bd6b20" opacity="0.20"/><circle cx="1110.9" cy="461.8" r="1.91" fill="#bd6b20" opacity="0.26"/><circle cx="1144.2" cy="460.1" r="2.68" fill="#bd6b20" opacity="0.15"/><circle cx="1181.1" cy="459.7" r="2.03" fill="#bd6b20" opacity="0.33"/><circle cx="29.5" cy="497.2" r="3.87" fill="#bd6b20" opacity="0.34"/><circle cx="63.7" cy="500.2" r="3.64" fill="#bd6b20" opacity="0.35"/><circle cx="101.3" cy="498.1" r="2.88" fill="#bd6b20" opacity="0.15"/><circle cx="136.7" cy="495.1" r="1.93" fill="#bd6b20" opacity="0.33"/><circle cx="172.1" cy="500.4" r="1.64" fill="#bd6b20" opacity="0.24"/><circle cx="208.9" cy="500.0" r="3.78" fill="#bd6b20" opacity="0.19"/><circle cx="245.0" cy="500.4" r="3.05" fill="#bd6b20" opacity="0.32"/><circle cx="283.9" cy="495.9" r="3.24" fill="#bd6b20" opacity="0.25"/><circle cx="315.1" cy="499.1" r="3.85" fill="#bd6b20" opacity="0.26"/><circle cx="353.8" cy="497.9" r="3.20" fill="#bd6b20" opacity="0.34"/><circle cx="392.5" cy="496.5" r="3.87" fill="#bd6b20" opacity="0.24"/><circle cx="423.7" cy="498.1" r="2.19" fill="#bd6b20" opacity="0.26"/><circle cx="462.9" cy="498.8" r="3.55" fill="#bd6b20" opacity="0.23"/><circle cx="500.0" cy="496.6" r="2.00" fill="#bd6b20" opacity="0.20"/><circle cx="534.0" cy="500.1" r="3.29" fill="#bd6b20" opacity="0.20"/><circle cx="571.7" cy="499.0" r="2.21" fill="#bd6b20" opacity="0.21"/><circle cx="606.5" cy="495.8" r="3.14" fill="#bd6b20" opacity="0.24"/><circle cx="644.7" cy="495.0" r="3.84" fill="#bd6b20" opacity="0.32"/><circle cx="677.7" cy="497.6" r="2.96" fill="#bd6b20" opacity="0.24"/><circle cx="711.6" cy="499.1" r="1.89" fill="#bd6b20" opacity="0.33"/><circle cx="747.7" cy="496.4" r="2.78" fill="#bd6b20" opacity="0.32"/><circle cx="785.8" cy="499.1" r="3.81" fill="#bd6b20" opacity="0.17"/><circle cx="824.3" cy="497.5" r="1.79" fill="#bd6b20" opacity="0.20"/><circle cx="857.7" cy="498.8" r="2.30" fill="#bd6b20" opacity="0.34"/><circle cx="896.0" cy="497.4" r="1.78" fill="#bd6b20" opacity="0.30"/><circle cx="931.2" cy="499.3" r="3.22" fill="#bd6b20" opacity="0.33"/><circle cx="966.2" cy="496.9" r="2.79" fill="#bd6b20" opacity="0.36"/><circle cx="1002.0" cy="495.8" r="2.51" fill="#bd6b20" opacity="0.19"/><circle cx="1037.0" cy="500.2" r="2.40" fill="#bd6b20" opacity="0.17"/><circle cx="1075.3" cy="497.2" r="3.33" fill="#bd6b20" opacity="0.33"/><circle cx="1111.1" cy="495.2" r="2.86" fill="#bd6b20" opacity="0.19"/><circle cx="1146.6" cy="500.5" r="3.00" fill="#bd6b20" opacity="0.26"/><circle cx="1184.5" cy="498.0" r="3.13" fill="#bd6b20" opacity="0.29"/><circle cx="30.0" cy="536.7" r="2.07" fill="#bd6b20" opacity="0.23"/><circle cx="67.9" cy="532.8" r="3.57" fill="#bd6b20" opacity="0.27"/><circle cx="101.0" cy="533.0" r="2.72" fill="#bd6b20" opacity="0.17"/><circle cx="136.3" cy="531.4" r="2.20" fill="#bd6b20" opacity="0.18"/><circle cx="174.5" cy="533.9" r="2.73" fill="#bd6b20" opacity="0.36"/><circle cx="212.5" cy="533.5" r="2.24" fill="#bd6b20" opacity="0.18"/><circle cx="248.4" cy="536.2" r="3.52" fill="#bd6b20" opacity="0.27"/><circle cx="279.5" cy="533.8" r="2.16" fill="#bd6b20" opacity="0.21"/><circle cx="315.9" cy="535.7" r="2.66" fill="#bd6b20" opacity="0.26"/><circle cx="353.4" cy="532.3" r="3.22" fill="#bd6b20" opacity="0.20"/><circle cx="388.7" cy="533.7" r="2.84" fill="#bd6b20" opacity="0.33"/><circle cx="425.6" cy="534.2" r="3.39" fill="#bd6b20" opacity="0.25"/><circle cx="460.3" cy="532.1" r="2.72" fill="#bd6b20" opacity="0.24"/><circle cx="497.5" cy="533.2" r="2.73" fill="#bd6b20" opacity="0.30"/><circle cx="535.1" cy="536.2" r="2.74" fill="#bd6b20" opacity="0.20"/><circle cx="571.5" cy="532.9" r="2.02" fill="#bd6b20" opacity="0.20"/><circle cx="606.1" cy="534.3" r="2.16" fill="#bd6b20" opacity="0.17"/><circle cx="643.3" cy="533.2" r="2.78" fill="#bd6b20" opacity="0.23"/><circle cx="680.2" cy="535.7" r="3.07" fill="#bd6b20" opacity="0.16"/><circle cx="716.2" cy="531.3" r="2.31" fill="#bd6b20" opacity="0.19"/><circle cx="750.9" cy="533.5" r="3.17" fill="#bd6b20" opacity="0.34"/><circle cx="783.9" cy="531.9" r="2.21" fill="#bd6b20" opacity="0.18"/><circle cx="821.7" cy="534.2" r="3.56" fill="#bd6b20" opacity="0.17"/><circle cx="856.7" cy="532.5" r="2.98" fill="#bd6b20" opacity="0.32"/><circle cx="893.4" cy="532.4" r="2.59" fill="#bd6b20" opacity="0.34"/><circle cx="930.3" cy="536.5" r="3.97" fill="#bd6b20" opacity="0.29"/><circle cx="968.8" cy="535.3" r="2.88" fill="#bd6b20" opacity="0.20"/><circle cx="1003.2" cy="534.0" r="3.39" fill="#bd6b20" opacity="0.18"/><circle cx="1035.1" cy="535.9" r="2.68" fill="#bd6b20" opacity="0.28"/><circle cx="1074.3" cy="532.8" r="3.78" fill="#bd6b20" opacity="0.17"/><circle cx="1111.1" cy="534.8" r="2.72" fill="#bd6b20" opacity="0.22"/><circle cx="1147.6" cy="536.2" r="2.57" fill="#bd6b20" opacity="0.34"/><circle cx="1184.7" cy="534.6" r="3.60" fill="#bd6b20" opacity="0.25"/><circle cx="30.7" cy="571.2" r="2.74" fill="#bd6b20" opacity="0.25"/><circle cx="64.3" cy="568.4" r="2.70" fill="#bd6b20" opacity="0.22"/><circle cx="103.7" cy="571.6" r="2.47" fill="#bd6b20" opacity="0.26"/><circle cx="138.9" cy="568.2" r="3.35" fill="#bd6b20" opacity="0.34"/><circle cx="173.1" cy="570.1" r="3.07" fill="#bd6b20" opacity="0.16"/><circle cx="212.6" cy="570.1" r="3.49" fill="#bd6b20" opacity="0.36"/><circle cx="243.4" cy="570.8" r="3.18" fill="#bd6b20" opacity="0.33"/><circle cx="283.2" cy="569.8" r="3.56" fill="#bd6b20" opacity="0.35"/><circle cx="317.8" cy="570.1" r="3.58" fill="#bd6b20" opacity="0.27"/><circle cx="351.5" cy="569.2" r="1.81" fill="#bd6b20" opacity="0.34"/><circle cx="390.8" cy="568.6" r="1.62" fill="#bd6b20" opacity="0.27"/><circle cx="428.5" cy="567.4" r="3.39" fill="#bd6b20" opacity="0.27"/><circle cx="460.7" cy="567.5" r="2.90" fill="#bd6b20" opacity="0.34"/><circle cx="497.0" cy="571.9" r="1.79" fill="#bd6b20" opacity="0.34"/><circle cx="536.3" cy="568.6" r="3.24" fill="#bd6b20" opacity="0.36"/><circle cx="572.3" cy="570.0" r="2.95" fill="#bd6b20" opacity="0.35"/><circle cx="605.5" cy="568.7" r="3.09" fill="#bd6b20" opacity="0.33"/><circle cx="642.6" cy="568.8" r="3.54" fill="#bd6b20" opacity="0.35"/><circle cx="677.6" cy="572.8" r="1.68" fill="#bd6b20" opacity="0.16"/><circle cx="714.2" cy="572.0" r="2.41" fill="#bd6b20" opacity="0.18"/><circle cx="749.8" cy="572.3" r="3.99" fill="#bd6b20" opacity="0.27"/><circle cx="787.8" cy="572.1" r="1.69" fill="#bd6b20" opacity="0.34"/><circle cx="823.4" cy="571.2" r="2.98" fill="#bd6b20" opacity="0.32"/><circle cx="857.2" cy="569.8" r="3.13" fill="#bd6b20" opacity="0.24"/><circle cx="892.1" cy="568.7" r="3.07" fill="#bd6b20" opacity="0.27"/><circle cx="932.2" cy="570.1" r="2.58" fill="#bd6b20" opacity="0.26"/><circle cx="964.9" cy="571.7" r="2.23" fill="#bd6b20" opacity="0.20"/><circle cx="1000.3" cy="570.0" r="3.62" fill="#bd6b20" opacity="0.35"/><circle cx="1040.0" cy="569.0" r="1.88" fill="#bd6b20" opacity="0.33"/><circle cx="1076.6" cy="571.1" r="2.93" fill="#bd6b20" opacity="0.29"/><circle cx="1111.1" cy="572.1" r="3.33" fill="#bd6b20" opacity="0.36"/><circle cx="1147.7" cy="568.9" r="2.89" fill="#bd6b20" opacity="0.36"/><circle cx="1181.3" cy="572.3" r="2.71" fill="#bd6b20" opacity="0.17"/><circle cx="32.9" cy="603.3" r="2.33" fill="#bd6b20" opacity="0.35"/><circle cx="68.6" cy="605.5" r="3.81" fill="#bd6b20" opacity="0.18"/><circle cx="103.2" cy="606.6" r="2.85" fill="#bd6b20" opacity="0.17"/><circle cx="140.3" cy="606.0" r="1.63" fill="#bd6b20" opacity="0.31"/><circle cx="176.7" cy="607.1" r="3.71" fill="#bd6b20" opacity="0.35"/><circle cx="211.3" cy="606.5" r="3.57" fill="#bd6b20" opacity="0.18"/><circle cx="243.6" cy="605.0" r="1.71" fill="#bd6b20" opacity="0.30"/><circle cx="280.4" cy="607.0" r="2.45" fill="#bd6b20" opacity="0.36"/><circle cx="319.4" cy="605.8" r="2.18" fill="#bd6b20" opacity="0.33"/><circle cx="356.1" cy="605.8" r="3.02" fill="#bd6b20" opacity="0.35"/><circle cx="388.1" cy="607.0" r="3.59" fill="#bd6b20" opacity="0.17"/><circle cx="423.3" cy="608.1" r="3.96" fill="#bd6b20" opacity="0.26"/><circle cx="461.5" cy="605.3" r="1.96" fill="#bd6b20" opacity="0.26"/><circle cx="495.1" cy="603.4" r="3.28" fill="#bd6b20" opacity="0.25"/><circle cx="535.3" cy="606.9" r="3.85" fill="#bd6b20" opacity="0.22"/><circle cx="571.6" cy="603.3" r="1.82" fill="#bd6b20" opacity="0.34"/><circle cx="604.3" cy="605.8" r="3.55" fill="#bd6b20" opacity="0.34"/><circle cx="644.4" cy="603.0" r="1.92" fill="#bd6b20" opacity="0.21"/><circle cx="677.7" cy="604.3" r="3.33" fill="#bd6b20" opacity="0.35"/><circle cx="716.7" cy="606.9" r="1.95" fill="#bd6b20" opacity="0.28"/><circle cx="752.3" cy="608.4" r="3.19" fill="#bd6b20" opacity="0.33"/><circle cx="783.8" cy="604.0" r="3.71" fill="#bd6b20" opacity="0.33"/><circle cx="823.8" cy="606.3" r="2.94" fill="#bd6b20" opacity="0.29"/><circle cx="857.0" cy="605.3" r="2.70" fill="#bd6b20" opacity="0.18"/><circle cx="892.9" cy="604.8" r="1.84" fill="#bd6b20" opacity="0.31"/><circle cx="931.5" cy="604.2" r="3.96" fill="#bd6b20" opacity="0.20"/><circle cx="964.7" cy="607.0" r="3.00" fill="#bd6b20" opacity="0.21"/><circle cx="1003.6" cy="606.3" r="2.88" fill="#bd6b20" opacity="0.19"/><circle cx="1038.1" cy="607.1" r="2.60" fill="#bd6b20" opacity="0.20"/><circle cx="1071.9" cy="605.8" r="3.30" fill="#bd6b20" opacity="0.15"/><circle cx="1111.8" cy="606.1" r="1.65" fill="#bd6b20" opacity="0.25"/><circle cx="1143.5" cy="608.2" r="2.52" fill="#bd6b20" opacity="0.21"/><circle cx="1184.0" cy="603.6" r="2.36" fill="#bd6b20" opacity="0.34"/><circle cx="31.7" cy="642.7" r="2.02" fill="#bd6b20" opacity="0.18"/><circle cx="67.1" cy="644.5" r="3.41" fill="#bd6b20" opacity="0.19"/><circle cx="104.3" cy="641.0" r="2.99" fill="#bd6b20" opacity="0.21"/><circle cx="140.5" cy="641.1" r="3.51" fill="#bd6b20" opacity="0.17"/><circle cx="171.9" cy="642.9" r="2.60" fill="#bd6b20" opacity="0.19"/><circle cx="208.4" cy="644.5" r="1.65" fill="#bd6b20" opacity="0.18"/><circle cx="245.5" cy="643.5" r="3.63" fill="#bd6b20" opacity="0.29"/><circle cx="282.6" cy="642.5" r="2.61" fill="#bd6b20" opacity="0.35"/><circle cx="316.7" cy="640.2" r="2.46" fill="#bd6b20" opacity="0.29"/><circle cx="356.8" cy="639.9" r="2.87" fill="#bd6b20" opacity="0.26"/><circle cx="391.4" cy="640.6" r="3.53" fill="#bd6b20" opacity="0.29"/><circle cx="428.4" cy="644.0" r="1.86" fill="#bd6b20" opacity="0.23"/><circle cx="460.0" cy="640.1" r="2.31" fill="#bd6b20" opacity="0.18"/><circle cx="496.8" cy="644.6" r="3.67" fill="#bd6b20" opacity="0.31"/><circle cx="536.5" cy="643.9" r="1.71" fill="#bd6b20" opacity="0.18"/><circle cx="572.3" cy="644.4" r="3.68" fill="#bd6b20" opacity="0.20"/><circle cx="607.3" cy="642.1" r="2.23" fill="#bd6b20" opacity="0.22"/><circle cx="639.3" cy="641.1" r="2.70" fill="#bd6b20" opacity="0.25"/><circle cx="677.7" cy="642.2" r="1.79" fill="#bd6b20" opacity="0.26"/><circle cx="715.4" cy="644.8" r="3.33" fill="#bd6b20" opacity="0.18"/><circle cx="752.2" cy="643.7" r="3.61" fill="#bd6b20" opacity="0.21"/><circle cx="788.5" cy="639.4" r="2.49" fill="#bd6b20" opacity="0.29"/><circle cx="823.3" cy="642.0" r="2.88" fill="#bd6b20" opacity="0.17"/><circle cx="859.7" cy="640.1" r="3.89" fill="#bd6b20" opacity="0.17"/><circle cx="895.4" cy="641.8" r="3.36" fill="#bd6b20" opacity="0.25"/><circle cx="931.7" cy="640.1" r="2.38" fill="#bd6b20" opacity="0.21"/><circle cx="966.7" cy="644.0" r="2.21" fill="#bd6b20" opacity="0.29"/><circle cx="1001.5" cy="642.4" r="2.46" fill="#bd6b20" opacity="0.29"/><circle cx="1036.8" cy="642.5" r="2.93" fill="#bd6b20" opacity="0.20"/><circle cx="1071.1" cy="643.4" r="3.26" fill="#bd6b20" opacity="0.32"/><circle cx="1110.3" cy="641.1" r="2.55" fill="#bd6b20" opacity="0.25"/><circle cx="1144.6" cy="640.2" r="2.23" fill="#bd6b20" opacity="0.28"/><circle cx="1182.3" cy="642.1" r="3.18" fill="#bd6b20" opacity="0.36"/><circle cx="233.8" cy="206.0" r="220" fill="url(#glow)" opacity="0.9"/>
  <g opacity="0.85" transform="translate(1020, 495)">
        <circle r="60" fill="#bd6b20" opacity="0.18"/>
        <path d="M -34 6 Q -10 -22 14 6 Q 34 24 14 26 L -22 26 Q -38 24 -34 6 Z" fill="none" stroke="#e09440" stroke-width="3" stroke-linejoin="round"/>
      </g>
  <g transform="translate(80, 90)">
    <rect x="0" y="0" rx="20" ry="20" width="134" height="38" fill="#bd6b20" opacity="0.18" stroke="#bd6b20" stroke-width="1.5"/>
    <text x="67" y="25" font-family="ui-sans-serif, Inter, sans-serif" font-weight="700" font-size="14" letter-spacing="2.5" fill="#bd6b20" text-anchor="middle">CASE STUDY</text>
  </g>
  <text x="80" y="465" font-family="ui-sans-serif, -apple-system, Segoe UI, Inter, sans-serif" font-weight="800" font-size="44" fill="#faf8f5" opacity="0.98"><tspan x="80" dy="0">Tile Importer vs. Dealer</tspan><tspan x="80" dy="56">Dispute: Resolving Payment</tspan><tspan x="80" dy="56">and Quality Issues</tspan></text>
  <rect x="0" y="669" width="1200" height="6" fill="url(#gold)"/>
</svg>