<?xml version="1.0" encoding="UTF-8"?>
<svg xmlns="http://www.w3.org/2000/svg" viewBox="0 0 1200 675" width="1200" height="675" role="img" aria-label="PDR COURT: Empowering Individuals in Dispute Resolution">
  <defs>
    <linearGradient id="bg" x1="0%" y1="0%" x2="100%" y2="100%">
      <stop offset="0%" stop-color="#12100e"/>
      <stop offset="100%" stop-color="#1c1917"/>
    </linearGradient>
    <linearGradient id="gold" x1="0%" y1="0%" x2="100%" y2="100%">
      <stop offset="0%" stop-color="#bd6b20"/>
      <stop offset="100%" stop-color="#e09440"/>
    </linearGradient>
    <radialGradient id="glow" cx="50%" cy="50%" r="50%">
      <stop offset="0%" stop-color="#bd6b20" stop-opacity="0.45"/>
      <stop offset="100%" stop-color="#bd6b20" stop-opacity="0"/>
    </radialGradient>
  </defs>
  <rect width="1200" height="675" fill="url(#bg)"/>
  <rect x="-709.2" y="-80" width="95.9" height="875" transform="rotate(18 -709.2 337.5)" fill="#bd6b20" opacity="0.11"/><rect x="-525.0" y="-80" width="61.6" height="875" transform="rotate(18 -525.0 337.5)" fill="#bd6b20" opacity="0.06"/><rect x="-354.3" y="-80" width="61.8" height="875" transform="rotate(18 -354.3 337.5)" fill="#bd6b20" opacity="0.19"/><rect x="-147.8" y="-80" width="88.0" height="875" transform="rotate(18 -147.8 337.5)" fill="#bd6b20" opacity="0.12"/><rect x="54.8" y="-80" width="97.2" height="875" transform="rotate(18 54.8 337.5)" fill="#bd6b20" opacity="0.18"/><rect x="254.4" y="-80" width="100.2" height="875" transform="rotate(18 254.4 337.5)" fill="#bd6b20" opacity="0.07"/><rect x="384.3" y="-80" width="134.7" height="875" transform="rotate(18 384.3 337.5)" fill="#bd6b20" opacity="0.11"/><rect x="553.8" y="-80" width="129.8" height="875" transform="rotate(18 553.8 337.5)" fill="#bd6b20" opacity="0.19"/><rect x="778.7" y="-80" width="131.9" height="875" transform="rotate(18 778.7 337.5)" fill="#bd6b20" opacity="0.16"/><rect x="965.4" y="-80" width="77.0" height="875" transform="rotate(18 965.4 337.5)" fill="#bd6b20" opacity="0.17"/><rect x="1157.7" y="-80" width="68.5" height="875" transform="rotate(18 1157.7 337.5)" fill="#bd6b20" opacity="0.19"/><rect x="1305.5" y="-80" width="63.5" height="875" transform="rotate(18 1305.5 337.5)" fill="#bd6b20" opacity="0.06"/><rect x="1502.3" y="-80" width="62.3" height="875" transform="rotate(18 1502.3 337.5)" fill="#bd6b20" opacity="0.16"/><rect x="1660.4" y="-80" width="135.3" height="875" transform="rotate(18 1660.4 337.5)" fill="#bd6b20" opacity="0.18"/><rect x="0" y="0" width="1200" height="675" fill="url(#glow)" opacity="0.6"/>
  <g opacity="0.85" transform="translate(1020, 495)">
        <polygon points="0,-50 43,25 -43,25" fill="none" stroke="#bd6b20" stroke-width="2"/>
        <polygon points="0,-30 26,15 -26,15" fill="#e09440" opacity="0.4"/>
      </g>
  <g transform="translate(80, 90)">
    <rect x="0" y="0" rx="20" ry="20" width="145" height="38" fill="#bd6b20" opacity="0.18" stroke="#bd6b20" stroke-width="1.5"/>
    <text x="72.5" y="25" font-family="ui-sans-serif, Inter, sans-serif" font-weight="700" font-size="14" letter-spacing="2.5" fill="#bd6b20" text-anchor="middle">INFORMATION</text>
  </g>
  <text x="80" y="465" font-family="ui-sans-serif, -apple-system, Segoe UI, Inter, sans-serif" font-weight="800" font-size="44" fill="#faf8f5" opacity="0.98"><tspan x="80" dy="0">PDR COURT: Empowering</tspan><tspan x="80" dy="56">Individuals in Dispute</tspan><tspan x="80" dy="56">Resolution</tspan></text>
  <rect x="0" y="669" width="1200" height="6" fill="url(#gold)"/>
</svg>