<?xml version="1.0" encoding="UTF-8"?>
<svg xmlns="http://www.w3.org/2000/svg" viewBox="0 0 1200 675" width="1200" height="675" role="img" aria-label="Constant Amendments in Arbitration Act: Pros and Cons Explored">
  <defs>
    <linearGradient id="bg" x1="0%" y1="0%" x2="100%" y2="100%">
      <stop offset="0%" stop-color="#643516"/>
      <stop offset="100%" stop-color="#7d4315"/>
    </linearGradient>
    <linearGradient id="gold" x1="0%" y1="0%" x2="100%" y2="100%">
      <stop offset="0%" stop-color="#ecb478"/>
      <stop offset="100%" stop-color="#faebd6"/>
    </linearGradient>
    <radialGradient id="glow" cx="50%" cy="50%" r="50%">
      <stop offset="0%" stop-color="#ecb478" stop-opacity="0.45"/>
      <stop offset="100%" stop-color="#ecb478" stop-opacity="0"/>
    </radialGradient>
  </defs>
  <rect width="1200" height="675" fill="url(#bg)"/>
  <polygon points="945.5,459.3 871.1,623.7 691.7,603.7 655.3,427.0 812.1,337.7" fill="#faebd6" opacity="0.14"/><polygon points="650.2,292.3 739.2,116.3 934.1,146.7 965.5,341.4 790.0,431.4" fill="#faebd6" opacity="0.06"/><polygon points="326.1,461.0 452.5,245.9 575.6,462.9" fill="#faebd6" opacity="0.06"/><polygon points="746.3,257.6 755.9,161.7 850.1,141.2 898.7,224.4 834.5,296.3" fill="#faebd6" opacity="0.17"/><polygon points="417.7,654.1 336.4,608.2 382.3,526.9 463.6,572.8" fill="#faebd6" opacity="0.07"/><polygon points="686.6,555.5 580.7,483.7 695.8,427.8" fill="#faebd6" opacity="0.06"/><polygon points="452.3,62.7 522.6,126.6 432.0,155.5" fill="#faebd6" opacity="0.06"/><polygon points="529.9,648.8 450.2,716.8 431.2,613.7" fill="#faebd6" opacity="0.06"/><polygon points="890.4,465.6 906.4,376.2 996.4,363.8 1036.0,445.5 970.5,508.5" fill="#faebd6" opacity="0.14"/><polygon points="453.0,373.6 678.8,397.4 655.0,623.1 429.3,599.4" fill="#faebd6" opacity="0.15"/><polygon points="542.9,462.1 758.1,521.0 599.5,677.9" fill="#faebd6" opacity="0.13"/><polygon points="626.8,727.5 596.4,530.5 774.4,440.6 914.8,582.1 823.6,759.4" fill="#faebd6" opacity="0.14"/><polygon points="1164.4,617.4 1111.1,736.5 991.9,683.1 1045.3,564.0" fill="#faebd6" opacity="0.07"/><polygon points="382.7,139.3 216.0,89.1 266.2,-77.6 432.9,-27.4" fill="#faebd6" opacity="0.13"/><circle cx="936.0" cy="202.5" r="180" fill="url(#glow)"/>
  <g opacity="0.85" transform="translate(1020, 495)">
        <circle r="68" fill="none" stroke="#ecb478" stroke-width="2" opacity="0.35"/>
        <path d="M -38 12 L 38 12 M -32 -8 L 32 -8 M -45 -28 L 45 -28" stroke="#faebd6" stroke-width="3" stroke-linecap="round"/>
        <rect x="-50" y="-44" width="100" height="80" fill="none" stroke="#ecb478" stroke-width="2"/>
      </g>
  <g transform="translate(80, 90)">
    <rect x="0" y="0" rx="20" ry="20" width="112" height="38" fill="#ecb478" opacity="0.18" stroke="#ecb478" stroke-width="1.5"/>
    <text x="56" y="25" font-family="ui-sans-serif, Inter, sans-serif" font-weight="700" font-size="14" letter-spacing="2.5" fill="#ecb478" text-anchor="middle">NEWSROOM</text>
  </g>
  <text x="80" y="465" font-family="ui-sans-serif, -apple-system, Segoe UI, Inter, sans-serif" font-weight="800" font-size="44" fill="#faf8f5" opacity="0.98"><tspan x="80" dy="0">Constant Amendments in</tspan><tspan x="80" dy="56">Arbitration Act: Pros and</tspan><tspan x="80" dy="56">Cons Explored</tspan></text>
  <rect x="0" y="669" width="1200" height="6" fill="url(#gold)"/>
</svg>