<?xml version="1.0" encoding="UTF-8"?>
<svg xmlns="http://www.w3.org/2000/svg" viewBox="0 0 1200 675" width="1200" height="675" role="img" aria-label="India's Proposed Arbitration Act Reforms: Key Insights &amp; Impact">
  <defs>
    <linearGradient id="bg" x1="0%" y1="0%" x2="100%" y2="100%">
      <stop offset="0%" stop-color="#faf8f5"/>
      <stop offset="100%" stop-color="#f4efe8"/>
    </linearGradient>
    <linearGradient id="gold" x1="0%" y1="0%" x2="100%" y2="100%">
      <stop offset="0%" stop-color="#bd6b20"/>
      <stop offset="100%" stop-color="#9a5518"/>
    </linearGradient>
    <radialGradient id="glow" cx="50%" cy="50%" r="50%">
      <stop offset="0%" stop-color="#bd6b20" stop-opacity="0.45"/>
      <stop offset="100%" stop-color="#bd6b20" stop-opacity="0"/>
    </radialGradient>
  </defs>
  <rect width="1200" height="675" fill="url(#bg)"/>
  <circle cx="840.0" cy="135.0" r="240" fill="url(#glow)" opacity="0.8"/><circle cx="394.4" cy="357.2" r="8.2" fill="#9a5518" opacity="0.10"/><circle cx="236.7" cy="501.7" r="25.3" fill="#9a5518" opacity="0.15"/><rect x="845.7" y="520.4" width="55.8" height="55.8" rx="4" transform="rotate(96.7 873.6 548.3)" fill="#bd6b20" opacity="0.30"/><polygon points="83.1,469.7 99.1,501.8 67.0,501.8" fill="#ecb478" opacity="0.32"/><circle cx="1187.9" cy="170.1" r="31.8" fill="#9a5518" opacity="0.33"/><circle cx="936.6" cy="15.8" r="29.6" fill="#9a5518" opacity="0.24"/><polygon points="996.9,280.9 1006.2,299.6 987.6,299.6" fill="#ecb478" opacity="0.28"/><rect x="613.6" y="491.2" width="30.7" height="30.7" rx="4" transform="rotate(49.1 628.9 506.6)" fill="#bd6b20" opacity="0.14"/><polygon points="1051.4,177.2 1082.8,240.0 1020.0,240.0" fill="#ecb478" opacity="0.26"/><polygon points="383.2,347.9 408.1,397.6 358.4,397.6" fill="#ecb478" opacity="0.12"/><circle cx="756.1" cy="446.2" r="23.2" fill="#9a5518" opacity="0.15"/><circle cx="458.7" cy="501.7" r="21.3" fill="#9a5518" opacity="0.15"/><circle cx="1020.8" cy="498.5" r="28.1" fill="#9a5518" opacity="0.24"/><circle cx="265.0" cy="340.7" r="7.5" fill="#9a5518" opacity="0.17"/><polygon points="754.2,59.8 768.7,88.8 739.7,88.8" fill="#ecb478" opacity="0.31"/><polygon points="1107.7,213.5 1126.0,250.2 1089.4,250.2" fill="#ecb478" opacity="0.26"/><circle cx="1155.5" cy="363.5" r="24.7" fill="#9a5518" opacity="0.24"/><polygon points="112.7,22.6 144.7,86.5 80.8,86.5" fill="#ecb478" opacity="0.34"/><circle cx="613.5" cy="23.9" r="20.9" fill="#9a5518" opacity="0.15"/><rect x="658.9" y="368.6" width="60.1" height="60.1" rx="4" transform="rotate(13.9 689.0 398.6)" fill="#bd6b20" opacity="0.27"/><rect x="1082.5" y="298.0" width="16.6" height="16.6" rx="4" transform="rotate(326.5 1090.7 306.3)" fill="#bd6b20" opacity="0.24"/><polygon points="725.0,3.8 737.8,29.4 712.2,29.4" fill="#ecb478" opacity="0.11"/>
  <g opacity="0.85" transform="translate(1020, 495)">
        <circle r="68" fill="none" stroke="#bd6b20" stroke-width="2" opacity="0.35"/>
        <path d="M -38 12 L 38 12 M -32 -8 L 32 -8 M -45 -28 L 45 -28" stroke="#9a5518" stroke-width="3" stroke-linecap="round"/>
        <rect x="-50" y="-44" width="100" height="80" fill="none" stroke="#bd6b20" stroke-width="2"/>
      </g>
  <g transform="translate(80, 90)">
    <rect x="0" y="0" rx="20" ry="20" width="112" height="38" fill="#bd6b20" opacity="0.18" stroke="#bd6b20" stroke-width="1.5"/>
    <text x="56" y="25" font-family="ui-sans-serif, Inter, sans-serif" font-weight="700" font-size="14" letter-spacing="2.5" fill="#bd6b20" text-anchor="middle">NEWSROOM</text>
  </g>
  <text x="80" y="465" font-family="ui-sans-serif, -apple-system, Segoe UI, Inter, sans-serif" font-weight="800" font-size="44" fill="#12100e" opacity="0.98"><tspan x="80" dy="0">India's Proposed</tspan><tspan x="80" dy="56">Arbitration Act Reforms:</tspan><tspan x="80" dy="56">Key Insights &amp; Impact</tspan></text>
  <rect x="0" y="669" width="1200" height="6" fill="url(#gold)"/>
</svg>