<?xml version="1.0" encoding="UTF-8"?>
<svg xmlns="http://www.w3.org/2000/svg" viewBox="0 0 1200 675" width="1200" height="675" role="img" aria-label="Mahabharata: Lessons on Ego &amp; Failed Mediation">
  <defs>
    <linearGradient id="bg" x1="0%" y1="0%" x2="100%" y2="100%">
      <stop offset="0%" stop-color="#12100e"/>
      <stop offset="100%" stop-color="#1c1917"/>
    </linearGradient>
    <linearGradient id="gold" x1="0%" y1="0%" x2="100%" y2="100%">
      <stop offset="0%" stop-color="#bd6b20"/>
      <stop offset="100%" stop-color="#e09440"/>
    </linearGradient>
    <radialGradient id="glow" cx="50%" cy="50%" r="50%">
      <stop offset="0%" stop-color="#bd6b20" stop-opacity="0.45"/>
      <stop offset="100%" stop-color="#bd6b20" stop-opacity="0"/>
    </radialGradient>
  </defs>
  <rect width="1200" height="675" fill="url(#bg)"/>
  <circle cx="32.9" cy="30.5" r="3.61" fill="#bd6b20" opacity="0.29"/><circle cx="67.3" cy="29.4" r="3.78" fill="#bd6b20" opacity="0.27"/><circle cx="104.4" cy="32.5" r="3.99" fill="#bd6b20" opacity="0.32"/><circle cx="139.3" cy="32.4" r="1.91" fill="#bd6b20" opacity="0.34"/><circle cx="174.8" cy="29.7" r="2.95" fill="#bd6b20" opacity="0.19"/><circle cx="207.6" cy="32.8" r="2.03" fill="#bd6b20" opacity="0.28"/><circle cx="248.5" cy="31.2" r="3.13" fill="#bd6b20" opacity="0.21"/><circle cx="281.8" cy="32.1" r="3.38" fill="#bd6b20" opacity="0.35"/><circle cx="319.8" cy="31.5" r="3.83" fill="#bd6b20" opacity="0.20"/><circle cx="353.2" cy="32.9" r="3.13" fill="#bd6b20" opacity="0.19"/><circle cx="388.8" cy="31.0" r="3.07" fill="#bd6b20" opacity="0.25"/><circle cx="424.0" cy="28.8" r="2.48" fill="#bd6b20" opacity="0.27"/><circle cx="459.2" cy="29.3" r="2.25" fill="#bd6b20" opacity="0.28"/><circle cx="496.0" cy="27.2" r="2.56" fill="#bd6b20" opacity="0.28"/><circle cx="534.1" cy="29.6" r="3.59" fill="#bd6b20" opacity="0.29"/><circle cx="571.4" cy="28.1" r="1.97" fill="#bd6b20" opacity="0.35"/><circle cx="604.1" cy="27.9" r="2.98" fill="#bd6b20" opacity="0.15"/><circle cx="641.9" cy="27.5" r="2.36" fill="#bd6b20" opacity="0.18"/><circle cx="678.9" cy="29.7" r="2.75" fill="#bd6b20" opacity="0.21"/><circle cx="715.5" cy="30.2" r="2.24" fill="#bd6b20" opacity="0.20"/><circle cx="750.9" cy="28.9" r="2.41" fill="#bd6b20" opacity="0.21"/><circle cx="786.0" cy="30.3" r="2.30" fill="#bd6b20" opacity="0.22"/><circle cx="821.3" cy="31.1" r="3.66" fill="#bd6b20" opacity="0.26"/><circle cx="861.0" cy="31.8" r="1.79" fill="#bd6b20" opacity="0.25"/><circle cx="891.7" cy="29.6" r="3.62" fill="#bd6b20" opacity="0.15"/><circle cx="928.4" cy="29.9" r="3.34" fill="#bd6b20" opacity="0.24"/><circle cx="963.2" cy="30.7" r="2.34" fill="#bd6b20" opacity="0.23"/><circle cx="1003.4" cy="31.9" r="2.68" fill="#bd6b20" opacity="0.24"/><circle cx="1036.6" cy="32.9" r="2.49" fill="#bd6b20" opacity="0.19"/><circle cx="1071.2" cy="27.0" r="3.35" fill="#bd6b20" opacity="0.30"/><circle cx="1107.5" cy="29.2" r="2.83" fill="#bd6b20" opacity="0.24"/><circle cx="1148.9" cy="27.5" r="2.26" fill="#bd6b20" opacity="0.20"/><circle cx="1183.0" cy="32.7" r="3.73" fill="#bd6b20" opacity="0.29"/><circle cx="32.9" cy="65.3" r="3.36" fill="#bd6b20" opacity="0.30"/><circle cx="64.6" cy="66.8" r="1.73" fill="#bd6b20" opacity="0.20"/><circle cx="103.0" cy="66.7" r="1.68" fill="#bd6b20" opacity="0.33"/><circle cx="136.3" cy="64.9" r="2.78" fill="#bd6b20" opacity="0.24"/><circle cx="176.1" cy="66.6" r="3.70" fill="#bd6b20" opacity="0.33"/><circle cx="208.2" cy="64.0" r="3.77" fill="#bd6b20" opacity="0.17"/><circle cx="245.7" cy="65.2" r="1.65" fill="#bd6b20" opacity="0.29"/><circle cx="282.2" cy="66.8" r="3.94" fill="#bd6b20" opacity="0.33"/><circle cx="318.9" cy="64.2" r="2.99" fill="#bd6b20" opacity="0.19"/><circle cx="355.5" cy="67.3" r="3.90" fill="#bd6b20" opacity="0.31"/><circle cx="391.0" cy="65.7" r="2.98" fill="#bd6b20" opacity="0.33"/><circle cx="428.8" cy="67.8" r="3.80" fill="#bd6b20" opacity="0.27"/><circle cx="460.1" cy="66.8" r="2.29" fill="#bd6b20" opacity="0.30"/><circle cx="496.4" cy="68.0" r="1.79" fill="#bd6b20" opacity="0.23"/><circle cx="531.9" cy="64.8" r="3.70" fill="#bd6b20" opacity="0.26"/><circle cx="570.4" cy="63.8" r="2.45" fill="#bd6b20" opacity="0.16"/><circle cx="607.3" cy="66.8" r="3.21" fill="#bd6b20" opacity="0.16"/><circle cx="643.2" cy="67.1" r="3.92" fill="#bd6b20" opacity="0.27"/><circle cx="677.2" cy="63.5" r="1.99" fill="#bd6b20" opacity="0.29"/><circle cx="711.9" cy="66.1" r="1.92" fill="#bd6b20" opacity="0.31"/><circle cx="747.9" cy="63.0" r="2.45" fill="#bd6b20" opacity="0.22"/><circle cx="788.9" cy="64.3" r="2.53" fill="#bd6b20" opacity="0.29"/><circle cx="819.7" cy="68.0" r="3.16" fill="#bd6b20" opacity="0.31"/><circle cx="857.3" cy="66.7" r="2.72" fill="#bd6b20" opacity="0.22"/><circle cx="896.5" cy="63.8" r="2.64" fill="#bd6b20" opacity="0.29"/><circle cx="928.0" cy="63.8" r="2.22" fill="#bd6b20" opacity="0.20"/><circle cx="966.0" cy="66.0" r="3.47" fill="#bd6b20" opacity="0.29"/><circle cx="1001.0" cy="63.7" r="1.95" fill="#bd6b20" opacity="0.28"/><circle cx="1040.2" cy="66.3" r="2.35" fill="#bd6b20" opacity="0.27"/><circle cx="1072.8" cy="66.5" r="1.65" fill="#bd6b20" opacity="0.19"/><circle cx="1108.6" cy="66.6" r="2.55" fill="#bd6b20" opacity="0.28"/><circle cx="1146.3" cy="63.7" r="2.00" fill="#bd6b20" opacity="0.19"/><circle cx="1180.5" cy="68.9" r="2.37" fill="#bd6b20" opacity="0.25"/><circle cx="32.5" cy="100.5" r="3.19" fill="#bd6b20" opacity="0.33"/><circle cx="64.5" cy="103.6" r="2.91" fill="#bd6b20" opacity="0.28"/><circle cx="100.2" cy="100.9" r="2.22" fill="#bd6b20" opacity="0.21"/><circle cx="135.3" cy="104.0" r="2.76" fill="#bd6b20" opacity="0.16"/><circle cx="172.7" cy="104.0" r="2.60" fill="#bd6b20" opacity="0.23"/><circle cx="212.5" cy="104.6" r="2.19" fill="#bd6b20" opacity="0.24"/><circle cx="243.4" cy="102.2" r="3.48" fill="#bd6b20" opacity="0.18"/><circle cx="279.9" cy="101.2" r="2.67" fill="#bd6b20" opacity="0.31"/><circle cx="319.3" cy="100.1" r="1.95" fill="#bd6b20" opacity="0.35"/><circle cx="355.4" cy="104.8" r="3.24" fill="#bd6b20" opacity="0.31"/><circle cx="392.2" cy="102.2" r="3.42" fill="#bd6b20" opacity="0.34"/><circle cx="424.9" cy="102.1" r="1.88" fill="#bd6b20" opacity="0.28"/><circle cx="462.9" cy="99.9" r="2.79" fill="#bd6b20" opacity="0.36"/><circle cx="499.9" cy="101.9" r="3.60" fill="#bd6b20" opacity="0.16"/><circle cx="534.4" cy="104.8" r="2.17" fill="#bd6b20" opacity="0.26"/><circle cx="570.2" cy="105.0" r="3.58" fill="#bd6b20" opacity="0.17"/><circle cx="607.6" cy="101.0" r="3.39" fill="#bd6b20" opacity="0.22"/><circle cx="641.3" cy="100.3" r="3.52" fill="#bd6b20" opacity="0.22"/><circle cx="681.0" cy="103.2" r="1.70" fill="#bd6b20" opacity="0.15"/><circle cx="715.7" cy="100.0" r="3.10" fill="#bd6b20" opacity="0.25"/><circle cx="748.4" cy="103.8" r="2.53" fill="#bd6b20" opacity="0.18"/><circle cx="784.0" cy="102.8" r="3.62" fill="#bd6b20" opacity="0.17"/><circle cx="819.3" cy="99.4" r="3.04" fill="#bd6b20" opacity="0.31"/><circle cx="858.6" cy="101.0" r="3.15" fill="#bd6b20" opacity="0.20"/><circle cx="894.5" cy="104.4" r="3.26" fill="#bd6b20" opacity="0.26"/><circle cx="927.3" cy="103.3" r="1.74" fill="#bd6b20" opacity="0.27"/><circle cx="963.8" cy="99.9" r="1.80" fill="#bd6b20" opacity="0.34"/><circle cx="1003.7" cy="102.1" r="3.27" fill="#bd6b20" opacity="0.20"/><circle cx="1035.7" cy="102.7" r="3.04" fill="#bd6b20" opacity="0.18"/><circle cx="1074.8" cy="100.9" r="3.65" fill="#bd6b20" opacity="0.21"/><circle cx="1111.0" cy="99.7" r="3.49" fill="#bd6b20" opacity="0.20"/><circle cx="1146.1" cy="104.2" r="3.86" fill="#bd6b20" opacity="0.20"/><circle cx="1181.3" cy="101.7" r="1.79" fill="#bd6b20" opacity="0.16"/><circle cx="31.7" cy="139.0" r="3.20" fill="#bd6b20" opacity="0.22"/><circle cx="64.5" cy="135.2" r="2.61" fill="#bd6b20" opacity="0.32"/><circle cx="103.5" cy="137.0" r="2.98" fill="#bd6b20" opacity="0.19"/><circle cx="135.2" cy="139.0" r="1.75" fill="#bd6b20" opacity="0.28"/><circle cx="171.7" cy="138.5" r="1.72" fill="#bd6b20" opacity="0.33"/><circle cx="212.4" cy="138.9" r="2.12" fill="#bd6b20" opacity="0.32"/><circle cx="247.3" cy="136.4" r="3.71" fill="#bd6b20" opacity="0.28"/><circle cx="283.1" cy="138.2" r="1.85" fill="#bd6b20" opacity="0.34"/><circle cx="315.9" cy="139.7" r="3.20" fill="#bd6b20" opacity="0.26"/><circle cx="356.3" cy="135.1" r="1.75" fill="#bd6b20" opacity="0.35"/><circle cx="387.0" cy="139.7" r="3.30" fill="#bd6b20" opacity="0.20"/><circle cx="423.3" cy="135.8" r="1.67" fill="#bd6b20" opacity="0.29"/><circle cx="463.7" cy="138.6" r="3.45" fill="#bd6b20" opacity="0.21"/><circle cx="498.2" cy="136.6" r="1.72" fill="#bd6b20" opacity="0.23"/><circle cx="535.5" cy="140.3" r="1.99" fill="#bd6b20" opacity="0.21"/><circle cx="570.9" cy="140.3" r="3.96" fill="#bd6b20" opacity="0.29"/><circle cx="604.8" cy="139.9" r="1.66" fill="#bd6b20" opacity="0.18"/><circle cx="642.4" cy="136.5" r="2.54" fill="#bd6b20" opacity="0.29"/><circle cx="676.8" cy="138.2" r="3.77" fill="#bd6b20" opacity="0.22"/><circle cx="714.1" cy="138.5" r="1.62" fill="#bd6b20" opacity="0.31"/><circle cx="747.8" cy="137.4" r="3.84" fill="#bd6b20" opacity="0.31"/><circle cx="787.0" cy="138.7" r="2.00" fill="#bd6b20" opacity="0.19"/><circle cx="824.1" cy="138.1" r="3.60" fill="#bd6b20" opacity="0.19"/><circle cx="860.2" cy="140.9" r="3.21" fill="#bd6b20" opacity="0.18"/><circle cx="894.9" cy="135.2" r="2.44" fill="#bd6b20" opacity="0.18"/><circle cx="933.0" cy="136.7" r="3.76" fill="#bd6b20" opacity="0.26"/><circle cx="966.5" cy="138.3" r="1.71" fill="#bd6b20" opacity="0.24"/><circle cx="1001.1" cy="139.9" r="2.37" fill="#bd6b20" opacity="0.35"/><circle cx="1035.1" cy="137.9" r="3.10" fill="#bd6b20" opacity="0.22"/><circle cx="1071.8" cy="135.7" r="3.45" fill="#bd6b20" opacity="0.23"/><circle cx="1111.4" cy="139.6" r="3.80" fill="#bd6b20" opacity="0.29"/><circle cx="1146.4" cy="136.5" r="3.38" fill="#bd6b20" opacity="0.34"/><circle cx="1182.0" cy="138.2" r="1.81" fill="#bd6b20" opacity="0.31"/><circle cx="30.0" cy="176.2" r="3.90" fill="#bd6b20" opacity="0.27"/><circle cx="64.1" cy="173.3" r="1.69" fill="#bd6b20" opacity="0.30"/><circle cx="99.6" cy="174.1" r="2.23" fill="#bd6b20" opacity="0.35"/><circle cx="140.9" cy="175.6" r="2.87" fill="#bd6b20" opacity="0.34"/><circle cx="176.3" cy="172.3" r="2.23" fill="#bd6b20" opacity="0.17"/><circle cx="212.1" cy="176.6" r="1.64" fill="#bd6b20" opacity="0.18"/><circle cx="247.6" cy="176.6" r="2.24" fill="#bd6b20" opacity="0.20"/><circle cx="281.1" cy="171.1" r="3.18" fill="#bd6b20" opacity="0.25"/><circle cx="315.9" cy="173.8" r="3.20" fill="#bd6b20" opacity="0.25"/><circle cx="353.6" cy="176.6" r="1.82" fill="#bd6b20" opacity="0.33"/><circle cx="391.4" cy="175.2" r="3.48" fill="#bd6b20" opacity="0.22"/><circle cx="423.9" cy="175.2" r="3.40" fill="#bd6b20" opacity="0.24"/><circle cx="460.8" cy="175.8" r="2.17" fill="#bd6b20" opacity="0.20"/><circle cx="500.0" cy="173.4" r="3.20" fill="#bd6b20" opacity="0.21"/><circle cx="533.1" cy="174.5" r="2.74" fill="#bd6b20" opacity="0.26"/><circle cx="570.8" cy="174.7" r="3.12" fill="#bd6b20" opacity="0.28"/><circle cx="605.4" cy="175.1" r="3.35" fill="#bd6b20" opacity="0.18"/><circle cx="642.7" cy="173.5" r="3.61" fill="#bd6b20" opacity="0.21"/><circle cx="675.7" cy="175.0" r="1.90" fill="#bd6b20" opacity="0.22"/><circle cx="714.0" cy="171.7" r="3.70" fill="#bd6b20" opacity="0.23"/><circle cx="750.2" cy="175.2" r="1.66" fill="#bd6b20" opacity="0.35"/><circle cx="783.7" cy="173.7" r="1.86" fill="#bd6b20" opacity="0.22"/><circle cx="822.0" cy="174.7" r="2.36" fill="#bd6b20" opacity="0.16"/><circle cx="857.9" cy="173.3" r="3.28" fill="#bd6b20" opacity="0.33"/><circle cx="896.8" cy="175.7" r="3.77" fill="#bd6b20" opacity="0.36"/><circle cx="930.3" cy="173.1" r="2.01" fill="#bd6b20" opacity="0.30"/><circle cx="967.0" cy="176.8" r="1.99" fill="#bd6b20" opacity="0.34"/><circle cx="1000.9" cy="175.0" r="1.62" fill="#bd6b20" opacity="0.21"/><circle cx="1040.7" cy="176.5" r="1.81" fill="#bd6b20" opacity="0.25"/><circle cx="1071.3" cy="174.0" r="2.09" fill="#bd6b20" opacity="0.30"/><circle cx="1108.1" cy="174.5" r="1.88" fill="#bd6b20" opacity="0.16"/><circle cx="1147.0" cy="175.1" r="3.05" fill="#bd6b20" opacity="0.23"/><circle cx="1180.1" cy="174.3" r="2.30" fill="#bd6b20" opacity="0.16"/><circle cx="33.0" cy="208.5" r="1.90" fill="#bd6b20" opacity="0.26"/><circle cx="66.4" cy="207.3" r="2.28" fill="#bd6b20" opacity="0.29"/><circle cx="100.3" cy="210.8" r="2.83" fill="#bd6b20" opacity="0.27"/><circle cx="139.8" cy="207.2" r="2.54" fill="#bd6b20" opacity="0.17"/><circle cx="176.9" cy="208.8" r="2.17" fill="#bd6b20" opacity="0.16"/><circle cx="209.7" cy="210.8" r="3.66" fill="#bd6b20" opacity="0.35"/><circle cx="245.8" cy="208.1" r="3.19" fill="#bd6b20" opacity="0.23"/><circle cx="282.2" cy="208.7" r="3.03" fill="#bd6b20" opacity="0.25"/><circle cx="315.1" cy="212.4" r="2.87" fill="#bd6b20" opacity="0.25"/><circle cx="356.5" cy="212.1" r="2.88" fill="#bd6b20" opacity="0.35"/><circle cx="387.6" cy="211.1" r="3.05" fill="#bd6b20" opacity="0.28"/><circle cx="427.7" cy="211.1" r="2.17" fill="#bd6b20" opacity="0.23"/><circle cx="465.0" cy="208.4" r="3.00" fill="#bd6b20" opacity="0.25"/><circle cx="498.0" cy="212.9" r="3.58" fill="#bd6b20" opacity="0.19"/><circle cx="532.8" cy="208.2" r="2.36" fill="#bd6b20" opacity="0.23"/><circle cx="569.0" cy="208.8" r="3.25" fill="#bd6b20" opacity="0.31"/><circle cx="604.8" cy="209.1" r="3.50" fill="#bd6b20" opacity="0.17"/><circle cx="640.0" cy="209.0" r="3.91" fill="#bd6b20" opacity="0.32"/><circle cx="676.7" cy="208.6" r="2.89" fill="#bd6b20" opacity="0.33"/><circle cx="715.9" cy="212.9" r="1.82" fill="#bd6b20" opacity="0.32"/><circle cx="747.3" cy="212.8" r="3.55" fill="#bd6b20" opacity="0.16"/><circle cx="787.6" cy="212.4" r="2.84" fill="#bd6b20" opacity="0.29"/><circle cx="819.8" cy="210.7" r="3.05" fill="#bd6b20" opacity="0.16"/><circle cx="856.6" cy="209.9" r="3.77" fill="#bd6b20" opacity="0.35"/><circle cx="893.6" cy="210.7" r="1.76" fill="#bd6b20" opacity="0.16"/><circle cx="928.5" cy="211.3" r="1.77" fill="#bd6b20" opacity="0.34"/><circle cx="966.5" cy="208.8" r="1.66" fill="#bd6b20" opacity="0.29"/><circle cx="1001.8" cy="209.5" r="3.87" fill="#bd6b20" opacity="0.16"/><circle cx="1037.8" cy="208.7" r="3.52" fill="#bd6b20" opacity="0.22"/><circle cx="1075.4" cy="208.7" r="3.24" fill="#bd6b20" opacity="0.19"/><circle cx="1113.0" cy="212.3" r="2.47" fill="#bd6b20" opacity="0.35"/><circle cx="1148.8" cy="209.8" r="3.25" fill="#bd6b20" opacity="0.30"/><circle cx="1179.3" cy="208.1" r="3.35" fill="#bd6b20" opacity="0.30"/><circle cx="31.2" cy="243.2" r="2.79" fill="#bd6b20" opacity="0.24"/><circle cx="67.2" cy="248.5" r="3.23" fill="#bd6b20" opacity="0.17"/><circle cx="100.9" cy="245.7" r="3.90" fill="#bd6b20" opacity="0.19"/><circle cx="136.5" cy="246.9" r="2.97" fill="#bd6b20" opacity="0.30"/><circle cx="173.8" cy="244.0" r="3.03" fill="#bd6b20" opacity="0.25"/><circle cx="212.5" cy="246.1" r="3.45" fill="#bd6b20" opacity="0.28"/><circle cx="248.2" cy="248.8" r="3.86" fill="#bd6b20" opacity="0.31"/><circle cx="284.7" cy="245.3" r="3.12" fill="#bd6b20" opacity="0.25"/><circle cx="315.1" cy="246.4" r="1.92" fill="#bd6b20" opacity="0.31"/><circle cx="355.8" cy="243.9" r="3.27" fill="#bd6b20" opacity="0.20"/><circle cx="391.4" cy="246.2" r="3.24" fill="#bd6b20" opacity="0.26"/><circle cx="427.4" cy="248.5" r="2.54" fill="#bd6b20" opacity="0.15"/><circle cx="459.5" cy="245.0" r="3.57" fill="#bd6b20" opacity="0.19"/><circle cx="497.3" cy="243.4" r="3.13" fill="#bd6b20" opacity="0.23"/><circle cx="533.4" cy="248.0" r="1.71" fill="#bd6b20" opacity="0.17"/><circle cx="571.0" cy="243.2" r="3.63" fill="#bd6b20" opacity="0.23"/><circle cx="605.2" cy="245.7" r="4.00" fill="#bd6b20" opacity="0.23"/><circle cx="643.9" cy="248.7" r="1.96" fill="#bd6b20" opacity="0.24"/><circle cx="677.4" cy="247.3" r="3.74" fill="#bd6b20" opacity="0.17"/><circle cx="714.0" cy="248.5" r="1.92" fill="#bd6b20" opacity="0.32"/><circle cx="749.2" cy="245.6" r="3.87" fill="#bd6b20" opacity="0.28"/><circle cx="784.0" cy="244.6" r="2.98" fill="#bd6b20" opacity="0.26"/><circle cx="819.5" cy="246.3" r="3.94" fill="#bd6b20" opacity="0.32"/><circle cx="856.4" cy="248.1" r="2.41" fill="#bd6b20" opacity="0.29"/><circle cx="893.7" cy="248.5" r="2.29" fill="#bd6b20" opacity="0.30"/><circle cx="927.0" cy="243.5" r="2.36" fill="#bd6b20" opacity="0.28"/><circle cx="964.6" cy="245.4" r="2.53" fill="#bd6b20" opacity="0.33"/><circle cx="1004.7" cy="248.4" r="2.24" fill="#bd6b20" opacity="0.17"/><circle cx="1039.7" cy="245.7" r="2.60" fill="#bd6b20" opacity="0.21"/><circle cx="1072.9" cy="248.3" r="1.94" fill="#bd6b20" opacity="0.16"/><circle cx="1109.8" cy="247.7" r="2.18" fill="#bd6b20" opacity="0.26"/><circle cx="1148.8" cy="243.3" r="3.30" fill="#bd6b20" opacity="0.21"/><circle cx="1180.0" cy="248.5" r="2.00" fill="#bd6b20" opacity="0.17"/><circle cx="29.8" cy="280.9" r="3.38" fill="#bd6b20" opacity="0.28"/><circle cx="68.5" cy="281.0" r="3.90" fill="#bd6b20" opacity="0.28"/><circle cx="99.6" cy="281.0" r="3.79" fill="#bd6b20" opacity="0.34"/><circle cx="138.1" cy="281.1" r="3.59" fill="#bd6b20" opacity="0.15"/><circle cx="176.4" cy="283.3" r="3.55" fill="#bd6b20" opacity="0.33"/><circle cx="212.1" cy="284.8" r="2.52" fill="#bd6b20" opacity="0.22"/><circle cx="244.9" cy="283.0" r="2.37" fill="#bd6b20" opacity="0.26"/><circle cx="282.8" cy="279.3" r="2.61" fill="#bd6b20" opacity="0.27"/><circle cx="316.0" cy="280.0" r="3.56" fill="#bd6b20" opacity="0.17"/><circle cx="354.9" cy="279.1" r="3.11" fill="#bd6b20" opacity="0.29"/><circle cx="390.5" cy="283.6" r="2.46" fill="#bd6b20" opacity="0.30"/><circle cx="428.1" cy="280.4" r="2.13" fill="#bd6b20" opacity="0.26"/><circle cx="464.6" cy="280.8" r="3.92" fill="#bd6b20" opacity="0.21"/><circle cx="498.5" cy="284.3" r="3.14" fill="#bd6b20" opacity="0.28"/><circle cx="536.5" cy="281.0" r="2.15" fill="#bd6b20" opacity="0.31"/><circle cx="571.5" cy="282.1" r="3.14" fill="#bd6b20" opacity="0.19"/><circle cx="603.4" cy="284.8" r="3.82" fill="#bd6b20" opacity="0.28"/><circle cx="643.2" cy="284.4" r="3.25" fill="#bd6b20" opacity="0.26"/><circle cx="679.6" cy="280.2" r="3.87" fill="#bd6b20" opacity="0.29"/><circle cx="713.9" cy="281.3" r="3.01" fill="#bd6b20" opacity="0.30"/><circle cx="751.7" cy="280.3" r="2.16" fill="#bd6b20" opacity="0.26"/><circle cx="784.7" cy="283.8" r="3.02" fill="#bd6b20" opacity="0.21"/><circle cx="819.2" cy="284.9" r="3.74" fill="#bd6b20" opacity="0.17"/><circle cx="858.7" cy="280.7" r="1.82" fill="#bd6b20" opacity="0.22"/><circle cx="893.9" cy="282.4" r="2.14" fill="#bd6b20" opacity="0.19"/><circle cx="929.1" cy="281.1" r="2.60" fill="#bd6b20" opacity="0.17"/><circle cx="965.5" cy="284.1" r="2.35" fill="#bd6b20" opacity="0.34"/><circle cx="999.8" cy="284.1" r="2.32" fill="#bd6b20" opacity="0.22"/><circle cx="1039.4" cy="283.0" r="2.37" fill="#bd6b20" opacity="0.33"/><circle cx="1072.0" cy="279.9" r="2.41" fill="#bd6b20" opacity="0.26"/><circle cx="1109.3" cy="280.9" r="2.03" fill="#bd6b20" opacity="0.30"/><circle cx="1144.9" cy="280.5" r="3.35" fill="#bd6b20" opacity="0.17"/><circle cx="1184.8" cy="283.8" r="2.09" fill="#bd6b20" opacity="0.15"/><circle cx="30.3" cy="315.4" r="3.07" fill="#bd6b20" opacity="0.27"/><circle cx="65.8" cy="316.8" r="3.28" fill="#bd6b20" opacity="0.21"/><circle cx="101.2" cy="315.9" r="2.96" fill="#bd6b20" opacity="0.33"/><circle cx="138.3" cy="319.5" r="3.79" fill="#bd6b20" opacity="0.25"/><circle cx="173.6" cy="318.3" r="3.23" fill="#bd6b20" opacity="0.20"/><circle cx="211.0" cy="316.3" r="2.96" fill="#bd6b20" opacity="0.16"/><circle cx="243.7" cy="316.3" r="3.64" fill="#bd6b20" opacity="0.17"/><circle cx="284.0" cy="315.1" r="1.89" fill="#bd6b20" opacity="0.17"/><circle cx="316.0" cy="315.7" r="1.92" fill="#bd6b20" opacity="0.23"/><circle cx="356.3" cy="317.5" r="2.09" fill="#bd6b20" opacity="0.23"/><circle cx="387.2" cy="320.7" r="2.92" fill="#bd6b20" opacity="0.20"/><circle cx="426.5" cy="315.1" r="3.70" fill="#bd6b20" opacity="0.28"/><circle cx="462.8" cy="317.5" r="3.80" fill="#bd6b20" opacity="0.35"/><circle cx="499.7" cy="317.6" r="2.93" fill="#bd6b20" opacity="0.32"/><circle cx="536.8" cy="316.6" r="2.70" fill="#bd6b20" opacity="0.28"/><circle cx="570.3" cy="319.5" r="3.64" fill="#bd6b20" opacity="0.15"/><circle cx="604.0" cy="320.0" r="3.96" fill="#bd6b20" opacity="0.36"/><circle cx="642.1" cy="319.3" r="2.15" fill="#bd6b20" opacity="0.28"/><circle cx="675.6" cy="319.2" r="3.84" fill="#bd6b20" opacity="0.17"/><circle cx="716.8" cy="320.4" r="2.13" fill="#bd6b20" opacity="0.26"/><circle cx="747.5" cy="319.4" r="1.87" fill="#bd6b20" opacity="0.16"/><circle cx="789.0" cy="319.2" r="3.85" fill="#bd6b20" opacity="0.21"/><circle cx="821.1" cy="320.2" r="2.86" fill="#bd6b20" opacity="0.18"/><circle cx="859.4" cy="316.0" r="3.07" fill="#bd6b20" opacity="0.32"/><circle cx="894.7" cy="315.6" r="3.54" fill="#bd6b20" opacity="0.27"/><circle cx="932.4" cy="317.2" r="3.25" fill="#bd6b20" opacity="0.30"/><circle cx="964.6" cy="319.2" r="3.36" fill="#bd6b20" opacity="0.20"/><circle cx="1004.7" cy="319.3" r="2.29" fill="#bd6b20" opacity="0.34"/><circle cx="1040.5" cy="318.4" r="1.89" fill="#bd6b20" opacity="0.17"/><circle cx="1074.4" cy="317.8" r="2.45" fill="#bd6b20" opacity="0.31"/><circle cx="1111.0" cy="319.1" r="1.69" fill="#bd6b20" opacity="0.31"/><circle cx="1143.5" cy="320.8" r="2.07" fill="#bd6b20" opacity="0.32"/><circle cx="1184.9" cy="319.9" r="2.98" fill="#bd6b20" opacity="0.17"/><circle cx="32.6" cy="352.0" r="3.68" fill="#bd6b20" opacity="0.18"/><circle cx="64.7" cy="352.3" r="3.00" fill="#bd6b20" opacity="0.17"/><circle cx="102.3" cy="351.3" r="2.20" fill="#bd6b20" opacity="0.30"/><circle cx="138.6" cy="355.2" r="2.86" fill="#bd6b20" opacity="0.32"/><circle cx="175.9" cy="352.8" r="1.72" fill="#bd6b20" opacity="0.17"/><circle cx="211.6" cy="356.3" r="2.03" fill="#bd6b20" opacity="0.27"/><circle cx="248.9" cy="354.3" r="3.48" fill="#bd6b20" opacity="0.18"/><circle cx="282.4" cy="355.5" r="3.77" fill="#bd6b20" opacity="0.32"/><circle cx="315.4" cy="352.7" r="2.11" fill="#bd6b20" opacity="0.28"/><circle cx="354.7" cy="352.6" r="1.99" fill="#bd6b20" opacity="0.30"/><circle cx="387.3" cy="352.0" r="1.75" fill="#bd6b20" opacity="0.20"/><circle cx="427.6" cy="355.1" r="2.59" fill="#bd6b20" opacity="0.35"/><circle cx="464.6" cy="355.3" r="2.18" fill="#bd6b20" opacity="0.24"/><circle cx="499.4" cy="352.2" r="1.69" fill="#bd6b20" opacity="0.23"/><circle cx="534.9" cy="354.1" r="3.41" fill="#bd6b20" opacity="0.16"/><circle cx="569.0" cy="352.6" r="3.23" fill="#bd6b20" opacity="0.20"/><circle cx="606.1" cy="356.3" r="2.51" fill="#bd6b20" opacity="0.23"/><circle cx="643.2" cy="352.6" r="2.14" fill="#bd6b20" opacity="0.21"/><circle cx="679.9" cy="355.9" r="3.28" fill="#bd6b20" opacity="0.32"/><circle cx="712.5" cy="351.2" r="2.88" fill="#bd6b20" opacity="0.23"/><circle cx="750.4" cy="351.7" r="2.75" fill="#bd6b20" opacity="0.33"/><circle cx="785.7" cy="351.4" r="3.00" fill="#bd6b20" opacity="0.36"/><circle cx="821.5" cy="356.1" r="3.96" fill="#bd6b20" opacity="0.29"/><circle cx="861.0" cy="353.1" r="2.16" fill="#bd6b20" opacity="0.25"/><circle cx="895.9" cy="353.2" r="2.07" fill="#bd6b20" opacity="0.21"/><circle cx="927.8" cy="354.8" r="3.21" fill="#bd6b20" opacity="0.24"/><circle cx="966.2" cy="355.8" r="2.66" fill="#bd6b20" opacity="0.16"/><circle cx="1003.5" cy="355.0" r="3.07" fill="#bd6b20" opacity="0.33"/><circle cx="1038.2" cy="354.5" r="2.20" fill="#bd6b20" opacity="0.30"/><circle cx="1075.1" cy="353.2" r="2.80" fill="#bd6b20" opacity="0.21"/><circle cx="1110.5" cy="352.0" r="3.08" fill="#bd6b20" opacity="0.16"/><circle cx="1144.0" cy="355.0" r="3.82" fill="#bd6b20" opacity="0.20"/><circle cx="1182.0" cy="354.0" r="1.70" fill="#bd6b20" opacity="0.23"/><circle cx="29.3" cy="388.0" r="3.02" fill="#bd6b20" opacity="0.16"/><circle cx="68.1" cy="388.9" r="2.35" fill="#bd6b20" opacity="0.36"/><circle cx="101.3" cy="387.2" r="3.06" fill="#bd6b20" opacity="0.29"/><circle cx="135.9" cy="387.6" r="2.87" fill="#bd6b20" opacity="0.32"/><circle cx="174.8" cy="392.8" r="1.88" fill="#bd6b20" opacity="0.24"/><circle cx="208.7" cy="388.1" r="1.96" fill="#bd6b20" opacity="0.21"/><circle cx="244.8" cy="387.4" r="2.79" fill="#bd6b20" opacity="0.35"/><circle cx="284.2" cy="388.4" r="2.61" fill="#bd6b20" opacity="0.16"/><circle cx="316.9" cy="387.1" r="2.73" fill="#bd6b20" opacity="0.18"/><circle cx="354.6" cy="390.3" r="3.08" fill="#bd6b20" opacity="0.25"/><circle cx="390.2" cy="390.3" r="3.02" fill="#bd6b20" opacity="0.30"/><circle cx="427.7" cy="391.1" r="3.29" fill="#bd6b20" opacity="0.20"/><circle cx="461.9" cy="387.4" r="3.93" fill="#bd6b20" opacity="0.25"/><circle cx="498.4" cy="389.7" r="2.98" fill="#bd6b20" opacity="0.31"/><circle cx="534.4" cy="388.9" r="3.71" fill="#bd6b20" opacity="0.24"/><circle cx="571.1" cy="392.9" r="2.84" fill="#bd6b20" opacity="0.34"/><circle cx="604.6" cy="391.7" r="2.34" fill="#bd6b20" opacity="0.21"/><circle cx="644.2" cy="389.5" r="2.56" fill="#bd6b20" opacity="0.18"/><circle cx="677.5" cy="392.1" r="2.81" fill="#bd6b20" opacity="0.19"/><circle cx="716.1" cy="391.4" r="3.48" fill="#bd6b20" opacity="0.34"/><circle cx="748.8" cy="387.2" r="1.81" fill="#bd6b20" opacity="0.32"/><circle cx="788.0" cy="390.0" r="1.92" fill="#bd6b20" opacity="0.27"/><circle cx="822.8" cy="388.1" r="2.16" fill="#bd6b20" opacity="0.26"/><circle cx="856.5" cy="389.2" r="3.19" fill="#bd6b20" opacity="0.33"/><circle cx="895.4" cy="389.6" r="3.65" fill="#bd6b20" opacity="0.26"/><circle cx="930.9" cy="389.7" r="2.55" fill="#bd6b20" opacity="0.15"/><circle cx="966.1" cy="390.8" r="3.97" fill="#bd6b20" opacity="0.21"/><circle cx="999.4" cy="392.4" r="3.01" fill="#bd6b20" opacity="0.29"/><circle cx="1038.6" cy="391.6" r="3.71" fill="#bd6b20" opacity="0.23"/><circle cx="1072.3" cy="392.7" r="2.63" fill="#bd6b20" opacity="0.19"/><circle cx="1107.7" cy="390.7" r="2.17" fill="#bd6b20" opacity="0.22"/><circle cx="1145.1" cy="391.7" r="2.09" fill="#bd6b20" opacity="0.27"/><circle cx="1180.7" cy="387.3" r="3.73" fill="#bd6b20" opacity="0.25"/><circle cx="27.7" cy="428.9" r="3.93" fill="#bd6b20" opacity="0.34"/><circle cx="66.7" cy="426.2" r="3.92" fill="#bd6b20" opacity="0.26"/><circle cx="102.0" cy="425.2" r="3.99" fill="#bd6b20" opacity="0.32"/><circle cx="136.3" cy="423.6" r="1.65" fill="#bd6b20" opacity="0.36"/><circle cx="174.8" cy="424.3" r="2.28" fill="#bd6b20" opacity="0.16"/><circle cx="211.0" cy="427.5" r="3.54" fill="#bd6b20" opacity="0.26"/><circle cx="248.6" cy="425.6" r="2.44" fill="#bd6b20" opacity="0.24"/><circle cx="279.2" cy="423.9" r="2.22" fill="#bd6b20" opacity="0.31"/><circle cx="315.1" cy="424.2" r="2.86" fill="#bd6b20" opacity="0.21"/><circle cx="354.9" cy="423.6" r="2.21" fill="#bd6b20" opacity="0.27"/><circle cx="387.9" cy="427.8" r="3.56" fill="#bd6b20" opacity="0.30"/><circle cx="428.7" cy="423.0" r="3.96" fill="#bd6b20" opacity="0.27"/><circle cx="459.2" cy="426.6" r="1.93" fill="#bd6b20" opacity="0.32"/><circle cx="498.5" cy="428.3" r="2.40" fill="#bd6b20" opacity="0.31"/><circle cx="535.2" cy="427.2" r="3.30" fill="#bd6b20" opacity="0.20"/><circle cx="570.5" cy="424.2" r="2.48" fill="#bd6b20" opacity="0.19"/><circle cx="605.7" cy="428.9" r="2.67" fill="#bd6b20" opacity="0.26"/><circle cx="641.6" cy="428.5" r="3.56" fill="#bd6b20" opacity="0.32"/><circle cx="680.9" cy="426.3" r="3.75" fill="#bd6b20" opacity="0.31"/><circle cx="711.6" cy="423.7" r="2.95" fill="#bd6b20" opacity="0.33"/><circle cx="747.9" cy="427.2" r="2.05" fill="#bd6b20" opacity="0.32"/><circle cx="786.4" cy="423.8" r="2.41" fill="#bd6b20" opacity="0.35"/><circle cx="824.1" cy="426.6" r="3.23" fill="#bd6b20" opacity="0.19"/><circle cx="859.4" cy="425.9" r="2.34" fill="#bd6b20" opacity="0.15"/><circle cx="892.2" cy="424.2" r="2.62" fill="#bd6b20" opacity="0.15"/><circle cx="932.1" cy="423.5" r="2.43" fill="#bd6b20" opacity="0.33"/><circle cx="968.4" cy="428.8" r="3.72" fill="#bd6b20" opacity="0.32"/><circle cx="1002.8" cy="427.8" r="3.94" fill="#bd6b20" opacity="0.24"/><circle cx="1037.5" cy="428.2" r="2.82" fill="#bd6b20" opacity="0.29"/><circle cx="1072.2" cy="425.6" r="1.85" fill="#bd6b20" opacity="0.15"/><circle cx="1111.8" cy="423.9" r="3.73" fill="#bd6b20" opacity="0.35"/><circle cx="1147.6" cy="423.6" r="2.43" fill="#bd6b20" opacity="0.36"/><circle cx="1179.8" cy="423.2" r="2.29" fill="#bd6b20" opacity="0.25"/><circle cx="31.0" cy="459.9" r="3.60" fill="#bd6b20" opacity="0.32"/><circle cx="63.8" cy="463.4" r="2.57" fill="#bd6b20" opacity="0.31"/><circle cx="100.2" cy="463.0" r="3.50" fill="#bd6b20" opacity="0.36"/><circle cx="137.5" cy="462.9" r="2.35" fill="#bd6b20" opacity="0.20"/><circle cx="175.9" cy="461.6" r="2.03" fill="#bd6b20" opacity="0.23"/><circle cx="210.7" cy="462.5" r="3.39" fill="#bd6b20" opacity="0.16"/><circle cx="246.8" cy="463.2" r="1.62" fill="#bd6b20" opacity="0.26"/><circle cx="284.6" cy="460.3" r="2.96" fill="#bd6b20" opacity="0.24"/><circle cx="315.1" cy="464.3" r="3.31" fill="#bd6b20" opacity="0.29"/><circle cx="355.4" cy="460.0" r="2.78" fill="#bd6b20" opacity="0.15"/><circle cx="390.4" cy="459.9" r="3.25" fill="#bd6b20" opacity="0.21"/><circle cx="424.1" cy="462.3" r="3.77" fill="#bd6b20" opacity="0.35"/><circle cx="459.2" cy="461.5" r="1.79" fill="#bd6b20" opacity="0.36"/><circle cx="497.3" cy="462.7" r="2.47" fill="#bd6b20" opacity="0.15"/><circle cx="535.7" cy="462.8" r="2.37" fill="#bd6b20" opacity="0.35"/><circle cx="571.4" cy="463.1" r="3.68" fill="#bd6b20" opacity="0.30"/><circle cx="608.5" cy="460.4" r="2.06" fill="#bd6b20" opacity="0.31"/><circle cx="639.3" cy="461.8" r="3.09" fill="#bd6b20" opacity="0.29"/><circle cx="678.5" cy="463.3" r="3.43" fill="#bd6b20" opacity="0.32"/><circle cx="712.6" cy="462.5" r="3.97" fill="#bd6b20" opacity="0.27"/><circle cx="748.3" cy="461.5" r="3.86" fill="#bd6b20" opacity="0.27"/><circle cx="783.1" cy="462.1" r="3.92" fill="#bd6b20" opacity="0.32"/><circle cx="825.0" cy="459.5" r="2.47" fill="#bd6b20" opacity="0.30"/><circle cx="859.1" cy="459.1" r="2.61" fill="#bd6b20" opacity="0.28"/><circle cx="892.5" cy="464.1" r="1.76" fill="#bd6b20" opacity="0.35"/><circle cx="929.6" cy="462.7" r="1.73" fill="#bd6b20" opacity="0.27"/><circle cx="963.1" cy="463.9" r="1.66" fill="#bd6b20" opacity="0.16"/><circle cx="1004.0" cy="460.6" r="3.06" fill="#bd6b20" opacity="0.33"/><circle cx="1035.5" cy="459.3" r="2.55" fill="#bd6b20" opacity="0.35"/><circle cx="1071.3" cy="464.5" r="2.85" fill="#bd6b20" opacity="0.25"/><circle cx="1107.5" cy="464.4" r="2.76" fill="#bd6b20" opacity="0.30"/><circle cx="1146.0" cy="463.8" r="3.59" fill="#bd6b20" opacity="0.23"/><circle cx="1183.7" cy="460.1" r="3.58" fill="#bd6b20" opacity="0.18"/><circle cx="27.1" cy="495.7" r="3.68" fill="#bd6b20" opacity="0.36"/><circle cx="65.5" cy="499.9" r="3.90" fill="#bd6b20" opacity="0.30"/><circle cx="102.5" cy="498.2" r="3.69" fill="#bd6b20" opacity="0.30"/><circle cx="140.0" cy="495.4" r="2.17" fill="#bd6b20" opacity="0.30"/><circle cx="176.4" cy="497.0" r="1.95" fill="#bd6b20" opacity="0.25"/><circle cx="211.8" cy="499.0" r="3.76" fill="#bd6b20" opacity="0.19"/><circle cx="244.6" cy="499.6" r="3.77" fill="#bd6b20" opacity="0.19"/><circle cx="282.5" cy="499.2" r="1.78" fill="#bd6b20" opacity="0.21"/><circle cx="320.8" cy="500.5" r="3.90" fill="#bd6b20" opacity="0.33"/><circle cx="354.8" cy="495.7" r="2.03" fill="#bd6b20" opacity="0.32"/><circle cx="391.2" cy="495.3" r="2.37" fill="#bd6b20" opacity="0.22"/><circle cx="426.2" cy="497.4" r="3.20" fill="#bd6b20" opacity="0.30"/><circle cx="464.5" cy="499.6" r="2.05" fill="#bd6b20" opacity="0.17"/><circle cx="498.9" cy="495.9" r="3.06" fill="#bd6b20" opacity="0.20"/><circle cx="533.8" cy="500.3" r="1.63" fill="#bd6b20" opacity="0.25"/><circle cx="570.5" cy="496.9" r="1.96" fill="#bd6b20" opacity="0.16"/><circle cx="608.0" cy="497.5" r="3.69" fill="#bd6b20" opacity="0.32"/><circle cx="644.6" cy="496.2" r="3.60" fill="#bd6b20" opacity="0.27"/><circle cx="677.5" cy="498.8" r="1.76" fill="#bd6b20" opacity="0.27"/><circle cx="712.7" cy="495.2" r="2.52" fill="#bd6b20" opacity="0.15"/><circle cx="750.8" cy="496.1" r="2.02" fill="#bd6b20" opacity="0.28"/><circle cx="785.0" cy="495.6" r="3.85" fill="#bd6b20" opacity="0.22"/><circle cx="824.0" cy="499.3" r="2.19" fill="#bd6b20" opacity="0.27"/><circle cx="855.8" cy="496.6" r="2.41" fill="#bd6b20" opacity="0.29"/><circle cx="892.7" cy="497.9" r="2.36" fill="#bd6b20" opacity="0.33"/><circle cx="932.1" cy="496.3" r="1.88" fill="#bd6b20" opacity="0.18"/><circle cx="963.2" cy="500.8" r="1.85" fill="#bd6b20" opacity="0.35"/><circle cx="1005.0" cy="498.2" r="3.36" fill="#bd6b20" opacity="0.32"/><circle cx="1040.6" cy="497.8" r="3.80" fill="#bd6b20" opacity="0.33"/><circle cx="1076.1" cy="496.0" r="3.24" fill="#bd6b20" opacity="0.22"/><circle cx="1108.3" cy="500.2" r="3.43" fill="#bd6b20" opacity="0.31"/><circle cx="1148.6" cy="498.5" r="1.72" fill="#bd6b20" opacity="0.16"/><circle cx="1183.3" cy="499.2" r="2.50" fill="#bd6b20" opacity="0.16"/><circle cx="30.9" cy="532.2" r="2.94" fill="#bd6b20" opacity="0.34"/><circle cx="65.0" cy="531.0" r="3.45" fill="#bd6b20" opacity="0.30"/><circle cx="104.3" cy="532.8" r="2.11" fill="#bd6b20" opacity="0.22"/><circle cx="135.2" cy="532.5" r="3.15" fill="#bd6b20" opacity="0.29"/><circle cx="172.3" cy="536.3" r="1.83" fill="#bd6b20" opacity="0.32"/><circle cx="209.9" cy="534.0" r="3.53" fill="#bd6b20" opacity="0.34"/><circle cx="245.9" cy="533.8" r="2.31" fill="#bd6b20" opacity="0.32"/><circle cx="280.6" cy="533.3" r="1.86" fill="#bd6b20" opacity="0.31"/><circle cx="320.4" cy="535.8" r="2.29" fill="#bd6b20" opacity="0.34"/><circle cx="354.7" cy="532.2" r="3.80" fill="#bd6b20" opacity="0.18"/><circle cx="388.5" cy="531.0" r="1.74" fill="#bd6b20" opacity="0.35"/><circle cx="428.4" cy="533.8" r="1.75" fill="#bd6b20" opacity="0.31"/><circle cx="463.3" cy="532.5" r="2.87" fill="#bd6b20" opacity="0.19"/><circle cx="500.9" cy="532.2" r="1.71" fill="#bd6b20" opacity="0.31"/><circle cx="531.5" cy="535.2" r="2.88" fill="#bd6b20" opacity="0.30"/><circle cx="567.9" cy="534.9" r="3.34" fill="#bd6b20" opacity="0.35"/><circle cx="606.3" cy="535.2" r="3.21" fill="#bd6b20" opacity="0.29"/><circle cx="640.3" cy="533.6" r="3.47" fill="#bd6b20" opacity="0.30"/><circle cx="675.3" cy="535.1" r="2.75" fill="#bd6b20" opacity="0.20"/><circle cx="713.4" cy="534.2" r="1.90" fill="#bd6b20" opacity="0.16"/><circle cx="752.4" cy="532.9" r="2.18" fill="#bd6b20" opacity="0.33"/><circle cx="787.4" cy="534.7" r="3.22" fill="#bd6b20" opacity="0.35"/><circle cx="819.4" cy="531.6" r="2.87" fill="#bd6b20" opacity="0.25"/><circle cx="856.6" cy="534.3" r="3.22" fill="#bd6b20" opacity="0.31"/><circle cx="894.9" cy="534.1" r="1.86" fill="#bd6b20" opacity="0.17"/><circle cx="931.4" cy="532.0" r="1.66" fill="#bd6b20" opacity="0.29"/><circle cx="964.1" cy="535.5" r="3.60" fill="#bd6b20" opacity="0.27"/><circle cx="1002.4" cy="535.3" r="1.87" fill="#bd6b20" opacity="0.22"/><circle cx="1039.3" cy="536.3" r="3.20" fill="#bd6b20" opacity="0.27"/><circle cx="1075.6" cy="532.6" r="3.03" fill="#bd6b20" opacity="0.33"/><circle cx="1110.3" cy="535.9" r="3.26" fill="#bd6b20" opacity="0.17"/><circle cx="1146.2" cy="535.2" r="1.89" fill="#bd6b20" opacity="0.28"/><circle cx="1181.0" cy="533.0" r="3.14" fill="#bd6b20" opacity="0.16"/><circle cx="31.5" cy="573.0" r="2.11" fill="#bd6b20" opacity="0.27"/><circle cx="66.7" cy="571.3" r="3.97" fill="#bd6b20" opacity="0.26"/><circle cx="101.9" cy="567.0" r="1.77" fill="#bd6b20" opacity="0.20"/><circle cx="136.9" cy="571.2" r="2.01" fill="#bd6b20" opacity="0.15"/><circle cx="171.4" cy="569.0" r="2.74" fill="#bd6b20" opacity="0.17"/><circle cx="208.6" cy="569.5" r="2.61" fill="#bd6b20" opacity="0.16"/><circle cx="245.0" cy="568.3" r="3.93" fill="#bd6b20" opacity="0.18"/><circle cx="279.7" cy="570.6" r="2.18" fill="#bd6b20" opacity="0.30"/><circle cx="319.8" cy="572.7" r="2.09" fill="#bd6b20" opacity="0.23"/><circle cx="353.9" cy="572.1" r="3.98" fill="#bd6b20" opacity="0.36"/><circle cx="387.9" cy="567.6" r="2.00" fill="#bd6b20" opacity="0.36"/><circle cx="427.4" cy="568.0" r="2.84" fill="#bd6b20" opacity="0.23"/><circle cx="464.3" cy="570.4" r="3.90" fill="#bd6b20" opacity="0.21"/><circle cx="496.2" cy="569.3" r="2.10" fill="#bd6b20" opacity="0.35"/><circle cx="531.3" cy="568.2" r="2.90" fill="#bd6b20" opacity="0.21"/><circle cx="571.0" cy="567.2" r="1.76" fill="#bd6b20" opacity="0.21"/><circle cx="604.8" cy="570.2" r="1.94" fill="#bd6b20" opacity="0.31"/><circle cx="644.9" cy="569.8" r="3.08" fill="#bd6b20" opacity="0.27"/><circle cx="679.2" cy="569.6" r="3.75" fill="#bd6b20" opacity="0.19"/><circle cx="711.7" cy="567.9" r="3.01" fill="#bd6b20" opacity="0.27"/><circle cx="751.3" cy="568.4" r="3.26" fill="#bd6b20" opacity="0.34"/><circle cx="784.7" cy="569.1" r="1.72" fill="#bd6b20" opacity="0.35"/><circle cx="819.7" cy="569.8" r="3.46" fill="#bd6b20" opacity="0.28"/><circle cx="860.6" cy="572.7" r="1.87" fill="#bd6b20" opacity="0.28"/><circle cx="895.9" cy="570.4" r="2.35" fill="#bd6b20" opacity="0.34"/><circle cx="928.0" cy="568.7" r="2.29" fill="#bd6b20" opacity="0.32"/><circle cx="967.7" cy="571.1" r="2.98" fill="#bd6b20" opacity="0.21"/><circle cx="999.3" cy="569.9" r="3.44" fill="#bd6b20" opacity="0.19"/><circle cx="1041.0" cy="572.5" r="3.71" fill="#bd6b20" opacity="0.35"/><circle cx="1072.6" cy="569.5" r="2.80" fill="#bd6b20" opacity="0.34"/><circle cx="1110.0" cy="567.1" r="3.85" fill="#bd6b20" opacity="0.35"/><circle cx="1147.7" cy="568.8" r="3.56" fill="#bd6b20" opacity="0.22"/><circle cx="1184.6" cy="572.5" r="3.58" fill="#bd6b20" opacity="0.16"/><circle cx="31.4" cy="604.5" r="3.28" fill="#bd6b20" opacity="0.25"/><circle cx="65.8" cy="604.9" r="1.94" fill="#bd6b20" opacity="0.24"/><circle cx="104.8" cy="603.7" r="2.14" fill="#bd6b20" opacity="0.34"/><circle cx="136.8" cy="604.2" r="3.26" fill="#bd6b20" opacity="0.16"/><circle cx="174.6" cy="607.0" r="3.49" fill="#bd6b20" opacity="0.15"/><circle cx="209.6" cy="604.8" r="3.61" fill="#bd6b20" opacity="0.23"/><circle cx="245.9" cy="605.0" r="3.27" fill="#bd6b20" opacity="0.29"/><circle cx="279.6" cy="603.4" r="3.17" fill="#bd6b20" opacity="0.18"/><circle cx="318.3" cy="603.8" r="2.47" fill="#bd6b20" opacity="0.22"/><circle cx="351.9" cy="607.6" r="3.56" fill="#bd6b20" opacity="0.18"/><circle cx="391.4" cy="605.5" r="3.33" fill="#bd6b20" opacity="0.27"/><circle cx="426.4" cy="606.3" r="3.87" fill="#bd6b20" opacity="0.32"/><circle cx="464.8" cy="607.2" r="2.24" fill="#bd6b20" opacity="0.35"/><circle cx="498.7" cy="604.9" r="3.16" fill="#bd6b20" opacity="0.25"/><circle cx="531.6" cy="604.7" r="3.04" fill="#bd6b20" opacity="0.16"/><circle cx="570.2" cy="605.3" r="3.66" fill="#bd6b20" opacity="0.27"/><circle cx="605.9" cy="607.0" r="1.72" fill="#bd6b20" opacity="0.20"/><circle cx="642.8" cy="605.3" r="2.32" fill="#bd6b20" opacity="0.22"/><circle cx="676.3" cy="608.2" r="3.34" fill="#bd6b20" opacity="0.17"/><circle cx="712.4" cy="606.4" r="1.61" fill="#bd6b20" opacity="0.30"/><circle cx="749.6" cy="607.9" r="2.22" fill="#bd6b20" opacity="0.29"/><circle cx="788.5" cy="604.9" r="1.80" fill="#bd6b20" opacity="0.27"/><circle cx="820.7" cy="607.2" r="1.65" fill="#bd6b20" opacity="0.23"/><circle cx="860.5" cy="605.2" r="1.66" fill="#bd6b20" opacity="0.21"/><circle cx="894.5" cy="604.7" r="3.34" fill="#bd6b20" opacity="0.35"/><circle cx="928.9" cy="606.3" r="2.09" fill="#bd6b20" opacity="0.30"/><circle cx="965.2" cy="605.3" r="1.89" fill="#bd6b20" opacity="0.16"/><circle cx="1000.7" cy="607.3" r="1.80" fill="#bd6b20" opacity="0.24"/><circle cx="1039.5" cy="604.4" r="2.96" fill="#bd6b20" opacity="0.24"/><circle cx="1076.2" cy="606.2" r="2.17" fill="#bd6b20" opacity="0.24"/><circle cx="1112.5" cy="608.4" r="1.87" fill="#bd6b20" opacity="0.29"/><circle cx="1148.8" cy="605.8" r="2.41" fill="#bd6b20" opacity="0.26"/><circle cx="1181.0" cy="607.7" r="3.39" fill="#bd6b20" opacity="0.22"/><circle cx="28.1" cy="643.1" r="3.82" fill="#bd6b20" opacity="0.23"/><circle cx="63.4" cy="643.4" r="2.61" fill="#bd6b20" opacity="0.17"/><circle cx="100.8" cy="639.6" r="1.86" fill="#bd6b20" opacity="0.16"/><circle cx="138.8" cy="641.4" r="2.64" fill="#bd6b20" opacity="0.25"/><circle cx="171.5" cy="640.4" r="1.65" fill="#bd6b20" opacity="0.19"/><circle cx="207.1" cy="640.4" r="1.89" fill="#bd6b20" opacity="0.30"/><circle cx="248.9" cy="641.9" r="1.95" fill="#bd6b20" opacity="0.35"/><circle cx="283.2" cy="644.7" r="1.84" fill="#bd6b20" opacity="0.23"/><circle cx="317.5" cy="641.1" r="2.47" fill="#bd6b20" opacity="0.24"/><circle cx="354.7" cy="643.8" r="2.30" fill="#bd6b20" opacity="0.21"/><circle cx="387.6" cy="643.0" r="3.10" fill="#bd6b20" opacity="0.26"/><circle cx="426.5" cy="641.8" r="2.42" fill="#bd6b20" opacity="0.23"/><circle cx="464.5" cy="644.9" r="2.28" fill="#bd6b20" opacity="0.25"/><circle cx="499.6" cy="640.2" r="2.08" fill="#bd6b20" opacity="0.33"/><circle cx="536.4" cy="639.6" r="2.94" fill="#bd6b20" opacity="0.16"/><circle cx="572.3" cy="641.7" r="2.33" fill="#bd6b20" opacity="0.24"/><circle cx="608.4" cy="640.8" r="3.80" fill="#bd6b20" opacity="0.17"/><circle cx="639.6" cy="639.9" r="3.19" fill="#bd6b20" opacity="0.27"/><circle cx="678.7" cy="641.7" r="3.69" fill="#bd6b20" opacity="0.16"/><circle cx="711.5" cy="642.7" r="3.21" fill="#bd6b20" opacity="0.34"/><circle cx="749.3" cy="639.5" r="2.54" fill="#bd6b20" opacity="0.28"/><circle cx="783.5" cy="641.6" r="3.97" fill="#bd6b20" opacity="0.17"/><circle cx="821.4" cy="643.0" r="2.33" fill="#bd6b20" opacity="0.34"/><circle cx="858.4" cy="644.5" r="3.73" fill="#bd6b20" opacity="0.19"/><circle cx="893.2" cy="639.1" r="3.43" fill="#bd6b20" opacity="0.33"/><circle cx="931.2" cy="642.3" r="1.73" fill="#bd6b20" opacity="0.30"/><circle cx="968.6" cy="643.4" r="2.71" fill="#bd6b20" opacity="0.22"/><circle cx="999.6" cy="642.1" r="2.28" fill="#bd6b20" opacity="0.26"/><circle cx="1039.1" cy="639.1" r="2.02" fill="#bd6b20" opacity="0.26"/><circle cx="1075.8" cy="639.9" r="3.12" fill="#bd6b20" opacity="0.18"/><circle cx="1111.9" cy="643.0" r="2.44" fill="#bd6b20" opacity="0.35"/><circle cx="1146.5" cy="644.3" r="2.99" fill="#bd6b20" opacity="0.25"/><circle cx="1182.6" cy="640.4" r="3.34" fill="#bd6b20" opacity="0.30"/><circle cx="204.4" cy="243.9" r="220" fill="url(#glow)" opacity="0.9"/>
  <g opacity="0.85" transform="translate(1020, 495)">
        <rect x="-46" y="-60" width="92" height="115" fill="#bd6b20" opacity="0.18" rx="6"/>
        <path d="M -28 -36 L 28 -36 M -28 -12 L 28 -12 M -28 12 L 18 12 M -28 36 L 28 36" stroke="#e09440" stroke-width="3" stroke-linecap="round"/>
      </g>
  <g transform="translate(80, 90)">
    <rect x="0" y="0" rx="20" ry="20" width="101" height="38" fill="#bd6b20" opacity="0.18" stroke="#bd6b20" stroke-width="1.5"/>
    <text x="50.5" y="25" font-family="ui-sans-serif, Inter, sans-serif" font-weight="700" font-size="14" letter-spacing="2.5" fill="#bd6b20" text-anchor="middle">ARTICLE</text>
  </g>
  <text x="80" y="515" font-family="ui-sans-serif, -apple-system, Segoe UI, Inter, sans-serif" font-weight="800" font-size="44" fill="#faf8f5" opacity="0.98"><tspan x="80" dy="0">Mahabharata: Lessons on</tspan><tspan x="80" dy="56">Ego &amp; Failed Mediation</tspan></text>
  <rect x="0" y="669" width="1200" height="6" fill="url(#gold)"/>
</svg>