<?xml version="1.0" encoding="UTF-8"?>
<svg xmlns="http://www.w3.org/2000/svg" viewBox="0 0 1200 675" width="1200" height="675" role="img" aria-label="Invest in PDR COURT The Leader ADR Innovations">
  <defs>
    <linearGradient id="bg" x1="0%" y1="0%" x2="100%" y2="100%">
      <stop offset="0%" stop-color="#faf8f5"/>
      <stop offset="100%" stop-color="#f4efe8"/>
    </linearGradient>
    <linearGradient id="gold" x1="0%" y1="0%" x2="100%" y2="100%">
      <stop offset="0%" stop-color="#bd6b20"/>
      <stop offset="100%" stop-color="#9a5518"/>
    </linearGradient>
    <radialGradient id="glow" cx="50%" cy="50%" r="50%">
      <stop offset="0%" stop-color="#bd6b20" stop-opacity="0.45"/>
      <stop offset="100%" stop-color="#bd6b20" stop-opacity="0"/>
    </radialGradient>
  </defs>
  <rect width="1200" height="675" fill="url(#bg)"/>
  <circle cx="265.1" cy="183.9" r="115" fill="none" stroke="#bd6b20" stroke-width="2.3" opacity="0.36"/><circle cx="265.1" cy="183.9" r="170" fill="none" stroke="#bd6b20" stroke-width="2.2" opacity="0.32"/><circle cx="265.1" cy="183.9" r="225" fill="none" stroke="#bd6b20" stroke-width="1.5" opacity="0.28"/><circle cx="265.1" cy="183.9" r="280" fill="none" stroke="#bd6b20" stroke-width="1.7" opacity="0.24"/><circle cx="265.1" cy="183.9" r="335" fill="none" stroke="#bd6b20" stroke-width="2.1" opacity="0.20"/><circle cx="265.1" cy="183.9" r="390" fill="none" stroke="#bd6b20" stroke-width="2.1" opacity="0.16"/><circle cx="265.1" cy="183.9" r="445" fill="none" stroke="#bd6b20" stroke-width="2.2" opacity="0.12"/><circle cx="265.1" cy="183.9" r="500" fill="none" stroke="#bd6b20" stroke-width="2.3" opacity="0.08"/><circle cx="265.1" cy="183.9" r="555" fill="none" stroke="#bd6b20" stroke-width="1.7" opacity="0.04"/><circle cx="265.1" cy="183.9" r="40" fill="url(#gold)" opacity="0.85"/>
  <g opacity="0.85" transform="translate(1020, 495)">
        <polygon points="0,-50 43,25 -43,25" fill="none" stroke="#bd6b20" stroke-width="2"/>
        <polygon points="0,-30 26,15 -26,15" fill="#9a5518" opacity="0.4"/>
      </g>
  <g transform="translate(80, 90)">
    <rect x="0" y="0" rx="20" ry="20" width="145" height="38" fill="#bd6b20" opacity="0.18" stroke="#bd6b20" stroke-width="1.5"/>
    <text x="72.5" y="25" font-family="ui-sans-serif, Inter, sans-serif" font-weight="700" font-size="14" letter-spacing="2.5" fill="#bd6b20" text-anchor="middle">INFORMATION</text>
  </g>
  <text x="80" y="515" font-family="ui-sans-serif, -apple-system, Segoe UI, Inter, sans-serif" font-weight="800" font-size="44" fill="#12100e" opacity="0.98"><tspan x="80" dy="0">Invest in PDR COURT The</tspan><tspan x="80" dy="56">Leader ADR Innovations</tspan></text>
  <rect x="0" y="669" width="1200" height="6" fill="url(#gold)"/>
</svg>