<?xml version="1.0" encoding="UTF-8"?>
<svg xmlns="http://www.w3.org/2000/svg" viewBox="0 0 1200 675" width="1200" height="675" role="img" aria-label="Jharkhand High Court Upholds Arbitrator’s Decision on Amendments">
  <defs>
    <linearGradient id="bg" x1="0%" y1="0%" x2="100%" y2="100%">
      <stop offset="0%" stop-color="#0c0a09"/>
      <stop offset="100%" stop-color="#291813"/>
    </linearGradient>
    <linearGradient id="gold" x1="0%" y1="0%" x2="100%" y2="100%">
      <stop offset="0%" stop-color="#d4862a"/>
      <stop offset="100%" stop-color="#bd6b20"/>
    </linearGradient>
    <radialGradient id="glow" cx="50%" cy="50%" r="50%">
      <stop offset="0%" stop-color="#d4862a" stop-opacity="0.45"/>
      <stop offset="100%" stop-color="#d4862a" stop-opacity="0"/>
    </radialGradient>
  </defs>
  <rect width="1200" height="675" fill="url(#bg)"/>
  <rect x="-674.0" y="-80" width="84.0" height="875" transform="rotate(18 -674.0 337.5)" fill="#d4862a" opacity="0.13"/><rect x="-474.9" y="-80" width="67.9" height="875" transform="rotate(18 -474.9 337.5)" fill="#d4862a" opacity="0.18"/><rect x="-313.9" y="-80" width="64.7" height="875" transform="rotate(18 -313.9 337.5)" fill="#d4862a" opacity="0.09"/><rect x="-126.2" y="-80" width="93.3" height="875" transform="rotate(18 -126.2 337.5)" fill="#d4862a" opacity="0.17"/><rect x="67.4" y="-80" width="90.1" height="875" transform="rotate(18 67.4 337.5)" fill="#d4862a" opacity="0.20"/><rect x="256.6" y="-80" width="108.3" height="875" transform="rotate(18 256.6 337.5)" fill="#d4862a" opacity="0.09"/><rect x="401.3" y="-80" width="101.9" height="875" transform="rotate(18 401.3 337.5)" fill="#d4862a" opacity="0.10"/><rect x="617.9" y="-80" width="114.2" height="875" transform="rotate(18 617.9 337.5)" fill="#d4862a" opacity="0.07"/><rect x="748.6" y="-80" width="135.5" height="875" transform="rotate(18 748.6 337.5)" fill="#d4862a" opacity="0.06"/><rect x="953.1" y="-80" width="83.2" height="875" transform="rotate(18 953.1 337.5)" fill="#d4862a" opacity="0.10"/><rect x="1092.8" y="-80" width="73.6" height="875" transform="rotate(18 1092.8 337.5)" fill="#d4862a" opacity="0.16"/><rect x="1285.6" y="-80" width="131.4" height="875" transform="rotate(18 1285.6 337.5)" fill="#d4862a" opacity="0.10"/><rect x="1451.5" y="-80" width="121.6" height="875" transform="rotate(18 1451.5 337.5)" fill="#d4862a" opacity="0.20"/><rect x="1638.8" y="-80" width="117.3" height="875" transform="rotate(18 1638.8 337.5)" fill="#d4862a" opacity="0.19"/><rect x="0" y="0" width="1200" height="675" fill="url(#glow)" opacity="0.6"/>
  <g opacity="0.85" transform="translate(1020, 495)">
        <circle r="68" fill="none" stroke="#d4862a" stroke-width="2" opacity="0.35"/>
        <path d="M -38 12 L 38 12 M -32 -8 L 32 -8 M -45 -28 L 45 -28" stroke="#bd6b20" stroke-width="3" stroke-linecap="round"/>
        <rect x="-50" y="-44" width="100" height="80" fill="none" stroke="#d4862a" stroke-width="2"/>
      </g>
  <g transform="translate(80, 90)">
    <rect x="0" y="0" rx="20" ry="20" width="112" height="38" fill="#d4862a" opacity="0.18" stroke="#d4862a" stroke-width="1.5"/>
    <text x="56" y="25" font-family="ui-sans-serif, Inter, sans-serif" font-weight="700" font-size="14" letter-spacing="2.5" fill="#d4862a" text-anchor="middle">NEWSROOM</text>
  </g>
  <text x="80" y="465" font-family="ui-sans-serif, -apple-system, Segoe UI, Inter, sans-serif" font-weight="800" font-size="44" fill="#faf8f5" opacity="0.98"><tspan x="80" dy="0">Jharkhand High Court</tspan><tspan x="80" dy="56">Upholds Arbitrator’s</tspan><tspan x="80" dy="56">Decision on Amendments</tspan></text>
  <rect x="0" y="669" width="1200" height="6" fill="url(#gold)"/>
</svg>