<?xml version="1.0" encoding="UTF-8"?>
<svg xmlns="http://www.w3.org/2000/svg" viewBox="0 0 1200 675" width="1200" height="675" role="img" aria-label="J&amp;K HC Clarifies Legal Landscape: Filing Under Section 5 Doesn't Hinder Arbitration Under Section 8(1)">
  <defs>
    <linearGradient id="bg" x1="0%" y1="0%" x2="100%" y2="100%">
      <stop offset="0%" stop-color="#12100e"/>
      <stop offset="100%" stop-color="#1c1917"/>
    </linearGradient>
    <linearGradient id="gold" x1="0%" y1="0%" x2="100%" y2="100%">
      <stop offset="0%" stop-color="#bd6b20"/>
      <stop offset="100%" stop-color="#e09440"/>
    </linearGradient>
    <radialGradient id="glow" cx="50%" cy="50%" r="50%">
      <stop offset="0%" stop-color="#bd6b20" stop-opacity="0.45"/>
      <stop offset="100%" stop-color="#bd6b20" stop-opacity="0"/>
    </radialGradient>
  </defs>
  <rect width="1200" height="675" fill="url(#bg)"/>
  <circle cx="840.0" cy="135.0" r="240" fill="url(#glow)" opacity="0.8"/><polygon points="1090.5,487.0 1102.2,510.6 1078.7,510.6" fill="#faebd6" opacity="0.16"/><rect x="394.8" y="171.8" width="49.4" height="49.4" rx="4" transform="rotate(275.9 419.5 196.4)" fill="#bd6b20" opacity="0.27"/><polygon points="2.7,241.9 23.4,283.4 -18.1,283.4" fill="#faebd6" opacity="0.11"/><rect x="1014.6" y="261.9" width="33.5" height="33.5" rx="4" transform="rotate(74.1 1031.3 278.7)" fill="#bd6b20" opacity="0.23"/><polygon points="345.9,479.3 363.4,514.3 328.4,514.3" fill="#faebd6" opacity="0.23"/><circle cx="631.6" cy="91.5" r="8.5" fill="#e09440" opacity="0.26"/><rect x="149.3" y="343.3" width="34.0" height="34.0" rx="4" transform="rotate(178.9 166.3 360.3)" fill="#bd6b20" opacity="0.24"/><rect x="706.1" y="148.9" width="20.8" height="20.8" rx="4" transform="rotate(313.7 716.5 159.3)" fill="#bd6b20" opacity="0.19"/><polygon points="548.6,-4.9 576.7,51.2 520.6,51.2" fill="#faebd6" opacity="0.17"/><rect x="252.4" y="492.0" width="18.0" height="18.0" rx="4" transform="rotate(76.6 261.4 501.0)" fill="#bd6b20" opacity="0.20"/><polygon points="232.6,99.8 242.2,119.1 222.9,119.1" fill="#faebd6" opacity="0.22"/><circle cx="251.2" cy="489.3" r="23.2" fill="#e09440" opacity="0.20"/><circle cx="400.0" cy="95.8" r="10.3" fill="#e09440" opacity="0.25"/><rect x="74.6" y="418.5" width="47.4" height="47.4" rx="4" transform="rotate(270.9 98.3 442.2)" fill="#bd6b20" opacity="0.11"/><circle cx="708.3" cy="312.3" r="16.4" fill="#e09440" opacity="0.27"/><rect x="954.8" y="396.6" width="31.5" height="31.5" rx="4" transform="rotate(212.8 970.5 412.4)" fill="#bd6b20" opacity="0.13"/><rect x="218.0" y="230.5" width="17.5" height="17.5" rx="4" transform="rotate(79.6 226.8 239.3)" fill="#bd6b20" opacity="0.28"/><polygon points="635.7,133.4 656.7,175.4 614.7,175.4" fill="#faebd6" opacity="0.35"/><polygon points="581.3,314.3 602.5,356.7 560.2,356.7" fill="#faebd6" opacity="0.16"/><circle cx="782.9" cy="338.7" r="21.8" fill="#e09440" opacity="0.13"/><circle cx="88.6" cy="125.0" r="13.4" fill="#e09440" opacity="0.15"/><circle cx="671.8" cy="442.7" r="29.0" fill="#e09440" opacity="0.22"/>
  <g opacity="0.85" transform="translate(1020, 495)">
        <circle r="68" fill="none" stroke="#bd6b20" stroke-width="2" opacity="0.35"/>
        <path d="M -38 12 L 38 12 M -32 -8 L 32 -8 M -45 -28 L 45 -28" stroke="#e09440" stroke-width="3" stroke-linecap="round"/>
        <rect x="-50" y="-44" width="100" height="80" fill="none" stroke="#bd6b20" stroke-width="2"/>
      </g>
  <g transform="translate(80, 90)">
    <rect x="0" y="0" rx="20" ry="20" width="112" height="38" fill="#bd6b20" opacity="0.18" stroke="#bd6b20" stroke-width="1.5"/>
    <text x="56" y="25" font-family="ui-sans-serif, Inter, sans-serif" font-weight="700" font-size="14" letter-spacing="2.5" fill="#bd6b20" text-anchor="middle">NEWSROOM</text>
  </g>
  <text x="80" y="465" font-family="ui-sans-serif, -apple-system, Segoe UI, Inter, sans-serif" font-weight="800" font-size="44" fill="#faf8f5" opacity="0.98"><tspan x="80" dy="0">J&amp;K HC Clarifies Legal</tspan><tspan x="80" dy="56">Landscape: Filing Under</tspan><tspan x="80" dy="56">Section 5 Doesn't Hinder</tspan></text>
  <rect x="0" y="669" width="1200" height="6" fill="url(#gold)"/>
</svg>