<?xml version="1.0" encoding="UTF-8"?>
<svg xmlns="http://www.w3.org/2000/svg" viewBox="0 0 1200 675" width="1200" height="675" role="img" aria-label="Jurisdiction of Arbitral Tribunal: Supreme Court's Decision on Agreement's Provision and General Manager's Role">
  <defs>
    <linearGradient id="bg" x1="0%" y1="0%" x2="100%" y2="100%">
      <stop offset="0%" stop-color="#643516"/>
      <stop offset="100%" stop-color="#7d4315"/>
    </linearGradient>
    <linearGradient id="gold" x1="0%" y1="0%" x2="100%" y2="100%">
      <stop offset="0%" stop-color="#ecb478"/>
      <stop offset="100%" stop-color="#faebd6"/>
    </linearGradient>
    <radialGradient id="glow" cx="50%" cy="50%" r="50%">
      <stop offset="0%" stop-color="#ecb478" stop-opacity="0.45"/>
      <stop offset="100%" stop-color="#ecb478" stop-opacity="0"/>
    </radialGradient>
  </defs>
  <rect width="1200" height="675" fill="url(#bg)"/>
  <circle cx="333.2" cy="176.6" r="115" fill="none" stroke="#ecb478" stroke-width="1.7" opacity="0.36"/><circle cx="333.2" cy="176.6" r="170" fill="none" stroke="#ecb478" stroke-width="2.1" opacity="0.32"/><circle cx="333.2" cy="176.6" r="225" fill="none" stroke="#ecb478" stroke-width="2.2" opacity="0.28"/><circle cx="333.2" cy="176.6" r="280" fill="none" stroke="#ecb478" stroke-width="1.9" opacity="0.24"/><circle cx="333.2" cy="176.6" r="335" fill="none" stroke="#ecb478" stroke-width="2.4" opacity="0.20"/><circle cx="333.2" cy="176.6" r="390" fill="none" stroke="#ecb478" stroke-width="2.5" opacity="0.16"/><circle cx="333.2" cy="176.6" r="445" fill="none" stroke="#ecb478" stroke-width="2.5" opacity="0.12"/><circle cx="333.2" cy="176.6" r="500" fill="none" stroke="#ecb478" stroke-width="1.9" opacity="0.08"/><circle cx="333.2" cy="176.6" r="555" fill="none" stroke="#ecb478" stroke-width="1.6" opacity="0.04"/><circle cx="333.2" cy="176.6" r="40" fill="url(#gold)" opacity="0.85"/>
  <g opacity="0.85" transform="translate(1020, 495)">
        <circle r="68" fill="none" stroke="#ecb478" stroke-width="2" opacity="0.35"/>
        <path d="M -38 12 L 38 12 M -32 -8 L 32 -8 M -45 -28 L 45 -28" stroke="#faebd6" stroke-width="3" stroke-linecap="round"/>
        <rect x="-50" y="-44" width="100" height="80" fill="none" stroke="#ecb478" stroke-width="2"/>
      </g>
  <g transform="translate(80, 90)">
    <rect x="0" y="0" rx="20" ry="20" width="112" height="38" fill="#ecb478" opacity="0.18" stroke="#ecb478" stroke-width="1.5"/>
    <text x="56" y="25" font-family="ui-sans-serif, Inter, sans-serif" font-weight="700" font-size="14" letter-spacing="2.5" fill="#ecb478" text-anchor="middle">NEWSROOM</text>
  </g>
  <text x="80" y="465" font-family="ui-sans-serif, -apple-system, Segoe UI, Inter, sans-serif" font-weight="800" font-size="44" fill="#faf8f5" opacity="0.98"><tspan x="80" dy="0">Jurisdiction of Arbitral</tspan><tspan x="80" dy="56">Tribunal: Supreme Court's</tspan><tspan x="80" dy="56">Decision on Agreement's</tspan></text>
  <rect x="0" y="669" width="1200" height="6" fill="url(#gold)"/>
</svg>