<?xml version="1.0" encoding="UTF-8"?>
<svg xmlns="http://www.w3.org/2000/svg" viewBox="0 0 1200 675" width="1200" height="675" role="img" aria-label="Karnataka High Court Appoints Arbitrator in JK Technosoft vs. Unikul Solutions Dispute">
  <defs>
    <linearGradient id="bg" x1="0%" y1="0%" x2="100%" y2="100%">
      <stop offset="0%" stop-color="#643516"/>
      <stop offset="100%" stop-color="#7d4315"/>
    </linearGradient>
    <linearGradient id="gold" x1="0%" y1="0%" x2="100%" y2="100%">
      <stop offset="0%" stop-color="#ecb478"/>
      <stop offset="100%" stop-color="#faebd6"/>
    </linearGradient>
    <radialGradient id="glow" cx="50%" cy="50%" r="50%">
      <stop offset="0%" stop-color="#ecb478" stop-opacity="0.45"/>
      <stop offset="100%" stop-color="#ecb478" stop-opacity="0"/>
    </radialGradient>
  </defs>
  <rect width="1200" height="675" fill="url(#bg)"/>
  <circle cx="840.0" cy="135.0" r="240" fill="url(#glow)" opacity="0.8"/><circle cx="101.0" cy="567.9" r="18.7" fill="#faebd6" opacity="0.22"/><circle cx="167.6" cy="108.3" r="13.9" fill="#faebd6" opacity="0.32"/><polygon points="698.8,391.8 725.6,445.3 672.1,445.3" fill="#f4d2ac" opacity="0.27"/><polygon points="692.5,-6.1 722.5,53.9 662.6,53.9" fill="#f4d2ac" opacity="0.13"/><polygon points="830.7,390.0 842.1,412.8 819.3,412.8" fill="#f4d2ac" opacity="0.29"/><rect x="852.4" y="148.4" width="55.9" height="55.9" rx="4" transform="rotate(244.2 880.4 176.3)" fill="#ecb478" opacity="0.29"/><polygon points="786.7,548.3 796.4,567.6 777.1,567.6" fill="#f4d2ac" opacity="0.29"/><circle cx="372.3" cy="398.7" r="27.5" fill="#faebd6" opacity="0.30"/><rect x="384.9" y="179.2" width="22.0" height="22.0" rx="4" transform="rotate(231.0 395.9 190.2)" fill="#ecb478" opacity="0.10"/><polygon points="305.3,536.9 323.4,573.2 287.2,573.2" fill="#f4d2ac" opacity="0.21"/><rect x="1169.8" y="421.1" width="26.9" height="26.9" rx="4" transform="rotate(117.6 1183.2 434.6)" fill="#ecb478" opacity="0.31"/><circle cx="212.5" cy="471.9" r="16.4" fill="#faebd6" opacity="0.31"/><circle cx="241.6" cy="26.8" r="18.0" fill="#faebd6" opacity="0.25"/><rect x="1151.2" y="506.9" width="26.6" height="26.6" rx="4" transform="rotate(67.8 1164.5 520.2)" fill="#ecb478" opacity="0.15"/><polygon points="453.6,70.4 470.9,105.1 436.3,105.1" fill="#f4d2ac" opacity="0.25"/><polygon points="1197.1,140.5 1225.9,198.0 1168.3,198.0" fill="#f4d2ac" opacity="0.24"/><rect x="633.2" y="258.5" width="52.8" height="52.8" rx="4" transform="rotate(289.2 659.6 284.9)" fill="#ecb478" opacity="0.32"/><polygon points="109.2,133.3 133.4,181.6 85.1,181.6" fill="#f4d2ac" opacity="0.17"/><rect x="905.4" y="-2.0" width="40.7" height="40.7" rx="4" transform="rotate(183.0 925.8 18.3)" fill="#ecb478" opacity="0.12"/><rect x="958.6" y="325.8" width="23.0" height="23.0" rx="4" transform="rotate(112.4 970.1 337.3)" fill="#ecb478" opacity="0.15"/><polygon points="226.5,223.3 239.2,248.8 213.7,248.8" fill="#f4d2ac" opacity="0.26"/><rect x="742.3" y="543.6" width="38.4" height="38.4" rx="4" transform="rotate(146.3 761.5 562.8)" fill="#ecb478" opacity="0.24"/>
  <g opacity="0.85" transform="translate(1020, 495)">
        <circle r="68" fill="none" stroke="#ecb478" stroke-width="2" opacity="0.35"/>
        <path d="M -38 12 L 38 12 M -32 -8 L 32 -8 M -45 -28 L 45 -28" stroke="#faebd6" stroke-width="3" stroke-linecap="round"/>
        <rect x="-50" y="-44" width="100" height="80" fill="none" stroke="#ecb478" stroke-width="2"/>
      </g>
  <g transform="translate(80, 90)">
    <rect x="0" y="0" rx="20" ry="20" width="112" height="38" fill="#ecb478" opacity="0.18" stroke="#ecb478" stroke-width="1.5"/>
    <text x="56" y="25" font-family="ui-sans-serif, Inter, sans-serif" font-weight="700" font-size="14" letter-spacing="2.5" fill="#ecb478" text-anchor="middle">NEWSROOM</text>
  </g>
  <text x="80" y="465" font-family="ui-sans-serif, -apple-system, Segoe UI, Inter, sans-serif" font-weight="800" font-size="44" fill="#faf8f5" opacity="0.98"><tspan x="80" dy="0">Karnataka High Court</tspan><tspan x="80" dy="56">Appoints Arbitrator in JK</tspan><tspan x="80" dy="56">Technosoft vs. Unikul</tspan></text>
  <rect x="0" y="669" width="1200" height="6" fill="url(#gold)"/>
</svg>