<?xml version="1.0" encoding="UTF-8"?>
<svg xmlns="http://www.w3.org/2000/svg" viewBox="0 0 1200 675" width="1200" height="675" role="img" aria-label="Kerala High Court: Landmark Delay Condonation in Commercial Case">
  <defs>
    <linearGradient id="bg" x1="0%" y1="0%" x2="100%" y2="100%">
      <stop offset="0%" stop-color="#643516"/>
      <stop offset="100%" stop-color="#7d4315"/>
    </linearGradient>
    <linearGradient id="gold" x1="0%" y1="0%" x2="100%" y2="100%">
      <stop offset="0%" stop-color="#ecb478"/>
      <stop offset="100%" stop-color="#faebd6"/>
    </linearGradient>
    <radialGradient id="glow" cx="50%" cy="50%" r="50%">
      <stop offset="0%" stop-color="#ecb478" stop-opacity="0.45"/>
      <stop offset="100%" stop-color="#ecb478" stop-opacity="0"/>
    </radialGradient>
  </defs>
  <rect width="1200" height="675" fill="url(#bg)"/>
  <polygon points="424.2,527.4 346.8,469.8 377.6,378.5 474.0,379.5 502.8,471.6" fill="#faebd6" opacity="0.09"/><polygon points="238.8,44.0 103.6,144.3 3.3,9.1 138.5,-91.2" fill="#faebd6" opacity="0.17"/><polygon points="636.8,667.2 451.7,643.4 564.8,495.0" fill="#faebd6" opacity="0.06"/><polygon points="168.9,490.7 288.0,584.4 235.7,726.6 84.2,720.8 42.9,575.0" fill="#faebd6" opacity="0.13"/><polygon points="685.1,619.5 665.2,564.9 719.8,545.0 739.7,599.5" fill="#faebd6" opacity="0.11"/><polygon points="12.3,349.8 -37.0,172.8 116.2,71.2 260.1,185.5 195.9,357.7" fill="#faebd6" opacity="0.13"/><polygon points="241.7,-57.2 410.2,42.5 367.5,233.7 172.5,252.1 94.8,72.3" fill="#faebd6" opacity="0.11"/><polygon points="1013.1,146.4 958.4,314.7 790.0,260.0 844.7,91.7" fill="#faebd6" opacity="0.07"/><polygon points="1154.6,145.2 1092.0,265.6 971.7,203.0 1034.3,82.6" fill="#faebd6" opacity="0.06"/><polygon points="841.2,139.8 777.0,223.2 736.8,125.9" fill="#faebd6" opacity="0.10"/><polygon points="-11.2,428.9 173.4,470.3 132.1,654.9 -52.5,613.5" fill="#faebd6" opacity="0.09"/><polygon points="884.8,646.2 1006.3,404.7 1154.7,630.7" fill="#faebd6" opacity="0.15"/><polygon points="402.9,207.5 363.7,167.7 389.4,118.0 444.5,127.1 452.9,182.4" fill="#faebd6" opacity="0.06"/><polygon points="213.3,346.0 32.4,231.7 146.7,50.8 327.6,165.1" fill="#faebd6" opacity="0.11"/><circle cx="936.0" cy="202.5" r="180" fill="url(#glow)"/>
  <g opacity="0.85" transform="translate(1020, 495)">
        <circle r="68" fill="none" stroke="#ecb478" stroke-width="2" opacity="0.35"/>
        <path d="M -38 12 L 38 12 M -32 -8 L 32 -8 M -45 -28 L 45 -28" stroke="#faebd6" stroke-width="3" stroke-linecap="round"/>
        <rect x="-50" y="-44" width="100" height="80" fill="none" stroke="#ecb478" stroke-width="2"/>
      </g>
  <g transform="translate(80, 90)">
    <rect x="0" y="0" rx="20" ry="20" width="112" height="38" fill="#ecb478" opacity="0.18" stroke="#ecb478" stroke-width="1.5"/>
    <text x="56" y="25" font-family="ui-sans-serif, Inter, sans-serif" font-weight="700" font-size="14" letter-spacing="2.5" fill="#ecb478" text-anchor="middle">NEWSROOM</text>
  </g>
  <text x="80" y="465" font-family="ui-sans-serif, -apple-system, Segoe UI, Inter, sans-serif" font-weight="800" font-size="44" fill="#faf8f5" opacity="0.98"><tspan x="80" dy="0">Kerala High Court:</tspan><tspan x="80" dy="56">Landmark Delay Condonation</tspan><tspan x="80" dy="56">in Commercial Case</tspan></text>
  <rect x="0" y="669" width="1200" height="6" fill="url(#gold)"/>
</svg>