<?xml version="1.0" encoding="UTF-8"?>
<svg xmlns="http://www.w3.org/2000/svg" viewBox="0 0 1200 675" width="1200" height="675" role="img" aria-label="Kerala HC Upholds Contractor’s Rs. 7.3 Cr Arbitration Award Against HLL">
  <defs>
    <linearGradient id="bg" x1="0%" y1="0%" x2="100%" y2="100%">
      <stop offset="0%" stop-color="#12100e"/>
      <stop offset="100%" stop-color="#1c1917"/>
    </linearGradient>
    <linearGradient id="gold" x1="0%" y1="0%" x2="100%" y2="100%">
      <stop offset="0%" stop-color="#bd6b20"/>
      <stop offset="100%" stop-color="#e09440"/>
    </linearGradient>
    <radialGradient id="glow" cx="50%" cy="50%" r="50%">
      <stop offset="0%" stop-color="#bd6b20" stop-opacity="0.45"/>
      <stop offset="100%" stop-color="#bd6b20" stop-opacity="0"/>
    </radialGradient>
  </defs>
  <rect width="1200" height="675" fill="url(#bg)"/>
  <polygon points="35.4,-102.7 212.0,96.9 -49.2,150.1" fill="#e09440" opacity="0.07"/><polygon points="538.0,172.2 745.7,147.6 663.2,339.8" fill="#e09440" opacity="0.11"/><polygon points="220.2,519.9 180.2,366.8 313.3,281.5 435.7,381.7 378.1,529.1" fill="#e09440" opacity="0.07"/><polygon points="747.6,565.2 776.5,703.2 654.2,773.4 549.7,678.8 607.4,550.1" fill="#e09440" opacity="0.11"/><polygon points="348.9,183.4 419.1,139.7 462.8,209.9 392.6,253.6" fill="#e09440" opacity="0.13"/><polygon points="617.2,511.6 667.7,445.0 734.3,495.5 683.8,562.2" fill="#e09440" opacity="0.09"/><polygon points="1220.2,403.9 1071.2,529.7 905.6,426.9 952.1,237.6 1146.6,223.4" fill="#e09440" opacity="0.09"/><polygon points="657.6,662.0 658.7,519.3 801.3,520.4 800.3,663.0" fill="#e09440" opacity="0.10"/><polygon points="846.2,321.8 814.6,252.9 870.3,201.5 936.4,238.6 921.5,313.0" fill="#e09440" opacity="0.16"/><polygon points="667.4,-3.4 725.7,-38.4 760.7,19.9 702.4,54.9" fill="#e09440" opacity="0.17"/><polygon points="991.5,342.4 960.3,199.2 1100.0,243.7" fill="#e09440" opacity="0.14"/><polygon points="398.7,186.1 276.5,141.0 376.7,57.7" fill="#e09440" opacity="0.09"/><polygon points="530.8,414.8 421.9,547.2 289.6,438.4 398.4,306.0" fill="#e09440" opacity="0.18"/><polygon points="625.4,660.5 682.0,586.6 755.9,643.3 699.2,717.2" fill="#e09440" opacity="0.05"/><circle cx="936.0" cy="202.5" r="180" fill="url(#glow)"/>
  <g opacity="0.85" transform="translate(1020, 495)">
        <circle r="68" fill="none" stroke="#bd6b20" stroke-width="2" opacity="0.35"/>
        <path d="M -38 12 L 38 12 M -32 -8 L 32 -8 M -45 -28 L 45 -28" stroke="#e09440" stroke-width="3" stroke-linecap="round"/>
        <rect x="-50" y="-44" width="100" height="80" fill="none" stroke="#bd6b20" stroke-width="2"/>
      </g>
  <g transform="translate(80, 90)">
    <rect x="0" y="0" rx="20" ry="20" width="112" height="38" fill="#bd6b20" opacity="0.18" stroke="#bd6b20" stroke-width="1.5"/>
    <text x="56" y="25" font-family="ui-sans-serif, Inter, sans-serif" font-weight="700" font-size="14" letter-spacing="2.5" fill="#bd6b20" text-anchor="middle">NEWSROOM</text>
  </g>
  <text x="80" y="465" font-family="ui-sans-serif, -apple-system, Segoe UI, Inter, sans-serif" font-weight="800" font-size="44" fill="#faf8f5" opacity="0.98"><tspan x="80" dy="0">Kerala HC Upholds</tspan><tspan x="80" dy="56">Contractor’s Rs. 7.3 Cr</tspan><tspan x="80" dy="56">Arbitration Award Against</tspan></text>
  <rect x="0" y="669" width="1200" height="6" fill="url(#gold)"/>
</svg>