<?xml version="1.0" encoding="UTF-8"?>
<svg xmlns="http://www.w3.org/2000/svg" viewBox="0 0 1200 675" width="1200" height="675" role="img" aria-label="What Benefits Does AI Offer Designers in Education?">
  <defs>
    <linearGradient id="bg" x1="0%" y1="0%" x2="100%" y2="100%">
      <stop offset="0%" stop-color="#0c0a09"/>
      <stop offset="100%" stop-color="#291813"/>
    </linearGradient>
    <linearGradient id="gold" x1="0%" y1="0%" x2="100%" y2="100%">
      <stop offset="0%" stop-color="#d4862a"/>
      <stop offset="100%" stop-color="#bd6b20"/>
    </linearGradient>
    <radialGradient id="glow" cx="50%" cy="50%" r="50%">
      <stop offset="0%" stop-color="#d4862a" stop-opacity="0.45"/>
      <stop offset="100%" stop-color="#d4862a" stop-opacity="0"/>
    </radialGradient>
  </defs>
  <rect width="1200" height="675" fill="url(#bg)"/>
  <polygon points="1096.4,311.0 978.7,247.7 1002.5,116.1 1135.0,98.1 1193.0,218.6" fill="#bd6b20" opacity="0.07"/><polygon points="1062.5,302.3 1115.7,149.8 1277.3,153.3 1323.8,308.0 1191.1,400.1" fill="#bd6b20" opacity="0.08"/><polygon points="937.4,379.8 847.7,533.3 759.6,378.9" fill="#bd6b20" opacity="0.11"/><polygon points="237.6,720.7 102.2,560.2 262.7,424.9 398.0,585.3" fill="#bd6b20" opacity="0.13"/><polygon points="782.9,338.5 713.1,462.9 640.3,340.2" fill="#bd6b20" opacity="0.07"/><polygon points="712.8,259.6 825.1,249.0 835.7,361.2 723.5,371.8" fill="#bd6b20" opacity="0.10"/><polygon points="864.1,505.7 936.6,535.8 906.6,608.2 834.1,578.2" fill="#bd6b20" opacity="0.08"/><polygon points="333.1,359.7 406.7,163.6 539.7,325.3" fill="#bd6b20" opacity="0.17"/><polygon points="989.7,-11.7 1117.5,-105.7 1246.4,-13.3 1198.3,138.0 1039.6,139.0" fill="#bd6b20" opacity="0.16"/><polygon points="797.7,754.2 774.3,564.4 950.4,639.1" fill="#bd6b20" opacity="0.12"/><polygon points="410.8,109.1 353.1,147.3 298.9,104.3 323.1,39.5 392.2,42.4" fill="#bd6b20" opacity="0.09"/><polygon points="110.1,440.7 -21.3,475.6 -95.0,361.4 -9.2,255.9 117.6,305.0" fill="#bd6b20" opacity="0.17"/><polygon points="708.7,259.1 760.5,428.5 615.5,530.1 474.0,423.6 531.6,256.1" fill="#bd6b20" opacity="0.07"/><polygon points="254.8,426.6 308.2,421.2 329.8,470.3 289.9,506.0 243.5,479.1" fill="#bd6b20" opacity="0.18"/><circle cx="936.0" cy="202.5" r="180" fill="url(#glow)"/>
  <g opacity="0.85" transform="translate(1020, 495)">
        <rect x="-46" y="-60" width="92" height="115" fill="#d4862a" opacity="0.18" rx="6"/>
        <path d="M -28 -36 L 28 -36 M -28 -12 L 28 -12 M -28 12 L 18 12 M -28 36 L 28 36" stroke="#bd6b20" stroke-width="3" stroke-linecap="round"/>
      </g>
  <g transform="translate(80, 90)">
    <rect x="0" y="0" rx="20" ry="20" width="101" height="38" fill="#d4862a" opacity="0.18" stroke="#d4862a" stroke-width="1.5"/>
    <text x="50.5" y="25" font-family="ui-sans-serif, Inter, sans-serif" font-weight="700" font-size="14" letter-spacing="2.5" fill="#d4862a" text-anchor="middle">ARTICLE</text>
  </g>
  <text x="80" y="465" font-family="ui-sans-serif, -apple-system, Segoe UI, Inter, sans-serif" font-weight="800" font-size="44" fill="#faf8f5" opacity="0.98"><tspan x="80" dy="0">What Benefits Does AI</tspan><tspan x="80" dy="56">Offer Designers in</tspan><tspan x="80" dy="56">Education?</tspan></text>
  <rect x="0" y="669" width="1200" height="6" fill="url(#gold)"/>
</svg>