<?xml version="1.0" encoding="UTF-8"?>
<svg xmlns="http://www.w3.org/2000/svg" viewBox="0 0 1200 675" width="1200" height="675" role="img" aria-label="PDR COURT Articles: All about Alternate Dispute Resolution">
  <defs>
    <linearGradient id="bg" x1="0%" y1="0%" x2="100%" y2="100%">
      <stop offset="0%" stop-color="#12100e"/>
      <stop offset="100%" stop-color="#1c1917"/>
    </linearGradient>
    <linearGradient id="gold" x1="0%" y1="0%" x2="100%" y2="100%">
      <stop offset="0%" stop-color="#bd6b20"/>
      <stop offset="100%" stop-color="#e09440"/>
    </linearGradient>
    <radialGradient id="glow" cx="50%" cy="50%" r="50%">
      <stop offset="0%" stop-color="#bd6b20" stop-opacity="0.45"/>
      <stop offset="100%" stop-color="#bd6b20" stop-opacity="0"/>
    </radialGradient>
  </defs>
  <rect width="1200" height="675" fill="url(#bg)"/>
  <rect x="-649.2" y="-80" width="105.2" height="875" transform="rotate(18 -649.2 337.5)" fill="#bd6b20" opacity="0.15"/><rect x="-538.6" y="-80" width="125.8" height="875" transform="rotate(18 -538.6 337.5)" fill="#bd6b20" opacity="0.11"/><rect x="-344.7" y="-80" width="136.3" height="875" transform="rotate(18 -344.7 337.5)" fill="#bd6b20" opacity="0.05"/><rect x="-114.0" y="-80" width="112.6" height="875" transform="rotate(18 -114.0 337.5)" fill="#bd6b20" opacity="0.18"/><rect x="34.8" y="-80" width="134.0" height="875" transform="rotate(18 34.8 337.5)" fill="#bd6b20" opacity="0.09"/><rect x="198.7" y="-80" width="100.3" height="875" transform="rotate(18 198.7 337.5)" fill="#bd6b20" opacity="0.10"/><rect x="420.0" y="-80" width="130.5" height="875" transform="rotate(18 420.0 337.5)" fill="#bd6b20" opacity="0.09"/><rect x="576.2" y="-80" width="137.1" height="875" transform="rotate(18 576.2 337.5)" fill="#bd6b20" opacity="0.09"/><rect x="777.3" y="-80" width="77.2" height="875" transform="rotate(18 777.3 337.5)" fill="#bd6b20" opacity="0.11"/><rect x="965.5" y="-80" width="85.3" height="875" transform="rotate(18 965.5 337.5)" fill="#bd6b20" opacity="0.06"/><rect x="1136.3" y="-80" width="125.8" height="875" transform="rotate(18 1136.3 337.5)" fill="#bd6b20" opacity="0.15"/><rect x="1301.9" y="-80" width="131.3" height="875" transform="rotate(18 1301.9 337.5)" fill="#bd6b20" opacity="0.20"/><rect x="1479.9" y="-80" width="92.3" height="875" transform="rotate(18 1479.9 337.5)" fill="#bd6b20" opacity="0.12"/><rect x="1623.8" y="-80" width="98.6" height="875" transform="rotate(18 1623.8 337.5)" fill="#bd6b20" opacity="0.09"/><rect x="0" y="0" width="1200" height="675" fill="url(#glow)" opacity="0.6"/>
  <g opacity="0.85" transform="translate(1020, 495)">
        <polygon points="0,-50 43,25 -43,25" fill="none" stroke="#bd6b20" stroke-width="2"/>
        <polygon points="0,-30 26,15 -26,15" fill="#e09440" opacity="0.4"/>
      </g>
  <g transform="translate(80, 90)">
    <rect x="0" y="0" rx="20" ry="20" width="145" height="38" fill="#bd6b20" opacity="0.18" stroke="#bd6b20" stroke-width="1.5"/>
    <text x="72.5" y="25" font-family="ui-sans-serif, Inter, sans-serif" font-weight="700" font-size="14" letter-spacing="2.5" fill="#bd6b20" text-anchor="middle">INFORMATION</text>
  </g>
  <text x="80" y="465" font-family="ui-sans-serif, -apple-system, Segoe UI, Inter, sans-serif" font-weight="800" font-size="44" fill="#faf8f5" opacity="0.98"><tspan x="80" dy="0">PDR COURT Articles: All</tspan><tspan x="80" dy="56">about Alternate Dispute</tspan><tspan x="80" dy="56">Resolution</tspan></text>
  <rect x="0" y="669" width="1200" height="6" fill="url(#gold)"/>
</svg>