<?xml version="1.0" encoding="UTF-8"?>
<svg xmlns="http://www.w3.org/2000/svg" viewBox="0 0 1200 675" width="1200" height="675" role="img" aria-label="Quick &amp; Effective Dispute Resolution for Banks, NBFCs, MSMEs">
  <defs>
    <linearGradient id="bg" x1="0%" y1="0%" x2="100%" y2="100%">
      <stop offset="0%" stop-color="#0c0a09"/>
      <stop offset="100%" stop-color="#291813"/>
    </linearGradient>
    <linearGradient id="gold" x1="0%" y1="0%" x2="100%" y2="100%">
      <stop offset="0%" stop-color="#d4862a"/>
      <stop offset="100%" stop-color="#bd6b20"/>
    </linearGradient>
    <radialGradient id="glow" cx="50%" cy="50%" r="50%">
      <stop offset="0%" stop-color="#d4862a" stop-opacity="0.45"/>
      <stop offset="100%" stop-color="#d4862a" stop-opacity="0"/>
    </radialGradient>
  </defs>
  <rect width="1200" height="675" fill="url(#bg)"/>
  <circle cx="27.3" cy="32.6" r="2.39" fill="#d4862a" opacity="0.18"/><circle cx="67.5" cy="29.9" r="3.46" fill="#d4862a" opacity="0.27"/><circle cx="104.0" cy="27.3" r="2.27" fill="#d4862a" opacity="0.26"/><circle cx="139.4" cy="32.9" r="3.22" fill="#d4862a" opacity="0.29"/><circle cx="175.4" cy="27.1" r="2.90" fill="#d4862a" opacity="0.16"/><circle cx="208.5" cy="31.2" r="3.68" fill="#d4862a" opacity="0.32"/><circle cx="247.6" cy="30.7" r="1.79" fill="#d4862a" opacity="0.31"/><circle cx="283.0" cy="32.8" r="2.07" fill="#d4862a" opacity="0.19"/><circle cx="317.3" cy="32.1" r="2.22" fill="#d4862a" opacity="0.27"/><circle cx="352.9" cy="27.5" r="1.85" fill="#d4862a" opacity="0.26"/><circle cx="391.2" cy="30.0" r="2.08" fill="#d4862a" opacity="0.28"/><circle cx="425.1" cy="32.0" r="2.12" fill="#d4862a" opacity="0.30"/><circle cx="463.7" cy="28.9" r="2.72" fill="#d4862a" opacity="0.20"/><circle cx="500.0" cy="33.0" r="2.48" fill="#d4862a" opacity="0.20"/><circle cx="536.7" cy="30.5" r="3.23" fill="#d4862a" opacity="0.35"/><circle cx="572.1" cy="28.3" r="2.95" fill="#d4862a" opacity="0.27"/><circle cx="605.6" cy="32.5" r="2.57" fill="#d4862a" opacity="0.34"/><circle cx="644.1" cy="30.7" r="2.24" fill="#d4862a" opacity="0.26"/><circle cx="676.5" cy="29.3" r="3.24" fill="#d4862a" opacity="0.36"/><circle cx="711.6" cy="28.2" r="1.83" fill="#d4862a" opacity="0.16"/><circle cx="752.5" cy="32.8" r="3.74" fill="#d4862a" opacity="0.33"/><circle cx="786.1" cy="29.5" r="3.25" fill="#d4862a" opacity="0.33"/><circle cx="820.3" cy="28.8" r="1.85" fill="#d4862a" opacity="0.17"/><circle cx="860.2" cy="32.4" r="2.77" fill="#d4862a" opacity="0.28"/><circle cx="893.8" cy="31.5" r="2.54" fill="#d4862a" opacity="0.20"/><circle cx="927.9" cy="28.5" r="3.02" fill="#d4862a" opacity="0.35"/><circle cx="965.2" cy="32.6" r="2.02" fill="#d4862a" opacity="0.22"/><circle cx="1004.6" cy="27.4" r="2.57" fill="#d4862a" opacity="0.19"/><circle cx="1037.1" cy="27.1" r="3.29" fill="#d4862a" opacity="0.34"/><circle cx="1074.1" cy="28.7" r="3.79" fill="#d4862a" opacity="0.31"/><circle cx="1112.9" cy="31.1" r="3.64" fill="#d4862a" opacity="0.31"/><circle cx="1147.4" cy="30.2" r="3.08" fill="#d4862a" opacity="0.29"/><circle cx="1181.7" cy="27.3" r="2.79" fill="#d4862a" opacity="0.27"/><circle cx="31.4" cy="66.5" r="3.86" fill="#d4862a" opacity="0.31"/><circle cx="63.5" cy="65.9" r="2.95" fill="#d4862a" opacity="0.28"/><circle cx="103.8" cy="66.4" r="2.46" fill="#d4862a" opacity="0.26"/><circle cx="135.7" cy="64.8" r="2.48" fill="#d4862a" opacity="0.27"/><circle cx="176.3" cy="64.7" r="2.77" fill="#d4862a" opacity="0.23"/><circle cx="209.0" cy="68.2" r="2.67" fill="#d4862a" opacity="0.31"/><circle cx="243.2" cy="67.9" r="2.26" fill="#d4862a" opacity="0.17"/><circle cx="284.5" cy="68.2" r="2.64" fill="#d4862a" opacity="0.24"/><circle cx="320.7" cy="65.0" r="3.88" fill="#d4862a" opacity="0.29"/><circle cx="356.6" cy="66.3" r="2.61" fill="#d4862a" opacity="0.32"/><circle cx="388.8" cy="68.0" r="2.02" fill="#d4862a" opacity="0.36"/><circle cx="426.3" cy="66.1" r="2.10" fill="#d4862a" opacity="0.35"/><circle cx="459.1" cy="63.2" r="2.00" fill="#d4862a" opacity="0.28"/><circle cx="498.9" cy="67.1" r="2.80" fill="#d4862a" opacity="0.34"/><circle cx="533.6" cy="66.0" r="3.48" fill="#d4862a" opacity="0.32"/><circle cx="572.8" cy="65.4" r="3.75" fill="#d4862a" opacity="0.32"/><circle cx="608.2" cy="67.3" r="2.41" fill="#d4862a" opacity="0.28"/><circle cx="640.6" cy="67.1" r="2.41" fill="#d4862a" opacity="0.17"/><circle cx="678.8" cy="65.8" r="3.01" fill="#d4862a" opacity="0.29"/><circle cx="713.1" cy="68.8" r="3.14" fill="#d4862a" opacity="0.35"/><circle cx="750.9" cy="63.9" r="1.94" fill="#d4862a" opacity="0.16"/><circle cx="788.8" cy="67.1" r="2.02" fill="#d4862a" opacity="0.35"/><circle cx="822.5" cy="64.9" r="3.17" fill="#d4862a" opacity="0.22"/><circle cx="860.0" cy="65.7" r="3.98" fill="#d4862a" opacity="0.28"/><circle cx="894.6" cy="68.7" r="2.85" fill="#d4862a" opacity="0.21"/><circle cx="932.7" cy="68.0" r="2.08" fill="#d4862a" opacity="0.27"/><circle cx="964.5" cy="68.2" r="2.96" fill="#d4862a" opacity="0.25"/><circle cx="1004.2" cy="64.0" r="2.59" fill="#d4862a" opacity="0.32"/><circle cx="1038.4" cy="67.3" r="2.67" fill="#d4862a" opacity="0.35"/><circle cx="1075.0" cy="63.8" r="2.11" fill="#d4862a" opacity="0.18"/><circle cx="1109.5" cy="65.2" r="1.90" fill="#d4862a" opacity="0.30"/><circle cx="1143.4" cy="67.2" r="2.54" fill="#d4862a" opacity="0.25"/><circle cx="1183.2" cy="68.7" r="3.30" fill="#d4862a" opacity="0.35"/><circle cx="30.7" cy="101.3" r="3.10" fill="#d4862a" opacity="0.33"/><circle cx="63.8" cy="101.1" r="1.96" fill="#d4862a" opacity="0.34"/><circle cx="102.5" cy="104.1" r="3.55" fill="#d4862a" opacity="0.26"/><circle cx="136.9" cy="104.2" r="3.58" fill="#d4862a" opacity="0.21"/><circle cx="175.2" cy="101.7" r="1.94" fill="#d4862a" opacity="0.17"/><circle cx="209.3" cy="104.3" r="3.19" fill="#d4862a" opacity="0.36"/><circle cx="247.4" cy="104.5" r="1.90" fill="#d4862a" opacity="0.26"/><circle cx="280.3" cy="100.1" r="3.04" fill="#d4862a" opacity="0.21"/><circle cx="316.3" cy="102.1" r="2.82" fill="#d4862a" opacity="0.22"/><circle cx="356.0" cy="99.9" r="2.06" fill="#d4862a" opacity="0.30"/><circle cx="388.7" cy="101.7" r="3.62" fill="#d4862a" opacity="0.30"/><circle cx="426.0" cy="102.3" r="1.81" fill="#d4862a" opacity="0.30"/><circle cx="462.8" cy="101.6" r="3.03" fill="#d4862a" opacity="0.17"/><circle cx="497.1" cy="103.2" r="2.05" fill="#d4862a" opacity="0.24"/><circle cx="533.0" cy="103.8" r="3.69" fill="#d4862a" opacity="0.21"/><circle cx="567.6" cy="100.8" r="1.82" fill="#d4862a" opacity="0.34"/><circle cx="603.7" cy="102.4" r="3.12" fill="#d4862a" opacity="0.35"/><circle cx="641.1" cy="103.4" r="3.03" fill="#d4862a" opacity="0.16"/><circle cx="680.9" cy="103.8" r="3.23" fill="#d4862a" opacity="0.20"/><circle cx="716.7" cy="104.9" r="2.28" fill="#d4862a" opacity="0.26"/><circle cx="752.5" cy="104.9" r="2.58" fill="#d4862a" opacity="0.31"/><circle cx="784.1" cy="99.8" r="2.35" fill="#d4862a" opacity="0.25"/><circle cx="821.9" cy="102.7" r="3.40" fill="#d4862a" opacity="0.27"/><circle cx="855.6" cy="102.6" r="2.07" fill="#d4862a" opacity="0.35"/><circle cx="897.0" cy="104.3" r="2.51" fill="#d4862a" opacity="0.20"/><circle cx="932.8" cy="100.2" r="3.15" fill="#d4862a" opacity="0.30"/><circle cx="963.6" cy="103.8" r="3.78" fill="#d4862a" opacity="0.21"/><circle cx="1002.8" cy="100.6" r="2.77" fill="#d4862a" opacity="0.35"/><circle cx="1040.6" cy="102.1" r="2.91" fill="#d4862a" opacity="0.35"/><circle cx="1075.8" cy="99.5" r="2.29" fill="#d4862a" opacity="0.35"/><circle cx="1109.8" cy="104.8" r="2.32" fill="#d4862a" opacity="0.20"/><circle cx="1147.2" cy="101.7" r="2.67" fill="#d4862a" opacity="0.30"/><circle cx="1179.4" cy="104.4" r="3.32" fill="#d4862a" opacity="0.15"/><circle cx="30.2" cy="137.8" r="3.32" fill="#d4862a" opacity="0.16"/><circle cx="64.6" cy="136.6" r="2.44" fill="#d4862a" opacity="0.34"/><circle cx="102.6" cy="137.8" r="3.05" fill="#d4862a" opacity="0.17"/><circle cx="135.8" cy="138.7" r="1.70" fill="#d4862a" opacity="0.22"/><circle cx="174.7" cy="138.7" r="3.66" fill="#d4862a" opacity="0.18"/><circle cx="211.4" cy="140.3" r="3.16" fill="#d4862a" opacity="0.26"/><circle cx="243.6" cy="139.1" r="3.17" fill="#d4862a" opacity="0.29"/><circle cx="283.8" cy="136.9" r="2.55" fill="#d4862a" opacity="0.17"/><circle cx="317.7" cy="138.9" r="2.54" fill="#d4862a" opacity="0.22"/><circle cx="356.1" cy="137.2" r="3.30" fill="#d4862a" opacity="0.18"/><circle cx="388.2" cy="140.3" r="3.78" fill="#d4862a" opacity="0.27"/><circle cx="425.8" cy="136.7" r="3.27" fill="#d4862a" opacity="0.30"/><circle cx="464.8" cy="135.3" r="1.98" fill="#d4862a" opacity="0.32"/><circle cx="497.4" cy="138.1" r="2.38" fill="#d4862a" opacity="0.25"/><circle cx="536.9" cy="137.2" r="2.71" fill="#d4862a" opacity="0.19"/><circle cx="567.9" cy="138.5" r="1.62" fill="#d4862a" opacity="0.28"/><circle cx="604.6" cy="136.5" r="3.11" fill="#d4862a" opacity="0.29"/><circle cx="644.5" cy="137.2" r="3.01" fill="#d4862a" opacity="0.18"/><circle cx="677.0" cy="140.3" r="3.52" fill="#d4862a" opacity="0.26"/><circle cx="714.4" cy="138.5" r="1.86" fill="#d4862a" opacity="0.27"/><circle cx="752.3" cy="137.8" r="3.62" fill="#d4862a" opacity="0.32"/><circle cx="787.2" cy="138.2" r="3.40" fill="#d4862a" opacity="0.29"/><circle cx="823.2" cy="138.4" r="2.48" fill="#d4862a" opacity="0.31"/><circle cx="859.4" cy="136.1" r="2.34" fill="#d4862a" opacity="0.17"/><circle cx="894.7" cy="135.8" r="3.71" fill="#d4862a" opacity="0.16"/><circle cx="928.3" cy="137.2" r="2.72" fill="#d4862a" opacity="0.17"/><circle cx="967.9" cy="135.3" r="3.99" fill="#d4862a" opacity="0.16"/><circle cx="1004.5" cy="135.7" r="3.79" fill="#d4862a" opacity="0.22"/><circle cx="1036.2" cy="135.3" r="3.29" fill="#d4862a" opacity="0.35"/><circle cx="1074.8" cy="137.8" r="1.79" fill="#d4862a" opacity="0.16"/><circle cx="1113.0" cy="135.7" r="3.43" fill="#d4862a" opacity="0.26"/><circle cx="1144.9" cy="139.5" r="2.11" fill="#d4862a" opacity="0.30"/><circle cx="1181.0" cy="140.7" r="2.46" fill="#d4862a" opacity="0.22"/><circle cx="30.5" cy="171.0" r="3.00" fill="#d4862a" opacity="0.33"/><circle cx="68.6" cy="171.8" r="2.96" fill="#d4862a" opacity="0.16"/><circle cx="103.9" cy="172.1" r="2.55" fill="#d4862a" opacity="0.17"/><circle cx="140.8" cy="172.1" r="3.51" fill="#d4862a" opacity="0.27"/><circle cx="171.4" cy="171.6" r="3.48" fill="#d4862a" opacity="0.17"/><circle cx="208.4" cy="176.4" r="3.79" fill="#d4862a" opacity="0.30"/><circle cx="243.4" cy="173.8" r="3.88" fill="#d4862a" opacity="0.32"/><circle cx="284.6" cy="173.7" r="3.94" fill="#d4862a" opacity="0.32"/><circle cx="319.5" cy="174.3" r="2.74" fill="#d4862a" opacity="0.15"/><circle cx="356.7" cy="172.3" r="3.89" fill="#d4862a" opacity="0.22"/><circle cx="391.2" cy="173.8" r="1.67" fill="#d4862a" opacity="0.33"/><circle cx="428.5" cy="171.0" r="1.90" fill="#d4862a" opacity="0.32"/><circle cx="461.3" cy="173.2" r="3.36" fill="#d4862a" opacity="0.24"/><circle cx="500.3" cy="174.9" r="2.93" fill="#d4862a" opacity="0.16"/><circle cx="536.1" cy="175.4" r="3.98" fill="#d4862a" opacity="0.22"/><circle cx="572.2" cy="175.2" r="3.52" fill="#d4862a" opacity="0.27"/><circle cx="609.0" cy="175.0" r="2.41" fill="#d4862a" opacity="0.34"/><circle cx="639.1" cy="171.8" r="1.69" fill="#d4862a" opacity="0.20"/><circle cx="679.7" cy="174.3" r="3.51" fill="#d4862a" opacity="0.24"/><circle cx="712.3" cy="175.6" r="1.92" fill="#d4862a" opacity="0.21"/><circle cx="752.0" cy="176.5" r="1.79" fill="#d4862a" opacity="0.16"/><circle cx="787.8" cy="171.4" r="3.62" fill="#d4862a" opacity="0.31"/><circle cx="820.3" cy="173.3" r="2.88" fill="#d4862a" opacity="0.22"/><circle cx="860.7" cy="174.7" r="3.48" fill="#d4862a" opacity="0.28"/><circle cx="896.9" cy="176.3" r="3.93" fill="#d4862a" opacity="0.34"/><circle cx="932.9" cy="174.2" r="3.24" fill="#d4862a" opacity="0.32"/><circle cx="963.9" cy="172.1" r="3.64" fill="#d4862a" opacity="0.28"/><circle cx="1003.6" cy="175.8" r="3.66" fill="#d4862a" opacity="0.34"/><circle cx="1035.5" cy="171.4" r="3.58" fill="#d4862a" opacity="0.17"/><circle cx="1076.3" cy="174.3" r="3.07" fill="#d4862a" opacity="0.32"/><circle cx="1110.5" cy="173.3" r="2.52" fill="#d4862a" opacity="0.33"/><circle cx="1145.6" cy="173.1" r="1.73" fill="#d4862a" opacity="0.25"/><circle cx="1184.1" cy="172.6" r="2.39" fill="#d4862a" opacity="0.17"/><circle cx="32.8" cy="211.0" r="2.31" fill="#d4862a" opacity="0.32"/><circle cx="64.0" cy="211.7" r="3.28" fill="#d4862a" opacity="0.24"/><circle cx="100.0" cy="211.6" r="3.40" fill="#d4862a" opacity="0.23"/><circle cx="139.6" cy="211.3" r="3.80" fill="#d4862a" opacity="0.34"/><circle cx="171.9" cy="208.8" r="2.21" fill="#d4862a" opacity="0.26"/><circle cx="207.6" cy="208.1" r="1.84" fill="#d4862a" opacity="0.35"/><circle cx="246.2" cy="210.3" r="3.99" fill="#d4862a" opacity="0.32"/><circle cx="283.9" cy="212.7" r="3.41" fill="#d4862a" opacity="0.18"/><circle cx="315.9" cy="212.7" r="1.79" fill="#d4862a" opacity="0.35"/><circle cx="352.0" cy="207.4" r="3.54" fill="#d4862a" opacity="0.20"/><circle cx="390.8" cy="211.6" r="3.38" fill="#d4862a" opacity="0.35"/><circle cx="423.2" cy="211.3" r="3.53" fill="#d4862a" opacity="0.17"/><circle cx="462.0" cy="208.2" r="3.69" fill="#d4862a" opacity="0.15"/><circle cx="499.2" cy="208.0" r="2.58" fill="#d4862a" opacity="0.31"/><circle cx="531.8" cy="207.8" r="2.71" fill="#d4862a" opacity="0.29"/><circle cx="567.4" cy="210.8" r="2.95" fill="#d4862a" opacity="0.31"/><circle cx="608.0" cy="209.1" r="1.67" fill="#d4862a" opacity="0.22"/><circle cx="643.8" cy="207.4" r="2.07" fill="#d4862a" opacity="0.35"/><circle cx="677.0" cy="211.4" r="2.10" fill="#d4862a" opacity="0.20"/><circle cx="714.7" cy="209.6" r="1.68" fill="#d4862a" opacity="0.30"/><circle cx="752.2" cy="209.9" r="2.69" fill="#d4862a" opacity="0.22"/><circle cx="783.1" cy="208.6" r="3.37" fill="#d4862a" opacity="0.16"/><circle cx="823.8" cy="207.9" r="3.71" fill="#d4862a" opacity="0.26"/><circle cx="856.3" cy="210.0" r="1.94" fill="#d4862a" opacity="0.30"/><circle cx="893.6" cy="210.2" r="3.26" fill="#d4862a" opacity="0.31"/><circle cx="928.6" cy="208.1" r="3.79" fill="#d4862a" opacity="0.17"/><circle cx="968.0" cy="211.1" r="3.50" fill="#d4862a" opacity="0.18"/><circle cx="1002.9" cy="207.6" r="1.93" fill="#d4862a" opacity="0.17"/><circle cx="1039.8" cy="208.7" r="2.74" fill="#d4862a" opacity="0.29"/><circle cx="1076.4" cy="211.0" r="3.16" fill="#d4862a" opacity="0.27"/><circle cx="1107.6" cy="209.0" r="2.17" fill="#d4862a" opacity="0.34"/><circle cx="1145.0" cy="207.7" r="2.28" fill="#d4862a" opacity="0.27"/><circle cx="1180.4" cy="212.4" r="2.28" fill="#d4862a" opacity="0.29"/><circle cx="30.2" cy="247.6" r="3.72" fill="#d4862a" opacity="0.33"/><circle cx="66.9" cy="245.7" r="2.40" fill="#d4862a" opacity="0.33"/><circle cx="99.8" cy="247.7" r="3.99" fill="#d4862a" opacity="0.33"/><circle cx="138.6" cy="243.2" r="2.90" fill="#d4862a" opacity="0.19"/><circle cx="173.1" cy="245.4" r="2.33" fill="#d4862a" opacity="0.22"/><circle cx="210.0" cy="245.0" r="3.77" fill="#d4862a" opacity="0.23"/><circle cx="244.1" cy="244.5" r="2.28" fill="#d4862a" opacity="0.24"/><circle cx="283.1" cy="246.2" r="3.23" fill="#d4862a" opacity="0.20"/><circle cx="318.3" cy="243.9" r="1.91" fill="#d4862a" opacity="0.27"/><circle cx="354.7" cy="243.2" r="2.59" fill="#d4862a" opacity="0.31"/><circle cx="391.8" cy="243.3" r="1.94" fill="#d4862a" opacity="0.27"/><circle cx="426.3" cy="244.3" r="1.74" fill="#d4862a" opacity="0.20"/><circle cx="460.8" cy="248.1" r="2.43" fill="#d4862a" opacity="0.26"/><circle cx="500.2" cy="245.0" r="3.88" fill="#d4862a" opacity="0.25"/><circle cx="534.6" cy="248.3" r="2.62" fill="#d4862a" opacity="0.29"/><circle cx="570.1" cy="243.2" r="3.89" fill="#d4862a" opacity="0.16"/><circle cx="605.7" cy="248.1" r="3.54" fill="#d4862a" opacity="0.24"/><circle cx="641.4" cy="247.7" r="3.93" fill="#d4862a" opacity="0.23"/><circle cx="679.5" cy="247.5" r="2.77" fill="#d4862a" opacity="0.27"/><circle cx="715.1" cy="243.8" r="2.92" fill="#d4862a" opacity="0.15"/><circle cx="752.4" cy="247.7" r="1.76" fill="#d4862a" opacity="0.16"/><circle cx="784.0" cy="245.2" r="2.25" fill="#d4862a" opacity="0.19"/><circle cx="821.6" cy="247.3" r="2.49" fill="#d4862a" opacity="0.25"/><circle cx="860.9" cy="244.0" r="1.79" fill="#d4862a" opacity="0.21"/><circle cx="893.7" cy="244.6" r="2.57" fill="#d4862a" opacity="0.29"/><circle cx="930.8" cy="248.1" r="3.18" fill="#d4862a" opacity="0.36"/><circle cx="963.2" cy="245.3" r="1.63" fill="#d4862a" opacity="0.33"/><circle cx="1004.1" cy="247.0" r="2.96" fill="#d4862a" opacity="0.26"/><circle cx="1038.0" cy="244.3" r="2.87" fill="#d4862a" opacity="0.33"/><circle cx="1074.2" cy="243.0" r="2.11" fill="#d4862a" opacity="0.33"/><circle cx="1109.1" cy="243.9" r="2.16" fill="#d4862a" opacity="0.33"/><circle cx="1146.5" cy="246.4" r="2.99" fill="#d4862a" opacity="0.34"/><circle cx="1181.7" cy="243.3" r="3.93" fill="#d4862a" opacity="0.30"/><circle cx="29.0" cy="280.9" r="3.24" fill="#d4862a" opacity="0.21"/><circle cx="63.1" cy="282.3" r="3.29" fill="#d4862a" opacity="0.19"/><circle cx="104.9" cy="283.4" r="2.07" fill="#d4862a" opacity="0.36"/><circle cx="139.0" cy="283.7" r="2.68" fill="#d4862a" opacity="0.33"/><circle cx="172.0" cy="280.1" r="3.17" fill="#d4862a" opacity="0.36"/><circle cx="211.2" cy="283.1" r="3.17" fill="#d4862a" opacity="0.35"/><circle cx="248.8" cy="281.2" r="1.91" fill="#d4862a" opacity="0.18"/><circle cx="279.1" cy="282.5" r="2.17" fill="#d4862a" opacity="0.28"/><circle cx="317.3" cy="280.6" r="3.09" fill="#d4862a" opacity="0.33"/><circle cx="355.3" cy="284.5" r="1.66" fill="#d4862a" opacity="0.20"/><circle cx="390.3" cy="279.1" r="3.45" fill="#d4862a" opacity="0.18"/><circle cx="427.9" cy="280.8" r="2.96" fill="#d4862a" opacity="0.22"/><circle cx="464.2" cy="279.1" r="2.17" fill="#d4862a" opacity="0.16"/><circle cx="499.5" cy="282.2" r="3.87" fill="#d4862a" opacity="0.35"/><circle cx="535.4" cy="281.6" r="3.77" fill="#d4862a" opacity="0.28"/><circle cx="567.4" cy="281.3" r="3.60" fill="#d4862a" opacity="0.30"/><circle cx="604.0" cy="280.7" r="3.18" fill="#d4862a" opacity="0.20"/><circle cx="639.6" cy="279.7" r="2.00" fill="#d4862a" opacity="0.29"/><circle cx="680.4" cy="283.0" r="3.56" fill="#d4862a" opacity="0.20"/><circle cx="713.5" cy="282.8" r="2.50" fill="#d4862a" opacity="0.24"/><circle cx="749.2" cy="282.1" r="1.87" fill="#d4862a" opacity="0.30"/><circle cx="785.1" cy="282.3" r="3.70" fill="#d4862a" opacity="0.33"/><circle cx="821.0" cy="284.6" r="2.22" fill="#d4862a" opacity="0.22"/><circle cx="859.3" cy="280.8" r="2.71" fill="#d4862a" opacity="0.30"/><circle cx="894.5" cy="282.1" r="3.20" fill="#d4862a" opacity="0.30"/><circle cx="932.4" cy="280.1" r="2.61" fill="#d4862a" opacity="0.19"/><circle cx="965.0" cy="281.1" r="3.16" fill="#d4862a" opacity="0.17"/><circle cx="1000.7" cy="282.9" r="3.71" fill="#d4862a" opacity="0.29"/><circle cx="1038.6" cy="282.0" r="2.41" fill="#d4862a" opacity="0.27"/><circle cx="1071.5" cy="281.0" r="2.23" fill="#d4862a" opacity="0.16"/><circle cx="1109.9" cy="279.7" r="2.85" fill="#d4862a" opacity="0.23"/><circle cx="1146.1" cy="279.8" r="2.51" fill="#d4862a" opacity="0.22"/><circle cx="1179.8" cy="282.0" r="3.22" fill="#d4862a" opacity="0.20"/><circle cx="30.6" cy="319.4" r="3.83" fill="#d4862a" opacity="0.17"/><circle cx="64.8" cy="315.7" r="3.39" fill="#d4862a" opacity="0.24"/><circle cx="99.8" cy="320.3" r="2.81" fill="#d4862a" opacity="0.23"/><circle cx="136.4" cy="316.9" r="3.94" fill="#d4862a" opacity="0.22"/><circle cx="173.4" cy="317.7" r="4.00" fill="#d4862a" opacity="0.18"/><circle cx="211.9" cy="320.0" r="2.86" fill="#d4862a" opacity="0.25"/><circle cx="247.5" cy="318.5" r="2.53" fill="#d4862a" opacity="0.20"/><circle cx="282.0" cy="318.5" r="1.88" fill="#d4862a" opacity="0.26"/><circle cx="318.7" cy="318.1" r="3.83" fill="#d4862a" opacity="0.21"/><circle cx="352.0" cy="318.1" r="2.67" fill="#d4862a" opacity="0.18"/><circle cx="387.4" cy="318.5" r="2.47" fill="#d4862a" opacity="0.25"/><circle cx="425.4" cy="317.5" r="2.99" fill="#d4862a" opacity="0.17"/><circle cx="462.0" cy="317.5" r="2.67" fill="#d4862a" opacity="0.27"/><circle cx="495.8" cy="319.5" r="2.71" fill="#d4862a" opacity="0.33"/><circle cx="536.5" cy="315.3" r="3.05" fill="#d4862a" opacity="0.28"/><circle cx="572.9" cy="320.8" r="2.08" fill="#d4862a" opacity="0.24"/><circle cx="605.9" cy="316.7" r="2.77" fill="#d4862a" opacity="0.26"/><circle cx="644.2" cy="315.1" r="2.02" fill="#d4862a" opacity="0.21"/><circle cx="680.9" cy="317.4" r="3.10" fill="#d4862a" opacity="0.34"/><circle cx="711.9" cy="316.2" r="2.43" fill="#d4862a" opacity="0.26"/><circle cx="752.1" cy="319.8" r="2.49" fill="#d4862a" opacity="0.35"/><circle cx="788.5" cy="320.9" r="1.95" fill="#d4862a" opacity="0.18"/><circle cx="823.3" cy="317.7" r="3.79" fill="#d4862a" opacity="0.28"/><circle cx="856.5" cy="318.2" r="1.64" fill="#d4862a" opacity="0.18"/><circle cx="891.3" cy="316.7" r="2.58" fill="#d4862a" opacity="0.27"/><circle cx="929.6" cy="317.4" r="1.92" fill="#d4862a" opacity="0.28"/><circle cx="968.9" cy="318.0" r="3.76" fill="#d4862a" opacity="0.36"/><circle cx="999.5" cy="319.8" r="2.07" fill="#d4862a" opacity="0.29"/><circle cx="1038.4" cy="317.9" r="2.26" fill="#d4862a" opacity="0.15"/><circle cx="1071.6" cy="318.7" r="2.53" fill="#d4862a" opacity="0.18"/><circle cx="1108.2" cy="320.7" r="2.68" fill="#d4862a" opacity="0.22"/><circle cx="1143.4" cy="319.1" r="2.72" fill="#d4862a" opacity="0.16"/><circle cx="1181.0" cy="319.5" r="2.56" fill="#d4862a" opacity="0.16"/><circle cx="32.0" cy="356.5" r="3.48" fill="#d4862a" opacity="0.18"/><circle cx="65.9" cy="353.9" r="3.01" fill="#d4862a" opacity="0.26"/><circle cx="99.3" cy="354.2" r="1.69" fill="#d4862a" opacity="0.28"/><circle cx="135.7" cy="353.1" r="3.03" fill="#d4862a" opacity="0.21"/><circle cx="175.4" cy="353.5" r="2.49" fill="#d4862a" opacity="0.21"/><circle cx="208.6" cy="354.0" r="1.99" fill="#d4862a" opacity="0.25"/><circle cx="245.0" cy="355.1" r="3.56" fill="#d4862a" opacity="0.21"/><circle cx="282.4" cy="355.1" r="2.96" fill="#d4862a" opacity="0.29"/><circle cx="320.5" cy="354.6" r="2.07" fill="#d4862a" opacity="0.29"/><circle cx="356.0" cy="351.2" r="2.85" fill="#d4862a" opacity="0.17"/><circle cx="389.0" cy="356.1" r="2.17" fill="#d4862a" opacity="0.26"/><circle cx="424.8" cy="356.6" r="2.32" fill="#d4862a" opacity="0.30"/><circle cx="462.6" cy="354.8" r="3.15" fill="#d4862a" opacity="0.18"/><circle cx="500.3" cy="353.6" r="2.76" fill="#d4862a" opacity="0.29"/><circle cx="531.5" cy="352.7" r="2.72" fill="#d4862a" opacity="0.25"/><circle cx="567.5" cy="356.5" r="2.99" fill="#d4862a" opacity="0.34"/><circle cx="605.5" cy="355.4" r="3.73" fill="#d4862a" opacity="0.26"/><circle cx="642.9" cy="356.9" r="3.60" fill="#d4862a" opacity="0.25"/><circle cx="680.4" cy="355.4" r="2.83" fill="#d4862a" opacity="0.35"/><circle cx="712.2" cy="355.0" r="3.58" fill="#d4862a" opacity="0.22"/><circle cx="748.3" cy="352.5" r="3.27" fill="#d4862a" opacity="0.28"/><circle cx="786.1" cy="352.9" r="2.04" fill="#d4862a" opacity="0.24"/><circle cx="822.4" cy="353.6" r="3.92" fill="#d4862a" opacity="0.35"/><circle cx="858.4" cy="352.5" r="2.02" fill="#d4862a" opacity="0.22"/><circle cx="893.4" cy="354.2" r="3.38" fill="#d4862a" opacity="0.21"/><circle cx="927.3" cy="356.9" r="3.19" fill="#d4862a" opacity="0.15"/><circle cx="967.0" cy="351.0" r="3.93" fill="#d4862a" opacity="0.36"/><circle cx="1002.0" cy="356.1" r="2.09" fill="#d4862a" opacity="0.18"/><circle cx="1035.9" cy="354.0" r="1.74" fill="#d4862a" opacity="0.21"/><circle cx="1072.6" cy="353.1" r="2.74" fill="#d4862a" opacity="0.19"/><circle cx="1110.0" cy="355.7" r="3.73" fill="#d4862a" opacity="0.17"/><circle cx="1148.9" cy="352.8" r="3.56" fill="#d4862a" opacity="0.30"/><circle cx="1180.0" cy="352.5" r="1.98" fill="#d4862a" opacity="0.36"/><circle cx="31.8" cy="388.9" r="2.66" fill="#d4862a" opacity="0.22"/><circle cx="66.4" cy="389.3" r="3.25" fill="#d4862a" opacity="0.25"/><circle cx="99.3" cy="390.5" r="2.52" fill="#d4862a" opacity="0.35"/><circle cx="135.3" cy="391.3" r="2.40" fill="#d4862a" opacity="0.25"/><circle cx="171.4" cy="390.1" r="3.02" fill="#d4862a" opacity="0.25"/><circle cx="207.6" cy="388.7" r="2.47" fill="#d4862a" opacity="0.25"/><circle cx="245.7" cy="388.9" r="2.14" fill="#d4862a" opacity="0.33"/><circle cx="279.3" cy="392.7" r="1.85" fill="#d4862a" opacity="0.23"/><circle cx="320.0" cy="389.8" r="3.70" fill="#d4862a" opacity="0.34"/><circle cx="353.7" cy="389.8" r="2.71" fill="#d4862a" opacity="0.27"/><circle cx="392.3" cy="390.1" r="1.96" fill="#d4862a" opacity="0.21"/><circle cx="424.1" cy="391.3" r="2.88" fill="#d4862a" opacity="0.24"/><circle cx="462.6" cy="387.3" r="3.72" fill="#d4862a" opacity="0.16"/><circle cx="497.5" cy="388.1" r="3.45" fill="#d4862a" opacity="0.35"/><circle cx="532.7" cy="387.4" r="3.83" fill="#d4862a" opacity="0.28"/><circle cx="572.9" cy="389.1" r="3.94" fill="#d4862a" opacity="0.28"/><circle cx="607.3" cy="391.5" r="2.24" fill="#d4862a" opacity="0.33"/><circle cx="639.5" cy="389.2" r="2.81" fill="#d4862a" opacity="0.36"/><circle cx="675.4" cy="392.2" r="1.93" fill="#d4862a" opacity="0.18"/><circle cx="713.5" cy="387.7" r="3.41" fill="#d4862a" opacity="0.21"/><circle cx="750.4" cy="387.5" r="1.98" fill="#d4862a" opacity="0.16"/><circle cx="784.9" cy="390.0" r="2.12" fill="#d4862a" opacity="0.19"/><circle cx="822.2" cy="391.7" r="3.76" fill="#d4862a" opacity="0.29"/><circle cx="859.3" cy="391.2" r="2.20" fill="#d4862a" opacity="0.25"/><circle cx="897.0" cy="390.6" r="2.28" fill="#d4862a" opacity="0.24"/><circle cx="928.6" cy="392.3" r="2.55" fill="#d4862a" opacity="0.33"/><circle cx="965.7" cy="391.8" r="2.77" fill="#d4862a" opacity="0.33"/><circle cx="1002.6" cy="387.5" r="2.83" fill="#d4862a" opacity="0.34"/><circle cx="1037.6" cy="392.4" r="2.16" fill="#d4862a" opacity="0.26"/><circle cx="1072.8" cy="391.6" r="2.86" fill="#d4862a" opacity="0.21"/><circle cx="1107.2" cy="390.8" r="1.80" fill="#d4862a" opacity="0.24"/><circle cx="1146.1" cy="390.9" r="3.67" fill="#d4862a" opacity="0.22"/><circle cx="1181.8" cy="391.7" r="3.93" fill="#d4862a" opacity="0.24"/><circle cx="29.8" cy="424.8" r="3.07" fill="#d4862a" opacity="0.32"/><circle cx="68.2" cy="428.3" r="2.12" fill="#d4862a" opacity="0.25"/><circle cx="104.0" cy="427.1" r="1.66" fill="#d4862a" opacity="0.18"/><circle cx="139.9" cy="427.7" r="2.60" fill="#d4862a" opacity="0.33"/><circle cx="172.1" cy="424.0" r="2.13" fill="#d4862a" opacity="0.18"/><circle cx="212.5" cy="425.4" r="2.64" fill="#d4862a" opacity="0.18"/><circle cx="246.9" cy="428.2" r="2.42" fill="#d4862a" opacity="0.31"/><circle cx="281.1" cy="425.8" r="3.03" fill="#d4862a" opacity="0.26"/><circle cx="317.7" cy="423.5" r="2.79" fill="#d4862a" opacity="0.31"/><circle cx="352.3" cy="428.2" r="3.11" fill="#d4862a" opacity="0.23"/><circle cx="392.6" cy="426.1" r="3.17" fill="#d4862a" opacity="0.21"/><circle cx="427.1" cy="424.6" r="2.73" fill="#d4862a" opacity="0.25"/><circle cx="464.8" cy="426.8" r="2.42" fill="#d4862a" opacity="0.27"/><circle cx="497.5" cy="427.1" r="2.57" fill="#d4862a" opacity="0.36"/><circle cx="532.8" cy="426.3" r="1.88" fill="#d4862a" opacity="0.36"/><circle cx="568.1" cy="424.9" r="2.91" fill="#d4862a" opacity="0.26"/><circle cx="606.0" cy="425.5" r="2.66" fill="#d4862a" opacity="0.21"/><circle cx="642.6" cy="427.2" r="2.23" fill="#d4862a" opacity="0.34"/><circle cx="677.9" cy="423.4" r="3.07" fill="#d4862a" opacity="0.29"/><circle cx="713.9" cy="423.8" r="2.29" fill="#d4862a" opacity="0.29"/><circle cx="750.0" cy="427.6" r="2.79" fill="#d4862a" opacity="0.26"/><circle cx="785.0" cy="426.8" r="3.16" fill="#d4862a" opacity="0.26"/><circle cx="824.3" cy="424.1" r="3.13" fill="#d4862a" opacity="0.30"/><circle cx="859.2" cy="424.2" r="2.76" fill="#d4862a" opacity="0.28"/><circle cx="892.5" cy="425.5" r="2.91" fill="#d4862a" opacity="0.16"/><circle cx="929.7" cy="427.5" r="3.37" fill="#d4862a" opacity="0.21"/><circle cx="963.5" cy="426.0" r="2.98" fill="#d4862a" opacity="0.15"/><circle cx="1001.9" cy="427.8" r="3.46" fill="#d4862a" opacity="0.31"/><circle cx="1036.3" cy="427.4" r="1.66" fill="#d4862a" opacity="0.24"/><circle cx="1071.3" cy="425.0" r="2.29" fill="#d4862a" opacity="0.26"/><circle cx="1108.7" cy="426.6" r="3.95" fill="#d4862a" opacity="0.32"/><circle cx="1149.0" cy="424.9" r="2.27" fill="#d4862a" opacity="0.28"/><circle cx="1184.5" cy="424.6" r="1.70" fill="#d4862a" opacity="0.35"/><circle cx="28.4" cy="461.6" r="3.48" fill="#d4862a" opacity="0.20"/><circle cx="63.8" cy="459.3" r="3.53" fill="#d4862a" opacity="0.30"/><circle cx="101.5" cy="459.1" r="3.61" fill="#d4862a" opacity="0.19"/><circle cx="137.3" cy="463.0" r="3.69" fill="#d4862a" opacity="0.31"/><circle cx="173.7" cy="460.6" r="2.08" fill="#d4862a" opacity="0.33"/><circle cx="209.1" cy="461.9" r="1.69" fill="#d4862a" opacity="0.32"/><circle cx="246.9" cy="461.5" r="2.56" fill="#d4862a" opacity="0.17"/><circle cx="284.7" cy="460.5" r="2.43" fill="#d4862a" opacity="0.19"/><circle cx="319.6" cy="464.3" r="2.87" fill="#d4862a" opacity="0.17"/><circle cx="353.3" cy="465.0" r="3.02" fill="#d4862a" opacity="0.25"/><circle cx="388.6" cy="459.5" r="2.68" fill="#d4862a" opacity="0.27"/><circle cx="423.0" cy="461.3" r="1.88" fill="#d4862a" opacity="0.28"/><circle cx="459.1" cy="459.9" r="2.31" fill="#d4862a" opacity="0.27"/><circle cx="500.9" cy="463.5" r="3.41" fill="#d4862a" opacity="0.17"/><circle cx="534.9" cy="460.1" r="1.79" fill="#d4862a" opacity="0.33"/><circle cx="571.6" cy="462.1" r="2.24" fill="#d4862a" opacity="0.25"/><circle cx="608.8" cy="462.1" r="3.85" fill="#d4862a" opacity="0.19"/><circle cx="642.7" cy="464.7" r="3.74" fill="#d4862a" opacity="0.32"/><circle cx="678.6" cy="459.4" r="3.05" fill="#d4862a" opacity="0.16"/><circle cx="713.2" cy="460.3" r="3.11" fill="#d4862a" opacity="0.16"/><circle cx="749.9" cy="462.2" r="1.67" fill="#d4862a" opacity="0.30"/><circle cx="783.4" cy="459.0" r="3.84" fill="#d4862a" opacity="0.22"/><circle cx="824.6" cy="462.0" r="2.24" fill="#d4862a" opacity="0.31"/><circle cx="858.2" cy="461.9" r="3.31" fill="#d4862a" opacity="0.30"/><circle cx="895.2" cy="464.3" r="3.65" fill="#d4862a" opacity="0.31"/><circle cx="928.9" cy="459.3" r="2.22" fill="#d4862a" opacity="0.16"/><circle cx="964.1" cy="463.6" r="3.10" fill="#d4862a" opacity="0.27"/><circle cx="1004.2" cy="465.0" r="3.58" fill="#d4862a" opacity="0.27"/><circle cx="1038.4" cy="462.7" r="3.08" fill="#d4862a" opacity="0.33"/><circle cx="1073.2" cy="460.8" r="1.74" fill="#d4862a" opacity="0.24"/><circle cx="1112.4" cy="459.9" r="3.59" fill="#d4862a" opacity="0.34"/><circle cx="1146.3" cy="464.3" r="2.86" fill="#d4862a" opacity="0.24"/><circle cx="1179.3" cy="463.2" r="3.74" fill="#d4862a" opacity="0.35"/><circle cx="32.7" cy="495.7" r="2.87" fill="#d4862a" opacity="0.33"/><circle cx="68.9" cy="498.2" r="3.08" fill="#d4862a" opacity="0.26"/><circle cx="101.6" cy="499.3" r="3.73" fill="#d4862a" opacity="0.18"/><circle cx="137.5" cy="500.8" r="3.65" fill="#d4862a" opacity="0.24"/><circle cx="171.6" cy="499.2" r="3.71" fill="#d4862a" opacity="0.32"/><circle cx="211.5" cy="496.8" r="3.47" fill="#d4862a" opacity="0.28"/><circle cx="246.4" cy="500.5" r="3.93" fill="#d4862a" opacity="0.28"/><circle cx="283.6" cy="497.7" r="3.60" fill="#d4862a" opacity="0.28"/><circle cx="317.5" cy="496.6" r="3.52" fill="#d4862a" opacity="0.16"/><circle cx="353.3" cy="496.2" r="2.01" fill="#d4862a" opacity="0.36"/><circle cx="390.3" cy="501.0" r="2.19" fill="#d4862a" opacity="0.25"/><circle cx="424.4" cy="497.8" r="3.17" fill="#d4862a" opacity="0.16"/><circle cx="464.5" cy="496.1" r="1.90" fill="#d4862a" opacity="0.16"/><circle cx="499.9" cy="499.8" r="3.88" fill="#d4862a" opacity="0.16"/><circle cx="535.8" cy="496.5" r="2.89" fill="#d4862a" opacity="0.31"/><circle cx="572.4" cy="498.1" r="3.87" fill="#d4862a" opacity="0.25"/><circle cx="608.7" cy="499.8" r="1.85" fill="#d4862a" opacity="0.33"/><circle cx="643.0" cy="500.0" r="1.90" fill="#d4862a" opacity="0.28"/><circle cx="675.1" cy="498.6" r="2.43" fill="#d4862a" opacity="0.25"/><circle cx="711.9" cy="500.1" r="2.90" fill="#d4862a" opacity="0.30"/><circle cx="747.2" cy="500.3" r="3.43" fill="#d4862a" opacity="0.29"/><circle cx="784.7" cy="498.7" r="3.85" fill="#d4862a" opacity="0.26"/><circle cx="819.6" cy="495.2" r="2.09" fill="#d4862a" opacity="0.21"/><circle cx="860.8" cy="496.8" r="2.84" fill="#d4862a" opacity="0.15"/><circle cx="896.4" cy="496.7" r="1.88" fill="#d4862a" opacity="0.20"/><circle cx="927.8" cy="500.5" r="3.09" fill="#d4862a" opacity="0.15"/><circle cx="967.9" cy="497.8" r="2.92" fill="#d4862a" opacity="0.25"/><circle cx="1002.9" cy="499.7" r="1.92" fill="#d4862a" opacity="0.28"/><circle cx="1037.0" cy="498.2" r="2.29" fill="#d4862a" opacity="0.22"/><circle cx="1075.1" cy="495.0" r="2.24" fill="#d4862a" opacity="0.28"/><circle cx="1111.4" cy="496.7" r="2.68" fill="#d4862a" opacity="0.28"/><circle cx="1147.4" cy="497.8" r="3.34" fill="#d4862a" opacity="0.26"/><circle cx="1185.0" cy="498.4" r="1.78" fill="#d4862a" opacity="0.16"/><circle cx="28.5" cy="533.5" r="2.31" fill="#d4862a" opacity="0.19"/><circle cx="66.8" cy="532.8" r="3.23" fill="#d4862a" opacity="0.15"/><circle cx="99.9" cy="531.1" r="2.91" fill="#d4862a" opacity="0.29"/><circle cx="137.9" cy="535.0" r="2.71" fill="#d4862a" opacity="0.26"/><circle cx="174.2" cy="535.6" r="2.43" fill="#d4862a" opacity="0.20"/><circle cx="209.1" cy="531.5" r="3.94" fill="#d4862a" opacity="0.31"/><circle cx="244.9" cy="532.5" r="3.14" fill="#d4862a" opacity="0.35"/><circle cx="283.2" cy="534.0" r="3.93" fill="#d4862a" opacity="0.19"/><circle cx="315.1" cy="533.3" r="2.44" fill="#d4862a" opacity="0.34"/><circle cx="357.0" cy="531.7" r="1.78" fill="#d4862a" opacity="0.28"/><circle cx="388.5" cy="531.3" r="2.10" fill="#d4862a" opacity="0.34"/><circle cx="426.2" cy="536.0" r="2.65" fill="#d4862a" opacity="0.23"/><circle cx="460.8" cy="531.6" r="3.39" fill="#d4862a" opacity="0.24"/><circle cx="500.0" cy="532.9" r="2.73" fill="#d4862a" opacity="0.21"/><circle cx="532.9" cy="535.0" r="3.04" fill="#d4862a" opacity="0.35"/><circle cx="570.6" cy="531.3" r="3.05" fill="#d4862a" opacity="0.32"/><circle cx="607.0" cy="535.7" r="3.34" fill="#d4862a" opacity="0.25"/><circle cx="642.8" cy="533.1" r="3.49" fill="#d4862a" opacity="0.34"/><circle cx="678.3" cy="536.0" r="2.93" fill="#d4862a" opacity="0.26"/><circle cx="716.8" cy="531.9" r="1.96" fill="#d4862a" opacity="0.25"/><circle cx="751.0" cy="533.8" r="3.22" fill="#d4862a" opacity="0.18"/><circle cx="785.4" cy="531.5" r="2.25" fill="#d4862a" opacity="0.16"/><circle cx="822.1" cy="536.8" r="2.85" fill="#d4862a" opacity="0.30"/><circle cx="857.6" cy="531.9" r="3.27" fill="#d4862a" opacity="0.29"/><circle cx="891.9" cy="531.8" r="3.34" fill="#d4862a" opacity="0.33"/><circle cx="932.9" cy="533.2" r="2.79" fill="#d4862a" opacity="0.35"/><circle cx="965.4" cy="531.2" r="3.78" fill="#d4862a" opacity="0.29"/><circle cx="1003.1" cy="532.8" r="1.68" fill="#d4862a" opacity="0.33"/><circle cx="1038.8" cy="533.0" r="1.75" fill="#d4862a" opacity="0.29"/><circle cx="1073.6" cy="536.7" r="3.20" fill="#d4862a" opacity="0.29"/><circle cx="1111.8" cy="535.8" r="3.56" fill="#d4862a" opacity="0.16"/><circle cx="1147.9" cy="531.1" r="1.94" fill="#d4862a" opacity="0.28"/><circle cx="1181.8" cy="534.5" r="2.85" fill="#d4862a" opacity="0.25"/><circle cx="27.8" cy="567.1" r="2.74" fill="#d4862a" opacity="0.18"/><circle cx="67.6" cy="568.0" r="1.97" fill="#d4862a" opacity="0.28"/><circle cx="102.0" cy="570.9" r="2.80" fill="#d4862a" opacity="0.18"/><circle cx="136.9" cy="570.4" r="2.36" fill="#d4862a" opacity="0.24"/><circle cx="174.4" cy="568.1" r="2.94" fill="#d4862a" opacity="0.23"/><circle cx="207.6" cy="570.7" r="2.22" fill="#d4862a" opacity="0.27"/><circle cx="244.9" cy="568.4" r="1.76" fill="#d4862a" opacity="0.24"/><circle cx="281.9" cy="572.9" r="3.32" fill="#d4862a" opacity="0.15"/><circle cx="318.2" cy="571.7" r="2.65" fill="#d4862a" opacity="0.17"/><circle cx="354.2" cy="568.2" r="2.58" fill="#d4862a" opacity="0.29"/><circle cx="391.8" cy="568.4" r="3.44" fill="#d4862a" opacity="0.35"/><circle cx="425.2" cy="569.8" r="3.59" fill="#d4862a" opacity="0.28"/><circle cx="459.0" cy="567.5" r="2.97" fill="#d4862a" opacity="0.22"/><circle cx="497.3" cy="569.3" r="3.09" fill="#d4862a" opacity="0.24"/><circle cx="535.3" cy="567.3" r="2.74" fill="#d4862a" opacity="0.27"/><circle cx="571.3" cy="569.4" r="2.89" fill="#d4862a" opacity="0.35"/><circle cx="606.3" cy="568.4" r="3.13" fill="#d4862a" opacity="0.24"/><circle cx="639.3" cy="572.0" r="1.89" fill="#d4862a" opacity="0.27"/><circle cx="676.9" cy="571.8" r="3.40" fill="#d4862a" opacity="0.29"/><circle cx="712.3" cy="570.4" r="2.19" fill="#d4862a" opacity="0.22"/><circle cx="748.6" cy="572.0" r="2.65" fill="#d4862a" opacity="0.27"/><circle cx="788.5" cy="570.2" r="2.01" fill="#d4862a" opacity="0.33"/><circle cx="824.4" cy="572.1" r="2.94" fill="#d4862a" opacity="0.25"/><circle cx="859.7" cy="572.2" r="3.99" fill="#d4862a" opacity="0.17"/><circle cx="893.9" cy="572.4" r="2.14" fill="#d4862a" opacity="0.18"/><circle cx="928.4" cy="571.9" r="2.33" fill="#d4862a" opacity="0.19"/><circle cx="964.1" cy="567.4" r="2.08" fill="#d4862a" opacity="0.23"/><circle cx="1002.5" cy="571.8" r="3.48" fill="#d4862a" opacity="0.24"/><circle cx="1038.5" cy="570.3" r="3.05" fill="#d4862a" opacity="0.20"/><circle cx="1072.1" cy="569.9" r="3.26" fill="#d4862a" opacity="0.31"/><circle cx="1111.2" cy="572.3" r="2.94" fill="#d4862a" opacity="0.27"/><circle cx="1148.8" cy="570.9" r="1.73" fill="#d4862a" opacity="0.35"/><circle cx="1184.6" cy="569.9" r="3.33" fill="#d4862a" opacity="0.23"/><circle cx="27.4" cy="606.3" r="1.85" fill="#d4862a" opacity="0.21"/><circle cx="67.8" cy="605.5" r="2.92" fill="#d4862a" opacity="0.34"/><circle cx="99.7" cy="604.6" r="2.39" fill="#d4862a" opacity="0.35"/><circle cx="140.6" cy="604.2" r="2.87" fill="#d4862a" opacity="0.33"/><circle cx="171.8" cy="607.8" r="3.74" fill="#d4862a" opacity="0.31"/><circle cx="211.3" cy="607.0" r="3.26" fill="#d4862a" opacity="0.22"/><circle cx="244.0" cy="606.5" r="1.82" fill="#d4862a" opacity="0.28"/><circle cx="281.5" cy="607.0" r="3.68" fill="#d4862a" opacity="0.28"/><circle cx="319.5" cy="606.2" r="2.65" fill="#d4862a" opacity="0.23"/><circle cx="353.1" cy="605.4" r="2.12" fill="#d4862a" opacity="0.35"/><circle cx="389.5" cy="608.8" r="1.78" fill="#d4862a" opacity="0.16"/><circle cx="428.4" cy="605.6" r="2.37" fill="#d4862a" opacity="0.20"/><circle cx="462.5" cy="604.0" r="2.06" fill="#d4862a" opacity="0.35"/><circle cx="500.9" cy="608.5" r="3.12" fill="#d4862a" opacity="0.15"/><circle cx="531.5" cy="606.6" r="3.82" fill="#d4862a" opacity="0.33"/><circle cx="570.8" cy="606.9" r="1.84" fill="#d4862a" opacity="0.30"/><circle cx="604.6" cy="607.6" r="2.86" fill="#d4862a" opacity="0.16"/><circle cx="641.7" cy="608.2" r="3.43" fill="#d4862a" opacity="0.32"/><circle cx="678.4" cy="607.6" r="1.91" fill="#d4862a" opacity="0.23"/><circle cx="714.2" cy="606.0" r="2.48" fill="#d4862a" opacity="0.31"/><circle cx="752.9" cy="605.0" r="3.40" fill="#d4862a" opacity="0.16"/><circle cx="784.4" cy="604.3" r="2.44" fill="#d4862a" opacity="0.24"/><circle cx="821.9" cy="608.0" r="3.16" fill="#d4862a" opacity="0.36"/><circle cx="858.9" cy="608.5" r="2.89" fill="#d4862a" opacity="0.23"/><circle cx="894.1" cy="604.1" r="1.81" fill="#d4862a" opacity="0.20"/><circle cx="932.2" cy="605.2" r="3.54" fill="#d4862a" opacity="0.19"/><circle cx="967.9" cy="607.9" r="2.70" fill="#d4862a" opacity="0.29"/><circle cx="1003.0" cy="603.3" r="3.89" fill="#d4862a" opacity="0.19"/><circle cx="1040.9" cy="604.5" r="2.02" fill="#d4862a" opacity="0.19"/><circle cx="1074.1" cy="606.3" r="1.71" fill="#d4862a" opacity="0.26"/><circle cx="1111.3" cy="603.9" r="2.11" fill="#d4862a" opacity="0.16"/><circle cx="1143.6" cy="608.7" r="3.31" fill="#d4862a" opacity="0.27"/><circle cx="1181.4" cy="607.6" r="2.00" fill="#d4862a" opacity="0.20"/><circle cx="27.5" cy="641.6" r="2.70" fill="#d4862a" opacity="0.25"/><circle cx="63.8" cy="640.3" r="3.45" fill="#d4862a" opacity="0.29"/><circle cx="101.0" cy="644.0" r="3.30" fill="#d4862a" opacity="0.30"/><circle cx="139.2" cy="644.9" r="2.05" fill="#d4862a" opacity="0.24"/><circle cx="171.6" cy="639.2" r="2.02" fill="#d4862a" opacity="0.30"/><circle cx="208.8" cy="643.9" r="2.80" fill="#d4862a" opacity="0.26"/><circle cx="246.9" cy="644.5" r="1.70" fill="#d4862a" opacity="0.23"/><circle cx="283.9" cy="643.3" r="2.87" fill="#d4862a" opacity="0.29"/><circle cx="319.1" cy="640.2" r="3.73" fill="#d4862a" opacity="0.31"/><circle cx="351.7" cy="639.3" r="1.69" fill="#d4862a" opacity="0.33"/><circle cx="392.9" cy="641.8" r="2.34" fill="#d4862a" opacity="0.24"/><circle cx="425.1" cy="639.5" r="3.59" fill="#d4862a" opacity="0.19"/><circle cx="460.8" cy="641.1" r="1.72" fill="#d4862a" opacity="0.24"/><circle cx="496.3" cy="642.6" r="2.04" fill="#d4862a" opacity="0.23"/><circle cx="532.7" cy="644.0" r="2.14" fill="#d4862a" opacity="0.33"/><circle cx="568.7" cy="640.8" r="3.73" fill="#d4862a" opacity="0.21"/><circle cx="607.4" cy="642.8" r="3.99" fill="#d4862a" opacity="0.19"/><circle cx="641.5" cy="644.9" r="2.13" fill="#d4862a" opacity="0.30"/><circle cx="677.0" cy="642.1" r="2.76" fill="#d4862a" opacity="0.20"/><circle cx="711.0" cy="643.9" r="3.10" fill="#d4862a" opacity="0.32"/><circle cx="749.8" cy="642.5" r="3.97" fill="#d4862a" opacity="0.16"/><circle cx="783.5" cy="641.6" r="2.28" fill="#d4862a" opacity="0.18"/><circle cx="820.2" cy="643.4" r="1.98" fill="#d4862a" opacity="0.20"/><circle cx="860.9" cy="640.6" r="3.63" fill="#d4862a" opacity="0.26"/><circle cx="893.3" cy="644.7" r="3.66" fill="#d4862a" opacity="0.22"/><circle cx="928.8" cy="641.4" r="3.87" fill="#d4862a" opacity="0.21"/><circle cx="963.7" cy="642.4" r="3.21" fill="#d4862a" opacity="0.28"/><circle cx="1004.6" cy="639.1" r="2.22" fill="#d4862a" opacity="0.30"/><circle cx="1039.5" cy="644.0" r="3.14" fill="#d4862a" opacity="0.32"/><circle cx="1076.4" cy="643.0" r="1.67" fill="#d4862a" opacity="0.25"/><circle cx="1112.9" cy="641.1" r="3.24" fill="#d4862a" opacity="0.30"/><circle cx="1143.0" cy="644.7" r="1.64" fill="#d4862a" opacity="0.16"/><circle cx="1184.4" cy="643.4" r="1.84" fill="#d4862a" opacity="0.19"/><circle cx="273.0" cy="209.1" r="220" fill="url(#glow)" opacity="0.9"/>
  <g opacity="0.85" transform="translate(1020, 495)">
        <rect x="-46" y="-60" width="92" height="115" fill="#d4862a" opacity="0.18" rx="6"/>
        <path d="M -28 -36 L 28 -36 M -28 -12 L 28 -12 M -28 12 L 18 12 M -28 36 L 28 36" stroke="#bd6b20" stroke-width="3" stroke-linecap="round"/>
      </g>
  <g transform="translate(80, 90)">
    <rect x="0" y="0" rx="20" ry="20" width="101" height="38" fill="#d4862a" opacity="0.18" stroke="#d4862a" stroke-width="1.5"/>
    <text x="50.5" y="25" font-family="ui-sans-serif, Inter, sans-serif" font-weight="700" font-size="14" letter-spacing="2.5" fill="#d4862a" text-anchor="middle">ARTICLE</text>
  </g>
  <text x="80" y="465" font-family="ui-sans-serif, -apple-system, Segoe UI, Inter, sans-serif" font-weight="800" font-size="44" fill="#faf8f5" opacity="0.98"><tspan x="80" dy="0">Quick &amp; Effective Dispute</tspan><tspan x="80" dy="56">Resolution for Banks,</tspan><tspan x="80" dy="56">NBFCs, MSMEs</tspan></text>
  <rect x="0" y="669" width="1200" height="6" fill="url(#gold)"/>
</svg>