<?xml version="1.0" encoding="UTF-8"?>
<svg xmlns="http://www.w3.org/2000/svg" viewBox="0 0 1200 675" width="1200" height="675" role="img" aria-label="PDR COURT celebrates World Day for International Justice">
  <defs>
    <linearGradient id="bg" x1="0%" y1="0%" x2="100%" y2="100%">
      <stop offset="0%" stop-color="#532d15"/>
      <stop offset="100%" stop-color="#bd6b20"/>
    </linearGradient>
    <linearGradient id="gold" x1="0%" y1="0%" x2="100%" y2="100%">
      <stop offset="0%" stop-color="#e09440"/>
      <stop offset="100%" stop-color="#fdf6ee"/>
    </linearGradient>
    <radialGradient id="glow" cx="50%" cy="50%" r="50%">
      <stop offset="0%" stop-color="#e09440" stop-opacity="0.45"/>
      <stop offset="100%" stop-color="#e09440" stop-opacity="0"/>
    </radialGradient>
  </defs>
  <rect width="1200" height="675" fill="url(#bg)"/>
  <polygon points="491.3,395.7 645.9,327.4 758.7,453.3 673.7,599.5 508.5,563.8" fill="#fdf6ee" opacity="0.08"/><polygon points="851.8,-7.3 875.8,166.4 702.1,190.4 678.1,16.7" fill="#fdf6ee" opacity="0.11"/><polygon points="539.4,247.7 492.2,339.7 400.2,292.5 447.4,200.5" fill="#fdf6ee" opacity="0.11"/><polygon points="950.8,557.3 837.4,536.8 857.8,423.4 971.2,443.8" fill="#fdf6ee" opacity="0.15"/><polygon points="670.7,186.0 571.9,177.4 549.6,80.8 634.6,29.7 709.5,94.8" fill="#fdf6ee" opacity="0.19"/><polygon points="195.5,101.4 222.2,0.7 322.9,27.4 296.2,128.1" fill="#fdf6ee" opacity="0.08"/><polygon points="251.9,-73.4 359.0,50.0 198.6,81.1" fill="#fdf6ee" opacity="0.08"/><polygon points="313.8,-8.2 167.5,120.1 129.5,-70.8" fill="#fdf6ee" opacity="0.06"/><polygon points="867.0,681.4 680.3,752.0 555.4,596.3 664.9,429.4 857.5,482.0" fill="#fdf6ee" opacity="0.10"/><polygon points="369.1,147.5 327.4,426.2 106.9,250.8" fill="#fdf6ee" opacity="0.14"/><polygon points="724.4,767.7 540.8,655.0 730.2,552.3" fill="#fdf6ee" opacity="0.17"/><polygon points="127.7,704.8 122.0,637.0 184.7,610.5 229.3,662.0 194.0,720.3" fill="#fdf6ee" opacity="0.11"/><polygon points="690.9,200.5 776.1,128.3 871.1,186.9 844.7,295.4 733.4,303.8" fill="#fdf6ee" opacity="0.19"/><polygon points="106.7,562.3 183.6,635.2 82.0,665.3" fill="#fdf6ee" opacity="0.15"/><circle cx="936.0" cy="202.5" r="180" fill="url(#glow)"/>
  <g opacity="0.85" transform="translate(1020, 495)">
        <rect x="-46" y="-60" width="92" height="115" fill="#e09440" opacity="0.18" rx="6"/>
        <path d="M -28 -36 L 28 -36 M -28 -12 L 28 -12 M -28 12 L 18 12 M -28 36 L 28 36" stroke="#fdf6ee" stroke-width="3" stroke-linecap="round"/>
      </g>
  <g transform="translate(80, 90)">
    <rect x="0" y="0" rx="20" ry="20" width="101" height="38" fill="#e09440" opacity="0.18" stroke="#e09440" stroke-width="1.5"/>
    <text x="50.5" y="25" font-family="ui-sans-serif, Inter, sans-serif" font-weight="700" font-size="14" letter-spacing="2.5" fill="#e09440" text-anchor="middle">ARTICLE</text>
  </g>
  <text x="80" y="465" font-family="ui-sans-serif, -apple-system, Segoe UI, Inter, sans-serif" font-weight="800" font-size="44" fill="#faf8f5" opacity="0.98"><tspan x="80" dy="0">PDR COURT celebrates World</tspan><tspan x="80" dy="56">Day for International</tspan><tspan x="80" dy="56">Justice</tspan></text>
  <rect x="0" y="669" width="1200" height="6" fill="url(#gold)"/>
</svg>