<?xml version="1.0" encoding="UTF-8"?>
<svg xmlns="http://www.w3.org/2000/svg" viewBox="0 0 1200 675" width="1200" height="675" role="img" aria-label="Resolving Disputes Through ADR: A Case Study of Label Supplier vs. Fashion Garment Store in Thane, Maharashtra">
  <defs>
    <linearGradient id="bg" x1="0%" y1="0%" x2="100%" y2="100%">
      <stop offset="0%" stop-color="#faf8f5"/>
      <stop offset="100%" stop-color="#f4efe8"/>
    </linearGradient>
    <linearGradient id="gold" x1="0%" y1="0%" x2="100%" y2="100%">
      <stop offset="0%" stop-color="#bd6b20"/>
      <stop offset="100%" stop-color="#9a5518"/>
    </linearGradient>
    <radialGradient id="glow" cx="50%" cy="50%" r="50%">
      <stop offset="0%" stop-color="#bd6b20" stop-opacity="0.45"/>
      <stop offset="100%" stop-color="#bd6b20" stop-opacity="0"/>
    </radialGradient>
  </defs>
  <rect width="1200" height="675" fill="url(#bg)"/>
  <polygon points="447.4,715.9 474.8,550.0 641.1,524.7 716.4,675.1 596.8,793.2" fill="#9a5518" opacity="0.06"/><polygon points="693.9,246.0 822.2,205.2 863.0,333.4 734.7,374.3" fill="#9a5518" opacity="0.14"/><polygon points="472.1,205.3 554.8,247.3 512.8,330.0 430.2,288.0" fill="#9a5518" opacity="0.07"/><polygon points="675.2,391.8 755.3,344.8 756.0,437.7" fill="#9a5518" opacity="0.16"/><polygon points="886.3,346.4 1120.7,178.8 1148.7,465.6" fill="#9a5518" opacity="0.09"/><polygon points="691.8,418.7 544.5,406.5 556.8,259.2 704.1,271.4" fill="#9a5518" opacity="0.07"/><polygon points="140.8,58.9 227.2,-43.7 329.7,42.7 243.4,145.2" fill="#9a5518" opacity="0.07"/><polygon points="476.0,258.1 655.0,238.2 729.2,402.4 596.0,523.6 439.6,434.4" fill="#9a5518" opacity="0.08"/><polygon points="1115.3,69.1 1056.8,176.1 949.9,117.6 1008.4,10.6" fill="#9a5518" opacity="0.09"/><polygon points="-5.9,706.7 -5.2,534.0 144.0,621.0" fill="#9a5518" opacity="0.14"/><polygon points="-99.4,135.0 6.4,6.5 161.2,67.4 151.2,233.5 -9.9,275.2" fill="#9a5518" opacity="0.18"/><polygon points="1101.4,578.7 1156.9,568.4 1183.7,618.0 1144.9,658.9 1094.0,634.6" fill="#9a5518" opacity="0.08"/><polygon points="105.0,752.9 92.6,577.1 251.0,654.3" fill="#9a5518" opacity="0.13"/><polygon points="27.4,416.8 102.1,412.0 129.8,481.6 72.1,529.4 8.8,489.3" fill="#9a5518" opacity="0.17"/><circle cx="936.0" cy="202.5" r="180" fill="url(#glow)"/>
  <g opacity="0.85" transform="translate(1020, 495)">
        <circle r="60" fill="#bd6b20" opacity="0.18"/>
        <path d="M -34 6 Q -10 -22 14 6 Q 34 24 14 26 L -22 26 Q -38 24 -34 6 Z" fill="none" stroke="#9a5518" stroke-width="3" stroke-linejoin="round"/>
      </g>
  <g transform="translate(80, 90)">
    <rect x="0" y="0" rx="20" ry="20" width="134" height="38" fill="#bd6b20" opacity="0.18" stroke="#bd6b20" stroke-width="1.5"/>
    <text x="67" y="25" font-family="ui-sans-serif, Inter, sans-serif" font-weight="700" font-size="14" letter-spacing="2.5" fill="#bd6b20" text-anchor="middle">CASE STUDY</text>
  </g>
  <text x="80" y="465" font-family="ui-sans-serif, -apple-system, Segoe UI, Inter, sans-serif" font-weight="800" font-size="44" fill="#12100e" opacity="0.98"><tspan x="80" dy="0">Resolving Disputes Through</tspan><tspan x="80" dy="56">ADR: A Case Study of Label</tspan><tspan x="80" dy="56">Supplier vs. Fashion</tspan></text>
  <rect x="0" y="669" width="1200" height="6" fill="url(#gold)"/>
</svg>