<?xml version="1.0" encoding="UTF-8"?>
<svg xmlns="http://www.w3.org/2000/svg" viewBox="0 0 1200 675" width="1200" height="675" role="img" aria-label="Dispute Resolution Centre | Debt Recovery through Arbitration | Employee
         Mediation">
  <defs>
    <linearGradient id="bg" x1="0%" y1="0%" x2="100%" y2="100%">
      <stop offset="0%" stop-color="#0c0a09"/>
      <stop offset="100%" stop-color="#291813"/>
    </linearGradient>
    <linearGradient id="gold" x1="0%" y1="0%" x2="100%" y2="100%">
      <stop offset="0%" stop-color="#d4862a"/>
      <stop offset="100%" stop-color="#bd6b20"/>
    </linearGradient>
    <radialGradient id="glow" cx="50%" cy="50%" r="50%">
      <stop offset="0%" stop-color="#d4862a" stop-opacity="0.45"/>
      <stop offset="100%" stop-color="#d4862a" stop-opacity="0"/>
    </radialGradient>
  </defs>
  <rect width="1200" height="675" fill="url(#bg)"/>
  <polygon points="-50,301.8 -20,310.6 10,319.0 40,326.7 70,333.6 100,339.5 130,344.2 160,347.8 190,350.0 220,350.9 250,350.3 280,348.4 310,345.2 340,340.8 370,335.1 400,328.5 430,321.0 460,312.7 490,304.0 520,294.9 550,285.7 580,276.6 610,267.7 640,259.4 670,251.7 700,244.9 730,239.0 760,234.4 790,230.9 820,228.7 850,228.0 880,228.6 910,230.5 940,233.8 970,238.3 1000,244.0 1030,250.7 1060,258.3 1090,266.6 1120,275.4 1150,284.5 1180,293.7 1210,302.8 1240,311.6 1250,725 -50,725" fill="#d4862a" opacity="0.08"/><polygon points="-50,329.5 -20,332.8 10,336.6 40,340.7 70,345.1 100,349.6 130,354.2 160,358.7 190,363.1 220,367.2 250,371.0 280,374.3 310,377.1 340,379.4 370,381.1 400,382.1 430,382.4 460,382.0 490,381.0 520,379.3 550,377.0 580,374.1 610,370.7 640,366.9 670,362.8 700,358.4 730,353.9 760,349.3 790,344.8 820,340.5 850,336.4 880,332.6 910,329.3 940,326.5 970,324.3 1000,322.6 1030,321.7 1060,321.4 1090,321.8 1120,322.9 1150,324.6 1180,327.0 1210,329.9 1240,333.3 1250,725 -50,725" fill="#d4862a" opacity="0.13"/><polygon points="-50,461.3 -20,470.9 10,478.9 40,485.3 70,489.9 100,492.6 130,493.2 160,491.9 190,488.6 220,483.5 250,476.5 280,468.0 310,458.0 340,446.8 370,434.6 400,421.8 430,408.6 460,395.3 490,382.2 520,369.6 550,357.8 580,347.0 610,337.5 640,329.6 670,323.3 700,318.8 730,316.2 760,315.7 790,317.1 820,320.5 850,325.8 880,332.8 910,341.5 940,351.5 970,362.8 1000,375.0 1030,387.8 1060,401.0 1090,414.3 1120,427.4 1150,440.0 1180,451.7 1210,462.4 1240,471.8 1250,725 -50,725" fill="#d4862a" opacity="0.18"/><polygon points="-50,555.8 -20,551.4 10,545.7 40,538.8 70,530.9 100,522.1 130,512.7 160,502.8 190,492.8 220,482.7 250,472.9 280,463.6 310,454.9 340,447.1 370,440.3 400,434.8 430,430.5 460,427.6 490,426.3 520,426.4 550,428.0 580,431.1 610,435.6 640,441.4 670,448.4 700,456.4 730,465.2 760,474.6 790,484.5 820,494.5 850,504.6 880,514.4 910,523.7 940,532.3 970,540.1 1000,546.8 1030,552.3 1060,556.5 1090,559.2 1120,560.5 1150,560.3 1180,558.6 1210,555.4 1240,550.8 1250,725 -50,725" fill="#d4862a" opacity="0.23"/><circle cx="300.0" cy="189.0" r="160" fill="url(#glow)"/>
  <g opacity="0.85" transform="translate(1020, 495)">
        <polygon points="0,-50 43,25 -43,25" fill="none" stroke="#d4862a" stroke-width="2"/>
        <polygon points="0,-30 26,15 -26,15" fill="#bd6b20" opacity="0.4"/>
      </g>
  <g transform="translate(80, 90)">
    <rect x="0" y="0" rx="20" ry="20" width="145" height="38" fill="#d4862a" opacity="0.18" stroke="#d4862a" stroke-width="1.5"/>
    <text x="72.5" y="25" font-family="ui-sans-serif, Inter, sans-serif" font-weight="700" font-size="14" letter-spacing="2.5" fill="#d4862a" text-anchor="middle">INFORMATION</text>
  </g>
  <text x="80" y="465" font-family="ui-sans-serif, -apple-system, Segoe UI, Inter, sans-serif" font-weight="800" font-size="44" fill="#faf8f5" opacity="0.98"><tspan x="80" dy="0">Dispute Resolution Centre</tspan><tspan x="80" dy="56">| Debt Recovery through</tspan><tspan x="80" dy="56">Arbitration | Employee</tspan></text>
  <rect x="0" y="669" width="1200" height="6" fill="url(#gold)"/>
</svg>