<?xml version="1.0" encoding="UTF-8"?>
<svg xmlns="http://www.w3.org/2000/svg" viewBox="0 0 1200 675" width="1200" height="675" role="img" aria-label="Unlocking Nationwide Arbitration Award Execution Potential">
  <defs>
    <linearGradient id="bg" x1="0%" y1="0%" x2="100%" y2="100%">
      <stop offset="0%" stop-color="#faf8f5"/>
      <stop offset="100%" stop-color="#f4efe8"/>
    </linearGradient>
    <linearGradient id="gold" x1="0%" y1="0%" x2="100%" y2="100%">
      <stop offset="0%" stop-color="#bd6b20"/>
      <stop offset="100%" stop-color="#9a5518"/>
    </linearGradient>
    <radialGradient id="glow" cx="50%" cy="50%" r="50%">
      <stop offset="0%" stop-color="#bd6b20" stop-opacity="0.45"/>
      <stop offset="100%" stop-color="#bd6b20" stop-opacity="0"/>
    </radialGradient>
  </defs>
  <rect width="1200" height="675" fill="url(#bg)"/>
  <rect x="-695.4" y="-80" width="60.8" height="875" transform="rotate(18 -695.4 337.5)" fill="#bd6b20" opacity="0.11"/><rect x="-484.6" y="-80" width="107.0" height="875" transform="rotate(18 -484.6 337.5)" fill="#bd6b20" opacity="0.20"/><rect x="-282.7" y="-80" width="93.1" height="875" transform="rotate(18 -282.7 337.5)" fill="#bd6b20" opacity="0.14"/><rect x="-175.3" y="-80" width="104.8" height="875" transform="rotate(18 -175.3 337.5)" fill="#bd6b20" opacity="0.11"/><rect x="26.6" y="-80" width="103.9" height="875" transform="rotate(18 26.6 337.5)" fill="#bd6b20" opacity="0.20"/><rect x="211.8" y="-80" width="85.8" height="875" transform="rotate(18 211.8 337.5)" fill="#bd6b20" opacity="0.10"/><rect x="385.4" y="-80" width="138.4" height="875" transform="rotate(18 385.4 337.5)" fill="#bd6b20" opacity="0.09"/><rect x="557.7" y="-80" width="121.8" height="875" transform="rotate(18 557.7 337.5)" fill="#bd6b20" opacity="0.12"/><rect x="737.7" y="-80" width="72.9" height="875" transform="rotate(18 737.7 337.5)" fill="#bd6b20" opacity="0.06"/><rect x="913.2" y="-80" width="140.0" height="875" transform="rotate(18 913.2 337.5)" fill="#bd6b20" opacity="0.08"/><rect x="1128.2" y="-80" width="78.7" height="875" transform="rotate(18 1128.2 337.5)" fill="#bd6b20" opacity="0.05"/><rect x="1324.2" y="-80" width="124.7" height="875" transform="rotate(18 1324.2 337.5)" fill="#bd6b20" opacity="0.17"/><rect x="1492.3" y="-80" width="91.1" height="875" transform="rotate(18 1492.3 337.5)" fill="#bd6b20" opacity="0.17"/><rect x="1676.5" y="-80" width="87.2" height="875" transform="rotate(18 1676.5 337.5)" fill="#bd6b20" opacity="0.11"/><rect x="0" y="0" width="1200" height="675" fill="url(#glow)" opacity="0.6"/>
  <g opacity="0.85" transform="translate(1020, 495)">
        <circle r="68" fill="none" stroke="#bd6b20" stroke-width="2" opacity="0.35"/>
        <path d="M -38 12 L 38 12 M -32 -8 L 32 -8 M -45 -28 L 45 -28" stroke="#9a5518" stroke-width="3" stroke-linecap="round"/>
        <rect x="-50" y="-44" width="100" height="80" fill="none" stroke="#bd6b20" stroke-width="2"/>
      </g>
  <g transform="translate(80, 90)">
    <rect x="0" y="0" rx="20" ry="20" width="112" height="38" fill="#bd6b20" opacity="0.18" stroke="#bd6b20" stroke-width="1.5"/>
    <text x="56" y="25" font-family="ui-sans-serif, Inter, sans-serif" font-weight="700" font-size="14" letter-spacing="2.5" fill="#bd6b20" text-anchor="middle">NEWSROOM</text>
  </g>
  <text x="80" y="465" font-family="ui-sans-serif, -apple-system, Segoe UI, Inter, sans-serif" font-weight="800" font-size="44" fill="#12100e" opacity="0.98"><tspan x="80" dy="0">Unlocking Nationwide</tspan><tspan x="80" dy="56">Arbitration Award</tspan><tspan x="80" dy="56">Execution Potential</tspan></text>
  <rect x="0" y="669" width="1200" height="6" fill="url(#gold)"/>
</svg>