<?xml version="1.0" encoding="UTF-8"?>
<svg xmlns="http://www.w3.org/2000/svg" viewBox="0 0 1200 675" width="1200" height="675" role="img" aria-label="Landmark Judgement by SC on Arbitration Fees">
  <defs>
    <linearGradient id="bg" x1="0%" y1="0%" x2="100%" y2="100%">
      <stop offset="0%" stop-color="#12100e"/>
      <stop offset="100%" stop-color="#1c1917"/>
    </linearGradient>
    <linearGradient id="gold" x1="0%" y1="0%" x2="100%" y2="100%">
      <stop offset="0%" stop-color="#bd6b20"/>
      <stop offset="100%" stop-color="#e09440"/>
    </linearGradient>
    <radialGradient id="glow" cx="50%" cy="50%" r="50%">
      <stop offset="0%" stop-color="#bd6b20" stop-opacity="0.45"/>
      <stop offset="100%" stop-color="#bd6b20" stop-opacity="0"/>
    </radialGradient>
  </defs>
  <rect width="1200" height="675" fill="url(#bg)"/>
  <circle cx="840.0" cy="135.0" r="240" fill="url(#glow)" opacity="0.8"/><rect x="725.4" y="193.5" width="41.9" height="41.9" rx="4" transform="rotate(76.7 746.3 214.4)" fill="#bd6b20" opacity="0.25"/><circle cx="1111.7" cy="313.5" r="11.8" fill="#e09440" opacity="0.28"/><rect x="411.6" y="404.3" width="16.7" height="16.7" rx="4" transform="rotate(191.2 419.9 412.7)" fill="#bd6b20" opacity="0.28"/><rect x="37.8" y="37.1" width="51.5" height="51.5" rx="4" transform="rotate(46.2 63.5 62.8)" fill="#bd6b20" opacity="0.32"/><circle cx="1125.8" cy="103.0" r="15.7" fill="#e09440" opacity="0.28"/><circle cx="595.5" cy="100.6" r="26.0" fill="#e09440" opacity="0.33"/><rect x="314.1" y="456.8" width="42.8" height="42.8" rx="4" transform="rotate(322.1 335.5 478.2)" fill="#bd6b20" opacity="0.14"/><circle cx="932.1" cy="245.9" r="20.3" fill="#e09440" opacity="0.28"/><circle cx="195.9" cy="245.2" r="24.3" fill="#e09440" opacity="0.32"/><circle cx="255.5" cy="415.8" r="30.0" fill="#e09440" opacity="0.12"/><polygon points="954.6,288.0 967.3,313.3 941.9,313.3" fill="#faebd6" opacity="0.26"/><polygon points="121.9,54.7 151.6,114.0 92.3,114.0" fill="#faebd6" opacity="0.10"/><polygon points="527.0,466.7 555.0,522.7 499.0,522.7" fill="#faebd6" opacity="0.12"/><polygon points="1005.5,487.6 1035.8,548.4 975.1,548.4" fill="#faebd6" opacity="0.30"/><circle cx="1089.3" cy="165.8" r="27.6" fill="#e09440" opacity="0.33"/><rect x="165.5" y="448.8" width="26.0" height="26.0" rx="4" transform="rotate(275.8 178.5 461.8)" fill="#bd6b20" opacity="0.13"/><rect x="889.7" y="383.3" width="48.2" height="48.2" rx="4" transform="rotate(330.1 913.8 407.4)" fill="#bd6b20" opacity="0.26"/><polygon points="553.1,488.1 573.8,529.4 532.5,529.4" fill="#faebd6" opacity="0.12"/><polygon points="333.0,190.8 350.9,226.5 315.2,226.5" fill="#faebd6" opacity="0.17"/><polygon points="273.5,-17.9 296.0,26.9 251.1,26.9" fill="#faebd6" opacity="0.11"/><rect x="574.0" y="245.6" width="35.1" height="35.1" rx="4" transform="rotate(87.4 591.6 263.1)" fill="#bd6b20" opacity="0.32"/><rect x="1049.6" y="103.7" width="15.8" height="15.8" rx="4" transform="rotate(120.7 1057.5 111.6)" fill="#bd6b20" opacity="0.34"/>
  <g opacity="0.85" transform="translate(1020, 495)">
        <circle r="68" fill="none" stroke="#bd6b20" stroke-width="2" opacity="0.35"/>
        <path d="M -38 12 L 38 12 M -32 -8 L 32 -8 M -45 -28 L 45 -28" stroke="#e09440" stroke-width="3" stroke-linecap="round"/>
        <rect x="-50" y="-44" width="100" height="80" fill="none" stroke="#bd6b20" stroke-width="2"/>
      </g>
  <g transform="translate(80, 90)">
    <rect x="0" y="0" rx="20" ry="20" width="112" height="38" fill="#bd6b20" opacity="0.18" stroke="#bd6b20" stroke-width="1.5"/>
    <text x="56" y="25" font-family="ui-sans-serif, Inter, sans-serif" font-weight="700" font-size="14" letter-spacing="2.5" fill="#bd6b20" text-anchor="middle">NEWSROOM</text>
  </g>
  <text x="80" y="515" font-family="ui-sans-serif, -apple-system, Segoe UI, Inter, sans-serif" font-weight="800" font-size="44" fill="#faf8f5" opacity="0.98"><tspan x="80" dy="0">Landmark Judgement by SC</tspan><tspan x="80" dy="56">on Arbitration Fees</tspan></text>
  <rect x="0" y="669" width="1200" height="6" fill="url(#gold)"/>
</svg>