<?xml version="1.0" encoding="UTF-8"?>
<svg xmlns="http://www.w3.org/2000/svg" viewBox="0 0 1200 675" width="1200" height="675" role="img" aria-label="Legal Victory: Cyril Amarchand Mangaldas Triumphs in SEIL Energy vs. NCC Arbitration Battle">
  <defs>
    <linearGradient id="bg" x1="0%" y1="0%" x2="100%" y2="100%">
      <stop offset="0%" stop-color="#faf8f5"/>
      <stop offset="100%" stop-color="#f4efe8"/>
    </linearGradient>
    <linearGradient id="gold" x1="0%" y1="0%" x2="100%" y2="100%">
      <stop offset="0%" stop-color="#bd6b20"/>
      <stop offset="100%" stop-color="#9a5518"/>
    </linearGradient>
    <radialGradient id="glow" cx="50%" cy="50%" r="50%">
      <stop offset="0%" stop-color="#bd6b20" stop-opacity="0.45"/>
      <stop offset="100%" stop-color="#bd6b20" stop-opacity="0"/>
    </radialGradient>
  </defs>
  <rect width="1200" height="675" fill="url(#bg)"/>
  <polygon points="610.1,420.5 654.7,616.9 462.3,557.3" fill="#9a5518" opacity="0.12"/><polygon points="275.8,507.2 259.4,448.2 310.4,414.3 358.4,452.4 337.0,509.8" fill="#9a5518" opacity="0.16"/><polygon points="780.7,231.2 862.2,24.0 1069.3,105.5 987.8,312.7" fill="#9a5518" opacity="0.16"/><polygon points="296.4,317.2 474.8,460.3 261.6,543.2" fill="#9a5518" opacity="0.18"/><polygon points="984.8,148.7 971.2,91.2 1021.7,60.6 1066.5,99.1 1043.6,153.6" fill="#9a5518" opacity="0.07"/><polygon points="727.3,47.1 812.0,11.3 847.8,96.1 763.1,131.8" fill="#9a5518" opacity="0.09"/><polygon points="488.4,521.7 320.6,389.5 452.9,221.6 620.7,353.9" fill="#9a5518" opacity="0.14"/><polygon points="919.9,656.6 859.6,617.1 923.9,584.6" fill="#9a5518" opacity="0.11"/><polygon points="795.6,129.9 739.7,180.0 674.7,142.2 690.5,68.8 765.3,61.2" fill="#9a5518" opacity="0.13"/><polygon points="496.8,192.5 459.7,260.0 419.8,194.2" fill="#9a5518" opacity="0.15"/><polygon points="150.9,418.1 297.8,342.3 373.6,489.2 226.7,565.0" fill="#9a5518" opacity="0.09"/><polygon points="1119.7,171.4 1212.7,206.1 1136.1,269.3" fill="#9a5518" opacity="0.15"/><polygon points="77.9,313.1 178.9,368.9 123.1,469.9 22.1,414.1" fill="#9a5518" opacity="0.07"/><polygon points="935.1,365.9 865.1,324.4 936.1,284.6" fill="#9a5518" opacity="0.06"/><circle cx="936.0" cy="202.5" r="180" fill="url(#glow)"/>
  <g opacity="0.85" transform="translate(1020, 495)">
        <circle r="68" fill="none" stroke="#bd6b20" stroke-width="2" opacity="0.35"/>
        <path d="M -38 12 L 38 12 M -32 -8 L 32 -8 M -45 -28 L 45 -28" stroke="#9a5518" stroke-width="3" stroke-linecap="round"/>
        <rect x="-50" y="-44" width="100" height="80" fill="none" stroke="#bd6b20" stroke-width="2"/>
      </g>
  <g transform="translate(80, 90)">
    <rect x="0" y="0" rx="20" ry="20" width="112" height="38" fill="#bd6b20" opacity="0.18" stroke="#bd6b20" stroke-width="1.5"/>
    <text x="56" y="25" font-family="ui-sans-serif, Inter, sans-serif" font-weight="700" font-size="14" letter-spacing="2.5" fill="#bd6b20" text-anchor="middle">NEWSROOM</text>
  </g>
  <text x="80" y="465" font-family="ui-sans-serif, -apple-system, Segoe UI, Inter, sans-serif" font-weight="800" font-size="44" fill="#12100e" opacity="0.98"><tspan x="80" dy="0">Legal Victory: Cyril</tspan><tspan x="80" dy="56">Amarchand Mangaldas</tspan><tspan x="80" dy="56">Triumphs in SEIL Energy</tspan></text>
  <rect x="0" y="669" width="1200" height="6" fill="url(#gold)"/>
</svg>