<?xml version="1.0" encoding="UTF-8"?>
<svg xmlns="http://www.w3.org/2000/svg" viewBox="0 0 1200 675" width="1200" height="675" role="img" aria-label="Lodge your dispute with PDR COURT to save time and money">
  <defs>
    <linearGradient id="bg" x1="0%" y1="0%" x2="100%" y2="100%">
      <stop offset="0%" stop-color="#0c0a09"/>
      <stop offset="100%" stop-color="#291813"/>
    </linearGradient>
    <linearGradient id="gold" x1="0%" y1="0%" x2="100%" y2="100%">
      <stop offset="0%" stop-color="#d4862a"/>
      <stop offset="100%" stop-color="#bd6b20"/>
    </linearGradient>
    <radialGradient id="glow" cx="50%" cy="50%" r="50%">
      <stop offset="0%" stop-color="#d4862a" stop-opacity="0.45"/>
      <stop offset="100%" stop-color="#d4862a" stop-opacity="0"/>
    </radialGradient>
  </defs>
  <rect width="1200" height="675" fill="url(#bg)"/>
  <polygon points="-50,298.5 -20,310.8 10,322.7 40,333.9 70,344.2 100,353.3 130,361.2 160,367.4 190,372.0 220,374.9 250,375.9 280,375.0 310,372.3 340,367.8 370,361.6 400,353.9 430,344.9 460,334.6 490,323.5 520,311.6 550,299.3 580,286.9 610,274.6 640,262.8 670,251.6 700,241.3 730,232.3 760,224.5 790,218.3 820,213.8 850,211.1 880,210.2 910,211.2 940,214.0 970,218.6 1000,224.8 1030,232.6 1060,241.8 1090,252.1 1120,263.3 1150,275.2 1180,287.4 1210,299.9 1240,312.1 1250,725 -50,725" fill="#d4862a" opacity="0.08"/><polygon points="-50,414.2 -20,410.9 10,406.4 40,400.9 70,394.5 100,387.3 130,379.5 160,371.3 190,362.8 220,354.2 250,345.8 280,337.7 310,330.1 340,323.2 370,317.1 400,312.0 430,307.9 460,305.0 490,303.4 520,303.0 550,303.9 580,306.1 610,309.5 640,314.0 670,319.5 700,326.0 730,333.2 760,341.0 790,349.3 820,357.8 850,366.3 880,374.7 910,382.8 940,390.4 970,397.3 1000,403.3 1030,408.4 1060,412.4 1090,415.2 1120,416.8 1150,417.1 1180,416.1 1210,413.9 1240,410.4 1250,725 -50,725" fill="#d4862a" opacity="0.13"/><polygon points="-50,371.6 -20,361.3 10,352.0 40,344.0 70,337.5 100,332.6 130,329.5 160,328.2 190,328.7 220,331.0 250,335.1 280,340.9 310,348.3 340,357.0 370,366.9 400,377.8 430,389.4 460,401.4 490,413.7 520,425.9 550,437.7 580,448.9 610,459.2 640,468.4 670,476.3 700,482.7 730,487.5 760,490.5 790,491.8 820,491.2 850,488.7 880,484.5 910,478.6 940,471.2 970,462.4 1000,452.4 1030,441.5 1060,429.9 1090,417.8 1120,405.5 1150,393.4 1180,381.6 1210,370.4 1240,360.2 1250,725 -50,725" fill="#d4862a" opacity="0.18"/><polygon points="-50,404.9 -20,398.7 10,394.0 40,391.0 70,389.6 100,390.0 130,392.2 160,396.0 190,401.4 220,408.2 250,416.4 280,425.7 310,436.0 340,446.9 370,458.3 400,469.9 430,481.4 460,492.5 490,503.1 520,512.9 550,521.7 580,529.2 610,535.3 640,539.9 670,542.8 700,544.0 730,543.5 760,541.3 790,537.4 820,531.9 850,525.0 880,516.7 910,507.3 940,497.1 970,486.1 1000,474.7 1030,463.1 1060,451.6 1090,440.5 1120,429.9 1150,420.2 1180,411.5 1210,404.1 1240,398.1 1250,725 -50,725" fill="#d4862a" opacity="0.23"/><circle cx="300.0" cy="189.0" r="160" fill="url(#glow)"/>
  <g opacity="0.85" transform="translate(1020, 495)">
        <polygon points="0,-50 43,25 -43,25" fill="none" stroke="#d4862a" stroke-width="2"/>
        <polygon points="0,-30 26,15 -26,15" fill="#bd6b20" opacity="0.4"/>
      </g>
  <g transform="translate(80, 90)">
    <rect x="0" y="0" rx="20" ry="20" width="145" height="38" fill="#d4862a" opacity="0.18" stroke="#d4862a" stroke-width="1.5"/>
    <text x="72.5" y="25" font-family="ui-sans-serif, Inter, sans-serif" font-weight="700" font-size="14" letter-spacing="2.5" fill="#d4862a" text-anchor="middle">INFORMATION</text>
  </g>
  <text x="80" y="465" font-family="ui-sans-serif, -apple-system, Segoe UI, Inter, sans-serif" font-weight="800" font-size="44" fill="#faf8f5" opacity="0.98"><tspan x="80" dy="0">Lodge your dispute with</tspan><tspan x="80" dy="56">PDR COURT to save time and</tspan><tspan x="80" dy="56">money</tspan></text>
  <rect x="0" y="669" width="1200" height="6" fill="url(#gold)"/>
</svg>