<?xml version="1.0" encoding="UTF-8"?>
<svg xmlns="http://www.w3.org/2000/svg" viewBox="0 0 1200 675" width="1200" height="675" role="img" aria-label="Lok Sabha Mediation Bill 2023: A Step Towards Resolving Disputes">
  <defs>
    <linearGradient id="bg" x1="0%" y1="0%" x2="100%" y2="100%">
      <stop offset="0%" stop-color="#0c0a09"/>
      <stop offset="100%" stop-color="#291813"/>
    </linearGradient>
    <linearGradient id="gold" x1="0%" y1="0%" x2="100%" y2="100%">
      <stop offset="0%" stop-color="#d4862a"/>
      <stop offset="100%" stop-color="#bd6b20"/>
    </linearGradient>
    <radialGradient id="glow" cx="50%" cy="50%" r="50%">
      <stop offset="0%" stop-color="#d4862a" stop-opacity="0.45"/>
      <stop offset="100%" stop-color="#d4862a" stop-opacity="0"/>
    </radialGradient>
  </defs>
  <rect width="1200" height="675" fill="url(#bg)"/>
  <rect x="-662.8" y="-80" width="72.4" height="875" transform="rotate(18 -662.8 337.5)" fill="#d4862a" opacity="0.15"/><rect x="-460.1" y="-80" width="136.9" height="875" transform="rotate(18 -460.1 337.5)" fill="#d4862a" opacity="0.10"/><rect x="-283.8" y="-80" width="80.0" height="875" transform="rotate(18 -283.8 337.5)" fill="#d4862a" opacity="0.17"/><rect x="-126.5" y="-80" width="136.3" height="875" transform="rotate(18 -126.5 337.5)" fill="#d4862a" opacity="0.10"/><rect x="5.1" y="-80" width="134.5" height="875" transform="rotate(18 5.1 337.5)" fill="#d4862a" opacity="0.06"/><rect x="181.8" y="-80" width="69.0" height="875" transform="rotate(18 181.8 337.5)" fill="#d4862a" opacity="0.16"/><rect x="378.5" y="-80" width="81.0" height="875" transform="rotate(18 378.5 337.5)" fill="#d4862a" opacity="0.13"/><rect x="545.0" y="-80" width="84.9" height="875" transform="rotate(18 545.0 337.5)" fill="#d4862a" opacity="0.15"/><rect x="741.7" y="-80" width="99.3" height="875" transform="rotate(18 741.7 337.5)" fill="#d4862a" opacity="0.05"/><rect x="954.4" y="-80" width="104.0" height="875" transform="rotate(18 954.4 337.5)" fill="#d4862a" opacity="0.13"/><rect x="1114.3" y="-80" width="81.5" height="875" transform="rotate(18 1114.3 337.5)" fill="#d4862a" opacity="0.06"/><rect x="1288.0" y="-80" width="81.3" height="875" transform="rotate(18 1288.0 337.5)" fill="#d4862a" opacity="0.05"/><rect x="1518.4" y="-80" width="79.8" height="875" transform="rotate(18 1518.4 337.5)" fill="#d4862a" opacity="0.18"/><rect x="1682.2" y="-80" width="123.2" height="875" transform="rotate(18 1682.2 337.5)" fill="#d4862a" opacity="0.11"/><rect x="0" y="0" width="1200" height="675" fill="url(#glow)" opacity="0.6"/>
  <g opacity="0.85" transform="translate(1020, 495)">
        <rect x="-46" y="-60" width="92" height="115" fill="#d4862a" opacity="0.18" rx="6"/>
        <path d="M -28 -36 L 28 -36 M -28 -12 L 28 -12 M -28 12 L 18 12 M -28 36 L 28 36" stroke="#bd6b20" stroke-width="3" stroke-linecap="round"/>
      </g>
  <g transform="translate(80, 90)">
    <rect x="0" y="0" rx="20" ry="20" width="101" height="38" fill="#d4862a" opacity="0.18" stroke="#d4862a" stroke-width="1.5"/>
    <text x="50.5" y="25" font-family="ui-sans-serif, Inter, sans-serif" font-weight="700" font-size="14" letter-spacing="2.5" fill="#d4862a" text-anchor="middle">ARTICLE</text>
  </g>
  <text x="80" y="465" font-family="ui-sans-serif, -apple-system, Segoe UI, Inter, sans-serif" font-weight="800" font-size="44" fill="#faf8f5" opacity="0.98"><tspan x="80" dy="0">Lok Sabha Mediation Bill</tspan><tspan x="80" dy="56">2023: A Step Towards</tspan><tspan x="80" dy="56">Resolving Disputes</tspan></text>
  <rect x="0" y="669" width="1200" height="6" fill="url(#gold)"/>
</svg>