<?xml version="1.0" encoding="UTF-8"?>
<svg xmlns="http://www.w3.org/2000/svg" viewBox="0 0 1200 675" width="1200" height="675" role="img" aria-label="Vedanta-South Ganga Waters Arbitration: Court Resolves Dispute">
  <defs>
    <linearGradient id="bg" x1="0%" y1="0%" x2="100%" y2="100%">
      <stop offset="0%" stop-color="#532d15"/>
      <stop offset="100%" stop-color="#bd6b20"/>
    </linearGradient>
    <linearGradient id="gold" x1="0%" y1="0%" x2="100%" y2="100%">
      <stop offset="0%" stop-color="#e09440"/>
      <stop offset="100%" stop-color="#fdf6ee"/>
    </linearGradient>
    <radialGradient id="glow" cx="50%" cy="50%" r="50%">
      <stop offset="0%" stop-color="#e09440" stop-opacity="0.45"/>
      <stop offset="100%" stop-color="#e09440" stop-opacity="0"/>
    </radialGradient>
  </defs>
  <rect width="1200" height="675" fill="url(#bg)"/>
  <polygon points="42.7,402.8 215.4,398.3 273.0,561.1 136.0,666.3 -6.4,568.4" fill="#fdf6ee" opacity="0.08"/><polygon points="657.7,319.8 612.4,470.6 455.0,474.2 403.0,325.6 528.2,230.2" fill="#fdf6ee" opacity="0.14"/><polygon points="191.4,378.0 194.4,153.6 387.2,268.4" fill="#fdf6ee" opacity="0.15"/><polygon points="991.9,-49.8 1145.6,-59.8 1202.6,83.2 1084.2,181.7 953.9,99.5" fill="#fdf6ee" opacity="0.09"/><polygon points="430.8,535.7 475.5,492.1 519.2,536.8 474.4,580.5" fill="#fdf6ee" opacity="0.13"/><polygon points="1052.9,598.0 997.3,467.5 1138.2,484.7" fill="#fdf6ee" opacity="0.07"/><polygon points="759.5,185.3 783.7,252.7 713.2,239.9" fill="#fdf6ee" opacity="0.11"/><polygon points="1029.7,228.7 801.0,101.2 1025.8,-33.1" fill="#fdf6ee" opacity="0.14"/><polygon points="1172.0,258.3 1100.5,428.0 917.0,412.4 875.2,233.1 1032.8,137.8" fill="#fdf6ee" opacity="0.09"/><polygon points="165.5,219.5 189.1,134.0 277.6,130.0 308.8,213.0 239.5,268.3" fill="#fdf6ee" opacity="0.11"/><polygon points="849.5,182.2 787.2,55.5 928.0,64.9" fill="#fdf6ee" opacity="0.16"/><polygon points="762.6,336.7 916.2,492.5 760.4,646.1 606.8,490.3" fill="#fdf6ee" opacity="0.17"/><polygon points="938.7,742.7 878.6,624.6 1010.9,631.6" fill="#fdf6ee" opacity="0.10"/><polygon points="572.5,255.8 590.1,143.8 702.0,125.9 753.6,226.8 673.6,307.1" fill="#fdf6ee" opacity="0.16"/><circle cx="936.0" cy="202.5" r="180" fill="url(#glow)"/>
  <g opacity="0.85" transform="translate(1020, 495)">
        <circle r="68" fill="none" stroke="#e09440" stroke-width="2" opacity="0.35"/>
        <path d="M -38 12 L 38 12 M -32 -8 L 32 -8 M -45 -28 L 45 -28" stroke="#fdf6ee" stroke-width="3" stroke-linecap="round"/>
        <rect x="-50" y="-44" width="100" height="80" fill="none" stroke="#e09440" stroke-width="2"/>
      </g>
  <g transform="translate(80, 90)">
    <rect x="0" y="0" rx="20" ry="20" width="112" height="38" fill="#e09440" opacity="0.18" stroke="#e09440" stroke-width="1.5"/>
    <text x="56" y="25" font-family="ui-sans-serif, Inter, sans-serif" font-weight="700" font-size="14" letter-spacing="2.5" fill="#e09440" text-anchor="middle">NEWSROOM</text>
  </g>
  <text x="80" y="465" font-family="ui-sans-serif, -apple-system, Segoe UI, Inter, sans-serif" font-weight="800" font-size="44" fill="#faf8f5" opacity="0.98"><tspan x="80" dy="0">Vedanta-South Ganga Waters</tspan><tspan x="80" dy="56">Arbitration: Court</tspan><tspan x="80" dy="56">Resolves Dispute</tspan></text>
  <rect x="0" y="669" width="1200" height="6" fill="url(#gold)"/>
</svg>