<?xml version="1.0" encoding="UTF-8"?>
<svg xmlns="http://www.w3.org/2000/svg" viewBox="0 0 1200 675" width="1200" height="675" role="img" aria-label="Madras HC Advocates Equal Treatment of Arbitrator Fees and Liquidator Fees, Prioritizing Dues in Landmark Ruling">
  <defs>
    <linearGradient id="bg" x1="0%" y1="0%" x2="100%" y2="100%">
      <stop offset="0%" stop-color="#faf8f5"/>
      <stop offset="100%" stop-color="#f4efe8"/>
    </linearGradient>
    <linearGradient id="gold" x1="0%" y1="0%" x2="100%" y2="100%">
      <stop offset="0%" stop-color="#bd6b20"/>
      <stop offset="100%" stop-color="#9a5518"/>
    </linearGradient>
    <radialGradient id="glow" cx="50%" cy="50%" r="50%">
      <stop offset="0%" stop-color="#bd6b20" stop-opacity="0.45"/>
      <stop offset="100%" stop-color="#bd6b20" stop-opacity="0"/>
    </radialGradient>
  </defs>
  <rect width="1200" height="675" fill="url(#bg)"/>
  <circle cx="29.5" cy="30.0" r="2.91" fill="#bd6b20" opacity="0.29"/><circle cx="63.4" cy="31.0" r="2.79" fill="#bd6b20" opacity="0.32"/><circle cx="104.2" cy="31.7" r="3.07" fill="#bd6b20" opacity="0.35"/><circle cx="138.0" cy="31.7" r="3.33" fill="#bd6b20" opacity="0.34"/><circle cx="173.8" cy="27.4" r="1.86" fill="#bd6b20" opacity="0.16"/><circle cx="211.9" cy="31.9" r="3.48" fill="#bd6b20" opacity="0.22"/><circle cx="243.9" cy="28.1" r="3.48" fill="#bd6b20" opacity="0.19"/><circle cx="281.2" cy="27.1" r="3.56" fill="#bd6b20" opacity="0.27"/><circle cx="320.0" cy="29.8" r="2.03" fill="#bd6b20" opacity="0.22"/><circle cx="351.2" cy="28.2" r="1.72" fill="#bd6b20" opacity="0.35"/><circle cx="387.0" cy="30.9" r="2.05" fill="#bd6b20" opacity="0.24"/><circle cx="428.2" cy="28.7" r="1.78" fill="#bd6b20" opacity="0.16"/><circle cx="460.0" cy="32.3" r="3.04" fill="#bd6b20" opacity="0.20"/><circle cx="498.9" cy="31.8" r="1.65" fill="#bd6b20" opacity="0.35"/><circle cx="535.3" cy="29.2" r="2.27" fill="#bd6b20" opacity="0.19"/><circle cx="568.8" cy="33.0" r="2.87" fill="#bd6b20" opacity="0.35"/><circle cx="608.0" cy="30.9" r="2.57" fill="#bd6b20" opacity="0.34"/><circle cx="640.5" cy="29.7" r="2.82" fill="#bd6b20" opacity="0.23"/><circle cx="675.4" cy="28.8" r="3.74" fill="#bd6b20" opacity="0.16"/><circle cx="711.7" cy="28.7" r="1.71" fill="#bd6b20" opacity="0.33"/><circle cx="751.7" cy="27.5" r="3.25" fill="#bd6b20" opacity="0.15"/><circle cx="788.3" cy="32.4" r="1.99" fill="#bd6b20" opacity="0.36"/><circle cx="820.4" cy="28.9" r="2.80" fill="#bd6b20" opacity="0.23"/><circle cx="859.7" cy="28.5" r="2.27" fill="#bd6b20" opacity="0.19"/><circle cx="895.4" cy="27.7" r="2.09" fill="#bd6b20" opacity="0.31"/><circle cx="927.7" cy="31.1" r="3.89" fill="#bd6b20" opacity="0.25"/><circle cx="968.1" cy="30.4" r="1.88" fill="#bd6b20" opacity="0.24"/><circle cx="999.1" cy="28.3" r="3.75" fill="#bd6b20" opacity="0.19"/><circle cx="1037.9" cy="27.2" r="3.45" fill="#bd6b20" opacity="0.30"/><circle cx="1071.3" cy="30.8" r="2.34" fill="#bd6b20" opacity="0.27"/><circle cx="1108.6" cy="30.4" r="3.65" fill="#bd6b20" opacity="0.19"/><circle cx="1146.2" cy="28.6" r="3.90" fill="#bd6b20" opacity="0.33"/><circle cx="1181.0" cy="28.6" r="2.78" fill="#bd6b20" opacity="0.29"/><circle cx="30.5" cy="65.0" r="2.18" fill="#bd6b20" opacity="0.20"/><circle cx="67.4" cy="67.2" r="2.77" fill="#bd6b20" opacity="0.16"/><circle cx="99.9" cy="63.2" r="2.62" fill="#bd6b20" opacity="0.33"/><circle cx="135.6" cy="65.0" r="2.87" fill="#bd6b20" opacity="0.23"/><circle cx="176.0" cy="65.6" r="1.90" fill="#bd6b20" opacity="0.31"/><circle cx="210.2" cy="65.0" r="3.13" fill="#bd6b20" opacity="0.20"/><circle cx="248.8" cy="63.6" r="2.86" fill="#bd6b20" opacity="0.21"/><circle cx="281.1" cy="63.2" r="1.93" fill="#bd6b20" opacity="0.33"/><circle cx="318.4" cy="66.3" r="1.82" fill="#bd6b20" opacity="0.30"/><circle cx="352.4" cy="63.6" r="3.90" fill="#bd6b20" opacity="0.19"/><circle cx="391.8" cy="67.1" r="2.66" fill="#bd6b20" opacity="0.29"/><circle cx="426.9" cy="67.2" r="2.37" fill="#bd6b20" opacity="0.31"/><circle cx="463.4" cy="63.9" r="3.27" fill="#bd6b20" opacity="0.30"/><circle cx="496.1" cy="68.3" r="2.08" fill="#bd6b20" opacity="0.23"/><circle cx="533.9" cy="68.2" r="2.27" fill="#bd6b20" opacity="0.23"/><circle cx="569.6" cy="65.1" r="2.93" fill="#bd6b20" opacity="0.28"/><circle cx="604.0" cy="68.7" r="3.64" fill="#bd6b20" opacity="0.26"/><circle cx="640.6" cy="63.4" r="2.79" fill="#bd6b20" opacity="0.24"/><circle cx="676.1" cy="65.3" r="1.96" fill="#bd6b20" opacity="0.18"/><circle cx="716.1" cy="63.3" r="3.06" fill="#bd6b20" opacity="0.16"/><circle cx="748.1" cy="63.8" r="3.38" fill="#bd6b20" opacity="0.27"/><circle cx="788.6" cy="68.5" r="1.91" fill="#bd6b20" opacity="0.24"/><circle cx="821.2" cy="68.8" r="2.18" fill="#bd6b20" opacity="0.16"/><circle cx="860.6" cy="63.3" r="1.85" fill="#bd6b20" opacity="0.32"/><circle cx="896.1" cy="67.0" r="3.51" fill="#bd6b20" opacity="0.32"/><circle cx="932.1" cy="63.7" r="3.31" fill="#bd6b20" opacity="0.27"/><circle cx="969.0" cy="68.4" r="3.95" fill="#bd6b20" opacity="0.34"/><circle cx="999.8" cy="65.8" r="1.68" fill="#bd6b20" opacity="0.29"/><circle cx="1040.6" cy="66.8" r="3.14" fill="#bd6b20" opacity="0.31"/><circle cx="1075.6" cy="65.8" r="2.95" fill="#bd6b20" opacity="0.19"/><circle cx="1111.5" cy="63.5" r="3.41" fill="#bd6b20" opacity="0.28"/><circle cx="1143.9" cy="68.9" r="3.71" fill="#bd6b20" opacity="0.34"/><circle cx="1179.4" cy="67.6" r="2.53" fill="#bd6b20" opacity="0.35"/><circle cx="30.4" cy="99.2" r="3.33" fill="#bd6b20" opacity="0.34"/><circle cx="64.1" cy="100.6" r="3.56" fill="#bd6b20" opacity="0.33"/><circle cx="101.8" cy="99.4" r="3.22" fill="#bd6b20" opacity="0.32"/><circle cx="137.7" cy="104.4" r="3.85" fill="#bd6b20" opacity="0.35"/><circle cx="174.8" cy="99.6" r="2.49" fill="#bd6b20" opacity="0.23"/><circle cx="210.3" cy="101.0" r="3.75" fill="#bd6b20" opacity="0.29"/><circle cx="247.1" cy="100.9" r="3.33" fill="#bd6b20" opacity="0.29"/><circle cx="279.2" cy="99.5" r="3.81" fill="#bd6b20" opacity="0.31"/><circle cx="315.8" cy="102.9" r="2.62" fill="#bd6b20" opacity="0.26"/><circle cx="354.8" cy="102.1" r="2.19" fill="#bd6b20" opacity="0.29"/><circle cx="389.6" cy="102.6" r="2.18" fill="#bd6b20" opacity="0.35"/><circle cx="424.8" cy="103.0" r="3.92" fill="#bd6b20" opacity="0.29"/><circle cx="462.0" cy="102.5" r="2.75" fill="#bd6b20" opacity="0.19"/><circle cx="499.0" cy="103.1" r="3.12" fill="#bd6b20" opacity="0.36"/><circle cx="534.5" cy="100.8" r="3.06" fill="#bd6b20" opacity="0.20"/><circle cx="572.5" cy="102.1" r="3.43" fill="#bd6b20" opacity="0.34"/><circle cx="608.8" cy="101.6" r="3.17" fill="#bd6b20" opacity="0.31"/><circle cx="643.3" cy="100.9" r="3.69" fill="#bd6b20" opacity="0.29"/><circle cx="680.1" cy="102.4" r="3.90" fill="#bd6b20" opacity="0.28"/><circle cx="714.5" cy="100.7" r="3.77" fill="#bd6b20" opacity="0.29"/><circle cx="752.6" cy="102.1" r="2.58" fill="#bd6b20" opacity="0.22"/><circle cx="783.8" cy="103.3" r="3.11" fill="#bd6b20" opacity="0.25"/><circle cx="824.3" cy="104.8" r="1.61" fill="#bd6b20" opacity="0.22"/><circle cx="855.2" cy="100.0" r="3.38" fill="#bd6b20" opacity="0.35"/><circle cx="895.6" cy="99.3" r="2.39" fill="#bd6b20" opacity="0.22"/><circle cx="928.0" cy="100.1" r="1.81" fill="#bd6b20" opacity="0.17"/><circle cx="967.6" cy="103.1" r="1.72" fill="#bd6b20" opacity="0.26"/><circle cx="1001.6" cy="102.2" r="3.48" fill="#bd6b20" opacity="0.25"/><circle cx="1040.5" cy="101.2" r="1.92" fill="#bd6b20" opacity="0.32"/><circle cx="1074.4" cy="100.2" r="1.80" fill="#bd6b20" opacity="0.29"/><circle cx="1110.9" cy="102.3" r="3.11" fill="#bd6b20" opacity="0.24"/><circle cx="1145.0" cy="104.2" r="2.44" fill="#bd6b20" opacity="0.33"/><circle cx="1183.5" cy="99.8" r="2.76" fill="#bd6b20" opacity="0.15"/><circle cx="31.0" cy="138.0" r="3.78" fill="#bd6b20" opacity="0.27"/><circle cx="63.0" cy="135.5" r="1.96" fill="#bd6b20" opacity="0.21"/><circle cx="102.2" cy="137.9" r="2.16" fill="#bd6b20" opacity="0.18"/><circle cx="138.4" cy="138.3" r="3.06" fill="#bd6b20" opacity="0.23"/><circle cx="175.7" cy="140.8" r="3.20" fill="#bd6b20" opacity="0.33"/><circle cx="211.0" cy="138.0" r="3.70" fill="#bd6b20" opacity="0.19"/><circle cx="246.8" cy="138.1" r="3.44" fill="#bd6b20" opacity="0.23"/><circle cx="283.8" cy="136.7" r="2.78" fill="#bd6b20" opacity="0.33"/><circle cx="315.1" cy="136.0" r="2.76" fill="#bd6b20" opacity="0.33"/><circle cx="356.7" cy="135.9" r="2.82" fill="#bd6b20" opacity="0.34"/><circle cx="388.2" cy="140.9" r="2.73" fill="#bd6b20" opacity="0.32"/><circle cx="423.1" cy="138.4" r="1.92" fill="#bd6b20" opacity="0.24"/><circle cx="460.3" cy="138.4" r="2.34" fill="#bd6b20" opacity="0.32"/><circle cx="500.3" cy="138.5" r="2.77" fill="#bd6b20" opacity="0.30"/><circle cx="533.8" cy="141.0" r="3.28" fill="#bd6b20" opacity="0.30"/><circle cx="572.6" cy="135.7" r="2.88" fill="#bd6b20" opacity="0.24"/><circle cx="606.6" cy="136.1" r="2.63" fill="#bd6b20" opacity="0.31"/><circle cx="644.6" cy="137.5" r="2.46" fill="#bd6b20" opacity="0.22"/><circle cx="679.2" cy="140.9" r="3.08" fill="#bd6b20" opacity="0.16"/><circle cx="715.1" cy="136.8" r="2.08" fill="#bd6b20" opacity="0.35"/><circle cx="752.0" cy="139.0" r="1.69" fill="#bd6b20" opacity="0.24"/><circle cx="786.7" cy="135.2" r="2.44" fill="#bd6b20" opacity="0.26"/><circle cx="820.9" cy="136.6" r="2.35" fill="#bd6b20" opacity="0.19"/><circle cx="860.5" cy="139.4" r="2.60" fill="#bd6b20" opacity="0.33"/><circle cx="896.4" cy="136.7" r="3.39" fill="#bd6b20" opacity="0.29"/><circle cx="929.6" cy="136.8" r="3.44" fill="#bd6b20" opacity="0.30"/><circle cx="967.2" cy="140.5" r="1.87" fill="#bd6b20" opacity="0.17"/><circle cx="1001.2" cy="139.1" r="3.44" fill="#bd6b20" opacity="0.27"/><circle cx="1037.8" cy="140.7" r="3.44" fill="#bd6b20" opacity="0.21"/><circle cx="1075.1" cy="137.7" r="3.26" fill="#bd6b20" opacity="0.24"/><circle cx="1107.6" cy="138.8" r="1.87" fill="#bd6b20" opacity="0.32"/><circle cx="1144.5" cy="140.5" r="3.35" fill="#bd6b20" opacity="0.35"/><circle cx="1183.4" cy="139.7" r="3.34" fill="#bd6b20" opacity="0.18"/><circle cx="28.6" cy="174.9" r="2.38" fill="#bd6b20" opacity="0.20"/><circle cx="64.2" cy="174.7" r="3.30" fill="#bd6b20" opacity="0.24"/><circle cx="104.7" cy="172.4" r="3.87" fill="#bd6b20" opacity="0.18"/><circle cx="135.6" cy="171.3" r="1.93" fill="#bd6b20" opacity="0.31"/><circle cx="172.4" cy="175.4" r="3.35" fill="#bd6b20" opacity="0.30"/><circle cx="212.7" cy="174.9" r="3.45" fill="#bd6b20" opacity="0.26"/><circle cx="247.4" cy="175.8" r="1.98" fill="#bd6b20" opacity="0.22"/><circle cx="284.5" cy="173.9" r="3.22" fill="#bd6b20" opacity="0.29"/><circle cx="315.4" cy="176.7" r="2.49" fill="#bd6b20" opacity="0.20"/><circle cx="356.4" cy="171.8" r="2.81" fill="#bd6b20" opacity="0.17"/><circle cx="388.7" cy="176.9" r="1.70" fill="#bd6b20" opacity="0.23"/><circle cx="425.1" cy="171.3" r="2.92" fill="#bd6b20" opacity="0.28"/><circle cx="460.9" cy="171.9" r="2.34" fill="#bd6b20" opacity="0.18"/><circle cx="498.5" cy="176.5" r="3.90" fill="#bd6b20" opacity="0.23"/><circle cx="534.3" cy="172.0" r="3.10" fill="#bd6b20" opacity="0.35"/><circle cx="569.4" cy="172.2" r="2.46" fill="#bd6b20" opacity="0.29"/><circle cx="603.3" cy="176.9" r="2.02" fill="#bd6b20" opacity="0.19"/><circle cx="642.0" cy="176.1" r="3.84" fill="#bd6b20" opacity="0.26"/><circle cx="680.8" cy="176.2" r="2.29" fill="#bd6b20" opacity="0.35"/><circle cx="716.9" cy="175.2" r="1.79" fill="#bd6b20" opacity="0.20"/><circle cx="751.8" cy="175.3" r="2.11" fill="#bd6b20" opacity="0.34"/><circle cx="785.5" cy="174.4" r="3.42" fill="#bd6b20" opacity="0.23"/><circle cx="822.9" cy="176.6" r="3.81" fill="#bd6b20" opacity="0.22"/><circle cx="858.0" cy="171.2" r="2.34" fill="#bd6b20" opacity="0.19"/><circle cx="891.2" cy="173.7" r="3.02" fill="#bd6b20" opacity="0.32"/><circle cx="927.8" cy="175.6" r="3.47" fill="#bd6b20" opacity="0.30"/><circle cx="963.5" cy="175.5" r="3.61" fill="#bd6b20" opacity="0.25"/><circle cx="1001.5" cy="171.2" r="2.63" fill="#bd6b20" opacity="0.23"/><circle cx="1038.5" cy="173.3" r="2.55" fill="#bd6b20" opacity="0.35"/><circle cx="1074.8" cy="172.9" r="2.62" fill="#bd6b20" opacity="0.34"/><circle cx="1110.7" cy="174.9" r="3.34" fill="#bd6b20" opacity="0.23"/><circle cx="1144.7" cy="174.8" r="2.02" fill="#bd6b20" opacity="0.23"/><circle cx="1182.6" cy="172.9" r="2.82" fill="#bd6b20" opacity="0.29"/><circle cx="29.3" cy="207.4" r="3.50" fill="#bd6b20" opacity="0.31"/><circle cx="67.8" cy="208.6" r="2.83" fill="#bd6b20" opacity="0.33"/><circle cx="101.3" cy="207.7" r="3.88" fill="#bd6b20" opacity="0.27"/><circle cx="138.4" cy="209.0" r="3.08" fill="#bd6b20" opacity="0.18"/><circle cx="173.6" cy="209.6" r="2.04" fill="#bd6b20" opacity="0.19"/><circle cx="208.8" cy="212.8" r="3.53" fill="#bd6b20" opacity="0.34"/><circle cx="243.1" cy="211.9" r="1.78" fill="#bd6b20" opacity="0.30"/><circle cx="284.8" cy="210.7" r="2.22" fill="#bd6b20" opacity="0.30"/><circle cx="316.8" cy="211.5" r="2.57" fill="#bd6b20" opacity="0.21"/><circle cx="352.8" cy="212.9" r="1.73" fill="#bd6b20" opacity="0.34"/><circle cx="390.3" cy="207.0" r="3.45" fill="#bd6b20" opacity="0.16"/><circle cx="423.7" cy="209.1" r="3.61" fill="#bd6b20" opacity="0.26"/><circle cx="464.7" cy="212.9" r="3.51" fill="#bd6b20" opacity="0.23"/><circle cx="498.2" cy="212.4" r="1.61" fill="#bd6b20" opacity="0.17"/><circle cx="536.5" cy="212.4" r="2.85" fill="#bd6b20" opacity="0.31"/><circle cx="570.8" cy="207.8" r="3.08" fill="#bd6b20" opacity="0.16"/><circle cx="606.4" cy="209.3" r="3.97" fill="#bd6b20" opacity="0.17"/><circle cx="642.0" cy="208.3" r="2.24" fill="#bd6b20" opacity="0.28"/><circle cx="678.1" cy="209.5" r="3.18" fill="#bd6b20" opacity="0.33"/><circle cx="713.9" cy="207.7" r="1.93" fill="#bd6b20" opacity="0.26"/><circle cx="751.4" cy="212.1" r="3.68" fill="#bd6b20" opacity="0.22"/><circle cx="785.0" cy="209.9" r="3.29" fill="#bd6b20" opacity="0.21"/><circle cx="821.3" cy="207.8" r="1.96" fill="#bd6b20" opacity="0.18"/><circle cx="858.9" cy="209.9" r="2.23" fill="#bd6b20" opacity="0.16"/><circle cx="895.3" cy="212.1" r="2.05" fill="#bd6b20" opacity="0.21"/><circle cx="932.4" cy="207.2" r="3.54" fill="#bd6b20" opacity="0.17"/><circle cx="966.9" cy="208.5" r="3.08" fill="#bd6b20" opacity="0.22"/><circle cx="1003.4" cy="212.0" r="1.72" fill="#bd6b20" opacity="0.22"/><circle cx="1040.1" cy="212.8" r="3.51" fill="#bd6b20" opacity="0.34"/><circle cx="1072.1" cy="211.6" r="3.20" fill="#bd6b20" opacity="0.17"/><circle cx="1110.7" cy="212.1" r="1.94" fill="#bd6b20" opacity="0.26"/><circle cx="1147.7" cy="210.6" r="1.81" fill="#bd6b20" opacity="0.18"/><circle cx="1184.1" cy="208.0" r="1.82" fill="#bd6b20" opacity="0.27"/><circle cx="31.0" cy="247.4" r="2.57" fill="#bd6b20" opacity="0.19"/><circle cx="66.8" cy="243.1" r="3.31" fill="#bd6b20" opacity="0.26"/><circle cx="104.4" cy="244.0" r="1.71" fill="#bd6b20" opacity="0.17"/><circle cx="136.1" cy="243.8" r="3.12" fill="#bd6b20" opacity="0.19"/><circle cx="171.5" cy="244.0" r="1.81" fill="#bd6b20" opacity="0.18"/><circle cx="208.4" cy="243.1" r="3.92" fill="#bd6b20" opacity="0.25"/><circle cx="247.3" cy="244.6" r="2.36" fill="#bd6b20" opacity="0.30"/><circle cx="281.6" cy="243.3" r="3.86" fill="#bd6b20" opacity="0.16"/><circle cx="319.5" cy="248.9" r="3.29" fill="#bd6b20" opacity="0.27"/><circle cx="355.6" cy="243.6" r="3.50" fill="#bd6b20" opacity="0.27"/><circle cx="389.9" cy="248.8" r="2.67" fill="#bd6b20" opacity="0.17"/><circle cx="424.9" cy="246.7" r="2.66" fill="#bd6b20" opacity="0.16"/><circle cx="463.2" cy="246.9" r="3.33" fill="#bd6b20" opacity="0.21"/><circle cx="497.0" cy="245.2" r="2.67" fill="#bd6b20" opacity="0.22"/><circle cx="532.1" cy="245.2" r="3.32" fill="#bd6b20" opacity="0.23"/><circle cx="567.6" cy="248.0" r="2.89" fill="#bd6b20" opacity="0.18"/><circle cx="603.0" cy="243.4" r="3.51" fill="#bd6b20" opacity="0.16"/><circle cx="644.6" cy="247.6" r="3.40" fill="#bd6b20" opacity="0.22"/><circle cx="677.2" cy="248.1" r="2.46" fill="#bd6b20" opacity="0.16"/><circle cx="711.0" cy="247.7" r="2.30" fill="#bd6b20" opacity="0.17"/><circle cx="749.5" cy="245.8" r="3.96" fill="#bd6b20" opacity="0.26"/><circle cx="788.5" cy="246.2" r="3.99" fill="#bd6b20" opacity="0.33"/><circle cx="824.6" cy="244.9" r="2.92" fill="#bd6b20" opacity="0.26"/><circle cx="858.9" cy="245.4" r="3.92" fill="#bd6b20" opacity="0.23"/><circle cx="891.5" cy="245.4" r="1.85" fill="#bd6b20" opacity="0.15"/><circle cx="929.0" cy="244.4" r="3.31" fill="#bd6b20" opacity="0.23"/><circle cx="968.2" cy="248.5" r="1.67" fill="#bd6b20" opacity="0.26"/><circle cx="1003.1" cy="247.9" r="2.04" fill="#bd6b20" opacity="0.34"/><circle cx="1040.7" cy="248.7" r="3.96" fill="#bd6b20" opacity="0.18"/><circle cx="1074.9" cy="244.7" r="1.70" fill="#bd6b20" opacity="0.27"/><circle cx="1109.8" cy="244.3" r="2.10" fill="#bd6b20" opacity="0.16"/><circle cx="1143.6" cy="248.5" r="2.69" fill="#bd6b20" opacity="0.34"/><circle cx="1184.7" cy="244.4" r="2.80" fill="#bd6b20" opacity="0.33"/><circle cx="28.7" cy="281.6" r="2.03" fill="#bd6b20" opacity="0.31"/><circle cx="63.8" cy="282.6" r="3.39" fill="#bd6b20" opacity="0.27"/><circle cx="102.2" cy="280.2" r="1.71" fill="#bd6b20" opacity="0.33"/><circle cx="136.9" cy="279.2" r="2.94" fill="#bd6b20" opacity="0.33"/><circle cx="171.9" cy="284.4" r="3.14" fill="#bd6b20" opacity="0.26"/><circle cx="210.9" cy="283.5" r="1.88" fill="#bd6b20" opacity="0.34"/><circle cx="247.9" cy="281.6" r="2.52" fill="#bd6b20" opacity="0.24"/><circle cx="283.6" cy="281.4" r="2.56" fill="#bd6b20" opacity="0.26"/><circle cx="317.7" cy="281.0" r="2.76" fill="#bd6b20" opacity="0.26"/><circle cx="352.1" cy="280.1" r="2.71" fill="#bd6b20" opacity="0.27"/><circle cx="389.9" cy="283.0" r="3.16" fill="#bd6b20" opacity="0.21"/><circle cx="427.9" cy="283.2" r="3.74" fill="#bd6b20" opacity="0.27"/><circle cx="459.4" cy="282.2" r="3.59" fill="#bd6b20" opacity="0.15"/><circle cx="496.7" cy="284.3" r="2.42" fill="#bd6b20" opacity="0.26"/><circle cx="532.3" cy="279.4" r="2.63" fill="#bd6b20" opacity="0.22"/><circle cx="569.2" cy="281.6" r="2.39" fill="#bd6b20" opacity="0.18"/><circle cx="607.0" cy="281.2" r="2.71" fill="#bd6b20" opacity="0.35"/><circle cx="644.1" cy="283.7" r="3.54" fill="#bd6b20" opacity="0.27"/><circle cx="675.1" cy="282.7" r="2.26" fill="#bd6b20" opacity="0.23"/><circle cx="716.6" cy="281.0" r="3.55" fill="#bd6b20" opacity="0.18"/><circle cx="749.0" cy="282.0" r="3.41" fill="#bd6b20" opacity="0.29"/><circle cx="786.9" cy="281.7" r="2.83" fill="#bd6b20" opacity="0.16"/><circle cx="824.1" cy="284.2" r="2.16" fill="#bd6b20" opacity="0.25"/><circle cx="860.8" cy="281.6" r="2.57" fill="#bd6b20" opacity="0.32"/><circle cx="896.5" cy="281.9" r="2.52" fill="#bd6b20" opacity="0.20"/><circle cx="931.7" cy="279.3" r="2.38" fill="#bd6b20" opacity="0.25"/><circle cx="967.0" cy="283.4" r="3.39" fill="#bd6b20" opacity="0.15"/><circle cx="1002.0" cy="283.0" r="1.79" fill="#bd6b20" opacity="0.24"/><circle cx="1040.7" cy="283.4" r="1.83" fill="#bd6b20" opacity="0.23"/><circle cx="1071.9" cy="279.3" r="2.54" fill="#bd6b20" opacity="0.27"/><circle cx="1109.3" cy="282.9" r="1.98" fill="#bd6b20" opacity="0.21"/><circle cx="1147.2" cy="282.5" r="3.18" fill="#bd6b20" opacity="0.22"/><circle cx="1179.7" cy="283.4" r="3.12" fill="#bd6b20" opacity="0.16"/><circle cx="28.0" cy="318.3" r="3.73" fill="#bd6b20" opacity="0.22"/><circle cx="66.9" cy="320.9" r="3.70" fill="#bd6b20" opacity="0.26"/><circle cx="100.2" cy="320.0" r="2.89" fill="#bd6b20" opacity="0.31"/><circle cx="140.1" cy="316.4" r="3.80" fill="#bd6b20" opacity="0.30"/><circle cx="173.2" cy="319.9" r="2.76" fill="#bd6b20" opacity="0.26"/><circle cx="210.6" cy="318.0" r="3.24" fill="#bd6b20" opacity="0.26"/><circle cx="248.7" cy="319.2" r="3.59" fill="#bd6b20" opacity="0.31"/><circle cx="282.3" cy="315.3" r="2.65" fill="#bd6b20" opacity="0.27"/><circle cx="319.8" cy="317.2" r="3.50" fill="#bd6b20" opacity="0.21"/><circle cx="351.6" cy="317.0" r="2.73" fill="#bd6b20" opacity="0.24"/><circle cx="387.9" cy="317.6" r="2.83" fill="#bd6b20" opacity="0.20"/><circle cx="425.3" cy="315.8" r="2.43" fill="#bd6b20" opacity="0.21"/><circle cx="460.7" cy="319.6" r="2.17" fill="#bd6b20" opacity="0.22"/><circle cx="500.3" cy="315.5" r="3.51" fill="#bd6b20" opacity="0.23"/><circle cx="536.2" cy="318.2" r="3.71" fill="#bd6b20" opacity="0.16"/><circle cx="567.6" cy="318.0" r="2.40" fill="#bd6b20" opacity="0.17"/><circle cx="606.7" cy="319.5" r="1.96" fill="#bd6b20" opacity="0.22"/><circle cx="641.8" cy="317.1" r="2.80" fill="#bd6b20" opacity="0.22"/><circle cx="677.2" cy="317.9" r="3.58" fill="#bd6b20" opacity="0.32"/><circle cx="712.6" cy="316.8" r="3.99" fill="#bd6b20" opacity="0.18"/><circle cx="749.3" cy="318.1" r="2.55" fill="#bd6b20" opacity="0.34"/><circle cx="785.6" cy="318.1" r="2.42" fill="#bd6b20" opacity="0.16"/><circle cx="824.1" cy="317.8" r="3.83" fill="#bd6b20" opacity="0.31"/><circle cx="856.3" cy="318.6" r="3.08" fill="#bd6b20" opacity="0.15"/><circle cx="892.5" cy="315.5" r="3.72" fill="#bd6b20" opacity="0.29"/><circle cx="932.6" cy="319.7" r="3.87" fill="#bd6b20" opacity="0.36"/><circle cx="963.1" cy="315.1" r="3.98" fill="#bd6b20" opacity="0.18"/><circle cx="1004.9" cy="320.8" r="3.04" fill="#bd6b20" opacity="0.29"/><circle cx="1036.2" cy="319.6" r="2.49" fill="#bd6b20" opacity="0.33"/><circle cx="1071.9" cy="316.3" r="3.62" fill="#bd6b20" opacity="0.27"/><circle cx="1110.5" cy="318.0" r="2.64" fill="#bd6b20" opacity="0.35"/><circle cx="1143.5" cy="315.6" r="2.20" fill="#bd6b20" opacity="0.17"/><circle cx="1181.4" cy="320.0" r="1.76" fill="#bd6b20" opacity="0.36"/><circle cx="32.5" cy="351.5" r="1.76" fill="#bd6b20" opacity="0.33"/><circle cx="63.1" cy="353.7" r="2.32" fill="#bd6b20" opacity="0.31"/><circle cx="103.9" cy="355.2" r="3.49" fill="#bd6b20" opacity="0.26"/><circle cx="136.9" cy="356.4" r="2.95" fill="#bd6b20" opacity="0.21"/><circle cx="174.9" cy="351.0" r="3.11" fill="#bd6b20" opacity="0.17"/><circle cx="209.3" cy="352.8" r="3.83" fill="#bd6b20" opacity="0.28"/><circle cx="248.9" cy="356.8" r="1.73" fill="#bd6b20" opacity="0.19"/><circle cx="279.1" cy="355.4" r="3.45" fill="#bd6b20" opacity="0.33"/><circle cx="320.0" cy="353.0" r="3.07" fill="#bd6b20" opacity="0.26"/><circle cx="351.0" cy="352.8" r="1.78" fill="#bd6b20" opacity="0.21"/><circle cx="391.9" cy="351.8" r="2.12" fill="#bd6b20" opacity="0.20"/><circle cx="424.7" cy="353.8" r="3.80" fill="#bd6b20" opacity="0.22"/><circle cx="463.3" cy="351.2" r="1.74" fill="#bd6b20" opacity="0.22"/><circle cx="498.2" cy="355.8" r="3.92" fill="#bd6b20" opacity="0.35"/><circle cx="531.7" cy="352.0" r="1.77" fill="#bd6b20" opacity="0.20"/><circle cx="568.8" cy="356.1" r="3.40" fill="#bd6b20" opacity="0.25"/><circle cx="606.3" cy="355.9" r="2.29" fill="#bd6b20" opacity="0.30"/><circle cx="644.7" cy="357.0" r="3.17" fill="#bd6b20" opacity="0.17"/><circle cx="676.2" cy="355.8" r="3.32" fill="#bd6b20" opacity="0.31"/><circle cx="715.9" cy="355.7" r="3.29" fill="#bd6b20" opacity="0.24"/><circle cx="752.6" cy="355.7" r="3.12" fill="#bd6b20" opacity="0.31"/><circle cx="784.8" cy="351.0" r="3.75" fill="#bd6b20" opacity="0.30"/><circle cx="820.4" cy="355.9" r="2.09" fill="#bd6b20" opacity="0.25"/><circle cx="855.1" cy="353.8" r="3.47" fill="#bd6b20" opacity="0.31"/><circle cx="896.1" cy="355.5" r="2.61" fill="#bd6b20" opacity="0.36"/><circle cx="927.3" cy="356.8" r="2.44" fill="#bd6b20" opacity="0.26"/><circle cx="968.3" cy="354.3" r="2.88" fill="#bd6b20" opacity="0.17"/><circle cx="1001.2" cy="355.5" r="3.66" fill="#bd6b20" opacity="0.15"/><circle cx="1039.3" cy="355.1" r="2.60" fill="#bd6b20" opacity="0.26"/><circle cx="1075.4" cy="352.2" r="1.65" fill="#bd6b20" opacity="0.35"/><circle cx="1112.3" cy="354.4" r="3.37" fill="#bd6b20" opacity="0.27"/><circle cx="1144.4" cy="356.1" r="3.56" fill="#bd6b20" opacity="0.28"/><circle cx="1184.7" cy="353.5" r="2.83" fill="#bd6b20" opacity="0.19"/><circle cx="28.3" cy="387.2" r="1.81" fill="#bd6b20" opacity="0.18"/><circle cx="63.9" cy="387.2" r="2.03" fill="#bd6b20" opacity="0.31"/><circle cx="102.1" cy="390.1" r="2.79" fill="#bd6b20" opacity="0.16"/><circle cx="139.5" cy="390.6" r="1.76" fill="#bd6b20" opacity="0.27"/><circle cx="174.2" cy="390.2" r="2.72" fill="#bd6b20" opacity="0.19"/><circle cx="211.6" cy="389.6" r="3.76" fill="#bd6b20" opacity="0.19"/><circle cx="243.7" cy="390.7" r="3.90" fill="#bd6b20" opacity="0.17"/><circle cx="279.4" cy="389.4" r="1.90" fill="#bd6b20" opacity="0.19"/><circle cx="319.0" cy="387.7" r="2.81" fill="#bd6b20" opacity="0.30"/><circle cx="355.9" cy="390.0" r="3.93" fill="#bd6b20" opacity="0.25"/><circle cx="391.5" cy="391.5" r="3.16" fill="#bd6b20" opacity="0.24"/><circle cx="427.2" cy="387.8" r="3.31" fill="#bd6b20" opacity="0.25"/><circle cx="459.4" cy="393.0" r="3.00" fill="#bd6b20" opacity="0.21"/><circle cx="497.9" cy="392.0" r="3.42" fill="#bd6b20" opacity="0.34"/><circle cx="531.8" cy="389.7" r="1.71" fill="#bd6b20" opacity="0.25"/><circle cx="568.8" cy="392.6" r="2.87" fill="#bd6b20" opacity="0.20"/><circle cx="604.1" cy="388.9" r="2.37" fill="#bd6b20" opacity="0.23"/><circle cx="643.8" cy="391.4" r="2.26" fill="#bd6b20" opacity="0.21"/><circle cx="678.4" cy="389.5" r="2.87" fill="#bd6b20" opacity="0.26"/><circle cx="712.4" cy="388.5" r="2.80" fill="#bd6b20" opacity="0.28"/><circle cx="747.3" cy="387.7" r="3.48" fill="#bd6b20" opacity="0.25"/><circle cx="783.9" cy="388.0" r="2.16" fill="#bd6b20" opacity="0.29"/><circle cx="823.5" cy="391.0" r="1.70" fill="#bd6b20" opacity="0.34"/><circle cx="858.1" cy="391.4" r="3.09" fill="#bd6b20" opacity="0.34"/><circle cx="893.1" cy="390.3" r="1.70" fill="#bd6b20" opacity="0.19"/><circle cx="929.2" cy="389.3" r="3.63" fill="#bd6b20" opacity="0.24"/><circle cx="968.2" cy="389.9" r="1.69" fill="#bd6b20" opacity="0.24"/><circle cx="1002.9" cy="390.2" r="1.79" fill="#bd6b20" opacity="0.29"/><circle cx="1038.4" cy="388.6" r="1.93" fill="#bd6b20" opacity="0.21"/><circle cx="1074.7" cy="391.2" r="2.62" fill="#bd6b20" opacity="0.34"/><circle cx="1110.2" cy="387.8" r="3.72" fill="#bd6b20" opacity="0.21"/><circle cx="1144.4" cy="391.8" r="1.60" fill="#bd6b20" opacity="0.31"/><circle cx="1184.3" cy="391.3" r="3.09" fill="#bd6b20" opacity="0.24"/><circle cx="32.0" cy="428.8" r="3.10" fill="#bd6b20" opacity="0.36"/><circle cx="68.9" cy="427.4" r="2.67" fill="#bd6b20" opacity="0.24"/><circle cx="101.5" cy="423.3" r="3.45" fill="#bd6b20" opacity="0.26"/><circle cx="138.5" cy="427.4" r="2.13" fill="#bd6b20" opacity="0.36"/><circle cx="175.0" cy="426.4" r="2.72" fill="#bd6b20" opacity="0.27"/><circle cx="212.5" cy="428.0" r="3.30" fill="#bd6b20" opacity="0.32"/><circle cx="243.8" cy="427.2" r="3.05" fill="#bd6b20" opacity="0.19"/><circle cx="284.8" cy="423.9" r="3.09" fill="#bd6b20" opacity="0.32"/><circle cx="315.7" cy="424.5" r="3.28" fill="#bd6b20" opacity="0.20"/><circle cx="352.8" cy="425.1" r="1.60" fill="#bd6b20" opacity="0.28"/><circle cx="388.7" cy="423.1" r="3.08" fill="#bd6b20" opacity="0.29"/><circle cx="427.2" cy="424.9" r="3.27" fill="#bd6b20" opacity="0.28"/><circle cx="465.0" cy="428.2" r="3.59" fill="#bd6b20" opacity="0.23"/><circle cx="499.7" cy="427.0" r="2.73" fill="#bd6b20" opacity="0.28"/><circle cx="535.5" cy="427.6" r="3.65" fill="#bd6b20" opacity="0.20"/><circle cx="567.1" cy="423.8" r="2.50" fill="#bd6b20" opacity="0.35"/><circle cx="606.2" cy="425.6" r="3.64" fill="#bd6b20" opacity="0.24"/><circle cx="640.7" cy="426.3" r="2.18" fill="#bd6b20" opacity="0.27"/><circle cx="677.0" cy="425.5" r="3.27" fill="#bd6b20" opacity="0.30"/><circle cx="711.6" cy="428.2" r="2.55" fill="#bd6b20" opacity="0.19"/><circle cx="751.2" cy="423.5" r="3.01" fill="#bd6b20" opacity="0.23"/><circle cx="788.5" cy="426.8" r="1.86" fill="#bd6b20" opacity="0.28"/><circle cx="819.5" cy="425.8" r="3.63" fill="#bd6b20" opacity="0.29"/><circle cx="859.8" cy="426.6" r="2.50" fill="#bd6b20" opacity="0.24"/><circle cx="895.9" cy="429.0" r="3.26" fill="#bd6b20" opacity="0.29"/><circle cx="928.1" cy="424.8" r="2.76" fill="#bd6b20" opacity="0.17"/><circle cx="965.0" cy="424.5" r="3.57" fill="#bd6b20" opacity="0.33"/><circle cx="1003.0" cy="425.7" r="3.95" fill="#bd6b20" opacity="0.24"/><circle cx="1039.5" cy="428.5" r="1.63" fill="#bd6b20" opacity="0.26"/><circle cx="1073.7" cy="423.9" r="1.77" fill="#bd6b20" opacity="0.19"/><circle cx="1110.1" cy="427.3" r="3.92" fill="#bd6b20" opacity="0.17"/><circle cx="1145.2" cy="426.1" r="3.28" fill="#bd6b20" opacity="0.16"/><circle cx="1183.9" cy="425.0" r="1.79" fill="#bd6b20" opacity="0.27"/><circle cx="30.6" cy="463.2" r="3.22" fill="#bd6b20" opacity="0.16"/><circle cx="66.8" cy="459.8" r="3.57" fill="#bd6b20" opacity="0.21"/><circle cx="104.6" cy="460.5" r="3.06" fill="#bd6b20" opacity="0.27"/><circle cx="140.3" cy="459.8" r="1.74" fill="#bd6b20" opacity="0.20"/><circle cx="173.9" cy="463.1" r="2.80" fill="#bd6b20" opacity="0.28"/><circle cx="208.3" cy="460.4" r="1.85" fill="#bd6b20" opacity="0.15"/><circle cx="244.7" cy="463.0" r="3.66" fill="#bd6b20" opacity="0.30"/><circle cx="283.5" cy="463.5" r="1.95" fill="#bd6b20" opacity="0.27"/><circle cx="316.3" cy="461.5" r="1.91" fill="#bd6b20" opacity="0.23"/><circle cx="356.5" cy="462.8" r="3.46" fill="#bd6b20" opacity="0.22"/><circle cx="392.6" cy="461.2" r="2.98" fill="#bd6b20" opacity="0.24"/><circle cx="425.0" cy="463.5" r="1.76" fill="#bd6b20" opacity="0.35"/><circle cx="463.2" cy="464.7" r="1.68" fill="#bd6b20" opacity="0.31"/><circle cx="495.5" cy="460.9" r="2.85" fill="#bd6b20" opacity="0.19"/><circle cx="532.1" cy="463.0" r="3.01" fill="#bd6b20" opacity="0.33"/><circle cx="570.2" cy="464.0" r="1.86" fill="#bd6b20" opacity="0.30"/><circle cx="607.7" cy="461.7" r="2.52" fill="#bd6b20" opacity="0.19"/><circle cx="641.5" cy="463.2" r="2.20" fill="#bd6b20" opacity="0.25"/><circle cx="680.4" cy="461.3" r="3.67" fill="#bd6b20" opacity="0.23"/><circle cx="716.2" cy="460.0" r="2.12" fill="#bd6b20" opacity="0.28"/><circle cx="749.3" cy="463.6" r="2.86" fill="#bd6b20" opacity="0.35"/><circle cx="783.1" cy="460.2" r="3.41" fill="#bd6b20" opacity="0.26"/><circle cx="822.4" cy="462.2" r="2.53" fill="#bd6b20" opacity="0.19"/><circle cx="858.7" cy="459.0" r="1.85" fill="#bd6b20" opacity="0.16"/><circle cx="893.5" cy="464.3" r="2.87" fill="#bd6b20" opacity="0.33"/><circle cx="928.5" cy="460.9" r="3.84" fill="#bd6b20" opacity="0.32"/><circle cx="967.4" cy="461.3" r="3.33" fill="#bd6b20" opacity="0.24"/><circle cx="1003.8" cy="463.4" r="1.84" fill="#bd6b20" opacity="0.26"/><circle cx="1038.7" cy="459.0" r="1.69" fill="#bd6b20" opacity="0.24"/><circle cx="1076.7" cy="463.5" r="3.91" fill="#bd6b20" opacity="0.27"/><circle cx="1107.6" cy="462.3" r="3.71" fill="#bd6b20" opacity="0.16"/><circle cx="1148.4" cy="464.5" r="3.88" fill="#bd6b20" opacity="0.18"/><circle cx="1182.2" cy="460.3" r="1.63" fill="#bd6b20" opacity="0.29"/><circle cx="31.0" cy="495.1" r="3.30" fill="#bd6b20" opacity="0.17"/><circle cx="66.0" cy="498.0" r="1.79" fill="#bd6b20" opacity="0.20"/><circle cx="99.7" cy="500.6" r="3.95" fill="#bd6b20" opacity="0.28"/><circle cx="136.9" cy="496.1" r="3.63" fill="#bd6b20" opacity="0.28"/><circle cx="173.6" cy="499.8" r="3.78" fill="#bd6b20" opacity="0.16"/><circle cx="207.2" cy="500.1" r="3.66" fill="#bd6b20" opacity="0.26"/><circle cx="246.2" cy="500.6" r="2.71" fill="#bd6b20" opacity="0.29"/><circle cx="283.4" cy="500.0" r="1.91" fill="#bd6b20" opacity="0.23"/><circle cx="315.1" cy="495.0" r="2.03" fill="#bd6b20" opacity="0.19"/><circle cx="352.0" cy="500.8" r="2.78" fill="#bd6b20" opacity="0.21"/><circle cx="391.8" cy="497.6" r="1.87" fill="#bd6b20" opacity="0.19"/><circle cx="427.2" cy="495.4" r="3.88" fill="#bd6b20" opacity="0.23"/><circle cx="460.1" cy="499.4" r="2.97" fill="#bd6b20" opacity="0.26"/><circle cx="496.7" cy="499.4" r="2.48" fill="#bd6b20" opacity="0.33"/><circle cx="535.5" cy="498.8" r="3.47" fill="#bd6b20" opacity="0.34"/><circle cx="567.8" cy="499.0" r="3.27" fill="#bd6b20" opacity="0.25"/><circle cx="607.7" cy="499.1" r="2.83" fill="#bd6b20" opacity="0.32"/><circle cx="641.9" cy="498.7" r="3.10" fill="#bd6b20" opacity="0.15"/><circle cx="677.0" cy="497.0" r="2.33" fill="#bd6b20" opacity="0.21"/><circle cx="711.4" cy="495.4" r="3.61" fill="#bd6b20" opacity="0.33"/><circle cx="750.0" cy="498.6" r="2.32" fill="#bd6b20" opacity="0.21"/><circle cx="788.5" cy="495.4" r="2.35" fill="#bd6b20" opacity="0.15"/><circle cx="823.5" cy="498.7" r="3.17" fill="#bd6b20" opacity="0.17"/><circle cx="860.5" cy="500.9" r="3.27" fill="#bd6b20" opacity="0.26"/><circle cx="893.6" cy="495.7" r="2.52" fill="#bd6b20" opacity="0.35"/><circle cx="929.6" cy="497.8" r="2.77" fill="#bd6b20" opacity="0.19"/><circle cx="964.1" cy="500.5" r="1.61" fill="#bd6b20" opacity="0.23"/><circle cx="1003.6" cy="498.4" r="1.62" fill="#bd6b20" opacity="0.20"/><circle cx="1040.0" cy="496.1" r="3.67" fill="#bd6b20" opacity="0.19"/><circle cx="1072.4" cy="497.7" r="3.85" fill="#bd6b20" opacity="0.32"/><circle cx="1107.7" cy="499.8" r="1.74" fill="#bd6b20" opacity="0.30"/><circle cx="1143.1" cy="498.5" r="3.23" fill="#bd6b20" opacity="0.20"/><circle cx="1181.7" cy="495.7" r="1.95" fill="#bd6b20" opacity="0.35"/><circle cx="29.8" cy="536.4" r="3.70" fill="#bd6b20" opacity="0.25"/><circle cx="65.5" cy="534.0" r="3.32" fill="#bd6b20" opacity="0.22"/><circle cx="100.3" cy="535.7" r="2.54" fill="#bd6b20" opacity="0.31"/><circle cx="139.7" cy="531.9" r="2.46" fill="#bd6b20" opacity="0.16"/><circle cx="171.4" cy="534.0" r="3.44" fill="#bd6b20" opacity="0.28"/><circle cx="211.5" cy="535.0" r="2.21" fill="#bd6b20" opacity="0.31"/><circle cx="247.9" cy="533.3" r="3.22" fill="#bd6b20" opacity="0.35"/><circle cx="282.8" cy="532.6" r="3.87" fill="#bd6b20" opacity="0.22"/><circle cx="316.6" cy="534.2" r="3.80" fill="#bd6b20" opacity="0.16"/><circle cx="354.4" cy="531.6" r="2.44" fill="#bd6b20" opacity="0.28"/><circle cx="391.2" cy="534.3" r="3.74" fill="#bd6b20" opacity="0.30"/><circle cx="427.8" cy="534.1" r="2.10" fill="#bd6b20" opacity="0.22"/><circle cx="464.0" cy="536.1" r="2.26" fill="#bd6b20" opacity="0.30"/><circle cx="495.8" cy="536.3" r="2.63" fill="#bd6b20" opacity="0.21"/><circle cx="536.7" cy="536.0" r="1.99" fill="#bd6b20" opacity="0.22"/><circle cx="571.0" cy="533.7" r="2.36" fill="#bd6b20" opacity="0.19"/><circle cx="604.1" cy="534.5" r="2.41" fill="#bd6b20" opacity="0.33"/><circle cx="642.4" cy="534.8" r="2.80" fill="#bd6b20" opacity="0.26"/><circle cx="676.5" cy="533.8" r="2.36" fill="#bd6b20" opacity="0.26"/><circle cx="715.0" cy="531.3" r="2.17" fill="#bd6b20" opacity="0.33"/><circle cx="752.5" cy="532.5" r="3.13" fill="#bd6b20" opacity="0.20"/><circle cx="786.2" cy="532.7" r="2.56" fill="#bd6b20" opacity="0.29"/><circle cx="821.7" cy="531.0" r="3.93" fill="#bd6b20" opacity="0.35"/><circle cx="860.4" cy="532.0" r="1.84" fill="#bd6b20" opacity="0.23"/><circle cx="896.3" cy="532.8" r="3.61" fill="#bd6b20" opacity="0.30"/><circle cx="932.3" cy="531.5" r="2.80" fill="#bd6b20" opacity="0.34"/><circle cx="967.5" cy="531.5" r="1.85" fill="#bd6b20" opacity="0.33"/><circle cx="999.4" cy="534.8" r="3.88" fill="#bd6b20" opacity="0.31"/><circle cx="1035.1" cy="536.0" r="3.58" fill="#bd6b20" opacity="0.30"/><circle cx="1071.1" cy="534.6" r="3.04" fill="#bd6b20" opacity="0.18"/><circle cx="1107.4" cy="534.6" r="3.73" fill="#bd6b20" opacity="0.26"/><circle cx="1147.5" cy="532.9" r="2.18" fill="#bd6b20" opacity="0.28"/><circle cx="1180.8" cy="534.4" r="2.28" fill="#bd6b20" opacity="0.18"/><circle cx="30.4" cy="568.2" r="2.06" fill="#bd6b20" opacity="0.18"/><circle cx="65.8" cy="567.9" r="2.53" fill="#bd6b20" opacity="0.20"/><circle cx="101.4" cy="570.6" r="1.89" fill="#bd6b20" opacity="0.23"/><circle cx="138.5" cy="567.4" r="1.76" fill="#bd6b20" opacity="0.28"/><circle cx="174.8" cy="571.1" r="2.01" fill="#bd6b20" opacity="0.15"/><circle cx="209.4" cy="572.1" r="2.20" fill="#bd6b20" opacity="0.15"/><circle cx="244.6" cy="569.9" r="3.56" fill="#bd6b20" opacity="0.32"/><circle cx="283.3" cy="568.3" r="2.73" fill="#bd6b20" opacity="0.34"/><circle cx="317.1" cy="572.9" r="1.98" fill="#bd6b20" opacity="0.17"/><circle cx="353.4" cy="567.4" r="2.09" fill="#bd6b20" opacity="0.26"/><circle cx="391.8" cy="569.3" r="2.11" fill="#bd6b20" opacity="0.34"/><circle cx="428.1" cy="570.8" r="2.61" fill="#bd6b20" opacity="0.22"/><circle cx="464.4" cy="567.3" r="3.02" fill="#bd6b20" opacity="0.28"/><circle cx="500.0" cy="568.0" r="3.58" fill="#bd6b20" opacity="0.15"/><circle cx="532.3" cy="569.1" r="3.99" fill="#bd6b20" opacity="0.20"/><circle cx="567.2" cy="570.9" r="3.40" fill="#bd6b20" opacity="0.19"/><circle cx="605.8" cy="570.0" r="2.81" fill="#bd6b20" opacity="0.22"/><circle cx="641.2" cy="571.0" r="2.30" fill="#bd6b20" opacity="0.28"/><circle cx="679.3" cy="569.3" r="2.88" fill="#bd6b20" opacity="0.32"/><circle cx="716.7" cy="569.7" r="2.81" fill="#bd6b20" opacity="0.23"/><circle cx="752.8" cy="569.5" r="2.99" fill="#bd6b20" opacity="0.20"/><circle cx="787.2" cy="571.0" r="2.71" fill="#bd6b20" opacity="0.32"/><circle cx="822.8" cy="567.1" r="1.98" fill="#bd6b20" opacity="0.30"/><circle cx="857.8" cy="570.3" r="3.50" fill="#bd6b20" opacity="0.32"/><circle cx="895.3" cy="570.8" r="2.58" fill="#bd6b20" opacity="0.32"/><circle cx="928.8" cy="572.4" r="3.03" fill="#bd6b20" opacity="0.22"/><circle cx="963.1" cy="570.2" r="1.93" fill="#bd6b20" opacity="0.20"/><circle cx="999.6" cy="569.4" r="3.52" fill="#bd6b20" opacity="0.22"/><circle cx="1037.6" cy="567.9" r="3.06" fill="#bd6b20" opacity="0.18"/><circle cx="1076.3" cy="572.8" r="1.96" fill="#bd6b20" opacity="0.21"/><circle cx="1110.1" cy="568.3" r="3.43" fill="#bd6b20" opacity="0.29"/><circle cx="1144.6" cy="568.6" r="3.96" fill="#bd6b20" opacity="0.29"/><circle cx="1179.1" cy="570.2" r="3.96" fill="#bd6b20" opacity="0.33"/><circle cx="29.0" cy="603.1" r="2.03" fill="#bd6b20" opacity="0.32"/><circle cx="68.2" cy="607.8" r="2.13" fill="#bd6b20" opacity="0.31"/><circle cx="100.1" cy="604.3" r="2.68" fill="#bd6b20" opacity="0.17"/><circle cx="136.6" cy="606.8" r="3.72" fill="#bd6b20" opacity="0.21"/><circle cx="171.1" cy="604.1" r="3.98" fill="#bd6b20" opacity="0.17"/><circle cx="212.0" cy="605.4" r="2.36" fill="#bd6b20" opacity="0.25"/><circle cx="246.1" cy="604.7" r="3.99" fill="#bd6b20" opacity="0.25"/><circle cx="282.3" cy="603.4" r="3.57" fill="#bd6b20" opacity="0.22"/><circle cx="317.4" cy="603.4" r="3.10" fill="#bd6b20" opacity="0.33"/><circle cx="353.1" cy="607.9" r="1.89" fill="#bd6b20" opacity="0.28"/><circle cx="388.8" cy="605.6" r="3.73" fill="#bd6b20" opacity="0.22"/><circle cx="428.9" cy="605.8" r="2.98" fill="#bd6b20" opacity="0.21"/><circle cx="464.9" cy="605.4" r="2.13" fill="#bd6b20" opacity="0.20"/><circle cx="499.6" cy="607.8" r="3.49" fill="#bd6b20" opacity="0.17"/><circle cx="533.5" cy="603.7" r="2.87" fill="#bd6b20" opacity="0.27"/><circle cx="571.0" cy="608.0" r="3.96" fill="#bd6b20" opacity="0.22"/><circle cx="607.0" cy="603.1" r="3.46" fill="#bd6b20" opacity="0.20"/><circle cx="639.4" cy="604.5" r="2.42" fill="#bd6b20" opacity="0.26"/><circle cx="680.4" cy="604.0" r="3.16" fill="#bd6b20" opacity="0.34"/><circle cx="713.5" cy="608.9" r="2.12" fill="#bd6b20" opacity="0.18"/><circle cx="752.2" cy="608.9" r="2.60" fill="#bd6b20" opacity="0.32"/><circle cx="784.5" cy="605.4" r="1.94" fill="#bd6b20" opacity="0.35"/><circle cx="819.6" cy="603.5" r="3.63" fill="#bd6b20" opacity="0.17"/><circle cx="856.6" cy="607.0" r="1.99" fill="#bd6b20" opacity="0.31"/><circle cx="895.3" cy="603.4" r="1.87" fill="#bd6b20" opacity="0.24"/><circle cx="930.5" cy="606.8" r="2.55" fill="#bd6b20" opacity="0.17"/><circle cx="967.9" cy="605.3" r="3.31" fill="#bd6b20" opacity="0.33"/><circle cx="1003.7" cy="603.7" r="1.91" fill="#bd6b20" opacity="0.21"/><circle cx="1035.1" cy="604.7" r="1.70" fill="#bd6b20" opacity="0.36"/><circle cx="1074.1" cy="608.8" r="3.02" fill="#bd6b20" opacity="0.20"/><circle cx="1110.9" cy="605.8" r="1.68" fill="#bd6b20" opacity="0.30"/><circle cx="1143.1" cy="603.7" r="2.84" fill="#bd6b20" opacity="0.17"/><circle cx="1180.2" cy="607.6" r="1.76" fill="#bd6b20" opacity="0.15"/><circle cx="29.7" cy="642.2" r="3.92" fill="#bd6b20" opacity="0.15"/><circle cx="64.7" cy="644.7" r="3.03" fill="#bd6b20" opacity="0.17"/><circle cx="101.8" cy="640.6" r="2.57" fill="#bd6b20" opacity="0.18"/><circle cx="140.4" cy="642.7" r="2.02" fill="#bd6b20" opacity="0.18"/><circle cx="174.0" cy="640.5" r="1.73" fill="#bd6b20" opacity="0.35"/><circle cx="210.2" cy="645.0" r="3.75" fill="#bd6b20" opacity="0.16"/><circle cx="246.0" cy="641.2" r="1.76" fill="#bd6b20" opacity="0.24"/><circle cx="284.8" cy="642.5" r="2.26" fill="#bd6b20" opacity="0.19"/><circle cx="317.8" cy="645.0" r="3.09" fill="#bd6b20" opacity="0.30"/><circle cx="352.7" cy="643.1" r="1.75" fill="#bd6b20" opacity="0.31"/><circle cx="388.0" cy="642.2" r="3.45" fill="#bd6b20" opacity="0.19"/><circle cx="423.6" cy="643.9" r="1.85" fill="#bd6b20" opacity="0.35"/><circle cx="461.3" cy="639.0" r="2.24" fill="#bd6b20" opacity="0.28"/><circle cx="499.9" cy="642.5" r="3.16" fill="#bd6b20" opacity="0.32"/><circle cx="531.8" cy="643.0" r="3.47" fill="#bd6b20" opacity="0.19"/><circle cx="567.1" cy="640.4" r="3.66" fill="#bd6b20" opacity="0.29"/><circle cx="608.3" cy="644.8" r="3.62" fill="#bd6b20" opacity="0.32"/><circle cx="639.5" cy="643.1" r="3.16" fill="#bd6b20" opacity="0.20"/><circle cx="676.9" cy="640.4" r="3.21" fill="#bd6b20" opacity="0.35"/><circle cx="711.7" cy="641.1" r="2.87" fill="#bd6b20" opacity="0.35"/><circle cx="748.4" cy="639.0" r="2.14" fill="#bd6b20" opacity="0.35"/><circle cx="788.7" cy="642.0" r="2.74" fill="#bd6b20" opacity="0.24"/><circle cx="821.6" cy="639.5" r="2.26" fill="#bd6b20" opacity="0.17"/><circle cx="856.0" cy="641.9" r="3.57" fill="#bd6b20" opacity="0.32"/><circle cx="895.1" cy="643.6" r="3.30" fill="#bd6b20" opacity="0.15"/><circle cx="927.9" cy="643.5" r="2.52" fill="#bd6b20" opacity="0.25"/><circle cx="963.2" cy="641.4" r="2.02" fill="#bd6b20" opacity="0.25"/><circle cx="1003.2" cy="642.9" r="1.94" fill="#bd6b20" opacity="0.22"/><circle cx="1038.4" cy="639.6" r="2.38" fill="#bd6b20" opacity="0.20"/><circle cx="1071.6" cy="639.7" r="2.62" fill="#bd6b20" opacity="0.35"/><circle cx="1108.4" cy="640.4" r="3.99" fill="#bd6b20" opacity="0.30"/><circle cx="1146.1" cy="643.6" r="3.49" fill="#bd6b20" opacity="0.23"/><circle cx="1184.1" cy="643.6" r="2.06" fill="#bd6b20" opacity="0.23"/><circle cx="279.3" cy="247.4" r="220" fill="url(#glow)" opacity="0.9"/>
  <g opacity="0.85" transform="translate(1020, 495)">
        <circle r="68" fill="none" stroke="#bd6b20" stroke-width="2" opacity="0.35"/>
        <path d="M -38 12 L 38 12 M -32 -8 L 32 -8 M -45 -28 L 45 -28" stroke="#9a5518" stroke-width="3" stroke-linecap="round"/>
        <rect x="-50" y="-44" width="100" height="80" fill="none" stroke="#bd6b20" stroke-width="2"/>
      </g>
  <g transform="translate(80, 90)">
    <rect x="0" y="0" rx="20" ry="20" width="112" height="38" fill="#bd6b20" opacity="0.18" stroke="#bd6b20" stroke-width="1.5"/>
    <text x="56" y="25" font-family="ui-sans-serif, Inter, sans-serif" font-weight="700" font-size="14" letter-spacing="2.5" fill="#bd6b20" text-anchor="middle">NEWSROOM</text>
  </g>
  <text x="80" y="465" font-family="ui-sans-serif, -apple-system, Segoe UI, Inter, sans-serif" font-weight="800" font-size="44" fill="#12100e" opacity="0.98"><tspan x="80" dy="0">Madras HC Advocates Equal</tspan><tspan x="80" dy="56">Treatment of Arbitrator</tspan><tspan x="80" dy="56">Fees and Liquidator Fees,</tspan></text>
  <rect x="0" y="669" width="1200" height="6" fill="url(#gold)"/>
</svg>