<?xml version="1.0" encoding="UTF-8"?>
<svg xmlns="http://www.w3.org/2000/svg" viewBox="0 0 1200 675" width="1200" height="675" role="img" aria-label="Generative AI: Unlocking the Future of Trust in Technology">
  <defs>
    <linearGradient id="bg" x1="0%" y1="0%" x2="100%" y2="100%">
      <stop offset="0%" stop-color="#12100e"/>
      <stop offset="100%" stop-color="#1c1917"/>
    </linearGradient>
    <linearGradient id="gold" x1="0%" y1="0%" x2="100%" y2="100%">
      <stop offset="0%" stop-color="#bd6b20"/>
      <stop offset="100%" stop-color="#e09440"/>
    </linearGradient>
    <radialGradient id="glow" cx="50%" cy="50%" r="50%">
      <stop offset="0%" stop-color="#bd6b20" stop-opacity="0.45"/>
      <stop offset="100%" stop-color="#bd6b20" stop-opacity="0"/>
    </radialGradient>
  </defs>
  <rect width="1200" height="675" fill="url(#bg)"/>
  <circle cx="30.8" cy="27.2" r="2.40" fill="#bd6b20" opacity="0.20"/><circle cx="67.1" cy="27.7" r="2.22" fill="#bd6b20" opacity="0.28"/><circle cx="104.8" cy="30.5" r="2.08" fill="#bd6b20" opacity="0.31"/><circle cx="140.4" cy="32.1" r="2.54" fill="#bd6b20" opacity="0.35"/><circle cx="172.5" cy="30.2" r="2.41" fill="#bd6b20" opacity="0.30"/><circle cx="207.7" cy="31.5" r="1.64" fill="#bd6b20" opacity="0.30"/><circle cx="244.4" cy="28.6" r="2.47" fill="#bd6b20" opacity="0.35"/><circle cx="281.9" cy="29.7" r="1.94" fill="#bd6b20" opacity="0.35"/><circle cx="317.6" cy="32.7" r="2.79" fill="#bd6b20" opacity="0.31"/><circle cx="351.0" cy="27.3" r="3.80" fill="#bd6b20" opacity="0.33"/><circle cx="391.0" cy="27.7" r="2.81" fill="#bd6b20" opacity="0.29"/><circle cx="423.1" cy="31.4" r="1.80" fill="#bd6b20" opacity="0.33"/><circle cx="462.7" cy="27.0" r="2.80" fill="#bd6b20" opacity="0.31"/><circle cx="495.2" cy="27.4" r="2.69" fill="#bd6b20" opacity="0.22"/><circle cx="532.6" cy="27.4" r="3.79" fill="#bd6b20" opacity="0.18"/><circle cx="569.8" cy="28.7" r="3.06" fill="#bd6b20" opacity="0.32"/><circle cx="608.0" cy="29.5" r="3.34" fill="#bd6b20" opacity="0.28"/><circle cx="643.5" cy="31.2" r="3.00" fill="#bd6b20" opacity="0.32"/><circle cx="677.2" cy="29.5" r="1.76" fill="#bd6b20" opacity="0.31"/><circle cx="711.6" cy="28.3" r="2.80" fill="#bd6b20" opacity="0.31"/><circle cx="749.3" cy="31.4" r="2.45" fill="#bd6b20" opacity="0.18"/><circle cx="783.9" cy="29.4" r="3.06" fill="#bd6b20" opacity="0.22"/><circle cx="819.0" cy="30.0" r="2.46" fill="#bd6b20" opacity="0.28"/><circle cx="856.2" cy="28.0" r="2.75" fill="#bd6b20" opacity="0.18"/><circle cx="896.3" cy="32.8" r="3.35" fill="#bd6b20" opacity="0.18"/><circle cx="927.7" cy="30.0" r="3.89" fill="#bd6b20" opacity="0.24"/><circle cx="965.5" cy="30.6" r="2.47" fill="#bd6b20" opacity="0.21"/><circle cx="999.1" cy="28.2" r="2.95" fill="#bd6b20" opacity="0.31"/><circle cx="1040.2" cy="31.6" r="2.37" fill="#bd6b20" opacity="0.31"/><circle cx="1071.6" cy="28.8" r="3.80" fill="#bd6b20" opacity="0.19"/><circle cx="1107.8" cy="29.6" r="3.60" fill="#bd6b20" opacity="0.35"/><circle cx="1146.8" cy="27.9" r="2.40" fill="#bd6b20" opacity="0.21"/><circle cx="1183.1" cy="29.5" r="1.82" fill="#bd6b20" opacity="0.26"/><circle cx="27.9" cy="65.5" r="3.21" fill="#bd6b20" opacity="0.15"/><circle cx="63.2" cy="64.9" r="3.21" fill="#bd6b20" opacity="0.31"/><circle cx="100.1" cy="68.6" r="1.61" fill="#bd6b20" opacity="0.20"/><circle cx="140.1" cy="64.2" r="3.94" fill="#bd6b20" opacity="0.18"/><circle cx="171.1" cy="68.1" r="1.96" fill="#bd6b20" opacity="0.22"/><circle cx="208.7" cy="63.3" r="3.36" fill="#bd6b20" opacity="0.28"/><circle cx="245.5" cy="63.9" r="1.70" fill="#bd6b20" opacity="0.30"/><circle cx="280.7" cy="63.6" r="1.92" fill="#bd6b20" opacity="0.24"/><circle cx="316.1" cy="66.7" r="1.67" fill="#bd6b20" opacity="0.29"/><circle cx="355.0" cy="64.6" r="2.13" fill="#bd6b20" opacity="0.35"/><circle cx="391.8" cy="63.7" r="3.65" fill="#bd6b20" opacity="0.25"/><circle cx="427.2" cy="68.2" r="2.20" fill="#bd6b20" opacity="0.22"/><circle cx="459.7" cy="66.9" r="2.16" fill="#bd6b20" opacity="0.33"/><circle cx="499.7" cy="68.3" r="2.65" fill="#bd6b20" opacity="0.30"/><circle cx="535.5" cy="64.3" r="1.90" fill="#bd6b20" opacity="0.16"/><circle cx="568.0" cy="63.3" r="2.68" fill="#bd6b20" opacity="0.29"/><circle cx="604.1" cy="67.2" r="3.78" fill="#bd6b20" opacity="0.34"/><circle cx="639.3" cy="63.4" r="3.15" fill="#bd6b20" opacity="0.25"/><circle cx="676.4" cy="64.4" r="2.33" fill="#bd6b20" opacity="0.15"/><circle cx="711.4" cy="65.6" r="2.30" fill="#bd6b20" opacity="0.22"/><circle cx="751.8" cy="66.1" r="1.96" fill="#bd6b20" opacity="0.34"/><circle cx="788.5" cy="67.0" r="2.57" fill="#bd6b20" opacity="0.21"/><circle cx="823.4" cy="68.5" r="3.17" fill="#bd6b20" opacity="0.29"/><circle cx="856.7" cy="67.8" r="2.60" fill="#bd6b20" opacity="0.32"/><circle cx="896.8" cy="65.5" r="2.25" fill="#bd6b20" opacity="0.19"/><circle cx="932.3" cy="67.7" r="2.49" fill="#bd6b20" opacity="0.30"/><circle cx="967.3" cy="68.7" r="2.12" fill="#bd6b20" opacity="0.19"/><circle cx="999.7" cy="64.5" r="2.53" fill="#bd6b20" opacity="0.23"/><circle cx="1038.4" cy="68.6" r="1.90" fill="#bd6b20" opacity="0.30"/><circle cx="1076.5" cy="63.1" r="2.88" fill="#bd6b20" opacity="0.33"/><circle cx="1107.7" cy="67.7" r="2.23" fill="#bd6b20" opacity="0.36"/><circle cx="1143.2" cy="67.2" r="1.83" fill="#bd6b20" opacity="0.30"/><circle cx="1180.2" cy="64.9" r="3.81" fill="#bd6b20" opacity="0.28"/><circle cx="28.7" cy="102.0" r="3.96" fill="#bd6b20" opacity="0.31"/><circle cx="65.6" cy="102.8" r="3.24" fill="#bd6b20" opacity="0.28"/><circle cx="99.5" cy="99.5" r="3.49" fill="#bd6b20" opacity="0.16"/><circle cx="137.4" cy="102.9" r="3.91" fill="#bd6b20" opacity="0.26"/><circle cx="173.7" cy="104.6" r="2.76" fill="#bd6b20" opacity="0.19"/><circle cx="208.6" cy="99.6" r="1.64" fill="#bd6b20" opacity="0.21"/><circle cx="246.8" cy="100.4" r="2.73" fill="#bd6b20" opacity="0.30"/><circle cx="279.6" cy="102.1" r="3.66" fill="#bd6b20" opacity="0.26"/><circle cx="318.8" cy="104.6" r="2.84" fill="#bd6b20" opacity="0.16"/><circle cx="352.8" cy="99.5" r="3.58" fill="#bd6b20" opacity="0.18"/><circle cx="388.4" cy="102.6" r="2.11" fill="#bd6b20" opacity="0.19"/><circle cx="425.9" cy="102.7" r="2.14" fill="#bd6b20" opacity="0.25"/><circle cx="459.8" cy="101.2" r="2.98" fill="#bd6b20" opacity="0.27"/><circle cx="496.0" cy="101.1" r="3.06" fill="#bd6b20" opacity="0.35"/><circle cx="536.3" cy="100.1" r="2.22" fill="#bd6b20" opacity="0.20"/><circle cx="567.5" cy="101.7" r="1.89" fill="#bd6b20" opacity="0.31"/><circle cx="607.2" cy="103.6" r="3.71" fill="#bd6b20" opacity="0.19"/><circle cx="643.4" cy="100.3" r="3.47" fill="#bd6b20" opacity="0.31"/><circle cx="679.6" cy="100.1" r="3.32" fill="#bd6b20" opacity="0.32"/><circle cx="715.0" cy="103.5" r="1.79" fill="#bd6b20" opacity="0.25"/><circle cx="750.3" cy="100.7" r="1.96" fill="#bd6b20" opacity="0.29"/><circle cx="784.0" cy="101.9" r="3.88" fill="#bd6b20" opacity="0.15"/><circle cx="822.0" cy="102.3" r="2.57" fill="#bd6b20" opacity="0.24"/><circle cx="857.8" cy="99.4" r="3.40" fill="#bd6b20" opacity="0.28"/><circle cx="891.6" cy="99.8" r="2.99" fill="#bd6b20" opacity="0.32"/><circle cx="932.8" cy="104.8" r="1.61" fill="#bd6b20" opacity="0.21"/><circle cx="964.1" cy="100.9" r="2.77" fill="#bd6b20" opacity="0.34"/><circle cx="1004.9" cy="99.2" r="2.36" fill="#bd6b20" opacity="0.23"/><circle cx="1036.0" cy="101.6" r="3.00" fill="#bd6b20" opacity="0.27"/><circle cx="1075.6" cy="100.0" r="2.62" fill="#bd6b20" opacity="0.36"/><circle cx="1107.2" cy="101.6" r="2.85" fill="#bd6b20" opacity="0.26"/><circle cx="1147.8" cy="104.2" r="1.77" fill="#bd6b20" opacity="0.30"/><circle cx="1182.3" cy="102.7" r="3.22" fill="#bd6b20" opacity="0.24"/><circle cx="29.7" cy="135.2" r="1.64" fill="#bd6b20" opacity="0.34"/><circle cx="64.9" cy="139.5" r="3.16" fill="#bd6b20" opacity="0.34"/><circle cx="100.4" cy="137.9" r="3.96" fill="#bd6b20" opacity="0.20"/><circle cx="138.0" cy="136.1" r="2.80" fill="#bd6b20" opacity="0.20"/><circle cx="177.0" cy="139.4" r="3.08" fill="#bd6b20" opacity="0.15"/><circle cx="211.7" cy="139.2" r="2.30" fill="#bd6b20" opacity="0.25"/><circle cx="248.2" cy="135.4" r="2.33" fill="#bd6b20" opacity="0.23"/><circle cx="282.9" cy="140.4" r="3.30" fill="#bd6b20" opacity="0.31"/><circle cx="320.3" cy="138.8" r="2.06" fill="#bd6b20" opacity="0.27"/><circle cx="353.3" cy="138.7" r="3.38" fill="#bd6b20" opacity="0.17"/><circle cx="389.7" cy="135.8" r="3.71" fill="#bd6b20" opacity="0.21"/><circle cx="424.9" cy="139.3" r="2.94" fill="#bd6b20" opacity="0.24"/><circle cx="463.1" cy="137.8" r="2.01" fill="#bd6b20" opacity="0.18"/><circle cx="500.5" cy="137.3" r="2.70" fill="#bd6b20" opacity="0.19"/><circle cx="531.6" cy="135.4" r="2.84" fill="#bd6b20" opacity="0.28"/><circle cx="568.8" cy="138.7" r="2.11" fill="#bd6b20" opacity="0.32"/><circle cx="607.8" cy="135.7" r="2.85" fill="#bd6b20" opacity="0.28"/><circle cx="640.7" cy="138.2" r="2.11" fill="#bd6b20" opacity="0.32"/><circle cx="677.1" cy="135.4" r="2.70" fill="#bd6b20" opacity="0.26"/><circle cx="713.5" cy="135.2" r="3.42" fill="#bd6b20" opacity="0.32"/><circle cx="747.2" cy="136.9" r="2.55" fill="#bd6b20" opacity="0.32"/><circle cx="783.5" cy="140.6" r="1.91" fill="#bd6b20" opacity="0.35"/><circle cx="819.9" cy="138.4" r="3.86" fill="#bd6b20" opacity="0.22"/><circle cx="859.5" cy="136.2" r="3.64" fill="#bd6b20" opacity="0.31"/><circle cx="894.1" cy="139.0" r="3.26" fill="#bd6b20" opacity="0.29"/><circle cx="928.5" cy="139.7" r="3.85" fill="#bd6b20" opacity="0.24"/><circle cx="967.1" cy="140.8" r="1.87" fill="#bd6b20" opacity="0.23"/><circle cx="1000.0" cy="137.5" r="2.95" fill="#bd6b20" opacity="0.25"/><circle cx="1037.7" cy="138.6" r="1.78" fill="#bd6b20" opacity="0.23"/><circle cx="1073.5" cy="135.3" r="1.94" fill="#bd6b20" opacity="0.16"/><circle cx="1108.9" cy="139.8" r="2.21" fill="#bd6b20" opacity="0.18"/><circle cx="1148.1" cy="140.9" r="3.05" fill="#bd6b20" opacity="0.25"/><circle cx="1180.0" cy="137.3" r="3.00" fill="#bd6b20" opacity="0.35"/><circle cx="31.3" cy="173.8" r="2.29" fill="#bd6b20" opacity="0.36"/><circle cx="64.6" cy="172.8" r="2.61" fill="#bd6b20" opacity="0.25"/><circle cx="103.8" cy="176.7" r="3.62" fill="#bd6b20" opacity="0.27"/><circle cx="138.5" cy="176.2" r="2.98" fill="#bd6b20" opacity="0.30"/><circle cx="173.5" cy="173.4" r="2.53" fill="#bd6b20" opacity="0.21"/><circle cx="209.5" cy="175.0" r="2.38" fill="#bd6b20" opacity="0.24"/><circle cx="244.7" cy="173.5" r="1.62" fill="#bd6b20" opacity="0.32"/><circle cx="280.5" cy="172.9" r="2.87" fill="#bd6b20" opacity="0.18"/><circle cx="319.6" cy="171.5" r="2.54" fill="#bd6b20" opacity="0.19"/><circle cx="355.5" cy="176.9" r="1.66" fill="#bd6b20" opacity="0.16"/><circle cx="388.9" cy="172.5" r="3.97" fill="#bd6b20" opacity="0.35"/><circle cx="428.9" cy="172.2" r="3.75" fill="#bd6b20" opacity="0.27"/><circle cx="460.3" cy="175.9" r="2.89" fill="#bd6b20" opacity="0.19"/><circle cx="495.9" cy="171.2" r="2.96" fill="#bd6b20" opacity="0.19"/><circle cx="531.8" cy="175.4" r="2.15" fill="#bd6b20" opacity="0.24"/><circle cx="569.8" cy="176.1" r="2.69" fill="#bd6b20" opacity="0.32"/><circle cx="607.7" cy="172.3" r="3.90" fill="#bd6b20" opacity="0.31"/><circle cx="641.9" cy="174.7" r="3.20" fill="#bd6b20" opacity="0.34"/><circle cx="678.3" cy="176.1" r="3.60" fill="#bd6b20" opacity="0.23"/><circle cx="711.5" cy="173.4" r="3.37" fill="#bd6b20" opacity="0.31"/><circle cx="750.4" cy="175.5" r="3.92" fill="#bd6b20" opacity="0.21"/><circle cx="787.7" cy="174.9" r="3.16" fill="#bd6b20" opacity="0.22"/><circle cx="819.2" cy="175.0" r="3.86" fill="#bd6b20" opacity="0.18"/><circle cx="859.9" cy="172.8" r="3.93" fill="#bd6b20" opacity="0.31"/><circle cx="891.7" cy="173.7" r="2.11" fill="#bd6b20" opacity="0.15"/><circle cx="932.2" cy="173.2" r="2.75" fill="#bd6b20" opacity="0.17"/><circle cx="968.3" cy="173.4" r="2.06" fill="#bd6b20" opacity="0.23"/><circle cx="1002.0" cy="173.3" r="1.79" fill="#bd6b20" opacity="0.29"/><circle cx="1035.9" cy="171.0" r="3.14" fill="#bd6b20" opacity="0.36"/><circle cx="1072.0" cy="175.0" r="2.39" fill="#bd6b20" opacity="0.18"/><circle cx="1111.3" cy="177.0" r="2.30" fill="#bd6b20" opacity="0.31"/><circle cx="1145.1" cy="171.3" r="2.44" fill="#bd6b20" opacity="0.29"/><circle cx="1183.1" cy="171.5" r="3.35" fill="#bd6b20" opacity="0.20"/><circle cx="32.7" cy="211.7" r="1.73" fill="#bd6b20" opacity="0.35"/><circle cx="66.1" cy="210.2" r="2.16" fill="#bd6b20" opacity="0.17"/><circle cx="103.8" cy="212.9" r="3.38" fill="#bd6b20" opacity="0.29"/><circle cx="136.1" cy="208.3" r="2.58" fill="#bd6b20" opacity="0.20"/><circle cx="172.1" cy="208.0" r="2.76" fill="#bd6b20" opacity="0.31"/><circle cx="211.4" cy="209.8" r="2.78" fill="#bd6b20" opacity="0.33"/><circle cx="247.3" cy="210.2" r="2.37" fill="#bd6b20" opacity="0.28"/><circle cx="281.4" cy="211.0" r="2.20" fill="#bd6b20" opacity="0.26"/><circle cx="316.6" cy="209.8" r="1.78" fill="#bd6b20" opacity="0.26"/><circle cx="351.7" cy="207.2" r="3.74" fill="#bd6b20" opacity="0.30"/><circle cx="392.7" cy="209.5" r="1.64" fill="#bd6b20" opacity="0.21"/><circle cx="427.0" cy="212.2" r="2.09" fill="#bd6b20" opacity="0.25"/><circle cx="462.0" cy="210.5" r="2.59" fill="#bd6b20" opacity="0.29"/><circle cx="499.7" cy="209.3" r="2.93" fill="#bd6b20" opacity="0.35"/><circle cx="532.4" cy="209.0" r="2.29" fill="#bd6b20" opacity="0.26"/><circle cx="570.1" cy="210.0" r="1.63" fill="#bd6b20" opacity="0.29"/><circle cx="603.5" cy="211.1" r="3.39" fill="#bd6b20" opacity="0.17"/><circle cx="642.4" cy="211.0" r="2.97" fill="#bd6b20" opacity="0.19"/><circle cx="680.8" cy="209.0" r="2.05" fill="#bd6b20" opacity="0.34"/><circle cx="712.2" cy="210.1" r="2.41" fill="#bd6b20" opacity="0.27"/><circle cx="748.0" cy="210.0" r="3.36" fill="#bd6b20" opacity="0.25"/><circle cx="788.0" cy="210.7" r="3.73" fill="#bd6b20" opacity="0.24"/><circle cx="824.0" cy="212.1" r="2.62" fill="#bd6b20" opacity="0.35"/><circle cx="857.1" cy="207.3" r="3.34" fill="#bd6b20" opacity="0.31"/><circle cx="893.5" cy="209.3" r="3.71" fill="#bd6b20" opacity="0.26"/><circle cx="927.1" cy="208.7" r="2.67" fill="#bd6b20" opacity="0.24"/><circle cx="966.7" cy="210.2" r="2.68" fill="#bd6b20" opacity="0.21"/><circle cx="1001.6" cy="207.6" r="3.95" fill="#bd6b20" opacity="0.23"/><circle cx="1040.3" cy="211.1" r="2.03" fill="#bd6b20" opacity="0.19"/><circle cx="1074.9" cy="207.7" r="2.37" fill="#bd6b20" opacity="0.19"/><circle cx="1107.4" cy="208.8" r="3.63" fill="#bd6b20" opacity="0.15"/><circle cx="1146.0" cy="207.7" r="2.75" fill="#bd6b20" opacity="0.35"/><circle cx="1184.5" cy="207.5" r="3.53" fill="#bd6b20" opacity="0.17"/><circle cx="30.7" cy="247.2" r="3.06" fill="#bd6b20" opacity="0.21"/><circle cx="63.8" cy="243.4" r="3.33" fill="#bd6b20" opacity="0.16"/><circle cx="99.9" cy="246.1" r="1.96" fill="#bd6b20" opacity="0.29"/><circle cx="137.0" cy="243.4" r="1.84" fill="#bd6b20" opacity="0.21"/><circle cx="171.4" cy="246.4" r="2.98" fill="#bd6b20" opacity="0.33"/><circle cx="208.2" cy="246.6" r="3.37" fill="#bd6b20" opacity="0.23"/><circle cx="246.7" cy="245.8" r="2.84" fill="#bd6b20" opacity="0.22"/><circle cx="283.8" cy="245.6" r="2.47" fill="#bd6b20" opacity="0.18"/><circle cx="315.2" cy="244.2" r="2.46" fill="#bd6b20" opacity="0.18"/><circle cx="356.7" cy="246.7" r="2.22" fill="#bd6b20" opacity="0.35"/><circle cx="390.1" cy="247.9" r="2.94" fill="#bd6b20" opacity="0.26"/><circle cx="423.5" cy="243.9" r="3.70" fill="#bd6b20" opacity="0.15"/><circle cx="463.2" cy="245.9" r="3.12" fill="#bd6b20" opacity="0.21"/><circle cx="499.0" cy="247.1" r="2.31" fill="#bd6b20" opacity="0.23"/><circle cx="536.2" cy="243.9" r="3.72" fill="#bd6b20" opacity="0.15"/><circle cx="570.1" cy="245.4" r="1.73" fill="#bd6b20" opacity="0.36"/><circle cx="606.2" cy="246.8" r="3.46" fill="#bd6b20" opacity="0.32"/><circle cx="639.5" cy="243.4" r="3.25" fill="#bd6b20" opacity="0.35"/><circle cx="679.4" cy="243.5" r="3.27" fill="#bd6b20" opacity="0.18"/><circle cx="716.2" cy="248.1" r="2.01" fill="#bd6b20" opacity="0.18"/><circle cx="749.5" cy="246.9" r="3.42" fill="#bd6b20" opacity="0.27"/><circle cx="788.9" cy="247.1" r="3.73" fill="#bd6b20" opacity="0.23"/><circle cx="823.1" cy="247.4" r="3.98" fill="#bd6b20" opacity="0.20"/><circle cx="858.9" cy="243.3" r="1.68" fill="#bd6b20" opacity="0.21"/><circle cx="893.5" cy="246.7" r="2.84" fill="#bd6b20" opacity="0.15"/><circle cx="931.0" cy="246.0" r="2.05" fill="#bd6b20" opacity="0.33"/><circle cx="966.5" cy="244.3" r="1.68" fill="#bd6b20" opacity="0.20"/><circle cx="999.3" cy="246.3" r="3.28" fill="#bd6b20" opacity="0.19"/><circle cx="1036.1" cy="247.0" r="3.43" fill="#bd6b20" opacity="0.20"/><circle cx="1074.7" cy="248.3" r="3.47" fill="#bd6b20" opacity="0.26"/><circle cx="1108.0" cy="246.8" r="2.22" fill="#bd6b20" opacity="0.29"/><circle cx="1146.3" cy="243.9" r="2.51" fill="#bd6b20" opacity="0.29"/><circle cx="1184.8" cy="244.6" r="3.60" fill="#bd6b20" opacity="0.18"/><circle cx="27.0" cy="280.8" r="2.81" fill="#bd6b20" opacity="0.28"/><circle cx="68.1" cy="281.8" r="1.80" fill="#bd6b20" opacity="0.21"/><circle cx="103.1" cy="282.9" r="1.91" fill="#bd6b20" opacity="0.28"/><circle cx="135.3" cy="280.3" r="3.53" fill="#bd6b20" opacity="0.20"/><circle cx="172.4" cy="284.0" r="1.63" fill="#bd6b20" opacity="0.17"/><circle cx="211.7" cy="282.7" r="3.04" fill="#bd6b20" opacity="0.28"/><circle cx="244.2" cy="284.2" r="2.97" fill="#bd6b20" opacity="0.31"/><circle cx="283.5" cy="281.5" r="3.91" fill="#bd6b20" opacity="0.33"/><circle cx="320.3" cy="280.2" r="2.22" fill="#bd6b20" opacity="0.26"/><circle cx="356.7" cy="282.9" r="1.78" fill="#bd6b20" opacity="0.28"/><circle cx="387.9" cy="283.3" r="3.13" fill="#bd6b20" opacity="0.25"/><circle cx="425.7" cy="282.5" r="1.85" fill="#bd6b20" opacity="0.17"/><circle cx="463.5" cy="282.4" r="1.83" fill="#bd6b20" opacity="0.24"/><circle cx="497.7" cy="281.1" r="1.72" fill="#bd6b20" opacity="0.33"/><circle cx="532.9" cy="280.9" r="2.36" fill="#bd6b20" opacity="0.36"/><circle cx="568.3" cy="279.9" r="2.47" fill="#bd6b20" opacity="0.16"/><circle cx="606.5" cy="284.4" r="3.69" fill="#bd6b20" opacity="0.33"/><circle cx="639.1" cy="283.6" r="2.35" fill="#bd6b20" opacity="0.31"/><circle cx="677.4" cy="279.7" r="1.65" fill="#bd6b20" opacity="0.35"/><circle cx="713.5" cy="279.6" r="2.95" fill="#bd6b20" opacity="0.27"/><circle cx="747.7" cy="280.5" r="2.69" fill="#bd6b20" opacity="0.32"/><circle cx="786.9" cy="279.3" r="3.97" fill="#bd6b20" opacity="0.15"/><circle cx="821.5" cy="282.0" r="3.14" fill="#bd6b20" opacity="0.19"/><circle cx="860.8" cy="282.1" r="3.56" fill="#bd6b20" opacity="0.21"/><circle cx="895.4" cy="279.8" r="2.06" fill="#bd6b20" opacity="0.25"/><circle cx="932.2" cy="282.1" r="3.50" fill="#bd6b20" opacity="0.35"/><circle cx="963.1" cy="280.8" r="3.51" fill="#bd6b20" opacity="0.33"/><circle cx="1001.6" cy="280.1" r="3.18" fill="#bd6b20" opacity="0.24"/><circle cx="1039.8" cy="281.8" r="3.04" fill="#bd6b20" opacity="0.30"/><circle cx="1071.6" cy="280.5" r="2.19" fill="#bd6b20" opacity="0.25"/><circle cx="1111.9" cy="283.5" r="1.61" fill="#bd6b20" opacity="0.20"/><circle cx="1148.6" cy="282.7" r="3.73" fill="#bd6b20" opacity="0.19"/><circle cx="1184.2" cy="279.1" r="2.16" fill="#bd6b20" opacity="0.21"/><circle cx="27.3" cy="319.9" r="3.64" fill="#bd6b20" opacity="0.17"/><circle cx="67.8" cy="320.2" r="2.87" fill="#bd6b20" opacity="0.33"/><circle cx="99.6" cy="319.1" r="2.56" fill="#bd6b20" opacity="0.35"/><circle cx="140.6" cy="320.2" r="2.14" fill="#bd6b20" opacity="0.16"/><circle cx="173.6" cy="318.9" r="2.59" fill="#bd6b20" opacity="0.16"/><circle cx="212.0" cy="320.3" r="2.84" fill="#bd6b20" opacity="0.21"/><circle cx="244.9" cy="320.1" r="3.49" fill="#bd6b20" opacity="0.17"/><circle cx="283.4" cy="315.9" r="3.09" fill="#bd6b20" opacity="0.21"/><circle cx="316.5" cy="319.6" r="2.77" fill="#bd6b20" opacity="0.27"/><circle cx="354.3" cy="320.2" r="2.72" fill="#bd6b20" opacity="0.29"/><circle cx="392.3" cy="319.6" r="2.76" fill="#bd6b20" opacity="0.32"/><circle cx="424.2" cy="319.7" r="2.78" fill="#bd6b20" opacity="0.21"/><circle cx="463.9" cy="317.2" r="2.29" fill="#bd6b20" opacity="0.21"/><circle cx="500.5" cy="317.0" r="2.07" fill="#bd6b20" opacity="0.25"/><circle cx="532.6" cy="319.3" r="2.14" fill="#bd6b20" opacity="0.18"/><circle cx="571.3" cy="318.3" r="3.11" fill="#bd6b20" opacity="0.16"/><circle cx="608.7" cy="316.4" r="2.36" fill="#bd6b20" opacity="0.16"/><circle cx="639.2" cy="319.3" r="3.19" fill="#bd6b20" opacity="0.21"/><circle cx="675.2" cy="318.6" r="1.67" fill="#bd6b20" opacity="0.33"/><circle cx="711.9" cy="319.8" r="2.88" fill="#bd6b20" opacity="0.16"/><circle cx="748.7" cy="320.8" r="3.41" fill="#bd6b20" opacity="0.25"/><circle cx="783.8" cy="316.5" r="1.85" fill="#bd6b20" opacity="0.16"/><circle cx="824.9" cy="320.0" r="2.72" fill="#bd6b20" opacity="0.36"/><circle cx="856.0" cy="319.5" r="2.04" fill="#bd6b20" opacity="0.32"/><circle cx="892.3" cy="319.6" r="1.61" fill="#bd6b20" opacity="0.33"/><circle cx="928.3" cy="316.9" r="2.56" fill="#bd6b20" opacity="0.28"/><circle cx="964.9" cy="316.2" r="3.95" fill="#bd6b20" opacity="0.16"/><circle cx="1001.9" cy="315.9" r="3.96" fill="#bd6b20" opacity="0.35"/><circle cx="1040.2" cy="317.5" r="3.07" fill="#bd6b20" opacity="0.34"/><circle cx="1072.9" cy="315.5" r="2.73" fill="#bd6b20" opacity="0.29"/><circle cx="1108.0" cy="319.5" r="2.91" fill="#bd6b20" opacity="0.29"/><circle cx="1147.4" cy="317.0" r="2.37" fill="#bd6b20" opacity="0.18"/><circle cx="1185.0" cy="319.3" r="2.77" fill="#bd6b20" opacity="0.19"/><circle cx="30.3" cy="356.1" r="3.37" fill="#bd6b20" opacity="0.16"/><circle cx="64.5" cy="352.7" r="2.41" fill="#bd6b20" opacity="0.25"/><circle cx="99.6" cy="357.0" r="3.42" fill="#bd6b20" opacity="0.34"/><circle cx="135.2" cy="351.4" r="2.52" fill="#bd6b20" opacity="0.15"/><circle cx="174.2" cy="351.4" r="2.09" fill="#bd6b20" opacity="0.18"/><circle cx="212.5" cy="353.4" r="2.83" fill="#bd6b20" opacity="0.27"/><circle cx="243.7" cy="352.5" r="2.47" fill="#bd6b20" opacity="0.17"/><circle cx="284.1" cy="356.4" r="1.92" fill="#bd6b20" opacity="0.17"/><circle cx="318.7" cy="351.7" r="2.28" fill="#bd6b20" opacity="0.31"/><circle cx="354.9" cy="351.8" r="3.93" fill="#bd6b20" opacity="0.34"/><circle cx="389.8" cy="356.7" r="2.64" fill="#bd6b20" opacity="0.30"/><circle cx="427.3" cy="356.3" r="3.69" fill="#bd6b20" opacity="0.25"/><circle cx="459.8" cy="354.7" r="2.58" fill="#bd6b20" opacity="0.33"/><circle cx="497.4" cy="353.3" r="2.08" fill="#bd6b20" opacity="0.20"/><circle cx="532.6" cy="355.8" r="3.20" fill="#bd6b20" opacity="0.36"/><circle cx="571.0" cy="352.6" r="3.62" fill="#bd6b20" opacity="0.25"/><circle cx="604.4" cy="353.7" r="2.66" fill="#bd6b20" opacity="0.30"/><circle cx="641.3" cy="351.2" r="2.95" fill="#bd6b20" opacity="0.25"/><circle cx="675.8" cy="351.6" r="1.88" fill="#bd6b20" opacity="0.31"/><circle cx="715.6" cy="352.0" r="3.39" fill="#bd6b20" opacity="0.32"/><circle cx="751.1" cy="352.6" r="3.20" fill="#bd6b20" opacity="0.33"/><circle cx="785.7" cy="354.1" r="2.23" fill="#bd6b20" opacity="0.19"/><circle cx="820.5" cy="355.3" r="3.79" fill="#bd6b20" opacity="0.35"/><circle cx="858.2" cy="352.2" r="3.88" fill="#bd6b20" opacity="0.18"/><circle cx="894.1" cy="353.2" r="2.26" fill="#bd6b20" opacity="0.19"/><circle cx="929.7" cy="355.2" r="2.96" fill="#bd6b20" opacity="0.25"/><circle cx="966.1" cy="351.8" r="2.25" fill="#bd6b20" opacity="0.33"/><circle cx="999.9" cy="356.0" r="3.47" fill="#bd6b20" opacity="0.36"/><circle cx="1040.7" cy="354.9" r="3.34" fill="#bd6b20" opacity="0.35"/><circle cx="1075.3" cy="355.8" r="3.91" fill="#bd6b20" opacity="0.29"/><circle cx="1109.0" cy="352.8" r="3.25" fill="#bd6b20" opacity="0.23"/><circle cx="1147.2" cy="355.4" r="2.91" fill="#bd6b20" opacity="0.36"/><circle cx="1183.1" cy="351.1" r="2.11" fill="#bd6b20" opacity="0.24"/><circle cx="29.6" cy="390.1" r="3.16" fill="#bd6b20" opacity="0.24"/><circle cx="68.8" cy="389.9" r="2.90" fill="#bd6b20" opacity="0.34"/><circle cx="99.3" cy="389.0" r="2.47" fill="#bd6b20" opacity="0.30"/><circle cx="135.9" cy="392.0" r="3.08" fill="#bd6b20" opacity="0.20"/><circle cx="175.2" cy="392.6" r="3.37" fill="#bd6b20" opacity="0.17"/><circle cx="212.8" cy="392.5" r="3.73" fill="#bd6b20" opacity="0.25"/><circle cx="248.2" cy="391.7" r="1.61" fill="#bd6b20" opacity="0.22"/><circle cx="279.4" cy="391.0" r="1.87" fill="#bd6b20" opacity="0.26"/><circle cx="317.9" cy="388.9" r="1.90" fill="#bd6b20" opacity="0.34"/><circle cx="353.7" cy="390.7" r="2.25" fill="#bd6b20" opacity="0.27"/><circle cx="391.4" cy="390.4" r="2.37" fill="#bd6b20" opacity="0.20"/><circle cx="426.8" cy="387.4" r="3.31" fill="#bd6b20" opacity="0.25"/><circle cx="460.1" cy="389.6" r="2.90" fill="#bd6b20" opacity="0.33"/><circle cx="498.8" cy="390.7" r="3.95" fill="#bd6b20" opacity="0.30"/><circle cx="533.6" cy="392.6" r="1.68" fill="#bd6b20" opacity="0.28"/><circle cx="572.6" cy="387.0" r="1.79" fill="#bd6b20" opacity="0.35"/><circle cx="606.0" cy="389.1" r="2.32" fill="#bd6b20" opacity="0.22"/><circle cx="644.5" cy="390.2" r="3.04" fill="#bd6b20" opacity="0.36"/><circle cx="679.3" cy="387.4" r="2.77" fill="#bd6b20" opacity="0.25"/><circle cx="713.8" cy="387.1" r="3.59" fill="#bd6b20" opacity="0.17"/><circle cx="750.4" cy="389.8" r="3.02" fill="#bd6b20" opacity="0.15"/><circle cx="788.1" cy="391.6" r="2.78" fill="#bd6b20" opacity="0.15"/><circle cx="824.8" cy="387.1" r="3.62" fill="#bd6b20" opacity="0.36"/><circle cx="859.0" cy="390.6" r="2.37" fill="#bd6b20" opacity="0.31"/><circle cx="894.0" cy="388.9" r="1.73" fill="#bd6b20" opacity="0.29"/><circle cx="929.6" cy="391.0" r="2.61" fill="#bd6b20" opacity="0.36"/><circle cx="968.3" cy="392.9" r="2.53" fill="#bd6b20" opacity="0.33"/><circle cx="1003.0" cy="387.8" r="1.98" fill="#bd6b20" opacity="0.33"/><circle cx="1039.0" cy="392.1" r="3.04" fill="#bd6b20" opacity="0.16"/><circle cx="1075.6" cy="390.9" r="2.01" fill="#bd6b20" opacity="0.28"/><circle cx="1111.9" cy="388.5" r="3.72" fill="#bd6b20" opacity="0.31"/><circle cx="1146.0" cy="390.2" r="2.57" fill="#bd6b20" opacity="0.20"/><circle cx="1180.7" cy="389.3" r="1.84" fill="#bd6b20" opacity="0.19"/><circle cx="30.8" cy="426.8" r="3.00" fill="#bd6b20" opacity="0.30"/><circle cx="67.4" cy="426.7" r="2.89" fill="#bd6b20" opacity="0.32"/><circle cx="103.6" cy="429.0" r="3.99" fill="#bd6b20" opacity="0.24"/><circle cx="137.0" cy="426.3" r="3.22" fill="#bd6b20" opacity="0.22"/><circle cx="172.7" cy="428.8" r="3.29" fill="#bd6b20" opacity="0.18"/><circle cx="211.6" cy="428.1" r="3.37" fill="#bd6b20" opacity="0.26"/><circle cx="244.9" cy="427.4" r="1.92" fill="#bd6b20" opacity="0.32"/><circle cx="285.0" cy="426.1" r="2.84" fill="#bd6b20" opacity="0.16"/><circle cx="317.3" cy="427.7" r="3.61" fill="#bd6b20" opacity="0.29"/><circle cx="351.8" cy="428.0" r="1.82" fill="#bd6b20" opacity="0.23"/><circle cx="390.4" cy="426.5" r="3.36" fill="#bd6b20" opacity="0.20"/><circle cx="425.8" cy="424.9" r="2.33" fill="#bd6b20" opacity="0.26"/><circle cx="462.2" cy="426.0" r="3.19" fill="#bd6b20" opacity="0.27"/><circle cx="501.0" cy="424.9" r="4.00" fill="#bd6b20" opacity="0.26"/><circle cx="533.8" cy="426.5" r="2.05" fill="#bd6b20" opacity="0.17"/><circle cx="567.7" cy="425.5" r="2.23" fill="#bd6b20" opacity="0.17"/><circle cx="605.4" cy="425.8" r="2.94" fill="#bd6b20" opacity="0.30"/><circle cx="640.5" cy="423.1" r="3.93" fill="#bd6b20" opacity="0.31"/><circle cx="677.6" cy="428.3" r="3.67" fill="#bd6b20" opacity="0.19"/><circle cx="713.4" cy="427.8" r="3.98" fill="#bd6b20" opacity="0.30"/><circle cx="751.3" cy="425.2" r="3.23" fill="#bd6b20" opacity="0.31"/><circle cx="786.8" cy="425.6" r="3.50" fill="#bd6b20" opacity="0.19"/><circle cx="820.3" cy="425.6" r="3.08" fill="#bd6b20" opacity="0.24"/><circle cx="859.1" cy="424.9" r="3.38" fill="#bd6b20" opacity="0.35"/><circle cx="894.4" cy="427.3" r="1.94" fill="#bd6b20" opacity="0.24"/><circle cx="928.5" cy="426.1" r="3.15" fill="#bd6b20" opacity="0.31"/><circle cx="966.6" cy="425.6" r="2.68" fill="#bd6b20" opacity="0.17"/><circle cx="999.9" cy="428.1" r="2.68" fill="#bd6b20" opacity="0.22"/><circle cx="1036.6" cy="426.0" r="2.77" fill="#bd6b20" opacity="0.36"/><circle cx="1075.9" cy="423.5" r="2.80" fill="#bd6b20" opacity="0.23"/><circle cx="1109.6" cy="428.1" r="2.80" fill="#bd6b20" opacity="0.20"/><circle cx="1145.3" cy="426.1" r="2.22" fill="#bd6b20" opacity="0.32"/><circle cx="1179.0" cy="424.6" r="2.99" fill="#bd6b20" opacity="0.30"/><circle cx="27.4" cy="464.7" r="2.08" fill="#bd6b20" opacity="0.34"/><circle cx="66.0" cy="460.1" r="2.66" fill="#bd6b20" opacity="0.29"/><circle cx="99.5" cy="460.7" r="1.94" fill="#bd6b20" opacity="0.31"/><circle cx="138.1" cy="460.0" r="3.50" fill="#bd6b20" opacity="0.32"/><circle cx="175.6" cy="459.3" r="2.12" fill="#bd6b20" opacity="0.17"/><circle cx="211.4" cy="461.2" r="2.96" fill="#bd6b20" opacity="0.18"/><circle cx="243.6" cy="459.6" r="2.25" fill="#bd6b20" opacity="0.23"/><circle cx="282.9" cy="464.9" r="1.74" fill="#bd6b20" opacity="0.25"/><circle cx="319.4" cy="459.2" r="2.12" fill="#bd6b20" opacity="0.28"/><circle cx="353.0" cy="462.5" r="3.45" fill="#bd6b20" opacity="0.24"/><circle cx="387.0" cy="464.4" r="2.29" fill="#bd6b20" opacity="0.30"/><circle cx="425.1" cy="461.4" r="3.54" fill="#bd6b20" opacity="0.30"/><circle cx="461.4" cy="463.2" r="3.98" fill="#bd6b20" opacity="0.16"/><circle cx="496.6" cy="459.9" r="3.01" fill="#bd6b20" opacity="0.32"/><circle cx="535.2" cy="464.0" r="2.05" fill="#bd6b20" opacity="0.34"/><circle cx="569.9" cy="465.0" r="3.36" fill="#bd6b20" opacity="0.25"/><circle cx="605.4" cy="464.6" r="1.81" fill="#bd6b20" opacity="0.19"/><circle cx="639.9" cy="462.5" r="3.61" fill="#bd6b20" opacity="0.30"/><circle cx="680.2" cy="464.2" r="1.93" fill="#bd6b20" opacity="0.31"/><circle cx="716.3" cy="463.8" r="1.97" fill="#bd6b20" opacity="0.31"/><circle cx="749.7" cy="462.0" r="3.45" fill="#bd6b20" opacity="0.28"/><circle cx="783.4" cy="461.9" r="2.55" fill="#bd6b20" opacity="0.16"/><circle cx="819.8" cy="463.9" r="1.84" fill="#bd6b20" opacity="0.25"/><circle cx="855.7" cy="464.9" r="1.66" fill="#bd6b20" opacity="0.33"/><circle cx="896.4" cy="463.8" r="3.80" fill="#bd6b20" opacity="0.22"/><circle cx="929.4" cy="463.9" r="2.26" fill="#bd6b20" opacity="0.27"/><circle cx="963.5" cy="461.6" r="3.09" fill="#bd6b20" opacity="0.30"/><circle cx="1003.5" cy="459.3" r="2.21" fill="#bd6b20" opacity="0.31"/><circle cx="1040.0" cy="459.5" r="3.48" fill="#bd6b20" opacity="0.19"/><circle cx="1075.6" cy="462.2" r="2.62" fill="#bd6b20" opacity="0.26"/><circle cx="1109.5" cy="463.7" r="2.44" fill="#bd6b20" opacity="0.35"/><circle cx="1144.8" cy="459.2" r="2.09" fill="#bd6b20" opacity="0.20"/><circle cx="1183.2" cy="461.0" r="2.63" fill="#bd6b20" opacity="0.18"/><circle cx="32.7" cy="500.0" r="1.68" fill="#bd6b20" opacity="0.17"/><circle cx="66.4" cy="497.1" r="1.92" fill="#bd6b20" opacity="0.30"/><circle cx="99.4" cy="497.9" r="3.32" fill="#bd6b20" opacity="0.35"/><circle cx="140.5" cy="498.8" r="3.15" fill="#bd6b20" opacity="0.23"/><circle cx="173.4" cy="498.8" r="2.62" fill="#bd6b20" opacity="0.30"/><circle cx="209.8" cy="499.3" r="2.34" fill="#bd6b20" opacity="0.32"/><circle cx="245.0" cy="496.1" r="3.58" fill="#bd6b20" opacity="0.15"/><circle cx="281.2" cy="497.2" r="1.79" fill="#bd6b20" opacity="0.16"/><circle cx="318.7" cy="498.7" r="3.79" fill="#bd6b20" opacity="0.28"/><circle cx="353.5" cy="499.6" r="1.84" fill="#bd6b20" opacity="0.27"/><circle cx="390.5" cy="496.3" r="2.21" fill="#bd6b20" opacity="0.33"/><circle cx="429.0" cy="497.2" r="1.65" fill="#bd6b20" opacity="0.15"/><circle cx="460.0" cy="498.5" r="3.65" fill="#bd6b20" opacity="0.34"/><circle cx="499.8" cy="498.4" r="1.90" fill="#bd6b20" opacity="0.21"/><circle cx="534.2" cy="495.2" r="1.63" fill="#bd6b20" opacity="0.24"/><circle cx="572.5" cy="500.2" r="1.90" fill="#bd6b20" opacity="0.27"/><circle cx="607.3" cy="495.4" r="2.22" fill="#bd6b20" opacity="0.23"/><circle cx="644.8" cy="500.1" r="2.41" fill="#bd6b20" opacity="0.20"/><circle cx="675.5" cy="498.6" r="3.12" fill="#bd6b20" opacity="0.28"/><circle cx="714.2" cy="497.8" r="3.21" fill="#bd6b20" opacity="0.27"/><circle cx="751.5" cy="496.5" r="2.27" fill="#bd6b20" opacity="0.23"/><circle cx="788.0" cy="497.3" r="2.08" fill="#bd6b20" opacity="0.17"/><circle cx="822.5" cy="496.6" r="3.19" fill="#bd6b20" opacity="0.28"/><circle cx="855.6" cy="498.4" r="3.54" fill="#bd6b20" opacity="0.33"/><circle cx="893.6" cy="498.4" r="2.05" fill="#bd6b20" opacity="0.27"/><circle cx="931.1" cy="499.9" r="3.70" fill="#bd6b20" opacity="0.20"/><circle cx="968.0" cy="500.4" r="1.98" fill="#bd6b20" opacity="0.26"/><circle cx="1003.7" cy="495.9" r="3.33" fill="#bd6b20" opacity="0.18"/><circle cx="1035.1" cy="498.4" r="2.28" fill="#bd6b20" opacity="0.16"/><circle cx="1075.9" cy="496.9" r="2.60" fill="#bd6b20" opacity="0.29"/><circle cx="1110.8" cy="496.4" r="1.90" fill="#bd6b20" opacity="0.32"/><circle cx="1148.2" cy="497.6" r="2.76" fill="#bd6b20" opacity="0.30"/><circle cx="1180.1" cy="499.4" r="1.72" fill="#bd6b20" opacity="0.28"/><circle cx="31.7" cy="534.0" r="1.92" fill="#bd6b20" opacity="0.15"/><circle cx="65.2" cy="533.5" r="3.00" fill="#bd6b20" opacity="0.26"/><circle cx="102.7" cy="532.8" r="3.25" fill="#bd6b20" opacity="0.22"/><circle cx="138.0" cy="534.7" r="2.14" fill="#bd6b20" opacity="0.31"/><circle cx="174.5" cy="532.4" r="2.32" fill="#bd6b20" opacity="0.24"/><circle cx="210.2" cy="533.4" r="1.78" fill="#bd6b20" opacity="0.28"/><circle cx="244.0" cy="532.8" r="3.24" fill="#bd6b20" opacity="0.35"/><circle cx="280.9" cy="534.2" r="3.08" fill="#bd6b20" opacity="0.25"/><circle cx="317.0" cy="536.3" r="3.28" fill="#bd6b20" opacity="0.33"/><circle cx="356.8" cy="534.7" r="2.02" fill="#bd6b20" opacity="0.21"/><circle cx="393.0" cy="536.6" r="2.96" fill="#bd6b20" opacity="0.32"/><circle cx="428.3" cy="531.3" r="3.10" fill="#bd6b20" opacity="0.30"/><circle cx="462.8" cy="535.5" r="3.40" fill="#bd6b20" opacity="0.30"/><circle cx="500.5" cy="531.4" r="3.22" fill="#bd6b20" opacity="0.36"/><circle cx="531.5" cy="533.6" r="2.12" fill="#bd6b20" opacity="0.17"/><circle cx="569.0" cy="533.4" r="3.59" fill="#bd6b20" opacity="0.17"/><circle cx="605.0" cy="536.7" r="2.72" fill="#bd6b20" opacity="0.29"/><circle cx="640.4" cy="532.4" r="2.58" fill="#bd6b20" opacity="0.15"/><circle cx="677.3" cy="535.6" r="3.09" fill="#bd6b20" opacity="0.23"/><circle cx="713.8" cy="536.6" r="3.36" fill="#bd6b20" opacity="0.17"/><circle cx="750.4" cy="533.5" r="1.88" fill="#bd6b20" opacity="0.34"/><circle cx="788.4" cy="534.3" r="2.16" fill="#bd6b20" opacity="0.34"/><circle cx="823.5" cy="532.3" r="3.13" fill="#bd6b20" opacity="0.36"/><circle cx="856.6" cy="533.1" r="2.36" fill="#bd6b20" opacity="0.24"/><circle cx="894.9" cy="534.5" r="3.67" fill="#bd6b20" opacity="0.22"/><circle cx="932.0" cy="535.1" r="2.95" fill="#bd6b20" opacity="0.18"/><circle cx="965.5" cy="532.7" r="3.74" fill="#bd6b20" opacity="0.34"/><circle cx="1004.9" cy="532.4" r="2.16" fill="#bd6b20" opacity="0.22"/><circle cx="1037.4" cy="536.5" r="1.77" fill="#bd6b20" opacity="0.24"/><circle cx="1075.0" cy="534.9" r="3.17" fill="#bd6b20" opacity="0.19"/><circle cx="1110.6" cy="533.3" r="1.81" fill="#bd6b20" opacity="0.30"/><circle cx="1147.2" cy="536.9" r="3.12" fill="#bd6b20" opacity="0.16"/><circle cx="1183.8" cy="536.8" r="2.38" fill="#bd6b20" opacity="0.25"/><circle cx="29.1" cy="567.2" r="2.45" fill="#bd6b20" opacity="0.30"/><circle cx="68.1" cy="572.6" r="1.73" fill="#bd6b20" opacity="0.35"/><circle cx="101.3" cy="567.4" r="2.66" fill="#bd6b20" opacity="0.27"/><circle cx="138.9" cy="568.8" r="3.01" fill="#bd6b20" opacity="0.27"/><circle cx="172.7" cy="569.4" r="2.95" fill="#bd6b20" opacity="0.33"/><circle cx="211.4" cy="568.6" r="2.58" fill="#bd6b20" opacity="0.21"/><circle cx="247.7" cy="568.5" r="3.39" fill="#bd6b20" opacity="0.17"/><circle cx="280.8" cy="568.7" r="2.81" fill="#bd6b20" opacity="0.21"/><circle cx="316.1" cy="570.1" r="1.96" fill="#bd6b20" opacity="0.28"/><circle cx="355.5" cy="571.8" r="3.49" fill="#bd6b20" opacity="0.33"/><circle cx="389.2" cy="570.7" r="2.46" fill="#bd6b20" opacity="0.29"/><circle cx="428.8" cy="571.4" r="1.64" fill="#bd6b20" opacity="0.19"/><circle cx="460.3" cy="569.7" r="3.94" fill="#bd6b20" opacity="0.22"/><circle cx="496.8" cy="569.6" r="1.68" fill="#bd6b20" opacity="0.35"/><circle cx="535.4" cy="568.2" r="2.98" fill="#bd6b20" opacity="0.31"/><circle cx="570.5" cy="570.8" r="3.71" fill="#bd6b20" opacity="0.29"/><circle cx="605.4" cy="567.2" r="1.67" fill="#bd6b20" opacity="0.24"/><circle cx="643.5" cy="570.3" r="2.56" fill="#bd6b20" opacity="0.21"/><circle cx="680.0" cy="570.1" r="2.25" fill="#bd6b20" opacity="0.20"/><circle cx="714.6" cy="571.1" r="1.81" fill="#bd6b20" opacity="0.27"/><circle cx="748.3" cy="570.3" r="1.79" fill="#bd6b20" opacity="0.22"/><circle cx="786.3" cy="571.7" r="3.49" fill="#bd6b20" opacity="0.29"/><circle cx="819.0" cy="567.4" r="3.55" fill="#bd6b20" opacity="0.34"/><circle cx="860.5" cy="571.3" r="1.78" fill="#bd6b20" opacity="0.35"/><circle cx="896.3" cy="572.7" r="3.97" fill="#bd6b20" opacity="0.16"/><circle cx="932.3" cy="568.9" r="3.18" fill="#bd6b20" opacity="0.34"/><circle cx="964.8" cy="571.1" r="1.62" fill="#bd6b20" opacity="0.15"/><circle cx="1000.2" cy="567.7" r="2.54" fill="#bd6b20" opacity="0.21"/><circle cx="1037.6" cy="569.4" r="3.49" fill="#bd6b20" opacity="0.21"/><circle cx="1075.7" cy="572.6" r="2.78" fill="#bd6b20" opacity="0.20"/><circle cx="1112.3" cy="572.4" r="3.42" fill="#bd6b20" opacity="0.26"/><circle cx="1146.5" cy="571.1" r="2.97" fill="#bd6b20" opacity="0.25"/><circle cx="1181.8" cy="570.2" r="2.81" fill="#bd6b20" opacity="0.28"/><circle cx="32.6" cy="607.2" r="1.87" fill="#bd6b20" opacity="0.29"/><circle cx="65.1" cy="604.9" r="2.00" fill="#bd6b20" opacity="0.17"/><circle cx="102.3" cy="603.1" r="2.74" fill="#bd6b20" opacity="0.18"/><circle cx="137.8" cy="604.4" r="2.62" fill="#bd6b20" opacity="0.28"/><circle cx="173.7" cy="605.7" r="2.07" fill="#bd6b20" opacity="0.26"/><circle cx="207.3" cy="604.7" r="2.50" fill="#bd6b20" opacity="0.26"/><circle cx="249.0" cy="603.8" r="3.22" fill="#bd6b20" opacity="0.26"/><circle cx="281.1" cy="606.3" r="2.75" fill="#bd6b20" opacity="0.26"/><circle cx="317.6" cy="603.5" r="3.41" fill="#bd6b20" opacity="0.20"/><circle cx="354.5" cy="606.2" r="2.98" fill="#bd6b20" opacity="0.23"/><circle cx="392.4" cy="608.2" r="2.38" fill="#bd6b20" opacity="0.19"/><circle cx="423.3" cy="605.3" r="2.15" fill="#bd6b20" opacity="0.19"/><circle cx="464.4" cy="604.5" r="2.69" fill="#bd6b20" opacity="0.34"/><circle cx="495.7" cy="606.3" r="3.93" fill="#bd6b20" opacity="0.33"/><circle cx="535.2" cy="604.3" r="3.79" fill="#bd6b20" opacity="0.19"/><circle cx="568.1" cy="607.0" r="2.27" fill="#bd6b20" opacity="0.27"/><circle cx="604.2" cy="605.1" r="3.17" fill="#bd6b20" opacity="0.25"/><circle cx="641.4" cy="606.7" r="2.57" fill="#bd6b20" opacity="0.17"/><circle cx="678.6" cy="604.0" r="3.86" fill="#bd6b20" opacity="0.23"/><circle cx="712.6" cy="607.2" r="3.14" fill="#bd6b20" opacity="0.31"/><circle cx="748.5" cy="603.3" r="1.61" fill="#bd6b20" opacity="0.36"/><circle cx="786.7" cy="606.3" r="3.68" fill="#bd6b20" opacity="0.34"/><circle cx="824.9" cy="606.5" r="2.05" fill="#bd6b20" opacity="0.33"/><circle cx="857.5" cy="604.9" r="3.00" fill="#bd6b20" opacity="0.22"/><circle cx="892.8" cy="603.9" r="2.29" fill="#bd6b20" opacity="0.25"/><circle cx="929.4" cy="603.8" r="3.17" fill="#bd6b20" opacity="0.16"/><circle cx="967.6" cy="606.8" r="1.78" fill="#bd6b20" opacity="0.15"/><circle cx="1000.8" cy="603.4" r="2.66" fill="#bd6b20" opacity="0.30"/><circle cx="1039.1" cy="605.7" r="2.63" fill="#bd6b20" opacity="0.17"/><circle cx="1071.2" cy="604.1" r="3.24" fill="#bd6b20" opacity="0.21"/><circle cx="1108.6" cy="608.9" r="3.20" fill="#bd6b20" opacity="0.17"/><circle cx="1148.3" cy="608.8" r="3.97" fill="#bd6b20" opacity="0.23"/><circle cx="1180.0" cy="604.2" r="3.86" fill="#bd6b20" opacity="0.30"/><circle cx="29.0" cy="643.2" r="3.32" fill="#bd6b20" opacity="0.31"/><circle cx="65.3" cy="643.8" r="2.97" fill="#bd6b20" opacity="0.18"/><circle cx="102.7" cy="640.3" r="3.60" fill="#bd6b20" opacity="0.15"/><circle cx="138.5" cy="641.2" r="3.49" fill="#bd6b20" opacity="0.35"/><circle cx="176.4" cy="642.1" r="2.61" fill="#bd6b20" opacity="0.25"/><circle cx="207.4" cy="641.3" r="1.77" fill="#bd6b20" opacity="0.32"/><circle cx="245.3" cy="640.7" r="1.66" fill="#bd6b20" opacity="0.35"/><circle cx="283.0" cy="641.0" r="3.69" fill="#bd6b20" opacity="0.23"/><circle cx="315.1" cy="643.5" r="3.37" fill="#bd6b20" opacity="0.32"/><circle cx="352.0" cy="641.5" r="1.84" fill="#bd6b20" opacity="0.19"/><circle cx="388.5" cy="643.8" r="2.66" fill="#bd6b20" opacity="0.28"/><circle cx="427.3" cy="643.6" r="2.62" fill="#bd6b20" opacity="0.31"/><circle cx="463.4" cy="644.4" r="3.06" fill="#bd6b20" opacity="0.19"/><circle cx="496.8" cy="645.0" r="3.29" fill="#bd6b20" opacity="0.24"/><circle cx="531.7" cy="639.9" r="2.36" fill="#bd6b20" opacity="0.15"/><circle cx="567.4" cy="641.6" r="3.55" fill="#bd6b20" opacity="0.34"/><circle cx="608.0" cy="643.3" r="3.17" fill="#bd6b20" opacity="0.35"/><circle cx="639.5" cy="640.0" r="3.09" fill="#bd6b20" opacity="0.28"/><circle cx="678.4" cy="642.6" r="3.84" fill="#bd6b20" opacity="0.19"/><circle cx="711.3" cy="641.8" r="2.16" fill="#bd6b20" opacity="0.32"/><circle cx="748.5" cy="641.1" r="3.38" fill="#bd6b20" opacity="0.29"/><circle cx="788.0" cy="643.4" r="2.10" fill="#bd6b20" opacity="0.29"/><circle cx="819.9" cy="641.2" r="3.89" fill="#bd6b20" opacity="0.29"/><circle cx="856.4" cy="639.5" r="3.84" fill="#bd6b20" opacity="0.26"/><circle cx="891.9" cy="641.7" r="1.97" fill="#bd6b20" opacity="0.35"/><circle cx="930.6" cy="643.3" r="2.56" fill="#bd6b20" opacity="0.36"/><circle cx="967.7" cy="641.2" r="1.88" fill="#bd6b20" opacity="0.23"/><circle cx="999.2" cy="639.7" r="3.85" fill="#bd6b20" opacity="0.23"/><circle cx="1036.2" cy="641.7" r="3.27" fill="#bd6b20" opacity="0.33"/><circle cx="1075.8" cy="641.7" r="2.50" fill="#bd6b20" opacity="0.21"/><circle cx="1111.8" cy="639.9" r="3.08" fill="#bd6b20" opacity="0.26"/><circle cx="1145.9" cy="639.1" r="1.61" fill="#bd6b20" opacity="0.32"/><circle cx="1180.3" cy="644.0" r="2.53" fill="#bd6b20" opacity="0.26"/><circle cx="195.3" cy="267.5" r="220" fill="url(#glow)" opacity="0.9"/>
  <g opacity="0.85" transform="translate(1020, 495)">
        <rect x="-46" y="-60" width="92" height="115" fill="#bd6b20" opacity="0.18" rx="6"/>
        <path d="M -28 -36 L 28 -36 M -28 -12 L 28 -12 M -28 12 L 18 12 M -28 36 L 28 36" stroke="#e09440" stroke-width="3" stroke-linecap="round"/>
      </g>
  <g transform="translate(80, 90)">
    <rect x="0" y="0" rx="20" ry="20" width="101" height="38" fill="#bd6b20" opacity="0.18" stroke="#bd6b20" stroke-width="1.5"/>
    <text x="50.5" y="25" font-family="ui-sans-serif, Inter, sans-serif" font-weight="700" font-size="14" letter-spacing="2.5" fill="#bd6b20" text-anchor="middle">ARTICLE</text>
  </g>
  <text x="80" y="465" font-family="ui-sans-serif, -apple-system, Segoe UI, Inter, sans-serif" font-weight="800" font-size="44" fill="#faf8f5" opacity="0.98"><tspan x="80" dy="0">Generative AI: Unlocking</tspan><tspan x="80" dy="56">the Future of Trust in</tspan><tspan x="80" dy="56">Technology</tspan></text>
  <rect x="0" y="669" width="1200" height="6" fill="url(#gold)"/>
</svg>