<?xml version="1.0" encoding="UTF-8"?>
<svg xmlns="http://www.w3.org/2000/svg" viewBox="0 0 1200 675" width="1200" height="675" role="img" aria-label="Resolving a Contract Dispute: A Case Study in Alternative Dispute Resolution">
  <defs>
    <linearGradient id="bg" x1="0%" y1="0%" x2="100%" y2="100%">
      <stop offset="0%" stop-color="#12100e"/>
      <stop offset="100%" stop-color="#1c1917"/>
    </linearGradient>
    <linearGradient id="gold" x1="0%" y1="0%" x2="100%" y2="100%">
      <stop offset="0%" stop-color="#bd6b20"/>
      <stop offset="100%" stop-color="#e09440"/>
    </linearGradient>
    <radialGradient id="glow" cx="50%" cy="50%" r="50%">
      <stop offset="0%" stop-color="#bd6b20" stop-opacity="0.45"/>
      <stop offset="100%" stop-color="#bd6b20" stop-opacity="0"/>
    </radialGradient>
  </defs>
  <rect width="1200" height="675" fill="url(#bg)"/>
  <polygon points="1036.3,297.5 1049.6,429.8 927.9,483.3 839.4,384.1 906.4,269.3" fill="#e09440" opacity="0.15"/><polygon points="586.4,522.6 502.8,655.8 350.3,617.5 339.7,460.6 485.5,402.0" fill="#e09440" opacity="0.11"/><polygon points="784.0,188.0 909.2,126.3 971.0,251.6 845.7,313.3" fill="#e09440" opacity="0.15"/><polygon points="1042.8,87.5 1053.5,19.9 1121.2,30.6 1110.4,98.2" fill="#e09440" opacity="0.09"/><polygon points="991.6,117.8 1017.5,298.9 853.3,379.6 725.8,248.3 811.3,86.5" fill="#e09440" opacity="0.17"/><polygon points="53.2,53.3 -8.3,66.6 -39.9,12.2 2.1,-34.7 59.6,-9.2" fill="#e09440" opacity="0.13"/><polygon points="362.1,541.8 196.4,389.3 348.9,223.6 514.6,376.1" fill="#e09440" opacity="0.05"/><polygon points="1044.0,576.9 1159.1,515.5 1253.2,606.0 1196.1,723.4 1066.9,705.4" fill="#e09440" opacity="0.09"/><polygon points="1104.6,66.5 1166.3,57.3 1194.1,113.2 1149.6,156.9 1094.3,128.1" fill="#e09440" opacity="0.18"/><polygon points="711.9,412.9 700.3,526.2 589.0,550.1 531.8,451.7 607.7,366.9" fill="#e09440" opacity="0.06"/><polygon points="234.0,197.5 426.7,305.4 318.9,498.2 126.1,390.3" fill="#e09440" opacity="0.06"/><polygon points="694.7,542.5 800.6,472.6 870.5,578.5 764.6,648.4" fill="#e09440" opacity="0.05"/><polygon points="956.2,435.8 1146.1,332.3 1140.8,548.5" fill="#e09440" opacity="0.16"/><polygon points="235.4,481.9 161.7,499.4 122.3,434.8 171.7,377.3 241.5,406.4" fill="#e09440" opacity="0.09"/><circle cx="936.0" cy="202.5" r="180" fill="url(#glow)"/>
  <g opacity="0.85" transform="translate(1020, 495)">
        <rect x="-46" y="-60" width="92" height="115" fill="#bd6b20" opacity="0.18" rx="6"/>
        <path d="M -28 -36 L 28 -36 M -28 -12 L 28 -12 M -28 12 L 18 12 M -28 36 L 28 36" stroke="#e09440" stroke-width="3" stroke-linecap="round"/>
      </g>
  <g transform="translate(80, 90)">
    <rect x="0" y="0" rx="20" ry="20" width="101" height="38" fill="#bd6b20" opacity="0.18" stroke="#bd6b20" stroke-width="1.5"/>
    <text x="50.5" y="25" font-family="ui-sans-serif, Inter, sans-serif" font-weight="700" font-size="14" letter-spacing="2.5" fill="#bd6b20" text-anchor="middle">ARTICLE</text>
  </g>
  <text x="80" y="465" font-family="ui-sans-serif, -apple-system, Segoe UI, Inter, sans-serif" font-weight="800" font-size="44" fill="#faf8f5" opacity="0.98"><tspan x="80" dy="0">Resolving a Contract</tspan><tspan x="80" dy="56">Dispute: A Case Study in</tspan><tspan x="80" dy="56">Alternative Dispute</tspan></text>
  <rect x="0" y="669" width="1200" height="6" fill="url(#gold)"/>
</svg>