<?xml version="1.0" encoding="UTF-8"?>
<svg xmlns="http://www.w3.org/2000/svg" viewBox="0 0 1200 675" width="1200" height="675" role="img" aria-label="Resolving a Payment Dispute: Manufacturer vs. Distributor Case in Madhyapradesh">
  <defs>
    <linearGradient id="bg" x1="0%" y1="0%" x2="100%" y2="100%">
      <stop offset="0%" stop-color="#643516"/>
      <stop offset="100%" stop-color="#7d4315"/>
    </linearGradient>
    <linearGradient id="gold" x1="0%" y1="0%" x2="100%" y2="100%">
      <stop offset="0%" stop-color="#ecb478"/>
      <stop offset="100%" stop-color="#faebd6"/>
    </linearGradient>
    <radialGradient id="glow" cx="50%" cy="50%" r="50%">
      <stop offset="0%" stop-color="#ecb478" stop-opacity="0.45"/>
      <stop offset="100%" stop-color="#ecb478" stop-opacity="0"/>
    </radialGradient>
  </defs>
  <rect width="1200" height="675" fill="url(#bg)"/>
  <rect x="60" y="68" width="480" height="203" rx="14" transform="rotate(0.19 300 169)" fill="#ecb478" opacity="0.18"/><rect x="600" y="101" width="360" height="338" rx="14" transform="rotate(1.00 780 270)" fill="#faebd6" opacity="0.22"/><rect x="120" y="304" width="300" height="169" rx="14" transform="rotate(0.12 270 388)" fill="#f4d2ac" opacity="0.18"/><rect x="996" y="34" width="144" height="236" rx="14" transform="rotate(0.01 1068 152)" fill="#ecb478" opacity="0.3"/><rect x="0" y="0" width="1200" height="675" fill="url(#glow)" opacity="0.4"/>
  <g opacity="0.85" transform="translate(1020, 495)">
        <circle r="60" fill="#ecb478" opacity="0.18"/>
        <path d="M -34 6 Q -10 -22 14 6 Q 34 24 14 26 L -22 26 Q -38 24 -34 6 Z" fill="none" stroke="#faebd6" stroke-width="3" stroke-linejoin="round"/>
      </g>
  <g transform="translate(80, 90)">
    <rect x="0" y="0" rx="20" ry="20" width="134" height="38" fill="#ecb478" opacity="0.18" stroke="#ecb478" stroke-width="1.5"/>
    <text x="67" y="25" font-family="ui-sans-serif, Inter, sans-serif" font-weight="700" font-size="14" letter-spacing="2.5" fill="#ecb478" text-anchor="middle">CASE STUDY</text>
  </g>
  <text x="80" y="465" font-family="ui-sans-serif, -apple-system, Segoe UI, Inter, sans-serif" font-weight="800" font-size="44" fill="#faf8f5" opacity="0.98"><tspan x="80" dy="0">Resolving a Payment</tspan><tspan x="80" dy="56">Dispute: Manufacturer vs.</tspan><tspan x="80" dy="56">Distributor Case in</tspan></text>
  <rect x="0" y="669" width="1200" height="6" fill="url(#gold)"/>
</svg>