<?xml version="1.0" encoding="UTF-8"?>
<svg xmlns="http://www.w3.org/2000/svg" viewBox="0 0 1200 675" width="1200" height="675" role="img" aria-label="Mastering CIBIL Score Disputes: Expert Insights &amp; Solutions">
  <defs>
    <linearGradient id="bg" x1="0%" y1="0%" x2="100%" y2="100%">
      <stop offset="0%" stop-color="#12100e"/>
      <stop offset="100%" stop-color="#1c1917"/>
    </linearGradient>
    <linearGradient id="gold" x1="0%" y1="0%" x2="100%" y2="100%">
      <stop offset="0%" stop-color="#bd6b20"/>
      <stop offset="100%" stop-color="#e09440"/>
    </linearGradient>
    <radialGradient id="glow" cx="50%" cy="50%" r="50%">
      <stop offset="0%" stop-color="#bd6b20" stop-opacity="0.45"/>
      <stop offset="100%" stop-color="#bd6b20" stop-opacity="0"/>
    </radialGradient>
  </defs>
  <rect width="1200" height="675" fill="url(#bg)"/>
  <rect x="-714.9" y="-80" width="68.3" height="875" transform="rotate(18 -714.9 337.5)" fill="#bd6b20" opacity="0.18"/><rect x="-464.2" y="-80" width="119.4" height="875" transform="rotate(18 -464.2 337.5)" fill="#bd6b20" opacity="0.07"/><rect x="-318.2" y="-80" width="88.3" height="875" transform="rotate(18 -318.2 337.5)" fill="#bd6b20" opacity="0.08"/><rect x="-105.9" y="-80" width="128.7" height="875" transform="rotate(18 -105.9 337.5)" fill="#bd6b20" opacity="0.08"/><rect x="7.1" y="-80" width="99.7" height="875" transform="rotate(18 7.1 337.5)" fill="#bd6b20" opacity="0.10"/><rect x="201.8" y="-80" width="98.0" height="875" transform="rotate(18 201.8 337.5)" fill="#bd6b20" opacity="0.07"/><rect x="418.8" y="-80" width="81.1" height="875" transform="rotate(18 418.8 337.5)" fill="#bd6b20" opacity="0.12"/><rect x="560.5" y="-80" width="114.4" height="875" transform="rotate(18 560.5 337.5)" fill="#bd6b20" opacity="0.09"/><rect x="756.8" y="-80" width="130.5" height="875" transform="rotate(18 756.8 337.5)" fill="#bd6b20" opacity="0.18"/><rect x="916.9" y="-80" width="138.6" height="875" transform="rotate(18 916.9 337.5)" fill="#bd6b20" opacity="0.11"/><rect x="1088.7" y="-80" width="84.8" height="875" transform="rotate(18 1088.7 337.5)" fill="#bd6b20" opacity="0.11"/><rect x="1314.5" y="-80" width="72.5" height="875" transform="rotate(18 1314.5 337.5)" fill="#bd6b20" opacity="0.15"/><rect x="1479.6" y="-80" width="118.6" height="875" transform="rotate(18 1479.6 337.5)" fill="#bd6b20" opacity="0.12"/><rect x="1620.6" y="-80" width="67.9" height="875" transform="rotate(18 1620.6 337.5)" fill="#bd6b20" opacity="0.14"/><rect x="0" y="0" width="1200" height="675" fill="url(#glow)" opacity="0.6"/>
  <g opacity="0.85" transform="translate(1020, 495)">
        <rect x="-46" y="-60" width="92" height="115" fill="#bd6b20" opacity="0.18" rx="6"/>
        <path d="M -28 -36 L 28 -36 M -28 -12 L 28 -12 M -28 12 L 18 12 M -28 36 L 28 36" stroke="#e09440" stroke-width="3" stroke-linecap="round"/>
      </g>
  <g transform="translate(80, 90)">
    <rect x="0" y="0" rx="20" ry="20" width="101" height="38" fill="#bd6b20" opacity="0.18" stroke="#bd6b20" stroke-width="1.5"/>
    <text x="50.5" y="25" font-family="ui-sans-serif, Inter, sans-serif" font-weight="700" font-size="14" letter-spacing="2.5" fill="#bd6b20" text-anchor="middle">ARTICLE</text>
  </g>
  <text x="80" y="465" font-family="ui-sans-serif, -apple-system, Segoe UI, Inter, sans-serif" font-weight="800" font-size="44" fill="#faf8f5" opacity="0.98"><tspan x="80" dy="0">Mastering CIBIL Score</tspan><tspan x="80" dy="56">Disputes: Expert Insights</tspan><tspan x="80" dy="56">&amp; Solutions</tspan></text>
  <rect x="0" y="669" width="1200" height="6" fill="url(#gold)"/>
</svg>