<?xml version="1.0" encoding="UTF-8"?>
<svg xmlns="http://www.w3.org/2000/svg" viewBox="0 0 1200 675" width="1200" height="675" role="img" aria-label="Max Healthcare Takes Legal Action Against CARE Hospitals; Bombay High Court to Decide on Urgent Relief">
  <defs>
    <linearGradient id="bg" x1="0%" y1="0%" x2="100%" y2="100%">
      <stop offset="0%" stop-color="#0c0a09"/>
      <stop offset="100%" stop-color="#291813"/>
    </linearGradient>
    <linearGradient id="gold" x1="0%" y1="0%" x2="100%" y2="100%">
      <stop offset="0%" stop-color="#d4862a"/>
      <stop offset="100%" stop-color="#bd6b20"/>
    </linearGradient>
    <radialGradient id="glow" cx="50%" cy="50%" r="50%">
      <stop offset="0%" stop-color="#d4862a" stop-opacity="0.45"/>
      <stop offset="100%" stop-color="#d4862a" stop-opacity="0"/>
    </radialGradient>
  </defs>
  <rect width="1200" height="675" fill="url(#bg)"/>
  <circle cx="29.7" cy="32.1" r="2.20" fill="#d4862a" opacity="0.21"/><circle cx="68.6" cy="28.8" r="2.02" fill="#d4862a" opacity="0.25"/><circle cx="102.4" cy="28.7" r="3.78" fill="#d4862a" opacity="0.34"/><circle cx="135.7" cy="31.6" r="2.64" fill="#d4862a" opacity="0.25"/><circle cx="172.4" cy="32.2" r="3.81" fill="#d4862a" opacity="0.24"/><circle cx="207.4" cy="30.6" r="3.17" fill="#d4862a" opacity="0.30"/><circle cx="247.4" cy="29.3" r="1.75" fill="#d4862a" opacity="0.35"/><circle cx="280.3" cy="28.7" r="3.11" fill="#d4862a" opacity="0.30"/><circle cx="318.4" cy="29.6" r="2.90" fill="#d4862a" opacity="0.25"/><circle cx="355.5" cy="30.7" r="2.94" fill="#d4862a" opacity="0.17"/><circle cx="387.8" cy="30.4" r="2.76" fill="#d4862a" opacity="0.36"/><circle cx="424.7" cy="31.8" r="2.27" fill="#d4862a" opacity="0.32"/><circle cx="462.2" cy="28.9" r="2.99" fill="#d4862a" opacity="0.24"/><circle cx="499.6" cy="29.3" r="3.60" fill="#d4862a" opacity="0.30"/><circle cx="535.0" cy="31.2" r="3.54" fill="#d4862a" opacity="0.27"/><circle cx="572.3" cy="29.9" r="1.87" fill="#d4862a" opacity="0.32"/><circle cx="604.9" cy="29.3" r="2.41" fill="#d4862a" opacity="0.36"/><circle cx="640.0" cy="30.2" r="2.74" fill="#d4862a" opacity="0.28"/><circle cx="676.7" cy="28.3" r="2.49" fill="#d4862a" opacity="0.30"/><circle cx="715.9" cy="30.7" r="2.38" fill="#d4862a" opacity="0.30"/><circle cx="751.5" cy="29.0" r="1.80" fill="#d4862a" opacity="0.23"/><circle cx="787.9" cy="30.6" r="3.26" fill="#d4862a" opacity="0.30"/><circle cx="823.7" cy="30.3" r="2.68" fill="#d4862a" opacity="0.24"/><circle cx="859.0" cy="29.5" r="3.27" fill="#d4862a" opacity="0.20"/><circle cx="895.3" cy="30.6" r="1.65" fill="#d4862a" opacity="0.18"/><circle cx="930.9" cy="29.3" r="2.46" fill="#d4862a" opacity="0.28"/><circle cx="967.2" cy="31.5" r="1.93" fill="#d4862a" opacity="0.34"/><circle cx="1002.9" cy="31.2" r="2.74" fill="#d4862a" opacity="0.28"/><circle cx="1038.8" cy="28.7" r="3.10" fill="#d4862a" opacity="0.25"/><circle cx="1072.1" cy="29.5" r="3.64" fill="#d4862a" opacity="0.29"/><circle cx="1107.8" cy="28.8" r="1.64" fill="#d4862a" opacity="0.36"/><circle cx="1144.9" cy="31.9" r="2.62" fill="#d4862a" opacity="0.22"/><circle cx="1184.1" cy="31.8" r="3.40" fill="#d4862a" opacity="0.26"/><circle cx="30.5" cy="65.4" r="3.94" fill="#d4862a" opacity="0.25"/><circle cx="65.4" cy="68.3" r="2.72" fill="#d4862a" opacity="0.33"/><circle cx="103.1" cy="64.7" r="3.43" fill="#d4862a" opacity="0.22"/><circle cx="139.9" cy="68.4" r="3.60" fill="#d4862a" opacity="0.20"/><circle cx="173.0" cy="64.3" r="3.60" fill="#d4862a" opacity="0.27"/><circle cx="208.9" cy="68.1" r="1.80" fill="#d4862a" opacity="0.27"/><circle cx="243.7" cy="65.3" r="2.35" fill="#d4862a" opacity="0.24"/><circle cx="279.0" cy="63.6" r="3.48" fill="#d4862a" opacity="0.20"/><circle cx="317.5" cy="66.5" r="1.95" fill="#d4862a" opacity="0.29"/><circle cx="356.6" cy="63.0" r="2.41" fill="#d4862a" opacity="0.28"/><circle cx="390.6" cy="68.1" r="2.81" fill="#d4862a" opacity="0.36"/><circle cx="424.7" cy="66.2" r="3.19" fill="#d4862a" opacity="0.28"/><circle cx="462.6" cy="66.2" r="1.74" fill="#d4862a" opacity="0.34"/><circle cx="499.0" cy="65.2" r="3.58" fill="#d4862a" opacity="0.18"/><circle cx="533.8" cy="68.0" r="1.63" fill="#d4862a" opacity="0.18"/><circle cx="567.2" cy="67.6" r="2.38" fill="#d4862a" opacity="0.20"/><circle cx="604.1" cy="63.8" r="3.45" fill="#d4862a" opacity="0.30"/><circle cx="644.3" cy="66.0" r="2.40" fill="#d4862a" opacity="0.28"/><circle cx="677.2" cy="64.8" r="2.75" fill="#d4862a" opacity="0.18"/><circle cx="711.3" cy="68.9" r="2.59" fill="#d4862a" opacity="0.28"/><circle cx="752.9" cy="67.1" r="3.83" fill="#d4862a" opacity="0.16"/><circle cx="784.2" cy="64.1" r="1.82" fill="#d4862a" opacity="0.33"/><circle cx="820.5" cy="63.3" r="3.68" fill="#d4862a" opacity="0.32"/><circle cx="858.6" cy="63.3" r="3.76" fill="#d4862a" opacity="0.33"/><circle cx="895.2" cy="67.9" r="2.70" fill="#d4862a" opacity="0.19"/><circle cx="929.8" cy="67.2" r="3.12" fill="#d4862a" opacity="0.36"/><circle cx="965.5" cy="68.8" r="2.02" fill="#d4862a" opacity="0.35"/><circle cx="1002.4" cy="66.4" r="2.63" fill="#d4862a" opacity="0.27"/><circle cx="1035.4" cy="68.5" r="3.17" fill="#d4862a" opacity="0.36"/><circle cx="1073.7" cy="67.3" r="3.90" fill="#d4862a" opacity="0.26"/><circle cx="1109.6" cy="64.7" r="2.22" fill="#d4862a" opacity="0.27"/><circle cx="1147.0" cy="64.4" r="3.22" fill="#d4862a" opacity="0.24"/><circle cx="1184.0" cy="63.4" r="3.78" fill="#d4862a" opacity="0.30"/><circle cx="32.3" cy="99.5" r="3.94" fill="#d4862a" opacity="0.27"/><circle cx="67.9" cy="99.7" r="2.98" fill="#d4862a" opacity="0.34"/><circle cx="102.8" cy="101.4" r="2.63" fill="#d4862a" opacity="0.20"/><circle cx="135.5" cy="103.9" r="3.96" fill="#d4862a" opacity="0.17"/><circle cx="175.3" cy="100.0" r="1.92" fill="#d4862a" opacity="0.31"/><circle cx="211.1" cy="99.8" r="2.40" fill="#d4862a" opacity="0.23"/><circle cx="244.2" cy="99.4" r="3.72" fill="#d4862a" opacity="0.32"/><circle cx="279.7" cy="105.0" r="3.81" fill="#d4862a" opacity="0.17"/><circle cx="318.9" cy="102.1" r="3.45" fill="#d4862a" opacity="0.22"/><circle cx="353.6" cy="103.6" r="3.16" fill="#d4862a" opacity="0.21"/><circle cx="390.1" cy="104.2" r="3.22" fill="#d4862a" opacity="0.15"/><circle cx="427.7" cy="104.4" r="2.34" fill="#d4862a" opacity="0.31"/><circle cx="462.5" cy="103.2" r="2.78" fill="#d4862a" opacity="0.27"/><circle cx="496.8" cy="102.7" r="2.62" fill="#d4862a" opacity="0.19"/><circle cx="532.2" cy="103.1" r="2.86" fill="#d4862a" opacity="0.16"/><circle cx="567.8" cy="102.6" r="3.94" fill="#d4862a" opacity="0.22"/><circle cx="607.7" cy="102.0" r="3.35" fill="#d4862a" opacity="0.18"/><circle cx="642.3" cy="101.8" r="3.76" fill="#d4862a" opacity="0.17"/><circle cx="678.2" cy="100.6" r="1.83" fill="#d4862a" opacity="0.26"/><circle cx="714.9" cy="101.3" r="3.62" fill="#d4862a" opacity="0.34"/><circle cx="752.5" cy="99.6" r="3.66" fill="#d4862a" opacity="0.30"/><circle cx="784.4" cy="104.5" r="3.38" fill="#d4862a" opacity="0.23"/><circle cx="824.0" cy="104.8" r="2.92" fill="#d4862a" opacity="0.24"/><circle cx="856.1" cy="104.6" r="1.64" fill="#d4862a" opacity="0.35"/><circle cx="894.7" cy="104.7" r="1.85" fill="#d4862a" opacity="0.35"/><circle cx="927.5" cy="101.3" r="2.68" fill="#d4862a" opacity="0.18"/><circle cx="964.7" cy="100.5" r="2.46" fill="#d4862a" opacity="0.28"/><circle cx="1004.2" cy="100.2" r="3.05" fill="#d4862a" opacity="0.23"/><circle cx="1040.6" cy="100.7" r="2.79" fill="#d4862a" opacity="0.16"/><circle cx="1073.9" cy="100.3" r="3.30" fill="#d4862a" opacity="0.20"/><circle cx="1109.9" cy="104.8" r="2.20" fill="#d4862a" opacity="0.22"/><circle cx="1143.5" cy="99.4" r="2.82" fill="#d4862a" opacity="0.29"/><circle cx="1179.2" cy="103.2" r="3.37" fill="#d4862a" opacity="0.26"/><circle cx="28.9" cy="140.7" r="2.44" fill="#d4862a" opacity="0.20"/><circle cx="68.1" cy="140.7" r="1.79" fill="#d4862a" opacity="0.34"/><circle cx="101.7" cy="139.9" r="2.43" fill="#d4862a" opacity="0.25"/><circle cx="137.5" cy="138.5" r="3.02" fill="#d4862a" opacity="0.35"/><circle cx="174.3" cy="140.0" r="2.40" fill="#d4862a" opacity="0.26"/><circle cx="209.4" cy="139.5" r="2.29" fill="#d4862a" opacity="0.28"/><circle cx="245.3" cy="138.8" r="3.14" fill="#d4862a" opacity="0.21"/><circle cx="280.7" cy="139.2" r="1.93" fill="#d4862a" opacity="0.31"/><circle cx="320.7" cy="140.2" r="2.81" fill="#d4862a" opacity="0.25"/><circle cx="357.0" cy="140.2" r="2.82" fill="#d4862a" opacity="0.25"/><circle cx="387.3" cy="140.2" r="2.46" fill="#d4862a" opacity="0.26"/><circle cx="428.5" cy="140.9" r="2.89" fill="#d4862a" opacity="0.34"/><circle cx="460.8" cy="139.2" r="3.14" fill="#d4862a" opacity="0.20"/><circle cx="500.3" cy="139.4" r="3.37" fill="#d4862a" opacity="0.22"/><circle cx="531.0" cy="137.5" r="2.61" fill="#d4862a" opacity="0.32"/><circle cx="573.0" cy="136.1" r="3.04" fill="#d4862a" opacity="0.32"/><circle cx="603.8" cy="136.5" r="2.81" fill="#d4862a" opacity="0.19"/><circle cx="642.4" cy="140.7" r="3.64" fill="#d4862a" opacity="0.33"/><circle cx="679.4" cy="138.5" r="1.86" fill="#d4862a" opacity="0.18"/><circle cx="714.4" cy="136.0" r="1.95" fill="#d4862a" opacity="0.30"/><circle cx="748.4" cy="136.1" r="2.27" fill="#d4862a" opacity="0.29"/><circle cx="784.7" cy="140.7" r="2.22" fill="#d4862a" opacity="0.20"/><circle cx="822.7" cy="139.4" r="2.86" fill="#d4862a" opacity="0.26"/><circle cx="856.5" cy="137.4" r="3.01" fill="#d4862a" opacity="0.18"/><circle cx="895.4" cy="135.6" r="2.38" fill="#d4862a" opacity="0.35"/><circle cx="928.9" cy="139.5" r="2.73" fill="#d4862a" opacity="0.20"/><circle cx="965.5" cy="138.9" r="1.81" fill="#d4862a" opacity="0.26"/><circle cx="1004.2" cy="140.2" r="2.62" fill="#d4862a" opacity="0.20"/><circle cx="1038.0" cy="140.1" r="2.93" fill="#d4862a" opacity="0.18"/><circle cx="1071.4" cy="136.1" r="2.78" fill="#d4862a" opacity="0.24"/><circle cx="1112.6" cy="136.4" r="3.03" fill="#d4862a" opacity="0.17"/><circle cx="1145.4" cy="136.3" r="2.64" fill="#d4862a" opacity="0.27"/><circle cx="1183.1" cy="137.9" r="3.47" fill="#d4862a" opacity="0.34"/><circle cx="31.4" cy="173.5" r="2.23" fill="#d4862a" opacity="0.23"/><circle cx="63.9" cy="171.7" r="1.76" fill="#d4862a" opacity="0.29"/><circle cx="103.6" cy="175.8" r="2.49" fill="#d4862a" opacity="0.25"/><circle cx="136.8" cy="176.6" r="2.13" fill="#d4862a" opacity="0.17"/><circle cx="171.9" cy="171.1" r="3.05" fill="#d4862a" opacity="0.21"/><circle cx="210.9" cy="174.4" r="2.94" fill="#d4862a" opacity="0.21"/><circle cx="243.4" cy="174.0" r="1.74" fill="#d4862a" opacity="0.18"/><circle cx="280.9" cy="174.0" r="3.77" fill="#d4862a" opacity="0.17"/><circle cx="319.6" cy="174.7" r="1.73" fill="#d4862a" opacity="0.26"/><circle cx="351.3" cy="172.0" r="3.44" fill="#d4862a" opacity="0.33"/><circle cx="391.7" cy="171.2" r="2.00" fill="#d4862a" opacity="0.33"/><circle cx="426.1" cy="174.3" r="3.08" fill="#d4862a" opacity="0.21"/><circle cx="463.2" cy="172.2" r="3.15" fill="#d4862a" opacity="0.36"/><circle cx="496.4" cy="171.7" r="2.34" fill="#d4862a" opacity="0.24"/><circle cx="533.5" cy="175.2" r="2.97" fill="#d4862a" opacity="0.18"/><circle cx="567.3" cy="171.8" r="1.70" fill="#d4862a" opacity="0.21"/><circle cx="607.7" cy="172.3" r="2.79" fill="#d4862a" opacity="0.31"/><circle cx="641.9" cy="173.3" r="2.75" fill="#d4862a" opacity="0.36"/><circle cx="677.3" cy="174.0" r="3.86" fill="#d4862a" opacity="0.32"/><circle cx="713.9" cy="174.0" r="3.84" fill="#d4862a" opacity="0.17"/><circle cx="748.0" cy="174.7" r="1.60" fill="#d4862a" opacity="0.19"/><circle cx="788.7" cy="176.0" r="3.11" fill="#d4862a" opacity="0.28"/><circle cx="819.8" cy="174.6" r="1.98" fill="#d4862a" opacity="0.33"/><circle cx="858.4" cy="174.1" r="2.17" fill="#d4862a" opacity="0.27"/><circle cx="892.0" cy="174.7" r="3.13" fill="#d4862a" opacity="0.25"/><circle cx="928.1" cy="172.1" r="3.96" fill="#d4862a" opacity="0.17"/><circle cx="965.3" cy="174.3" r="2.01" fill="#d4862a" opacity="0.17"/><circle cx="1002.6" cy="176.2" r="3.02" fill="#d4862a" opacity="0.27"/><circle cx="1039.2" cy="172.4" r="3.20" fill="#d4862a" opacity="0.35"/><circle cx="1072.0" cy="172.1" r="2.04" fill="#d4862a" opacity="0.30"/><circle cx="1109.5" cy="172.2" r="3.47" fill="#d4862a" opacity="0.21"/><circle cx="1144.0" cy="176.3" r="2.27" fill="#d4862a" opacity="0.21"/><circle cx="1184.2" cy="173.2" r="3.27" fill="#d4862a" opacity="0.17"/><circle cx="29.8" cy="209.8" r="1.71" fill="#d4862a" opacity="0.33"/><circle cx="64.2" cy="210.5" r="2.06" fill="#d4862a" opacity="0.26"/><circle cx="100.6" cy="212.3" r="3.39" fill="#d4862a" opacity="0.30"/><circle cx="137.5" cy="207.5" r="1.82" fill="#d4862a" opacity="0.25"/><circle cx="173.6" cy="209.3" r="3.95" fill="#d4862a" opacity="0.22"/><circle cx="212.7" cy="212.9" r="3.69" fill="#d4862a" opacity="0.30"/><circle cx="246.8" cy="212.0" r="2.39" fill="#d4862a" opacity="0.16"/><circle cx="282.7" cy="210.4" r="3.27" fill="#d4862a" opacity="0.30"/><circle cx="318.4" cy="211.6" r="3.92" fill="#d4862a" opacity="0.32"/><circle cx="356.5" cy="210.0" r="2.70" fill="#d4862a" opacity="0.16"/><circle cx="391.7" cy="211.7" r="2.43" fill="#d4862a" opacity="0.25"/><circle cx="426.7" cy="210.6" r="3.80" fill="#d4862a" opacity="0.19"/><circle cx="464.8" cy="213.0" r="2.08" fill="#d4862a" opacity="0.26"/><circle cx="498.0" cy="211.9" r="1.66" fill="#d4862a" opacity="0.31"/><circle cx="535.4" cy="208.0" r="3.88" fill="#d4862a" opacity="0.23"/><circle cx="571.9" cy="208.3" r="2.40" fill="#d4862a" opacity="0.24"/><circle cx="607.5" cy="209.3" r="2.49" fill="#d4862a" opacity="0.25"/><circle cx="644.3" cy="207.5" r="1.64" fill="#d4862a" opacity="0.23"/><circle cx="680.8" cy="207.0" r="4.00" fill="#d4862a" opacity="0.20"/><circle cx="715.7" cy="210.2" r="1.67" fill="#d4862a" opacity="0.22"/><circle cx="750.5" cy="212.3" r="3.85" fill="#d4862a" opacity="0.30"/><circle cx="788.6" cy="208.4" r="2.06" fill="#d4862a" opacity="0.22"/><circle cx="823.9" cy="211.4" r="2.97" fill="#d4862a" opacity="0.27"/><circle cx="857.4" cy="208.9" r="3.50" fill="#d4862a" opacity="0.27"/><circle cx="892.2" cy="208.7" r="2.01" fill="#d4862a" opacity="0.21"/><circle cx="931.2" cy="207.2" r="3.91" fill="#d4862a" opacity="0.16"/><circle cx="965.5" cy="209.5" r="3.00" fill="#d4862a" opacity="0.31"/><circle cx="1004.9" cy="212.9" r="2.63" fill="#d4862a" opacity="0.20"/><circle cx="1040.0" cy="211.9" r="3.49" fill="#d4862a" opacity="0.35"/><circle cx="1072.8" cy="212.5" r="1.63" fill="#d4862a" opacity="0.21"/><circle cx="1112.6" cy="207.4" r="3.28" fill="#d4862a" opacity="0.32"/><circle cx="1149.0" cy="207.4" r="3.48" fill="#d4862a" opacity="0.25"/><circle cx="1182.3" cy="212.3" r="2.43" fill="#d4862a" opacity="0.18"/><circle cx="32.3" cy="244.3" r="3.17" fill="#d4862a" opacity="0.32"/><circle cx="63.6" cy="244.4" r="2.59" fill="#d4862a" opacity="0.22"/><circle cx="102.3" cy="245.8" r="1.73" fill="#d4862a" opacity="0.27"/><circle cx="138.8" cy="243.4" r="3.06" fill="#d4862a" opacity="0.21"/><circle cx="173.8" cy="244.4" r="2.31" fill="#d4862a" opacity="0.16"/><circle cx="211.0" cy="248.7" r="3.61" fill="#d4862a" opacity="0.32"/><circle cx="244.4" cy="245.8" r="2.85" fill="#d4862a" opacity="0.29"/><circle cx="279.9" cy="247.2" r="2.81" fill="#d4862a" opacity="0.24"/><circle cx="320.7" cy="247.4" r="2.51" fill="#d4862a" opacity="0.33"/><circle cx="354.1" cy="243.6" r="1.90" fill="#d4862a" opacity="0.30"/><circle cx="387.5" cy="244.6" r="3.46" fill="#d4862a" opacity="0.17"/><circle cx="425.0" cy="246.0" r="2.82" fill="#d4862a" opacity="0.34"/><circle cx="462.3" cy="248.9" r="2.27" fill="#d4862a" opacity="0.20"/><circle cx="495.2" cy="245.0" r="3.79" fill="#d4862a" opacity="0.17"/><circle cx="535.8" cy="245.5" r="1.78" fill="#d4862a" opacity="0.25"/><circle cx="570.1" cy="245.0" r="3.73" fill="#d4862a" opacity="0.33"/><circle cx="603.4" cy="247.9" r="3.34" fill="#d4862a" opacity="0.20"/><circle cx="639.3" cy="246.4" r="2.38" fill="#d4862a" opacity="0.16"/><circle cx="680.5" cy="245.8" r="1.73" fill="#d4862a" opacity="0.33"/><circle cx="711.9" cy="248.9" r="2.79" fill="#d4862a" opacity="0.24"/><circle cx="747.9" cy="247.3" r="2.97" fill="#d4862a" opacity="0.17"/><circle cx="783.4" cy="245.0" r="2.84" fill="#d4862a" opacity="0.18"/><circle cx="820.2" cy="247.1" r="3.60" fill="#d4862a" opacity="0.18"/><circle cx="858.1" cy="248.4" r="3.22" fill="#d4862a" opacity="0.28"/><circle cx="892.3" cy="248.4" r="2.75" fill="#d4862a" opacity="0.32"/><circle cx="928.6" cy="244.2" r="3.58" fill="#d4862a" opacity="0.36"/><circle cx="965.2" cy="248.1" r="3.71" fill="#d4862a" opacity="0.29"/><circle cx="1001.2" cy="246.1" r="3.41" fill="#d4862a" opacity="0.31"/><circle cx="1039.2" cy="247.0" r="3.99" fill="#d4862a" opacity="0.36"/><circle cx="1074.5" cy="247.8" r="2.33" fill="#d4862a" opacity="0.29"/><circle cx="1107.2" cy="244.7" r="2.99" fill="#d4862a" opacity="0.28"/><circle cx="1145.1" cy="248.7" r="3.15" fill="#d4862a" opacity="0.18"/><circle cx="1184.2" cy="245.3" r="2.64" fill="#d4862a" opacity="0.29"/><circle cx="27.8" cy="279.3" r="2.92" fill="#d4862a" opacity="0.28"/><circle cx="65.9" cy="284.9" r="2.13" fill="#d4862a" opacity="0.21"/><circle cx="104.1" cy="280.1" r="3.48" fill="#d4862a" opacity="0.16"/><circle cx="136.2" cy="279.7" r="3.69" fill="#d4862a" opacity="0.32"/><circle cx="174.7" cy="283.2" r="1.64" fill="#d4862a" opacity="0.17"/><circle cx="212.0" cy="282.4" r="3.02" fill="#d4862a" opacity="0.25"/><circle cx="247.8" cy="281.6" r="2.43" fill="#d4862a" opacity="0.26"/><circle cx="283.0" cy="284.0" r="2.60" fill="#d4862a" opacity="0.18"/><circle cx="318.8" cy="280.8" r="1.83" fill="#d4862a" opacity="0.15"/><circle cx="352.2" cy="280.4" r="3.52" fill="#d4862a" opacity="0.24"/><circle cx="387.0" cy="281.6" r="3.30" fill="#d4862a" opacity="0.34"/><circle cx="428.3" cy="285.0" r="3.73" fill="#d4862a" opacity="0.22"/><circle cx="464.7" cy="284.2" r="2.28" fill="#d4862a" opacity="0.34"/><circle cx="495.3" cy="281.6" r="3.86" fill="#d4862a" opacity="0.33"/><circle cx="534.8" cy="280.6" r="2.31" fill="#d4862a" opacity="0.25"/><circle cx="572.0" cy="279.7" r="3.36" fill="#d4862a" opacity="0.22"/><circle cx="607.1" cy="282.0" r="2.60" fill="#d4862a" opacity="0.28"/><circle cx="641.1" cy="281.9" r="1.80" fill="#d4862a" opacity="0.25"/><circle cx="679.3" cy="284.6" r="3.01" fill="#d4862a" opacity="0.17"/><circle cx="713.2" cy="281.1" r="3.08" fill="#d4862a" opacity="0.23"/><circle cx="750.8" cy="284.4" r="2.68" fill="#d4862a" opacity="0.31"/><circle cx="787.7" cy="282.5" r="2.16" fill="#d4862a" opacity="0.30"/><circle cx="823.1" cy="284.2" r="2.37" fill="#d4862a" opacity="0.18"/><circle cx="855.7" cy="279.8" r="1.89" fill="#d4862a" opacity="0.31"/><circle cx="894.1" cy="280.6" r="3.11" fill="#d4862a" opacity="0.25"/><circle cx="932.4" cy="283.5" r="3.87" fill="#d4862a" opacity="0.29"/><circle cx="966.0" cy="281.6" r="2.04" fill="#d4862a" opacity="0.18"/><circle cx="1003.0" cy="280.0" r="1.96" fill="#d4862a" opacity="0.20"/><circle cx="1038.2" cy="282.8" r="1.67" fill="#d4862a" opacity="0.20"/><circle cx="1072.4" cy="283.0" r="3.00" fill="#d4862a" opacity="0.20"/><circle cx="1110.2" cy="280.8" r="2.27" fill="#d4862a" opacity="0.26"/><circle cx="1144.1" cy="282.4" r="2.13" fill="#d4862a" opacity="0.25"/><circle cx="1183.5" cy="280.7" r="1.61" fill="#d4862a" opacity="0.30"/><circle cx="29.6" cy="315.6" r="2.47" fill="#d4862a" opacity="0.27"/><circle cx="63.2" cy="316.5" r="2.12" fill="#d4862a" opacity="0.25"/><circle cx="103.6" cy="320.7" r="2.74" fill="#d4862a" opacity="0.17"/><circle cx="136.0" cy="317.5" r="3.13" fill="#d4862a" opacity="0.36"/><circle cx="176.8" cy="316.4" r="1.61" fill="#d4862a" opacity="0.24"/><circle cx="212.6" cy="318.1" r="2.42" fill="#d4862a" opacity="0.19"/><circle cx="244.7" cy="315.3" r="3.31" fill="#d4862a" opacity="0.21"/><circle cx="281.1" cy="316.9" r="2.64" fill="#d4862a" opacity="0.16"/><circle cx="320.2" cy="316.0" r="3.56" fill="#d4862a" opacity="0.16"/><circle cx="356.3" cy="316.3" r="3.05" fill="#d4862a" opacity="0.28"/><circle cx="387.5" cy="316.2" r="3.09" fill="#d4862a" opacity="0.19"/><circle cx="425.6" cy="316.9" r="1.70" fill="#d4862a" opacity="0.34"/><circle cx="463.0" cy="319.7" r="2.62" fill="#d4862a" opacity="0.25"/><circle cx="496.6" cy="318.2" r="2.30" fill="#d4862a" opacity="0.31"/><circle cx="533.0" cy="319.3" r="2.96" fill="#d4862a" opacity="0.32"/><circle cx="568.1" cy="317.6" r="2.52" fill="#d4862a" opacity="0.22"/><circle cx="604.5" cy="317.6" r="3.95" fill="#d4862a" opacity="0.26"/><circle cx="643.3" cy="318.3" r="3.61" fill="#d4862a" opacity="0.29"/><circle cx="676.9" cy="320.0" r="2.42" fill="#d4862a" opacity="0.15"/><circle cx="715.9" cy="319.4" r="3.21" fill="#d4862a" opacity="0.17"/><circle cx="752.4" cy="319.8" r="2.18" fill="#d4862a" opacity="0.30"/><circle cx="784.8" cy="315.8" r="2.94" fill="#d4862a" opacity="0.16"/><circle cx="819.5" cy="319.0" r="2.46" fill="#d4862a" opacity="0.16"/><circle cx="857.0" cy="320.6" r="3.22" fill="#d4862a" opacity="0.22"/><circle cx="892.7" cy="317.4" r="2.38" fill="#d4862a" opacity="0.34"/><circle cx="931.0" cy="315.6" r="2.38" fill="#d4862a" opacity="0.18"/><circle cx="968.1" cy="317.5" r="2.65" fill="#d4862a" opacity="0.22"/><circle cx="1003.1" cy="319.2" r="3.78" fill="#d4862a" opacity="0.22"/><circle cx="1037.2" cy="319.8" r="2.69" fill="#d4862a" opacity="0.29"/><circle cx="1076.2" cy="317.0" r="2.93" fill="#d4862a" opacity="0.36"/><circle cx="1111.8" cy="315.1" r="3.29" fill="#d4862a" opacity="0.17"/><circle cx="1145.4" cy="320.3" r="1.92" fill="#d4862a" opacity="0.24"/><circle cx="1180.0" cy="315.5" r="3.03" fill="#d4862a" opacity="0.19"/><circle cx="30.2" cy="351.8" r="3.30" fill="#d4862a" opacity="0.23"/><circle cx="64.3" cy="353.2" r="2.07" fill="#d4862a" opacity="0.19"/><circle cx="99.2" cy="352.5" r="2.35" fill="#d4862a" opacity="0.35"/><circle cx="135.9" cy="353.8" r="3.97" fill="#d4862a" opacity="0.28"/><circle cx="176.6" cy="351.2" r="2.80" fill="#d4862a" opacity="0.31"/><circle cx="208.1" cy="351.3" r="2.55" fill="#d4862a" opacity="0.28"/><circle cx="244.1" cy="354.5" r="1.68" fill="#d4862a" opacity="0.27"/><circle cx="280.6" cy="353.1" r="3.67" fill="#d4862a" opacity="0.29"/><circle cx="317.2" cy="352.0" r="3.65" fill="#d4862a" opacity="0.21"/><circle cx="355.0" cy="353.6" r="3.65" fill="#d4862a" opacity="0.33"/><circle cx="388.8" cy="354.3" r="2.16" fill="#d4862a" opacity="0.22"/><circle cx="423.5" cy="354.8" r="2.48" fill="#d4862a" opacity="0.20"/><circle cx="459.1" cy="356.0" r="2.02" fill="#d4862a" opacity="0.34"/><circle cx="498.5" cy="354.1" r="2.40" fill="#d4862a" opacity="0.35"/><circle cx="534.7" cy="354.6" r="2.68" fill="#d4862a" opacity="0.17"/><circle cx="571.3" cy="355.2" r="3.92" fill="#d4862a" opacity="0.27"/><circle cx="608.1" cy="354.1" r="2.64" fill="#d4862a" opacity="0.17"/><circle cx="639.1" cy="351.6" r="2.63" fill="#d4862a" opacity="0.19"/><circle cx="677.6" cy="351.7" r="3.04" fill="#d4862a" opacity="0.18"/><circle cx="714.8" cy="355.1" r="2.18" fill="#d4862a" opacity="0.32"/><circle cx="751.5" cy="356.1" r="3.44" fill="#d4862a" opacity="0.19"/><circle cx="783.4" cy="352.0" r="3.97" fill="#d4862a" opacity="0.24"/><circle cx="824.8" cy="355.1" r="2.26" fill="#d4862a" opacity="0.20"/><circle cx="857.6" cy="351.9" r="1.64" fill="#d4862a" opacity="0.34"/><circle cx="891.1" cy="356.3" r="3.81" fill="#d4862a" opacity="0.15"/><circle cx="932.1" cy="355.6" r="2.61" fill="#d4862a" opacity="0.32"/><circle cx="963.7" cy="353.5" r="3.93" fill="#d4862a" opacity="0.21"/><circle cx="1002.2" cy="355.0" r="3.95" fill="#d4862a" opacity="0.30"/><circle cx="1035.1" cy="355.8" r="1.85" fill="#d4862a" opacity="0.16"/><circle cx="1075.4" cy="354.1" r="2.88" fill="#d4862a" opacity="0.30"/><circle cx="1109.3" cy="352.8" r="2.63" fill="#d4862a" opacity="0.21"/><circle cx="1143.9" cy="356.0" r="3.33" fill="#d4862a" opacity="0.34"/><circle cx="1182.8" cy="353.8" r="1.70" fill="#d4862a" opacity="0.25"/><circle cx="32.7" cy="391.0" r="3.81" fill="#d4862a" opacity="0.33"/><circle cx="63.8" cy="392.3" r="2.71" fill="#d4862a" opacity="0.27"/><circle cx="103.0" cy="387.5" r="2.58" fill="#d4862a" opacity="0.17"/><circle cx="140.0" cy="387.5" r="2.73" fill="#d4862a" opacity="0.22"/><circle cx="175.1" cy="390.4" r="3.96" fill="#d4862a" opacity="0.18"/><circle cx="212.6" cy="390.1" r="3.54" fill="#d4862a" opacity="0.26"/><circle cx="244.2" cy="387.7" r="2.28" fill="#d4862a" opacity="0.33"/><circle cx="279.6" cy="387.8" r="3.76" fill="#d4862a" opacity="0.35"/><circle cx="315.4" cy="392.1" r="3.59" fill="#d4862a" opacity="0.25"/><circle cx="356.8" cy="389.5" r="2.77" fill="#d4862a" opacity="0.25"/><circle cx="388.0" cy="389.3" r="3.24" fill="#d4862a" opacity="0.22"/><circle cx="428.7" cy="387.4" r="2.15" fill="#d4862a" opacity="0.23"/><circle cx="461.6" cy="388.2" r="1.71" fill="#d4862a" opacity="0.27"/><circle cx="498.3" cy="387.7" r="3.86" fill="#d4862a" opacity="0.18"/><circle cx="533.3" cy="389.2" r="2.77" fill="#d4862a" opacity="0.26"/><circle cx="572.8" cy="391.4" r="3.03" fill="#d4862a" opacity="0.23"/><circle cx="608.9" cy="390.9" r="2.51" fill="#d4862a" opacity="0.29"/><circle cx="644.2" cy="390.2" r="3.26" fill="#d4862a" opacity="0.26"/><circle cx="678.7" cy="388.2" r="2.96" fill="#d4862a" opacity="0.23"/><circle cx="717.0" cy="389.7" r="3.00" fill="#d4862a" opacity="0.16"/><circle cx="748.4" cy="388.8" r="2.56" fill="#d4862a" opacity="0.20"/><circle cx="783.2" cy="391.0" r="3.45" fill="#d4862a" opacity="0.25"/><circle cx="820.0" cy="391.0" r="3.41" fill="#d4862a" opacity="0.32"/><circle cx="855.4" cy="392.4" r="2.01" fill="#d4862a" opacity="0.20"/><circle cx="891.9" cy="390.0" r="2.04" fill="#d4862a" opacity="0.20"/><circle cx="929.0" cy="389.6" r="2.00" fill="#d4862a" opacity="0.24"/><circle cx="964.4" cy="390.7" r="2.37" fill="#d4862a" opacity="0.32"/><circle cx="1001.9" cy="392.5" r="2.67" fill="#d4862a" opacity="0.18"/><circle cx="1037.2" cy="388.4" r="1.69" fill="#d4862a" opacity="0.24"/><circle cx="1071.6" cy="387.1" r="2.57" fill="#d4862a" opacity="0.31"/><circle cx="1108.0" cy="391.9" r="2.27" fill="#d4862a" opacity="0.36"/><circle cx="1144.1" cy="389.4" r="1.94" fill="#d4862a" opacity="0.17"/><circle cx="1184.4" cy="387.8" r="2.55" fill="#d4862a" opacity="0.22"/><circle cx="32.9" cy="427.6" r="1.82" fill="#d4862a" opacity="0.30"/><circle cx="65.4" cy="428.9" r="2.90" fill="#d4862a" opacity="0.18"/><circle cx="104.7" cy="424.4" r="1.87" fill="#d4862a" opacity="0.29"/><circle cx="138.5" cy="423.8" r="3.26" fill="#d4862a" opacity="0.26"/><circle cx="172.3" cy="427.8" r="3.56" fill="#d4862a" opacity="0.15"/><circle cx="212.9" cy="423.2" r="3.42" fill="#d4862a" opacity="0.18"/><circle cx="245.3" cy="425.5" r="2.28" fill="#d4862a" opacity="0.21"/><circle cx="280.0" cy="423.9" r="3.74" fill="#d4862a" opacity="0.23"/><circle cx="317.8" cy="426.2" r="3.16" fill="#d4862a" opacity="0.36"/><circle cx="353.4" cy="427.2" r="3.59" fill="#d4862a" opacity="0.26"/><circle cx="389.4" cy="427.9" r="2.53" fill="#d4862a" opacity="0.19"/><circle cx="425.9" cy="426.1" r="3.70" fill="#d4862a" opacity="0.27"/><circle cx="463.6" cy="423.5" r="3.36" fill="#d4862a" opacity="0.15"/><circle cx="498.2" cy="424.1" r="3.05" fill="#d4862a" opacity="0.30"/><circle cx="536.6" cy="426.8" r="2.23" fill="#d4862a" opacity="0.19"/><circle cx="568.4" cy="426.0" r="2.00" fill="#d4862a" opacity="0.29"/><circle cx="607.0" cy="427.3" r="3.80" fill="#d4862a" opacity="0.17"/><circle cx="643.2" cy="424.0" r="3.30" fill="#d4862a" opacity="0.30"/><circle cx="678.3" cy="427.3" r="1.94" fill="#d4862a" opacity="0.22"/><circle cx="716.3" cy="425.8" r="2.71" fill="#d4862a" opacity="0.28"/><circle cx="748.7" cy="427.4" r="2.77" fill="#d4862a" opacity="0.27"/><circle cx="788.5" cy="428.4" r="2.49" fill="#d4862a" opacity="0.27"/><circle cx="820.6" cy="425.5" r="3.39" fill="#d4862a" opacity="0.32"/><circle cx="856.8" cy="423.3" r="3.06" fill="#d4862a" opacity="0.26"/><circle cx="891.1" cy="423.7" r="3.32" fill="#d4862a" opacity="0.23"/><circle cx="928.4" cy="425.3" r="3.54" fill="#d4862a" opacity="0.31"/><circle cx="963.7" cy="423.7" r="2.75" fill="#d4862a" opacity="0.18"/><circle cx="1003.7" cy="426.6" r="2.86" fill="#d4862a" opacity="0.17"/><circle cx="1039.3" cy="423.6" r="2.16" fill="#d4862a" opacity="0.21"/><circle cx="1076.0" cy="427.3" r="3.66" fill="#d4862a" opacity="0.26"/><circle cx="1110.6" cy="425.1" r="3.12" fill="#d4862a" opacity="0.22"/><circle cx="1144.5" cy="424.4" r="2.57" fill="#d4862a" opacity="0.21"/><circle cx="1179.7" cy="426.6" r="2.76" fill="#d4862a" opacity="0.17"/><circle cx="30.6" cy="464.5" r="2.43" fill="#d4862a" opacity="0.21"/><circle cx="68.2" cy="464.7" r="2.23" fill="#d4862a" opacity="0.22"/><circle cx="102.8" cy="463.7" r="3.85" fill="#d4862a" opacity="0.24"/><circle cx="135.5" cy="464.8" r="3.75" fill="#d4862a" opacity="0.18"/><circle cx="175.7" cy="460.6" r="2.87" fill="#d4862a" opacity="0.15"/><circle cx="208.5" cy="461.1" r="2.89" fill="#d4862a" opacity="0.34"/><circle cx="246.6" cy="461.1" r="3.50" fill="#d4862a" opacity="0.30"/><circle cx="282.1" cy="459.5" r="2.00" fill="#d4862a" opacity="0.16"/><circle cx="320.9" cy="462.4" r="2.68" fill="#d4862a" opacity="0.24"/><circle cx="356.1" cy="464.0" r="3.82" fill="#d4862a" opacity="0.21"/><circle cx="390.1" cy="460.6" r="2.97" fill="#d4862a" opacity="0.17"/><circle cx="424.8" cy="464.9" r="2.29" fill="#d4862a" opacity="0.27"/><circle cx="464.7" cy="461.5" r="3.00" fill="#d4862a" opacity="0.35"/><circle cx="500.3" cy="460.0" r="2.72" fill="#d4862a" opacity="0.15"/><circle cx="532.1" cy="460.8" r="2.40" fill="#d4862a" opacity="0.28"/><circle cx="571.8" cy="460.8" r="2.97" fill="#d4862a" opacity="0.34"/><circle cx="605.4" cy="465.0" r="3.10" fill="#d4862a" opacity="0.19"/><circle cx="639.8" cy="463.7" r="2.79" fill="#d4862a" opacity="0.26"/><circle cx="679.7" cy="461.5" r="2.59" fill="#d4862a" opacity="0.31"/><circle cx="715.7" cy="461.6" r="2.89" fill="#d4862a" opacity="0.15"/><circle cx="751.8" cy="464.0" r="3.88" fill="#d4862a" opacity="0.24"/><circle cx="784.8" cy="459.5" r="2.32" fill="#d4862a" opacity="0.26"/><circle cx="820.5" cy="462.2" r="3.96" fill="#d4862a" opacity="0.32"/><circle cx="857.6" cy="460.4" r="3.07" fill="#d4862a" opacity="0.19"/><circle cx="891.6" cy="463.0" r="2.94" fill="#d4862a" opacity="0.32"/><circle cx="927.0" cy="461.8" r="2.70" fill="#d4862a" opacity="0.35"/><circle cx="966.3" cy="460.8" r="1.76" fill="#d4862a" opacity="0.25"/><circle cx="1001.5" cy="461.6" r="3.44" fill="#d4862a" opacity="0.21"/><circle cx="1036.5" cy="463.7" r="3.93" fill="#d4862a" opacity="0.25"/><circle cx="1074.2" cy="463.9" r="2.54" fill="#d4862a" opacity="0.26"/><circle cx="1107.5" cy="459.5" r="2.29" fill="#d4862a" opacity="0.28"/><circle cx="1143.3" cy="462.2" r="1.91" fill="#d4862a" opacity="0.26"/><circle cx="1181.2" cy="462.0" r="3.38" fill="#d4862a" opacity="0.34"/><circle cx="28.7" cy="495.3" r="3.05" fill="#d4862a" opacity="0.20"/><circle cx="63.8" cy="499.1" r="2.18" fill="#d4862a" opacity="0.35"/><circle cx="100.7" cy="500.0" r="3.69" fill="#d4862a" opacity="0.26"/><circle cx="137.3" cy="499.5" r="3.07" fill="#d4862a" opacity="0.18"/><circle cx="174.0" cy="498.2" r="2.45" fill="#d4862a" opacity="0.17"/><circle cx="208.9" cy="500.2" r="1.71" fill="#d4862a" opacity="0.31"/><circle cx="245.2" cy="495.3" r="3.39" fill="#d4862a" opacity="0.30"/><circle cx="281.7" cy="497.1" r="2.52" fill="#d4862a" opacity="0.36"/><circle cx="319.4" cy="496.1" r="3.97" fill="#d4862a" opacity="0.35"/><circle cx="356.4" cy="497.7" r="2.17" fill="#d4862a" opacity="0.35"/><circle cx="391.0" cy="498.9" r="3.53" fill="#d4862a" opacity="0.24"/><circle cx="423.2" cy="497.1" r="2.35" fill="#d4862a" opacity="0.22"/><circle cx="460.4" cy="498.5" r="2.45" fill="#d4862a" opacity="0.35"/><circle cx="497.9" cy="495.6" r="3.02" fill="#d4862a" opacity="0.22"/><circle cx="531.8" cy="499.4" r="3.59" fill="#d4862a" opacity="0.28"/><circle cx="569.6" cy="499.1" r="2.68" fill="#d4862a" opacity="0.20"/><circle cx="608.1" cy="499.5" r="3.77" fill="#d4862a" opacity="0.30"/><circle cx="644.1" cy="496.4" r="3.49" fill="#d4862a" opacity="0.17"/><circle cx="676.5" cy="500.0" r="2.73" fill="#d4862a" opacity="0.24"/><circle cx="711.1" cy="498.9" r="2.22" fill="#d4862a" opacity="0.19"/><circle cx="750.6" cy="498.2" r="1.66" fill="#d4862a" opacity="0.26"/><circle cx="784.2" cy="496.3" r="2.56" fill="#d4862a" opacity="0.17"/><circle cx="823.2" cy="497.4" r="3.97" fill="#d4862a" opacity="0.25"/><circle cx="860.6" cy="498.0" r="2.27" fill="#d4862a" opacity="0.21"/><circle cx="894.3" cy="495.3" r="3.58" fill="#d4862a" opacity="0.20"/><circle cx="931.2" cy="496.2" r="2.73" fill="#d4862a" opacity="0.25"/><circle cx="967.6" cy="499.1" r="3.86" fill="#d4862a" opacity="0.33"/><circle cx="1003.3" cy="499.9" r="2.50" fill="#d4862a" opacity="0.33"/><circle cx="1038.6" cy="497.3" r="2.08" fill="#d4862a" opacity="0.32"/><circle cx="1075.9" cy="497.1" r="2.11" fill="#d4862a" opacity="0.34"/><circle cx="1112.0" cy="497.5" r="2.18" fill="#d4862a" opacity="0.18"/><circle cx="1147.0" cy="497.1" r="2.32" fill="#d4862a" opacity="0.28"/><circle cx="1181.7" cy="500.7" r="3.05" fill="#d4862a" opacity="0.24"/><circle cx="31.1" cy="535.4" r="2.75" fill="#d4862a" opacity="0.20"/><circle cx="65.9" cy="536.2" r="3.87" fill="#d4862a" opacity="0.18"/><circle cx="100.2" cy="536.0" r="2.27" fill="#d4862a" opacity="0.23"/><circle cx="136.8" cy="533.2" r="2.01" fill="#d4862a" opacity="0.31"/><circle cx="173.1" cy="536.9" r="3.20" fill="#d4862a" opacity="0.17"/><circle cx="207.8" cy="534.5" r="2.37" fill="#d4862a" opacity="0.31"/><circle cx="245.6" cy="537.0" r="3.82" fill="#d4862a" opacity="0.34"/><circle cx="285.0" cy="536.1" r="3.33" fill="#d4862a" opacity="0.34"/><circle cx="318.7" cy="533.0" r="2.03" fill="#d4862a" opacity="0.20"/><circle cx="354.9" cy="531.2" r="3.36" fill="#d4862a" opacity="0.21"/><circle cx="388.0" cy="531.2" r="3.40" fill="#d4862a" opacity="0.20"/><circle cx="425.0" cy="535.7" r="1.71" fill="#d4862a" opacity="0.33"/><circle cx="460.9" cy="532.2" r="2.24" fill="#d4862a" opacity="0.20"/><circle cx="497.2" cy="534.8" r="2.77" fill="#d4862a" opacity="0.23"/><circle cx="531.8" cy="531.6" r="3.17" fill="#d4862a" opacity="0.32"/><circle cx="568.7" cy="532.5" r="3.62" fill="#d4862a" opacity="0.15"/><circle cx="607.0" cy="534.4" r="1.61" fill="#d4862a" opacity="0.35"/><circle cx="639.2" cy="532.1" r="1.97" fill="#d4862a" opacity="0.22"/><circle cx="675.8" cy="536.2" r="2.95" fill="#d4862a" opacity="0.25"/><circle cx="714.5" cy="534.5" r="2.58" fill="#d4862a" opacity="0.35"/><circle cx="747.3" cy="532.8" r="1.76" fill="#d4862a" opacity="0.24"/><circle cx="788.5" cy="533.3" r="3.81" fill="#d4862a" opacity="0.32"/><circle cx="821.6" cy="535.8" r="3.92" fill="#d4862a" opacity="0.31"/><circle cx="860.6" cy="534.4" r="2.07" fill="#d4862a" opacity="0.23"/><circle cx="895.6" cy="534.3" r="3.90" fill="#d4862a" opacity="0.15"/><circle cx="931.0" cy="532.7" r="3.86" fill="#d4862a" opacity="0.19"/><circle cx="964.5" cy="532.6" r="1.62" fill="#d4862a" opacity="0.15"/><circle cx="1003.8" cy="533.4" r="3.46" fill="#d4862a" opacity="0.33"/><circle cx="1038.4" cy="534.9" r="2.99" fill="#d4862a" opacity="0.26"/><circle cx="1072.6" cy="531.6" r="1.76" fill="#d4862a" opacity="0.27"/><circle cx="1107.1" cy="535.2" r="2.44" fill="#d4862a" opacity="0.17"/><circle cx="1148.9" cy="534.1" r="2.07" fill="#d4862a" opacity="0.27"/><circle cx="1180.1" cy="533.1" r="3.10" fill="#d4862a" opacity="0.24"/><circle cx="27.5" cy="567.8" r="2.64" fill="#d4862a" opacity="0.34"/><circle cx="64.3" cy="568.8" r="3.87" fill="#d4862a" opacity="0.32"/><circle cx="99.2" cy="567.8" r="2.62" fill="#d4862a" opacity="0.30"/><circle cx="138.5" cy="569.1" r="3.80" fill="#d4862a" opacity="0.17"/><circle cx="176.3" cy="567.5" r="2.23" fill="#d4862a" opacity="0.16"/><circle cx="212.9" cy="570.8" r="2.23" fill="#d4862a" opacity="0.16"/><circle cx="248.3" cy="570.6" r="1.82" fill="#d4862a" opacity="0.29"/><circle cx="284.3" cy="570.3" r="3.40" fill="#d4862a" opacity="0.15"/><circle cx="319.0" cy="568.1" r="3.88" fill="#d4862a" opacity="0.29"/><circle cx="356.3" cy="568.9" r="3.67" fill="#d4862a" opacity="0.20"/><circle cx="392.3" cy="572.4" r="3.90" fill="#d4862a" opacity="0.22"/><circle cx="425.4" cy="567.8" r="2.93" fill="#d4862a" opacity="0.16"/><circle cx="464.0" cy="569.3" r="3.08" fill="#d4862a" opacity="0.28"/><circle cx="495.1" cy="569.6" r="1.80" fill="#d4862a" opacity="0.22"/><circle cx="534.6" cy="567.1" r="1.65" fill="#d4862a" opacity="0.22"/><circle cx="569.4" cy="571.3" r="3.95" fill="#d4862a" opacity="0.22"/><circle cx="604.5" cy="572.7" r="2.00" fill="#d4862a" opacity="0.32"/><circle cx="641.2" cy="568.4" r="2.83" fill="#d4862a" opacity="0.30"/><circle cx="679.1" cy="570.0" r="4.00" fill="#d4862a" opacity="0.20"/><circle cx="711.6" cy="571.5" r="2.39" fill="#d4862a" opacity="0.35"/><circle cx="751.4" cy="570.4" r="3.62" fill="#d4862a" opacity="0.19"/><circle cx="786.1" cy="567.4" r="2.83" fill="#d4862a" opacity="0.19"/><circle cx="824.1" cy="571.7" r="2.97" fill="#d4862a" opacity="0.18"/><circle cx="858.9" cy="570.3" r="3.45" fill="#d4862a" opacity="0.29"/><circle cx="893.3" cy="568.7" r="3.03" fill="#d4862a" opacity="0.19"/><circle cx="931.3" cy="570.3" r="3.78" fill="#d4862a" opacity="0.29"/><circle cx="966.8" cy="567.7" r="3.16" fill="#d4862a" opacity="0.21"/><circle cx="999.9" cy="570.6" r="3.72" fill="#d4862a" opacity="0.21"/><circle cx="1039.9" cy="571.1" r="3.95" fill="#d4862a" opacity="0.19"/><circle cx="1073.4" cy="570.9" r="3.11" fill="#d4862a" opacity="0.28"/><circle cx="1109.4" cy="570.8" r="2.82" fill="#d4862a" opacity="0.29"/><circle cx="1148.8" cy="568.8" r="3.16" fill="#d4862a" opacity="0.21"/><circle cx="1181.4" cy="567.8" r="2.19" fill="#d4862a" opacity="0.23"/><circle cx="28.0" cy="606.0" r="3.37" fill="#d4862a" opacity="0.35"/><circle cx="65.1" cy="608.2" r="1.63" fill="#d4862a" opacity="0.19"/><circle cx="100.1" cy="607.2" r="1.93" fill="#d4862a" opacity="0.30"/><circle cx="140.4" cy="604.2" r="3.36" fill="#d4862a" opacity="0.17"/><circle cx="172.8" cy="603.7" r="3.43" fill="#d4862a" opacity="0.22"/><circle cx="208.7" cy="604.7" r="2.27" fill="#d4862a" opacity="0.28"/><circle cx="243.6" cy="603.3" r="3.86" fill="#d4862a" opacity="0.22"/><circle cx="284.4" cy="607.6" r="2.77" fill="#d4862a" opacity="0.36"/><circle cx="318.4" cy="603.6" r="2.48" fill="#d4862a" opacity="0.26"/><circle cx="355.9" cy="604.1" r="1.97" fill="#d4862a" opacity="0.36"/><circle cx="391.3" cy="606.0" r="2.58" fill="#d4862a" opacity="0.22"/><circle cx="423.1" cy="604.1" r="3.24" fill="#d4862a" opacity="0.20"/><circle cx="460.5" cy="608.5" r="3.04" fill="#d4862a" opacity="0.23"/><circle cx="500.2" cy="606.6" r="1.81" fill="#d4862a" opacity="0.32"/><circle cx="531.0" cy="606.8" r="2.23" fill="#d4862a" opacity="0.19"/><circle cx="571.3" cy="608.6" r="2.19" fill="#d4862a" opacity="0.26"/><circle cx="608.3" cy="608.3" r="2.57" fill="#d4862a" opacity="0.15"/><circle cx="644.5" cy="605.0" r="3.21" fill="#d4862a" opacity="0.29"/><circle cx="676.3" cy="608.9" r="2.90" fill="#d4862a" opacity="0.29"/><circle cx="715.4" cy="606.6" r="1.80" fill="#d4862a" opacity="0.21"/><circle cx="747.9" cy="604.8" r="2.67" fill="#d4862a" opacity="0.25"/><circle cx="788.8" cy="606.0" r="2.97" fill="#d4862a" opacity="0.22"/><circle cx="821.1" cy="608.4" r="2.45" fill="#d4862a" opacity="0.21"/><circle cx="858.1" cy="606.2" r="2.65" fill="#d4862a" opacity="0.30"/><circle cx="894.6" cy="606.0" r="1.76" fill="#d4862a" opacity="0.35"/><circle cx="928.6" cy="606.4" r="3.04" fill="#d4862a" opacity="0.28"/><circle cx="967.1" cy="605.6" r="3.64" fill="#d4862a" opacity="0.30"/><circle cx="1003.6" cy="606.1" r="1.67" fill="#d4862a" opacity="0.28"/><circle cx="1040.3" cy="604.5" r="1.75" fill="#d4862a" opacity="0.26"/><circle cx="1072.5" cy="607.2" r="2.96" fill="#d4862a" opacity="0.18"/><circle cx="1111.4" cy="606.0" r="1.64" fill="#d4862a" opacity="0.29"/><circle cx="1148.6" cy="607.5" r="3.69" fill="#d4862a" opacity="0.24"/><circle cx="1182.1" cy="608.1" r="3.80" fill="#d4862a" opacity="0.26"/><circle cx="29.9" cy="643.5" r="1.89" fill="#d4862a" opacity="0.32"/><circle cx="68.9" cy="640.3" r="1.63" fill="#d4862a" opacity="0.25"/><circle cx="102.7" cy="644.2" r="2.88" fill="#d4862a" opacity="0.18"/><circle cx="139.5" cy="643.9" r="2.31" fill="#d4862a" opacity="0.35"/><circle cx="176.8" cy="639.5" r="3.23" fill="#d4862a" opacity="0.27"/><circle cx="212.3" cy="644.3" r="2.75" fill="#d4862a" opacity="0.25"/><circle cx="247.3" cy="644.7" r="1.68" fill="#d4862a" opacity="0.30"/><circle cx="280.5" cy="640.0" r="2.20" fill="#d4862a" opacity="0.22"/><circle cx="318.9" cy="643.5" r="2.59" fill="#d4862a" opacity="0.23"/><circle cx="352.0" cy="641.1" r="3.89" fill="#d4862a" opacity="0.20"/><circle cx="387.1" cy="641.0" r="3.31" fill="#d4862a" opacity="0.32"/><circle cx="425.5" cy="639.7" r="2.50" fill="#d4862a" opacity="0.18"/><circle cx="464.6" cy="641.5" r="2.47" fill="#d4862a" opacity="0.33"/><circle cx="499.0" cy="640.7" r="3.17" fill="#d4862a" opacity="0.31"/><circle cx="535.8" cy="641.4" r="3.47" fill="#d4862a" opacity="0.24"/><circle cx="568.2" cy="644.5" r="3.70" fill="#d4862a" opacity="0.35"/><circle cx="607.2" cy="641.9" r="3.75" fill="#d4862a" opacity="0.33"/><circle cx="639.7" cy="641.5" r="2.44" fill="#d4862a" opacity="0.25"/><circle cx="675.9" cy="644.6" r="2.96" fill="#d4862a" opacity="0.32"/><circle cx="713.5" cy="644.7" r="1.98" fill="#d4862a" opacity="0.24"/><circle cx="750.2" cy="644.5" r="2.49" fill="#d4862a" opacity="0.28"/><circle cx="783.4" cy="644.3" r="3.03" fill="#d4862a" opacity="0.19"/><circle cx="823.3" cy="639.9" r="2.93" fill="#d4862a" opacity="0.35"/><circle cx="858.1" cy="644.2" r="3.77" fill="#d4862a" opacity="0.31"/><circle cx="896.5" cy="640.5" r="1.61" fill="#d4862a" opacity="0.34"/><circle cx="930.0" cy="639.4" r="3.45" fill="#d4862a" opacity="0.17"/><circle cx="966.0" cy="641.4" r="2.48" fill="#d4862a" opacity="0.16"/><circle cx="1004.3" cy="642.0" r="1.73" fill="#d4862a" opacity="0.20"/><circle cx="1040.9" cy="641.9" r="2.40" fill="#d4862a" opacity="0.21"/><circle cx="1076.5" cy="643.9" r="2.68" fill="#d4862a" opacity="0.27"/><circle cx="1107.8" cy="640.9" r="3.03" fill="#d4862a" opacity="0.26"/><circle cx="1146.3" cy="639.8" r="2.34" fill="#d4862a" opacity="0.32"/><circle cx="1184.8" cy="643.9" r="3.83" fill="#d4862a" opacity="0.32"/><circle cx="192.2" cy="278.1" r="220" fill="url(#glow)" opacity="0.9"/>
  <g opacity="0.85" transform="translate(1020, 495)">
        <circle r="68" fill="none" stroke="#d4862a" stroke-width="2" opacity="0.35"/>
        <path d="M -38 12 L 38 12 M -32 -8 L 32 -8 M -45 -28 L 45 -28" stroke="#bd6b20" stroke-width="3" stroke-linecap="round"/>
        <rect x="-50" y="-44" width="100" height="80" fill="none" stroke="#d4862a" stroke-width="2"/>
      </g>
  <g transform="translate(80, 90)">
    <rect x="0" y="0" rx="20" ry="20" width="112" height="38" fill="#d4862a" opacity="0.18" stroke="#d4862a" stroke-width="1.5"/>
    <text x="56" y="25" font-family="ui-sans-serif, Inter, sans-serif" font-weight="700" font-size="14" letter-spacing="2.5" fill="#d4862a" text-anchor="middle">NEWSROOM</text>
  </g>
  <text x="80" y="465" font-family="ui-sans-serif, -apple-system, Segoe UI, Inter, sans-serif" font-weight="800" font-size="44" fill="#faf8f5" opacity="0.98"><tspan x="80" dy="0">Max Healthcare Takes Legal</tspan><tspan x="80" dy="56">Action Against CARE</tspan><tspan x="80" dy="56">Hospitals; Bombay High</tspan></text>
  <rect x="0" y="669" width="1200" height="6" fill="url(#gold)"/>
</svg>