<?xml version="1.0" encoding="UTF-8"?>
<svg xmlns="http://www.w3.org/2000/svg" viewBox="0 0 1200 675" width="1200" height="675" role="img" aria-label="PDR COURT Media Center: Passage to Global Business">
  <defs>
    <linearGradient id="bg" x1="0%" y1="0%" x2="100%" y2="100%">
      <stop offset="0%" stop-color="#faf8f5"/>
      <stop offset="100%" stop-color="#f4efe8"/>
    </linearGradient>
    <linearGradient id="gold" x1="0%" y1="0%" x2="100%" y2="100%">
      <stop offset="0%" stop-color="#bd6b20"/>
      <stop offset="100%" stop-color="#9a5518"/>
    </linearGradient>
    <radialGradient id="glow" cx="50%" cy="50%" r="50%">
      <stop offset="0%" stop-color="#bd6b20" stop-opacity="0.45"/>
      <stop offset="100%" stop-color="#bd6b20" stop-opacity="0"/>
    </radialGradient>
  </defs>
  <rect width="1200" height="675" fill="url(#bg)"/>
  <polygon points="942.6,427.7 979.6,704.0 721.9,597.9" fill="#9a5518" opacity="0.07"/><polygon points="601.0,447.1 476.8,382.1 500.2,243.9 638.8,223.5 701.1,349.0" fill="#9a5518" opacity="0.08"/><polygon points="1228.9,768.4 1028.0,610.1 1265.6,515.3" fill="#9a5518" opacity="0.08"/><polygon points="933.0,345.0 684.6,363.4 792.8,139.1" fill="#9a5518" opacity="0.08"/><polygon points="-53.0,414.1 88.0,401.1 28.7,529.7" fill="#9a5518" opacity="0.12"/><polygon points="-17.2,278.8 112.4,301.8 89.4,431.4 -40.2,408.4" fill="#9a5518" opacity="0.12"/><polygon points="554.8,413.5 792.0,461.3 632.0,642.8" fill="#9a5518" opacity="0.15"/><polygon points="215.4,483.5 293.1,318.4 397.2,468.2" fill="#9a5518" opacity="0.15"/><polygon points="109.9,-45.8 190.5,169.1 -35.9,131.5" fill="#9a5518" opacity="0.15"/><polygon points="1120.6,-21.1 1201.3,-6.4 1148.2,56.2" fill="#9a5518" opacity="0.16"/><polygon points="1076.3,83.3 969.1,289.7 844.0,93.6" fill="#9a5518" opacity="0.17"/><polygon points="1213.4,77.1 1127.4,207.7 976.7,166.3 969.5,10.2 1115.8,-44.9" fill="#9a5518" opacity="0.16"/><polygon points="1096.8,378.2 1055.0,322.7 1094.9,265.7 1161.3,286.1 1162.5,355.6" fill="#9a5518" opacity="0.08"/><polygon points="1020.0,697.2 818.8,738.0 884.0,543.4" fill="#9a5518" opacity="0.07"/><circle cx="936.0" cy="202.5" r="180" fill="url(#glow)"/>
  <g opacity="0.85" transform="translate(1020, 495)">
        <polygon points="0,-50 43,25 -43,25" fill="none" stroke="#bd6b20" stroke-width="2"/>
        <polygon points="0,-30 26,15 -26,15" fill="#9a5518" opacity="0.4"/>
      </g>
  <g transform="translate(80, 90)">
    <rect x="0" y="0" rx="20" ry="20" width="145" height="38" fill="#bd6b20" opacity="0.18" stroke="#bd6b20" stroke-width="1.5"/>
    <text x="72.5" y="25" font-family="ui-sans-serif, Inter, sans-serif" font-weight="700" font-size="14" letter-spacing="2.5" fill="#bd6b20" text-anchor="middle">INFORMATION</text>
  </g>
  <text x="80" y="515" font-family="ui-sans-serif, -apple-system, Segoe UI, Inter, sans-serif" font-weight="800" font-size="44" fill="#12100e" opacity="0.98"><tspan x="80" dy="0">PDR COURT Media Center:</tspan><tspan x="80" dy="56">Passage to Global Business</tspan></text>
  <rect x="0" y="669" width="1200" height="6" fill="url(#gold)"/>
</svg>