<?xml version="1.0" encoding="UTF-8"?>
<svg xmlns="http://www.w3.org/2000/svg" viewBox="0 0 1200 675" width="1200" height="675" role="img" aria-label="PDR COURT Mediation Rules for effective settlements">
  <defs>
    <linearGradient id="bg" x1="0%" y1="0%" x2="100%" y2="100%">
      <stop offset="0%" stop-color="#12100e"/>
      <stop offset="100%" stop-color="#1c1917"/>
    </linearGradient>
    <linearGradient id="gold" x1="0%" y1="0%" x2="100%" y2="100%">
      <stop offset="0%" stop-color="#bd6b20"/>
      <stop offset="100%" stop-color="#e09440"/>
    </linearGradient>
    <radialGradient id="glow" cx="50%" cy="50%" r="50%">
      <stop offset="0%" stop-color="#bd6b20" stop-opacity="0.45"/>
      <stop offset="100%" stop-color="#bd6b20" stop-opacity="0"/>
    </radialGradient>
  </defs>
  <rect width="1200" height="675" fill="url(#bg)"/>
  <rect x="-640.2" y="-80" width="74.5" height="875" transform="rotate(18 -640.2 337.5)" fill="#bd6b20" opacity="0.14"/><rect x="-526.7" y="-80" width="127.4" height="875" transform="rotate(18 -526.7 337.5)" fill="#bd6b20" opacity="0.15"/><rect x="-291.7" y="-80" width="62.9" height="875" transform="rotate(18 -291.7 337.5)" fill="#bd6b20" opacity="0.14"/><rect x="-114.4" y="-80" width="113.9" height="875" transform="rotate(18 -114.4 337.5)" fill="#bd6b20" opacity="0.18"/><rect x="58.7" y="-80" width="91.7" height="875" transform="rotate(18 58.7 337.5)" fill="#bd6b20" opacity="0.14"/><rect x="255.7" y="-80" width="115.8" height="875" transform="rotate(18 255.7 337.5)" fill="#bd6b20" opacity="0.07"/><rect x="399.7" y="-80" width="85.3" height="875" transform="rotate(18 399.7 337.5)" fill="#bd6b20" opacity="0.07"/><rect x="588.6" y="-80" width="126.0" height="875" transform="rotate(18 588.6 337.5)" fill="#bd6b20" opacity="0.12"/><rect x="731.3" y="-80" width="83.0" height="875" transform="rotate(18 731.3 337.5)" fill="#bd6b20" opacity="0.13"/><rect x="914.8" y="-80" width="79.5" height="875" transform="rotate(18 914.8 337.5)" fill="#bd6b20" opacity="0.10"/><rect x="1091.6" y="-80" width="123.4" height="875" transform="rotate(18 1091.6 337.5)" fill="#bd6b20" opacity="0.12"/><rect x="1325.8" y="-80" width="105.5" height="875" transform="rotate(18 1325.8 337.5)" fill="#bd6b20" opacity="0.17"/><rect x="1512.5" y="-80" width="104.6" height="875" transform="rotate(18 1512.5 337.5)" fill="#bd6b20" opacity="0.07"/><rect x="1623.9" y="-80" width="91.3" height="875" transform="rotate(18 1623.9 337.5)" fill="#bd6b20" opacity="0.05"/><rect x="0" y="0" width="1200" height="675" fill="url(#glow)" opacity="0.6"/>
  <g opacity="0.85" transform="translate(1020, 495)">
        <polygon points="0,-50 43,25 -43,25" fill="none" stroke="#bd6b20" stroke-width="2"/>
        <polygon points="0,-30 26,15 -26,15" fill="#e09440" opacity="0.4"/>
      </g>
  <g transform="translate(80, 90)">
    <rect x="0" y="0" rx="20" ry="20" width="145" height="38" fill="#bd6b20" opacity="0.18" stroke="#bd6b20" stroke-width="1.5"/>
    <text x="72.5" y="25" font-family="ui-sans-serif, Inter, sans-serif" font-weight="700" font-size="14" letter-spacing="2.5" fill="#bd6b20" text-anchor="middle">INFORMATION</text>
  </g>
  <text x="80" y="515" font-family="ui-sans-serif, -apple-system, Segoe UI, Inter, sans-serif" font-weight="800" font-size="44" fill="#faf8f5" opacity="0.98"><tspan x="80" dy="0">PDR COURT Mediation Rules</tspan><tspan x="80" dy="56">for effective settlements</tspan></text>
  <rect x="0" y="669" width="1200" height="6" fill="url(#gold)"/>
</svg>