<?xml version="1.0" encoding="UTF-8"?>
<svg xmlns="http://www.w3.org/2000/svg" viewBox="0 0 1200 675" width="1200" height="675" role="img" aria-label="PDR COURT: Explore &amp; read what our Members have to say">
  <defs>
    <linearGradient id="bg" x1="0%" y1="0%" x2="100%" y2="100%">
      <stop offset="0%" stop-color="#faf8f5"/>
      <stop offset="100%" stop-color="#f4efe8"/>
    </linearGradient>
    <linearGradient id="gold" x1="0%" y1="0%" x2="100%" y2="100%">
      <stop offset="0%" stop-color="#bd6b20"/>
      <stop offset="100%" stop-color="#9a5518"/>
    </linearGradient>
    <radialGradient id="glow" cx="50%" cy="50%" r="50%">
      <stop offset="0%" stop-color="#bd6b20" stop-opacity="0.45"/>
      <stop offset="100%" stop-color="#bd6b20" stop-opacity="0"/>
    </radialGradient>
  </defs>
  <rect width="1200" height="675" fill="url(#bg)"/>
  <polygon points="-50,346.6 -20,346.5 10,345.3 40,343.0 70,339.6 100,335.1 130,329.8 160,323.7 190,316.9 220,309.6 250,302.0 280,294.3 310,286.5 340,278.9 370,271.7 400,265.0 430,259.0 460,253.8 490,249.5 520,246.2 550,244.0 580,242.9 610,243.0 640,244.3 670,246.7 700,250.2 730,254.7 760,260.1 790,266.2 820,273.0 850,280.3 880,288.0 910,295.7 940,303.5 970,311.0 1000,318.2 1030,324.9 1060,330.9 1090,336.0 1120,340.3 1150,343.5 1180,345.7 1210,346.6 1240,346.5 1250,725 -50,725" fill="#bd6b20" opacity="0.08"/><polygon points="-50,376.8 -20,377.8 10,377.9 40,377.0 70,375.1 100,372.4 130,368.8 160,364.5 190,359.5 220,354.0 250,348.1 280,341.8 310,335.5 340,329.1 370,322.8 400,316.9 430,311.4 460,306.4 490,302.0 520,298.4 550,295.6 580,293.8 610,292.8 640,292.8 670,293.8 700,295.7 730,298.5 760,302.1 790,306.4 820,311.5 850,317.0 880,323.0 910,329.2 940,335.6 970,341.9 1000,348.2 1030,354.1 1060,359.6 1090,364.6 1120,368.9 1150,372.5 1180,375.2 1210,377.0 1240,377.9 1250,725 -50,725" fill="#bd6b20" opacity="0.13"/><polygon points="-50,346.9 -20,348.8 10,352.0 40,356.4 70,361.9 100,368.5 130,376.0 160,384.1 190,392.8 220,401.8 250,410.9 280,420.0 310,428.7 340,437.0 370,444.6 400,451.4 430,457.2 460,461.9 490,465.3 520,467.5 550,468.3 580,467.7 610,465.8 640,462.5 670,458.0 700,452.4 730,445.8 760,438.3 790,430.1 820,421.4 850,412.4 880,403.2 910,394.2 940,385.5 970,377.2 1000,369.6 1030,362.9 1060,357.2 1090,352.6 1120,349.2 1150,347.1 1180,346.4 1210,347.1 1240,349.1 1250,725 -50,725" fill="#bd6b20" opacity="0.18"/><polygon points="-50,442.7 -20,442.7 10,443.5 40,445.0 70,447.2 100,450.1 130,453.6 160,457.7 190,462.1 220,466.9 250,472.0 280,477.1 310,482.2 340,487.2 370,492.0 400,496.5 430,500.5 460,503.9 490,506.8 520,509.0 550,510.5 580,511.2 610,511.2 640,510.4 670,508.8 700,506.5 730,503.6 760,500.1 790,496.0 820,491.5 850,486.7 880,481.7 910,476.5 940,471.4 970,466.4 1000,461.6 1030,457.2 1060,453.2 1090,449.8 1120,446.9 1150,444.8 1180,443.3 1210,442.7 1240,442.7 1250,725 -50,725" fill="#bd6b20" opacity="0.23"/><circle cx="300.0" cy="189.0" r="160" fill="url(#glow)"/>
  <g opacity="0.85" transform="translate(1020, 495)">
        <polygon points="0,-50 43,25 -43,25" fill="none" stroke="#bd6b20" stroke-width="2"/>
        <polygon points="0,-30 26,15 -26,15" fill="#9a5518" opacity="0.4"/>
      </g>
  <g transform="translate(80, 90)">
    <rect x="0" y="0" rx="20" ry="20" width="145" height="38" fill="#bd6b20" opacity="0.18" stroke="#bd6b20" stroke-width="1.5"/>
    <text x="72.5" y="25" font-family="ui-sans-serif, Inter, sans-serif" font-weight="700" font-size="14" letter-spacing="2.5" fill="#bd6b20" text-anchor="middle">INFORMATION</text>
  </g>
  <text x="80" y="465" font-family="ui-sans-serif, -apple-system, Segoe UI, Inter, sans-serif" font-weight="800" font-size="44" fill="#12100e" opacity="0.98"><tspan x="80" dy="0">PDR COURT: Explore &amp; read</tspan><tspan x="80" dy="56">what our Members have to</tspan><tspan x="80" dy="56">say</tspan></text>
  <rect x="0" y="669" width="1200" height="6" fill="url(#gold)"/>
</svg>