<?xml version="1.0" encoding="UTF-8"?>
<svg xmlns="http://www.w3.org/2000/svg" viewBox="0 0 1200 675" width="1200" height="675" role="img" aria-label="Empowering MSMEs with Effective ADR Solutions">
  <defs>
    <linearGradient id="bg" x1="0%" y1="0%" x2="100%" y2="100%">
      <stop offset="0%" stop-color="#0c0a09"/>
      <stop offset="100%" stop-color="#291813"/>
    </linearGradient>
    <linearGradient id="gold" x1="0%" y1="0%" x2="100%" y2="100%">
      <stop offset="0%" stop-color="#d4862a"/>
      <stop offset="100%" stop-color="#bd6b20"/>
    </linearGradient>
    <radialGradient id="glow" cx="50%" cy="50%" r="50%">
      <stop offset="0%" stop-color="#d4862a" stop-opacity="0.45"/>
      <stop offset="100%" stop-color="#d4862a" stop-opacity="0"/>
    </radialGradient>
  </defs>
  <rect width="1200" height="675" fill="url(#bg)"/>
  <polygon points="816.5,285.2 808.4,458.0 635.6,449.9 643.7,277.2" fill="#bd6b20" opacity="0.18"/><polygon points="328.7,94.1 383.7,11.7 479.1,38.6 483.0,137.6 390.0,171.9" fill="#bd6b20" opacity="0.11"/><polygon points="198.8,758.9 76.5,611.2 224.3,488.9 346.6,636.7" fill="#bd6b20" opacity="0.15"/><polygon points="928.8,693.7 875.5,512.6 1031.2,406.0 1180.7,521.2 1117.4,699.0" fill="#bd6b20" opacity="0.16"/><polygon points="681.5,143.4 748.9,107.1 746.6,183.6" fill="#bd6b20" opacity="0.08"/><polygon points="299.3,562.5 264.2,610.3 207.9,591.8 208.1,532.5 264.6,514.4" fill="#bd6b20" opacity="0.05"/><polygon points="531.0,165.7 639.0,319.1 452.1,336.0" fill="#bd6b20" opacity="0.18"/><polygon points="566.2,199.7 526.4,119.6 590.2,57.0 669.5,98.3 654.7,186.5" fill="#bd6b20" opacity="0.14"/><polygon points="779.2,141.3 853.4,164.0 854.7,241.7 781.3,266.9 734.6,204.8" fill="#bd6b20" opacity="0.17"/><polygon points="909.1,227.2 872.6,383.4 712.7,396.9 650.5,249.1 771.8,144.2" fill="#bd6b20" opacity="0.10"/><polygon points="45.5,171.2 259.0,370.3 -20.2,455.6" fill="#bd6b20" opacity="0.13"/><polygon points="323.6,395.6 265.8,539.6 170.0,417.5" fill="#bd6b20" opacity="0.07"/><polygon points="1101.3,480.0 971.5,446.6 1065.4,350.9" fill="#bd6b20" opacity="0.19"/><polygon points="396.1,69.8 433.7,-15.2 526.2,-5.7 545.7,85.2 465.3,131.8" fill="#bd6b20" opacity="0.13"/><circle cx="936.0" cy="202.5" r="180" fill="url(#glow)"/>
  <g opacity="0.85" transform="translate(1020, 495)">
        <polygon points="0,-50 43,25 -43,25" fill="none" stroke="#d4862a" stroke-width="2"/>
        <polygon points="0,-30 26,15 -26,15" fill="#bd6b20" opacity="0.4"/>
      </g>
  <g transform="translate(80, 90)">
    <rect x="0" y="0" rx="20" ry="20" width="145" height="38" fill="#d4862a" opacity="0.18" stroke="#d4862a" stroke-width="1.5"/>
    <text x="72.5" y="25" font-family="ui-sans-serif, Inter, sans-serif" font-weight="700" font-size="14" letter-spacing="2.5" fill="#d4862a" text-anchor="middle">INFORMATION</text>
  </g>
  <text x="80" y="515" font-family="ui-sans-serif, -apple-system, Segoe UI, Inter, sans-serif" font-weight="800" font-size="44" fill="#faf8f5" opacity="0.98"><tspan x="80" dy="0">Empowering MSMEs with</tspan><tspan x="80" dy="56">Effective ADR Solutions</tspan></text>
  <rect x="0" y="669" width="1200" height="6" fill="url(#gold)"/>
</svg>