<?xml version="1.0" encoding="UTF-8"?>
<svg xmlns="http://www.w3.org/2000/svg" viewBox="0 0 1200 675" width="1200" height="675" role="img" aria-label="Dispute Resolution Centre | Debt Recovery through Arbitration | Employee Mediation">
  <defs>
    <linearGradient id="bg" x1="0%" y1="0%" x2="100%" y2="100%">
      <stop offset="0%" stop-color="#532d15"/>
      <stop offset="100%" stop-color="#bd6b20"/>
    </linearGradient>
    <linearGradient id="gold" x1="0%" y1="0%" x2="100%" y2="100%">
      <stop offset="0%" stop-color="#e09440"/>
      <stop offset="100%" stop-color="#fdf6ee"/>
    </linearGradient>
    <radialGradient id="glow" cx="50%" cy="50%" r="50%">
      <stop offset="0%" stop-color="#e09440" stop-opacity="0.45"/>
      <stop offset="100%" stop-color="#e09440" stop-opacity="0"/>
    </radialGradient>
  </defs>
  <rect width="1200" height="675" fill="url(#bg)"/>
  <circle cx="840.0" cy="135.0" r="240" fill="url(#glow)" opacity="0.8"/><polygon points="658.0,150.9 670.4,175.7 645.6,175.7" fill="#f4d2ac" opacity="0.12"/><rect x="1053.8" y="244.9" width="18.3" height="18.3" rx="4" transform="rotate(323.8 1062.9 254.1)" fill="#e09440" opacity="0.12"/><circle cx="778.5" cy="419.9" r="30.5" fill="#fdf6ee" opacity="0.25"/><circle cx="955.5" cy="435.3" r="30.7" fill="#fdf6ee" opacity="0.17"/><rect x="589.4" y="433.6" width="33.7" height="33.7" rx="4" transform="rotate(197.6 606.3 450.4)" fill="#e09440" opacity="0.32"/><rect x="198.5" y="390.6" width="62.1" height="62.1" rx="4" transform="rotate(119.8 229.6 421.7)" fill="#e09440" opacity="0.27"/><circle cx="409.1" cy="19.3" r="10.2" fill="#fdf6ee" opacity="0.26"/><circle cx="146.5" cy="470.1" r="19.0" fill="#fdf6ee" opacity="0.14"/><circle cx="453.3" cy="45.9" r="7.4" fill="#fdf6ee" opacity="0.19"/><circle cx="1070.3" cy="290.1" r="29.9" fill="#fdf6ee" opacity="0.35"/><polygon points="1050.8,462.6 1066.4,493.8 1035.1,493.8" fill="#f4d2ac" opacity="0.31"/><polygon points="71.6,484.1 90.4,521.7 52.8,521.7" fill="#f4d2ac" opacity="0.27"/><polygon points="105.4,330.8 129.9,379.8 80.9,379.8" fill="#f4d2ac" opacity="0.14"/><circle cx="229.4" cy="359.3" r="10.5" fill="#fdf6ee" opacity="0.32"/><polygon points="1013.3,302.8 1023.7,323.5 1002.9,323.5" fill="#f4d2ac" opacity="0.20"/><rect x="682.8" y="356.9" width="61.1" height="61.1" rx="4" transform="rotate(1.8 713.3 387.5)" fill="#e09440" opacity="0.20"/><polygon points="515.6,174.1 529.5,201.9 501.7,201.9" fill="#f4d2ac" opacity="0.28"/><rect x="277.0" y="255.3" width="27.7" height="27.7" rx="4" transform="rotate(61.0 290.8 269.1)" fill="#e09440" opacity="0.22"/><polygon points="226.1,-23.1 250.3,25.2 202.0,25.2" fill="#f4d2ac" opacity="0.16"/><circle cx="689.1" cy="506.0" r="16.6" fill="#fdf6ee" opacity="0.18"/><circle cx="559.9" cy="162.0" r="27.9" fill="#fdf6ee" opacity="0.24"/><circle cx="656.8" cy="439.8" r="10.4" fill="#fdf6ee" opacity="0.16"/>
  <g opacity="0.85" transform="translate(1020, 495)">
        <polygon points="0,-50 43,25 -43,25" fill="none" stroke="#e09440" stroke-width="2"/>
        <polygon points="0,-30 26,15 -26,15" fill="#fdf6ee" opacity="0.4"/>
      </g>
  <g transform="translate(80, 90)">
    <rect x="0" y="0" rx="20" ry="20" width="145" height="38" fill="#e09440" opacity="0.18" stroke="#e09440" stroke-width="1.5"/>
    <text x="72.5" y="25" font-family="ui-sans-serif, Inter, sans-serif" font-weight="700" font-size="14" letter-spacing="2.5" fill="#e09440" text-anchor="middle">INFORMATION</text>
  </g>
  <text x="80" y="465" font-family="ui-sans-serif, -apple-system, Segoe UI, Inter, sans-serif" font-weight="800" font-size="44" fill="#faf8f5" opacity="0.98"><tspan x="80" dy="0">Dispute Resolution Centre</tspan><tspan x="80" dy="56">| Debt Recovery through</tspan><tspan x="80" dy="56">Arbitration | Employee</tspan></text>
  <rect x="0" y="669" width="1200" height="6" fill="url(#gold)"/>
</svg>