<?xml version="1.0" encoding="UTF-8"?>
<svg xmlns="http://www.w3.org/2000/svg" viewBox="0 0 1200 675" width="1200" height="675" role="img" aria-label="Navigating the New Horizon: Impact of the Arbitration and Conciliation (Amendment) Act 2021 on ADR Practices in India">
  <defs>
    <linearGradient id="bg" x1="0%" y1="0%" x2="100%" y2="100%">
      <stop offset="0%" stop-color="#faf8f5"/>
      <stop offset="100%" stop-color="#f4efe8"/>
    </linearGradient>
    <linearGradient id="gold" x1="0%" y1="0%" x2="100%" y2="100%">
      <stop offset="0%" stop-color="#bd6b20"/>
      <stop offset="100%" stop-color="#9a5518"/>
    </linearGradient>
    <radialGradient id="glow" cx="50%" cy="50%" r="50%">
      <stop offset="0%" stop-color="#bd6b20" stop-opacity="0.45"/>
      <stop offset="100%" stop-color="#bd6b20" stop-opacity="0"/>
    </radialGradient>
  </defs>
  <rect width="1200" height="675" fill="url(#bg)"/>
  <circle cx="31.2" cy="31.7" r="2.39" fill="#bd6b20" opacity="0.27"/><circle cx="67.4" cy="30.5" r="2.68" fill="#bd6b20" opacity="0.18"/><circle cx="101.6" cy="32.6" r="3.94" fill="#bd6b20" opacity="0.28"/><circle cx="136.6" cy="32.6" r="2.05" fill="#bd6b20" opacity="0.19"/><circle cx="174.9" cy="28.8" r="3.20" fill="#bd6b20" opacity="0.15"/><circle cx="207.7" cy="27.2" r="1.62" fill="#bd6b20" opacity="0.23"/><circle cx="248.2" cy="29.0" r="3.42" fill="#bd6b20" opacity="0.29"/><circle cx="281.8" cy="30.4" r="2.20" fill="#bd6b20" opacity="0.19"/><circle cx="320.0" cy="30.3" r="2.49" fill="#bd6b20" opacity="0.15"/><circle cx="351.8" cy="30.7" r="2.27" fill="#bd6b20" opacity="0.34"/><circle cx="389.9" cy="30.9" r="3.90" fill="#bd6b20" opacity="0.30"/><circle cx="427.3" cy="28.3" r="1.85" fill="#bd6b20" opacity="0.32"/><circle cx="460.1" cy="32.0" r="1.94" fill="#bd6b20" opacity="0.26"/><circle cx="500.3" cy="27.9" r="2.28" fill="#bd6b20" opacity="0.20"/><circle cx="533.4" cy="27.8" r="2.68" fill="#bd6b20" opacity="0.34"/><circle cx="567.8" cy="27.7" r="3.93" fill="#bd6b20" opacity="0.19"/><circle cx="603.6" cy="33.0" r="3.99" fill="#bd6b20" opacity="0.23"/><circle cx="641.7" cy="28.5" r="3.84" fill="#bd6b20" opacity="0.20"/><circle cx="678.1" cy="27.8" r="2.64" fill="#bd6b20" opacity="0.27"/><circle cx="715.4" cy="32.9" r="2.51" fill="#bd6b20" opacity="0.18"/><circle cx="750.6" cy="29.6" r="2.28" fill="#bd6b20" opacity="0.26"/><circle cx="787.4" cy="30.6" r="2.55" fill="#bd6b20" opacity="0.30"/><circle cx="821.3" cy="27.3" r="1.64" fill="#bd6b20" opacity="0.23"/><circle cx="859.3" cy="30.6" r="2.93" fill="#bd6b20" opacity="0.30"/><circle cx="892.4" cy="32.6" r="1.66" fill="#bd6b20" opacity="0.15"/><circle cx="932.6" cy="28.0" r="3.81" fill="#bd6b20" opacity="0.30"/><circle cx="965.5" cy="31.0" r="1.89" fill="#bd6b20" opacity="0.28"/><circle cx="1003.7" cy="28.8" r="2.52" fill="#bd6b20" opacity="0.16"/><circle cx="1035.1" cy="28.5" r="3.35" fill="#bd6b20" opacity="0.26"/><circle cx="1073.4" cy="31.4" r="1.79" fill="#bd6b20" opacity="0.30"/><circle cx="1109.2" cy="27.9" r="3.51" fill="#bd6b20" opacity="0.31"/><circle cx="1145.0" cy="32.0" r="2.89" fill="#bd6b20" opacity="0.22"/><circle cx="1180.8" cy="30.4" r="2.03" fill="#bd6b20" opacity="0.20"/><circle cx="27.0" cy="68.9" r="3.84" fill="#bd6b20" opacity="0.35"/><circle cx="64.9" cy="67.5" r="2.90" fill="#bd6b20" opacity="0.29"/><circle cx="99.3" cy="63.0" r="1.63" fill="#bd6b20" opacity="0.18"/><circle cx="138.5" cy="65.4" r="1.61" fill="#bd6b20" opacity="0.24"/><circle cx="174.4" cy="63.6" r="1.66" fill="#bd6b20" opacity="0.31"/><circle cx="211.4" cy="67.4" r="1.63" fill="#bd6b20" opacity="0.26"/><circle cx="243.7" cy="65.2" r="3.44" fill="#bd6b20" opacity="0.22"/><circle cx="282.0" cy="68.1" r="1.98" fill="#bd6b20" opacity="0.27"/><circle cx="319.0" cy="66.4" r="2.84" fill="#bd6b20" opacity="0.31"/><circle cx="352.4" cy="66.9" r="3.43" fill="#bd6b20" opacity="0.36"/><circle cx="388.5" cy="65.2" r="2.05" fill="#bd6b20" opacity="0.35"/><circle cx="425.4" cy="67.0" r="1.61" fill="#bd6b20" opacity="0.29"/><circle cx="459.2" cy="67.5" r="3.71" fill="#bd6b20" opacity="0.17"/><circle cx="499.2" cy="65.7" r="2.58" fill="#bd6b20" opacity="0.27"/><circle cx="533.1" cy="65.7" r="3.28" fill="#bd6b20" opacity="0.29"/><circle cx="569.9" cy="66.5" r="1.81" fill="#bd6b20" opacity="0.28"/><circle cx="603.2" cy="67.5" r="2.99" fill="#bd6b20" opacity="0.31"/><circle cx="641.1" cy="65.2" r="2.31" fill="#bd6b20" opacity="0.28"/><circle cx="679.2" cy="63.0" r="3.12" fill="#bd6b20" opacity="0.31"/><circle cx="716.7" cy="64.5" r="2.73" fill="#bd6b20" opacity="0.29"/><circle cx="747.7" cy="63.7" r="1.61" fill="#bd6b20" opacity="0.30"/><circle cx="784.6" cy="68.5" r="3.95" fill="#bd6b20" opacity="0.22"/><circle cx="822.9" cy="66.2" r="1.63" fill="#bd6b20" opacity="0.32"/><circle cx="859.8" cy="64.0" r="3.65" fill="#bd6b20" opacity="0.34"/><circle cx="893.1" cy="63.2" r="1.98" fill="#bd6b20" opacity="0.34"/><circle cx="931.6" cy="64.2" r="1.97" fill="#bd6b20" opacity="0.31"/><circle cx="966.0" cy="63.6" r="1.92" fill="#bd6b20" opacity="0.22"/><circle cx="1002.9" cy="68.7" r="3.97" fill="#bd6b20" opacity="0.16"/><circle cx="1037.7" cy="67.4" r="3.13" fill="#bd6b20" opacity="0.30"/><circle cx="1072.7" cy="68.6" r="2.64" fill="#bd6b20" opacity="0.25"/><circle cx="1110.1" cy="66.1" r="3.67" fill="#bd6b20" opacity="0.35"/><circle cx="1143.0" cy="63.4" r="3.29" fill="#bd6b20" opacity="0.28"/><circle cx="1184.6" cy="63.7" r="2.80" fill="#bd6b20" opacity="0.30"/><circle cx="30.8" cy="104.9" r="2.96" fill="#bd6b20" opacity="0.36"/><circle cx="66.9" cy="102.9" r="2.68" fill="#bd6b20" opacity="0.36"/><circle cx="103.1" cy="99.5" r="1.86" fill="#bd6b20" opacity="0.26"/><circle cx="135.3" cy="103.7" r="3.25" fill="#bd6b20" opacity="0.27"/><circle cx="176.7" cy="102.1" r="3.50" fill="#bd6b20" opacity="0.31"/><circle cx="207.1" cy="100.6" r="3.07" fill="#bd6b20" opacity="0.22"/><circle cx="245.6" cy="102.8" r="2.05" fill="#bd6b20" opacity="0.24"/><circle cx="282.3" cy="99.0" r="2.43" fill="#bd6b20" opacity="0.18"/><circle cx="317.6" cy="101.7" r="2.71" fill="#bd6b20" opacity="0.22"/><circle cx="354.3" cy="104.4" r="3.53" fill="#bd6b20" opacity="0.15"/><circle cx="387.9" cy="104.4" r="2.44" fill="#bd6b20" opacity="0.17"/><circle cx="425.3" cy="104.8" r="3.81" fill="#bd6b20" opacity="0.17"/><circle cx="464.9" cy="103.1" r="1.78" fill="#bd6b20" opacity="0.29"/><circle cx="495.2" cy="102.2" r="1.96" fill="#bd6b20" opacity="0.27"/><circle cx="536.8" cy="102.5" r="2.88" fill="#bd6b20" opacity="0.22"/><circle cx="571.7" cy="102.4" r="1.82" fill="#bd6b20" opacity="0.32"/><circle cx="608.2" cy="99.7" r="2.24" fill="#bd6b20" opacity="0.36"/><circle cx="643.2" cy="104.1" r="3.59" fill="#bd6b20" opacity="0.28"/><circle cx="681.0" cy="101.2" r="2.93" fill="#bd6b20" opacity="0.32"/><circle cx="714.2" cy="101.9" r="3.04" fill="#bd6b20" opacity="0.18"/><circle cx="750.1" cy="99.5" r="3.26" fill="#bd6b20" opacity="0.17"/><circle cx="785.7" cy="100.2" r="3.79" fill="#bd6b20" opacity="0.17"/><circle cx="823.2" cy="104.0" r="2.39" fill="#bd6b20" opacity="0.25"/><circle cx="859.4" cy="103.8" r="2.92" fill="#bd6b20" opacity="0.22"/><circle cx="891.8" cy="101.5" r="3.43" fill="#bd6b20" opacity="0.17"/><circle cx="932.7" cy="103.0" r="3.27" fill="#bd6b20" opacity="0.23"/><circle cx="964.4" cy="104.7" r="2.32" fill="#bd6b20" opacity="0.34"/><circle cx="1003.0" cy="100.9" r="3.88" fill="#bd6b20" opacity="0.29"/><circle cx="1036.7" cy="101.8" r="2.98" fill="#bd6b20" opacity="0.15"/><circle cx="1073.4" cy="102.8" r="3.05" fill="#bd6b20" opacity="0.25"/><circle cx="1107.9" cy="99.8" r="3.18" fill="#bd6b20" opacity="0.27"/><circle cx="1147.6" cy="104.9" r="3.40" fill="#bd6b20" opacity="0.33"/><circle cx="1182.9" cy="99.2" r="2.62" fill="#bd6b20" opacity="0.29"/><circle cx="29.5" cy="139.1" r="2.36" fill="#bd6b20" opacity="0.23"/><circle cx="64.7" cy="135.2" r="3.52" fill="#bd6b20" opacity="0.22"/><circle cx="102.8" cy="137.6" r="3.67" fill="#bd6b20" opacity="0.28"/><circle cx="136.4" cy="140.9" r="1.85" fill="#bd6b20" opacity="0.26"/><circle cx="175.8" cy="136.9" r="1.67" fill="#bd6b20" opacity="0.25"/><circle cx="212.6" cy="135.4" r="3.23" fill="#bd6b20" opacity="0.35"/><circle cx="248.5" cy="137.5" r="1.69" fill="#bd6b20" opacity="0.29"/><circle cx="279.2" cy="139.7" r="2.92" fill="#bd6b20" opacity="0.24"/><circle cx="320.6" cy="137.8" r="2.93" fill="#bd6b20" opacity="0.30"/><circle cx="352.0" cy="139.0" r="3.17" fill="#bd6b20" opacity="0.24"/><circle cx="387.8" cy="140.2" r="1.89" fill="#bd6b20" opacity="0.35"/><circle cx="427.9" cy="135.5" r="2.73" fill="#bd6b20" opacity="0.23"/><circle cx="463.9" cy="140.2" r="2.98" fill="#bd6b20" opacity="0.20"/><circle cx="499.9" cy="135.3" r="2.41" fill="#bd6b20" opacity="0.19"/><circle cx="536.1" cy="135.4" r="2.29" fill="#bd6b20" opacity="0.16"/><circle cx="567.2" cy="138.2" r="3.71" fill="#bd6b20" opacity="0.15"/><circle cx="605.9" cy="140.9" r="2.12" fill="#bd6b20" opacity="0.27"/><circle cx="643.2" cy="136.8" r="2.24" fill="#bd6b20" opacity="0.31"/><circle cx="678.1" cy="140.3" r="2.32" fill="#bd6b20" opacity="0.24"/><circle cx="716.9" cy="135.7" r="2.43" fill="#bd6b20" opacity="0.21"/><circle cx="752.5" cy="137.5" r="3.45" fill="#bd6b20" opacity="0.28"/><circle cx="786.7" cy="137.3" r="2.95" fill="#bd6b20" opacity="0.21"/><circle cx="820.8" cy="137.2" r="2.94" fill="#bd6b20" opacity="0.26"/><circle cx="857.1" cy="140.4" r="1.96" fill="#bd6b20" opacity="0.27"/><circle cx="896.5" cy="136.9" r="3.20" fill="#bd6b20" opacity="0.32"/><circle cx="932.0" cy="139.9" r="2.77" fill="#bd6b20" opacity="0.24"/><circle cx="966.8" cy="139.7" r="3.88" fill="#bd6b20" opacity="0.28"/><circle cx="1000.6" cy="140.9" r="2.32" fill="#bd6b20" opacity="0.24"/><circle cx="1040.2" cy="135.7" r="2.83" fill="#bd6b20" opacity="0.33"/><circle cx="1076.5" cy="140.0" r="2.62" fill="#bd6b20" opacity="0.24"/><circle cx="1112.2" cy="136.2" r="2.98" fill="#bd6b20" opacity="0.24"/><circle cx="1148.6" cy="136.3" r="3.37" fill="#bd6b20" opacity="0.20"/><circle cx="1181.0" cy="139.1" r="2.32" fill="#bd6b20" opacity="0.28"/><circle cx="28.1" cy="174.6" r="2.62" fill="#bd6b20" opacity="0.28"/><circle cx="66.7" cy="171.4" r="2.67" fill="#bd6b20" opacity="0.31"/><circle cx="100.8" cy="172.8" r="3.62" fill="#bd6b20" opacity="0.27"/><circle cx="140.4" cy="172.7" r="3.65" fill="#bd6b20" opacity="0.29"/><circle cx="175.1" cy="172.8" r="2.11" fill="#bd6b20" opacity="0.32"/><circle cx="207.2" cy="171.9" r="3.00" fill="#bd6b20" opacity="0.17"/><circle cx="243.6" cy="173.3" r="2.82" fill="#bd6b20" opacity="0.24"/><circle cx="284.8" cy="176.2" r="2.94" fill="#bd6b20" opacity="0.25"/><circle cx="319.8" cy="176.2" r="3.15" fill="#bd6b20" opacity="0.20"/><circle cx="355.4" cy="173.6" r="2.12" fill="#bd6b20" opacity="0.29"/><circle cx="390.4" cy="173.9" r="1.81" fill="#bd6b20" opacity="0.15"/><circle cx="427.2" cy="172.5" r="2.33" fill="#bd6b20" opacity="0.19"/><circle cx="464.3" cy="172.2" r="2.95" fill="#bd6b20" opacity="0.32"/><circle cx="498.3" cy="176.3" r="3.90" fill="#bd6b20" opacity="0.21"/><circle cx="532.3" cy="171.8" r="3.35" fill="#bd6b20" opacity="0.34"/><circle cx="571.2" cy="174.9" r="1.82" fill="#bd6b20" opacity="0.32"/><circle cx="603.4" cy="172.1" r="2.81" fill="#bd6b20" opacity="0.27"/><circle cx="640.4" cy="173.4" r="3.35" fill="#bd6b20" opacity="0.18"/><circle cx="680.6" cy="173.9" r="3.57" fill="#bd6b20" opacity="0.23"/><circle cx="713.5" cy="174.9" r="2.40" fill="#bd6b20" opacity="0.23"/><circle cx="750.6" cy="174.5" r="2.23" fill="#bd6b20" opacity="0.18"/><circle cx="784.6" cy="174.3" r="2.89" fill="#bd6b20" opacity="0.28"/><circle cx="819.7" cy="172.7" r="2.31" fill="#bd6b20" opacity="0.36"/><circle cx="855.1" cy="172.5" r="2.53" fill="#bd6b20" opacity="0.32"/><circle cx="893.2" cy="173.6" r="3.88" fill="#bd6b20" opacity="0.32"/><circle cx="931.7" cy="175.1" r="3.33" fill="#bd6b20" opacity="0.35"/><circle cx="966.5" cy="174.5" r="3.48" fill="#bd6b20" opacity="0.30"/><circle cx="1001.6" cy="176.1" r="3.78" fill="#bd6b20" opacity="0.25"/><circle cx="1035.1" cy="175.6" r="3.04" fill="#bd6b20" opacity="0.33"/><circle cx="1074.9" cy="173.7" r="3.42" fill="#bd6b20" opacity="0.19"/><circle cx="1111.6" cy="174.6" r="1.95" fill="#bd6b20" opacity="0.35"/><circle cx="1146.3" cy="172.8" r="2.12" fill="#bd6b20" opacity="0.36"/><circle cx="1182.7" cy="176.2" r="2.21" fill="#bd6b20" opacity="0.35"/><circle cx="32.2" cy="209.5" r="3.40" fill="#bd6b20" opacity="0.31"/><circle cx="64.8" cy="207.7" r="3.98" fill="#bd6b20" opacity="0.22"/><circle cx="102.8" cy="209.5" r="2.99" fill="#bd6b20" opacity="0.28"/><circle cx="136.2" cy="208.6" r="1.73" fill="#bd6b20" opacity="0.30"/><circle cx="175.1" cy="210.2" r="2.46" fill="#bd6b20" opacity="0.24"/><circle cx="210.9" cy="211.6" r="3.13" fill="#bd6b20" opacity="0.17"/><circle cx="246.3" cy="207.9" r="2.95" fill="#bd6b20" opacity="0.27"/><circle cx="282.8" cy="211.8" r="2.31" fill="#bd6b20" opacity="0.28"/><circle cx="319.5" cy="207.7" r="2.93" fill="#bd6b20" opacity="0.32"/><circle cx="352.7" cy="212.8" r="3.03" fill="#bd6b20" opacity="0.25"/><circle cx="388.3" cy="208.1" r="4.00" fill="#bd6b20" opacity="0.23"/><circle cx="424.2" cy="208.7" r="1.76" fill="#bd6b20" opacity="0.29"/><circle cx="463.6" cy="207.7" r="2.53" fill="#bd6b20" opacity="0.17"/><circle cx="495.4" cy="207.4" r="3.53" fill="#bd6b20" opacity="0.33"/><circle cx="531.9" cy="210.0" r="2.79" fill="#bd6b20" opacity="0.23"/><circle cx="568.1" cy="207.4" r="3.60" fill="#bd6b20" opacity="0.35"/><circle cx="603.9" cy="212.1" r="1.77" fill="#bd6b20" opacity="0.16"/><circle cx="643.8" cy="212.2" r="3.06" fill="#bd6b20" opacity="0.16"/><circle cx="676.4" cy="210.9" r="3.19" fill="#bd6b20" opacity="0.27"/><circle cx="713.1" cy="210.2" r="3.29" fill="#bd6b20" opacity="0.28"/><circle cx="750.3" cy="211.9" r="2.98" fill="#bd6b20" opacity="0.23"/><circle cx="786.9" cy="209.1" r="3.22" fill="#bd6b20" opacity="0.19"/><circle cx="820.7" cy="208.1" r="2.07" fill="#bd6b20" opacity="0.28"/><circle cx="858.1" cy="209.3" r="3.38" fill="#bd6b20" opacity="0.21"/><circle cx="896.6" cy="208.0" r="3.57" fill="#bd6b20" opacity="0.16"/><circle cx="929.5" cy="212.8" r="2.21" fill="#bd6b20" opacity="0.35"/><circle cx="965.6" cy="207.4" r="3.88" fill="#bd6b20" opacity="0.27"/><circle cx="1001.8" cy="209.2" r="2.49" fill="#bd6b20" opacity="0.32"/><circle cx="1037.7" cy="210.5" r="3.97" fill="#bd6b20" opacity="0.35"/><circle cx="1072.7" cy="209.0" r="2.57" fill="#bd6b20" opacity="0.26"/><circle cx="1108.1" cy="211.9" r="2.65" fill="#bd6b20" opacity="0.22"/><circle cx="1148.9" cy="212.7" r="3.42" fill="#bd6b20" opacity="0.25"/><circle cx="1182.8" cy="207.4" r="2.22" fill="#bd6b20" opacity="0.31"/><circle cx="31.7" cy="247.6" r="2.08" fill="#bd6b20" opacity="0.15"/><circle cx="63.8" cy="245.3" r="3.41" fill="#bd6b20" opacity="0.17"/><circle cx="102.5" cy="248.3" r="2.62" fill="#bd6b20" opacity="0.33"/><circle cx="140.7" cy="246.3" r="3.82" fill="#bd6b20" opacity="0.26"/><circle cx="177.0" cy="244.4" r="3.00" fill="#bd6b20" opacity="0.22"/><circle cx="211.8" cy="244.9" r="2.69" fill="#bd6b20" opacity="0.16"/><circle cx="243.8" cy="243.3" r="2.92" fill="#bd6b20" opacity="0.33"/><circle cx="284.1" cy="244.7" r="3.74" fill="#bd6b20" opacity="0.25"/><circle cx="315.5" cy="247.9" r="2.76" fill="#bd6b20" opacity="0.23"/><circle cx="352.1" cy="246.3" r="2.05" fill="#bd6b20" opacity="0.35"/><circle cx="387.6" cy="247.8" r="3.36" fill="#bd6b20" opacity="0.32"/><circle cx="426.7" cy="245.4" r="2.26" fill="#bd6b20" opacity="0.19"/><circle cx="461.8" cy="244.1" r="1.69" fill="#bd6b20" opacity="0.24"/><circle cx="500.0" cy="246.3" r="3.21" fill="#bd6b20" opacity="0.18"/><circle cx="535.1" cy="245.9" r="1.86" fill="#bd6b20" opacity="0.29"/><circle cx="568.2" cy="244.3" r="2.29" fill="#bd6b20" opacity="0.27"/><circle cx="608.4" cy="245.2" r="1.84" fill="#bd6b20" opacity="0.27"/><circle cx="642.2" cy="245.3" r="3.73" fill="#bd6b20" opacity="0.24"/><circle cx="680.2" cy="248.7" r="2.11" fill="#bd6b20" opacity="0.19"/><circle cx="715.8" cy="247.4" r="2.65" fill="#bd6b20" opacity="0.18"/><circle cx="747.4" cy="244.2" r="2.54" fill="#bd6b20" opacity="0.33"/><circle cx="783.0" cy="248.1" r="2.79" fill="#bd6b20" opacity="0.30"/><circle cx="823.8" cy="243.8" r="3.83" fill="#bd6b20" opacity="0.24"/><circle cx="857.1" cy="244.6" r="1.64" fill="#bd6b20" opacity="0.23"/><circle cx="893.8" cy="246.5" r="2.54" fill="#bd6b20" opacity="0.24"/><circle cx="930.1" cy="248.1" r="1.82" fill="#bd6b20" opacity="0.20"/><circle cx="966.3" cy="248.6" r="2.74" fill="#bd6b20" opacity="0.24"/><circle cx="1000.8" cy="243.2" r="2.89" fill="#bd6b20" opacity="0.30"/><circle cx="1037.8" cy="247.2" r="1.72" fill="#bd6b20" opacity="0.24"/><circle cx="1076.6" cy="245.7" r="3.63" fill="#bd6b20" opacity="0.25"/><circle cx="1112.6" cy="246.3" r="3.26" fill="#bd6b20" opacity="0.35"/><circle cx="1146.2" cy="246.3" r="3.43" fill="#bd6b20" opacity="0.35"/><circle cx="1184.7" cy="248.8" r="2.99" fill="#bd6b20" opacity="0.35"/><circle cx="29.0" cy="280.0" r="1.75" fill="#bd6b20" opacity="0.20"/><circle cx="64.4" cy="279.9" r="2.16" fill="#bd6b20" opacity="0.29"/><circle cx="103.1" cy="279.4" r="2.60" fill="#bd6b20" opacity="0.30"/><circle cx="137.7" cy="283.9" r="2.27" fill="#bd6b20" opacity="0.17"/><circle cx="176.8" cy="282.9" r="3.65" fill="#bd6b20" opacity="0.33"/><circle cx="209.8" cy="284.5" r="2.04" fill="#bd6b20" opacity="0.25"/><circle cx="246.5" cy="279.0" r="2.61" fill="#bd6b20" opacity="0.19"/><circle cx="282.6" cy="283.1" r="2.52" fill="#bd6b20" opacity="0.20"/><circle cx="318.5" cy="280.6" r="3.08" fill="#bd6b20" opacity="0.35"/><circle cx="351.0" cy="284.1" r="2.97" fill="#bd6b20" opacity="0.16"/><circle cx="391.1" cy="281.1" r="2.59" fill="#bd6b20" opacity="0.31"/><circle cx="426.0" cy="280.1" r="2.85" fill="#bd6b20" opacity="0.21"/><circle cx="463.2" cy="279.9" r="2.28" fill="#bd6b20" opacity="0.27"/><circle cx="495.5" cy="279.8" r="3.44" fill="#bd6b20" opacity="0.16"/><circle cx="535.9" cy="284.4" r="3.72" fill="#bd6b20" opacity="0.18"/><circle cx="568.5" cy="283.0" r="2.27" fill="#bd6b20" opacity="0.35"/><circle cx="603.3" cy="279.2" r="3.14" fill="#bd6b20" opacity="0.26"/><circle cx="642.9" cy="279.8" r="1.95" fill="#bd6b20" opacity="0.26"/><circle cx="680.5" cy="279.8" r="1.74" fill="#bd6b20" opacity="0.15"/><circle cx="714.1" cy="284.9" r="3.59" fill="#bd6b20" opacity="0.36"/><circle cx="752.6" cy="282.6" r="2.65" fill="#bd6b20" opacity="0.22"/><circle cx="784.7" cy="281.3" r="1.91" fill="#bd6b20" opacity="0.20"/><circle cx="822.3" cy="283.9" r="3.50" fill="#bd6b20" opacity="0.36"/><circle cx="856.1" cy="281.6" r="1.99" fill="#bd6b20" opacity="0.34"/><circle cx="894.3" cy="279.9" r="2.73" fill="#bd6b20" opacity="0.17"/><circle cx="927.9" cy="285.0" r="3.33" fill="#bd6b20" opacity="0.18"/><circle cx="969.0" cy="280.3" r="3.63" fill="#bd6b20" opacity="0.21"/><circle cx="1004.6" cy="279.5" r="1.70" fill="#bd6b20" opacity="0.23"/><circle cx="1036.5" cy="282.5" r="2.46" fill="#bd6b20" opacity="0.33"/><circle cx="1072.3" cy="282.4" r="3.90" fill="#bd6b20" opacity="0.33"/><circle cx="1112.6" cy="280.2" r="2.48" fill="#bd6b20" opacity="0.17"/><circle cx="1148.0" cy="281.7" r="2.35" fill="#bd6b20" opacity="0.18"/><circle cx="1180.3" cy="282.9" r="1.82" fill="#bd6b20" opacity="0.20"/><circle cx="28.8" cy="316.4" r="2.18" fill="#bd6b20" opacity="0.31"/><circle cx="66.2" cy="318.5" r="2.25" fill="#bd6b20" opacity="0.31"/><circle cx="101.9" cy="317.9" r="3.62" fill="#bd6b20" opacity="0.21"/><circle cx="136.0" cy="317.6" r="1.85" fill="#bd6b20" opacity="0.26"/><circle cx="174.2" cy="316.7" r="3.55" fill="#bd6b20" opacity="0.34"/><circle cx="211.4" cy="320.3" r="3.97" fill="#bd6b20" opacity="0.21"/><circle cx="245.9" cy="317.1" r="2.58" fill="#bd6b20" opacity="0.17"/><circle cx="284.1" cy="320.6" r="2.33" fill="#bd6b20" opacity="0.33"/><circle cx="315.3" cy="317.5" r="3.22" fill="#bd6b20" opacity="0.16"/><circle cx="355.3" cy="319.3" r="3.32" fill="#bd6b20" opacity="0.21"/><circle cx="389.5" cy="316.9" r="3.61" fill="#bd6b20" opacity="0.21"/><circle cx="424.3" cy="318.0" r="2.80" fill="#bd6b20" opacity="0.24"/><circle cx="463.9" cy="317.4" r="2.11" fill="#bd6b20" opacity="0.28"/><circle cx="498.1" cy="316.7" r="3.66" fill="#bd6b20" opacity="0.22"/><circle cx="535.7" cy="318.9" r="2.78" fill="#bd6b20" opacity="0.18"/><circle cx="572.8" cy="318.9" r="3.14" fill="#bd6b20" opacity="0.23"/><circle cx="607.9" cy="317.4" r="3.35" fill="#bd6b20" opacity="0.28"/><circle cx="643.9" cy="315.3" r="1.67" fill="#bd6b20" opacity="0.23"/><circle cx="678.4" cy="319.3" r="2.98" fill="#bd6b20" opacity="0.35"/><circle cx="711.4" cy="315.8" r="2.09" fill="#bd6b20" opacity="0.32"/><circle cx="747.4" cy="319.0" r="2.52" fill="#bd6b20" opacity="0.21"/><circle cx="787.6" cy="317.8" r="2.15" fill="#bd6b20" opacity="0.33"/><circle cx="822.8" cy="319.7" r="3.31" fill="#bd6b20" opacity="0.26"/><circle cx="860.2" cy="316.2" r="2.91" fill="#bd6b20" opacity="0.36"/><circle cx="894.2" cy="318.4" r="2.08" fill="#bd6b20" opacity="0.23"/><circle cx="931.6" cy="319.6" r="1.88" fill="#bd6b20" opacity="0.35"/><circle cx="968.9" cy="315.1" r="1.64" fill="#bd6b20" opacity="0.30"/><circle cx="1000.2" cy="315.6" r="2.74" fill="#bd6b20" opacity="0.33"/><circle cx="1036.1" cy="315.7" r="2.30" fill="#bd6b20" opacity="0.20"/><circle cx="1075.6" cy="318.9" r="1.91" fill="#bd6b20" opacity="0.20"/><circle cx="1107.7" cy="318.3" r="1.87" fill="#bd6b20" opacity="0.28"/><circle cx="1143.7" cy="320.0" r="3.89" fill="#bd6b20" opacity="0.29"/><circle cx="1181.9" cy="316.0" r="2.17" fill="#bd6b20" opacity="0.18"/><circle cx="30.7" cy="353.1" r="1.64" fill="#bd6b20" opacity="0.27"/><circle cx="65.2" cy="356.1" r="2.84" fill="#bd6b20" opacity="0.34"/><circle cx="100.4" cy="351.4" r="3.23" fill="#bd6b20" opacity="0.33"/><circle cx="137.9" cy="355.2" r="2.70" fill="#bd6b20" opacity="0.31"/><circle cx="176.5" cy="354.8" r="1.82" fill="#bd6b20" opacity="0.32"/><circle cx="209.5" cy="351.4" r="3.08" fill="#bd6b20" opacity="0.18"/><circle cx="245.8" cy="354.7" r="2.77" fill="#bd6b20" opacity="0.21"/><circle cx="280.0" cy="355.3" r="2.88" fill="#bd6b20" opacity="0.22"/><circle cx="319.1" cy="356.2" r="1.64" fill="#bd6b20" opacity="0.18"/><circle cx="355.9" cy="354.5" r="2.77" fill="#bd6b20" opacity="0.20"/><circle cx="392.3" cy="352.0" r="3.10" fill="#bd6b20" opacity="0.24"/><circle cx="426.0" cy="357.0" r="2.06" fill="#bd6b20" opacity="0.33"/><circle cx="462.6" cy="352.6" r="2.52" fill="#bd6b20" opacity="0.16"/><circle cx="495.9" cy="352.1" r="2.75" fill="#bd6b20" opacity="0.31"/><circle cx="532.1" cy="352.4" r="2.32" fill="#bd6b20" opacity="0.22"/><circle cx="571.0" cy="355.3" r="3.41" fill="#bd6b20" opacity="0.20"/><circle cx="605.5" cy="351.6" r="2.72" fill="#bd6b20" opacity="0.18"/><circle cx="641.6" cy="353.7" r="3.37" fill="#bd6b20" opacity="0.29"/><circle cx="675.2" cy="353.0" r="3.16" fill="#bd6b20" opacity="0.31"/><circle cx="715.8" cy="355.3" r="2.88" fill="#bd6b20" opacity="0.22"/><circle cx="752.2" cy="356.4" r="1.79" fill="#bd6b20" opacity="0.36"/><circle cx="784.5" cy="351.3" r="2.85" fill="#bd6b20" opacity="0.30"/><circle cx="821.9" cy="352.3" r="2.61" fill="#bd6b20" opacity="0.20"/><circle cx="860.1" cy="352.8" r="3.09" fill="#bd6b20" opacity="0.22"/><circle cx="892.6" cy="351.6" r="2.80" fill="#bd6b20" opacity="0.21"/><circle cx="930.9" cy="351.9" r="2.76" fill="#bd6b20" opacity="0.21"/><circle cx="966.1" cy="352.5" r="2.53" fill="#bd6b20" opacity="0.22"/><circle cx="1001.5" cy="351.9" r="2.95" fill="#bd6b20" opacity="0.26"/><circle cx="1039.2" cy="354.8" r="2.07" fill="#bd6b20" opacity="0.33"/><circle cx="1075.6" cy="356.3" r="2.09" fill="#bd6b20" opacity="0.28"/><circle cx="1112.3" cy="355.2" r="2.64" fill="#bd6b20" opacity="0.31"/><circle cx="1144.6" cy="353.7" r="3.89" fill="#bd6b20" opacity="0.22"/><circle cx="1182.5" cy="351.9" r="3.73" fill="#bd6b20" opacity="0.15"/><circle cx="28.0" cy="388.9" r="2.38" fill="#bd6b20" opacity="0.21"/><circle cx="63.2" cy="389.4" r="3.79" fill="#bd6b20" opacity="0.20"/><circle cx="99.5" cy="389.2" r="1.70" fill="#bd6b20" opacity="0.34"/><circle cx="137.3" cy="391.3" r="3.10" fill="#bd6b20" opacity="0.26"/><circle cx="174.6" cy="391.4" r="1.99" fill="#bd6b20" opacity="0.34"/><circle cx="209.5" cy="388.7" r="2.34" fill="#bd6b20" opacity="0.19"/><circle cx="248.4" cy="389.1" r="3.57" fill="#bd6b20" opacity="0.19"/><circle cx="279.6" cy="387.4" r="2.52" fill="#bd6b20" opacity="0.23"/><circle cx="318.4" cy="390.5" r="1.66" fill="#bd6b20" opacity="0.16"/><circle cx="353.6" cy="388.9" r="2.52" fill="#bd6b20" opacity="0.18"/><circle cx="390.5" cy="387.6" r="3.46" fill="#bd6b20" opacity="0.20"/><circle cx="423.4" cy="388.7" r="3.67" fill="#bd6b20" opacity="0.19"/><circle cx="461.9" cy="389.2" r="2.72" fill="#bd6b20" opacity="0.20"/><circle cx="496.1" cy="387.1" r="2.03" fill="#bd6b20" opacity="0.28"/><circle cx="536.5" cy="392.4" r="1.86" fill="#bd6b20" opacity="0.28"/><circle cx="570.7" cy="391.7" r="3.95" fill="#bd6b20" opacity="0.18"/><circle cx="603.9" cy="392.0" r="2.79" fill="#bd6b20" opacity="0.18"/><circle cx="643.6" cy="388.7" r="3.44" fill="#bd6b20" opacity="0.22"/><circle cx="675.3" cy="388.7" r="3.75" fill="#bd6b20" opacity="0.34"/><circle cx="712.7" cy="388.6" r="2.74" fill="#bd6b20" opacity="0.23"/><circle cx="747.6" cy="392.7" r="3.90" fill="#bd6b20" opacity="0.20"/><circle cx="784.9" cy="387.2" r="3.81" fill="#bd6b20" opacity="0.34"/><circle cx="819.3" cy="390.4" r="3.85" fill="#bd6b20" opacity="0.30"/><circle cx="857.8" cy="391.6" r="1.92" fill="#bd6b20" opacity="0.35"/><circle cx="894.4" cy="391.5" r="3.28" fill="#bd6b20" opacity="0.16"/><circle cx="932.1" cy="389.3" r="3.81" fill="#bd6b20" opacity="0.16"/><circle cx="967.0" cy="389.4" r="2.28" fill="#bd6b20" opacity="0.35"/><circle cx="1004.6" cy="388.9" r="3.40" fill="#bd6b20" opacity="0.25"/><circle cx="1038.0" cy="392.0" r="3.76" fill="#bd6b20" opacity="0.15"/><circle cx="1073.5" cy="390.2" r="3.11" fill="#bd6b20" opacity="0.33"/><circle cx="1108.8" cy="392.1" r="2.74" fill="#bd6b20" opacity="0.27"/><circle cx="1143.5" cy="388.9" r="3.37" fill="#bd6b20" opacity="0.20"/><circle cx="1179.8" cy="388.0" r="2.98" fill="#bd6b20" opacity="0.21"/><circle cx="27.0" cy="424.2" r="3.55" fill="#bd6b20" opacity="0.18"/><circle cx="66.3" cy="426.0" r="2.04" fill="#bd6b20" opacity="0.24"/><circle cx="104.3" cy="427.0" r="2.61" fill="#bd6b20" opacity="0.22"/><circle cx="138.0" cy="426.4" r="3.70" fill="#bd6b20" opacity="0.23"/><circle cx="171.6" cy="424.8" r="3.43" fill="#bd6b20" opacity="0.33"/><circle cx="212.1" cy="425.1" r="3.11" fill="#bd6b20" opacity="0.33"/><circle cx="244.9" cy="426.4" r="2.86" fill="#bd6b20" opacity="0.17"/><circle cx="282.9" cy="423.5" r="3.33" fill="#bd6b20" opacity="0.25"/><circle cx="317.8" cy="424.1" r="3.35" fill="#bd6b20" opacity="0.36"/><circle cx="353.1" cy="425.6" r="1.76" fill="#bd6b20" opacity="0.27"/><circle cx="390.3" cy="423.8" r="2.40" fill="#bd6b20" opacity="0.22"/><circle cx="424.1" cy="424.0" r="2.62" fill="#bd6b20" opacity="0.33"/><circle cx="463.3" cy="427.4" r="2.39" fill="#bd6b20" opacity="0.33"/><circle cx="497.1" cy="427.7" r="3.26" fill="#bd6b20" opacity="0.31"/><circle cx="532.1" cy="423.5" r="1.70" fill="#bd6b20" opacity="0.33"/><circle cx="572.2" cy="426.2" r="2.89" fill="#bd6b20" opacity="0.18"/><circle cx="607.1" cy="423.1" r="2.61" fill="#bd6b20" opacity="0.30"/><circle cx="644.2" cy="426.2" r="3.79" fill="#bd6b20" opacity="0.24"/><circle cx="676.1" cy="426.5" r="2.10" fill="#bd6b20" opacity="0.21"/><circle cx="714.1" cy="424.0" r="3.64" fill="#bd6b20" opacity="0.18"/><circle cx="750.4" cy="423.1" r="2.71" fill="#bd6b20" opacity="0.24"/><circle cx="784.6" cy="424.9" r="2.61" fill="#bd6b20" opacity="0.18"/><circle cx="820.1" cy="428.5" r="2.51" fill="#bd6b20" opacity="0.16"/><circle cx="856.4" cy="427.4" r="2.48" fill="#bd6b20" opacity="0.26"/><circle cx="893.3" cy="428.9" r="1.88" fill="#bd6b20" opacity="0.35"/><circle cx="929.6" cy="426.1" r="3.54" fill="#bd6b20" opacity="0.19"/><circle cx="965.9" cy="424.0" r="2.81" fill="#bd6b20" opacity="0.21"/><circle cx="1001.5" cy="427.4" r="2.38" fill="#bd6b20" opacity="0.28"/><circle cx="1038.8" cy="427.0" r="1.85" fill="#bd6b20" opacity="0.26"/><circle cx="1075.8" cy="424.1" r="3.30" fill="#bd6b20" opacity="0.16"/><circle cx="1109.6" cy="423.8" r="2.58" fill="#bd6b20" opacity="0.24"/><circle cx="1147.6" cy="425.2" r="2.95" fill="#bd6b20" opacity="0.31"/><circle cx="1180.6" cy="426.4" r="2.26" fill="#bd6b20" opacity="0.29"/><circle cx="30.8" cy="459.0" r="3.14" fill="#bd6b20" opacity="0.34"/><circle cx="63.7" cy="464.1" r="3.23" fill="#bd6b20" opacity="0.30"/><circle cx="100.1" cy="462.5" r="4.00" fill="#bd6b20" opacity="0.28"/><circle cx="136.6" cy="461.3" r="2.87" fill="#bd6b20" opacity="0.19"/><circle cx="176.1" cy="462.1" r="1.74" fill="#bd6b20" opacity="0.24"/><circle cx="212.9" cy="462.3" r="2.58" fill="#bd6b20" opacity="0.27"/><circle cx="246.5" cy="459.7" r="2.60" fill="#bd6b20" opacity="0.23"/><circle cx="281.6" cy="461.6" r="1.95" fill="#bd6b20" opacity="0.27"/><circle cx="316.3" cy="461.7" r="1.84" fill="#bd6b20" opacity="0.15"/><circle cx="355.0" cy="459.5" r="1.74" fill="#bd6b20" opacity="0.35"/><circle cx="389.1" cy="462.8" r="3.94" fill="#bd6b20" opacity="0.34"/><circle cx="423.7" cy="463.5" r="3.40" fill="#bd6b20" opacity="0.16"/><circle cx="459.2" cy="463.0" r="3.59" fill="#bd6b20" opacity="0.16"/><circle cx="497.8" cy="460.2" r="3.31" fill="#bd6b20" opacity="0.35"/><circle cx="531.3" cy="463.5" r="3.29" fill="#bd6b20" opacity="0.21"/><circle cx="568.6" cy="459.1" r="2.81" fill="#bd6b20" opacity="0.26"/><circle cx="605.5" cy="462.4" r="2.16" fill="#bd6b20" opacity="0.22"/><circle cx="640.8" cy="460.0" r="3.15" fill="#bd6b20" opacity="0.36"/><circle cx="678.2" cy="460.4" r="2.45" fill="#bd6b20" opacity="0.25"/><circle cx="711.3" cy="462.0" r="3.89" fill="#bd6b20" opacity="0.24"/><circle cx="750.5" cy="460.0" r="2.80" fill="#bd6b20" opacity="0.31"/><circle cx="787.7" cy="463.6" r="2.22" fill="#bd6b20" opacity="0.32"/><circle cx="822.9" cy="462.6" r="3.84" fill="#bd6b20" opacity="0.18"/><circle cx="859.2" cy="460.8" r="2.61" fill="#bd6b20" opacity="0.23"/><circle cx="891.1" cy="462.8" r="3.91" fill="#bd6b20" opacity="0.25"/><circle cx="929.3" cy="463.8" r="1.73" fill="#bd6b20" opacity="0.17"/><circle cx="964.5" cy="461.1" r="3.38" fill="#bd6b20" opacity="0.32"/><circle cx="1000.4" cy="464.2" r="2.17" fill="#bd6b20" opacity="0.17"/><circle cx="1035.8" cy="459.7" r="2.67" fill="#bd6b20" opacity="0.25"/><circle cx="1076.2" cy="463.4" r="3.94" fill="#bd6b20" opacity="0.17"/><circle cx="1108.9" cy="462.2" r="3.34" fill="#bd6b20" opacity="0.27"/><circle cx="1146.4" cy="462.5" r="3.00" fill="#bd6b20" opacity="0.34"/><circle cx="1185.0" cy="460.3" r="2.06" fill="#bd6b20" opacity="0.34"/><circle cx="30.2" cy="498.3" r="1.89" fill="#bd6b20" opacity="0.32"/><circle cx="64.0" cy="496.8" r="1.94" fill="#bd6b20" opacity="0.28"/><circle cx="103.2" cy="498.1" r="1.66" fill="#bd6b20" opacity="0.24"/><circle cx="140.6" cy="495.9" r="3.65" fill="#bd6b20" opacity="0.24"/><circle cx="173.2" cy="496.5" r="1.74" fill="#bd6b20" opacity="0.20"/><circle cx="211.6" cy="500.3" r="2.31" fill="#bd6b20" opacity="0.35"/><circle cx="248.5" cy="496.0" r="3.66" fill="#bd6b20" opacity="0.23"/><circle cx="283.5" cy="500.5" r="2.79" fill="#bd6b20" opacity="0.29"/><circle cx="316.0" cy="500.8" r="3.66" fill="#bd6b20" opacity="0.28"/><circle cx="353.9" cy="499.5" r="3.80" fill="#bd6b20" opacity="0.20"/><circle cx="392.0" cy="496.4" r="3.93" fill="#bd6b20" opacity="0.24"/><circle cx="425.9" cy="497.8" r="2.59" fill="#bd6b20" opacity="0.23"/><circle cx="460.2" cy="497.7" r="3.81" fill="#bd6b20" opacity="0.17"/><circle cx="496.2" cy="500.4" r="2.63" fill="#bd6b20" opacity="0.32"/><circle cx="534.1" cy="497.2" r="1.87" fill="#bd6b20" opacity="0.22"/><circle cx="570.1" cy="496.2" r="2.59" fill="#bd6b20" opacity="0.19"/><circle cx="607.2" cy="497.0" r="2.21" fill="#bd6b20" opacity="0.34"/><circle cx="642.6" cy="496.1" r="2.45" fill="#bd6b20" opacity="0.16"/><circle cx="675.8" cy="495.6" r="3.94" fill="#bd6b20" opacity="0.20"/><circle cx="712.1" cy="496.2" r="2.87" fill="#bd6b20" opacity="0.32"/><circle cx="749.3" cy="500.8" r="1.74" fill="#bd6b20" opacity="0.32"/><circle cx="783.7" cy="499.1" r="1.78" fill="#bd6b20" opacity="0.20"/><circle cx="819.3" cy="495.2" r="3.41" fill="#bd6b20" opacity="0.19"/><circle cx="856.4" cy="497.1" r="3.47" fill="#bd6b20" opacity="0.25"/><circle cx="893.2" cy="496.5" r="3.44" fill="#bd6b20" opacity="0.30"/><circle cx="931.2" cy="500.5" r="2.13" fill="#bd6b20" opacity="0.33"/><circle cx="965.7" cy="500.6" r="3.39" fill="#bd6b20" opacity="0.35"/><circle cx="1001.5" cy="497.2" r="2.72" fill="#bd6b20" opacity="0.15"/><circle cx="1039.2" cy="497.6" r="3.86" fill="#bd6b20" opacity="0.18"/><circle cx="1076.1" cy="497.4" r="2.28" fill="#bd6b20" opacity="0.31"/><circle cx="1107.6" cy="500.3" r="3.32" fill="#bd6b20" opacity="0.35"/><circle cx="1146.3" cy="495.8" r="3.23" fill="#bd6b20" opacity="0.18"/><circle cx="1182.3" cy="498.2" r="2.63" fill="#bd6b20" opacity="0.26"/><circle cx="27.3" cy="536.5" r="3.73" fill="#bd6b20" opacity="0.16"/><circle cx="64.2" cy="536.9" r="2.83" fill="#bd6b20" opacity="0.34"/><circle cx="103.0" cy="534.2" r="3.15" fill="#bd6b20" opacity="0.20"/><circle cx="136.6" cy="536.0" r="2.45" fill="#bd6b20" opacity="0.35"/><circle cx="176.4" cy="536.5" r="2.94" fill="#bd6b20" opacity="0.28"/><circle cx="208.7" cy="535.9" r="2.96" fill="#bd6b20" opacity="0.18"/><circle cx="247.7" cy="536.8" r="2.18" fill="#bd6b20" opacity="0.18"/><circle cx="283.6" cy="533.2" r="3.49" fill="#bd6b20" opacity="0.18"/><circle cx="317.6" cy="532.4" r="3.52" fill="#bd6b20" opacity="0.36"/><circle cx="353.9" cy="535.0" r="2.44" fill="#bd6b20" opacity="0.26"/><circle cx="387.9" cy="535.2" r="3.07" fill="#bd6b20" opacity="0.18"/><circle cx="426.8" cy="533.9" r="3.79" fill="#bd6b20" opacity="0.36"/><circle cx="464.4" cy="531.3" r="3.65" fill="#bd6b20" opacity="0.34"/><circle cx="496.4" cy="535.6" r="2.02" fill="#bd6b20" opacity="0.32"/><circle cx="533.8" cy="532.8" r="3.38" fill="#bd6b20" opacity="0.23"/><circle cx="572.7" cy="532.1" r="1.97" fill="#bd6b20" opacity="0.29"/><circle cx="607.9" cy="533.8" r="3.78" fill="#bd6b20" opacity="0.23"/><circle cx="643.8" cy="535.6" r="3.31" fill="#bd6b20" opacity="0.32"/><circle cx="678.5" cy="535.1" r="2.97" fill="#bd6b20" opacity="0.21"/><circle cx="714.5" cy="533.4" r="3.56" fill="#bd6b20" opacity="0.31"/><circle cx="749.3" cy="534.0" r="1.89" fill="#bd6b20" opacity="0.28"/><circle cx="786.5" cy="535.6" r="3.96" fill="#bd6b20" opacity="0.22"/><circle cx="820.8" cy="532.7" r="2.66" fill="#bd6b20" opacity="0.23"/><circle cx="859.5" cy="535.2" r="3.66" fill="#bd6b20" opacity="0.20"/><circle cx="891.1" cy="536.6" r="3.11" fill="#bd6b20" opacity="0.26"/><circle cx="929.9" cy="532.9" r="2.36" fill="#bd6b20" opacity="0.30"/><circle cx="965.9" cy="534.3" r="2.92" fill="#bd6b20" opacity="0.29"/><circle cx="1002.6" cy="534.8" r="2.48" fill="#bd6b20" opacity="0.25"/><circle cx="1035.1" cy="535.4" r="3.30" fill="#bd6b20" opacity="0.32"/><circle cx="1075.9" cy="534.0" r="3.76" fill="#bd6b20" opacity="0.34"/><circle cx="1110.8" cy="535.3" r="2.50" fill="#bd6b20" opacity="0.18"/><circle cx="1143.0" cy="531.6" r="2.85" fill="#bd6b20" opacity="0.16"/><circle cx="1183.7" cy="533.5" r="2.00" fill="#bd6b20" opacity="0.35"/><circle cx="27.4" cy="572.6" r="2.84" fill="#bd6b20" opacity="0.29"/><circle cx="65.6" cy="568.2" r="3.17" fill="#bd6b20" opacity="0.29"/><circle cx="104.0" cy="570.6" r="3.22" fill="#bd6b20" opacity="0.34"/><circle cx="135.7" cy="567.9" r="2.22" fill="#bd6b20" opacity="0.24"/><circle cx="171.0" cy="572.4" r="3.47" fill="#bd6b20" opacity="0.30"/><circle cx="210.4" cy="568.2" r="3.16" fill="#bd6b20" opacity="0.20"/><circle cx="244.0" cy="569.4" r="2.31" fill="#bd6b20" opacity="0.21"/><circle cx="282.9" cy="570.8" r="3.90" fill="#bd6b20" opacity="0.22"/><circle cx="320.6" cy="568.0" r="1.91" fill="#bd6b20" opacity="0.23"/><circle cx="351.6" cy="571.1" r="2.62" fill="#bd6b20" opacity="0.18"/><circle cx="389.5" cy="569.9" r="1.68" fill="#bd6b20" opacity="0.28"/><circle cx="426.4" cy="571.4" r="1.93" fill="#bd6b20" opacity="0.25"/><circle cx="465.0" cy="568.7" r="2.84" fill="#bd6b20" opacity="0.31"/><circle cx="497.8" cy="569.0" r="2.85" fill="#bd6b20" opacity="0.33"/><circle cx="535.1" cy="570.8" r="3.75" fill="#bd6b20" opacity="0.25"/><circle cx="568.1" cy="572.0" r="3.34" fill="#bd6b20" opacity="0.31"/><circle cx="604.5" cy="570.1" r="1.67" fill="#bd6b20" opacity="0.17"/><circle cx="642.2" cy="572.5" r="3.46" fill="#bd6b20" opacity="0.29"/><circle cx="680.2" cy="567.5" r="2.13" fill="#bd6b20" opacity="0.29"/><circle cx="716.1" cy="569.4" r="2.09" fill="#bd6b20" opacity="0.27"/><circle cx="752.0" cy="572.3" r="1.86" fill="#bd6b20" opacity="0.33"/><circle cx="788.7" cy="572.0" r="2.71" fill="#bd6b20" opacity="0.20"/><circle cx="820.3" cy="571.5" r="3.57" fill="#bd6b20" opacity="0.19"/><circle cx="859.8" cy="569.5" r="2.22" fill="#bd6b20" opacity="0.33"/><circle cx="892.9" cy="572.2" r="2.81" fill="#bd6b20" opacity="0.36"/><circle cx="932.5" cy="569.4" r="2.89" fill="#bd6b20" opacity="0.26"/><circle cx="964.6" cy="572.5" r="1.99" fill="#bd6b20" opacity="0.33"/><circle cx="999.7" cy="572.0" r="2.12" fill="#bd6b20" opacity="0.29"/><circle cx="1039.0" cy="569.5" r="3.63" fill="#bd6b20" opacity="0.32"/><circle cx="1076.7" cy="572.2" r="3.93" fill="#bd6b20" opacity="0.20"/><circle cx="1108.9" cy="571.2" r="3.53" fill="#bd6b20" opacity="0.35"/><circle cx="1143.8" cy="571.6" r="3.79" fill="#bd6b20" opacity="0.27"/><circle cx="1184.5" cy="568.8" r="3.14" fill="#bd6b20" opacity="0.17"/><circle cx="28.0" cy="607.9" r="2.02" fill="#bd6b20" opacity="0.31"/><circle cx="63.6" cy="607.3" r="3.39" fill="#bd6b20" opacity="0.18"/><circle cx="103.2" cy="606.0" r="3.02" fill="#bd6b20" opacity="0.21"/><circle cx="137.9" cy="604.2" r="3.11" fill="#bd6b20" opacity="0.25"/><circle cx="172.7" cy="606.0" r="2.83" fill="#bd6b20" opacity="0.21"/><circle cx="210.4" cy="607.4" r="2.67" fill="#bd6b20" opacity="0.20"/><circle cx="243.1" cy="603.5" r="1.62" fill="#bd6b20" opacity="0.25"/><circle cx="280.8" cy="607.0" r="3.16" fill="#bd6b20" opacity="0.31"/><circle cx="319.3" cy="606.2" r="3.41" fill="#bd6b20" opacity="0.23"/><circle cx="356.8" cy="603.4" r="3.40" fill="#bd6b20" opacity="0.26"/><circle cx="391.1" cy="604.3" r="3.80" fill="#bd6b20" opacity="0.30"/><circle cx="428.2" cy="605.5" r="2.72" fill="#bd6b20" opacity="0.33"/><circle cx="460.7" cy="603.2" r="3.46" fill="#bd6b20" opacity="0.31"/><circle cx="495.3" cy="604.5" r="2.15" fill="#bd6b20" opacity="0.19"/><circle cx="531.5" cy="606.6" r="2.48" fill="#bd6b20" opacity="0.34"/><circle cx="571.0" cy="603.1" r="2.89" fill="#bd6b20" opacity="0.17"/><circle cx="603.2" cy="607.7" r="3.99" fill="#bd6b20" opacity="0.29"/><circle cx="640.1" cy="606.6" r="3.78" fill="#bd6b20" opacity="0.26"/><circle cx="678.1" cy="607.2" r="3.96" fill="#bd6b20" opacity="0.35"/><circle cx="713.3" cy="607.0" r="3.33" fill="#bd6b20" opacity="0.26"/><circle cx="751.4" cy="603.3" r="2.52" fill="#bd6b20" opacity="0.26"/><circle cx="785.3" cy="607.1" r="1.93" fill="#bd6b20" opacity="0.17"/><circle cx="820.2" cy="605.5" r="2.62" fill="#bd6b20" opacity="0.31"/><circle cx="860.8" cy="603.1" r="2.16" fill="#bd6b20" opacity="0.17"/><circle cx="894.6" cy="608.4" r="2.00" fill="#bd6b20" opacity="0.25"/><circle cx="927.6" cy="606.5" r="3.32" fill="#bd6b20" opacity="0.27"/><circle cx="966.2" cy="603.2" r="3.30" fill="#bd6b20" opacity="0.23"/><circle cx="1003.4" cy="608.8" r="1.77" fill="#bd6b20" opacity="0.18"/><circle cx="1036.6" cy="603.6" r="3.41" fill="#bd6b20" opacity="0.30"/><circle cx="1076.2" cy="604.1" r="1.92" fill="#bd6b20" opacity="0.32"/><circle cx="1112.4" cy="605.9" r="3.85" fill="#bd6b20" opacity="0.27"/><circle cx="1143.7" cy="605.2" r="2.92" fill="#bd6b20" opacity="0.19"/><circle cx="1183.1" cy="608.9" r="3.64" fill="#bd6b20" opacity="0.24"/><circle cx="28.8" cy="639.3" r="2.99" fill="#bd6b20" opacity="0.30"/><circle cx="64.1" cy="642.4" r="3.32" fill="#bd6b20" opacity="0.34"/><circle cx="104.4" cy="643.9" r="3.17" fill="#bd6b20" opacity="0.32"/><circle cx="138.9" cy="641.2" r="2.58" fill="#bd6b20" opacity="0.31"/><circle cx="171.8" cy="641.1" r="3.75" fill="#bd6b20" opacity="0.23"/><circle cx="210.7" cy="645.0" r="2.51" fill="#bd6b20" opacity="0.17"/><circle cx="243.9" cy="640.4" r="3.69" fill="#bd6b20" opacity="0.30"/><circle cx="279.6" cy="642.7" r="1.93" fill="#bd6b20" opacity="0.27"/><circle cx="320.5" cy="642.8" r="1.73" fill="#bd6b20" opacity="0.31"/><circle cx="354.2" cy="640.9" r="3.87" fill="#bd6b20" opacity="0.16"/><circle cx="387.8" cy="644.7" r="2.52" fill="#bd6b20" opacity="0.18"/><circle cx="428.0" cy="643.5" r="2.76" fill="#bd6b20" opacity="0.30"/><circle cx="464.0" cy="640.6" r="3.60" fill="#bd6b20" opacity="0.29"/><circle cx="496.1" cy="641.6" r="3.04" fill="#bd6b20" opacity="0.32"/><circle cx="533.7" cy="644.5" r="3.26" fill="#bd6b20" opacity="0.23"/><circle cx="568.1" cy="641.9" r="3.56" fill="#bd6b20" opacity="0.27"/><circle cx="604.8" cy="640.6" r="3.34" fill="#bd6b20" opacity="0.20"/><circle cx="639.2" cy="641.8" r="2.05" fill="#bd6b20" opacity="0.26"/><circle cx="680.9" cy="644.0" r="1.73" fill="#bd6b20" opacity="0.35"/><circle cx="711.3" cy="644.3" r="3.85" fill="#bd6b20" opacity="0.20"/><circle cx="747.6" cy="644.9" r="2.56" fill="#bd6b20" opacity="0.30"/><circle cx="787.1" cy="643.9" r="3.36" fill="#bd6b20" opacity="0.33"/><circle cx="822.3" cy="644.9" r="2.21" fill="#bd6b20" opacity="0.21"/><circle cx="855.8" cy="642.0" r="3.30" fill="#bd6b20" opacity="0.33"/><circle cx="891.2" cy="642.1" r="3.77" fill="#bd6b20" opacity="0.36"/><circle cx="930.1" cy="642.8" r="3.64" fill="#bd6b20" opacity="0.33"/><circle cx="967.4" cy="639.2" r="1.71" fill="#bd6b20" opacity="0.15"/><circle cx="1004.3" cy="641.6" r="3.27" fill="#bd6b20" opacity="0.19"/><circle cx="1038.6" cy="641.6" r="3.92" fill="#bd6b20" opacity="0.25"/><circle cx="1072.8" cy="642.4" r="3.65" fill="#bd6b20" opacity="0.23"/><circle cx="1110.5" cy="640.0" r="1.79" fill="#bd6b20" opacity="0.33"/><circle cx="1148.8" cy="641.6" r="2.32" fill="#bd6b20" opacity="0.16"/><circle cx="1179.4" cy="641.0" r="3.35" fill="#bd6b20" opacity="0.34"/><circle cx="230.6" cy="278.7" r="220" fill="url(#glow)" opacity="0.9"/>
  <g opacity="0.85" transform="translate(1020, 495)">
        <circle r="68" fill="none" stroke="#bd6b20" stroke-width="2" opacity="0.35"/>
        <path d="M -38 12 L 38 12 M -32 -8 L 32 -8 M -45 -28 L 45 -28" stroke="#9a5518" stroke-width="3" stroke-linecap="round"/>
        <rect x="-50" y="-44" width="100" height="80" fill="none" stroke="#bd6b20" stroke-width="2"/>
      </g>
  <g transform="translate(80, 90)">
    <rect x="0" y="0" rx="20" ry="20" width="112" height="38" fill="#bd6b20" opacity="0.18" stroke="#bd6b20" stroke-width="1.5"/>
    <text x="56" y="25" font-family="ui-sans-serif, Inter, sans-serif" font-weight="700" font-size="14" letter-spacing="2.5" fill="#bd6b20" text-anchor="middle">NEWSROOM</text>
  </g>
  <text x="80" y="465" font-family="ui-sans-serif, -apple-system, Segoe UI, Inter, sans-serif" font-weight="800" font-size="44" fill="#12100e" opacity="0.98"><tspan x="80" dy="0">Navigating the New</tspan><tspan x="80" dy="56">Horizon: Impact of the</tspan><tspan x="80" dy="56">Arbitration and</tspan></text>
  <rect x="0" y="669" width="1200" height="6" fill="url(#gold)"/>
</svg>