<?xml version="1.0" encoding="UTF-8"?>
<svg xmlns="http://www.w3.org/2000/svg" viewBox="0 0 1200 675" width="1200" height="675" role="img" aria-label="NBFC vs. Small Loan Borrower: A Case of Financial Dispute and Amicable Settlement">
  <defs>
    <linearGradient id="bg" x1="0%" y1="0%" x2="100%" y2="100%">
      <stop offset="0%" stop-color="#532d15"/>
      <stop offset="100%" stop-color="#bd6b20"/>
    </linearGradient>
    <linearGradient id="gold" x1="0%" y1="0%" x2="100%" y2="100%">
      <stop offset="0%" stop-color="#e09440"/>
      <stop offset="100%" stop-color="#fdf6ee"/>
    </linearGradient>
    <radialGradient id="glow" cx="50%" cy="50%" r="50%">
      <stop offset="0%" stop-color="#e09440" stop-opacity="0.45"/>
      <stop offset="100%" stop-color="#e09440" stop-opacity="0"/>
    </radialGradient>
  </defs>
  <rect width="1200" height="675" fill="url(#bg)"/>
  <polygon points="-50,285.7 -20,296.7 10,307.6 40,318.1 70,328.0 100,336.9 130,344.9 160,351.5 190,356.8 220,360.6 250,362.8 280,363.3 310,362.2 340,359.5 370,355.1 400,349.3 430,342.2 460,333.9 490,324.6 520,314.5 550,303.8 580,292.8 610,281.8 640,270.9 670,260.5 700,250.6 730,241.7 760,233.9 790,227.3 820,222.1 850,218.4 880,216.3 910,215.8 940,217.0 970,219.9 1000,224.3 1030,230.2 1060,237.4 1090,245.7 1120,255.1 1150,265.2 1180,275.9 1210,286.9 1240,298.0 1250,725 -50,725" fill="#e09440" opacity="0.08"/><polygon points="-50,372.0 -20,360.7 10,349.2 40,337.5 70,326.1 100,315.1 130,304.9 160,295.6 190,287.5 220,280.7 250,275.4 280,271.7 310,269.8 340,269.5 370,271.0 400,274.2 430,279.1 460,285.4 490,293.2 520,302.2 550,312.2 580,322.9 610,334.2 640,345.9 670,357.5 700,368.9 730,379.8 760,390.0 790,399.2 820,407.3 850,414.0 880,419.2 910,422.8 940,424.7 970,424.8 1000,423.2 1030,419.9 1060,415.0 1090,408.5 1120,400.7 1150,391.6 1180,381.6 1210,370.8 1240,359.5 1250,725 -50,725" fill="#e09440" opacity="0.13"/><polygon points="-50,383.7 -20,378.3 10,373.6 40,369.5 70,366.3 100,364.0 130,362.7 160,362.3 190,363.0 220,364.6 250,367.1 280,370.6 310,374.8 340,379.8 370,385.3 400,391.4 430,397.7 460,404.3 490,410.9 520,417.5 550,423.7 580,429.6 610,435.0 640,439.7 670,443.7 700,446.9 730,449.1 760,450.4 790,450.7 820,450.0 850,448.4 880,445.7 910,442.3 940,438.0 970,433.0 1000,427.4 1030,421.3 1060,414.9 1090,408.4 1120,401.7 1150,395.2 1180,389.0 1210,383.1 1240,377.8 1250,725 -50,725" fill="#e09440" opacity="0.18"/><polygon points="-50,528.2 -20,530.4 10,531.7 40,532.0 70,531.5 100,530.0 130,527.6 160,524.3 190,520.3 220,515.7 250,510.4 280,504.7 310,498.7 340,492.4 370,486.2 400,480.0 430,474.0 460,468.4 490,463.3 520,458.8 550,455.0 580,452.0 610,449.9 640,448.6 670,448.3 700,448.9 730,450.5 760,452.9 790,456.2 820,460.2 850,465.0 880,470.2 910,476.0 940,482.0 970,488.2 1000,494.5 1030,500.7 1060,506.6 1090,512.2 1120,517.3 1150,521.7 1180,525.5 1210,528.5 1240,530.6 1250,725 -50,725" fill="#e09440" opacity="0.23"/><circle cx="300.0" cy="189.0" r="160" fill="url(#glow)"/>
  <g opacity="0.85" transform="translate(1020, 495)">
        <circle r="60" fill="#e09440" opacity="0.18"/>
        <path d="M -34 6 Q -10 -22 14 6 Q 34 24 14 26 L -22 26 Q -38 24 -34 6 Z" fill="none" stroke="#fdf6ee" stroke-width="3" stroke-linejoin="round"/>
      </g>
  <g transform="translate(80, 90)">
    <rect x="0" y="0" rx="20" ry="20" width="134" height="38" fill="#e09440" opacity="0.18" stroke="#e09440" stroke-width="1.5"/>
    <text x="67" y="25" font-family="ui-sans-serif, Inter, sans-serif" font-weight="700" font-size="14" letter-spacing="2.5" fill="#e09440" text-anchor="middle">CASE STUDY</text>
  </g>
  <text x="80" y="465" font-family="ui-sans-serif, -apple-system, Segoe UI, Inter, sans-serif" font-weight="800" font-size="44" fill="#faf8f5" opacity="0.98"><tspan x="80" dy="0">NBFC vs. Small Loan</tspan><tspan x="80" dy="56">Borrower: A Case of</tspan><tspan x="80" dy="56">Financial Dispute and</tspan></text>
  <rect x="0" y="669" width="1200" height="6" fill="url(#gold)"/>
</svg>