<?xml version="1.0" encoding="UTF-8"?>
<svg xmlns="http://www.w3.org/2000/svg" viewBox="0 0 1200 675" width="1200" height="675" role="img" aria-label="Dispute Resolution Centre | Debt Recovery through Arbitration | Employee Mediation">
  <defs>
    <linearGradient id="bg" x1="0%" y1="0%" x2="100%" y2="100%">
      <stop offset="0%" stop-color="#532d15"/>
      <stop offset="100%" stop-color="#bd6b20"/>
    </linearGradient>
    <linearGradient id="gold" x1="0%" y1="0%" x2="100%" y2="100%">
      <stop offset="0%" stop-color="#e09440"/>
      <stop offset="100%" stop-color="#fdf6ee"/>
    </linearGradient>
    <radialGradient id="glow" cx="50%" cy="50%" r="50%">
      <stop offset="0%" stop-color="#e09440" stop-opacity="0.45"/>
      <stop offset="100%" stop-color="#e09440" stop-opacity="0"/>
    </radialGradient>
  </defs>
  <rect width="1200" height="675" fill="url(#bg)"/>
  <rect x="-697.4" y="-80" width="75.5" height="875" transform="rotate(18 -697.4 337.5)" fill="#e09440" opacity="0.07"/><rect x="-520.7" y="-80" width="88.4" height="875" transform="rotate(18 -520.7 337.5)" fill="#e09440" opacity="0.08"/><rect x="-345.7" y="-80" width="135.8" height="875" transform="rotate(18 -345.7 337.5)" fill="#e09440" opacity="0.10"/><rect x="-121.0" y="-80" width="106.7" height="875" transform="rotate(18 -121.0 337.5)" fill="#e09440" opacity="0.17"/><rect x="26.9" y="-80" width="119.3" height="875" transform="rotate(18 26.9 337.5)" fill="#e09440" opacity="0.17"/><rect x="223.3" y="-80" width="84.6" height="875" transform="rotate(18 223.3 337.5)" fill="#e09440" opacity="0.10"/><rect x="405.5" y="-80" width="100.7" height="875" transform="rotate(18 405.5 337.5)" fill="#e09440" opacity="0.10"/><rect x="566.2" y="-80" width="139.7" height="875" transform="rotate(18 566.2 337.5)" fill="#e09440" opacity="0.08"/><rect x="786.4" y="-80" width="78.2" height="875" transform="rotate(18 786.4 337.5)" fill="#e09440" opacity="0.18"/><rect x="961.9" y="-80" width="116.4" height="875" transform="rotate(18 961.9 337.5)" fill="#e09440" opacity="0.18"/><rect x="1112.1" y="-80" width="126.4" height="875" transform="rotate(18 1112.1 337.5)" fill="#e09440" opacity="0.14"/><rect x="1336.2" y="-80" width="80.5" height="875" transform="rotate(18 1336.2 337.5)" fill="#e09440" opacity="0.06"/><rect x="1468.8" y="-80" width="130.3" height="875" transform="rotate(18 1468.8 337.5)" fill="#e09440" opacity="0.10"/><rect x="1627.9" y="-80" width="129.5" height="875" transform="rotate(18 1627.9 337.5)" fill="#e09440" opacity="0.15"/><rect x="0" y="0" width="1200" height="675" fill="url(#glow)" opacity="0.6"/>
  <g opacity="0.85" transform="translate(1020, 495)">
        <circle r="60" fill="#e09440" opacity="0.18"/>
        <path d="M -34 6 Q -10 -22 14 6 Q 34 24 14 26 L -22 26 Q -38 24 -34 6 Z" fill="none" stroke="#fdf6ee" stroke-width="3" stroke-linejoin="round"/>
      </g>
  <g transform="translate(80, 90)">
    <rect x="0" y="0" rx="20" ry="20" width="134" height="38" fill="#e09440" opacity="0.18" stroke="#e09440" stroke-width="1.5"/>
    <text x="67" y="25" font-family="ui-sans-serif, Inter, sans-serif" font-weight="700" font-size="14" letter-spacing="2.5" fill="#e09440" text-anchor="middle">CASE STUDY</text>
  </g>
  <text x="80" y="465" font-family="ui-sans-serif, -apple-system, Segoe UI, Inter, sans-serif" font-weight="800" font-size="44" fill="#faf8f5" opacity="0.98"><tspan x="80" dy="0">Dispute Resolution Centre</tspan><tspan x="80" dy="56">| Debt Recovery through</tspan><tspan x="80" dy="56">Arbitration | Employee</tspan></text>
  <rect x="0" y="669" width="1200" height="6" fill="url(#gold)"/>
</svg>