<?xml version="1.0" encoding="UTF-8"?>
<svg xmlns="http://www.w3.org/2000/svg" viewBox="0 0 1200 675" width="1200" height="675" role="img" aria-label="Toy Store Owner's Loan Default Case: A Mediation Success Story">
  <defs>
    <linearGradient id="bg" x1="0%" y1="0%" x2="100%" y2="100%">
      <stop offset="0%" stop-color="#643516"/>
      <stop offset="100%" stop-color="#7d4315"/>
    </linearGradient>
    <linearGradient id="gold" x1="0%" y1="0%" x2="100%" y2="100%">
      <stop offset="0%" stop-color="#ecb478"/>
      <stop offset="100%" stop-color="#faebd6"/>
    </linearGradient>
    <radialGradient id="glow" cx="50%" cy="50%" r="50%">
      <stop offset="0%" stop-color="#ecb478" stop-opacity="0.45"/>
      <stop offset="100%" stop-color="#ecb478" stop-opacity="0"/>
    </radialGradient>
  </defs>
  <rect width="1200" height="675" fill="url(#bg)"/>
  <rect x="-708.1" y="-80" width="122.5" height="875" transform="rotate(18 -708.1 337.5)" fill="#ecb478" opacity="0.17"/><rect x="-505.2" y="-80" width="87.9" height="875" transform="rotate(18 -505.2 337.5)" fill="#ecb478" opacity="0.06"/><rect x="-307.8" y="-80" width="74.7" height="875" transform="rotate(18 -307.8 337.5)" fill="#ecb478" opacity="0.17"/><rect x="-149.5" y="-80" width="132.7" height="875" transform="rotate(18 -149.5 337.5)" fill="#ecb478" opacity="0.18"/><rect x="24.0" y="-80" width="129.8" height="875" transform="rotate(18 24.0 337.5)" fill="#ecb478" opacity="0.14"/><rect x="239.3" y="-80" width="74.9" height="875" transform="rotate(18 239.3 337.5)" fill="#ecb478" opacity="0.16"/><rect x="398.1" y="-80" width="79.8" height="875" transform="rotate(18 398.1 337.5)" fill="#ecb478" opacity="0.10"/><rect x="548.7" y="-80" width="108.7" height="875" transform="rotate(18 548.7 337.5)" fill="#ecb478" opacity="0.17"/><rect x="764.7" y="-80" width="131.1" height="875" transform="rotate(18 764.7 337.5)" fill="#ecb478" opacity="0.18"/><rect x="923.3" y="-80" width="103.3" height="875" transform="rotate(18 923.3 337.5)" fill="#ecb478" opacity="0.06"/><rect x="1130.9" y="-80" width="130.4" height="875" transform="rotate(18 1130.9 337.5)" fill="#ecb478" opacity="0.06"/><rect x="1271.7" y="-80" width="62.6" height="875" transform="rotate(18 1271.7 337.5)" fill="#ecb478" opacity="0.17"/><rect x="1510.8" y="-80" width="136.7" height="875" transform="rotate(18 1510.8 337.5)" fill="#ecb478" opacity="0.08"/><rect x="1636.5" y="-80" width="128.0" height="875" transform="rotate(18 1636.5 337.5)" fill="#ecb478" opacity="0.09"/><rect x="0" y="0" width="1200" height="675" fill="url(#glow)" opacity="0.6"/>
  <g opacity="0.85" transform="translate(1020, 495)">
        <circle r="60" fill="#ecb478" opacity="0.18"/>
        <path d="M -34 6 Q -10 -22 14 6 Q 34 24 14 26 L -22 26 Q -38 24 -34 6 Z" fill="none" stroke="#faebd6" stroke-width="3" stroke-linejoin="round"/>
      </g>
  <g transform="translate(80, 90)">
    <rect x="0" y="0" rx="20" ry="20" width="134" height="38" fill="#ecb478" opacity="0.18" stroke="#ecb478" stroke-width="1.5"/>
    <text x="67" y="25" font-family="ui-sans-serif, Inter, sans-serif" font-weight="700" font-size="14" letter-spacing="2.5" fill="#ecb478" text-anchor="middle">CASE STUDY</text>
  </g>
  <text x="80" y="465" font-family="ui-sans-serif, -apple-system, Segoe UI, Inter, sans-serif" font-weight="800" font-size="44" fill="#faf8f5" opacity="0.98"><tspan x="80" dy="0">Toy Store Owner's Loan</tspan><tspan x="80" dy="56">Default Case: A Mediation</tspan><tspan x="80" dy="56">Success Story</tspan></text>
  <rect x="0" y="669" width="1200" height="6" fill="url(#gold)"/>
</svg>