<?xml version="1.0" encoding="UTF-8"?>
<svg xmlns="http://www.w3.org/2000/svg" viewBox="0 0 1200 675" width="1200" height="675" role="img" aria-label="Resolving a Small Business Loan Dispute: A Case Study of Recovery and Redemption">
  <defs>
    <linearGradient id="bg" x1="0%" y1="0%" x2="100%" y2="100%">
      <stop offset="0%" stop-color="#0c0a09"/>
      <stop offset="100%" stop-color="#291813"/>
    </linearGradient>
    <linearGradient id="gold" x1="0%" y1="0%" x2="100%" y2="100%">
      <stop offset="0%" stop-color="#d4862a"/>
      <stop offset="100%" stop-color="#bd6b20"/>
    </linearGradient>
    <radialGradient id="glow" cx="50%" cy="50%" r="50%">
      <stop offset="0%" stop-color="#d4862a" stop-opacity="0.45"/>
      <stop offset="100%" stop-color="#d4862a" stop-opacity="0"/>
    </radialGradient>
  </defs>
  <rect width="1200" height="675" fill="url(#bg)"/>
  <circle cx="31.6" cy="31.9" r="3.79" fill="#d4862a" opacity="0.26"/><circle cx="66.7" cy="32.5" r="1.72" fill="#d4862a" opacity="0.23"/><circle cx="104.0" cy="29.8" r="3.06" fill="#d4862a" opacity="0.17"/><circle cx="138.0" cy="32.0" r="3.35" fill="#d4862a" opacity="0.35"/><circle cx="171.2" cy="31.3" r="3.20" fill="#d4862a" opacity="0.21"/><circle cx="212.4" cy="32.3" r="2.13" fill="#d4862a" opacity="0.30"/><circle cx="246.0" cy="32.1" r="2.87" fill="#d4862a" opacity="0.21"/><circle cx="284.8" cy="30.6" r="1.71" fill="#d4862a" opacity="0.28"/><circle cx="318.7" cy="27.2" r="2.60" fill="#d4862a" opacity="0.35"/><circle cx="354.5" cy="32.3" r="2.60" fill="#d4862a" opacity="0.33"/><circle cx="388.4" cy="27.6" r="1.83" fill="#d4862a" opacity="0.24"/><circle cx="423.4" cy="32.8" r="2.53" fill="#d4862a" opacity="0.31"/><circle cx="460.4" cy="32.0" r="2.54" fill="#d4862a" opacity="0.20"/><circle cx="495.3" cy="30.5" r="3.33" fill="#d4862a" opacity="0.33"/><circle cx="536.5" cy="29.5" r="3.19" fill="#d4862a" opacity="0.22"/><circle cx="570.7" cy="27.5" r="2.26" fill="#d4862a" opacity="0.31"/><circle cx="605.2" cy="31.7" r="3.06" fill="#d4862a" opacity="0.19"/><circle cx="642.9" cy="31.3" r="1.94" fill="#d4862a" opacity="0.30"/><circle cx="675.5" cy="31.9" r="2.41" fill="#d4862a" opacity="0.30"/><circle cx="714.0" cy="31.5" r="3.36" fill="#d4862a" opacity="0.18"/><circle cx="748.1" cy="29.3" r="2.00" fill="#d4862a" opacity="0.35"/><circle cx="783.7" cy="28.9" r="3.61" fill="#d4862a" opacity="0.17"/><circle cx="824.8" cy="30.1" r="2.68" fill="#d4862a" opacity="0.31"/><circle cx="858.3" cy="31.5" r="2.79" fill="#d4862a" opacity="0.16"/><circle cx="892.5" cy="29.7" r="3.57" fill="#d4862a" opacity="0.21"/><circle cx="928.4" cy="28.7" r="2.25" fill="#d4862a" opacity="0.30"/><circle cx="968.0" cy="31.9" r="2.34" fill="#d4862a" opacity="0.28"/><circle cx="1004.0" cy="27.9" r="3.27" fill="#d4862a" opacity="0.20"/><circle cx="1036.7" cy="29.2" r="2.83" fill="#d4862a" opacity="0.30"/><circle cx="1073.8" cy="32.9" r="3.98" fill="#d4862a" opacity="0.30"/><circle cx="1109.7" cy="30.1" r="1.68" fill="#d4862a" opacity="0.17"/><circle cx="1144.0" cy="29.5" r="2.82" fill="#d4862a" opacity="0.32"/><circle cx="1184.9" cy="32.2" r="3.27" fill="#d4862a" opacity="0.26"/><circle cx="30.5" cy="65.2" r="3.24" fill="#d4862a" opacity="0.29"/><circle cx="68.1" cy="65.8" r="2.28" fill="#d4862a" opacity="0.32"/><circle cx="99.1" cy="64.9" r="1.70" fill="#d4862a" opacity="0.16"/><circle cx="139.6" cy="66.5" r="3.26" fill="#d4862a" opacity="0.16"/><circle cx="176.0" cy="66.9" r="2.32" fill="#d4862a" opacity="0.26"/><circle cx="209.2" cy="64.5" r="2.55" fill="#d4862a" opacity="0.24"/><circle cx="247.3" cy="65.9" r="3.17" fill="#d4862a" opacity="0.33"/><circle cx="283.3" cy="64.7" r="3.36" fill="#d4862a" opacity="0.34"/><circle cx="316.8" cy="63.6" r="2.24" fill="#d4862a" opacity="0.20"/><circle cx="356.2" cy="67.2" r="3.38" fill="#d4862a" opacity="0.31"/><circle cx="392.0" cy="65.7" r="2.27" fill="#d4862a" opacity="0.30"/><circle cx="424.6" cy="64.6" r="2.54" fill="#d4862a" opacity="0.17"/><circle cx="460.3" cy="65.4" r="2.58" fill="#d4862a" opacity="0.34"/><circle cx="496.2" cy="65.9" r="3.13" fill="#d4862a" opacity="0.16"/><circle cx="532.1" cy="63.6" r="3.24" fill="#d4862a" opacity="0.19"/><circle cx="568.7" cy="65.0" r="1.93" fill="#d4862a" opacity="0.32"/><circle cx="603.0" cy="68.8" r="1.61" fill="#d4862a" opacity="0.27"/><circle cx="642.1" cy="66.0" r="2.54" fill="#d4862a" opacity="0.30"/><circle cx="677.8" cy="67.8" r="2.53" fill="#d4862a" opacity="0.19"/><circle cx="716.5" cy="64.0" r="3.00" fill="#d4862a" opacity="0.18"/><circle cx="749.9" cy="66.3" r="3.71" fill="#d4862a" opacity="0.19"/><circle cx="786.6" cy="64.1" r="2.07" fill="#d4862a" opacity="0.20"/><circle cx="819.3" cy="65.7" r="1.95" fill="#d4862a" opacity="0.25"/><circle cx="860.7" cy="64.2" r="2.61" fill="#d4862a" opacity="0.21"/><circle cx="893.2" cy="68.6" r="2.69" fill="#d4862a" opacity="0.26"/><circle cx="931.1" cy="65.0" r="3.89" fill="#d4862a" opacity="0.21"/><circle cx="963.3" cy="65.8" r="2.90" fill="#d4862a" opacity="0.15"/><circle cx="1001.0" cy="68.6" r="3.12" fill="#d4862a" opacity="0.23"/><circle cx="1035.6" cy="66.0" r="3.59" fill="#d4862a" opacity="0.17"/><circle cx="1076.1" cy="68.8" r="1.62" fill="#d4862a" opacity="0.25"/><circle cx="1111.9" cy="66.7" r="2.49" fill="#d4862a" opacity="0.32"/><circle cx="1145.9" cy="66.4" r="2.72" fill="#d4862a" opacity="0.36"/><circle cx="1179.0" cy="67.9" r="2.11" fill="#d4862a" opacity="0.29"/><circle cx="28.7" cy="102.3" r="3.41" fill="#d4862a" opacity="0.22"/><circle cx="67.2" cy="99.4" r="3.46" fill="#d4862a" opacity="0.27"/><circle cx="99.6" cy="100.7" r="3.99" fill="#d4862a" opacity="0.33"/><circle cx="136.1" cy="100.6" r="3.46" fill="#d4862a" opacity="0.19"/><circle cx="176.3" cy="100.2" r="1.93" fill="#d4862a" opacity="0.27"/><circle cx="209.1" cy="103.0" r="3.53" fill="#d4862a" opacity="0.32"/><circle cx="244.5" cy="102.4" r="1.62" fill="#d4862a" opacity="0.27"/><circle cx="279.6" cy="102.2" r="1.90" fill="#d4862a" opacity="0.35"/><circle cx="320.5" cy="103.5" r="3.12" fill="#d4862a" opacity="0.15"/><circle cx="356.0" cy="100.3" r="2.25" fill="#d4862a" opacity="0.15"/><circle cx="388.0" cy="99.2" r="3.27" fill="#d4862a" opacity="0.19"/><circle cx="423.1" cy="100.5" r="2.90" fill="#d4862a" opacity="0.23"/><circle cx="461.7" cy="102.4" r="2.63" fill="#d4862a" opacity="0.30"/><circle cx="496.9" cy="100.2" r="3.05" fill="#d4862a" opacity="0.31"/><circle cx="534.1" cy="104.3" r="3.79" fill="#d4862a" opacity="0.32"/><circle cx="571.3" cy="101.6" r="2.07" fill="#d4862a" opacity="0.28"/><circle cx="606.4" cy="102.8" r="2.79" fill="#d4862a" opacity="0.30"/><circle cx="640.0" cy="103.5" r="2.32" fill="#d4862a" opacity="0.15"/><circle cx="675.6" cy="102.2" r="1.80" fill="#d4862a" opacity="0.33"/><circle cx="715.7" cy="101.0" r="3.95" fill="#d4862a" opacity="0.27"/><circle cx="749.0" cy="102.6" r="2.86" fill="#d4862a" opacity="0.30"/><circle cx="786.0" cy="101.1" r="2.96" fill="#d4862a" opacity="0.28"/><circle cx="822.2" cy="100.0" r="1.86" fill="#d4862a" opacity="0.19"/><circle cx="860.4" cy="99.3" r="2.16" fill="#d4862a" opacity="0.35"/><circle cx="896.9" cy="100.1" r="2.43" fill="#d4862a" opacity="0.32"/><circle cx="928.3" cy="100.7" r="3.02" fill="#d4862a" opacity="0.16"/><circle cx="965.5" cy="104.3" r="3.59" fill="#d4862a" opacity="0.22"/><circle cx="1004.9" cy="99.8" r="3.44" fill="#d4862a" opacity="0.35"/><circle cx="1035.2" cy="102.0" r="2.37" fill="#d4862a" opacity="0.29"/><circle cx="1072.6" cy="102.9" r="2.37" fill="#d4862a" opacity="0.24"/><circle cx="1107.4" cy="99.3" r="2.81" fill="#d4862a" opacity="0.19"/><circle cx="1145.3" cy="103.2" r="2.79" fill="#d4862a" opacity="0.24"/><circle cx="1181.9" cy="101.2" r="1.70" fill="#d4862a" opacity="0.19"/><circle cx="28.2" cy="135.6" r="1.71" fill="#d4862a" opacity="0.23"/><circle cx="68.2" cy="138.4" r="2.15" fill="#d4862a" opacity="0.18"/><circle cx="101.9" cy="135.8" r="2.96" fill="#d4862a" opacity="0.23"/><circle cx="135.7" cy="137.2" r="2.93" fill="#d4862a" opacity="0.27"/><circle cx="173.3" cy="135.2" r="3.23" fill="#d4862a" opacity="0.23"/><circle cx="207.1" cy="139.1" r="3.54" fill="#d4862a" opacity="0.18"/><circle cx="248.1" cy="139.4" r="2.43" fill="#d4862a" opacity="0.35"/><circle cx="280.9" cy="136.1" r="2.48" fill="#d4862a" opacity="0.19"/><circle cx="317.6" cy="140.4" r="1.75" fill="#d4862a" opacity="0.27"/><circle cx="355.9" cy="140.9" r="3.24" fill="#d4862a" opacity="0.33"/><circle cx="389.4" cy="136.1" r="1.65" fill="#d4862a" opacity="0.27"/><circle cx="424.0" cy="137.8" r="3.93" fill="#d4862a" opacity="0.19"/><circle cx="464.8" cy="137.8" r="1.85" fill="#d4862a" opacity="0.32"/><circle cx="498.8" cy="138.6" r="2.50" fill="#d4862a" opacity="0.31"/><circle cx="536.3" cy="140.2" r="1.83" fill="#d4862a" opacity="0.23"/><circle cx="571.1" cy="135.9" r="3.45" fill="#d4862a" opacity="0.20"/><circle cx="604.0" cy="138.7" r="2.85" fill="#d4862a" opacity="0.24"/><circle cx="642.0" cy="135.7" r="1.93" fill="#d4862a" opacity="0.20"/><circle cx="680.0" cy="139.2" r="1.81" fill="#d4862a" opacity="0.26"/><circle cx="711.8" cy="136.7" r="3.38" fill="#d4862a" opacity="0.25"/><circle cx="748.3" cy="136.8" r="2.82" fill="#d4862a" opacity="0.34"/><circle cx="784.4" cy="136.7" r="2.79" fill="#d4862a" opacity="0.28"/><circle cx="820.5" cy="135.3" r="2.38" fill="#d4862a" opacity="0.17"/><circle cx="858.6" cy="138.0" r="1.95" fill="#d4862a" opacity="0.22"/><circle cx="894.8" cy="138.3" r="2.10" fill="#d4862a" opacity="0.23"/><circle cx="930.8" cy="140.3" r="2.85" fill="#d4862a" opacity="0.34"/><circle cx="967.7" cy="135.9" r="2.74" fill="#d4862a" opacity="0.15"/><circle cx="1001.4" cy="140.5" r="2.47" fill="#d4862a" opacity="0.33"/><circle cx="1038.1" cy="140.5" r="2.74" fill="#d4862a" opacity="0.33"/><circle cx="1071.9" cy="140.7" r="2.69" fill="#d4862a" opacity="0.33"/><circle cx="1112.2" cy="138.4" r="3.40" fill="#d4862a" opacity="0.19"/><circle cx="1143.6" cy="135.8" r="2.69" fill="#d4862a" opacity="0.30"/><circle cx="1182.4" cy="135.2" r="2.57" fill="#d4862a" opacity="0.18"/><circle cx="32.2" cy="173.0" r="2.13" fill="#d4862a" opacity="0.30"/><circle cx="65.7" cy="174.5" r="3.14" fill="#d4862a" opacity="0.22"/><circle cx="100.4" cy="172.9" r="3.18" fill="#d4862a" opacity="0.24"/><circle cx="137.5" cy="175.8" r="3.10" fill="#d4862a" opacity="0.34"/><circle cx="174.4" cy="174.9" r="1.76" fill="#d4862a" opacity="0.28"/><circle cx="208.3" cy="172.2" r="3.50" fill="#d4862a" opacity="0.30"/><circle cx="245.5" cy="172.2" r="1.93" fill="#d4862a" opacity="0.19"/><circle cx="281.6" cy="175.4" r="2.10" fill="#d4862a" opacity="0.19"/><circle cx="317.5" cy="171.1" r="3.77" fill="#d4862a" opacity="0.18"/><circle cx="351.4" cy="173.0" r="2.76" fill="#d4862a" opacity="0.17"/><circle cx="391.6" cy="173.2" r="2.80" fill="#d4862a" opacity="0.19"/><circle cx="424.7" cy="176.1" r="1.98" fill="#d4862a" opacity="0.26"/><circle cx="463.2" cy="175.9" r="3.56" fill="#d4862a" opacity="0.21"/><circle cx="495.1" cy="175.5" r="2.14" fill="#d4862a" opacity="0.27"/><circle cx="531.5" cy="174.9" r="3.86" fill="#d4862a" opacity="0.35"/><circle cx="570.5" cy="173.1" r="3.31" fill="#d4862a" opacity="0.28"/><circle cx="603.5" cy="171.3" r="2.15" fill="#d4862a" opacity="0.18"/><circle cx="642.9" cy="176.4" r="1.89" fill="#d4862a" opacity="0.36"/><circle cx="675.1" cy="171.2" r="3.34" fill="#d4862a" opacity="0.24"/><circle cx="711.1" cy="174.5" r="3.56" fill="#d4862a" opacity="0.19"/><circle cx="753.0" cy="175.3" r="3.16" fill="#d4862a" opacity="0.22"/><circle cx="785.4" cy="172.9" r="3.63" fill="#d4862a" opacity="0.25"/><circle cx="825.0" cy="172.5" r="3.30" fill="#d4862a" opacity="0.17"/><circle cx="859.1" cy="174.0" r="1.87" fill="#d4862a" opacity="0.19"/><circle cx="891.0" cy="174.6" r="2.01" fill="#d4862a" opacity="0.24"/><circle cx="931.2" cy="176.8" r="3.94" fill="#d4862a" opacity="0.20"/><circle cx="965.2" cy="172.6" r="2.45" fill="#d4862a" opacity="0.25"/><circle cx="1004.8" cy="173.5" r="2.76" fill="#d4862a" opacity="0.33"/><circle cx="1035.6" cy="173.7" r="2.03" fill="#d4862a" opacity="0.35"/><circle cx="1075.7" cy="175.7" r="3.95" fill="#d4862a" opacity="0.23"/><circle cx="1112.4" cy="173.7" r="2.81" fill="#d4862a" opacity="0.32"/><circle cx="1144.3" cy="171.8" r="2.73" fill="#d4862a" opacity="0.33"/><circle cx="1180.1" cy="171.4" r="2.19" fill="#d4862a" opacity="0.19"/><circle cx="28.2" cy="210.0" r="3.43" fill="#d4862a" opacity="0.15"/><circle cx="68.0" cy="209.6" r="3.93" fill="#d4862a" opacity="0.30"/><circle cx="99.9" cy="207.2" r="3.05" fill="#d4862a" opacity="0.26"/><circle cx="139.3" cy="208.7" r="2.17" fill="#d4862a" opacity="0.36"/><circle cx="175.0" cy="208.8" r="2.63" fill="#d4862a" opacity="0.16"/><circle cx="209.5" cy="210.2" r="1.83" fill="#d4862a" opacity="0.33"/><circle cx="243.1" cy="207.6" r="2.12" fill="#d4862a" opacity="0.22"/><circle cx="280.5" cy="212.2" r="3.65" fill="#d4862a" opacity="0.15"/><circle cx="320.2" cy="209.4" r="2.91" fill="#d4862a" opacity="0.28"/><circle cx="356.1" cy="210.1" r="3.23" fill="#d4862a" opacity="0.27"/><circle cx="389.6" cy="207.2" r="2.70" fill="#d4862a" opacity="0.15"/><circle cx="429.0" cy="207.7" r="3.93" fill="#d4862a" opacity="0.30"/><circle cx="461.6" cy="210.4" r="3.28" fill="#d4862a" opacity="0.19"/><circle cx="500.1" cy="209.8" r="3.18" fill="#d4862a" opacity="0.25"/><circle cx="537.0" cy="208.5" r="2.59" fill="#d4862a" opacity="0.24"/><circle cx="567.2" cy="207.1" r="3.77" fill="#d4862a" opacity="0.26"/><circle cx="605.1" cy="212.8" r="2.75" fill="#d4862a" opacity="0.22"/><circle cx="644.5" cy="210.9" r="2.25" fill="#d4862a" opacity="0.30"/><circle cx="678.2" cy="209.1" r="2.68" fill="#d4862a" opacity="0.32"/><circle cx="713.5" cy="209.2" r="1.68" fill="#d4862a" opacity="0.16"/><circle cx="751.7" cy="207.3" r="2.94" fill="#d4862a" opacity="0.25"/><circle cx="783.1" cy="207.7" r="3.52" fill="#d4862a" opacity="0.34"/><circle cx="824.2" cy="211.0" r="2.41" fill="#d4862a" opacity="0.35"/><circle cx="857.4" cy="209.7" r="3.03" fill="#d4862a" opacity="0.20"/><circle cx="894.4" cy="211.7" r="3.84" fill="#d4862a" opacity="0.26"/><circle cx="928.8" cy="208.8" r="3.98" fill="#d4862a" opacity="0.20"/><circle cx="967.7" cy="209.8" r="2.39" fill="#d4862a" opacity="0.19"/><circle cx="1003.6" cy="212.0" r="3.63" fill="#d4862a" opacity="0.36"/><circle cx="1035.1" cy="209.1" r="2.41" fill="#d4862a" opacity="0.21"/><circle cx="1071.5" cy="211.6" r="2.06" fill="#d4862a" opacity="0.16"/><circle cx="1110.5" cy="213.0" r="2.53" fill="#d4862a" opacity="0.16"/><circle cx="1143.4" cy="208.3" r="2.63" fill="#d4862a" opacity="0.28"/><circle cx="1184.0" cy="209.1" r="3.50" fill="#d4862a" opacity="0.33"/><circle cx="29.4" cy="245.4" r="2.48" fill="#d4862a" opacity="0.29"/><circle cx="68.3" cy="247.2" r="4.00" fill="#d4862a" opacity="0.31"/><circle cx="101.8" cy="247.1" r="3.41" fill="#d4862a" opacity="0.25"/><circle cx="136.7" cy="246.9" r="2.20" fill="#d4862a" opacity="0.32"/><circle cx="172.7" cy="246.1" r="3.93" fill="#d4862a" opacity="0.33"/><circle cx="212.9" cy="244.2" r="1.91" fill="#d4862a" opacity="0.32"/><circle cx="243.3" cy="246.1" r="3.69" fill="#d4862a" opacity="0.18"/><circle cx="282.7" cy="248.9" r="1.86" fill="#d4862a" opacity="0.25"/><circle cx="315.9" cy="245.7" r="1.91" fill="#d4862a" opacity="0.17"/><circle cx="356.9" cy="246.8" r="2.42" fill="#d4862a" opacity="0.19"/><circle cx="390.8" cy="247.5" r="2.06" fill="#d4862a" opacity="0.16"/><circle cx="427.0" cy="247.0" r="3.57" fill="#d4862a" opacity="0.32"/><circle cx="460.2" cy="248.5" r="3.77" fill="#d4862a" opacity="0.32"/><circle cx="500.8" cy="243.7" r="3.53" fill="#d4862a" opacity="0.35"/><circle cx="531.1" cy="247.5" r="3.41" fill="#d4862a" opacity="0.19"/><circle cx="567.4" cy="244.0" r="3.65" fill="#d4862a" opacity="0.29"/><circle cx="603.1" cy="246.4" r="3.94" fill="#d4862a" opacity="0.31"/><circle cx="640.4" cy="247.4" r="2.98" fill="#d4862a" opacity="0.25"/><circle cx="679.6" cy="247.9" r="3.62" fill="#d4862a" opacity="0.19"/><circle cx="712.4" cy="246.3" r="1.94" fill="#d4862a" opacity="0.34"/><circle cx="752.7" cy="246.3" r="3.54" fill="#d4862a" opacity="0.36"/><circle cx="787.1" cy="244.3" r="3.71" fill="#d4862a" opacity="0.29"/><circle cx="822.9" cy="243.9" r="3.73" fill="#d4862a" opacity="0.19"/><circle cx="857.3" cy="244.9" r="2.27" fill="#d4862a" opacity="0.32"/><circle cx="892.4" cy="247.9" r="2.59" fill="#d4862a" opacity="0.18"/><circle cx="928.8" cy="243.7" r="2.27" fill="#d4862a" opacity="0.19"/><circle cx="966.2" cy="243.3" r="2.43" fill="#d4862a" opacity="0.27"/><circle cx="1000.5" cy="246.9" r="2.38" fill="#d4862a" opacity="0.29"/><circle cx="1036.9" cy="244.5" r="2.91" fill="#d4862a" opacity="0.25"/><circle cx="1076.1" cy="245.1" r="3.42" fill="#d4862a" opacity="0.26"/><circle cx="1107.3" cy="244.5" r="3.43" fill="#d4862a" opacity="0.29"/><circle cx="1143.9" cy="245.5" r="3.93" fill="#d4862a" opacity="0.31"/><circle cx="1182.8" cy="245.3" r="3.87" fill="#d4862a" opacity="0.15"/><circle cx="27.9" cy="281.0" r="3.26" fill="#d4862a" opacity="0.26"/><circle cx="65.6" cy="280.9" r="3.60" fill="#d4862a" opacity="0.30"/><circle cx="100.9" cy="281.5" r="2.93" fill="#d4862a" opacity="0.27"/><circle cx="135.7" cy="284.8" r="3.78" fill="#d4862a" opacity="0.16"/><circle cx="176.8" cy="284.8" r="2.36" fill="#d4862a" opacity="0.30"/><circle cx="207.9" cy="281.9" r="3.93" fill="#d4862a" opacity="0.31"/><circle cx="247.6" cy="281.7" r="2.67" fill="#d4862a" opacity="0.28"/><circle cx="279.1" cy="282.7" r="2.96" fill="#d4862a" opacity="0.19"/><circle cx="318.3" cy="281.2" r="1.81" fill="#d4862a" opacity="0.20"/><circle cx="352.4" cy="281.3" r="3.83" fill="#d4862a" opacity="0.30"/><circle cx="389.8" cy="283.0" r="2.99" fill="#d4862a" opacity="0.34"/><circle cx="426.3" cy="283.2" r="1.91" fill="#d4862a" opacity="0.25"/><circle cx="464.7" cy="283.5" r="1.93" fill="#d4862a" opacity="0.23"/><circle cx="497.2" cy="280.8" r="2.38" fill="#d4862a" opacity="0.25"/><circle cx="533.3" cy="284.4" r="3.23" fill="#d4862a" opacity="0.18"/><circle cx="572.1" cy="283.2" r="2.38" fill="#d4862a" opacity="0.31"/><circle cx="608.3" cy="284.5" r="2.79" fill="#d4862a" opacity="0.21"/><circle cx="643.4" cy="281.1" r="3.82" fill="#d4862a" opacity="0.31"/><circle cx="680.5" cy="282.3" r="2.22" fill="#d4862a" opacity="0.30"/><circle cx="712.4" cy="280.8" r="1.81" fill="#d4862a" opacity="0.28"/><circle cx="752.8" cy="282.0" r="2.87" fill="#d4862a" opacity="0.18"/><circle cx="786.5" cy="282.2" r="2.26" fill="#d4862a" opacity="0.17"/><circle cx="819.2" cy="281.8" r="1.69" fill="#d4862a" opacity="0.17"/><circle cx="855.8" cy="279.8" r="3.99" fill="#d4862a" opacity="0.20"/><circle cx="894.1" cy="282.1" r="2.15" fill="#d4862a" opacity="0.36"/><circle cx="927.8" cy="281.8" r="2.16" fill="#d4862a" opacity="0.18"/><circle cx="963.6" cy="284.9" r="1.82" fill="#d4862a" opacity="0.16"/><circle cx="999.5" cy="279.6" r="2.97" fill="#d4862a" opacity="0.30"/><circle cx="1039.1" cy="280.6" r="3.37" fill="#d4862a" opacity="0.33"/><circle cx="1075.8" cy="280.0" r="2.67" fill="#d4862a" opacity="0.21"/><circle cx="1109.6" cy="282.9" r="2.58" fill="#d4862a" opacity="0.17"/><circle cx="1145.1" cy="279.2" r="1.71" fill="#d4862a" opacity="0.33"/><circle cx="1180.2" cy="279.6" r="3.09" fill="#d4862a" opacity="0.26"/><circle cx="29.0" cy="316.4" r="3.56" fill="#d4862a" opacity="0.18"/><circle cx="64.2" cy="319.3" r="1.71" fill="#d4862a" opacity="0.25"/><circle cx="100.8" cy="319.1" r="1.63" fill="#d4862a" opacity="0.15"/><circle cx="139.3" cy="318.5" r="3.83" fill="#d4862a" opacity="0.25"/><circle cx="176.3" cy="316.5" r="2.44" fill="#d4862a" opacity="0.33"/><circle cx="210.7" cy="316.6" r="1.65" fill="#d4862a" opacity="0.19"/><circle cx="243.8" cy="319.0" r="3.92" fill="#d4862a" opacity="0.32"/><circle cx="280.6" cy="318.5" r="2.35" fill="#d4862a" opacity="0.34"/><circle cx="315.2" cy="317.1" r="2.32" fill="#d4862a" opacity="0.31"/><circle cx="356.6" cy="320.8" r="2.58" fill="#d4862a" opacity="0.32"/><circle cx="391.8" cy="318.8" r="3.29" fill="#d4862a" opacity="0.33"/><circle cx="423.8" cy="318.1" r="3.48" fill="#d4862a" opacity="0.23"/><circle cx="461.8" cy="317.4" r="3.30" fill="#d4862a" opacity="0.24"/><circle cx="496.9" cy="319.1" r="2.73" fill="#d4862a" opacity="0.19"/><circle cx="534.7" cy="319.0" r="2.83" fill="#d4862a" opacity="0.25"/><circle cx="569.6" cy="317.4" r="3.25" fill="#d4862a" opacity="0.34"/><circle cx="607.8" cy="318.4" r="3.48" fill="#d4862a" opacity="0.30"/><circle cx="644.2" cy="320.9" r="2.72" fill="#d4862a" opacity="0.24"/><circle cx="679.3" cy="321.0" r="1.93" fill="#d4862a" opacity="0.33"/><circle cx="711.3" cy="316.9" r="3.09" fill="#d4862a" opacity="0.28"/><circle cx="750.0" cy="318.0" r="3.01" fill="#d4862a" opacity="0.30"/><circle cx="785.8" cy="320.1" r="2.08" fill="#d4862a" opacity="0.23"/><circle cx="821.5" cy="315.3" r="2.02" fill="#d4862a" opacity="0.30"/><circle cx="860.9" cy="318.2" r="3.46" fill="#d4862a" opacity="0.33"/><circle cx="893.5" cy="316.3" r="3.11" fill="#d4862a" opacity="0.20"/><circle cx="931.4" cy="319.8" r="3.68" fill="#d4862a" opacity="0.28"/><circle cx="966.0" cy="315.8" r="3.06" fill="#d4862a" opacity="0.22"/><circle cx="1004.6" cy="320.7" r="2.68" fill="#d4862a" opacity="0.26"/><circle cx="1040.1" cy="317.4" r="2.97" fill="#d4862a" opacity="0.25"/><circle cx="1074.7" cy="315.6" r="3.24" fill="#d4862a" opacity="0.23"/><circle cx="1109.8" cy="317.7" r="3.20" fill="#d4862a" opacity="0.26"/><circle cx="1146.8" cy="319.1" r="3.01" fill="#d4862a" opacity="0.31"/><circle cx="1184.5" cy="317.6" r="3.80" fill="#d4862a" opacity="0.32"/><circle cx="29.6" cy="353.8" r="1.61" fill="#d4862a" opacity="0.26"/><circle cx="65.9" cy="352.4" r="2.28" fill="#d4862a" opacity="0.25"/><circle cx="102.3" cy="355.9" r="1.67" fill="#d4862a" opacity="0.17"/><circle cx="136.0" cy="355.7" r="2.91" fill="#d4862a" opacity="0.34"/><circle cx="176.3" cy="352.8" r="2.65" fill="#d4862a" opacity="0.24"/><circle cx="210.0" cy="351.8" r="3.31" fill="#d4862a" opacity="0.24"/><circle cx="247.9" cy="355.0" r="2.58" fill="#d4862a" opacity="0.21"/><circle cx="285.0" cy="354.3" r="2.31" fill="#d4862a" opacity="0.34"/><circle cx="318.6" cy="355.7" r="3.99" fill="#d4862a" opacity="0.23"/><circle cx="352.8" cy="356.2" r="3.63" fill="#d4862a" opacity="0.17"/><circle cx="387.0" cy="351.2" r="1.68" fill="#d4862a" opacity="0.27"/><circle cx="428.4" cy="351.8" r="2.96" fill="#d4862a" opacity="0.32"/><circle cx="464.8" cy="353.3" r="3.51" fill="#d4862a" opacity="0.29"/><circle cx="498.0" cy="355.0" r="1.61" fill="#d4862a" opacity="0.27"/><circle cx="535.6" cy="355.1" r="2.64" fill="#d4862a" opacity="0.35"/><circle cx="569.5" cy="356.2" r="2.35" fill="#d4862a" opacity="0.33"/><circle cx="607.5" cy="353.9" r="2.63" fill="#d4862a" opacity="0.31"/><circle cx="641.0" cy="351.8" r="3.36" fill="#d4862a" opacity="0.24"/><circle cx="679.3" cy="352.9" r="2.78" fill="#d4862a" opacity="0.33"/><circle cx="716.3" cy="352.1" r="1.80" fill="#d4862a" opacity="0.21"/><circle cx="748.9" cy="355.7" r="2.86" fill="#d4862a" opacity="0.32"/><circle cx="786.6" cy="355.8" r="3.97" fill="#d4862a" opacity="0.18"/><circle cx="821.1" cy="353.6" r="2.61" fill="#d4862a" opacity="0.30"/><circle cx="857.1" cy="356.5" r="2.48" fill="#d4862a" opacity="0.27"/><circle cx="892.0" cy="355.1" r="3.86" fill="#d4862a" opacity="0.18"/><circle cx="929.5" cy="355.8" r="3.72" fill="#d4862a" opacity="0.35"/><circle cx="967.9" cy="354.1" r="3.62" fill="#d4862a" opacity="0.34"/><circle cx="1002.9" cy="354.6" r="2.11" fill="#d4862a" opacity="0.30"/><circle cx="1040.7" cy="351.8" r="2.54" fill="#d4862a" opacity="0.26"/><circle cx="1073.7" cy="356.1" r="1.70" fill="#d4862a" opacity="0.31"/><circle cx="1112.1" cy="351.9" r="3.81" fill="#d4862a" opacity="0.25"/><circle cx="1148.6" cy="356.4" r="1.92" fill="#d4862a" opacity="0.35"/><circle cx="1182.8" cy="352.6" r="2.85" fill="#d4862a" opacity="0.21"/><circle cx="27.6" cy="388.6" r="2.90" fill="#d4862a" opacity="0.17"/><circle cx="67.8" cy="389.7" r="1.90" fill="#d4862a" opacity="0.18"/><circle cx="101.6" cy="391.9" r="3.26" fill="#d4862a" opacity="0.20"/><circle cx="138.0" cy="388.8" r="2.07" fill="#d4862a" opacity="0.24"/><circle cx="171.2" cy="389.9" r="2.66" fill="#d4862a" opacity="0.26"/><circle cx="209.9" cy="387.2" r="2.43" fill="#d4862a" opacity="0.17"/><circle cx="246.6" cy="387.9" r="2.23" fill="#d4862a" opacity="0.35"/><circle cx="282.1" cy="389.1" r="3.79" fill="#d4862a" opacity="0.28"/><circle cx="317.8" cy="391.5" r="3.84" fill="#d4862a" opacity="0.23"/><circle cx="352.6" cy="391.7" r="2.87" fill="#d4862a" opacity="0.34"/><circle cx="387.2" cy="387.2" r="1.76" fill="#d4862a" opacity="0.16"/><circle cx="423.5" cy="387.2" r="3.17" fill="#d4862a" opacity="0.19"/><circle cx="464.3" cy="387.9" r="3.52" fill="#d4862a" opacity="0.33"/><circle cx="496.0" cy="389.7" r="2.14" fill="#d4862a" opacity="0.22"/><circle cx="535.4" cy="391.3" r="1.71" fill="#d4862a" opacity="0.33"/><circle cx="570.5" cy="391.7" r="2.65" fill="#d4862a" opacity="0.33"/><circle cx="607.7" cy="390.1" r="2.31" fill="#d4862a" opacity="0.21"/><circle cx="643.7" cy="390.8" r="1.77" fill="#d4862a" opacity="0.17"/><circle cx="677.6" cy="387.9" r="1.87" fill="#d4862a" opacity="0.18"/><circle cx="712.5" cy="391.2" r="2.63" fill="#d4862a" opacity="0.31"/><circle cx="750.2" cy="388.1" r="2.40" fill="#d4862a" opacity="0.25"/><circle cx="783.9" cy="389.7" r="3.02" fill="#d4862a" opacity="0.30"/><circle cx="820.6" cy="389.4" r="3.60" fill="#d4862a" opacity="0.25"/><circle cx="857.5" cy="387.5" r="3.71" fill="#d4862a" opacity="0.20"/><circle cx="893.9" cy="389.7" r="2.61" fill="#d4862a" opacity="0.32"/><circle cx="927.1" cy="390.7" r="2.05" fill="#d4862a" opacity="0.35"/><circle cx="965.0" cy="389.6" r="1.77" fill="#d4862a" opacity="0.35"/><circle cx="1002.7" cy="391.9" r="3.13" fill="#d4862a" opacity="0.27"/><circle cx="1040.0" cy="391.1" r="1.62" fill="#d4862a" opacity="0.30"/><circle cx="1073.9" cy="390.7" r="2.13" fill="#d4862a" opacity="0.18"/><circle cx="1109.7" cy="388.6" r="3.17" fill="#d4862a" opacity="0.35"/><circle cx="1147.1" cy="389.4" r="3.46" fill="#d4862a" opacity="0.19"/><circle cx="1182.0" cy="389.7" r="2.08" fill="#d4862a" opacity="0.24"/><circle cx="28.9" cy="429.0" r="2.60" fill="#d4862a" opacity="0.22"/><circle cx="63.6" cy="424.4" r="1.71" fill="#d4862a" opacity="0.31"/><circle cx="103.4" cy="426.5" r="2.24" fill="#d4862a" opacity="0.35"/><circle cx="137.1" cy="423.6" r="1.98" fill="#d4862a" opacity="0.19"/><circle cx="176.4" cy="423.7" r="2.70" fill="#d4862a" opacity="0.36"/><circle cx="210.4" cy="425.2" r="2.32" fill="#d4862a" opacity="0.15"/><circle cx="246.4" cy="426.0" r="2.75" fill="#d4862a" opacity="0.18"/><circle cx="283.6" cy="427.1" r="3.91" fill="#d4862a" opacity="0.20"/><circle cx="315.8" cy="424.4" r="2.18" fill="#d4862a" opacity="0.17"/><circle cx="355.2" cy="425.8" r="1.62" fill="#d4862a" opacity="0.32"/><circle cx="390.2" cy="426.4" r="3.03" fill="#d4862a" opacity="0.31"/><circle cx="426.4" cy="428.4" r="2.73" fill="#d4862a" opacity="0.29"/><circle cx="459.7" cy="428.0" r="3.66" fill="#d4862a" opacity="0.21"/><circle cx="499.5" cy="427.1" r="3.31" fill="#d4862a" opacity="0.35"/><circle cx="531.3" cy="427.4" r="2.18" fill="#d4862a" opacity="0.23"/><circle cx="572.8" cy="427.7" r="3.88" fill="#d4862a" opacity="0.25"/><circle cx="603.5" cy="427.6" r="1.93" fill="#d4862a" opacity="0.32"/><circle cx="642.0" cy="423.6" r="1.92" fill="#d4862a" opacity="0.21"/><circle cx="678.9" cy="426.6" r="3.31" fill="#d4862a" opacity="0.27"/><circle cx="714.1" cy="428.6" r="3.69" fill="#d4862a" opacity="0.36"/><circle cx="748.6" cy="428.6" r="2.28" fill="#d4862a" opacity="0.18"/><circle cx="787.7" cy="426.8" r="2.38" fill="#d4862a" opacity="0.31"/><circle cx="820.7" cy="427.7" r="3.78" fill="#d4862a" opacity="0.36"/><circle cx="856.5" cy="427.6" r="3.65" fill="#d4862a" opacity="0.16"/><circle cx="892.1" cy="423.4" r="3.35" fill="#d4862a" opacity="0.29"/><circle cx="929.8" cy="426.5" r="1.84" fill="#d4862a" opacity="0.33"/><circle cx="963.2" cy="427.0" r="2.57" fill="#d4862a" opacity="0.31"/><circle cx="1004.6" cy="423.2" r="3.81" fill="#d4862a" opacity="0.23"/><circle cx="1037.0" cy="424.5" r="2.88" fill="#d4862a" opacity="0.33"/><circle cx="1072.1" cy="428.3" r="1.74" fill="#d4862a" opacity="0.34"/><circle cx="1111.4" cy="427.9" r="3.62" fill="#d4862a" opacity="0.34"/><circle cx="1146.3" cy="424.7" r="2.85" fill="#d4862a" opacity="0.35"/><circle cx="1181.9" cy="427.9" r="1.64" fill="#d4862a" opacity="0.17"/><circle cx="27.7" cy="460.3" r="1.69" fill="#d4862a" opacity="0.32"/><circle cx="63.3" cy="460.9" r="2.54" fill="#d4862a" opacity="0.21"/><circle cx="102.3" cy="463.9" r="1.94" fill="#d4862a" opacity="0.18"/><circle cx="139.6" cy="459.4" r="3.60" fill="#d4862a" opacity="0.26"/><circle cx="172.1" cy="463.1" r="1.69" fill="#d4862a" opacity="0.21"/><circle cx="210.8" cy="460.7" r="2.51" fill="#d4862a" opacity="0.20"/><circle cx="244.9" cy="459.5" r="2.56" fill="#d4862a" opacity="0.29"/><circle cx="279.2" cy="459.5" r="3.88" fill="#d4862a" opacity="0.26"/><circle cx="318.6" cy="461.1" r="3.49" fill="#d4862a" opacity="0.26"/><circle cx="351.7" cy="462.2" r="2.78" fill="#d4862a" opacity="0.31"/><circle cx="389.1" cy="462.0" r="3.07" fill="#d4862a" opacity="0.21"/><circle cx="426.2" cy="462.4" r="2.29" fill="#d4862a" opacity="0.20"/><circle cx="464.6" cy="463.9" r="2.40" fill="#d4862a" opacity="0.35"/><circle cx="498.8" cy="461.2" r="1.71" fill="#d4862a" opacity="0.29"/><circle cx="532.6" cy="459.0" r="2.07" fill="#d4862a" opacity="0.17"/><circle cx="571.6" cy="463.5" r="3.15" fill="#d4862a" opacity="0.34"/><circle cx="606.6" cy="461.3" r="3.57" fill="#d4862a" opacity="0.15"/><circle cx="641.5" cy="460.2" r="2.34" fill="#d4862a" opacity="0.24"/><circle cx="676.4" cy="460.9" r="3.98" fill="#d4862a" opacity="0.31"/><circle cx="714.8" cy="463.0" r="3.81" fill="#d4862a" opacity="0.16"/><circle cx="752.4" cy="462.8" r="2.24" fill="#d4862a" opacity="0.18"/><circle cx="788.6" cy="462.2" r="3.92" fill="#d4862a" opacity="0.34"/><circle cx="821.0" cy="460.6" r="3.53" fill="#d4862a" opacity="0.22"/><circle cx="857.3" cy="459.3" r="2.60" fill="#d4862a" opacity="0.24"/><circle cx="892.3" cy="463.1" r="2.23" fill="#d4862a" opacity="0.29"/><circle cx="927.4" cy="462.7" r="1.71" fill="#d4862a" opacity="0.28"/><circle cx="966.7" cy="464.1" r="2.50" fill="#d4862a" opacity="0.33"/><circle cx="999.9" cy="460.2" r="2.71" fill="#d4862a" opacity="0.32"/><circle cx="1036.3" cy="460.8" r="2.82" fill="#d4862a" opacity="0.16"/><circle cx="1073.0" cy="460.5" r="3.65" fill="#d4862a" opacity="0.23"/><circle cx="1107.3" cy="460.7" r="2.96" fill="#d4862a" opacity="0.34"/><circle cx="1148.4" cy="461.3" r="2.75" fill="#d4862a" opacity="0.24"/><circle cx="1182.8" cy="461.3" r="3.14" fill="#d4862a" opacity="0.34"/><circle cx="27.8" cy="497.5" r="2.08" fill="#d4862a" opacity="0.29"/><circle cx="66.3" cy="499.5" r="3.71" fill="#d4862a" opacity="0.27"/><circle cx="103.1" cy="500.2" r="1.76" fill="#d4862a" opacity="0.31"/><circle cx="135.3" cy="500.8" r="1.70" fill="#d4862a" opacity="0.32"/><circle cx="171.7" cy="498.6" r="2.11" fill="#d4862a" opacity="0.32"/><circle cx="208.1" cy="495.5" r="3.11" fill="#d4862a" opacity="0.33"/><circle cx="248.8" cy="500.3" r="2.04" fill="#d4862a" opacity="0.34"/><circle cx="284.4" cy="496.1" r="2.75" fill="#d4862a" opacity="0.35"/><circle cx="316.8" cy="497.2" r="2.12" fill="#d4862a" opacity="0.26"/><circle cx="351.7" cy="499.0" r="3.66" fill="#d4862a" opacity="0.24"/><circle cx="388.4" cy="499.1" r="2.84" fill="#d4862a" opacity="0.29"/><circle cx="423.4" cy="496.6" r="3.81" fill="#d4862a" opacity="0.19"/><circle cx="462.6" cy="496.6" r="3.12" fill="#d4862a" opacity="0.18"/><circle cx="499.7" cy="499.0" r="2.57" fill="#d4862a" opacity="0.27"/><circle cx="533.8" cy="499.8" r="2.81" fill="#d4862a" opacity="0.20"/><circle cx="568.9" cy="497.7" r="1.92" fill="#d4862a" opacity="0.28"/><circle cx="607.2" cy="498.2" r="2.32" fill="#d4862a" opacity="0.29"/><circle cx="642.4" cy="500.9" r="3.49" fill="#d4862a" opacity="0.29"/><circle cx="679.5" cy="497.3" r="2.56" fill="#d4862a" opacity="0.29"/><circle cx="714.5" cy="500.0" r="2.53" fill="#d4862a" opacity="0.17"/><circle cx="752.4" cy="498.0" r="2.95" fill="#d4862a" opacity="0.25"/><circle cx="786.5" cy="497.9" r="2.30" fill="#d4862a" opacity="0.32"/><circle cx="824.4" cy="498.8" r="2.49" fill="#d4862a" opacity="0.36"/><circle cx="855.9" cy="498.4" r="2.03" fill="#d4862a" opacity="0.33"/><circle cx="895.5" cy="497.9" r="1.99" fill="#d4862a" opacity="0.20"/><circle cx="928.2" cy="497.9" r="3.97" fill="#d4862a" opacity="0.31"/><circle cx="965.2" cy="499.1" r="2.96" fill="#d4862a" opacity="0.35"/><circle cx="1000.5" cy="499.8" r="2.58" fill="#d4862a" opacity="0.18"/><circle cx="1040.5" cy="496.9" r="2.60" fill="#d4862a" opacity="0.23"/><circle cx="1076.5" cy="498.4" r="3.59" fill="#d4862a" opacity="0.33"/><circle cx="1110.0" cy="500.7" r="1.81" fill="#d4862a" opacity="0.17"/><circle cx="1148.4" cy="499.5" r="1.71" fill="#d4862a" opacity="0.16"/><circle cx="1180.8" cy="496.5" r="3.81" fill="#d4862a" opacity="0.28"/><circle cx="27.7" cy="531.2" r="2.67" fill="#d4862a" opacity="0.26"/><circle cx="65.5" cy="534.3" r="2.33" fill="#d4862a" opacity="0.34"/><circle cx="103.9" cy="532.4" r="2.76" fill="#d4862a" opacity="0.26"/><circle cx="135.2" cy="532.1" r="3.59" fill="#d4862a" opacity="0.31"/><circle cx="172.3" cy="532.3" r="2.12" fill="#d4862a" opacity="0.28"/><circle cx="212.5" cy="533.7" r="2.72" fill="#d4862a" opacity="0.33"/><circle cx="248.3" cy="531.1" r="3.65" fill="#d4862a" opacity="0.16"/><circle cx="280.1" cy="535.2" r="1.87" fill="#d4862a" opacity="0.17"/><circle cx="318.0" cy="533.0" r="3.33" fill="#d4862a" opacity="0.22"/><circle cx="354.7" cy="534.9" r="3.52" fill="#d4862a" opacity="0.34"/><circle cx="387.1" cy="533.7" r="3.14" fill="#d4862a" opacity="0.19"/><circle cx="426.8" cy="536.6" r="3.75" fill="#d4862a" opacity="0.29"/><circle cx="459.3" cy="532.9" r="2.06" fill="#d4862a" opacity="0.17"/><circle cx="497.0" cy="534.5" r="1.62" fill="#d4862a" opacity="0.35"/><circle cx="534.2" cy="531.8" r="2.37" fill="#d4862a" opacity="0.28"/><circle cx="567.7" cy="533.7" r="3.31" fill="#d4862a" opacity="0.26"/><circle cx="608.8" cy="535.4" r="2.94" fill="#d4862a" opacity="0.24"/><circle cx="641.6" cy="536.4" r="3.07" fill="#d4862a" opacity="0.30"/><circle cx="675.6" cy="532.9" r="3.59" fill="#d4862a" opacity="0.29"/><circle cx="711.8" cy="532.7" r="2.96" fill="#d4862a" opacity="0.35"/><circle cx="751.0" cy="534.2" r="2.50" fill="#d4862a" opacity="0.29"/><circle cx="788.0" cy="535.9" r="2.97" fill="#d4862a" opacity="0.23"/><circle cx="821.3" cy="534.4" r="2.86" fill="#d4862a" opacity="0.15"/><circle cx="859.6" cy="532.7" r="1.99" fill="#d4862a" opacity="0.17"/><circle cx="893.1" cy="536.7" r="1.90" fill="#d4862a" opacity="0.15"/><circle cx="929.8" cy="531.4" r="1.97" fill="#d4862a" opacity="0.26"/><circle cx="965.1" cy="531.7" r="2.48" fill="#d4862a" opacity="0.35"/><circle cx="999.6" cy="536.3" r="3.81" fill="#d4862a" opacity="0.21"/><circle cx="1040.8" cy="531.2" r="2.21" fill="#d4862a" opacity="0.18"/><circle cx="1074.5" cy="532.5" r="2.42" fill="#d4862a" opacity="0.27"/><circle cx="1109.8" cy="535.2" r="2.68" fill="#d4862a" opacity="0.25"/><circle cx="1144.0" cy="533.8" r="3.00" fill="#d4862a" opacity="0.16"/><circle cx="1179.7" cy="533.0" r="3.75" fill="#d4862a" opacity="0.36"/><circle cx="30.6" cy="570.8" r="3.13" fill="#d4862a" opacity="0.19"/><circle cx="65.6" cy="567.3" r="1.90" fill="#d4862a" opacity="0.16"/><circle cx="100.3" cy="571.8" r="3.69" fill="#d4862a" opacity="0.30"/><circle cx="140.6" cy="572.9" r="3.28" fill="#d4862a" opacity="0.24"/><circle cx="172.4" cy="572.2" r="1.62" fill="#d4862a" opacity="0.35"/><circle cx="210.6" cy="569.2" r="3.14" fill="#d4862a" opacity="0.20"/><circle cx="245.7" cy="568.8" r="1.62" fill="#d4862a" opacity="0.26"/><circle cx="284.8" cy="569.8" r="1.91" fill="#d4862a" opacity="0.36"/><circle cx="318.9" cy="568.2" r="1.60" fill="#d4862a" opacity="0.26"/><circle cx="352.6" cy="569.6" r="3.46" fill="#d4862a" opacity="0.18"/><circle cx="389.0" cy="572.0" r="2.85" fill="#d4862a" opacity="0.33"/><circle cx="427.3" cy="567.9" r="1.82" fill="#d4862a" opacity="0.33"/><circle cx="461.1" cy="571.3" r="3.08" fill="#d4862a" opacity="0.32"/><circle cx="498.9" cy="570.0" r="2.54" fill="#d4862a" opacity="0.20"/><circle cx="535.1" cy="570.7" r="2.79" fill="#d4862a" opacity="0.16"/><circle cx="569.7" cy="571.7" r="1.75" fill="#d4862a" opacity="0.33"/><circle cx="605.9" cy="571.0" r="2.22" fill="#d4862a" opacity="0.27"/><circle cx="642.7" cy="571.8" r="3.44" fill="#d4862a" opacity="0.16"/><circle cx="677.2" cy="567.4" r="3.99" fill="#d4862a" opacity="0.21"/><circle cx="714.1" cy="567.4" r="2.49" fill="#d4862a" opacity="0.34"/><circle cx="751.5" cy="572.0" r="2.99" fill="#d4862a" opacity="0.21"/><circle cx="783.4" cy="568.4" r="2.15" fill="#d4862a" opacity="0.17"/><circle cx="822.9" cy="570.0" r="2.03" fill="#d4862a" opacity="0.32"/><circle cx="855.2" cy="572.1" r="2.46" fill="#d4862a" opacity="0.28"/><circle cx="895.6" cy="571.7" r="3.54" fill="#d4862a" opacity="0.24"/><circle cx="929.5" cy="572.1" r="3.00" fill="#d4862a" opacity="0.30"/><circle cx="965.9" cy="570.1" r="2.72" fill="#d4862a" opacity="0.25"/><circle cx="1000.1" cy="570.8" r="1.92" fill="#d4862a" opacity="0.30"/><circle cx="1036.0" cy="572.2" r="1.60" fill="#d4862a" opacity="0.32"/><circle cx="1075.0" cy="570.5" r="1.97" fill="#d4862a" opacity="0.19"/><circle cx="1111.4" cy="572.3" r="3.28" fill="#d4862a" opacity="0.33"/><circle cx="1148.3" cy="571.5" r="1.61" fill="#d4862a" opacity="0.31"/><circle cx="1180.6" cy="571.0" r="2.85" fill="#d4862a" opacity="0.26"/><circle cx="28.0" cy="606.0" r="1.81" fill="#d4862a" opacity="0.23"/><circle cx="63.8" cy="605.3" r="2.60" fill="#d4862a" opacity="0.15"/><circle cx="102.6" cy="608.6" r="3.77" fill="#d4862a" opacity="0.20"/><circle cx="135.6" cy="605.6" r="2.78" fill="#d4862a" opacity="0.17"/><circle cx="175.2" cy="604.1" r="2.88" fill="#d4862a" opacity="0.21"/><circle cx="209.8" cy="605.4" r="3.22" fill="#d4862a" opacity="0.36"/><circle cx="243.3" cy="604.5" r="2.38" fill="#d4862a" opacity="0.33"/><circle cx="284.0" cy="605.0" r="1.86" fill="#d4862a" opacity="0.29"/><circle cx="320.4" cy="604.3" r="1.69" fill="#d4862a" opacity="0.22"/><circle cx="354.9" cy="606.2" r="3.44" fill="#d4862a" opacity="0.28"/><circle cx="392.2" cy="603.0" r="1.73" fill="#d4862a" opacity="0.31"/><circle cx="428.0" cy="606.8" r="2.50" fill="#d4862a" opacity="0.27"/><circle cx="463.5" cy="607.7" r="1.97" fill="#d4862a" opacity="0.32"/><circle cx="500.0" cy="605.8" r="2.01" fill="#d4862a" opacity="0.35"/><circle cx="534.8" cy="603.2" r="2.96" fill="#d4862a" opacity="0.34"/><circle cx="568.9" cy="605.4" r="2.63" fill="#d4862a" opacity="0.31"/><circle cx="608.6" cy="603.5" r="1.91" fill="#d4862a" opacity="0.16"/><circle cx="643.8" cy="604.5" r="3.40" fill="#d4862a" opacity="0.32"/><circle cx="679.3" cy="607.9" r="3.38" fill="#d4862a" opacity="0.35"/><circle cx="716.6" cy="605.2" r="2.53" fill="#d4862a" opacity="0.24"/><circle cx="749.8" cy="606.5" r="2.10" fill="#d4862a" opacity="0.20"/><circle cx="783.7" cy="604.1" r="1.68" fill="#d4862a" opacity="0.22"/><circle cx="821.7" cy="603.3" r="2.09" fill="#d4862a" opacity="0.21"/><circle cx="855.7" cy="608.8" r="2.73" fill="#d4862a" opacity="0.25"/><circle cx="894.0" cy="603.4" r="3.76" fill="#d4862a" opacity="0.15"/><circle cx="932.1" cy="606.1" r="2.44" fill="#d4862a" opacity="0.20"/><circle cx="968.3" cy="608.3" r="2.01" fill="#d4862a" opacity="0.19"/><circle cx="1002.3" cy="603.8" r="3.00" fill="#d4862a" opacity="0.21"/><circle cx="1040.1" cy="605.3" r="1.72" fill="#d4862a" opacity="0.35"/><circle cx="1076.6" cy="603.1" r="3.04" fill="#d4862a" opacity="0.26"/><circle cx="1108.2" cy="607.5" r="3.70" fill="#d4862a" opacity="0.18"/><circle cx="1147.4" cy="605.4" r="2.17" fill="#d4862a" opacity="0.26"/><circle cx="1181.9" cy="603.2" r="2.75" fill="#d4862a" opacity="0.35"/><circle cx="27.7" cy="640.1" r="2.69" fill="#d4862a" opacity="0.34"/><circle cx="66.8" cy="641.8" r="3.84" fill="#d4862a" opacity="0.23"/><circle cx="99.2" cy="644.2" r="2.59" fill="#d4862a" opacity="0.21"/><circle cx="137.2" cy="641.9" r="2.91" fill="#d4862a" opacity="0.31"/><circle cx="176.5" cy="641.6" r="2.61" fill="#d4862a" opacity="0.25"/><circle cx="210.5" cy="640.5" r="3.50" fill="#d4862a" opacity="0.16"/><circle cx="245.3" cy="641.2" r="2.15" fill="#d4862a" opacity="0.33"/><circle cx="282.3" cy="644.2" r="3.79" fill="#d4862a" opacity="0.25"/><circle cx="315.8" cy="640.3" r="3.22" fill="#d4862a" opacity="0.20"/><circle cx="353.0" cy="644.1" r="2.31" fill="#d4862a" opacity="0.15"/><circle cx="388.3" cy="639.0" r="1.60" fill="#d4862a" opacity="0.25"/><circle cx="425.7" cy="642.8" r="3.60" fill="#d4862a" opacity="0.25"/><circle cx="459.6" cy="644.9" r="1.63" fill="#d4862a" opacity="0.23"/><circle cx="496.7" cy="640.4" r="1.92" fill="#d4862a" opacity="0.30"/><circle cx="536.0" cy="641.9" r="3.61" fill="#d4862a" opacity="0.17"/><circle cx="568.6" cy="644.0" r="2.15" fill="#d4862a" opacity="0.33"/><circle cx="605.8" cy="643.3" r="1.74" fill="#d4862a" opacity="0.18"/><circle cx="640.5" cy="641.0" r="1.80" fill="#d4862a" opacity="0.20"/><circle cx="679.5" cy="643.4" r="1.98" fill="#d4862a" opacity="0.33"/><circle cx="712.7" cy="644.9" r="2.81" fill="#d4862a" opacity="0.21"/><circle cx="750.2" cy="640.9" r="3.28" fill="#d4862a" opacity="0.24"/><circle cx="783.8" cy="644.3" r="2.27" fill="#d4862a" opacity="0.26"/><circle cx="822.4" cy="643.8" r="3.13" fill="#d4862a" opacity="0.18"/><circle cx="858.7" cy="642.4" r="2.95" fill="#d4862a" opacity="0.18"/><circle cx="894.4" cy="640.9" r="3.53" fill="#d4862a" opacity="0.15"/><circle cx="929.7" cy="644.4" r="1.85" fill="#d4862a" opacity="0.36"/><circle cx="963.8" cy="642.9" r="2.06" fill="#d4862a" opacity="0.29"/><circle cx="1000.4" cy="640.1" r="1.95" fill="#d4862a" opacity="0.28"/><circle cx="1036.0" cy="640.8" r="2.36" fill="#d4862a" opacity="0.31"/><circle cx="1075.6" cy="639.6" r="2.94" fill="#d4862a" opacity="0.26"/><circle cx="1110.7" cy="641.7" r="2.68" fill="#d4862a" opacity="0.19"/><circle cx="1143.8" cy="640.4" r="3.14" fill="#d4862a" opacity="0.25"/><circle cx="1180.7" cy="642.2" r="3.13" fill="#d4862a" opacity="0.23"/><circle cx="245.4" cy="230.9" r="220" fill="url(#glow)" opacity="0.9"/>
  <g opacity="0.85" transform="translate(1020, 495)">
        <circle r="60" fill="#d4862a" opacity="0.18"/>
        <path d="M -34 6 Q -10 -22 14 6 Q 34 24 14 26 L -22 26 Q -38 24 -34 6 Z" fill="none" stroke="#bd6b20" stroke-width="3" stroke-linejoin="round"/>
      </g>
  <g transform="translate(80, 90)">
    <rect x="0" y="0" rx="20" ry="20" width="134" height="38" fill="#d4862a" opacity="0.18" stroke="#d4862a" stroke-width="1.5"/>
    <text x="67" y="25" font-family="ui-sans-serif, Inter, sans-serif" font-weight="700" font-size="14" letter-spacing="2.5" fill="#d4862a" text-anchor="middle">CASE STUDY</text>
  </g>
  <text x="80" y="465" font-family="ui-sans-serif, -apple-system, Segoe UI, Inter, sans-serif" font-weight="800" font-size="44" fill="#faf8f5" opacity="0.98"><tspan x="80" dy="0">Resolving a Small Business</tspan><tspan x="80" dy="56">Loan Dispute: A Case Study</tspan><tspan x="80" dy="56">of Recovery and Redemption</tspan></text>
  <rect x="0" y="669" width="1200" height="6" fill="url(#gold)"/>
</svg>