<?xml version="1.0" encoding="UTF-8"?>
<svg xmlns="http://www.w3.org/2000/svg" viewBox="0 0 1200 675" width="1200" height="675" role="img" aria-label="NBFC NPA Issues: Faster Loan Recovery with PDR COURT">
  <defs>
    <linearGradient id="bg" x1="0%" y1="0%" x2="100%" y2="100%">
      <stop offset="0%" stop-color="#532d15"/>
      <stop offset="100%" stop-color="#bd6b20"/>
    </linearGradient>
    <linearGradient id="gold" x1="0%" y1="0%" x2="100%" y2="100%">
      <stop offset="0%" stop-color="#e09440"/>
      <stop offset="100%" stop-color="#fdf6ee"/>
    </linearGradient>
    <radialGradient id="glow" cx="50%" cy="50%" r="50%">
      <stop offset="0%" stop-color="#e09440" stop-opacity="0.45"/>
      <stop offset="100%" stop-color="#e09440" stop-opacity="0"/>
    </radialGradient>
  </defs>
  <rect width="1200" height="675" fill="url(#bg)"/>
  <polygon points="228.9,270.2 262.0,368.0 179.3,429.6 95.1,370.0 125.8,271.5" fill="#fdf6ee" opacity="0.09"/><polygon points="797.9,556.2 849.2,618.9 786.6,670.2 735.3,607.5" fill="#fdf6ee" opacity="0.17"/><polygon points="1166.1,86.8 1087.6,185.8 988.6,107.3 1067.1,8.3" fill="#fdf6ee" opacity="0.06"/><polygon points="328.0,768.2 126.9,769.8 125.4,568.7 326.5,567.1" fill="#fdf6ee" opacity="0.15"/><polygon points="696.5,-24.0 746.1,207.2 521.2,134.6" fill="#fdf6ee" opacity="0.09"/><polygon points="754.0,261.8 914.8,174.7 1047.4,300.8 968.4,465.8 787.1,441.7" fill="#fdf6ee" opacity="0.11"/><polygon points="843.1,539.3 1053.8,580.1 913.1,742.2" fill="#fdf6ee" opacity="0.15"/><polygon points="627.6,467.5 768.1,464.4 814.4,597.1 702.5,682.1 587.1,602.0" fill="#fdf6ee" opacity="0.09"/><polygon points="613.7,637.4 731.8,492.4 798.3,667.1" fill="#fdf6ee" opacity="0.11"/><polygon points="385.4,45.2 524.7,303.4 231.4,295.0" fill="#fdf6ee" opacity="0.18"/><polygon points="873.9,549.4 716.2,595.0 755.6,435.7" fill="#fdf6ee" opacity="0.08"/><polygon points="525.3,63.0 413.2,110.8 333.1,19.1 395.6,-85.5 514.4,-58.4" fill="#fdf6ee" opacity="0.08"/><polygon points="503.9,567.7 586.0,358.2 726.4,534.0" fill="#fdf6ee" opacity="0.18"/><polygon points="1153.0,702.4 1053.8,531.7 1224.4,432.5 1323.7,603.1" fill="#fdf6ee" opacity="0.17"/><circle cx="936.0" cy="202.5" r="180" fill="url(#glow)"/>
  <g opacity="0.85" transform="translate(1020, 495)">
        <polygon points="0,-50 43,25 -43,25" fill="none" stroke="#e09440" stroke-width="2"/>
        <polygon points="0,-30 26,15 -26,15" fill="#fdf6ee" opacity="0.4"/>
      </g>
  <g transform="translate(80, 90)">
    <rect x="0" y="0" rx="20" ry="20" width="145" height="38" fill="#e09440" opacity="0.18" stroke="#e09440" stroke-width="1.5"/>
    <text x="72.5" y="25" font-family="ui-sans-serif, Inter, sans-serif" font-weight="700" font-size="14" letter-spacing="2.5" fill="#e09440" text-anchor="middle">INFORMATION</text>
  </g>
  <text x="80" y="465" font-family="ui-sans-serif, -apple-system, Segoe UI, Inter, sans-serif" font-weight="800" font-size="44" fill="#faf8f5" opacity="0.98"><tspan x="80" dy="0">NBFC NPA Issues: Faster</tspan><tspan x="80" dy="56">Loan Recovery with PDR</tspan><tspan x="80" dy="56">COURT</tspan></text>
  <rect x="0" y="669" width="1200" height="6" fill="url(#gold)"/>
</svg>