<?xml version="1.0" encoding="UTF-8"?>
<svg xmlns="http://www.w3.org/2000/svg" viewBox="0 0 1200 675" width="1200" height="675" role="img" aria-label="NBFC Dispute Resolution: Successful Mediation and Settlement for Unsecured Loan Default">
  <defs>
    <linearGradient id="bg" x1="0%" y1="0%" x2="100%" y2="100%">
      <stop offset="0%" stop-color="#643516"/>
      <stop offset="100%" stop-color="#7d4315"/>
    </linearGradient>
    <linearGradient id="gold" x1="0%" y1="0%" x2="100%" y2="100%">
      <stop offset="0%" stop-color="#ecb478"/>
      <stop offset="100%" stop-color="#faebd6"/>
    </linearGradient>
    <radialGradient id="glow" cx="50%" cy="50%" r="50%">
      <stop offset="0%" stop-color="#ecb478" stop-opacity="0.45"/>
      <stop offset="100%" stop-color="#ecb478" stop-opacity="0"/>
    </radialGradient>
  </defs>
  <rect width="1200" height="675" fill="url(#bg)"/>
  <rect x="-673.4" y="-80" width="112.5" height="875" transform="rotate(18 -673.4 337.5)" fill="#ecb478" opacity="0.15"/><rect x="-508.5" y="-80" width="88.4" height="875" transform="rotate(18 -508.5 337.5)" fill="#ecb478" opacity="0.19"/><rect x="-337.8" y="-80" width="82.3" height="875" transform="rotate(18 -337.8 337.5)" fill="#ecb478" opacity="0.14"/><rect x="-130.8" y="-80" width="110.4" height="875" transform="rotate(18 -130.8 337.5)" fill="#ecb478" opacity="0.06"/><rect x="68.0" y="-80" width="86.3" height="875" transform="rotate(18 68.0 337.5)" fill="#ecb478" opacity="0.08"/><rect x="217.8" y="-80" width="105.4" height="875" transform="rotate(18 217.8 337.5)" fill="#ecb478" opacity="0.14"/><rect x="381.4" y="-80" width="134.0" height="875" transform="rotate(18 381.4 337.5)" fill="#ecb478" opacity="0.16"/><rect x="555.0" y="-80" width="129.8" height="875" transform="rotate(18 555.0 337.5)" fill="#ecb478" opacity="0.09"/><rect x="730.4" y="-80" width="72.4" height="875" transform="rotate(18 730.4 337.5)" fill="#ecb478" opacity="0.17"/><rect x="933.4" y="-80" width="87.1" height="875" transform="rotate(18 933.4 337.5)" fill="#ecb478" opacity="0.10"/><rect x="1095.5" y="-80" width="116.7" height="875" transform="rotate(18 1095.5 337.5)" fill="#ecb478" opacity="0.11"/><rect x="1318.1" y="-80" width="64.6" height="875" transform="rotate(18 1318.1 337.5)" fill="#ecb478" opacity="0.17"/><rect x="1445.6" y="-80" width="102.8" height="875" transform="rotate(18 1445.6 337.5)" fill="#ecb478" opacity="0.08"/><rect x="1682.6" y="-80" width="94.7" height="875" transform="rotate(18 1682.6 337.5)" fill="#ecb478" opacity="0.15"/><rect x="0" y="0" width="1200" height="675" fill="url(#glow)" opacity="0.6"/>
  <g opacity="0.85" transform="translate(1020, 495)">
        <circle r="60" fill="#ecb478" opacity="0.18"/>
        <path d="M -34 6 Q -10 -22 14 6 Q 34 24 14 26 L -22 26 Q -38 24 -34 6 Z" fill="none" stroke="#faebd6" stroke-width="3" stroke-linejoin="round"/>
      </g>
  <g transform="translate(80, 90)">
    <rect x="0" y="0" rx="20" ry="20" width="134" height="38" fill="#ecb478" opacity="0.18" stroke="#ecb478" stroke-width="1.5"/>
    <text x="67" y="25" font-family="ui-sans-serif, Inter, sans-serif" font-weight="700" font-size="14" letter-spacing="2.5" fill="#ecb478" text-anchor="middle">CASE STUDY</text>
  </g>
  <text x="80" y="465" font-family="ui-sans-serif, -apple-system, Segoe UI, Inter, sans-serif" font-weight="800" font-size="44" fill="#faf8f5" opacity="0.98"><tspan x="80" dy="0">NBFC Dispute Resolution:</tspan><tspan x="80" dy="56">Successful Mediation and</tspan><tspan x="80" dy="56">Settlement for Unsecured</tspan></text>
  <rect x="0" y="669" width="1200" height="6" fill="url(#gold)"/>
</svg>