<?xml version="1.0" encoding="UTF-8"?>
<svg xmlns="http://www.w3.org/2000/svg" viewBox="0 0 1200 675" width="1200" height="675" role="img" aria-label="Successful Dispute Resolution: NBFC Loan Repayment Case at PDR COURT">
  <defs>
    <linearGradient id="bg" x1="0%" y1="0%" x2="100%" y2="100%">
      <stop offset="0%" stop-color="#643516"/>
      <stop offset="100%" stop-color="#7d4315"/>
    </linearGradient>
    <linearGradient id="gold" x1="0%" y1="0%" x2="100%" y2="100%">
      <stop offset="0%" stop-color="#ecb478"/>
      <stop offset="100%" stop-color="#faebd6"/>
    </linearGradient>
    <radialGradient id="glow" cx="50%" cy="50%" r="50%">
      <stop offset="0%" stop-color="#ecb478" stop-opacity="0.45"/>
      <stop offset="100%" stop-color="#ecb478" stop-opacity="0"/>
    </radialGradient>
  </defs>
  <rect width="1200" height="675" fill="url(#bg)"/>
  <rect x="-711.8" y="-80" width="72.4" height="875" transform="rotate(18 -711.8 337.5)" fill="#ecb478" opacity="0.19"/><rect x="-484.2" y="-80" width="105.2" height="875" transform="rotate(18 -484.2 337.5)" fill="#ecb478" opacity="0.18"/><rect x="-314.0" y="-80" width="64.0" height="875" transform="rotate(18 -314.0 337.5)" fill="#ecb478" opacity="0.17"/><rect x="-146.2" y="-80" width="99.8" height="875" transform="rotate(18 -146.2 337.5)" fill="#ecb478" opacity="0.06"/><rect x="13.9" y="-80" width="108.3" height="875" transform="rotate(18 13.9 337.5)" fill="#ecb478" opacity="0.16"/><rect x="254.6" y="-80" width="104.6" height="875" transform="rotate(18 254.6 337.5)" fill="#ecb478" opacity="0.15"/><rect x="415.2" y="-80" width="80.9" height="875" transform="rotate(18 415.2 337.5)" fill="#ecb478" opacity="0.08"/><rect x="582.8" y="-80" width="104.1" height="875" transform="rotate(18 582.8 337.5)" fill="#ecb478" opacity="0.07"/><rect x="742.3" y="-80" width="123.9" height="875" transform="rotate(18 742.3 337.5)" fill="#ecb478" opacity="0.12"/><rect x="970.3" y="-80" width="93.4" height="875" transform="rotate(18 970.3 337.5)" fill="#ecb478" opacity="0.16"/><rect x="1144.2" y="-80" width="71.9" height="875" transform="rotate(18 1144.2 337.5)" fill="#ecb478" opacity="0.07"/><rect x="1266.0" y="-80" width="85.6" height="875" transform="rotate(18 1266.0 337.5)" fill="#ecb478" opacity="0.15"/><rect x="1509.2" y="-80" width="116.1" height="875" transform="rotate(18 1509.2 337.5)" fill="#ecb478" opacity="0.08"/><rect x="1663.4" y="-80" width="128.8" height="875" transform="rotate(18 1663.4 337.5)" fill="#ecb478" opacity="0.05"/><rect x="0" y="0" width="1200" height="675" fill="url(#glow)" opacity="0.6"/>
  <g opacity="0.85" transform="translate(1020, 495)">
        <circle r="60" fill="#ecb478" opacity="0.18"/>
        <path d="M -34 6 Q -10 -22 14 6 Q 34 24 14 26 L -22 26 Q -38 24 -34 6 Z" fill="none" stroke="#faebd6" stroke-width="3" stroke-linejoin="round"/>
      </g>
  <g transform="translate(80, 90)">
    <rect x="0" y="0" rx="20" ry="20" width="134" height="38" fill="#ecb478" opacity="0.18" stroke="#ecb478" stroke-width="1.5"/>
    <text x="67" y="25" font-family="ui-sans-serif, Inter, sans-serif" font-weight="700" font-size="14" letter-spacing="2.5" fill="#ecb478" text-anchor="middle">CASE STUDY</text>
  </g>
  <text x="80" y="465" font-family="ui-sans-serif, -apple-system, Segoe UI, Inter, sans-serif" font-weight="800" font-size="44" fill="#faf8f5" opacity="0.98"><tspan x="80" dy="0">Successful Dispute</tspan><tspan x="80" dy="56">Resolution: NBFC Loan</tspan><tspan x="80" dy="56">Repayment Case at PDR</tspan></text>
  <rect x="0" y="669" width="1200" height="6" fill="url(#gold)"/>
</svg>