<?xml version="1.0" encoding="UTF-8"?>
<svg xmlns="http://www.w3.org/2000/svg" viewBox="0 0 1200 675" width="1200" height="675" role="img" aria-label="Resolving Dispute: NBFC and Cycle Manufacturer's Path to Profitable Partnership">
  <defs>
    <linearGradient id="bg" x1="0%" y1="0%" x2="100%" y2="100%">
      <stop offset="0%" stop-color="#0c0a09"/>
      <stop offset="100%" stop-color="#291813"/>
    </linearGradient>
    <linearGradient id="gold" x1="0%" y1="0%" x2="100%" y2="100%">
      <stop offset="0%" stop-color="#d4862a"/>
      <stop offset="100%" stop-color="#bd6b20"/>
    </linearGradient>
    <radialGradient id="glow" cx="50%" cy="50%" r="50%">
      <stop offset="0%" stop-color="#d4862a" stop-opacity="0.45"/>
      <stop offset="100%" stop-color="#d4862a" stop-opacity="0"/>
    </radialGradient>
  </defs>
  <rect width="1200" height="675" fill="url(#bg)"/>
  <rect x="-676.2" y="-80" width="93.7" height="875" transform="rotate(18 -676.2 337.5)" fill="#d4862a" opacity="0.08"/><rect x="-502.9" y="-80" width="89.2" height="875" transform="rotate(18 -502.9 337.5)" fill="#d4862a" opacity="0.09"/><rect x="-359.8" y="-80" width="87.5" height="875" transform="rotate(18 -359.8 337.5)" fill="#d4862a" opacity="0.09"/><rect x="-139.6" y="-80" width="102.5" height="875" transform="rotate(18 -139.6 337.5)" fill="#d4862a" opacity="0.14"/><rect x="10.8" y="-80" width="104.5" height="875" transform="rotate(18 10.8 337.5)" fill="#d4862a" opacity="0.10"/><rect x="192.8" y="-80" width="74.1" height="875" transform="rotate(18 192.8 337.5)" fill="#d4862a" opacity="0.20"/><rect x="423.8" y="-80" width="118.9" height="875" transform="rotate(18 423.8 337.5)" fill="#d4862a" opacity="0.05"/><rect x="609.6" y="-80" width="120.5" height="875" transform="rotate(18 609.6 337.5)" fill="#d4862a" opacity="0.16"/><rect x="775.4" y="-80" width="110.0" height="875" transform="rotate(18 775.4 337.5)" fill="#d4862a" opacity="0.16"/><rect x="926.5" y="-80" width="116.9" height="875" transform="rotate(18 926.5 337.5)" fill="#d4862a" opacity="0.06"/><rect x="1088.4" y="-80" width="105.5" height="875" transform="rotate(18 1088.4 337.5)" fill="#d4862a" opacity="0.08"/><rect x="1281.9" y="-80" width="130.4" height="875" transform="rotate(18 1281.9 337.5)" fill="#d4862a" opacity="0.08"/><rect x="1473.1" y="-80" width="132.2" height="875" transform="rotate(18 1473.1 337.5)" fill="#d4862a" opacity="0.17"/><rect x="1670.6" y="-80" width="71.5" height="875" transform="rotate(18 1670.6 337.5)" fill="#d4862a" opacity="0.11"/><rect x="0" y="0" width="1200" height="675" fill="url(#glow)" opacity="0.6"/>
  <g opacity="0.85" transform="translate(1020, 495)">
        <circle r="60" fill="#d4862a" opacity="0.18"/>
        <path d="M -34 6 Q -10 -22 14 6 Q 34 24 14 26 L -22 26 Q -38 24 -34 6 Z" fill="none" stroke="#bd6b20" stroke-width="3" stroke-linejoin="round"/>
      </g>
  <g transform="translate(80, 90)">
    <rect x="0" y="0" rx="20" ry="20" width="134" height="38" fill="#d4862a" opacity="0.18" stroke="#d4862a" stroke-width="1.5"/>
    <text x="67" y="25" font-family="ui-sans-serif, Inter, sans-serif" font-weight="700" font-size="14" letter-spacing="2.5" fill="#d4862a" text-anchor="middle">CASE STUDY</text>
  </g>
  <text x="80" y="465" font-family="ui-sans-serif, -apple-system, Segoe UI, Inter, sans-serif" font-weight="800" font-size="44" fill="#faf8f5" opacity="0.98"><tspan x="80" dy="0">Resolving Dispute: NBFC</tspan><tspan x="80" dy="56">and Cycle Manufacturer's</tspan><tspan x="80" dy="56">Path to Profitable</tspan></text>
  <rect x="0" y="669" width="1200" height="6" fill="url(#gold)"/>
</svg>