<?xml version="1.0" encoding="UTF-8"?>
<svg xmlns="http://www.w3.org/2000/svg" viewBox="0 0 1200 675" width="1200" height="675" role="img" aria-label="Furniture Emporium NBFC Dispute Resolved: A Unique Property Settlement Case">
  <defs>
    <linearGradient id="bg" x1="0%" y1="0%" x2="100%" y2="100%">
      <stop offset="0%" stop-color="#12100e"/>
      <stop offset="100%" stop-color="#1c1917"/>
    </linearGradient>
    <linearGradient id="gold" x1="0%" y1="0%" x2="100%" y2="100%">
      <stop offset="0%" stop-color="#bd6b20"/>
      <stop offset="100%" stop-color="#e09440"/>
    </linearGradient>
    <radialGradient id="glow" cx="50%" cy="50%" r="50%">
      <stop offset="0%" stop-color="#bd6b20" stop-opacity="0.45"/>
      <stop offset="100%" stop-color="#bd6b20" stop-opacity="0"/>
    </radialGradient>
  </defs>
  <rect width="1200" height="675" fill="url(#bg)"/>
  <polygon points="717.4,148.1 605.4,190.3 563.2,78.2 675.3,36.0" fill="#e09440" opacity="0.14"/><polygon points="328.0,248.3 473.0,218.9 425.9,359.2" fill="#e09440" opacity="0.16"/><polygon points="355.8,380.5 550.2,292.8 637.8,487.3 443.4,574.9" fill="#e09440" opacity="0.17"/><polygon points="1059.4,286.4 1006.8,338.7 987.8,267.0" fill="#e09440" opacity="0.19"/><polygon points="90.3,300.3 34.8,283.6 33.5,225.7 88.2,206.5 123.3,252.6" fill="#e09440" opacity="0.15"/><polygon points="879.1,81.6 1017.8,51.9 974.2,186.9" fill="#e09440" opacity="0.06"/><polygon points="685.0,-27.3 686.9,149.8 532.6,62.9" fill="#e09440" opacity="0.14"/><polygon points="865.3,409.9 836.3,520.5 722.1,527.1 680.5,420.5 769.0,348.1" fill="#e09440" opacity="0.09"/><polygon points="294.1,627.4 220.3,765.1 137.9,632.3" fill="#e09440" opacity="0.06"/><polygon points="864.9,556.3 840.7,669.5 727.5,645.2 751.7,532.0" fill="#e09440" opacity="0.05"/><polygon points="522.9,462.6 451.7,594.5 373.1,466.9" fill="#e09440" opacity="0.18"/><polygon points="896.0,572.6 956.2,681.8 847.0,741.9 786.9,632.8" fill="#e09440" opacity="0.06"/><polygon points="681.8,326.0 829.0,188.3 966.6,335.4 819.5,473.1" fill="#e09440" opacity="0.16"/><polygon points="88.4,572.7 171.5,650.8 122.9,753.9 9.8,739.6 -11.5,627.6" fill="#e09440" opacity="0.18"/><circle cx="936.0" cy="202.5" r="180" fill="url(#glow)"/>
  <g opacity="0.85" transform="translate(1020, 495)">
        <circle r="60" fill="#bd6b20" opacity="0.18"/>
        <path d="M -34 6 Q -10 -22 14 6 Q 34 24 14 26 L -22 26 Q -38 24 -34 6 Z" fill="none" stroke="#e09440" stroke-width="3" stroke-linejoin="round"/>
      </g>
  <g transform="translate(80, 90)">
    <rect x="0" y="0" rx="20" ry="20" width="134" height="38" fill="#bd6b20" opacity="0.18" stroke="#bd6b20" stroke-width="1.5"/>
    <text x="67" y="25" font-family="ui-sans-serif, Inter, sans-serif" font-weight="700" font-size="14" letter-spacing="2.5" fill="#bd6b20" text-anchor="middle">CASE STUDY</text>
  </g>
  <text x="80" y="465" font-family="ui-sans-serif, -apple-system, Segoe UI, Inter, sans-serif" font-weight="800" font-size="44" fill="#faf8f5" opacity="0.98"><tspan x="80" dy="0">Furniture Emporium NBFC</tspan><tspan x="80" dy="56">Dispute Resolved: A Unique</tspan><tspan x="80" dy="56">Property Settlement Case</tspan></text>
  <rect x="0" y="669" width="1200" height="6" fill="url(#gold)"/>
</svg>