<?xml version="1.0" encoding="UTF-8"?>
<svg xmlns="http://www.w3.org/2000/svg" viewBox="0 0 1200 675" width="1200" height="675" role="img" aria-label="Resolving a Furniture Emporium and NBFC Dispute: A Unique Settlement Agreement">
  <defs>
    <linearGradient id="bg" x1="0%" y1="0%" x2="100%" y2="100%">
      <stop offset="0%" stop-color="#faf8f5"/>
      <stop offset="100%" stop-color="#f4efe8"/>
    </linearGradient>
    <linearGradient id="gold" x1="0%" y1="0%" x2="100%" y2="100%">
      <stop offset="0%" stop-color="#bd6b20"/>
      <stop offset="100%" stop-color="#9a5518"/>
    </linearGradient>
    <radialGradient id="glow" cx="50%" cy="50%" r="50%">
      <stop offset="0%" stop-color="#bd6b20" stop-opacity="0.45"/>
      <stop offset="100%" stop-color="#bd6b20" stop-opacity="0"/>
    </radialGradient>
  </defs>
  <rect width="1200" height="675" fill="url(#bg)"/>
  <polygon points="684.8,500.3 919.2,600.1 715.6,753.2" fill="#9a5518" opacity="0.09"/><polygon points="352.7,649.7 237.8,414.4 499.0,432.5" fill="#9a5518" opacity="0.16"/><polygon points="611.7,150.8 525.5,-17.7 659.1,-151.8 827.9,-66.1 798.6,120.9" fill="#9a5518" opacity="0.16"/><polygon points="1104.2,199.4 1031.2,67.3 1163.3,-5.7 1236.3,126.4" fill="#9a5518" opacity="0.18"/><polygon points="969.4,389.2 1129.2,263.3 1255.1,423.1 1095.3,549.0" fill="#9a5518" opacity="0.15"/><polygon points="675.8,269.2 526.7,429.7 462.2,220.3" fill="#9a5518" opacity="0.12"/><polygon points="566.8,368.4 690.0,437.1 568.8,509.4" fill="#9a5518" opacity="0.12"/><polygon points="0.6,576.4 58.9,528.2 122.7,568.8 103.8,642.0 28.4,646.7" fill="#9a5518" opacity="0.19"/><polygon points="295.1,444.3 162.4,414.8 149.5,279.5 274.1,225.4 364.1,327.2" fill="#9a5518" opacity="0.08"/><polygon points="493.2,632.3 557.6,546.8 599.5,645.4" fill="#9a5518" opacity="0.06"/><polygon points="350.6,302.7 367.4,213.8 436.0,272.8" fill="#9a5518" opacity="0.16"/><polygon points="1110.6,496.2 1225.9,664.2 1057.9,779.5 942.6,611.5" fill="#9a5518" opacity="0.10"/><polygon points="858.1,372.4 920.3,291.7 1016.3,326.0 1013.3,427.8 915.6,456.5" fill="#9a5518" opacity="0.08"/><polygon points="488.7,214.0 511.6,283.1 440.3,268.4" fill="#9a5518" opacity="0.11"/><circle cx="936.0" cy="202.5" r="180" fill="url(#glow)"/>
  <g opacity="0.85" transform="translate(1020, 495)">
        <circle r="60" fill="#bd6b20" opacity="0.18"/>
        <path d="M -34 6 Q -10 -22 14 6 Q 34 24 14 26 L -22 26 Q -38 24 -34 6 Z" fill="none" stroke="#9a5518" stroke-width="3" stroke-linejoin="round"/>
      </g>
  <g transform="translate(80, 90)">
    <rect x="0" y="0" rx="20" ry="20" width="134" height="38" fill="#bd6b20" opacity="0.18" stroke="#bd6b20" stroke-width="1.5"/>
    <text x="67" y="25" font-family="ui-sans-serif, Inter, sans-serif" font-weight="700" font-size="14" letter-spacing="2.5" fill="#bd6b20" text-anchor="middle">CASE STUDY</text>
  </g>
  <text x="80" y="465" font-family="ui-sans-serif, -apple-system, Segoe UI, Inter, sans-serif" font-weight="800" font-size="44" fill="#12100e" opacity="0.98"><tspan x="80" dy="0">Resolving a Furniture</tspan><tspan x="80" dy="56">Emporium and NBFC Dispute:</tspan><tspan x="80" dy="56">A Unique Settlement</tspan></text>
  <rect x="0" y="669" width="1200" height="6" fill="url(#gold)"/>
</svg>