<?xml version="1.0" encoding="UTF-8"?>
<svg xmlns="http://www.w3.org/2000/svg" viewBox="0 0 1200 675" width="1200" height="675" role="img" aria-label="Auto Rickshaw Loan Case Study: Loan Restructuring and Settlement with PDR COURT">
  <defs>
    <linearGradient id="bg" x1="0%" y1="0%" x2="100%" y2="100%">
      <stop offset="0%" stop-color="#643516"/>
      <stop offset="100%" stop-color="#7d4315"/>
    </linearGradient>
    <linearGradient id="gold" x1="0%" y1="0%" x2="100%" y2="100%">
      <stop offset="0%" stop-color="#ecb478"/>
      <stop offset="100%" stop-color="#faebd6"/>
    </linearGradient>
    <radialGradient id="glow" cx="50%" cy="50%" r="50%">
      <stop offset="0%" stop-color="#ecb478" stop-opacity="0.45"/>
      <stop offset="100%" stop-color="#ecb478" stop-opacity="0"/>
    </radialGradient>
  </defs>
  <rect width="1200" height="675" fill="url(#bg)"/>
  <circle cx="27.3" cy="28.3" r="1.61" fill="#ecb478" opacity="0.36"/><circle cx="68.2" cy="27.1" r="2.76" fill="#ecb478" opacity="0.23"/><circle cx="104.6" cy="31.2" r="3.07" fill="#ecb478" opacity="0.16"/><circle cx="138.4" cy="30.2" r="2.40" fill="#ecb478" opacity="0.36"/><circle cx="171.2" cy="29.0" r="2.41" fill="#ecb478" opacity="0.32"/><circle cx="207.7" cy="32.5" r="2.31" fill="#ecb478" opacity="0.27"/><circle cx="246.1" cy="28.1" r="3.89" fill="#ecb478" opacity="0.36"/><circle cx="283.9" cy="31.0" r="3.08" fill="#ecb478" opacity="0.32"/><circle cx="319.6" cy="30.5" r="3.92" fill="#ecb478" opacity="0.23"/><circle cx="355.7" cy="30.5" r="3.39" fill="#ecb478" opacity="0.20"/><circle cx="390.6" cy="32.7" r="3.46" fill="#ecb478" opacity="0.27"/><circle cx="426.6" cy="27.6" r="2.94" fill="#ecb478" opacity="0.32"/><circle cx="459.2" cy="29.3" r="2.02" fill="#ecb478" opacity="0.32"/><circle cx="498.9" cy="27.7" r="2.50" fill="#ecb478" opacity="0.15"/><circle cx="535.4" cy="30.0" r="3.05" fill="#ecb478" opacity="0.22"/><circle cx="569.6" cy="29.1" r="2.13" fill="#ecb478" opacity="0.22"/><circle cx="605.0" cy="27.1" r="1.61" fill="#ecb478" opacity="0.31"/><circle cx="643.8" cy="28.1" r="3.60" fill="#ecb478" opacity="0.29"/><circle cx="679.0" cy="28.7" r="3.42" fill="#ecb478" opacity="0.31"/><circle cx="711.7" cy="28.5" r="1.79" fill="#ecb478" opacity="0.17"/><circle cx="750.7" cy="31.5" r="3.95" fill="#ecb478" opacity="0.15"/><circle cx="786.2" cy="29.8" r="2.22" fill="#ecb478" opacity="0.32"/><circle cx="821.1" cy="30.4" r="1.94" fill="#ecb478" opacity="0.35"/><circle cx="858.1" cy="30.6" r="3.23" fill="#ecb478" opacity="0.25"/><circle cx="896.2" cy="31.7" r="3.67" fill="#ecb478" opacity="0.23"/><circle cx="931.7" cy="30.1" r="3.07" fill="#ecb478" opacity="0.35"/><circle cx="965.3" cy="28.5" r="2.58" fill="#ecb478" opacity="0.31"/><circle cx="1002.1" cy="29.3" r="1.99" fill="#ecb478" opacity="0.17"/><circle cx="1040.2" cy="28.4" r="3.80" fill="#ecb478" opacity="0.34"/><circle cx="1073.9" cy="31.8" r="3.39" fill="#ecb478" opacity="0.31"/><circle cx="1112.8" cy="31.5" r="2.15" fill="#ecb478" opacity="0.27"/><circle cx="1148.1" cy="29.0" r="2.57" fill="#ecb478" opacity="0.17"/><circle cx="1179.2" cy="27.7" r="1.61" fill="#ecb478" opacity="0.29"/><circle cx="30.9" cy="68.5" r="3.99" fill="#ecb478" opacity="0.23"/><circle cx="66.3" cy="65.1" r="2.28" fill="#ecb478" opacity="0.31"/><circle cx="100.5" cy="64.6" r="3.36" fill="#ecb478" opacity="0.30"/><circle cx="138.0" cy="66.6" r="3.51" fill="#ecb478" opacity="0.32"/><circle cx="174.5" cy="68.0" r="2.25" fill="#ecb478" opacity="0.34"/><circle cx="208.3" cy="65.1" r="2.51" fill="#ecb478" opacity="0.23"/><circle cx="244.9" cy="68.8" r="2.28" fill="#ecb478" opacity="0.36"/><circle cx="283.9" cy="63.9" r="1.61" fill="#ecb478" opacity="0.18"/><circle cx="316.7" cy="67.6" r="3.39" fill="#ecb478" opacity="0.18"/><circle cx="353.3" cy="68.6" r="2.81" fill="#ecb478" opacity="0.26"/><circle cx="392.2" cy="68.9" r="1.80" fill="#ecb478" opacity="0.26"/><circle cx="424.7" cy="68.7" r="1.70" fill="#ecb478" opacity="0.23"/><circle cx="461.0" cy="65.5" r="2.00" fill="#ecb478" opacity="0.30"/><circle cx="496.5" cy="65.4" r="3.87" fill="#ecb478" opacity="0.17"/><circle cx="533.0" cy="68.9" r="3.33" fill="#ecb478" opacity="0.31"/><circle cx="569.5" cy="69.0" r="1.75" fill="#ecb478" opacity="0.29"/><circle cx="606.3" cy="63.2" r="2.55" fill="#ecb478" opacity="0.30"/><circle cx="640.3" cy="65.8" r="2.23" fill="#ecb478" opacity="0.15"/><circle cx="675.6" cy="66.4" r="2.44" fill="#ecb478" opacity="0.31"/><circle cx="713.1" cy="63.4" r="1.62" fill="#ecb478" opacity="0.36"/><circle cx="749.4" cy="63.8" r="2.62" fill="#ecb478" opacity="0.23"/><circle cx="788.4" cy="66.2" r="3.85" fill="#ecb478" opacity="0.33"/><circle cx="823.3" cy="68.1" r="2.33" fill="#ecb478" opacity="0.26"/><circle cx="855.1" cy="68.9" r="3.69" fill="#ecb478" opacity="0.35"/><circle cx="892.3" cy="66.5" r="3.69" fill="#ecb478" opacity="0.27"/><circle cx="928.2" cy="65.0" r="3.66" fill="#ecb478" opacity="0.32"/><circle cx="967.9" cy="63.6" r="3.66" fill="#ecb478" opacity="0.16"/><circle cx="1003.3" cy="64.5" r="3.49" fill="#ecb478" opacity="0.18"/><circle cx="1039.1" cy="68.5" r="3.53" fill="#ecb478" opacity="0.27"/><circle cx="1076.9" cy="63.4" r="2.50" fill="#ecb478" opacity="0.29"/><circle cx="1107.3" cy="65.9" r="2.91" fill="#ecb478" opacity="0.28"/><circle cx="1143.1" cy="67.5" r="2.54" fill="#ecb478" opacity="0.23"/><circle cx="1180.0" cy="65.3" r="3.69" fill="#ecb478" opacity="0.16"/><circle cx="27.5" cy="102.2" r="2.15" fill="#ecb478" opacity="0.25"/><circle cx="67.2" cy="104.0" r="1.63" fill="#ecb478" opacity="0.16"/><circle cx="101.1" cy="104.7" r="1.87" fill="#ecb478" opacity="0.34"/><circle cx="138.4" cy="104.3" r="2.75" fill="#ecb478" opacity="0.24"/><circle cx="171.5" cy="103.5" r="2.36" fill="#ecb478" opacity="0.19"/><circle cx="209.5" cy="100.9" r="2.54" fill="#ecb478" opacity="0.30"/><circle cx="246.6" cy="100.6" r="2.51" fill="#ecb478" opacity="0.25"/><circle cx="284.5" cy="100.4" r="1.61" fill="#ecb478" opacity="0.23"/><circle cx="317.6" cy="100.5" r="3.06" fill="#ecb478" opacity="0.30"/><circle cx="352.6" cy="104.2" r="3.23" fill="#ecb478" opacity="0.23"/><circle cx="389.4" cy="100.2" r="3.99" fill="#ecb478" opacity="0.36"/><circle cx="425.5" cy="104.9" r="2.29" fill="#ecb478" opacity="0.35"/><circle cx="461.1" cy="101.0" r="2.22" fill="#ecb478" opacity="0.22"/><circle cx="495.0" cy="102.5" r="1.78" fill="#ecb478" opacity="0.30"/><circle cx="536.6" cy="101.2" r="2.05" fill="#ecb478" opacity="0.18"/><circle cx="570.3" cy="102.6" r="3.29" fill="#ecb478" opacity="0.18"/><circle cx="607.6" cy="104.3" r="2.44" fill="#ecb478" opacity="0.27"/><circle cx="643.0" cy="100.7" r="2.14" fill="#ecb478" opacity="0.27"/><circle cx="677.1" cy="99.8" r="3.12" fill="#ecb478" opacity="0.28"/><circle cx="712.2" cy="99.7" r="3.53" fill="#ecb478" opacity="0.19"/><circle cx="752.8" cy="104.8" r="3.97" fill="#ecb478" opacity="0.24"/><circle cx="786.4" cy="104.4" r="4.00" fill="#ecb478" opacity="0.16"/><circle cx="824.1" cy="100.4" r="1.64" fill="#ecb478" opacity="0.23"/><circle cx="855.3" cy="102.3" r="2.69" fill="#ecb478" opacity="0.25"/><circle cx="895.9" cy="102.0" r="3.87" fill="#ecb478" opacity="0.27"/><circle cx="928.7" cy="100.1" r="2.21" fill="#ecb478" opacity="0.20"/><circle cx="967.7" cy="101.1" r="3.59" fill="#ecb478" opacity="0.20"/><circle cx="1000.0" cy="99.5" r="3.08" fill="#ecb478" opacity="0.22"/><circle cx="1038.8" cy="102.0" r="2.83" fill="#ecb478" opacity="0.22"/><circle cx="1073.8" cy="101.4" r="2.70" fill="#ecb478" opacity="0.26"/><circle cx="1109.5" cy="100.0" r="2.80" fill="#ecb478" opacity="0.18"/><circle cx="1144.3" cy="99.4" r="3.13" fill="#ecb478" opacity="0.18"/><circle cx="1179.5" cy="99.6" r="2.82" fill="#ecb478" opacity="0.22"/><circle cx="29.8" cy="136.9" r="2.81" fill="#ecb478" opacity="0.23"/><circle cx="67.9" cy="139.8" r="2.54" fill="#ecb478" opacity="0.21"/><circle cx="102.2" cy="136.0" r="2.67" fill="#ecb478" opacity="0.17"/><circle cx="138.2" cy="137.3" r="3.71" fill="#ecb478" opacity="0.17"/><circle cx="172.7" cy="135.9" r="3.95" fill="#ecb478" opacity="0.22"/><circle cx="209.9" cy="137.5" r="3.12" fill="#ecb478" opacity="0.31"/><circle cx="244.6" cy="138.5" r="3.47" fill="#ecb478" opacity="0.20"/><circle cx="283.0" cy="138.6" r="3.80" fill="#ecb478" opacity="0.31"/><circle cx="317.5" cy="138.0" r="1.97" fill="#ecb478" opacity="0.32"/><circle cx="354.0" cy="139.1" r="2.82" fill="#ecb478" opacity="0.28"/><circle cx="391.2" cy="140.8" r="2.04" fill="#ecb478" opacity="0.31"/><circle cx="427.4" cy="139.7" r="3.76" fill="#ecb478" opacity="0.34"/><circle cx="461.5" cy="137.4" r="2.22" fill="#ecb478" opacity="0.33"/><circle cx="497.3" cy="135.4" r="3.73" fill="#ecb478" opacity="0.26"/><circle cx="531.6" cy="140.5" r="3.28" fill="#ecb478" opacity="0.23"/><circle cx="572.1" cy="140.6" r="2.69" fill="#ecb478" opacity="0.21"/><circle cx="605.0" cy="135.2" r="2.75" fill="#ecb478" opacity="0.24"/><circle cx="640.6" cy="137.5" r="2.58" fill="#ecb478" opacity="0.21"/><circle cx="675.9" cy="137.6" r="1.97" fill="#ecb478" opacity="0.31"/><circle cx="713.0" cy="138.1" r="1.67" fill="#ecb478" opacity="0.25"/><circle cx="750.7" cy="135.1" r="3.98" fill="#ecb478" opacity="0.20"/><circle cx="783.3" cy="137.9" r="2.86" fill="#ecb478" opacity="0.28"/><circle cx="823.8" cy="136.0" r="3.60" fill="#ecb478" opacity="0.18"/><circle cx="857.7" cy="139.2" r="2.39" fill="#ecb478" opacity="0.35"/><circle cx="894.6" cy="139.6" r="4.00" fill="#ecb478" opacity="0.32"/><circle cx="928.5" cy="140.5" r="2.28" fill="#ecb478" opacity="0.32"/><circle cx="963.0" cy="140.3" r="3.06" fill="#ecb478" opacity="0.35"/><circle cx="999.7" cy="139.0" r="2.89" fill="#ecb478" opacity="0.35"/><circle cx="1035.2" cy="136.8" r="2.00" fill="#ecb478" opacity="0.23"/><circle cx="1073.6" cy="137.3" r="3.19" fill="#ecb478" opacity="0.32"/><circle cx="1107.6" cy="135.4" r="3.36" fill="#ecb478" opacity="0.36"/><circle cx="1147.7" cy="135.2" r="2.95" fill="#ecb478" opacity="0.34"/><circle cx="1179.8" cy="140.8" r="1.79" fill="#ecb478" opacity="0.35"/><circle cx="32.0" cy="173.0" r="3.02" fill="#ecb478" opacity="0.15"/><circle cx="63.2" cy="176.3" r="3.65" fill="#ecb478" opacity="0.16"/><circle cx="105.0" cy="171.5" r="2.72" fill="#ecb478" opacity="0.17"/><circle cx="137.7" cy="176.3" r="2.91" fill="#ecb478" opacity="0.21"/><circle cx="172.2" cy="172.1" r="1.98" fill="#ecb478" opacity="0.30"/><circle cx="207.5" cy="175.7" r="2.90" fill="#ecb478" opacity="0.17"/><circle cx="243.9" cy="171.1" r="2.09" fill="#ecb478" opacity="0.32"/><circle cx="280.7" cy="172.8" r="3.57" fill="#ecb478" opacity="0.18"/><circle cx="316.5" cy="176.6" r="3.12" fill="#ecb478" opacity="0.19"/><circle cx="353.1" cy="175.1" r="3.88" fill="#ecb478" opacity="0.22"/><circle cx="389.4" cy="174.5" r="2.96" fill="#ecb478" opacity="0.30"/><circle cx="428.4" cy="175.8" r="3.53" fill="#ecb478" opacity="0.22"/><circle cx="460.1" cy="174.0" r="3.58" fill="#ecb478" opacity="0.29"/><circle cx="500.4" cy="175.0" r="2.19" fill="#ecb478" opacity="0.17"/><circle cx="533.5" cy="176.0" r="3.67" fill="#ecb478" opacity="0.29"/><circle cx="569.1" cy="172.7" r="3.73" fill="#ecb478" opacity="0.31"/><circle cx="608.8" cy="172.9" r="1.77" fill="#ecb478" opacity="0.33"/><circle cx="640.0" cy="171.1" r="2.10" fill="#ecb478" opacity="0.26"/><circle cx="675.1" cy="176.6" r="2.29" fill="#ecb478" opacity="0.29"/><circle cx="712.9" cy="173.1" r="2.36" fill="#ecb478" opacity="0.16"/><circle cx="750.5" cy="172.4" r="2.17" fill="#ecb478" opacity="0.20"/><circle cx="786.5" cy="171.0" r="3.38" fill="#ecb478" opacity="0.16"/><circle cx="824.0" cy="171.5" r="3.60" fill="#ecb478" opacity="0.23"/><circle cx="860.5" cy="171.7" r="3.98" fill="#ecb478" opacity="0.30"/><circle cx="895.7" cy="173.3" r="1.75" fill="#ecb478" opacity="0.36"/><circle cx="928.8" cy="173.5" r="3.38" fill="#ecb478" opacity="0.15"/><circle cx="968.2" cy="171.5" r="1.68" fill="#ecb478" opacity="0.17"/><circle cx="1003.1" cy="175.6" r="3.82" fill="#ecb478" opacity="0.17"/><circle cx="1036.0" cy="173.4" r="3.01" fill="#ecb478" opacity="0.35"/><circle cx="1072.3" cy="172.6" r="3.86" fill="#ecb478" opacity="0.31"/><circle cx="1107.8" cy="173.4" r="1.75" fill="#ecb478" opacity="0.33"/><circle cx="1148.9" cy="175.4" r="2.52" fill="#ecb478" opacity="0.35"/><circle cx="1183.6" cy="176.0" r="2.64" fill="#ecb478" opacity="0.35"/><circle cx="33.0" cy="207.0" r="3.41" fill="#ecb478" opacity="0.35"/><circle cx="66.6" cy="210.6" r="3.62" fill="#ecb478" opacity="0.18"/><circle cx="102.1" cy="211.8" r="3.13" fill="#ecb478" opacity="0.33"/><circle cx="136.9" cy="212.8" r="2.99" fill="#ecb478" opacity="0.27"/><circle cx="175.4" cy="207.5" r="3.57" fill="#ecb478" opacity="0.36"/><circle cx="209.9" cy="212.3" r="2.39" fill="#ecb478" opacity="0.16"/><circle cx="248.1" cy="212.1" r="3.50" fill="#ecb478" opacity="0.16"/><circle cx="284.6" cy="209.2" r="3.84" fill="#ecb478" opacity="0.26"/><circle cx="319.5" cy="207.1" r="3.64" fill="#ecb478" opacity="0.35"/><circle cx="355.1" cy="208.0" r="3.78" fill="#ecb478" opacity="0.23"/><circle cx="391.9" cy="211.6" r="2.13" fill="#ecb478" opacity="0.31"/><circle cx="427.8" cy="212.4" r="3.47" fill="#ecb478" opacity="0.27"/><circle cx="463.4" cy="208.3" r="3.93" fill="#ecb478" opacity="0.36"/><circle cx="499.8" cy="209.8" r="2.78" fill="#ecb478" opacity="0.17"/><circle cx="534.6" cy="209.5" r="1.65" fill="#ecb478" opacity="0.36"/><circle cx="570.4" cy="212.9" r="3.45" fill="#ecb478" opacity="0.25"/><circle cx="605.7" cy="210.0" r="3.60" fill="#ecb478" opacity="0.30"/><circle cx="642.6" cy="210.2" r="2.81" fill="#ecb478" opacity="0.22"/><circle cx="678.7" cy="212.0" r="2.84" fill="#ecb478" opacity="0.19"/><circle cx="716.3" cy="208.9" r="2.72" fill="#ecb478" opacity="0.35"/><circle cx="752.7" cy="210.2" r="3.35" fill="#ecb478" opacity="0.18"/><circle cx="787.3" cy="212.1" r="2.06" fill="#ecb478" opacity="0.17"/><circle cx="820.9" cy="209.8" r="2.21" fill="#ecb478" opacity="0.34"/><circle cx="857.1" cy="212.2" r="1.65" fill="#ecb478" opacity="0.18"/><circle cx="896.4" cy="207.5" r="3.67" fill="#ecb478" opacity="0.34"/><circle cx="929.6" cy="212.7" r="3.94" fill="#ecb478" opacity="0.29"/><circle cx="968.6" cy="210.0" r="3.79" fill="#ecb478" opacity="0.24"/><circle cx="1004.8" cy="209.2" r="3.33" fill="#ecb478" opacity="0.23"/><circle cx="1036.7" cy="208.4" r="1.71" fill="#ecb478" opacity="0.18"/><circle cx="1072.0" cy="209.7" r="3.67" fill="#ecb478" opacity="0.29"/><circle cx="1112.4" cy="211.9" r="3.93" fill="#ecb478" opacity="0.25"/><circle cx="1147.5" cy="210.4" r="2.40" fill="#ecb478" opacity="0.31"/><circle cx="1179.7" cy="211.8" r="3.18" fill="#ecb478" opacity="0.34"/><circle cx="32.1" cy="247.8" r="1.99" fill="#ecb478" opacity="0.28"/><circle cx="67.3" cy="247.8" r="1.98" fill="#ecb478" opacity="0.20"/><circle cx="99.1" cy="248.7" r="1.93" fill="#ecb478" opacity="0.29"/><circle cx="135.3" cy="244.7" r="3.29" fill="#ecb478" opacity="0.19"/><circle cx="171.7" cy="244.5" r="2.23" fill="#ecb478" opacity="0.29"/><circle cx="211.5" cy="244.2" r="2.72" fill="#ecb478" opacity="0.27"/><circle cx="246.0" cy="243.1" r="1.88" fill="#ecb478" opacity="0.15"/><circle cx="281.1" cy="248.5" r="3.86" fill="#ecb478" opacity="0.25"/><circle cx="317.4" cy="246.3" r="2.10" fill="#ecb478" opacity="0.29"/><circle cx="353.6" cy="243.4" r="3.66" fill="#ecb478" opacity="0.31"/><circle cx="392.4" cy="244.3" r="2.82" fill="#ecb478" opacity="0.30"/><circle cx="424.6" cy="248.6" r="3.68" fill="#ecb478" opacity="0.25"/><circle cx="460.8" cy="245.7" r="3.10" fill="#ecb478" opacity="0.27"/><circle cx="497.7" cy="246.8" r="2.97" fill="#ecb478" opacity="0.23"/><circle cx="531.5" cy="245.4" r="1.75" fill="#ecb478" opacity="0.32"/><circle cx="568.9" cy="244.9" r="3.86" fill="#ecb478" opacity="0.15"/><circle cx="605.9" cy="248.1" r="3.04" fill="#ecb478" opacity="0.36"/><circle cx="640.0" cy="245.9" r="3.22" fill="#ecb478" opacity="0.32"/><circle cx="675.8" cy="245.7" r="1.65" fill="#ecb478" opacity="0.18"/><circle cx="716.4" cy="245.6" r="3.55" fill="#ecb478" opacity="0.26"/><circle cx="747.7" cy="246.1" r="3.21" fill="#ecb478" opacity="0.23"/><circle cx="786.5" cy="248.5" r="2.89" fill="#ecb478" opacity="0.25"/><circle cx="821.3" cy="244.1" r="2.91" fill="#ecb478" opacity="0.34"/><circle cx="855.0" cy="246.9" r="1.78" fill="#ecb478" opacity="0.18"/><circle cx="893.4" cy="243.2" r="3.44" fill="#ecb478" opacity="0.23"/><circle cx="932.4" cy="243.6" r="2.57" fill="#ecb478" opacity="0.30"/><circle cx="965.0" cy="246.4" r="3.99" fill="#ecb478" opacity="0.36"/><circle cx="1000.1" cy="244.5" r="2.63" fill="#ecb478" opacity="0.29"/><circle cx="1035.6" cy="246.2" r="2.77" fill="#ecb478" opacity="0.26"/><circle cx="1074.6" cy="247.3" r="2.08" fill="#ecb478" opacity="0.35"/><circle cx="1110.7" cy="244.5" r="2.29" fill="#ecb478" opacity="0.26"/><circle cx="1146.1" cy="246.2" r="2.30" fill="#ecb478" opacity="0.21"/><circle cx="1179.7" cy="245.7" r="3.44" fill="#ecb478" opacity="0.29"/><circle cx="31.0" cy="279.9" r="3.74" fill="#ecb478" opacity="0.32"/><circle cx="68.0" cy="282.0" r="2.84" fill="#ecb478" opacity="0.33"/><circle cx="100.4" cy="283.9" r="2.34" fill="#ecb478" opacity="0.24"/><circle cx="137.5" cy="282.2" r="2.79" fill="#ecb478" opacity="0.30"/><circle cx="177.0" cy="279.1" r="1.73" fill="#ecb478" opacity="0.19"/><circle cx="209.7" cy="282.6" r="2.78" fill="#ecb478" opacity="0.16"/><circle cx="244.3" cy="284.5" r="1.71" fill="#ecb478" opacity="0.23"/><circle cx="283.6" cy="279.9" r="2.53" fill="#ecb478" opacity="0.31"/><circle cx="319.8" cy="284.6" r="3.89" fill="#ecb478" opacity="0.32"/><circle cx="351.3" cy="283.4" r="3.27" fill="#ecb478" opacity="0.30"/><circle cx="390.5" cy="284.5" r="3.35" fill="#ecb478" opacity="0.35"/><circle cx="423.9" cy="282.4" r="2.47" fill="#ecb478" opacity="0.29"/><circle cx="462.5" cy="281.6" r="3.48" fill="#ecb478" opacity="0.30"/><circle cx="496.3" cy="284.5" r="2.65" fill="#ecb478" opacity="0.29"/><circle cx="532.9" cy="282.5" r="2.59" fill="#ecb478" opacity="0.21"/><circle cx="569.6" cy="280.9" r="2.16" fill="#ecb478" opacity="0.18"/><circle cx="607.7" cy="281.6" r="2.92" fill="#ecb478" opacity="0.19"/><circle cx="641.2" cy="281.1" r="3.18" fill="#ecb478" opacity="0.25"/><circle cx="678.0" cy="284.1" r="1.73" fill="#ecb478" opacity="0.22"/><circle cx="713.9" cy="283.0" r="2.43" fill="#ecb478" opacity="0.22"/><circle cx="748.6" cy="281.8" r="2.51" fill="#ecb478" opacity="0.15"/><circle cx="784.6" cy="281.9" r="3.64" fill="#ecb478" opacity="0.35"/><circle cx="822.9" cy="282.7" r="3.99" fill="#ecb478" opacity="0.17"/><circle cx="860.0" cy="284.7" r="3.94" fill="#ecb478" opacity="0.15"/><circle cx="891.8" cy="280.9" r="3.87" fill="#ecb478" opacity="0.20"/><circle cx="929.7" cy="284.6" r="1.69" fill="#ecb478" opacity="0.34"/><circle cx="967.7" cy="283.1" r="3.58" fill="#ecb478" opacity="0.27"/><circle cx="1001.9" cy="283.1" r="2.59" fill="#ecb478" opacity="0.19"/><circle cx="1036.3" cy="281.7" r="2.51" fill="#ecb478" opacity="0.23"/><circle cx="1071.8" cy="282.4" r="2.92" fill="#ecb478" opacity="0.36"/><circle cx="1112.3" cy="283.7" r="2.67" fill="#ecb478" opacity="0.25"/><circle cx="1148.8" cy="280.6" r="3.48" fill="#ecb478" opacity="0.16"/><circle cx="1184.0" cy="282.2" r="2.40" fill="#ecb478" opacity="0.30"/><circle cx="28.3" cy="316.2" r="2.63" fill="#ecb478" opacity="0.35"/><circle cx="64.6" cy="317.3" r="1.72" fill="#ecb478" opacity="0.29"/><circle cx="101.2" cy="320.8" r="2.68" fill="#ecb478" opacity="0.35"/><circle cx="137.6" cy="316.1" r="2.07" fill="#ecb478" opacity="0.23"/><circle cx="173.7" cy="318.5" r="3.88" fill="#ecb478" opacity="0.35"/><circle cx="212.3" cy="316.9" r="3.20" fill="#ecb478" opacity="0.23"/><circle cx="244.5" cy="320.9" r="2.83" fill="#ecb478" opacity="0.22"/><circle cx="283.8" cy="315.1" r="2.81" fill="#ecb478" opacity="0.23"/><circle cx="315.9" cy="320.9" r="3.41" fill="#ecb478" opacity="0.31"/><circle cx="353.0" cy="317.5" r="3.79" fill="#ecb478" opacity="0.22"/><circle cx="389.7" cy="316.5" r="3.31" fill="#ecb478" opacity="0.23"/><circle cx="427.8" cy="318.1" r="2.81" fill="#ecb478" opacity="0.29"/><circle cx="462.1" cy="315.8" r="3.73" fill="#ecb478" opacity="0.28"/><circle cx="495.8" cy="319.8" r="3.03" fill="#ecb478" opacity="0.27"/><circle cx="532.0" cy="317.6" r="3.96" fill="#ecb478" opacity="0.34"/><circle cx="571.6" cy="320.4" r="1.68" fill="#ecb478" opacity="0.16"/><circle cx="606.6" cy="318.3" r="2.03" fill="#ecb478" opacity="0.16"/><circle cx="639.9" cy="315.4" r="2.41" fill="#ecb478" opacity="0.18"/><circle cx="675.5" cy="320.6" r="2.25" fill="#ecb478" opacity="0.16"/><circle cx="712.5" cy="315.6" r="1.64" fill="#ecb478" opacity="0.18"/><circle cx="748.1" cy="319.1" r="3.55" fill="#ecb478" opacity="0.36"/><circle cx="785.3" cy="319.7" r="2.40" fill="#ecb478" opacity="0.34"/><circle cx="819.7" cy="320.7" r="3.61" fill="#ecb478" opacity="0.23"/><circle cx="858.4" cy="320.7" r="2.66" fill="#ecb478" opacity="0.21"/><circle cx="896.2" cy="316.6" r="2.57" fill="#ecb478" opacity="0.28"/><circle cx="928.8" cy="316.6" r="2.22" fill="#ecb478" opacity="0.24"/><circle cx="965.7" cy="318.5" r="3.26" fill="#ecb478" opacity="0.34"/><circle cx="1000.8" cy="317.0" r="2.31" fill="#ecb478" opacity="0.27"/><circle cx="1037.9" cy="317.4" r="3.24" fill="#ecb478" opacity="0.34"/><circle cx="1075.1" cy="316.9" r="2.55" fill="#ecb478" opacity="0.34"/><circle cx="1107.8" cy="318.2" r="2.05" fill="#ecb478" opacity="0.17"/><circle cx="1146.1" cy="316.4" r="2.09" fill="#ecb478" opacity="0.34"/><circle cx="1184.6" cy="316.8" r="3.60" fill="#ecb478" opacity="0.25"/><circle cx="30.0" cy="356.9" r="3.66" fill="#ecb478" opacity="0.35"/><circle cx="63.1" cy="353.9" r="2.19" fill="#ecb478" opacity="0.29"/><circle cx="100.9" cy="356.1" r="2.62" fill="#ecb478" opacity="0.24"/><circle cx="139.9" cy="355.4" r="3.35" fill="#ecb478" opacity="0.28"/><circle cx="175.9" cy="356.8" r="2.68" fill="#ecb478" opacity="0.16"/><circle cx="208.4" cy="352.2" r="3.56" fill="#ecb478" opacity="0.18"/><circle cx="248.5" cy="356.2" r="3.95" fill="#ecb478" opacity="0.24"/><circle cx="284.4" cy="356.4" r="1.79" fill="#ecb478" opacity="0.35"/><circle cx="317.9" cy="351.8" r="3.63" fill="#ecb478" opacity="0.29"/><circle cx="356.7" cy="353.7" r="2.61" fill="#ecb478" opacity="0.32"/><circle cx="392.6" cy="356.7" r="2.34" fill="#ecb478" opacity="0.18"/><circle cx="427.6" cy="355.4" r="3.90" fill="#ecb478" opacity="0.27"/><circle cx="459.0" cy="351.9" r="2.03" fill="#ecb478" opacity="0.19"/><circle cx="498.3" cy="354.0" r="2.36" fill="#ecb478" opacity="0.20"/><circle cx="532.7" cy="354.6" r="2.48" fill="#ecb478" opacity="0.23"/><circle cx="569.6" cy="353.3" r="2.18" fill="#ecb478" opacity="0.28"/><circle cx="604.0" cy="356.7" r="3.04" fill="#ecb478" opacity="0.28"/><circle cx="639.0" cy="351.6" r="3.59" fill="#ecb478" opacity="0.32"/><circle cx="677.5" cy="351.3" r="3.11" fill="#ecb478" opacity="0.31"/><circle cx="715.8" cy="354.0" r="1.61" fill="#ecb478" opacity="0.29"/><circle cx="749.5" cy="352.7" r="3.08" fill="#ecb478" opacity="0.15"/><circle cx="787.4" cy="352.3" r="3.46" fill="#ecb478" opacity="0.23"/><circle cx="824.0" cy="352.3" r="3.39" fill="#ecb478" opacity="0.26"/><circle cx="856.8" cy="356.9" r="2.72" fill="#ecb478" opacity="0.29"/><circle cx="896.4" cy="352.2" r="2.93" fill="#ecb478" opacity="0.16"/><circle cx="930.1" cy="353.3" r="3.21" fill="#ecb478" opacity="0.31"/><circle cx="965.4" cy="354.6" r="3.51" fill="#ecb478" opacity="0.31"/><circle cx="1004.7" cy="355.9" r="2.05" fill="#ecb478" opacity="0.35"/><circle cx="1036.1" cy="356.4" r="1.64" fill="#ecb478" opacity="0.27"/><circle cx="1075.4" cy="353.0" r="3.68" fill="#ecb478" opacity="0.15"/><circle cx="1110.5" cy="354.2" r="2.58" fill="#ecb478" opacity="0.17"/><circle cx="1148.2" cy="355.0" r="1.76" fill="#ecb478" opacity="0.21"/><circle cx="1184.7" cy="357.0" r="3.30" fill="#ecb478" opacity="0.21"/><circle cx="31.5" cy="391.1" r="3.89" fill="#ecb478" opacity="0.21"/><circle cx="64.4" cy="392.1" r="1.67" fill="#ecb478" opacity="0.35"/><circle cx="99.4" cy="389.8" r="2.81" fill="#ecb478" opacity="0.17"/><circle cx="138.5" cy="390.6" r="1.90" fill="#ecb478" opacity="0.35"/><circle cx="172.2" cy="390.8" r="3.98" fill="#ecb478" opacity="0.23"/><circle cx="209.9" cy="389.4" r="1.77" fill="#ecb478" opacity="0.23"/><circle cx="247.0" cy="387.3" r="3.01" fill="#ecb478" opacity="0.23"/><circle cx="279.8" cy="390.9" r="3.72" fill="#ecb478" opacity="0.15"/><circle cx="317.6" cy="387.1" r="1.83" fill="#ecb478" opacity="0.31"/><circle cx="352.4" cy="388.2" r="3.39" fill="#ecb478" opacity="0.32"/><circle cx="392.7" cy="387.7" r="1.89" fill="#ecb478" opacity="0.30"/><circle cx="427.1" cy="391.3" r="3.25" fill="#ecb478" opacity="0.19"/><circle cx="463.7" cy="390.3" r="2.85" fill="#ecb478" opacity="0.22"/><circle cx="499.4" cy="387.3" r="1.83" fill="#ecb478" opacity="0.22"/><circle cx="532.2" cy="390.2" r="3.78" fill="#ecb478" opacity="0.19"/><circle cx="570.0" cy="392.4" r="3.22" fill="#ecb478" opacity="0.32"/><circle cx="605.3" cy="392.1" r="3.33" fill="#ecb478" opacity="0.19"/><circle cx="639.4" cy="391.3" r="2.60" fill="#ecb478" opacity="0.23"/><circle cx="675.3" cy="391.5" r="2.48" fill="#ecb478" opacity="0.26"/><circle cx="712.4" cy="391.2" r="1.67" fill="#ecb478" opacity="0.16"/><circle cx="748.8" cy="387.7" r="1.90" fill="#ecb478" opacity="0.21"/><circle cx="784.7" cy="392.2" r="2.76" fill="#ecb478" opacity="0.34"/><circle cx="821.0" cy="392.2" r="3.21" fill="#ecb478" opacity="0.33"/><circle cx="860.0" cy="387.5" r="3.55" fill="#ecb478" opacity="0.29"/><circle cx="893.2" cy="391.9" r="3.41" fill="#ecb478" opacity="0.36"/><circle cx="927.2" cy="388.5" r="3.63" fill="#ecb478" opacity="0.18"/><circle cx="965.4" cy="390.2" r="2.78" fill="#ecb478" opacity="0.21"/><circle cx="1000.8" cy="387.9" r="3.01" fill="#ecb478" opacity="0.29"/><circle cx="1035.3" cy="387.6" r="2.76" fill="#ecb478" opacity="0.22"/><circle cx="1075.8" cy="389.4" r="2.17" fill="#ecb478" opacity="0.33"/><circle cx="1111.9" cy="391.2" r="3.14" fill="#ecb478" opacity="0.23"/><circle cx="1147.1" cy="392.7" r="2.65" fill="#ecb478" opacity="0.26"/><circle cx="1184.2" cy="390.8" r="2.03" fill="#ecb478" opacity="0.20"/><circle cx="27.8" cy="424.3" r="3.12" fill="#ecb478" opacity="0.24"/><circle cx="66.8" cy="426.5" r="2.72" fill="#ecb478" opacity="0.30"/><circle cx="103.7" cy="427.2" r="2.26" fill="#ecb478" opacity="0.18"/><circle cx="140.6" cy="427.2" r="2.36" fill="#ecb478" opacity="0.33"/><circle cx="173.7" cy="426.5" r="3.73" fill="#ecb478" opacity="0.32"/><circle cx="212.6" cy="426.9" r="2.96" fill="#ecb478" opacity="0.21"/><circle cx="246.0" cy="428.2" r="1.87" fill="#ecb478" opacity="0.24"/><circle cx="279.7" cy="428.4" r="2.00" fill="#ecb478" opacity="0.19"/><circle cx="320.8" cy="426.8" r="3.32" fill="#ecb478" opacity="0.29"/><circle cx="356.3" cy="425.4" r="1.92" fill="#ecb478" opacity="0.32"/><circle cx="392.2" cy="428.0" r="3.23" fill="#ecb478" opacity="0.15"/><circle cx="428.3" cy="423.9" r="2.05" fill="#ecb478" opacity="0.29"/><circle cx="463.7" cy="423.9" r="3.83" fill="#ecb478" opacity="0.28"/><circle cx="498.0" cy="427.8" r="1.95" fill="#ecb478" opacity="0.31"/><circle cx="532.8" cy="427.1" r="2.12" fill="#ecb478" opacity="0.27"/><circle cx="569.4" cy="426.7" r="3.88" fill="#ecb478" opacity="0.31"/><circle cx="603.6" cy="424.7" r="1.78" fill="#ecb478" opacity="0.20"/><circle cx="644.0" cy="425.6" r="1.64" fill="#ecb478" opacity="0.23"/><circle cx="677.1" cy="426.9" r="3.81" fill="#ecb478" opacity="0.16"/><circle cx="713.3" cy="426.1" r="3.45" fill="#ecb478" opacity="0.22"/><circle cx="752.4" cy="426.6" r="2.82" fill="#ecb478" opacity="0.29"/><circle cx="786.4" cy="426.1" r="3.69" fill="#ecb478" opacity="0.29"/><circle cx="821.0" cy="428.5" r="3.75" fill="#ecb478" opacity="0.23"/><circle cx="855.5" cy="425.5" r="2.90" fill="#ecb478" opacity="0.17"/><circle cx="895.1" cy="423.8" r="1.69" fill="#ecb478" opacity="0.25"/><circle cx="931.0" cy="428.5" r="1.96" fill="#ecb478" opacity="0.20"/><circle cx="967.7" cy="427.0" r="1.61" fill="#ecb478" opacity="0.30"/><circle cx="999.1" cy="426.1" r="1.72" fill="#ecb478" opacity="0.25"/><circle cx="1039.1" cy="423.9" r="2.09" fill="#ecb478" opacity="0.26"/><circle cx="1071.3" cy="426.9" r="2.25" fill="#ecb478" opacity="0.25"/><circle cx="1112.2" cy="425.9" r="2.96" fill="#ecb478" opacity="0.23"/><circle cx="1144.0" cy="427.6" r="2.37" fill="#ecb478" opacity="0.23"/><circle cx="1180.7" cy="424.3" r="3.61" fill="#ecb478" opacity="0.22"/><circle cx="30.0" cy="462.3" r="2.97" fill="#ecb478" opacity="0.24"/><circle cx="67.9" cy="459.6" r="2.89" fill="#ecb478" opacity="0.24"/><circle cx="102.7" cy="463.4" r="3.81" fill="#ecb478" opacity="0.34"/><circle cx="138.4" cy="463.1" r="2.56" fill="#ecb478" opacity="0.26"/><circle cx="171.6" cy="462.1" r="3.00" fill="#ecb478" opacity="0.28"/><circle cx="212.3" cy="461.8" r="3.73" fill="#ecb478" opacity="0.16"/><circle cx="246.2" cy="461.7" r="3.46" fill="#ecb478" opacity="0.34"/><circle cx="282.5" cy="461.9" r="2.24" fill="#ecb478" opacity="0.20"/><circle cx="316.2" cy="462.8" r="3.21" fill="#ecb478" opacity="0.32"/><circle cx="353.0" cy="461.2" r="3.66" fill="#ecb478" opacity="0.36"/><circle cx="391.1" cy="462.6" r="1.63" fill="#ecb478" opacity="0.24"/><circle cx="426.1" cy="459.8" r="3.13" fill="#ecb478" opacity="0.26"/><circle cx="464.1" cy="464.3" r="2.80" fill="#ecb478" opacity="0.24"/><circle cx="496.5" cy="461.6" r="3.12" fill="#ecb478" opacity="0.27"/><circle cx="532.3" cy="463.1" r="2.77" fill="#ecb478" opacity="0.21"/><circle cx="570.5" cy="462.8" r="2.47" fill="#ecb478" opacity="0.29"/><circle cx="606.5" cy="461.4" r="2.65" fill="#ecb478" opacity="0.18"/><circle cx="640.1" cy="464.1" r="2.60" fill="#ecb478" opacity="0.21"/><circle cx="680.2" cy="459.2" r="2.96" fill="#ecb478" opacity="0.25"/><circle cx="716.4" cy="462.0" r="3.95" fill="#ecb478" opacity="0.29"/><circle cx="750.7" cy="462.2" r="3.38" fill="#ecb478" opacity="0.23"/><circle cx="783.5" cy="461.8" r="3.79" fill="#ecb478" opacity="0.25"/><circle cx="821.9" cy="459.6" r="3.17" fill="#ecb478" opacity="0.28"/><circle cx="858.0" cy="464.9" r="3.42" fill="#ecb478" opacity="0.31"/><circle cx="891.0" cy="463.8" r="1.92" fill="#ecb478" opacity="0.34"/><circle cx="930.9" cy="460.5" r="1.75" fill="#ecb478" opacity="0.34"/><circle cx="964.5" cy="461.3" r="1.73" fill="#ecb478" opacity="0.34"/><circle cx="1001.4" cy="460.6" r="2.43" fill="#ecb478" opacity="0.17"/><circle cx="1039.3" cy="460.8" r="3.85" fill="#ecb478" opacity="0.33"/><circle cx="1076.8" cy="460.4" r="1.80" fill="#ecb478" opacity="0.23"/><circle cx="1108.4" cy="461.5" r="2.25" fill="#ecb478" opacity="0.34"/><circle cx="1145.3" cy="460.5" r="1.77" fill="#ecb478" opacity="0.35"/><circle cx="1179.4" cy="461.0" r="2.22" fill="#ecb478" opacity="0.26"/><circle cx="30.5" cy="495.3" r="1.89" fill="#ecb478" opacity="0.33"/><circle cx="64.9" cy="497.3" r="3.14" fill="#ecb478" opacity="0.34"/><circle cx="103.3" cy="499.4" r="1.74" fill="#ecb478" opacity="0.33"/><circle cx="139.4" cy="499.5" r="2.53" fill="#ecb478" opacity="0.28"/><circle cx="172.6" cy="499.4" r="3.97" fill="#ecb478" opacity="0.22"/><circle cx="210.9" cy="495.7" r="2.52" fill="#ecb478" opacity="0.22"/><circle cx="248.3" cy="498.9" r="3.58" fill="#ecb478" opacity="0.33"/><circle cx="280.0" cy="498.6" r="1.72" fill="#ecb478" opacity="0.23"/><circle cx="319.5" cy="497.1" r="3.97" fill="#ecb478" opacity="0.24"/><circle cx="355.9" cy="496.3" r="3.87" fill="#ecb478" opacity="0.28"/><circle cx="390.8" cy="495.6" r="2.27" fill="#ecb478" opacity="0.28"/><circle cx="427.5" cy="496.5" r="1.66" fill="#ecb478" opacity="0.24"/><circle cx="460.1" cy="497.5" r="3.75" fill="#ecb478" opacity="0.29"/><circle cx="499.5" cy="497.7" r="3.76" fill="#ecb478" opacity="0.25"/><circle cx="531.8" cy="499.2" r="2.64" fill="#ecb478" opacity="0.19"/><circle cx="567.3" cy="496.5" r="3.85" fill="#ecb478" opacity="0.30"/><circle cx="603.2" cy="499.9" r="1.69" fill="#ecb478" opacity="0.23"/><circle cx="641.6" cy="498.7" r="3.26" fill="#ecb478" opacity="0.15"/><circle cx="675.6" cy="495.1" r="1.73" fill="#ecb478" opacity="0.27"/><circle cx="716.9" cy="499.7" r="2.96" fill="#ecb478" opacity="0.17"/><circle cx="752.5" cy="499.6" r="3.54" fill="#ecb478" opacity="0.33"/><circle cx="785.7" cy="495.3" r="3.17" fill="#ecb478" opacity="0.23"/><circle cx="819.2" cy="496.8" r="3.66" fill="#ecb478" opacity="0.30"/><circle cx="857.3" cy="498.1" r="3.41" fill="#ecb478" opacity="0.26"/><circle cx="891.7" cy="496.6" r="3.23" fill="#ecb478" opacity="0.20"/><circle cx="931.3" cy="499.1" r="3.40" fill="#ecb478" opacity="0.34"/><circle cx="967.9" cy="499.3" r="1.85" fill="#ecb478" opacity="0.24"/><circle cx="999.9" cy="497.9" r="2.19" fill="#ecb478" opacity="0.24"/><circle cx="1039.6" cy="496.9" r="2.45" fill="#ecb478" opacity="0.25"/><circle cx="1071.3" cy="500.6" r="3.49" fill="#ecb478" opacity="0.29"/><circle cx="1107.5" cy="495.4" r="2.55" fill="#ecb478" opacity="0.28"/><circle cx="1143.5" cy="499.3" r="3.97" fill="#ecb478" opacity="0.19"/><circle cx="1184.3" cy="496.0" r="1.86" fill="#ecb478" opacity="0.25"/><circle cx="27.8" cy="534.8" r="3.46" fill="#ecb478" opacity="0.32"/><circle cx="68.5" cy="536.0" r="1.76" fill="#ecb478" opacity="0.30"/><circle cx="104.6" cy="534.5" r="2.39" fill="#ecb478" opacity="0.31"/><circle cx="140.6" cy="536.9" r="1.72" fill="#ecb478" opacity="0.27"/><circle cx="174.6" cy="534.5" r="2.13" fill="#ecb478" opacity="0.32"/><circle cx="207.7" cy="531.8" r="2.02" fill="#ecb478" opacity="0.34"/><circle cx="245.8" cy="532.7" r="1.73" fill="#ecb478" opacity="0.27"/><circle cx="281.9" cy="535.8" r="3.07" fill="#ecb478" opacity="0.34"/><circle cx="318.2" cy="532.4" r="1.71" fill="#ecb478" opacity="0.27"/><circle cx="352.6" cy="535.4" r="3.98" fill="#ecb478" opacity="0.20"/><circle cx="387.0" cy="536.6" r="2.08" fill="#ecb478" opacity="0.21"/><circle cx="428.4" cy="533.2" r="1.70" fill="#ecb478" opacity="0.18"/><circle cx="461.6" cy="531.4" r="3.07" fill="#ecb478" opacity="0.30"/><circle cx="500.8" cy="534.0" r="2.77" fill="#ecb478" opacity="0.23"/><circle cx="533.3" cy="531.1" r="2.93" fill="#ecb478" opacity="0.25"/><circle cx="571.3" cy="536.3" r="2.48" fill="#ecb478" opacity="0.34"/><circle cx="605.3" cy="532.7" r="2.96" fill="#ecb478" opacity="0.16"/><circle cx="644.4" cy="536.0" r="2.28" fill="#ecb478" opacity="0.27"/><circle cx="678.3" cy="536.0" r="3.63" fill="#ecb478" opacity="0.27"/><circle cx="712.2" cy="534.1" r="3.48" fill="#ecb478" opacity="0.26"/><circle cx="751.5" cy="532.3" r="2.45" fill="#ecb478" opacity="0.28"/><circle cx="786.0" cy="534.3" r="2.19" fill="#ecb478" opacity="0.35"/><circle cx="822.2" cy="534.0" r="2.32" fill="#ecb478" opacity="0.28"/><circle cx="858.3" cy="533.1" r="2.28" fill="#ecb478" opacity="0.25"/><circle cx="894.2" cy="531.8" r="2.45" fill="#ecb478" opacity="0.17"/><circle cx="929.7" cy="531.9" r="1.78" fill="#ecb478" opacity="0.33"/><circle cx="967.8" cy="534.1" r="2.65" fill="#ecb478" opacity="0.32"/><circle cx="1002.3" cy="533.2" r="2.33" fill="#ecb478" opacity="0.27"/><circle cx="1036.5" cy="536.8" r="3.88" fill="#ecb478" opacity="0.23"/><circle cx="1072.4" cy="533.9" r="2.45" fill="#ecb478" opacity="0.31"/><circle cx="1109.7" cy="534.3" r="3.85" fill="#ecb478" opacity="0.33"/><circle cx="1143.2" cy="536.1" r="1.61" fill="#ecb478" opacity="0.17"/><circle cx="1183.7" cy="531.7" r="3.05" fill="#ecb478" opacity="0.33"/><circle cx="28.9" cy="572.8" r="3.92" fill="#ecb478" opacity="0.29"/><circle cx="68.8" cy="569.8" r="3.18" fill="#ecb478" opacity="0.27"/><circle cx="104.1" cy="572.6" r="1.93" fill="#ecb478" opacity="0.29"/><circle cx="138.1" cy="567.8" r="3.71" fill="#ecb478" opacity="0.32"/><circle cx="172.6" cy="568.9" r="2.22" fill="#ecb478" opacity="0.29"/><circle cx="212.5" cy="568.8" r="2.86" fill="#ecb478" opacity="0.27"/><circle cx="249.0" cy="570.6" r="2.88" fill="#ecb478" opacity="0.20"/><circle cx="279.6" cy="572.8" r="3.66" fill="#ecb478" opacity="0.20"/><circle cx="319.8" cy="567.6" r="3.07" fill="#ecb478" opacity="0.29"/><circle cx="352.9" cy="568.6" r="3.37" fill="#ecb478" opacity="0.15"/><circle cx="389.7" cy="567.7" r="2.31" fill="#ecb478" opacity="0.18"/><circle cx="428.4" cy="569.5" r="2.55" fill="#ecb478" opacity="0.28"/><circle cx="464.5" cy="567.2" r="2.16" fill="#ecb478" opacity="0.19"/><circle cx="496.6" cy="570.4" r="3.36" fill="#ecb478" opacity="0.21"/><circle cx="531.5" cy="568.8" r="2.84" fill="#ecb478" opacity="0.17"/><circle cx="572.1" cy="571.9" r="3.03" fill="#ecb478" opacity="0.33"/><circle cx="608.3" cy="571.5" r="2.60" fill="#ecb478" opacity="0.20"/><circle cx="640.3" cy="572.3" r="2.39" fill="#ecb478" opacity="0.21"/><circle cx="680.3" cy="570.1" r="1.99" fill="#ecb478" opacity="0.36"/><circle cx="715.2" cy="570.7" r="2.58" fill="#ecb478" opacity="0.23"/><circle cx="750.3" cy="572.5" r="3.67" fill="#ecb478" opacity="0.27"/><circle cx="788.5" cy="572.2" r="2.70" fill="#ecb478" opacity="0.35"/><circle cx="823.4" cy="567.4" r="3.10" fill="#ecb478" opacity="0.32"/><circle cx="856.3" cy="567.7" r="2.80" fill="#ecb478" opacity="0.24"/><circle cx="896.2" cy="570.9" r="1.99" fill="#ecb478" opacity="0.24"/><circle cx="927.2" cy="567.9" r="2.34" fill="#ecb478" opacity="0.15"/><circle cx="964.6" cy="571.0" r="1.61" fill="#ecb478" opacity="0.18"/><circle cx="1004.2" cy="568.1" r="3.09" fill="#ecb478" opacity="0.19"/><circle cx="1040.8" cy="569.1" r="1.81" fill="#ecb478" opacity="0.22"/><circle cx="1076.6" cy="572.1" r="2.66" fill="#ecb478" opacity="0.34"/><circle cx="1111.4" cy="568.6" r="3.46" fill="#ecb478" opacity="0.29"/><circle cx="1145.8" cy="572.5" r="2.99" fill="#ecb478" opacity="0.25"/><circle cx="1181.4" cy="568.6" r="3.18" fill="#ecb478" opacity="0.33"/><circle cx="27.5" cy="608.9" r="2.50" fill="#ecb478" opacity="0.29"/><circle cx="64.1" cy="608.0" r="2.83" fill="#ecb478" opacity="0.19"/><circle cx="104.8" cy="606.8" r="2.02" fill="#ecb478" opacity="0.25"/><circle cx="137.8" cy="603.2" r="2.69" fill="#ecb478" opacity="0.32"/><circle cx="174.2" cy="605.2" r="2.99" fill="#ecb478" opacity="0.35"/><circle cx="209.1" cy="604.9" r="3.48" fill="#ecb478" opacity="0.30"/><circle cx="245.7" cy="605.2" r="2.10" fill="#ecb478" opacity="0.32"/><circle cx="283.3" cy="609.0" r="2.65" fill="#ecb478" opacity="0.31"/><circle cx="315.2" cy="606.7" r="1.76" fill="#ecb478" opacity="0.28"/><circle cx="355.1" cy="606.6" r="2.96" fill="#ecb478" opacity="0.22"/><circle cx="388.4" cy="605.4" r="1.85" fill="#ecb478" opacity="0.20"/><circle cx="425.6" cy="607.1" r="2.77" fill="#ecb478" opacity="0.19"/><circle cx="459.9" cy="608.0" r="1.70" fill="#ecb478" opacity="0.29"/><circle cx="495.8" cy="605.9" r="3.02" fill="#ecb478" opacity="0.21"/><circle cx="531.4" cy="604.1" r="3.31" fill="#ecb478" opacity="0.32"/><circle cx="567.8" cy="604.9" r="2.16" fill="#ecb478" opacity="0.27"/><circle cx="606.8" cy="606.7" r="2.50" fill="#ecb478" opacity="0.22"/><circle cx="639.6" cy="605.0" r="2.37" fill="#ecb478" opacity="0.18"/><circle cx="679.6" cy="608.9" r="3.18" fill="#ecb478" opacity="0.20"/><circle cx="712.2" cy="604.4" r="2.12" fill="#ecb478" opacity="0.27"/><circle cx="750.6" cy="604.9" r="3.28" fill="#ecb478" opacity="0.36"/><circle cx="787.9" cy="608.5" r="3.20" fill="#ecb478" opacity="0.16"/><circle cx="821.3" cy="604.3" r="2.34" fill="#ecb478" opacity="0.18"/><circle cx="855.8" cy="607.0" r="2.67" fill="#ecb478" opacity="0.20"/><circle cx="896.8" cy="605.1" r="3.78" fill="#ecb478" opacity="0.35"/><circle cx="932.7" cy="608.1" r="2.87" fill="#ecb478" opacity="0.35"/><circle cx="968.4" cy="605.8" r="2.35" fill="#ecb478" opacity="0.20"/><circle cx="1001.4" cy="605.5" r="3.08" fill="#ecb478" opacity="0.17"/><circle cx="1036.2" cy="608.2" r="3.35" fill="#ecb478" opacity="0.33"/><circle cx="1074.9" cy="608.2" r="3.09" fill="#ecb478" opacity="0.19"/><circle cx="1108.3" cy="608.5" r="3.24" fill="#ecb478" opacity="0.16"/><circle cx="1143.9" cy="606.3" r="2.41" fill="#ecb478" opacity="0.22"/><circle cx="1179.6" cy="607.9" r="3.52" fill="#ecb478" opacity="0.35"/><circle cx="28.6" cy="644.4" r="3.84" fill="#ecb478" opacity="0.33"/><circle cx="67.3" cy="641.5" r="1.77" fill="#ecb478" opacity="0.32"/><circle cx="104.8" cy="642.1" r="1.86" fill="#ecb478" opacity="0.25"/><circle cx="137.1" cy="644.6" r="3.18" fill="#ecb478" opacity="0.24"/><circle cx="175.5" cy="639.5" r="3.38" fill="#ecb478" opacity="0.17"/><circle cx="207.4" cy="641.0" r="3.33" fill="#ecb478" opacity="0.26"/><circle cx="244.8" cy="640.9" r="2.95" fill="#ecb478" opacity="0.21"/><circle cx="283.7" cy="640.7" r="2.66" fill="#ecb478" opacity="0.15"/><circle cx="316.4" cy="644.9" r="2.07" fill="#ecb478" opacity="0.31"/><circle cx="352.0" cy="644.2" r="3.48" fill="#ecb478" opacity="0.18"/><circle cx="388.5" cy="642.0" r="3.54" fill="#ecb478" opacity="0.24"/><circle cx="429.0" cy="644.5" r="2.05" fill="#ecb478" opacity="0.30"/><circle cx="464.9" cy="641.1" r="3.97" fill="#ecb478" opacity="0.23"/><circle cx="497.5" cy="644.8" r="2.20" fill="#ecb478" opacity="0.21"/><circle cx="532.2" cy="641.1" r="2.22" fill="#ecb478" opacity="0.25"/><circle cx="572.1" cy="640.5" r="3.48" fill="#ecb478" opacity="0.20"/><circle cx="606.5" cy="643.5" r="1.73" fill="#ecb478" opacity="0.34"/><circle cx="644.1" cy="639.3" r="3.52" fill="#ecb478" opacity="0.29"/><circle cx="676.4" cy="640.6" r="3.55" fill="#ecb478" opacity="0.16"/><circle cx="712.8" cy="639.6" r="3.87" fill="#ecb478" opacity="0.32"/><circle cx="750.1" cy="642.2" r="3.72" fill="#ecb478" opacity="0.21"/><circle cx="787.5" cy="644.3" r="3.31" fill="#ecb478" opacity="0.31"/><circle cx="821.3" cy="639.4" r="1.85" fill="#ecb478" opacity="0.27"/><circle cx="857.6" cy="640.3" r="3.03" fill="#ecb478" opacity="0.25"/><circle cx="892.5" cy="639.8" r="1.91" fill="#ecb478" opacity="0.22"/><circle cx="933.0" cy="643.5" r="2.65" fill="#ecb478" opacity="0.26"/><circle cx="968.9" cy="640.2" r="3.63" fill="#ecb478" opacity="0.29"/><circle cx="1005.0" cy="642.6" r="1.85" fill="#ecb478" opacity="0.16"/><circle cx="1040.2" cy="642.0" r="1.97" fill="#ecb478" opacity="0.29"/><circle cx="1075.8" cy="640.3" r="2.34" fill="#ecb478" opacity="0.34"/><circle cx="1107.4" cy="640.3" r="2.05" fill="#ecb478" opacity="0.31"/><circle cx="1144.0" cy="639.5" r="2.03" fill="#ecb478" opacity="0.25"/><circle cx="1184.4" cy="639.9" r="2.60" fill="#ecb478" opacity="0.34"/><circle cx="207.3" cy="216.1" r="220" fill="url(#glow)" opacity="0.9"/>
  <g opacity="0.85" transform="translate(1020, 495)">
        <circle r="60" fill="#ecb478" opacity="0.18"/>
        <path d="M -34 6 Q -10 -22 14 6 Q 34 24 14 26 L -22 26 Q -38 24 -34 6 Z" fill="none" stroke="#faebd6" stroke-width="3" stroke-linejoin="round"/>
      </g>
  <g transform="translate(80, 90)">
    <rect x="0" y="0" rx="20" ry="20" width="134" height="38" fill="#ecb478" opacity="0.18" stroke="#ecb478" stroke-width="1.5"/>
    <text x="67" y="25" font-family="ui-sans-serif, Inter, sans-serif" font-weight="700" font-size="14" letter-spacing="2.5" fill="#ecb478" text-anchor="middle">CASE STUDY</text>
  </g>
  <text x="80" y="465" font-family="ui-sans-serif, -apple-system, Segoe UI, Inter, sans-serif" font-weight="800" font-size="44" fill="#faf8f5" opacity="0.98"><tspan x="80" dy="0">Auto Rickshaw Loan Case</tspan><tspan x="80" dy="56">Study: Loan Restructuring</tspan><tspan x="80" dy="56">and Settlement with PDR</tspan></text>
  <rect x="0" y="669" width="1200" height="6" fill="url(#gold)"/>
</svg>