<?xml version="1.0" encoding="UTF-8"?>
<svg xmlns="http://www.w3.org/2000/svg" viewBox="0 0 1200 675" width="1200" height="675" role="img" aria-label="Join Our Team of Neutrals at PDR COURT">
  <defs>
    <linearGradient id="bg" x1="0%" y1="0%" x2="100%" y2="100%">
      <stop offset="0%" stop-color="#643516"/>
      <stop offset="100%" stop-color="#7d4315"/>
    </linearGradient>
    <linearGradient id="gold" x1="0%" y1="0%" x2="100%" y2="100%">
      <stop offset="0%" stop-color="#ecb478"/>
      <stop offset="100%" stop-color="#faebd6"/>
    </linearGradient>
    <radialGradient id="glow" cx="50%" cy="50%" r="50%">
      <stop offset="0%" stop-color="#ecb478" stop-opacity="0.45"/>
      <stop offset="100%" stop-color="#ecb478" stop-opacity="0"/>
    </radialGradient>
  </defs>
  <rect width="1200" height="675" fill="url(#bg)"/>
  <polygon points="-50,230.8 -20,222.6 10,215.8 40,210.5 70,206.9 100,205.0 130,204.9 160,206.6 190,210.0 220,215.1 250,221.7 280,229.8 310,239.0 340,249.3 370,260.4 400,272.0 430,283.9 460,295.8 490,307.4 520,318.6 550,328.9 580,338.2 610,346.4 640,353.1 670,358.3 700,361.8 730,363.6 760,363.6 790,361.9 820,358.3 850,353.2 880,346.4 910,338.3 940,329.0 970,318.6 1000,307.5 1030,295.9 1060,284.0 1090,272.1 1120,260.5 1150,249.4 1180,239.1 1210,229.8 1240,221.8 1250,725 -50,725" fill="#ecb478" opacity="0.08"/><polygon points="-50,336.2 -20,326.2 10,316.5 40,307.2 70,298.5 100,290.7 130,283.9 160,278.3 190,273.9 220,271.0 250,269.5 280,269.5 310,270.9 340,273.9 370,278.2 400,283.8 430,290.6 460,298.4 490,307.1 520,316.4 550,326.1 580,336.0 610,346.0 640,355.7 670,365.0 700,373.6 730,381.3 760,388.1 790,393.6 820,397.9 850,400.8 880,402.2 910,402.1 940,400.6 970,397.5 1000,393.1 1030,387.4 1060,380.6 1090,372.7 1120,364.0 1150,354.7 1180,345.0 1210,335.0 1240,325.1 1250,725 -50,725" fill="#ecb478" opacity="0.13"/><polygon points="-50,476.9 -20,473.8 10,469.2 40,463.0 70,455.6 100,447.0 130,437.4 160,427.0 190,416.2 220,405.0 250,393.9 280,382.9 310,372.4 340,362.7 370,353.8 400,346.1 430,339.6 460,334.6 490,331.2 520,329.4 550,329.2 580,330.8 610,333.9 640,338.7 670,344.9 700,352.4 730,361.1 760,370.7 790,381.1 820,392.0 850,403.1 880,414.3 910,425.2 940,435.6 970,445.4 1000,454.2 1030,461.8 1060,468.2 1090,473.1 1120,476.5 1150,478.2 1180,478.2 1210,476.6 1240,473.4 1250,725 -50,725" fill="#ecb478" opacity="0.18"/><polygon points="-50,431.1 -20,433.6 10,437.3 40,442.1 70,447.9 100,454.7 130,462.1 160,470.2 190,478.6 220,487.3 250,495.9 280,504.4 310,512.5 340,520.0 370,526.8 400,532.7 430,537.6 460,541.4 490,544.0 520,545.3 550,545.3 580,544.1 610,541.5 640,537.8 670,532.9 700,527.0 730,520.2 760,512.7 790,504.6 820,496.2 850,487.5 880,478.9 910,470.4 940,462.4 970,454.9 1000,448.1 1030,442.2 1060,437.4 1090,433.7 1120,431.2 1150,429.9 1180,430.0 1210,431.3 1240,433.9 1250,725 -50,725" fill="#ecb478" opacity="0.23"/><circle cx="300.0" cy="189.0" r="160" fill="url(#glow)"/>
  <g opacity="0.85" transform="translate(1020, 495)">
        <polygon points="0,-50 43,25 -43,25" fill="none" stroke="#ecb478" stroke-width="2"/>
        <polygon points="0,-30 26,15 -26,15" fill="#faebd6" opacity="0.4"/>
      </g>
  <g transform="translate(80, 90)">
    <rect x="0" y="0" rx="20" ry="20" width="145" height="38" fill="#ecb478" opacity="0.18" stroke="#ecb478" stroke-width="1.5"/>
    <text x="72.5" y="25" font-family="ui-sans-serif, Inter, sans-serif" font-weight="700" font-size="14" letter-spacing="2.5" fill="#ecb478" text-anchor="middle">INFORMATION</text>
  </g>
  <text x="80" y="515" font-family="ui-sans-serif, -apple-system, Segoe UI, Inter, sans-serif" font-weight="800" font-size="44" fill="#faf8f5" opacity="0.98"><tspan x="80" dy="0">Join Our Team of Neutrals</tspan><tspan x="80" dy="56">at PDR COURT</tspan></text>
  <rect x="0" y="669" width="1200" height="6" fill="url(#gold)"/>
</svg>