<?xml version="1.0" encoding="UTF-8"?>
<svg xmlns="http://www.w3.org/2000/svg" viewBox="0 0 1200 675" width="1200" height="675" role="img" aria-label="PDR COURT's Newsroom: Source the latest ADR news">
  <defs>
    <linearGradient id="bg" x1="0%" y1="0%" x2="100%" y2="100%">
      <stop offset="0%" stop-color="#faf8f5"/>
      <stop offset="100%" stop-color="#f4efe8"/>
    </linearGradient>
    <linearGradient id="gold" x1="0%" y1="0%" x2="100%" y2="100%">
      <stop offset="0%" stop-color="#bd6b20"/>
      <stop offset="100%" stop-color="#9a5518"/>
    </linearGradient>
    <radialGradient id="glow" cx="50%" cy="50%" r="50%">
      <stop offset="0%" stop-color="#bd6b20" stop-opacity="0.45"/>
      <stop offset="100%" stop-color="#bd6b20" stop-opacity="0"/>
    </radialGradient>
  </defs>
  <rect width="1200" height="675" fill="url(#bg)"/>
  <polygon points="874.4,519.5 711.9,387.3 907.6,312.7" fill="#9a5518" opacity="0.18"/><polygon points="528.1,478.5 712.5,520.5 583.9,659.1" fill="#9a5518" opacity="0.05"/><polygon points="238.8,121.5 361.0,180.5 342.7,315.0 209.2,339.1 145.0,219.6" fill="#9a5518" opacity="0.11"/><polygon points="432.8,329.5 209.9,348.2 191.2,125.3 414.1,106.6" fill="#9a5518" opacity="0.08"/><polygon points="242.7,549.9 184.8,432.9 301.8,374.9 359.8,492.0" fill="#9a5518" opacity="0.06"/><polygon points="388.9,52.3 340.5,38.9 338.3,-11.4 385.5,-29.0 416.7,10.4" fill="#9a5518" opacity="0.10"/><polygon points="516.6,447.0 350.0,373.1 368.8,191.8 547.0,153.7 638.4,311.4" fill="#9a5518" opacity="0.10"/><polygon points="1202.6,141.1 1043.1,-0.2 1245.2,-67.7" fill="#9a5518" opacity="0.09"/><polygon points="859.1,552.2 869.4,659.9 761.7,670.2 751.4,562.5" fill="#9a5518" opacity="0.11"/><polygon points="524.5,501.2 470.7,254.9 710.9,331.5" fill="#9a5518" opacity="0.07"/><polygon points="531.6,530.3 473.3,703.1 291.0,701.1 236.6,527.1 385.3,421.5" fill="#9a5518" opacity="0.13"/><polygon points="286.4,462.8 248.7,513.1 198.4,475.3 236.2,425.0" fill="#9a5518" opacity="0.14"/><polygon points="305.6,637.5 137.1,637.7 84.8,477.5 221.0,378.3 357.5,477.2" fill="#9a5518" opacity="0.19"/><polygon points="1109.6,307.9 1173.4,389.1 1115.9,474.8 1016.6,446.6 1012.8,343.5" fill="#9a5518" opacity="0.13"/><circle cx="936.0" cy="202.5" r="180" fill="url(#glow)"/>
  <g opacity="0.85" transform="translate(1020, 495)">
        <polygon points="0,-50 43,25 -43,25" fill="none" stroke="#bd6b20" stroke-width="2"/>
        <polygon points="0,-30 26,15 -26,15" fill="#9a5518" opacity="0.4"/>
      </g>
  <g transform="translate(80, 90)">
    <rect x="0" y="0" rx="20" ry="20" width="145" height="38" fill="#bd6b20" opacity="0.18" stroke="#bd6b20" stroke-width="1.5"/>
    <text x="72.5" y="25" font-family="ui-sans-serif, Inter, sans-serif" font-weight="700" font-size="14" letter-spacing="2.5" fill="#bd6b20" text-anchor="middle">INFORMATION</text>
  </g>
  <text x="80" y="515" font-family="ui-sans-serif, -apple-system, Segoe UI, Inter, sans-serif" font-weight="800" font-size="44" fill="#12100e" opacity="0.98"><tspan x="80" dy="0">PDR COURT's Newsroom:</tspan><tspan x="80" dy="56">Source the latest ADR news</tspan></text>
  <rect x="0" y="669" width="1200" height="6" fill="url(#gold)"/>
</svg>