<?xml version="1.0" encoding="UTF-8"?>
<svg xmlns="http://www.w3.org/2000/svg" viewBox="0 0 1200 675" width="1200" height="675" role="img" aria-label="NLU Delhi Launches Course to Boost India's Arbitration Skills">
  <defs>
    <linearGradient id="bg" x1="0%" y1="0%" x2="100%" y2="100%">
      <stop offset="0%" stop-color="#643516"/>
      <stop offset="100%" stop-color="#7d4315"/>
    </linearGradient>
    <linearGradient id="gold" x1="0%" y1="0%" x2="100%" y2="100%">
      <stop offset="0%" stop-color="#ecb478"/>
      <stop offset="100%" stop-color="#faebd6"/>
    </linearGradient>
    <radialGradient id="glow" cx="50%" cy="50%" r="50%">
      <stop offset="0%" stop-color="#ecb478" stop-opacity="0.45"/>
      <stop offset="100%" stop-color="#ecb478" stop-opacity="0"/>
    </radialGradient>
  </defs>
  <rect width="1200" height="675" fill="url(#bg)"/>
  <polygon points="-50,263.4 -20,272.1 10,281.3 40,291.0 70,300.8 100,310.5 130,320.0 160,329.0 190,337.3 220,344.8 250,351.2 280,356.4 310,360.4 340,362.9 370,364.0 400,363.6 430,361.8 460,358.5 490,353.9 520,348.1 550,341.1 580,333.2 610,324.5 640,315.2 670,305.5 700,295.7 730,286.0 760,276.5 790,267.6 820,259.3 850,251.9 880,245.5 910,240.4 940,236.5 970,234.1 1000,233.1 1030,233.5 1060,235.5 1090,238.8 1120,243.5 1150,249.4 1180,256.4 1210,264.4 1240,273.1 1250,725 -50,725" fill="#ecb478" opacity="0.08"/><polygon points="-50,398.9 -20,403.0 10,406.2 40,408.5 70,409.7 100,410.0 130,409.2 160,407.4 190,404.6 220,400.9 250,396.4 280,391.1 310,385.3 340,378.9 370,372.3 400,365.4 430,358.5 460,351.7 490,345.2 520,339.1 550,333.6 580,328.8 610,324.7 640,321.6 670,319.3 700,318.1 730,317.9 760,318.8 790,320.6 820,323.5 850,327.2 880,331.8 910,337.1 940,342.9 970,349.3 1000,356.0 1030,362.9 1060,369.8 1090,376.5 1120,383.0 1150,389.1 1180,394.6 1210,399.4 1240,403.4 1250,725 -50,725" fill="#ecb478" opacity="0.13"/><polygon points="-50,352.3 -20,361.4 10,371.7 40,383.0 70,394.8 100,407.1 130,419.4 160,431.6 190,443.4 220,454.4 250,464.5 280,473.5 310,481.0 340,487.0 370,491.3 400,493.8 430,494.5 460,493.4 490,490.4 520,485.6 550,479.2 580,471.3 610,462.1 640,451.7 670,440.5 700,428.6 730,416.3 760,403.9 790,391.8 820,380.0 850,369.0 880,359.0 910,350.1 940,342.7 970,336.8 1000,332.6 1030,330.1 1060,329.5 1090,330.8 1120,333.9 1150,338.7 1180,345.2 1210,353.2 1240,362.5 1250,725 -50,725" fill="#ecb478" opacity="0.18"/><polygon points="-50,535.0 -20,537.1 10,537.9 40,537.4 70,535.7 100,532.8 130,528.7 160,523.5 190,517.4 220,510.5 250,503.0 280,494.9 310,486.6 340,478.1 370,469.7 400,461.6 430,453.9 460,446.9 490,440.6 520,435.2 550,430.9 580,427.7 610,425.7 640,424.9 670,425.4 700,427.2 730,430.2 760,434.4 790,439.6 820,445.7 850,452.7 880,460.3 910,468.3 940,476.7 970,485.1 1000,493.5 1030,501.6 1060,509.3 1090,516.3 1120,522.6 1150,527.9 1180,532.1 1210,535.3 1240,537.2 1250,725 -50,725" fill="#ecb478" opacity="0.23"/><circle cx="300.0" cy="189.0" r="160" fill="url(#glow)"/>
  <g opacity="0.85" transform="translate(1020, 495)">
        <circle r="68" fill="none" stroke="#ecb478" stroke-width="2" opacity="0.35"/>
        <path d="M -38 12 L 38 12 M -32 -8 L 32 -8 M -45 -28 L 45 -28" stroke="#faebd6" stroke-width="3" stroke-linecap="round"/>
        <rect x="-50" y="-44" width="100" height="80" fill="none" stroke="#ecb478" stroke-width="2"/>
      </g>
  <g transform="translate(80, 90)">
    <rect x="0" y="0" rx="20" ry="20" width="112" height="38" fill="#ecb478" opacity="0.18" stroke="#ecb478" stroke-width="1.5"/>
    <text x="56" y="25" font-family="ui-sans-serif, Inter, sans-serif" font-weight="700" font-size="14" letter-spacing="2.5" fill="#ecb478" text-anchor="middle">NEWSROOM</text>
  </g>
  <text x="80" y="465" font-family="ui-sans-serif, -apple-system, Segoe UI, Inter, sans-serif" font-weight="800" font-size="44" fill="#faf8f5" opacity="0.98"><tspan x="80" dy="0">NLU Delhi Launches Course</tspan><tspan x="80" dy="56">to Boost India's</tspan><tspan x="80" dy="56">Arbitration Skills</tspan></text>
  <rect x="0" y="669" width="1200" height="6" fill="url(#gold)"/>
</svg>