<?xml version="1.0" encoding="UTF-8"?>
<svg xmlns="http://www.w3.org/2000/svg" viewBox="0 0 1200 675" width="1200" height="675" role="img" aria-label="Resolving Complex Financial Disputes: A Case Study in Alternative Dispute Resolution">
  <defs>
    <linearGradient id="bg" x1="0%" y1="0%" x2="100%" y2="100%">
      <stop offset="0%" stop-color="#faf8f5"/>
      <stop offset="100%" stop-color="#f4efe8"/>
    </linearGradient>
    <linearGradient id="gold" x1="0%" y1="0%" x2="100%" y2="100%">
      <stop offset="0%" stop-color="#bd6b20"/>
      <stop offset="100%" stop-color="#9a5518"/>
    </linearGradient>
    <radialGradient id="glow" cx="50%" cy="50%" r="50%">
      <stop offset="0%" stop-color="#bd6b20" stop-opacity="0.45"/>
      <stop offset="100%" stop-color="#bd6b20" stop-opacity="0"/>
    </radialGradient>
  </defs>
  <rect width="1200" height="675" fill="url(#bg)"/>
  <circle cx="32.0" cy="32.7" r="1.69" fill="#bd6b20" opacity="0.29"/><circle cx="65.6" cy="32.3" r="3.87" fill="#bd6b20" opacity="0.23"/><circle cx="100.5" cy="31.6" r="2.59" fill="#bd6b20" opacity="0.15"/><circle cx="139.0" cy="32.8" r="2.20" fill="#bd6b20" opacity="0.32"/><circle cx="175.6" cy="31.2" r="3.20" fill="#bd6b20" opacity="0.25"/><circle cx="209.1" cy="29.1" r="3.41" fill="#bd6b20" opacity="0.23"/><circle cx="245.2" cy="31.2" r="2.34" fill="#bd6b20" opacity="0.34"/><circle cx="284.3" cy="31.6" r="3.23" fill="#bd6b20" opacity="0.23"/><circle cx="320.8" cy="31.1" r="3.05" fill="#bd6b20" opacity="0.31"/><circle cx="356.4" cy="31.0" r="2.61" fill="#bd6b20" opacity="0.24"/><circle cx="389.1" cy="32.5" r="3.84" fill="#bd6b20" opacity="0.28"/><circle cx="423.2" cy="30.6" r="3.89" fill="#bd6b20" opacity="0.18"/><circle cx="460.6" cy="30.8" r="2.15" fill="#bd6b20" opacity="0.21"/><circle cx="496.4" cy="28.2" r="2.54" fill="#bd6b20" opacity="0.32"/><circle cx="536.9" cy="27.3" r="3.55" fill="#bd6b20" opacity="0.22"/><circle cx="569.4" cy="29.1" r="2.32" fill="#bd6b20" opacity="0.22"/><circle cx="607.9" cy="31.1" r="2.27" fill="#bd6b20" opacity="0.32"/><circle cx="642.9" cy="32.4" r="2.71" fill="#bd6b20" opacity="0.29"/><circle cx="677.6" cy="28.1" r="3.68" fill="#bd6b20" opacity="0.25"/><circle cx="711.7" cy="30.5" r="2.05" fill="#bd6b20" opacity="0.27"/><circle cx="752.2" cy="31.3" r="2.26" fill="#bd6b20" opacity="0.22"/><circle cx="788.7" cy="27.0" r="2.30" fill="#bd6b20" opacity="0.33"/><circle cx="820.7" cy="29.4" r="3.50" fill="#bd6b20" opacity="0.21"/><circle cx="857.0" cy="29.2" r="3.74" fill="#bd6b20" opacity="0.26"/><circle cx="893.4" cy="28.5" r="3.56" fill="#bd6b20" opacity="0.26"/><circle cx="931.9" cy="29.9" r="2.46" fill="#bd6b20" opacity="0.29"/><circle cx="967.0" cy="28.2" r="3.11" fill="#bd6b20" opacity="0.32"/><circle cx="1003.2" cy="29.8" r="2.54" fill="#bd6b20" opacity="0.23"/><circle cx="1040.7" cy="31.9" r="2.51" fill="#bd6b20" opacity="0.21"/><circle cx="1071.9" cy="28.4" r="3.95" fill="#bd6b20" opacity="0.16"/><circle cx="1107.7" cy="31.1" r="2.26" fill="#bd6b20" opacity="0.20"/><circle cx="1147.4" cy="31.8" r="3.62" fill="#bd6b20" opacity="0.23"/><circle cx="1179.7" cy="32.4" r="1.65" fill="#bd6b20" opacity="0.28"/><circle cx="30.7" cy="68.7" r="1.93" fill="#bd6b20" opacity="0.17"/><circle cx="66.1" cy="66.5" r="3.82" fill="#bd6b20" opacity="0.35"/><circle cx="102.0" cy="66.1" r="2.12" fill="#bd6b20" opacity="0.25"/><circle cx="137.1" cy="66.5" r="2.94" fill="#bd6b20" opacity="0.31"/><circle cx="172.7" cy="67.1" r="3.91" fill="#bd6b20" opacity="0.16"/><circle cx="211.5" cy="68.7" r="3.92" fill="#bd6b20" opacity="0.21"/><circle cx="244.5" cy="66.9" r="2.12" fill="#bd6b20" opacity="0.22"/><circle cx="282.1" cy="63.1" r="3.75" fill="#bd6b20" opacity="0.34"/><circle cx="318.8" cy="66.0" r="2.24" fill="#bd6b20" opacity="0.20"/><circle cx="351.1" cy="68.3" r="2.01" fill="#bd6b20" opacity="0.30"/><circle cx="387.4" cy="63.9" r="3.05" fill="#bd6b20" opacity="0.32"/><circle cx="428.6" cy="67.0" r="2.73" fill="#bd6b20" opacity="0.36"/><circle cx="459.5" cy="68.4" r="2.16" fill="#bd6b20" opacity="0.33"/><circle cx="498.7" cy="65.3" r="3.20" fill="#bd6b20" opacity="0.29"/><circle cx="531.4" cy="63.6" r="3.15" fill="#bd6b20" opacity="0.17"/><circle cx="570.3" cy="67.3" r="1.92" fill="#bd6b20" opacity="0.26"/><circle cx="604.0" cy="64.0" r="3.67" fill="#bd6b20" opacity="0.36"/><circle cx="639.9" cy="67.2" r="2.91" fill="#bd6b20" opacity="0.25"/><circle cx="680.5" cy="64.1" r="3.90" fill="#bd6b20" opacity="0.33"/><circle cx="716.3" cy="66.8" r="3.38" fill="#bd6b20" opacity="0.19"/><circle cx="749.2" cy="66.0" r="1.61" fill="#bd6b20" opacity="0.19"/><circle cx="787.5" cy="65.4" r="3.03" fill="#bd6b20" opacity="0.29"/><circle cx="822.3" cy="66.7" r="3.58" fill="#bd6b20" opacity="0.21"/><circle cx="855.0" cy="64.9" r="3.56" fill="#bd6b20" opacity="0.23"/><circle cx="893.5" cy="66.0" r="3.80" fill="#bd6b20" opacity="0.33"/><circle cx="930.5" cy="65.1" r="3.46" fill="#bd6b20" opacity="0.33"/><circle cx="967.5" cy="66.0" r="1.68" fill="#bd6b20" opacity="0.29"/><circle cx="1004.1" cy="65.1" r="1.78" fill="#bd6b20" opacity="0.34"/><circle cx="1035.8" cy="67.7" r="1.81" fill="#bd6b20" opacity="0.20"/><circle cx="1073.6" cy="65.5" r="2.83" fill="#bd6b20" opacity="0.35"/><circle cx="1112.0" cy="66.8" r="3.10" fill="#bd6b20" opacity="0.18"/><circle cx="1145.3" cy="67.6" r="3.76" fill="#bd6b20" opacity="0.35"/><circle cx="1181.8" cy="67.5" r="3.73" fill="#bd6b20" opacity="0.29"/><circle cx="31.0" cy="102.2" r="3.42" fill="#bd6b20" opacity="0.33"/><circle cx="68.9" cy="103.0" r="3.64" fill="#bd6b20" opacity="0.24"/><circle cx="105.0" cy="103.8" r="2.58" fill="#bd6b20" opacity="0.28"/><circle cx="138.5" cy="100.4" r="1.96" fill="#bd6b20" opacity="0.16"/><circle cx="171.1" cy="102.0" r="3.94" fill="#bd6b20" opacity="0.19"/><circle cx="208.2" cy="99.3" r="3.80" fill="#bd6b20" opacity="0.26"/><circle cx="244.1" cy="103.1" r="3.42" fill="#bd6b20" opacity="0.33"/><circle cx="281.2" cy="102.5" r="3.47" fill="#bd6b20" opacity="0.17"/><circle cx="317.4" cy="99.8" r="2.64" fill="#bd6b20" opacity="0.34"/><circle cx="354.2" cy="102.9" r="3.14" fill="#bd6b20" opacity="0.30"/><circle cx="392.5" cy="104.0" r="2.40" fill="#bd6b20" opacity="0.27"/><circle cx="428.6" cy="102.4" r="2.75" fill="#bd6b20" opacity="0.26"/><circle cx="460.1" cy="101.8" r="3.47" fill="#bd6b20" opacity="0.15"/><circle cx="497.5" cy="104.9" r="3.96" fill="#bd6b20" opacity="0.35"/><circle cx="534.2" cy="103.6" r="1.72" fill="#bd6b20" opacity="0.30"/><circle cx="571.2" cy="104.8" r="2.06" fill="#bd6b20" opacity="0.19"/><circle cx="606.3" cy="102.1" r="2.74" fill="#bd6b20" opacity="0.25"/><circle cx="639.1" cy="104.8" r="2.31" fill="#bd6b20" opacity="0.21"/><circle cx="679.7" cy="102.4" r="2.79" fill="#bd6b20" opacity="0.28"/><circle cx="716.9" cy="103.9" r="2.06" fill="#bd6b20" opacity="0.15"/><circle cx="750.2" cy="102.7" r="3.77" fill="#bd6b20" opacity="0.20"/><circle cx="784.7" cy="101.7" r="1.78" fill="#bd6b20" opacity="0.25"/><circle cx="819.7" cy="100.5" r="2.87" fill="#bd6b20" opacity="0.35"/><circle cx="857.8" cy="99.4" r="3.60" fill="#bd6b20" opacity="0.17"/><circle cx="895.7" cy="103.2" r="3.80" fill="#bd6b20" opacity="0.33"/><circle cx="931.7" cy="101.6" r="3.59" fill="#bd6b20" opacity="0.25"/><circle cx="967.1" cy="102.5" r="3.27" fill="#bd6b20" opacity="0.23"/><circle cx="1001.6" cy="99.5" r="3.75" fill="#bd6b20" opacity="0.18"/><circle cx="1038.3" cy="101.1" r="3.62" fill="#bd6b20" opacity="0.27"/><circle cx="1073.1" cy="104.4" r="2.57" fill="#bd6b20" opacity="0.17"/><circle cx="1112.5" cy="103.4" r="1.67" fill="#bd6b20" opacity="0.15"/><circle cx="1147.4" cy="104.3" r="2.81" fill="#bd6b20" opacity="0.31"/><circle cx="1184.5" cy="102.5" r="2.90" fill="#bd6b20" opacity="0.25"/><circle cx="27.7" cy="138.1" r="1.95" fill="#bd6b20" opacity="0.17"/><circle cx="66.5" cy="139.2" r="2.98" fill="#bd6b20" opacity="0.28"/><circle cx="104.8" cy="136.3" r="1.97" fill="#bd6b20" opacity="0.34"/><circle cx="137.9" cy="135.9" r="2.82" fill="#bd6b20" opacity="0.35"/><circle cx="173.3" cy="135.0" r="2.57" fill="#bd6b20" opacity="0.36"/><circle cx="207.6" cy="138.7" r="3.75" fill="#bd6b20" opacity="0.20"/><circle cx="243.9" cy="135.8" r="1.76" fill="#bd6b20" opacity="0.27"/><circle cx="280.8" cy="138.3" r="2.04" fill="#bd6b20" opacity="0.28"/><circle cx="316.2" cy="140.6" r="2.35" fill="#bd6b20" opacity="0.32"/><circle cx="351.9" cy="137.9" r="2.85" fill="#bd6b20" opacity="0.22"/><circle cx="390.6" cy="137.6" r="2.92" fill="#bd6b20" opacity="0.25"/><circle cx="425.2" cy="135.5" r="2.60" fill="#bd6b20" opacity="0.18"/><circle cx="461.5" cy="137.2" r="1.80" fill="#bd6b20" opacity="0.16"/><circle cx="495.1" cy="136.3" r="2.35" fill="#bd6b20" opacity="0.22"/><circle cx="536.3" cy="137.0" r="3.21" fill="#bd6b20" opacity="0.22"/><circle cx="569.3" cy="139.5" r="3.18" fill="#bd6b20" opacity="0.21"/><circle cx="604.0" cy="135.3" r="2.32" fill="#bd6b20" opacity="0.30"/><circle cx="640.2" cy="135.9" r="1.81" fill="#bd6b20" opacity="0.33"/><circle cx="676.9" cy="137.5" r="2.66" fill="#bd6b20" opacity="0.29"/><circle cx="711.8" cy="140.0" r="2.03" fill="#bd6b20" opacity="0.16"/><circle cx="748.6" cy="139.9" r="2.30" fill="#bd6b20" opacity="0.31"/><circle cx="784.4" cy="138.8" r="3.42" fill="#bd6b20" opacity="0.34"/><circle cx="821.7" cy="140.8" r="2.06" fill="#bd6b20" opacity="0.36"/><circle cx="859.0" cy="135.3" r="1.66" fill="#bd6b20" opacity="0.21"/><circle cx="894.0" cy="141.0" r="2.27" fill="#bd6b20" opacity="0.24"/><circle cx="932.3" cy="135.3" r="2.65" fill="#bd6b20" opacity="0.16"/><circle cx="967.0" cy="136.3" r="3.43" fill="#bd6b20" opacity="0.36"/><circle cx="1005.0" cy="136.3" r="3.25" fill="#bd6b20" opacity="0.25"/><circle cx="1039.5" cy="137.9" r="3.23" fill="#bd6b20" opacity="0.16"/><circle cx="1072.7" cy="138.3" r="3.16" fill="#bd6b20" opacity="0.20"/><circle cx="1111.4" cy="135.1" r="1.78" fill="#bd6b20" opacity="0.18"/><circle cx="1143.4" cy="140.9" r="2.00" fill="#bd6b20" opacity="0.19"/><circle cx="1179.4" cy="135.7" r="3.64" fill="#bd6b20" opacity="0.26"/><circle cx="28.8" cy="176.8" r="1.61" fill="#bd6b20" opacity="0.21"/><circle cx="67.7" cy="174.1" r="1.95" fill="#bd6b20" opacity="0.16"/><circle cx="100.9" cy="171.5" r="1.94" fill="#bd6b20" opacity="0.34"/><circle cx="136.5" cy="174.8" r="2.68" fill="#bd6b20" opacity="0.25"/><circle cx="176.1" cy="171.6" r="2.28" fill="#bd6b20" opacity="0.36"/><circle cx="212.9" cy="172.0" r="2.63" fill="#bd6b20" opacity="0.30"/><circle cx="243.7" cy="176.9" r="2.97" fill="#bd6b20" opacity="0.18"/><circle cx="282.8" cy="174.3" r="3.36" fill="#bd6b20" opacity="0.20"/><circle cx="320.2" cy="176.7" r="3.82" fill="#bd6b20" opacity="0.15"/><circle cx="355.5" cy="175.7" r="1.76" fill="#bd6b20" opacity="0.35"/><circle cx="392.9" cy="174.4" r="3.63" fill="#bd6b20" opacity="0.27"/><circle cx="424.2" cy="171.7" r="2.13" fill="#bd6b20" opacity="0.29"/><circle cx="464.3" cy="173.3" r="2.79" fill="#bd6b20" opacity="0.20"/><circle cx="497.9" cy="174.5" r="3.05" fill="#bd6b20" opacity="0.34"/><circle cx="533.4" cy="172.4" r="3.07" fill="#bd6b20" opacity="0.27"/><circle cx="572.8" cy="172.9" r="3.01" fill="#bd6b20" opacity="0.29"/><circle cx="608.8" cy="175.1" r="2.14" fill="#bd6b20" opacity="0.36"/><circle cx="641.7" cy="176.1" r="2.78" fill="#bd6b20" opacity="0.17"/><circle cx="678.4" cy="172.3" r="3.16" fill="#bd6b20" opacity="0.36"/><circle cx="711.4" cy="172.1" r="3.46" fill="#bd6b20" opacity="0.30"/><circle cx="748.3" cy="172.9" r="3.30" fill="#bd6b20" opacity="0.15"/><circle cx="787.3" cy="171.2" r="3.64" fill="#bd6b20" opacity="0.35"/><circle cx="820.2" cy="172.9" r="1.74" fill="#bd6b20" opacity="0.26"/><circle cx="857.5" cy="176.6" r="2.40" fill="#bd6b20" opacity="0.19"/><circle cx="893.5" cy="172.7" r="3.04" fill="#bd6b20" opacity="0.34"/><circle cx="927.4" cy="171.2" r="2.41" fill="#bd6b20" opacity="0.24"/><circle cx="965.5" cy="174.5" r="3.64" fill="#bd6b20" opacity="0.27"/><circle cx="999.2" cy="171.5" r="2.54" fill="#bd6b20" opacity="0.23"/><circle cx="1037.9" cy="176.6" r="2.38" fill="#bd6b20" opacity="0.16"/><circle cx="1073.7" cy="175.4" r="1.75" fill="#bd6b20" opacity="0.27"/><circle cx="1107.7" cy="171.6" r="2.98" fill="#bd6b20" opacity="0.21"/><circle cx="1143.3" cy="176.2" r="3.37" fill="#bd6b20" opacity="0.16"/><circle cx="1183.2" cy="173.6" r="3.78" fill="#bd6b20" opacity="0.21"/><circle cx="27.5" cy="208.3" r="3.07" fill="#bd6b20" opacity="0.26"/><circle cx="67.8" cy="212.7" r="3.79" fill="#bd6b20" opacity="0.21"/><circle cx="99.3" cy="212.4" r="1.90" fill="#bd6b20" opacity="0.30"/><circle cx="140.9" cy="208.4" r="3.97" fill="#bd6b20" opacity="0.33"/><circle cx="172.0" cy="208.4" r="2.53" fill="#bd6b20" opacity="0.18"/><circle cx="209.9" cy="211.9" r="3.94" fill="#bd6b20" opacity="0.19"/><circle cx="243.4" cy="212.2" r="2.90" fill="#bd6b20" opacity="0.20"/><circle cx="283.6" cy="210.9" r="3.99" fill="#bd6b20" opacity="0.17"/><circle cx="318.8" cy="209.6" r="1.99" fill="#bd6b20" opacity="0.20"/><circle cx="355.5" cy="211.2" r="2.17" fill="#bd6b20" opacity="0.30"/><circle cx="388.8" cy="208.0" r="3.36" fill="#bd6b20" opacity="0.21"/><circle cx="427.5" cy="208.4" r="3.39" fill="#bd6b20" opacity="0.33"/><circle cx="464.4" cy="210.2" r="2.97" fill="#bd6b20" opacity="0.16"/><circle cx="498.9" cy="209.9" r="1.95" fill="#bd6b20" opacity="0.28"/><circle cx="536.6" cy="211.6" r="3.67" fill="#bd6b20" opacity="0.31"/><circle cx="568.9" cy="212.5" r="2.28" fill="#bd6b20" opacity="0.26"/><circle cx="603.6" cy="211.1" r="3.49" fill="#bd6b20" opacity="0.20"/><circle cx="643.2" cy="209.3" r="2.67" fill="#bd6b20" opacity="0.25"/><circle cx="678.8" cy="208.9" r="3.26" fill="#bd6b20" opacity="0.28"/><circle cx="712.1" cy="208.6" r="2.67" fill="#bd6b20" opacity="0.28"/><circle cx="747.9" cy="210.6" r="1.75" fill="#bd6b20" opacity="0.32"/><circle cx="784.9" cy="212.2" r="2.47" fill="#bd6b20" opacity="0.34"/><circle cx="824.6" cy="212.1" r="2.57" fill="#bd6b20" opacity="0.32"/><circle cx="859.9" cy="212.1" r="1.93" fill="#bd6b20" opacity="0.29"/><circle cx="892.0" cy="209.3" r="3.29" fill="#bd6b20" opacity="0.30"/><circle cx="927.7" cy="209.2" r="1.72" fill="#bd6b20" opacity="0.30"/><circle cx="966.9" cy="212.5" r="2.78" fill="#bd6b20" opacity="0.25"/><circle cx="1000.2" cy="212.4" r="3.03" fill="#bd6b20" opacity="0.20"/><circle cx="1036.2" cy="208.6" r="2.12" fill="#bd6b20" opacity="0.30"/><circle cx="1076.1" cy="208.2" r="2.92" fill="#bd6b20" opacity="0.27"/><circle cx="1112.7" cy="208.1" r="2.80" fill="#bd6b20" opacity="0.18"/><circle cx="1145.7" cy="208.8" r="2.73" fill="#bd6b20" opacity="0.17"/><circle cx="1180.1" cy="211.9" r="3.77" fill="#bd6b20" opacity="0.17"/><circle cx="32.3" cy="243.4" r="2.49" fill="#bd6b20" opacity="0.16"/><circle cx="66.6" cy="244.8" r="2.25" fill="#bd6b20" opacity="0.23"/><circle cx="101.4" cy="243.2" r="2.79" fill="#bd6b20" opacity="0.23"/><circle cx="138.3" cy="247.6" r="3.00" fill="#bd6b20" opacity="0.27"/><circle cx="176.1" cy="247.6" r="2.53" fill="#bd6b20" opacity="0.32"/><circle cx="212.0" cy="244.6" r="2.91" fill="#bd6b20" opacity="0.15"/><circle cx="246.1" cy="248.1" r="3.85" fill="#bd6b20" opacity="0.30"/><circle cx="283.3" cy="243.6" r="1.78" fill="#bd6b20" opacity="0.19"/><circle cx="320.1" cy="244.3" r="3.20" fill="#bd6b20" opacity="0.27"/><circle cx="352.7" cy="247.7" r="3.14" fill="#bd6b20" opacity="0.27"/><circle cx="391.5" cy="247.4" r="3.60" fill="#bd6b20" opacity="0.23"/><circle cx="427.5" cy="244.1" r="2.08" fill="#bd6b20" opacity="0.15"/><circle cx="461.1" cy="246.1" r="2.74" fill="#bd6b20" opacity="0.26"/><circle cx="500.8" cy="245.8" r="2.78" fill="#bd6b20" opacity="0.17"/><circle cx="531.6" cy="244.2" r="2.31" fill="#bd6b20" opacity="0.17"/><circle cx="568.4" cy="245.1" r="2.32" fill="#bd6b20" opacity="0.16"/><circle cx="605.6" cy="248.6" r="2.84" fill="#bd6b20" opacity="0.30"/><circle cx="642.4" cy="248.3" r="1.98" fill="#bd6b20" opacity="0.21"/><circle cx="677.0" cy="245.9" r="2.23" fill="#bd6b20" opacity="0.29"/><circle cx="711.2" cy="244.3" r="3.44" fill="#bd6b20" opacity="0.30"/><circle cx="748.5" cy="244.5" r="1.90" fill="#bd6b20" opacity="0.35"/><circle cx="788.4" cy="243.0" r="3.88" fill="#bd6b20" opacity="0.19"/><circle cx="823.8" cy="243.6" r="3.86" fill="#bd6b20" opacity="0.33"/><circle cx="857.6" cy="244.2" r="3.23" fill="#bd6b20" opacity="0.20"/><circle cx="894.9" cy="248.3" r="3.92" fill="#bd6b20" opacity="0.26"/><circle cx="930.5" cy="247.1" r="2.12" fill="#bd6b20" opacity="0.24"/><circle cx="967.3" cy="245.4" r="2.21" fill="#bd6b20" opacity="0.20"/><circle cx="1001.0" cy="248.6" r="3.96" fill="#bd6b20" opacity="0.36"/><circle cx="1036.8" cy="246.0" r="3.14" fill="#bd6b20" opacity="0.16"/><circle cx="1074.3" cy="245.1" r="2.33" fill="#bd6b20" opacity="0.25"/><circle cx="1108.2" cy="245.4" r="3.53" fill="#bd6b20" opacity="0.21"/><circle cx="1145.4" cy="245.3" r="2.63" fill="#bd6b20" opacity="0.28"/><circle cx="1181.5" cy="243.6" r="1.69" fill="#bd6b20" opacity="0.26"/><circle cx="27.8" cy="281.3" r="3.98" fill="#bd6b20" opacity="0.23"/><circle cx="67.1" cy="282.3" r="2.62" fill="#bd6b20" opacity="0.28"/><circle cx="104.2" cy="282.4" r="1.89" fill="#bd6b20" opacity="0.27"/><circle cx="139.2" cy="283.9" r="3.21" fill="#bd6b20" opacity="0.25"/><circle cx="171.2" cy="281.3" r="2.52" fill="#bd6b20" opacity="0.32"/><circle cx="212.5" cy="284.2" r="2.49" fill="#bd6b20" opacity="0.28"/><circle cx="247.4" cy="279.8" r="3.49" fill="#bd6b20" opacity="0.24"/><circle cx="284.1" cy="281.7" r="3.64" fill="#bd6b20" opacity="0.16"/><circle cx="320.1" cy="283.9" r="2.72" fill="#bd6b20" opacity="0.23"/><circle cx="353.4" cy="281.0" r="3.11" fill="#bd6b20" opacity="0.26"/><circle cx="389.1" cy="284.2" r="1.60" fill="#bd6b20" opacity="0.19"/><circle cx="427.3" cy="283.7" r="2.93" fill="#bd6b20" opacity="0.18"/><circle cx="462.1" cy="279.2" r="3.45" fill="#bd6b20" opacity="0.28"/><circle cx="497.7" cy="283.7" r="3.93" fill="#bd6b20" opacity="0.26"/><circle cx="534.7" cy="284.3" r="2.17" fill="#bd6b20" opacity="0.20"/><circle cx="567.4" cy="282.9" r="2.61" fill="#bd6b20" opacity="0.15"/><circle cx="608.8" cy="280.4" r="2.51" fill="#bd6b20" opacity="0.27"/><circle cx="640.0" cy="283.0" r="1.63" fill="#bd6b20" opacity="0.22"/><circle cx="676.9" cy="282.3" r="2.09" fill="#bd6b20" opacity="0.25"/><circle cx="714.1" cy="283.2" r="1.75" fill="#bd6b20" opacity="0.30"/><circle cx="750.1" cy="281.7" r="2.45" fill="#bd6b20" opacity="0.36"/><circle cx="786.5" cy="282.3" r="3.09" fill="#bd6b20" opacity="0.27"/><circle cx="819.9" cy="279.1" r="2.61" fill="#bd6b20" opacity="0.22"/><circle cx="859.6" cy="282.0" r="2.87" fill="#bd6b20" opacity="0.20"/><circle cx="897.0" cy="282.1" r="2.79" fill="#bd6b20" opacity="0.32"/><circle cx="930.2" cy="280.6" r="3.38" fill="#bd6b20" opacity="0.27"/><circle cx="966.4" cy="283.3" r="1.88" fill="#bd6b20" opacity="0.29"/><circle cx="1000.4" cy="280.7" r="3.75" fill="#bd6b20" opacity="0.16"/><circle cx="1038.3" cy="280.3" r="3.38" fill="#bd6b20" opacity="0.22"/><circle cx="1071.2" cy="282.7" r="2.03" fill="#bd6b20" opacity="0.19"/><circle cx="1107.3" cy="283.6" r="1.63" fill="#bd6b20" opacity="0.20"/><circle cx="1145.1" cy="281.6" r="2.28" fill="#bd6b20" opacity="0.19"/><circle cx="1183.9" cy="283.0" r="2.66" fill="#bd6b20" opacity="0.29"/><circle cx="33.0" cy="317.6" r="3.86" fill="#bd6b20" opacity="0.23"/><circle cx="67.7" cy="318.3" r="3.64" fill="#bd6b20" opacity="0.27"/><circle cx="100.5" cy="318.7" r="2.54" fill="#bd6b20" opacity="0.32"/><circle cx="137.8" cy="320.2" r="3.81" fill="#bd6b20" opacity="0.24"/><circle cx="176.3" cy="320.3" r="3.87" fill="#bd6b20" opacity="0.28"/><circle cx="208.0" cy="321.0" r="2.48" fill="#bd6b20" opacity="0.33"/><circle cx="247.6" cy="316.5" r="2.45" fill="#bd6b20" opacity="0.19"/><circle cx="280.8" cy="317.2" r="3.01" fill="#bd6b20" opacity="0.34"/><circle cx="320.7" cy="315.9" r="3.19" fill="#bd6b20" opacity="0.27"/><circle cx="354.2" cy="316.4" r="3.19" fill="#bd6b20" opacity="0.23"/><circle cx="390.0" cy="320.8" r="3.33" fill="#bd6b20" opacity="0.23"/><circle cx="425.3" cy="320.3" r="3.50" fill="#bd6b20" opacity="0.34"/><circle cx="460.5" cy="316.0" r="3.28" fill="#bd6b20" opacity="0.16"/><circle cx="500.6" cy="315.4" r="3.40" fill="#bd6b20" opacity="0.34"/><circle cx="534.0" cy="317.4" r="1.81" fill="#bd6b20" opacity="0.28"/><circle cx="569.8" cy="320.1" r="2.16" fill="#bd6b20" opacity="0.29"/><circle cx="605.2" cy="320.8" r="2.07" fill="#bd6b20" opacity="0.34"/><circle cx="644.4" cy="316.6" r="3.66" fill="#bd6b20" opacity="0.20"/><circle cx="675.9" cy="317.4" r="2.07" fill="#bd6b20" opacity="0.22"/><circle cx="716.5" cy="315.5" r="3.20" fill="#bd6b20" opacity="0.16"/><circle cx="747.1" cy="317.6" r="2.12" fill="#bd6b20" opacity="0.34"/><circle cx="783.2" cy="319.6" r="1.92" fill="#bd6b20" opacity="0.35"/><circle cx="822.3" cy="319.2" r="3.99" fill="#bd6b20" opacity="0.33"/><circle cx="857.6" cy="316.5" r="1.86" fill="#bd6b20" opacity="0.21"/><circle cx="897.0" cy="320.2" r="3.59" fill="#bd6b20" opacity="0.28"/><circle cx="932.5" cy="320.9" r="3.60" fill="#bd6b20" opacity="0.19"/><circle cx="967.9" cy="320.9" r="3.24" fill="#bd6b20" opacity="0.35"/><circle cx="1004.9" cy="317.0" r="3.00" fill="#bd6b20" opacity="0.17"/><circle cx="1039.0" cy="316.0" r="3.57" fill="#bd6b20" opacity="0.16"/><circle cx="1074.6" cy="318.5" r="1.61" fill="#bd6b20" opacity="0.32"/><circle cx="1110.7" cy="317.6" r="2.81" fill="#bd6b20" opacity="0.30"/><circle cx="1147.3" cy="320.6" r="2.74" fill="#bd6b20" opacity="0.25"/><circle cx="1179.2" cy="315.3" r="3.52" fill="#bd6b20" opacity="0.33"/><circle cx="29.0" cy="351.9" r="3.13" fill="#bd6b20" opacity="0.31"/><circle cx="67.5" cy="352.3" r="2.10" fill="#bd6b20" opacity="0.18"/><circle cx="101.7" cy="351.8" r="1.63" fill="#bd6b20" opacity="0.32"/><circle cx="138.8" cy="353.6" r="2.93" fill="#bd6b20" opacity="0.25"/><circle cx="171.6" cy="353.1" r="3.86" fill="#bd6b20" opacity="0.27"/><circle cx="212.6" cy="351.3" r="2.95" fill="#bd6b20" opacity="0.31"/><circle cx="245.8" cy="355.3" r="1.82" fill="#bd6b20" opacity="0.33"/><circle cx="282.0" cy="352.0" r="2.17" fill="#bd6b20" opacity="0.27"/><circle cx="319.5" cy="354.6" r="3.41" fill="#bd6b20" opacity="0.32"/><circle cx="351.6" cy="351.0" r="3.48" fill="#bd6b20" opacity="0.16"/><circle cx="389.1" cy="354.0" r="2.44" fill="#bd6b20" opacity="0.34"/><circle cx="426.7" cy="353.0" r="3.58" fill="#bd6b20" opacity="0.20"/><circle cx="463.5" cy="356.8" r="2.14" fill="#bd6b20" opacity="0.29"/><circle cx="500.4" cy="356.4" r="3.47" fill="#bd6b20" opacity="0.15"/><circle cx="533.8" cy="352.4" r="2.69" fill="#bd6b20" opacity="0.22"/><circle cx="570.9" cy="354.6" r="3.31" fill="#bd6b20" opacity="0.20"/><circle cx="606.0" cy="354.8" r="3.83" fill="#bd6b20" opacity="0.24"/><circle cx="642.5" cy="353.7" r="2.40" fill="#bd6b20" opacity="0.26"/><circle cx="675.6" cy="352.8" r="2.20" fill="#bd6b20" opacity="0.35"/><circle cx="711.5" cy="355.9" r="3.66" fill="#bd6b20" opacity="0.18"/><circle cx="750.0" cy="356.8" r="3.40" fill="#bd6b20" opacity="0.23"/><circle cx="783.5" cy="351.5" r="1.68" fill="#bd6b20" opacity="0.26"/><circle cx="821.2" cy="354.0" r="2.43" fill="#bd6b20" opacity="0.33"/><circle cx="858.4" cy="356.3" r="1.89" fill="#bd6b20" opacity="0.19"/><circle cx="894.7" cy="353.8" r="3.28" fill="#bd6b20" opacity="0.28"/><circle cx="928.2" cy="356.3" r="1.68" fill="#bd6b20" opacity="0.20"/><circle cx="967.0" cy="351.6" r="3.09" fill="#bd6b20" opacity="0.20"/><circle cx="999.2" cy="355.8" r="2.99" fill="#bd6b20" opacity="0.23"/><circle cx="1037.8" cy="354.5" r="2.50" fill="#bd6b20" opacity="0.25"/><circle cx="1075.2" cy="352.2" r="2.47" fill="#bd6b20" opacity="0.17"/><circle cx="1112.8" cy="353.5" r="3.31" fill="#bd6b20" opacity="0.17"/><circle cx="1146.6" cy="353.1" r="1.99" fill="#bd6b20" opacity="0.28"/><circle cx="1181.5" cy="351.3" r="3.45" fill="#bd6b20" opacity="0.28"/><circle cx="27.6" cy="387.8" r="1.84" fill="#bd6b20" opacity="0.31"/><circle cx="66.6" cy="390.5" r="3.74" fill="#bd6b20" opacity="0.17"/><circle cx="103.8" cy="387.5" r="2.37" fill="#bd6b20" opacity="0.21"/><circle cx="137.4" cy="391.0" r="2.97" fill="#bd6b20" opacity="0.19"/><circle cx="172.5" cy="389.6" r="2.94" fill="#bd6b20" opacity="0.32"/><circle cx="207.1" cy="389.2" r="3.13" fill="#bd6b20" opacity="0.23"/><circle cx="246.7" cy="387.7" r="2.78" fill="#bd6b20" opacity="0.29"/><circle cx="281.4" cy="389.6" r="2.22" fill="#bd6b20" opacity="0.17"/><circle cx="315.9" cy="390.4" r="3.81" fill="#bd6b20" opacity="0.32"/><circle cx="356.1" cy="392.5" r="2.78" fill="#bd6b20" opacity="0.18"/><circle cx="389.3" cy="390.5" r="2.73" fill="#bd6b20" opacity="0.18"/><circle cx="426.5" cy="390.4" r="3.50" fill="#bd6b20" opacity="0.17"/><circle cx="463.3" cy="391.3" r="2.64" fill="#bd6b20" opacity="0.29"/><circle cx="500.9" cy="389.4" r="1.84" fill="#bd6b20" opacity="0.34"/><circle cx="535.7" cy="387.6" r="2.16" fill="#bd6b20" opacity="0.17"/><circle cx="567.3" cy="392.9" r="1.85" fill="#bd6b20" opacity="0.16"/><circle cx="608.8" cy="387.2" r="2.85" fill="#bd6b20" opacity="0.33"/><circle cx="643.8" cy="391.7" r="1.94" fill="#bd6b20" opacity="0.28"/><circle cx="677.4" cy="387.9" r="1.66" fill="#bd6b20" opacity="0.24"/><circle cx="711.5" cy="391.8" r="1.89" fill="#bd6b20" opacity="0.17"/><circle cx="750.6" cy="389.2" r="2.89" fill="#bd6b20" opacity="0.30"/><circle cx="787.5" cy="392.9" r="2.48" fill="#bd6b20" opacity="0.25"/><circle cx="823.1" cy="387.8" r="1.81" fill="#bd6b20" opacity="0.21"/><circle cx="858.9" cy="387.6" r="2.13" fill="#bd6b20" opacity="0.26"/><circle cx="894.9" cy="388.4" r="3.54" fill="#bd6b20" opacity="0.29"/><circle cx="930.1" cy="391.0" r="2.58" fill="#bd6b20" opacity="0.18"/><circle cx="968.5" cy="392.1" r="3.07" fill="#bd6b20" opacity="0.30"/><circle cx="1000.5" cy="391.2" r="2.58" fill="#bd6b20" opacity="0.16"/><circle cx="1038.4" cy="391.7" r="3.72" fill="#bd6b20" opacity="0.27"/><circle cx="1071.7" cy="387.7" r="3.93" fill="#bd6b20" opacity="0.24"/><circle cx="1112.2" cy="392.0" r="2.93" fill="#bd6b20" opacity="0.19"/><circle cx="1143.6" cy="388.1" r="3.29" fill="#bd6b20" opacity="0.15"/><circle cx="1181.0" cy="391.6" r="3.12" fill="#bd6b20" opacity="0.23"/><circle cx="31.4" cy="427.6" r="2.58" fill="#bd6b20" opacity="0.32"/><circle cx="64.6" cy="427.2" r="2.66" fill="#bd6b20" opacity="0.23"/><circle cx="104.2" cy="425.1" r="3.03" fill="#bd6b20" opacity="0.36"/><circle cx="136.9" cy="423.4" r="3.44" fill="#bd6b20" opacity="0.28"/><circle cx="174.2" cy="426.3" r="3.24" fill="#bd6b20" opacity="0.29"/><circle cx="209.5" cy="424.9" r="1.75" fill="#bd6b20" opacity="0.22"/><circle cx="246.6" cy="427.6" r="2.52" fill="#bd6b20" opacity="0.28"/><circle cx="279.2" cy="426.5" r="3.74" fill="#bd6b20" opacity="0.19"/><circle cx="319.8" cy="423.8" r="2.89" fill="#bd6b20" opacity="0.18"/><circle cx="355.7" cy="428.0" r="2.32" fill="#bd6b20" opacity="0.20"/><circle cx="389.3" cy="423.4" r="2.74" fill="#bd6b20" opacity="0.35"/><circle cx="427.4" cy="426.8" r="3.76" fill="#bd6b20" opacity="0.33"/><circle cx="464.8" cy="423.8" r="1.71" fill="#bd6b20" opacity="0.22"/><circle cx="495.6" cy="428.6" r="2.02" fill="#bd6b20" opacity="0.20"/><circle cx="531.9" cy="424.3" r="3.44" fill="#bd6b20" opacity="0.18"/><circle cx="569.7" cy="424.8" r="2.18" fill="#bd6b20" opacity="0.20"/><circle cx="605.6" cy="429.0" r="3.88" fill="#bd6b20" opacity="0.17"/><circle cx="639.1" cy="423.9" r="3.72" fill="#bd6b20" opacity="0.21"/><circle cx="675.7" cy="423.9" r="2.85" fill="#bd6b20" opacity="0.25"/><circle cx="711.1" cy="424.3" r="2.21" fill="#bd6b20" opacity="0.28"/><circle cx="748.8" cy="428.5" r="3.40" fill="#bd6b20" opacity="0.16"/><circle cx="785.6" cy="428.6" r="3.13" fill="#bd6b20" opacity="0.22"/><circle cx="821.2" cy="423.2" r="2.09" fill="#bd6b20" opacity="0.28"/><circle cx="859.5" cy="426.3" r="3.00" fill="#bd6b20" opacity="0.35"/><circle cx="894.1" cy="424.2" r="3.55" fill="#bd6b20" opacity="0.21"/><circle cx="932.5" cy="428.9" r="2.08" fill="#bd6b20" opacity="0.22"/><circle cx="964.5" cy="426.3" r="2.21" fill="#bd6b20" opacity="0.24"/><circle cx="1004.5" cy="424.8" r="1.89" fill="#bd6b20" opacity="0.21"/><circle cx="1039.2" cy="427.0" r="3.72" fill="#bd6b20" opacity="0.23"/><circle cx="1072.2" cy="424.5" r="2.94" fill="#bd6b20" opacity="0.26"/><circle cx="1110.5" cy="423.5" r="3.63" fill="#bd6b20" opacity="0.30"/><circle cx="1143.9" cy="423.4" r="3.84" fill="#bd6b20" opacity="0.16"/><circle cx="1182.1" cy="429.0" r="2.90" fill="#bd6b20" opacity="0.35"/><circle cx="31.4" cy="463.0" r="3.21" fill="#bd6b20" opacity="0.30"/><circle cx="64.1" cy="462.9" r="1.71" fill="#bd6b20" opacity="0.32"/><circle cx="101.6" cy="462.5" r="3.67" fill="#bd6b20" opacity="0.31"/><circle cx="135.7" cy="462.5" r="3.82" fill="#bd6b20" opacity="0.34"/><circle cx="173.7" cy="459.5" r="3.53" fill="#bd6b20" opacity="0.28"/><circle cx="207.2" cy="462.8" r="2.33" fill="#bd6b20" opacity="0.25"/><circle cx="243.2" cy="464.4" r="2.93" fill="#bd6b20" opacity="0.19"/><circle cx="279.4" cy="460.9" r="1.94" fill="#bd6b20" opacity="0.24"/><circle cx="317.7" cy="464.2" r="3.05" fill="#bd6b20" opacity="0.16"/><circle cx="354.6" cy="462.1" r="2.83" fill="#bd6b20" opacity="0.32"/><circle cx="390.7" cy="459.9" r="3.16" fill="#bd6b20" opacity="0.32"/><circle cx="424.7" cy="460.0" r="2.59" fill="#bd6b20" opacity="0.23"/><circle cx="462.3" cy="462.9" r="2.34" fill="#bd6b20" opacity="0.26"/><circle cx="496.1" cy="460.2" r="2.16" fill="#bd6b20" opacity="0.30"/><circle cx="535.0" cy="460.1" r="2.79" fill="#bd6b20" opacity="0.35"/><circle cx="570.8" cy="463.7" r="3.97" fill="#bd6b20" opacity="0.16"/><circle cx="606.0" cy="464.0" r="1.90" fill="#bd6b20" opacity="0.26"/><circle cx="643.9" cy="459.6" r="3.07" fill="#bd6b20" opacity="0.35"/><circle cx="675.9" cy="463.4" r="2.40" fill="#bd6b20" opacity="0.20"/><circle cx="713.3" cy="459.9" r="1.81" fill="#bd6b20" opacity="0.19"/><circle cx="749.7" cy="463.0" r="2.54" fill="#bd6b20" opacity="0.35"/><circle cx="785.6" cy="463.5" r="3.51" fill="#bd6b20" opacity="0.24"/><circle cx="820.7" cy="461.1" r="3.56" fill="#bd6b20" opacity="0.23"/><circle cx="860.8" cy="461.2" r="2.35" fill="#bd6b20" opacity="0.32"/><circle cx="894.7" cy="462.6" r="2.07" fill="#bd6b20" opacity="0.34"/><circle cx="928.3" cy="464.1" r="3.43" fill="#bd6b20" opacity="0.32"/><circle cx="966.1" cy="459.5" r="1.91" fill="#bd6b20" opacity="0.33"/><circle cx="1004.9" cy="462.3" r="1.85" fill="#bd6b20" opacity="0.27"/><circle cx="1038.9" cy="462.8" r="3.52" fill="#bd6b20" opacity="0.24"/><circle cx="1074.9" cy="461.8" r="3.89" fill="#bd6b20" opacity="0.34"/><circle cx="1111.3" cy="461.6" r="1.72" fill="#bd6b20" opacity="0.34"/><circle cx="1144.6" cy="461.3" r="2.10" fill="#bd6b20" opacity="0.24"/><circle cx="1181.3" cy="461.1" r="2.93" fill="#bd6b20" opacity="0.25"/><circle cx="29.8" cy="500.7" r="2.98" fill="#bd6b20" opacity="0.34"/><circle cx="67.6" cy="497.6" r="3.34" fill="#bd6b20" opacity="0.29"/><circle cx="103.3" cy="497.0" r="2.46" fill="#bd6b20" opacity="0.34"/><circle cx="138.8" cy="497.7" r="2.68" fill="#bd6b20" opacity="0.21"/><circle cx="171.1" cy="497.7" r="2.28" fill="#bd6b20" opacity="0.29"/><circle cx="211.1" cy="495.6" r="2.11" fill="#bd6b20" opacity="0.33"/><circle cx="246.9" cy="497.1" r="2.72" fill="#bd6b20" opacity="0.24"/><circle cx="281.1" cy="499.9" r="2.06" fill="#bd6b20" opacity="0.31"/><circle cx="316.9" cy="496.9" r="3.64" fill="#bd6b20" opacity="0.22"/><circle cx="353.1" cy="495.1" r="2.84" fill="#bd6b20" opacity="0.23"/><circle cx="387.2" cy="499.7" r="2.19" fill="#bd6b20" opacity="0.34"/><circle cx="424.6" cy="497.2" r="2.11" fill="#bd6b20" opacity="0.35"/><circle cx="461.3" cy="496.5" r="1.69" fill="#bd6b20" opacity="0.35"/><circle cx="495.6" cy="499.7" r="3.06" fill="#bd6b20" opacity="0.30"/><circle cx="531.3" cy="497.4" r="2.90" fill="#bd6b20" opacity="0.34"/><circle cx="569.9" cy="497.4" r="2.22" fill="#bd6b20" opacity="0.16"/><circle cx="607.9" cy="495.9" r="1.76" fill="#bd6b20" opacity="0.23"/><circle cx="640.6" cy="498.0" r="2.94" fill="#bd6b20" opacity="0.23"/><circle cx="678.9" cy="497.8" r="1.70" fill="#bd6b20" opacity="0.17"/><circle cx="716.2" cy="498.0" r="2.26" fill="#bd6b20" opacity="0.25"/><circle cx="753.0" cy="500.9" r="3.39" fill="#bd6b20" opacity="0.22"/><circle cx="783.3" cy="497.1" r="2.87" fill="#bd6b20" opacity="0.24"/><circle cx="822.1" cy="499.8" r="3.45" fill="#bd6b20" opacity="0.18"/><circle cx="856.8" cy="499.4" r="1.95" fill="#bd6b20" opacity="0.23"/><circle cx="892.5" cy="495.2" r="3.41" fill="#bd6b20" opacity="0.30"/><circle cx="929.2" cy="495.8" r="2.33" fill="#bd6b20" opacity="0.34"/><circle cx="963.5" cy="499.3" r="2.60" fill="#bd6b20" opacity="0.21"/><circle cx="999.9" cy="500.9" r="3.91" fill="#bd6b20" opacity="0.25"/><circle cx="1038.6" cy="496.0" r="3.98" fill="#bd6b20" opacity="0.16"/><circle cx="1073.1" cy="499.2" r="3.10" fill="#bd6b20" opacity="0.27"/><circle cx="1110.8" cy="500.1" r="2.22" fill="#bd6b20" opacity="0.17"/><circle cx="1143.8" cy="495.8" r="3.42" fill="#bd6b20" opacity="0.19"/><circle cx="1184.9" cy="495.2" r="2.23" fill="#bd6b20" opacity="0.18"/><circle cx="30.2" cy="536.7" r="2.25" fill="#bd6b20" opacity="0.16"/><circle cx="66.7" cy="533.3" r="2.42" fill="#bd6b20" opacity="0.36"/><circle cx="99.8" cy="531.9" r="3.15" fill="#bd6b20" opacity="0.21"/><circle cx="138.0" cy="531.3" r="2.48" fill="#bd6b20" opacity="0.24"/><circle cx="173.0" cy="532.0" r="2.98" fill="#bd6b20" opacity="0.31"/><circle cx="209.7" cy="536.6" r="3.23" fill="#bd6b20" opacity="0.35"/><circle cx="247.2" cy="533.0" r="1.74" fill="#bd6b20" opacity="0.28"/><circle cx="283.8" cy="532.5" r="3.15" fill="#bd6b20" opacity="0.28"/><circle cx="317.0" cy="532.0" r="2.27" fill="#bd6b20" opacity="0.24"/><circle cx="351.3" cy="536.9" r="3.74" fill="#bd6b20" opacity="0.16"/><circle cx="391.0" cy="533.1" r="3.01" fill="#bd6b20" opacity="0.35"/><circle cx="424.7" cy="533.1" r="2.45" fill="#bd6b20" opacity="0.26"/><circle cx="463.9" cy="532.7" r="3.08" fill="#bd6b20" opacity="0.24"/><circle cx="499.6" cy="533.9" r="3.06" fill="#bd6b20" opacity="0.15"/><circle cx="534.3" cy="533.7" r="1.95" fill="#bd6b20" opacity="0.16"/><circle cx="569.1" cy="536.3" r="1.79" fill="#bd6b20" opacity="0.22"/><circle cx="604.6" cy="531.3" r="3.96" fill="#bd6b20" opacity="0.16"/><circle cx="640.2" cy="535.9" r="2.14" fill="#bd6b20" opacity="0.20"/><circle cx="680.0" cy="532.7" r="3.77" fill="#bd6b20" opacity="0.36"/><circle cx="711.2" cy="532.7" r="2.63" fill="#bd6b20" opacity="0.22"/><circle cx="751.4" cy="532.4" r="1.64" fill="#bd6b20" opacity="0.20"/><circle cx="787.6" cy="535.4" r="1.97" fill="#bd6b20" opacity="0.36"/><circle cx="822.5" cy="534.5" r="2.97" fill="#bd6b20" opacity="0.15"/><circle cx="855.4" cy="536.5" r="3.01" fill="#bd6b20" opacity="0.26"/><circle cx="896.6" cy="533.4" r="3.72" fill="#bd6b20" opacity="0.28"/><circle cx="929.1" cy="534.8" r="2.18" fill="#bd6b20" opacity="0.15"/><circle cx="968.4" cy="531.1" r="3.20" fill="#bd6b20" opacity="0.24"/><circle cx="1001.5" cy="535.3" r="2.09" fill="#bd6b20" opacity="0.29"/><circle cx="1035.2" cy="532.4" r="2.73" fill="#bd6b20" opacity="0.23"/><circle cx="1073.9" cy="536.2" r="3.58" fill="#bd6b20" opacity="0.32"/><circle cx="1109.8" cy="537.0" r="3.01" fill="#bd6b20" opacity="0.34"/><circle cx="1145.2" cy="531.4" r="2.73" fill="#bd6b20" opacity="0.29"/><circle cx="1184.9" cy="531.5" r="3.74" fill="#bd6b20" opacity="0.34"/><circle cx="32.5" cy="567.9" r="3.46" fill="#bd6b20" opacity="0.20"/><circle cx="68.7" cy="571.5" r="3.04" fill="#bd6b20" opacity="0.23"/><circle cx="104.3" cy="570.0" r="3.86" fill="#bd6b20" opacity="0.29"/><circle cx="139.9" cy="571.2" r="3.59" fill="#bd6b20" opacity="0.21"/><circle cx="172.9" cy="571.1" r="2.42" fill="#bd6b20" opacity="0.20"/><circle cx="210.4" cy="567.8" r="3.58" fill="#bd6b20" opacity="0.21"/><circle cx="246.3" cy="568.5" r="3.42" fill="#bd6b20" opacity="0.23"/><circle cx="280.2" cy="567.4" r="3.15" fill="#bd6b20" opacity="0.25"/><circle cx="319.7" cy="569.1" r="2.52" fill="#bd6b20" opacity="0.33"/><circle cx="355.8" cy="571.5" r="2.74" fill="#bd6b20" opacity="0.24"/><circle cx="390.4" cy="569.6" r="1.76" fill="#bd6b20" opacity="0.34"/><circle cx="427.9" cy="570.8" r="2.90" fill="#bd6b20" opacity="0.32"/><circle cx="460.7" cy="568.2" r="2.78" fill="#bd6b20" opacity="0.29"/><circle cx="496.6" cy="572.1" r="3.48" fill="#bd6b20" opacity="0.21"/><circle cx="532.4" cy="568.0" r="3.77" fill="#bd6b20" opacity="0.29"/><circle cx="568.3" cy="570.7" r="2.88" fill="#bd6b20" opacity="0.20"/><circle cx="607.0" cy="572.1" r="1.82" fill="#bd6b20" opacity="0.34"/><circle cx="639.8" cy="572.5" r="3.45" fill="#bd6b20" opacity="0.27"/><circle cx="676.3" cy="572.4" r="3.29" fill="#bd6b20" opacity="0.32"/><circle cx="712.7" cy="572.0" r="3.16" fill="#bd6b20" opacity="0.20"/><circle cx="752.8" cy="568.4" r="3.73" fill="#bd6b20" opacity="0.34"/><circle cx="788.2" cy="572.4" r="3.61" fill="#bd6b20" opacity="0.21"/><circle cx="823.2" cy="567.5" r="3.97" fill="#bd6b20" opacity="0.33"/><circle cx="858.9" cy="572.0" r="2.85" fill="#bd6b20" opacity="0.17"/><circle cx="892.6" cy="570.6" r="2.98" fill="#bd6b20" opacity="0.32"/><circle cx="930.6" cy="572.0" r="1.96" fill="#bd6b20" opacity="0.23"/><circle cx="963.4" cy="570.5" r="2.40" fill="#bd6b20" opacity="0.32"/><circle cx="1002.3" cy="571.9" r="3.24" fill="#bd6b20" opacity="0.23"/><circle cx="1037.5" cy="568.1" r="2.98" fill="#bd6b20" opacity="0.19"/><circle cx="1075.6" cy="568.8" r="2.55" fill="#bd6b20" opacity="0.21"/><circle cx="1112.8" cy="568.5" r="1.76" fill="#bd6b20" opacity="0.20"/><circle cx="1143.0" cy="568.0" r="2.90" fill="#bd6b20" opacity="0.26"/><circle cx="1183.9" cy="567.2" r="3.49" fill="#bd6b20" opacity="0.29"/><circle cx="31.3" cy="606.1" r="3.11" fill="#bd6b20" opacity="0.17"/><circle cx="68.9" cy="604.2" r="1.78" fill="#bd6b20" opacity="0.34"/><circle cx="103.7" cy="604.5" r="3.53" fill="#bd6b20" opacity="0.23"/><circle cx="136.6" cy="605.8" r="3.50" fill="#bd6b20" opacity="0.17"/><circle cx="175.6" cy="603.3" r="3.90" fill="#bd6b20" opacity="0.32"/><circle cx="210.1" cy="604.1" r="2.83" fill="#bd6b20" opacity="0.23"/><circle cx="249.0" cy="605.9" r="2.62" fill="#bd6b20" opacity="0.27"/><circle cx="282.6" cy="605.8" r="2.93" fill="#bd6b20" opacity="0.33"/><circle cx="316.2" cy="607.1" r="2.45" fill="#bd6b20" opacity="0.34"/><circle cx="354.9" cy="604.4" r="3.05" fill="#bd6b20" opacity="0.30"/><circle cx="390.8" cy="606.0" r="2.31" fill="#bd6b20" opacity="0.32"/><circle cx="428.8" cy="606.9" r="3.67" fill="#bd6b20" opacity="0.30"/><circle cx="460.9" cy="606.6" r="3.49" fill="#bd6b20" opacity="0.23"/><circle cx="500.9" cy="603.4" r="3.79" fill="#bd6b20" opacity="0.32"/><circle cx="534.5" cy="605.0" r="2.87" fill="#bd6b20" opacity="0.27"/><circle cx="572.7" cy="608.1" r="2.08" fill="#bd6b20" opacity="0.15"/><circle cx="607.2" cy="604.0" r="2.06" fill="#bd6b20" opacity="0.24"/><circle cx="641.8" cy="606.7" r="2.19" fill="#bd6b20" opacity="0.24"/><circle cx="676.4" cy="604.7" r="3.90" fill="#bd6b20" opacity="0.30"/><circle cx="714.2" cy="606.4" r="3.58" fill="#bd6b20" opacity="0.33"/><circle cx="749.7" cy="607.5" r="3.26" fill="#bd6b20" opacity="0.16"/><circle cx="787.9" cy="604.7" r="3.12" fill="#bd6b20" opacity="0.28"/><circle cx="819.8" cy="605.0" r="3.87" fill="#bd6b20" opacity="0.36"/><circle cx="860.9" cy="604.4" r="2.33" fill="#bd6b20" opacity="0.22"/><circle cx="892.8" cy="606.4" r="1.64" fill="#bd6b20" opacity="0.25"/><circle cx="927.3" cy="605.0" r="2.52" fill="#bd6b20" opacity="0.21"/><circle cx="964.9" cy="604.3" r="2.75" fill="#bd6b20" opacity="0.36"/><circle cx="999.3" cy="608.5" r="3.35" fill="#bd6b20" opacity="0.26"/><circle cx="1035.5" cy="604.2" r="3.14" fill="#bd6b20" opacity="0.31"/><circle cx="1074.5" cy="608.6" r="3.49" fill="#bd6b20" opacity="0.24"/><circle cx="1107.3" cy="604.6" r="2.67" fill="#bd6b20" opacity="0.34"/><circle cx="1147.4" cy="605.2" r="3.17" fill="#bd6b20" opacity="0.34"/><circle cx="1179.4" cy="608.7" r="3.86" fill="#bd6b20" opacity="0.35"/><circle cx="31.9" cy="639.8" r="1.74" fill="#bd6b20" opacity="0.25"/><circle cx="66.2" cy="642.6" r="2.13" fill="#bd6b20" opacity="0.24"/><circle cx="104.5" cy="643.2" r="3.51" fill="#bd6b20" opacity="0.18"/><circle cx="135.7" cy="642.8" r="3.61" fill="#bd6b20" opacity="0.18"/><circle cx="173.9" cy="642.2" r="2.51" fill="#bd6b20" opacity="0.22"/><circle cx="212.4" cy="641.9" r="3.27" fill="#bd6b20" opacity="0.33"/><circle cx="247.0" cy="641.1" r="3.92" fill="#bd6b20" opacity="0.15"/><circle cx="281.6" cy="642.5" r="1.96" fill="#bd6b20" opacity="0.30"/><circle cx="317.9" cy="643.5" r="2.87" fill="#bd6b20" opacity="0.19"/><circle cx="353.7" cy="639.4" r="1.85" fill="#bd6b20" opacity="0.18"/><circle cx="389.9" cy="644.4" r="3.58" fill="#bd6b20" opacity="0.29"/><circle cx="423.4" cy="640.6" r="3.39" fill="#bd6b20" opacity="0.16"/><circle cx="463.9" cy="640.6" r="3.77" fill="#bd6b20" opacity="0.22"/><circle cx="500.7" cy="643.4" r="3.92" fill="#bd6b20" opacity="0.15"/><circle cx="531.4" cy="642.1" r="3.88" fill="#bd6b20" opacity="0.35"/><circle cx="571.8" cy="644.9" r="3.67" fill="#bd6b20" opacity="0.25"/><circle cx="603.1" cy="641.3" r="3.71" fill="#bd6b20" opacity="0.35"/><circle cx="640.3" cy="644.7" r="2.57" fill="#bd6b20" opacity="0.27"/><circle cx="676.6" cy="639.7" r="3.20" fill="#bd6b20" opacity="0.27"/><circle cx="714.6" cy="643.1" r="3.86" fill="#bd6b20" opacity="0.34"/><circle cx="750.8" cy="640.0" r="3.20" fill="#bd6b20" opacity="0.18"/><circle cx="783.9" cy="642.4" r="3.41" fill="#bd6b20" opacity="0.22"/><circle cx="824.7" cy="644.4" r="3.55" fill="#bd6b20" opacity="0.23"/><circle cx="855.2" cy="640.2" r="3.91" fill="#bd6b20" opacity="0.35"/><circle cx="895.8" cy="640.3" r="1.89" fill="#bd6b20" opacity="0.32"/><circle cx="931.3" cy="643.9" r="1.88" fill="#bd6b20" opacity="0.21"/><circle cx="965.5" cy="644.9" r="1.61" fill="#bd6b20" opacity="0.20"/><circle cx="1002.5" cy="641.2" r="3.60" fill="#bd6b20" opacity="0.29"/><circle cx="1038.1" cy="640.2" r="3.94" fill="#bd6b20" opacity="0.17"/><circle cx="1075.2" cy="641.1" r="3.84" fill="#bd6b20" opacity="0.23"/><circle cx="1110.6" cy="643.1" r="1.99" fill="#bd6b20" opacity="0.18"/><circle cx="1146.0" cy="640.3" r="3.37" fill="#bd6b20" opacity="0.35"/><circle cx="1183.0" cy="640.0" r="2.56" fill="#bd6b20" opacity="0.16"/><circle cx="270.9" cy="281.4" r="220" fill="url(#glow)" opacity="0.9"/>
  <g opacity="0.85" transform="translate(1020, 495)">
        <circle r="60" fill="#bd6b20" opacity="0.18"/>
        <path d="M -34 6 Q -10 -22 14 6 Q 34 24 14 26 L -22 26 Q -38 24 -34 6 Z" fill="none" stroke="#9a5518" stroke-width="3" stroke-linejoin="round"/>
      </g>
  <g transform="translate(80, 90)">
    <rect x="0" y="0" rx="20" ry="20" width="134" height="38" fill="#bd6b20" opacity="0.18" stroke="#bd6b20" stroke-width="1.5"/>
    <text x="67" y="25" font-family="ui-sans-serif, Inter, sans-serif" font-weight="700" font-size="14" letter-spacing="2.5" fill="#bd6b20" text-anchor="middle">CASE STUDY</text>
  </g>
  <text x="80" y="465" font-family="ui-sans-serif, -apple-system, Segoe UI, Inter, sans-serif" font-weight="800" font-size="44" fill="#12100e" opacity="0.98"><tspan x="80" dy="0">Resolving Complex</tspan><tspan x="80" dy="56">Financial Disputes: A Case</tspan><tspan x="80" dy="56">Study in Alternative</tspan></text>
  <rect x="0" y="669" width="1200" height="6" fill="url(#gold)"/>
</svg>