<?xml version="1.0" encoding="UTF-8"?>
<svg xmlns="http://www.w3.org/2000/svg" viewBox="0 0 1200 675" width="1200" height="675" role="img" aria-label="Resolving a Financial Conundrum: PDR COURT's Role in a Dispute Over Rs. 64,578">
  <defs>
    <linearGradient id="bg" x1="0%" y1="0%" x2="100%" y2="100%">
      <stop offset="0%" stop-color="#0c0a09"/>
      <stop offset="100%" stop-color="#291813"/>
    </linearGradient>
    <linearGradient id="gold" x1="0%" y1="0%" x2="100%" y2="100%">
      <stop offset="0%" stop-color="#d4862a"/>
      <stop offset="100%" stop-color="#bd6b20"/>
    </linearGradient>
    <radialGradient id="glow" cx="50%" cy="50%" r="50%">
      <stop offset="0%" stop-color="#d4862a" stop-opacity="0.45"/>
      <stop offset="100%" stop-color="#d4862a" stop-opacity="0"/>
    </radialGradient>
  </defs>
  <rect width="1200" height="675" fill="url(#bg)"/>
  <polygon points="997.5,86.0 1025.9,189.9 935.9,249.0 851.8,181.7 889.9,80.9" fill="#bd6b20" opacity="0.13"/><polygon points="306.1,268.2 331.4,427.9 180.4,370.0" fill="#bd6b20" opacity="0.16"/><polygon points="715.8,678.8 693.7,490.9 881.7,468.8 903.8,656.7" fill="#bd6b20" opacity="0.06"/><polygon points="399.6,308.2 230.7,356.2 273.5,186.0" fill="#bd6b20" opacity="0.13"/><polygon points="1087.6,255.9 1217.4,443.0 990.5,461.8" fill="#bd6b20" opacity="0.08"/><polygon points="457.0,353.9 398.5,260.6 491.7,202.0 550.3,295.3" fill="#bd6b20" opacity="0.06"/><polygon points="472.7,176.5 532.5,439.7 274.7,359.9" fill="#bd6b20" opacity="0.11"/><polygon points="665.2,18.6 646.3,152.1 513.5,175.5 450.3,56.3 544.0,-40.6" fill="#bd6b20" opacity="0.08"/><polygon points="859.8,90.3 999.9,-44.4 1171.4,47.2 1137.3,238.6 944.7,265.2" fill="#bd6b20" opacity="0.17"/><polygon points="269.8,492.8 397.3,459.2 468.7,570.1 385.3,672.2 262.4,624.5" fill="#bd6b20" opacity="0.13"/><polygon points="167.0,-132.6 328.7,111.8 36.2,129.6" fill="#bd6b20" opacity="0.06"/><polygon points="667.6,423.0 619.3,326.8 726.8,333.1" fill="#bd6b20" opacity="0.09"/><polygon points="311.4,136.8 471.0,218.1 389.6,377.7 230.1,296.3" fill="#bd6b20" opacity="0.19"/><polygon points="1037.9,665.9 977.5,640.7 1002.7,580.3 1063.0,605.5" fill="#bd6b20" opacity="0.11"/><circle cx="936.0" cy="202.5" r="180" fill="url(#glow)"/>
  <g opacity="0.85" transform="translate(1020, 495)">
        <circle r="60" fill="#d4862a" opacity="0.18"/>
        <path d="M -34 6 Q -10 -22 14 6 Q 34 24 14 26 L -22 26 Q -38 24 -34 6 Z" fill="none" stroke="#bd6b20" stroke-width="3" stroke-linejoin="round"/>
      </g>
  <g transform="translate(80, 90)">
    <rect x="0" y="0" rx="20" ry="20" width="134" height="38" fill="#d4862a" opacity="0.18" stroke="#d4862a" stroke-width="1.5"/>
    <text x="67" y="25" font-family="ui-sans-serif, Inter, sans-serif" font-weight="700" font-size="14" letter-spacing="2.5" fill="#d4862a" text-anchor="middle">CASE STUDY</text>
  </g>
  <text x="80" y="465" font-family="ui-sans-serif, -apple-system, Segoe UI, Inter, sans-serif" font-weight="800" font-size="44" fill="#faf8f5" opacity="0.98"><tspan x="80" dy="0">Resolving a Financial</tspan><tspan x="80" dy="56">Conundrum: PDR COURT's</tspan><tspan x="80" dy="56">Role in a Dispute Over Rs.</tspan></text>
  <rect x="0" y="669" width="1200" height="6" fill="url(#gold)"/>
</svg>