<?xml version="1.0" encoding="UTF-8"?>
<svg xmlns="http://www.w3.org/2000/svg" viewBox="0 0 1200 675" width="1200" height="675" role="img" aria-label="PDR COURT Case Study: Resolving a Financial Dispute Through Conciliation">
  <defs>
    <linearGradient id="bg" x1="0%" y1="0%" x2="100%" y2="100%">
      <stop offset="0%" stop-color="#0c0a09"/>
      <stop offset="100%" stop-color="#291813"/>
    </linearGradient>
    <linearGradient id="gold" x1="0%" y1="0%" x2="100%" y2="100%">
      <stop offset="0%" stop-color="#d4862a"/>
      <stop offset="100%" stop-color="#bd6b20"/>
    </linearGradient>
    <radialGradient id="glow" cx="50%" cy="50%" r="50%">
      <stop offset="0%" stop-color="#d4862a" stop-opacity="0.45"/>
      <stop offset="100%" stop-color="#d4862a" stop-opacity="0"/>
    </radialGradient>
  </defs>
  <rect width="1200" height="675" fill="url(#bg)"/>
  <circle cx="28.5" cy="28.0" r="3.24" fill="#d4862a" opacity="0.35"/><circle cx="68.3" cy="31.4" r="2.12" fill="#d4862a" opacity="0.33"/><circle cx="102.7" cy="32.4" r="2.61" fill="#d4862a" opacity="0.27"/><circle cx="138.2" cy="27.5" r="2.40" fill="#d4862a" opacity="0.35"/><circle cx="171.6" cy="31.8" r="3.65" fill="#d4862a" opacity="0.30"/><circle cx="207.5" cy="27.4" r="1.99" fill="#d4862a" opacity="0.15"/><circle cx="243.3" cy="33.0" r="2.89" fill="#d4862a" opacity="0.28"/><circle cx="283.8" cy="27.7" r="3.33" fill="#d4862a" opacity="0.36"/><circle cx="320.9" cy="28.1" r="3.49" fill="#d4862a" opacity="0.16"/><circle cx="356.9" cy="30.3" r="2.03" fill="#d4862a" opacity="0.24"/><circle cx="392.2" cy="32.2" r="3.15" fill="#d4862a" opacity="0.26"/><circle cx="424.5" cy="30.5" r="2.33" fill="#d4862a" opacity="0.18"/><circle cx="459.8" cy="27.1" r="3.69" fill="#d4862a" opacity="0.20"/><circle cx="500.7" cy="30.1" r="1.76" fill="#d4862a" opacity="0.33"/><circle cx="534.3" cy="30.1" r="3.50" fill="#d4862a" opacity="0.36"/><circle cx="570.4" cy="28.5" r="2.93" fill="#d4862a" opacity="0.35"/><circle cx="607.0" cy="30.1" r="2.66" fill="#d4862a" opacity="0.15"/><circle cx="642.7" cy="27.8" r="2.88" fill="#d4862a" opacity="0.35"/><circle cx="677.4" cy="30.6" r="3.72" fill="#d4862a" opacity="0.26"/><circle cx="711.2" cy="31.5" r="3.87" fill="#d4862a" opacity="0.21"/><circle cx="747.7" cy="29.5" r="2.32" fill="#d4862a" opacity="0.15"/><circle cx="783.9" cy="32.0" r="1.90" fill="#d4862a" opacity="0.16"/><circle cx="819.5" cy="30.4" r="2.49" fill="#d4862a" opacity="0.17"/><circle cx="855.4" cy="29.2" r="3.76" fill="#d4862a" opacity="0.27"/><circle cx="895.7" cy="32.8" r="2.53" fill="#d4862a" opacity="0.22"/><circle cx="929.9" cy="31.9" r="2.35" fill="#d4862a" opacity="0.35"/><circle cx="968.4" cy="28.7" r="1.88" fill="#d4862a" opacity="0.16"/><circle cx="1004.7" cy="28.9" r="2.37" fill="#d4862a" opacity="0.22"/><circle cx="1037.7" cy="32.5" r="3.37" fill="#d4862a" opacity="0.25"/><circle cx="1071.6" cy="31.4" r="1.92" fill="#d4862a" opacity="0.22"/><circle cx="1110.8" cy="28.7" r="2.94" fill="#d4862a" opacity="0.17"/><circle cx="1144.5" cy="27.5" r="1.86" fill="#d4862a" opacity="0.18"/><circle cx="1179.9" cy="29.7" r="3.30" fill="#d4862a" opacity="0.19"/><circle cx="27.1" cy="63.7" r="3.65" fill="#d4862a" opacity="0.25"/><circle cx="68.2" cy="67.9" r="2.44" fill="#d4862a" opacity="0.27"/><circle cx="104.8" cy="68.1" r="2.98" fill="#d4862a" opacity="0.25"/><circle cx="139.1" cy="66.5" r="3.36" fill="#d4862a" opacity="0.22"/><circle cx="174.9" cy="64.3" r="1.98" fill="#d4862a" opacity="0.32"/><circle cx="209.5" cy="63.3" r="1.73" fill="#d4862a" opacity="0.30"/><circle cx="246.8" cy="68.9" r="2.19" fill="#d4862a" opacity="0.30"/><circle cx="280.3" cy="64.2" r="2.91" fill="#d4862a" opacity="0.22"/><circle cx="316.3" cy="68.2" r="3.36" fill="#d4862a" opacity="0.34"/><circle cx="354.9" cy="68.5" r="1.73" fill="#d4862a" opacity="0.35"/><circle cx="391.1" cy="68.1" r="1.86" fill="#d4862a" opacity="0.15"/><circle cx="427.0" cy="63.6" r="3.40" fill="#d4862a" opacity="0.25"/><circle cx="464.1" cy="66.2" r="1.72" fill="#d4862a" opacity="0.21"/><circle cx="499.0" cy="65.9" r="2.21" fill="#d4862a" opacity="0.17"/><circle cx="532.3" cy="63.0" r="3.39" fill="#d4862a" opacity="0.35"/><circle cx="567.8" cy="68.2" r="3.24" fill="#d4862a" opacity="0.28"/><circle cx="607.7" cy="63.4" r="3.65" fill="#d4862a" opacity="0.16"/><circle cx="639.2" cy="64.7" r="2.40" fill="#d4862a" opacity="0.22"/><circle cx="676.7" cy="64.4" r="2.34" fill="#d4862a" opacity="0.24"/><circle cx="714.9" cy="65.2" r="3.98" fill="#d4862a" opacity="0.16"/><circle cx="751.8" cy="68.3" r="2.43" fill="#d4862a" opacity="0.30"/><circle cx="783.1" cy="67.6" r="2.97" fill="#d4862a" opacity="0.17"/><circle cx="819.6" cy="68.7" r="3.10" fill="#d4862a" opacity="0.21"/><circle cx="859.4" cy="66.4" r="3.38" fill="#d4862a" opacity="0.24"/><circle cx="892.8" cy="65.1" r="2.64" fill="#d4862a" opacity="0.31"/><circle cx="927.0" cy="64.7" r="3.13" fill="#d4862a" opacity="0.29"/><circle cx="963.1" cy="66.0" r="2.89" fill="#d4862a" opacity="0.27"/><circle cx="1001.8" cy="68.3" r="3.24" fill="#d4862a" opacity="0.20"/><circle cx="1035.2" cy="66.9" r="3.61" fill="#d4862a" opacity="0.19"/><circle cx="1075.4" cy="64.2" r="3.85" fill="#d4862a" opacity="0.15"/><circle cx="1108.0" cy="63.4" r="2.60" fill="#d4862a" opacity="0.28"/><circle cx="1147.2" cy="64.7" r="3.12" fill="#d4862a" opacity="0.24"/><circle cx="1181.2" cy="64.5" r="3.86" fill="#d4862a" opacity="0.35"/><circle cx="32.2" cy="99.0" r="3.31" fill="#d4862a" opacity="0.33"/><circle cx="68.4" cy="102.9" r="2.53" fill="#d4862a" opacity="0.25"/><circle cx="104.6" cy="99.1" r="2.05" fill="#d4862a" opacity="0.36"/><circle cx="137.1" cy="101.6" r="3.85" fill="#d4862a" opacity="0.24"/><circle cx="174.7" cy="100.3" r="3.63" fill="#d4862a" opacity="0.26"/><circle cx="209.7" cy="102.1" r="2.25" fill="#d4862a" opacity="0.22"/><circle cx="246.1" cy="101.6" r="2.94" fill="#d4862a" opacity="0.30"/><circle cx="283.4" cy="100.3" r="1.93" fill="#d4862a" opacity="0.33"/><circle cx="320.4" cy="103.5" r="1.78" fill="#d4862a" opacity="0.34"/><circle cx="352.3" cy="104.4" r="2.87" fill="#d4862a" opacity="0.33"/><circle cx="388.3" cy="104.1" r="3.81" fill="#d4862a" opacity="0.29"/><circle cx="425.1" cy="100.7" r="3.61" fill="#d4862a" opacity="0.23"/><circle cx="460.7" cy="104.1" r="3.06" fill="#d4862a" opacity="0.24"/><circle cx="496.9" cy="103.8" r="1.77" fill="#d4862a" opacity="0.21"/><circle cx="534.8" cy="104.9" r="1.90" fill="#d4862a" opacity="0.30"/><circle cx="572.6" cy="99.2" r="2.93" fill="#d4862a" opacity="0.29"/><circle cx="605.6" cy="100.8" r="1.80" fill="#d4862a" opacity="0.28"/><circle cx="641.4" cy="101.1" r="3.95" fill="#d4862a" opacity="0.18"/><circle cx="678.6" cy="102.2" r="2.89" fill="#d4862a" opacity="0.26"/><circle cx="716.7" cy="102.5" r="3.40" fill="#d4862a" opacity="0.31"/><circle cx="752.4" cy="103.5" r="3.80" fill="#d4862a" opacity="0.32"/><circle cx="786.4" cy="100.2" r="3.22" fill="#d4862a" opacity="0.30"/><circle cx="820.7" cy="102.8" r="2.93" fill="#d4862a" opacity="0.28"/><circle cx="856.1" cy="99.7" r="3.33" fill="#d4862a" opacity="0.32"/><circle cx="895.4" cy="99.8" r="3.50" fill="#d4862a" opacity="0.28"/><circle cx="927.5" cy="104.4" r="3.64" fill="#d4862a" opacity="0.24"/><circle cx="964.7" cy="102.4" r="1.67" fill="#d4862a" opacity="0.29"/><circle cx="999.3" cy="103.1" r="3.74" fill="#d4862a" opacity="0.17"/><circle cx="1036.6" cy="103.0" r="2.57" fill="#d4862a" opacity="0.15"/><circle cx="1073.3" cy="99.4" r="3.48" fill="#d4862a" opacity="0.26"/><circle cx="1107.0" cy="101.9" r="3.86" fill="#d4862a" opacity="0.30"/><circle cx="1143.6" cy="104.6" r="1.97" fill="#d4862a" opacity="0.20"/><circle cx="1179.0" cy="104.7" r="1.84" fill="#d4862a" opacity="0.32"/><circle cx="28.4" cy="138.7" r="2.99" fill="#d4862a" opacity="0.21"/><circle cx="68.2" cy="137.7" r="3.87" fill="#d4862a" opacity="0.22"/><circle cx="99.3" cy="137.3" r="3.86" fill="#d4862a" opacity="0.34"/><circle cx="138.8" cy="139.5" r="2.82" fill="#d4862a" opacity="0.35"/><circle cx="171.1" cy="137.5" r="2.63" fill="#d4862a" opacity="0.30"/><circle cx="212.2" cy="135.1" r="3.88" fill="#d4862a" opacity="0.26"/><circle cx="246.1" cy="136.9" r="3.92" fill="#d4862a" opacity="0.16"/><circle cx="281.1" cy="140.4" r="3.59" fill="#d4862a" opacity="0.32"/><circle cx="320.2" cy="135.3" r="3.10" fill="#d4862a" opacity="0.32"/><circle cx="353.6" cy="140.3" r="3.85" fill="#d4862a" opacity="0.18"/><circle cx="391.2" cy="137.4" r="3.84" fill="#d4862a" opacity="0.23"/><circle cx="429.0" cy="139.0" r="2.31" fill="#d4862a" opacity="0.29"/><circle cx="464.4" cy="137.3" r="2.45" fill="#d4862a" opacity="0.17"/><circle cx="499.9" cy="139.6" r="2.26" fill="#d4862a" opacity="0.29"/><circle cx="535.5" cy="136.8" r="2.33" fill="#d4862a" opacity="0.21"/><circle cx="567.3" cy="135.4" r="3.12" fill="#d4862a" opacity="0.16"/><circle cx="607.0" cy="135.3" r="2.35" fill="#d4862a" opacity="0.17"/><circle cx="644.9" cy="140.0" r="3.53" fill="#d4862a" opacity="0.31"/><circle cx="677.7" cy="136.2" r="2.29" fill="#d4862a" opacity="0.30"/><circle cx="716.5" cy="138.3" r="1.72" fill="#d4862a" opacity="0.27"/><circle cx="751.7" cy="136.0" r="1.61" fill="#d4862a" opacity="0.26"/><circle cx="786.8" cy="138.3" r="2.63" fill="#d4862a" opacity="0.26"/><circle cx="821.4" cy="135.6" r="3.38" fill="#d4862a" opacity="0.22"/><circle cx="857.4" cy="139.2" r="3.80" fill="#d4862a" opacity="0.19"/><circle cx="895.7" cy="135.6" r="1.83" fill="#d4862a" opacity="0.20"/><circle cx="929.9" cy="135.1" r="2.51" fill="#d4862a" opacity="0.32"/><circle cx="963.5" cy="135.9" r="3.64" fill="#d4862a" opacity="0.35"/><circle cx="999.2" cy="140.7" r="3.27" fill="#d4862a" opacity="0.31"/><circle cx="1038.2" cy="138.7" r="2.87" fill="#d4862a" opacity="0.36"/><circle cx="1071.5" cy="135.2" r="3.41" fill="#d4862a" opacity="0.23"/><circle cx="1112.3" cy="140.5" r="3.69" fill="#d4862a" opacity="0.26"/><circle cx="1144.1" cy="140.3" r="2.42" fill="#d4862a" opacity="0.33"/><circle cx="1184.5" cy="136.5" r="1.73" fill="#d4862a" opacity="0.31"/><circle cx="31.1" cy="176.6" r="3.97" fill="#d4862a" opacity="0.27"/><circle cx="68.0" cy="173.5" r="3.09" fill="#d4862a" opacity="0.35"/><circle cx="104.2" cy="176.3" r="3.40" fill="#d4862a" opacity="0.18"/><circle cx="135.6" cy="173.4" r="1.90" fill="#d4862a" opacity="0.18"/><circle cx="176.3" cy="173.3" r="2.28" fill="#d4862a" opacity="0.29"/><circle cx="212.8" cy="174.7" r="3.32" fill="#d4862a" opacity="0.33"/><circle cx="244.3" cy="172.8" r="2.35" fill="#d4862a" opacity="0.29"/><circle cx="279.1" cy="176.8" r="1.61" fill="#d4862a" opacity="0.24"/><circle cx="315.6" cy="175.8" r="2.89" fill="#d4862a" opacity="0.29"/><circle cx="351.9" cy="171.3" r="2.29" fill="#d4862a" opacity="0.21"/><circle cx="392.3" cy="171.5" r="2.37" fill="#d4862a" opacity="0.25"/><circle cx="424.0" cy="175.4" r="3.65" fill="#d4862a" opacity="0.25"/><circle cx="462.4" cy="172.5" r="2.80" fill="#d4862a" opacity="0.21"/><circle cx="498.4" cy="171.3" r="2.99" fill="#d4862a" opacity="0.35"/><circle cx="536.5" cy="176.1" r="2.51" fill="#d4862a" opacity="0.16"/><circle cx="570.3" cy="173.1" r="2.03" fill="#d4862a" opacity="0.16"/><circle cx="605.7" cy="171.5" r="2.11" fill="#d4862a" opacity="0.33"/><circle cx="643.6" cy="173.0" r="3.60" fill="#d4862a" opacity="0.33"/><circle cx="675.4" cy="171.6" r="3.77" fill="#d4862a" opacity="0.20"/><circle cx="715.8" cy="176.8" r="3.97" fill="#d4862a" opacity="0.33"/><circle cx="749.9" cy="174.4" r="3.12" fill="#d4862a" opacity="0.26"/><circle cx="783.9" cy="175.3" r="2.68" fill="#d4862a" opacity="0.23"/><circle cx="819.5" cy="176.4" r="1.93" fill="#d4862a" opacity="0.15"/><circle cx="859.3" cy="174.7" r="1.64" fill="#d4862a" opacity="0.26"/><circle cx="891.0" cy="173.3" r="3.63" fill="#d4862a" opacity="0.31"/><circle cx="929.1" cy="176.3" r="3.65" fill="#d4862a" opacity="0.22"/><circle cx="965.7" cy="173.7" r="2.21" fill="#d4862a" opacity="0.25"/><circle cx="1001.8" cy="176.5" r="3.10" fill="#d4862a" opacity="0.31"/><circle cx="1038.5" cy="171.8" r="3.69" fill="#d4862a" opacity="0.31"/><circle cx="1073.0" cy="171.6" r="2.48" fill="#d4862a" opacity="0.31"/><circle cx="1110.4" cy="172.2" r="1.84" fill="#d4862a" opacity="0.16"/><circle cx="1147.5" cy="176.5" r="2.29" fill="#d4862a" opacity="0.27"/><circle cx="1181.3" cy="173.8" r="2.24" fill="#d4862a" opacity="0.18"/><circle cx="27.1" cy="208.6" r="2.48" fill="#d4862a" opacity="0.34"/><circle cx="64.5" cy="207.5" r="1.82" fill="#d4862a" opacity="0.19"/><circle cx="102.1" cy="212.7" r="2.96" fill="#d4862a" opacity="0.21"/><circle cx="137.0" cy="211.3" r="3.25" fill="#d4862a" opacity="0.17"/><circle cx="174.7" cy="212.1" r="1.69" fill="#d4862a" opacity="0.35"/><circle cx="209.9" cy="211.0" r="3.55" fill="#d4862a" opacity="0.19"/><circle cx="243.5" cy="207.9" r="3.22" fill="#d4862a" opacity="0.22"/><circle cx="282.1" cy="211.4" r="3.66" fill="#d4862a" opacity="0.30"/><circle cx="319.8" cy="212.1" r="2.67" fill="#d4862a" opacity="0.17"/><circle cx="357.0" cy="207.8" r="3.65" fill="#d4862a" opacity="0.20"/><circle cx="388.1" cy="208.7" r="2.84" fill="#d4862a" opacity="0.22"/><circle cx="423.5" cy="207.9" r="2.15" fill="#d4862a" opacity="0.28"/><circle cx="462.7" cy="211.7" r="1.86" fill="#d4862a" opacity="0.30"/><circle cx="498.2" cy="209.8" r="2.79" fill="#d4862a" opacity="0.23"/><circle cx="533.5" cy="209.7" r="1.67" fill="#d4862a" opacity="0.16"/><circle cx="571.0" cy="210.0" r="3.47" fill="#d4862a" opacity="0.19"/><circle cx="604.2" cy="209.0" r="2.50" fill="#d4862a" opacity="0.31"/><circle cx="643.3" cy="210.6" r="2.18" fill="#d4862a" opacity="0.19"/><circle cx="679.7" cy="211.8" r="3.22" fill="#d4862a" opacity="0.22"/><circle cx="713.9" cy="207.6" r="2.83" fill="#d4862a" opacity="0.17"/><circle cx="750.7" cy="210.6" r="3.57" fill="#d4862a" opacity="0.23"/><circle cx="783.4" cy="207.2" r="2.74" fill="#d4862a" opacity="0.26"/><circle cx="820.6" cy="210.0" r="3.97" fill="#d4862a" opacity="0.34"/><circle cx="857.1" cy="211.0" r="2.66" fill="#d4862a" opacity="0.29"/><circle cx="894.8" cy="211.5" r="2.94" fill="#d4862a" opacity="0.15"/><circle cx="929.3" cy="211.8" r="3.08" fill="#d4862a" opacity="0.27"/><circle cx="966.5" cy="210.2" r="2.31" fill="#d4862a" opacity="0.22"/><circle cx="1004.6" cy="210.5" r="3.08" fill="#d4862a" opacity="0.16"/><circle cx="1035.0" cy="207.0" r="2.51" fill="#d4862a" opacity="0.34"/><circle cx="1071.9" cy="211.2" r="2.76" fill="#d4862a" opacity="0.16"/><circle cx="1112.3" cy="210.2" r="2.70" fill="#d4862a" opacity="0.24"/><circle cx="1147.7" cy="207.6" r="2.72" fill="#d4862a" opacity="0.29"/><circle cx="1181.0" cy="210.4" r="3.46" fill="#d4862a" opacity="0.20"/><circle cx="28.1" cy="247.4" r="1.76" fill="#d4862a" opacity="0.33"/><circle cx="67.7" cy="247.7" r="3.83" fill="#d4862a" opacity="0.29"/><circle cx="104.7" cy="248.4" r="1.96" fill="#d4862a" opacity="0.29"/><circle cx="137.3" cy="245.1" r="3.19" fill="#d4862a" opacity="0.17"/><circle cx="172.0" cy="244.3" r="3.98" fill="#d4862a" opacity="0.18"/><circle cx="211.9" cy="244.0" r="2.63" fill="#d4862a" opacity="0.25"/><circle cx="245.0" cy="247.4" r="2.38" fill="#d4862a" opacity="0.29"/><circle cx="280.0" cy="245.3" r="2.42" fill="#d4862a" opacity="0.32"/><circle cx="316.0" cy="245.7" r="1.61" fill="#d4862a" opacity="0.15"/><circle cx="355.6" cy="247.8" r="3.35" fill="#d4862a" opacity="0.30"/><circle cx="391.8" cy="247.0" r="2.09" fill="#d4862a" opacity="0.34"/><circle cx="426.0" cy="248.9" r="3.65" fill="#d4862a" opacity="0.19"/><circle cx="462.5" cy="245.1" r="1.69" fill="#d4862a" opacity="0.16"/><circle cx="498.6" cy="246.2" r="2.01" fill="#d4862a" opacity="0.32"/><circle cx="533.1" cy="245.1" r="2.47" fill="#d4862a" opacity="0.21"/><circle cx="567.7" cy="245.2" r="3.70" fill="#d4862a" opacity="0.20"/><circle cx="603.3" cy="246.6" r="2.44" fill="#d4862a" opacity="0.18"/><circle cx="642.7" cy="247.6" r="3.10" fill="#d4862a" opacity="0.24"/><circle cx="678.3" cy="244.8" r="3.81" fill="#d4862a" opacity="0.17"/><circle cx="716.9" cy="243.6" r="3.11" fill="#d4862a" opacity="0.27"/><circle cx="750.8" cy="246.2" r="1.82" fill="#d4862a" opacity="0.18"/><circle cx="787.6" cy="244.1" r="3.28" fill="#d4862a" opacity="0.28"/><circle cx="820.1" cy="243.8" r="2.80" fill="#d4862a" opacity="0.20"/><circle cx="856.4" cy="247.9" r="3.94" fill="#d4862a" opacity="0.25"/><circle cx="892.4" cy="248.7" r="3.90" fill="#d4862a" opacity="0.23"/><circle cx="931.9" cy="246.8" r="2.10" fill="#d4862a" opacity="0.35"/><circle cx="966.5" cy="244.2" r="3.05" fill="#d4862a" opacity="0.29"/><circle cx="1004.8" cy="244.1" r="2.24" fill="#d4862a" opacity="0.16"/><circle cx="1040.4" cy="248.8" r="1.84" fill="#d4862a" opacity="0.33"/><circle cx="1076.7" cy="247.4" r="2.85" fill="#d4862a" opacity="0.25"/><circle cx="1108.5" cy="245.4" r="1.92" fill="#d4862a" opacity="0.21"/><circle cx="1148.3" cy="246.2" r="3.10" fill="#d4862a" opacity="0.34"/><circle cx="1179.1" cy="248.7" r="1.99" fill="#d4862a" opacity="0.20"/><circle cx="29.3" cy="284.0" r="3.72" fill="#d4862a" opacity="0.17"/><circle cx="66.8" cy="283.1" r="3.50" fill="#d4862a" opacity="0.27"/><circle cx="102.7" cy="284.5" r="2.30" fill="#d4862a" opacity="0.34"/><circle cx="140.3" cy="282.3" r="2.46" fill="#d4862a" opacity="0.22"/><circle cx="172.2" cy="283.9" r="1.91" fill="#d4862a" opacity="0.29"/><circle cx="211.1" cy="284.2" r="3.82" fill="#d4862a" opacity="0.26"/><circle cx="244.3" cy="283.2" r="1.99" fill="#d4862a" opacity="0.33"/><circle cx="281.7" cy="283.1" r="3.95" fill="#d4862a" opacity="0.33"/><circle cx="319.7" cy="279.1" r="2.67" fill="#d4862a" opacity="0.34"/><circle cx="353.6" cy="280.0" r="3.83" fill="#d4862a" opacity="0.21"/><circle cx="392.0" cy="283.1" r="2.98" fill="#d4862a" opacity="0.34"/><circle cx="426.4" cy="284.9" r="2.83" fill="#d4862a" opacity="0.24"/><circle cx="462.1" cy="280.1" r="2.60" fill="#d4862a" opacity="0.16"/><circle cx="496.0" cy="283.1" r="3.05" fill="#d4862a" opacity="0.15"/><circle cx="532.4" cy="279.3" r="3.40" fill="#d4862a" opacity="0.33"/><circle cx="569.4" cy="279.3" r="1.75" fill="#d4862a" opacity="0.19"/><circle cx="607.3" cy="279.9" r="2.40" fill="#d4862a" opacity="0.33"/><circle cx="640.4" cy="281.7" r="3.00" fill="#d4862a" opacity="0.22"/><circle cx="677.9" cy="283.3" r="2.65" fill="#d4862a" opacity="0.20"/><circle cx="714.9" cy="279.8" r="2.48" fill="#d4862a" opacity="0.35"/><circle cx="752.5" cy="281.9" r="3.97" fill="#d4862a" opacity="0.28"/><circle cx="787.2" cy="279.5" r="2.81" fill="#d4862a" opacity="0.34"/><circle cx="824.3" cy="281.2" r="2.52" fill="#d4862a" opacity="0.20"/><circle cx="856.8" cy="281.1" r="2.89" fill="#d4862a" opacity="0.19"/><circle cx="895.6" cy="281.6" r="2.16" fill="#d4862a" opacity="0.34"/><circle cx="927.1" cy="279.2" r="1.95" fill="#d4862a" opacity="0.30"/><circle cx="963.3" cy="284.2" r="3.76" fill="#d4862a" opacity="0.28"/><circle cx="999.1" cy="282.0" r="2.55" fill="#d4862a" opacity="0.23"/><circle cx="1040.2" cy="282.8" r="3.29" fill="#d4862a" opacity="0.23"/><circle cx="1071.8" cy="282.7" r="3.38" fill="#d4862a" opacity="0.29"/><circle cx="1112.4" cy="279.2" r="2.82" fill="#d4862a" opacity="0.32"/><circle cx="1144.1" cy="282.8" r="2.98" fill="#d4862a" opacity="0.22"/><circle cx="1182.2" cy="282.8" r="3.57" fill="#d4862a" opacity="0.28"/><circle cx="32.2" cy="319.2" r="1.63" fill="#d4862a" opacity="0.25"/><circle cx="66.6" cy="318.3" r="1.72" fill="#d4862a" opacity="0.35"/><circle cx="104.6" cy="320.2" r="2.75" fill="#d4862a" opacity="0.18"/><circle cx="139.2" cy="316.7" r="1.78" fill="#d4862a" opacity="0.35"/><circle cx="175.6" cy="317.5" r="2.15" fill="#d4862a" opacity="0.18"/><circle cx="209.0" cy="316.1" r="2.57" fill="#d4862a" opacity="0.34"/><circle cx="244.6" cy="319.1" r="3.56" fill="#d4862a" opacity="0.18"/><circle cx="281.9" cy="316.7" r="3.26" fill="#d4862a" opacity="0.27"/><circle cx="318.4" cy="317.6" r="3.38" fill="#d4862a" opacity="0.36"/><circle cx="353.2" cy="315.6" r="3.32" fill="#d4862a" opacity="0.35"/><circle cx="387.8" cy="315.0" r="3.65" fill="#d4862a" opacity="0.26"/><circle cx="428.0" cy="318.5" r="3.28" fill="#d4862a" opacity="0.22"/><circle cx="464.1" cy="316.6" r="3.26" fill="#d4862a" opacity="0.34"/><circle cx="498.0" cy="320.3" r="2.13" fill="#d4862a" opacity="0.32"/><circle cx="534.3" cy="315.1" r="2.33" fill="#d4862a" opacity="0.15"/><circle cx="572.2" cy="318.6" r="2.04" fill="#d4862a" opacity="0.31"/><circle cx="605.1" cy="316.5" r="3.32" fill="#d4862a" opacity="0.19"/><circle cx="639.3" cy="317.4" r="1.93" fill="#d4862a" opacity="0.34"/><circle cx="675.4" cy="316.2" r="2.50" fill="#d4862a" opacity="0.27"/><circle cx="715.6" cy="320.5" r="2.37" fill="#d4862a" opacity="0.23"/><circle cx="749.6" cy="320.1" r="3.05" fill="#d4862a" opacity="0.29"/><circle cx="785.7" cy="319.8" r="3.99" fill="#d4862a" opacity="0.16"/><circle cx="820.7" cy="315.7" r="2.27" fill="#d4862a" opacity="0.31"/><circle cx="858.5" cy="316.0" r="2.19" fill="#d4862a" opacity="0.31"/><circle cx="891.9" cy="318.6" r="2.68" fill="#d4862a" opacity="0.28"/><circle cx="928.9" cy="319.4" r="3.99" fill="#d4862a" opacity="0.35"/><circle cx="967.4" cy="319.2" r="1.66" fill="#d4862a" opacity="0.19"/><circle cx="999.9" cy="317.2" r="2.99" fill="#d4862a" opacity="0.18"/><circle cx="1040.4" cy="320.5" r="3.35" fill="#d4862a" opacity="0.20"/><circle cx="1075.2" cy="319.6" r="1.74" fill="#d4862a" opacity="0.23"/><circle cx="1108.0" cy="320.2" r="3.12" fill="#d4862a" opacity="0.32"/><circle cx="1147.1" cy="319.1" r="3.76" fill="#d4862a" opacity="0.26"/><circle cx="1179.7" cy="317.2" r="2.79" fill="#d4862a" opacity="0.35"/><circle cx="29.8" cy="356.5" r="2.55" fill="#d4862a" opacity="0.24"/><circle cx="65.2" cy="352.8" r="2.02" fill="#d4862a" opacity="0.35"/><circle cx="102.9" cy="353.8" r="2.15" fill="#d4862a" opacity="0.26"/><circle cx="140.5" cy="352.4" r="2.04" fill="#d4862a" opacity="0.27"/><circle cx="173.7" cy="353.6" r="2.35" fill="#d4862a" opacity="0.21"/><circle cx="212.1" cy="355.9" r="3.07" fill="#d4862a" opacity="0.16"/><circle cx="244.8" cy="354.2" r="1.85" fill="#d4862a" opacity="0.22"/><circle cx="279.4" cy="352.8" r="2.86" fill="#d4862a" opacity="0.28"/><circle cx="319.8" cy="354.5" r="3.11" fill="#d4862a" opacity="0.28"/><circle cx="355.5" cy="356.6" r="1.81" fill="#d4862a" opacity="0.15"/><circle cx="390.4" cy="351.5" r="2.95" fill="#d4862a" opacity="0.35"/><circle cx="423.6" cy="354.8" r="3.37" fill="#d4862a" opacity="0.34"/><circle cx="464.5" cy="353.3" r="2.08" fill="#d4862a" opacity="0.22"/><circle cx="496.5" cy="354.3" r="2.95" fill="#d4862a" opacity="0.31"/><circle cx="534.1" cy="352.3" r="2.30" fill="#d4862a" opacity="0.19"/><circle cx="570.7" cy="353.7" r="3.83" fill="#d4862a" opacity="0.19"/><circle cx="606.8" cy="356.1" r="3.72" fill="#d4862a" opacity="0.23"/><circle cx="639.5" cy="354.1" r="2.13" fill="#d4862a" opacity="0.27"/><circle cx="676.5" cy="354.5" r="1.94" fill="#d4862a" opacity="0.17"/><circle cx="713.8" cy="351.7" r="3.82" fill="#d4862a" opacity="0.30"/><circle cx="751.1" cy="355.8" r="2.30" fill="#d4862a" opacity="0.36"/><circle cx="787.7" cy="351.3" r="2.58" fill="#d4862a" opacity="0.25"/><circle cx="820.6" cy="351.8" r="3.04" fill="#d4862a" opacity="0.21"/><circle cx="856.8" cy="353.8" r="3.68" fill="#d4862a" opacity="0.31"/><circle cx="894.1" cy="353.2" r="2.20" fill="#d4862a" opacity="0.21"/><circle cx="932.1" cy="351.3" r="3.89" fill="#d4862a" opacity="0.18"/><circle cx="966.5" cy="353.8" r="2.08" fill="#d4862a" opacity="0.29"/><circle cx="1002.4" cy="353.7" r="3.15" fill="#d4862a" opacity="0.17"/><circle cx="1037.9" cy="352.6" r="3.00" fill="#d4862a" opacity="0.22"/><circle cx="1073.0" cy="355.7" r="1.86" fill="#d4862a" opacity="0.26"/><circle cx="1111.4" cy="355.7" r="3.45" fill="#d4862a" opacity="0.17"/><circle cx="1145.1" cy="354.1" r="2.74" fill="#d4862a" opacity="0.27"/><circle cx="1180.8" cy="353.2" r="3.46" fill="#d4862a" opacity="0.21"/><circle cx="28.9" cy="387.4" r="2.89" fill="#d4862a" opacity="0.35"/><circle cx="66.0" cy="389.0" r="3.98" fill="#d4862a" opacity="0.32"/><circle cx="102.8" cy="391.3" r="1.89" fill="#d4862a" opacity="0.29"/><circle cx="139.7" cy="391.8" r="1.63" fill="#d4862a" opacity="0.36"/><circle cx="173.4" cy="391.9" r="1.73" fill="#d4862a" opacity="0.19"/><circle cx="211.3" cy="392.5" r="2.86" fill="#d4862a" opacity="0.22"/><circle cx="246.5" cy="387.8" r="2.54" fill="#d4862a" opacity="0.33"/><circle cx="279.9" cy="392.6" r="3.53" fill="#d4862a" opacity="0.29"/><circle cx="320.8" cy="389.5" r="3.48" fill="#d4862a" opacity="0.22"/><circle cx="354.6" cy="387.0" r="2.44" fill="#d4862a" opacity="0.18"/><circle cx="392.4" cy="390.9" r="3.06" fill="#d4862a" opacity="0.32"/><circle cx="427.6" cy="389.4" r="3.23" fill="#d4862a" opacity="0.33"/><circle cx="462.1" cy="390.3" r="3.69" fill="#d4862a" opacity="0.17"/><circle cx="499.4" cy="390.8" r="2.66" fill="#d4862a" opacity="0.20"/><circle cx="534.8" cy="389.5" r="2.19" fill="#d4862a" opacity="0.31"/><circle cx="571.0" cy="387.1" r="1.66" fill="#d4862a" opacity="0.30"/><circle cx="607.8" cy="387.4" r="2.62" fill="#d4862a" opacity="0.15"/><circle cx="642.2" cy="392.1" r="2.42" fill="#d4862a" opacity="0.25"/><circle cx="676.7" cy="392.5" r="2.21" fill="#d4862a" opacity="0.31"/><circle cx="714.3" cy="391.4" r="3.24" fill="#d4862a" opacity="0.20"/><circle cx="750.0" cy="389.3" r="2.23" fill="#d4862a" opacity="0.30"/><circle cx="783.7" cy="392.5" r="3.24" fill="#d4862a" opacity="0.27"/><circle cx="820.9" cy="392.1" r="2.72" fill="#d4862a" opacity="0.17"/><circle cx="860.7" cy="392.9" r="3.16" fill="#d4862a" opacity="0.26"/><circle cx="893.3" cy="389.8" r="1.92" fill="#d4862a" opacity="0.22"/><circle cx="927.0" cy="389.4" r="2.55" fill="#d4862a" opacity="0.25"/><circle cx="967.2" cy="391.0" r="1.89" fill="#d4862a" opacity="0.34"/><circle cx="1004.6" cy="389.7" r="1.67" fill="#d4862a" opacity="0.34"/><circle cx="1040.8" cy="389.6" r="2.27" fill="#d4862a" opacity="0.23"/><circle cx="1073.5" cy="388.4" r="3.88" fill="#d4862a" opacity="0.33"/><circle cx="1110.6" cy="390.9" r="2.16" fill="#d4862a" opacity="0.26"/><circle cx="1143.9" cy="388.1" r="3.21" fill="#d4862a" opacity="0.33"/><circle cx="1180.8" cy="390.0" r="3.11" fill="#d4862a" opacity="0.35"/><circle cx="31.8" cy="423.6" r="3.81" fill="#d4862a" opacity="0.15"/><circle cx="68.6" cy="427.8" r="2.39" fill="#d4862a" opacity="0.27"/><circle cx="103.6" cy="427.2" r="1.83" fill="#d4862a" opacity="0.30"/><circle cx="138.9" cy="427.6" r="3.95" fill="#d4862a" opacity="0.33"/><circle cx="172.4" cy="426.0" r="3.10" fill="#d4862a" opacity="0.25"/><circle cx="209.9" cy="424.2" r="2.05" fill="#d4862a" opacity="0.28"/><circle cx="248.0" cy="428.7" r="3.24" fill="#d4862a" opacity="0.22"/><circle cx="282.1" cy="424.5" r="3.23" fill="#d4862a" opacity="0.23"/><circle cx="318.9" cy="423.5" r="3.29" fill="#d4862a" opacity="0.32"/><circle cx="351.2" cy="424.0" r="1.81" fill="#d4862a" opacity="0.31"/><circle cx="391.8" cy="427.3" r="2.66" fill="#d4862a" opacity="0.28"/><circle cx="426.5" cy="424.0" r="3.70" fill="#d4862a" opacity="0.33"/><circle cx="460.1" cy="424.8" r="1.72" fill="#d4862a" opacity="0.29"/><circle cx="496.0" cy="426.6" r="3.27" fill="#d4862a" opacity="0.19"/><circle cx="531.4" cy="423.5" r="3.06" fill="#d4862a" opacity="0.35"/><circle cx="572.7" cy="425.8" r="1.95" fill="#d4862a" opacity="0.26"/><circle cx="608.1" cy="423.3" r="2.84" fill="#d4862a" opacity="0.26"/><circle cx="639.0" cy="428.8" r="2.76" fill="#d4862a" opacity="0.19"/><circle cx="679.5" cy="428.8" r="2.37" fill="#d4862a" opacity="0.34"/><circle cx="716.0" cy="426.3" r="1.74" fill="#d4862a" opacity="0.28"/><circle cx="752.2" cy="428.2" r="2.41" fill="#d4862a" opacity="0.28"/><circle cx="786.9" cy="424.4" r="2.07" fill="#d4862a" opacity="0.24"/><circle cx="820.5" cy="424.2" r="2.98" fill="#d4862a" opacity="0.35"/><circle cx="855.4" cy="428.0" r="3.51" fill="#d4862a" opacity="0.24"/><circle cx="895.2" cy="424.6" r="2.25" fill="#d4862a" opacity="0.24"/><circle cx="927.2" cy="424.5" r="2.88" fill="#d4862a" opacity="0.33"/><circle cx="963.9" cy="427.8" r="2.24" fill="#d4862a" opacity="0.31"/><circle cx="1003.5" cy="423.1" r="1.98" fill="#d4862a" opacity="0.22"/><circle cx="1039.3" cy="426.4" r="3.94" fill="#d4862a" opacity="0.26"/><circle cx="1074.9" cy="426.7" r="2.07" fill="#d4862a" opacity="0.22"/><circle cx="1107.3" cy="426.4" r="1.63" fill="#d4862a" opacity="0.16"/><circle cx="1144.3" cy="428.8" r="2.24" fill="#d4862a" opacity="0.15"/><circle cx="1184.9" cy="425.4" r="2.42" fill="#d4862a" opacity="0.35"/><circle cx="32.1" cy="460.4" r="2.31" fill="#d4862a" opacity="0.28"/><circle cx="66.9" cy="463.7" r="2.41" fill="#d4862a" opacity="0.26"/><circle cx="104.5" cy="464.3" r="2.88" fill="#d4862a" opacity="0.32"/><circle cx="136.1" cy="463.4" r="2.03" fill="#d4862a" opacity="0.33"/><circle cx="172.4" cy="462.8" r="1.99" fill="#d4862a" opacity="0.21"/><circle cx="211.2" cy="463.0" r="3.76" fill="#d4862a" opacity="0.34"/><circle cx="244.4" cy="463.4" r="2.81" fill="#d4862a" opacity="0.15"/><circle cx="283.8" cy="463.3" r="2.46" fill="#d4862a" opacity="0.21"/><circle cx="317.1" cy="463.3" r="3.64" fill="#d4862a" opacity="0.26"/><circle cx="355.0" cy="463.7" r="3.07" fill="#d4862a" opacity="0.22"/><circle cx="390.4" cy="464.9" r="2.21" fill="#d4862a" opacity="0.28"/><circle cx="426.7" cy="462.1" r="3.93" fill="#d4862a" opacity="0.32"/><circle cx="464.9" cy="461.1" r="2.96" fill="#d4862a" opacity="0.16"/><circle cx="499.8" cy="461.2" r="2.37" fill="#d4862a" opacity="0.26"/><circle cx="536.5" cy="460.8" r="3.89" fill="#d4862a" opacity="0.33"/><circle cx="570.3" cy="462.6" r="1.81" fill="#d4862a" opacity="0.24"/><circle cx="607.8" cy="462.5" r="3.38" fill="#d4862a" opacity="0.31"/><circle cx="643.1" cy="461.2" r="2.07" fill="#d4862a" opacity="0.17"/><circle cx="676.6" cy="460.3" r="1.99" fill="#d4862a" opacity="0.25"/><circle cx="711.5" cy="463.6" r="2.06" fill="#d4862a" opacity="0.17"/><circle cx="750.2" cy="461.8" r="2.82" fill="#d4862a" opacity="0.33"/><circle cx="785.5" cy="464.9" r="3.75" fill="#d4862a" opacity="0.26"/><circle cx="822.8" cy="459.7" r="3.80" fill="#d4862a" opacity="0.36"/><circle cx="855.8" cy="462.8" r="3.42" fill="#d4862a" opacity="0.25"/><circle cx="892.6" cy="464.2" r="3.84" fill="#d4862a" opacity="0.31"/><circle cx="930.7" cy="463.7" r="3.62" fill="#d4862a" opacity="0.16"/><circle cx="963.7" cy="460.7" r="2.09" fill="#d4862a" opacity="0.25"/><circle cx="1002.3" cy="464.8" r="2.44" fill="#d4862a" opacity="0.17"/><circle cx="1040.5" cy="461.2" r="2.17" fill="#d4862a" opacity="0.21"/><circle cx="1073.1" cy="459.9" r="2.27" fill="#d4862a" opacity="0.31"/><circle cx="1111.4" cy="462.5" r="1.93" fill="#d4862a" opacity="0.19"/><circle cx="1143.1" cy="461.5" r="2.03" fill="#d4862a" opacity="0.36"/><circle cx="1179.3" cy="462.1" r="3.07" fill="#d4862a" opacity="0.22"/><circle cx="28.7" cy="495.8" r="2.33" fill="#d4862a" opacity="0.24"/><circle cx="63.1" cy="498.2" r="1.91" fill="#d4862a" opacity="0.22"/><circle cx="102.0" cy="496.9" r="3.07" fill="#d4862a" opacity="0.33"/><circle cx="136.4" cy="499.7" r="2.70" fill="#d4862a" opacity="0.20"/><circle cx="174.9" cy="500.9" r="3.65" fill="#d4862a" opacity="0.20"/><circle cx="209.1" cy="498.1" r="1.98" fill="#d4862a" opacity="0.20"/><circle cx="245.6" cy="496.9" r="3.70" fill="#d4862a" opacity="0.19"/><circle cx="284.1" cy="500.2" r="2.09" fill="#d4862a" opacity="0.28"/><circle cx="318.8" cy="499.7" r="2.88" fill="#d4862a" opacity="0.18"/><circle cx="353.3" cy="500.8" r="3.49" fill="#d4862a" opacity="0.17"/><circle cx="388.7" cy="498.9" r="1.86" fill="#d4862a" opacity="0.20"/><circle cx="427.6" cy="500.4" r="2.19" fill="#d4862a" opacity="0.33"/><circle cx="461.9" cy="497.3" r="3.23" fill="#d4862a" opacity="0.30"/><circle cx="499.6" cy="499.8" r="2.19" fill="#d4862a" opacity="0.28"/><circle cx="533.8" cy="496.4" r="3.03" fill="#d4862a" opacity="0.18"/><circle cx="570.6" cy="499.6" r="2.30" fill="#d4862a" opacity="0.20"/><circle cx="608.9" cy="498.9" r="2.40" fill="#d4862a" opacity="0.27"/><circle cx="639.7" cy="495.8" r="2.13" fill="#d4862a" opacity="0.24"/><circle cx="676.6" cy="499.5" r="3.56" fill="#d4862a" opacity="0.16"/><circle cx="716.1" cy="500.0" r="2.10" fill="#d4862a" opacity="0.21"/><circle cx="749.0" cy="495.9" r="3.23" fill="#d4862a" opacity="0.30"/><circle cx="785.7" cy="496.0" r="3.22" fill="#d4862a" opacity="0.30"/><circle cx="821.2" cy="497.7" r="3.28" fill="#d4862a" opacity="0.19"/><circle cx="860.1" cy="498.6" r="2.08" fill="#d4862a" opacity="0.32"/><circle cx="895.0" cy="499.6" r="3.14" fill="#d4862a" opacity="0.21"/><circle cx="932.8" cy="496.3" r="2.30" fill="#d4862a" opacity="0.18"/><circle cx="966.7" cy="498.2" r="3.06" fill="#d4862a" opacity="0.26"/><circle cx="1000.9" cy="496.4" r="2.23" fill="#d4862a" opacity="0.24"/><circle cx="1035.7" cy="497.4" r="3.91" fill="#d4862a" opacity="0.22"/><circle cx="1075.2" cy="499.8" r="3.38" fill="#d4862a" opacity="0.29"/><circle cx="1112.3" cy="499.2" r="3.28" fill="#d4862a" opacity="0.19"/><circle cx="1147.3" cy="497.4" r="2.84" fill="#d4862a" opacity="0.18"/><circle cx="1181.5" cy="498.6" r="2.86" fill="#d4862a" opacity="0.17"/><circle cx="31.7" cy="532.4" r="3.66" fill="#d4862a" opacity="0.22"/><circle cx="64.2" cy="534.7" r="3.63" fill="#d4862a" opacity="0.19"/><circle cx="103.1" cy="535.6" r="3.85" fill="#d4862a" opacity="0.27"/><circle cx="138.6" cy="535.0" r="3.92" fill="#d4862a" opacity="0.16"/><circle cx="171.6" cy="536.9" r="2.05" fill="#d4862a" opacity="0.18"/><circle cx="212.9" cy="532.9" r="1.65" fill="#d4862a" opacity="0.22"/><circle cx="245.9" cy="536.9" r="2.69" fill="#d4862a" opacity="0.25"/><circle cx="283.6" cy="531.0" r="2.27" fill="#d4862a" opacity="0.27"/><circle cx="320.5" cy="536.2" r="3.16" fill="#d4862a" opacity="0.33"/><circle cx="353.0" cy="531.8" r="2.44" fill="#d4862a" opacity="0.29"/><circle cx="392.1" cy="533.1" r="3.94" fill="#d4862a" opacity="0.29"/><circle cx="423.5" cy="532.8" r="1.73" fill="#d4862a" opacity="0.23"/><circle cx="460.2" cy="534.3" r="2.46" fill="#d4862a" opacity="0.29"/><circle cx="496.4" cy="536.6" r="3.77" fill="#d4862a" opacity="0.29"/><circle cx="532.8" cy="535.0" r="1.90" fill="#d4862a" opacity="0.35"/><circle cx="571.1" cy="534.2" r="3.12" fill="#d4862a" opacity="0.33"/><circle cx="603.3" cy="532.4" r="3.10" fill="#d4862a" opacity="0.36"/><circle cx="640.7" cy="536.1" r="3.14" fill="#d4862a" opacity="0.22"/><circle cx="676.9" cy="532.8" r="3.80" fill="#d4862a" opacity="0.29"/><circle cx="716.6" cy="532.8" r="1.69" fill="#d4862a" opacity="0.30"/><circle cx="752.9" cy="534.0" r="2.84" fill="#d4862a" opacity="0.23"/><circle cx="788.6" cy="532.4" r="3.41" fill="#d4862a" opacity="0.32"/><circle cx="824.6" cy="531.7" r="2.49" fill="#d4862a" opacity="0.25"/><circle cx="860.7" cy="536.3" r="2.49" fill="#d4862a" opacity="0.24"/><circle cx="894.7" cy="533.2" r="2.31" fill="#d4862a" opacity="0.18"/><circle cx="928.4" cy="531.1" r="1.82" fill="#d4862a" opacity="0.31"/><circle cx="963.5" cy="535.2" r="2.17" fill="#d4862a" opacity="0.23"/><circle cx="1001.9" cy="531.8" r="3.92" fill="#d4862a" opacity="0.24"/><circle cx="1037.2" cy="531.4" r="2.03" fill="#d4862a" opacity="0.19"/><circle cx="1075.6" cy="535.1" r="2.94" fill="#d4862a" opacity="0.19"/><circle cx="1107.1" cy="532.5" r="2.26" fill="#d4862a" opacity="0.21"/><circle cx="1144.9" cy="532.0" r="3.53" fill="#d4862a" opacity="0.25"/><circle cx="1182.7" cy="531.8" r="2.22" fill="#d4862a" opacity="0.28"/><circle cx="30.0" cy="567.6" r="2.67" fill="#d4862a" opacity="0.25"/><circle cx="65.3" cy="571.9" r="2.23" fill="#d4862a" opacity="0.18"/><circle cx="100.3" cy="568.2" r="2.48" fill="#d4862a" opacity="0.21"/><circle cx="137.4" cy="571.7" r="2.01" fill="#d4862a" opacity="0.36"/><circle cx="176.4" cy="570.3" r="3.27" fill="#d4862a" opacity="0.16"/><circle cx="208.5" cy="572.0" r="1.90" fill="#d4862a" opacity="0.29"/><circle cx="247.9" cy="571.7" r="1.77" fill="#d4862a" opacity="0.15"/><circle cx="284.7" cy="568.5" r="2.77" fill="#d4862a" opacity="0.28"/><circle cx="319.0" cy="571.4" r="1.96" fill="#d4862a" opacity="0.29"/><circle cx="352.1" cy="572.6" r="2.14" fill="#d4862a" opacity="0.17"/><circle cx="392.1" cy="571.6" r="3.28" fill="#d4862a" opacity="0.17"/><circle cx="424.2" cy="571.2" r="2.55" fill="#d4862a" opacity="0.26"/><circle cx="459.2" cy="572.9" r="2.44" fill="#d4862a" opacity="0.34"/><circle cx="498.3" cy="569.1" r="2.44" fill="#d4862a" opacity="0.25"/><circle cx="534.4" cy="571.9" r="3.21" fill="#d4862a" opacity="0.20"/><circle cx="571.3" cy="567.4" r="3.46" fill="#d4862a" opacity="0.19"/><circle cx="607.2" cy="571.3" r="3.64" fill="#d4862a" opacity="0.23"/><circle cx="639.0" cy="569.1" r="3.74" fill="#d4862a" opacity="0.32"/><circle cx="676.4" cy="571.3" r="1.82" fill="#d4862a" opacity="0.20"/><circle cx="715.3" cy="572.0" r="2.44" fill="#d4862a" opacity="0.25"/><circle cx="752.0" cy="569.8" r="1.71" fill="#d4862a" opacity="0.28"/><circle cx="783.2" cy="570.6" r="3.67" fill="#d4862a" opacity="0.33"/><circle cx="822.5" cy="570.1" r="2.14" fill="#d4862a" opacity="0.18"/><circle cx="856.4" cy="570.5" r="2.95" fill="#d4862a" opacity="0.29"/><circle cx="896.5" cy="571.6" r="2.20" fill="#d4862a" opacity="0.22"/><circle cx="930.6" cy="570.2" r="1.69" fill="#d4862a" opacity="0.31"/><circle cx="967.8" cy="570.1" r="2.92" fill="#d4862a" opacity="0.28"/><circle cx="1001.5" cy="569.9" r="2.91" fill="#d4862a" opacity="0.27"/><circle cx="1035.0" cy="570.4" r="3.97" fill="#d4862a" opacity="0.20"/><circle cx="1075.5" cy="568.9" r="3.77" fill="#d4862a" opacity="0.30"/><circle cx="1107.9" cy="570.7" r="2.78" fill="#d4862a" opacity="0.27"/><circle cx="1147.5" cy="568.8" r="3.45" fill="#d4862a" opacity="0.22"/><circle cx="1184.8" cy="567.1" r="2.98" fill="#d4862a" opacity="0.16"/><circle cx="31.7" cy="607.8" r="3.01" fill="#d4862a" opacity="0.31"/><circle cx="66.4" cy="607.7" r="3.36" fill="#d4862a" opacity="0.35"/><circle cx="100.8" cy="607.3" r="3.30" fill="#d4862a" opacity="0.28"/><circle cx="138.3" cy="608.4" r="3.92" fill="#d4862a" opacity="0.25"/><circle cx="173.8" cy="608.6" r="3.05" fill="#d4862a" opacity="0.32"/><circle cx="210.9" cy="604.7" r="1.66" fill="#d4862a" opacity="0.29"/><circle cx="247.0" cy="606.9" r="2.67" fill="#d4862a" opacity="0.17"/><circle cx="283.2" cy="607.8" r="1.93" fill="#d4862a" opacity="0.33"/><circle cx="320.6" cy="604.9" r="1.96" fill="#d4862a" opacity="0.24"/><circle cx="356.4" cy="609.0" r="3.83" fill="#d4862a" opacity="0.28"/><circle cx="387.1" cy="605.6" r="3.72" fill="#d4862a" opacity="0.25"/><circle cx="425.6" cy="608.4" r="2.18" fill="#d4862a" opacity="0.28"/><circle cx="462.4" cy="607.0" r="1.79" fill="#d4862a" opacity="0.26"/><circle cx="495.0" cy="608.8" r="2.51" fill="#d4862a" opacity="0.29"/><circle cx="535.4" cy="606.6" r="2.35" fill="#d4862a" opacity="0.30"/><circle cx="571.4" cy="605.1" r="2.29" fill="#d4862a" opacity="0.34"/><circle cx="604.5" cy="604.8" r="2.11" fill="#d4862a" opacity="0.24"/><circle cx="641.0" cy="604.0" r="2.48" fill="#d4862a" opacity="0.28"/><circle cx="677.1" cy="608.1" r="2.24" fill="#d4862a" opacity="0.19"/><circle cx="713.5" cy="603.2" r="3.98" fill="#d4862a" opacity="0.21"/><circle cx="749.2" cy="607.0" r="3.85" fill="#d4862a" opacity="0.21"/><circle cx="785.1" cy="603.8" r="2.96" fill="#d4862a" opacity="0.32"/><circle cx="820.8" cy="608.7" r="1.92" fill="#d4862a" opacity="0.34"/><circle cx="859.0" cy="607.0" r="1.76" fill="#d4862a" opacity="0.27"/><circle cx="894.1" cy="608.7" r="3.05" fill="#d4862a" opacity="0.35"/><circle cx="932.1" cy="608.6" r="3.37" fill="#d4862a" opacity="0.30"/><circle cx="967.9" cy="606.1" r="3.29" fill="#d4862a" opacity="0.21"/><circle cx="1002.9" cy="604.8" r="2.14" fill="#d4862a" opacity="0.24"/><circle cx="1040.4" cy="608.1" r="3.56" fill="#d4862a" opacity="0.26"/><circle cx="1071.0" cy="608.0" r="1.74" fill="#d4862a" opacity="0.34"/><circle cx="1109.3" cy="603.3" r="3.65" fill="#d4862a" opacity="0.20"/><circle cx="1145.8" cy="605.6" r="2.16" fill="#d4862a" opacity="0.20"/><circle cx="1184.3" cy="605.2" r="2.26" fill="#d4862a" opacity="0.18"/><circle cx="32.8" cy="644.8" r="3.17" fill="#d4862a" opacity="0.33"/><circle cx="67.4" cy="642.0" r="2.94" fill="#d4862a" opacity="0.34"/><circle cx="103.2" cy="641.9" r="2.21" fill="#d4862a" opacity="0.36"/><circle cx="137.2" cy="642.2" r="3.48" fill="#d4862a" opacity="0.23"/><circle cx="173.9" cy="640.4" r="1.68" fill="#d4862a" opacity="0.32"/><circle cx="211.5" cy="639.2" r="1.68" fill="#d4862a" opacity="0.30"/><circle cx="248.3" cy="642.6" r="2.24" fill="#d4862a" opacity="0.18"/><circle cx="284.0" cy="645.0" r="3.01" fill="#d4862a" opacity="0.23"/><circle cx="317.5" cy="641.4" r="2.10" fill="#d4862a" opacity="0.29"/><circle cx="351.7" cy="639.4" r="2.13" fill="#d4862a" opacity="0.31"/><circle cx="389.6" cy="644.6" r="2.78" fill="#d4862a" opacity="0.15"/><circle cx="426.5" cy="643.1" r="3.09" fill="#d4862a" opacity="0.16"/><circle cx="462.4" cy="642.9" r="1.96" fill="#d4862a" opacity="0.25"/><circle cx="499.6" cy="641.8" r="3.59" fill="#d4862a" opacity="0.26"/><circle cx="535.2" cy="640.2" r="1.76" fill="#d4862a" opacity="0.17"/><circle cx="571.8" cy="640.3" r="3.65" fill="#d4862a" opacity="0.25"/><circle cx="607.5" cy="643.8" r="2.15" fill="#d4862a" opacity="0.20"/><circle cx="641.5" cy="644.3" r="2.64" fill="#d4862a" opacity="0.32"/><circle cx="680.1" cy="641.6" r="2.69" fill="#d4862a" opacity="0.23"/><circle cx="713.7" cy="641.0" r="1.65" fill="#d4862a" opacity="0.18"/><circle cx="748.7" cy="643.0" r="3.82" fill="#d4862a" opacity="0.34"/><circle cx="784.4" cy="644.0" r="3.37" fill="#d4862a" opacity="0.18"/><circle cx="824.5" cy="639.8" r="2.66" fill="#d4862a" opacity="0.29"/><circle cx="859.9" cy="640.5" r="2.64" fill="#d4862a" opacity="0.29"/><circle cx="893.7" cy="640.5" r="3.27" fill="#d4862a" opacity="0.31"/><circle cx="927.1" cy="639.9" r="3.49" fill="#d4862a" opacity="0.25"/><circle cx="967.7" cy="642.9" r="1.95" fill="#d4862a" opacity="0.26"/><circle cx="1002.5" cy="641.9" r="2.67" fill="#d4862a" opacity="0.20"/><circle cx="1040.5" cy="642.9" r="2.26" fill="#d4862a" opacity="0.31"/><circle cx="1073.3" cy="639.3" r="2.59" fill="#d4862a" opacity="0.24"/><circle cx="1111.3" cy="641.3" r="3.90" fill="#d4862a" opacity="0.19"/><circle cx="1147.0" cy="640.4" r="1.63" fill="#d4862a" opacity="0.34"/><circle cx="1180.1" cy="640.5" r="1.89" fill="#d4862a" opacity="0.23"/><circle cx="250.6" cy="217.1" r="220" fill="url(#glow)" opacity="0.9"/>
  <g opacity="0.85" transform="translate(1020, 495)">
        <circle r="60" fill="#d4862a" opacity="0.18"/>
        <path d="M -34 6 Q -10 -22 14 6 Q 34 24 14 26 L -22 26 Q -38 24 -34 6 Z" fill="none" stroke="#bd6b20" stroke-width="3" stroke-linejoin="round"/>
      </g>
  <g transform="translate(80, 90)">
    <rect x="0" y="0" rx="20" ry="20" width="134" height="38" fill="#d4862a" opacity="0.18" stroke="#d4862a" stroke-width="1.5"/>
    <text x="67" y="25" font-family="ui-sans-serif, Inter, sans-serif" font-weight="700" font-size="14" letter-spacing="2.5" fill="#d4862a" text-anchor="middle">CASE STUDY</text>
  </g>
  <text x="80" y="465" font-family="ui-sans-serif, -apple-system, Segoe UI, Inter, sans-serif" font-weight="800" font-size="44" fill="#faf8f5" opacity="0.98"><tspan x="80" dy="0">PDR COURT Case Study:</tspan><tspan x="80" dy="56">Resolving a Financial</tspan><tspan x="80" dy="56">Dispute Through</tspan></text>
  <rect x="0" y="669" width="1200" height="6" fill="url(#gold)"/>
</svg>