<?xml version="1.0" encoding="UTF-8"?>
<svg xmlns="http://www.w3.org/2000/svg" viewBox="0 0 1200 675" width="1200" height="675" role="img" aria-label="Resolving a Complex Financial Dispute: PDR COURT's Expert Mediation">
  <defs>
    <linearGradient id="bg" x1="0%" y1="0%" x2="100%" y2="100%">
      <stop offset="0%" stop-color="#faf8f5"/>
      <stop offset="100%" stop-color="#f4efe8"/>
    </linearGradient>
    <linearGradient id="gold" x1="0%" y1="0%" x2="100%" y2="100%">
      <stop offset="0%" stop-color="#bd6b20"/>
      <stop offset="100%" stop-color="#9a5518"/>
    </linearGradient>
    <radialGradient id="glow" cx="50%" cy="50%" r="50%">
      <stop offset="0%" stop-color="#bd6b20" stop-opacity="0.45"/>
      <stop offset="100%" stop-color="#bd6b20" stop-opacity="0"/>
    </radialGradient>
  </defs>
  <rect width="1200" height="675" fill="url(#bg)"/>
  <polygon points="-50,250.6 -20,246.6 10,243.7 40,242.0 70,241.4 100,242.0 130,243.8 160,246.7 190,250.7 220,255.7 250,261.5 280,268.1 310,275.3 340,282.9 370,290.7 400,298.7 430,306.5 460,314.1 490,321.2 520,327.8 550,333.5 580,338.4 610,342.4 640,345.2 670,346.9 700,347.4 730,346.7 760,344.9 790,341.9 820,337.8 850,332.8 880,326.9 910,320.3 940,313.1 970,305.5 1000,297.6 1030,289.7 1060,281.8 1090,274.3 1120,267.2 1150,260.7 1180,254.9 1210,250.1 1240,246.2 1250,725 -50,725" fill="#bd6b20" opacity="0.08"/><polygon points="-50,401.9 -20,390.3 10,377.9 40,364.8 70,351.4 100,337.9 130,324.7 160,312.1 190,300.4 220,289.7 250,280.5 280,272.8 310,266.8 340,262.7 370,260.5 400,260.4 430,262.3 460,266.2 490,271.9 520,279.4 550,288.5 580,299.0 610,310.6 640,323.1 670,336.3 700,349.7 730,363.1 760,376.3 790,388.8 820,400.5 850,411.1 880,420.3 910,427.9 940,433.8 970,437.8 1000,439.8 1030,439.8 1060,437.8 1090,433.8 1120,428.0 1150,420.4 1180,411.2 1210,400.7 1240,389.0 1250,725 -50,725" fill="#bd6b20" opacity="0.13"/><polygon points="-50,439.3 -20,439.4 10,438.7 40,437.2 70,434.9 100,431.8 130,428.1 160,423.8 190,418.9 220,413.8 250,408.3 280,402.7 310,397.1 340,391.6 370,386.3 400,381.4 430,377.0 460,373.1 490,369.8 520,367.3 550,365.6 580,364.7 610,364.6 640,365.3 670,366.9 700,369.3 730,372.4 760,376.1 790,380.5 820,385.3 850,390.5 880,396.0 910,401.6 940,407.2 970,412.7 1000,417.9 1030,422.8 1060,427.3 1090,431.1 1120,434.3 1150,436.8 1180,438.5 1210,439.4 1240,439.4 1250,725 -50,725" fill="#bd6b20" opacity="0.18"/><polygon points="-50,440.0 -20,445.0 10,450.7 40,457.0 70,463.6 100,470.6 130,477.7 160,484.8 190,491.7 220,498.3 250,504.3 280,509.7 310,514.4 340,518.2 370,521.1 400,523.0 430,523.8 460,523.6 490,522.3 520,520.0 550,516.7 580,512.5 610,507.5 640,501.7 670,495.5 700,488.7 730,481.8 760,474.6 790,467.6 820,460.7 850,454.2 880,448.1 910,442.8 940,438.1 970,434.3 1000,431.5 1030,429.7 1060,428.9 1090,429.2 1120,430.6 1150,432.9 1180,436.3 1210,440.6 1240,445.6 1250,725 -50,725" fill="#bd6b20" opacity="0.23"/><circle cx="300.0" cy="189.0" r="160" fill="url(#glow)"/>
  <g opacity="0.85" transform="translate(1020, 495)">
        <circle r="60" fill="#bd6b20" opacity="0.18"/>
        <path d="M -34 6 Q -10 -22 14 6 Q 34 24 14 26 L -22 26 Q -38 24 -34 6 Z" fill="none" stroke="#9a5518" stroke-width="3" stroke-linejoin="round"/>
      </g>
  <g transform="translate(80, 90)">
    <rect x="0" y="0" rx="20" ry="20" width="134" height="38" fill="#bd6b20" opacity="0.18" stroke="#bd6b20" stroke-width="1.5"/>
    <text x="67" y="25" font-family="ui-sans-serif, Inter, sans-serif" font-weight="700" font-size="14" letter-spacing="2.5" fill="#bd6b20" text-anchor="middle">CASE STUDY</text>
  </g>
  <text x="80" y="465" font-family="ui-sans-serif, -apple-system, Segoe UI, Inter, sans-serif" font-weight="800" font-size="44" fill="#12100e" opacity="0.98"><tspan x="80" dy="0">Resolving a Complex</tspan><tspan x="80" dy="56">Financial Dispute: PDR</tspan><tspan x="80" dy="56">COURT's Expert Mediation</tspan></text>
  <rect x="0" y="669" width="1200" height="6" fill="url(#gold)"/>
</svg>