<?xml version="1.0" encoding="UTF-8"?>
<svg xmlns="http://www.w3.org/2000/svg" viewBox="0 0 1200 675" width="1200" height="675" role="img" aria-label="PDR COURT Opens New Offices for Enhanced ADR">
  <defs>
    <linearGradient id="bg" x1="0%" y1="0%" x2="100%" y2="100%">
      <stop offset="0%" stop-color="#643516"/>
      <stop offset="100%" stop-color="#7d4315"/>
    </linearGradient>
    <linearGradient id="gold" x1="0%" y1="0%" x2="100%" y2="100%">
      <stop offset="0%" stop-color="#ecb478"/>
      <stop offset="100%" stop-color="#faebd6"/>
    </linearGradient>
    <radialGradient id="glow" cx="50%" cy="50%" r="50%">
      <stop offset="0%" stop-color="#ecb478" stop-opacity="0.45"/>
      <stop offset="100%" stop-color="#ecb478" stop-opacity="0"/>
    </radialGradient>
  </defs>
  <rect width="1200" height="675" fill="url(#bg)"/>
  <circle cx="31.8" cy="27.5" r="3.48" fill="#ecb478" opacity="0.25"/><circle cx="63.1" cy="30.7" r="3.07" fill="#ecb478" opacity="0.26"/><circle cx="104.2" cy="31.5" r="3.42" fill="#ecb478" opacity="0.32"/><circle cx="138.7" cy="32.7" r="2.06" fill="#ecb478" opacity="0.22"/><circle cx="171.2" cy="27.6" r="2.23" fill="#ecb478" opacity="0.34"/><circle cx="208.9" cy="31.0" r="2.36" fill="#ecb478" opacity="0.15"/><circle cx="244.7" cy="28.0" r="2.51" fill="#ecb478" opacity="0.29"/><circle cx="281.9" cy="28.1" r="2.76" fill="#ecb478" opacity="0.32"/><circle cx="316.8" cy="30.2" r="3.80" fill="#ecb478" opacity="0.19"/><circle cx="352.4" cy="30.2" r="1.61" fill="#ecb478" opacity="0.18"/><circle cx="387.4" cy="30.3" r="1.79" fill="#ecb478" opacity="0.36"/><circle cx="427.3" cy="30.6" r="2.67" fill="#ecb478" opacity="0.25"/><circle cx="459.6" cy="30.3" r="3.23" fill="#ecb478" opacity="0.16"/><circle cx="496.1" cy="27.9" r="1.91" fill="#ecb478" opacity="0.24"/><circle cx="534.9" cy="29.5" r="3.07" fill="#ecb478" opacity="0.15"/><circle cx="572.3" cy="29.2" r="3.91" fill="#ecb478" opacity="0.21"/><circle cx="604.7" cy="31.8" r="2.05" fill="#ecb478" opacity="0.36"/><circle cx="643.3" cy="28.0" r="1.66" fill="#ecb478" opacity="0.32"/><circle cx="679.3" cy="31.3" r="3.64" fill="#ecb478" opacity="0.16"/><circle cx="716.9" cy="29.9" r="3.26" fill="#ecb478" opacity="0.23"/><circle cx="749.7" cy="30.5" r="3.23" fill="#ecb478" opacity="0.27"/><circle cx="783.7" cy="32.1" r="2.15" fill="#ecb478" opacity="0.18"/><circle cx="823.2" cy="29.7" r="2.59" fill="#ecb478" opacity="0.20"/><circle cx="860.8" cy="31.7" r="3.71" fill="#ecb478" opacity="0.19"/><circle cx="896.0" cy="29.5" r="3.99" fill="#ecb478" opacity="0.35"/><circle cx="932.0" cy="29.8" r="3.13" fill="#ecb478" opacity="0.15"/><circle cx="967.4" cy="27.1" r="3.63" fill="#ecb478" opacity="0.32"/><circle cx="1003.8" cy="31.5" r="2.75" fill="#ecb478" opacity="0.16"/><circle cx="1036.0" cy="32.1" r="2.69" fill="#ecb478" opacity="0.27"/><circle cx="1074.0" cy="27.7" r="2.27" fill="#ecb478" opacity="0.29"/><circle cx="1110.5" cy="29.6" r="2.42" fill="#ecb478" opacity="0.26"/><circle cx="1146.1" cy="27.5" r="2.25" fill="#ecb478" opacity="0.31"/><circle cx="1180.4" cy="32.0" r="2.54" fill="#ecb478" opacity="0.34"/><circle cx="30.1" cy="67.9" r="2.90" fill="#ecb478" opacity="0.17"/><circle cx="66.1" cy="63.2" r="1.72" fill="#ecb478" opacity="0.30"/><circle cx="100.7" cy="64.7" r="2.70" fill="#ecb478" opacity="0.25"/><circle cx="140.1" cy="63.3" r="2.71" fill="#ecb478" opacity="0.17"/><circle cx="176.5" cy="64.1" r="3.60" fill="#ecb478" opacity="0.31"/><circle cx="211.9" cy="65.3" r="2.88" fill="#ecb478" opacity="0.21"/><circle cx="243.6" cy="67.8" r="3.78" fill="#ecb478" opacity="0.15"/><circle cx="280.5" cy="66.1" r="1.87" fill="#ecb478" opacity="0.31"/><circle cx="317.7" cy="65.9" r="2.48" fill="#ecb478" opacity="0.18"/><circle cx="352.7" cy="63.0" r="2.01" fill="#ecb478" opacity="0.31"/><circle cx="388.6" cy="64.7" r="1.85" fill="#ecb478" opacity="0.26"/><circle cx="427.3" cy="63.7" r="3.24" fill="#ecb478" opacity="0.26"/><circle cx="461.3" cy="64.2" r="2.88" fill="#ecb478" opacity="0.20"/><circle cx="497.7" cy="67.2" r="2.59" fill="#ecb478" opacity="0.16"/><circle cx="531.5" cy="65.0" r="3.15" fill="#ecb478" opacity="0.21"/><circle cx="569.9" cy="63.1" r="2.69" fill="#ecb478" opacity="0.30"/><circle cx="606.6" cy="66.8" r="2.39" fill="#ecb478" opacity="0.16"/><circle cx="640.6" cy="67.6" r="3.84" fill="#ecb478" opacity="0.33"/><circle cx="679.4" cy="64.2" r="2.50" fill="#ecb478" opacity="0.28"/><circle cx="715.5" cy="64.2" r="2.75" fill="#ecb478" opacity="0.16"/><circle cx="751.8" cy="67.6" r="2.25" fill="#ecb478" opacity="0.28"/><circle cx="787.4" cy="64.1" r="2.54" fill="#ecb478" opacity="0.31"/><circle cx="819.1" cy="65.5" r="3.90" fill="#ecb478" opacity="0.28"/><circle cx="860.3" cy="66.5" r="2.37" fill="#ecb478" opacity="0.30"/><circle cx="892.4" cy="65.0" r="2.26" fill="#ecb478" opacity="0.17"/><circle cx="931.8" cy="66.7" r="3.39" fill="#ecb478" opacity="0.21"/><circle cx="966.7" cy="67.1" r="3.89" fill="#ecb478" opacity="0.21"/><circle cx="1001.3" cy="66.0" r="2.49" fill="#ecb478" opacity="0.16"/><circle cx="1036.6" cy="65.6" r="2.20" fill="#ecb478" opacity="0.27"/><circle cx="1076.2" cy="63.8" r="1.82" fill="#ecb478" opacity="0.33"/><circle cx="1109.1" cy="64.6" r="1.78" fill="#ecb478" opacity="0.19"/><circle cx="1146.7" cy="64.6" r="1.78" fill="#ecb478" opacity="0.28"/><circle cx="1179.2" cy="67.3" r="2.14" fill="#ecb478" opacity="0.19"/><circle cx="32.8" cy="104.1" r="3.70" fill="#ecb478" opacity="0.28"/><circle cx="66.0" cy="104.7" r="1.64" fill="#ecb478" opacity="0.34"/><circle cx="99.6" cy="100.3" r="2.35" fill="#ecb478" opacity="0.31"/><circle cx="140.2" cy="102.0" r="3.21" fill="#ecb478" opacity="0.23"/><circle cx="172.7" cy="100.9" r="3.55" fill="#ecb478" opacity="0.24"/><circle cx="208.3" cy="100.5" r="2.99" fill="#ecb478" opacity="0.22"/><circle cx="248.6" cy="104.0" r="2.67" fill="#ecb478" opacity="0.27"/><circle cx="283.5" cy="99.1" r="1.76" fill="#ecb478" opacity="0.19"/><circle cx="320.8" cy="103.4" r="3.41" fill="#ecb478" opacity="0.18"/><circle cx="355.8" cy="104.2" r="3.15" fill="#ecb478" opacity="0.23"/><circle cx="389.1" cy="103.7" r="3.69" fill="#ecb478" opacity="0.29"/><circle cx="426.1" cy="101.7" r="2.85" fill="#ecb478" opacity="0.17"/><circle cx="462.4" cy="101.7" r="2.41" fill="#ecb478" opacity="0.22"/><circle cx="498.5" cy="103.5" r="2.11" fill="#ecb478" opacity="0.24"/><circle cx="531.3" cy="100.5" r="3.07" fill="#ecb478" opacity="0.30"/><circle cx="567.0" cy="102.5" r="2.47" fill="#ecb478" opacity="0.20"/><circle cx="603.4" cy="104.1" r="1.65" fill="#ecb478" opacity="0.20"/><circle cx="641.1" cy="99.6" r="3.59" fill="#ecb478" opacity="0.20"/><circle cx="678.6" cy="101.5" r="2.47" fill="#ecb478" opacity="0.21"/><circle cx="712.6" cy="100.9" r="3.02" fill="#ecb478" opacity="0.26"/><circle cx="750.2" cy="104.6" r="2.08" fill="#ecb478" opacity="0.36"/><circle cx="787.9" cy="103.5" r="2.36" fill="#ecb478" opacity="0.20"/><circle cx="819.2" cy="101.8" r="3.41" fill="#ecb478" opacity="0.17"/><circle cx="858.6" cy="103.7" r="3.06" fill="#ecb478" opacity="0.26"/><circle cx="893.7" cy="104.7" r="3.30" fill="#ecb478" opacity="0.31"/><circle cx="929.1" cy="102.5" r="2.57" fill="#ecb478" opacity="0.24"/><circle cx="966.9" cy="104.3" r="2.70" fill="#ecb478" opacity="0.18"/><circle cx="1004.1" cy="102.2" r="3.73" fill="#ecb478" opacity="0.19"/><circle cx="1035.2" cy="104.4" r="3.63" fill="#ecb478" opacity="0.20"/><circle cx="1076.8" cy="103.1" r="2.99" fill="#ecb478" opacity="0.33"/><circle cx="1108.8" cy="100.0" r="3.30" fill="#ecb478" opacity="0.26"/><circle cx="1147.6" cy="99.4" r="2.56" fill="#ecb478" opacity="0.19"/><circle cx="1180.8" cy="101.0" r="1.73" fill="#ecb478" opacity="0.24"/><circle cx="31.7" cy="136.1" r="3.32" fill="#ecb478" opacity="0.19"/><circle cx="67.8" cy="136.5" r="3.06" fill="#ecb478" opacity="0.21"/><circle cx="102.8" cy="138.1" r="1.75" fill="#ecb478" opacity="0.20"/><circle cx="139.9" cy="136.8" r="2.18" fill="#ecb478" opacity="0.23"/><circle cx="172.7" cy="135.4" r="3.19" fill="#ecb478" opacity="0.27"/><circle cx="212.1" cy="140.7" r="2.64" fill="#ecb478" opacity="0.28"/><circle cx="243.5" cy="135.4" r="3.97" fill="#ecb478" opacity="0.36"/><circle cx="282.6" cy="138.9" r="3.47" fill="#ecb478" opacity="0.27"/><circle cx="315.5" cy="135.0" r="3.52" fill="#ecb478" opacity="0.17"/><circle cx="353.8" cy="137.9" r="3.93" fill="#ecb478" opacity="0.20"/><circle cx="387.8" cy="137.8" r="3.07" fill="#ecb478" opacity="0.21"/><circle cx="426.0" cy="135.0" r="3.84" fill="#ecb478" opacity="0.17"/><circle cx="462.1" cy="136.8" r="3.37" fill="#ecb478" opacity="0.19"/><circle cx="500.1" cy="138.4" r="3.83" fill="#ecb478" opacity="0.35"/><circle cx="532.5" cy="135.4" r="2.13" fill="#ecb478" opacity="0.27"/><circle cx="569.5" cy="140.7" r="2.71" fill="#ecb478" opacity="0.19"/><circle cx="606.9" cy="139.3" r="3.61" fill="#ecb478" opacity="0.31"/><circle cx="639.5" cy="139.9" r="2.60" fill="#ecb478" opacity="0.26"/><circle cx="676.1" cy="138.5" r="2.06" fill="#ecb478" opacity="0.16"/><circle cx="713.9" cy="137.3" r="2.66" fill="#ecb478" opacity="0.35"/><circle cx="747.1" cy="138.0" r="3.05" fill="#ecb478" opacity="0.26"/><circle cx="787.5" cy="135.9" r="2.38" fill="#ecb478" opacity="0.24"/><circle cx="822.0" cy="140.1" r="3.22" fill="#ecb478" opacity="0.36"/><circle cx="857.3" cy="135.7" r="3.89" fill="#ecb478" opacity="0.21"/><circle cx="894.8" cy="140.6" r="3.34" fill="#ecb478" opacity="0.21"/><circle cx="928.1" cy="140.6" r="1.97" fill="#ecb478" opacity="0.16"/><circle cx="966.5" cy="140.1" r="2.55" fill="#ecb478" opacity="0.35"/><circle cx="1004.0" cy="139.8" r="3.19" fill="#ecb478" opacity="0.32"/><circle cx="1036.5" cy="137.3" r="2.90" fill="#ecb478" opacity="0.24"/><circle cx="1072.6" cy="135.5" r="1.76" fill="#ecb478" opacity="0.34"/><circle cx="1111.2" cy="137.3" r="3.74" fill="#ecb478" opacity="0.30"/><circle cx="1145.3" cy="139.3" r="1.89" fill="#ecb478" opacity="0.24"/><circle cx="1180.1" cy="135.6" r="1.64" fill="#ecb478" opacity="0.25"/><circle cx="28.4" cy="173.1" r="3.16" fill="#ecb478" opacity="0.19"/><circle cx="63.6" cy="176.0" r="2.74" fill="#ecb478" opacity="0.34"/><circle cx="102.7" cy="175.6" r="1.99" fill="#ecb478" opacity="0.29"/><circle cx="138.2" cy="172.6" r="3.65" fill="#ecb478" opacity="0.36"/><circle cx="175.6" cy="175.3" r="2.00" fill="#ecb478" opacity="0.25"/><circle cx="209.5" cy="172.4" r="3.63" fill="#ecb478" opacity="0.33"/><circle cx="246.2" cy="174.1" r="2.84" fill="#ecb478" opacity="0.18"/><circle cx="280.1" cy="174.5" r="3.66" fill="#ecb478" opacity="0.24"/><circle cx="315.2" cy="175.8" r="2.71" fill="#ecb478" opacity="0.23"/><circle cx="353.3" cy="176.9" r="3.23" fill="#ecb478" opacity="0.31"/><circle cx="387.7" cy="172.8" r="3.19" fill="#ecb478" opacity="0.26"/><circle cx="423.4" cy="172.5" r="2.75" fill="#ecb478" opacity="0.15"/><circle cx="460.5" cy="171.5" r="2.48" fill="#ecb478" opacity="0.31"/><circle cx="500.5" cy="173.6" r="2.13" fill="#ecb478" opacity="0.25"/><circle cx="533.4" cy="176.2" r="2.65" fill="#ecb478" opacity="0.19"/><circle cx="571.3" cy="171.0" r="3.95" fill="#ecb478" opacity="0.18"/><circle cx="604.9" cy="171.6" r="3.86" fill="#ecb478" opacity="0.20"/><circle cx="643.6" cy="173.4" r="1.62" fill="#ecb478" opacity="0.28"/><circle cx="680.1" cy="176.4" r="3.12" fill="#ecb478" opacity="0.19"/><circle cx="713.3" cy="174.6" r="2.87" fill="#ecb478" opacity="0.30"/><circle cx="748.2" cy="175.7" r="3.74" fill="#ecb478" opacity="0.24"/><circle cx="788.0" cy="171.3" r="1.76" fill="#ecb478" opacity="0.24"/><circle cx="822.4" cy="172.0" r="2.95" fill="#ecb478" opacity="0.18"/><circle cx="857.0" cy="171.5" r="3.71" fill="#ecb478" opacity="0.23"/><circle cx="891.7" cy="174.9" r="1.81" fill="#ecb478" opacity="0.34"/><circle cx="929.6" cy="173.1" r="2.96" fill="#ecb478" opacity="0.35"/><circle cx="968.4" cy="175.3" r="3.52" fill="#ecb478" opacity="0.33"/><circle cx="1000.4" cy="171.6" r="3.93" fill="#ecb478" opacity="0.29"/><circle cx="1035.4" cy="175.5" r="3.43" fill="#ecb478" opacity="0.35"/><circle cx="1074.1" cy="173.8" r="3.31" fill="#ecb478" opacity="0.25"/><circle cx="1112.5" cy="175.0" r="3.64" fill="#ecb478" opacity="0.32"/><circle cx="1147.1" cy="171.3" r="3.02" fill="#ecb478" opacity="0.35"/><circle cx="1179.6" cy="173.7" r="3.87" fill="#ecb478" opacity="0.34"/><circle cx="28.9" cy="209.2" r="2.90" fill="#ecb478" opacity="0.33"/><circle cx="68.6" cy="212.9" r="1.92" fill="#ecb478" opacity="0.28"/><circle cx="101.7" cy="208.1" r="3.94" fill="#ecb478" opacity="0.20"/><circle cx="140.7" cy="212.6" r="2.30" fill="#ecb478" opacity="0.34"/><circle cx="174.2" cy="209.7" r="1.94" fill="#ecb478" opacity="0.16"/><circle cx="209.3" cy="211.6" r="1.66" fill="#ecb478" opacity="0.16"/><circle cx="244.6" cy="207.4" r="3.32" fill="#ecb478" opacity="0.26"/><circle cx="283.1" cy="210.5" r="2.03" fill="#ecb478" opacity="0.26"/><circle cx="317.3" cy="208.9" r="1.79" fill="#ecb478" opacity="0.22"/><circle cx="353.7" cy="211.4" r="2.95" fill="#ecb478" opacity="0.21"/><circle cx="388.0" cy="211.6" r="1.63" fill="#ecb478" opacity="0.21"/><circle cx="427.2" cy="211.5" r="2.29" fill="#ecb478" opacity="0.18"/><circle cx="461.6" cy="209.4" r="3.55" fill="#ecb478" opacity="0.31"/><circle cx="498.1" cy="208.7" r="2.24" fill="#ecb478" opacity="0.24"/><circle cx="536.3" cy="210.9" r="3.92" fill="#ecb478" opacity="0.24"/><circle cx="567.3" cy="210.6" r="2.12" fill="#ecb478" opacity="0.26"/><circle cx="608.6" cy="212.1" r="2.87" fill="#ecb478" opacity="0.21"/><circle cx="639.5" cy="211.9" r="3.09" fill="#ecb478" opacity="0.19"/><circle cx="675.5" cy="208.4" r="1.95" fill="#ecb478" opacity="0.31"/><circle cx="714.9" cy="207.9" r="1.70" fill="#ecb478" opacity="0.29"/><circle cx="751.8" cy="208.0" r="2.31" fill="#ecb478" opacity="0.18"/><circle cx="786.7" cy="210.3" r="3.96" fill="#ecb478" opacity="0.32"/><circle cx="823.2" cy="210.9" r="2.17" fill="#ecb478" opacity="0.26"/><circle cx="860.6" cy="208.6" r="2.98" fill="#ecb478" opacity="0.21"/><circle cx="896.6" cy="211.8" r="3.00" fill="#ecb478" opacity="0.16"/><circle cx="930.3" cy="211.4" r="2.89" fill="#ecb478" opacity="0.30"/><circle cx="967.8" cy="211.8" r="2.40" fill="#ecb478" opacity="0.20"/><circle cx="1004.6" cy="207.3" r="1.92" fill="#ecb478" opacity="0.25"/><circle cx="1038.7" cy="211.2" r="2.40" fill="#ecb478" opacity="0.30"/><circle cx="1074.1" cy="207.3" r="2.64" fill="#ecb478" opacity="0.35"/><circle cx="1112.9" cy="210.0" r="1.64" fill="#ecb478" opacity="0.33"/><circle cx="1146.5" cy="211.9" r="2.57" fill="#ecb478" opacity="0.20"/><circle cx="1180.9" cy="208.2" r="3.94" fill="#ecb478" opacity="0.32"/><circle cx="32.9" cy="248.0" r="2.33" fill="#ecb478" opacity="0.29"/><circle cx="66.0" cy="247.5" r="3.64" fill="#ecb478" opacity="0.20"/><circle cx="100.4" cy="247.8" r="2.60" fill="#ecb478" opacity="0.19"/><circle cx="137.3" cy="245.7" r="2.21" fill="#ecb478" opacity="0.16"/><circle cx="171.3" cy="244.0" r="2.41" fill="#ecb478" opacity="0.29"/><circle cx="211.5" cy="244.7" r="2.18" fill="#ecb478" opacity="0.23"/><circle cx="245.0" cy="246.8" r="3.22" fill="#ecb478" opacity="0.19"/><circle cx="282.2" cy="247.2" r="2.55" fill="#ecb478" opacity="0.29"/><circle cx="316.4" cy="243.4" r="2.78" fill="#ecb478" opacity="0.32"/><circle cx="351.9" cy="247.7" r="2.13" fill="#ecb478" opacity="0.21"/><circle cx="388.2" cy="248.9" r="2.28" fill="#ecb478" opacity="0.18"/><circle cx="424.3" cy="246.0" r="2.52" fill="#ecb478" opacity="0.16"/><circle cx="464.5" cy="247.9" r="2.89" fill="#ecb478" opacity="0.33"/><circle cx="495.8" cy="246.7" r="2.36" fill="#ecb478" opacity="0.29"/><circle cx="532.0" cy="243.7" r="3.31" fill="#ecb478" opacity="0.31"/><circle cx="568.5" cy="244.5" r="3.46" fill="#ecb478" opacity="0.31"/><circle cx="606.6" cy="245.7" r="3.20" fill="#ecb478" opacity="0.15"/><circle cx="640.8" cy="243.0" r="3.64" fill="#ecb478" opacity="0.34"/><circle cx="676.9" cy="243.7" r="3.50" fill="#ecb478" opacity="0.26"/><circle cx="712.0" cy="247.5" r="3.84" fill="#ecb478" opacity="0.32"/><circle cx="748.8" cy="247.2" r="2.44" fill="#ecb478" opacity="0.18"/><circle cx="787.1" cy="244.9" r="3.87" fill="#ecb478" opacity="0.35"/><circle cx="821.4" cy="245.9" r="2.77" fill="#ecb478" opacity="0.28"/><circle cx="859.4" cy="243.4" r="2.97" fill="#ecb478" opacity="0.34"/><circle cx="894.2" cy="246.1" r="2.60" fill="#ecb478" opacity="0.18"/><circle cx="927.4" cy="244.7" r="1.85" fill="#ecb478" opacity="0.16"/><circle cx="963.5" cy="246.5" r="2.30" fill="#ecb478" opacity="0.31"/><circle cx="1001.8" cy="244.0" r="1.95" fill="#ecb478" opacity="0.18"/><circle cx="1037.4" cy="247.9" r="2.99" fill="#ecb478" opacity="0.18"/><circle cx="1073.6" cy="243.2" r="2.07" fill="#ecb478" opacity="0.29"/><circle cx="1111.4" cy="245.9" r="2.23" fill="#ecb478" opacity="0.35"/><circle cx="1144.7" cy="248.0" r="2.34" fill="#ecb478" opacity="0.18"/><circle cx="1180.1" cy="243.4" r="2.54" fill="#ecb478" opacity="0.27"/><circle cx="31.9" cy="284.8" r="3.48" fill="#ecb478" opacity="0.30"/><circle cx="63.6" cy="282.8" r="3.63" fill="#ecb478" opacity="0.25"/><circle cx="100.6" cy="281.2" r="2.24" fill="#ecb478" opacity="0.35"/><circle cx="137.5" cy="279.2" r="2.73" fill="#ecb478" opacity="0.19"/><circle cx="173.3" cy="283.3" r="3.93" fill="#ecb478" opacity="0.28"/><circle cx="209.4" cy="282.0" r="2.42" fill="#ecb478" opacity="0.28"/><circle cx="246.8" cy="280.5" r="2.34" fill="#ecb478" opacity="0.32"/><circle cx="281.5" cy="280.7" r="3.25" fill="#ecb478" opacity="0.24"/><circle cx="318.6" cy="282.3" r="3.17" fill="#ecb478" opacity="0.19"/><circle cx="352.1" cy="281.9" r="2.52" fill="#ecb478" opacity="0.19"/><circle cx="392.0" cy="282.1" r="2.57" fill="#ecb478" opacity="0.18"/><circle cx="424.2" cy="284.3" r="2.30" fill="#ecb478" opacity="0.31"/><circle cx="461.5" cy="279.9" r="3.74" fill="#ecb478" opacity="0.21"/><circle cx="496.5" cy="280.7" r="2.54" fill="#ecb478" opacity="0.18"/><circle cx="533.1" cy="282.2" r="3.07" fill="#ecb478" opacity="0.18"/><circle cx="572.4" cy="281.8" r="2.73" fill="#ecb478" opacity="0.24"/><circle cx="603.8" cy="279.6" r="2.61" fill="#ecb478" opacity="0.31"/><circle cx="642.3" cy="281.7" r="1.74" fill="#ecb478" opacity="0.24"/><circle cx="677.8" cy="281.3" r="2.78" fill="#ecb478" opacity="0.31"/><circle cx="714.2" cy="280.4" r="3.56" fill="#ecb478" opacity="0.22"/><circle cx="747.9" cy="282.6" r="3.41" fill="#ecb478" opacity="0.16"/><circle cx="785.7" cy="284.0" r="2.08" fill="#ecb478" opacity="0.29"/><circle cx="821.0" cy="283.8" r="1.92" fill="#ecb478" opacity="0.17"/><circle cx="856.4" cy="279.2" r="1.95" fill="#ecb478" opacity="0.30"/><circle cx="896.9" cy="281.5" r="2.06" fill="#ecb478" opacity="0.20"/><circle cx="930.4" cy="280.7" r="2.14" fill="#ecb478" opacity="0.32"/><circle cx="967.3" cy="282.7" r="3.77" fill="#ecb478" opacity="0.36"/><circle cx="1002.0" cy="281.5" r="2.35" fill="#ecb478" opacity="0.32"/><circle cx="1037.3" cy="284.8" r="2.57" fill="#ecb478" opacity="0.33"/><circle cx="1074.0" cy="282.6" r="2.75" fill="#ecb478" opacity="0.29"/><circle cx="1108.3" cy="280.1" r="3.63" fill="#ecb478" opacity="0.31"/><circle cx="1147.1" cy="283.8" r="2.45" fill="#ecb478" opacity="0.23"/><circle cx="1182.4" cy="283.5" r="2.07" fill="#ecb478" opacity="0.21"/><circle cx="29.5" cy="315.2" r="3.54" fill="#ecb478" opacity="0.28"/><circle cx="64.6" cy="316.7" r="2.57" fill="#ecb478" opacity="0.33"/><circle cx="101.5" cy="317.9" r="2.21" fill="#ecb478" opacity="0.16"/><circle cx="140.7" cy="318.6" r="2.96" fill="#ecb478" opacity="0.32"/><circle cx="175.1" cy="316.1" r="2.69" fill="#ecb478" opacity="0.21"/><circle cx="210.1" cy="319.2" r="3.91" fill="#ecb478" opacity="0.21"/><circle cx="243.6" cy="315.2" r="1.65" fill="#ecb478" opacity="0.34"/><circle cx="283.7" cy="315.7" r="3.74" fill="#ecb478" opacity="0.32"/><circle cx="317.8" cy="315.3" r="2.60" fill="#ecb478" opacity="0.25"/><circle cx="354.6" cy="319.3" r="3.19" fill="#ecb478" opacity="0.32"/><circle cx="388.1" cy="316.3" r="3.10" fill="#ecb478" opacity="0.34"/><circle cx="424.1" cy="317.9" r="3.32" fill="#ecb478" opacity="0.27"/><circle cx="459.4" cy="315.5" r="2.79" fill="#ecb478" opacity="0.22"/><circle cx="500.7" cy="320.6" r="3.17" fill="#ecb478" opacity="0.26"/><circle cx="534.4" cy="320.2" r="2.79" fill="#ecb478" opacity="0.17"/><circle cx="570.5" cy="317.1" r="2.00" fill="#ecb478" opacity="0.25"/><circle cx="605.1" cy="320.8" r="2.68" fill="#ecb478" opacity="0.30"/><circle cx="644.0" cy="318.9" r="2.01" fill="#ecb478" opacity="0.15"/><circle cx="679.0" cy="320.2" r="3.89" fill="#ecb478" opacity="0.34"/><circle cx="716.3" cy="320.1" r="1.66" fill="#ecb478" opacity="0.15"/><circle cx="748.2" cy="320.2" r="1.83" fill="#ecb478" opacity="0.17"/><circle cx="783.5" cy="319.7" r="3.13" fill="#ecb478" opacity="0.18"/><circle cx="824.3" cy="316.2" r="2.35" fill="#ecb478" opacity="0.26"/><circle cx="858.5" cy="317.6" r="1.85" fill="#ecb478" opacity="0.23"/><circle cx="895.9" cy="315.3" r="2.75" fill="#ecb478" opacity="0.23"/><circle cx="927.8" cy="317.2" r="2.13" fill="#ecb478" opacity="0.31"/><circle cx="968.2" cy="319.4" r="3.06" fill="#ecb478" opacity="0.25"/><circle cx="1000.2" cy="317.9" r="3.38" fill="#ecb478" opacity="0.35"/><circle cx="1036.9" cy="316.9" r="3.96" fill="#ecb478" opacity="0.19"/><circle cx="1076.1" cy="316.1" r="3.02" fill="#ecb478" opacity="0.33"/><circle cx="1108.6" cy="315.7" r="2.55" fill="#ecb478" opacity="0.16"/><circle cx="1144.7" cy="318.5" r="1.92" fill="#ecb478" opacity="0.30"/><circle cx="1181.2" cy="315.1" r="3.93" fill="#ecb478" opacity="0.18"/><circle cx="30.9" cy="356.2" r="2.41" fill="#ecb478" opacity="0.25"/><circle cx="64.3" cy="355.4" r="3.49" fill="#ecb478" opacity="0.29"/><circle cx="100.5" cy="354.9" r="2.85" fill="#ecb478" opacity="0.27"/><circle cx="136.9" cy="357.0" r="3.37" fill="#ecb478" opacity="0.25"/><circle cx="174.5" cy="354.2" r="3.71" fill="#ecb478" opacity="0.31"/><circle cx="208.5" cy="351.4" r="2.04" fill="#ecb478" opacity="0.35"/><circle cx="246.7" cy="356.6" r="2.59" fill="#ecb478" opacity="0.24"/><circle cx="280.7" cy="353.7" r="2.25" fill="#ecb478" opacity="0.23"/><circle cx="315.8" cy="355.3" r="3.19" fill="#ecb478" opacity="0.34"/><circle cx="356.2" cy="356.3" r="2.35" fill="#ecb478" opacity="0.35"/><circle cx="391.8" cy="351.7" r="3.79" fill="#ecb478" opacity="0.16"/><circle cx="425.3" cy="352.9" r="3.58" fill="#ecb478" opacity="0.23"/><circle cx="460.6" cy="352.5" r="3.03" fill="#ecb478" opacity="0.26"/><circle cx="499.0" cy="354.6" r="2.14" fill="#ecb478" opacity="0.25"/><circle cx="533.5" cy="356.7" r="3.27" fill="#ecb478" opacity="0.19"/><circle cx="570.0" cy="353.8" r="2.34" fill="#ecb478" opacity="0.25"/><circle cx="606.0" cy="353.5" r="3.78" fill="#ecb478" opacity="0.22"/><circle cx="644.3" cy="352.4" r="1.86" fill="#ecb478" opacity="0.16"/><circle cx="676.7" cy="353.0" r="3.77" fill="#ecb478" opacity="0.21"/><circle cx="715.2" cy="354.1" r="3.84" fill="#ecb478" opacity="0.16"/><circle cx="751.7" cy="354.5" r="3.16" fill="#ecb478" opacity="0.26"/><circle cx="785.6" cy="351.3" r="2.81" fill="#ecb478" opacity="0.26"/><circle cx="822.9" cy="351.9" r="2.82" fill="#ecb478" opacity="0.32"/><circle cx="857.9" cy="356.0" r="3.04" fill="#ecb478" opacity="0.19"/><circle cx="891.4" cy="353.6" r="2.08" fill="#ecb478" opacity="0.32"/><circle cx="928.4" cy="353.7" r="3.80" fill="#ecb478" opacity="0.21"/><circle cx="968.6" cy="352.0" r="3.92" fill="#ecb478" opacity="0.27"/><circle cx="1003.2" cy="356.7" r="2.23" fill="#ecb478" opacity="0.31"/><circle cx="1035.3" cy="353.7" r="1.91" fill="#ecb478" opacity="0.19"/><circle cx="1075.0" cy="351.9" r="2.92" fill="#ecb478" opacity="0.16"/><circle cx="1112.9" cy="351.5" r="2.70" fill="#ecb478" opacity="0.28"/><circle cx="1144.6" cy="351.7" r="3.55" fill="#ecb478" opacity="0.18"/><circle cx="1182.8" cy="356.3" r="3.02" fill="#ecb478" opacity="0.34"/><circle cx="30.4" cy="388.5" r="3.33" fill="#ecb478" opacity="0.16"/><circle cx="65.7" cy="392.8" r="1.67" fill="#ecb478" opacity="0.19"/><circle cx="103.4" cy="387.1" r="2.76" fill="#ecb478" opacity="0.24"/><circle cx="139.0" cy="388.8" r="3.20" fill="#ecb478" opacity="0.33"/><circle cx="176.0" cy="391.7" r="2.28" fill="#ecb478" opacity="0.20"/><circle cx="212.6" cy="390.5" r="3.11" fill="#ecb478" opacity="0.25"/><circle cx="245.5" cy="388.5" r="2.04" fill="#ecb478" opacity="0.25"/><circle cx="280.7" cy="391.6" r="2.52" fill="#ecb478" opacity="0.15"/><circle cx="317.5" cy="390.9" r="1.96" fill="#ecb478" opacity="0.19"/><circle cx="356.1" cy="390.2" r="3.13" fill="#ecb478" opacity="0.36"/><circle cx="391.1" cy="391.4" r="3.97" fill="#ecb478" opacity="0.26"/><circle cx="428.9" cy="390.3" r="1.75" fill="#ecb478" opacity="0.23"/><circle cx="463.0" cy="388.4" r="1.61" fill="#ecb478" opacity="0.24"/><circle cx="499.4" cy="390.9" r="3.49" fill="#ecb478" opacity="0.26"/><circle cx="531.2" cy="387.1" r="3.62" fill="#ecb478" opacity="0.34"/><circle cx="570.7" cy="388.2" r="3.77" fill="#ecb478" opacity="0.29"/><circle cx="608.0" cy="391.4" r="3.99" fill="#ecb478" opacity="0.26"/><circle cx="643.8" cy="387.2" r="2.76" fill="#ecb478" opacity="0.19"/><circle cx="678.9" cy="389.6" r="1.95" fill="#ecb478" opacity="0.36"/><circle cx="713.4" cy="388.6" r="2.53" fill="#ecb478" opacity="0.29"/><circle cx="747.4" cy="392.2" r="3.05" fill="#ecb478" opacity="0.25"/><circle cx="788.8" cy="392.9" r="3.17" fill="#ecb478" opacity="0.27"/><circle cx="823.1" cy="390.5" r="2.15" fill="#ecb478" opacity="0.32"/><circle cx="858.4" cy="388.4" r="3.51" fill="#ecb478" opacity="0.20"/><circle cx="895.9" cy="387.1" r="1.90" fill="#ecb478" opacity="0.28"/><circle cx="929.7" cy="389.5" r="2.01" fill="#ecb478" opacity="0.32"/><circle cx="963.4" cy="389.7" r="2.29" fill="#ecb478" opacity="0.22"/><circle cx="1001.1" cy="389.3" r="3.26" fill="#ecb478" opacity="0.30"/><circle cx="1038.9" cy="390.3" r="3.78" fill="#ecb478" opacity="0.32"/><circle cx="1071.1" cy="390.2" r="1.65" fill="#ecb478" opacity="0.24"/><circle cx="1109.0" cy="390.2" r="2.34" fill="#ecb478" opacity="0.15"/><circle cx="1148.2" cy="391.4" r="3.75" fill="#ecb478" opacity="0.35"/><circle cx="1179.2" cy="390.3" r="3.83" fill="#ecb478" opacity="0.33"/><circle cx="32.2" cy="426.9" r="3.60" fill="#ecb478" opacity="0.23"/><circle cx="67.2" cy="425.4" r="2.17" fill="#ecb478" opacity="0.26"/><circle cx="99.8" cy="428.2" r="1.77" fill="#ecb478" opacity="0.20"/><circle cx="140.8" cy="426.7" r="1.91" fill="#ecb478" opacity="0.24"/><circle cx="173.0" cy="424.6" r="2.86" fill="#ecb478" opacity="0.23"/><circle cx="212.3" cy="424.1" r="3.07" fill="#ecb478" opacity="0.25"/><circle cx="243.8" cy="424.9" r="2.22" fill="#ecb478" opacity="0.19"/><circle cx="281.7" cy="423.6" r="3.42" fill="#ecb478" opacity="0.27"/><circle cx="315.9" cy="426.8" r="2.76" fill="#ecb478" opacity="0.27"/><circle cx="355.2" cy="424.7" r="3.95" fill="#ecb478" opacity="0.32"/><circle cx="387.9" cy="423.7" r="3.72" fill="#ecb478" opacity="0.32"/><circle cx="425.2" cy="428.9" r="3.14" fill="#ecb478" opacity="0.27"/><circle cx="463.1" cy="425.9" r="2.81" fill="#ecb478" opacity="0.23"/><circle cx="496.9" cy="425.8" r="1.98" fill="#ecb478" opacity="0.31"/><circle cx="535.4" cy="428.9" r="3.23" fill="#ecb478" opacity="0.33"/><circle cx="568.8" cy="424.8" r="2.54" fill="#ecb478" opacity="0.30"/><circle cx="603.8" cy="428.0" r="1.96" fill="#ecb478" opacity="0.18"/><circle cx="639.1" cy="423.8" r="1.65" fill="#ecb478" opacity="0.35"/><circle cx="680.5" cy="428.2" r="1.93" fill="#ecb478" opacity="0.24"/><circle cx="711.4" cy="427.2" r="3.68" fill="#ecb478" opacity="0.19"/><circle cx="751.1" cy="425.2" r="1.76" fill="#ecb478" opacity="0.16"/><circle cx="788.5" cy="426.5" r="3.36" fill="#ecb478" opacity="0.24"/><circle cx="822.1" cy="428.4" r="3.48" fill="#ecb478" opacity="0.19"/><circle cx="859.8" cy="425.0" r="3.41" fill="#ecb478" opacity="0.28"/><circle cx="891.3" cy="424.4" r="2.55" fill="#ecb478" opacity="0.36"/><circle cx="931.3" cy="428.3" r="2.57" fill="#ecb478" opacity="0.33"/><circle cx="964.2" cy="425.2" r="2.25" fill="#ecb478" opacity="0.27"/><circle cx="1003.4" cy="428.7" r="1.93" fill="#ecb478" opacity="0.32"/><circle cx="1038.7" cy="425.6" r="2.73" fill="#ecb478" opacity="0.25"/><circle cx="1073.1" cy="427.0" r="3.00" fill="#ecb478" opacity="0.25"/><circle cx="1109.2" cy="424.7" r="3.13" fill="#ecb478" opacity="0.21"/><circle cx="1144.4" cy="427.5" r="2.88" fill="#ecb478" opacity="0.32"/><circle cx="1180.4" cy="424.7" r="3.47" fill="#ecb478" opacity="0.29"/><circle cx="32.3" cy="459.1" r="3.38" fill="#ecb478" opacity="0.18"/><circle cx="64.0" cy="461.3" r="1.65" fill="#ecb478" opacity="0.31"/><circle cx="99.9" cy="461.3" r="3.19" fill="#ecb478" opacity="0.28"/><circle cx="135.2" cy="462.2" r="2.13" fill="#ecb478" opacity="0.22"/><circle cx="171.1" cy="461.0" r="2.03" fill="#ecb478" opacity="0.18"/><circle cx="212.4" cy="460.8" r="3.80" fill="#ecb478" opacity="0.26"/><circle cx="245.6" cy="462.7" r="3.33" fill="#ecb478" opacity="0.21"/><circle cx="279.3" cy="460.2" r="2.58" fill="#ecb478" opacity="0.19"/><circle cx="320.8" cy="460.5" r="1.93" fill="#ecb478" opacity="0.19"/><circle cx="354.4" cy="461.7" r="2.32" fill="#ecb478" opacity="0.24"/><circle cx="392.5" cy="461.6" r="3.08" fill="#ecb478" opacity="0.19"/><circle cx="423.0" cy="462.7" r="2.57" fill="#ecb478" opacity="0.30"/><circle cx="462.0" cy="460.0" r="2.14" fill="#ecb478" opacity="0.28"/><circle cx="499.8" cy="461.0" r="3.45" fill="#ecb478" opacity="0.17"/><circle cx="535.7" cy="460.5" r="2.35" fill="#ecb478" opacity="0.16"/><circle cx="570.5" cy="464.7" r="2.69" fill="#ecb478" opacity="0.19"/><circle cx="606.2" cy="460.7" r="2.99" fill="#ecb478" opacity="0.28"/><circle cx="644.6" cy="460.9" r="2.63" fill="#ecb478" opacity="0.30"/><circle cx="675.2" cy="464.1" r="2.91" fill="#ecb478" opacity="0.30"/><circle cx="716.9" cy="463.7" r="2.62" fill="#ecb478" opacity="0.30"/><circle cx="748.8" cy="459.6" r="2.98" fill="#ecb478" opacity="0.18"/><circle cx="788.5" cy="463.8" r="3.20" fill="#ecb478" opacity="0.29"/><circle cx="819.6" cy="462.6" r="3.13" fill="#ecb478" opacity="0.28"/><circle cx="857.0" cy="461.3" r="3.15" fill="#ecb478" opacity="0.21"/><circle cx="893.0" cy="460.6" r="3.59" fill="#ecb478" opacity="0.27"/><circle cx="930.5" cy="464.6" r="3.01" fill="#ecb478" opacity="0.29"/><circle cx="966.5" cy="463.2" r="2.77" fill="#ecb478" opacity="0.33"/><circle cx="1002.9" cy="461.3" r="2.30" fill="#ecb478" opacity="0.22"/><circle cx="1036.4" cy="464.0" r="3.37" fill="#ecb478" opacity="0.23"/><circle cx="1075.0" cy="461.6" r="2.99" fill="#ecb478" opacity="0.17"/><circle cx="1108.9" cy="462.1" r="2.91" fill="#ecb478" opacity="0.27"/><circle cx="1147.1" cy="462.5" r="2.79" fill="#ecb478" opacity="0.22"/><circle cx="1179.2" cy="462.0" r="2.33" fill="#ecb478" opacity="0.20"/><circle cx="27.1" cy="496.0" r="2.07" fill="#ecb478" opacity="0.33"/><circle cx="65.7" cy="498.7" r="1.89" fill="#ecb478" opacity="0.17"/><circle cx="102.9" cy="498.5" r="1.89" fill="#ecb478" opacity="0.17"/><circle cx="139.8" cy="498.8" r="2.73" fill="#ecb478" opacity="0.20"/><circle cx="174.4" cy="500.6" r="2.85" fill="#ecb478" opacity="0.17"/><circle cx="210.2" cy="496.1" r="3.55" fill="#ecb478" opacity="0.20"/><circle cx="245.9" cy="499.6" r="2.73" fill="#ecb478" opacity="0.30"/><circle cx="284.3" cy="495.8" r="3.83" fill="#ecb478" opacity="0.23"/><circle cx="320.4" cy="498.7" r="3.70" fill="#ecb478" opacity="0.27"/><circle cx="353.9" cy="500.9" r="3.57" fill="#ecb478" opacity="0.17"/><circle cx="389.2" cy="495.3" r="2.56" fill="#ecb478" opacity="0.20"/><circle cx="426.4" cy="500.1" r="2.01" fill="#ecb478" opacity="0.23"/><circle cx="464.6" cy="499.8" r="3.84" fill="#ecb478" opacity="0.31"/><circle cx="496.0" cy="496.9" r="2.13" fill="#ecb478" opacity="0.30"/><circle cx="531.0" cy="497.0" r="2.57" fill="#ecb478" opacity="0.23"/><circle cx="572.4" cy="499.7" r="1.88" fill="#ecb478" opacity="0.32"/><circle cx="606.6" cy="499.3" r="2.71" fill="#ecb478" opacity="0.20"/><circle cx="644.2" cy="496.6" r="2.72" fill="#ecb478" opacity="0.26"/><circle cx="678.4" cy="499.6" r="3.81" fill="#ecb478" opacity="0.33"/><circle cx="715.3" cy="495.7" r="3.12" fill="#ecb478" opacity="0.28"/><circle cx="747.9" cy="499.5" r="3.21" fill="#ecb478" opacity="0.31"/><circle cx="783.8" cy="498.8" r="1.89" fill="#ecb478" opacity="0.34"/><circle cx="825.0" cy="497.6" r="3.02" fill="#ecb478" opacity="0.15"/><circle cx="857.0" cy="496.2" r="1.85" fill="#ecb478" opacity="0.32"/><circle cx="892.1" cy="500.5" r="3.10" fill="#ecb478" opacity="0.18"/><circle cx="930.6" cy="496.5" r="1.64" fill="#ecb478" opacity="0.22"/><circle cx="965.5" cy="500.7" r="3.83" fill="#ecb478" opacity="0.21"/><circle cx="1000.3" cy="500.1" r="1.98" fill="#ecb478" opacity="0.15"/><circle cx="1037.1" cy="497.6" r="2.53" fill="#ecb478" opacity="0.23"/><circle cx="1076.0" cy="497.6" r="3.88" fill="#ecb478" opacity="0.35"/><circle cx="1110.1" cy="495.6" r="2.59" fill="#ecb478" opacity="0.30"/><circle cx="1144.0" cy="496.9" r="2.36" fill="#ecb478" opacity="0.27"/><circle cx="1182.3" cy="499.1" r="3.51" fill="#ecb478" opacity="0.22"/><circle cx="30.7" cy="534.2" r="3.35" fill="#ecb478" opacity="0.18"/><circle cx="67.8" cy="532.4" r="3.76" fill="#ecb478" opacity="0.29"/><circle cx="100.3" cy="536.4" r="2.15" fill="#ecb478" opacity="0.20"/><circle cx="136.2" cy="536.2" r="3.14" fill="#ecb478" opacity="0.24"/><circle cx="174.5" cy="534.5" r="3.94" fill="#ecb478" opacity="0.16"/><circle cx="210.1" cy="532.1" r="2.18" fill="#ecb478" opacity="0.24"/><circle cx="246.0" cy="533.9" r="2.60" fill="#ecb478" opacity="0.22"/><circle cx="281.0" cy="534.3" r="3.76" fill="#ecb478" opacity="0.22"/><circle cx="319.1" cy="536.4" r="2.95" fill="#ecb478" opacity="0.35"/><circle cx="351.5" cy="533.3" r="3.21" fill="#ecb478" opacity="0.36"/><circle cx="391.0" cy="533.6" r="1.77" fill="#ecb478" opacity="0.21"/><circle cx="427.2" cy="536.3" r="3.26" fill="#ecb478" opacity="0.17"/><circle cx="461.1" cy="536.8" r="2.02" fill="#ecb478" opacity="0.21"/><circle cx="500.4" cy="535.1" r="3.37" fill="#ecb478" opacity="0.18"/><circle cx="534.4" cy="535.6" r="3.55" fill="#ecb478" opacity="0.19"/><circle cx="569.8" cy="533.1" r="3.05" fill="#ecb478" opacity="0.32"/><circle cx="603.8" cy="534.4" r="3.95" fill="#ecb478" opacity="0.16"/><circle cx="642.5" cy="531.9" r="3.23" fill="#ecb478" opacity="0.30"/><circle cx="678.8" cy="536.2" r="3.57" fill="#ecb478" opacity="0.19"/><circle cx="712.6" cy="533.9" r="3.32" fill="#ecb478" opacity="0.31"/><circle cx="751.4" cy="531.6" r="2.38" fill="#ecb478" opacity="0.31"/><circle cx="788.3" cy="534.5" r="1.92" fill="#ecb478" opacity="0.28"/><circle cx="824.9" cy="533.0" r="3.07" fill="#ecb478" opacity="0.24"/><circle cx="855.8" cy="532.1" r="3.29" fill="#ecb478" opacity="0.18"/><circle cx="891.3" cy="533.6" r="1.91" fill="#ecb478" opacity="0.26"/><circle cx="927.1" cy="531.4" r="2.87" fill="#ecb478" opacity="0.23"/><circle cx="963.6" cy="535.3" r="3.80" fill="#ecb478" opacity="0.17"/><circle cx="1002.6" cy="531.9" r="1.75" fill="#ecb478" opacity="0.29"/><circle cx="1039.8" cy="531.7" r="3.21" fill="#ecb478" opacity="0.24"/><circle cx="1071.9" cy="535.6" r="2.17" fill="#ecb478" opacity="0.16"/><circle cx="1109.7" cy="534.4" r="2.94" fill="#ecb478" opacity="0.32"/><circle cx="1148.0" cy="535.6" r="3.52" fill="#ecb478" opacity="0.20"/><circle cx="1179.4" cy="531.8" r="2.69" fill="#ecb478" opacity="0.32"/><circle cx="31.7" cy="567.8" r="3.15" fill="#ecb478" opacity="0.19"/><circle cx="65.8" cy="571.1" r="2.70" fill="#ecb478" opacity="0.19"/><circle cx="100.5" cy="568.8" r="2.97" fill="#ecb478" opacity="0.31"/><circle cx="140.9" cy="568.9" r="1.74" fill="#ecb478" opacity="0.35"/><circle cx="176.4" cy="569.4" r="3.09" fill="#ecb478" opacity="0.29"/><circle cx="211.1" cy="571.7" r="2.54" fill="#ecb478" opacity="0.30"/><circle cx="243.0" cy="568.8" r="3.16" fill="#ecb478" opacity="0.28"/><circle cx="283.2" cy="571.6" r="2.15" fill="#ecb478" opacity="0.16"/><circle cx="316.2" cy="569.4" r="3.45" fill="#ecb478" opacity="0.35"/><circle cx="351.3" cy="568.5" r="1.84" fill="#ecb478" opacity="0.19"/><circle cx="388.4" cy="568.7" r="3.80" fill="#ecb478" opacity="0.20"/><circle cx="424.8" cy="572.7" r="2.56" fill="#ecb478" opacity="0.19"/><circle cx="464.4" cy="568.9" r="3.13" fill="#ecb478" opacity="0.33"/><circle cx="495.2" cy="571.5" r="1.84" fill="#ecb478" opacity="0.18"/><circle cx="534.8" cy="571.4" r="3.52" fill="#ecb478" opacity="0.16"/><circle cx="567.3" cy="571.3" r="2.26" fill="#ecb478" opacity="0.30"/><circle cx="605.4" cy="568.4" r="3.12" fill="#ecb478" opacity="0.31"/><circle cx="643.1" cy="567.4" r="3.80" fill="#ecb478" opacity="0.35"/><circle cx="677.8" cy="570.4" r="2.48" fill="#ecb478" opacity="0.30"/><circle cx="715.8" cy="569.5" r="3.83" fill="#ecb478" opacity="0.28"/><circle cx="751.5" cy="568.9" r="3.97" fill="#ecb478" opacity="0.32"/><circle cx="786.8" cy="570.4" r="3.86" fill="#ecb478" opacity="0.35"/><circle cx="822.0" cy="572.5" r="3.52" fill="#ecb478" opacity="0.33"/><circle cx="858.8" cy="568.7" r="3.89" fill="#ecb478" opacity="0.30"/><circle cx="891.2" cy="568.3" r="3.68" fill="#ecb478" opacity="0.28"/><circle cx="931.0" cy="570.7" r="3.46" fill="#ecb478" opacity="0.34"/><circle cx="966.3" cy="569.7" r="2.79" fill="#ecb478" opacity="0.30"/><circle cx="1003.3" cy="568.6" r="1.64" fill="#ecb478" opacity="0.15"/><circle cx="1038.1" cy="568.4" r="3.96" fill="#ecb478" opacity="0.20"/><circle cx="1075.0" cy="568.9" r="2.48" fill="#ecb478" opacity="0.29"/><circle cx="1108.9" cy="573.0" r="1.88" fill="#ecb478" opacity="0.28"/><circle cx="1146.6" cy="572.5" r="3.77" fill="#ecb478" opacity="0.27"/><circle cx="1179.1" cy="570.3" r="1.92" fill="#ecb478" opacity="0.16"/><circle cx="31.7" cy="605.3" r="3.91" fill="#ecb478" opacity="0.22"/><circle cx="66.6" cy="608.7" r="3.64" fill="#ecb478" opacity="0.18"/><circle cx="102.6" cy="603.7" r="1.84" fill="#ecb478" opacity="0.26"/><circle cx="137.0" cy="605.4" r="2.29" fill="#ecb478" opacity="0.18"/><circle cx="172.8" cy="604.8" r="3.44" fill="#ecb478" opacity="0.16"/><circle cx="207.1" cy="608.9" r="3.90" fill="#ecb478" opacity="0.16"/><circle cx="246.7" cy="606.7" r="1.83" fill="#ecb478" opacity="0.25"/><circle cx="279.8" cy="608.6" r="2.82" fill="#ecb478" opacity="0.18"/><circle cx="315.2" cy="603.1" r="3.67" fill="#ecb478" opacity="0.28"/><circle cx="356.7" cy="605.5" r="3.18" fill="#ecb478" opacity="0.24"/><circle cx="390.9" cy="605.1" r="2.34" fill="#ecb478" opacity="0.19"/><circle cx="424.1" cy="605.0" r="2.33" fill="#ecb478" opacity="0.18"/><circle cx="462.6" cy="604.0" r="3.11" fill="#ecb478" opacity="0.17"/><circle cx="495.6" cy="607.7" r="2.36" fill="#ecb478" opacity="0.30"/><circle cx="533.0" cy="608.7" r="3.52" fill="#ecb478" opacity="0.20"/><circle cx="569.1" cy="605.8" r="1.72" fill="#ecb478" opacity="0.25"/><circle cx="604.7" cy="608.3" r="2.59" fill="#ecb478" opacity="0.22"/><circle cx="640.4" cy="608.3" r="2.43" fill="#ecb478" opacity="0.24"/><circle cx="679.4" cy="605.0" r="3.82" fill="#ecb478" opacity="0.21"/><circle cx="716.9" cy="607.0" r="3.96" fill="#ecb478" opacity="0.21"/><circle cx="751.0" cy="604.3" r="3.47" fill="#ecb478" opacity="0.36"/><circle cx="786.5" cy="605.1" r="2.64" fill="#ecb478" opacity="0.31"/><circle cx="822.3" cy="603.0" r="2.39" fill="#ecb478" opacity="0.25"/><circle cx="860.3" cy="605.1" r="2.52" fill="#ecb478" opacity="0.31"/><circle cx="891.8" cy="603.3" r="2.45" fill="#ecb478" opacity="0.21"/><circle cx="929.4" cy="603.2" r="3.53" fill="#ecb478" opacity="0.23"/><circle cx="968.9" cy="609.0" r="3.26" fill="#ecb478" opacity="0.27"/><circle cx="1002.8" cy="608.6" r="3.83" fill="#ecb478" opacity="0.24"/><circle cx="1035.7" cy="605.9" r="3.00" fill="#ecb478" opacity="0.34"/><circle cx="1072.3" cy="605.6" r="3.32" fill="#ecb478" opacity="0.21"/><circle cx="1111.9" cy="605.0" r="2.34" fill="#ecb478" opacity="0.33"/><circle cx="1145.4" cy="608.8" r="2.83" fill="#ecb478" opacity="0.31"/><circle cx="1183.5" cy="605.6" r="2.85" fill="#ecb478" opacity="0.15"/><circle cx="29.1" cy="642.0" r="2.44" fill="#ecb478" opacity="0.21"/><circle cx="66.1" cy="640.7" r="2.47" fill="#ecb478" opacity="0.32"/><circle cx="102.1" cy="644.5" r="3.24" fill="#ecb478" opacity="0.25"/><circle cx="137.6" cy="639.6" r="1.61" fill="#ecb478" opacity="0.36"/><circle cx="173.0" cy="641.8" r="2.30" fill="#ecb478" opacity="0.24"/><circle cx="207.6" cy="642.0" r="3.38" fill="#ecb478" opacity="0.17"/><circle cx="246.5" cy="639.8" r="3.93" fill="#ecb478" opacity="0.24"/><circle cx="282.0" cy="644.8" r="3.43" fill="#ecb478" opacity="0.29"/><circle cx="320.3" cy="645.0" r="3.84" fill="#ecb478" opacity="0.24"/><circle cx="354.6" cy="641.3" r="3.89" fill="#ecb478" opacity="0.25"/><circle cx="390.5" cy="641.7" r="2.32" fill="#ecb478" opacity="0.23"/><circle cx="427.4" cy="641.5" r="3.50" fill="#ecb478" opacity="0.30"/><circle cx="463.6" cy="641.4" r="3.12" fill="#ecb478" opacity="0.19"/><circle cx="500.8" cy="643.0" r="2.75" fill="#ecb478" opacity="0.23"/><circle cx="534.8" cy="643.6" r="3.45" fill="#ecb478" opacity="0.36"/><circle cx="571.3" cy="641.1" r="1.80" fill="#ecb478" opacity="0.20"/><circle cx="606.3" cy="644.3" r="3.57" fill="#ecb478" opacity="0.16"/><circle cx="640.0" cy="641.6" r="3.48" fill="#ecb478" opacity="0.20"/><circle cx="677.5" cy="641.3" r="3.67" fill="#ecb478" opacity="0.23"/><circle cx="714.3" cy="640.9" r="3.05" fill="#ecb478" opacity="0.30"/><circle cx="752.9" cy="642.8" r="3.98" fill="#ecb478" opacity="0.31"/><circle cx="788.4" cy="639.1" r="2.59" fill="#ecb478" opacity="0.33"/><circle cx="820.7" cy="643.4" r="2.84" fill="#ecb478" opacity="0.21"/><circle cx="855.4" cy="640.0" r="3.97" fill="#ecb478" opacity="0.20"/><circle cx="896.0" cy="644.4" r="2.54" fill="#ecb478" opacity="0.23"/><circle cx="927.2" cy="639.1" r="3.91" fill="#ecb478" opacity="0.33"/><circle cx="964.4" cy="640.8" r="2.62" fill="#ecb478" opacity="0.18"/><circle cx="1003.1" cy="640.7" r="3.60" fill="#ecb478" opacity="0.33"/><circle cx="1036.6" cy="644.1" r="2.07" fill="#ecb478" opacity="0.16"/><circle cx="1075.0" cy="644.3" r="1.65" fill="#ecb478" opacity="0.30"/><circle cx="1111.1" cy="640.8" r="3.65" fill="#ecb478" opacity="0.17"/><circle cx="1147.4" cy="641.6" r="3.76" fill="#ecb478" opacity="0.24"/><circle cx="1184.6" cy="644.4" r="3.92" fill="#ecb478" opacity="0.25"/><circle cx="207.7" cy="232.5" r="220" fill="url(#glow)" opacity="0.9"/>
  <g opacity="0.85" transform="translate(1020, 495)">
        <polygon points="0,-50 43,25 -43,25" fill="none" stroke="#ecb478" stroke-width="2"/>
        <polygon points="0,-30 26,15 -26,15" fill="#faebd6" opacity="0.4"/>
      </g>
  <g transform="translate(80, 90)">
    <rect x="0" y="0" rx="20" ry="20" width="145" height="38" fill="#ecb478" opacity="0.18" stroke="#ecb478" stroke-width="1.5"/>
    <text x="72.5" y="25" font-family="ui-sans-serif, Inter, sans-serif" font-weight="700" font-size="14" letter-spacing="2.5" fill="#ecb478" text-anchor="middle">INFORMATION</text>
  </g>
  <text x="80" y="515" font-family="ui-sans-serif, -apple-system, Segoe UI, Inter, sans-serif" font-weight="800" font-size="44" fill="#faf8f5" opacity="0.98"><tspan x="80" dy="0">PDR COURT Opens New</tspan><tspan x="80" dy="56">Offices for Enhanced ADR</tspan></text>
  <rect x="0" y="669" width="1200" height="6" fill="url(#gold)"/>
</svg>