<?xml version="1.0" encoding="UTF-8"?>
<svg xmlns="http://www.w3.org/2000/svg" viewBox="0 0 1200 675" width="1200" height="675" role="img" aria-label="Why Did Omidyar Network Choose to Exit the Indian Market?">
  <defs>
    <linearGradient id="bg" x1="0%" y1="0%" x2="100%" y2="100%">
      <stop offset="0%" stop-color="#faf8f5"/>
      <stop offset="100%" stop-color="#f4efe8"/>
    </linearGradient>
    <linearGradient id="gold" x1="0%" y1="0%" x2="100%" y2="100%">
      <stop offset="0%" stop-color="#bd6b20"/>
      <stop offset="100%" stop-color="#9a5518"/>
    </linearGradient>
    <radialGradient id="glow" cx="50%" cy="50%" r="50%">
      <stop offset="0%" stop-color="#bd6b20" stop-opacity="0.45"/>
      <stop offset="100%" stop-color="#bd6b20" stop-opacity="0"/>
    </radialGradient>
  </defs>
  <rect width="1200" height="675" fill="url(#bg)"/>
  <circle cx="32.4" cy="28.8" r="2.65" fill="#bd6b20" opacity="0.33"/><circle cx="67.6" cy="28.5" r="3.66" fill="#bd6b20" opacity="0.22"/><circle cx="99.5" cy="27.2" r="2.62" fill="#bd6b20" opacity="0.26"/><circle cx="139.8" cy="27.2" r="1.73" fill="#bd6b20" opacity="0.32"/><circle cx="174.1" cy="28.9" r="2.34" fill="#bd6b20" opacity="0.35"/><circle cx="207.7" cy="32.1" r="3.34" fill="#bd6b20" opacity="0.18"/><circle cx="247.9" cy="31.7" r="3.47" fill="#bd6b20" opacity="0.28"/><circle cx="282.4" cy="27.3" r="2.28" fill="#bd6b20" opacity="0.15"/><circle cx="316.6" cy="30.0" r="3.64" fill="#bd6b20" opacity="0.35"/><circle cx="351.4" cy="27.6" r="2.77" fill="#bd6b20" opacity="0.17"/><circle cx="387.9" cy="33.0" r="2.81" fill="#bd6b20" opacity="0.31"/><circle cx="423.3" cy="27.0" r="2.68" fill="#bd6b20" opacity="0.34"/><circle cx="461.6" cy="30.6" r="3.63" fill="#bd6b20" opacity="0.18"/><circle cx="500.3" cy="31.7" r="2.87" fill="#bd6b20" opacity="0.17"/><circle cx="532.5" cy="27.7" r="2.66" fill="#bd6b20" opacity="0.25"/><circle cx="568.2" cy="27.7" r="2.71" fill="#bd6b20" opacity="0.17"/><circle cx="607.7" cy="31.7" r="2.64" fill="#bd6b20" opacity="0.25"/><circle cx="640.9" cy="27.9" r="3.93" fill="#bd6b20" opacity="0.20"/><circle cx="680.0" cy="31.3" r="2.84" fill="#bd6b20" opacity="0.27"/><circle cx="713.3" cy="32.4" r="2.30" fill="#bd6b20" opacity="0.20"/><circle cx="751.7" cy="27.4" r="1.94" fill="#bd6b20" opacity="0.33"/><circle cx="788.5" cy="31.8" r="2.83" fill="#bd6b20" opacity="0.17"/><circle cx="820.7" cy="32.3" r="3.72" fill="#bd6b20" opacity="0.20"/><circle cx="859.3" cy="27.3" r="2.00" fill="#bd6b20" opacity="0.34"/><circle cx="895.8" cy="29.0" r="2.88" fill="#bd6b20" opacity="0.25"/><circle cx="932.3" cy="29.8" r="3.86" fill="#bd6b20" opacity="0.33"/><circle cx="967.6" cy="27.8" r="2.37" fill="#bd6b20" opacity="0.27"/><circle cx="1003.3" cy="30.1" r="1.68" fill="#bd6b20" opacity="0.26"/><circle cx="1039.5" cy="29.7" r="1.78" fill="#bd6b20" opacity="0.21"/><circle cx="1076.0" cy="27.7" r="2.41" fill="#bd6b20" opacity="0.19"/><circle cx="1112.8" cy="31.6" r="3.87" fill="#bd6b20" opacity="0.33"/><circle cx="1148.4" cy="32.4" r="1.88" fill="#bd6b20" opacity="0.19"/><circle cx="1180.8" cy="29.3" r="3.30" fill="#bd6b20" opacity="0.18"/><circle cx="29.7" cy="64.7" r="3.96" fill="#bd6b20" opacity="0.17"/><circle cx="63.9" cy="67.4" r="2.92" fill="#bd6b20" opacity="0.34"/><circle cx="101.4" cy="68.9" r="3.50" fill="#bd6b20" opacity="0.34"/><circle cx="135.6" cy="68.1" r="1.94" fill="#bd6b20" opacity="0.22"/><circle cx="174.2" cy="68.6" r="3.71" fill="#bd6b20" opacity="0.17"/><circle cx="209.3" cy="67.6" r="2.97" fill="#bd6b20" opacity="0.30"/><circle cx="244.4" cy="66.8" r="1.93" fill="#bd6b20" opacity="0.15"/><circle cx="283.6" cy="66.6" r="1.92" fill="#bd6b20" opacity="0.33"/><circle cx="316.9" cy="63.6" r="2.03" fill="#bd6b20" opacity="0.32"/><circle cx="355.5" cy="67.7" r="2.04" fill="#bd6b20" opacity="0.17"/><circle cx="389.0" cy="64.6" r="3.91" fill="#bd6b20" opacity="0.33"/><circle cx="428.2" cy="67.6" r="3.93" fill="#bd6b20" opacity="0.22"/><circle cx="461.1" cy="65.3" r="3.55" fill="#bd6b20" opacity="0.31"/><circle cx="497.4" cy="64.4" r="2.21" fill="#bd6b20" opacity="0.28"/><circle cx="534.7" cy="65.3" r="2.52" fill="#bd6b20" opacity="0.27"/><circle cx="569.7" cy="68.2" r="3.60" fill="#bd6b20" opacity="0.32"/><circle cx="604.8" cy="68.8" r="1.82" fill="#bd6b20" opacity="0.34"/><circle cx="642.0" cy="64.7" r="1.90" fill="#bd6b20" opacity="0.18"/><circle cx="675.2" cy="65.1" r="3.66" fill="#bd6b20" opacity="0.34"/><circle cx="716.5" cy="67.3" r="3.06" fill="#bd6b20" opacity="0.36"/><circle cx="749.6" cy="67.0" r="3.32" fill="#bd6b20" opacity="0.20"/><circle cx="786.8" cy="65.8" r="3.36" fill="#bd6b20" opacity="0.17"/><circle cx="824.4" cy="67.7" r="2.83" fill="#bd6b20" opacity="0.31"/><circle cx="860.8" cy="68.2" r="3.77" fill="#bd6b20" opacity="0.21"/><circle cx="892.7" cy="66.2" r="3.30" fill="#bd6b20" opacity="0.23"/><circle cx="929.3" cy="66.5" r="3.03" fill="#bd6b20" opacity="0.33"/><circle cx="963.8" cy="63.2" r="2.00" fill="#bd6b20" opacity="0.31"/><circle cx="1000.3" cy="67.5" r="3.23" fill="#bd6b20" opacity="0.35"/><circle cx="1036.0" cy="68.6" r="3.90" fill="#bd6b20" opacity="0.21"/><circle cx="1072.5" cy="68.2" r="1.79" fill="#bd6b20" opacity="0.31"/><circle cx="1107.5" cy="64.9" r="2.10" fill="#bd6b20" opacity="0.36"/><circle cx="1144.5" cy="63.7" r="3.50" fill="#bd6b20" opacity="0.24"/><circle cx="1179.0" cy="63.7" r="2.64" fill="#bd6b20" opacity="0.26"/><circle cx="31.4" cy="100.3" r="3.30" fill="#bd6b20" opacity="0.16"/><circle cx="67.4" cy="103.2" r="2.81" fill="#bd6b20" opacity="0.19"/><circle cx="101.1" cy="100.6" r="3.76" fill="#bd6b20" opacity="0.18"/><circle cx="137.1" cy="102.2" r="1.83" fill="#bd6b20" opacity="0.36"/><circle cx="172.9" cy="101.6" r="2.36" fill="#bd6b20" opacity="0.16"/><circle cx="207.8" cy="101.7" r="2.80" fill="#bd6b20" opacity="0.23"/><circle cx="245.0" cy="100.9" r="3.15" fill="#bd6b20" opacity="0.20"/><circle cx="284.0" cy="99.5" r="2.79" fill="#bd6b20" opacity="0.22"/><circle cx="315.3" cy="102.0" r="3.73" fill="#bd6b20" opacity="0.24"/><circle cx="352.9" cy="99.6" r="3.98" fill="#bd6b20" opacity="0.36"/><circle cx="388.8" cy="99.5" r="1.90" fill="#bd6b20" opacity="0.26"/><circle cx="423.4" cy="103.0" r="3.95" fill="#bd6b20" opacity="0.31"/><circle cx="460.8" cy="100.5" r="1.64" fill="#bd6b20" opacity="0.22"/><circle cx="496.9" cy="103.6" r="3.92" fill="#bd6b20" opacity="0.30"/><circle cx="535.5" cy="104.5" r="2.58" fill="#bd6b20" opacity="0.22"/><circle cx="570.4" cy="101.2" r="3.26" fill="#bd6b20" opacity="0.31"/><circle cx="603.6" cy="102.3" r="3.51" fill="#bd6b20" opacity="0.22"/><circle cx="639.4" cy="101.7" r="2.57" fill="#bd6b20" opacity="0.28"/><circle cx="676.1" cy="104.6" r="1.68" fill="#bd6b20" opacity="0.17"/><circle cx="716.8" cy="101.5" r="2.13" fill="#bd6b20" opacity="0.16"/><circle cx="751.2" cy="103.6" r="3.82" fill="#bd6b20" opacity="0.23"/><circle cx="786.9" cy="104.7" r="1.92" fill="#bd6b20" opacity="0.28"/><circle cx="821.8" cy="102.4" r="1.88" fill="#bd6b20" opacity="0.35"/><circle cx="860.8" cy="101.5" r="3.03" fill="#bd6b20" opacity="0.29"/><circle cx="896.9" cy="99.9" r="3.41" fill="#bd6b20" opacity="0.28"/><circle cx="930.2" cy="105.0" r="2.08" fill="#bd6b20" opacity="0.19"/><circle cx="965.6" cy="103.7" r="3.26" fill="#bd6b20" opacity="0.32"/><circle cx="1002.6" cy="104.7" r="3.26" fill="#bd6b20" opacity="0.30"/><circle cx="1039.4" cy="101.9" r="3.73" fill="#bd6b20" opacity="0.29"/><circle cx="1073.8" cy="104.1" r="3.61" fill="#bd6b20" opacity="0.20"/><circle cx="1111.1" cy="101.4" r="2.89" fill="#bd6b20" opacity="0.25"/><circle cx="1146.1" cy="100.0" r="1.66" fill="#bd6b20" opacity="0.23"/><circle cx="1179.7" cy="101.5" r="1.65" fill="#bd6b20" opacity="0.22"/><circle cx="30.0" cy="137.1" r="2.72" fill="#bd6b20" opacity="0.15"/><circle cx="65.0" cy="137.7" r="2.85" fill="#bd6b20" opacity="0.16"/><circle cx="102.1" cy="136.3" r="1.96" fill="#bd6b20" opacity="0.16"/><circle cx="135.5" cy="136.3" r="3.22" fill="#bd6b20" opacity="0.20"/><circle cx="173.3" cy="138.3" r="3.79" fill="#bd6b20" opacity="0.23"/><circle cx="212.8" cy="135.1" r="2.32" fill="#bd6b20" opacity="0.18"/><circle cx="248.0" cy="136.4" r="1.63" fill="#bd6b20" opacity="0.16"/><circle cx="282.4" cy="138.7" r="3.44" fill="#bd6b20" opacity="0.24"/><circle cx="316.8" cy="135.6" r="2.03" fill="#bd6b20" opacity="0.34"/><circle cx="356.0" cy="138.3" r="2.80" fill="#bd6b20" opacity="0.32"/><circle cx="387.3" cy="137.6" r="2.55" fill="#bd6b20" opacity="0.30"/><circle cx="425.6" cy="138.7" r="3.49" fill="#bd6b20" opacity="0.28"/><circle cx="459.6" cy="137.3" r="2.39" fill="#bd6b20" opacity="0.28"/><circle cx="498.8" cy="139.4" r="3.42" fill="#bd6b20" opacity="0.20"/><circle cx="534.6" cy="136.6" r="2.18" fill="#bd6b20" opacity="0.27"/><circle cx="569.7" cy="136.9" r="3.89" fill="#bd6b20" opacity="0.26"/><circle cx="607.0" cy="138.3" r="3.47" fill="#bd6b20" opacity="0.29"/><circle cx="644.5" cy="137.3" r="1.93" fill="#bd6b20" opacity="0.28"/><circle cx="679.0" cy="137.2" r="3.21" fill="#bd6b20" opacity="0.31"/><circle cx="711.1" cy="139.9" r="2.28" fill="#bd6b20" opacity="0.15"/><circle cx="749.4" cy="139.7" r="3.66" fill="#bd6b20" opacity="0.18"/><circle cx="783.7" cy="136.6" r="2.86" fill="#bd6b20" opacity="0.31"/><circle cx="823.2" cy="138.8" r="2.78" fill="#bd6b20" opacity="0.30"/><circle cx="858.6" cy="137.0" r="2.48" fill="#bd6b20" opacity="0.21"/><circle cx="895.4" cy="138.3" r="3.55" fill="#bd6b20" opacity="0.34"/><circle cx="928.9" cy="138.7" r="2.74" fill="#bd6b20" opacity="0.33"/><circle cx="967.5" cy="136.4" r="2.45" fill="#bd6b20" opacity="0.31"/><circle cx="1003.7" cy="136.1" r="2.52" fill="#bd6b20" opacity="0.18"/><circle cx="1037.7" cy="137.8" r="3.08" fill="#bd6b20" opacity="0.18"/><circle cx="1073.1" cy="136.4" r="3.96" fill="#bd6b20" opacity="0.35"/><circle cx="1108.9" cy="137.1" r="2.82" fill="#bd6b20" opacity="0.22"/><circle cx="1143.6" cy="135.2" r="2.56" fill="#bd6b20" opacity="0.30"/><circle cx="1184.5" cy="135.5" r="3.46" fill="#bd6b20" opacity="0.27"/><circle cx="31.1" cy="172.3" r="2.75" fill="#bd6b20" opacity="0.30"/><circle cx="65.9" cy="175.5" r="2.37" fill="#bd6b20" opacity="0.35"/><circle cx="103.1" cy="176.0" r="1.84" fill="#bd6b20" opacity="0.18"/><circle cx="135.6" cy="175.7" r="2.89" fill="#bd6b20" opacity="0.19"/><circle cx="175.8" cy="171.6" r="1.75" fill="#bd6b20" opacity="0.35"/><circle cx="212.7" cy="176.8" r="3.83" fill="#bd6b20" opacity="0.28"/><circle cx="246.8" cy="175.5" r="3.13" fill="#bd6b20" opacity="0.24"/><circle cx="283.7" cy="171.8" r="3.94" fill="#bd6b20" opacity="0.26"/><circle cx="317.6" cy="173.9" r="1.73" fill="#bd6b20" opacity="0.33"/><circle cx="356.5" cy="172.5" r="1.67" fill="#bd6b20" opacity="0.24"/><circle cx="392.0" cy="173.4" r="1.85" fill="#bd6b20" opacity="0.32"/><circle cx="424.4" cy="175.1" r="3.45" fill="#bd6b20" opacity="0.32"/><circle cx="464.0" cy="173.7" r="2.07" fill="#bd6b20" opacity="0.20"/><circle cx="500.1" cy="175.2" r="2.02" fill="#bd6b20" opacity="0.31"/><circle cx="533.0" cy="175.9" r="2.48" fill="#bd6b20" opacity="0.30"/><circle cx="572.1" cy="171.8" r="3.72" fill="#bd6b20" opacity="0.33"/><circle cx="606.8" cy="175.9" r="3.10" fill="#bd6b20" opacity="0.17"/><circle cx="641.0" cy="175.0" r="3.02" fill="#bd6b20" opacity="0.30"/><circle cx="679.7" cy="176.8" r="3.82" fill="#bd6b20" opacity="0.25"/><circle cx="713.8" cy="174.2" r="1.66" fill="#bd6b20" opacity="0.18"/><circle cx="750.8" cy="176.4" r="2.41" fill="#bd6b20" opacity="0.25"/><circle cx="785.3" cy="172.5" r="3.84" fill="#bd6b20" opacity="0.25"/><circle cx="821.0" cy="174.5" r="3.10" fill="#bd6b20" opacity="0.22"/><circle cx="855.0" cy="175.3" r="3.14" fill="#bd6b20" opacity="0.28"/><circle cx="897.0" cy="174.3" r="3.32" fill="#bd6b20" opacity="0.19"/><circle cx="932.9" cy="173.0" r="1.93" fill="#bd6b20" opacity="0.33"/><circle cx="968.1" cy="171.2" r="2.64" fill="#bd6b20" opacity="0.30"/><circle cx="1000.8" cy="176.1" r="2.64" fill="#bd6b20" opacity="0.34"/><circle cx="1036.9" cy="174.3" r="3.24" fill="#bd6b20" opacity="0.19"/><circle cx="1074.2" cy="175.4" r="2.95" fill="#bd6b20" opacity="0.29"/><circle cx="1111.5" cy="175.1" r="1.80" fill="#bd6b20" opacity="0.34"/><circle cx="1146.0" cy="173.5" r="3.29" fill="#bd6b20" opacity="0.17"/><circle cx="1180.8" cy="176.2" r="2.83" fill="#bd6b20" opacity="0.35"/><circle cx="30.1" cy="209.3" r="2.14" fill="#bd6b20" opacity="0.28"/><circle cx="64.2" cy="210.0" r="3.52" fill="#bd6b20" opacity="0.26"/><circle cx="104.4" cy="210.4" r="2.83" fill="#bd6b20" opacity="0.16"/><circle cx="136.5" cy="207.6" r="1.81" fill="#bd6b20" opacity="0.33"/><circle cx="171.1" cy="208.4" r="3.03" fill="#bd6b20" opacity="0.32"/><circle cx="208.4" cy="209.4" r="1.90" fill="#bd6b20" opacity="0.20"/><circle cx="247.4" cy="209.8" r="3.20" fill="#bd6b20" opacity="0.24"/><circle cx="283.7" cy="208.5" r="3.99" fill="#bd6b20" opacity="0.26"/><circle cx="316.7" cy="212.6" r="2.14" fill="#bd6b20" opacity="0.21"/><circle cx="353.1" cy="211.0" r="2.70" fill="#bd6b20" opacity="0.32"/><circle cx="387.1" cy="210.2" r="2.27" fill="#bd6b20" opacity="0.27"/><circle cx="423.7" cy="210.8" r="3.85" fill="#bd6b20" opacity="0.32"/><circle cx="464.3" cy="211.5" r="3.42" fill="#bd6b20" opacity="0.24"/><circle cx="496.3" cy="207.5" r="2.96" fill="#bd6b20" opacity="0.23"/><circle cx="534.1" cy="209.4" r="2.34" fill="#bd6b20" opacity="0.33"/><circle cx="570.6" cy="208.2" r="2.62" fill="#bd6b20" opacity="0.31"/><circle cx="606.4" cy="211.7" r="3.21" fill="#bd6b20" opacity="0.27"/><circle cx="643.7" cy="211.6" r="2.09" fill="#bd6b20" opacity="0.15"/><circle cx="681.0" cy="210.0" r="2.82" fill="#bd6b20" opacity="0.22"/><circle cx="716.6" cy="212.6" r="2.70" fill="#bd6b20" opacity="0.34"/><circle cx="749.3" cy="208.0" r="2.32" fill="#bd6b20" opacity="0.33"/><circle cx="783.5" cy="210.4" r="1.82" fill="#bd6b20" opacity="0.33"/><circle cx="820.6" cy="211.1" r="3.85" fill="#bd6b20" opacity="0.31"/><circle cx="857.1" cy="207.2" r="3.36" fill="#bd6b20" opacity="0.19"/><circle cx="893.9" cy="210.8" r="1.76" fill="#bd6b20" opacity="0.19"/><circle cx="931.2" cy="209.6" r="1.98" fill="#bd6b20" opacity="0.28"/><circle cx="966.1" cy="212.5" r="3.65" fill="#bd6b20" opacity="0.31"/><circle cx="1001.6" cy="207.9" r="2.44" fill="#bd6b20" opacity="0.26"/><circle cx="1037.8" cy="208.8" r="3.18" fill="#bd6b20" opacity="0.35"/><circle cx="1073.5" cy="207.0" r="1.92" fill="#bd6b20" opacity="0.15"/><circle cx="1110.5" cy="210.0" r="3.14" fill="#bd6b20" opacity="0.23"/><circle cx="1147.7" cy="207.0" r="2.13" fill="#bd6b20" opacity="0.20"/><circle cx="1180.6" cy="208.7" r="3.42" fill="#bd6b20" opacity="0.30"/><circle cx="27.3" cy="248.8" r="3.66" fill="#bd6b20" opacity="0.36"/><circle cx="63.1" cy="245.6" r="1.93" fill="#bd6b20" opacity="0.15"/><circle cx="101.2" cy="246.6" r="3.49" fill="#bd6b20" opacity="0.23"/><circle cx="136.0" cy="243.7" r="3.87" fill="#bd6b20" opacity="0.19"/><circle cx="176.4" cy="248.9" r="1.67" fill="#bd6b20" opacity="0.34"/><circle cx="212.7" cy="245.7" r="1.97" fill="#bd6b20" opacity="0.18"/><circle cx="246.8" cy="246.7" r="3.84" fill="#bd6b20" opacity="0.32"/><circle cx="279.3" cy="248.9" r="2.57" fill="#bd6b20" opacity="0.17"/><circle cx="315.4" cy="246.9" r="2.24" fill="#bd6b20" opacity="0.25"/><circle cx="355.3" cy="244.1" r="2.33" fill="#bd6b20" opacity="0.30"/><circle cx="390.8" cy="243.9" r="3.71" fill="#bd6b20" opacity="0.22"/><circle cx="425.0" cy="247.5" r="2.05" fill="#bd6b20" opacity="0.15"/><circle cx="461.8" cy="243.7" r="3.59" fill="#bd6b20" opacity="0.34"/><circle cx="496.8" cy="245.5" r="1.96" fill="#bd6b20" opacity="0.20"/><circle cx="533.7" cy="244.6" r="3.94" fill="#bd6b20" opacity="0.35"/><circle cx="569.0" cy="246.6" r="2.28" fill="#bd6b20" opacity="0.32"/><circle cx="608.0" cy="244.4" r="2.95" fill="#bd6b20" opacity="0.36"/><circle cx="644.5" cy="246.3" r="3.00" fill="#bd6b20" opacity="0.29"/><circle cx="677.9" cy="246.6" r="2.01" fill="#bd6b20" opacity="0.27"/><circle cx="716.2" cy="246.1" r="2.67" fill="#bd6b20" opacity="0.28"/><circle cx="751.8" cy="247.2" r="2.12" fill="#bd6b20" opacity="0.35"/><circle cx="786.2" cy="245.4" r="3.79" fill="#bd6b20" opacity="0.26"/><circle cx="824.9" cy="244.4" r="1.83" fill="#bd6b20" opacity="0.18"/><circle cx="859.2" cy="244.5" r="2.15" fill="#bd6b20" opacity="0.34"/><circle cx="894.9" cy="248.1" r="3.91" fill="#bd6b20" opacity="0.28"/><circle cx="930.5" cy="246.5" r="3.48" fill="#bd6b20" opacity="0.33"/><circle cx="964.7" cy="248.6" r="1.83" fill="#bd6b20" opacity="0.15"/><circle cx="999.9" cy="248.4" r="2.57" fill="#bd6b20" opacity="0.34"/><circle cx="1040.1" cy="245.3" r="1.87" fill="#bd6b20" opacity="0.23"/><circle cx="1072.7" cy="243.4" r="2.69" fill="#bd6b20" opacity="0.28"/><circle cx="1111.8" cy="246.0" r="3.14" fill="#bd6b20" opacity="0.25"/><circle cx="1148.2" cy="243.2" r="2.77" fill="#bd6b20" opacity="0.20"/><circle cx="1183.8" cy="245.7" r="1.72" fill="#bd6b20" opacity="0.32"/><circle cx="27.1" cy="282.4" r="1.83" fill="#bd6b20" opacity="0.15"/><circle cx="63.0" cy="279.4" r="2.87" fill="#bd6b20" opacity="0.21"/><circle cx="102.0" cy="280.4" r="3.04" fill="#bd6b20" opacity="0.33"/><circle cx="138.3" cy="283.5" r="2.23" fill="#bd6b20" opacity="0.17"/><circle cx="173.1" cy="283.7" r="3.21" fill="#bd6b20" opacity="0.17"/><circle cx="207.2" cy="284.4" r="1.82" fill="#bd6b20" opacity="0.35"/><circle cx="247.0" cy="281.6" r="3.53" fill="#bd6b20" opacity="0.22"/><circle cx="282.4" cy="284.6" r="3.31" fill="#bd6b20" opacity="0.34"/><circle cx="319.5" cy="280.6" r="1.90" fill="#bd6b20" opacity="0.25"/><circle cx="354.0" cy="281.3" r="1.92" fill="#bd6b20" opacity="0.23"/><circle cx="387.4" cy="282.5" r="2.24" fill="#bd6b20" opacity="0.26"/><circle cx="428.6" cy="283.1" r="2.37" fill="#bd6b20" opacity="0.23"/><circle cx="462.8" cy="283.9" r="2.97" fill="#bd6b20" opacity="0.31"/><circle cx="496.9" cy="282.1" r="3.92" fill="#bd6b20" opacity="0.21"/><circle cx="533.6" cy="284.2" r="2.23" fill="#bd6b20" opacity="0.32"/><circle cx="569.7" cy="282.5" r="3.24" fill="#bd6b20" opacity="0.30"/><circle cx="605.5" cy="284.3" r="2.96" fill="#bd6b20" opacity="0.33"/><circle cx="643.3" cy="279.2" r="3.98" fill="#bd6b20" opacity="0.24"/><circle cx="678.5" cy="279.5" r="2.56" fill="#bd6b20" opacity="0.34"/><circle cx="716.8" cy="284.5" r="3.40" fill="#bd6b20" opacity="0.19"/><circle cx="747.6" cy="284.1" r="1.80" fill="#bd6b20" opacity="0.22"/><circle cx="786.9" cy="284.5" r="2.36" fill="#bd6b20" opacity="0.24"/><circle cx="822.1" cy="279.3" r="2.47" fill="#bd6b20" opacity="0.28"/><circle cx="859.8" cy="284.4" r="2.12" fill="#bd6b20" opacity="0.18"/><circle cx="895.3" cy="282.8" r="3.80" fill="#bd6b20" opacity="0.31"/><circle cx="932.2" cy="279.4" r="2.94" fill="#bd6b20" opacity="0.28"/><circle cx="966.5" cy="284.9" r="1.99" fill="#bd6b20" opacity="0.31"/><circle cx="1000.9" cy="284.4" r="3.25" fill="#bd6b20" opacity="0.35"/><circle cx="1036.7" cy="279.2" r="3.09" fill="#bd6b20" opacity="0.19"/><circle cx="1075.6" cy="280.0" r="3.51" fill="#bd6b20" opacity="0.35"/><circle cx="1111.0" cy="284.4" r="3.99" fill="#bd6b20" opacity="0.19"/><circle cx="1145.8" cy="284.2" r="1.93" fill="#bd6b20" opacity="0.17"/><circle cx="1180.8" cy="279.5" r="2.48" fill="#bd6b20" opacity="0.34"/><circle cx="27.5" cy="319.8" r="3.22" fill="#bd6b20" opacity="0.26"/><circle cx="66.0" cy="317.2" r="3.72" fill="#bd6b20" opacity="0.22"/><circle cx="101.6" cy="316.3" r="2.49" fill="#bd6b20" opacity="0.17"/><circle cx="135.8" cy="320.6" r="2.71" fill="#bd6b20" opacity="0.22"/><circle cx="175.8" cy="321.0" r="3.33" fill="#bd6b20" opacity="0.16"/><circle cx="209.3" cy="316.6" r="2.07" fill="#bd6b20" opacity="0.17"/><circle cx="248.9" cy="318.3" r="3.35" fill="#bd6b20" opacity="0.22"/><circle cx="284.1" cy="321.0" r="1.64" fill="#bd6b20" opacity="0.36"/><circle cx="318.6" cy="320.0" r="3.01" fill="#bd6b20" opacity="0.34"/><circle cx="352.7" cy="316.8" r="2.18" fill="#bd6b20" opacity="0.17"/><circle cx="388.4" cy="320.3" r="1.97" fill="#bd6b20" opacity="0.32"/><circle cx="425.7" cy="317.2" r="2.67" fill="#bd6b20" opacity="0.35"/><circle cx="464.1" cy="318.4" r="3.04" fill="#bd6b20" opacity="0.28"/><circle cx="498.5" cy="318.0" r="2.67" fill="#bd6b20" opacity="0.31"/><circle cx="536.3" cy="315.9" r="2.48" fill="#bd6b20" opacity="0.35"/><circle cx="571.9" cy="315.5" r="3.51" fill="#bd6b20" opacity="0.25"/><circle cx="605.1" cy="315.2" r="3.56" fill="#bd6b20" opacity="0.24"/><circle cx="643.3" cy="315.0" r="2.19" fill="#bd6b20" opacity="0.35"/><circle cx="680.4" cy="316.2" r="3.61" fill="#bd6b20" opacity="0.35"/><circle cx="716.4" cy="318.6" r="3.48" fill="#bd6b20" opacity="0.33"/><circle cx="750.0" cy="320.0" r="1.80" fill="#bd6b20" opacity="0.34"/><circle cx="784.1" cy="320.5" r="3.00" fill="#bd6b20" opacity="0.31"/><circle cx="821.3" cy="315.8" r="3.84" fill="#bd6b20" opacity="0.29"/><circle cx="857.7" cy="315.7" r="3.77" fill="#bd6b20" opacity="0.17"/><circle cx="894.1" cy="315.2" r="3.09" fill="#bd6b20" opacity="0.25"/><circle cx="932.9" cy="320.6" r="3.81" fill="#bd6b20" opacity="0.36"/><circle cx="966.8" cy="318.7" r="3.65" fill="#bd6b20" opacity="0.34"/><circle cx="1002.0" cy="319.1" r="3.30" fill="#bd6b20" opacity="0.19"/><circle cx="1035.9" cy="316.3" r="2.36" fill="#bd6b20" opacity="0.35"/><circle cx="1073.9" cy="316.9" r="3.98" fill="#bd6b20" opacity="0.22"/><circle cx="1110.4" cy="320.9" r="2.54" fill="#bd6b20" opacity="0.22"/><circle cx="1144.4" cy="316.1" r="2.46" fill="#bd6b20" opacity="0.25"/><circle cx="1184.2" cy="316.5" r="2.64" fill="#bd6b20" opacity="0.27"/><circle cx="27.1" cy="356.9" r="1.83" fill="#bd6b20" opacity="0.27"/><circle cx="64.0" cy="351.3" r="3.99" fill="#bd6b20" opacity="0.21"/><circle cx="101.4" cy="356.0" r="2.68" fill="#bd6b20" opacity="0.24"/><circle cx="136.1" cy="356.8" r="2.51" fill="#bd6b20" opacity="0.18"/><circle cx="176.7" cy="356.9" r="3.76" fill="#bd6b20" opacity="0.20"/><circle cx="209.0" cy="351.3" r="2.06" fill="#bd6b20" opacity="0.25"/><circle cx="244.9" cy="352.8" r="3.00" fill="#bd6b20" opacity="0.26"/><circle cx="281.5" cy="351.1" r="3.01" fill="#bd6b20" opacity="0.27"/><circle cx="317.9" cy="355.5" r="3.01" fill="#bd6b20" opacity="0.29"/><circle cx="356.1" cy="352.1" r="3.95" fill="#bd6b20" opacity="0.28"/><circle cx="387.1" cy="353.1" r="3.13" fill="#bd6b20" opacity="0.19"/><circle cx="425.5" cy="354.0" r="3.58" fill="#bd6b20" opacity="0.24"/><circle cx="460.6" cy="356.9" r="2.99" fill="#bd6b20" opacity="0.33"/><circle cx="496.7" cy="351.6" r="3.62" fill="#bd6b20" opacity="0.32"/><circle cx="536.7" cy="356.1" r="3.96" fill="#bd6b20" opacity="0.19"/><circle cx="571.6" cy="354.5" r="1.92" fill="#bd6b20" opacity="0.18"/><circle cx="608.2" cy="351.4" r="3.88" fill="#bd6b20" opacity="0.35"/><circle cx="643.7" cy="355.0" r="2.49" fill="#bd6b20" opacity="0.20"/><circle cx="680.3" cy="353.9" r="2.77" fill="#bd6b20" opacity="0.35"/><circle cx="714.0" cy="353.1" r="3.24" fill="#bd6b20" opacity="0.24"/><circle cx="749.6" cy="351.9" r="1.93" fill="#bd6b20" opacity="0.29"/><circle cx="788.0" cy="355.5" r="2.50" fill="#bd6b20" opacity="0.25"/><circle cx="819.7" cy="351.2" r="2.44" fill="#bd6b20" opacity="0.22"/><circle cx="856.2" cy="351.2" r="1.85" fill="#bd6b20" opacity="0.18"/><circle cx="891.9" cy="353.3" r="2.18" fill="#bd6b20" opacity="0.34"/><circle cx="927.0" cy="355.0" r="3.25" fill="#bd6b20" opacity="0.19"/><circle cx="967.7" cy="351.0" r="3.62" fill="#bd6b20" opacity="0.21"/><circle cx="1004.9" cy="353.8" r="3.80" fill="#bd6b20" opacity="0.18"/><circle cx="1039.3" cy="352.9" r="2.28" fill="#bd6b20" opacity="0.18"/><circle cx="1071.9" cy="353.5" r="1.67" fill="#bd6b20" opacity="0.21"/><circle cx="1110.1" cy="351.7" r="2.96" fill="#bd6b20" opacity="0.30"/><circle cx="1143.3" cy="351.4" r="2.61" fill="#bd6b20" opacity="0.15"/><circle cx="1179.4" cy="354.2" r="1.98" fill="#bd6b20" opacity="0.29"/><circle cx="27.2" cy="390.8" r="2.60" fill="#bd6b20" opacity="0.29"/><circle cx="65.3" cy="388.9" r="3.10" fill="#bd6b20" opacity="0.29"/><circle cx="102.5" cy="388.5" r="3.25" fill="#bd6b20" opacity="0.27"/><circle cx="137.8" cy="387.9" r="2.01" fill="#bd6b20" opacity="0.24"/><circle cx="173.7" cy="392.7" r="3.44" fill="#bd6b20" opacity="0.24"/><circle cx="209.2" cy="387.7" r="1.93" fill="#bd6b20" opacity="0.32"/><circle cx="244.5" cy="391.1" r="3.95" fill="#bd6b20" opacity="0.20"/><circle cx="279.3" cy="388.0" r="2.70" fill="#bd6b20" opacity="0.32"/><circle cx="320.5" cy="391.6" r="3.76" fill="#bd6b20" opacity="0.26"/><circle cx="354.4" cy="387.6" r="2.90" fill="#bd6b20" opacity="0.31"/><circle cx="388.2" cy="389.2" r="1.66" fill="#bd6b20" opacity="0.31"/><circle cx="426.7" cy="387.9" r="3.07" fill="#bd6b20" opacity="0.18"/><circle cx="461.8" cy="388.7" r="1.63" fill="#bd6b20" opacity="0.22"/><circle cx="496.9" cy="390.6" r="2.39" fill="#bd6b20" opacity="0.27"/><circle cx="531.9" cy="389.4" r="1.65" fill="#bd6b20" opacity="0.15"/><circle cx="567.1" cy="390.6" r="2.44" fill="#bd6b20" opacity="0.26"/><circle cx="609.0" cy="390.9" r="2.76" fill="#bd6b20" opacity="0.16"/><circle cx="644.2" cy="391.7" r="2.33" fill="#bd6b20" opacity="0.32"/><circle cx="677.6" cy="388.7" r="3.40" fill="#bd6b20" opacity="0.20"/><circle cx="713.1" cy="390.9" r="3.12" fill="#bd6b20" opacity="0.27"/><circle cx="747.7" cy="391.3" r="3.17" fill="#bd6b20" opacity="0.35"/><circle cx="784.1" cy="387.5" r="3.51" fill="#bd6b20" opacity="0.29"/><circle cx="825.0" cy="387.6" r="3.72" fill="#bd6b20" opacity="0.22"/><circle cx="856.6" cy="389.6" r="2.98" fill="#bd6b20" opacity="0.33"/><circle cx="895.3" cy="392.4" r="2.24" fill="#bd6b20" opacity="0.20"/><circle cx="930.7" cy="387.3" r="2.43" fill="#bd6b20" opacity="0.24"/><circle cx="963.2" cy="391.2" r="3.60" fill="#bd6b20" opacity="0.26"/><circle cx="1002.2" cy="392.7" r="1.83" fill="#bd6b20" opacity="0.33"/><circle cx="1036.8" cy="390.2" r="1.62" fill="#bd6b20" opacity="0.27"/><circle cx="1074.5" cy="387.2" r="3.57" fill="#bd6b20" opacity="0.27"/><circle cx="1107.3" cy="390.3" r="2.58" fill="#bd6b20" opacity="0.16"/><circle cx="1148.7" cy="389.4" r="2.62" fill="#bd6b20" opacity="0.22"/><circle cx="1183.8" cy="388.3" r="3.85" fill="#bd6b20" opacity="0.16"/><circle cx="28.4" cy="424.7" r="2.70" fill="#bd6b20" opacity="0.24"/><circle cx="68.5" cy="424.7" r="1.83" fill="#bd6b20" opacity="0.24"/><circle cx="101.7" cy="427.2" r="2.66" fill="#bd6b20" opacity="0.36"/><circle cx="136.2" cy="427.7" r="3.03" fill="#bd6b20" opacity="0.28"/><circle cx="174.9" cy="427.9" r="3.74" fill="#bd6b20" opacity="0.27"/><circle cx="209.5" cy="424.6" r="2.28" fill="#bd6b20" opacity="0.27"/><circle cx="245.7" cy="427.7" r="2.26" fill="#bd6b20" opacity="0.33"/><circle cx="282.7" cy="427.4" r="1.76" fill="#bd6b20" opacity="0.31"/><circle cx="317.1" cy="428.4" r="2.84" fill="#bd6b20" opacity="0.32"/><circle cx="355.2" cy="428.3" r="3.42" fill="#bd6b20" opacity="0.27"/><circle cx="391.4" cy="423.9" r="1.86" fill="#bd6b20" opacity="0.21"/><circle cx="425.2" cy="426.3" r="3.98" fill="#bd6b20" opacity="0.31"/><circle cx="463.0" cy="426.1" r="2.17" fill="#bd6b20" opacity="0.17"/><circle cx="500.1" cy="424.1" r="3.17" fill="#bd6b20" opacity="0.18"/><circle cx="531.8" cy="424.1" r="2.91" fill="#bd6b20" opacity="0.22"/><circle cx="572.5" cy="428.4" r="3.70" fill="#bd6b20" opacity="0.28"/><circle cx="607.9" cy="427.8" r="2.21" fill="#bd6b20" opacity="0.35"/><circle cx="642.5" cy="426.8" r="2.63" fill="#bd6b20" opacity="0.22"/><circle cx="677.1" cy="428.1" r="1.84" fill="#bd6b20" opacity="0.24"/><circle cx="712.3" cy="427.6" r="3.05" fill="#bd6b20" opacity="0.30"/><circle cx="750.1" cy="428.0" r="2.28" fill="#bd6b20" opacity="0.27"/><circle cx="783.4" cy="428.5" r="1.92" fill="#bd6b20" opacity="0.18"/><circle cx="823.1" cy="426.8" r="3.88" fill="#bd6b20" opacity="0.22"/><circle cx="857.4" cy="426.0" r="2.55" fill="#bd6b20" opacity="0.32"/><circle cx="895.0" cy="425.5" r="2.39" fill="#bd6b20" opacity="0.35"/><circle cx="931.8" cy="428.4" r="3.68" fill="#bd6b20" opacity="0.33"/><circle cx="963.7" cy="426.4" r="2.05" fill="#bd6b20" opacity="0.24"/><circle cx="1001.5" cy="427.6" r="1.88" fill="#bd6b20" opacity="0.23"/><circle cx="1039.0" cy="427.4" r="2.80" fill="#bd6b20" opacity="0.22"/><circle cx="1073.5" cy="425.7" r="3.34" fill="#bd6b20" opacity="0.34"/><circle cx="1110.1" cy="428.6" r="1.80" fill="#bd6b20" opacity="0.22"/><circle cx="1146.4" cy="428.7" r="2.04" fill="#bd6b20" opacity="0.18"/><circle cx="1182.8" cy="426.8" r="3.20" fill="#bd6b20" opacity="0.32"/><circle cx="28.8" cy="462.7" r="3.13" fill="#bd6b20" opacity="0.18"/><circle cx="65.4" cy="463.3" r="3.13" fill="#bd6b20" opacity="0.29"/><circle cx="102.3" cy="465.0" r="1.75" fill="#bd6b20" opacity="0.27"/><circle cx="139.3" cy="461.9" r="3.66" fill="#bd6b20" opacity="0.19"/><circle cx="172.8" cy="460.5" r="2.71" fill="#bd6b20" opacity="0.21"/><circle cx="212.6" cy="460.1" r="2.27" fill="#bd6b20" opacity="0.19"/><circle cx="247.9" cy="461.8" r="3.26" fill="#bd6b20" opacity="0.21"/><circle cx="280.9" cy="462.7" r="2.66" fill="#bd6b20" opacity="0.15"/><circle cx="319.0" cy="463.2" r="3.97" fill="#bd6b20" opacity="0.20"/><circle cx="354.1" cy="460.5" r="2.92" fill="#bd6b20" opacity="0.31"/><circle cx="389.3" cy="463.7" r="1.89" fill="#bd6b20" opacity="0.28"/><circle cx="428.8" cy="463.7" r="3.50" fill="#bd6b20" opacity="0.24"/><circle cx="461.0" cy="462.1" r="3.38" fill="#bd6b20" opacity="0.26"/><circle cx="496.7" cy="459.7" r="3.01" fill="#bd6b20" opacity="0.31"/><circle cx="534.8" cy="463.3" r="3.61" fill="#bd6b20" opacity="0.22"/><circle cx="569.1" cy="459.4" r="2.89" fill="#bd6b20" opacity="0.29"/><circle cx="608.1" cy="463.4" r="1.96" fill="#bd6b20" opacity="0.21"/><circle cx="643.4" cy="460.1" r="2.68" fill="#bd6b20" opacity="0.33"/><circle cx="679.9" cy="464.8" r="3.85" fill="#bd6b20" opacity="0.28"/><circle cx="712.6" cy="460.7" r="1.85" fill="#bd6b20" opacity="0.26"/><circle cx="748.3" cy="463.5" r="2.99" fill="#bd6b20" opacity="0.35"/><circle cx="783.6" cy="460.3" r="1.84" fill="#bd6b20" opacity="0.31"/><circle cx="824.8" cy="464.1" r="2.46" fill="#bd6b20" opacity="0.32"/><circle cx="860.1" cy="464.4" r="3.14" fill="#bd6b20" opacity="0.35"/><circle cx="892.3" cy="460.4" r="2.84" fill="#bd6b20" opacity="0.27"/><circle cx="929.2" cy="464.7" r="1.90" fill="#bd6b20" opacity="0.22"/><circle cx="963.6" cy="464.0" r="3.87" fill="#bd6b20" opacity="0.32"/><circle cx="999.2" cy="461.8" r="3.96" fill="#bd6b20" opacity="0.16"/><circle cx="1036.4" cy="463.2" r="2.58" fill="#bd6b20" opacity="0.20"/><circle cx="1073.9" cy="463.7" r="2.42" fill="#bd6b20" opacity="0.26"/><circle cx="1112.6" cy="460.7" r="3.22" fill="#bd6b20" opacity="0.19"/><circle cx="1144.9" cy="459.7" r="2.32" fill="#bd6b20" opacity="0.29"/><circle cx="1183.5" cy="460.9" r="2.10" fill="#bd6b20" opacity="0.20"/><circle cx="32.6" cy="500.0" r="3.47" fill="#bd6b20" opacity="0.32"/><circle cx="68.3" cy="500.4" r="3.28" fill="#bd6b20" opacity="0.35"/><circle cx="103.0" cy="500.2" r="1.76" fill="#bd6b20" opacity="0.20"/><circle cx="141.0" cy="499.9" r="3.73" fill="#bd6b20" opacity="0.16"/><circle cx="171.6" cy="498.1" r="3.61" fill="#bd6b20" opacity="0.16"/><circle cx="207.2" cy="500.6" r="3.96" fill="#bd6b20" opacity="0.21"/><circle cx="245.8" cy="500.5" r="2.02" fill="#bd6b20" opacity="0.24"/><circle cx="280.4" cy="499.5" r="1.67" fill="#bd6b20" opacity="0.16"/><circle cx="320.5" cy="500.5" r="3.56" fill="#bd6b20" opacity="0.18"/><circle cx="353.5" cy="500.5" r="2.84" fill="#bd6b20" opacity="0.22"/><circle cx="391.2" cy="500.9" r="3.10" fill="#bd6b20" opacity="0.26"/><circle cx="426.1" cy="499.9" r="3.07" fill="#bd6b20" opacity="0.24"/><circle cx="464.0" cy="498.1" r="1.78" fill="#bd6b20" opacity="0.25"/><circle cx="499.0" cy="496.9" r="3.34" fill="#bd6b20" opacity="0.18"/><circle cx="534.6" cy="497.1" r="1.77" fill="#bd6b20" opacity="0.34"/><circle cx="570.9" cy="500.6" r="2.11" fill="#bd6b20" opacity="0.28"/><circle cx="605.2" cy="496.8" r="2.67" fill="#bd6b20" opacity="0.21"/><circle cx="641.3" cy="498.6" r="3.86" fill="#bd6b20" opacity="0.21"/><circle cx="680.7" cy="501.0" r="3.16" fill="#bd6b20" opacity="0.30"/><circle cx="712.2" cy="500.0" r="2.06" fill="#bd6b20" opacity="0.26"/><circle cx="749.6" cy="497.8" r="2.93" fill="#bd6b20" opacity="0.21"/><circle cx="783.0" cy="497.3" r="2.08" fill="#bd6b20" opacity="0.22"/><circle cx="820.3" cy="496.6" r="3.70" fill="#bd6b20" opacity="0.23"/><circle cx="857.8" cy="495.7" r="2.89" fill="#bd6b20" opacity="0.16"/><circle cx="895.3" cy="496.3" r="2.38" fill="#bd6b20" opacity="0.36"/><circle cx="928.1" cy="498.8" r="1.82" fill="#bd6b20" opacity="0.18"/><circle cx="965.4" cy="498.3" r="3.68" fill="#bd6b20" opacity="0.34"/><circle cx="1002.0" cy="496.6" r="3.83" fill="#bd6b20" opacity="0.36"/><circle cx="1038.9" cy="495.8" r="3.01" fill="#bd6b20" opacity="0.35"/><circle cx="1074.4" cy="495.7" r="2.69" fill="#bd6b20" opacity="0.35"/><circle cx="1108.7" cy="498.8" r="3.40" fill="#bd6b20" opacity="0.28"/><circle cx="1145.2" cy="497.4" r="1.99" fill="#bd6b20" opacity="0.33"/><circle cx="1180.4" cy="498.3" r="2.84" fill="#bd6b20" opacity="0.22"/><circle cx="30.9" cy="533.6" r="3.59" fill="#bd6b20" opacity="0.27"/><circle cx="64.4" cy="534.2" r="3.72" fill="#bd6b20" opacity="0.33"/><circle cx="101.0" cy="534.7" r="2.73" fill="#bd6b20" opacity="0.28"/><circle cx="137.3" cy="535.4" r="3.09" fill="#bd6b20" opacity="0.25"/><circle cx="173.4" cy="534.5" r="3.61" fill="#bd6b20" opacity="0.19"/><circle cx="208.8" cy="533.3" r="2.24" fill="#bd6b20" opacity="0.23"/><circle cx="248.8" cy="535.1" r="3.64" fill="#bd6b20" opacity="0.30"/><circle cx="280.8" cy="536.4" r="1.67" fill="#bd6b20" opacity="0.15"/><circle cx="317.6" cy="531.8" r="3.68" fill="#bd6b20" opacity="0.28"/><circle cx="355.9" cy="532.4" r="3.88" fill="#bd6b20" opacity="0.28"/><circle cx="387.6" cy="534.3" r="3.96" fill="#bd6b20" opacity="0.27"/><circle cx="426.2" cy="535.4" r="3.56" fill="#bd6b20" opacity="0.33"/><circle cx="464.9" cy="534.1" r="2.05" fill="#bd6b20" opacity="0.29"/><circle cx="499.3" cy="536.2" r="1.92" fill="#bd6b20" opacity="0.23"/><circle cx="535.9" cy="532.1" r="1.88" fill="#bd6b20" opacity="0.23"/><circle cx="568.9" cy="533.4" r="1.61" fill="#bd6b20" opacity="0.27"/><circle cx="607.3" cy="534.8" r="2.35" fill="#bd6b20" opacity="0.17"/><circle cx="641.2" cy="532.5" r="3.31" fill="#bd6b20" opacity="0.18"/><circle cx="679.8" cy="534.6" r="2.26" fill="#bd6b20" opacity="0.29"/><circle cx="716.9" cy="536.5" r="2.81" fill="#bd6b20" opacity="0.32"/><circle cx="751.1" cy="536.3" r="2.95" fill="#bd6b20" opacity="0.15"/><circle cx="785.4" cy="535.3" r="1.89" fill="#bd6b20" opacity="0.27"/><circle cx="822.6" cy="536.3" r="2.38" fill="#bd6b20" opacity="0.28"/><circle cx="860.2" cy="532.0" r="1.66" fill="#bd6b20" opacity="0.35"/><circle cx="896.0" cy="531.9" r="2.38" fill="#bd6b20" opacity="0.22"/><circle cx="930.4" cy="533.6" r="1.61" fill="#bd6b20" opacity="0.23"/><circle cx="968.2" cy="533.4" r="1.61" fill="#bd6b20" opacity="0.25"/><circle cx="1001.7" cy="531.0" r="2.44" fill="#bd6b20" opacity="0.32"/><circle cx="1040.5" cy="535.6" r="2.73" fill="#bd6b20" opacity="0.35"/><circle cx="1075.8" cy="532.5" r="3.88" fill="#bd6b20" opacity="0.33"/><circle cx="1108.3" cy="535.0" r="2.44" fill="#bd6b20" opacity="0.16"/><circle cx="1146.8" cy="535.5" r="2.10" fill="#bd6b20" opacity="0.19"/><circle cx="1180.1" cy="531.1" r="2.75" fill="#bd6b20" opacity="0.29"/><circle cx="29.2" cy="569.3" r="3.24" fill="#bd6b20" opacity="0.24"/><circle cx="67.2" cy="571.4" r="3.61" fill="#bd6b20" opacity="0.29"/><circle cx="99.0" cy="569.1" r="2.53" fill="#bd6b20" opacity="0.28"/><circle cx="136.4" cy="570.7" r="3.54" fill="#bd6b20" opacity="0.22"/><circle cx="171.8" cy="572.4" r="2.45" fill="#bd6b20" opacity="0.24"/><circle cx="207.5" cy="570.5" r="3.72" fill="#bd6b20" opacity="0.24"/><circle cx="245.1" cy="567.8" r="3.90" fill="#bd6b20" opacity="0.26"/><circle cx="282.0" cy="568.0" r="1.94" fill="#bd6b20" opacity="0.21"/><circle cx="320.9" cy="571.1" r="2.97" fill="#bd6b20" opacity="0.33"/><circle cx="355.3" cy="567.9" r="2.66" fill="#bd6b20" opacity="0.21"/><circle cx="392.0" cy="572.8" r="2.22" fill="#bd6b20" opacity="0.22"/><circle cx="428.9" cy="567.7" r="2.35" fill="#bd6b20" opacity="0.30"/><circle cx="464.5" cy="571.7" r="1.63" fill="#bd6b20" opacity="0.18"/><circle cx="500.8" cy="571.4" r="3.21" fill="#bd6b20" opacity="0.25"/><circle cx="534.0" cy="568.7" r="3.66" fill="#bd6b20" opacity="0.25"/><circle cx="569.0" cy="570.3" r="3.12" fill="#bd6b20" opacity="0.32"/><circle cx="606.1" cy="567.8" r="2.62" fill="#bd6b20" opacity="0.18"/><circle cx="640.9" cy="571.5" r="3.85" fill="#bd6b20" opacity="0.15"/><circle cx="675.0" cy="568.7" r="1.72" fill="#bd6b20" opacity="0.17"/><circle cx="714.2" cy="569.0" r="3.90" fill="#bd6b20" opacity="0.33"/><circle cx="752.0" cy="567.8" r="3.17" fill="#bd6b20" opacity="0.29"/><circle cx="785.1" cy="569.0" r="2.76" fill="#bd6b20" opacity="0.29"/><circle cx="819.9" cy="569.1" r="2.80" fill="#bd6b20" opacity="0.35"/><circle cx="858.7" cy="568.7" r="3.50" fill="#bd6b20" opacity="0.16"/><circle cx="891.8" cy="572.0" r="3.88" fill="#bd6b20" opacity="0.36"/><circle cx="930.1" cy="568.9" r="3.12" fill="#bd6b20" opacity="0.31"/><circle cx="964.9" cy="568.2" r="2.49" fill="#bd6b20" opacity="0.36"/><circle cx="999.5" cy="568.2" r="3.17" fill="#bd6b20" opacity="0.17"/><circle cx="1035.8" cy="568.0" r="2.37" fill="#bd6b20" opacity="0.35"/><circle cx="1075.8" cy="569.1" r="2.48" fill="#bd6b20" opacity="0.33"/><circle cx="1111.6" cy="572.3" r="2.97" fill="#bd6b20" opacity="0.31"/><circle cx="1149.0" cy="571.2" r="3.63" fill="#bd6b20" opacity="0.25"/><circle cx="1181.5" cy="569.6" r="3.86" fill="#bd6b20" opacity="0.19"/><circle cx="31.6" cy="603.0" r="3.78" fill="#bd6b20" opacity="0.31"/><circle cx="64.1" cy="604.5" r="2.05" fill="#bd6b20" opacity="0.32"/><circle cx="99.5" cy="604.4" r="2.67" fill="#bd6b20" opacity="0.36"/><circle cx="139.3" cy="607.5" r="2.46" fill="#bd6b20" opacity="0.33"/><circle cx="176.3" cy="603.6" r="3.77" fill="#bd6b20" opacity="0.23"/><circle cx="212.2" cy="604.2" r="2.54" fill="#bd6b20" opacity="0.28"/><circle cx="244.1" cy="606.3" r="2.74" fill="#bd6b20" opacity="0.20"/><circle cx="282.7" cy="603.6" r="2.63" fill="#bd6b20" opacity="0.35"/><circle cx="319.0" cy="604.1" r="2.95" fill="#bd6b20" opacity="0.30"/><circle cx="351.1" cy="604.7" r="2.51" fill="#bd6b20" opacity="0.24"/><circle cx="389.4" cy="606.6" r="3.51" fill="#bd6b20" opacity="0.28"/><circle cx="423.3" cy="605.1" r="3.34" fill="#bd6b20" opacity="0.24"/><circle cx="464.0" cy="605.9" r="3.87" fill="#bd6b20" opacity="0.17"/><circle cx="498.5" cy="607.9" r="1.77" fill="#bd6b20" opacity="0.25"/><circle cx="535.4" cy="608.7" r="3.82" fill="#bd6b20" opacity="0.22"/><circle cx="569.1" cy="606.6" r="2.97" fill="#bd6b20" opacity="0.34"/><circle cx="606.1" cy="604.4" r="2.31" fill="#bd6b20" opacity="0.36"/><circle cx="639.8" cy="607.8" r="2.11" fill="#bd6b20" opacity="0.23"/><circle cx="676.2" cy="604.2" r="3.22" fill="#bd6b20" opacity="0.35"/><circle cx="714.9" cy="605.7" r="2.70" fill="#bd6b20" opacity="0.17"/><circle cx="747.3" cy="603.8" r="1.91" fill="#bd6b20" opacity="0.25"/><circle cx="785.5" cy="603.7" r="2.87" fill="#bd6b20" opacity="0.33"/><circle cx="823.8" cy="606.6" r="3.57" fill="#bd6b20" opacity="0.24"/><circle cx="857.6" cy="603.8" r="3.20" fill="#bd6b20" opacity="0.21"/><circle cx="896.4" cy="606.7" r="3.57" fill="#bd6b20" opacity="0.16"/><circle cx="931.3" cy="606.9" r="2.26" fill="#bd6b20" opacity="0.35"/><circle cx="968.8" cy="606.8" r="2.01" fill="#bd6b20" opacity="0.17"/><circle cx="1004.2" cy="608.4" r="3.31" fill="#bd6b20" opacity="0.19"/><circle cx="1041.0" cy="607.4" r="3.10" fill="#bd6b20" opacity="0.33"/><circle cx="1075.0" cy="604.1" r="1.61" fill="#bd6b20" opacity="0.34"/><circle cx="1111.6" cy="604.7" r="3.97" fill="#bd6b20" opacity="0.36"/><circle cx="1144.4" cy="607.5" r="3.92" fill="#bd6b20" opacity="0.36"/><circle cx="1179.4" cy="608.6" r="2.75" fill="#bd6b20" opacity="0.18"/><circle cx="27.7" cy="639.4" r="3.51" fill="#bd6b20" opacity="0.20"/><circle cx="63.5" cy="640.2" r="2.03" fill="#bd6b20" opacity="0.20"/><circle cx="103.1" cy="641.6" r="3.06" fill="#bd6b20" opacity="0.21"/><circle cx="137.8" cy="639.0" r="3.55" fill="#bd6b20" opacity="0.30"/><circle cx="174.2" cy="640.5" r="2.24" fill="#bd6b20" opacity="0.22"/><circle cx="207.1" cy="642.6" r="2.29" fill="#bd6b20" opacity="0.17"/><circle cx="247.5" cy="644.7" r="3.19" fill="#bd6b20" opacity="0.33"/><circle cx="282.8" cy="645.0" r="2.11" fill="#bd6b20" opacity="0.36"/><circle cx="319.9" cy="641.5" r="2.16" fill="#bd6b20" opacity="0.35"/><circle cx="352.3" cy="642.7" r="3.73" fill="#bd6b20" opacity="0.28"/><circle cx="387.1" cy="640.0" r="3.03" fill="#bd6b20" opacity="0.20"/><circle cx="427.6" cy="640.6" r="3.98" fill="#bd6b20" opacity="0.15"/><circle cx="462.9" cy="639.5" r="1.98" fill="#bd6b20" opacity="0.22"/><circle cx="495.2" cy="640.9" r="3.36" fill="#bd6b20" opacity="0.16"/><circle cx="533.9" cy="640.7" r="1.93" fill="#bd6b20" opacity="0.32"/><circle cx="568.9" cy="639.5" r="1.60" fill="#bd6b20" opacity="0.23"/><circle cx="604.8" cy="642.6" r="2.89" fill="#bd6b20" opacity="0.21"/><circle cx="641.0" cy="643.2" r="2.50" fill="#bd6b20" opacity="0.21"/><circle cx="676.6" cy="639.5" r="3.70" fill="#bd6b20" opacity="0.19"/><circle cx="712.4" cy="639.5" r="3.49" fill="#bd6b20" opacity="0.18"/><circle cx="751.2" cy="643.6" r="3.32" fill="#bd6b20" opacity="0.23"/><circle cx="788.3" cy="642.5" r="3.82" fill="#bd6b20" opacity="0.26"/><circle cx="821.7" cy="641.1" r="3.73" fill="#bd6b20" opacity="0.35"/><circle cx="859.5" cy="640.5" r="2.84" fill="#bd6b20" opacity="0.30"/><circle cx="894.8" cy="639.1" r="2.67" fill="#bd6b20" opacity="0.19"/><circle cx="930.2" cy="641.1" r="3.13" fill="#bd6b20" opacity="0.19"/><circle cx="963.8" cy="644.2" r="2.99" fill="#bd6b20" opacity="0.24"/><circle cx="1003.8" cy="641.8" r="3.79" fill="#bd6b20" opacity="0.23"/><circle cx="1040.4" cy="642.2" r="3.41" fill="#bd6b20" opacity="0.30"/><circle cx="1075.7" cy="639.3" r="3.62" fill="#bd6b20" opacity="0.34"/><circle cx="1112.7" cy="641.5" r="1.76" fill="#bd6b20" opacity="0.33"/><circle cx="1147.0" cy="639.8" r="2.78" fill="#bd6b20" opacity="0.32"/><circle cx="1182.4" cy="643.2" r="1.84" fill="#bd6b20" opacity="0.19"/><circle cx="232.7" cy="242.7" r="220" fill="url(#glow)" opacity="0.9"/>
  <g opacity="0.85" transform="translate(1020, 495)">
        <rect x="-46" y="-60" width="92" height="115" fill="#bd6b20" opacity="0.18" rx="6"/>
        <path d="M -28 -36 L 28 -36 M -28 -12 L 28 -12 M -28 12 L 18 12 M -28 36 L 28 36" stroke="#9a5518" stroke-width="3" stroke-linecap="round"/>
      </g>
  <g transform="translate(80, 90)">
    <rect x="0" y="0" rx="20" ry="20" width="101" height="38" fill="#bd6b20" opacity="0.18" stroke="#bd6b20" stroke-width="1.5"/>
    <text x="50.5" y="25" font-family="ui-sans-serif, Inter, sans-serif" font-weight="700" font-size="14" letter-spacing="2.5" fill="#bd6b20" text-anchor="middle">ARTICLE</text>
  </g>
  <text x="80" y="465" font-family="ui-sans-serif, -apple-system, Segoe UI, Inter, sans-serif" font-weight="800" font-size="44" fill="#12100e" opacity="0.98"><tspan x="80" dy="0">Why Did Omidyar Network</tspan><tspan x="80" dy="56">Choose to Exit the Indian</tspan><tspan x="80" dy="56">Market?</tspan></text>
  <rect x="0" y="669" width="1200" height="6" fill="url(#gold)"/>
</svg>