<?xml version="1.0" encoding="UTF-8"?>
<svg xmlns="http://www.w3.org/2000/svg" viewBox="0 0 1200 675" width="1200" height="675" role="img" aria-label="One-Time Closure of a Technology Equipment Loan Default">
  <defs>
    <linearGradient id="bg" x1="0%" y1="0%" x2="100%" y2="100%">
      <stop offset="0%" stop-color="#12100e"/>
      <stop offset="100%" stop-color="#1c1917"/>
    </linearGradient>
    <linearGradient id="gold" x1="0%" y1="0%" x2="100%" y2="100%">
      <stop offset="0%" stop-color="#bd6b20"/>
      <stop offset="100%" stop-color="#e09440"/>
    </linearGradient>
    <radialGradient id="glow" cx="50%" cy="50%" r="50%">
      <stop offset="0%" stop-color="#bd6b20" stop-opacity="0.45"/>
      <stop offset="100%" stop-color="#bd6b20" stop-opacity="0"/>
    </radialGradient>
  </defs>
  <rect width="1200" height="675" fill="url(#bg)"/>
  <circle cx="28.6" cy="29.6" r="3.66" fill="#bd6b20" opacity="0.23"/><circle cx="67.3" cy="29.2" r="3.99" fill="#bd6b20" opacity="0.33"/><circle cx="101.5" cy="31.4" r="2.19" fill="#bd6b20" opacity="0.21"/><circle cx="140.7" cy="28.5" r="3.45" fill="#bd6b20" opacity="0.18"/><circle cx="174.6" cy="29.9" r="3.54" fill="#bd6b20" opacity="0.30"/><circle cx="209.5" cy="30.0" r="2.59" fill="#bd6b20" opacity="0.26"/><circle cx="246.9" cy="29.1" r="2.39" fill="#bd6b20" opacity="0.21"/><circle cx="279.3" cy="31.4" r="2.70" fill="#bd6b20" opacity="0.29"/><circle cx="320.1" cy="32.9" r="3.79" fill="#bd6b20" opacity="0.18"/><circle cx="356.3" cy="30.6" r="2.93" fill="#bd6b20" opacity="0.17"/><circle cx="387.2" cy="27.2" r="1.77" fill="#bd6b20" opacity="0.30"/><circle cx="426.2" cy="29.5" r="2.98" fill="#bd6b20" opacity="0.21"/><circle cx="462.0" cy="29.7" r="3.13" fill="#bd6b20" opacity="0.18"/><circle cx="500.4" cy="28.3" r="3.74" fill="#bd6b20" opacity="0.30"/><circle cx="536.9" cy="31.3" r="3.99" fill="#bd6b20" opacity="0.32"/><circle cx="570.8" cy="27.1" r="2.66" fill="#bd6b20" opacity="0.21"/><circle cx="603.5" cy="27.9" r="2.45" fill="#bd6b20" opacity="0.29"/><circle cx="639.7" cy="31.6" r="2.28" fill="#bd6b20" opacity="0.32"/><circle cx="675.3" cy="27.7" r="3.89" fill="#bd6b20" opacity="0.22"/><circle cx="712.5" cy="30.1" r="1.73" fill="#bd6b20" opacity="0.16"/><circle cx="751.4" cy="27.6" r="3.50" fill="#bd6b20" opacity="0.27"/><circle cx="788.9" cy="31.9" r="2.10" fill="#bd6b20" opacity="0.27"/><circle cx="822.5" cy="30.2" r="3.26" fill="#bd6b20" opacity="0.25"/><circle cx="859.9" cy="32.4" r="3.05" fill="#bd6b20" opacity="0.20"/><circle cx="893.6" cy="31.6" r="2.09" fill="#bd6b20" opacity="0.21"/><circle cx="928.0" cy="28.0" r="3.48" fill="#bd6b20" opacity="0.32"/><circle cx="966.7" cy="28.7" r="3.42" fill="#bd6b20" opacity="0.28"/><circle cx="1000.4" cy="30.7" r="2.04" fill="#bd6b20" opacity="0.32"/><circle cx="1036.3" cy="29.3" r="3.53" fill="#bd6b20" opacity="0.20"/><circle cx="1071.4" cy="31.3" r="2.24" fill="#bd6b20" opacity="0.24"/><circle cx="1111.6" cy="29.2" r="3.65" fill="#bd6b20" opacity="0.35"/><circle cx="1147.9" cy="32.5" r="3.95" fill="#bd6b20" opacity="0.33"/><circle cx="1181.6" cy="29.9" r="2.01" fill="#bd6b20" opacity="0.31"/><circle cx="30.4" cy="66.2" r="3.73" fill="#bd6b20" opacity="0.35"/><circle cx="63.2" cy="66.9" r="1.68" fill="#bd6b20" opacity="0.30"/><circle cx="100.5" cy="67.9" r="3.02" fill="#bd6b20" opacity="0.22"/><circle cx="138.1" cy="63.6" r="3.98" fill="#bd6b20" opacity="0.16"/><circle cx="174.9" cy="67.8" r="1.64" fill="#bd6b20" opacity="0.16"/><circle cx="208.2" cy="66.0" r="1.79" fill="#bd6b20" opacity="0.21"/><circle cx="243.8" cy="68.3" r="3.46" fill="#bd6b20" opacity="0.25"/><circle cx="281.8" cy="68.6" r="3.07" fill="#bd6b20" opacity="0.22"/><circle cx="319.9" cy="67.9" r="3.42" fill="#bd6b20" opacity="0.26"/><circle cx="355.0" cy="68.6" r="2.43" fill="#bd6b20" opacity="0.28"/><circle cx="388.2" cy="64.6" r="2.02" fill="#bd6b20" opacity="0.15"/><circle cx="425.5" cy="65.0" r="1.91" fill="#bd6b20" opacity="0.34"/><circle cx="461.5" cy="67.4" r="3.77" fill="#bd6b20" opacity="0.17"/><circle cx="496.3" cy="67.2" r="3.53" fill="#bd6b20" opacity="0.16"/><circle cx="535.2" cy="64.1" r="3.99" fill="#bd6b20" opacity="0.29"/><circle cx="571.0" cy="63.9" r="3.08" fill="#bd6b20" opacity="0.28"/><circle cx="605.3" cy="68.1" r="3.03" fill="#bd6b20" opacity="0.35"/><circle cx="644.0" cy="67.8" r="3.36" fill="#bd6b20" opacity="0.23"/><circle cx="680.2" cy="68.7" r="2.44" fill="#bd6b20" opacity="0.16"/><circle cx="714.1" cy="68.8" r="3.99" fill="#bd6b20" opacity="0.28"/><circle cx="750.3" cy="67.1" r="2.81" fill="#bd6b20" opacity="0.20"/><circle cx="783.7" cy="69.0" r="3.38" fill="#bd6b20" opacity="0.30"/><circle cx="823.1" cy="64.7" r="2.58" fill="#bd6b20" opacity="0.31"/><circle cx="855.2" cy="68.6" r="2.59" fill="#bd6b20" opacity="0.16"/><circle cx="895.7" cy="65.1" r="2.48" fill="#bd6b20" opacity="0.33"/><circle cx="932.2" cy="65.2" r="3.45" fill="#bd6b20" opacity="0.22"/><circle cx="965.8" cy="68.6" r="1.74" fill="#bd6b20" opacity="0.24"/><circle cx="1000.1" cy="63.1" r="2.93" fill="#bd6b20" opacity="0.29"/><circle cx="1038.9" cy="66.0" r="2.88" fill="#bd6b20" opacity="0.36"/><circle cx="1076.5" cy="63.5" r="3.38" fill="#bd6b20" opacity="0.21"/><circle cx="1108.6" cy="66.4" r="2.97" fill="#bd6b20" opacity="0.16"/><circle cx="1143.9" cy="65.2" r="2.26" fill="#bd6b20" opacity="0.35"/><circle cx="1182.2" cy="66.4" r="3.87" fill="#bd6b20" opacity="0.34"/><circle cx="29.5" cy="104.7" r="1.90" fill="#bd6b20" opacity="0.23"/><circle cx="67.2" cy="103.5" r="3.52" fill="#bd6b20" opacity="0.24"/><circle cx="100.0" cy="104.7" r="3.08" fill="#bd6b20" opacity="0.24"/><circle cx="135.6" cy="99.7" r="3.02" fill="#bd6b20" opacity="0.21"/><circle cx="174.9" cy="104.2" r="2.44" fill="#bd6b20" opacity="0.18"/><circle cx="209.5" cy="100.0" r="1.99" fill="#bd6b20" opacity="0.26"/><circle cx="247.1" cy="104.7" r="2.42" fill="#bd6b20" opacity="0.18"/><circle cx="281.9" cy="101.2" r="2.02" fill="#bd6b20" opacity="0.21"/><circle cx="319.3" cy="102.7" r="2.55" fill="#bd6b20" opacity="0.35"/><circle cx="352.1" cy="99.4" r="1.73" fill="#bd6b20" opacity="0.16"/><circle cx="389.8" cy="101.8" r="2.06" fill="#bd6b20" opacity="0.24"/><circle cx="426.0" cy="99.5" r="3.13" fill="#bd6b20" opacity="0.21"/><circle cx="464.2" cy="104.8" r="2.89" fill="#bd6b20" opacity="0.18"/><circle cx="500.6" cy="102.0" r="2.81" fill="#bd6b20" opacity="0.30"/><circle cx="536.3" cy="101.8" r="3.94" fill="#bd6b20" opacity="0.31"/><circle cx="570.3" cy="99.5" r="1.80" fill="#bd6b20" opacity="0.33"/><circle cx="608.6" cy="100.3" r="3.96" fill="#bd6b20" opacity="0.23"/><circle cx="640.6" cy="100.7" r="3.25" fill="#bd6b20" opacity="0.23"/><circle cx="675.3" cy="104.0" r="3.21" fill="#bd6b20" opacity="0.33"/><circle cx="714.9" cy="99.8" r="3.85" fill="#bd6b20" opacity="0.25"/><circle cx="747.7" cy="104.9" r="2.14" fill="#bd6b20" opacity="0.26"/><circle cx="789.0" cy="99.2" r="2.79" fill="#bd6b20" opacity="0.33"/><circle cx="821.3" cy="104.3" r="2.15" fill="#bd6b20" opacity="0.16"/><circle cx="860.6" cy="101.5" r="2.94" fill="#bd6b20" opacity="0.24"/><circle cx="895.0" cy="99.7" r="2.96" fill="#bd6b20" opacity="0.17"/><circle cx="927.3" cy="99.5" r="3.03" fill="#bd6b20" opacity="0.29"/><circle cx="968.6" cy="104.1" r="2.73" fill="#bd6b20" opacity="0.22"/><circle cx="1002.7" cy="100.2" r="2.03" fill="#bd6b20" opacity="0.23"/><circle cx="1040.0" cy="102.5" r="2.10" fill="#bd6b20" opacity="0.30"/><circle cx="1076.7" cy="100.6" r="3.70" fill="#bd6b20" opacity="0.23"/><circle cx="1112.9" cy="102.7" r="3.44" fill="#bd6b20" opacity="0.19"/><circle cx="1148.4" cy="104.9" r="3.36" fill="#bd6b20" opacity="0.34"/><circle cx="1179.3" cy="101.3" r="2.90" fill="#bd6b20" opacity="0.18"/><circle cx="30.9" cy="139.8" r="3.79" fill="#bd6b20" opacity="0.19"/><circle cx="68.1" cy="138.2" r="1.77" fill="#bd6b20" opacity="0.22"/><circle cx="104.4" cy="139.5" r="2.28" fill="#bd6b20" opacity="0.35"/><circle cx="139.7" cy="138.8" r="2.44" fill="#bd6b20" opacity="0.31"/><circle cx="172.0" cy="138.5" r="2.09" fill="#bd6b20" opacity="0.21"/><circle cx="212.2" cy="135.3" r="1.70" fill="#bd6b20" opacity="0.35"/><circle cx="244.2" cy="140.1" r="3.39" fill="#bd6b20" opacity="0.26"/><circle cx="281.0" cy="136.0" r="3.62" fill="#bd6b20" opacity="0.30"/><circle cx="317.3" cy="135.9" r="2.52" fill="#bd6b20" opacity="0.35"/><circle cx="351.4" cy="140.9" r="2.44" fill="#bd6b20" opacity="0.33"/><circle cx="390.3" cy="137.7" r="3.42" fill="#bd6b20" opacity="0.29"/><circle cx="424.6" cy="136.7" r="2.35" fill="#bd6b20" opacity="0.30"/><circle cx="460.4" cy="136.7" r="3.55" fill="#bd6b20" opacity="0.25"/><circle cx="500.0" cy="137.1" r="3.95" fill="#bd6b20" opacity="0.23"/><circle cx="534.5" cy="135.2" r="1.93" fill="#bd6b20" opacity="0.17"/><circle cx="571.0" cy="137.2" r="3.56" fill="#bd6b20" opacity="0.28"/><circle cx="603.8" cy="140.1" r="3.26" fill="#bd6b20" opacity="0.16"/><circle cx="643.9" cy="139.6" r="1.94" fill="#bd6b20" opacity="0.34"/><circle cx="675.1" cy="141.0" r="3.70" fill="#bd6b20" opacity="0.27"/><circle cx="714.5" cy="140.3" r="3.59" fill="#bd6b20" opacity="0.23"/><circle cx="748.6" cy="139.5" r="2.52" fill="#bd6b20" opacity="0.19"/><circle cx="785.7" cy="138.7" r="2.53" fill="#bd6b20" opacity="0.34"/><circle cx="820.2" cy="136.4" r="3.98" fill="#bd6b20" opacity="0.25"/><circle cx="859.5" cy="139.9" r="2.46" fill="#bd6b20" opacity="0.30"/><circle cx="894.8" cy="136.1" r="3.76" fill="#bd6b20" opacity="0.20"/><circle cx="928.6" cy="138.4" r="2.38" fill="#bd6b20" opacity="0.28"/><circle cx="964.9" cy="140.3" r="1.68" fill="#bd6b20" opacity="0.28"/><circle cx="999.9" cy="141.0" r="2.12" fill="#bd6b20" opacity="0.18"/><circle cx="1040.4" cy="138.1" r="3.96" fill="#bd6b20" opacity="0.29"/><circle cx="1072.0" cy="138.0" r="2.80" fill="#bd6b20" opacity="0.18"/><circle cx="1108.3" cy="137.4" r="1.82" fill="#bd6b20" opacity="0.33"/><circle cx="1143.2" cy="136.6" r="3.19" fill="#bd6b20" opacity="0.30"/><circle cx="1180.1" cy="138.5" r="1.83" fill="#bd6b20" opacity="0.36"/><circle cx="28.0" cy="173.4" r="2.19" fill="#bd6b20" opacity="0.36"/><circle cx="68.6" cy="171.2" r="3.25" fill="#bd6b20" opacity="0.24"/><circle cx="103.0" cy="172.1" r="2.53" fill="#bd6b20" opacity="0.36"/><circle cx="139.8" cy="173.1" r="1.69" fill="#bd6b20" opacity="0.30"/><circle cx="176.0" cy="175.6" r="3.62" fill="#bd6b20" opacity="0.18"/><circle cx="211.1" cy="176.9" r="1.69" fill="#bd6b20" opacity="0.36"/><circle cx="243.1" cy="173.9" r="3.78" fill="#bd6b20" opacity="0.24"/><circle cx="279.9" cy="172.6" r="2.07" fill="#bd6b20" opacity="0.18"/><circle cx="320.0" cy="176.2" r="2.53" fill="#bd6b20" opacity="0.17"/><circle cx="355.1" cy="172.1" r="1.84" fill="#bd6b20" opacity="0.34"/><circle cx="392.2" cy="173.2" r="3.15" fill="#bd6b20" opacity="0.22"/><circle cx="427.0" cy="171.6" r="2.56" fill="#bd6b20" opacity="0.35"/><circle cx="459.4" cy="171.2" r="2.06" fill="#bd6b20" opacity="0.35"/><circle cx="497.8" cy="172.7" r="2.84" fill="#bd6b20" opacity="0.35"/><circle cx="534.9" cy="174.9" r="1.73" fill="#bd6b20" opacity="0.32"/><circle cx="572.1" cy="171.7" r="1.62" fill="#bd6b20" opacity="0.34"/><circle cx="604.6" cy="174.4" r="2.26" fill="#bd6b20" opacity="0.31"/><circle cx="643.6" cy="176.0" r="1.90" fill="#bd6b20" opacity="0.29"/><circle cx="676.9" cy="176.5" r="2.54" fill="#bd6b20" opacity="0.24"/><circle cx="711.2" cy="176.2" r="3.01" fill="#bd6b20" opacity="0.30"/><circle cx="748.7" cy="174.0" r="2.07" fill="#bd6b20" opacity="0.30"/><circle cx="788.1" cy="177.0" r="3.57" fill="#bd6b20" opacity="0.31"/><circle cx="824.5" cy="172.7" r="2.31" fill="#bd6b20" opacity="0.32"/><circle cx="860.0" cy="173.0" r="2.14" fill="#bd6b20" opacity="0.33"/><circle cx="895.2" cy="171.7" r="2.34" fill="#bd6b20" opacity="0.27"/><circle cx="932.3" cy="176.1" r="1.63" fill="#bd6b20" opacity="0.35"/><circle cx="967.8" cy="173.1" r="1.82" fill="#bd6b20" opacity="0.34"/><circle cx="1000.1" cy="177.0" r="3.91" fill="#bd6b20" opacity="0.31"/><circle cx="1039.0" cy="173.7" r="2.50" fill="#bd6b20" opacity="0.24"/><circle cx="1071.7" cy="172.6" r="3.27" fill="#bd6b20" opacity="0.36"/><circle cx="1107.2" cy="175.5" r="2.00" fill="#bd6b20" opacity="0.28"/><circle cx="1144.9" cy="173.5" r="2.96" fill="#bd6b20" opacity="0.19"/><circle cx="1180.8" cy="171.5" r="3.98" fill="#bd6b20" opacity="0.18"/><circle cx="30.2" cy="209.8" r="2.52" fill="#bd6b20" opacity="0.32"/><circle cx="65.9" cy="212.7" r="2.64" fill="#bd6b20" opacity="0.33"/><circle cx="101.2" cy="209.2" r="2.12" fill="#bd6b20" opacity="0.30"/><circle cx="138.8" cy="208.6" r="1.83" fill="#bd6b20" opacity="0.21"/><circle cx="176.8" cy="209.4" r="1.91" fill="#bd6b20" opacity="0.27"/><circle cx="210.9" cy="212.8" r="1.73" fill="#bd6b20" opacity="0.24"/><circle cx="244.5" cy="210.5" r="3.41" fill="#bd6b20" opacity="0.27"/><circle cx="279.1" cy="210.8" r="2.74" fill="#bd6b20" opacity="0.22"/><circle cx="316.1" cy="208.8" r="3.23" fill="#bd6b20" opacity="0.24"/><circle cx="353.9" cy="212.4" r="3.12" fill="#bd6b20" opacity="0.18"/><circle cx="389.3" cy="211.9" r="3.84" fill="#bd6b20" opacity="0.30"/><circle cx="425.9" cy="209.3" r="2.26" fill="#bd6b20" opacity="0.16"/><circle cx="460.2" cy="210.0" r="2.49" fill="#bd6b20" opacity="0.17"/><circle cx="500.4" cy="209.4" r="1.97" fill="#bd6b20" opacity="0.34"/><circle cx="531.6" cy="211.7" r="2.86" fill="#bd6b20" opacity="0.22"/><circle cx="568.1" cy="208.7" r="2.19" fill="#bd6b20" opacity="0.30"/><circle cx="604.7" cy="207.6" r="3.01" fill="#bd6b20" opacity="0.17"/><circle cx="642.5" cy="208.7" r="2.21" fill="#bd6b20" opacity="0.22"/><circle cx="677.9" cy="212.7" r="2.15" fill="#bd6b20" opacity="0.17"/><circle cx="713.7" cy="210.2" r="2.94" fill="#bd6b20" opacity="0.21"/><circle cx="747.5" cy="208.0" r="3.27" fill="#bd6b20" opacity="0.18"/><circle cx="785.9" cy="210.2" r="3.56" fill="#bd6b20" opacity="0.36"/><circle cx="824.9" cy="207.4" r="2.69" fill="#bd6b20" opacity="0.33"/><circle cx="860.0" cy="209.5" r="3.42" fill="#bd6b20" opacity="0.27"/><circle cx="893.9" cy="210.1" r="2.78" fill="#bd6b20" opacity="0.21"/><circle cx="928.4" cy="209.2" r="3.02" fill="#bd6b20" opacity="0.22"/><circle cx="963.1" cy="209.0" r="3.19" fill="#bd6b20" opacity="0.17"/><circle cx="1003.9" cy="211.4" r="3.40" fill="#bd6b20" opacity="0.32"/><circle cx="1038.5" cy="209.5" r="3.79" fill="#bd6b20" opacity="0.15"/><circle cx="1076.7" cy="208.4" r="3.75" fill="#bd6b20" opacity="0.34"/><circle cx="1108.6" cy="208.0" r="1.77" fill="#bd6b20" opacity="0.18"/><circle cx="1146.8" cy="209.4" r="3.57" fill="#bd6b20" opacity="0.25"/><circle cx="1184.4" cy="209.2" r="2.87" fill="#bd6b20" opacity="0.30"/><circle cx="29.6" cy="248.3" r="2.94" fill="#bd6b20" opacity="0.32"/><circle cx="68.6" cy="245.2" r="3.35" fill="#bd6b20" opacity="0.30"/><circle cx="103.9" cy="247.0" r="2.72" fill="#bd6b20" opacity="0.28"/><circle cx="139.9" cy="246.7" r="3.76" fill="#bd6b20" opacity="0.36"/><circle cx="175.0" cy="245.2" r="3.59" fill="#bd6b20" opacity="0.15"/><circle cx="209.0" cy="243.2" r="2.61" fill="#bd6b20" opacity="0.30"/><circle cx="245.6" cy="244.4" r="2.50" fill="#bd6b20" opacity="0.24"/><circle cx="281.8" cy="247.1" r="2.31" fill="#bd6b20" opacity="0.29"/><circle cx="320.1" cy="245.1" r="2.50" fill="#bd6b20" opacity="0.25"/><circle cx="355.4" cy="248.1" r="2.65" fill="#bd6b20" opacity="0.20"/><circle cx="390.8" cy="245.7" r="3.01" fill="#bd6b20" opacity="0.17"/><circle cx="425.4" cy="245.0" r="2.39" fill="#bd6b20" opacity="0.20"/><circle cx="462.2" cy="245.5" r="3.91" fill="#bd6b20" opacity="0.35"/><circle cx="500.4" cy="244.9" r="1.95" fill="#bd6b20" opacity="0.30"/><circle cx="532.5" cy="246.4" r="2.31" fill="#bd6b20" opacity="0.33"/><circle cx="571.4" cy="246.8" r="2.79" fill="#bd6b20" opacity="0.16"/><circle cx="603.9" cy="243.3" r="2.33" fill="#bd6b20" opacity="0.23"/><circle cx="639.5" cy="247.1" r="3.61" fill="#bd6b20" opacity="0.21"/><circle cx="678.6" cy="248.1" r="2.36" fill="#bd6b20" opacity="0.18"/><circle cx="715.7" cy="244.8" r="2.79" fill="#bd6b20" opacity="0.32"/><circle cx="748.5" cy="249.0" r="3.91" fill="#bd6b20" opacity="0.27"/><circle cx="786.6" cy="248.0" r="3.64" fill="#bd6b20" opacity="0.25"/><circle cx="819.4" cy="245.3" r="2.10" fill="#bd6b20" opacity="0.23"/><circle cx="858.2" cy="247.1" r="2.34" fill="#bd6b20" opacity="0.33"/><circle cx="893.4" cy="243.6" r="2.14" fill="#bd6b20" opacity="0.34"/><circle cx="928.8" cy="247.0" r="2.26" fill="#bd6b20" opacity="0.31"/><circle cx="963.0" cy="243.5" r="2.49" fill="#bd6b20" opacity="0.34"/><circle cx="1002.9" cy="245.4" r="3.23" fill="#bd6b20" opacity="0.29"/><circle cx="1039.6" cy="246.0" r="2.39" fill="#bd6b20" opacity="0.15"/><circle cx="1071.3" cy="243.5" r="1.61" fill="#bd6b20" opacity="0.33"/><circle cx="1111.9" cy="248.6" r="2.36" fill="#bd6b20" opacity="0.35"/><circle cx="1147.0" cy="244.6" r="2.12" fill="#bd6b20" opacity="0.16"/><circle cx="1180.7" cy="246.9" r="2.48" fill="#bd6b20" opacity="0.36"/><circle cx="29.4" cy="282.2" r="2.74" fill="#bd6b20" opacity="0.18"/><circle cx="66.1" cy="280.2" r="2.41" fill="#bd6b20" opacity="0.35"/><circle cx="104.9" cy="283.9" r="2.04" fill="#bd6b20" opacity="0.23"/><circle cx="135.3" cy="282.2" r="3.37" fill="#bd6b20" opacity="0.27"/><circle cx="171.0" cy="280.2" r="3.96" fill="#bd6b20" opacity="0.33"/><circle cx="211.0" cy="281.5" r="3.14" fill="#bd6b20" opacity="0.32"/><circle cx="246.7" cy="283.5" r="2.63" fill="#bd6b20" opacity="0.27"/><circle cx="283.1" cy="281.6" r="3.16" fill="#bd6b20" opacity="0.29"/><circle cx="315.8" cy="279.8" r="2.01" fill="#bd6b20" opacity="0.23"/><circle cx="352.6" cy="283.9" r="2.72" fill="#bd6b20" opacity="0.22"/><circle cx="392.3" cy="283.0" r="1.95" fill="#bd6b20" opacity="0.34"/><circle cx="424.5" cy="283.2" r="2.30" fill="#bd6b20" opacity="0.30"/><circle cx="459.5" cy="284.2" r="2.19" fill="#bd6b20" opacity="0.33"/><circle cx="497.4" cy="283.7" r="2.58" fill="#bd6b20" opacity="0.27"/><circle cx="532.4" cy="281.2" r="1.79" fill="#bd6b20" opacity="0.34"/><circle cx="572.8" cy="283.6" r="2.77" fill="#bd6b20" opacity="0.34"/><circle cx="607.4" cy="279.7" r="2.99" fill="#bd6b20" opacity="0.26"/><circle cx="639.6" cy="284.4" r="3.91" fill="#bd6b20" opacity="0.30"/><circle cx="676.9" cy="283.7" r="3.71" fill="#bd6b20" opacity="0.26"/><circle cx="711.5" cy="279.6" r="2.92" fill="#bd6b20" opacity="0.20"/><circle cx="748.1" cy="279.4" r="2.44" fill="#bd6b20" opacity="0.20"/><circle cx="787.0" cy="279.2" r="3.64" fill="#bd6b20" opacity="0.16"/><circle cx="819.1" cy="284.5" r="3.29" fill="#bd6b20" opacity="0.33"/><circle cx="860.8" cy="279.5" r="3.43" fill="#bd6b20" opacity="0.31"/><circle cx="891.4" cy="282.0" r="3.67" fill="#bd6b20" opacity="0.31"/><circle cx="932.7" cy="281.7" r="2.98" fill="#bd6b20" opacity="0.27"/><circle cx="966.6" cy="280.4" r="2.21" fill="#bd6b20" opacity="0.34"/><circle cx="1001.1" cy="283.3" r="3.91" fill="#bd6b20" opacity="0.25"/><circle cx="1038.5" cy="279.7" r="3.39" fill="#bd6b20" opacity="0.36"/><circle cx="1072.4" cy="280.4" r="2.04" fill="#bd6b20" opacity="0.25"/><circle cx="1112.2" cy="280.9" r="2.66" fill="#bd6b20" opacity="0.17"/><circle cx="1148.3" cy="282.4" r="2.31" fill="#bd6b20" opacity="0.33"/><circle cx="1182.5" cy="281.8" r="3.79" fill="#bd6b20" opacity="0.27"/><circle cx="27.6" cy="317.7" r="1.72" fill="#bd6b20" opacity="0.32"/><circle cx="65.3" cy="316.7" r="2.28" fill="#bd6b20" opacity="0.21"/><circle cx="100.8" cy="315.8" r="3.22" fill="#bd6b20" opacity="0.34"/><circle cx="140.2" cy="320.1" r="1.77" fill="#bd6b20" opacity="0.27"/><circle cx="174.1" cy="317.1" r="3.43" fill="#bd6b20" opacity="0.21"/><circle cx="211.8" cy="320.5" r="1.90" fill="#bd6b20" opacity="0.30"/><circle cx="245.9" cy="319.6" r="3.98" fill="#bd6b20" opacity="0.16"/><circle cx="282.1" cy="320.3" r="3.87" fill="#bd6b20" opacity="0.22"/><circle cx="319.8" cy="316.2" r="3.34" fill="#bd6b20" opacity="0.23"/><circle cx="352.6" cy="319.1" r="2.38" fill="#bd6b20" opacity="0.29"/><circle cx="389.3" cy="316.3" r="3.04" fill="#bd6b20" opacity="0.28"/><circle cx="424.1" cy="318.6" r="2.69" fill="#bd6b20" opacity="0.23"/><circle cx="461.0" cy="318.1" r="2.46" fill="#bd6b20" opacity="0.20"/><circle cx="499.3" cy="320.6" r="3.43" fill="#bd6b20" opacity="0.20"/><circle cx="535.5" cy="316.4" r="3.90" fill="#bd6b20" opacity="0.36"/><circle cx="570.3" cy="318.3" r="2.21" fill="#bd6b20" opacity="0.23"/><circle cx="608.8" cy="318.2" r="3.26" fill="#bd6b20" opacity="0.17"/><circle cx="642.6" cy="318.1" r="1.98" fill="#bd6b20" opacity="0.22"/><circle cx="678.3" cy="315.5" r="2.38" fill="#bd6b20" opacity="0.30"/><circle cx="714.1" cy="315.6" r="1.76" fill="#bd6b20" opacity="0.18"/><circle cx="750.6" cy="317.3" r="2.11" fill="#bd6b20" opacity="0.22"/><circle cx="787.7" cy="319.7" r="3.49" fill="#bd6b20" opacity="0.17"/><circle cx="822.6" cy="319.1" r="1.72" fill="#bd6b20" opacity="0.29"/><circle cx="855.5" cy="320.5" r="3.50" fill="#bd6b20" opacity="0.33"/><circle cx="893.7" cy="319.0" r="3.31" fill="#bd6b20" opacity="0.32"/><circle cx="931.7" cy="315.7" r="3.75" fill="#bd6b20" opacity="0.17"/><circle cx="966.6" cy="315.8" r="2.70" fill="#bd6b20" opacity="0.27"/><circle cx="999.2" cy="320.2" r="3.91" fill="#bd6b20" opacity="0.30"/><circle cx="1035.3" cy="315.5" r="1.67" fill="#bd6b20" opacity="0.25"/><circle cx="1076.9" cy="320.9" r="2.85" fill="#bd6b20" opacity="0.18"/><circle cx="1107.1" cy="317.6" r="3.47" fill="#bd6b20" opacity="0.19"/><circle cx="1143.4" cy="318.9" r="3.31" fill="#bd6b20" opacity="0.19"/><circle cx="1181.8" cy="315.5" r="2.98" fill="#bd6b20" opacity="0.24"/><circle cx="30.4" cy="355.4" r="2.90" fill="#bd6b20" opacity="0.15"/><circle cx="65.8" cy="356.7" r="3.65" fill="#bd6b20" opacity="0.23"/><circle cx="100.2" cy="355.0" r="2.18" fill="#bd6b20" opacity="0.22"/><circle cx="138.3" cy="351.8" r="2.25" fill="#bd6b20" opacity="0.18"/><circle cx="173.6" cy="353.0" r="2.08" fill="#bd6b20" opacity="0.27"/><circle cx="208.9" cy="356.6" r="3.84" fill="#bd6b20" opacity="0.24"/><circle cx="245.2" cy="356.1" r="1.75" fill="#bd6b20" opacity="0.20"/><circle cx="279.7" cy="355.6" r="2.65" fill="#bd6b20" opacity="0.32"/><circle cx="320.7" cy="353.6" r="3.21" fill="#bd6b20" opacity="0.28"/><circle cx="355.3" cy="354.9" r="2.33" fill="#bd6b20" opacity="0.24"/><circle cx="392.1" cy="356.6" r="2.81" fill="#bd6b20" opacity="0.32"/><circle cx="427.5" cy="354.6" r="2.93" fill="#bd6b20" opacity="0.21"/><circle cx="462.1" cy="352.0" r="3.19" fill="#bd6b20" opacity="0.32"/><circle cx="496.9" cy="353.3" r="2.06" fill="#bd6b20" opacity="0.35"/><circle cx="534.1" cy="356.9" r="1.69" fill="#bd6b20" opacity="0.17"/><circle cx="569.9" cy="356.1" r="2.81" fill="#bd6b20" opacity="0.23"/><circle cx="604.0" cy="353.7" r="2.90" fill="#bd6b20" opacity="0.17"/><circle cx="644.0" cy="355.6" r="3.82" fill="#bd6b20" opacity="0.28"/><circle cx="679.9" cy="354.6" r="3.81" fill="#bd6b20" opacity="0.19"/><circle cx="712.5" cy="356.7" r="4.00" fill="#bd6b20" opacity="0.31"/><circle cx="747.3" cy="356.0" r="2.64" fill="#bd6b20" opacity="0.23"/><circle cx="784.3" cy="356.3" r="1.72" fill="#bd6b20" opacity="0.29"/><circle cx="824.7" cy="355.3" r="3.92" fill="#bd6b20" opacity="0.34"/><circle cx="856.5" cy="351.4" r="2.58" fill="#bd6b20" opacity="0.23"/><circle cx="896.9" cy="356.3" r="3.53" fill="#bd6b20" opacity="0.31"/><circle cx="930.2" cy="356.9" r="3.61" fill="#bd6b20" opacity="0.27"/><circle cx="967.3" cy="354.6" r="2.61" fill="#bd6b20" opacity="0.30"/><circle cx="1003.1" cy="356.8" r="3.34" fill="#bd6b20" opacity="0.22"/><circle cx="1036.0" cy="352.3" r="1.85" fill="#bd6b20" opacity="0.29"/><circle cx="1073.2" cy="353.8" r="3.44" fill="#bd6b20" opacity="0.16"/><circle cx="1112.7" cy="354.3" r="2.31" fill="#bd6b20" opacity="0.32"/><circle cx="1145.5" cy="355.3" r="2.55" fill="#bd6b20" opacity="0.21"/><circle cx="1179.1" cy="352.9" r="3.46" fill="#bd6b20" opacity="0.30"/><circle cx="31.5" cy="391.7" r="2.74" fill="#bd6b20" opacity="0.22"/><circle cx="64.4" cy="392.1" r="3.53" fill="#bd6b20" opacity="0.24"/><circle cx="104.8" cy="391.1" r="2.71" fill="#bd6b20" opacity="0.27"/><circle cx="138.5" cy="391.1" r="1.85" fill="#bd6b20" opacity="0.30"/><circle cx="173.2" cy="392.5" r="3.97" fill="#bd6b20" opacity="0.17"/><circle cx="208.1" cy="390.1" r="2.54" fill="#bd6b20" opacity="0.23"/><circle cx="243.8" cy="387.0" r="2.02" fill="#bd6b20" opacity="0.27"/><circle cx="282.5" cy="387.3" r="3.38" fill="#bd6b20" opacity="0.17"/><circle cx="319.2" cy="388.0" r="1.86" fill="#bd6b20" opacity="0.28"/><circle cx="353.0" cy="387.8" r="3.23" fill="#bd6b20" opacity="0.30"/><circle cx="391.9" cy="391.5" r="2.39" fill="#bd6b20" opacity="0.36"/><circle cx="428.9" cy="387.8" r="3.36" fill="#bd6b20" opacity="0.26"/><circle cx="463.9" cy="389.8" r="1.70" fill="#bd6b20" opacity="0.32"/><circle cx="497.7" cy="387.8" r="2.91" fill="#bd6b20" opacity="0.20"/><circle cx="531.8" cy="387.6" r="2.29" fill="#bd6b20" opacity="0.27"/><circle cx="568.5" cy="387.7" r="3.34" fill="#bd6b20" opacity="0.28"/><circle cx="609.0" cy="390.9" r="1.84" fill="#bd6b20" opacity="0.36"/><circle cx="641.1" cy="392.8" r="3.35" fill="#bd6b20" opacity="0.19"/><circle cx="677.7" cy="392.7" r="2.89" fill="#bd6b20" opacity="0.24"/><circle cx="715.3" cy="387.9" r="3.83" fill="#bd6b20" opacity="0.28"/><circle cx="752.7" cy="387.7" r="3.33" fill="#bd6b20" opacity="0.16"/><circle cx="784.7" cy="390.3" r="1.70" fill="#bd6b20" opacity="0.35"/><circle cx="819.0" cy="388.0" r="2.49" fill="#bd6b20" opacity="0.32"/><circle cx="857.3" cy="391.2" r="2.72" fill="#bd6b20" opacity="0.26"/><circle cx="894.1" cy="390.2" r="3.86" fill="#bd6b20" opacity="0.26"/><circle cx="931.8" cy="388.3" r="1.99" fill="#bd6b20" opacity="0.20"/><circle cx="963.2" cy="387.2" r="3.25" fill="#bd6b20" opacity="0.22"/><circle cx="1000.5" cy="388.1" r="2.21" fill="#bd6b20" opacity="0.32"/><circle cx="1039.3" cy="391.3" r="1.94" fill="#bd6b20" opacity="0.26"/><circle cx="1072.4" cy="387.3" r="2.63" fill="#bd6b20" opacity="0.29"/><circle cx="1111.5" cy="392.4" r="2.60" fill="#bd6b20" opacity="0.24"/><circle cx="1146.3" cy="392.0" r="2.06" fill="#bd6b20" opacity="0.33"/><circle cx="1183.4" cy="392.1" r="3.27" fill="#bd6b20" opacity="0.19"/><circle cx="30.6" cy="424.8" r="2.57" fill="#bd6b20" opacity="0.18"/><circle cx="65.5" cy="428.6" r="3.94" fill="#bd6b20" opacity="0.36"/><circle cx="103.5" cy="428.5" r="2.61" fill="#bd6b20" opacity="0.30"/><circle cx="139.1" cy="426.9" r="2.11" fill="#bd6b20" opacity="0.29"/><circle cx="171.4" cy="427.0" r="2.78" fill="#bd6b20" opacity="0.34"/><circle cx="211.8" cy="428.3" r="1.97" fill="#bd6b20" opacity="0.17"/><circle cx="245.8" cy="426.6" r="2.07" fill="#bd6b20" opacity="0.35"/><circle cx="283.9" cy="424.9" r="2.68" fill="#bd6b20" opacity="0.28"/><circle cx="319.6" cy="424.0" r="1.61" fill="#bd6b20" opacity="0.23"/><circle cx="355.4" cy="426.6" r="3.87" fill="#bd6b20" opacity="0.16"/><circle cx="390.4" cy="424.2" r="2.85" fill="#bd6b20" opacity="0.20"/><circle cx="427.0" cy="425.7" r="3.85" fill="#bd6b20" opacity="0.31"/><circle cx="464.4" cy="423.5" r="2.27" fill="#bd6b20" opacity="0.29"/><circle cx="500.2" cy="428.2" r="2.58" fill="#bd6b20" opacity="0.32"/><circle cx="532.2" cy="426.1" r="3.83" fill="#bd6b20" opacity="0.18"/><circle cx="568.6" cy="428.9" r="2.09" fill="#bd6b20" opacity="0.28"/><circle cx="608.7" cy="424.9" r="3.44" fill="#bd6b20" opacity="0.36"/><circle cx="642.9" cy="428.8" r="3.08" fill="#bd6b20" opacity="0.23"/><circle cx="680.8" cy="425.5" r="2.44" fill="#bd6b20" opacity="0.35"/><circle cx="712.4" cy="427.5" r="2.33" fill="#bd6b20" opacity="0.29"/><circle cx="748.3" cy="426.5" r="2.03" fill="#bd6b20" opacity="0.26"/><circle cx="788.9" cy="426.7" r="1.85" fill="#bd6b20" opacity="0.18"/><circle cx="821.4" cy="428.3" r="2.54" fill="#bd6b20" opacity="0.28"/><circle cx="857.2" cy="428.5" r="2.98" fill="#bd6b20" opacity="0.21"/><circle cx="893.9" cy="424.9" r="3.72" fill="#bd6b20" opacity="0.34"/><circle cx="931.9" cy="424.9" r="1.78" fill="#bd6b20" opacity="0.22"/><circle cx="968.2" cy="425.1" r="3.52" fill="#bd6b20" opacity="0.18"/><circle cx="1001.1" cy="426.0" r="2.41" fill="#bd6b20" opacity="0.33"/><circle cx="1039.8" cy="423.9" r="3.26" fill="#bd6b20" opacity="0.18"/><circle cx="1076.0" cy="424.8" r="3.52" fill="#bd6b20" opacity="0.33"/><circle cx="1111.4" cy="423.5" r="3.67" fill="#bd6b20" opacity="0.33"/><circle cx="1146.9" cy="423.8" r="2.65" fill="#bd6b20" opacity="0.21"/><circle cx="1182.1" cy="427.3" r="2.72" fill="#bd6b20" opacity="0.19"/><circle cx="29.4" cy="461.4" r="3.22" fill="#bd6b20" opacity="0.15"/><circle cx="65.8" cy="464.0" r="2.09" fill="#bd6b20" opacity="0.30"/><circle cx="102.1" cy="462.5" r="1.85" fill="#bd6b20" opacity="0.36"/><circle cx="135.1" cy="464.2" r="2.00" fill="#bd6b20" opacity="0.18"/><circle cx="175.7" cy="459.2" r="2.05" fill="#bd6b20" opacity="0.20"/><circle cx="209.3" cy="461.7" r="1.61" fill="#bd6b20" opacity="0.16"/><circle cx="243.9" cy="459.2" r="2.53" fill="#bd6b20" opacity="0.27"/><circle cx="280.5" cy="460.4" r="3.11" fill="#bd6b20" opacity="0.22"/><circle cx="317.0" cy="459.1" r="1.64" fill="#bd6b20" opacity="0.27"/><circle cx="354.5" cy="461.1" r="2.96" fill="#bd6b20" opacity="0.33"/><circle cx="387.2" cy="463.8" r="2.32" fill="#bd6b20" opacity="0.36"/><circle cx="424.6" cy="459.8" r="3.10" fill="#bd6b20" opacity="0.17"/><circle cx="462.2" cy="459.5" r="3.48" fill="#bd6b20" opacity="0.32"/><circle cx="498.9" cy="459.7" r="3.24" fill="#bd6b20" opacity="0.36"/><circle cx="531.9" cy="461.9" r="3.70" fill="#bd6b20" opacity="0.24"/><circle cx="568.2" cy="461.1" r="3.60" fill="#bd6b20" opacity="0.26"/><circle cx="608.5" cy="461.8" r="3.79" fill="#bd6b20" opacity="0.32"/><circle cx="640.3" cy="464.4" r="2.24" fill="#bd6b20" opacity="0.32"/><circle cx="680.4" cy="460.3" r="2.51" fill="#bd6b20" opacity="0.22"/><circle cx="713.3" cy="463.4" r="3.41" fill="#bd6b20" opacity="0.28"/><circle cx="752.8" cy="463.7" r="3.76" fill="#bd6b20" opacity="0.22"/><circle cx="785.8" cy="460.1" r="2.98" fill="#bd6b20" opacity="0.16"/><circle cx="819.2" cy="463.1" r="3.23" fill="#bd6b20" opacity="0.31"/><circle cx="859.0" cy="460.7" r="3.73" fill="#bd6b20" opacity="0.35"/><circle cx="895.4" cy="464.0" r="2.23" fill="#bd6b20" opacity="0.20"/><circle cx="931.5" cy="464.6" r="3.11" fill="#bd6b20" opacity="0.22"/><circle cx="967.8" cy="460.8" r="1.67" fill="#bd6b20" opacity="0.28"/><circle cx="1000.6" cy="460.1" r="3.58" fill="#bd6b20" opacity="0.25"/><circle cx="1035.3" cy="459.1" r="2.25" fill="#bd6b20" opacity="0.28"/><circle cx="1076.6" cy="464.8" r="3.93" fill="#bd6b20" opacity="0.25"/><circle cx="1107.4" cy="464.9" r="3.35" fill="#bd6b20" opacity="0.26"/><circle cx="1147.7" cy="464.5" r="3.43" fill="#bd6b20" opacity="0.32"/><circle cx="1181.8" cy="461.8" r="1.80" fill="#bd6b20" opacity="0.26"/><circle cx="27.8" cy="499.5" r="1.98" fill="#bd6b20" opacity="0.18"/><circle cx="64.3" cy="500.6" r="1.69" fill="#bd6b20" opacity="0.20"/><circle cx="101.6" cy="497.5" r="2.73" fill="#bd6b20" opacity="0.35"/><circle cx="138.1" cy="500.5" r="2.65" fill="#bd6b20" opacity="0.33"/><circle cx="172.5" cy="497.1" r="2.01" fill="#bd6b20" opacity="0.27"/><circle cx="212.6" cy="499.6" r="1.61" fill="#bd6b20" opacity="0.30"/><circle cx="243.6" cy="498.1" r="2.72" fill="#bd6b20" opacity="0.30"/><circle cx="282.9" cy="496.1" r="2.75" fill="#bd6b20" opacity="0.35"/><circle cx="320.5" cy="496.2" r="2.91" fill="#bd6b20" opacity="0.31"/><circle cx="356.8" cy="496.2" r="2.79" fill="#bd6b20" opacity="0.35"/><circle cx="392.1" cy="497.5" r="3.95" fill="#bd6b20" opacity="0.33"/><circle cx="428.8" cy="500.6" r="2.84" fill="#bd6b20" opacity="0.26"/><circle cx="463.6" cy="497.3" r="1.90" fill="#bd6b20" opacity="0.24"/><circle cx="497.7" cy="498.7" r="2.00" fill="#bd6b20" opacity="0.33"/><circle cx="536.2" cy="495.8" r="3.28" fill="#bd6b20" opacity="0.33"/><circle cx="567.8" cy="498.8" r="3.58" fill="#bd6b20" opacity="0.20"/><circle cx="603.9" cy="496.6" r="3.35" fill="#bd6b20" opacity="0.21"/><circle cx="639.8" cy="500.6" r="3.05" fill="#bd6b20" opacity="0.19"/><circle cx="679.9" cy="497.4" r="2.64" fill="#bd6b20" opacity="0.18"/><circle cx="713.9" cy="495.2" r="1.82" fill="#bd6b20" opacity="0.34"/><circle cx="750.0" cy="496.1" r="2.17" fill="#bd6b20" opacity="0.20"/><circle cx="788.1" cy="495.2" r="1.73" fill="#bd6b20" opacity="0.26"/><circle cx="820.0" cy="498.1" r="2.98" fill="#bd6b20" opacity="0.27"/><circle cx="858.2" cy="498.8" r="1.72" fill="#bd6b20" opacity="0.17"/><circle cx="891.1" cy="495.9" r="2.45" fill="#bd6b20" opacity="0.20"/><circle cx="929.0" cy="495.6" r="3.12" fill="#bd6b20" opacity="0.22"/><circle cx="965.4" cy="498.9" r="2.66" fill="#bd6b20" opacity="0.28"/><circle cx="999.3" cy="495.6" r="2.19" fill="#bd6b20" opacity="0.28"/><circle cx="1036.0" cy="500.8" r="1.66" fill="#bd6b20" opacity="0.23"/><circle cx="1073.6" cy="496.4" r="3.25" fill="#bd6b20" opacity="0.23"/><circle cx="1107.2" cy="498.1" r="1.72" fill="#bd6b20" opacity="0.33"/><circle cx="1147.3" cy="497.7" r="3.90" fill="#bd6b20" opacity="0.31"/><circle cx="1179.8" cy="499.6" r="2.80" fill="#bd6b20" opacity="0.32"/><circle cx="31.5" cy="535.8" r="2.09" fill="#bd6b20" opacity="0.16"/><circle cx="64.3" cy="533.2" r="3.21" fill="#bd6b20" opacity="0.33"/><circle cx="104.1" cy="534.7" r="3.17" fill="#bd6b20" opacity="0.27"/><circle cx="138.0" cy="532.1" r="3.04" fill="#bd6b20" opacity="0.28"/><circle cx="174.4" cy="533.4" r="3.05" fill="#bd6b20" opacity="0.30"/><circle cx="208.8" cy="535.6" r="2.64" fill="#bd6b20" opacity="0.22"/><circle cx="244.2" cy="532.8" r="3.08" fill="#bd6b20" opacity="0.17"/><circle cx="282.9" cy="531.2" r="1.81" fill="#bd6b20" opacity="0.29"/><circle cx="319.6" cy="536.9" r="1.61" fill="#bd6b20" opacity="0.26"/><circle cx="356.4" cy="532.2" r="2.41" fill="#bd6b20" opacity="0.35"/><circle cx="392.6" cy="534.9" r="3.75" fill="#bd6b20" opacity="0.35"/><circle cx="425.7" cy="536.3" r="3.09" fill="#bd6b20" opacity="0.21"/><circle cx="462.3" cy="531.0" r="2.41" fill="#bd6b20" opacity="0.24"/><circle cx="498.2" cy="535.2" r="2.03" fill="#bd6b20" opacity="0.24"/><circle cx="531.1" cy="536.5" r="2.95" fill="#bd6b20" opacity="0.22"/><circle cx="568.0" cy="534.2" r="1.85" fill="#bd6b20" opacity="0.30"/><circle cx="603.8" cy="532.6" r="1.77" fill="#bd6b20" opacity="0.30"/><circle cx="644.0" cy="534.1" r="2.20" fill="#bd6b20" opacity="0.35"/><circle cx="676.8" cy="531.2" r="3.34" fill="#bd6b20" opacity="0.36"/><circle cx="712.3" cy="532.7" r="2.67" fill="#bd6b20" opacity="0.36"/><circle cx="751.1" cy="532.4" r="2.43" fill="#bd6b20" opacity="0.33"/><circle cx="785.2" cy="534.6" r="3.59" fill="#bd6b20" opacity="0.30"/><circle cx="819.9" cy="531.9" r="2.56" fill="#bd6b20" opacity="0.20"/><circle cx="857.8" cy="531.9" r="3.48" fill="#bd6b20" opacity="0.29"/><circle cx="895.4" cy="534.5" r="1.90" fill="#bd6b20" opacity="0.33"/><circle cx="928.2" cy="534.9" r="1.63" fill="#bd6b20" opacity="0.17"/><circle cx="964.7" cy="536.7" r="1.72" fill="#bd6b20" opacity="0.19"/><circle cx="1002.6" cy="534.3" r="3.07" fill="#bd6b20" opacity="0.34"/><circle cx="1037.6" cy="534.5" r="2.43" fill="#bd6b20" opacity="0.22"/><circle cx="1074.0" cy="534.6" r="1.88" fill="#bd6b20" opacity="0.27"/><circle cx="1109.4" cy="534.7" r="2.24" fill="#bd6b20" opacity="0.17"/><circle cx="1143.0" cy="532.6" r="2.41" fill="#bd6b20" opacity="0.30"/><circle cx="1180.6" cy="536.9" r="3.28" fill="#bd6b20" opacity="0.15"/><circle cx="27.3" cy="568.0" r="1.92" fill="#bd6b20" opacity="0.28"/><circle cx="65.2" cy="572.7" r="2.21" fill="#bd6b20" opacity="0.28"/><circle cx="102.4" cy="568.9" r="3.60" fill="#bd6b20" opacity="0.19"/><circle cx="136.0" cy="572.2" r="3.77" fill="#bd6b20" opacity="0.33"/><circle cx="172.4" cy="569.8" r="2.36" fill="#bd6b20" opacity="0.29"/><circle cx="208.0" cy="572.3" r="3.72" fill="#bd6b20" opacity="0.15"/><circle cx="246.8" cy="571.1" r="2.49" fill="#bd6b20" opacity="0.35"/><circle cx="282.5" cy="570.7" r="2.00" fill="#bd6b20" opacity="0.26"/><circle cx="315.9" cy="571.0" r="1.80" fill="#bd6b20" opacity="0.36"/><circle cx="355.1" cy="569.9" r="2.72" fill="#bd6b20" opacity="0.30"/><circle cx="393.0" cy="569.8" r="1.98" fill="#bd6b20" opacity="0.33"/><circle cx="425.5" cy="567.1" r="2.48" fill="#bd6b20" opacity="0.27"/><circle cx="459.0" cy="570.1" r="3.09" fill="#bd6b20" opacity="0.28"/><circle cx="499.7" cy="568.4" r="3.02" fill="#bd6b20" opacity="0.21"/><circle cx="536.5" cy="568.1" r="3.60" fill="#bd6b20" opacity="0.16"/><circle cx="569.1" cy="567.9" r="3.25" fill="#bd6b20" opacity="0.18"/><circle cx="608.5" cy="567.3" r="2.21" fill="#bd6b20" opacity="0.23"/><circle cx="643.3" cy="572.1" r="3.45" fill="#bd6b20" opacity="0.19"/><circle cx="678.4" cy="568.6" r="2.03" fill="#bd6b20" opacity="0.34"/><circle cx="715.9" cy="570.4" r="3.72" fill="#bd6b20" opacity="0.20"/><circle cx="750.3" cy="568.8" r="3.12" fill="#bd6b20" opacity="0.35"/><circle cx="786.0" cy="570.0" r="3.38" fill="#bd6b20" opacity="0.20"/><circle cx="823.5" cy="569.5" r="2.81" fill="#bd6b20" opacity="0.27"/><circle cx="856.7" cy="568.7" r="2.46" fill="#bd6b20" opacity="0.21"/><circle cx="893.0" cy="569.7" r="1.63" fill="#bd6b20" opacity="0.16"/><circle cx="931.8" cy="569.5" r="2.85" fill="#bd6b20" opacity="0.20"/><circle cx="964.9" cy="568.9" r="1.84" fill="#bd6b20" opacity="0.26"/><circle cx="999.2" cy="569.1" r="2.21" fill="#bd6b20" opacity="0.27"/><circle cx="1038.4" cy="567.0" r="1.64" fill="#bd6b20" opacity="0.31"/><circle cx="1074.6" cy="572.4" r="2.90" fill="#bd6b20" opacity="0.35"/><circle cx="1109.3" cy="571.4" r="2.55" fill="#bd6b20" opacity="0.21"/><circle cx="1148.7" cy="569.9" r="2.12" fill="#bd6b20" opacity="0.28"/><circle cx="1180.0" cy="568.2" r="2.15" fill="#bd6b20" opacity="0.23"/><circle cx="31.4" cy="607.3" r="2.66" fill="#bd6b20" opacity="0.36"/><circle cx="66.0" cy="607.1" r="2.78" fill="#bd6b20" opacity="0.34"/><circle cx="101.4" cy="604.8" r="3.44" fill="#bd6b20" opacity="0.26"/><circle cx="136.6" cy="607.1" r="3.86" fill="#bd6b20" opacity="0.33"/><circle cx="173.5" cy="603.2" r="3.07" fill="#bd6b20" opacity="0.19"/><circle cx="211.2" cy="606.8" r="3.30" fill="#bd6b20" opacity="0.25"/><circle cx="244.0" cy="607.2" r="3.18" fill="#bd6b20" opacity="0.25"/><circle cx="282.1" cy="609.0" r="1.81" fill="#bd6b20" opacity="0.35"/><circle cx="316.1" cy="607.3" r="3.48" fill="#bd6b20" opacity="0.33"/><circle cx="354.8" cy="604.3" r="1.81" fill="#bd6b20" opacity="0.19"/><circle cx="389.2" cy="606.8" r="1.70" fill="#bd6b20" opacity="0.22"/><circle cx="426.8" cy="603.6" r="1.77" fill="#bd6b20" opacity="0.29"/><circle cx="464.2" cy="604.5" r="3.98" fill="#bd6b20" opacity="0.21"/><circle cx="495.4" cy="607.1" r="1.90" fill="#bd6b20" opacity="0.33"/><circle cx="531.0" cy="603.5" r="3.47" fill="#bd6b20" opacity="0.17"/><circle cx="570.0" cy="607.4" r="2.56" fill="#bd6b20" opacity="0.24"/><circle cx="606.7" cy="605.3" r="2.81" fill="#bd6b20" opacity="0.32"/><circle cx="643.7" cy="603.9" r="3.37" fill="#bd6b20" opacity="0.33"/><circle cx="678.0" cy="607.1" r="2.81" fill="#bd6b20" opacity="0.22"/><circle cx="715.2" cy="608.2" r="2.86" fill="#bd6b20" opacity="0.16"/><circle cx="751.9" cy="605.1" r="1.61" fill="#bd6b20" opacity="0.28"/><circle cx="785.5" cy="608.8" r="2.63" fill="#bd6b20" opacity="0.30"/><circle cx="819.7" cy="604.8" r="2.96" fill="#bd6b20" opacity="0.28"/><circle cx="860.1" cy="603.8" r="2.47" fill="#bd6b20" opacity="0.16"/><circle cx="896.8" cy="607.2" r="2.82" fill="#bd6b20" opacity="0.25"/><circle cx="930.3" cy="603.6" r="3.45" fill="#bd6b20" opacity="0.26"/><circle cx="967.2" cy="608.7" r="3.92" fill="#bd6b20" opacity="0.32"/><circle cx="1001.7" cy="606.2" r="3.40" fill="#bd6b20" opacity="0.35"/><circle cx="1036.7" cy="605.7" r="2.02" fill="#bd6b20" opacity="0.34"/><circle cx="1076.3" cy="606.8" r="1.63" fill="#bd6b20" opacity="0.35"/><circle cx="1108.6" cy="605.9" r="3.34" fill="#bd6b20" opacity="0.30"/><circle cx="1148.7" cy="603.7" r="1.89" fill="#bd6b20" opacity="0.24"/><circle cx="1180.6" cy="605.9" r="3.42" fill="#bd6b20" opacity="0.26"/><circle cx="29.6" cy="641.7" r="2.60" fill="#bd6b20" opacity="0.20"/><circle cx="68.8" cy="644.3" r="3.05" fill="#bd6b20" opacity="0.23"/><circle cx="104.4" cy="644.8" r="2.82" fill="#bd6b20" opacity="0.32"/><circle cx="140.5" cy="645.0" r="2.78" fill="#bd6b20" opacity="0.24"/><circle cx="172.9" cy="644.2" r="3.66" fill="#bd6b20" opacity="0.19"/><circle cx="209.5" cy="643.6" r="1.72" fill="#bd6b20" opacity="0.31"/><circle cx="247.9" cy="640.5" r="2.01" fill="#bd6b20" opacity="0.29"/><circle cx="281.0" cy="643.8" r="2.24" fill="#bd6b20" opacity="0.15"/><circle cx="320.8" cy="639.8" r="3.25" fill="#bd6b20" opacity="0.29"/><circle cx="356.8" cy="643.4" r="2.39" fill="#bd6b20" opacity="0.32"/><circle cx="387.3" cy="643.5" r="3.40" fill="#bd6b20" opacity="0.35"/><circle cx="423.2" cy="642.2" r="2.40" fill="#bd6b20" opacity="0.16"/><circle cx="461.3" cy="644.9" r="2.13" fill="#bd6b20" opacity="0.23"/><circle cx="498.7" cy="642.7" r="3.24" fill="#bd6b20" opacity="0.19"/><circle cx="535.5" cy="642.1" r="3.14" fill="#bd6b20" opacity="0.16"/><circle cx="568.7" cy="643.8" r="2.04" fill="#bd6b20" opacity="0.35"/><circle cx="604.4" cy="643.0" r="2.83" fill="#bd6b20" opacity="0.30"/><circle cx="644.4" cy="642.7" r="2.90" fill="#bd6b20" opacity="0.22"/><circle cx="679.7" cy="640.2" r="1.91" fill="#bd6b20" opacity="0.29"/><circle cx="712.5" cy="642.4" r="1.97" fill="#bd6b20" opacity="0.32"/><circle cx="752.0" cy="641.3" r="2.29" fill="#bd6b20" opacity="0.21"/><circle cx="783.4" cy="642.8" r="3.96" fill="#bd6b20" opacity="0.30"/><circle cx="822.4" cy="639.9" r="3.47" fill="#bd6b20" opacity="0.21"/><circle cx="857.1" cy="644.2" r="1.65" fill="#bd6b20" opacity="0.31"/><circle cx="892.9" cy="640.7" r="3.88" fill="#bd6b20" opacity="0.19"/><circle cx="930.0" cy="644.7" r="2.84" fill="#bd6b20" opacity="0.17"/><circle cx="964.0" cy="644.1" r="2.88" fill="#bd6b20" opacity="0.17"/><circle cx="1000.8" cy="642.9" r="2.05" fill="#bd6b20" opacity="0.31"/><circle cx="1035.0" cy="641.7" r="2.10" fill="#bd6b20" opacity="0.19"/><circle cx="1076.0" cy="643.0" r="3.39" fill="#bd6b20" opacity="0.29"/><circle cx="1108.4" cy="640.5" r="2.09" fill="#bd6b20" opacity="0.34"/><circle cx="1145.6" cy="641.9" r="2.15" fill="#bd6b20" opacity="0.18"/><circle cx="1179.3" cy="642.2" r="2.50" fill="#bd6b20" opacity="0.25"/><circle cx="248.4" cy="219.8" r="220" fill="url(#glow)" opacity="0.9"/>
  <g opacity="0.85" transform="translate(1020, 495)">
        <circle r="60" fill="#bd6b20" opacity="0.18"/>
        <path d="M -34 6 Q -10 -22 14 6 Q 34 24 14 26 L -22 26 Q -38 24 -34 6 Z" fill="none" stroke="#e09440" stroke-width="3" stroke-linejoin="round"/>
      </g>
  <g transform="translate(80, 90)">
    <rect x="0" y="0" rx="20" ry="20" width="134" height="38" fill="#bd6b20" opacity="0.18" stroke="#bd6b20" stroke-width="1.5"/>
    <text x="67" y="25" font-family="ui-sans-serif, Inter, sans-serif" font-weight="700" font-size="14" letter-spacing="2.5" fill="#bd6b20" text-anchor="middle">CASE STUDY</text>
  </g>
  <text x="80" y="465" font-family="ui-sans-serif, -apple-system, Segoe UI, Inter, sans-serif" font-weight="800" font-size="44" fill="#faf8f5" opacity="0.98"><tspan x="80" dy="0">One-Time Closure of a</tspan><tspan x="80" dy="56">Technology Equipment Loan</tspan><tspan x="80" dy="56">Default</tspan></text>
  <rect x="0" y="669" width="1200" height="6" fill="url(#gold)"/>
</svg>