<?xml version="1.0" encoding="UTF-8"?>
<svg xmlns="http://www.w3.org/2000/svg" viewBox="0 0 1200 675" width="1200" height="675" role="img" aria-label="One-Time Foreclosure in the Textile Sector">
  <defs>
    <linearGradient id="bg" x1="0%" y1="0%" x2="100%" y2="100%">
      <stop offset="0%" stop-color="#faf8f5"/>
      <stop offset="100%" stop-color="#f4efe8"/>
    </linearGradient>
    <linearGradient id="gold" x1="0%" y1="0%" x2="100%" y2="100%">
      <stop offset="0%" stop-color="#bd6b20"/>
      <stop offset="100%" stop-color="#9a5518"/>
    </linearGradient>
    <radialGradient id="glow" cx="50%" cy="50%" r="50%">
      <stop offset="0%" stop-color="#bd6b20" stop-opacity="0.45"/>
      <stop offset="100%" stop-color="#bd6b20" stop-opacity="0"/>
    </radialGradient>
  </defs>
  <rect width="1200" height="675" fill="url(#bg)"/>
  <circle cx="28.0" cy="31.1" r="3.76" fill="#bd6b20" opacity="0.26"/><circle cx="67.0" cy="29.7" r="3.24" fill="#bd6b20" opacity="0.18"/><circle cx="104.8" cy="28.6" r="2.39" fill="#bd6b20" opacity="0.28"/><circle cx="138.1" cy="31.3" r="3.62" fill="#bd6b20" opacity="0.31"/><circle cx="176.0" cy="28.4" r="3.09" fill="#bd6b20" opacity="0.23"/><circle cx="209.2" cy="28.1" r="3.86" fill="#bd6b20" opacity="0.34"/><circle cx="243.5" cy="32.1" r="3.83" fill="#bd6b20" opacity="0.19"/><circle cx="281.8" cy="28.2" r="2.45" fill="#bd6b20" opacity="0.31"/><circle cx="315.2" cy="29.8" r="3.29" fill="#bd6b20" opacity="0.28"/><circle cx="356.2" cy="30.2" r="2.56" fill="#bd6b20" opacity="0.31"/><circle cx="388.6" cy="30.6" r="2.75" fill="#bd6b20" opacity="0.22"/><circle cx="425.8" cy="29.8" r="3.52" fill="#bd6b20" opacity="0.17"/><circle cx="464.8" cy="28.5" r="1.86" fill="#bd6b20" opacity="0.17"/><circle cx="497.4" cy="30.3" r="2.99" fill="#bd6b20" opacity="0.28"/><circle cx="532.7" cy="27.6" r="3.21" fill="#bd6b20" opacity="0.36"/><circle cx="568.7" cy="30.7" r="3.02" fill="#bd6b20" opacity="0.16"/><circle cx="605.5" cy="32.8" r="2.15" fill="#bd6b20" opacity="0.34"/><circle cx="639.8" cy="27.3" r="2.28" fill="#bd6b20" opacity="0.32"/><circle cx="675.3" cy="30.7" r="2.97" fill="#bd6b20" opacity="0.18"/><circle cx="711.9" cy="27.2" r="1.73" fill="#bd6b20" opacity="0.30"/><circle cx="748.2" cy="32.2" r="2.18" fill="#bd6b20" opacity="0.31"/><circle cx="787.2" cy="29.5" r="3.25" fill="#bd6b20" opacity="0.34"/><circle cx="821.6" cy="29.8" r="2.90" fill="#bd6b20" opacity="0.31"/><circle cx="860.4" cy="32.5" r="2.07" fill="#bd6b20" opacity="0.29"/><circle cx="893.7" cy="32.4" r="3.36" fill="#bd6b20" opacity="0.26"/><circle cx="930.7" cy="31.7" r="2.16" fill="#bd6b20" opacity="0.26"/><circle cx="963.4" cy="30.3" r="3.81" fill="#bd6b20" opacity="0.31"/><circle cx="1003.0" cy="32.8" r="3.79" fill="#bd6b20" opacity="0.18"/><circle cx="1039.1" cy="29.9" r="3.80" fill="#bd6b20" opacity="0.32"/><circle cx="1074.3" cy="29.9" r="2.15" fill="#bd6b20" opacity="0.26"/><circle cx="1107.9" cy="30.2" r="2.12" fill="#bd6b20" opacity="0.27"/><circle cx="1148.8" cy="30.5" r="2.93" fill="#bd6b20" opacity="0.31"/><circle cx="1179.2" cy="32.5" r="3.38" fill="#bd6b20" opacity="0.16"/><circle cx="29.7" cy="63.7" r="1.78" fill="#bd6b20" opacity="0.20"/><circle cx="66.9" cy="67.5" r="1.96" fill="#bd6b20" opacity="0.27"/><circle cx="101.2" cy="68.7" r="2.01" fill="#bd6b20" opacity="0.33"/><circle cx="135.9" cy="63.3" r="1.94" fill="#bd6b20" opacity="0.19"/><circle cx="173.5" cy="63.4" r="2.40" fill="#bd6b20" opacity="0.29"/><circle cx="209.3" cy="67.0" r="1.75" fill="#bd6b20" opacity="0.28"/><circle cx="248.9" cy="68.7" r="3.87" fill="#bd6b20" opacity="0.26"/><circle cx="284.5" cy="64.7" r="3.71" fill="#bd6b20" opacity="0.30"/><circle cx="320.9" cy="63.4" r="3.57" fill="#bd6b20" opacity="0.16"/><circle cx="352.8" cy="67.4" r="3.36" fill="#bd6b20" opacity="0.31"/><circle cx="389.4" cy="67.9" r="2.64" fill="#bd6b20" opacity="0.33"/><circle cx="423.4" cy="66.8" r="3.74" fill="#bd6b20" opacity="0.17"/><circle cx="463.2" cy="65.2" r="2.46" fill="#bd6b20" opacity="0.20"/><circle cx="496.8" cy="67.9" r="3.67" fill="#bd6b20" opacity="0.26"/><circle cx="531.1" cy="63.7" r="3.34" fill="#bd6b20" opacity="0.22"/><circle cx="570.3" cy="68.1" r="3.87" fill="#bd6b20" opacity="0.26"/><circle cx="605.1" cy="64.6" r="1.68" fill="#bd6b20" opacity="0.22"/><circle cx="643.5" cy="68.9" r="2.21" fill="#bd6b20" opacity="0.29"/><circle cx="680.6" cy="64.1" r="3.39" fill="#bd6b20" opacity="0.32"/><circle cx="712.7" cy="65.9" r="3.16" fill="#bd6b20" opacity="0.23"/><circle cx="748.0" cy="66.6" r="1.88" fill="#bd6b20" opacity="0.26"/><circle cx="786.1" cy="67.0" r="2.80" fill="#bd6b20" opacity="0.25"/><circle cx="823.3" cy="64.3" r="1.92" fill="#bd6b20" opacity="0.16"/><circle cx="858.6" cy="68.8" r="2.09" fill="#bd6b20" opacity="0.30"/><circle cx="896.0" cy="63.4" r="3.70" fill="#bd6b20" opacity="0.16"/><circle cx="928.2" cy="67.1" r="3.66" fill="#bd6b20" opacity="0.19"/><circle cx="967.0" cy="65.9" r="2.25" fill="#bd6b20" opacity="0.18"/><circle cx="1003.9" cy="63.8" r="3.93" fill="#bd6b20" opacity="0.27"/><circle cx="1039.8" cy="64.2" r="1.78" fill="#bd6b20" opacity="0.32"/><circle cx="1075.4" cy="63.8" r="1.68" fill="#bd6b20" opacity="0.20"/><circle cx="1107.1" cy="64.6" r="3.58" fill="#bd6b20" opacity="0.30"/><circle cx="1148.1" cy="64.1" r="1.81" fill="#bd6b20" opacity="0.23"/><circle cx="1183.9" cy="68.5" r="3.93" fill="#bd6b20" opacity="0.31"/><circle cx="31.8" cy="101.8" r="3.52" fill="#bd6b20" opacity="0.24"/><circle cx="63.9" cy="102.7" r="1.81" fill="#bd6b20" opacity="0.31"/><circle cx="101.2" cy="100.2" r="3.02" fill="#bd6b20" opacity="0.21"/><circle cx="135.0" cy="102.8" r="3.14" fill="#bd6b20" opacity="0.25"/><circle cx="172.0" cy="102.5" r="2.96" fill="#bd6b20" opacity="0.29"/><circle cx="212.7" cy="103.1" r="3.21" fill="#bd6b20" opacity="0.22"/><circle cx="243.5" cy="104.6" r="1.61" fill="#bd6b20" opacity="0.22"/><circle cx="282.6" cy="104.1" r="2.35" fill="#bd6b20" opacity="0.22"/><circle cx="321.0" cy="104.4" r="2.75" fill="#bd6b20" opacity="0.33"/><circle cx="355.9" cy="100.9" r="3.07" fill="#bd6b20" opacity="0.33"/><circle cx="389.8" cy="103.9" r="2.46" fill="#bd6b20" opacity="0.16"/><circle cx="426.8" cy="101.1" r="2.07" fill="#bd6b20" opacity="0.29"/><circle cx="463.7" cy="101.1" r="2.50" fill="#bd6b20" opacity="0.26"/><circle cx="495.8" cy="104.2" r="3.13" fill="#bd6b20" opacity="0.22"/><circle cx="532.6" cy="102.4" r="1.66" fill="#bd6b20" opacity="0.32"/><circle cx="572.2" cy="99.0" r="2.23" fill="#bd6b20" opacity="0.25"/><circle cx="604.6" cy="101.7" r="3.92" fill="#bd6b20" opacity="0.20"/><circle cx="644.2" cy="101.6" r="1.95" fill="#bd6b20" opacity="0.31"/><circle cx="676.3" cy="103.9" r="3.19" fill="#bd6b20" opacity="0.30"/><circle cx="715.7" cy="99.3" r="3.93" fill="#bd6b20" opacity="0.30"/><circle cx="751.2" cy="100.5" r="3.48" fill="#bd6b20" opacity="0.30"/><circle cx="786.5" cy="101.4" r="3.00" fill="#bd6b20" opacity="0.20"/><circle cx="821.6" cy="101.9" r="3.41" fill="#bd6b20" opacity="0.28"/><circle cx="857.5" cy="99.4" r="2.81" fill="#bd6b20" opacity="0.23"/><circle cx="891.2" cy="102.8" r="3.74" fill="#bd6b20" opacity="0.23"/><circle cx="931.6" cy="99.6" r="2.92" fill="#bd6b20" opacity="0.32"/><circle cx="967.1" cy="103.9" r="3.04" fill="#bd6b20" opacity="0.18"/><circle cx="1004.1" cy="101.8" r="2.23" fill="#bd6b20" opacity="0.31"/><circle cx="1039.1" cy="101.1" r="2.89" fill="#bd6b20" opacity="0.20"/><circle cx="1071.6" cy="102.3" r="2.24" fill="#bd6b20" opacity="0.23"/><circle cx="1108.5" cy="102.3" r="2.56" fill="#bd6b20" opacity="0.33"/><circle cx="1147.5" cy="99.3" r="1.90" fill="#bd6b20" opacity="0.24"/><circle cx="1184.4" cy="99.7" r="2.08" fill="#bd6b20" opacity="0.19"/><circle cx="32.3" cy="138.8" r="3.54" fill="#bd6b20" opacity="0.27"/><circle cx="66.9" cy="137.5" r="3.43" fill="#bd6b20" opacity="0.22"/><circle cx="104.2" cy="140.6" r="3.98" fill="#bd6b20" opacity="0.31"/><circle cx="139.5" cy="138.1" r="3.35" fill="#bd6b20" opacity="0.34"/><circle cx="175.7" cy="140.8" r="3.41" fill="#bd6b20" opacity="0.18"/><circle cx="211.4" cy="137.0" r="3.59" fill="#bd6b20" opacity="0.16"/><circle cx="245.7" cy="139.2" r="2.88" fill="#bd6b20" opacity="0.25"/><circle cx="280.0" cy="135.3" r="3.26" fill="#bd6b20" opacity="0.26"/><circle cx="317.0" cy="135.7" r="3.14" fill="#bd6b20" opacity="0.30"/><circle cx="353.7" cy="135.3" r="2.01" fill="#bd6b20" opacity="0.24"/><circle cx="390.1" cy="137.6" r="3.25" fill="#bd6b20" opacity="0.23"/><circle cx="427.6" cy="137.1" r="1.74" fill="#bd6b20" opacity="0.16"/><circle cx="462.5" cy="136.6" r="2.21" fill="#bd6b20" opacity="0.23"/><circle cx="497.6" cy="137.0" r="3.18" fill="#bd6b20" opacity="0.28"/><circle cx="536.4" cy="141.0" r="2.32" fill="#bd6b20" opacity="0.36"/><circle cx="567.1" cy="139.6" r="2.48" fill="#bd6b20" opacity="0.20"/><circle cx="608.5" cy="138.6" r="3.91" fill="#bd6b20" opacity="0.18"/><circle cx="642.8" cy="139.4" r="1.77" fill="#bd6b20" opacity="0.34"/><circle cx="679.4" cy="138.5" r="2.61" fill="#bd6b20" opacity="0.31"/><circle cx="712.0" cy="135.6" r="3.88" fill="#bd6b20" opacity="0.16"/><circle cx="750.8" cy="137.9" r="2.42" fill="#bd6b20" opacity="0.26"/><circle cx="788.0" cy="140.0" r="1.76" fill="#bd6b20" opacity="0.25"/><circle cx="819.9" cy="138.6" r="3.66" fill="#bd6b20" opacity="0.25"/><circle cx="857.1" cy="136.9" r="3.16" fill="#bd6b20" opacity="0.18"/><circle cx="895.3" cy="139.6" r="3.84" fill="#bd6b20" opacity="0.34"/><circle cx="930.8" cy="139.0" r="1.73" fill="#bd6b20" opacity="0.24"/><circle cx="964.4" cy="137.5" r="3.48" fill="#bd6b20" opacity="0.18"/><circle cx="1004.2" cy="139.6" r="3.30" fill="#bd6b20" opacity="0.26"/><circle cx="1038.5" cy="135.9" r="2.87" fill="#bd6b20" opacity="0.23"/><circle cx="1074.0" cy="140.4" r="1.78" fill="#bd6b20" opacity="0.21"/><circle cx="1108.9" cy="140.7" r="3.97" fill="#bd6b20" opacity="0.26"/><circle cx="1143.6" cy="140.9" r="3.84" fill="#bd6b20" opacity="0.23"/><circle cx="1180.0" cy="140.7" r="3.15" fill="#bd6b20" opacity="0.34"/><circle cx="27.2" cy="173.7" r="1.88" fill="#bd6b20" opacity="0.19"/><circle cx="67.3" cy="174.5" r="2.78" fill="#bd6b20" opacity="0.27"/><circle cx="101.8" cy="173.2" r="2.03" fill="#bd6b20" opacity="0.30"/><circle cx="136.0" cy="174.2" r="2.11" fill="#bd6b20" opacity="0.15"/><circle cx="171.0" cy="172.4" r="3.64" fill="#bd6b20" opacity="0.31"/><circle cx="211.5" cy="172.3" r="3.17" fill="#bd6b20" opacity="0.33"/><circle cx="244.4" cy="174.2" r="2.27" fill="#bd6b20" opacity="0.26"/><circle cx="282.8" cy="173.9" r="3.49" fill="#bd6b20" opacity="0.34"/><circle cx="315.1" cy="171.5" r="2.79" fill="#bd6b20" opacity="0.24"/><circle cx="354.7" cy="173.2" r="3.03" fill="#bd6b20" opacity="0.16"/><circle cx="388.8" cy="172.3" r="3.25" fill="#bd6b20" opacity="0.30"/><circle cx="425.5" cy="176.7" r="2.90" fill="#bd6b20" opacity="0.34"/><circle cx="464.1" cy="176.5" r="1.81" fill="#bd6b20" opacity="0.33"/><circle cx="500.1" cy="174.1" r="3.81" fill="#bd6b20" opacity="0.24"/><circle cx="533.1" cy="175.7" r="2.15" fill="#bd6b20" opacity="0.28"/><circle cx="569.6" cy="175.9" r="3.72" fill="#bd6b20" opacity="0.21"/><circle cx="603.1" cy="172.3" r="1.89" fill="#bd6b20" opacity="0.32"/><circle cx="641.8" cy="173.3" r="2.97" fill="#bd6b20" opacity="0.30"/><circle cx="680.8" cy="175.8" r="2.99" fill="#bd6b20" opacity="0.32"/><circle cx="716.1" cy="174.7" r="3.30" fill="#bd6b20" opacity="0.35"/><circle cx="751.5" cy="171.3" r="3.43" fill="#bd6b20" opacity="0.25"/><circle cx="784.3" cy="174.9" r="1.93" fill="#bd6b20" opacity="0.21"/><circle cx="824.3" cy="171.1" r="3.25" fill="#bd6b20" opacity="0.35"/><circle cx="857.5" cy="172.5" r="2.04" fill="#bd6b20" opacity="0.34"/><circle cx="893.1" cy="175.0" r="1.85" fill="#bd6b20" opacity="0.17"/><circle cx="930.2" cy="173.0" r="1.93" fill="#bd6b20" opacity="0.33"/><circle cx="968.4" cy="176.4" r="3.87" fill="#bd6b20" opacity="0.25"/><circle cx="1003.1" cy="171.8" r="3.84" fill="#bd6b20" opacity="0.20"/><circle cx="1036.6" cy="176.5" r="3.17" fill="#bd6b20" opacity="0.25"/><circle cx="1075.6" cy="171.4" r="3.97" fill="#bd6b20" opacity="0.24"/><circle cx="1107.1" cy="175.2" r="3.68" fill="#bd6b20" opacity="0.26"/><circle cx="1145.3" cy="172.0" r="2.64" fill="#bd6b20" opacity="0.32"/><circle cx="1184.6" cy="171.3" r="2.62" fill="#bd6b20" opacity="0.25"/><circle cx="27.6" cy="208.1" r="1.84" fill="#bd6b20" opacity="0.25"/><circle cx="63.2" cy="210.8" r="2.70" fill="#bd6b20" opacity="0.27"/><circle cx="104.4" cy="210.1" r="1.61" fill="#bd6b20" opacity="0.21"/><circle cx="138.3" cy="207.3" r="3.57" fill="#bd6b20" opacity="0.19"/><circle cx="172.9" cy="209.8" r="3.55" fill="#bd6b20" opacity="0.35"/><circle cx="210.5" cy="207.9" r="2.52" fill="#bd6b20" opacity="0.34"/><circle cx="246.8" cy="210.9" r="3.25" fill="#bd6b20" opacity="0.35"/><circle cx="280.2" cy="212.6" r="3.66" fill="#bd6b20" opacity="0.30"/><circle cx="320.7" cy="211.5" r="2.24" fill="#bd6b20" opacity="0.19"/><circle cx="351.6" cy="208.6" r="1.88" fill="#bd6b20" opacity="0.19"/><circle cx="388.2" cy="212.2" r="3.68" fill="#bd6b20" opacity="0.30"/><circle cx="425.4" cy="209.5" r="2.85" fill="#bd6b20" opacity="0.21"/><circle cx="462.0" cy="211.6" r="2.35" fill="#bd6b20" opacity="0.35"/><circle cx="499.5" cy="210.0" r="1.95" fill="#bd6b20" opacity="0.27"/><circle cx="534.9" cy="210.4" r="2.95" fill="#bd6b20" opacity="0.32"/><circle cx="570.2" cy="209.1" r="3.68" fill="#bd6b20" opacity="0.16"/><circle cx="607.2" cy="209.0" r="2.82" fill="#bd6b20" opacity="0.21"/><circle cx="644.9" cy="207.7" r="2.74" fill="#bd6b20" opacity="0.23"/><circle cx="676.5" cy="208.1" r="3.26" fill="#bd6b20" opacity="0.27"/><circle cx="713.3" cy="210.5" r="3.17" fill="#bd6b20" opacity="0.30"/><circle cx="752.5" cy="212.2" r="1.79" fill="#bd6b20" opacity="0.30"/><circle cx="786.8" cy="209.5" r="2.65" fill="#bd6b20" opacity="0.31"/><circle cx="819.5" cy="209.4" r="3.27" fill="#bd6b20" opacity="0.29"/><circle cx="857.2" cy="208.5" r="3.14" fill="#bd6b20" opacity="0.34"/><circle cx="891.7" cy="208.9" r="2.36" fill="#bd6b20" opacity="0.27"/><circle cx="931.5" cy="211.8" r="2.35" fill="#bd6b20" opacity="0.28"/><circle cx="963.1" cy="209.8" r="1.97" fill="#bd6b20" opacity="0.16"/><circle cx="999.5" cy="207.2" r="3.37" fill="#bd6b20" opacity="0.35"/><circle cx="1040.0" cy="208.4" r="1.98" fill="#bd6b20" opacity="0.16"/><circle cx="1071.7" cy="207.1" r="3.94" fill="#bd6b20" opacity="0.24"/><circle cx="1111.8" cy="209.6" r="1.78" fill="#bd6b20" opacity="0.24"/><circle cx="1143.5" cy="207.2" r="3.01" fill="#bd6b20" opacity="0.20"/><circle cx="1181.3" cy="209.8" r="2.89" fill="#bd6b20" opacity="0.32"/><circle cx="28.0" cy="246.2" r="1.87" fill="#bd6b20" opacity="0.24"/><circle cx="68.3" cy="246.4" r="3.42" fill="#bd6b20" opacity="0.22"/><circle cx="100.9" cy="247.2" r="4.00" fill="#bd6b20" opacity="0.33"/><circle cx="136.0" cy="244.7" r="3.97" fill="#bd6b20" opacity="0.31"/><circle cx="174.7" cy="245.7" r="2.01" fill="#bd6b20" opacity="0.16"/><circle cx="210.6" cy="245.6" r="2.15" fill="#bd6b20" opacity="0.33"/><circle cx="248.8" cy="248.9" r="1.75" fill="#bd6b20" opacity="0.24"/><circle cx="284.0" cy="243.9" r="3.22" fill="#bd6b20" opacity="0.17"/><circle cx="316.9" cy="244.1" r="2.17" fill="#bd6b20" opacity="0.21"/><circle cx="352.9" cy="247.5" r="3.48" fill="#bd6b20" opacity="0.20"/><circle cx="390.7" cy="243.3" r="3.26" fill="#bd6b20" opacity="0.19"/><circle cx="428.2" cy="246.9" r="2.15" fill="#bd6b20" opacity="0.32"/><circle cx="462.4" cy="245.7" r="3.32" fill="#bd6b20" opacity="0.18"/><circle cx="499.1" cy="246.6" r="3.34" fill="#bd6b20" opacity="0.22"/><circle cx="535.6" cy="246.9" r="1.63" fill="#bd6b20" opacity="0.35"/><circle cx="567.7" cy="247.0" r="2.56" fill="#bd6b20" opacity="0.26"/><circle cx="606.4" cy="244.7" r="3.18" fill="#bd6b20" opacity="0.15"/><circle cx="644.2" cy="247.7" r="1.82" fill="#bd6b20" opacity="0.30"/><circle cx="679.2" cy="248.5" r="2.93" fill="#bd6b20" opacity="0.19"/><circle cx="712.7" cy="248.0" r="2.37" fill="#bd6b20" opacity="0.33"/><circle cx="747.3" cy="243.9" r="3.62" fill="#bd6b20" opacity="0.25"/><circle cx="784.2" cy="247.4" r="3.47" fill="#bd6b20" opacity="0.29"/><circle cx="820.8" cy="244.1" r="3.22" fill="#bd6b20" opacity="0.18"/><circle cx="855.4" cy="247.5" r="2.28" fill="#bd6b20" opacity="0.29"/><circle cx="894.4" cy="246.9" r="2.68" fill="#bd6b20" opacity="0.33"/><circle cx="931.1" cy="246.5" r="2.20" fill="#bd6b20" opacity="0.36"/><circle cx="967.2" cy="248.3" r="3.96" fill="#bd6b20" opacity="0.26"/><circle cx="1003.1" cy="245.6" r="3.96" fill="#bd6b20" opacity="0.21"/><circle cx="1038.3" cy="245.5" r="1.64" fill="#bd6b20" opacity="0.36"/><circle cx="1071.8" cy="243.4" r="2.06" fill="#bd6b20" opacity="0.31"/><circle cx="1112.0" cy="245.4" r="3.24" fill="#bd6b20" opacity="0.30"/><circle cx="1143.0" cy="245.2" r="2.44" fill="#bd6b20" opacity="0.34"/><circle cx="1179.4" cy="244.8" r="3.50" fill="#bd6b20" opacity="0.23"/><circle cx="31.6" cy="280.4" r="2.61" fill="#bd6b20" opacity="0.35"/><circle cx="68.7" cy="281.5" r="2.28" fill="#bd6b20" opacity="0.33"/><circle cx="101.7" cy="280.8" r="3.94" fill="#bd6b20" opacity="0.19"/><circle cx="138.6" cy="282.6" r="3.47" fill="#bd6b20" opacity="0.20"/><circle cx="171.9" cy="284.3" r="2.91" fill="#bd6b20" opacity="0.23"/><circle cx="207.3" cy="281.9" r="2.17" fill="#bd6b20" opacity="0.20"/><circle cx="243.9" cy="283.4" r="2.24" fill="#bd6b20" opacity="0.25"/><circle cx="283.2" cy="282.0" r="3.90" fill="#bd6b20" opacity="0.21"/><circle cx="318.3" cy="282.2" r="2.01" fill="#bd6b20" opacity="0.19"/><circle cx="352.6" cy="279.1" r="2.70" fill="#bd6b20" opacity="0.32"/><circle cx="391.7" cy="284.3" r="2.75" fill="#bd6b20" opacity="0.31"/><circle cx="428.6" cy="284.0" r="1.70" fill="#bd6b20" opacity="0.28"/><circle cx="463.4" cy="280.3" r="2.43" fill="#bd6b20" opacity="0.29"/><circle cx="500.1" cy="284.4" r="3.25" fill="#bd6b20" opacity="0.19"/><circle cx="533.9" cy="279.2" r="1.81" fill="#bd6b20" opacity="0.31"/><circle cx="569.2" cy="281.0" r="3.91" fill="#bd6b20" opacity="0.31"/><circle cx="603.9" cy="279.7" r="2.80" fill="#bd6b20" opacity="0.23"/><circle cx="642.1" cy="282.0" r="1.81" fill="#bd6b20" opacity="0.26"/><circle cx="679.0" cy="280.1" r="2.89" fill="#bd6b20" opacity="0.33"/><circle cx="712.4" cy="279.4" r="3.01" fill="#bd6b20" opacity="0.29"/><circle cx="747.4" cy="282.9" r="3.10" fill="#bd6b20" opacity="0.25"/><circle cx="785.4" cy="283.3" r="1.89" fill="#bd6b20" opacity="0.26"/><circle cx="821.0" cy="284.9" r="3.77" fill="#bd6b20" opacity="0.21"/><circle cx="858.9" cy="282.7" r="3.45" fill="#bd6b20" opacity="0.21"/><circle cx="891.6" cy="279.8" r="2.53" fill="#bd6b20" opacity="0.15"/><circle cx="930.6" cy="283.1" r="3.08" fill="#bd6b20" opacity="0.20"/><circle cx="963.6" cy="280.3" r="1.86" fill="#bd6b20" opacity="0.22"/><circle cx="999.2" cy="279.8" r="2.97" fill="#bd6b20" opacity="0.25"/><circle cx="1035.7" cy="280.6" r="3.05" fill="#bd6b20" opacity="0.26"/><circle cx="1071.8" cy="284.5" r="2.73" fill="#bd6b20" opacity="0.20"/><circle cx="1111.8" cy="281.6" r="1.87" fill="#bd6b20" opacity="0.25"/><circle cx="1143.2" cy="280.2" r="1.93" fill="#bd6b20" opacity="0.30"/><circle cx="1183.4" cy="282.3" r="1.87" fill="#bd6b20" opacity="0.25"/><circle cx="32.6" cy="315.4" r="3.66" fill="#bd6b20" opacity="0.19"/><circle cx="66.2" cy="319.4" r="2.20" fill="#bd6b20" opacity="0.17"/><circle cx="103.0" cy="320.1" r="3.85" fill="#bd6b20" opacity="0.31"/><circle cx="135.3" cy="317.8" r="3.26" fill="#bd6b20" opacity="0.25"/><circle cx="173.7" cy="317.0" r="3.17" fill="#bd6b20" opacity="0.23"/><circle cx="208.8" cy="317.1" r="3.88" fill="#bd6b20" opacity="0.20"/><circle cx="244.9" cy="317.1" r="3.35" fill="#bd6b20" opacity="0.28"/><circle cx="281.4" cy="317.1" r="3.88" fill="#bd6b20" opacity="0.26"/><circle cx="316.6" cy="320.8" r="2.39" fill="#bd6b20" opacity="0.20"/><circle cx="353.0" cy="318.2" r="2.63" fill="#bd6b20" opacity="0.18"/><circle cx="392.6" cy="320.9" r="3.03" fill="#bd6b20" opacity="0.26"/><circle cx="428.3" cy="315.1" r="3.64" fill="#bd6b20" opacity="0.24"/><circle cx="460.7" cy="318.1" r="1.85" fill="#bd6b20" opacity="0.16"/><circle cx="496.6" cy="316.8" r="2.37" fill="#bd6b20" opacity="0.33"/><circle cx="532.2" cy="317.7" r="3.17" fill="#bd6b20" opacity="0.15"/><circle cx="571.9" cy="319.7" r="3.24" fill="#bd6b20" opacity="0.27"/><circle cx="607.5" cy="317.0" r="2.75" fill="#bd6b20" opacity="0.20"/><circle cx="643.0" cy="315.7" r="3.19" fill="#bd6b20" opacity="0.20"/><circle cx="678.6" cy="317.2" r="2.51" fill="#bd6b20" opacity="0.36"/><circle cx="712.0" cy="318.5" r="2.66" fill="#bd6b20" opacity="0.19"/><circle cx="748.1" cy="317.1" r="2.82" fill="#bd6b20" opacity="0.23"/><circle cx="784.6" cy="320.6" r="2.36" fill="#bd6b20" opacity="0.28"/><circle cx="822.2" cy="318.3" r="1.83" fill="#bd6b20" opacity="0.24"/><circle cx="856.3" cy="320.7" r="3.65" fill="#bd6b20" opacity="0.16"/><circle cx="893.8" cy="319.8" r="3.33" fill="#bd6b20" opacity="0.22"/><circle cx="929.9" cy="315.5" r="2.13" fill="#bd6b20" opacity="0.23"/><circle cx="965.1" cy="319.2" r="3.20" fill="#bd6b20" opacity="0.29"/><circle cx="1001.5" cy="319.1" r="3.74" fill="#bd6b20" opacity="0.19"/><circle cx="1036.2" cy="318.0" r="3.78" fill="#bd6b20" opacity="0.32"/><circle cx="1071.7" cy="315.9" r="1.72" fill="#bd6b20" opacity="0.29"/><circle cx="1107.1" cy="316.4" r="2.47" fill="#bd6b20" opacity="0.33"/><circle cx="1147.5" cy="319.7" r="3.14" fill="#bd6b20" opacity="0.27"/><circle cx="1180.4" cy="318.9" r="3.16" fill="#bd6b20" opacity="0.16"/><circle cx="29.1" cy="355.3" r="2.42" fill="#bd6b20" opacity="0.17"/><circle cx="69.0" cy="353.4" r="2.08" fill="#bd6b20" opacity="0.21"/><circle cx="104.2" cy="353.0" r="2.97" fill="#bd6b20" opacity="0.21"/><circle cx="139.1" cy="354.9" r="2.84" fill="#bd6b20" opacity="0.27"/><circle cx="175.8" cy="354.1" r="2.32" fill="#bd6b20" opacity="0.30"/><circle cx="211.6" cy="355.2" r="2.31" fill="#bd6b20" opacity="0.33"/><circle cx="246.4" cy="351.3" r="2.17" fill="#bd6b20" opacity="0.29"/><circle cx="281.6" cy="352.5" r="2.70" fill="#bd6b20" opacity="0.20"/><circle cx="317.6" cy="355.1" r="2.38" fill="#bd6b20" opacity="0.36"/><circle cx="353.8" cy="352.4" r="2.76" fill="#bd6b20" opacity="0.19"/><circle cx="392.0" cy="355.9" r="2.54" fill="#bd6b20" opacity="0.29"/><circle cx="427.1" cy="353.5" r="3.79" fill="#bd6b20" opacity="0.31"/><circle cx="464.1" cy="354.6" r="2.96" fill="#bd6b20" opacity="0.23"/><circle cx="496.1" cy="351.8" r="2.32" fill="#bd6b20" opacity="0.31"/><circle cx="535.7" cy="353.1" r="3.15" fill="#bd6b20" opacity="0.36"/><circle cx="572.8" cy="353.9" r="3.06" fill="#bd6b20" opacity="0.31"/><circle cx="606.1" cy="353.2" r="2.44" fill="#bd6b20" opacity="0.16"/><circle cx="642.7" cy="355.9" r="2.36" fill="#bd6b20" opacity="0.34"/><circle cx="675.4" cy="354.1" r="2.38" fill="#bd6b20" opacity="0.17"/><circle cx="712.0" cy="351.2" r="1.69" fill="#bd6b20" opacity="0.36"/><circle cx="749.1" cy="352.2" r="3.96" fill="#bd6b20" opacity="0.17"/><circle cx="783.8" cy="356.7" r="2.50" fill="#bd6b20" opacity="0.28"/><circle cx="823.6" cy="355.9" r="3.07" fill="#bd6b20" opacity="0.30"/><circle cx="858.5" cy="351.8" r="3.70" fill="#bd6b20" opacity="0.30"/><circle cx="892.3" cy="352.7" r="2.43" fill="#bd6b20" opacity="0.25"/><circle cx="928.1" cy="354.3" r="2.70" fill="#bd6b20" opacity="0.22"/><circle cx="963.8" cy="354.5" r="3.06" fill="#bd6b20" opacity="0.29"/><circle cx="1000.4" cy="354.5" r="2.47" fill="#bd6b20" opacity="0.31"/><circle cx="1035.9" cy="352.6" r="1.71" fill="#bd6b20" opacity="0.20"/><circle cx="1073.2" cy="355.2" r="2.70" fill="#bd6b20" opacity="0.27"/><circle cx="1109.4" cy="351.2" r="2.40" fill="#bd6b20" opacity="0.18"/><circle cx="1148.6" cy="356.3" r="2.87" fill="#bd6b20" opacity="0.26"/><circle cx="1182.1" cy="356.3" r="3.95" fill="#bd6b20" opacity="0.26"/><circle cx="28.2" cy="388.0" r="1.72" fill="#bd6b20" opacity="0.23"/><circle cx="63.0" cy="389.2" r="3.34" fill="#bd6b20" opacity="0.18"/><circle cx="100.5" cy="391.2" r="3.07" fill="#bd6b20" opacity="0.32"/><circle cx="135.7" cy="392.6" r="3.56" fill="#bd6b20" opacity="0.32"/><circle cx="176.1" cy="387.2" r="3.61" fill="#bd6b20" opacity="0.24"/><circle cx="210.4" cy="387.4" r="1.61" fill="#bd6b20" opacity="0.26"/><circle cx="243.1" cy="387.0" r="2.89" fill="#bd6b20" opacity="0.26"/><circle cx="283.6" cy="392.6" r="3.08" fill="#bd6b20" opacity="0.24"/><circle cx="315.8" cy="391.9" r="1.82" fill="#bd6b20" opacity="0.26"/><circle cx="353.0" cy="391.5" r="3.25" fill="#bd6b20" opacity="0.16"/><circle cx="390.2" cy="389.3" r="3.04" fill="#bd6b20" opacity="0.16"/><circle cx="425.3" cy="389.2" r="2.42" fill="#bd6b20" opacity="0.23"/><circle cx="461.4" cy="388.0" r="3.84" fill="#bd6b20" opacity="0.36"/><circle cx="496.1" cy="387.3" r="2.34" fill="#bd6b20" opacity="0.32"/><circle cx="532.1" cy="392.1" r="1.70" fill="#bd6b20" opacity="0.24"/><circle cx="571.1" cy="387.5" r="2.34" fill="#bd6b20" opacity="0.21"/><circle cx="608.8" cy="391.4" r="2.00" fill="#bd6b20" opacity="0.25"/><circle cx="642.1" cy="391.4" r="3.44" fill="#bd6b20" opacity="0.35"/><circle cx="680.6" cy="389.1" r="2.15" fill="#bd6b20" opacity="0.18"/><circle cx="715.1" cy="387.9" r="2.15" fill="#bd6b20" opacity="0.27"/><circle cx="748.2" cy="388.1" r="3.53" fill="#bd6b20" opacity="0.22"/><circle cx="785.8" cy="392.2" r="3.62" fill="#bd6b20" opacity="0.17"/><circle cx="820.3" cy="388.0" r="3.87" fill="#bd6b20" opacity="0.19"/><circle cx="860.7" cy="388.9" r="3.56" fill="#bd6b20" opacity="0.22"/><circle cx="891.2" cy="389.2" r="2.94" fill="#bd6b20" opacity="0.36"/><circle cx="930.5" cy="388.6" r="1.86" fill="#bd6b20" opacity="0.18"/><circle cx="965.4" cy="391.3" r="2.02" fill="#bd6b20" opacity="0.35"/><circle cx="1004.7" cy="387.4" r="1.64" fill="#bd6b20" opacity="0.23"/><circle cx="1039.7" cy="389.5" r="2.18" fill="#bd6b20" opacity="0.18"/><circle cx="1072.1" cy="392.5" r="3.62" fill="#bd6b20" opacity="0.36"/><circle cx="1109.1" cy="392.1" r="3.79" fill="#bd6b20" opacity="0.19"/><circle cx="1143.5" cy="390.6" r="2.58" fill="#bd6b20" opacity="0.23"/><circle cx="1179.6" cy="391.3" r="2.00" fill="#bd6b20" opacity="0.19"/><circle cx="28.1" cy="428.4" r="1.91" fill="#bd6b20" opacity="0.28"/><circle cx="65.7" cy="426.4" r="2.78" fill="#bd6b20" opacity="0.26"/><circle cx="102.6" cy="428.7" r="2.33" fill="#bd6b20" opacity="0.25"/><circle cx="135.5" cy="426.3" r="3.62" fill="#bd6b20" opacity="0.33"/><circle cx="177.0" cy="423.7" r="2.30" fill="#bd6b20" opacity="0.15"/><circle cx="209.6" cy="427.9" r="2.03" fill="#bd6b20" opacity="0.26"/><circle cx="247.3" cy="423.6" r="1.80" fill="#bd6b20" opacity="0.20"/><circle cx="283.0" cy="425.0" r="3.28" fill="#bd6b20" opacity="0.27"/><circle cx="316.3" cy="427.9" r="1.89" fill="#bd6b20" opacity="0.32"/><circle cx="353.1" cy="427.8" r="3.89" fill="#bd6b20" opacity="0.29"/><circle cx="390.7" cy="424.1" r="2.09" fill="#bd6b20" opacity="0.33"/><circle cx="427.0" cy="426.0" r="3.74" fill="#bd6b20" opacity="0.31"/><circle cx="463.1" cy="424.3" r="2.14" fill="#bd6b20" opacity="0.32"/><circle cx="497.1" cy="427.8" r="3.55" fill="#bd6b20" opacity="0.32"/><circle cx="534.6" cy="425.1" r="2.09" fill="#bd6b20" opacity="0.27"/><circle cx="569.5" cy="427.5" r="2.02" fill="#bd6b20" opacity="0.30"/><circle cx="605.9" cy="423.6" r="2.39" fill="#bd6b20" opacity="0.24"/><circle cx="643.9" cy="427.5" r="1.75" fill="#bd6b20" opacity="0.19"/><circle cx="680.1" cy="426.1" r="3.94" fill="#bd6b20" opacity="0.29"/><circle cx="713.9" cy="428.2" r="2.12" fill="#bd6b20" opacity="0.26"/><circle cx="751.7" cy="423.6" r="1.74" fill="#bd6b20" opacity="0.30"/><circle cx="786.6" cy="423.7" r="2.15" fill="#bd6b20" opacity="0.32"/><circle cx="822.2" cy="425.8" r="2.24" fill="#bd6b20" opacity="0.18"/><circle cx="860.9" cy="424.0" r="2.12" fill="#bd6b20" opacity="0.34"/><circle cx="895.2" cy="426.1" r="2.90" fill="#bd6b20" opacity="0.17"/><circle cx="930.1" cy="425.1" r="1.73" fill="#bd6b20" opacity="0.32"/><circle cx="966.9" cy="428.1" r="2.39" fill="#bd6b20" opacity="0.32"/><circle cx="1002.6" cy="427.0" r="3.18" fill="#bd6b20" opacity="0.18"/><circle cx="1035.6" cy="427.8" r="3.97" fill="#bd6b20" opacity="0.34"/><circle cx="1074.1" cy="427.1" r="2.85" fill="#bd6b20" opacity="0.23"/><circle cx="1110.1" cy="428.5" r="3.22" fill="#bd6b20" opacity="0.32"/><circle cx="1145.1" cy="423.1" r="2.27" fill="#bd6b20" opacity="0.28"/><circle cx="1182.0" cy="425.3" r="1.64" fill="#bd6b20" opacity="0.24"/><circle cx="31.9" cy="463.0" r="1.93" fill="#bd6b20" opacity="0.16"/><circle cx="66.9" cy="461.5" r="2.79" fill="#bd6b20" opacity="0.28"/><circle cx="102.6" cy="463.2" r="3.36" fill="#bd6b20" opacity="0.32"/><circle cx="138.0" cy="464.4" r="3.48" fill="#bd6b20" opacity="0.22"/><circle cx="174.0" cy="459.8" r="2.84" fill="#bd6b20" opacity="0.23"/><circle cx="209.2" cy="462.4" r="1.98" fill="#bd6b20" opacity="0.15"/><circle cx="243.2" cy="459.5" r="2.09" fill="#bd6b20" opacity="0.33"/><circle cx="283.8" cy="462.1" r="1.80" fill="#bd6b20" opacity="0.33"/><circle cx="317.8" cy="462.4" r="2.94" fill="#bd6b20" opacity="0.33"/><circle cx="355.6" cy="462.7" r="2.25" fill="#bd6b20" opacity="0.22"/><circle cx="388.9" cy="459.1" r="3.70" fill="#bd6b20" opacity="0.30"/><circle cx="427.8" cy="463.9" r="1.73" fill="#bd6b20" opacity="0.26"/><circle cx="459.2" cy="461.1" r="2.66" fill="#bd6b20" opacity="0.19"/><circle cx="498.5" cy="459.8" r="3.37" fill="#bd6b20" opacity="0.27"/><circle cx="532.5" cy="464.2" r="1.85" fill="#bd6b20" opacity="0.35"/><circle cx="569.2" cy="463.4" r="2.06" fill="#bd6b20" opacity="0.29"/><circle cx="607.9" cy="464.1" r="1.91" fill="#bd6b20" opacity="0.25"/><circle cx="644.6" cy="464.5" r="3.54" fill="#bd6b20" opacity="0.33"/><circle cx="678.7" cy="464.1" r="3.61" fill="#bd6b20" opacity="0.23"/><circle cx="714.2" cy="461.9" r="2.29" fill="#bd6b20" opacity="0.16"/><circle cx="747.8" cy="464.0" r="3.84" fill="#bd6b20" opacity="0.28"/><circle cx="788.2" cy="462.7" r="2.17" fill="#bd6b20" opacity="0.20"/><circle cx="819.4" cy="461.5" r="2.71" fill="#bd6b20" opacity="0.27"/><circle cx="857.6" cy="464.1" r="3.38" fill="#bd6b20" opacity="0.16"/><circle cx="894.1" cy="463.7" r="2.53" fill="#bd6b20" opacity="0.25"/><circle cx="927.2" cy="461.4" r="4.00" fill="#bd6b20" opacity="0.25"/><circle cx="965.4" cy="463.4" r="3.50" fill="#bd6b20" opacity="0.32"/><circle cx="1002.7" cy="464.6" r="3.77" fill="#bd6b20" opacity="0.19"/><circle cx="1038.0" cy="459.5" r="3.07" fill="#bd6b20" opacity="0.35"/><circle cx="1071.3" cy="460.6" r="3.26" fill="#bd6b20" opacity="0.29"/><circle cx="1111.8" cy="464.9" r="3.21" fill="#bd6b20" opacity="0.17"/><circle cx="1148.4" cy="459.5" r="2.93" fill="#bd6b20" opacity="0.16"/><circle cx="1184.6" cy="462.6" r="1.89" fill="#bd6b20" opacity="0.32"/><circle cx="30.0" cy="497.3" r="1.70" fill="#bd6b20" opacity="0.25"/><circle cx="67.2" cy="498.8" r="2.75" fill="#bd6b20" opacity="0.35"/><circle cx="103.8" cy="498.1" r="3.91" fill="#bd6b20" opacity="0.26"/><circle cx="135.8" cy="500.7" r="2.57" fill="#bd6b20" opacity="0.24"/><circle cx="172.7" cy="500.7" r="3.06" fill="#bd6b20" opacity="0.20"/><circle cx="210.5" cy="496.0" r="2.71" fill="#bd6b20" opacity="0.24"/><circle cx="245.1" cy="500.1" r="3.19" fill="#bd6b20" opacity="0.16"/><circle cx="280.5" cy="500.8" r="2.08" fill="#bd6b20" opacity="0.19"/><circle cx="320.6" cy="495.5" r="3.72" fill="#bd6b20" opacity="0.27"/><circle cx="354.0" cy="495.6" r="3.43" fill="#bd6b20" opacity="0.25"/><circle cx="391.9" cy="499.2" r="2.60" fill="#bd6b20" opacity="0.17"/><circle cx="427.3" cy="498.4" r="2.65" fill="#bd6b20" opacity="0.16"/><circle cx="463.7" cy="499.8" r="2.77" fill="#bd6b20" opacity="0.30"/><circle cx="495.7" cy="496.3" r="3.76" fill="#bd6b20" opacity="0.19"/><circle cx="534.8" cy="500.6" r="3.64" fill="#bd6b20" opacity="0.26"/><circle cx="572.2" cy="498.8" r="2.03" fill="#bd6b20" opacity="0.19"/><circle cx="603.1" cy="499.9" r="2.98" fill="#bd6b20" opacity="0.21"/><circle cx="640.1" cy="495.7" r="2.13" fill="#bd6b20" opacity="0.21"/><circle cx="676.5" cy="496.0" r="3.11" fill="#bd6b20" opacity="0.24"/><circle cx="712.5" cy="500.1" r="3.84" fill="#bd6b20" opacity="0.36"/><circle cx="749.4" cy="497.9" r="1.86" fill="#bd6b20" opacity="0.30"/><circle cx="785.2" cy="495.5" r="2.08" fill="#bd6b20" opacity="0.18"/><circle cx="820.3" cy="495.1" r="3.63" fill="#bd6b20" opacity="0.19"/><circle cx="857.4" cy="498.8" r="3.34" fill="#bd6b20" opacity="0.17"/><circle cx="894.6" cy="499.1" r="3.97" fill="#bd6b20" opacity="0.24"/><circle cx="929.1" cy="495.1" r="3.96" fill="#bd6b20" opacity="0.27"/><circle cx="963.7" cy="496.7" r="2.68" fill="#bd6b20" opacity="0.29"/><circle cx="1004.4" cy="499.4" r="3.60" fill="#bd6b20" opacity="0.22"/><circle cx="1039.5" cy="497.9" r="3.53" fill="#bd6b20" opacity="0.29"/><circle cx="1072.2" cy="496.0" r="2.74" fill="#bd6b20" opacity="0.21"/><circle cx="1109.5" cy="501.0" r="2.79" fill="#bd6b20" opacity="0.22"/><circle cx="1145.8" cy="496.8" r="1.65" fill="#bd6b20" opacity="0.29"/><circle cx="1179.3" cy="496.4" r="2.44" fill="#bd6b20" opacity="0.22"/><circle cx="30.3" cy="536.3" r="3.00" fill="#bd6b20" opacity="0.19"/><circle cx="65.7" cy="534.3" r="2.43" fill="#bd6b20" opacity="0.15"/><circle cx="103.8" cy="535.2" r="1.70" fill="#bd6b20" opacity="0.28"/><circle cx="137.8" cy="535.0" r="3.91" fill="#bd6b20" opacity="0.16"/><circle cx="174.2" cy="534.6" r="3.78" fill="#bd6b20" opacity="0.26"/><circle cx="211.3" cy="532.6" r="3.72" fill="#bd6b20" opacity="0.33"/><circle cx="243.9" cy="536.7" r="2.20" fill="#bd6b20" opacity="0.15"/><circle cx="284.0" cy="531.7" r="2.05" fill="#bd6b20" opacity="0.24"/><circle cx="316.1" cy="531.4" r="2.34" fill="#bd6b20" opacity="0.24"/><circle cx="354.8" cy="535.6" r="3.29" fill="#bd6b20" opacity="0.21"/><circle cx="389.9" cy="535.4" r="1.76" fill="#bd6b20" opacity="0.35"/><circle cx="427.6" cy="533.9" r="2.90" fill="#bd6b20" opacity="0.30"/><circle cx="463.8" cy="531.8" r="3.35" fill="#bd6b20" opacity="0.35"/><circle cx="499.8" cy="534.8" r="3.33" fill="#bd6b20" opacity="0.22"/><circle cx="533.0" cy="531.0" r="1.68" fill="#bd6b20" opacity="0.25"/><circle cx="567.5" cy="534.9" r="2.47" fill="#bd6b20" opacity="0.29"/><circle cx="608.7" cy="534.9" r="3.05" fill="#bd6b20" opacity="0.33"/><circle cx="643.4" cy="536.1" r="1.91" fill="#bd6b20" opacity="0.33"/><circle cx="676.2" cy="531.0" r="1.99" fill="#bd6b20" opacity="0.28"/><circle cx="714.7" cy="531.0" r="1.96" fill="#bd6b20" opacity="0.24"/><circle cx="750.5" cy="536.9" r="1.92" fill="#bd6b20" opacity="0.17"/><circle cx="784.5" cy="531.2" r="2.70" fill="#bd6b20" opacity="0.29"/><circle cx="824.5" cy="533.3" r="3.50" fill="#bd6b20" opacity="0.31"/><circle cx="855.9" cy="535.5" r="3.16" fill="#bd6b20" opacity="0.19"/><circle cx="895.9" cy="532.6" r="2.82" fill="#bd6b20" opacity="0.18"/><circle cx="928.5" cy="531.7" r="3.24" fill="#bd6b20" opacity="0.16"/><circle cx="968.8" cy="533.9" r="2.52" fill="#bd6b20" opacity="0.25"/><circle cx="999.6" cy="536.4" r="2.06" fill="#bd6b20" opacity="0.33"/><circle cx="1036.9" cy="532.9" r="1.73" fill="#bd6b20" opacity="0.24"/><circle cx="1073.6" cy="536.4" r="3.68" fill="#bd6b20" opacity="0.31"/><circle cx="1112.2" cy="535.7" r="1.80" fill="#bd6b20" opacity="0.30"/><circle cx="1147.6" cy="536.6" r="3.50" fill="#bd6b20" opacity="0.35"/><circle cx="1180.6" cy="536.1" r="3.83" fill="#bd6b20" opacity="0.30"/><circle cx="28.3" cy="569.0" r="3.62" fill="#bd6b20" opacity="0.25"/><circle cx="68.6" cy="567.1" r="3.19" fill="#bd6b20" opacity="0.33"/><circle cx="104.4" cy="568.8" r="3.90" fill="#bd6b20" opacity="0.20"/><circle cx="136.4" cy="569.9" r="2.33" fill="#bd6b20" opacity="0.34"/><circle cx="171.9" cy="571.7" r="2.96" fill="#bd6b20" opacity="0.15"/><circle cx="208.0" cy="569.0" r="1.86" fill="#bd6b20" opacity="0.16"/><circle cx="244.8" cy="571.4" r="3.84" fill="#bd6b20" opacity="0.32"/><circle cx="279.3" cy="568.2" r="2.22" fill="#bd6b20" opacity="0.32"/><circle cx="319.7" cy="571.2" r="3.11" fill="#bd6b20" opacity="0.23"/><circle cx="352.8" cy="569.1" r="2.02" fill="#bd6b20" opacity="0.17"/><circle cx="390.1" cy="571.2" r="3.71" fill="#bd6b20" opacity="0.36"/><circle cx="423.8" cy="572.6" r="2.40" fill="#bd6b20" opacity="0.32"/><circle cx="464.5" cy="567.3" r="1.77" fill="#bd6b20" opacity="0.26"/><circle cx="496.9" cy="570.9" r="2.18" fill="#bd6b20" opacity="0.26"/><circle cx="536.3" cy="571.6" r="2.03" fill="#bd6b20" opacity="0.33"/><circle cx="572.0" cy="567.7" r="3.57" fill="#bd6b20" opacity="0.24"/><circle cx="607.7" cy="567.2" r="1.92" fill="#bd6b20" opacity="0.20"/><circle cx="640.8" cy="567.5" r="2.59" fill="#bd6b20" opacity="0.29"/><circle cx="676.4" cy="569.6" r="2.42" fill="#bd6b20" opacity="0.17"/><circle cx="712.3" cy="570.5" r="2.79" fill="#bd6b20" opacity="0.19"/><circle cx="748.8" cy="568.9" r="2.08" fill="#bd6b20" opacity="0.26"/><circle cx="786.6" cy="567.9" r="3.83" fill="#bd6b20" opacity="0.23"/><circle cx="824.7" cy="572.1" r="2.75" fill="#bd6b20" opacity="0.31"/><circle cx="857.6" cy="572.4" r="3.33" fill="#bd6b20" opacity="0.19"/><circle cx="896.8" cy="567.5" r="2.19" fill="#bd6b20" opacity="0.26"/><circle cx="927.0" cy="571.5" r="1.90" fill="#bd6b20" opacity="0.21"/><circle cx="964.0" cy="570.6" r="2.61" fill="#bd6b20" opacity="0.17"/><circle cx="1003.7" cy="569.4" r="2.38" fill="#bd6b20" opacity="0.36"/><circle cx="1039.6" cy="568.3" r="2.78" fill="#bd6b20" opacity="0.19"/><circle cx="1071.7" cy="571.7" r="2.80" fill="#bd6b20" opacity="0.31"/><circle cx="1111.6" cy="572.8" r="2.35" fill="#bd6b20" opacity="0.29"/><circle cx="1147.5" cy="568.9" r="2.55" fill="#bd6b20" opacity="0.19"/><circle cx="1180.0" cy="567.4" r="2.16" fill="#bd6b20" opacity="0.33"/><circle cx="30.8" cy="603.3" r="3.86" fill="#bd6b20" opacity="0.19"/><circle cx="65.3" cy="608.3" r="2.62" fill="#bd6b20" opacity="0.26"/><circle cx="100.7" cy="605.0" r="3.09" fill="#bd6b20" opacity="0.35"/><circle cx="138.6" cy="607.9" r="2.78" fill="#bd6b20" opacity="0.23"/><circle cx="174.6" cy="606.2" r="3.25" fill="#bd6b20" opacity="0.18"/><circle cx="211.4" cy="604.4" r="1.72" fill="#bd6b20" opacity="0.18"/><circle cx="248.9" cy="608.0" r="2.91" fill="#bd6b20" opacity="0.15"/><circle cx="283.1" cy="606.5" r="2.25" fill="#bd6b20" opacity="0.19"/><circle cx="319.1" cy="607.3" r="2.48" fill="#bd6b20" opacity="0.29"/><circle cx="353.3" cy="608.1" r="2.31" fill="#bd6b20" opacity="0.16"/><circle cx="387.0" cy="606.8" r="2.17" fill="#bd6b20" opacity="0.20"/><circle cx="426.9" cy="603.1" r="1.61" fill="#bd6b20" opacity="0.36"/><circle cx="463.6" cy="603.4" r="3.74" fill="#bd6b20" opacity="0.19"/><circle cx="498.9" cy="606.3" r="3.50" fill="#bd6b20" opacity="0.19"/><circle cx="535.4" cy="607.2" r="3.30" fill="#bd6b20" opacity="0.31"/><circle cx="572.1" cy="603.5" r="3.01" fill="#bd6b20" opacity="0.15"/><circle cx="604.9" cy="607.3" r="1.96" fill="#bd6b20" opacity="0.29"/><circle cx="642.1" cy="607.6" r="1.96" fill="#bd6b20" opacity="0.19"/><circle cx="677.7" cy="605.1" r="3.61" fill="#bd6b20" opacity="0.31"/><circle cx="714.1" cy="603.7" r="2.96" fill="#bd6b20" opacity="0.18"/><circle cx="747.9" cy="605.6" r="2.08" fill="#bd6b20" opacity="0.34"/><circle cx="784.4" cy="608.4" r="1.74" fill="#bd6b20" opacity="0.29"/><circle cx="820.1" cy="608.4" r="3.11" fill="#bd6b20" opacity="0.18"/><circle cx="859.7" cy="604.0" r="1.79" fill="#bd6b20" opacity="0.30"/><circle cx="892.1" cy="605.0" r="2.09" fill="#bd6b20" opacity="0.27"/><circle cx="929.2" cy="604.9" r="1.83" fill="#bd6b20" opacity="0.25"/><circle cx="965.7" cy="607.6" r="2.26" fill="#bd6b20" opacity="0.21"/><circle cx="1002.5" cy="605.7" r="3.24" fill="#bd6b20" opacity="0.27"/><circle cx="1040.1" cy="604.1" r="2.28" fill="#bd6b20" opacity="0.35"/><circle cx="1075.2" cy="603.5" r="2.66" fill="#bd6b20" opacity="0.20"/><circle cx="1110.7" cy="608.3" r="1.79" fill="#bd6b20" opacity="0.17"/><circle cx="1144.2" cy="603.4" r="1.94" fill="#bd6b20" opacity="0.26"/><circle cx="1179.2" cy="608.3" r="2.02" fill="#bd6b20" opacity="0.21"/><circle cx="29.3" cy="644.1" r="3.71" fill="#bd6b20" opacity="0.29"/><circle cx="65.4" cy="641.9" r="3.88" fill="#bd6b20" opacity="0.23"/><circle cx="100.5" cy="642.9" r="2.91" fill="#bd6b20" opacity="0.31"/><circle cx="137.5" cy="641.3" r="3.56" fill="#bd6b20" opacity="0.33"/><circle cx="174.8" cy="641.3" r="3.44" fill="#bd6b20" opacity="0.31"/><circle cx="210.9" cy="639.1" r="2.83" fill="#bd6b20" opacity="0.34"/><circle cx="247.5" cy="643.5" r="3.76" fill="#bd6b20" opacity="0.16"/><circle cx="280.1" cy="643.8" r="2.63" fill="#bd6b20" opacity="0.16"/><circle cx="320.6" cy="643.7" r="3.28" fill="#bd6b20" opacity="0.34"/><circle cx="355.7" cy="640.9" r="2.30" fill="#bd6b20" opacity="0.21"/><circle cx="391.5" cy="642.5" r="3.69" fill="#bd6b20" opacity="0.29"/><circle cx="424.9" cy="643.6" r="2.12" fill="#bd6b20" opacity="0.35"/><circle cx="462.6" cy="644.0" r="3.20" fill="#bd6b20" opacity="0.23"/><circle cx="496.7" cy="640.9" r="3.08" fill="#bd6b20" opacity="0.24"/><circle cx="532.0" cy="640.7" r="3.62" fill="#bd6b20" opacity="0.30"/><circle cx="571.3" cy="645.0" r="3.98" fill="#bd6b20" opacity="0.32"/><circle cx="606.8" cy="641.2" r="2.58" fill="#bd6b20" opacity="0.29"/><circle cx="644.5" cy="644.9" r="2.69" fill="#bd6b20" opacity="0.18"/><circle cx="679.2" cy="641.1" r="2.05" fill="#bd6b20" opacity="0.32"/><circle cx="713.6" cy="639.5" r="2.84" fill="#bd6b20" opacity="0.23"/><circle cx="749.6" cy="640.4" r="2.14" fill="#bd6b20" opacity="0.30"/><circle cx="784.7" cy="641.6" r="2.88" fill="#bd6b20" opacity="0.22"/><circle cx="819.4" cy="642.5" r="2.89" fill="#bd6b20" opacity="0.20"/><circle cx="855.9" cy="641.4" r="3.25" fill="#bd6b20" opacity="0.25"/><circle cx="895.6" cy="641.3" r="1.88" fill="#bd6b20" opacity="0.35"/><circle cx="931.4" cy="639.8" r="1.64" fill="#bd6b20" opacity="0.16"/><circle cx="967.8" cy="640.6" r="3.10" fill="#bd6b20" opacity="0.27"/><circle cx="1001.4" cy="639.9" r="2.07" fill="#bd6b20" opacity="0.28"/><circle cx="1040.3" cy="643.9" r="2.65" fill="#bd6b20" opacity="0.35"/><circle cx="1076.3" cy="642.0" r="2.70" fill="#bd6b20" opacity="0.36"/><circle cx="1109.9" cy="643.3" r="2.56" fill="#bd6b20" opacity="0.33"/><circle cx="1146.1" cy="639.1" r="2.43" fill="#bd6b20" opacity="0.29"/><circle cx="1182.4" cy="643.9" r="1.88" fill="#bd6b20" opacity="0.28"/><circle cx="270.4" cy="264.9" r="220" fill="url(#glow)" opacity="0.9"/>
  <g opacity="0.85" transform="translate(1020, 495)">
        <circle r="60" fill="#bd6b20" opacity="0.18"/>
        <path d="M -34 6 Q -10 -22 14 6 Q 34 24 14 26 L -22 26 Q -38 24 -34 6 Z" fill="none" stroke="#9a5518" stroke-width="3" stroke-linejoin="round"/>
      </g>
  <g transform="translate(80, 90)">
    <rect x="0" y="0" rx="20" ry="20" width="134" height="38" fill="#bd6b20" opacity="0.18" stroke="#bd6b20" stroke-width="1.5"/>
    <text x="67" y="25" font-family="ui-sans-serif, Inter, sans-serif" font-weight="700" font-size="14" letter-spacing="2.5" fill="#bd6b20" text-anchor="middle">CASE STUDY</text>
  </g>
  <text x="80" y="515" font-family="ui-sans-serif, -apple-system, Segoe UI, Inter, sans-serif" font-weight="800" font-size="44" fill="#12100e" opacity="0.98"><tspan x="80" dy="0">One-Time Foreclosure in</tspan><tspan x="80" dy="56">the Textile Sector</tspan></text>
  <rect x="0" y="669" width="1200" height="6" fill="url(#gold)"/>
</svg>