<?xml version="1.0" encoding="UTF-8"?>
<svg xmlns="http://www.w3.org/2000/svg" viewBox="0 0 1200 675" width="1200" height="675" role="img" aria-label="PDR COURT: We strictly adhere to higher ethical standards">
  <defs>
    <linearGradient id="bg" x1="0%" y1="0%" x2="100%" y2="100%">
      <stop offset="0%" stop-color="#0c0a09"/>
      <stop offset="100%" stop-color="#291813"/>
    </linearGradient>
    <linearGradient id="gold" x1="0%" y1="0%" x2="100%" y2="100%">
      <stop offset="0%" stop-color="#d4862a"/>
      <stop offset="100%" stop-color="#bd6b20"/>
    </linearGradient>
    <radialGradient id="glow" cx="50%" cy="50%" r="50%">
      <stop offset="0%" stop-color="#d4862a" stop-opacity="0.45"/>
      <stop offset="100%" stop-color="#d4862a" stop-opacity="0"/>
    </radialGradient>
  </defs>
  <rect width="1200" height="675" fill="url(#bg)"/>
  <polygon points="-50,195.9 -20,202.1 10,209.8 40,218.8 70,229.1 100,240.3 130,252.1 160,264.4 190,276.9 220,289.2 250,301.1 280,312.3 310,322.6 340,331.7 370,339.4 400,345.7 430,350.2 460,353.0 490,353.9 520,352.9 550,350.1 580,345.6 610,339.3 640,331.5 670,322.4 700,312.1 730,300.9 760,289.0 790,276.6 820,264.2 850,251.9 880,240.1 910,228.9 940,218.7 970,209.6 1000,201.9 1030,195.8 1060,191.4 1090,188.7 1120,187.9 1150,188.9 1180,191.8 1210,196.5 1240,202.8 1250,725 -50,725" fill="#d4862a" opacity="0.08"/><polygon points="-50,418.8 -20,415.8 10,411.2 40,405.0 70,397.3 100,388.4 130,378.5 160,367.7 190,356.3 220,344.7 250,332.9 280,321.3 310,310.2 340,299.8 370,290.3 400,282.0 430,275.0 460,269.5 490,265.6 520,263.4 550,263.0 580,264.3 610,267.4 640,272.2 670,278.5 700,286.2 730,295.1 760,305.1 790,315.9 820,327.3 850,339.0 880,350.8 910,362.4 940,373.5 970,383.8 1000,393.2 1030,401.5 1060,408.4 1090,413.8 1120,417.6 1150,419.7 1180,420.0 1210,418.6 1240,415.4 1250,725 -50,725" fill="#d4862a" opacity="0.13"/><polygon points="-50,388.9 -20,397.5 10,406.9 40,416.8 70,427.0 100,437.2 130,447.3 160,456.9 190,466.0 220,474.2 250,481.5 280,487.5 310,492.3 340,495.7 370,497.6 400,497.9 430,496.7 460,494.0 490,489.9 520,484.4 550,477.7 580,469.9 610,461.2 640,451.8 670,441.9 700,431.7 730,421.5 760,411.4 790,401.8 820,392.8 850,384.6 880,377.4 910,371.4 940,366.7 970,363.4 1000,361.6 1030,361.3 1060,362.6 1090,365.4 1120,369.6 1150,375.2 1180,381.9 1210,389.8 1240,398.5 1250,725 -50,725" fill="#d4862a" opacity="0.18"/><polygon points="-50,470.1 -20,475.9 10,481.6 40,487.0 70,492.1 100,496.8 130,500.8 160,504.2 190,506.9 220,508.8 250,509.8 280,510.0 310,509.3 340,507.7 370,505.4 400,502.2 430,498.4 460,494.0 490,489.0 520,483.7 550,478.1 580,472.3 610,466.6 640,460.9 670,455.5 700,450.4 730,445.8 760,441.7 790,438.4 820,435.7 850,433.9 880,432.9 910,432.8 940,433.6 970,435.2 1000,437.6 1030,440.7 1060,444.6 1090,449.1 1120,454.0 1150,459.4 1180,465.0 1210,470.8 1240,476.5 1250,725 -50,725" fill="#d4862a" opacity="0.23"/><circle cx="300.0" cy="189.0" r="160" fill="url(#glow)"/>
  <g opacity="0.85" transform="translate(1020, 495)">
        <polygon points="0,-50 43,25 -43,25" fill="none" stroke="#d4862a" stroke-width="2"/>
        <polygon points="0,-30 26,15 -26,15" fill="#bd6b20" opacity="0.4"/>
      </g>
  <g transform="translate(80, 90)">
    <rect x="0" y="0" rx="20" ry="20" width="145" height="38" fill="#d4862a" opacity="0.18" stroke="#d4862a" stroke-width="1.5"/>
    <text x="72.5" y="25" font-family="ui-sans-serif, Inter, sans-serif" font-weight="700" font-size="14" letter-spacing="2.5" fill="#d4862a" text-anchor="middle">INFORMATION</text>
  </g>
  <text x="80" y="465" font-family="ui-sans-serif, -apple-system, Segoe UI, Inter, sans-serif" font-weight="800" font-size="44" fill="#faf8f5" opacity="0.98"><tspan x="80" dy="0">PDR COURT: We strictly</tspan><tspan x="80" dy="56">adhere to higher ethical</tspan><tspan x="80" dy="56">standards</tspan></text>
  <rect x="0" y="669" width="1200" height="6" fill="url(#gold)"/>
</svg>