<?xml version="1.0" encoding="UTF-8"?>
<svg xmlns="http://www.w3.org/2000/svg" viewBox="0 0 1200 675" width="1200" height="675" role="img" aria-label="Dispute Resolution Centre | Debt Recovery through Arbitration | Employee Mediation">
  <defs>
    <linearGradient id="bg" x1="0%" y1="0%" x2="100%" y2="100%">
      <stop offset="0%" stop-color="#532d15"/>
      <stop offset="100%" stop-color="#bd6b20"/>
    </linearGradient>
    <linearGradient id="gold" x1="0%" y1="0%" x2="100%" y2="100%">
      <stop offset="0%" stop-color="#e09440"/>
      <stop offset="100%" stop-color="#fdf6ee"/>
    </linearGradient>
    <radialGradient id="glow" cx="50%" cy="50%" r="50%">
      <stop offset="0%" stop-color="#e09440" stop-opacity="0.45"/>
      <stop offset="100%" stop-color="#e09440" stop-opacity="0"/>
    </radialGradient>
  </defs>
  <rect width="1200" height="675" fill="url(#bg)"/>
  <polygon points="-50,238.3 -20,234.4 10,231.9 40,230.8 70,231.2 100,233.0 130,236.3 160,240.9 190,246.7 220,253.7 250,261.6 280,270.3 310,279.6 340,289.2 370,299.0 400,308.8 430,318.2 460,327.2 490,335.5 520,342.9 550,349.2 580,354.4 610,358.2 640,360.7 670,361.7 700,361.2 730,359.3 760,355.9 790,351.3 820,345.4 850,338.3 880,330.4 910,321.6 940,312.3 970,302.7 1000,292.9 1030,283.1 1060,273.7 1090,264.8 1120,256.5 1150,249.2 1180,242.9 1210,237.8 1240,234.1 1250,725 -50,725" fill="#e09440" opacity="0.08"/><polygon points="-50,413.2 -20,415.1 10,415.5 40,414.5 70,412.2 100,408.5 130,403.6 160,397.5 190,390.5 220,382.6 250,374.1 280,365.0 310,355.8 340,346.4 370,337.2 400,328.4 430,320.2 460,312.6 490,306.0 520,300.5 550,296.1 580,293.0 610,291.3 640,290.9 670,292.0 700,294.4 730,298.1 760,303.1 790,309.2 820,316.3 850,324.2 880,332.8 910,341.8 940,351.1 970,360.5 1000,369.6 1030,378.4 1060,386.7 1090,394.1 1120,400.7 1150,406.2 1180,410.5 1210,413.5 1240,415.2 1250,725 -50,725" fill="#e09440" opacity="0.13"/><polygon points="-50,409.2 -20,403.6 10,398.4 40,393.7 70,389.6 100,386.2 130,383.6 160,381.8 190,380.9 220,380.9 250,381.8 280,383.6 310,386.2 340,389.6 370,393.7 400,398.4 430,403.6 460,409.2 490,415.1 520,421.0 550,427.0 580,432.9 610,438.4 640,443.6 670,448.3 700,452.3 730,455.7 760,458.2 790,460.0 820,460.8 850,460.8 880,459.8 910,458.0 940,455.3 970,451.9 1000,447.8 1030,443.0 1060,437.8 1090,432.2 1120,426.3 1150,420.3 1180,414.4 1210,408.5 1240,403.0 1250,725 -50,725" fill="#e09440" opacity="0.18"/><polygon points="-50,415.0 -20,418.8 10,423.6 40,429.4 70,436.0 100,443.3 130,451.1 160,459.2 190,467.5 220,475.7 250,483.8 280,491.4 310,498.5 340,504.8 370,510.3 400,514.8 430,518.2 460,520.4 490,521.4 520,521.2 550,519.7 580,517.0 610,513.2 640,508.3 670,502.5 700,495.9 730,488.5 760,480.7 790,472.6 820,464.3 850,456.1 880,448.0 910,440.4 940,433.4 970,427.1 1000,421.7 1030,417.2 1060,413.9 1090,411.7 1120,410.8 1150,411.1 1180,412.7 1210,415.4 1240,419.3 1250,725 -50,725" fill="#e09440" opacity="0.23"/><circle cx="300.0" cy="189.0" r="160" fill="url(#glow)"/>
  <g opacity="0.85" transform="translate(1020, 495)">
        <polygon points="0,-50 43,25 -43,25" fill="none" stroke="#e09440" stroke-width="2"/>
        <polygon points="0,-30 26,15 -26,15" fill="#fdf6ee" opacity="0.4"/>
      </g>
  <g transform="translate(80, 90)">
    <rect x="0" y="0" rx="20" ry="20" width="145" height="38" fill="#e09440" opacity="0.18" stroke="#e09440" stroke-width="1.5"/>
    <text x="72.5" y="25" font-family="ui-sans-serif, Inter, sans-serif" font-weight="700" font-size="14" letter-spacing="2.5" fill="#e09440" text-anchor="middle">INFORMATION</text>
  </g>
  <text x="80" y="465" font-family="ui-sans-serif, -apple-system, Segoe UI, Inter, sans-serif" font-weight="800" font-size="44" fill="#faf8f5" opacity="0.98"><tspan x="80" dy="0">Dispute Resolution Centre</tspan><tspan x="80" dy="56">| Debt Recovery through</tspan><tspan x="80" dy="56">Arbitration | Employee</tspan></text>
  <rect x="0" y="669" width="1200" height="6" fill="url(#gold)"/>
</svg>