<?xml version="1.0" encoding="UTF-8"?>
<svg xmlns="http://www.w3.org/2000/svg" viewBox="0 0 1200 675" width="1200" height="675" role="img" aria-label="Resolving a Payment Dispute: A Case Study in Efficient Commercial Conflict Resolution with PDR COURT">
  <defs>
    <linearGradient id="bg" x1="0%" y1="0%" x2="100%" y2="100%">
      <stop offset="0%" stop-color="#12100e"/>
      <stop offset="100%" stop-color="#1c1917"/>
    </linearGradient>
    <linearGradient id="gold" x1="0%" y1="0%" x2="100%" y2="100%">
      <stop offset="0%" stop-color="#bd6b20"/>
      <stop offset="100%" stop-color="#e09440"/>
    </linearGradient>
    <radialGradient id="glow" cx="50%" cy="50%" r="50%">
      <stop offset="0%" stop-color="#bd6b20" stop-opacity="0.45"/>
      <stop offset="100%" stop-color="#bd6b20" stop-opacity="0"/>
    </radialGradient>
  </defs>
  <rect width="1200" height="675" fill="url(#bg)"/>
  <circle cx="840.0" cy="135.0" r="240" fill="url(#glow)" opacity="0.8"/><polygon points="537.3,386.3 567.7,447.1 506.9,447.1" fill="#faebd6" opacity="0.14"/><rect x="859.4" y="249.0" width="21.2" height="21.2" rx="4" transform="rotate(1.2 870.0 259.6)" fill="#bd6b20" opacity="0.34"/><polygon points="365.8,417.6 382.4,450.7 349.3,450.7" fill="#faebd6" opacity="0.31"/><circle cx="136.4" cy="511.5" r="8.1" fill="#e09440" opacity="0.19"/><polygon points="1088.0,458.3 1109.7,501.8 1066.2,501.8" fill="#faebd6" opacity="0.17"/><polygon points="1185.7,407.7 1208.6,453.6 1162.7,453.6" fill="#faebd6" opacity="0.25"/><rect x="838.2" y="270.8" width="38.6" height="38.6" rx="4" transform="rotate(224.3 857.4 290.1)" fill="#bd6b20" opacity="0.20"/><polygon points="121.9,357.9 153.2,420.5 90.6,420.5" fill="#faebd6" opacity="0.22"/><polygon points="126.2,233.6 148.2,277.5 104.2,277.5" fill="#faebd6" opacity="0.15"/><circle cx="648.5" cy="106.4" r="23.8" fill="#e09440" opacity="0.24"/><rect x="82.8" y="-6.3" width="16.3" height="16.3" rx="4" transform="rotate(97.5 91.0 1.8)" fill="#bd6b20" opacity="0.27"/><circle cx="1017.9" cy="423.4" r="14.4" fill="#e09440" opacity="0.23"/><rect x="91.8" y="287.4" width="24.4" height="24.4" rx="4" transform="rotate(43.4 104.0 299.6)" fill="#bd6b20" opacity="0.10"/><polygon points="389.2,190.2 412.9,237.5 365.6,237.5" fill="#faebd6" opacity="0.23"/><polygon points="255.2,133.7 267.1,157.4 243.3,157.4" fill="#faebd6" opacity="0.19"/><polygon points="11.3,431.9 23.2,455.8 -0.7,455.8" fill="#faebd6" opacity="0.29"/><circle cx="716.8" cy="75.7" r="7.0" fill="#e09440" opacity="0.20"/><rect x="642.4" y="68.4" width="22.3" height="22.3" rx="4" transform="rotate(195.2 653.6 79.6)" fill="#bd6b20" opacity="0.28"/><polygon points="1105.7,104.7 1112.8,118.9 1098.7,118.9" fill="#faebd6" opacity="0.23"/><rect x="411.7" y="503.9" width="24.5" height="24.5" rx="4" transform="rotate(244.9 423.9 516.2)" fill="#bd6b20" opacity="0.13"/><rect x="1084.2" y="40.3" width="38.1" height="38.1" rx="4" transform="rotate(207.2 1103.3 59.4)" fill="#bd6b20" opacity="0.25"/><polygon points="674.7,55.8 686.7,79.8 662.8,79.8" fill="#faebd6" opacity="0.23"/>
  <g opacity="0.85" transform="translate(1020, 495)">
        <circle r="60" fill="#bd6b20" opacity="0.18"/>
        <path d="M -34 6 Q -10 -22 14 6 Q 34 24 14 26 L -22 26 Q -38 24 -34 6 Z" fill="none" stroke="#e09440" stroke-width="3" stroke-linejoin="round"/>
      </g>
  <g transform="translate(80, 90)">
    <rect x="0" y="0" rx="20" ry="20" width="134" height="38" fill="#bd6b20" opacity="0.18" stroke="#bd6b20" stroke-width="1.5"/>
    <text x="67" y="25" font-family="ui-sans-serif, Inter, sans-serif" font-weight="700" font-size="14" letter-spacing="2.5" fill="#bd6b20" text-anchor="middle">CASE STUDY</text>
  </g>
  <text x="80" y="465" font-family="ui-sans-serif, -apple-system, Segoe UI, Inter, sans-serif" font-weight="800" font-size="44" fill="#faf8f5" opacity="0.98"><tspan x="80" dy="0">Resolving a Payment</tspan><tspan x="80" dy="56">Dispute: A Case Study in</tspan><tspan x="80" dy="56">Efficient Commercial</tspan></text>
  <rect x="0" y="669" width="1200" height="6" fill="url(#gold)"/>
</svg>