<?xml version="1.0" encoding="UTF-8"?>
<svg xmlns="http://www.w3.org/2000/svg" viewBox="0 0 1200 675" width="1200" height="675" role="img" aria-label="Resolving a Payment Dispute: A Case Study in Efficient Commercial Conflict Resolution with PDR COURT">
  <defs>
    <linearGradient id="bg" x1="0%" y1="0%" x2="100%" y2="100%">
      <stop offset="0%" stop-color="#faf8f5"/>
      <stop offset="100%" stop-color="#f4efe8"/>
    </linearGradient>
    <linearGradient id="gold" x1="0%" y1="0%" x2="100%" y2="100%">
      <stop offset="0%" stop-color="#bd6b20"/>
      <stop offset="100%" stop-color="#9a5518"/>
    </linearGradient>
    <radialGradient id="glow" cx="50%" cy="50%" r="50%">
      <stop offset="0%" stop-color="#bd6b20" stop-opacity="0.45"/>
      <stop offset="100%" stop-color="#bd6b20" stop-opacity="0"/>
    </radialGradient>
  </defs>
  <rect width="1200" height="675" fill="url(#bg)"/>
  <polygon points="898.0,183.6 919.6,59.4 1044.4,41.6 1100.0,154.8 1009.5,242.6" fill="#9a5518" opacity="0.14"/><polygon points="835.5,595.0 655.5,540.1 710.4,360.2 890.3,415.1" fill="#9a5518" opacity="0.06"/><polygon points="670.1,8.2 857.5,-62.3 824.9,135.3" fill="#9a5518" opacity="0.14"/><polygon points="1065.8,203.8 961.3,241.8 923.3,137.3 1027.8,99.3" fill="#9a5518" opacity="0.19"/><polygon points="812.8,406.5 708.9,577.3 612.9,401.9" fill="#9a5518" opacity="0.11"/><polygon points="19.3,193.5 108.8,82.2 220.0,171.7 130.5,283.0" fill="#9a5518" opacity="0.16"/><polygon points="1228.7,190.8 1054.7,169.2 1021.5,-3.0 1175.0,-87.8 1303.0,32.0" fill="#9a5518" opacity="0.12"/><polygon points="1033.1,600.1 808.9,589.8 929.9,400.7" fill="#9a5518" opacity="0.10"/><polygon points="1096.7,468.0 1268.7,504.2 1287.5,679.0 1127.0,750.9 1009.1,620.5" fill="#9a5518" opacity="0.08"/><polygon points="77.4,454.2 88.1,580.5 -26.7,526.6" fill="#9a5518" opacity="0.06"/><polygon points="344.4,345.8 378.5,412.6 325.5,465.7 258.6,431.7 270.3,357.6" fill="#9a5518" opacity="0.15"/><polygon points="1000.4,340.8 836.0,368.5 758.7,220.7 875.5,101.5 1024.9,175.8" fill="#9a5518" opacity="0.17"/><polygon points="1007.3,620.0 896.9,650.2 834.0,554.6 905.5,465.2 1012.6,505.6" fill="#9a5518" opacity="0.07"/><polygon points="553.6,27.8 489.5,243.2 274.2,179.1 338.3,-36.3" fill="#9a5518" opacity="0.11"/><circle cx="936.0" cy="202.5" r="180" fill="url(#glow)"/>
  <g opacity="0.85" transform="translate(1020, 495)">
        <circle r="60" fill="#bd6b20" opacity="0.18"/>
        <path d="M -34 6 Q -10 -22 14 6 Q 34 24 14 26 L -22 26 Q -38 24 -34 6 Z" fill="none" stroke="#9a5518" stroke-width="3" stroke-linejoin="round"/>
      </g>
  <g transform="translate(80, 90)">
    <rect x="0" y="0" rx="20" ry="20" width="134" height="38" fill="#bd6b20" opacity="0.18" stroke="#bd6b20" stroke-width="1.5"/>
    <text x="67" y="25" font-family="ui-sans-serif, Inter, sans-serif" font-weight="700" font-size="14" letter-spacing="2.5" fill="#bd6b20" text-anchor="middle">CASE STUDY</text>
  </g>
  <text x="80" y="465" font-family="ui-sans-serif, -apple-system, Segoe UI, Inter, sans-serif" font-weight="800" font-size="44" fill="#12100e" opacity="0.98"><tspan x="80" dy="0">Resolving a Payment</tspan><tspan x="80" dy="56">Dispute: A Case Study in</tspan><tspan x="80" dy="56">Efficient Commercial</tspan></text>
  <rect x="0" y="669" width="1200" height="6" fill="url(#gold)"/>
</svg>