<?xml version="1.0" encoding="UTF-8"?>
<svg xmlns="http://www.w3.org/2000/svg" viewBox="0 0 1200 675" width="1200" height="675" role="img" aria-label="Collaborate with PDR COURT for ADR Excellence and Innovation">
  <defs>
    <linearGradient id="bg" x1="0%" y1="0%" x2="100%" y2="100%">
      <stop offset="0%" stop-color="#12100e"/>
      <stop offset="100%" stop-color="#1c1917"/>
    </linearGradient>
    <linearGradient id="gold" x1="0%" y1="0%" x2="100%" y2="100%">
      <stop offset="0%" stop-color="#bd6b20"/>
      <stop offset="100%" stop-color="#e09440"/>
    </linearGradient>
    <radialGradient id="glow" cx="50%" cy="50%" r="50%">
      <stop offset="0%" stop-color="#bd6b20" stop-opacity="0.45"/>
      <stop offset="100%" stop-color="#bd6b20" stop-opacity="0"/>
    </radialGradient>
  </defs>
  <rect width="1200" height="675" fill="url(#bg)"/>
  <circle cx="28.6" cy="31.3" r="1.80" fill="#bd6b20" opacity="0.16"/><circle cx="66.4" cy="28.1" r="3.58" fill="#bd6b20" opacity="0.21"/><circle cx="101.9" cy="31.4" r="2.05" fill="#bd6b20" opacity="0.21"/><circle cx="140.0" cy="30.5" r="3.72" fill="#bd6b20" opacity="0.28"/><circle cx="175.8" cy="32.4" r="3.86" fill="#bd6b20" opacity="0.26"/><circle cx="210.5" cy="31.8" r="2.81" fill="#bd6b20" opacity="0.25"/><circle cx="244.8" cy="28.5" r="1.78" fill="#bd6b20" opacity="0.19"/><circle cx="283.1" cy="29.4" r="1.63" fill="#bd6b20" opacity="0.31"/><circle cx="318.9" cy="27.0" r="2.17" fill="#bd6b20" opacity="0.23"/><circle cx="353.8" cy="29.4" r="3.53" fill="#bd6b20" opacity="0.34"/><circle cx="388.9" cy="29.4" r="3.21" fill="#bd6b20" opacity="0.24"/><circle cx="424.3" cy="31.1" r="2.82" fill="#bd6b20" opacity="0.21"/><circle cx="462.0" cy="31.6" r="2.52" fill="#bd6b20" opacity="0.33"/><circle cx="498.2" cy="29.3" r="2.04" fill="#bd6b20" opacity="0.22"/><circle cx="532.1" cy="28.9" r="2.65" fill="#bd6b20" opacity="0.36"/><circle cx="569.7" cy="31.9" r="3.05" fill="#bd6b20" opacity="0.29"/><circle cx="604.0" cy="31.1" r="3.74" fill="#bd6b20" opacity="0.25"/><circle cx="641.0" cy="29.1" r="2.63" fill="#bd6b20" opacity="0.30"/><circle cx="680.3" cy="28.0" r="3.59" fill="#bd6b20" opacity="0.25"/><circle cx="714.8" cy="27.2" r="2.04" fill="#bd6b20" opacity="0.16"/><circle cx="749.5" cy="30.6" r="2.35" fill="#bd6b20" opacity="0.29"/><circle cx="784.8" cy="30.5" r="3.11" fill="#bd6b20" opacity="0.24"/><circle cx="821.3" cy="31.0" r="2.29" fill="#bd6b20" opacity="0.31"/><circle cx="859.8" cy="31.2" r="3.05" fill="#bd6b20" opacity="0.24"/><circle cx="892.3" cy="29.9" r="2.61" fill="#bd6b20" opacity="0.33"/><circle cx="927.5" cy="31.6" r="3.50" fill="#bd6b20" opacity="0.25"/><circle cx="966.8" cy="29.0" r="3.83" fill="#bd6b20" opacity="0.36"/><circle cx="1001.9" cy="29.7" r="2.67" fill="#bd6b20" opacity="0.23"/><circle cx="1035.8" cy="31.3" r="3.39" fill="#bd6b20" opacity="0.34"/><circle cx="1074.7" cy="27.4" r="3.40" fill="#bd6b20" opacity="0.30"/><circle cx="1109.6" cy="31.4" r="3.57" fill="#bd6b20" opacity="0.28"/><circle cx="1148.4" cy="32.6" r="3.25" fill="#bd6b20" opacity="0.34"/><circle cx="1180.8" cy="31.8" r="2.94" fill="#bd6b20" opacity="0.35"/><circle cx="30.8" cy="64.6" r="2.21" fill="#bd6b20" opacity="0.24"/><circle cx="69.0" cy="67.1" r="2.33" fill="#bd6b20" opacity="0.20"/><circle cx="102.7" cy="66.4" r="1.88" fill="#bd6b20" opacity="0.16"/><circle cx="138.5" cy="64.6" r="3.83" fill="#bd6b20" opacity="0.18"/><circle cx="172.7" cy="64.8" r="2.66" fill="#bd6b20" opacity="0.34"/><circle cx="208.0" cy="68.9" r="1.97" fill="#bd6b20" opacity="0.17"/><circle cx="243.6" cy="64.0" r="2.82" fill="#bd6b20" opacity="0.15"/><circle cx="279.6" cy="65.5" r="2.58" fill="#bd6b20" opacity="0.17"/><circle cx="319.4" cy="65.7" r="2.80" fill="#bd6b20" opacity="0.34"/><circle cx="356.9" cy="64.1" r="2.28" fill="#bd6b20" opacity="0.30"/><circle cx="387.4" cy="64.1" r="2.98" fill="#bd6b20" opacity="0.35"/><circle cx="428.4" cy="64.6" r="2.70" fill="#bd6b20" opacity="0.19"/><circle cx="463.4" cy="65.8" r="2.83" fill="#bd6b20" opacity="0.32"/><circle cx="498.5" cy="65.7" r="3.46" fill="#bd6b20" opacity="0.24"/><circle cx="535.4" cy="67.9" r="3.37" fill="#bd6b20" opacity="0.17"/><circle cx="568.6" cy="63.3" r="3.61" fill="#bd6b20" opacity="0.17"/><circle cx="604.9" cy="63.6" r="3.06" fill="#bd6b20" opacity="0.16"/><circle cx="644.4" cy="67.4" r="2.47" fill="#bd6b20" opacity="0.35"/><circle cx="680.5" cy="63.5" r="3.34" fill="#bd6b20" opacity="0.33"/><circle cx="711.8" cy="64.4" r="3.71" fill="#bd6b20" opacity="0.17"/><circle cx="752.0" cy="63.0" r="2.92" fill="#bd6b20" opacity="0.20"/><circle cx="786.2" cy="64.3" r="2.06" fill="#bd6b20" opacity="0.32"/><circle cx="821.2" cy="68.1" r="2.68" fill="#bd6b20" opacity="0.24"/><circle cx="860.7" cy="66.4" r="2.04" fill="#bd6b20" opacity="0.15"/><circle cx="891.4" cy="67.7" r="2.48" fill="#bd6b20" opacity="0.28"/><circle cx="930.1" cy="64.3" r="2.50" fill="#bd6b20" opacity="0.34"/><circle cx="966.3" cy="68.4" r="2.86" fill="#bd6b20" opacity="0.18"/><circle cx="1002.1" cy="68.2" r="2.30" fill="#bd6b20" opacity="0.33"/><circle cx="1039.0" cy="63.1" r="3.09" fill="#bd6b20" opacity="0.21"/><circle cx="1071.9" cy="63.8" r="2.38" fill="#bd6b20" opacity="0.18"/><circle cx="1110.2" cy="63.8" r="3.63" fill="#bd6b20" opacity="0.24"/><circle cx="1144.3" cy="65.4" r="1.92" fill="#bd6b20" opacity="0.29"/><circle cx="1180.5" cy="67.1" r="2.94" fill="#bd6b20" opacity="0.28"/><circle cx="30.6" cy="101.4" r="3.57" fill="#bd6b20" opacity="0.25"/><circle cx="68.3" cy="100.4" r="2.66" fill="#bd6b20" opacity="0.32"/><circle cx="101.1" cy="104.0" r="1.75" fill="#bd6b20" opacity="0.26"/><circle cx="137.3" cy="102.4" r="3.65" fill="#bd6b20" opacity="0.29"/><circle cx="174.7" cy="101.9" r="3.95" fill="#bd6b20" opacity="0.24"/><circle cx="210.2" cy="102.8" r="2.39" fill="#bd6b20" opacity="0.28"/><circle cx="247.9" cy="104.0" r="2.38" fill="#bd6b20" opacity="0.28"/><circle cx="281.7" cy="100.8" r="3.86" fill="#bd6b20" opacity="0.20"/><circle cx="317.5" cy="101.9" r="1.81" fill="#bd6b20" opacity="0.24"/><circle cx="354.2" cy="100.7" r="2.01" fill="#bd6b20" opacity="0.30"/><circle cx="391.5" cy="104.4" r="2.52" fill="#bd6b20" opacity="0.30"/><circle cx="427.9" cy="104.3" r="3.44" fill="#bd6b20" opacity="0.29"/><circle cx="459.2" cy="103.6" r="2.88" fill="#bd6b20" opacity="0.28"/><circle cx="499.3" cy="103.0" r="1.70" fill="#bd6b20" opacity="0.36"/><circle cx="534.4" cy="101.1" r="3.51" fill="#bd6b20" opacity="0.28"/><circle cx="568.9" cy="99.1" r="3.23" fill="#bd6b20" opacity="0.21"/><circle cx="604.9" cy="101.4" r="3.86" fill="#bd6b20" opacity="0.22"/><circle cx="642.0" cy="99.4" r="2.54" fill="#bd6b20" opacity="0.23"/><circle cx="679.8" cy="99.1" r="3.27" fill="#bd6b20" opacity="0.26"/><circle cx="717.0" cy="105.0" r="2.78" fill="#bd6b20" opacity="0.32"/><circle cx="750.5" cy="101.7" r="3.44" fill="#bd6b20" opacity="0.32"/><circle cx="788.8" cy="100.2" r="2.46" fill="#bd6b20" opacity="0.25"/><circle cx="819.5" cy="104.4" r="2.02" fill="#bd6b20" opacity="0.25"/><circle cx="855.1" cy="102.4" r="2.51" fill="#bd6b20" opacity="0.28"/><circle cx="894.9" cy="101.3" r="1.77" fill="#bd6b20" opacity="0.28"/><circle cx="928.5" cy="101.6" r="1.62" fill="#bd6b20" opacity="0.21"/><circle cx="968.8" cy="103.7" r="2.14" fill="#bd6b20" opacity="0.28"/><circle cx="1000.3" cy="103.6" r="1.93" fill="#bd6b20" opacity="0.24"/><circle cx="1037.4" cy="99.1" r="2.28" fill="#bd6b20" opacity="0.17"/><circle cx="1072.2" cy="100.2" r="3.02" fill="#bd6b20" opacity="0.29"/><circle cx="1108.1" cy="99.4" r="2.74" fill="#bd6b20" opacity="0.23"/><circle cx="1143.1" cy="104.8" r="2.26" fill="#bd6b20" opacity="0.24"/><circle cx="1182.6" cy="102.0" r="3.35" fill="#bd6b20" opacity="0.18"/><circle cx="30.4" cy="140.5" r="3.05" fill="#bd6b20" opacity="0.29"/><circle cx="68.5" cy="138.4" r="3.64" fill="#bd6b20" opacity="0.26"/><circle cx="101.7" cy="139.2" r="3.76" fill="#bd6b20" opacity="0.34"/><circle cx="135.6" cy="137.4" r="3.24" fill="#bd6b20" opacity="0.29"/><circle cx="175.9" cy="138.0" r="3.33" fill="#bd6b20" opacity="0.15"/><circle cx="209.1" cy="135.3" r="3.98" fill="#bd6b20" opacity="0.21"/><circle cx="244.6" cy="140.3" r="1.63" fill="#bd6b20" opacity="0.29"/><circle cx="280.7" cy="135.7" r="3.73" fill="#bd6b20" opacity="0.31"/><circle cx="317.6" cy="140.5" r="2.78" fill="#bd6b20" opacity="0.30"/><circle cx="353.0" cy="139.6" r="1.65" fill="#bd6b20" opacity="0.18"/><circle cx="387.8" cy="136.1" r="3.96" fill="#bd6b20" opacity="0.16"/><circle cx="423.8" cy="137.0" r="3.89" fill="#bd6b20" opacity="0.33"/><circle cx="461.6" cy="138.5" r="3.53" fill="#bd6b20" opacity="0.27"/><circle cx="499.9" cy="140.0" r="3.28" fill="#bd6b20" opacity="0.23"/><circle cx="533.4" cy="140.7" r="2.90" fill="#bd6b20" opacity="0.29"/><circle cx="567.5" cy="137.8" r="1.77" fill="#bd6b20" opacity="0.17"/><circle cx="608.4" cy="136.8" r="2.65" fill="#bd6b20" opacity="0.31"/><circle cx="642.4" cy="138.4" r="3.44" fill="#bd6b20" opacity="0.34"/><circle cx="677.5" cy="137.1" r="2.30" fill="#bd6b20" opacity="0.25"/><circle cx="711.4" cy="139.9" r="3.61" fill="#bd6b20" opacity="0.22"/><circle cx="749.6" cy="136.2" r="2.95" fill="#bd6b20" opacity="0.16"/><circle cx="784.2" cy="141.0" r="3.72" fill="#bd6b20" opacity="0.20"/><circle cx="823.7" cy="137.7" r="2.22" fill="#bd6b20" opacity="0.24"/><circle cx="859.3" cy="135.1" r="3.29" fill="#bd6b20" opacity="0.21"/><circle cx="891.8" cy="136.4" r="2.28" fill="#bd6b20" opacity="0.24"/><circle cx="928.5" cy="136.6" r="2.50" fill="#bd6b20" opacity="0.20"/><circle cx="967.2" cy="139.7" r="2.56" fill="#bd6b20" opacity="0.18"/><circle cx="1002.0" cy="139.4" r="3.52" fill="#bd6b20" opacity="0.18"/><circle cx="1037.2" cy="140.9" r="3.40" fill="#bd6b20" opacity="0.35"/><circle cx="1075.9" cy="139.6" r="2.50" fill="#bd6b20" opacity="0.19"/><circle cx="1108.6" cy="136.0" r="2.13" fill="#bd6b20" opacity="0.20"/><circle cx="1146.3" cy="140.0" r="3.02" fill="#bd6b20" opacity="0.22"/><circle cx="1180.0" cy="140.3" r="3.52" fill="#bd6b20" opacity="0.27"/><circle cx="30.3" cy="174.3" r="1.89" fill="#bd6b20" opacity="0.17"/><circle cx="66.8" cy="173.3" r="2.64" fill="#bd6b20" opacity="0.28"/><circle cx="102.7" cy="171.8" r="3.02" fill="#bd6b20" opacity="0.34"/><circle cx="135.9" cy="174.8" r="3.92" fill="#bd6b20" opacity="0.27"/><circle cx="172.7" cy="173.3" r="2.90" fill="#bd6b20" opacity="0.20"/><circle cx="208.9" cy="173.1" r="2.05" fill="#bd6b20" opacity="0.22"/><circle cx="247.5" cy="175.0" r="2.37" fill="#bd6b20" opacity="0.26"/><circle cx="283.4" cy="172.6" r="3.87" fill="#bd6b20" opacity="0.34"/><circle cx="315.6" cy="172.9" r="2.79" fill="#bd6b20" opacity="0.25"/><circle cx="355.8" cy="176.0" r="2.81" fill="#bd6b20" opacity="0.30"/><circle cx="391.4" cy="173.4" r="1.77" fill="#bd6b20" opacity="0.19"/><circle cx="423.4" cy="176.8" r="1.61" fill="#bd6b20" opacity="0.20"/><circle cx="463.9" cy="172.4" r="2.77" fill="#bd6b20" opacity="0.22"/><circle cx="497.2" cy="173.1" r="2.57" fill="#bd6b20" opacity="0.33"/><circle cx="533.5" cy="175.3" r="2.86" fill="#bd6b20" opacity="0.35"/><circle cx="568.3" cy="175.5" r="3.87" fill="#bd6b20" opacity="0.30"/><circle cx="603.2" cy="175.5" r="2.39" fill="#bd6b20" opacity="0.17"/><circle cx="640.2" cy="173.7" r="3.72" fill="#bd6b20" opacity="0.21"/><circle cx="675.4" cy="172.2" r="3.43" fill="#bd6b20" opacity="0.31"/><circle cx="713.5" cy="171.1" r="1.69" fill="#bd6b20" opacity="0.32"/><circle cx="749.4" cy="171.5" r="2.53" fill="#bd6b20" opacity="0.23"/><circle cx="785.7" cy="176.4" r="1.85" fill="#bd6b20" opacity="0.20"/><circle cx="822.6" cy="171.5" r="3.68" fill="#bd6b20" opacity="0.32"/><circle cx="859.4" cy="172.2" r="2.11" fill="#bd6b20" opacity="0.26"/><circle cx="896.2" cy="171.5" r="2.37" fill="#bd6b20" opacity="0.22"/><circle cx="927.5" cy="173.3" r="1.66" fill="#bd6b20" opacity="0.31"/><circle cx="965.0" cy="172.9" r="2.72" fill="#bd6b20" opacity="0.21"/><circle cx="1001.0" cy="171.4" r="3.16" fill="#bd6b20" opacity="0.33"/><circle cx="1036.9" cy="174.5" r="2.18" fill="#bd6b20" opacity="0.29"/><circle cx="1072.0" cy="175.7" r="1.78" fill="#bd6b20" opacity="0.17"/><circle cx="1109.2" cy="174.1" r="1.75" fill="#bd6b20" opacity="0.30"/><circle cx="1147.5" cy="173.4" r="3.07" fill="#bd6b20" opacity="0.34"/><circle cx="1179.4" cy="173.9" r="3.84" fill="#bd6b20" opacity="0.16"/><circle cx="31.2" cy="212.0" r="2.69" fill="#bd6b20" opacity="0.35"/><circle cx="66.3" cy="211.9" r="3.28" fill="#bd6b20" opacity="0.19"/><circle cx="104.9" cy="208.9" r="2.17" fill="#bd6b20" opacity="0.19"/><circle cx="137.8" cy="212.0" r="2.35" fill="#bd6b20" opacity="0.24"/><circle cx="172.9" cy="212.2" r="3.69" fill="#bd6b20" opacity="0.19"/><circle cx="208.0" cy="207.0" r="2.41" fill="#bd6b20" opacity="0.32"/><circle cx="244.2" cy="207.7" r="2.12" fill="#bd6b20" opacity="0.25"/><circle cx="279.7" cy="210.9" r="3.83" fill="#bd6b20" opacity="0.28"/><circle cx="318.5" cy="207.5" r="3.43" fill="#bd6b20" opacity="0.27"/><circle cx="351.1" cy="212.6" r="1.65" fill="#bd6b20" opacity="0.30"/><circle cx="391.3" cy="212.6" r="2.25" fill="#bd6b20" opacity="0.20"/><circle cx="428.3" cy="207.1" r="3.18" fill="#bd6b20" opacity="0.20"/><circle cx="461.4" cy="208.1" r="3.95" fill="#bd6b20" opacity="0.28"/><circle cx="498.5" cy="212.3" r="3.95" fill="#bd6b20" opacity="0.19"/><circle cx="534.2" cy="207.4" r="2.79" fill="#bd6b20" opacity="0.23"/><circle cx="570.5" cy="211.2" r="2.46" fill="#bd6b20" opacity="0.24"/><circle cx="604.5" cy="210.6" r="3.23" fill="#bd6b20" opacity="0.27"/><circle cx="641.3" cy="211.6" r="3.22" fill="#bd6b20" opacity="0.20"/><circle cx="678.8" cy="210.8" r="2.52" fill="#bd6b20" opacity="0.15"/><circle cx="714.8" cy="208.4" r="1.66" fill="#bd6b20" opacity="0.30"/><circle cx="751.5" cy="207.9" r="2.97" fill="#bd6b20" opacity="0.33"/><circle cx="784.5" cy="210.6" r="3.85" fill="#bd6b20" opacity="0.29"/><circle cx="823.0" cy="208.3" r="3.04" fill="#bd6b20" opacity="0.19"/><circle cx="859.8" cy="210.7" r="1.90" fill="#bd6b20" opacity="0.17"/><circle cx="896.0" cy="212.1" r="3.95" fill="#bd6b20" opacity="0.23"/><circle cx="932.4" cy="208.9" r="2.68" fill="#bd6b20" opacity="0.35"/><circle cx="964.4" cy="211.4" r="1.63" fill="#bd6b20" opacity="0.18"/><circle cx="1000.7" cy="210.0" r="3.08" fill="#bd6b20" opacity="0.21"/><circle cx="1041.0" cy="212.3" r="2.32" fill="#bd6b20" opacity="0.33"/><circle cx="1071.0" cy="212.0" r="3.62" fill="#bd6b20" opacity="0.18"/><circle cx="1111.9" cy="210.8" r="2.09" fill="#bd6b20" opacity="0.29"/><circle cx="1145.7" cy="207.0" r="2.63" fill="#bd6b20" opacity="0.36"/><circle cx="1184.4" cy="210.2" r="3.79" fill="#bd6b20" opacity="0.17"/><circle cx="28.3" cy="243.5" r="2.04" fill="#bd6b20" opacity="0.30"/><circle cx="63.0" cy="243.9" r="1.92" fill="#bd6b20" opacity="0.23"/><circle cx="103.7" cy="246.0" r="2.18" fill="#bd6b20" opacity="0.25"/><circle cx="135.4" cy="245.4" r="2.71" fill="#bd6b20" opacity="0.33"/><circle cx="176.8" cy="245.5" r="2.48" fill="#bd6b20" opacity="0.29"/><circle cx="211.0" cy="243.7" r="3.64" fill="#bd6b20" opacity="0.28"/><circle cx="246.0" cy="248.2" r="3.96" fill="#bd6b20" opacity="0.18"/><circle cx="281.0" cy="246.3" r="3.59" fill="#bd6b20" opacity="0.22"/><circle cx="315.5" cy="248.1" r="2.01" fill="#bd6b20" opacity="0.26"/><circle cx="352.4" cy="243.6" r="1.70" fill="#bd6b20" opacity="0.23"/><circle cx="387.6" cy="247.4" r="2.46" fill="#bd6b20" opacity="0.19"/><circle cx="425.1" cy="247.9" r="2.68" fill="#bd6b20" opacity="0.17"/><circle cx="461.0" cy="244.2" r="3.62" fill="#bd6b20" opacity="0.28"/><circle cx="500.1" cy="248.9" r="2.96" fill="#bd6b20" opacity="0.35"/><circle cx="533.2" cy="246.6" r="3.79" fill="#bd6b20" opacity="0.29"/><circle cx="568.1" cy="247.8" r="2.71" fill="#bd6b20" opacity="0.30"/><circle cx="604.0" cy="246.4" r="3.36" fill="#bd6b20" opacity="0.30"/><circle cx="643.1" cy="247.9" r="3.54" fill="#bd6b20" opacity="0.34"/><circle cx="676.1" cy="246.6" r="2.64" fill="#bd6b20" opacity="0.35"/><circle cx="716.2" cy="244.4" r="2.74" fill="#bd6b20" opacity="0.21"/><circle cx="752.6" cy="247.9" r="3.61" fill="#bd6b20" opacity="0.17"/><circle cx="786.9" cy="243.1" r="1.87" fill="#bd6b20" opacity="0.36"/><circle cx="819.3" cy="248.8" r="2.55" fill="#bd6b20" opacity="0.31"/><circle cx="857.7" cy="244.9" r="2.04" fill="#bd6b20" opacity="0.35"/><circle cx="893.7" cy="248.7" r="3.60" fill="#bd6b20" opacity="0.28"/><circle cx="928.8" cy="244.6" r="3.39" fill="#bd6b20" opacity="0.34"/><circle cx="964.4" cy="246.2" r="3.39" fill="#bd6b20" opacity="0.25"/><circle cx="1004.9" cy="247.9" r="4.00" fill="#bd6b20" opacity="0.34"/><circle cx="1038.5" cy="246.6" r="2.35" fill="#bd6b20" opacity="0.24"/><circle cx="1072.0" cy="244.4" r="2.47" fill="#bd6b20" opacity="0.28"/><circle cx="1112.2" cy="247.4" r="3.66" fill="#bd6b20" opacity="0.33"/><circle cx="1148.6" cy="246.9" r="2.24" fill="#bd6b20" opacity="0.35"/><circle cx="1184.5" cy="246.2" r="2.82" fill="#bd6b20" opacity="0.20"/><circle cx="31.5" cy="283.5" r="2.86" fill="#bd6b20" opacity="0.22"/><circle cx="63.2" cy="283.3" r="3.26" fill="#bd6b20" opacity="0.21"/><circle cx="102.7" cy="284.3" r="3.43" fill="#bd6b20" opacity="0.35"/><circle cx="136.1" cy="284.9" r="3.20" fill="#bd6b20" opacity="0.20"/><circle cx="176.6" cy="284.6" r="3.15" fill="#bd6b20" opacity="0.17"/><circle cx="207.9" cy="281.5" r="2.46" fill="#bd6b20" opacity="0.27"/><circle cx="246.7" cy="283.9" r="2.22" fill="#bd6b20" opacity="0.36"/><circle cx="282.4" cy="280.7" r="2.43" fill="#bd6b20" opacity="0.25"/><circle cx="319.0" cy="282.0" r="1.62" fill="#bd6b20" opacity="0.31"/><circle cx="355.9" cy="279.2" r="2.60" fill="#bd6b20" opacity="0.15"/><circle cx="390.8" cy="280.0" r="2.79" fill="#bd6b20" opacity="0.25"/><circle cx="428.6" cy="283.9" r="3.80" fill="#bd6b20" opacity="0.30"/><circle cx="462.6" cy="283.5" r="1.72" fill="#bd6b20" opacity="0.22"/><circle cx="499.7" cy="283.1" r="1.78" fill="#bd6b20" opacity="0.33"/><circle cx="531.7" cy="284.2" r="1.70" fill="#bd6b20" opacity="0.17"/><circle cx="570.8" cy="283.1" r="3.22" fill="#bd6b20" opacity="0.17"/><circle cx="608.9" cy="279.2" r="3.24" fill="#bd6b20" opacity="0.34"/><circle cx="640.9" cy="282.2" r="2.30" fill="#bd6b20" opacity="0.15"/><circle cx="678.3" cy="282.3" r="1.89" fill="#bd6b20" opacity="0.30"/><circle cx="716.6" cy="279.4" r="2.36" fill="#bd6b20" opacity="0.23"/><circle cx="748.5" cy="282.5" r="3.02" fill="#bd6b20" opacity="0.25"/><circle cx="788.5" cy="279.3" r="2.76" fill="#bd6b20" opacity="0.17"/><circle cx="824.7" cy="284.8" r="3.41" fill="#bd6b20" opacity="0.24"/><circle cx="858.3" cy="280.9" r="1.87" fill="#bd6b20" opacity="0.16"/><circle cx="891.5" cy="280.4" r="2.84" fill="#bd6b20" opacity="0.27"/><circle cx="932.4" cy="280.1" r="2.06" fill="#bd6b20" opacity="0.31"/><circle cx="968.8" cy="284.4" r="3.14" fill="#bd6b20" opacity="0.29"/><circle cx="999.7" cy="281.7" r="3.98" fill="#bd6b20" opacity="0.16"/><circle cx="1035.1" cy="279.6" r="2.52" fill="#bd6b20" opacity="0.31"/><circle cx="1075.7" cy="281.9" r="3.13" fill="#bd6b20" opacity="0.35"/><circle cx="1112.1" cy="284.0" r="3.15" fill="#bd6b20" opacity="0.30"/><circle cx="1145.4" cy="284.8" r="3.42" fill="#bd6b20" opacity="0.16"/><circle cx="1184.4" cy="284.2" r="1.78" fill="#bd6b20" opacity="0.18"/><circle cx="27.7" cy="320.2" r="3.02" fill="#bd6b20" opacity="0.28"/><circle cx="66.7" cy="316.2" r="2.28" fill="#bd6b20" opacity="0.21"/><circle cx="100.5" cy="316.4" r="3.73" fill="#bd6b20" opacity="0.25"/><circle cx="135.8" cy="317.1" r="2.30" fill="#bd6b20" opacity="0.21"/><circle cx="174.6" cy="318.4" r="3.40" fill="#bd6b20" opacity="0.16"/><circle cx="210.4" cy="319.2" r="3.71" fill="#bd6b20" opacity="0.35"/><circle cx="248.7" cy="316.3" r="3.36" fill="#bd6b20" opacity="0.17"/><circle cx="284.1" cy="318.4" r="3.88" fill="#bd6b20" opacity="0.31"/><circle cx="318.0" cy="318.5" r="3.70" fill="#bd6b20" opacity="0.24"/><circle cx="356.2" cy="317.0" r="2.13" fill="#bd6b20" opacity="0.27"/><circle cx="387.6" cy="320.6" r="3.15" fill="#bd6b20" opacity="0.26"/><circle cx="426.3" cy="319.4" r="2.66" fill="#bd6b20" opacity="0.26"/><circle cx="462.8" cy="317.0" r="2.48" fill="#bd6b20" opacity="0.20"/><circle cx="499.6" cy="318.7" r="3.22" fill="#bd6b20" opacity="0.23"/><circle cx="536.1" cy="317.4" r="2.70" fill="#bd6b20" opacity="0.36"/><circle cx="567.3" cy="316.6" r="2.92" fill="#bd6b20" opacity="0.34"/><circle cx="605.7" cy="317.1" r="3.97" fill="#bd6b20" opacity="0.36"/><circle cx="644.8" cy="319.1" r="2.13" fill="#bd6b20" opacity="0.34"/><circle cx="678.2" cy="316.3" r="3.59" fill="#bd6b20" opacity="0.20"/><circle cx="714.9" cy="316.6" r="3.08" fill="#bd6b20" opacity="0.29"/><circle cx="747.5" cy="320.8" r="2.47" fill="#bd6b20" opacity="0.25"/><circle cx="786.0" cy="316.0" r="1.98" fill="#bd6b20" opacity="0.35"/><circle cx="819.9" cy="317.3" r="2.54" fill="#bd6b20" opacity="0.24"/><circle cx="860.0" cy="316.3" r="2.51" fill="#bd6b20" opacity="0.27"/><circle cx="895.8" cy="318.5" r="3.78" fill="#bd6b20" opacity="0.34"/><circle cx="927.1" cy="318.9" r="2.27" fill="#bd6b20" opacity="0.16"/><circle cx="965.3" cy="319.7" r="2.82" fill="#bd6b20" opacity="0.27"/><circle cx="1002.8" cy="320.2" r="2.49" fill="#bd6b20" opacity="0.18"/><circle cx="1039.5" cy="316.1" r="2.44" fill="#bd6b20" opacity="0.15"/><circle cx="1073.2" cy="316.3" r="3.87" fill="#bd6b20" opacity="0.33"/><circle cx="1108.8" cy="315.9" r="3.68" fill="#bd6b20" opacity="0.15"/><circle cx="1143.7" cy="319.6" r="3.42" fill="#bd6b20" opacity="0.30"/><circle cx="1182.1" cy="318.7" r="3.04" fill="#bd6b20" opacity="0.25"/><circle cx="29.1" cy="356.5" r="3.48" fill="#bd6b20" opacity="0.28"/><circle cx="64.6" cy="352.7" r="2.49" fill="#bd6b20" opacity="0.21"/><circle cx="102.5" cy="353.2" r="1.99" fill="#bd6b20" opacity="0.34"/><circle cx="138.8" cy="355.9" r="2.76" fill="#bd6b20" opacity="0.31"/><circle cx="175.2" cy="351.9" r="3.35" fill="#bd6b20" opacity="0.24"/><circle cx="207.8" cy="355.4" r="2.86" fill="#bd6b20" opacity="0.30"/><circle cx="247.1" cy="353.9" r="3.30" fill="#bd6b20" opacity="0.35"/><circle cx="284.2" cy="351.9" r="1.95" fill="#bd6b20" opacity="0.32"/><circle cx="317.4" cy="351.3" r="2.93" fill="#bd6b20" opacity="0.27"/><circle cx="356.5" cy="352.9" r="2.14" fill="#bd6b20" opacity="0.25"/><circle cx="388.4" cy="351.2" r="1.91" fill="#bd6b20" opacity="0.29"/><circle cx="425.5" cy="353.0" r="3.37" fill="#bd6b20" opacity="0.26"/><circle cx="462.0" cy="352.5" r="3.13" fill="#bd6b20" opacity="0.15"/><circle cx="499.2" cy="356.1" r="1.96" fill="#bd6b20" opacity="0.25"/><circle cx="531.5" cy="354.5" r="2.44" fill="#bd6b20" opacity="0.23"/><circle cx="570.4" cy="356.7" r="2.20" fill="#bd6b20" opacity="0.33"/><circle cx="603.2" cy="351.8" r="1.89" fill="#bd6b20" opacity="0.24"/><circle cx="642.8" cy="353.2" r="3.17" fill="#bd6b20" opacity="0.17"/><circle cx="677.7" cy="352.6" r="3.08" fill="#bd6b20" opacity="0.32"/><circle cx="711.2" cy="351.1" r="3.17" fill="#bd6b20" opacity="0.33"/><circle cx="749.3" cy="356.5" r="3.04" fill="#bd6b20" opacity="0.25"/><circle cx="786.6" cy="351.1" r="3.87" fill="#bd6b20" opacity="0.33"/><circle cx="820.4" cy="355.7" r="2.66" fill="#bd6b20" opacity="0.31"/><circle cx="856.0" cy="351.1" r="3.22" fill="#bd6b20" opacity="0.28"/><circle cx="896.6" cy="355.3" r="1.67" fill="#bd6b20" opacity="0.17"/><circle cx="927.5" cy="353.4" r="3.62" fill="#bd6b20" opacity="0.33"/><circle cx="965.8" cy="352.3" r="1.95" fill="#bd6b20" opacity="0.30"/><circle cx="1003.9" cy="355.9" r="3.47" fill="#bd6b20" opacity="0.22"/><circle cx="1038.4" cy="351.7" r="2.15" fill="#bd6b20" opacity="0.18"/><circle cx="1075.6" cy="351.9" r="1.61" fill="#bd6b20" opacity="0.18"/><circle cx="1110.3" cy="355.6" r="3.01" fill="#bd6b20" opacity="0.23"/><circle cx="1144.7" cy="356.2" r="1.94" fill="#bd6b20" opacity="0.30"/><circle cx="1183.3" cy="353.9" r="2.81" fill="#bd6b20" opacity="0.25"/><circle cx="28.4" cy="392.3" r="1.87" fill="#bd6b20" opacity="0.29"/><circle cx="65.1" cy="392.3" r="2.79" fill="#bd6b20" opacity="0.29"/><circle cx="103.0" cy="387.9" r="3.34" fill="#bd6b20" opacity="0.23"/><circle cx="138.6" cy="389.9" r="3.46" fill="#bd6b20" opacity="0.24"/><circle cx="176.0" cy="390.5" r="3.10" fill="#bd6b20" opacity="0.28"/><circle cx="210.8" cy="387.9" r="3.85" fill="#bd6b20" opacity="0.31"/><circle cx="246.3" cy="390.1" r="3.79" fill="#bd6b20" opacity="0.36"/><circle cx="283.5" cy="387.1" r="2.76" fill="#bd6b20" opacity="0.21"/><circle cx="315.4" cy="389.6" r="2.76" fill="#bd6b20" opacity="0.16"/><circle cx="354.3" cy="387.4" r="2.80" fill="#bd6b20" opacity="0.24"/><circle cx="392.2" cy="390.7" r="2.30" fill="#bd6b20" opacity="0.36"/><circle cx="425.5" cy="389.2" r="2.93" fill="#bd6b20" opacity="0.30"/><circle cx="461.5" cy="391.6" r="2.12" fill="#bd6b20" opacity="0.18"/><circle cx="496.1" cy="392.4" r="3.19" fill="#bd6b20" opacity="0.26"/><circle cx="534.3" cy="389.1" r="3.23" fill="#bd6b20" opacity="0.25"/><circle cx="571.6" cy="388.0" r="2.39" fill="#bd6b20" opacity="0.27"/><circle cx="606.3" cy="387.7" r="3.50" fill="#bd6b20" opacity="0.29"/><circle cx="644.4" cy="392.4" r="3.17" fill="#bd6b20" opacity="0.34"/><circle cx="676.1" cy="391.5" r="2.59" fill="#bd6b20" opacity="0.31"/><circle cx="716.8" cy="393.0" r="3.41" fill="#bd6b20" opacity="0.32"/><circle cx="750.6" cy="390.3" r="2.47" fill="#bd6b20" opacity="0.19"/><circle cx="784.7" cy="392.9" r="1.98" fill="#bd6b20" opacity="0.32"/><circle cx="822.6" cy="387.8" r="1.67" fill="#bd6b20" opacity="0.17"/><circle cx="859.0" cy="391.8" r="2.12" fill="#bd6b20" opacity="0.25"/><circle cx="893.2" cy="390.7" r="2.34" fill="#bd6b20" opacity="0.25"/><circle cx="932.9" cy="391.7" r="3.68" fill="#bd6b20" opacity="0.29"/><circle cx="968.1" cy="392.6" r="2.23" fill="#bd6b20" opacity="0.30"/><circle cx="1003.9" cy="388.2" r="2.43" fill="#bd6b20" opacity="0.28"/><circle cx="1035.7" cy="387.3" r="1.88" fill="#bd6b20" opacity="0.19"/><circle cx="1074.8" cy="388.8" r="3.63" fill="#bd6b20" opacity="0.25"/><circle cx="1110.9" cy="390.0" r="3.78" fill="#bd6b20" opacity="0.21"/><circle cx="1147.4" cy="389.7" r="3.62" fill="#bd6b20" opacity="0.27"/><circle cx="1181.0" cy="390.8" r="1.83" fill="#bd6b20" opacity="0.17"/><circle cx="33.0" cy="423.7" r="1.66" fill="#bd6b20" opacity="0.27"/><circle cx="67.4" cy="428.5" r="3.93" fill="#bd6b20" opacity="0.18"/><circle cx="103.8" cy="427.6" r="3.41" fill="#bd6b20" opacity="0.22"/><circle cx="140.9" cy="427.0" r="3.35" fill="#bd6b20" opacity="0.23"/><circle cx="176.1" cy="425.2" r="3.33" fill="#bd6b20" opacity="0.17"/><circle cx="209.6" cy="424.3" r="3.10" fill="#bd6b20" opacity="0.31"/><circle cx="248.4" cy="425.5" r="1.87" fill="#bd6b20" opacity="0.31"/><circle cx="282.5" cy="424.0" r="3.80" fill="#bd6b20" opacity="0.21"/><circle cx="315.4" cy="425.2" r="1.94" fill="#bd6b20" opacity="0.29"/><circle cx="356.2" cy="423.5" r="2.90" fill="#bd6b20" opacity="0.32"/><circle cx="391.2" cy="423.3" r="2.41" fill="#bd6b20" opacity="0.18"/><circle cx="425.1" cy="426.5" r="3.45" fill="#bd6b20" opacity="0.18"/><circle cx="461.3" cy="425.9" r="1.74" fill="#bd6b20" opacity="0.35"/><circle cx="497.7" cy="423.1" r="2.29" fill="#bd6b20" opacity="0.22"/><circle cx="536.0" cy="428.1" r="3.60" fill="#bd6b20" opacity="0.24"/><circle cx="570.6" cy="428.9" r="2.79" fill="#bd6b20" opacity="0.19"/><circle cx="604.2" cy="427.4" r="3.49" fill="#bd6b20" opacity="0.22"/><circle cx="639.8" cy="427.2" r="3.69" fill="#bd6b20" opacity="0.33"/><circle cx="675.3" cy="427.2" r="2.60" fill="#bd6b20" opacity="0.21"/><circle cx="712.1" cy="428.4" r="2.40" fill="#bd6b20" opacity="0.22"/><circle cx="749.6" cy="427.4" r="2.17" fill="#bd6b20" opacity="0.34"/><circle cx="786.0" cy="427.4" r="1.74" fill="#bd6b20" opacity="0.30"/><circle cx="823.8" cy="424.2" r="2.63" fill="#bd6b20" opacity="0.29"/><circle cx="855.1" cy="427.0" r="3.93" fill="#bd6b20" opacity="0.15"/><circle cx="893.2" cy="425.3" r="3.18" fill="#bd6b20" opacity="0.23"/><circle cx="928.7" cy="425.3" r="3.40" fill="#bd6b20" opacity="0.19"/><circle cx="966.2" cy="425.9" r="2.16" fill="#bd6b20" opacity="0.22"/><circle cx="1002.7" cy="423.0" r="3.42" fill="#bd6b20" opacity="0.34"/><circle cx="1036.9" cy="428.8" r="3.11" fill="#bd6b20" opacity="0.18"/><circle cx="1076.3" cy="428.4" r="2.71" fill="#bd6b20" opacity="0.35"/><circle cx="1110.0" cy="426.3" r="1.94" fill="#bd6b20" opacity="0.20"/><circle cx="1143.1" cy="427.2" r="1.94" fill="#bd6b20" opacity="0.21"/><circle cx="1179.1" cy="426.3" r="2.15" fill="#bd6b20" opacity="0.27"/><circle cx="32.9" cy="459.5" r="1.62" fill="#bd6b20" opacity="0.20"/><circle cx="64.9" cy="460.5" r="2.18" fill="#bd6b20" opacity="0.24"/><circle cx="102.0" cy="463.1" r="1.88" fill="#bd6b20" opacity="0.18"/><circle cx="140.8" cy="464.0" r="2.88" fill="#bd6b20" opacity="0.30"/><circle cx="176.8" cy="462.2" r="1.71" fill="#bd6b20" opacity="0.35"/><circle cx="212.4" cy="463.2" r="2.31" fill="#bd6b20" opacity="0.19"/><circle cx="246.7" cy="459.2" r="3.68" fill="#bd6b20" opacity="0.23"/><circle cx="279.9" cy="464.4" r="2.26" fill="#bd6b20" opacity="0.35"/><circle cx="317.7" cy="459.1" r="1.95" fill="#bd6b20" opacity="0.16"/><circle cx="356.1" cy="461.7" r="2.97" fill="#bd6b20" opacity="0.30"/><circle cx="391.8" cy="459.1" r="3.41" fill="#bd6b20" opacity="0.21"/><circle cx="428.9" cy="463.7" r="2.54" fill="#bd6b20" opacity="0.27"/><circle cx="461.1" cy="463.5" r="2.55" fill="#bd6b20" opacity="0.31"/><circle cx="496.2" cy="460.7" r="3.82" fill="#bd6b20" opacity="0.35"/><circle cx="534.2" cy="462.2" r="1.94" fill="#bd6b20" opacity="0.21"/><circle cx="572.9" cy="462.9" r="3.90" fill="#bd6b20" opacity="0.28"/><circle cx="603.8" cy="464.3" r="3.03" fill="#bd6b20" opacity="0.29"/><circle cx="643.5" cy="459.6" r="3.12" fill="#bd6b20" opacity="0.25"/><circle cx="677.7" cy="459.0" r="1.82" fill="#bd6b20" opacity="0.25"/><circle cx="717.0" cy="462.2" r="1.88" fill="#bd6b20" opacity="0.30"/><circle cx="751.6" cy="459.5" r="3.41" fill="#bd6b20" opacity="0.28"/><circle cx="788.0" cy="459.4" r="1.94" fill="#bd6b20" opacity="0.18"/><circle cx="823.5" cy="462.0" r="3.67" fill="#bd6b20" opacity="0.33"/><circle cx="860.8" cy="462.0" r="3.32" fill="#bd6b20" opacity="0.18"/><circle cx="894.6" cy="460.0" r="1.70" fill="#bd6b20" opacity="0.16"/><circle cx="932.8" cy="464.6" r="3.25" fill="#bd6b20" opacity="0.17"/><circle cx="963.6" cy="460.0" r="2.04" fill="#bd6b20" opacity="0.33"/><circle cx="1001.2" cy="463.3" r="2.84" fill="#bd6b20" opacity="0.30"/><circle cx="1040.6" cy="459.5" r="3.68" fill="#bd6b20" opacity="0.25"/><circle cx="1074.4" cy="461.6" r="3.22" fill="#bd6b20" opacity="0.34"/><circle cx="1109.7" cy="461.2" r="3.35" fill="#bd6b20" opacity="0.30"/><circle cx="1147.8" cy="461.1" r="2.37" fill="#bd6b20" opacity="0.16"/><circle cx="1180.9" cy="461.4" r="2.85" fill="#bd6b20" opacity="0.22"/><circle cx="27.8" cy="501.0" r="2.60" fill="#bd6b20" opacity="0.25"/><circle cx="67.0" cy="499.4" r="3.46" fill="#bd6b20" opacity="0.20"/><circle cx="104.6" cy="500.3" r="3.54" fill="#bd6b20" opacity="0.15"/><circle cx="138.6" cy="498.9" r="2.35" fill="#bd6b20" opacity="0.33"/><circle cx="174.3" cy="496.9" r="3.66" fill="#bd6b20" opacity="0.19"/><circle cx="210.1" cy="500.3" r="2.80" fill="#bd6b20" opacity="0.20"/><circle cx="245.0" cy="499.1" r="2.88" fill="#bd6b20" opacity="0.17"/><circle cx="284.3" cy="499.8" r="3.36" fill="#bd6b20" opacity="0.30"/><circle cx="317.7" cy="500.3" r="2.23" fill="#bd6b20" opacity="0.25"/><circle cx="352.3" cy="499.8" r="1.65" fill="#bd6b20" opacity="0.22"/><circle cx="392.3" cy="500.9" r="3.95" fill="#bd6b20" opacity="0.35"/><circle cx="423.0" cy="498.9" r="2.14" fill="#bd6b20" opacity="0.26"/><circle cx="461.7" cy="495.3" r="2.09" fill="#bd6b20" opacity="0.25"/><circle cx="498.7" cy="496.5" r="2.95" fill="#bd6b20" opacity="0.21"/><circle cx="533.1" cy="498.1" r="2.37" fill="#bd6b20" opacity="0.27"/><circle cx="570.8" cy="499.0" r="3.80" fill="#bd6b20" opacity="0.15"/><circle cx="609.0" cy="498.7" r="2.03" fill="#bd6b20" opacity="0.23"/><circle cx="641.8" cy="495.6" r="1.82" fill="#bd6b20" opacity="0.20"/><circle cx="676.6" cy="499.8" r="1.80" fill="#bd6b20" opacity="0.32"/><circle cx="715.5" cy="496.3" r="2.21" fill="#bd6b20" opacity="0.15"/><circle cx="749.4" cy="500.2" r="1.98" fill="#bd6b20" opacity="0.24"/><circle cx="785.3" cy="498.5" r="3.01" fill="#bd6b20" opacity="0.17"/><circle cx="820.1" cy="498.2" r="2.46" fill="#bd6b20" opacity="0.25"/><circle cx="857.1" cy="498.3" r="2.85" fill="#bd6b20" opacity="0.32"/><circle cx="894.7" cy="499.8" r="2.98" fill="#bd6b20" opacity="0.27"/><circle cx="928.0" cy="499.6" r="2.14" fill="#bd6b20" opacity="0.17"/><circle cx="963.5" cy="499.0" r="3.10" fill="#bd6b20" opacity="0.22"/><circle cx="1000.1" cy="499.5" r="2.52" fill="#bd6b20" opacity="0.20"/><circle cx="1036.9" cy="500.3" r="3.50" fill="#bd6b20" opacity="0.33"/><circle cx="1073.0" cy="498.7" r="3.48" fill="#bd6b20" opacity="0.30"/><circle cx="1112.2" cy="495.6" r="2.60" fill="#bd6b20" opacity="0.19"/><circle cx="1146.4" cy="495.2" r="3.32" fill="#bd6b20" opacity="0.32"/><circle cx="1182.5" cy="496.8" r="3.04" fill="#bd6b20" opacity="0.32"/><circle cx="29.3" cy="534.4" r="2.46" fill="#bd6b20" opacity="0.30"/><circle cx="67.1" cy="532.1" r="2.04" fill="#bd6b20" opacity="0.34"/><circle cx="101.3" cy="533.3" r="2.53" fill="#bd6b20" opacity="0.25"/><circle cx="138.1" cy="531.2" r="3.88" fill="#bd6b20" opacity="0.18"/><circle cx="173.1" cy="534.0" r="3.67" fill="#bd6b20" opacity="0.22"/><circle cx="210.4" cy="534.3" r="1.85" fill="#bd6b20" opacity="0.34"/><circle cx="246.6" cy="536.2" r="1.86" fill="#bd6b20" opacity="0.23"/><circle cx="281.1" cy="536.5" r="2.39" fill="#bd6b20" opacity="0.21"/><circle cx="319.7" cy="533.1" r="3.18" fill="#bd6b20" opacity="0.33"/><circle cx="353.3" cy="534.8" r="2.52" fill="#bd6b20" opacity="0.28"/><circle cx="390.8" cy="531.1" r="3.68" fill="#bd6b20" opacity="0.26"/><circle cx="427.0" cy="536.8" r="3.98" fill="#bd6b20" opacity="0.33"/><circle cx="463.8" cy="531.5" r="3.08" fill="#bd6b20" opacity="0.31"/><circle cx="496.6" cy="531.4" r="2.50" fill="#bd6b20" opacity="0.28"/><circle cx="534.1" cy="536.1" r="3.92" fill="#bd6b20" opacity="0.35"/><circle cx="567.2" cy="532.9" r="1.70" fill="#bd6b20" opacity="0.20"/><circle cx="605.8" cy="534.5" r="2.82" fill="#bd6b20" opacity="0.24"/><circle cx="644.6" cy="536.2" r="3.19" fill="#bd6b20" opacity="0.21"/><circle cx="680.3" cy="531.0" r="3.77" fill="#bd6b20" opacity="0.32"/><circle cx="714.6" cy="533.9" r="1.98" fill="#bd6b20" opacity="0.32"/><circle cx="751.5" cy="535.5" r="3.23" fill="#bd6b20" opacity="0.29"/><circle cx="785.2" cy="536.7" r="2.49" fill="#bd6b20" opacity="0.25"/><circle cx="822.2" cy="534.5" r="2.63" fill="#bd6b20" opacity="0.25"/><circle cx="859.8" cy="531.7" r="3.51" fill="#bd6b20" opacity="0.23"/><circle cx="893.2" cy="535.7" r="1.95" fill="#bd6b20" opacity="0.32"/><circle cx="930.5" cy="533.8" r="2.28" fill="#bd6b20" opacity="0.28"/><circle cx="966.7" cy="533.3" r="3.54" fill="#bd6b20" opacity="0.33"/><circle cx="1000.0" cy="532.9" r="1.82" fill="#bd6b20" opacity="0.22"/><circle cx="1037.0" cy="536.8" r="3.90" fill="#bd6b20" opacity="0.33"/><circle cx="1071.2" cy="534.7" r="3.87" fill="#bd6b20" opacity="0.36"/><circle cx="1111.8" cy="531.5" r="3.08" fill="#bd6b20" opacity="0.22"/><circle cx="1145.1" cy="536.3" r="3.50" fill="#bd6b20" opacity="0.17"/><circle cx="1181.1" cy="533.3" r="2.94" fill="#bd6b20" opacity="0.28"/><circle cx="28.2" cy="567.3" r="3.47" fill="#bd6b20" opacity="0.22"/><circle cx="64.2" cy="570.9" r="3.02" fill="#bd6b20" opacity="0.30"/><circle cx="103.5" cy="568.4" r="3.26" fill="#bd6b20" opacity="0.32"/><circle cx="136.6" cy="572.4" r="1.73" fill="#bd6b20" opacity="0.23"/><circle cx="174.9" cy="572.6" r="3.94" fill="#bd6b20" opacity="0.17"/><circle cx="212.4" cy="567.6" r="3.37" fill="#bd6b20" opacity="0.19"/><circle cx="246.8" cy="571.8" r="3.09" fill="#bd6b20" opacity="0.35"/><circle cx="282.7" cy="571.3" r="3.36" fill="#bd6b20" opacity="0.25"/><circle cx="319.9" cy="570.2" r="3.79" fill="#bd6b20" opacity="0.35"/><circle cx="354.9" cy="569.5" r="3.52" fill="#bd6b20" opacity="0.22"/><circle cx="390.2" cy="568.0" r="2.59" fill="#bd6b20" opacity="0.35"/><circle cx="423.4" cy="572.1" r="1.77" fill="#bd6b20" opacity="0.20"/><circle cx="459.5" cy="572.5" r="2.12" fill="#bd6b20" opacity="0.35"/><circle cx="498.2" cy="567.9" r="1.86" fill="#bd6b20" opacity="0.29"/><circle cx="533.7" cy="568.5" r="2.68" fill="#bd6b20" opacity="0.33"/><circle cx="570.5" cy="571.3" r="2.18" fill="#bd6b20" opacity="0.29"/><circle cx="605.9" cy="569.6" r="1.83" fill="#bd6b20" opacity="0.36"/><circle cx="643.6" cy="572.8" r="3.71" fill="#bd6b20" opacity="0.19"/><circle cx="679.0" cy="571.6" r="2.31" fill="#bd6b20" opacity="0.23"/><circle cx="716.3" cy="568.3" r="1.88" fill="#bd6b20" opacity="0.18"/><circle cx="748.2" cy="569.4" r="3.31" fill="#bd6b20" opacity="0.21"/><circle cx="784.2" cy="571.5" r="3.03" fill="#bd6b20" opacity="0.33"/><circle cx="819.4" cy="568.0" r="2.50" fill="#bd6b20" opacity="0.31"/><circle cx="860.2" cy="569.5" r="3.27" fill="#bd6b20" opacity="0.18"/><circle cx="894.3" cy="568.8" r="3.80" fill="#bd6b20" opacity="0.36"/><circle cx="928.7" cy="571.4" r="2.90" fill="#bd6b20" opacity="0.25"/><circle cx="966.0" cy="567.4" r="3.49" fill="#bd6b20" opacity="0.31"/><circle cx="1002.0" cy="572.2" r="3.60" fill="#bd6b20" opacity="0.17"/><circle cx="1039.8" cy="572.9" r="2.94" fill="#bd6b20" opacity="0.23"/><circle cx="1074.2" cy="567.7" r="2.72" fill="#bd6b20" opacity="0.17"/><circle cx="1111.9" cy="568.4" r="1.90" fill="#bd6b20" opacity="0.32"/><circle cx="1144.2" cy="572.8" r="1.83" fill="#bd6b20" opacity="0.29"/><circle cx="1180.1" cy="572.7" r="2.01" fill="#bd6b20" opacity="0.21"/><circle cx="32.3" cy="603.6" r="2.27" fill="#bd6b20" opacity="0.21"/><circle cx="64.4" cy="607.9" r="1.74" fill="#bd6b20" opacity="0.16"/><circle cx="103.0" cy="606.0" r="3.87" fill="#bd6b20" opacity="0.22"/><circle cx="137.6" cy="608.6" r="1.83" fill="#bd6b20" opacity="0.29"/><circle cx="175.0" cy="605.1" r="3.80" fill="#bd6b20" opacity="0.20"/><circle cx="207.1" cy="603.8" r="1.93" fill="#bd6b20" opacity="0.30"/><circle cx="249.0" cy="605.4" r="2.58" fill="#bd6b20" opacity="0.27"/><circle cx="284.0" cy="604.9" r="3.36" fill="#bd6b20" opacity="0.27"/><circle cx="317.9" cy="604.0" r="3.77" fill="#bd6b20" opacity="0.32"/><circle cx="352.0" cy="607.7" r="3.65" fill="#bd6b20" opacity="0.21"/><circle cx="393.0" cy="606.9" r="2.83" fill="#bd6b20" opacity="0.24"/><circle cx="427.0" cy="607.5" r="3.10" fill="#bd6b20" opacity="0.26"/><circle cx="464.1" cy="605.8" r="2.55" fill="#bd6b20" opacity="0.24"/><circle cx="495.2" cy="607.0" r="1.74" fill="#bd6b20" opacity="0.22"/><circle cx="536.8" cy="608.0" r="2.23" fill="#bd6b20" opacity="0.21"/><circle cx="567.7" cy="604.8" r="3.15" fill="#bd6b20" opacity="0.22"/><circle cx="604.5" cy="607.9" r="2.54" fill="#bd6b20" opacity="0.24"/><circle cx="640.3" cy="608.0" r="3.17" fill="#bd6b20" opacity="0.34"/><circle cx="680.2" cy="604.1" r="3.99" fill="#bd6b20" opacity="0.27"/><circle cx="714.2" cy="608.4" r="2.34" fill="#bd6b20" opacity="0.18"/><circle cx="749.7" cy="603.5" r="3.71" fill="#bd6b20" opacity="0.27"/><circle cx="785.8" cy="603.3" r="3.47" fill="#bd6b20" opacity="0.19"/><circle cx="822.4" cy="606.0" r="3.96" fill="#bd6b20" opacity="0.22"/><circle cx="858.9" cy="605.6" r="1.64" fill="#bd6b20" opacity="0.27"/><circle cx="894.7" cy="604.2" r="3.39" fill="#bd6b20" opacity="0.16"/><circle cx="931.8" cy="606.3" r="2.50" fill="#bd6b20" opacity="0.20"/><circle cx="967.4" cy="604.6" r="3.51" fill="#bd6b20" opacity="0.32"/><circle cx="1001.1" cy="608.8" r="1.88" fill="#bd6b20" opacity="0.22"/><circle cx="1036.2" cy="608.3" r="2.19" fill="#bd6b20" opacity="0.20"/><circle cx="1071.9" cy="607.9" r="3.23" fill="#bd6b20" opacity="0.34"/><circle cx="1107.2" cy="605.8" r="3.63" fill="#bd6b20" opacity="0.28"/><circle cx="1148.9" cy="608.2" r="3.54" fill="#bd6b20" opacity="0.32"/><circle cx="1180.1" cy="603.9" r="3.94" fill="#bd6b20" opacity="0.17"/><circle cx="29.2" cy="641.6" r="1.72" fill="#bd6b20" opacity="0.34"/><circle cx="68.1" cy="641.1" r="2.43" fill="#bd6b20" opacity="0.30"/><circle cx="100.4" cy="643.8" r="2.98" fill="#bd6b20" opacity="0.17"/><circle cx="139.0" cy="642.9" r="3.66" fill="#bd6b20" opacity="0.17"/><circle cx="176.3" cy="642.8" r="2.23" fill="#bd6b20" opacity="0.26"/><circle cx="207.6" cy="641.1" r="1.99" fill="#bd6b20" opacity="0.22"/><circle cx="246.9" cy="639.5" r="1.90" fill="#bd6b20" opacity="0.19"/><circle cx="279.9" cy="642.6" r="3.44" fill="#bd6b20" opacity="0.18"/><circle cx="317.8" cy="640.1" r="4.00" fill="#bd6b20" opacity="0.31"/><circle cx="351.5" cy="640.3" r="3.21" fill="#bd6b20" opacity="0.16"/><circle cx="390.7" cy="642.5" r="2.68" fill="#bd6b20" opacity="0.22"/><circle cx="427.2" cy="644.0" r="3.97" fill="#bd6b20" opacity="0.32"/><circle cx="463.0" cy="640.0" r="1.69" fill="#bd6b20" opacity="0.20"/><circle cx="499.6" cy="643.3" r="1.83" fill="#bd6b20" opacity="0.22"/><circle cx="536.9" cy="643.1" r="3.35" fill="#bd6b20" opacity="0.20"/><circle cx="569.2" cy="639.9" r="2.15" fill="#bd6b20" opacity="0.16"/><circle cx="605.1" cy="643.2" r="3.69" fill="#bd6b20" opacity="0.36"/><circle cx="644.9" cy="644.2" r="3.49" fill="#bd6b20" opacity="0.19"/><circle cx="675.3" cy="640.0" r="2.53" fill="#bd6b20" opacity="0.28"/><circle cx="711.5" cy="640.1" r="1.84" fill="#bd6b20" opacity="0.15"/><circle cx="752.1" cy="640.6" r="2.30" fill="#bd6b20" opacity="0.20"/><circle cx="784.0" cy="639.1" r="2.50" fill="#bd6b20" opacity="0.25"/><circle cx="824.7" cy="644.0" r="3.45" fill="#bd6b20" opacity="0.21"/><circle cx="860.4" cy="642.8" r="1.83" fill="#bd6b20" opacity="0.28"/><circle cx="896.8" cy="640.7" r="2.30" fill="#bd6b20" opacity="0.21"/><circle cx="929.4" cy="642.0" r="2.95" fill="#bd6b20" opacity="0.31"/><circle cx="963.7" cy="644.9" r="3.53" fill="#bd6b20" opacity="0.26"/><circle cx="1001.0" cy="640.6" r="1.63" fill="#bd6b20" opacity="0.32"/><circle cx="1039.5" cy="643.8" r="2.74" fill="#bd6b20" opacity="0.18"/><circle cx="1073.3" cy="644.1" r="3.60" fill="#bd6b20" opacity="0.21"/><circle cx="1108.9" cy="643.2" r="3.69" fill="#bd6b20" opacity="0.22"/><circle cx="1148.9" cy="642.1" r="2.84" fill="#bd6b20" opacity="0.15"/><circle cx="1179.7" cy="639.7" r="2.00" fill="#bd6b20" opacity="0.29"/><circle cx="245.4" cy="261.6" r="220" fill="url(#glow)" opacity="0.9"/>
  <g opacity="0.85" transform="translate(1020, 495)">
        <polygon points="0,-50 43,25 -43,25" fill="none" stroke="#bd6b20" stroke-width="2"/>
        <polygon points="0,-30 26,15 -26,15" fill="#e09440" opacity="0.4"/>
      </g>
  <g transform="translate(80, 90)">
    <rect x="0" y="0" rx="20" ry="20" width="145" height="38" fill="#bd6b20" opacity="0.18" stroke="#bd6b20" stroke-width="1.5"/>
    <text x="72.5" y="25" font-family="ui-sans-serif, Inter, sans-serif" font-weight="700" font-size="14" letter-spacing="2.5" fill="#bd6b20" text-anchor="middle">INFORMATION</text>
  </g>
  <text x="80" y="465" font-family="ui-sans-serif, -apple-system, Segoe UI, Inter, sans-serif" font-weight="800" font-size="44" fill="#faf8f5" opacity="0.98"><tspan x="80" dy="0">Collaborate with PDR COURT</tspan><tspan x="80" dy="56">for ADR Excellence and</tspan><tspan x="80" dy="56">Innovation</tspan></text>
  <rect x="0" y="669" width="1200" height="6" fill="url(#gold)"/>
</svg>