<?xml version="1.0" encoding="UTF-8"?>
<svg xmlns="http://www.w3.org/2000/svg" viewBox="0 0 1200 675" width="1200" height="675" role="img" aria-label="PCA Forms Elite Expert Panel with India's Gourab Banerji">
  <defs>
    <linearGradient id="bg" x1="0%" y1="0%" x2="100%" y2="100%">
      <stop offset="0%" stop-color="#643516"/>
      <stop offset="100%" stop-color="#7d4315"/>
    </linearGradient>
    <linearGradient id="gold" x1="0%" y1="0%" x2="100%" y2="100%">
      <stop offset="0%" stop-color="#ecb478"/>
      <stop offset="100%" stop-color="#faebd6"/>
    </linearGradient>
    <radialGradient id="glow" cx="50%" cy="50%" r="50%">
      <stop offset="0%" stop-color="#ecb478" stop-opacity="0.45"/>
      <stop offset="100%" stop-color="#ecb478" stop-opacity="0"/>
    </radialGradient>
  </defs>
  <rect width="1200" height="675" fill="url(#bg)"/>
  <polygon points="-50,288.1 -20,282.9 10,278.0 40,273.4 70,269.4 100,265.9 130,263.0 160,260.9 190,259.5 220,258.9 250,259.1 280,260.1 310,261.9 340,264.5 370,267.7 400,271.5 430,275.8 460,280.6 490,285.6 520,290.9 550,296.3 580,301.6 610,306.8 640,311.6 670,316.2 700,320.2 730,323.7 760,326.5 790,328.6 820,329.9 850,330.4 880,330.2 910,329.1 940,327.3 970,324.7 1000,321.5 1030,317.6 1060,313.3 1090,308.5 1120,303.4 1150,298.1 1180,292.8 1210,287.5 1240,282.3 1250,725 -50,725" fill="#ecb478" opacity="0.08"/><polygon points="-50,393.0 -20,391.3 10,388.5 40,384.5 70,379.6 100,373.7 130,367.0 160,359.7 190,352.0 220,343.9 250,335.8 280,327.7 310,319.9 340,312.5 370,305.7 400,299.6 430,294.5 460,290.3 490,287.2 520,285.3 550,284.6 580,285.1 610,286.9 640,289.8 670,293.8 700,298.8 730,304.7 760,311.4 790,318.7 820,326.5 850,334.5 880,342.7 910,350.8 940,358.6 970,365.9 1000,372.7 1030,378.7 1060,383.8 1090,387.9 1120,390.9 1150,392.8 1180,393.4 1210,392.8 1240,391.1 1250,725 -50,725" fill="#ecb478" opacity="0.13"/><polygon points="-50,347.0 -20,348.5 10,351.3 40,355.5 70,361.0 100,367.6 130,375.3 160,383.7 190,392.7 220,402.2 250,411.9 280,421.5 310,431.0 340,440.0 370,448.4 400,455.9 430,462.5 460,467.9 490,472.0 520,474.8 550,476.2 580,476.1 610,474.6 640,471.6 670,467.3 700,461.8 730,455.1 760,447.4 790,439.0 820,429.9 850,420.4 880,410.7 910,401.1 940,391.6 970,382.7 1000,374.3 1030,366.8 1060,360.3 1090,355.0 1120,350.9 1150,348.2 1180,346.9 1210,347.1 1240,348.7 1250,725 -50,725" fill="#ecb478" opacity="0.18"/><polygon points="-50,424.5 -20,433.9 10,444.4 40,455.9 70,468.1 100,480.7 130,493.5 160,506.1 190,518.3 220,529.8 250,540.4 280,549.8 310,557.7 340,564.1 370,568.7 400,571.6 430,572.5 460,571.5 490,568.6 520,563.9 550,557.5 580,549.5 610,540.1 640,529.5 670,517.9 700,505.7 730,493.1 760,480.3 790,467.7 820,455.5 850,444.0 880,433.5 910,424.3 940,416.4 970,410.1 1000,405.5 1030,402.8 1060,402.0 1090,403.1 1120,406.1 1150,410.9 1180,417.4 1210,425.5 1240,435.0 1250,725 -50,725" fill="#ecb478" opacity="0.23"/><circle cx="300.0" cy="189.0" r="160" fill="url(#glow)"/>
  <g opacity="0.85" transform="translate(1020, 495)">
        <circle r="68" fill="none" stroke="#ecb478" stroke-width="2" opacity="0.35"/>
        <path d="M -38 12 L 38 12 M -32 -8 L 32 -8 M -45 -28 L 45 -28" stroke="#faebd6" stroke-width="3" stroke-linecap="round"/>
        <rect x="-50" y="-44" width="100" height="80" fill="none" stroke="#ecb478" stroke-width="2"/>
      </g>
  <g transform="translate(80, 90)">
    <rect x="0" y="0" rx="20" ry="20" width="112" height="38" fill="#ecb478" opacity="0.18" stroke="#ecb478" stroke-width="1.5"/>
    <text x="56" y="25" font-family="ui-sans-serif, Inter, sans-serif" font-weight="700" font-size="14" letter-spacing="2.5" fill="#ecb478" text-anchor="middle">NEWSROOM</text>
  </g>
  <text x="80" y="465" font-family="ui-sans-serif, -apple-system, Segoe UI, Inter, sans-serif" font-weight="800" font-size="44" fill="#faf8f5" opacity="0.98"><tspan x="80" dy="0">PCA Forms Elite Expert</tspan><tspan x="80" dy="56">Panel with India's Gourab</tspan><tspan x="80" dy="56">Banerji</tspan></text>
  <rect x="0" y="669" width="1200" height="6" fill="url(#gold)"/>
</svg>