<?xml version="1.0" encoding="UTF-8"?>
<svg xmlns="http://www.w3.org/2000/svg" viewBox="0 0 1200 675" width="1200" height="675" role="img" aria-label="Successful Mediation in the Non-Payment Dispute between Shipping and Manufacturing Companies">
  <defs>
    <linearGradient id="bg" x1="0%" y1="0%" x2="100%" y2="100%">
      <stop offset="0%" stop-color="#643516"/>
      <stop offset="100%" stop-color="#7d4315"/>
    </linearGradient>
    <linearGradient id="gold" x1="0%" y1="0%" x2="100%" y2="100%">
      <stop offset="0%" stop-color="#ecb478"/>
      <stop offset="100%" stop-color="#faebd6"/>
    </linearGradient>
    <radialGradient id="glow" cx="50%" cy="50%" r="50%">
      <stop offset="0%" stop-color="#ecb478" stop-opacity="0.45"/>
      <stop offset="100%" stop-color="#ecb478" stop-opacity="0"/>
    </radialGradient>
  </defs>
  <rect width="1200" height="675" fill="url(#bg)"/>
  <polygon points="275.8,42.0 367.6,255.6 154.1,347.4 62.2,133.9" fill="#faebd6" opacity="0.14"/><polygon points="1059.0,138.6 1095.2,273.0 960.9,309.1 924.7,174.8" fill="#faebd6" opacity="0.06"/><polygon points="1145.7,-59.5 1197.8,211.6 936.9,121.1" fill="#faebd6" opacity="0.12"/><polygon points="422.6,407.7 325.0,395.3 306.6,298.6 392.9,251.3 464.6,318.7" fill="#faebd6" opacity="0.18"/><polygon points="61.8,276.2 -40.4,56.2 201.3,77.7" fill="#faebd6" opacity="0.12"/><polygon points="357.3,581.5 266.4,734.5 113.4,643.6 204.4,490.6" fill="#faebd6" opacity="0.11"/><polygon points="1007.6,751.0 866.3,761.5 812.7,630.4 920.8,538.8 1041.3,613.4" fill="#faebd6" opacity="0.17"/><polygon points="923.5,329.8 1022.6,371.1 1014.0,478.1 909.5,503.0 853.6,411.3" fill="#faebd6" opacity="0.17"/><polygon points="434.5,542.4 550.7,554.0 539.0,670.2 422.9,658.5" fill="#faebd6" opacity="0.11"/><polygon points="534.6,-36.6 507.7,150.9 358.7,33.9" fill="#faebd6" opacity="0.18"/><polygon points="446.8,164.2 317.4,297.5 150.6,215.5 177.0,31.6 360.1,-0.1" fill="#faebd6" opacity="0.14"/><polygon points="106.7,341.2 -67.2,339.3 21.3,189.7" fill="#faebd6" opacity="0.10"/><polygon points="542.3,348.1 640.3,302.0 714.5,381.0 662.2,475.9 555.8,455.5" fill="#faebd6" opacity="0.05"/><polygon points="322.7,832.0 165.6,587.5 455.9,573.7" fill="#faebd6" opacity="0.18"/><circle cx="936.0" cy="202.5" r="180" fill="url(#glow)"/>
  <g opacity="0.85" transform="translate(1020, 495)">
        <circle r="60" fill="#ecb478" opacity="0.18"/>
        <path d="M -34 6 Q -10 -22 14 6 Q 34 24 14 26 L -22 26 Q -38 24 -34 6 Z" fill="none" stroke="#faebd6" stroke-width="3" stroke-linejoin="round"/>
      </g>
  <g transform="translate(80, 90)">
    <rect x="0" y="0" rx="20" ry="20" width="134" height="38" fill="#ecb478" opacity="0.18" stroke="#ecb478" stroke-width="1.5"/>
    <text x="67" y="25" font-family="ui-sans-serif, Inter, sans-serif" font-weight="700" font-size="14" letter-spacing="2.5" fill="#ecb478" text-anchor="middle">CASE STUDY</text>
  </g>
  <text x="80" y="465" font-family="ui-sans-serif, -apple-system, Segoe UI, Inter, sans-serif" font-weight="800" font-size="44" fill="#faf8f5" opacity="0.98"><tspan x="80" dy="0">Successful Mediation in</tspan><tspan x="80" dy="56">the Non-Payment Dispute</tspan><tspan x="80" dy="56">between Shipping and</tspan></text>
  <rect x="0" y="669" width="1200" height="6" fill="url(#gold)"/>
</svg>