<?xml version="1.0" encoding="UTF-8"?>
<svg xmlns="http://www.w3.org/2000/svg" viewBox="0 0 1200 675" width="1200" height="675" role="img" aria-label="Mediation Success in Mumbai: Movie Studio Resolves Dispute Without Formal Agreement">
  <defs>
    <linearGradient id="bg" x1="0%" y1="0%" x2="100%" y2="100%">
      <stop offset="0%" stop-color="#faf8f5"/>
      <stop offset="100%" stop-color="#f4efe8"/>
    </linearGradient>
    <linearGradient id="gold" x1="0%" y1="0%" x2="100%" y2="100%">
      <stop offset="0%" stop-color="#bd6b20"/>
      <stop offset="100%" stop-color="#9a5518"/>
    </linearGradient>
    <radialGradient id="glow" cx="50%" cy="50%" r="50%">
      <stop offset="0%" stop-color="#bd6b20" stop-opacity="0.45"/>
      <stop offset="100%" stop-color="#bd6b20" stop-opacity="0"/>
    </radialGradient>
  </defs>
  <rect width="1200" height="675" fill="url(#bg)"/>
  <circle cx="32.6" cy="32.1" r="3.74" fill="#bd6b20" opacity="0.26"/><circle cx="68.7" cy="31.7" r="2.44" fill="#bd6b20" opacity="0.34"/><circle cx="103.4" cy="28.2" r="2.09" fill="#bd6b20" opacity="0.17"/><circle cx="139.8" cy="32.4" r="2.69" fill="#bd6b20" opacity="0.32"/><circle cx="176.6" cy="30.6" r="2.38" fill="#bd6b20" opacity="0.36"/><circle cx="208.2" cy="27.2" r="2.33" fill="#bd6b20" opacity="0.22"/><circle cx="247.8" cy="29.9" r="1.89" fill="#bd6b20" opacity="0.16"/><circle cx="281.9" cy="32.4" r="3.96" fill="#bd6b20" opacity="0.17"/><circle cx="320.4" cy="30.0" r="3.63" fill="#bd6b20" opacity="0.21"/><circle cx="355.0" cy="32.2" r="2.96" fill="#bd6b20" opacity="0.33"/><circle cx="390.7" cy="31.7" r="1.61" fill="#bd6b20" opacity="0.28"/><circle cx="424.4" cy="31.0" r="2.78" fill="#bd6b20" opacity="0.16"/><circle cx="460.4" cy="32.7" r="3.87" fill="#bd6b20" opacity="0.25"/><circle cx="497.4" cy="27.2" r="3.33" fill="#bd6b20" opacity="0.34"/><circle cx="531.7" cy="28.4" r="3.27" fill="#bd6b20" opacity="0.28"/><circle cx="567.4" cy="32.0" r="2.17" fill="#bd6b20" opacity="0.17"/><circle cx="604.4" cy="29.5" r="3.55" fill="#bd6b20" opacity="0.18"/><circle cx="641.2" cy="29.1" r="3.61" fill="#bd6b20" opacity="0.30"/><circle cx="679.8" cy="31.4" r="2.86" fill="#bd6b20" opacity="0.36"/><circle cx="711.6" cy="30.9" r="2.37" fill="#bd6b20" opacity="0.19"/><circle cx="752.3" cy="30.2" r="2.96" fill="#bd6b20" opacity="0.19"/><circle cx="784.3" cy="30.1" r="2.41" fill="#bd6b20" opacity="0.35"/><circle cx="824.3" cy="30.3" r="2.52" fill="#bd6b20" opacity="0.20"/><circle cx="859.0" cy="29.9" r="3.52" fill="#bd6b20" opacity="0.23"/><circle cx="895.5" cy="29.6" r="1.98" fill="#bd6b20" opacity="0.17"/><circle cx="928.1" cy="32.2" r="3.88" fill="#bd6b20" opacity="0.21"/><circle cx="964.6" cy="28.3" r="2.70" fill="#bd6b20" opacity="0.20"/><circle cx="1001.8" cy="31.0" r="3.19" fill="#bd6b20" opacity="0.17"/><circle cx="1040.3" cy="32.7" r="1.88" fill="#bd6b20" opacity="0.19"/><circle cx="1074.6" cy="27.6" r="2.02" fill="#bd6b20" opacity="0.26"/><circle cx="1107.1" cy="27.3" r="2.13" fill="#bd6b20" opacity="0.18"/><circle cx="1145.9" cy="27.4" r="1.84" fill="#bd6b20" opacity="0.35"/><circle cx="1184.2" cy="32.6" r="2.92" fill="#bd6b20" opacity="0.30"/><circle cx="28.0" cy="67.1" r="3.59" fill="#bd6b20" opacity="0.31"/><circle cx="64.2" cy="66.3" r="1.90" fill="#bd6b20" opacity="0.19"/><circle cx="103.5" cy="66.1" r="3.34" fill="#bd6b20" opacity="0.28"/><circle cx="135.6" cy="64.3" r="2.59" fill="#bd6b20" opacity="0.17"/><circle cx="174.3" cy="65.6" r="3.48" fill="#bd6b20" opacity="0.25"/><circle cx="209.6" cy="64.9" r="3.70" fill="#bd6b20" opacity="0.26"/><circle cx="245.4" cy="64.5" r="2.75" fill="#bd6b20" opacity="0.34"/><circle cx="284.5" cy="63.2" r="3.87" fill="#bd6b20" opacity="0.21"/><circle cx="316.2" cy="66.7" r="2.86" fill="#bd6b20" opacity="0.26"/><circle cx="353.4" cy="63.2" r="2.46" fill="#bd6b20" opacity="0.29"/><circle cx="390.5" cy="65.6" r="1.61" fill="#bd6b20" opacity="0.21"/><circle cx="423.3" cy="64.5" r="3.88" fill="#bd6b20" opacity="0.19"/><circle cx="462.4" cy="66.4" r="2.41" fill="#bd6b20" opacity="0.16"/><circle cx="495.8" cy="65.0" r="3.94" fill="#bd6b20" opacity="0.20"/><circle cx="531.9" cy="63.9" r="1.81" fill="#bd6b20" opacity="0.25"/><circle cx="571.5" cy="65.3" r="3.62" fill="#bd6b20" opacity="0.22"/><circle cx="606.8" cy="65.4" r="2.44" fill="#bd6b20" opacity="0.23"/><circle cx="641.5" cy="67.6" r="2.37" fill="#bd6b20" opacity="0.33"/><circle cx="675.8" cy="67.7" r="2.12" fill="#bd6b20" opacity="0.20"/><circle cx="712.2" cy="63.3" r="2.19" fill="#bd6b20" opacity="0.24"/><circle cx="747.0" cy="64.3" r="3.16" fill="#bd6b20" opacity="0.31"/><circle cx="788.1" cy="63.8" r="3.73" fill="#bd6b20" opacity="0.35"/><circle cx="823.9" cy="66.5" r="3.64" fill="#bd6b20" opacity="0.30"/><circle cx="855.7" cy="65.5" r="2.88" fill="#bd6b20" opacity="0.34"/><circle cx="895.2" cy="63.7" r="2.91" fill="#bd6b20" opacity="0.36"/><circle cx="930.7" cy="63.2" r="3.12" fill="#bd6b20" opacity="0.27"/><circle cx="967.2" cy="63.7" r="2.73" fill="#bd6b20" opacity="0.26"/><circle cx="1004.2" cy="63.6" r="3.87" fill="#bd6b20" opacity="0.28"/><circle cx="1035.9" cy="66.4" r="3.40" fill="#bd6b20" opacity="0.22"/><circle cx="1072.3" cy="64.0" r="2.54" fill="#bd6b20" opacity="0.32"/><circle cx="1109.3" cy="67.5" r="2.87" fill="#bd6b20" opacity="0.29"/><circle cx="1149.0" cy="64.0" r="2.10" fill="#bd6b20" opacity="0.29"/><circle cx="1180.6" cy="63.7" r="1.97" fill="#bd6b20" opacity="0.15"/><circle cx="32.1" cy="103.8" r="2.43" fill="#bd6b20" opacity="0.24"/><circle cx="64.1" cy="104.3" r="3.38" fill="#bd6b20" opacity="0.29"/><circle cx="103.6" cy="99.3" r="1.75" fill="#bd6b20" opacity="0.24"/><circle cx="137.1" cy="103.6" r="3.45" fill="#bd6b20" opacity="0.35"/><circle cx="174.5" cy="104.4" r="3.40" fill="#bd6b20" opacity="0.26"/><circle cx="207.6" cy="102.8" r="1.81" fill="#bd6b20" opacity="0.26"/><circle cx="243.7" cy="102.2" r="1.82" fill="#bd6b20" opacity="0.30"/><circle cx="280.4" cy="103.5" r="3.03" fill="#bd6b20" opacity="0.27"/><circle cx="317.3" cy="99.7" r="3.92" fill="#bd6b20" opacity="0.33"/><circle cx="355.4" cy="101.0" r="2.32" fill="#bd6b20" opacity="0.17"/><circle cx="390.6" cy="104.3" r="3.94" fill="#bd6b20" opacity="0.30"/><circle cx="427.3" cy="104.8" r="3.97" fill="#bd6b20" opacity="0.26"/><circle cx="461.0" cy="102.9" r="2.62" fill="#bd6b20" opacity="0.22"/><circle cx="496.5" cy="104.1" r="2.39" fill="#bd6b20" opacity="0.21"/><circle cx="531.2" cy="100.7" r="2.50" fill="#bd6b20" opacity="0.25"/><circle cx="569.3" cy="102.8" r="3.01" fill="#bd6b20" opacity="0.35"/><circle cx="606.4" cy="101.7" r="1.95" fill="#bd6b20" opacity="0.33"/><circle cx="640.4" cy="99.3" r="3.79" fill="#bd6b20" opacity="0.33"/><circle cx="678.0" cy="101.9" r="2.23" fill="#bd6b20" opacity="0.34"/><circle cx="716.5" cy="100.9" r="2.91" fill="#bd6b20" opacity="0.25"/><circle cx="750.0" cy="99.3" r="2.56" fill="#bd6b20" opacity="0.32"/><circle cx="783.7" cy="101.5" r="2.76" fill="#bd6b20" opacity="0.22"/><circle cx="819.7" cy="102.3" r="3.91" fill="#bd6b20" opacity="0.28"/><circle cx="858.2" cy="103.4" r="3.69" fill="#bd6b20" opacity="0.18"/><circle cx="894.1" cy="99.1" r="3.74" fill="#bd6b20" opacity="0.22"/><circle cx="928.4" cy="102.5" r="3.52" fill="#bd6b20" opacity="0.22"/><circle cx="966.4" cy="102.3" r="1.90" fill="#bd6b20" opacity="0.20"/><circle cx="1003.6" cy="102.3" r="1.92" fill="#bd6b20" opacity="0.26"/><circle cx="1040.8" cy="100.3" r="2.85" fill="#bd6b20" opacity="0.20"/><circle cx="1076.7" cy="104.4" r="1.98" fill="#bd6b20" opacity="0.17"/><circle cx="1112.8" cy="99.1" r="3.10" fill="#bd6b20" opacity="0.20"/><circle cx="1147.6" cy="100.6" r="3.00" fill="#bd6b20" opacity="0.29"/><circle cx="1181.1" cy="103.5" r="3.95" fill="#bd6b20" opacity="0.32"/><circle cx="29.1" cy="138.7" r="3.95" fill="#bd6b20" opacity="0.21"/><circle cx="68.8" cy="139.0" r="2.71" fill="#bd6b20" opacity="0.27"/><circle cx="99.5" cy="138.0" r="1.68" fill="#bd6b20" opacity="0.25"/><circle cx="139.9" cy="137.3" r="1.85" fill="#bd6b20" opacity="0.23"/><circle cx="175.9" cy="138.2" r="2.65" fill="#bd6b20" opacity="0.22"/><circle cx="211.0" cy="137.2" r="1.89" fill="#bd6b20" opacity="0.21"/><circle cx="247.4" cy="137.6" r="3.83" fill="#bd6b20" opacity="0.36"/><circle cx="282.4" cy="135.3" r="3.12" fill="#bd6b20" opacity="0.29"/><circle cx="317.8" cy="138.2" r="2.30" fill="#bd6b20" opacity="0.23"/><circle cx="355.2" cy="136.7" r="2.34" fill="#bd6b20" opacity="0.21"/><circle cx="388.0" cy="138.1" r="2.21" fill="#bd6b20" opacity="0.27"/><circle cx="428.5" cy="140.3" r="3.41" fill="#bd6b20" opacity="0.21"/><circle cx="462.8" cy="135.3" r="2.93" fill="#bd6b20" opacity="0.22"/><circle cx="499.8" cy="135.0" r="3.67" fill="#bd6b20" opacity="0.27"/><circle cx="536.6" cy="140.6" r="3.53" fill="#bd6b20" opacity="0.31"/><circle cx="571.2" cy="136.7" r="2.54" fill="#bd6b20" opacity="0.34"/><circle cx="605.6" cy="137.3" r="3.03" fill="#bd6b20" opacity="0.28"/><circle cx="639.2" cy="137.6" r="3.08" fill="#bd6b20" opacity="0.30"/><circle cx="681.0" cy="138.2" r="2.51" fill="#bd6b20" opacity="0.23"/><circle cx="712.2" cy="138.0" r="2.20" fill="#bd6b20" opacity="0.33"/><circle cx="751.0" cy="140.9" r="2.08" fill="#bd6b20" opacity="0.24"/><circle cx="786.4" cy="135.8" r="1.73" fill="#bd6b20" opacity="0.20"/><circle cx="819.9" cy="137.3" r="1.86" fill="#bd6b20" opacity="0.29"/><circle cx="856.4" cy="138.1" r="3.15" fill="#bd6b20" opacity="0.15"/><circle cx="892.6" cy="136.7" r="3.73" fill="#bd6b20" opacity="0.36"/><circle cx="928.6" cy="136.2" r="3.30" fill="#bd6b20" opacity="0.16"/><circle cx="966.2" cy="137.3" r="2.88" fill="#bd6b20" opacity="0.20"/><circle cx="1000.1" cy="137.8" r="2.90" fill="#bd6b20" opacity="0.28"/><circle cx="1040.1" cy="135.6" r="2.37" fill="#bd6b20" opacity="0.19"/><circle cx="1075.2" cy="138.2" r="2.39" fill="#bd6b20" opacity="0.32"/><circle cx="1109.3" cy="137.3" r="2.89" fill="#bd6b20" opacity="0.29"/><circle cx="1147.9" cy="136.0" r="1.80" fill="#bd6b20" opacity="0.22"/><circle cx="1184.2" cy="139.5" r="3.72" fill="#bd6b20" opacity="0.27"/><circle cx="30.6" cy="172.1" r="1.94" fill="#bd6b20" opacity="0.29"/><circle cx="65.8" cy="174.0" r="2.29" fill="#bd6b20" opacity="0.16"/><circle cx="102.5" cy="173.3" r="3.62" fill="#bd6b20" opacity="0.19"/><circle cx="137.8" cy="174.7" r="2.85" fill="#bd6b20" opacity="0.19"/><circle cx="172.7" cy="175.2" r="2.85" fill="#bd6b20" opacity="0.29"/><circle cx="212.9" cy="171.7" r="3.50" fill="#bd6b20" opacity="0.34"/><circle cx="246.1" cy="172.0" r="2.64" fill="#bd6b20" opacity="0.27"/><circle cx="284.7" cy="172.2" r="3.76" fill="#bd6b20" opacity="0.27"/><circle cx="315.9" cy="176.2" r="3.27" fill="#bd6b20" opacity="0.28"/><circle cx="351.7" cy="171.2" r="1.94" fill="#bd6b20" opacity="0.25"/><circle cx="387.5" cy="171.8" r="3.43" fill="#bd6b20" opacity="0.34"/><circle cx="424.9" cy="174.2" r="2.81" fill="#bd6b20" opacity="0.27"/><circle cx="460.4" cy="173.9" r="2.92" fill="#bd6b20" opacity="0.23"/><circle cx="496.4" cy="171.7" r="1.72" fill="#bd6b20" opacity="0.25"/><circle cx="532.8" cy="172.2" r="2.21" fill="#bd6b20" opacity="0.25"/><circle cx="570.8" cy="174.6" r="2.02" fill="#bd6b20" opacity="0.33"/><circle cx="607.7" cy="175.0" r="2.82" fill="#bd6b20" opacity="0.25"/><circle cx="644.2" cy="176.5" r="1.71" fill="#bd6b20" opacity="0.16"/><circle cx="676.4" cy="173.5" r="3.69" fill="#bd6b20" opacity="0.19"/><circle cx="714.8" cy="175.6" r="3.17" fill="#bd6b20" opacity="0.15"/><circle cx="749.8" cy="173.1" r="2.36" fill="#bd6b20" opacity="0.32"/><circle cx="787.2" cy="176.0" r="3.77" fill="#bd6b20" opacity="0.16"/><circle cx="824.9" cy="172.5" r="3.52" fill="#bd6b20" opacity="0.20"/><circle cx="855.1" cy="172.7" r="2.33" fill="#bd6b20" opacity="0.33"/><circle cx="892.9" cy="175.9" r="3.68" fill="#bd6b20" opacity="0.32"/><circle cx="930.7" cy="174.8" r="2.15" fill="#bd6b20" opacity="0.34"/><circle cx="963.5" cy="176.3" r="2.15" fill="#bd6b20" opacity="0.27"/><circle cx="1002.3" cy="172.8" r="3.74" fill="#bd6b20" opacity="0.31"/><circle cx="1035.3" cy="171.1" r="1.64" fill="#bd6b20" opacity="0.17"/><circle cx="1074.3" cy="176.0" r="1.74" fill="#bd6b20" opacity="0.27"/><circle cx="1110.6" cy="171.1" r="2.16" fill="#bd6b20" opacity="0.32"/><circle cx="1146.4" cy="176.2" r="2.64" fill="#bd6b20" opacity="0.20"/><circle cx="1184.3" cy="175.8" r="3.61" fill="#bd6b20" opacity="0.16"/><circle cx="31.4" cy="207.6" r="3.72" fill="#bd6b20" opacity="0.24"/><circle cx="64.5" cy="210.6" r="2.47" fill="#bd6b20" opacity="0.36"/><circle cx="102.7" cy="208.6" r="2.35" fill="#bd6b20" opacity="0.15"/><circle cx="138.8" cy="208.0" r="2.19" fill="#bd6b20" opacity="0.36"/><circle cx="172.9" cy="212.9" r="1.82" fill="#bd6b20" opacity="0.30"/><circle cx="212.4" cy="207.4" r="3.62" fill="#bd6b20" opacity="0.33"/><circle cx="245.1" cy="212.2" r="2.95" fill="#bd6b20" opacity="0.25"/><circle cx="284.0" cy="209.0" r="2.07" fill="#bd6b20" opacity="0.31"/><circle cx="315.8" cy="210.2" r="3.22" fill="#bd6b20" opacity="0.18"/><circle cx="351.3" cy="208.0" r="3.94" fill="#bd6b20" opacity="0.22"/><circle cx="390.5" cy="210.6" r="2.46" fill="#bd6b20" opacity="0.30"/><circle cx="427.6" cy="212.3" r="2.22" fill="#bd6b20" opacity="0.21"/><circle cx="462.6" cy="211.3" r="2.24" fill="#bd6b20" opacity="0.24"/><circle cx="498.9" cy="207.2" r="2.60" fill="#bd6b20" opacity="0.24"/><circle cx="536.9" cy="210.4" r="2.65" fill="#bd6b20" opacity="0.21"/><circle cx="569.0" cy="208.5" r="2.87" fill="#bd6b20" opacity="0.27"/><circle cx="606.1" cy="207.9" r="3.32" fill="#bd6b20" opacity="0.26"/><circle cx="639.6" cy="211.9" r="3.37" fill="#bd6b20" opacity="0.33"/><circle cx="680.6" cy="208.9" r="2.70" fill="#bd6b20" opacity="0.31"/><circle cx="712.9" cy="211.6" r="3.11" fill="#bd6b20" opacity="0.17"/><circle cx="751.8" cy="207.6" r="3.49" fill="#bd6b20" opacity="0.23"/><circle cx="786.3" cy="211.2" r="3.99" fill="#bd6b20" opacity="0.23"/><circle cx="819.7" cy="211.0" r="2.73" fill="#bd6b20" opacity="0.22"/><circle cx="857.5" cy="212.1" r="3.94" fill="#bd6b20" opacity="0.30"/><circle cx="892.0" cy="212.3" r="2.43" fill="#bd6b20" opacity="0.19"/><circle cx="928.7" cy="210.0" r="3.13" fill="#bd6b20" opacity="0.23"/><circle cx="963.9" cy="210.6" r="2.08" fill="#bd6b20" opacity="0.24"/><circle cx="1003.5" cy="211.1" r="3.85" fill="#bd6b20" opacity="0.19"/><circle cx="1038.1" cy="208.3" r="1.97" fill="#bd6b20" opacity="0.28"/><circle cx="1076.2" cy="211.9" r="2.27" fill="#bd6b20" opacity="0.27"/><circle cx="1112.5" cy="212.2" r="2.66" fill="#bd6b20" opacity="0.16"/><circle cx="1144.1" cy="208.5" r="1.88" fill="#bd6b20" opacity="0.31"/><circle cx="1179.2" cy="207.1" r="2.66" fill="#bd6b20" opacity="0.35"/><circle cx="30.1" cy="244.6" r="2.14" fill="#bd6b20" opacity="0.16"/><circle cx="63.5" cy="243.4" r="3.97" fill="#bd6b20" opacity="0.30"/><circle cx="100.7" cy="247.9" r="2.75" fill="#bd6b20" opacity="0.19"/><circle cx="135.4" cy="243.4" r="2.03" fill="#bd6b20" opacity="0.16"/><circle cx="171.9" cy="248.3" r="3.76" fill="#bd6b20" opacity="0.34"/><circle cx="210.5" cy="247.9" r="2.41" fill="#bd6b20" opacity="0.32"/><circle cx="246.8" cy="247.5" r="3.15" fill="#bd6b20" opacity="0.27"/><circle cx="284.5" cy="243.6" r="2.26" fill="#bd6b20" opacity="0.20"/><circle cx="320.4" cy="248.9" r="3.63" fill="#bd6b20" opacity="0.25"/><circle cx="355.2" cy="246.9" r="3.52" fill="#bd6b20" opacity="0.23"/><circle cx="392.4" cy="244.1" r="3.46" fill="#bd6b20" opacity="0.21"/><circle cx="429.0" cy="243.9" r="3.80" fill="#bd6b20" opacity="0.24"/><circle cx="464.8" cy="247.4" r="3.12" fill="#bd6b20" opacity="0.23"/><circle cx="496.3" cy="244.3" r="3.01" fill="#bd6b20" opacity="0.33"/><circle cx="536.6" cy="246.1" r="2.46" fill="#bd6b20" opacity="0.24"/><circle cx="571.9" cy="245.6" r="3.94" fill="#bd6b20" opacity="0.21"/><circle cx="607.9" cy="244.9" r="3.26" fill="#bd6b20" opacity="0.28"/><circle cx="639.8" cy="243.8" r="1.65" fill="#bd6b20" opacity="0.23"/><circle cx="679.9" cy="246.3" r="2.48" fill="#bd6b20" opacity="0.32"/><circle cx="715.1" cy="246.5" r="2.74" fill="#bd6b20" opacity="0.19"/><circle cx="747.7" cy="245.1" r="3.07" fill="#bd6b20" opacity="0.21"/><circle cx="788.6" cy="247.0" r="2.12" fill="#bd6b20" opacity="0.15"/><circle cx="820.7" cy="246.5" r="2.91" fill="#bd6b20" opacity="0.30"/><circle cx="859.3" cy="245.7" r="3.96" fill="#bd6b20" opacity="0.22"/><circle cx="891.4" cy="247.6" r="3.09" fill="#bd6b20" opacity="0.32"/><circle cx="927.5" cy="246.5" r="3.00" fill="#bd6b20" opacity="0.33"/><circle cx="967.6" cy="245.1" r="2.07" fill="#bd6b20" opacity="0.18"/><circle cx="1000.7" cy="245.7" r="3.72" fill="#bd6b20" opacity="0.35"/><circle cx="1035.1" cy="246.3" r="2.57" fill="#bd6b20" opacity="0.17"/><circle cx="1074.4" cy="247.8" r="3.88" fill="#bd6b20" opacity="0.33"/><circle cx="1110.4" cy="244.0" r="1.92" fill="#bd6b20" opacity="0.18"/><circle cx="1146.8" cy="244.6" r="3.08" fill="#bd6b20" opacity="0.31"/><circle cx="1179.9" cy="248.7" r="3.96" fill="#bd6b20" opacity="0.35"/><circle cx="29.8" cy="284.7" r="3.59" fill="#bd6b20" opacity="0.19"/><circle cx="64.9" cy="279.6" r="2.59" fill="#bd6b20" opacity="0.20"/><circle cx="103.9" cy="281.5" r="3.49" fill="#bd6b20" opacity="0.32"/><circle cx="138.8" cy="280.7" r="1.73" fill="#bd6b20" opacity="0.16"/><circle cx="172.6" cy="282.5" r="3.69" fill="#bd6b20" opacity="0.28"/><circle cx="207.3" cy="283.9" r="2.85" fill="#bd6b20" opacity="0.33"/><circle cx="246.3" cy="283.3" r="3.78" fill="#bd6b20" opacity="0.35"/><circle cx="281.5" cy="284.4" r="2.37" fill="#bd6b20" opacity="0.30"/><circle cx="317.6" cy="282.7" r="3.75" fill="#bd6b20" opacity="0.29"/><circle cx="355.5" cy="284.0" r="2.00" fill="#bd6b20" opacity="0.22"/><circle cx="392.0" cy="280.8" r="2.28" fill="#bd6b20" opacity="0.22"/><circle cx="427.3" cy="280.7" r="3.97" fill="#bd6b20" opacity="0.31"/><circle cx="462.5" cy="283.5" r="2.66" fill="#bd6b20" opacity="0.15"/><circle cx="500.9" cy="284.3" r="3.60" fill="#bd6b20" opacity="0.17"/><circle cx="536.0" cy="284.7" r="1.92" fill="#bd6b20" opacity="0.22"/><circle cx="570.2" cy="282.9" r="2.60" fill="#bd6b20" opacity="0.31"/><circle cx="608.7" cy="279.2" r="3.70" fill="#bd6b20" opacity="0.29"/><circle cx="641.1" cy="284.2" r="2.82" fill="#bd6b20" opacity="0.28"/><circle cx="680.4" cy="282.0" r="2.50" fill="#bd6b20" opacity="0.32"/><circle cx="714.4" cy="281.4" r="3.52" fill="#bd6b20" opacity="0.24"/><circle cx="747.1" cy="282.5" r="2.28" fill="#bd6b20" opacity="0.21"/><circle cx="783.6" cy="280.8" r="2.36" fill="#bd6b20" opacity="0.34"/><circle cx="824.5" cy="282.2" r="3.63" fill="#bd6b20" opacity="0.35"/><circle cx="857.9" cy="280.4" r="2.50" fill="#bd6b20" opacity="0.29"/><circle cx="893.3" cy="280.9" r="2.98" fill="#bd6b20" opacity="0.27"/><circle cx="929.0" cy="282.5" r="2.02" fill="#bd6b20" opacity="0.18"/><circle cx="963.3" cy="284.0" r="2.21" fill="#bd6b20" opacity="0.17"/><circle cx="1002.9" cy="280.7" r="2.26" fill="#bd6b20" opacity="0.30"/><circle cx="1039.8" cy="284.6" r="2.84" fill="#bd6b20" opacity="0.26"/><circle cx="1072.9" cy="280.7" r="3.57" fill="#bd6b20" opacity="0.22"/><circle cx="1109.4" cy="284.5" r="1.66" fill="#bd6b20" opacity="0.19"/><circle cx="1147.5" cy="282.9" r="2.32" fill="#bd6b20" opacity="0.19"/><circle cx="1180.4" cy="281.3" r="2.40" fill="#bd6b20" opacity="0.28"/><circle cx="27.7" cy="317.7" r="3.05" fill="#bd6b20" opacity="0.15"/><circle cx="65.5" cy="317.4" r="3.10" fill="#bd6b20" opacity="0.24"/><circle cx="99.6" cy="316.6" r="3.35" fill="#bd6b20" opacity="0.29"/><circle cx="140.0" cy="316.1" r="2.43" fill="#bd6b20" opacity="0.35"/><circle cx="176.1" cy="318.7" r="2.49" fill="#bd6b20" opacity="0.35"/><circle cx="207.5" cy="319.8" r="2.73" fill="#bd6b20" opacity="0.23"/><circle cx="245.1" cy="316.3" r="1.75" fill="#bd6b20" opacity="0.36"/><circle cx="281.1" cy="320.1" r="2.68" fill="#bd6b20" opacity="0.23"/><circle cx="317.8" cy="318.7" r="2.99" fill="#bd6b20" opacity="0.17"/><circle cx="353.6" cy="320.7" r="2.18" fill="#bd6b20" opacity="0.26"/><circle cx="389.5" cy="318.3" r="3.04" fill="#bd6b20" opacity="0.21"/><circle cx="423.3" cy="316.3" r="3.53" fill="#bd6b20" opacity="0.24"/><circle cx="464.2" cy="318.6" r="2.15" fill="#bd6b20" opacity="0.16"/><circle cx="497.7" cy="315.0" r="2.18" fill="#bd6b20" opacity="0.20"/><circle cx="531.5" cy="317.9" r="3.60" fill="#bd6b20" opacity="0.27"/><circle cx="569.2" cy="319.8" r="2.16" fill="#bd6b20" opacity="0.30"/><circle cx="608.5" cy="319.2" r="2.44" fill="#bd6b20" opacity="0.36"/><circle cx="641.4" cy="318.2" r="3.51" fill="#bd6b20" opacity="0.25"/><circle cx="676.6" cy="316.2" r="2.05" fill="#bd6b20" opacity="0.35"/><circle cx="714.4" cy="320.9" r="1.92" fill="#bd6b20" opacity="0.31"/><circle cx="748.9" cy="316.5" r="1.68" fill="#bd6b20" opacity="0.30"/><circle cx="788.2" cy="319.5" r="2.47" fill="#bd6b20" opacity="0.19"/><circle cx="823.6" cy="317.5" r="3.70" fill="#bd6b20" opacity="0.31"/><circle cx="860.8" cy="315.6" r="2.19" fill="#bd6b20" opacity="0.31"/><circle cx="893.5" cy="317.0" r="2.53" fill="#bd6b20" opacity="0.21"/><circle cx="928.2" cy="318.0" r="2.17" fill="#bd6b20" opacity="0.25"/><circle cx="963.1" cy="315.5" r="1.71" fill="#bd6b20" opacity="0.32"/><circle cx="1001.1" cy="318.4" r="3.29" fill="#bd6b20" opacity="0.18"/><circle cx="1038.4" cy="318.7" r="1.98" fill="#bd6b20" opacity="0.22"/><circle cx="1075.9" cy="316.4" r="3.25" fill="#bd6b20" opacity="0.32"/><circle cx="1111.8" cy="320.9" r="2.26" fill="#bd6b20" opacity="0.29"/><circle cx="1147.4" cy="318.1" r="2.77" fill="#bd6b20" opacity="0.33"/><circle cx="1182.1" cy="317.5" r="2.84" fill="#bd6b20" opacity="0.16"/><circle cx="31.4" cy="354.3" r="1.81" fill="#bd6b20" opacity="0.16"/><circle cx="64.0" cy="354.7" r="3.45" fill="#bd6b20" opacity="0.27"/><circle cx="100.2" cy="352.5" r="3.62" fill="#bd6b20" opacity="0.21"/><circle cx="135.4" cy="355.1" r="2.69" fill="#bd6b20" opacity="0.26"/><circle cx="171.9" cy="354.7" r="3.14" fill="#bd6b20" opacity="0.16"/><circle cx="209.4" cy="353.7" r="2.46" fill="#bd6b20" opacity="0.18"/><circle cx="244.3" cy="353.0" r="1.62" fill="#bd6b20" opacity="0.36"/><circle cx="281.2" cy="356.7" r="2.17" fill="#bd6b20" opacity="0.32"/><circle cx="319.3" cy="354.6" r="2.79" fill="#bd6b20" opacity="0.19"/><circle cx="351.8" cy="354.1" r="2.82" fill="#bd6b20" opacity="0.34"/><circle cx="392.5" cy="354.8" r="3.54" fill="#bd6b20" opacity="0.33"/><circle cx="424.3" cy="351.3" r="3.26" fill="#bd6b20" opacity="0.17"/><circle cx="460.2" cy="353.9" r="2.50" fill="#bd6b20" opacity="0.21"/><circle cx="496.6" cy="354.1" r="3.21" fill="#bd6b20" opacity="0.32"/><circle cx="534.8" cy="355.1" r="3.01" fill="#bd6b20" opacity="0.34"/><circle cx="571.5" cy="354.4" r="2.67" fill="#bd6b20" opacity="0.23"/><circle cx="604.7" cy="351.8" r="3.08" fill="#bd6b20" opacity="0.28"/><circle cx="642.1" cy="353.2" r="3.41" fill="#bd6b20" opacity="0.18"/><circle cx="676.0" cy="355.5" r="3.40" fill="#bd6b20" opacity="0.25"/><circle cx="715.2" cy="355.2" r="1.73" fill="#bd6b20" opacity="0.34"/><circle cx="747.2" cy="355.3" r="3.69" fill="#bd6b20" opacity="0.29"/><circle cx="783.6" cy="352.3" r="1.74" fill="#bd6b20" opacity="0.36"/><circle cx="822.8" cy="355.6" r="2.54" fill="#bd6b20" opacity="0.27"/><circle cx="857.1" cy="352.7" r="1.68" fill="#bd6b20" opacity="0.30"/><circle cx="891.9" cy="352.1" r="3.43" fill="#bd6b20" opacity="0.18"/><circle cx="930.7" cy="352.8" r="3.16" fill="#bd6b20" opacity="0.29"/><circle cx="968.4" cy="354.6" r="3.26" fill="#bd6b20" opacity="0.18"/><circle cx="1003.4" cy="356.2" r="3.47" fill="#bd6b20" opacity="0.26"/><circle cx="1036.2" cy="354.4" r="3.54" fill="#bd6b20" opacity="0.31"/><circle cx="1074.5" cy="352.1" r="3.07" fill="#bd6b20" opacity="0.36"/><circle cx="1111.7" cy="355.6" r="2.06" fill="#bd6b20" opacity="0.22"/><circle cx="1144.7" cy="354.2" r="1.97" fill="#bd6b20" opacity="0.21"/><circle cx="1179.8" cy="352.4" r="3.60" fill="#bd6b20" opacity="0.16"/><circle cx="29.8" cy="387.1" r="3.43" fill="#bd6b20" opacity="0.28"/><circle cx="63.5" cy="392.4" r="3.48" fill="#bd6b20" opacity="0.28"/><circle cx="99.4" cy="389.5" r="3.37" fill="#bd6b20" opacity="0.25"/><circle cx="140.3" cy="392.2" r="1.73" fill="#bd6b20" opacity="0.25"/><circle cx="173.7" cy="388.6" r="2.80" fill="#bd6b20" opacity="0.22"/><circle cx="208.7" cy="391.8" r="2.08" fill="#bd6b20" opacity="0.23"/><circle cx="244.6" cy="388.0" r="3.04" fill="#bd6b20" opacity="0.31"/><circle cx="283.8" cy="390.4" r="2.13" fill="#bd6b20" opacity="0.29"/><circle cx="317.9" cy="391.9" r="1.66" fill="#bd6b20" opacity="0.17"/><circle cx="356.0" cy="388.8" r="2.34" fill="#bd6b20" opacity="0.22"/><circle cx="392.3" cy="388.6" r="3.07" fill="#bd6b20" opacity="0.26"/><circle cx="427.2" cy="391.1" r="3.17" fill="#bd6b20" opacity="0.35"/><circle cx="463.7" cy="392.4" r="1.99" fill="#bd6b20" opacity="0.31"/><circle cx="496.2" cy="390.3" r="3.31" fill="#bd6b20" opacity="0.29"/><circle cx="535.1" cy="392.5" r="1.72" fill="#bd6b20" opacity="0.36"/><circle cx="570.4" cy="388.2" r="2.74" fill="#bd6b20" opacity="0.21"/><circle cx="605.7" cy="387.3" r="2.80" fill="#bd6b20" opacity="0.23"/><circle cx="641.1" cy="389.7" r="2.74" fill="#bd6b20" opacity="0.36"/><circle cx="678.9" cy="387.4" r="3.83" fill="#bd6b20" opacity="0.33"/><circle cx="711.9" cy="387.2" r="2.99" fill="#bd6b20" opacity="0.32"/><circle cx="750.2" cy="390.4" r="2.60" fill="#bd6b20" opacity="0.28"/><circle cx="785.6" cy="390.3" r="3.19" fill="#bd6b20" opacity="0.32"/><circle cx="822.6" cy="390.6" r="2.57" fill="#bd6b20" opacity="0.25"/><circle cx="860.5" cy="390.6" r="3.01" fill="#bd6b20" opacity="0.16"/><circle cx="895.4" cy="387.3" r="1.60" fill="#bd6b20" opacity="0.15"/><circle cx="927.4" cy="388.5" r="3.16" fill="#bd6b20" opacity="0.26"/><circle cx="966.8" cy="390.0" r="2.01" fill="#bd6b20" opacity="0.26"/><circle cx="1003.0" cy="388.4" r="3.48" fill="#bd6b20" opacity="0.23"/><circle cx="1036.0" cy="388.4" r="3.10" fill="#bd6b20" opacity="0.26"/><circle cx="1071.9" cy="392.4" r="2.71" fill="#bd6b20" opacity="0.27"/><circle cx="1110.4" cy="390.7" r="3.15" fill="#bd6b20" opacity="0.20"/><circle cx="1146.6" cy="389.7" r="1.90" fill="#bd6b20" opacity="0.16"/><circle cx="1181.9" cy="389.2" r="3.15" fill="#bd6b20" opacity="0.25"/><circle cx="27.7" cy="426.5" r="2.20" fill="#bd6b20" opacity="0.20"/><circle cx="66.8" cy="423.5" r="3.86" fill="#bd6b20" opacity="0.30"/><circle cx="103.8" cy="423.6" r="2.86" fill="#bd6b20" opacity="0.28"/><circle cx="137.6" cy="425.1" r="3.48" fill="#bd6b20" opacity="0.32"/><circle cx="171.1" cy="425.2" r="1.81" fill="#bd6b20" opacity="0.26"/><circle cx="209.3" cy="424.8" r="1.74" fill="#bd6b20" opacity="0.27"/><circle cx="246.4" cy="424.3" r="2.68" fill="#bd6b20" opacity="0.30"/><circle cx="280.8" cy="424.6" r="3.52" fill="#bd6b20" opacity="0.20"/><circle cx="317.2" cy="428.5" r="3.37" fill="#bd6b20" opacity="0.34"/><circle cx="353.3" cy="424.3" r="2.99" fill="#bd6b20" opacity="0.24"/><circle cx="387.2" cy="424.3" r="3.77" fill="#bd6b20" opacity="0.25"/><circle cx="424.1" cy="424.8" r="2.59" fill="#bd6b20" opacity="0.30"/><circle cx="460.3" cy="426.2" r="3.81" fill="#bd6b20" opacity="0.16"/><circle cx="499.2" cy="427.2" r="2.05" fill="#bd6b20" opacity="0.35"/><circle cx="536.1" cy="427.9" r="1.77" fill="#bd6b20" opacity="0.29"/><circle cx="567.8" cy="424.1" r="3.20" fill="#bd6b20" opacity="0.16"/><circle cx="605.7" cy="426.0" r="2.90" fill="#bd6b20" opacity="0.20"/><circle cx="639.4" cy="424.1" r="2.44" fill="#bd6b20" opacity="0.22"/><circle cx="679.0" cy="427.9" r="3.51" fill="#bd6b20" opacity="0.25"/><circle cx="712.3" cy="426.3" r="3.12" fill="#bd6b20" opacity="0.32"/><circle cx="747.4" cy="428.3" r="3.67" fill="#bd6b20" opacity="0.28"/><circle cx="787.2" cy="424.2" r="3.27" fill="#bd6b20" opacity="0.29"/><circle cx="824.3" cy="425.2" r="2.07" fill="#bd6b20" opacity="0.17"/><circle cx="859.5" cy="427.1" r="3.19" fill="#bd6b20" opacity="0.29"/><circle cx="893.3" cy="428.3" r="2.58" fill="#bd6b20" opacity="0.21"/><circle cx="928.6" cy="427.0" r="3.21" fill="#bd6b20" opacity="0.30"/><circle cx="964.4" cy="428.8" r="3.84" fill="#bd6b20" opacity="0.34"/><circle cx="1003.0" cy="425.2" r="3.83" fill="#bd6b20" opacity="0.31"/><circle cx="1038.0" cy="428.5" r="3.18" fill="#bd6b20" opacity="0.20"/><circle cx="1073.6" cy="428.2" r="2.98" fill="#bd6b20" opacity="0.16"/><circle cx="1112.5" cy="428.2" r="3.99" fill="#bd6b20" opacity="0.23"/><circle cx="1143.9" cy="424.3" r="1.99" fill="#bd6b20" opacity="0.26"/><circle cx="1181.6" cy="425.9" r="3.71" fill="#bd6b20" opacity="0.30"/><circle cx="27.5" cy="459.5" r="2.93" fill="#bd6b20" opacity="0.22"/><circle cx="68.9" cy="463.1" r="2.78" fill="#bd6b20" opacity="0.18"/><circle cx="102.7" cy="460.9" r="2.96" fill="#bd6b20" opacity="0.27"/><circle cx="136.0" cy="464.9" r="3.45" fill="#bd6b20" opacity="0.21"/><circle cx="172.4" cy="459.3" r="1.75" fill="#bd6b20" opacity="0.25"/><circle cx="212.7" cy="461.0" r="2.21" fill="#bd6b20" opacity="0.28"/><circle cx="247.4" cy="460.7" r="2.61" fill="#bd6b20" opacity="0.28"/><circle cx="284.8" cy="461.1" r="2.72" fill="#bd6b20" opacity="0.17"/><circle cx="316.1" cy="460.3" r="2.86" fill="#bd6b20" opacity="0.26"/><circle cx="356.2" cy="464.9" r="3.97" fill="#bd6b20" opacity="0.36"/><circle cx="391.8" cy="463.8" r="2.90" fill="#bd6b20" opacity="0.19"/><circle cx="426.5" cy="462.8" r="2.21" fill="#bd6b20" opacity="0.16"/><circle cx="460.5" cy="459.0" r="1.71" fill="#bd6b20" opacity="0.31"/><circle cx="496.1" cy="460.0" r="2.75" fill="#bd6b20" opacity="0.21"/><circle cx="531.4" cy="463.1" r="3.06" fill="#bd6b20" opacity="0.27"/><circle cx="570.6" cy="463.8" r="3.99" fill="#bd6b20" opacity="0.29"/><circle cx="608.8" cy="459.7" r="1.84" fill="#bd6b20" opacity="0.20"/><circle cx="640.9" cy="464.6" r="3.39" fill="#bd6b20" opacity="0.23"/><circle cx="675.6" cy="463.9" r="2.38" fill="#bd6b20" opacity="0.28"/><circle cx="711.5" cy="464.4" r="3.57" fill="#bd6b20" opacity="0.24"/><circle cx="752.9" cy="461.3" r="2.26" fill="#bd6b20" opacity="0.22"/><circle cx="785.3" cy="462.7" r="3.30" fill="#bd6b20" opacity="0.17"/><circle cx="823.8" cy="463.3" r="2.13" fill="#bd6b20" opacity="0.26"/><circle cx="858.7" cy="460.3" r="1.86" fill="#bd6b20" opacity="0.33"/><circle cx="891.2" cy="464.5" r="2.16" fill="#bd6b20" opacity="0.35"/><circle cx="932.8" cy="461.0" r="1.69" fill="#bd6b20" opacity="0.17"/><circle cx="964.3" cy="463.2" r="1.77" fill="#bd6b20" opacity="0.20"/><circle cx="1000.5" cy="460.6" r="2.16" fill="#bd6b20" opacity="0.19"/><circle cx="1035.3" cy="462.1" r="2.41" fill="#bd6b20" opacity="0.17"/><circle cx="1074.0" cy="461.4" r="2.83" fill="#bd6b20" opacity="0.19"/><circle cx="1110.0" cy="462.8" r="1.70" fill="#bd6b20" opacity="0.35"/><circle cx="1147.7" cy="460.7" r="3.46" fill="#bd6b20" opacity="0.33"/><circle cx="1183.1" cy="460.4" r="3.67" fill="#bd6b20" opacity="0.32"/><circle cx="28.0" cy="499.1" r="3.36" fill="#bd6b20" opacity="0.18"/><circle cx="67.8" cy="500.2" r="2.42" fill="#bd6b20" opacity="0.27"/><circle cx="101.4" cy="500.6" r="2.03" fill="#bd6b20" opacity="0.27"/><circle cx="138.3" cy="500.9" r="2.30" fill="#bd6b20" opacity="0.30"/><circle cx="172.3" cy="495.9" r="3.21" fill="#bd6b20" opacity="0.26"/><circle cx="212.2" cy="499.7" r="2.52" fill="#bd6b20" opacity="0.24"/><circle cx="244.2" cy="495.8" r="2.39" fill="#bd6b20" opacity="0.16"/><circle cx="282.0" cy="496.1" r="1.61" fill="#bd6b20" opacity="0.22"/><circle cx="318.8" cy="495.5" r="3.61" fill="#bd6b20" opacity="0.15"/><circle cx="355.2" cy="500.4" r="3.32" fill="#bd6b20" opacity="0.19"/><circle cx="387.9" cy="495.0" r="3.95" fill="#bd6b20" opacity="0.16"/><circle cx="426.6" cy="495.1" r="3.30" fill="#bd6b20" opacity="0.18"/><circle cx="462.5" cy="500.8" r="3.93" fill="#bd6b20" opacity="0.24"/><circle cx="496.8" cy="499.8" r="3.06" fill="#bd6b20" opacity="0.25"/><circle cx="532.5" cy="500.2" r="3.91" fill="#bd6b20" opacity="0.32"/><circle cx="569.8" cy="498.7" r="1.94" fill="#bd6b20" opacity="0.29"/><circle cx="604.6" cy="495.6" r="2.19" fill="#bd6b20" opacity="0.26"/><circle cx="643.2" cy="500.5" r="3.87" fill="#bd6b20" opacity="0.33"/><circle cx="676.3" cy="500.6" r="2.13" fill="#bd6b20" opacity="0.30"/><circle cx="711.3" cy="499.5" r="3.45" fill="#bd6b20" opacity="0.18"/><circle cx="752.8" cy="499.3" r="2.70" fill="#bd6b20" opacity="0.26"/><circle cx="784.2" cy="500.6" r="1.99" fill="#bd6b20" opacity="0.16"/><circle cx="819.5" cy="499.1" r="3.89" fill="#bd6b20" opacity="0.25"/><circle cx="856.0" cy="498.9" r="1.69" fill="#bd6b20" opacity="0.24"/><circle cx="895.2" cy="500.4" r="3.30" fill="#bd6b20" opacity="0.36"/><circle cx="929.3" cy="500.2" r="2.51" fill="#bd6b20" opacity="0.25"/><circle cx="964.9" cy="497.3" r="3.02" fill="#bd6b20" opacity="0.25"/><circle cx="1000.9" cy="500.7" r="3.99" fill="#bd6b20" opacity="0.30"/><circle cx="1038.5" cy="500.7" r="1.62" fill="#bd6b20" opacity="0.17"/><circle cx="1074.1" cy="495.1" r="3.67" fill="#bd6b20" opacity="0.16"/><circle cx="1108.0" cy="499.9" r="3.51" fill="#bd6b20" opacity="0.31"/><circle cx="1144.5" cy="498.2" r="1.61" fill="#bd6b20" opacity="0.26"/><circle cx="1181.3" cy="495.0" r="3.78" fill="#bd6b20" opacity="0.34"/><circle cx="28.9" cy="535.7" r="2.90" fill="#bd6b20" opacity="0.19"/><circle cx="66.6" cy="533.3" r="2.11" fill="#bd6b20" opacity="0.33"/><circle cx="104.8" cy="531.5" r="3.94" fill="#bd6b20" opacity="0.19"/><circle cx="140.5" cy="536.9" r="3.41" fill="#bd6b20" opacity="0.20"/><circle cx="176.0" cy="533.3" r="1.69" fill="#bd6b20" opacity="0.27"/><circle cx="208.0" cy="532.7" r="2.11" fill="#bd6b20" opacity="0.33"/><circle cx="243.5" cy="532.7" r="2.43" fill="#bd6b20" opacity="0.35"/><circle cx="282.9" cy="533.4" r="2.82" fill="#bd6b20" opacity="0.16"/><circle cx="318.9" cy="536.9" r="3.36" fill="#bd6b20" opacity="0.28"/><circle cx="353.8" cy="535.8" r="2.39" fill="#bd6b20" opacity="0.28"/><circle cx="391.0" cy="535.3" r="2.99" fill="#bd6b20" opacity="0.23"/><circle cx="428.9" cy="532.1" r="2.07" fill="#bd6b20" opacity="0.28"/><circle cx="462.7" cy="531.5" r="3.60" fill="#bd6b20" opacity="0.28"/><circle cx="498.2" cy="536.2" r="2.71" fill="#bd6b20" opacity="0.22"/><circle cx="535.2" cy="532.5" r="2.95" fill="#bd6b20" opacity="0.22"/><circle cx="570.9" cy="535.9" r="3.38" fill="#bd6b20" opacity="0.27"/><circle cx="604.6" cy="536.0" r="1.64" fill="#bd6b20" opacity="0.25"/><circle cx="642.7" cy="536.1" r="2.63" fill="#bd6b20" opacity="0.21"/><circle cx="677.0" cy="531.6" r="3.03" fill="#bd6b20" opacity="0.29"/><circle cx="712.6" cy="532.8" r="1.90" fill="#bd6b20" opacity="0.34"/><circle cx="747.0" cy="533.4" r="2.52" fill="#bd6b20" opacity="0.22"/><circle cx="785.4" cy="534.1" r="2.94" fill="#bd6b20" opacity="0.15"/><circle cx="820.8" cy="534.4" r="2.98" fill="#bd6b20" opacity="0.34"/><circle cx="855.9" cy="534.5" r="2.72" fill="#bd6b20" opacity="0.15"/><circle cx="896.9" cy="531.4" r="3.50" fill="#bd6b20" opacity="0.16"/><circle cx="932.1" cy="535.1" r="3.01" fill="#bd6b20" opacity="0.34"/><circle cx="963.7" cy="535.6" r="2.60" fill="#bd6b20" opacity="0.19"/><circle cx="1004.2" cy="536.2" r="3.08" fill="#bd6b20" opacity="0.33"/><circle cx="1037.0" cy="535.6" r="2.93" fill="#bd6b20" opacity="0.16"/><circle cx="1075.6" cy="536.5" r="2.93" fill="#bd6b20" opacity="0.30"/><circle cx="1111.5" cy="533.0" r="3.48" fill="#bd6b20" opacity="0.25"/><circle cx="1147.4" cy="532.2" r="3.05" fill="#bd6b20" opacity="0.23"/><circle cx="1183.2" cy="534.0" r="1.90" fill="#bd6b20" opacity="0.16"/><circle cx="31.0" cy="567.0" r="2.54" fill="#bd6b20" opacity="0.21"/><circle cx="68.2" cy="568.0" r="2.05" fill="#bd6b20" opacity="0.25"/><circle cx="102.4" cy="572.8" r="3.36" fill="#bd6b20" opacity="0.20"/><circle cx="135.2" cy="570.4" r="3.71" fill="#bd6b20" opacity="0.25"/><circle cx="173.8" cy="568.9" r="3.59" fill="#bd6b20" opacity="0.36"/><circle cx="211.0" cy="568.4" r="1.71" fill="#bd6b20" opacity="0.18"/><circle cx="244.0" cy="572.6" r="2.03" fill="#bd6b20" opacity="0.17"/><circle cx="284.4" cy="569.9" r="2.15" fill="#bd6b20" opacity="0.23"/><circle cx="320.1" cy="568.5" r="2.78" fill="#bd6b20" opacity="0.19"/><circle cx="352.1" cy="567.7" r="3.50" fill="#bd6b20" opacity="0.22"/><circle cx="390.2" cy="571.2" r="3.52" fill="#bd6b20" opacity="0.35"/><circle cx="428.5" cy="571.2" r="2.57" fill="#bd6b20" opacity="0.23"/><circle cx="464.0" cy="572.0" r="1.89" fill="#bd6b20" opacity="0.32"/><circle cx="499.8" cy="568.6" r="3.76" fill="#bd6b20" opacity="0.18"/><circle cx="533.1" cy="571.4" r="2.39" fill="#bd6b20" opacity="0.24"/><circle cx="572.2" cy="572.6" r="2.01" fill="#bd6b20" opacity="0.27"/><circle cx="605.8" cy="568.8" r="2.52" fill="#bd6b20" opacity="0.18"/><circle cx="640.4" cy="569.8" r="2.41" fill="#bd6b20" opacity="0.18"/><circle cx="679.7" cy="567.7" r="3.26" fill="#bd6b20" opacity="0.30"/><circle cx="715.5" cy="568.0" r="3.13" fill="#bd6b20" opacity="0.26"/><circle cx="750.5" cy="569.9" r="1.82" fill="#bd6b20" opacity="0.23"/><circle cx="786.7" cy="570.8" r="2.55" fill="#bd6b20" opacity="0.22"/><circle cx="820.4" cy="569.0" r="3.42" fill="#bd6b20" opacity="0.36"/><circle cx="857.4" cy="567.3" r="2.52" fill="#bd6b20" opacity="0.15"/><circle cx="892.5" cy="572.9" r="3.01" fill="#bd6b20" opacity="0.25"/><circle cx="927.4" cy="567.1" r="2.42" fill="#bd6b20" opacity="0.16"/><circle cx="967.6" cy="572.7" r="3.00" fill="#bd6b20" opacity="0.27"/><circle cx="999.7" cy="570.2" r="3.25" fill="#bd6b20" opacity="0.24"/><circle cx="1035.7" cy="572.6" r="3.14" fill="#bd6b20" opacity="0.35"/><circle cx="1074.3" cy="571.2" r="2.00" fill="#bd6b20" opacity="0.30"/><circle cx="1109.7" cy="569.7" r="1.69" fill="#bd6b20" opacity="0.31"/><circle cx="1145.2" cy="569.8" r="3.29" fill="#bd6b20" opacity="0.31"/><circle cx="1181.1" cy="572.2" r="2.72" fill="#bd6b20" opacity="0.31"/><circle cx="29.8" cy="605.6" r="3.20" fill="#bd6b20" opacity="0.35"/><circle cx="64.2" cy="606.9" r="3.47" fill="#bd6b20" opacity="0.19"/><circle cx="100.8" cy="603.5" r="1.78" fill="#bd6b20" opacity="0.17"/><circle cx="135.6" cy="608.1" r="3.74" fill="#bd6b20" opacity="0.17"/><circle cx="175.5" cy="606.1" r="3.37" fill="#bd6b20" opacity="0.21"/><circle cx="208.1" cy="605.3" r="3.31" fill="#bd6b20" opacity="0.27"/><circle cx="247.2" cy="607.1" r="2.65" fill="#bd6b20" opacity="0.30"/><circle cx="283.1" cy="605.3" r="3.06" fill="#bd6b20" opacity="0.30"/><circle cx="319.3" cy="607.0" r="2.38" fill="#bd6b20" opacity="0.20"/><circle cx="351.5" cy="603.6" r="2.53" fill="#bd6b20" opacity="0.32"/><circle cx="392.9" cy="603.1" r="3.68" fill="#bd6b20" opacity="0.35"/><circle cx="424.7" cy="608.7" r="2.73" fill="#bd6b20" opacity="0.23"/><circle cx="462.5" cy="607.6" r="3.29" fill="#bd6b20" opacity="0.19"/><circle cx="497.6" cy="603.5" r="1.76" fill="#bd6b20" opacity="0.17"/><circle cx="535.3" cy="609.0" r="2.91" fill="#bd6b20" opacity="0.36"/><circle cx="568.2" cy="605.5" r="1.65" fill="#bd6b20" opacity="0.22"/><circle cx="608.0" cy="608.3" r="2.63" fill="#bd6b20" opacity="0.16"/><circle cx="640.6" cy="608.2" r="3.95" fill="#bd6b20" opacity="0.27"/><circle cx="678.6" cy="604.5" r="1.76" fill="#bd6b20" opacity="0.33"/><circle cx="711.1" cy="604.2" r="1.91" fill="#bd6b20" opacity="0.28"/><circle cx="750.3" cy="603.5" r="3.78" fill="#bd6b20" opacity="0.18"/><circle cx="785.3" cy="603.2" r="2.97" fill="#bd6b20" opacity="0.22"/><circle cx="820.0" cy="603.2" r="2.33" fill="#bd6b20" opacity="0.27"/><circle cx="858.5" cy="607.2" r="3.07" fill="#bd6b20" opacity="0.34"/><circle cx="896.0" cy="604.5" r="2.05" fill="#bd6b20" opacity="0.24"/><circle cx="930.2" cy="605.6" r="2.26" fill="#bd6b20" opacity="0.33"/><circle cx="968.5" cy="608.0" r="2.01" fill="#bd6b20" opacity="0.25"/><circle cx="1003.9" cy="605.5" r="3.18" fill="#bd6b20" opacity="0.18"/><circle cx="1039.5" cy="606.5" r="2.35" fill="#bd6b20" opacity="0.20"/><circle cx="1071.4" cy="604.7" r="2.07" fill="#bd6b20" opacity="0.17"/><circle cx="1112.3" cy="606.5" r="2.89" fill="#bd6b20" opacity="0.20"/><circle cx="1145.7" cy="607.2" r="2.21" fill="#bd6b20" opacity="0.31"/><circle cx="1180.6" cy="607.6" r="2.58" fill="#bd6b20" opacity="0.31"/><circle cx="32.4" cy="639.8" r="3.46" fill="#bd6b20" opacity="0.16"/><circle cx="66.8" cy="641.1" r="2.34" fill="#bd6b20" opacity="0.31"/><circle cx="103.3" cy="643.9" r="3.02" fill="#bd6b20" opacity="0.28"/><circle cx="135.7" cy="640.5" r="2.49" fill="#bd6b20" opacity="0.22"/><circle cx="175.2" cy="643.9" r="3.63" fill="#bd6b20" opacity="0.26"/><circle cx="210.7" cy="639.9" r="2.30" fill="#bd6b20" opacity="0.26"/><circle cx="244.8" cy="641.9" r="2.71" fill="#bd6b20" opacity="0.18"/><circle cx="284.2" cy="644.0" r="1.94" fill="#bd6b20" opacity="0.21"/><circle cx="319.9" cy="642.4" r="2.14" fill="#bd6b20" opacity="0.27"/><circle cx="356.5" cy="641.4" r="2.40" fill="#bd6b20" opacity="0.15"/><circle cx="391.7" cy="644.3" r="3.61" fill="#bd6b20" opacity="0.22"/><circle cx="424.5" cy="644.0" r="1.61" fill="#bd6b20" opacity="0.34"/><circle cx="463.0" cy="643.9" r="3.37" fill="#bd6b20" opacity="0.19"/><circle cx="497.6" cy="644.2" r="1.63" fill="#bd6b20" opacity="0.22"/><circle cx="536.8" cy="640.8" r="3.90" fill="#bd6b20" opacity="0.30"/><circle cx="568.0" cy="641.5" r="3.59" fill="#bd6b20" opacity="0.15"/><circle cx="604.3" cy="644.5" r="3.92" fill="#bd6b20" opacity="0.19"/><circle cx="642.0" cy="640.6" r="3.28" fill="#bd6b20" opacity="0.18"/><circle cx="677.2" cy="639.9" r="2.84" fill="#bd6b20" opacity="0.32"/><circle cx="711.7" cy="641.3" r="2.57" fill="#bd6b20" opacity="0.20"/><circle cx="752.5" cy="644.2" r="2.34" fill="#bd6b20" opacity="0.34"/><circle cx="785.1" cy="640.4" r="3.16" fill="#bd6b20" opacity="0.18"/><circle cx="822.1" cy="639.8" r="3.98" fill="#bd6b20" opacity="0.35"/><circle cx="855.1" cy="644.1" r="1.71" fill="#bd6b20" opacity="0.35"/><circle cx="894.0" cy="639.2" r="3.53" fill="#bd6b20" opacity="0.21"/><circle cx="929.7" cy="639.3" r="3.08" fill="#bd6b20" opacity="0.18"/><circle cx="966.7" cy="640.4" r="3.28" fill="#bd6b20" opacity="0.31"/><circle cx="999.5" cy="639.3" r="2.12" fill="#bd6b20" opacity="0.25"/><circle cx="1039.3" cy="643.9" r="2.75" fill="#bd6b20" opacity="0.17"/><circle cx="1075.5" cy="642.8" r="3.83" fill="#bd6b20" opacity="0.31"/><circle cx="1112.8" cy="644.5" r="2.65" fill="#bd6b20" opacity="0.29"/><circle cx="1146.1" cy="641.5" r="2.83" fill="#bd6b20" opacity="0.28"/><circle cx="1180.9" cy="644.1" r="3.65" fill="#bd6b20" opacity="0.34"/><circle cx="241.0" cy="261.9" r="220" fill="url(#glow)" opacity="0.9"/>
  <g opacity="0.85" transform="translate(1020, 495)">
        <circle r="60" fill="#bd6b20" opacity="0.18"/>
        <path d="M -34 6 Q -10 -22 14 6 Q 34 24 14 26 L -22 26 Q -38 24 -34 6 Z" fill="none" stroke="#9a5518" stroke-width="3" stroke-linejoin="round"/>
      </g>
  <g transform="translate(80, 90)">
    <rect x="0" y="0" rx="20" ry="20" width="134" height="38" fill="#bd6b20" opacity="0.18" stroke="#bd6b20" stroke-width="1.5"/>
    <text x="67" y="25" font-family="ui-sans-serif, Inter, sans-serif" font-weight="700" font-size="14" letter-spacing="2.5" fill="#bd6b20" text-anchor="middle">CASE STUDY</text>
  </g>
  <text x="80" y="465" font-family="ui-sans-serif, -apple-system, Segoe UI, Inter, sans-serif" font-weight="800" font-size="44" fill="#12100e" opacity="0.98"><tspan x="80" dy="0">Mediation Success in</tspan><tspan x="80" dy="56">Mumbai: Movie Studio</tspan><tspan x="80" dy="56">Resolves Dispute Without</tspan></text>
  <rect x="0" y="669" width="1200" height="6" fill="url(#gold)"/>
</svg>