<?xml version="1.0" encoding="UTF-8"?>
<svg xmlns="http://www.w3.org/2000/svg" viewBox="0 0 1200 675" width="1200" height="675" role="img" aria-label="Negotiating a Movie Industry Dispute: A Case Study in Mumbai">
  <defs>
    <linearGradient id="bg" x1="0%" y1="0%" x2="100%" y2="100%">
      <stop offset="0%" stop-color="#12100e"/>
      <stop offset="100%" stop-color="#1c1917"/>
    </linearGradient>
    <linearGradient id="gold" x1="0%" y1="0%" x2="100%" y2="100%">
      <stop offset="0%" stop-color="#bd6b20"/>
      <stop offset="100%" stop-color="#e09440"/>
    </linearGradient>
    <radialGradient id="glow" cx="50%" cy="50%" r="50%">
      <stop offset="0%" stop-color="#bd6b20" stop-opacity="0.45"/>
      <stop offset="100%" stop-color="#bd6b20" stop-opacity="0"/>
    </radialGradient>
  </defs>
  <rect width="1200" height="675" fill="url(#bg)"/>
  <polygon points="-50,350.9 -20,354.7 10,356.6 40,356.7 70,354.9 100,351.3 130,345.9 160,338.9 190,330.4 220,320.6 250,309.8 280,298.1 310,285.9 340,273.3 370,260.8 400,248.6 430,236.9 460,226.0 490,216.2 520,207.7 550,200.6 580,195.2 610,191.5 640,189.7 670,189.7 700,191.6 730,195.3 760,200.8 790,207.9 820,216.5 850,226.3 880,237.2 910,248.9 940,261.2 970,273.7 1000,286.2 1030,298.4 1060,310.1 1090,320.9 1120,330.6 1150,339.1 1180,346.1 1210,351.4 1240,355.0 1250,725 -50,725" fill="#bd6b20" opacity="0.08"/><polygon points="-50,379.2 -20,379.7 10,379.2 40,377.7 70,375.2 100,371.9 130,367.8 160,363.0 190,357.5 220,351.5 250,345.2 280,338.7 310,332.1 340,325.6 370,319.3 400,313.4 430,308.0 460,303.2 490,299.1 520,295.9 550,293.5 580,292.1 610,291.7 640,292.3 670,293.8 700,296.3 730,299.6 760,303.8 790,308.7 820,314.2 850,320.2 880,326.5 910,333.0 940,339.6 970,346.1 1000,352.4 1030,358.3 1060,363.7 1090,368.4 1120,372.4 1150,375.6 1180,377.9 1210,379.3 1240,379.7 1250,725 -50,725" fill="#bd6b20" opacity="0.13"/><polygon points="-50,390.6 -20,379.6 10,369.1 40,359.4 70,350.6 100,343.0 130,336.7 160,331.9 190,328.6 220,327.0 250,327.0 280,328.8 310,332.2 340,337.1 370,343.5 400,351.3 430,360.1 460,369.9 490,380.4 520,391.4 550,402.6 580,413.9 610,424.8 640,435.2 670,444.9 700,453.6 730,461.2 760,467.4 790,472.2 820,475.3 850,476.9 880,476.7 910,474.9 940,471.4 970,466.4 1000,459.9 1030,452.1 1060,443.2 1090,433.3 1120,422.8 1150,411.8 1180,400.5 1210,389.3 1240,378.4 1250,725 -50,725" fill="#bd6b20" opacity="0.18"/><polygon points="-50,540.3 -20,537.6 10,533.6 40,528.2 70,521.6 100,514.1 130,505.6 160,496.6 190,487.0 220,477.2 250,467.4 280,457.8 310,448.5 340,439.9 370,432.2 400,425.3 430,419.7 460,415.3 490,412.2 520,410.6 550,410.5 580,411.8 610,414.6 640,418.8 670,424.2 700,430.8 730,438.5 760,446.9 790,456.0 820,465.6 850,475.4 880,485.2 910,494.8 940,504.0 970,512.6 1000,520.3 1030,527.1 1060,532.7 1090,537.0 1120,540.0 1150,541.5 1180,541.5 1210,540.1 1240,537.3 1250,725 -50,725" fill="#bd6b20" opacity="0.23"/><circle cx="300.0" cy="189.0" r="160" fill="url(#glow)"/>
  <g opacity="0.85" transform="translate(1020, 495)">
        <circle r="60" fill="#bd6b20" opacity="0.18"/>
        <path d="M -34 6 Q -10 -22 14 6 Q 34 24 14 26 L -22 26 Q -38 24 -34 6 Z" fill="none" stroke="#e09440" stroke-width="3" stroke-linejoin="round"/>
      </g>
  <g transform="translate(80, 90)">
    <rect x="0" y="0" rx="20" ry="20" width="134" height="38" fill="#bd6b20" opacity="0.18" stroke="#bd6b20" stroke-width="1.5"/>
    <text x="67" y="25" font-family="ui-sans-serif, Inter, sans-serif" font-weight="700" font-size="14" letter-spacing="2.5" fill="#bd6b20" text-anchor="middle">CASE STUDY</text>
  </g>
  <text x="80" y="465" font-family="ui-sans-serif, -apple-system, Segoe UI, Inter, sans-serif" font-weight="800" font-size="44" fill="#faf8f5" opacity="0.98"><tspan x="80" dy="0">Negotiating a Movie</tspan><tspan x="80" dy="56">Industry Dispute: A Case</tspan><tspan x="80" dy="56">Study in Mumbai</tspan></text>
  <rect x="0" y="669" width="1200" height="6" fill="url(#gold)"/>
</svg>