<?xml version="1.0" encoding="UTF-8"?>
<svg xmlns="http://www.w3.org/2000/svg" viewBox="0 0 1200 675" width="1200" height="675" role="img" aria-label="PDR COURT Becomes ICA Member – Advancing Arbitration">
  <defs>
    <linearGradient id="bg" x1="0%" y1="0%" x2="100%" y2="100%">
      <stop offset="0%" stop-color="#0c0a09"/>
      <stop offset="100%" stop-color="#291813"/>
    </linearGradient>
    <linearGradient id="gold" x1="0%" y1="0%" x2="100%" y2="100%">
      <stop offset="0%" stop-color="#d4862a"/>
      <stop offset="100%" stop-color="#bd6b20"/>
    </linearGradient>
    <radialGradient id="glow" cx="50%" cy="50%" r="50%">
      <stop offset="0%" stop-color="#d4862a" stop-opacity="0.45"/>
      <stop offset="100%" stop-color="#d4862a" stop-opacity="0"/>
    </radialGradient>
  </defs>
  <rect width="1200" height="675" fill="url(#bg)"/>
  <circle cx="253.3" cy="198.0" r="115" fill="none" stroke="#d4862a" stroke-width="2.5" opacity="0.36"/><circle cx="253.3" cy="198.0" r="170" fill="none" stroke="#d4862a" stroke-width="2.3" opacity="0.32"/><circle cx="253.3" cy="198.0" r="225" fill="none" stroke="#d4862a" stroke-width="1.7" opacity="0.28"/><circle cx="253.3" cy="198.0" r="280" fill="none" stroke="#d4862a" stroke-width="1.8" opacity="0.24"/><circle cx="253.3" cy="198.0" r="335" fill="none" stroke="#d4862a" stroke-width="2.4" opacity="0.20"/><circle cx="253.3" cy="198.0" r="390" fill="none" stroke="#d4862a" stroke-width="1.9" opacity="0.16"/><circle cx="253.3" cy="198.0" r="445" fill="none" stroke="#d4862a" stroke-width="1.7" opacity="0.12"/><circle cx="253.3" cy="198.0" r="500" fill="none" stroke="#d4862a" stroke-width="1.7" opacity="0.08"/><circle cx="253.3" cy="198.0" r="555" fill="none" stroke="#d4862a" stroke-width="1.9" opacity="0.04"/><circle cx="253.3" cy="198.0" r="40" fill="url(#gold)" opacity="0.85"/>
  <g opacity="0.85" transform="translate(1020, 495)">
        <circle r="68" fill="none" stroke="#d4862a" stroke-width="2" opacity="0.35"/>
        <path d="M -38 12 L 38 12 M -32 -8 L 32 -8 M -45 -28 L 45 -28" stroke="#bd6b20" stroke-width="3" stroke-linecap="round"/>
        <rect x="-50" y="-44" width="100" height="80" fill="none" stroke="#d4862a" stroke-width="2"/>
      </g>
  <g transform="translate(80, 90)">
    <rect x="0" y="0" rx="20" ry="20" width="112" height="38" fill="#d4862a" opacity="0.18" stroke="#d4862a" stroke-width="1.5"/>
    <text x="56" y="25" font-family="ui-sans-serif, Inter, sans-serif" font-weight="700" font-size="14" letter-spacing="2.5" fill="#d4862a" text-anchor="middle">NEWSROOM</text>
  </g>
  <text x="80" y="465" font-family="ui-sans-serif, -apple-system, Segoe UI, Inter, sans-serif" font-weight="800" font-size="44" fill="#faf8f5" opacity="0.98"><tspan x="80" dy="0">PDR COURT Becomes ICA</tspan><tspan x="80" dy="56">Member – Advancing</tspan><tspan x="80" dy="56">Arbitration</tspan></text>
  <rect x="0" y="669" width="1200" height="6" fill="url(#gold)"/>
</svg>