<?xml version="1.0" encoding="UTF-8"?>
<svg xmlns="http://www.w3.org/2000/svg" viewBox="0 0 1200 675" width="1200" height="675" role="img" aria-label="Dispute Resolution Centre | Debt Recovery through Arbitration | Employee Mediation">
  <defs>
    <linearGradient id="bg" x1="0%" y1="0%" x2="100%" y2="100%">
      <stop offset="0%" stop-color="#532d15"/>
      <stop offset="100%" stop-color="#bd6b20"/>
    </linearGradient>
    <linearGradient id="gold" x1="0%" y1="0%" x2="100%" y2="100%">
      <stop offset="0%" stop-color="#e09440"/>
      <stop offset="100%" stop-color="#fdf6ee"/>
    </linearGradient>
    <radialGradient id="glow" cx="50%" cy="50%" r="50%">
      <stop offset="0%" stop-color="#e09440" stop-opacity="0.45"/>
      <stop offset="100%" stop-color="#e09440" stop-opacity="0"/>
    </radialGradient>
  </defs>
  <rect width="1200" height="675" fill="url(#bg)"/>
  <circle cx="216" cy="236.24999999999997" r="335.6338433222845" fill="url(#glow)" opacity="0.8"/><circle cx="344.0" cy="273.5" r="250.4" fill="#e09440" opacity="0.16"/><circle cx="308.8" cy="341.2" r="220.0" fill="#e09440" opacity="0.11"/><circle cx="1151.7" cy="167.5" r="108.2" fill="#e09440" opacity="0.10"/><circle cx="1130.3" cy="191.5" r="69.4" fill="#e09440" opacity="0.16"/><circle cx="56.1" cy="240.9" r="105.2" fill="#e09440" opacity="0.12"/><circle cx="984.0" cy="168.8" r="220" fill="none" stroke="#fdf6ee" stroke-width="1.5" opacity="0.4"/>
  <g opacity="0.85" transform="translate(1020, 495)">
        <polygon points="0,-50 43,25 -43,25" fill="none" stroke="#e09440" stroke-width="2"/>
        <polygon points="0,-30 26,15 -26,15" fill="#fdf6ee" opacity="0.4"/>
      </g>
  <g transform="translate(80, 90)">
    <rect x="0" y="0" rx="20" ry="20" width="145" height="38" fill="#e09440" opacity="0.18" stroke="#e09440" stroke-width="1.5"/>
    <text x="72.5" y="25" font-family="ui-sans-serif, Inter, sans-serif" font-weight="700" font-size="14" letter-spacing="2.5" fill="#e09440" text-anchor="middle">INFORMATION</text>
  </g>
  <text x="80" y="465" font-family="ui-sans-serif, -apple-system, Segoe UI, Inter, sans-serif" font-weight="800" font-size="44" fill="#faf8f5" opacity="0.98"><tspan x="80" dy="0">Dispute Resolution Centre</tspan><tspan x="80" dy="56">| Debt Recovery through</tspan><tspan x="80" dy="56">Arbitration | Employee</tspan></text>
  <rect x="0" y="669" width="1200" height="6" fill="url(#gold)"/>
</svg>