<?xml version="1.0" encoding="UTF-8"?>
<svg xmlns="http://www.w3.org/2000/svg" viewBox="0 0 1200 675" width="1200" height="675" role="img" aria-label="Resolution of Payment Dispute Between Mumbai Private Studio and Movie Production House">
  <defs>
    <linearGradient id="bg" x1="0%" y1="0%" x2="100%" y2="100%">
      <stop offset="0%" stop-color="#532d15"/>
      <stop offset="100%" stop-color="#bd6b20"/>
    </linearGradient>
    <linearGradient id="gold" x1="0%" y1="0%" x2="100%" y2="100%">
      <stop offset="0%" stop-color="#e09440"/>
      <stop offset="100%" stop-color="#fdf6ee"/>
    </linearGradient>
    <radialGradient id="glow" cx="50%" cy="50%" r="50%">
      <stop offset="0%" stop-color="#e09440" stop-opacity="0.45"/>
      <stop offset="100%" stop-color="#e09440" stop-opacity="0"/>
    </radialGradient>
  </defs>
  <rect width="1200" height="675" fill="url(#bg)"/>
  <circle cx="32.8" cy="30.7" r="2.69" fill="#e09440" opacity="0.15"/><circle cx="63.9" cy="28.6" r="2.23" fill="#e09440" opacity="0.20"/><circle cx="104.4" cy="32.8" r="3.53" fill="#e09440" opacity="0.19"/><circle cx="139.7" cy="31.7" r="2.98" fill="#e09440" opacity="0.18"/><circle cx="175.4" cy="27.3" r="1.63" fill="#e09440" opacity="0.30"/><circle cx="207.5" cy="30.0" r="3.16" fill="#e09440" opacity="0.24"/><circle cx="246.5" cy="28.6" r="3.06" fill="#e09440" opacity="0.35"/><circle cx="279.6" cy="27.8" r="2.97" fill="#e09440" opacity="0.36"/><circle cx="319.1" cy="29.3" r="2.02" fill="#e09440" opacity="0.28"/><circle cx="353.8" cy="28.8" r="3.40" fill="#e09440" opacity="0.29"/><circle cx="389.9" cy="30.8" r="2.23" fill="#e09440" opacity="0.30"/><circle cx="428.2" cy="31.4" r="2.52" fill="#e09440" opacity="0.31"/><circle cx="462.2" cy="29.8" r="2.33" fill="#e09440" opacity="0.28"/><circle cx="498.3" cy="32.6" r="1.97" fill="#e09440" opacity="0.17"/><circle cx="531.2" cy="29.9" r="3.45" fill="#e09440" opacity="0.20"/><circle cx="569.4" cy="27.1" r="2.99" fill="#e09440" opacity="0.34"/><circle cx="605.7" cy="27.1" r="2.48" fill="#e09440" opacity="0.17"/><circle cx="643.3" cy="32.0" r="2.63" fill="#e09440" opacity="0.15"/><circle cx="680.8" cy="31.2" r="2.99" fill="#e09440" opacity="0.28"/><circle cx="715.1" cy="28.8" r="1.72" fill="#e09440" opacity="0.21"/><circle cx="748.7" cy="30.7" r="1.94" fill="#e09440" opacity="0.18"/><circle cx="783.6" cy="27.3" r="3.50" fill="#e09440" opacity="0.19"/><circle cx="824.3" cy="27.2" r="3.68" fill="#e09440" opacity="0.18"/><circle cx="856.7" cy="29.4" r="3.93" fill="#e09440" opacity="0.35"/><circle cx="896.9" cy="30.3" r="2.26" fill="#e09440" opacity="0.28"/><circle cx="932.2" cy="27.9" r="2.85" fill="#e09440" opacity="0.36"/><circle cx="966.5" cy="32.8" r="3.08" fill="#e09440" opacity="0.16"/><circle cx="1003.7" cy="31.7" r="3.73" fill="#e09440" opacity="0.17"/><circle cx="1039.2" cy="31.0" r="2.41" fill="#e09440" opacity="0.31"/><circle cx="1074.7" cy="28.2" r="2.35" fill="#e09440" opacity="0.36"/><circle cx="1109.6" cy="31.6" r="3.11" fill="#e09440" opacity="0.23"/><circle cx="1147.4" cy="30.3" r="2.38" fill="#e09440" opacity="0.31"/><circle cx="1180.6" cy="28.7" r="2.74" fill="#e09440" opacity="0.18"/><circle cx="32.6" cy="67.1" r="2.43" fill="#e09440" opacity="0.19"/><circle cx="66.9" cy="68.3" r="3.61" fill="#e09440" opacity="0.25"/><circle cx="103.7" cy="67.3" r="3.18" fill="#e09440" opacity="0.17"/><circle cx="138.1" cy="63.7" r="3.41" fill="#e09440" opacity="0.21"/><circle cx="172.8" cy="63.5" r="2.89" fill="#e09440" opacity="0.16"/><circle cx="210.7" cy="67.0" r="3.68" fill="#e09440" opacity="0.23"/><circle cx="248.4" cy="68.6" r="2.52" fill="#e09440" opacity="0.16"/><circle cx="281.5" cy="68.1" r="3.18" fill="#e09440" opacity="0.18"/><circle cx="318.1" cy="67.3" r="3.46" fill="#e09440" opacity="0.32"/><circle cx="356.2" cy="63.0" r="3.26" fill="#e09440" opacity="0.29"/><circle cx="392.3" cy="67.5" r="1.85" fill="#e09440" opacity="0.17"/><circle cx="423.2" cy="64.4" r="2.31" fill="#e09440" opacity="0.17"/><circle cx="459.3" cy="68.1" r="2.72" fill="#e09440" opacity="0.25"/><circle cx="497.8" cy="63.7" r="2.84" fill="#e09440" opacity="0.18"/><circle cx="531.3" cy="65.8" r="3.45" fill="#e09440" opacity="0.23"/><circle cx="568.1" cy="64.6" r="1.62" fill="#e09440" opacity="0.17"/><circle cx="607.2" cy="68.2" r="2.50" fill="#e09440" opacity="0.31"/><circle cx="641.6" cy="64.6" r="2.82" fill="#e09440" opacity="0.20"/><circle cx="680.1" cy="68.3" r="2.83" fill="#e09440" opacity="0.16"/><circle cx="711.6" cy="63.1" r="1.77" fill="#e09440" opacity="0.35"/><circle cx="752.6" cy="63.6" r="2.30" fill="#e09440" opacity="0.26"/><circle cx="785.3" cy="63.9" r="2.86" fill="#e09440" opacity="0.27"/><circle cx="824.4" cy="64.1" r="2.64" fill="#e09440" opacity="0.24"/><circle cx="858.1" cy="63.5" r="1.93" fill="#e09440" opacity="0.20"/><circle cx="892.3" cy="68.0" r="2.39" fill="#e09440" opacity="0.27"/><circle cx="929.3" cy="67.1" r="2.30" fill="#e09440" opacity="0.19"/><circle cx="967.6" cy="63.5" r="3.23" fill="#e09440" opacity="0.20"/><circle cx="1002.4" cy="68.9" r="2.06" fill="#e09440" opacity="0.21"/><circle cx="1037.8" cy="64.2" r="2.99" fill="#e09440" opacity="0.26"/><circle cx="1072.0" cy="65.0" r="2.55" fill="#e09440" opacity="0.27"/><circle cx="1112.0" cy="65.7" r="3.19" fill="#e09440" opacity="0.28"/><circle cx="1149.0" cy="65.7" r="3.25" fill="#e09440" opacity="0.29"/><circle cx="1180.4" cy="68.0" r="1.84" fill="#e09440" opacity="0.28"/><circle cx="31.8" cy="102.4" r="2.24" fill="#e09440" opacity="0.34"/><circle cx="67.8" cy="101.3" r="2.11" fill="#e09440" opacity="0.22"/><circle cx="103.1" cy="103.3" r="3.42" fill="#e09440" opacity="0.31"/><circle cx="137.1" cy="103.4" r="2.26" fill="#e09440" opacity="0.16"/><circle cx="173.4" cy="103.1" r="3.15" fill="#e09440" opacity="0.30"/><circle cx="212.7" cy="102.2" r="2.97" fill="#e09440" opacity="0.21"/><circle cx="244.7" cy="100.1" r="3.52" fill="#e09440" opacity="0.21"/><circle cx="280.4" cy="103.0" r="3.03" fill="#e09440" opacity="0.33"/><circle cx="315.4" cy="102.3" r="3.04" fill="#e09440" opacity="0.27"/><circle cx="355.3" cy="102.9" r="3.99" fill="#e09440" opacity="0.22"/><circle cx="390.5" cy="100.8" r="2.86" fill="#e09440" opacity="0.17"/><circle cx="424.8" cy="103.2" r="1.66" fill="#e09440" opacity="0.21"/><circle cx="461.5" cy="102.5" r="1.68" fill="#e09440" opacity="0.20"/><circle cx="500.5" cy="102.4" r="3.84" fill="#e09440" opacity="0.19"/><circle cx="536.7" cy="99.4" r="2.93" fill="#e09440" opacity="0.35"/><circle cx="567.6" cy="101.0" r="3.29" fill="#e09440" opacity="0.19"/><circle cx="604.2" cy="100.6" r="2.67" fill="#e09440" opacity="0.31"/><circle cx="641.9" cy="104.9" r="3.17" fill="#e09440" opacity="0.18"/><circle cx="679.8" cy="103.4" r="3.33" fill="#e09440" opacity="0.20"/><circle cx="713.1" cy="99.7" r="3.08" fill="#e09440" opacity="0.36"/><circle cx="749.1" cy="101.5" r="2.59" fill="#e09440" opacity="0.17"/><circle cx="785.4" cy="104.2" r="3.11" fill="#e09440" opacity="0.27"/><circle cx="822.3" cy="103.0" r="3.14" fill="#e09440" opacity="0.34"/><circle cx="858.7" cy="99.8" r="1.87" fill="#e09440" opacity="0.31"/><circle cx="895.8" cy="103.1" r="2.81" fill="#e09440" opacity="0.29"/><circle cx="927.7" cy="102.4" r="2.61" fill="#e09440" opacity="0.30"/><circle cx="964.9" cy="104.3" r="3.32" fill="#e09440" opacity="0.32"/><circle cx="1003.9" cy="101.9" r="3.74" fill="#e09440" opacity="0.29"/><circle cx="1037.8" cy="100.1" r="2.94" fill="#e09440" opacity="0.24"/><circle cx="1071.2" cy="103.7" r="2.80" fill="#e09440" opacity="0.30"/><circle cx="1112.2" cy="102.5" r="2.02" fill="#e09440" opacity="0.17"/><circle cx="1146.3" cy="105.0" r="2.92" fill="#e09440" opacity="0.19"/><circle cx="1183.1" cy="102.8" r="3.36" fill="#e09440" opacity="0.29"/><circle cx="27.1" cy="136.7" r="3.44" fill="#e09440" opacity="0.21"/><circle cx="66.0" cy="136.5" r="3.48" fill="#e09440" opacity="0.16"/><circle cx="104.1" cy="136.7" r="3.07" fill="#e09440" opacity="0.23"/><circle cx="137.6" cy="139.4" r="3.85" fill="#e09440" opacity="0.19"/><circle cx="176.1" cy="138.7" r="1.78" fill="#e09440" opacity="0.28"/><circle cx="209.7" cy="136.5" r="2.52" fill="#e09440" opacity="0.30"/><circle cx="247.4" cy="138.1" r="2.46" fill="#e09440" opacity="0.27"/><circle cx="284.6" cy="135.4" r="2.45" fill="#e09440" opacity="0.22"/><circle cx="317.8" cy="140.5" r="2.10" fill="#e09440" opacity="0.23"/><circle cx="355.4" cy="135.3" r="3.40" fill="#e09440" opacity="0.15"/><circle cx="388.0" cy="139.8" r="1.64" fill="#e09440" opacity="0.18"/><circle cx="425.7" cy="140.0" r="2.94" fill="#e09440" opacity="0.16"/><circle cx="464.7" cy="137.8" r="2.25" fill="#e09440" opacity="0.27"/><circle cx="496.8" cy="136.0" r="3.30" fill="#e09440" opacity="0.31"/><circle cx="534.7" cy="137.9" r="2.73" fill="#e09440" opacity="0.28"/><circle cx="567.6" cy="139.6" r="3.76" fill="#e09440" opacity="0.34"/><circle cx="607.0" cy="136.4" r="3.56" fill="#e09440" opacity="0.33"/><circle cx="640.3" cy="137.7" r="3.48" fill="#e09440" opacity="0.33"/><circle cx="675.6" cy="135.3" r="3.53" fill="#e09440" opacity="0.28"/><circle cx="715.4" cy="139.0" r="3.24" fill="#e09440" opacity="0.17"/><circle cx="752.3" cy="137.4" r="1.71" fill="#e09440" opacity="0.25"/><circle cx="788.6" cy="140.1" r="1.75" fill="#e09440" opacity="0.23"/><circle cx="821.9" cy="138.5" r="1.94" fill="#e09440" opacity="0.35"/><circle cx="857.6" cy="136.7" r="3.95" fill="#e09440" opacity="0.16"/><circle cx="891.3" cy="138.1" r="2.27" fill="#e09440" opacity="0.19"/><circle cx="931.1" cy="136.8" r="3.99" fill="#e09440" opacity="0.31"/><circle cx="968.1" cy="137.9" r="3.33" fill="#e09440" opacity="0.27"/><circle cx="1002.4" cy="135.6" r="1.83" fill="#e09440" opacity="0.24"/><circle cx="1035.6" cy="140.2" r="3.24" fill="#e09440" opacity="0.33"/><circle cx="1075.4" cy="136.7" r="2.55" fill="#e09440" opacity="0.21"/><circle cx="1112.8" cy="140.4" r="2.24" fill="#e09440" opacity="0.22"/><circle cx="1148.5" cy="140.4" r="2.27" fill="#e09440" opacity="0.22"/><circle cx="1183.0" cy="135.6" r="2.49" fill="#e09440" opacity="0.26"/><circle cx="31.2" cy="171.5" r="3.78" fill="#e09440" opacity="0.18"/><circle cx="63.7" cy="173.3" r="4.00" fill="#e09440" opacity="0.34"/><circle cx="102.1" cy="171.5" r="3.95" fill="#e09440" opacity="0.34"/><circle cx="136.2" cy="172.8" r="3.96" fill="#e09440" opacity="0.36"/><circle cx="174.3" cy="173.4" r="3.02" fill="#e09440" opacity="0.34"/><circle cx="209.0" cy="173.8" r="3.36" fill="#e09440" opacity="0.16"/><circle cx="245.7" cy="174.9" r="1.90" fill="#e09440" opacity="0.21"/><circle cx="280.5" cy="175.2" r="3.57" fill="#e09440" opacity="0.35"/><circle cx="316.4" cy="173.0" r="2.11" fill="#e09440" opacity="0.36"/><circle cx="353.0" cy="172.6" r="2.42" fill="#e09440" opacity="0.17"/><circle cx="388.8" cy="173.6" r="1.68" fill="#e09440" opacity="0.17"/><circle cx="427.7" cy="172.4" r="2.93" fill="#e09440" opacity="0.26"/><circle cx="461.6" cy="171.0" r="2.71" fill="#e09440" opacity="0.18"/><circle cx="496.2" cy="174.0" r="3.41" fill="#e09440" opacity="0.22"/><circle cx="536.8" cy="171.7" r="2.22" fill="#e09440" opacity="0.29"/><circle cx="571.9" cy="175.5" r="3.85" fill="#e09440" opacity="0.23"/><circle cx="603.5" cy="171.8" r="3.61" fill="#e09440" opacity="0.31"/><circle cx="641.4" cy="175.5" r="3.36" fill="#e09440" opacity="0.25"/><circle cx="676.5" cy="172.8" r="2.86" fill="#e09440" opacity="0.28"/><circle cx="716.3" cy="174.7" r="2.14" fill="#e09440" opacity="0.17"/><circle cx="749.5" cy="175.1" r="2.32" fill="#e09440" opacity="0.33"/><circle cx="788.4" cy="171.4" r="3.90" fill="#e09440" opacity="0.23"/><circle cx="819.7" cy="171.3" r="2.25" fill="#e09440" opacity="0.20"/><circle cx="860.9" cy="175.2" r="3.28" fill="#e09440" opacity="0.17"/><circle cx="891.6" cy="171.2" r="2.72" fill="#e09440" opacity="0.36"/><circle cx="927.8" cy="176.7" r="3.08" fill="#e09440" opacity="0.34"/><circle cx="963.2" cy="173.6" r="3.63" fill="#e09440" opacity="0.20"/><circle cx="1001.5" cy="176.0" r="1.77" fill="#e09440" opacity="0.20"/><circle cx="1038.4" cy="172.2" r="3.61" fill="#e09440" opacity="0.26"/><circle cx="1073.8" cy="175.3" r="3.17" fill="#e09440" opacity="0.35"/><circle cx="1109.9" cy="175.3" r="1.83" fill="#e09440" opacity="0.33"/><circle cx="1145.2" cy="171.5" r="3.52" fill="#e09440" opacity="0.30"/><circle cx="1180.7" cy="172.4" r="1.85" fill="#e09440" opacity="0.33"/><circle cx="28.2" cy="208.5" r="2.43" fill="#e09440" opacity="0.30"/><circle cx="68.8" cy="207.9" r="1.80" fill="#e09440" opacity="0.28"/><circle cx="101.8" cy="212.8" r="3.36" fill="#e09440" opacity="0.33"/><circle cx="140.5" cy="210.8" r="2.88" fill="#e09440" opacity="0.25"/><circle cx="175.0" cy="212.5" r="3.72" fill="#e09440" opacity="0.26"/><circle cx="207.3" cy="212.3" r="1.82" fill="#e09440" opacity="0.19"/><circle cx="247.5" cy="212.3" r="3.10" fill="#e09440" opacity="0.32"/><circle cx="280.9" cy="208.8" r="3.39" fill="#e09440" opacity="0.23"/><circle cx="318.8" cy="209.9" r="2.67" fill="#e09440" opacity="0.28"/><circle cx="356.6" cy="208.3" r="1.85" fill="#e09440" opacity="0.29"/><circle cx="392.5" cy="212.2" r="2.54" fill="#e09440" opacity="0.23"/><circle cx="428.4" cy="208.2" r="2.04" fill="#e09440" opacity="0.25"/><circle cx="460.4" cy="211.2" r="3.86" fill="#e09440" opacity="0.27"/><circle cx="497.0" cy="212.1" r="2.81" fill="#e09440" opacity="0.26"/><circle cx="535.7" cy="209.7" r="2.95" fill="#e09440" opacity="0.22"/><circle cx="570.3" cy="207.3" r="2.75" fill="#e09440" opacity="0.18"/><circle cx="607.4" cy="211.3" r="3.18" fill="#e09440" opacity="0.33"/><circle cx="639.2" cy="208.7" r="2.14" fill="#e09440" opacity="0.19"/><circle cx="679.4" cy="212.4" r="2.65" fill="#e09440" opacity="0.27"/><circle cx="716.5" cy="207.1" r="2.55" fill="#e09440" opacity="0.22"/><circle cx="751.8" cy="209.0" r="3.80" fill="#e09440" opacity="0.23"/><circle cx="785.4" cy="207.3" r="3.43" fill="#e09440" opacity="0.21"/><circle cx="824.4" cy="211.6" r="2.27" fill="#e09440" opacity="0.32"/><circle cx="859.9" cy="209.8" r="2.31" fill="#e09440" opacity="0.20"/><circle cx="892.9" cy="211.5" r="3.43" fill="#e09440" opacity="0.28"/><circle cx="930.4" cy="208.0" r="3.29" fill="#e09440" opacity="0.15"/><circle cx="963.0" cy="207.1" r="2.85" fill="#e09440" opacity="0.20"/><circle cx="1002.2" cy="211.1" r="2.68" fill="#e09440" opacity="0.36"/><circle cx="1040.5" cy="212.4" r="1.89" fill="#e09440" opacity="0.23"/><circle cx="1072.6" cy="209.3" r="3.77" fill="#e09440" opacity="0.16"/><circle cx="1112.6" cy="212.9" r="3.07" fill="#e09440" opacity="0.33"/><circle cx="1145.9" cy="212.8" r="2.62" fill="#e09440" opacity="0.31"/><circle cx="1179.7" cy="212.6" r="1.79" fill="#e09440" opacity="0.26"/><circle cx="30.3" cy="247.9" r="2.25" fill="#e09440" opacity="0.27"/><circle cx="65.8" cy="247.6" r="2.39" fill="#e09440" opacity="0.15"/><circle cx="101.9" cy="243.7" r="2.50" fill="#e09440" opacity="0.21"/><circle cx="137.2" cy="248.6" r="3.73" fill="#e09440" opacity="0.35"/><circle cx="171.1" cy="243.4" r="2.77" fill="#e09440" opacity="0.26"/><circle cx="208.1" cy="243.5" r="2.86" fill="#e09440" opacity="0.18"/><circle cx="243.9" cy="244.7" r="2.06" fill="#e09440" opacity="0.30"/><circle cx="284.6" cy="244.5" r="2.15" fill="#e09440" opacity="0.21"/><circle cx="317.3" cy="244.8" r="3.92" fill="#e09440" opacity="0.16"/><circle cx="351.9" cy="249.0" r="2.50" fill="#e09440" opacity="0.18"/><circle cx="389.7" cy="243.1" r="2.84" fill="#e09440" opacity="0.25"/><circle cx="426.5" cy="246.3" r="3.14" fill="#e09440" opacity="0.32"/><circle cx="464.2" cy="243.3" r="2.73" fill="#e09440" opacity="0.32"/><circle cx="499.3" cy="247.1" r="1.77" fill="#e09440" opacity="0.29"/><circle cx="533.2" cy="244.1" r="3.14" fill="#e09440" opacity="0.26"/><circle cx="568.6" cy="248.4" r="3.38" fill="#e09440" opacity="0.19"/><circle cx="606.0" cy="245.3" r="3.27" fill="#e09440" opacity="0.30"/><circle cx="642.7" cy="244.4" r="2.06" fill="#e09440" opacity="0.26"/><circle cx="676.3" cy="246.0" r="2.30" fill="#e09440" opacity="0.21"/><circle cx="713.5" cy="245.4" r="3.13" fill="#e09440" opacity="0.22"/><circle cx="750.3" cy="246.1" r="3.93" fill="#e09440" opacity="0.28"/><circle cx="783.1" cy="244.7" r="2.50" fill="#e09440" opacity="0.19"/><circle cx="819.5" cy="245.7" r="1.73" fill="#e09440" opacity="0.30"/><circle cx="857.3" cy="245.4" r="3.00" fill="#e09440" opacity="0.32"/><circle cx="893.4" cy="246.7" r="2.56" fill="#e09440" opacity="0.28"/><circle cx="929.5" cy="245.4" r="2.95" fill="#e09440" opacity="0.22"/><circle cx="965.7" cy="247.2" r="3.82" fill="#e09440" opacity="0.26"/><circle cx="1003.5" cy="244.7" r="2.57" fill="#e09440" opacity="0.31"/><circle cx="1038.6" cy="244.9" r="3.93" fill="#e09440" opacity="0.18"/><circle cx="1076.8" cy="246.1" r="2.08" fill="#e09440" opacity="0.29"/><circle cx="1112.8" cy="247.9" r="1.96" fill="#e09440" opacity="0.30"/><circle cx="1143.6" cy="245.5" r="2.95" fill="#e09440" opacity="0.27"/><circle cx="1184.2" cy="243.0" r="3.28" fill="#e09440" opacity="0.32"/><circle cx="30.5" cy="283.7" r="2.32" fill="#e09440" opacity="0.20"/><circle cx="64.9" cy="284.5" r="2.73" fill="#e09440" opacity="0.28"/><circle cx="103.6" cy="279.4" r="2.20" fill="#e09440" opacity="0.28"/><circle cx="139.0" cy="283.5" r="2.27" fill="#e09440" opacity="0.35"/><circle cx="176.4" cy="280.7" r="3.58" fill="#e09440" opacity="0.34"/><circle cx="207.3" cy="281.3" r="1.67" fill="#e09440" opacity="0.19"/><circle cx="246.1" cy="281.5" r="3.31" fill="#e09440" opacity="0.32"/><circle cx="283.5" cy="283.5" r="2.84" fill="#e09440" opacity="0.36"/><circle cx="316.0" cy="283.6" r="3.67" fill="#e09440" opacity="0.29"/><circle cx="354.3" cy="280.4" r="3.30" fill="#e09440" opacity="0.16"/><circle cx="391.7" cy="279.8" r="2.68" fill="#e09440" opacity="0.26"/><circle cx="423.7" cy="282.6" r="3.19" fill="#e09440" opacity="0.35"/><circle cx="460.7" cy="283.3" r="1.71" fill="#e09440" opacity="0.32"/><circle cx="498.4" cy="284.8" r="3.18" fill="#e09440" opacity="0.22"/><circle cx="532.3" cy="279.2" r="2.31" fill="#e09440" opacity="0.19"/><circle cx="567.2" cy="284.5" r="2.13" fill="#e09440" opacity="0.29"/><circle cx="605.4" cy="282.2" r="1.73" fill="#e09440" opacity="0.20"/><circle cx="644.6" cy="279.8" r="1.94" fill="#e09440" opacity="0.21"/><circle cx="675.5" cy="283.4" r="3.32" fill="#e09440" opacity="0.23"/><circle cx="716.6" cy="280.2" r="2.25" fill="#e09440" opacity="0.23"/><circle cx="750.2" cy="280.8" r="2.63" fill="#e09440" opacity="0.24"/><circle cx="786.3" cy="282.7" r="3.57" fill="#e09440" opacity="0.20"/><circle cx="822.4" cy="283.9" r="2.82" fill="#e09440" opacity="0.30"/><circle cx="855.2" cy="283.0" r="3.48" fill="#e09440" opacity="0.16"/><circle cx="896.4" cy="279.3" r="1.91" fill="#e09440" opacity="0.33"/><circle cx="932.1" cy="281.3" r="3.82" fill="#e09440" opacity="0.25"/><circle cx="968.0" cy="283.3" r="2.78" fill="#e09440" opacity="0.16"/><circle cx="1001.5" cy="282.7" r="3.00" fill="#e09440" opacity="0.19"/><circle cx="1039.7" cy="283.1" r="2.10" fill="#e09440" opacity="0.18"/><circle cx="1076.0" cy="284.5" r="2.78" fill="#e09440" opacity="0.19"/><circle cx="1112.7" cy="282.0" r="1.91" fill="#e09440" opacity="0.20"/><circle cx="1148.1" cy="280.7" r="3.00" fill="#e09440" opacity="0.34"/><circle cx="1181.6" cy="281.5" r="3.17" fill="#e09440" opacity="0.25"/><circle cx="28.2" cy="320.3" r="2.18" fill="#e09440" opacity="0.19"/><circle cx="68.1" cy="317.1" r="2.62" fill="#e09440" opacity="0.23"/><circle cx="99.9" cy="318.6" r="2.96" fill="#e09440" opacity="0.35"/><circle cx="138.9" cy="320.0" r="2.78" fill="#e09440" opacity="0.32"/><circle cx="173.8" cy="319.5" r="3.57" fill="#e09440" opacity="0.19"/><circle cx="211.4" cy="320.4" r="3.55" fill="#e09440" opacity="0.35"/><circle cx="243.6" cy="315.6" r="3.44" fill="#e09440" opacity="0.24"/><circle cx="284.8" cy="315.8" r="3.57" fill="#e09440" opacity="0.30"/><circle cx="320.6" cy="318.4" r="1.78" fill="#e09440" opacity="0.17"/><circle cx="352.6" cy="317.2" r="3.84" fill="#e09440" opacity="0.28"/><circle cx="388.1" cy="320.4" r="2.13" fill="#e09440" opacity="0.22"/><circle cx="424.8" cy="318.6" r="1.93" fill="#e09440" opacity="0.29"/><circle cx="463.6" cy="318.6" r="2.24" fill="#e09440" opacity="0.16"/><circle cx="500.3" cy="317.0" r="3.22" fill="#e09440" opacity="0.25"/><circle cx="531.7" cy="319.5" r="3.51" fill="#e09440" opacity="0.31"/><circle cx="569.2" cy="315.6" r="1.70" fill="#e09440" opacity="0.29"/><circle cx="605.5" cy="316.0" r="3.08" fill="#e09440" opacity="0.25"/><circle cx="641.4" cy="316.5" r="2.75" fill="#e09440" opacity="0.26"/><circle cx="678.4" cy="318.3" r="3.53" fill="#e09440" opacity="0.16"/><circle cx="713.6" cy="318.4" r="1.92" fill="#e09440" opacity="0.18"/><circle cx="747.9" cy="318.0" r="3.87" fill="#e09440" opacity="0.28"/><circle cx="783.4" cy="319.5" r="2.96" fill="#e09440" opacity="0.30"/><circle cx="819.2" cy="315.9" r="3.20" fill="#e09440" opacity="0.19"/><circle cx="860.4" cy="317.9" r="2.89" fill="#e09440" opacity="0.23"/><circle cx="896.1" cy="319.2" r="2.62" fill="#e09440" opacity="0.33"/><circle cx="930.4" cy="317.7" r="2.50" fill="#e09440" opacity="0.21"/><circle cx="967.5" cy="320.1" r="3.42" fill="#e09440" opacity="0.16"/><circle cx="1004.9" cy="317.3" r="1.75" fill="#e09440" opacity="0.21"/><circle cx="1039.4" cy="317.6" r="1.90" fill="#e09440" opacity="0.30"/><circle cx="1072.8" cy="316.5" r="3.53" fill="#e09440" opacity="0.16"/><circle cx="1108.3" cy="316.2" r="1.78" fill="#e09440" opacity="0.29"/><circle cx="1147.7" cy="320.2" r="2.26" fill="#e09440" opacity="0.28"/><circle cx="1182.0" cy="315.2" r="3.03" fill="#e09440" opacity="0.26"/><circle cx="32.0" cy="353.3" r="2.33" fill="#e09440" opacity="0.24"/><circle cx="68.1" cy="356.6" r="2.42" fill="#e09440" opacity="0.32"/><circle cx="105.0" cy="353.1" r="3.59" fill="#e09440" opacity="0.15"/><circle cx="135.2" cy="352.3" r="2.88" fill="#e09440" opacity="0.18"/><circle cx="176.3" cy="356.5" r="2.77" fill="#e09440" opacity="0.15"/><circle cx="210.2" cy="352.8" r="1.82" fill="#e09440" opacity="0.18"/><circle cx="243.9" cy="355.6" r="2.50" fill="#e09440" opacity="0.26"/><circle cx="280.2" cy="353.0" r="1.94" fill="#e09440" opacity="0.35"/><circle cx="318.4" cy="356.3" r="2.95" fill="#e09440" opacity="0.23"/><circle cx="351.6" cy="356.8" r="1.88" fill="#e09440" opacity="0.36"/><circle cx="388.4" cy="352.0" r="1.94" fill="#e09440" opacity="0.34"/><circle cx="423.5" cy="356.2" r="1.63" fill="#e09440" opacity="0.17"/><circle cx="461.1" cy="354.8" r="2.82" fill="#e09440" opacity="0.34"/><circle cx="495.6" cy="356.0" r="2.53" fill="#e09440" opacity="0.36"/><circle cx="532.7" cy="352.4" r="3.93" fill="#e09440" opacity="0.22"/><circle cx="570.5" cy="351.3" r="1.95" fill="#e09440" opacity="0.23"/><circle cx="606.7" cy="356.3" r="2.10" fill="#e09440" opacity="0.29"/><circle cx="640.1" cy="352.0" r="1.90" fill="#e09440" opacity="0.21"/><circle cx="677.9" cy="354.6" r="2.70" fill="#e09440" opacity="0.18"/><circle cx="711.5" cy="355.7" r="3.28" fill="#e09440" opacity="0.26"/><circle cx="750.5" cy="351.8" r="3.21" fill="#e09440" opacity="0.24"/><circle cx="785.4" cy="352.2" r="1.86" fill="#e09440" opacity="0.30"/><circle cx="819.6" cy="352.4" r="1.95" fill="#e09440" opacity="0.24"/><circle cx="857.4" cy="351.2" r="2.50" fill="#e09440" opacity="0.32"/><circle cx="891.3" cy="356.1" r="2.58" fill="#e09440" opacity="0.24"/><circle cx="930.7" cy="354.2" r="2.19" fill="#e09440" opacity="0.31"/><circle cx="964.6" cy="352.8" r="3.87" fill="#e09440" opacity="0.29"/><circle cx="1004.2" cy="354.5" r="3.24" fill="#e09440" opacity="0.35"/><circle cx="1040.4" cy="354.8" r="2.79" fill="#e09440" opacity="0.30"/><circle cx="1073.0" cy="353.5" r="3.09" fill="#e09440" opacity="0.19"/><circle cx="1108.9" cy="351.0" r="1.67" fill="#e09440" opacity="0.22"/><circle cx="1148.8" cy="355.4" r="2.55" fill="#e09440" opacity="0.34"/><circle cx="1183.2" cy="351.4" r="2.11" fill="#e09440" opacity="0.29"/><circle cx="31.2" cy="387.0" r="3.70" fill="#e09440" opacity="0.21"/><circle cx="65.0" cy="389.4" r="3.40" fill="#e09440" opacity="0.29"/><circle cx="102.2" cy="389.4" r="2.22" fill="#e09440" opacity="0.36"/><circle cx="138.6" cy="392.2" r="1.71" fill="#e09440" opacity="0.23"/><circle cx="175.5" cy="388.5" r="3.26" fill="#e09440" opacity="0.30"/><circle cx="208.8" cy="390.0" r="1.92" fill="#e09440" opacity="0.26"/><circle cx="247.6" cy="392.6" r="3.50" fill="#e09440" opacity="0.32"/><circle cx="281.2" cy="387.6" r="3.87" fill="#e09440" opacity="0.30"/><circle cx="319.7" cy="388.6" r="3.44" fill="#e09440" opacity="0.17"/><circle cx="355.2" cy="390.5" r="2.68" fill="#e09440" opacity="0.29"/><circle cx="392.4" cy="392.6" r="3.58" fill="#e09440" opacity="0.25"/><circle cx="425.9" cy="388.6" r="3.30" fill="#e09440" opacity="0.17"/><circle cx="459.8" cy="390.0" r="3.56" fill="#e09440" opacity="0.18"/><circle cx="501.0" cy="390.2" r="1.84" fill="#e09440" opacity="0.27"/><circle cx="531.7" cy="392.4" r="3.59" fill="#e09440" opacity="0.21"/><circle cx="570.8" cy="388.4" r="2.29" fill="#e09440" opacity="0.32"/><circle cx="608.4" cy="390.3" r="2.54" fill="#e09440" opacity="0.17"/><circle cx="639.1" cy="391.0" r="2.39" fill="#e09440" opacity="0.22"/><circle cx="678.2" cy="389.5" r="3.20" fill="#e09440" opacity="0.26"/><circle cx="712.3" cy="390.6" r="3.71" fill="#e09440" opacity="0.24"/><circle cx="750.0" cy="391.2" r="1.78" fill="#e09440" opacity="0.32"/><circle cx="788.7" cy="388.1" r="3.78" fill="#e09440" opacity="0.36"/><circle cx="823.4" cy="391.9" r="2.82" fill="#e09440" opacity="0.25"/><circle cx="858.2" cy="388.6" r="3.56" fill="#e09440" opacity="0.34"/><circle cx="895.7" cy="388.5" r="3.04" fill="#e09440" opacity="0.28"/><circle cx="930.5" cy="392.1" r="3.82" fill="#e09440" opacity="0.22"/><circle cx="966.7" cy="391.7" r="3.96" fill="#e09440" opacity="0.15"/><circle cx="999.9" cy="388.3" r="1.62" fill="#e09440" opacity="0.35"/><circle cx="1040.6" cy="389.2" r="2.45" fill="#e09440" opacity="0.26"/><circle cx="1071.7" cy="387.0" r="1.78" fill="#e09440" opacity="0.16"/><circle cx="1108.3" cy="390.6" r="3.65" fill="#e09440" opacity="0.21"/><circle cx="1144.5" cy="390.2" r="2.98" fill="#e09440" opacity="0.32"/><circle cx="1179.3" cy="391.3" r="3.87" fill="#e09440" opacity="0.18"/><circle cx="30.5" cy="425.6" r="3.30" fill="#e09440" opacity="0.28"/><circle cx="68.1" cy="427.8" r="1.73" fill="#e09440" opacity="0.25"/><circle cx="103.8" cy="428.3" r="3.56" fill="#e09440" opacity="0.29"/><circle cx="135.2" cy="424.4" r="3.03" fill="#e09440" opacity="0.17"/><circle cx="176.5" cy="423.4" r="1.61" fill="#e09440" opacity="0.25"/><circle cx="210.4" cy="423.8" r="3.87" fill="#e09440" opacity="0.21"/><circle cx="246.5" cy="426.9" r="3.43" fill="#e09440" opacity="0.33"/><circle cx="281.2" cy="423.7" r="3.96" fill="#e09440" opacity="0.32"/><circle cx="320.1" cy="423.4" r="1.82" fill="#e09440" opacity="0.32"/><circle cx="351.0" cy="424.1" r="2.13" fill="#e09440" opacity="0.33"/><circle cx="391.2" cy="429.0" r="1.98" fill="#e09440" opacity="0.29"/><circle cx="423.2" cy="424.6" r="1.76" fill="#e09440" opacity="0.25"/><circle cx="463.0" cy="424.3" r="3.27" fill="#e09440" opacity="0.27"/><circle cx="497.4" cy="428.4" r="2.68" fill="#e09440" opacity="0.35"/><circle cx="534.5" cy="427.9" r="3.73" fill="#e09440" opacity="0.34"/><circle cx="569.5" cy="425.8" r="3.81" fill="#e09440" opacity="0.20"/><circle cx="604.8" cy="426.7" r="2.05" fill="#e09440" opacity="0.25"/><circle cx="643.3" cy="428.6" r="3.26" fill="#e09440" opacity="0.15"/><circle cx="680.7" cy="428.6" r="2.08" fill="#e09440" opacity="0.29"/><circle cx="716.3" cy="427.7" r="1.95" fill="#e09440" opacity="0.16"/><circle cx="751.2" cy="426.6" r="2.37" fill="#e09440" opacity="0.36"/><circle cx="786.0" cy="427.9" r="3.27" fill="#e09440" opacity="0.27"/><circle cx="824.5" cy="425.6" r="3.17" fill="#e09440" opacity="0.26"/><circle cx="856.3" cy="423.5" r="2.57" fill="#e09440" opacity="0.33"/><circle cx="894.6" cy="424.6" r="3.50" fill="#e09440" opacity="0.16"/><circle cx="931.5" cy="425.8" r="2.19" fill="#e09440" opacity="0.18"/><circle cx="963.1" cy="428.1" r="1.63" fill="#e09440" opacity="0.20"/><circle cx="1001.9" cy="425.4" r="3.59" fill="#e09440" opacity="0.23"/><circle cx="1036.3" cy="428.6" r="2.47" fill="#e09440" opacity="0.22"/><circle cx="1076.6" cy="427.8" r="3.40" fill="#e09440" opacity="0.27"/><circle cx="1113.0" cy="425.7" r="3.31" fill="#e09440" opacity="0.26"/><circle cx="1144.4" cy="428.5" r="2.13" fill="#e09440" opacity="0.34"/><circle cx="1181.5" cy="424.0" r="1.85" fill="#e09440" opacity="0.19"/><circle cx="29.6" cy="459.8" r="2.82" fill="#e09440" opacity="0.29"/><circle cx="64.1" cy="460.3" r="3.64" fill="#e09440" opacity="0.32"/><circle cx="100.6" cy="462.2" r="1.87" fill="#e09440" opacity="0.32"/><circle cx="136.0" cy="459.4" r="3.09" fill="#e09440" opacity="0.17"/><circle cx="171.0" cy="462.8" r="3.13" fill="#e09440" opacity="0.21"/><circle cx="207.3" cy="460.3" r="3.84" fill="#e09440" opacity="0.19"/><circle cx="248.2" cy="459.2" r="2.91" fill="#e09440" opacity="0.34"/><circle cx="279.8" cy="462.9" r="3.77" fill="#e09440" opacity="0.31"/><circle cx="320.1" cy="459.9" r="3.37" fill="#e09440" opacity="0.23"/><circle cx="354.7" cy="459.4" r="3.68" fill="#e09440" opacity="0.33"/><circle cx="388.4" cy="460.4" r="1.99" fill="#e09440" opacity="0.16"/><circle cx="428.3" cy="459.9" r="3.88" fill="#e09440" opacity="0.25"/><circle cx="460.1" cy="460.1" r="3.97" fill="#e09440" opacity="0.22"/><circle cx="499.8" cy="460.1" r="2.35" fill="#e09440" opacity="0.29"/><circle cx="532.6" cy="460.6" r="2.06" fill="#e09440" opacity="0.32"/><circle cx="567.1" cy="463.0" r="2.29" fill="#e09440" opacity="0.22"/><circle cx="607.4" cy="464.3" r="2.69" fill="#e09440" opacity="0.19"/><circle cx="641.3" cy="463.7" r="1.93" fill="#e09440" opacity="0.33"/><circle cx="677.8" cy="461.6" r="2.80" fill="#e09440" opacity="0.17"/><circle cx="711.7" cy="460.5" r="1.93" fill="#e09440" opacity="0.22"/><circle cx="750.1" cy="463.1" r="1.67" fill="#e09440" opacity="0.22"/><circle cx="785.8" cy="462.0" r="2.21" fill="#e09440" opacity="0.29"/><circle cx="822.3" cy="459.9" r="3.76" fill="#e09440" opacity="0.32"/><circle cx="858.2" cy="464.9" r="3.25" fill="#e09440" opacity="0.30"/><circle cx="891.9" cy="464.7" r="2.69" fill="#e09440" opacity="0.19"/><circle cx="928.0" cy="463.0" r="3.09" fill="#e09440" opacity="0.17"/><circle cx="963.5" cy="464.8" r="1.79" fill="#e09440" opacity="0.25"/><circle cx="1001.8" cy="459.7" r="2.11" fill="#e09440" opacity="0.21"/><circle cx="1035.9" cy="463.9" r="3.38" fill="#e09440" opacity="0.16"/><circle cx="1074.7" cy="463.7" r="1.94" fill="#e09440" opacity="0.23"/><circle cx="1110.9" cy="463.6" r="2.36" fill="#e09440" opacity="0.21"/><circle cx="1144.0" cy="459.8" r="2.88" fill="#e09440" opacity="0.24"/><circle cx="1183.8" cy="461.6" r="3.72" fill="#e09440" opacity="0.30"/><circle cx="27.4" cy="496.6" r="3.65" fill="#e09440" opacity="0.33"/><circle cx="67.7" cy="497.0" r="3.41" fill="#e09440" opacity="0.30"/><circle cx="102.0" cy="496.5" r="1.99" fill="#e09440" opacity="0.35"/><circle cx="138.7" cy="500.8" r="2.45" fill="#e09440" opacity="0.25"/><circle cx="171.9" cy="497.2" r="3.73" fill="#e09440" opacity="0.16"/><circle cx="209.8" cy="497.0" r="3.93" fill="#e09440" opacity="0.18"/><circle cx="246.7" cy="495.4" r="3.90" fill="#e09440" opacity="0.35"/><circle cx="279.0" cy="498.8" r="2.46" fill="#e09440" opacity="0.19"/><circle cx="319.8" cy="495.2" r="1.82" fill="#e09440" opacity="0.31"/><circle cx="355.5" cy="497.0" r="1.78" fill="#e09440" opacity="0.20"/><circle cx="387.2" cy="499.6" r="2.41" fill="#e09440" opacity="0.16"/><circle cx="428.5" cy="498.5" r="2.22" fill="#e09440" opacity="0.27"/><circle cx="462.7" cy="498.7" r="3.04" fill="#e09440" opacity="0.31"/><circle cx="500.5" cy="496.3" r="2.56" fill="#e09440" opacity="0.35"/><circle cx="535.3" cy="495.4" r="2.76" fill="#e09440" opacity="0.17"/><circle cx="570.7" cy="496.3" r="3.30" fill="#e09440" opacity="0.16"/><circle cx="604.5" cy="499.0" r="1.67" fill="#e09440" opacity="0.19"/><circle cx="644.7" cy="496.2" r="3.55" fill="#e09440" opacity="0.32"/><circle cx="676.0" cy="495.1" r="3.73" fill="#e09440" opacity="0.36"/><circle cx="714.6" cy="497.8" r="2.71" fill="#e09440" opacity="0.25"/><circle cx="753.0" cy="497.8" r="2.80" fill="#e09440" opacity="0.15"/><circle cx="784.0" cy="499.1" r="3.10" fill="#e09440" opacity="0.32"/><circle cx="822.8" cy="498.8" r="3.68" fill="#e09440" opacity="0.19"/><circle cx="857.3" cy="498.2" r="2.80" fill="#e09440" opacity="0.31"/><circle cx="892.5" cy="500.2" r="2.43" fill="#e09440" opacity="0.27"/><circle cx="932.3" cy="500.8" r="2.38" fill="#e09440" opacity="0.34"/><circle cx="968.0" cy="498.2" r="1.82" fill="#e09440" opacity="0.26"/><circle cx="1001.5" cy="500.7" r="2.40" fill="#e09440" opacity="0.24"/><circle cx="1038.3" cy="501.0" r="2.67" fill="#e09440" opacity="0.17"/><circle cx="1072.8" cy="495.2" r="3.45" fill="#e09440" opacity="0.36"/><circle cx="1111.8" cy="499.5" r="3.36" fill="#e09440" opacity="0.27"/><circle cx="1143.6" cy="497.3" r="2.29" fill="#e09440" opacity="0.15"/><circle cx="1183.8" cy="498.6" r="3.87" fill="#e09440" opacity="0.29"/><circle cx="32.4" cy="535.1" r="3.23" fill="#e09440" opacity="0.20"/><circle cx="64.7" cy="534.6" r="3.30" fill="#e09440" opacity="0.29"/><circle cx="104.0" cy="531.6" r="1.60" fill="#e09440" opacity="0.17"/><circle cx="139.6" cy="533.7" r="3.51" fill="#e09440" opacity="0.28"/><circle cx="175.3" cy="534.0" r="2.51" fill="#e09440" opacity="0.28"/><circle cx="210.3" cy="533.2" r="2.57" fill="#e09440" opacity="0.21"/><circle cx="247.7" cy="534.9" r="2.00" fill="#e09440" opacity="0.29"/><circle cx="280.2" cy="535.3" r="2.72" fill="#e09440" opacity="0.23"/><circle cx="317.7" cy="536.1" r="3.80" fill="#e09440" opacity="0.20"/><circle cx="354.4" cy="531.8" r="3.81" fill="#e09440" opacity="0.24"/><circle cx="390.1" cy="535.6" r="3.53" fill="#e09440" opacity="0.20"/><circle cx="426.8" cy="532.2" r="2.98" fill="#e09440" opacity="0.18"/><circle cx="464.0" cy="535.2" r="1.96" fill="#e09440" opacity="0.35"/><circle cx="500.9" cy="532.9" r="1.80" fill="#e09440" opacity="0.22"/><circle cx="535.9" cy="532.0" r="3.80" fill="#e09440" opacity="0.27"/><circle cx="569.3" cy="533.3" r="2.32" fill="#e09440" opacity="0.34"/><circle cx="603.8" cy="533.7" r="3.53" fill="#e09440" opacity="0.18"/><circle cx="639.1" cy="533.4" r="2.08" fill="#e09440" opacity="0.19"/><circle cx="678.5" cy="532.7" r="3.24" fill="#e09440" opacity="0.28"/><circle cx="714.0" cy="535.5" r="1.68" fill="#e09440" opacity="0.17"/><circle cx="751.8" cy="534.3" r="3.15" fill="#e09440" opacity="0.30"/><circle cx="786.0" cy="535.2" r="2.66" fill="#e09440" opacity="0.23"/><circle cx="823.8" cy="534.4" r="2.84" fill="#e09440" opacity="0.20"/><circle cx="855.4" cy="536.5" r="2.09" fill="#e09440" opacity="0.34"/><circle cx="895.5" cy="535.4" r="2.79" fill="#e09440" opacity="0.26"/><circle cx="932.6" cy="535.6" r="2.35" fill="#e09440" opacity="0.32"/><circle cx="968.2" cy="533.3" r="1.98" fill="#e09440" opacity="0.25"/><circle cx="1000.1" cy="535.8" r="2.59" fill="#e09440" opacity="0.20"/><circle cx="1039.0" cy="533.9" r="3.57" fill="#e09440" opacity="0.18"/><circle cx="1076.7" cy="532.3" r="3.55" fill="#e09440" opacity="0.24"/><circle cx="1110.2" cy="533.0" r="1.82" fill="#e09440" opacity="0.30"/><circle cx="1146.9" cy="534.2" r="2.25" fill="#e09440" opacity="0.18"/><circle cx="1182.5" cy="532.3" r="2.80" fill="#e09440" opacity="0.17"/><circle cx="31.3" cy="568.8" r="3.63" fill="#e09440" opacity="0.31"/><circle cx="65.4" cy="569.7" r="3.53" fill="#e09440" opacity="0.33"/><circle cx="101.3" cy="572.0" r="3.36" fill="#e09440" opacity="0.15"/><circle cx="138.9" cy="572.7" r="1.95" fill="#e09440" opacity="0.17"/><circle cx="173.2" cy="569.2" r="2.01" fill="#e09440" opacity="0.21"/><circle cx="208.2" cy="572.1" r="2.96" fill="#e09440" opacity="0.15"/><circle cx="244.2" cy="571.5" r="2.41" fill="#e09440" opacity="0.19"/><circle cx="283.3" cy="570.1" r="3.06" fill="#e09440" opacity="0.16"/><circle cx="317.5" cy="573.0" r="1.89" fill="#e09440" opacity="0.16"/><circle cx="353.8" cy="568.8" r="2.15" fill="#e09440" opacity="0.21"/><circle cx="388.6" cy="568.7" r="3.55" fill="#e09440" opacity="0.27"/><circle cx="423.0" cy="567.4" r="3.00" fill="#e09440" opacity="0.32"/><circle cx="460.3" cy="567.2" r="1.71" fill="#e09440" opacity="0.26"/><circle cx="499.4" cy="569.3" r="1.98" fill="#e09440" opacity="0.21"/><circle cx="536.5" cy="570.9" r="2.29" fill="#e09440" opacity="0.16"/><circle cx="567.8" cy="568.0" r="3.90" fill="#e09440" opacity="0.26"/><circle cx="605.0" cy="568.7" r="3.43" fill="#e09440" opacity="0.26"/><circle cx="642.2" cy="567.8" r="2.65" fill="#e09440" opacity="0.24"/><circle cx="675.1" cy="571.1" r="1.91" fill="#e09440" opacity="0.31"/><circle cx="715.4" cy="567.6" r="2.82" fill="#e09440" opacity="0.19"/><circle cx="750.0" cy="572.0" r="3.08" fill="#e09440" opacity="0.36"/><circle cx="786.4" cy="570.7" r="3.03" fill="#e09440" opacity="0.31"/><circle cx="825.0" cy="567.3" r="2.83" fill="#e09440" opacity="0.36"/><circle cx="860.9" cy="570.5" r="3.54" fill="#e09440" opacity="0.35"/><circle cx="893.9" cy="567.0" r="2.73" fill="#e09440" opacity="0.17"/><circle cx="927.6" cy="572.3" r="3.49" fill="#e09440" opacity="0.18"/><circle cx="967.0" cy="570.7" r="2.79" fill="#e09440" opacity="0.30"/><circle cx="1004.9" cy="570.2" r="1.95" fill="#e09440" opacity="0.15"/><circle cx="1039.9" cy="568.1" r="3.62" fill="#e09440" opacity="0.27"/><circle cx="1075.7" cy="573.0" r="3.98" fill="#e09440" opacity="0.29"/><circle cx="1109.4" cy="569.8" r="3.35" fill="#e09440" opacity="0.19"/><circle cx="1148.5" cy="568.7" r="2.25" fill="#e09440" opacity="0.35"/><circle cx="1180.3" cy="570.7" r="3.89" fill="#e09440" opacity="0.29"/><circle cx="29.9" cy="607.8" r="3.27" fill="#e09440" opacity="0.33"/><circle cx="68.2" cy="605.5" r="3.09" fill="#e09440" opacity="0.23"/><circle cx="99.6" cy="605.6" r="2.94" fill="#e09440" opacity="0.23"/><circle cx="140.5" cy="604.5" r="3.21" fill="#e09440" opacity="0.29"/><circle cx="174.2" cy="606.8" r="3.25" fill="#e09440" opacity="0.29"/><circle cx="209.4" cy="607.3" r="3.24" fill="#e09440" opacity="0.28"/><circle cx="243.7" cy="606.0" r="3.98" fill="#e09440" opacity="0.29"/><circle cx="282.3" cy="607.0" r="3.79" fill="#e09440" opacity="0.16"/><circle cx="316.8" cy="606.7" r="2.93" fill="#e09440" opacity="0.19"/><circle cx="352.4" cy="608.0" r="3.90" fill="#e09440" opacity="0.31"/><circle cx="390.2" cy="608.3" r="1.89" fill="#e09440" opacity="0.24"/><circle cx="426.0" cy="603.8" r="3.18" fill="#e09440" opacity="0.30"/><circle cx="459.0" cy="604.7" r="2.49" fill="#e09440" opacity="0.20"/><circle cx="498.8" cy="605.7" r="2.73" fill="#e09440" opacity="0.34"/><circle cx="536.6" cy="607.9" r="3.85" fill="#e09440" opacity="0.33"/><circle cx="572.9" cy="606.5" r="3.37" fill="#e09440" opacity="0.25"/><circle cx="608.9" cy="603.4" r="3.03" fill="#e09440" opacity="0.18"/><circle cx="640.4" cy="608.9" r="3.54" fill="#e09440" opacity="0.26"/><circle cx="675.5" cy="608.5" r="3.41" fill="#e09440" opacity="0.29"/><circle cx="714.3" cy="608.3" r="2.39" fill="#e09440" opacity="0.17"/><circle cx="749.1" cy="607.9" r="3.13" fill="#e09440" opacity="0.26"/><circle cx="783.9" cy="608.6" r="2.73" fill="#e09440" opacity="0.17"/><circle cx="822.7" cy="608.5" r="2.08" fill="#e09440" opacity="0.24"/><circle cx="857.0" cy="605.5" r="2.91" fill="#e09440" opacity="0.27"/><circle cx="896.4" cy="603.5" r="2.71" fill="#e09440" opacity="0.19"/><circle cx="929.5" cy="605.1" r="1.92" fill="#e09440" opacity="0.32"/><circle cx="966.8" cy="604.2" r="3.07" fill="#e09440" opacity="0.29"/><circle cx="1001.4" cy="604.0" r="3.50" fill="#e09440" opacity="0.24"/><circle cx="1040.0" cy="604.7" r="1.93" fill="#e09440" opacity="0.18"/><circle cx="1075.6" cy="605.3" r="2.29" fill="#e09440" opacity="0.18"/><circle cx="1111.9" cy="604.5" r="3.13" fill="#e09440" opacity="0.31"/><circle cx="1148.7" cy="605.5" r="3.21" fill="#e09440" opacity="0.16"/><circle cx="1180.3" cy="607.9" r="2.69" fill="#e09440" opacity="0.36"/><circle cx="30.1" cy="644.6" r="3.29" fill="#e09440" opacity="0.30"/><circle cx="68.6" cy="643.9" r="2.43" fill="#e09440" opacity="0.29"/><circle cx="102.1" cy="644.4" r="3.80" fill="#e09440" opacity="0.33"/><circle cx="138.4" cy="644.8" r="1.96" fill="#e09440" opacity="0.20"/><circle cx="174.5" cy="639.0" r="2.64" fill="#e09440" opacity="0.25"/><circle cx="210.8" cy="641.3" r="3.26" fill="#e09440" opacity="0.19"/><circle cx="245.1" cy="642.5" r="2.96" fill="#e09440" opacity="0.23"/><circle cx="283.8" cy="639.1" r="1.72" fill="#e09440" opacity="0.27"/><circle cx="319.4" cy="639.3" r="3.72" fill="#e09440" opacity="0.28"/><circle cx="352.3" cy="642.3" r="3.72" fill="#e09440" opacity="0.30"/><circle cx="391.3" cy="639.6" r="2.73" fill="#e09440" opacity="0.26"/><circle cx="423.9" cy="641.8" r="1.62" fill="#e09440" opacity="0.36"/><circle cx="463.6" cy="643.4" r="2.49" fill="#e09440" opacity="0.25"/><circle cx="498.9" cy="642.6" r="1.77" fill="#e09440" opacity="0.20"/><circle cx="536.3" cy="639.3" r="2.95" fill="#e09440" opacity="0.16"/><circle cx="571.5" cy="643.1" r="3.45" fill="#e09440" opacity="0.16"/><circle cx="608.1" cy="643.7" r="3.71" fill="#e09440" opacity="0.20"/><circle cx="640.5" cy="639.7" r="3.95" fill="#e09440" opacity="0.34"/><circle cx="679.1" cy="644.5" r="3.99" fill="#e09440" opacity="0.18"/><circle cx="714.1" cy="641.9" r="2.04" fill="#e09440" opacity="0.27"/><circle cx="750.6" cy="640.0" r="2.26" fill="#e09440" opacity="0.22"/><circle cx="786.2" cy="644.3" r="2.81" fill="#e09440" opacity="0.18"/><circle cx="824.5" cy="642.1" r="1.79" fill="#e09440" opacity="0.34"/><circle cx="858.3" cy="644.8" r="2.87" fill="#e09440" opacity="0.31"/><circle cx="895.7" cy="640.1" r="3.26" fill="#e09440" opacity="0.20"/><circle cx="932.5" cy="640.6" r="3.82" fill="#e09440" opacity="0.20"/><circle cx="968.5" cy="643.4" r="2.15" fill="#e09440" opacity="0.24"/><circle cx="1002.3" cy="643.1" r="2.70" fill="#e09440" opacity="0.18"/><circle cx="1036.1" cy="643.6" r="2.08" fill="#e09440" opacity="0.31"/><circle cx="1075.1" cy="644.7" r="3.23" fill="#e09440" opacity="0.18"/><circle cx="1112.8" cy="639.6" r="2.68" fill="#e09440" opacity="0.21"/><circle cx="1144.1" cy="644.5" r="2.18" fill="#e09440" opacity="0.19"/><circle cx="1183.2" cy="643.0" r="2.95" fill="#e09440" opacity="0.20"/><circle cx="186.1" cy="233.6" r="220" fill="url(#glow)" opacity="0.9"/>
  <g opacity="0.85" transform="translate(1020, 495)">
        <circle r="60" fill="#e09440" opacity="0.18"/>
        <path d="M -34 6 Q -10 -22 14 6 Q 34 24 14 26 L -22 26 Q -38 24 -34 6 Z" fill="none" stroke="#fdf6ee" stroke-width="3" stroke-linejoin="round"/>
      </g>
  <g transform="translate(80, 90)">
    <rect x="0" y="0" rx="20" ry="20" width="134" height="38" fill="#e09440" opacity="0.18" stroke="#e09440" stroke-width="1.5"/>
    <text x="67" y="25" font-family="ui-sans-serif, Inter, sans-serif" font-weight="700" font-size="14" letter-spacing="2.5" fill="#e09440" text-anchor="middle">CASE STUDY</text>
  </g>
  <text x="80" y="465" font-family="ui-sans-serif, -apple-system, Segoe UI, Inter, sans-serif" font-weight="800" font-size="44" fill="#faf8f5" opacity="0.98"><tspan x="80" dy="0">Resolution of Payment</tspan><tspan x="80" dy="56">Dispute Between Mumbai</tspan><tspan x="80" dy="56">Private Studio and Movie</tspan></text>
  <rect x="0" y="669" width="1200" height="6" fill="url(#gold)"/>
</svg>