<?xml version="1.0" encoding="UTF-8"?>
<svg xmlns="http://www.w3.org/2000/svg" viewBox="0 0 1200 675" width="1200" height="675" role="img" aria-label="High Court Of Madhya Pradesh At Indore Hon'ble Shri Justice Subodh Abhyankar August 16, 2022">
  <defs>
    <linearGradient id="bg" x1="0%" y1="0%" x2="100%" y2="100%">
      <stop offset="0%" stop-color="#532d15"/>
      <stop offset="100%" stop-color="#bd6b20"/>
    </linearGradient>
    <linearGradient id="gold" x1="0%" y1="0%" x2="100%" y2="100%">
      <stop offset="0%" stop-color="#e09440"/>
      <stop offset="100%" stop-color="#fdf6ee"/>
    </linearGradient>
    <radialGradient id="glow" cx="50%" cy="50%" r="50%">
      <stop offset="0%" stop-color="#e09440" stop-opacity="0.45"/>
      <stop offset="100%" stop-color="#e09440" stop-opacity="0"/>
    </radialGradient>
  </defs>
  <rect width="1200" height="675" fill="url(#bg)"/>
  <circle cx="840.0" cy="135.0" r="240" fill="url(#glow)" opacity="0.8"/><rect x="784.8" y="323.8" width="48.3" height="48.3" rx="4" transform="rotate(131.6 808.9 347.9)" fill="#e09440" opacity="0.31"/><circle cx="1156.3" cy="310.5" r="20.7" fill="#fdf6ee" opacity="0.29"/><rect x="428.1" y="361.8" width="54.4" height="54.4" rx="4" transform="rotate(344.0 455.3 389.0)" fill="#e09440" opacity="0.32"/><polygon points="1027.8,138.3 1056.7,196.1 998.9,196.1" fill="#f4d2ac" opacity="0.17"/><circle cx="627.2" cy="11.5" r="11.8" fill="#fdf6ee" opacity="0.34"/><polygon points="1132.2,417.7 1148.9,451.2 1115.4,451.2" fill="#f4d2ac" opacity="0.24"/><polygon points="776.6,134.0 800.6,182.2 752.5,182.2" fill="#f4d2ac" opacity="0.18"/><polygon points="1170.0,285.8 1190.2,326.3 1149.7,326.3" fill="#f4d2ac" opacity="0.15"/><circle cx="254.4" cy="174.0" r="31.6" fill="#fdf6ee" opacity="0.28"/><circle cx="660.8" cy="164.8" r="30.7" fill="#fdf6ee" opacity="0.20"/><rect x="537.1" y="179.3" width="17.0" height="17.0" rx="4" transform="rotate(34.6 545.6 187.8)" fill="#e09440" opacity="0.24"/><circle cx="943.8" cy="510.5" r="11.4" fill="#fdf6ee" opacity="0.31"/><circle cx="392.1" cy="24.7" r="18.3" fill="#fdf6ee" opacity="0.29"/><polygon points="156.5,32.3 182.5,84.3 130.5,84.3" fill="#f4d2ac" opacity="0.34"/><circle cx="709.3" cy="130.8" r="9.3" fill="#fdf6ee" opacity="0.19"/><rect x="630.6" y="-1.3" width="35.7" height="35.7" rx="4" transform="rotate(55.9 648.4 16.5)" fill="#e09440" opacity="0.27"/><polygon points="941.8,144.2 959.8,180.1 923.8,180.1" fill="#f4d2ac" opacity="0.16"/><rect x="370.0" y="508.9" width="31.3" height="31.3" rx="4" transform="rotate(125.5 385.6 524.5)" fill="#e09440" opacity="0.18"/><circle cx="771.0" cy="493.0" r="25.1" fill="#fdf6ee" opacity="0.34"/><polygon points="536.4,251.7 556.9,292.6 516.0,292.6" fill="#f4d2ac" opacity="0.13"/><polygon points="734.3,252.4 750.0,283.8 718.7,283.8" fill="#f4d2ac" opacity="0.17"/><polygon points="460.1,528.9 486.1,580.9 434.2,580.9" fill="#f4d2ac" opacity="0.15"/>
  <g opacity="0.85" transform="translate(1020, 495)">
        <circle r="68" fill="none" stroke="#e09440" stroke-width="2" opacity="0.35"/>
        <path d="M -38 12 L 38 12 M -32 -8 L 32 -8 M -45 -28 L 45 -28" stroke="#fdf6ee" stroke-width="3" stroke-linecap="round"/>
        <rect x="-50" y="-44" width="100" height="80" fill="none" stroke="#e09440" stroke-width="2"/>
      </g>
  <g transform="translate(80, 90)">
    <rect x="0" y="0" rx="20" ry="20" width="112" height="38" fill="#e09440" opacity="0.18" stroke="#e09440" stroke-width="1.5"/>
    <text x="56" y="25" font-family="ui-sans-serif, Inter, sans-serif" font-weight="700" font-size="14" letter-spacing="2.5" fill="#e09440" text-anchor="middle">NEWSROOM</text>
  </g>
  <text x="80" y="465" font-family="ui-sans-serif, -apple-system, Segoe UI, Inter, sans-serif" font-weight="800" font-size="44" fill="#faf8f5" opacity="0.98"><tspan x="80" dy="0">High Court Of Madhya</tspan><tspan x="80" dy="56">Pradesh At Indore Hon'ble</tspan><tspan x="80" dy="56">Shri Justice Subodh</tspan></text>
  <rect x="0" y="669" width="1200" height="6" fill="url(#gold)"/>
</svg>