<?xml version="1.0" encoding="UTF-8"?>
<svg xmlns="http://www.w3.org/2000/svg" viewBox="0 0 1200 675" width="1200" height="675" role="img" aria-label="Payment Dispute Resolution Case Summary: Perfume Material Supplier vs. Perfume Shop Owner">
  <defs>
    <linearGradient id="bg" x1="0%" y1="0%" x2="100%" y2="100%">
      <stop offset="0%" stop-color="#643516"/>
      <stop offset="100%" stop-color="#7d4315"/>
    </linearGradient>
    <linearGradient id="gold" x1="0%" y1="0%" x2="100%" y2="100%">
      <stop offset="0%" stop-color="#ecb478"/>
      <stop offset="100%" stop-color="#faebd6"/>
    </linearGradient>
    <radialGradient id="glow" cx="50%" cy="50%" r="50%">
      <stop offset="0%" stop-color="#ecb478" stop-opacity="0.45"/>
      <stop offset="100%" stop-color="#ecb478" stop-opacity="0"/>
    </radialGradient>
  </defs>
  <rect width="1200" height="675" fill="url(#bg)"/>
  <circle cx="840.0" cy="135.0" r="240" fill="url(#glow)" opacity="0.8"/><circle cx="615.2" cy="539.5" r="25.6" fill="#faebd6" opacity="0.26"/><circle cx="521.0" cy="303.1" r="24.5" fill="#faebd6" opacity="0.25"/><polygon points="514.3,550.5 529.5,580.7 499.2,580.7" fill="#f4d2ac" opacity="0.14"/><circle cx="526.9" cy="425.8" r="15.7" fill="#faebd6" opacity="0.24"/><circle cx="932.3" cy="218.3" r="18.7" fill="#faebd6" opacity="0.32"/><polygon points="358.7,118.6 389.1,179.3 328.3,179.3" fill="#f4d2ac" opacity="0.17"/><circle cx="718.1" cy="518.3" r="9.1" fill="#faebd6" opacity="0.11"/><rect x="225.0" y="40.9" width="45.3" height="45.3" rx="4" transform="rotate(233.1 247.6 63.6)" fill="#ecb478" opacity="0.14"/><circle cx="842.6" cy="214.3" r="13.7" fill="#faebd6" opacity="0.30"/><circle cx="733.6" cy="395.3" r="11.8" fill="#faebd6" opacity="0.13"/><circle cx="589.4" cy="291.5" r="25.0" fill="#faebd6" opacity="0.27"/><rect x="1134.8" y="509.5" width="48.0" height="48.0" rx="4" transform="rotate(43.9 1158.8 533.5)" fill="#ecb478" opacity="0.30"/><polygon points="1165.8,454.0 1178.1,478.6 1153.5,478.6" fill="#f4d2ac" opacity="0.30"/><circle cx="709.7" cy="482.3" r="17.0" fill="#faebd6" opacity="0.29"/><polygon points="213.3,181.9 238.4,232.1 188.2,232.1" fill="#f4d2ac" opacity="0.21"/><rect x="411.5" y="-14.0" width="29.9" height="29.9" rx="4" transform="rotate(178.4 426.4 0.9)" fill="#ecb478" opacity="0.17"/><polygon points="780.4,145.5 790.5,165.8 770.3,165.8" fill="#f4d2ac" opacity="0.33"/><rect x="1016.7" y="225.9" width="59.3" height="59.3" rx="4" transform="rotate(252.1 1046.3 255.5)" fill="#ecb478" opacity="0.14"/><circle cx="661.7" cy="557.0" r="13.8" fill="#faebd6" opacity="0.33"/><rect x="1160.1" y="97.6" width="23.9" height="23.9" rx="4" transform="rotate(34.1 1172.0 109.6)" fill="#ecb478" opacity="0.23"/><polygon points="387.0,83.3 398.5,106.5 375.4,106.5" fill="#f4d2ac" opacity="0.20"/><rect x="65.0" y="37.1" width="41.2" height="41.2" rx="4" transform="rotate(194.0 85.6 57.7)" fill="#ecb478" opacity="0.33"/>
  <g opacity="0.85" transform="translate(1020, 495)">
        <circle r="60" fill="#ecb478" opacity="0.18"/>
        <path d="M -34 6 Q -10 -22 14 6 Q 34 24 14 26 L -22 26 Q -38 24 -34 6 Z" fill="none" stroke="#faebd6" stroke-width="3" stroke-linejoin="round"/>
      </g>
  <g transform="translate(80, 90)">
    <rect x="0" y="0" rx="20" ry="20" width="134" height="38" fill="#ecb478" opacity="0.18" stroke="#ecb478" stroke-width="1.5"/>
    <text x="67" y="25" font-family="ui-sans-serif, Inter, sans-serif" font-weight="700" font-size="14" letter-spacing="2.5" fill="#ecb478" text-anchor="middle">CASE STUDY</text>
  </g>
  <text x="80" y="465" font-family="ui-sans-serif, -apple-system, Segoe UI, Inter, sans-serif" font-weight="800" font-size="44" fill="#faf8f5" opacity="0.98"><tspan x="80" dy="0">Payment Dispute Resolution</tspan><tspan x="80" dy="56">Case Summary: Perfume</tspan><tspan x="80" dy="56">Material Supplier vs.</tspan></text>
  <rect x="0" y="669" width="1200" height="6" fill="url(#gold)"/>
</svg>