<?xml version="1.0" encoding="UTF-8"?>
<svg xmlns="http://www.w3.org/2000/svg" viewBox="0 0 1200 675" width="1200" height="675" role="img" aria-label="Affordable ADR Solutions">
  <defs>
    <linearGradient id="bg" x1="0%" y1="0%" x2="100%" y2="100%">
      <stop offset="0%" stop-color="#0c0a09"/>
      <stop offset="100%" stop-color="#291813"/>
    </linearGradient>
    <linearGradient id="gold" x1="0%" y1="0%" x2="100%" y2="100%">
      <stop offset="0%" stop-color="#d4862a"/>
      <stop offset="100%" stop-color="#bd6b20"/>
    </linearGradient>
    <radialGradient id="glow" cx="50%" cy="50%" r="50%">
      <stop offset="0%" stop-color="#d4862a" stop-opacity="0.45"/>
      <stop offset="100%" stop-color="#d4862a" stop-opacity="0"/>
    </radialGradient>
  </defs>
  <rect width="1200" height="675" fill="url(#bg)"/>
  <circle cx="840.0" cy="135.0" r="240" fill="url(#glow)" opacity="0.8"/><circle cx="912.3" cy="352.8" r="7.9" fill="#bd6b20" opacity="0.12"/><polygon points="463.1,284.6 490.2,338.8 436.0,338.8" fill="#f4d2ac" opacity="0.26"/><circle cx="825.9" cy="259.9" r="22.3" fill="#bd6b20" opacity="0.24"/><rect x="965.2" y="297.6" width="26.7" height="26.7" rx="4" transform="rotate(120.3 978.6 310.9)" fill="#d4862a" opacity="0.16"/><rect x="897.7" y="350.7" width="14.1" height="14.1" rx="4" transform="rotate(219.7 904.7 357.7)" fill="#d4862a" opacity="0.18"/><polygon points="569.2,22.0 576.6,36.8 561.8,36.8" fill="#f4d2ac" opacity="0.14"/><rect x="368.1" y="535.7" width="16.5" height="16.5" rx="4" transform="rotate(113.6 376.3 543.9)" fill="#d4862a" opacity="0.17"/><circle cx="622.5" cy="304.7" r="23.1" fill="#bd6b20" opacity="0.34"/><polygon points="678.7,346.9 689.8,369.2 667.5,369.2" fill="#f4d2ac" opacity="0.13"/><circle cx="264.7" cy="451.0" r="21.6" fill="#bd6b20" opacity="0.27"/><circle cx="475.3" cy="79.0" r="10.4" fill="#bd6b20" opacity="0.15"/><rect x="739.8" y="469.0" width="33.4" height="33.4" rx="4" transform="rotate(1.2 756.5 485.7)" fill="#d4862a" opacity="0.21"/><polygon points="550.2,456.6 570.1,496.3 530.4,496.3" fill="#f4d2ac" opacity="0.22"/><circle cx="938.0" cy="85.7" r="17.7" fill="#bd6b20" opacity="0.11"/><rect x="936.6" y="172.7" width="35.5" height="35.5" rx="4" transform="rotate(77.0 954.3 190.5)" fill="#d4862a" opacity="0.19"/><polygon points="123.0,66.0 154.8,129.7 91.1,129.7" fill="#f4d2ac" opacity="0.19"/><rect x="1144.9" y="326.3" width="51.0" height="51.0" rx="4" transform="rotate(233.2 1170.4 351.8)" fill="#d4862a" opacity="0.21"/><rect x="876.0" y="185.2" width="46.1" height="46.1" rx="4" transform="rotate(86.8 899.1 208.3)" fill="#d4862a" opacity="0.23"/><rect x="1176.9" y="-7.3" width="45.5" height="45.5" rx="4" transform="rotate(203.7 1199.6 15.5)" fill="#d4862a" opacity="0.20"/><rect x="696.3" y="218.2" width="32.5" height="32.5" rx="4" transform="rotate(134.1 712.6 234.4)" fill="#d4862a" opacity="0.15"/><rect x="1059.9" y="353.9" width="62.0" height="62.0" rx="4" transform="rotate(83.6 1090.9 384.9)" fill="#d4862a" opacity="0.14"/><rect x="953.0" y="376.3" width="56.3" height="56.3" rx="4" transform="rotate(50.1 981.2 404.5)" fill="#d4862a" opacity="0.26"/>
  <g opacity="0.85" transform="translate(1020, 495)">
        <polygon points="0,-50 43,25 -43,25" fill="none" stroke="#d4862a" stroke-width="2"/>
        <polygon points="0,-30 26,15 -26,15" fill="#bd6b20" opacity="0.4"/>
      </g>
  <g transform="translate(80, 90)">
    <rect x="0" y="0" rx="20" ry="20" width="145" height="38" fill="#d4862a" opacity="0.18" stroke="#d4862a" stroke-width="1.5"/>
    <text x="72.5" y="25" font-family="ui-sans-serif, Inter, sans-serif" font-weight="700" font-size="14" letter-spacing="2.5" fill="#d4862a" text-anchor="middle">INFORMATION</text>
  </g>
  <text x="80" y="565" font-family="ui-sans-serif, -apple-system, Segoe UI, Inter, sans-serif" font-weight="800" font-size="44" fill="#faf8f5" opacity="0.98"><tspan x="80" dy="0">Affordable ADR Solutions</tspan></text>
  <rect x="0" y="669" width="1200" height="6" fill="url(#gold)"/>
</svg>