<?xml version="1.0" encoding="UTF-8"?>
<svg xmlns="http://www.w3.org/2000/svg" viewBox="0 0 1200 675" width="1200" height="675" role="img" aria-label="Resolution of Mumbai Construction Company's Invoice Dispute with Printing Solution Provider">
  <defs>
    <linearGradient id="bg" x1="0%" y1="0%" x2="100%" y2="100%">
      <stop offset="0%" stop-color="#532d15"/>
      <stop offset="100%" stop-color="#bd6b20"/>
    </linearGradient>
    <linearGradient id="gold" x1="0%" y1="0%" x2="100%" y2="100%">
      <stop offset="0%" stop-color="#e09440"/>
      <stop offset="100%" stop-color="#fdf6ee"/>
    </linearGradient>
    <radialGradient id="glow" cx="50%" cy="50%" r="50%">
      <stop offset="0%" stop-color="#e09440" stop-opacity="0.45"/>
      <stop offset="100%" stop-color="#e09440" stop-opacity="0"/>
    </radialGradient>
  </defs>
  <rect width="1200" height="675" fill="url(#bg)"/>
  <rect x="-700.5" y="-80" width="121.9" height="875" transform="rotate(18 -700.5 337.5)" fill="#e09440" opacity="0.10"/><rect x="-504.5" y="-80" width="117.0" height="875" transform="rotate(18 -504.5 337.5)" fill="#e09440" opacity="0.05"/><rect x="-283.0" y="-80" width="115.9" height="875" transform="rotate(18 -283.0 337.5)" fill="#e09440" opacity="0.09"/><rect x="-150.6" y="-80" width="131.9" height="875" transform="rotate(18 -150.6 337.5)" fill="#e09440" opacity="0.10"/><rect x="26.7" y="-80" width="139.3" height="875" transform="rotate(18 26.7 337.5)" fill="#e09440" opacity="0.09"/><rect x="209.7" y="-80" width="95.9" height="875" transform="rotate(18 209.7 337.5)" fill="#e09440" opacity="0.17"/><rect x="434.1" y="-80" width="94.0" height="875" transform="rotate(18 434.1 337.5)" fill="#e09440" opacity="0.13"/><rect x="542.7" y="-80" width="104.7" height="875" transform="rotate(18 542.7 337.5)" fill="#e09440" opacity="0.06"/><rect x="774.4" y="-80" width="72.1" height="875" transform="rotate(18 774.4 337.5)" fill="#e09440" opacity="0.14"/><rect x="948.6" y="-80" width="86.6" height="875" transform="rotate(18 948.6 337.5)" fill="#e09440" opacity="0.12"/><rect x="1096.6" y="-80" width="101.1" height="875" transform="rotate(18 1096.6 337.5)" fill="#e09440" opacity="0.07"/><rect x="1262.2" y="-80" width="72.2" height="875" transform="rotate(18 1262.2 337.5)" fill="#e09440" opacity="0.08"/><rect x="1485.4" y="-80" width="131.7" height="875" transform="rotate(18 1485.4 337.5)" fill="#e09440" opacity="0.14"/><rect x="1620.7" y="-80" width="72.5" height="875" transform="rotate(18 1620.7 337.5)" fill="#e09440" opacity="0.18"/><rect x="0" y="0" width="1200" height="675" fill="url(#glow)" opacity="0.6"/>
  <g opacity="0.85" transform="translate(1020, 495)">
        <circle r="60" fill="#e09440" opacity="0.18"/>
        <path d="M -34 6 Q -10 -22 14 6 Q 34 24 14 26 L -22 26 Q -38 24 -34 6 Z" fill="none" stroke="#fdf6ee" stroke-width="3" stroke-linejoin="round"/>
      </g>
  <g transform="translate(80, 90)">
    <rect x="0" y="0" rx="20" ry="20" width="134" height="38" fill="#e09440" opacity="0.18" stroke="#e09440" stroke-width="1.5"/>
    <text x="67" y="25" font-family="ui-sans-serif, Inter, sans-serif" font-weight="700" font-size="14" letter-spacing="2.5" fill="#e09440" text-anchor="middle">CASE STUDY</text>
  </g>
  <text x="80" y="465" font-family="ui-sans-serif, -apple-system, Segoe UI, Inter, sans-serif" font-weight="800" font-size="44" fill="#faf8f5" opacity="0.98"><tspan x="80" dy="0">Resolution of Mumbai</tspan><tspan x="80" dy="56">Construction Company's</tspan><tspan x="80" dy="56">Invoice Dispute with</tspan></text>
  <rect x="0" y="669" width="1200" height="6" fill="url(#gold)"/>
</svg>