<?xml version="1.0" encoding="UTF-8"?>
<svg xmlns="http://www.w3.org/2000/svg" viewBox="0 0 1200 675" width="1200" height="675" role="img" aria-label="Settlement Success: Private Limited IT Company Resolves Dispute with Marketing Firm">
  <defs>
    <linearGradient id="bg" x1="0%" y1="0%" x2="100%" y2="100%">
      <stop offset="0%" stop-color="#12100e"/>
      <stop offset="100%" stop-color="#1c1917"/>
    </linearGradient>
    <linearGradient id="gold" x1="0%" y1="0%" x2="100%" y2="100%">
      <stop offset="0%" stop-color="#bd6b20"/>
      <stop offset="100%" stop-color="#e09440"/>
    </linearGradient>
    <radialGradient id="glow" cx="50%" cy="50%" r="50%">
      <stop offset="0%" stop-color="#bd6b20" stop-opacity="0.45"/>
      <stop offset="100%" stop-color="#bd6b20" stop-opacity="0"/>
    </radialGradient>
  </defs>
  <rect width="1200" height="675" fill="url(#bg)"/>
  <rect x="-680.6" y="-80" width="97.3" height="875" transform="rotate(18 -680.6 337.5)" fill="#bd6b20" opacity="0.11"/><rect x="-539.9" y="-80" width="100.3" height="875" transform="rotate(18 -539.9 337.5)" fill="#bd6b20" opacity="0.12"/><rect x="-327.1" y="-80" width="93.6" height="875" transform="rotate(18 -327.1 337.5)" fill="#bd6b20" opacity="0.12"/><rect x="-130.2" y="-80" width="110.6" height="875" transform="rotate(18 -130.2 337.5)" fill="#bd6b20" opacity="0.19"/><rect x="61.6" y="-80" width="62.5" height="875" transform="rotate(18 61.6 337.5)" fill="#bd6b20" opacity="0.18"/><rect x="247.5" y="-80" width="84.4" height="875" transform="rotate(18 247.5 337.5)" fill="#bd6b20" opacity="0.16"/><rect x="389.7" y="-80" width="133.1" height="875" transform="rotate(18 389.7 337.5)" fill="#bd6b20" opacity="0.20"/><rect x="608.2" y="-80" width="120.1" height="875" transform="rotate(18 608.2 337.5)" fill="#bd6b20" opacity="0.06"/><rect x="773.1" y="-80" width="137.1" height="875" transform="rotate(18 773.1 337.5)" fill="#bd6b20" opacity="0.18"/><rect x="939.8" y="-80" width="95.1" height="875" transform="rotate(18 939.8 337.5)" fill="#bd6b20" opacity="0.18"/><rect x="1081.5" y="-80" width="124.0" height="875" transform="rotate(18 1081.5 337.5)" fill="#bd6b20" opacity="0.13"/><rect x="1274.6" y="-80" width="123.2" height="875" transform="rotate(18 1274.6 337.5)" fill="#bd6b20" opacity="0.14"/><rect x="1447.2" y="-80" width="60.2" height="875" transform="rotate(18 1447.2 337.5)" fill="#bd6b20" opacity="0.06"/><rect x="1680.5" y="-80" width="101.1" height="875" transform="rotate(18 1680.5 337.5)" fill="#bd6b20" opacity="0.14"/><rect x="0" y="0" width="1200" height="675" fill="url(#glow)" opacity="0.6"/>
  <g opacity="0.85" transform="translate(1020, 495)">
        <circle r="60" fill="#bd6b20" opacity="0.18"/>
        <path d="M -34 6 Q -10 -22 14 6 Q 34 24 14 26 L -22 26 Q -38 24 -34 6 Z" fill="none" stroke="#e09440" stroke-width="3" stroke-linejoin="round"/>
      </g>
  <g transform="translate(80, 90)">
    <rect x="0" y="0" rx="20" ry="20" width="134" height="38" fill="#bd6b20" opacity="0.18" stroke="#bd6b20" stroke-width="1.5"/>
    <text x="67" y="25" font-family="ui-sans-serif, Inter, sans-serif" font-weight="700" font-size="14" letter-spacing="2.5" fill="#bd6b20" text-anchor="middle">CASE STUDY</text>
  </g>
  <text x="80" y="465" font-family="ui-sans-serif, -apple-system, Segoe UI, Inter, sans-serif" font-weight="800" font-size="44" fill="#faf8f5" opacity="0.98"><tspan x="80" dy="0">Settlement Success:</tspan><tspan x="80" dy="56">Private Limited IT Company</tspan><tspan x="80" dy="56">Resolves Dispute with</tspan></text>
  <rect x="0" y="669" width="1200" height="6" fill="url(#gold)"/>
</svg>