<?xml version="1.0" encoding="UTF-8"?>
<svg xmlns="http://www.w3.org/2000/svg" viewBox="0 0 1200 675" width="1200" height="675" role="img" aria-label="PDR COURT Privacy Policy ensures users are bound by its terms">
  <defs>
    <linearGradient id="bg" x1="0%" y1="0%" x2="100%" y2="100%">
      <stop offset="0%" stop-color="#12100e"/>
      <stop offset="100%" stop-color="#1c1917"/>
    </linearGradient>
    <linearGradient id="gold" x1="0%" y1="0%" x2="100%" y2="100%">
      <stop offset="0%" stop-color="#bd6b20"/>
      <stop offset="100%" stop-color="#e09440"/>
    </linearGradient>
    <radialGradient id="glow" cx="50%" cy="50%" r="50%">
      <stop offset="0%" stop-color="#bd6b20" stop-opacity="0.45"/>
      <stop offset="100%" stop-color="#bd6b20" stop-opacity="0"/>
    </radialGradient>
  </defs>
  <rect width="1200" height="675" fill="url(#bg)"/>
  <circle cx="216" cy="236.24999999999997" r="361.0211172536947" fill="url(#glow)" opacity="0.8"/><circle cx="156.5" cy="241.4" r="114.1" fill="#bd6b20" opacity="0.15"/><circle cx="190.5" cy="179.0" r="145.5" fill="#bd6b20" opacity="0.13"/><circle cx="625.2" cy="290.5" r="158.3" fill="#bd6b20" opacity="0.12"/><circle cx="364.1" cy="318.7" r="244.1" fill="#bd6b20" opacity="0.17"/><circle cx="727.4" cy="13.4" r="159.4" fill="#bd6b20" opacity="0.18"/><circle cx="984.0" cy="168.8" r="220" fill="none" stroke="#e09440" stroke-width="1.5" opacity="0.4"/>
  <g opacity="0.85" transform="translate(1020, 495)">
        <polygon points="0,-50 43,25 -43,25" fill="none" stroke="#bd6b20" stroke-width="2"/>
        <polygon points="0,-30 26,15 -26,15" fill="#e09440" opacity="0.4"/>
      </g>
  <g transform="translate(80, 90)">
    <rect x="0" y="0" rx="20" ry="20" width="145" height="38" fill="#bd6b20" opacity="0.18" stroke="#bd6b20" stroke-width="1.5"/>
    <text x="72.5" y="25" font-family="ui-sans-serif, Inter, sans-serif" font-weight="700" font-size="14" letter-spacing="2.5" fill="#bd6b20" text-anchor="middle">INFORMATION</text>
  </g>
  <text x="80" y="465" font-family="ui-sans-serif, -apple-system, Segoe UI, Inter, sans-serif" font-weight="800" font-size="44" fill="#faf8f5" opacity="0.98"><tspan x="80" dy="0">PDR COURT Privacy Policy</tspan><tspan x="80" dy="56">ensures users are bound by</tspan><tspan x="80" dy="56">its terms</tspan></text>
  <rect x="0" y="669" width="1200" height="6" fill="url(#gold)"/>
</svg>