<?xml version="1.0" encoding="UTF-8"?>
<svg xmlns="http://www.w3.org/2000/svg" viewBox="0 0 1200 675" width="1200" height="675" role="img" aria-label="Radico Khaitan Wins Landmark Arbitration Clause Battle">
  <defs>
    <linearGradient id="bg" x1="0%" y1="0%" x2="100%" y2="100%">
      <stop offset="0%" stop-color="#643516"/>
      <stop offset="100%" stop-color="#7d4315"/>
    </linearGradient>
    <linearGradient id="gold" x1="0%" y1="0%" x2="100%" y2="100%">
      <stop offset="0%" stop-color="#ecb478"/>
      <stop offset="100%" stop-color="#faebd6"/>
    </linearGradient>
    <radialGradient id="glow" cx="50%" cy="50%" r="50%">
      <stop offset="0%" stop-color="#ecb478" stop-opacity="0.45"/>
      <stop offset="100%" stop-color="#ecb478" stop-opacity="0"/>
    </radialGradient>
  </defs>
  <rect width="1200" height="675" fill="url(#bg)"/>
  <rect x="-673.4" y="-80" width="102.4" height="875" transform="rotate(18 -673.4 337.5)" fill="#ecb478" opacity="0.16"/><rect x="-463.8" y="-80" width="91.2" height="875" transform="rotate(18 -463.8 337.5)" fill="#ecb478" opacity="0.09"/><rect x="-319.1" y="-80" width="75.3" height="875" transform="rotate(18 -319.1 337.5)" fill="#ecb478" opacity="0.17"/><rect x="-169.7" y="-80" width="72.7" height="875" transform="rotate(18 -169.7 337.5)" fill="#ecb478" opacity="0.08"/><rect x="16.3" y="-80" width="139.5" height="875" transform="rotate(18 16.3 337.5)" fill="#ecb478" opacity="0.16"/><rect x="210.2" y="-80" width="92.4" height="875" transform="rotate(18 210.2 337.5)" fill="#ecb478" opacity="0.16"/><rect x="413.6" y="-80" width="74.7" height="875" transform="rotate(18 413.6 337.5)" fill="#ecb478" opacity="0.13"/><rect x="554.0" y="-80" width="101.4" height="875" transform="rotate(18 554.0 337.5)" fill="#ecb478" opacity="0.20"/><rect x="779.7" y="-80" width="107.6" height="875" transform="rotate(18 779.7 337.5)" fill="#ecb478" opacity="0.09"/><rect x="907.2" y="-80" width="78.9" height="875" transform="rotate(18 907.2 337.5)" fill="#ecb478" opacity="0.19"/><rect x="1087.7" y="-80" width="92.2" height="875" transform="rotate(18 1087.7 337.5)" fill="#ecb478" opacity="0.10"/><rect x="1292.4" y="-80" width="125.3" height="875" transform="rotate(18 1292.4 337.5)" fill="#ecb478" opacity="0.07"/><rect x="1453.7" y="-80" width="129.8" height="875" transform="rotate(18 1453.7 337.5)" fill="#ecb478" opacity="0.09"/><rect x="1689.5" y="-80" width="115.9" height="875" transform="rotate(18 1689.5 337.5)" fill="#ecb478" opacity="0.08"/><rect x="0" y="0" width="1200" height="675" fill="url(#glow)" opacity="0.6"/>
  <g opacity="0.85" transform="translate(1020, 495)">
        <circle r="68" fill="none" stroke="#ecb478" stroke-width="2" opacity="0.35"/>
        <path d="M -38 12 L 38 12 M -32 -8 L 32 -8 M -45 -28 L 45 -28" stroke="#faebd6" stroke-width="3" stroke-linecap="round"/>
        <rect x="-50" y="-44" width="100" height="80" fill="none" stroke="#ecb478" stroke-width="2"/>
      </g>
  <g transform="translate(80, 90)">
    <rect x="0" y="0" rx="20" ry="20" width="112" height="38" fill="#ecb478" opacity="0.18" stroke="#ecb478" stroke-width="1.5"/>
    <text x="56" y="25" font-family="ui-sans-serif, Inter, sans-serif" font-weight="700" font-size="14" letter-spacing="2.5" fill="#ecb478" text-anchor="middle">NEWSROOM</text>
  </g>
  <text x="80" y="465" font-family="ui-sans-serif, -apple-system, Segoe UI, Inter, sans-serif" font-weight="800" font-size="44" fill="#faf8f5" opacity="0.98"><tspan x="80" dy="0">Radico Khaitan Wins</tspan><tspan x="80" dy="56">Landmark Arbitration</tspan><tspan x="80" dy="56">Clause Battle</tspan></text>
  <rect x="0" y="669" width="1200" height="6" fill="url(#gold)"/>
</svg>