<?xml version="1.0" encoding="UTF-8"?>
<svg xmlns="http://www.w3.org/2000/svg" viewBox="0 0 1200 675" width="1200" height="675" role="img" aria-label="Rajasthan High Court's Landmark Ruling on Arbitration Venue vs. Seat">
  <defs>
    <linearGradient id="bg" x1="0%" y1="0%" x2="100%" y2="100%">
      <stop offset="0%" stop-color="#faf8f5"/>
      <stop offset="100%" stop-color="#f4efe8"/>
    </linearGradient>
    <linearGradient id="gold" x1="0%" y1="0%" x2="100%" y2="100%">
      <stop offset="0%" stop-color="#bd6b20"/>
      <stop offset="100%" stop-color="#9a5518"/>
    </linearGradient>
    <radialGradient id="glow" cx="50%" cy="50%" r="50%">
      <stop offset="0%" stop-color="#bd6b20" stop-opacity="0.45"/>
      <stop offset="100%" stop-color="#bd6b20" stop-opacity="0"/>
    </radialGradient>
  </defs>
  <rect width="1200" height="675" fill="url(#bg)"/>
  <polygon points="173.0,-59.7 289.4,-15.6 245.4,100.8 128.9,56.8" fill="#9a5518" opacity="0.10"/><polygon points="402.0,276.2 461.3,496.4 241.1,555.6 181.9,335.5" fill="#9a5518" opacity="0.15"/><polygon points="1065.2,65.6 1011.0,294.0 782.6,239.7 836.8,11.3" fill="#9a5518" opacity="0.09"/><polygon points="607.3,477.0 751.3,568.6 659.6,712.6 515.6,620.9" fill="#9a5518" opacity="0.13"/><polygon points="952.9,335.2 1010.1,168.5 1176.8,225.7 1119.6,392.4" fill="#9a5518" opacity="0.15"/><polygon points="663.6,76.5 516.0,211.2 473.2,16.0" fill="#9a5518" opacity="0.18"/><polygon points="849.0,274.1 878.4,187.8 938.5,256.5" fill="#9a5518" opacity="0.13"/><polygon points="130.0,205.5 125.2,308.9 21.9,304.0 26.7,200.7" fill="#9a5518" opacity="0.13"/><polygon points="921.1,509.8 1093.7,586.1 1074.4,773.8 889.9,813.5 795.1,650.3" fill="#9a5518" opacity="0.16"/><polygon points="207.6,295.9 100.9,240.3 156.5,133.6 263.2,189.2" fill="#9a5518" opacity="0.06"/><polygon points="-22.2,538.2 -11.6,453.4 72.4,437.2 113.7,512.1 55.2,574.5" fill="#9a5518" opacity="0.18"/><polygon points="632.3,-105.8 781.7,51.4 570.9,102.2" fill="#9a5518" opacity="0.08"/><polygon points="168.7,283.5 7.3,437.7 -146.9,276.3 14.5,122.1" fill="#9a5518" opacity="0.09"/><polygon points="310.2,164.1 118.1,79.8 287.1,-44.4" fill="#9a5518" opacity="0.09"/><circle cx="936.0" cy="202.5" r="180" fill="url(#glow)"/>
  <g opacity="0.85" transform="translate(1020, 495)">
        <circle r="68" fill="none" stroke="#bd6b20" stroke-width="2" opacity="0.35"/>
        <path d="M -38 12 L 38 12 M -32 -8 L 32 -8 M -45 -28 L 45 -28" stroke="#9a5518" stroke-width="3" stroke-linecap="round"/>
        <rect x="-50" y="-44" width="100" height="80" fill="none" stroke="#bd6b20" stroke-width="2"/>
      </g>
  <g transform="translate(80, 90)">
    <rect x="0" y="0" rx="20" ry="20" width="112" height="38" fill="#bd6b20" opacity="0.18" stroke="#bd6b20" stroke-width="1.5"/>
    <text x="56" y="25" font-family="ui-sans-serif, Inter, sans-serif" font-weight="700" font-size="14" letter-spacing="2.5" fill="#bd6b20" text-anchor="middle">NEWSROOM</text>
  </g>
  <text x="80" y="465" font-family="ui-sans-serif, -apple-system, Segoe UI, Inter, sans-serif" font-weight="800" font-size="44" fill="#12100e" opacity="0.98"><tspan x="80" dy="0">Rajasthan High Court's</tspan><tspan x="80" dy="56">Landmark Ruling on</tspan><tspan x="80" dy="56">Arbitration Venue vs. Seat</tspan></text>
  <rect x="0" y="669" width="1200" height="6" fill="url(#gold)"/>
</svg>