<?xml version="1.0" encoding="UTF-8"?>
<svg xmlns="http://www.w3.org/2000/svg" viewBox="0 0 1200 675" width="1200" height="675" role="img" aria-label="Lessons from Ramayana: Ego vs. Dialogue in Conflict Resolution">
  <defs>
    <linearGradient id="bg" x1="0%" y1="0%" x2="100%" y2="100%">
      <stop offset="0%" stop-color="#faf8f5"/>
      <stop offset="100%" stop-color="#f4efe8"/>
    </linearGradient>
    <linearGradient id="gold" x1="0%" y1="0%" x2="100%" y2="100%">
      <stop offset="0%" stop-color="#bd6b20"/>
      <stop offset="100%" stop-color="#9a5518"/>
    </linearGradient>
    <radialGradient id="glow" cx="50%" cy="50%" r="50%">
      <stop offset="0%" stop-color="#bd6b20" stop-opacity="0.45"/>
      <stop offset="100%" stop-color="#bd6b20" stop-opacity="0"/>
    </radialGradient>
  </defs>
  <rect width="1200" height="675" fill="url(#bg)"/>
  <rect x="-718.8" y="-80" width="71.5" height="875" transform="rotate(18 -718.8 337.5)" fill="#bd6b20" opacity="0.14"/><rect x="-466.9" y="-80" width="89.4" height="875" transform="rotate(18 -466.9 337.5)" fill="#bd6b20" opacity="0.06"/><rect x="-320.5" y="-80" width="69.5" height="875" transform="rotate(18 -320.5 337.5)" fill="#bd6b20" opacity="0.05"/><rect x="-112.4" y="-80" width="76.5" height="875" transform="rotate(18 -112.4 337.5)" fill="#bd6b20" opacity="0.15"/><rect x="38.5" y="-80" width="120.4" height="875" transform="rotate(18 38.5 337.5)" fill="#bd6b20" opacity="0.09"/><rect x="184.6" y="-80" width="109.5" height="875" transform="rotate(18 184.6 337.5)" fill="#bd6b20" opacity="0.17"/><rect x="428.7" y="-80" width="63.4" height="875" transform="rotate(18 428.7 337.5)" fill="#bd6b20" opacity="0.13"/><rect x="609.0" y="-80" width="69.9" height="875" transform="rotate(18 609.0 337.5)" fill="#bd6b20" opacity="0.16"/><rect x="730.5" y="-80" width="134.4" height="875" transform="rotate(18 730.5 337.5)" fill="#bd6b20" opacity="0.14"/><rect x="968.3" y="-80" width="82.0" height="875" transform="rotate(18 968.3 337.5)" fill="#bd6b20" opacity="0.18"/><rect x="1119.4" y="-80" width="93.1" height="875" transform="rotate(18 1119.4 337.5)" fill="#bd6b20" opacity="0.16"/><rect x="1308.9" y="-80" width="134.6" height="875" transform="rotate(18 1308.9 337.5)" fill="#bd6b20" opacity="0.11"/><rect x="1481.0" y="-80" width="84.3" height="875" transform="rotate(18 1481.0 337.5)" fill="#bd6b20" opacity="0.17"/><rect x="1629.0" y="-80" width="99.5" height="875" transform="rotate(18 1629.0 337.5)" fill="#bd6b20" opacity="0.17"/><rect x="0" y="0" width="1200" height="675" fill="url(#glow)" opacity="0.6"/>
  <g opacity="0.85" transform="translate(1020, 495)">
        <rect x="-46" y="-60" width="92" height="115" fill="#bd6b20" opacity="0.18" rx="6"/>
        <path d="M -28 -36 L 28 -36 M -28 -12 L 28 -12 M -28 12 L 18 12 M -28 36 L 28 36" stroke="#9a5518" stroke-width="3" stroke-linecap="round"/>
      </g>
  <g transform="translate(80, 90)">
    <rect x="0" y="0" rx="20" ry="20" width="101" height="38" fill="#bd6b20" opacity="0.18" stroke="#bd6b20" stroke-width="1.5"/>
    <text x="50.5" y="25" font-family="ui-sans-serif, Inter, sans-serif" font-weight="700" font-size="14" letter-spacing="2.5" fill="#bd6b20" text-anchor="middle">ARTICLE</text>
  </g>
  <text x="80" y="465" font-family="ui-sans-serif, -apple-system, Segoe UI, Inter, sans-serif" font-weight="800" font-size="44" fill="#12100e" opacity="0.98"><tspan x="80" dy="0">Lessons from Ramayana: Ego</tspan><tspan x="80" dy="56">vs. Dialogue in Conflict</tspan><tspan x="80" dy="56">Resolution</tspan></text>
  <rect x="0" y="669" width="1200" height="6" fill="url(#gold)"/>
</svg>