<?xml version="1.0" encoding="UTF-8"?>
<svg xmlns="http://www.w3.org/2000/svg" viewBox="0 0 1200 675" width="1200" height="675" role="img" aria-label="What are the Features of the RBI Retail Direct Mobile App?">
  <defs>
    <linearGradient id="bg" x1="0%" y1="0%" x2="100%" y2="100%">
      <stop offset="0%" stop-color="#532d15"/>
      <stop offset="100%" stop-color="#bd6b20"/>
    </linearGradient>
    <linearGradient id="gold" x1="0%" y1="0%" x2="100%" y2="100%">
      <stop offset="0%" stop-color="#e09440"/>
      <stop offset="100%" stop-color="#fdf6ee"/>
    </linearGradient>
    <radialGradient id="glow" cx="50%" cy="50%" r="50%">
      <stop offset="0%" stop-color="#e09440" stop-opacity="0.45"/>
      <stop offset="100%" stop-color="#e09440" stop-opacity="0"/>
    </radialGradient>
  </defs>
  <rect width="1200" height="675" fill="url(#bg)"/>
  <rect x="-643.9" y="-80" width="133.4" height="875" transform="rotate(18 -643.9 337.5)" fill="#e09440" opacity="0.11"/><rect x="-491.5" y="-80" width="72.9" height="875" transform="rotate(18 -491.5 337.5)" fill="#e09440" opacity="0.19"/><rect x="-353.6" y="-80" width="95.0" height="875" transform="rotate(18 -353.6 337.5)" fill="#e09440" opacity="0.17"/><rect x="-111.5" y="-80" width="114.0" height="875" transform="rotate(18 -111.5 337.5)" fill="#e09440" opacity="0.09"/><rect x="5.2" y="-80" width="71.7" height="875" transform="rotate(18 5.2 337.5)" fill="#e09440" opacity="0.11"/><rect x="184.3" y="-80" width="94.3" height="875" transform="rotate(18 184.3 337.5)" fill="#e09440" opacity="0.06"/><rect x="412.6" y="-80" width="73.8" height="875" transform="rotate(18 412.6 337.5)" fill="#e09440" opacity="0.14"/><rect x="567.8" y="-80" width="66.9" height="875" transform="rotate(18 567.8 337.5)" fill="#e09440" opacity="0.19"/><rect x="729.2" y="-80" width="96.9" height="875" transform="rotate(18 729.2 337.5)" fill="#e09440" opacity="0.15"/><rect x="960.8" y="-80" width="75.6" height="875" transform="rotate(18 960.8 337.5)" fill="#e09440" opacity="0.09"/><rect x="1116.0" y="-80" width="62.1" height="875" transform="rotate(18 1116.0 337.5)" fill="#e09440" opacity="0.18"/><rect x="1333.3" y="-80" width="82.0" height="875" transform="rotate(18 1333.3 337.5)" fill="#e09440" opacity="0.05"/><rect x="1484.2" y="-80" width="98.5" height="875" transform="rotate(18 1484.2 337.5)" fill="#e09440" opacity="0.11"/><rect x="1675.1" y="-80" width="62.7" height="875" transform="rotate(18 1675.1 337.5)" fill="#e09440" opacity="0.12"/><rect x="0" y="0" width="1200" height="675" fill="url(#glow)" opacity="0.6"/>
  <g opacity="0.85" transform="translate(1020, 495)">
        <rect x="-46" y="-60" width="92" height="115" fill="#e09440" opacity="0.18" rx="6"/>
        <path d="M -28 -36 L 28 -36 M -28 -12 L 28 -12 M -28 12 L 18 12 M -28 36 L 28 36" stroke="#fdf6ee" stroke-width="3" stroke-linecap="round"/>
      </g>
  <g transform="translate(80, 90)">
    <rect x="0" y="0" rx="20" ry="20" width="101" height="38" fill="#e09440" opacity="0.18" stroke="#e09440" stroke-width="1.5"/>
    <text x="50.5" y="25" font-family="ui-sans-serif, Inter, sans-serif" font-weight="700" font-size="14" letter-spacing="2.5" fill="#e09440" text-anchor="middle">ARTICLE</text>
  </g>
  <text x="80" y="465" font-family="ui-sans-serif, -apple-system, Segoe UI, Inter, sans-serif" font-weight="800" font-size="44" fill="#faf8f5" opacity="0.98"><tspan x="80" dy="0">What are the Features of</tspan><tspan x="80" dy="56">the RBI Retail Direct</tspan><tspan x="80" dy="56">Mobile App?</tspan></text>
  <rect x="0" y="669" width="1200" height="6" fill="url(#gold)"/>
</svg>