<?xml version="1.0" encoding="UTF-8"?>
<svg xmlns="http://www.w3.org/2000/svg" viewBox="0 0 1200 675" width="1200" height="675" role="img" aria-label="What strategies should be followed for successful loan collection?">
  <defs>
    <linearGradient id="bg" x1="0%" y1="0%" x2="100%" y2="100%">
      <stop offset="0%" stop-color="#643516"/>
      <stop offset="100%" stop-color="#7d4315"/>
    </linearGradient>
    <linearGradient id="gold" x1="0%" y1="0%" x2="100%" y2="100%">
      <stop offset="0%" stop-color="#ecb478"/>
      <stop offset="100%" stop-color="#faebd6"/>
    </linearGradient>
    <radialGradient id="glow" cx="50%" cy="50%" r="50%">
      <stop offset="0%" stop-color="#ecb478" stop-opacity="0.45"/>
      <stop offset="100%" stop-color="#ecb478" stop-opacity="0"/>
    </radialGradient>
  </defs>
  <rect width="1200" height="675" fill="url(#bg)"/>
  <circle cx="840.0" cy="135.0" r="240" fill="url(#glow)" opacity="0.8"/><circle cx="71.2" cy="538.7" r="25.1" fill="#faebd6" opacity="0.32"/><rect x="919.5" y="453.1" width="44.0" height="44.0" rx="4" transform="rotate(272.3 941.5 475.1)" fill="#ecb478" opacity="0.10"/><circle cx="699.1" cy="183.3" r="15.0" fill="#faebd6" opacity="0.21"/><polygon points="887.4,525.2 902.7,555.8 872.2,555.8" fill="#f4d2ac" opacity="0.14"/><rect x="725.6" y="156.0" width="42.9" height="42.9" rx="4" transform="rotate(241.0 747.1 177.5)" fill="#ecb478" opacity="0.14"/><rect x="116.2" y="302.8" width="63.0" height="63.0" rx="4" transform="rotate(254.7 147.7 334.3)" fill="#ecb478" opacity="0.16"/><rect x="188.8" y="220.2" width="22.8" height="22.8" rx="4" transform="rotate(34.2 200.2 231.5)" fill="#ecb478" opacity="0.19"/><rect x="340.4" y="448.1" width="15.8" height="15.8" rx="4" transform="rotate(26.3 348.3 456.0)" fill="#ecb478" opacity="0.32"/><circle cx="561.4" cy="347.4" r="30.7" fill="#faebd6" opacity="0.32"/><rect x="490.1" y="462.7" width="27.8" height="27.8" rx="4" transform="rotate(103.4 504.1 476.7)" fill="#ecb478" opacity="0.15"/><polygon points="556.6,373.9 568.5,397.5 544.8,397.5" fill="#f4d2ac" opacity="0.16"/><circle cx="703.7" cy="7.1" r="7.6" fill="#faebd6" opacity="0.22"/><polygon points="998.7,365.6 1017.3,402.9 980.0,402.9" fill="#f4d2ac" opacity="0.31"/><circle cx="486.3" cy="432.7" r="31.0" fill="#faebd6" opacity="0.18"/><polygon points="508.5,485.4 519.9,508.1 497.2,508.1" fill="#f4d2ac" opacity="0.24"/><circle cx="1199.1" cy="467.8" r="23.8" fill="#faebd6" opacity="0.10"/><rect x="1013.1" y="-8.2" width="27.4" height="27.4" rx="4" transform="rotate(94.6 1026.8 5.5)" fill="#ecb478" opacity="0.34"/><rect x="957.1" y="540.2" width="41.9" height="41.9" rx="4" transform="rotate(169.2 978.1 561.2)" fill="#ecb478" opacity="0.20"/><circle cx="758.5" cy="233.7" r="8.2" fill="#faebd6" opacity="0.11"/><circle cx="825.8" cy="266.8" r="13.9" fill="#faebd6" opacity="0.15"/><rect x="750.4" y="474.3" width="58.5" height="58.5" rx="4" transform="rotate(356.0 779.6 503.6)" fill="#ecb478" opacity="0.13"/><polygon points="399.8,14.2 419.5,53.7 380.1,53.7" fill="#f4d2ac" opacity="0.17"/>
  <g opacity="0.85" transform="translate(1020, 495)">
        <rect x="-46" y="-60" width="92" height="115" fill="#ecb478" opacity="0.18" rx="6"/>
        <path d="M -28 -36 L 28 -36 M -28 -12 L 28 -12 M -28 12 L 18 12 M -28 36 L 28 36" stroke="#faebd6" stroke-width="3" stroke-linecap="round"/>
      </g>
  <g transform="translate(80, 90)">
    <rect x="0" y="0" rx="20" ry="20" width="101" height="38" fill="#ecb478" opacity="0.18" stroke="#ecb478" stroke-width="1.5"/>
    <text x="50.5" y="25" font-family="ui-sans-serif, Inter, sans-serif" font-weight="700" font-size="14" letter-spacing="2.5" fill="#ecb478" text-anchor="middle">ARTICLE</text>
  </g>
  <text x="80" y="465" font-family="ui-sans-serif, -apple-system, Segoe UI, Inter, sans-serif" font-weight="800" font-size="44" fill="#faf8f5" opacity="0.98"><tspan x="80" dy="0">What strategies should be</tspan><tspan x="80" dy="56">followed for successful</tspan><tspan x="80" dy="56">loan collection?</tspan></text>
  <rect x="0" y="669" width="1200" height="6" fill="url(#gold)"/>
</svg>