<?xml version="1.0" encoding="UTF-8"?>
<svg xmlns="http://www.w3.org/2000/svg" viewBox="0 0 1200 675" width="1200" height="675" role="img" aria-label="RBI's 2023-24 Upper Layer NBFC List Revealed: Major Players in Focus">
  <defs>
    <linearGradient id="bg" x1="0%" y1="0%" x2="100%" y2="100%">
      <stop offset="0%" stop-color="#faf8f5"/>
      <stop offset="100%" stop-color="#f4efe8"/>
    </linearGradient>
    <linearGradient id="gold" x1="0%" y1="0%" x2="100%" y2="100%">
      <stop offset="0%" stop-color="#bd6b20"/>
      <stop offset="100%" stop-color="#9a5518"/>
    </linearGradient>
    <radialGradient id="glow" cx="50%" cy="50%" r="50%">
      <stop offset="0%" stop-color="#bd6b20" stop-opacity="0.45"/>
      <stop offset="100%" stop-color="#bd6b20" stop-opacity="0"/>
    </radialGradient>
  </defs>
  <rect width="1200" height="675" fill="url(#bg)"/>
  <circle cx="840.0" cy="135.0" r="240" fill="url(#glow)" opacity="0.8"/><circle cx="317.3" cy="196.8" r="7.7" fill="#9a5518" opacity="0.29"/><rect x="9.9" y="522.7" width="53.9" height="53.9" rx="4" transform="rotate(43.8 36.9 549.6)" fill="#bd6b20" opacity="0.16"/><rect x="1168.1" y="426.4" width="24.5" height="24.5" rx="4" transform="rotate(228.3 1180.4 438.6)" fill="#bd6b20" opacity="0.23"/><circle cx="427.2" cy="423.3" r="9.5" fill="#9a5518" opacity="0.11"/><polygon points="576.0,474.7 603.4,529.4 548.6,529.4" fill="#ecb478" opacity="0.30"/><circle cx="256.0" cy="270.5" r="24.3" fill="#9a5518" opacity="0.11"/><polygon points="938.3,451.8 953.6,482.4 923.1,482.4" fill="#ecb478" opacity="0.28"/><circle cx="258.4" cy="176.9" r="16.9" fill="#9a5518" opacity="0.12"/><circle cx="971.3" cy="246.6" r="9.0" fill="#9a5518" opacity="0.26"/><circle cx="729.6" cy="164.5" r="22.3" fill="#9a5518" opacity="0.33"/><circle cx="1140.5" cy="86.2" r="15.4" fill="#9a5518" opacity="0.16"/><polygon points="775.3,264.6 788.5,291.0 762.1,291.0" fill="#ecb478" opacity="0.34"/><polygon points="259.9,47.8 287.4,102.9 232.3,102.9" fill="#ecb478" opacity="0.32"/><polygon points="504.1,405.6 521.9,441.3 486.2,441.3" fill="#ecb478" opacity="0.26"/><rect x="1064.7" y="211.8" width="26.5" height="26.5" rx="4" transform="rotate(212.6 1078.0 225.0)" fill="#bd6b20" opacity="0.18"/><rect x="51.6" y="540.2" width="46.7" height="46.7" rx="4" transform="rotate(305.6 75.0 563.5)" fill="#bd6b20" opacity="0.30"/><circle cx="632.9" cy="486.1" r="28.7" fill="#9a5518" opacity="0.13"/><rect x="736.0" y="31.3" width="19.1" height="19.1" rx="4" transform="rotate(168.8 745.6 40.8)" fill="#bd6b20" opacity="0.28"/><rect x="922.5" y="348.0" width="30.8" height="30.8" rx="4" transform="rotate(63.6 937.9 363.4)" fill="#bd6b20" opacity="0.15"/><rect x="878.2" y="465.1" width="41.9" height="41.9" rx="4" transform="rotate(130.0 899.2 486.1)" fill="#bd6b20" opacity="0.16"/><circle cx="437.0" cy="522.7" r="20.8" fill="#9a5518" opacity="0.17"/><rect x="1056.5" y="238.4" width="36.4" height="36.4" rx="4" transform="rotate(294.6 1074.7 256.6)" fill="#bd6b20" opacity="0.27"/>
  <g opacity="0.85" transform="translate(1020, 495)">
        <rect x="-46" y="-60" width="92" height="115" fill="#bd6b20" opacity="0.18" rx="6"/>
        <path d="M -28 -36 L 28 -36 M -28 -12 L 28 -12 M -28 12 L 18 12 M -28 36 L 28 36" stroke="#9a5518" stroke-width="3" stroke-linecap="round"/>
      </g>
  <g transform="translate(80, 90)">
    <rect x="0" y="0" rx="20" ry="20" width="101" height="38" fill="#bd6b20" opacity="0.18" stroke="#bd6b20" stroke-width="1.5"/>
    <text x="50.5" y="25" font-family="ui-sans-serif, Inter, sans-serif" font-weight="700" font-size="14" letter-spacing="2.5" fill="#bd6b20" text-anchor="middle">ARTICLE</text>
  </g>
  <text x="80" y="465" font-family="ui-sans-serif, -apple-system, Segoe UI, Inter, sans-serif" font-weight="800" font-size="44" fill="#12100e" opacity="0.98"><tspan x="80" dy="0">RBI's 2023-24 Upper Layer</tspan><tspan x="80" dy="56">NBFC List Revealed: Major</tspan><tspan x="80" dy="56">Players in Focus</tspan></text>
  <rect x="0" y="669" width="1200" height="6" fill="url(#gold)"/>
</svg>