<?xml version="1.0" encoding="UTF-8"?>
<svg xmlns="http://www.w3.org/2000/svg" viewBox="0 0 1200 675" width="1200" height="675" role="img" aria-label="How Does Renewable Energy Contribute to Economic Development?">
  <defs>
    <linearGradient id="bg" x1="0%" y1="0%" x2="100%" y2="100%">
      <stop offset="0%" stop-color="#532d15"/>
      <stop offset="100%" stop-color="#bd6b20"/>
    </linearGradient>
    <linearGradient id="gold" x1="0%" y1="0%" x2="100%" y2="100%">
      <stop offset="0%" stop-color="#e09440"/>
      <stop offset="100%" stop-color="#fdf6ee"/>
    </linearGradient>
    <radialGradient id="glow" cx="50%" cy="50%" r="50%">
      <stop offset="0%" stop-color="#e09440" stop-opacity="0.45"/>
      <stop offset="100%" stop-color="#e09440" stop-opacity="0"/>
    </radialGradient>
  </defs>
  <rect width="1200" height="675" fill="url(#bg)"/>
  <polygon points="-50,324.2 -20,318.0 10,310.9 40,303.1 70,294.9 100,286.4 130,277.9 160,269.4 190,261.2 220,253.4 250,246.3 280,240.0 310,234.7 340,230.4 370,227.3 400,225.4 430,224.8 460,225.4 490,227.4 520,230.6 550,234.9 580,240.3 610,246.6 640,253.7 670,261.5 700,269.7 730,278.2 760,286.8 790,295.3 820,303.5 850,311.2 880,318.2 910,324.5 940,329.8 970,334.0 1000,337.1 1030,338.9 1060,339.4 1090,338.7 1120,336.7 1150,333.4 1180,329.0 1210,323.6 1240,317.2 1250,725 -50,725" fill="#e09440" opacity="0.08"/><polygon points="-50,397.9 -20,388.6 10,378.6 40,368.1 70,357.3 100,346.5 130,335.8 160,325.6 190,316.1 220,307.5 250,300.0 280,293.7 310,288.8 340,285.4 370,283.6 400,283.4 430,284.9 460,287.9 490,292.4 520,298.4 550,305.7 580,314.1 610,323.4 640,333.4 670,344.0 700,354.8 730,365.6 760,376.2 790,386.4 820,395.9 850,404.4 880,411.9 910,418.1 940,422.9 970,426.2 1000,427.9 1030,428.0 1060,426.5 1090,423.4 1120,418.7 1150,412.7 1180,405.4 1210,396.9 1240,387.6 1250,725 -50,725" fill="#e09440" opacity="0.13"/><polygon points="-50,455.3 -20,451.9 10,447.9 40,443.4 70,438.4 100,433.2 130,427.7 160,422.1 190,416.6 220,411.3 250,406.2 280,401.6 310,397.5 340,394.0 370,391.1 400,389.0 430,387.7 460,387.2 490,387.6 520,388.7 550,390.7 580,393.4 610,396.8 640,400.9 670,405.4 700,410.4 730,415.7 760,421.2 790,426.8 820,432.3 850,437.6 880,442.6 910,447.2 940,451.3 970,454.8 1000,457.6 1030,459.7 1060,460.9 1090,461.4 1120,461.0 1150,459.8 1180,457.7 1210,455.0 1240,451.5 1250,725 -50,725" fill="#e09440" opacity="0.18"/><polygon points="-50,518.8 -20,522.2 10,524.5 40,525.8 70,525.9 100,524.9 130,522.7 160,519.5 190,515.2 220,510.1 250,504.2 280,497.6 310,490.5 340,483.1 370,475.5 400,467.9 430,460.4 460,453.3 490,446.6 520,440.6 550,435.4 580,431.0 610,427.7 640,425.4 670,424.2 700,424.2 730,425.3 760,427.5 790,430.8 820,435.0 850,440.2 880,446.2 910,452.8 940,459.9 970,467.3 1000,474.9 1030,482.6 1060,490.0 1090,497.1 1120,503.7 1150,509.7 1180,514.9 1210,519.2 1240,522.5 1250,725 -50,725" fill="#e09440" opacity="0.23"/><circle cx="300.0" cy="189.0" r="160" fill="url(#glow)"/>
  <g opacity="0.85" transform="translate(1020, 495)">
        <circle r="68" fill="none" stroke="#e09440" stroke-width="2" opacity="0.35"/>
        <path d="M -38 12 L 38 12 M -32 -8 L 32 -8 M -45 -28 L 45 -28" stroke="#fdf6ee" stroke-width="3" stroke-linecap="round"/>
        <rect x="-50" y="-44" width="100" height="80" fill="none" stroke="#e09440" stroke-width="2"/>
      </g>
  <g transform="translate(80, 90)">
    <rect x="0" y="0" rx="20" ry="20" width="112" height="38" fill="#e09440" opacity="0.18" stroke="#e09440" stroke-width="1.5"/>
    <text x="56" y="25" font-family="ui-sans-serif, Inter, sans-serif" font-weight="700" font-size="14" letter-spacing="2.5" fill="#e09440" text-anchor="middle">NEWSROOM</text>
  </g>
  <text x="80" y="465" font-family="ui-sans-serif, -apple-system, Segoe UI, Inter, sans-serif" font-weight="800" font-size="44" fill="#faf8f5" opacity="0.98"><tspan x="80" dy="0">How Does Renewable Energy</tspan><tspan x="80" dy="56">Contribute to Economic</tspan><tspan x="80" dy="56">Development?</tspan></text>
  <rect x="0" y="669" width="1200" height="6" fill="url(#gold)"/>
</svg>