<?xml version="1.0" encoding="UTF-8"?>
<svg xmlns="http://www.w3.org/2000/svg" viewBox="0 0 1200 675" width="1200" height="675" role="img" aria-label="Dispute Resolution Centre | Debt Recovery through Arbitration | Employee Mediation">
  <defs>
    <linearGradient id="bg" x1="0%" y1="0%" x2="100%" y2="100%">
      <stop offset="0%" stop-color="#0c0a09"/>
      <stop offset="100%" stop-color="#291813"/>
    </linearGradient>
    <linearGradient id="gold" x1="0%" y1="0%" x2="100%" y2="100%">
      <stop offset="0%" stop-color="#d4862a"/>
      <stop offset="100%" stop-color="#bd6b20"/>
    </linearGradient>
    <radialGradient id="glow" cx="50%" cy="50%" r="50%">
      <stop offset="0%" stop-color="#d4862a" stop-opacity="0.45"/>
      <stop offset="100%" stop-color="#d4862a" stop-opacity="0"/>
    </radialGradient>
  </defs>
  <rect width="1200" height="675" fill="url(#bg)"/>
  <polygon points="-50,278.3 -20,269.2 10,260.5 40,252.3 70,244.9 100,238.3 130,232.9 160,228.6 190,225.6 220,223.9 250,223.6 280,224.7 310,227.2 340,230.9 370,235.9 400,242.1 430,249.1 460,257.0 490,265.6 520,274.5 550,283.8 580,293.0 610,302.1 640,310.8 670,319.0 700,326.4 730,332.9 760,338.3 790,342.5 820,345.4 850,347.0 880,347.2 910,346.0 940,343.5 970,339.6 1000,334.6 1030,328.4 1060,321.3 1090,313.3 1120,304.8 1150,295.8 1180,286.5 1210,277.3 1240,268.2 1250,725 -50,725" fill="#d4862a" opacity="0.08"/><polygon points="-50,368.8 -20,360.5 10,352.3 40,344.4 70,337.0 100,330.2 130,324.2 160,319.0 190,314.9 220,312.0 250,310.2 280,309.6 310,310.3 340,312.2 370,315.3 400,319.4 430,324.7 460,330.8 490,337.6 520,345.1 550,353.0 580,361.2 610,369.5 640,377.6 670,385.5 700,392.9 730,399.7 760,405.7 790,410.7 820,414.8 850,417.7 880,419.4 910,419.9 940,419.1 970,417.2 1000,414.0 1030,409.8 1060,404.5 1090,398.4 1120,391.5 1150,384.0 1180,376.0 1210,367.8 1240,359.6 1250,725 -50,725" fill="#d4862a" opacity="0.13"/><polygon points="-50,395.5 -20,384.6 10,374.3 40,364.7 70,356.0 100,348.6 130,342.5 160,337.8 190,334.8 220,333.4 250,333.6 280,335.6 310,339.1 340,344.3 370,350.8 400,358.7 430,367.6 460,377.5 490,388.1 520,399.1 550,410.3 580,421.4 610,432.3 640,442.6 670,452.2 700,460.8 730,468.1 760,474.2 790,478.7 820,481.7 850,483.0 880,482.7 910,480.6 940,477.0 970,471.7 1000,465.1 1030,457.2 1060,448.2 1090,438.3 1120,427.7 1150,416.7 1180,405.4 1210,394.3 1240,383.4 1250,725 -50,725" fill="#d4862a" opacity="0.18"/><polygon points="-50,473.5 -20,460.6 10,448.4 40,437.2 70,427.1 100,418.4 130,411.4 160,406.1 190,402.6 220,401.2 250,401.7 280,404.2 310,408.6 340,414.9 370,422.8 400,432.3 430,443.0 460,454.8 490,467.4 520,480.5 550,493.7 580,507.0 610,519.8 640,531.9 670,543.1 700,553.1 730,561.7 760,568.7 790,573.9 820,577.2 850,578.5 880,577.9 910,575.3 940,570.8 970,564.4 1000,556.4 1030,546.9 1060,536.1 1090,524.2 1120,511.6 1150,498.5 1180,485.2 1210,472.0 1240,459.2 1250,725 -50,725" fill="#d4862a" opacity="0.23"/><circle cx="300.0" cy="189.0" r="160" fill="url(#glow)"/>
  <g opacity="0.85" transform="translate(1020, 495)">
        <polygon points="0,-50 43,25 -43,25" fill="none" stroke="#d4862a" stroke-width="2"/>
        <polygon points="0,-30 26,15 -26,15" fill="#bd6b20" opacity="0.4"/>
      </g>
  <g transform="translate(80, 90)">
    <rect x="0" y="0" rx="20" ry="20" width="145" height="38" fill="#d4862a" opacity="0.18" stroke="#d4862a" stroke-width="1.5"/>
    <text x="72.5" y="25" font-family="ui-sans-serif, Inter, sans-serif" font-weight="700" font-size="14" letter-spacing="2.5" fill="#d4862a" text-anchor="middle">INFORMATION</text>
  </g>
  <text x="80" y="465" font-family="ui-sans-serif, -apple-system, Segoe UI, Inter, sans-serif" font-weight="800" font-size="44" fill="#faf8f5" opacity="0.98"><tspan x="80" dy="0">Dispute Resolution Centre</tspan><tspan x="80" dy="56">| Debt Recovery through</tspan><tspan x="80" dy="56">Arbitration | Employee</tspan></text>
  <rect x="0" y="669" width="1200" height="6" fill="url(#gold)"/>
</svg>