<?xml version="1.0" encoding="UTF-8"?>
<svg xmlns="http://www.w3.org/2000/svg" viewBox="0 0 1200 675" width="1200" height="675" role="img" aria-label="Resolve Legal Disputes Fast with PDR COURT Platform">
  <defs>
    <linearGradient id="bg" x1="0%" y1="0%" x2="100%" y2="100%">
      <stop offset="0%" stop-color="#532d15"/>
      <stop offset="100%" stop-color="#bd6b20"/>
    </linearGradient>
    <linearGradient id="gold" x1="0%" y1="0%" x2="100%" y2="100%">
      <stop offset="0%" stop-color="#e09440"/>
      <stop offset="100%" stop-color="#fdf6ee"/>
    </linearGradient>
    <radialGradient id="glow" cx="50%" cy="50%" r="50%">
      <stop offset="0%" stop-color="#e09440" stop-opacity="0.45"/>
      <stop offset="100%" stop-color="#e09440" stop-opacity="0"/>
    </radialGradient>
  </defs>
  <rect width="1200" height="675" fill="url(#bg)"/>
  <circle cx="33.0" cy="29.5" r="3.42" fill="#e09440" opacity="0.16"/><circle cx="67.7" cy="32.2" r="1.81" fill="#e09440" opacity="0.30"/><circle cx="102.5" cy="27.7" r="2.18" fill="#e09440" opacity="0.21"/><circle cx="141.0" cy="27.3" r="3.23" fill="#e09440" opacity="0.19"/><circle cx="174.1" cy="32.3" r="1.65" fill="#e09440" opacity="0.29"/><circle cx="209.4" cy="32.4" r="1.71" fill="#e09440" opacity="0.23"/><circle cx="248.3" cy="28.1" r="2.16" fill="#e09440" opacity="0.17"/><circle cx="282.3" cy="31.5" r="2.88" fill="#e09440" opacity="0.28"/><circle cx="317.1" cy="29.9" r="3.86" fill="#e09440" opacity="0.30"/><circle cx="354.5" cy="27.6" r="3.66" fill="#e09440" opacity="0.15"/><circle cx="388.6" cy="27.3" r="1.81" fill="#e09440" opacity="0.22"/><circle cx="428.8" cy="32.9" r="1.85" fill="#e09440" opacity="0.28"/><circle cx="462.3" cy="31.0" r="3.76" fill="#e09440" opacity="0.28"/><circle cx="500.1" cy="31.9" r="3.35" fill="#e09440" opacity="0.21"/><circle cx="535.5" cy="31.1" r="3.94" fill="#e09440" opacity="0.33"/><circle cx="567.7" cy="29.0" r="2.22" fill="#e09440" opacity="0.27"/><circle cx="605.1" cy="28.0" r="3.91" fill="#e09440" opacity="0.31"/><circle cx="644.4" cy="31.6" r="2.88" fill="#e09440" opacity="0.17"/><circle cx="677.0" cy="27.7" r="2.56" fill="#e09440" opacity="0.24"/><circle cx="714.3" cy="27.6" r="3.20" fill="#e09440" opacity="0.27"/><circle cx="749.4" cy="29.1" r="2.84" fill="#e09440" opacity="0.28"/><circle cx="783.9" cy="28.3" r="1.79" fill="#e09440" opacity="0.17"/><circle cx="822.1" cy="28.1" r="3.70" fill="#e09440" opacity="0.35"/><circle cx="855.1" cy="31.3" r="2.82" fill="#e09440" opacity="0.17"/><circle cx="893.9" cy="28.1" r="2.13" fill="#e09440" opacity="0.23"/><circle cx="932.9" cy="31.9" r="3.13" fill="#e09440" opacity="0.33"/><circle cx="964.2" cy="29.3" r="2.81" fill="#e09440" opacity="0.20"/><circle cx="1001.5" cy="32.5" r="3.85" fill="#e09440" opacity="0.20"/><circle cx="1040.3" cy="31.3" r="2.11" fill="#e09440" opacity="0.22"/><circle cx="1071.2" cy="28.7" r="2.05" fill="#e09440" opacity="0.31"/><circle cx="1109.3" cy="29.7" r="3.97" fill="#e09440" opacity="0.26"/><circle cx="1144.4" cy="30.2" r="2.61" fill="#e09440" opacity="0.35"/><circle cx="1182.3" cy="28.5" r="3.37" fill="#e09440" opacity="0.29"/><circle cx="27.8" cy="67.8" r="2.58" fill="#e09440" opacity="0.19"/><circle cx="67.9" cy="67.2" r="3.19" fill="#e09440" opacity="0.23"/><circle cx="103.1" cy="63.4" r="3.83" fill="#e09440" opacity="0.27"/><circle cx="136.4" cy="63.4" r="3.93" fill="#e09440" opacity="0.30"/><circle cx="171.4" cy="68.6" r="3.88" fill="#e09440" opacity="0.27"/><circle cx="207.3" cy="63.2" r="2.97" fill="#e09440" opacity="0.16"/><circle cx="243.5" cy="64.8" r="2.66" fill="#e09440" opacity="0.26"/><circle cx="283.8" cy="66.6" r="3.01" fill="#e09440" opacity="0.30"/><circle cx="320.8" cy="67.7" r="3.20" fill="#e09440" opacity="0.18"/><circle cx="352.1" cy="64.1" r="3.66" fill="#e09440" opacity="0.25"/><circle cx="392.6" cy="67.9" r="3.14" fill="#e09440" opacity="0.24"/><circle cx="426.4" cy="68.4" r="4.00" fill="#e09440" opacity="0.30"/><circle cx="459.6" cy="63.9" r="3.57" fill="#e09440" opacity="0.26"/><circle cx="501.0" cy="67.8" r="2.80" fill="#e09440" opacity="0.23"/><circle cx="532.2" cy="64.0" r="2.46" fill="#e09440" opacity="0.32"/><circle cx="567.9" cy="67.1" r="2.69" fill="#e09440" opacity="0.34"/><circle cx="604.4" cy="65.8" r="3.31" fill="#e09440" opacity="0.21"/><circle cx="640.6" cy="65.4" r="1.79" fill="#e09440" opacity="0.23"/><circle cx="680.2" cy="68.5" r="1.73" fill="#e09440" opacity="0.24"/><circle cx="712.2" cy="66.1" r="2.41" fill="#e09440" opacity="0.16"/><circle cx="751.0" cy="64.1" r="1.79" fill="#e09440" opacity="0.19"/><circle cx="784.8" cy="68.0" r="1.61" fill="#e09440" opacity="0.27"/><circle cx="823.5" cy="63.3" r="3.42" fill="#e09440" opacity="0.20"/><circle cx="856.8" cy="63.3" r="1.85" fill="#e09440" opacity="0.35"/><circle cx="892.5" cy="65.1" r="1.68" fill="#e09440" opacity="0.18"/><circle cx="930.8" cy="63.1" r="3.52" fill="#e09440" opacity="0.20"/><circle cx="964.0" cy="68.7" r="1.94" fill="#e09440" opacity="0.28"/><circle cx="1003.8" cy="68.2" r="3.30" fill="#e09440" opacity="0.35"/><circle cx="1040.0" cy="65.1" r="2.75" fill="#e09440" opacity="0.30"/><circle cx="1071.1" cy="68.0" r="2.80" fill="#e09440" opacity="0.17"/><circle cx="1110.5" cy="64.0" r="3.43" fill="#e09440" opacity="0.16"/><circle cx="1146.1" cy="67.8" r="3.01" fill="#e09440" opacity="0.28"/><circle cx="1183.6" cy="65.0" r="2.23" fill="#e09440" opacity="0.29"/><circle cx="29.9" cy="103.4" r="2.81" fill="#e09440" opacity="0.27"/><circle cx="67.6" cy="103.6" r="1.81" fill="#e09440" opacity="0.16"/><circle cx="103.6" cy="101.9" r="3.28" fill="#e09440" opacity="0.19"/><circle cx="139.1" cy="100.0" r="3.32" fill="#e09440" opacity="0.31"/><circle cx="175.5" cy="99.8" r="2.11" fill="#e09440" opacity="0.23"/><circle cx="209.6" cy="102.8" r="1.84" fill="#e09440" opacity="0.24"/><circle cx="246.4" cy="102.5" r="2.47" fill="#e09440" opacity="0.16"/><circle cx="281.8" cy="103.6" r="3.95" fill="#e09440" opacity="0.36"/><circle cx="320.2" cy="101.2" r="3.41" fill="#e09440" opacity="0.20"/><circle cx="354.2" cy="103.1" r="2.39" fill="#e09440" opacity="0.22"/><circle cx="388.4" cy="102.4" r="2.78" fill="#e09440" opacity="0.20"/><circle cx="426.0" cy="101.5" r="1.76" fill="#e09440" opacity="0.33"/><circle cx="459.9" cy="104.2" r="2.02" fill="#e09440" opacity="0.22"/><circle cx="498.8" cy="100.9" r="2.07" fill="#e09440" opacity="0.34"/><circle cx="534.5" cy="100.4" r="3.21" fill="#e09440" opacity="0.32"/><circle cx="569.9" cy="103.5" r="1.64" fill="#e09440" opacity="0.18"/><circle cx="605.3" cy="100.7" r="3.22" fill="#e09440" opacity="0.35"/><circle cx="640.3" cy="101.8" r="2.91" fill="#e09440" opacity="0.34"/><circle cx="675.9" cy="101.9" r="2.52" fill="#e09440" opacity="0.19"/><circle cx="715.5" cy="100.3" r="2.01" fill="#e09440" opacity="0.24"/><circle cx="748.3" cy="102.1" r="2.68" fill="#e09440" opacity="0.16"/><circle cx="783.1" cy="100.6" r="1.69" fill="#e09440" opacity="0.26"/><circle cx="820.3" cy="104.7" r="2.94" fill="#e09440" opacity="0.25"/><circle cx="856.0" cy="103.8" r="2.50" fill="#e09440" opacity="0.20"/><circle cx="894.8" cy="101.3" r="2.79" fill="#e09440" opacity="0.19"/><circle cx="930.7" cy="104.8" r="1.94" fill="#e09440" opacity="0.36"/><circle cx="963.6" cy="104.1" r="3.73" fill="#e09440" opacity="0.26"/><circle cx="1002.7" cy="101.5" r="1.86" fill="#e09440" opacity="0.24"/><circle cx="1035.2" cy="100.8" r="3.35" fill="#e09440" opacity="0.27"/><circle cx="1071.3" cy="102.0" r="1.94" fill="#e09440" opacity="0.35"/><circle cx="1108.0" cy="102.8" r="2.79" fill="#e09440" opacity="0.31"/><circle cx="1144.8" cy="102.5" r="3.62" fill="#e09440" opacity="0.20"/><circle cx="1184.2" cy="103.2" r="3.28" fill="#e09440" opacity="0.32"/><circle cx="30.0" cy="136.1" r="3.48" fill="#e09440" opacity="0.20"/><circle cx="63.1" cy="138.8" r="3.43" fill="#e09440" opacity="0.15"/><circle cx="104.0" cy="136.1" r="3.07" fill="#e09440" opacity="0.35"/><circle cx="138.6" cy="135.9" r="3.61" fill="#e09440" opacity="0.24"/><circle cx="172.4" cy="139.4" r="2.01" fill="#e09440" opacity="0.16"/><circle cx="211.0" cy="139.2" r="3.42" fill="#e09440" opacity="0.35"/><circle cx="248.6" cy="139.0" r="3.42" fill="#e09440" opacity="0.30"/><circle cx="284.0" cy="140.8" r="2.32" fill="#e09440" opacity="0.31"/><circle cx="319.6" cy="135.4" r="3.87" fill="#e09440" opacity="0.18"/><circle cx="353.6" cy="137.9" r="1.87" fill="#e09440" opacity="0.24"/><circle cx="390.0" cy="135.4" r="3.14" fill="#e09440" opacity="0.32"/><circle cx="426.8" cy="139.5" r="1.96" fill="#e09440" opacity="0.16"/><circle cx="463.0" cy="138.5" r="3.10" fill="#e09440" opacity="0.28"/><circle cx="496.1" cy="138.0" r="3.86" fill="#e09440" opacity="0.22"/><circle cx="532.8" cy="138.0" r="2.84" fill="#e09440" opacity="0.26"/><circle cx="570.0" cy="136.3" r="3.63" fill="#e09440" opacity="0.16"/><circle cx="604.7" cy="136.1" r="1.75" fill="#e09440" opacity="0.17"/><circle cx="644.7" cy="136.7" r="3.96" fill="#e09440" opacity="0.19"/><circle cx="676.8" cy="138.2" r="2.82" fill="#e09440" opacity="0.25"/><circle cx="713.0" cy="135.6" r="1.89" fill="#e09440" opacity="0.30"/><circle cx="752.7" cy="139.0" r="3.22" fill="#e09440" opacity="0.17"/><circle cx="783.6" cy="135.7" r="1.86" fill="#e09440" opacity="0.28"/><circle cx="824.4" cy="137.4" r="2.16" fill="#e09440" opacity="0.35"/><circle cx="858.5" cy="139.9" r="3.37" fill="#e09440" opacity="0.23"/><circle cx="895.7" cy="135.0" r="1.96" fill="#e09440" opacity="0.22"/><circle cx="931.3" cy="138.3" r="1.63" fill="#e09440" opacity="0.21"/><circle cx="963.4" cy="137.5" r="3.27" fill="#e09440" opacity="0.18"/><circle cx="1001.5" cy="138.4" r="1.86" fill="#e09440" opacity="0.20"/><circle cx="1038.0" cy="135.5" r="3.76" fill="#e09440" opacity="0.24"/><circle cx="1076.9" cy="137.1" r="2.01" fill="#e09440" opacity="0.31"/><circle cx="1107.8" cy="136.4" r="3.94" fill="#e09440" opacity="0.32"/><circle cx="1148.0" cy="136.4" r="3.61" fill="#e09440" opacity="0.28"/><circle cx="1181.8" cy="136.7" r="1.90" fill="#e09440" opacity="0.16"/><circle cx="31.9" cy="173.4" r="3.75" fill="#e09440" opacity="0.18"/><circle cx="67.5" cy="175.6" r="2.39" fill="#e09440" opacity="0.33"/><circle cx="101.4" cy="175.6" r="2.78" fill="#e09440" opacity="0.20"/><circle cx="138.2" cy="174.9" r="3.27" fill="#e09440" opacity="0.33"/><circle cx="173.0" cy="171.4" r="2.49" fill="#e09440" opacity="0.26"/><circle cx="210.5" cy="175.7" r="1.75" fill="#e09440" opacity="0.24"/><circle cx="243.5" cy="174.3" r="2.65" fill="#e09440" opacity="0.27"/><circle cx="283.4" cy="177.0" r="1.68" fill="#e09440" opacity="0.18"/><circle cx="317.6" cy="174.7" r="1.78" fill="#e09440" opacity="0.16"/><circle cx="353.6" cy="173.3" r="2.53" fill="#e09440" opacity="0.25"/><circle cx="387.8" cy="175.6" r="3.19" fill="#e09440" opacity="0.35"/><circle cx="423.7" cy="173.1" r="2.35" fill="#e09440" opacity="0.27"/><circle cx="463.6" cy="171.6" r="3.51" fill="#e09440" opacity="0.16"/><circle cx="495.1" cy="175.4" r="1.85" fill="#e09440" opacity="0.15"/><circle cx="531.1" cy="173.4" r="1.71" fill="#e09440" opacity="0.17"/><circle cx="571.0" cy="173.2" r="2.07" fill="#e09440" opacity="0.16"/><circle cx="607.6" cy="175.5" r="1.93" fill="#e09440" opacity="0.30"/><circle cx="639.1" cy="174.5" r="2.36" fill="#e09440" opacity="0.22"/><circle cx="677.6" cy="175.8" r="2.87" fill="#e09440" opacity="0.25"/><circle cx="717.0" cy="173.4" r="1.62" fill="#e09440" opacity="0.17"/><circle cx="749.7" cy="171.4" r="2.04" fill="#e09440" opacity="0.26"/><circle cx="783.1" cy="173.0" r="2.06" fill="#e09440" opacity="0.19"/><circle cx="822.7" cy="177.0" r="1.99" fill="#e09440" opacity="0.34"/><circle cx="856.5" cy="172.0" r="3.96" fill="#e09440" opacity="0.22"/><circle cx="895.1" cy="173.2" r="2.19" fill="#e09440" opacity="0.28"/><circle cx="932.7" cy="172.9" r="1.89" fill="#e09440" opacity="0.22"/><circle cx="966.5" cy="176.1" r="2.24" fill="#e09440" opacity="0.30"/><circle cx="1004.1" cy="173.6" r="3.02" fill="#e09440" opacity="0.21"/><circle cx="1037.9" cy="172.6" r="3.49" fill="#e09440" opacity="0.17"/><circle cx="1073.6" cy="172.3" r="3.88" fill="#e09440" opacity="0.32"/><circle cx="1108.9" cy="173.6" r="2.43" fill="#e09440" opacity="0.19"/><circle cx="1143.9" cy="173.2" r="2.80" fill="#e09440" opacity="0.19"/><circle cx="1181.9" cy="172.2" r="3.21" fill="#e09440" opacity="0.35"/><circle cx="27.9" cy="209.7" r="2.12" fill="#e09440" opacity="0.29"/><circle cx="65.4" cy="212.1" r="3.58" fill="#e09440" opacity="0.33"/><circle cx="102.8" cy="212.1" r="3.87" fill="#e09440" opacity="0.30"/><circle cx="138.7" cy="208.4" r="3.56" fill="#e09440" opacity="0.21"/><circle cx="176.4" cy="209.2" r="2.14" fill="#e09440" opacity="0.28"/><circle cx="210.5" cy="209.0" r="1.81" fill="#e09440" opacity="0.15"/><circle cx="246.4" cy="210.4" r="3.92" fill="#e09440" opacity="0.22"/><circle cx="284.4" cy="211.7" r="3.37" fill="#e09440" opacity="0.28"/><circle cx="315.5" cy="211.1" r="3.78" fill="#e09440" opacity="0.31"/><circle cx="355.7" cy="209.0" r="2.09" fill="#e09440" opacity="0.17"/><circle cx="390.8" cy="208.7" r="2.71" fill="#e09440" opacity="0.31"/><circle cx="428.4" cy="209.1" r="2.37" fill="#e09440" opacity="0.18"/><circle cx="459.4" cy="207.3" r="2.24" fill="#e09440" opacity="0.31"/><circle cx="499.4" cy="213.0" r="3.47" fill="#e09440" opacity="0.27"/><circle cx="532.8" cy="210.6" r="3.07" fill="#e09440" opacity="0.16"/><circle cx="568.7" cy="210.8" r="3.09" fill="#e09440" opacity="0.23"/><circle cx="607.9" cy="208.0" r="2.19" fill="#e09440" opacity="0.25"/><circle cx="641.6" cy="212.0" r="2.62" fill="#e09440" opacity="0.33"/><circle cx="677.9" cy="212.9" r="2.15" fill="#e09440" opacity="0.26"/><circle cx="712.0" cy="211.3" r="2.61" fill="#e09440" opacity="0.28"/><circle cx="752.8" cy="210.5" r="3.30" fill="#e09440" opacity="0.36"/><circle cx="784.5" cy="212.1" r="3.31" fill="#e09440" opacity="0.21"/><circle cx="824.9" cy="209.3" r="2.08" fill="#e09440" opacity="0.27"/><circle cx="855.0" cy="208.5" r="3.07" fill="#e09440" opacity="0.33"/><circle cx="891.8" cy="212.1" r="3.24" fill="#e09440" opacity="0.23"/><circle cx="931.5" cy="208.8" r="2.09" fill="#e09440" opacity="0.24"/><circle cx="963.6" cy="210.3" r="2.20" fill="#e09440" opacity="0.20"/><circle cx="1000.4" cy="212.8" r="2.17" fill="#e09440" opacity="0.24"/><circle cx="1040.3" cy="211.0" r="2.87" fill="#e09440" opacity="0.15"/><circle cx="1074.8" cy="208.1" r="3.89" fill="#e09440" opacity="0.28"/><circle cx="1111.6" cy="208.0" r="3.77" fill="#e09440" opacity="0.18"/><circle cx="1145.8" cy="209.5" r="2.81" fill="#e09440" opacity="0.35"/><circle cx="1183.5" cy="211.6" r="3.75" fill="#e09440" opacity="0.29"/><circle cx="27.2" cy="248.1" r="2.50" fill="#e09440" opacity="0.24"/><circle cx="65.8" cy="248.6" r="2.69" fill="#e09440" opacity="0.23"/><circle cx="99.6" cy="244.7" r="1.92" fill="#e09440" opacity="0.24"/><circle cx="137.5" cy="243.3" r="3.46" fill="#e09440" opacity="0.16"/><circle cx="173.3" cy="248.8" r="3.21" fill="#e09440" opacity="0.34"/><circle cx="211.5" cy="244.6" r="3.40" fill="#e09440" opacity="0.31"/><circle cx="248.2" cy="246.1" r="3.78" fill="#e09440" opacity="0.25"/><circle cx="279.5" cy="246.1" r="2.12" fill="#e09440" opacity="0.25"/><circle cx="317.4" cy="246.1" r="1.84" fill="#e09440" opacity="0.32"/><circle cx="355.8" cy="243.6" r="3.96" fill="#e09440" opacity="0.31"/><circle cx="390.3" cy="245.7" r="1.87" fill="#e09440" opacity="0.33"/><circle cx="424.4" cy="245.2" r="3.65" fill="#e09440" opacity="0.25"/><circle cx="461.3" cy="243.2" r="3.76" fill="#e09440" opacity="0.20"/><circle cx="500.6" cy="248.9" r="2.58" fill="#e09440" opacity="0.22"/><circle cx="534.4" cy="244.2" r="3.69" fill="#e09440" opacity="0.27"/><circle cx="569.5" cy="245.6" r="3.58" fill="#e09440" opacity="0.30"/><circle cx="607.3" cy="245.3" r="1.92" fill="#e09440" opacity="0.26"/><circle cx="639.5" cy="244.6" r="2.39" fill="#e09440" opacity="0.35"/><circle cx="676.9" cy="247.5" r="3.05" fill="#e09440" opacity="0.19"/><circle cx="715.7" cy="245.6" r="2.53" fill="#e09440" opacity="0.24"/><circle cx="747.0" cy="247.6" r="2.40" fill="#e09440" opacity="0.27"/><circle cx="785.4" cy="247.1" r="2.37" fill="#e09440" opacity="0.33"/><circle cx="819.4" cy="247.7" r="1.97" fill="#e09440" opacity="0.32"/><circle cx="855.2" cy="244.7" r="2.82" fill="#e09440" opacity="0.27"/><circle cx="891.1" cy="243.6" r="3.50" fill="#e09440" opacity="0.34"/><circle cx="928.0" cy="246.7" r="2.17" fill="#e09440" opacity="0.19"/><circle cx="963.9" cy="245.2" r="1.79" fill="#e09440" opacity="0.29"/><circle cx="1003.7" cy="247.5" r="3.17" fill="#e09440" opacity="0.26"/><circle cx="1040.2" cy="248.6" r="3.69" fill="#e09440" opacity="0.29"/><circle cx="1073.4" cy="244.1" r="2.64" fill="#e09440" opacity="0.33"/><circle cx="1109.1" cy="248.1" r="1.72" fill="#e09440" opacity="0.17"/><circle cx="1148.5" cy="244.9" r="2.87" fill="#e09440" opacity="0.22"/><circle cx="1183.3" cy="245.3" r="2.45" fill="#e09440" opacity="0.29"/><circle cx="32.5" cy="283.0" r="1.94" fill="#e09440" opacity="0.29"/><circle cx="63.5" cy="281.5" r="1.82" fill="#e09440" opacity="0.32"/><circle cx="99.6" cy="281.3" r="3.12" fill="#e09440" opacity="0.30"/><circle cx="135.9" cy="279.6" r="3.14" fill="#e09440" opacity="0.23"/><circle cx="175.6" cy="279.2" r="3.49" fill="#e09440" opacity="0.30"/><circle cx="210.3" cy="279.7" r="2.40" fill="#e09440" opacity="0.33"/><circle cx="243.9" cy="279.1" r="2.49" fill="#e09440" opacity="0.27"/><circle cx="282.9" cy="284.9" r="2.67" fill="#e09440" opacity="0.28"/><circle cx="319.8" cy="279.9" r="3.87" fill="#e09440" opacity="0.29"/><circle cx="354.1" cy="284.2" r="2.19" fill="#e09440" opacity="0.24"/><circle cx="387.7" cy="283.5" r="1.89" fill="#e09440" opacity="0.16"/><circle cx="426.1" cy="283.6" r="3.95" fill="#e09440" opacity="0.28"/><circle cx="461.2" cy="284.6" r="2.40" fill="#e09440" opacity="0.27"/><circle cx="496.3" cy="282.4" r="3.86" fill="#e09440" opacity="0.30"/><circle cx="531.7" cy="284.7" r="3.83" fill="#e09440" opacity="0.34"/><circle cx="571.4" cy="279.8" r="2.69" fill="#e09440" opacity="0.19"/><circle cx="608.8" cy="283.6" r="1.82" fill="#e09440" opacity="0.29"/><circle cx="642.7" cy="280.4" r="2.88" fill="#e09440" opacity="0.31"/><circle cx="680.3" cy="283.2" r="1.63" fill="#e09440" opacity="0.34"/><circle cx="711.2" cy="283.2" r="3.26" fill="#e09440" opacity="0.27"/><circle cx="752.6" cy="284.7" r="2.11" fill="#e09440" opacity="0.17"/><circle cx="788.9" cy="279.8" r="1.98" fill="#e09440" opacity="0.17"/><circle cx="821.1" cy="284.6" r="2.51" fill="#e09440" opacity="0.23"/><circle cx="860.3" cy="283.0" r="2.74" fill="#e09440" opacity="0.31"/><circle cx="893.2" cy="281.2" r="3.18" fill="#e09440" opacity="0.16"/><circle cx="930.6" cy="281.2" r="2.73" fill="#e09440" opacity="0.24"/><circle cx="967.1" cy="280.2" r="2.64" fill="#e09440" opacity="0.21"/><circle cx="1002.5" cy="284.9" r="1.64" fill="#e09440" opacity="0.28"/><circle cx="1035.4" cy="280.4" r="3.54" fill="#e09440" opacity="0.18"/><circle cx="1071.1" cy="281.9" r="2.00" fill="#e09440" opacity="0.20"/><circle cx="1109.0" cy="281.9" r="3.92" fill="#e09440" opacity="0.31"/><circle cx="1147.4" cy="281.2" r="2.32" fill="#e09440" opacity="0.24"/><circle cx="1182.2" cy="283.6" r="3.15" fill="#e09440" opacity="0.22"/><circle cx="27.9" cy="319.4" r="3.70" fill="#e09440" opacity="0.29"/><circle cx="64.7" cy="317.9" r="3.41" fill="#e09440" opacity="0.22"/><circle cx="104.1" cy="318.2" r="2.83" fill="#e09440" opacity="0.32"/><circle cx="139.6" cy="318.6" r="3.02" fill="#e09440" opacity="0.29"/><circle cx="176.0" cy="316.1" r="3.84" fill="#e09440" opacity="0.24"/><circle cx="210.8" cy="318.4" r="3.56" fill="#e09440" opacity="0.23"/><circle cx="245.1" cy="320.3" r="1.90" fill="#e09440" opacity="0.22"/><circle cx="283.6" cy="316.5" r="2.50" fill="#e09440" opacity="0.33"/><circle cx="316.9" cy="316.0" r="2.19" fill="#e09440" opacity="0.35"/><circle cx="353.7" cy="319.8" r="3.67" fill="#e09440" opacity="0.16"/><circle cx="389.0" cy="317.4" r="3.13" fill="#e09440" opacity="0.21"/><circle cx="428.3" cy="317.7" r="3.47" fill="#e09440" opacity="0.24"/><circle cx="459.2" cy="317.8" r="2.27" fill="#e09440" opacity="0.29"/><circle cx="500.6" cy="317.1" r="3.89" fill="#e09440" opacity="0.27"/><circle cx="531.9" cy="317.0" r="3.68" fill="#e09440" opacity="0.36"/><circle cx="570.0" cy="320.4" r="1.76" fill="#e09440" opacity="0.24"/><circle cx="604.5" cy="319.5" r="3.58" fill="#e09440" opacity="0.17"/><circle cx="641.1" cy="318.5" r="1.90" fill="#e09440" opacity="0.25"/><circle cx="679.9" cy="320.7" r="1.84" fill="#e09440" opacity="0.31"/><circle cx="713.4" cy="316.9" r="2.54" fill="#e09440" opacity="0.32"/><circle cx="750.6" cy="317.7" r="4.00" fill="#e09440" opacity="0.29"/><circle cx="787.4" cy="315.8" r="2.18" fill="#e09440" opacity="0.29"/><circle cx="823.9" cy="319.3" r="2.80" fill="#e09440" opacity="0.27"/><circle cx="857.5" cy="320.5" r="1.86" fill="#e09440" opacity="0.24"/><circle cx="895.5" cy="318.7" r="3.86" fill="#e09440" opacity="0.22"/><circle cx="927.5" cy="320.1" r="2.92" fill="#e09440" opacity="0.17"/><circle cx="964.8" cy="319.0" r="1.89" fill="#e09440" opacity="0.36"/><circle cx="1000.7" cy="316.7" r="2.50" fill="#e09440" opacity="0.16"/><circle cx="1038.2" cy="319.5" r="3.72" fill="#e09440" opacity="0.20"/><circle cx="1073.3" cy="315.1" r="3.84" fill="#e09440" opacity="0.20"/><circle cx="1109.6" cy="316.7" r="2.54" fill="#e09440" opacity="0.33"/><circle cx="1145.6" cy="320.5" r="3.92" fill="#e09440" opacity="0.20"/><circle cx="1184.0" cy="316.1" r="1.67" fill="#e09440" opacity="0.33"/><circle cx="28.2" cy="355.6" r="2.22" fill="#e09440" opacity="0.33"/><circle cx="65.3" cy="352.3" r="3.80" fill="#e09440" opacity="0.26"/><circle cx="100.0" cy="354.9" r="2.20" fill="#e09440" opacity="0.27"/><circle cx="138.8" cy="352.2" r="2.76" fill="#e09440" opacity="0.21"/><circle cx="176.6" cy="356.8" r="2.51" fill="#e09440" opacity="0.24"/><circle cx="209.7" cy="353.6" r="3.56" fill="#e09440" opacity="0.33"/><circle cx="245.1" cy="354.5" r="2.13" fill="#e09440" opacity="0.25"/><circle cx="284.4" cy="356.2" r="1.64" fill="#e09440" opacity="0.35"/><circle cx="315.8" cy="352.8" r="2.73" fill="#e09440" opacity="0.26"/><circle cx="357.0" cy="351.2" r="2.85" fill="#e09440" opacity="0.21"/><circle cx="392.7" cy="354.9" r="1.81" fill="#e09440" opacity="0.25"/><circle cx="423.6" cy="353.3" r="3.75" fill="#e09440" opacity="0.23"/><circle cx="462.7" cy="352.6" r="3.85" fill="#e09440" opacity="0.23"/><circle cx="500.5" cy="353.8" r="2.21" fill="#e09440" opacity="0.21"/><circle cx="532.5" cy="355.6" r="2.44" fill="#e09440" opacity="0.28"/><circle cx="571.2" cy="355.2" r="2.76" fill="#e09440" opacity="0.19"/><circle cx="607.7" cy="352.3" r="1.88" fill="#e09440" opacity="0.22"/><circle cx="643.0" cy="356.0" r="2.07" fill="#e09440" opacity="0.18"/><circle cx="679.0" cy="352.4" r="2.50" fill="#e09440" opacity="0.21"/><circle cx="713.1" cy="352.3" r="2.30" fill="#e09440" opacity="0.21"/><circle cx="750.8" cy="352.6" r="2.48" fill="#e09440" opacity="0.20"/><circle cx="788.6" cy="355.5" r="3.83" fill="#e09440" opacity="0.24"/><circle cx="822.5" cy="352.3" r="1.75" fill="#e09440" opacity="0.21"/><circle cx="860.1" cy="353.9" r="2.19" fill="#e09440" opacity="0.22"/><circle cx="893.8" cy="354.1" r="3.26" fill="#e09440" opacity="0.35"/><circle cx="927.5" cy="351.7" r="3.97" fill="#e09440" opacity="0.15"/><circle cx="965.6" cy="352.1" r="3.21" fill="#e09440" opacity="0.17"/><circle cx="1002.0" cy="356.4" r="1.98" fill="#e09440" opacity="0.36"/><circle cx="1040.3" cy="353.1" r="3.19" fill="#e09440" opacity="0.27"/><circle cx="1073.4" cy="356.7" r="3.56" fill="#e09440" opacity="0.24"/><circle cx="1107.7" cy="354.2" r="1.70" fill="#e09440" opacity="0.25"/><circle cx="1147.2" cy="352.2" r="1.76" fill="#e09440" opacity="0.25"/><circle cx="1183.4" cy="352.7" r="2.54" fill="#e09440" opacity="0.28"/><circle cx="29.9" cy="392.8" r="2.93" fill="#e09440" opacity="0.33"/><circle cx="66.3" cy="389.4" r="3.30" fill="#e09440" opacity="0.22"/><circle cx="99.4" cy="388.2" r="2.31" fill="#e09440" opacity="0.16"/><circle cx="138.0" cy="391.7" r="2.22" fill="#e09440" opacity="0.33"/><circle cx="174.2" cy="390.8" r="2.99" fill="#e09440" opacity="0.26"/><circle cx="212.4" cy="391.0" r="3.39" fill="#e09440" opacity="0.31"/><circle cx="246.6" cy="393.0" r="3.81" fill="#e09440" opacity="0.34"/><circle cx="283.9" cy="387.1" r="3.65" fill="#e09440" opacity="0.21"/><circle cx="319.3" cy="387.3" r="2.18" fill="#e09440" opacity="0.19"/><circle cx="356.1" cy="391.9" r="2.20" fill="#e09440" opacity="0.27"/><circle cx="388.2" cy="392.7" r="3.46" fill="#e09440" opacity="0.24"/><circle cx="424.9" cy="390.0" r="2.41" fill="#e09440" opacity="0.21"/><circle cx="461.5" cy="388.5" r="1.70" fill="#e09440" opacity="0.23"/><circle cx="496.1" cy="388.0" r="3.09" fill="#e09440" opacity="0.23"/><circle cx="536.4" cy="388.8" r="3.06" fill="#e09440" opacity="0.22"/><circle cx="567.4" cy="391.8" r="3.21" fill="#e09440" opacity="0.24"/><circle cx="604.2" cy="389.7" r="2.91" fill="#e09440" opacity="0.30"/><circle cx="643.9" cy="388.6" r="2.82" fill="#e09440" opacity="0.19"/><circle cx="679.5" cy="389.0" r="2.18" fill="#e09440" opacity="0.34"/><circle cx="714.3" cy="387.7" r="3.96" fill="#e09440" opacity="0.33"/><circle cx="747.7" cy="387.2" r="2.56" fill="#e09440" opacity="0.16"/><circle cx="787.4" cy="390.8" r="2.17" fill="#e09440" opacity="0.17"/><circle cx="824.1" cy="388.0" r="2.36" fill="#e09440" opacity="0.16"/><circle cx="855.0" cy="391.3" r="3.97" fill="#e09440" opacity="0.19"/><circle cx="891.2" cy="387.3" r="2.69" fill="#e09440" opacity="0.27"/><circle cx="928.9" cy="390.9" r="3.60" fill="#e09440" opacity="0.24"/><circle cx="965.6" cy="387.9" r="1.70" fill="#e09440" opacity="0.25"/><circle cx="1001.2" cy="392.8" r="2.18" fill="#e09440" opacity="0.24"/><circle cx="1037.6" cy="390.3" r="3.00" fill="#e09440" opacity="0.31"/><circle cx="1073.3" cy="390.3" r="1.86" fill="#e09440" opacity="0.25"/><circle cx="1107.3" cy="387.5" r="3.49" fill="#e09440" opacity="0.26"/><circle cx="1144.4" cy="391.5" r="2.57" fill="#e09440" opacity="0.16"/><circle cx="1183.5" cy="387.9" r="3.99" fill="#e09440" opacity="0.21"/><circle cx="31.2" cy="428.4" r="1.83" fill="#e09440" opacity="0.15"/><circle cx="67.1" cy="428.6" r="3.41" fill="#e09440" opacity="0.31"/><circle cx="99.7" cy="427.3" r="1.86" fill="#e09440" opacity="0.23"/><circle cx="139.9" cy="428.9" r="2.64" fill="#e09440" opacity="0.29"/><circle cx="176.6" cy="423.3" r="2.14" fill="#e09440" opacity="0.34"/><circle cx="212.3" cy="424.5" r="1.70" fill="#e09440" opacity="0.16"/><circle cx="247.3" cy="428.0" r="3.05" fill="#e09440" opacity="0.25"/><circle cx="279.6" cy="426.8" r="2.99" fill="#e09440" opacity="0.29"/><circle cx="318.0" cy="424.9" r="3.79" fill="#e09440" opacity="0.21"/><circle cx="355.9" cy="427.3" r="1.63" fill="#e09440" opacity="0.34"/><circle cx="389.7" cy="427.9" r="2.22" fill="#e09440" opacity="0.21"/><circle cx="427.4" cy="423.1" r="2.58" fill="#e09440" opacity="0.17"/><circle cx="463.5" cy="425.0" r="3.21" fill="#e09440" opacity="0.24"/><circle cx="499.4" cy="427.3" r="3.45" fill="#e09440" opacity="0.18"/><circle cx="534.5" cy="424.2" r="2.33" fill="#e09440" opacity="0.30"/><circle cx="572.1" cy="425.0" r="1.83" fill="#e09440" opacity="0.32"/><circle cx="605.3" cy="425.3" r="1.74" fill="#e09440" opacity="0.22"/><circle cx="643.7" cy="424.6" r="2.90" fill="#e09440" opacity="0.15"/><circle cx="680.9" cy="424.8" r="1.88" fill="#e09440" opacity="0.27"/><circle cx="714.8" cy="423.7" r="2.93" fill="#e09440" opacity="0.25"/><circle cx="748.3" cy="426.8" r="1.89" fill="#e09440" opacity="0.30"/><circle cx="788.6" cy="427.8" r="2.16" fill="#e09440" opacity="0.25"/><circle cx="821.0" cy="427.5" r="3.42" fill="#e09440" opacity="0.25"/><circle cx="855.1" cy="426.4" r="2.19" fill="#e09440" opacity="0.35"/><circle cx="892.2" cy="425.5" r="3.38" fill="#e09440" opacity="0.29"/><circle cx="928.2" cy="429.0" r="3.31" fill="#e09440" opacity="0.34"/><circle cx="964.5" cy="423.4" r="3.43" fill="#e09440" opacity="0.30"/><circle cx="1003.3" cy="426.2" r="3.73" fill="#e09440" opacity="0.26"/><circle cx="1035.8" cy="424.2" r="2.53" fill="#e09440" opacity="0.24"/><circle cx="1073.7" cy="424.8" r="2.44" fill="#e09440" opacity="0.25"/><circle cx="1112.4" cy="428.0" r="2.39" fill="#e09440" opacity="0.22"/><circle cx="1148.8" cy="428.1" r="1.93" fill="#e09440" opacity="0.26"/><circle cx="1179.4" cy="425.0" r="2.73" fill="#e09440" opacity="0.24"/><circle cx="32.1" cy="460.2" r="2.80" fill="#e09440" opacity="0.25"/><circle cx="67.3" cy="463.9" r="1.87" fill="#e09440" opacity="0.31"/><circle cx="101.8" cy="465.0" r="3.52" fill="#e09440" opacity="0.30"/><circle cx="138.6" cy="463.8" r="1.71" fill="#e09440" opacity="0.26"/><circle cx="171.0" cy="461.4" r="2.47" fill="#e09440" opacity="0.19"/><circle cx="211.5" cy="464.2" r="2.35" fill="#e09440" opacity="0.30"/><circle cx="246.4" cy="463.4" r="3.71" fill="#e09440" opacity="0.32"/><circle cx="284.1" cy="459.7" r="2.94" fill="#e09440" opacity="0.15"/><circle cx="317.9" cy="459.9" r="3.05" fill="#e09440" opacity="0.19"/><circle cx="353.4" cy="460.9" r="2.07" fill="#e09440" opacity="0.16"/><circle cx="392.1" cy="460.7" r="3.65" fill="#e09440" opacity="0.23"/><circle cx="423.3" cy="463.6" r="1.66" fill="#e09440" opacity="0.35"/><circle cx="462.6" cy="460.7" r="2.10" fill="#e09440" opacity="0.19"/><circle cx="496.7" cy="460.8" r="1.67" fill="#e09440" opacity="0.26"/><circle cx="534.2" cy="462.5" r="3.09" fill="#e09440" opacity="0.22"/><circle cx="568.5" cy="461.4" r="2.06" fill="#e09440" opacity="0.16"/><circle cx="604.9" cy="462.7" r="1.70" fill="#e09440" opacity="0.27"/><circle cx="644.0" cy="460.7" r="1.99" fill="#e09440" opacity="0.31"/><circle cx="680.8" cy="462.7" r="3.27" fill="#e09440" opacity="0.26"/><circle cx="712.9" cy="461.8" r="3.49" fill="#e09440" opacity="0.29"/><circle cx="752.4" cy="463.2" r="2.25" fill="#e09440" opacity="0.34"/><circle cx="788.5" cy="461.6" r="3.14" fill="#e09440" opacity="0.32"/><circle cx="821.4" cy="460.7" r="2.30" fill="#e09440" opacity="0.30"/><circle cx="859.8" cy="459.5" r="3.48" fill="#e09440" opacity="0.22"/><circle cx="895.1" cy="464.4" r="2.59" fill="#e09440" opacity="0.31"/><circle cx="931.9" cy="464.8" r="3.35" fill="#e09440" opacity="0.19"/><circle cx="968.9" cy="460.0" r="3.35" fill="#e09440" opacity="0.35"/><circle cx="1004.7" cy="459.5" r="3.86" fill="#e09440" opacity="0.33"/><circle cx="1040.2" cy="462.9" r="2.56" fill="#e09440" opacity="0.27"/><circle cx="1074.8" cy="463.3" r="1.69" fill="#e09440" opacity="0.21"/><circle cx="1108.9" cy="460.6" r="3.39" fill="#e09440" opacity="0.25"/><circle cx="1146.9" cy="463.1" r="2.23" fill="#e09440" opacity="0.17"/><circle cx="1182.0" cy="459.6" r="2.30" fill="#e09440" opacity="0.36"/><circle cx="32.2" cy="500.3" r="2.53" fill="#e09440" opacity="0.24"/><circle cx="66.5" cy="496.5" r="2.20" fill="#e09440" opacity="0.16"/><circle cx="104.4" cy="499.7" r="3.29" fill="#e09440" opacity="0.34"/><circle cx="136.6" cy="496.0" r="3.59" fill="#e09440" opacity="0.33"/><circle cx="175.4" cy="495.2" r="2.96" fill="#e09440" opacity="0.26"/><circle cx="211.2" cy="496.0" r="2.84" fill="#e09440" opacity="0.26"/><circle cx="245.2" cy="499.9" r="2.13" fill="#e09440" opacity="0.22"/><circle cx="280.7" cy="497.1" r="3.05" fill="#e09440" opacity="0.27"/><circle cx="315.7" cy="498.4" r="3.01" fill="#e09440" opacity="0.26"/><circle cx="353.0" cy="495.5" r="3.36" fill="#e09440" opacity="0.36"/><circle cx="389.8" cy="498.7" r="2.37" fill="#e09440" opacity="0.35"/><circle cx="423.8" cy="500.7" r="3.94" fill="#e09440" opacity="0.28"/><circle cx="463.6" cy="495.2" r="1.79" fill="#e09440" opacity="0.27"/><circle cx="496.1" cy="496.5" r="3.30" fill="#e09440" opacity="0.35"/><circle cx="533.3" cy="496.4" r="2.82" fill="#e09440" opacity="0.16"/><circle cx="571.0" cy="496.7" r="2.12" fill="#e09440" opacity="0.20"/><circle cx="606.2" cy="500.8" r="2.38" fill="#e09440" opacity="0.32"/><circle cx="640.9" cy="497.3" r="1.72" fill="#e09440" opacity="0.29"/><circle cx="678.1" cy="495.3" r="1.86" fill="#e09440" opacity="0.28"/><circle cx="711.9" cy="497.0" r="1.84" fill="#e09440" opacity="0.32"/><circle cx="752.1" cy="496.9" r="3.77" fill="#e09440" opacity="0.30"/><circle cx="783.2" cy="499.8" r="3.14" fill="#e09440" opacity="0.18"/><circle cx="824.4" cy="497.9" r="3.92" fill="#e09440" opacity="0.33"/><circle cx="860.1" cy="496.2" r="2.69" fill="#e09440" opacity="0.31"/><circle cx="893.6" cy="500.4" r="2.82" fill="#e09440" opacity="0.22"/><circle cx="927.3" cy="495.4" r="3.33" fill="#e09440" opacity="0.29"/><circle cx="968.2" cy="497.4" r="2.76" fill="#e09440" opacity="0.32"/><circle cx="1003.9" cy="501.0" r="2.41" fill="#e09440" opacity="0.23"/><circle cx="1037.3" cy="497.2" r="2.07" fill="#e09440" opacity="0.28"/><circle cx="1074.1" cy="495.7" r="2.65" fill="#e09440" opacity="0.19"/><circle cx="1109.4" cy="495.3" r="3.13" fill="#e09440" opacity="0.17"/><circle cx="1147.5" cy="496.1" r="2.56" fill="#e09440" opacity="0.30"/><circle cx="1184.2" cy="495.8" r="1.79" fill="#e09440" opacity="0.35"/><circle cx="31.2" cy="534.4" r="3.18" fill="#e09440" opacity="0.31"/><circle cx="68.4" cy="532.9" r="1.82" fill="#e09440" opacity="0.30"/><circle cx="102.9" cy="534.9" r="2.41" fill="#e09440" opacity="0.36"/><circle cx="136.1" cy="534.0" r="2.06" fill="#e09440" opacity="0.16"/><circle cx="176.6" cy="532.4" r="2.87" fill="#e09440" opacity="0.34"/><circle cx="210.4" cy="531.4" r="3.32" fill="#e09440" opacity="0.21"/><circle cx="247.2" cy="535.6" r="3.18" fill="#e09440" opacity="0.33"/><circle cx="280.8" cy="533.6" r="3.52" fill="#e09440" opacity="0.28"/><circle cx="317.7" cy="534.5" r="2.93" fill="#e09440" opacity="0.31"/><circle cx="356.7" cy="533.2" r="3.36" fill="#e09440" opacity="0.15"/><circle cx="391.3" cy="533.4" r="2.80" fill="#e09440" opacity="0.32"/><circle cx="428.7" cy="532.3" r="2.57" fill="#e09440" opacity="0.28"/><circle cx="460.8" cy="533.4" r="2.14" fill="#e09440" opacity="0.29"/><circle cx="498.7" cy="531.9" r="3.25" fill="#e09440" opacity="0.24"/><circle cx="533.6" cy="536.4" r="3.15" fill="#e09440" opacity="0.16"/><circle cx="570.3" cy="532.5" r="2.26" fill="#e09440" opacity="0.29"/><circle cx="604.3" cy="533.2" r="3.76" fill="#e09440" opacity="0.17"/><circle cx="642.6" cy="532.1" r="2.63" fill="#e09440" opacity="0.29"/><circle cx="678.0" cy="533.3" r="2.94" fill="#e09440" opacity="0.26"/><circle cx="716.0" cy="535.5" r="3.11" fill="#e09440" opacity="0.25"/><circle cx="747.4" cy="534.2" r="3.93" fill="#e09440" opacity="0.24"/><circle cx="783.3" cy="535.9" r="2.44" fill="#e09440" opacity="0.26"/><circle cx="819.3" cy="531.2" r="1.95" fill="#e09440" opacity="0.22"/><circle cx="858.7" cy="533.7" r="1.88" fill="#e09440" opacity="0.34"/><circle cx="891.8" cy="536.1" r="2.77" fill="#e09440" opacity="0.22"/><circle cx="927.4" cy="535.8" r="2.33" fill="#e09440" opacity="0.17"/><circle cx="966.8" cy="535.6" r="3.71" fill="#e09440" opacity="0.23"/><circle cx="1003.6" cy="536.4" r="2.48" fill="#e09440" opacity="0.18"/><circle cx="1036.0" cy="532.7" r="2.08" fill="#e09440" opacity="0.18"/><circle cx="1074.2" cy="531.3" r="1.63" fill="#e09440" opacity="0.36"/><circle cx="1111.2" cy="532.0" r="3.44" fill="#e09440" opacity="0.22"/><circle cx="1147.1" cy="533.0" r="2.91" fill="#e09440" opacity="0.25"/><circle cx="1179.2" cy="535.7" r="2.26" fill="#e09440" opacity="0.30"/><circle cx="32.8" cy="567.6" r="3.13" fill="#e09440" opacity="0.32"/><circle cx="65.5" cy="572.2" r="2.59" fill="#e09440" opacity="0.31"/><circle cx="104.6" cy="569.9" r="2.37" fill="#e09440" opacity="0.35"/><circle cx="139.5" cy="569.0" r="2.21" fill="#e09440" opacity="0.33"/><circle cx="174.3" cy="567.0" r="2.81" fill="#e09440" opacity="0.20"/><circle cx="212.4" cy="571.7" r="2.54" fill="#e09440" opacity="0.32"/><circle cx="245.0" cy="570.9" r="1.91" fill="#e09440" opacity="0.25"/><circle cx="279.9" cy="569.4" r="3.77" fill="#e09440" opacity="0.20"/><circle cx="318.7" cy="569.7" r="2.57" fill="#e09440" opacity="0.19"/><circle cx="351.7" cy="570.9" r="1.86" fill="#e09440" opacity="0.16"/><circle cx="387.5" cy="571.9" r="3.96" fill="#e09440" opacity="0.31"/><circle cx="428.5" cy="572.4" r="2.83" fill="#e09440" opacity="0.34"/><circle cx="461.4" cy="570.1" r="1.82" fill="#e09440" opacity="0.17"/><circle cx="498.2" cy="572.9" r="2.58" fill="#e09440" opacity="0.19"/><circle cx="535.3" cy="568.4" r="2.04" fill="#e09440" opacity="0.24"/><circle cx="568.7" cy="572.9" r="2.69" fill="#e09440" opacity="0.31"/><circle cx="603.9" cy="568.3" r="2.56" fill="#e09440" opacity="0.20"/><circle cx="644.1" cy="571.9" r="1.82" fill="#e09440" opacity="0.31"/><circle cx="679.2" cy="572.6" r="2.56" fill="#e09440" opacity="0.28"/><circle cx="715.8" cy="571.8" r="2.13" fill="#e09440" opacity="0.20"/><circle cx="748.1" cy="568.5" r="3.71" fill="#e09440" opacity="0.35"/><circle cx="788.9" cy="572.9" r="3.47" fill="#e09440" opacity="0.28"/><circle cx="821.9" cy="568.9" r="3.57" fill="#e09440" opacity="0.20"/><circle cx="861.0" cy="569.7" r="2.90" fill="#e09440" opacity="0.23"/><circle cx="893.2" cy="568.3" r="3.60" fill="#e09440" opacity="0.31"/><circle cx="932.8" cy="567.3" r="3.47" fill="#e09440" opacity="0.22"/><circle cx="968.7" cy="572.5" r="2.60" fill="#e09440" opacity="0.15"/><circle cx="999.2" cy="571.9" r="3.20" fill="#e09440" opacity="0.19"/><circle cx="1040.9" cy="572.3" r="2.16" fill="#e09440" opacity="0.24"/><circle cx="1073.2" cy="568.4" r="1.89" fill="#e09440" opacity="0.32"/><circle cx="1109.2" cy="567.5" r="2.77" fill="#e09440" opacity="0.31"/><circle cx="1148.1" cy="568.5" r="3.58" fill="#e09440" opacity="0.18"/><circle cx="1183.6" cy="569.8" r="3.29" fill="#e09440" opacity="0.28"/><circle cx="32.6" cy="603.1" r="2.20" fill="#e09440" opacity="0.19"/><circle cx="64.6" cy="606.9" r="1.60" fill="#e09440" opacity="0.16"/><circle cx="100.2" cy="606.5" r="2.41" fill="#e09440" opacity="0.27"/><circle cx="138.8" cy="605.7" r="3.21" fill="#e09440" opacity="0.18"/><circle cx="172.3" cy="603.8" r="3.71" fill="#e09440" opacity="0.23"/><circle cx="208.0" cy="604.2" r="2.87" fill="#e09440" opacity="0.28"/><circle cx="245.9" cy="604.6" r="2.56" fill="#e09440" opacity="0.26"/><circle cx="279.1" cy="603.6" r="2.13" fill="#e09440" opacity="0.26"/><circle cx="320.7" cy="607.8" r="1.95" fill="#e09440" opacity="0.30"/><circle cx="355.5" cy="608.5" r="2.14" fill="#e09440" opacity="0.27"/><circle cx="387.2" cy="604.7" r="3.03" fill="#e09440" opacity="0.17"/><circle cx="423.6" cy="606.1" r="3.12" fill="#e09440" opacity="0.32"/><circle cx="462.3" cy="604.2" r="3.14" fill="#e09440" opacity="0.27"/><circle cx="498.9" cy="604.1" r="2.17" fill="#e09440" opacity="0.20"/><circle cx="535.5" cy="606.8" r="3.46" fill="#e09440" opacity="0.31"/><circle cx="568.1" cy="604.5" r="3.25" fill="#e09440" opacity="0.15"/><circle cx="608.5" cy="606.6" r="3.73" fill="#e09440" opacity="0.17"/><circle cx="643.3" cy="604.7" r="2.28" fill="#e09440" opacity="0.23"/><circle cx="677.9" cy="608.2" r="2.49" fill="#e09440" opacity="0.15"/><circle cx="716.8" cy="605.7" r="1.92" fill="#e09440" opacity="0.21"/><circle cx="750.3" cy="603.5" r="2.50" fill="#e09440" opacity="0.17"/><circle cx="783.6" cy="605.4" r="2.21" fill="#e09440" opacity="0.21"/><circle cx="823.6" cy="607.7" r="3.77" fill="#e09440" opacity="0.16"/><circle cx="857.9" cy="608.1" r="2.21" fill="#e09440" opacity="0.27"/><circle cx="895.7" cy="608.0" r="2.45" fill="#e09440" opacity="0.19"/><circle cx="927.5" cy="607.7" r="2.79" fill="#e09440" opacity="0.19"/><circle cx="963.9" cy="608.1" r="3.25" fill="#e09440" opacity="0.29"/><circle cx="1004.9" cy="608.5" r="2.46" fill="#e09440" opacity="0.24"/><circle cx="1040.9" cy="608.1" r="3.55" fill="#e09440" opacity="0.21"/><circle cx="1076.0" cy="604.5" r="1.90" fill="#e09440" opacity="0.23"/><circle cx="1107.3" cy="606.3" r="2.69" fill="#e09440" opacity="0.24"/><circle cx="1146.6" cy="608.9" r="3.07" fill="#e09440" opacity="0.34"/><circle cx="1183.1" cy="604.1" r="1.61" fill="#e09440" opacity="0.16"/><circle cx="29.8" cy="640.3" r="3.01" fill="#e09440" opacity="0.21"/><circle cx="63.5" cy="639.8" r="3.22" fill="#e09440" opacity="0.26"/><circle cx="101.7" cy="644.6" r="3.54" fill="#e09440" opacity="0.23"/><circle cx="139.0" cy="642.1" r="2.58" fill="#e09440" opacity="0.27"/><circle cx="177.0" cy="641.5" r="3.91" fill="#e09440" opacity="0.23"/><circle cx="209.6" cy="640.6" r="1.99" fill="#e09440" opacity="0.32"/><circle cx="245.0" cy="644.8" r="2.51" fill="#e09440" opacity="0.18"/><circle cx="280.3" cy="641.4" r="3.06" fill="#e09440" opacity="0.32"/><circle cx="317.9" cy="644.2" r="3.91" fill="#e09440" opacity="0.30"/><circle cx="351.5" cy="641.8" r="2.59" fill="#e09440" opacity="0.22"/><circle cx="392.2" cy="644.9" r="3.37" fill="#e09440" opacity="0.28"/><circle cx="423.7" cy="642.2" r="1.65" fill="#e09440" opacity="0.35"/><circle cx="463.9" cy="640.6" r="2.98" fill="#e09440" opacity="0.22"/><circle cx="497.5" cy="643.3" r="3.76" fill="#e09440" opacity="0.20"/><circle cx="533.6" cy="640.5" r="1.89" fill="#e09440" opacity="0.36"/><circle cx="570.9" cy="640.4" r="3.46" fill="#e09440" opacity="0.31"/><circle cx="607.6" cy="640.9" r="1.81" fill="#e09440" opacity="0.33"/><circle cx="643.7" cy="644.1" r="2.74" fill="#e09440" opacity="0.34"/><circle cx="676.6" cy="642.6" r="1.85" fill="#e09440" opacity="0.26"/><circle cx="711.4" cy="639.2" r="3.43" fill="#e09440" opacity="0.30"/><circle cx="751.2" cy="643.3" r="3.61" fill="#e09440" opacity="0.27"/><circle cx="786.5" cy="639.3" r="3.06" fill="#e09440" opacity="0.30"/><circle cx="824.7" cy="643.0" r="3.17" fill="#e09440" opacity="0.25"/><circle cx="855.1" cy="643.4" r="1.69" fill="#e09440" opacity="0.36"/><circle cx="891.4" cy="643.1" r="3.41" fill="#e09440" opacity="0.19"/><circle cx="929.7" cy="642.5" r="3.17" fill="#e09440" opacity="0.28"/><circle cx="968.0" cy="643.1" r="3.10" fill="#e09440" opacity="0.19"/><circle cx="1002.2" cy="639.2" r="1.76" fill="#e09440" opacity="0.34"/><circle cx="1037.5" cy="642.7" r="2.75" fill="#e09440" opacity="0.21"/><circle cx="1072.5" cy="639.7" r="2.38" fill="#e09440" opacity="0.31"/><circle cx="1111.8" cy="640.3" r="1.96" fill="#e09440" opacity="0.34"/><circle cx="1146.4" cy="644.9" r="3.52" fill="#e09440" opacity="0.33"/><circle cx="1181.0" cy="640.4" r="3.16" fill="#e09440" opacity="0.30"/><circle cx="272.4" cy="278.7" r="220" fill="url(#glow)" opacity="0.9"/>
  <g opacity="0.85" transform="translate(1020, 495)">
        <rect x="-46" y="-60" width="92" height="115" fill="#e09440" opacity="0.18" rx="6"/>
        <path d="M -28 -36 L 28 -36 M -28 -12 L 28 -12 M -28 12 L 18 12 M -28 36 L 28 36" stroke="#fdf6ee" stroke-width="3" stroke-linecap="round"/>
      </g>
  <g transform="translate(80, 90)">
    <rect x="0" y="0" rx="20" ry="20" width="101" height="38" fill="#e09440" opacity="0.18" stroke="#e09440" stroke-width="1.5"/>
    <text x="50.5" y="25" font-family="ui-sans-serif, Inter, sans-serif" font-weight="700" font-size="14" letter-spacing="2.5" fill="#e09440" text-anchor="middle">ARTICLE</text>
  </g>
  <text x="80" y="465" font-family="ui-sans-serif, -apple-system, Segoe UI, Inter, sans-serif" font-weight="800" font-size="44" fill="#faf8f5" opacity="0.98"><tspan x="80" dy="0">Resolve Legal Disputes</tspan><tspan x="80" dy="56">Fast with PDR COURT</tspan><tspan x="80" dy="56">Platform</tspan></text>
  <rect x="0" y="669" width="1200" height="6" fill="url(#gold)"/>
</svg>