<?xml version="1.0" encoding="UTF-8"?>
<svg xmlns="http://www.w3.org/2000/svg" viewBox="0 0 1200 675" width="1200" height="675" role="img" aria-label="How did Rabindranath Tagore's poems influence Indian literature?">
  <defs>
    <linearGradient id="bg" x1="0%" y1="0%" x2="100%" y2="100%">
      <stop offset="0%" stop-color="#532d15"/>
      <stop offset="100%" stop-color="#bd6b20"/>
    </linearGradient>
    <linearGradient id="gold" x1="0%" y1="0%" x2="100%" y2="100%">
      <stop offset="0%" stop-color="#e09440"/>
      <stop offset="100%" stop-color="#fdf6ee"/>
    </linearGradient>
    <radialGradient id="glow" cx="50%" cy="50%" r="50%">
      <stop offset="0%" stop-color="#e09440" stop-opacity="0.45"/>
      <stop offset="100%" stop-color="#e09440" stop-opacity="0"/>
    </radialGradient>
  </defs>
  <rect width="1200" height="675" fill="url(#bg)"/>
  <circle cx="247.0" cy="174.9" r="115" fill="none" stroke="#e09440" stroke-width="1.6" opacity="0.36"/><circle cx="247.0" cy="174.9" r="170" fill="none" stroke="#e09440" stroke-width="2.0" opacity="0.32"/><circle cx="247.0" cy="174.9" r="225" fill="none" stroke="#e09440" stroke-width="1.6" opacity="0.28"/><circle cx="247.0" cy="174.9" r="280" fill="none" stroke="#e09440" stroke-width="1.8" opacity="0.24"/><circle cx="247.0" cy="174.9" r="335" fill="none" stroke="#e09440" stroke-width="2.4" opacity="0.20"/><circle cx="247.0" cy="174.9" r="390" fill="none" stroke="#e09440" stroke-width="2.5" opacity="0.16"/><circle cx="247.0" cy="174.9" r="445" fill="none" stroke="#e09440" stroke-width="2.5" opacity="0.12"/><circle cx="247.0" cy="174.9" r="500" fill="none" stroke="#e09440" stroke-width="2.0" opacity="0.08"/><circle cx="247.0" cy="174.9" r="555" fill="none" stroke="#e09440" stroke-width="2.2" opacity="0.04"/><circle cx="247.0" cy="174.9" r="40" fill="url(#gold)" opacity="0.85"/>
  <g opacity="0.85" transform="translate(1020, 495)">
        <rect x="-46" y="-60" width="92" height="115" fill="#e09440" opacity="0.18" rx="6"/>
        <path d="M -28 -36 L 28 -36 M -28 -12 L 28 -12 M -28 12 L 18 12 M -28 36 L 28 36" stroke="#fdf6ee" stroke-width="3" stroke-linecap="round"/>
      </g>
  <g transform="translate(80, 90)">
    <rect x="0" y="0" rx="20" ry="20" width="101" height="38" fill="#e09440" opacity="0.18" stroke="#e09440" stroke-width="1.5"/>
    <text x="50.5" y="25" font-family="ui-sans-serif, Inter, sans-serif" font-weight="700" font-size="14" letter-spacing="2.5" fill="#e09440" text-anchor="middle">ARTICLE</text>
  </g>
  <text x="80" y="465" font-family="ui-sans-serif, -apple-system, Segoe UI, Inter, sans-serif" font-weight="800" font-size="44" fill="#faf8f5" opacity="0.98"><tspan x="80" dy="0">How did Rabindranath</tspan><tspan x="80" dy="56">Tagore's poems influence</tspan><tspan x="80" dy="56">Indian literature?</tspan></text>
  <rect x="0" y="669" width="1200" height="6" fill="url(#gold)"/>
</svg>