<?xml version="1.0" encoding="UTF-8"?>
<svg xmlns="http://www.w3.org/2000/svg" viewBox="0 0 1200 675" width="1200" height="675" role="img" aria-label="Retail Recovery through Split-Installment Resolution">
  <defs>
    <linearGradient id="bg" x1="0%" y1="0%" x2="100%" y2="100%">
      <stop offset="0%" stop-color="#0c0a09"/>
      <stop offset="100%" stop-color="#291813"/>
    </linearGradient>
    <linearGradient id="gold" x1="0%" y1="0%" x2="100%" y2="100%">
      <stop offset="0%" stop-color="#d4862a"/>
      <stop offset="100%" stop-color="#bd6b20"/>
    </linearGradient>
    <radialGradient id="glow" cx="50%" cy="50%" r="50%">
      <stop offset="0%" stop-color="#d4862a" stop-opacity="0.45"/>
      <stop offset="100%" stop-color="#d4862a" stop-opacity="0"/>
    </radialGradient>
  </defs>
  <rect width="1200" height="675" fill="url(#bg)"/>
  <polygon points="27.0,480.1 -79.5,390.7 9.9,284.3 116.3,373.7" fill="#bd6b20" opacity="0.11"/><polygon points="1195.0,341.8 956.2,215.0 1185.4,71.6" fill="#bd6b20" opacity="0.05"/><polygon points="132.7,409.7 166.1,523.4 68.3,590.4 -25.6,518.1 14.2,406.4" fill="#bd6b20" opacity="0.13"/><polygon points="310.4,336.7 400.2,377.5 359.4,467.3 269.6,426.4" fill="#bd6b20" opacity="0.19"/><polygon points="231.1,555.7 315.4,518.7 352.4,602.9 268.2,639.9" fill="#bd6b20" opacity="0.08"/><polygon points="198.2,501.8 220.4,320.0 400.2,284.9 489.1,445.1 364.3,579.1" fill="#bd6b20" opacity="0.08"/><polygon points="675.1,114.8 563.5,237.3 412.6,169.0 430.9,4.3 593.1,-29.2" fill="#bd6b20" opacity="0.15"/><polygon points="177.1,194.7 117.6,171.6 140.6,112.2 200.1,135.2" fill="#bd6b20" opacity="0.17"/><polygon points="105.0,330.8 229.0,475.1 130.1,637.6 -55.0,593.7 -70.5,404.1" fill="#bd6b20" opacity="0.19"/><polygon points="971.2,620.2 929.6,730.2 812.2,724.7 781.1,611.2 879.5,546.6" fill="#bd6b20" opacity="0.10"/><polygon points="914.7,556.3 831.2,647.1 740.3,563.6 823.8,472.7" fill="#bd6b20" opacity="0.11"/><polygon points="985.4,191.0 1158.9,184.8 1077.6,338.2" fill="#bd6b20" opacity="0.07"/><polygon points="783.1,123.2 816.3,240.4 698.3,210.6" fill="#bd6b20" opacity="0.11"/><polygon points="543.5,0.5 446.2,148.5 298.2,51.3 395.4,-96.8" fill="#bd6b20" opacity="0.13"/><circle cx="936.0" cy="202.5" r="180" fill="url(#glow)"/>
  <g opacity="0.85" transform="translate(1020, 495)">
        <circle r="60" fill="#d4862a" opacity="0.18"/>
        <path d="M -34 6 Q -10 -22 14 6 Q 34 24 14 26 L -22 26 Q -38 24 -34 6 Z" fill="none" stroke="#bd6b20" stroke-width="3" stroke-linejoin="round"/>
      </g>
  <g transform="translate(80, 90)">
    <rect x="0" y="0" rx="20" ry="20" width="134" height="38" fill="#d4862a" opacity="0.18" stroke="#d4862a" stroke-width="1.5"/>
    <text x="67" y="25" font-family="ui-sans-serif, Inter, sans-serif" font-weight="700" font-size="14" letter-spacing="2.5" fill="#d4862a" text-anchor="middle">CASE STUDY</text>
  </g>
  <text x="80" y="465" font-family="ui-sans-serif, -apple-system, Segoe UI, Inter, sans-serif" font-weight="800" font-size="44" fill="#faf8f5" opacity="0.98"><tspan x="80" dy="0">Retail Recovery through</tspan><tspan x="80" dy="56">Split-Installment</tspan><tspan x="80" dy="56">Resolution</tspan></text>
  <rect x="0" y="669" width="1200" height="6" fill="url(#gold)"/>
</svg>