<?xml version="1.0" encoding="UTF-8"?>
<svg xmlns="http://www.w3.org/2000/svg" viewBox="0 0 1200 675" width="1200" height="675" role="img" aria-label="SC Ruling on Arbitration Joinder &amp; Non-Signatories">
  <defs>
    <linearGradient id="bg" x1="0%" y1="0%" x2="100%" y2="100%">
      <stop offset="0%" stop-color="#0c0a09"/>
      <stop offset="100%" stop-color="#291813"/>
    </linearGradient>
    <linearGradient id="gold" x1="0%" y1="0%" x2="100%" y2="100%">
      <stop offset="0%" stop-color="#d4862a"/>
      <stop offset="100%" stop-color="#bd6b20"/>
    </linearGradient>
    <radialGradient id="glow" cx="50%" cy="50%" r="50%">
      <stop offset="0%" stop-color="#d4862a" stop-opacity="0.45"/>
      <stop offset="100%" stop-color="#d4862a" stop-opacity="0"/>
    </radialGradient>
  </defs>
  <rect width="1200" height="675" fill="url(#bg)"/>
  <polygon points="156.8,254.0 177.5,36.0 395.5,56.7 374.8,274.7" fill="#bd6b20" opacity="0.13"/><polygon points="1151.0,61.0 1102.3,177.0 986.3,128.3 1035.0,12.3" fill="#bd6b20" opacity="0.07"/><polygon points="762.7,228.2 762.6,356.0 651.9,292.0" fill="#bd6b20" opacity="0.10"/><polygon points="1084.7,339.8 1230.3,426.5 1192.8,591.7 1024.1,607.1 957.3,451.4" fill="#bd6b20" opacity="0.19"/><polygon points="750.8,550.0 683.1,575.0 658.0,507.4 725.7,482.3" fill="#bd6b20" opacity="0.15"/><polygon points="654.5,320.5 549.8,530.8 339.5,426.0 444.2,215.7" fill="#bd6b20" opacity="0.10"/><polygon points="374.8,563.5 454.8,586.6 457.5,669.9 379.1,698.1 328.0,632.4" fill="#bd6b20" opacity="0.10"/><polygon points="640.4,472.8 686.8,417.4 742.2,463.8 695.8,519.2" fill="#bd6b20" opacity="0.17"/><polygon points="821.8,23.9 798.9,194.2 628.5,171.3 651.5,1.0" fill="#bd6b20" opacity="0.15"/><polygon points="329.0,529.8 389.6,566.3 353.2,626.8 292.6,590.4" fill="#bd6b20" opacity="0.10"/><polygon points="843.3,606.3 690.2,681.5 615.0,528.4 768.2,453.2" fill="#bd6b20" opacity="0.17"/><polygon points="1052.3,294.9 942.5,353.2 884.2,243.5 994.0,185.2" fill="#bd6b20" opacity="0.11"/><polygon points="699.8,221.3 768.4,187.4 763.5,263.7" fill="#bd6b20" opacity="0.10"/><polygon points="819.7,525.4 679.1,624.9 663.2,453.4" fill="#bd6b20" opacity="0.16"/><circle cx="936.0" cy="202.5" r="180" fill="url(#glow)"/>
  <g opacity="0.85" transform="translate(1020, 495)">
        <circle r="68" fill="none" stroke="#d4862a" stroke-width="2" opacity="0.35"/>
        <path d="M -38 12 L 38 12 M -32 -8 L 32 -8 M -45 -28 L 45 -28" stroke="#bd6b20" stroke-width="3" stroke-linecap="round"/>
        <rect x="-50" y="-44" width="100" height="80" fill="none" stroke="#d4862a" stroke-width="2"/>
      </g>
  <g transform="translate(80, 90)">
    <rect x="0" y="0" rx="20" ry="20" width="112" height="38" fill="#d4862a" opacity="0.18" stroke="#d4862a" stroke-width="1.5"/>
    <text x="56" y="25" font-family="ui-sans-serif, Inter, sans-serif" font-weight="700" font-size="14" letter-spacing="2.5" fill="#d4862a" text-anchor="middle">NEWSROOM</text>
  </g>
  <text x="80" y="515" font-family="ui-sans-serif, -apple-system, Segoe UI, Inter, sans-serif" font-weight="800" font-size="44" fill="#faf8f5" opacity="0.98"><tspan x="80" dy="0">SC Ruling on Arbitration</tspan><tspan x="80" dy="56">Joinder &amp; Non-Signatories</tspan></text>
  <rect x="0" y="669" width="1200" height="6" fill="url(#gold)"/>
</svg>