<?xml version="1.0" encoding="UTF-8"?>
<svg xmlns="http://www.w3.org/2000/svg" viewBox="0 0 1200 675" width="1200" height="675" role="img" aria-label="SC Flags Concern Over Arbitration Hearing Delays">
  <defs>
    <linearGradient id="bg" x1="0%" y1="0%" x2="100%" y2="100%">
      <stop offset="0%" stop-color="#532d15"/>
      <stop offset="100%" stop-color="#bd6b20"/>
    </linearGradient>
    <linearGradient id="gold" x1="0%" y1="0%" x2="100%" y2="100%">
      <stop offset="0%" stop-color="#e09440"/>
      <stop offset="100%" stop-color="#fdf6ee"/>
    </linearGradient>
    <radialGradient id="glow" cx="50%" cy="50%" r="50%">
      <stop offset="0%" stop-color="#e09440" stop-opacity="0.45"/>
      <stop offset="100%" stop-color="#e09440" stop-opacity="0"/>
    </radialGradient>
  </defs>
  <rect width="1200" height="675" fill="url(#bg)"/>
  <circle cx="27.6" cy="32.9" r="3.84" fill="#e09440" opacity="0.21"/><circle cx="67.6" cy="31.9" r="2.43" fill="#e09440" opacity="0.17"/><circle cx="104.7" cy="29.6" r="2.53" fill="#e09440" opacity="0.20"/><circle cx="140.9" cy="31.2" r="3.32" fill="#e09440" opacity="0.23"/><circle cx="176.2" cy="27.8" r="1.90" fill="#e09440" opacity="0.35"/><circle cx="208.4" cy="28.5" r="2.47" fill="#e09440" opacity="0.32"/><circle cx="243.5" cy="32.9" r="1.84" fill="#e09440" opacity="0.23"/><circle cx="279.6" cy="30.6" r="2.65" fill="#e09440" opacity="0.31"/><circle cx="319.0" cy="30.3" r="3.28" fill="#e09440" opacity="0.26"/><circle cx="355.6" cy="30.1" r="3.19" fill="#e09440" opacity="0.19"/><circle cx="389.4" cy="28.6" r="2.04" fill="#e09440" opacity="0.36"/><circle cx="428.0" cy="27.6" r="3.09" fill="#e09440" opacity="0.16"/><circle cx="463.1" cy="27.2" r="2.67" fill="#e09440" opacity="0.22"/><circle cx="497.4" cy="27.8" r="2.32" fill="#e09440" opacity="0.33"/><circle cx="534.0" cy="31.4" r="3.63" fill="#e09440" opacity="0.24"/><circle cx="569.8" cy="28.1" r="2.56" fill="#e09440" opacity="0.27"/><circle cx="603.5" cy="31.3" r="3.34" fill="#e09440" opacity="0.16"/><circle cx="642.5" cy="31.9" r="2.25" fill="#e09440" opacity="0.32"/><circle cx="678.6" cy="32.1" r="3.89" fill="#e09440" opacity="0.23"/><circle cx="711.7" cy="31.3" r="3.56" fill="#e09440" opacity="0.19"/><circle cx="750.9" cy="28.2" r="3.66" fill="#e09440" opacity="0.28"/><circle cx="783.9" cy="29.0" r="2.25" fill="#e09440" opacity="0.35"/><circle cx="821.5" cy="28.8" r="3.84" fill="#e09440" opacity="0.17"/><circle cx="855.3" cy="28.0" r="1.92" fill="#e09440" opacity="0.21"/><circle cx="896.7" cy="32.0" r="2.64" fill="#e09440" opacity="0.23"/><circle cx="927.1" cy="27.6" r="2.65" fill="#e09440" opacity="0.29"/><circle cx="963.4" cy="27.2" r="2.35" fill="#e09440" opacity="0.32"/><circle cx="999.4" cy="29.8" r="2.43" fill="#e09440" opacity="0.29"/><circle cx="1037.4" cy="27.7" r="2.02" fill="#e09440" opacity="0.34"/><circle cx="1072.0" cy="29.6" r="2.51" fill="#e09440" opacity="0.25"/><circle cx="1112.9" cy="31.0" r="1.86" fill="#e09440" opacity="0.19"/><circle cx="1147.3" cy="32.7" r="2.22" fill="#e09440" opacity="0.29"/><circle cx="1181.8" cy="31.6" r="3.87" fill="#e09440" opacity="0.36"/><circle cx="28.6" cy="65.2" r="3.20" fill="#e09440" opacity="0.18"/><circle cx="63.2" cy="64.7" r="2.28" fill="#e09440" opacity="0.29"/><circle cx="102.1" cy="63.7" r="2.42" fill="#e09440" opacity="0.26"/><circle cx="138.5" cy="66.2" r="3.45" fill="#e09440" opacity="0.27"/><circle cx="174.4" cy="65.0" r="2.79" fill="#e09440" opacity="0.21"/><circle cx="209.4" cy="65.5" r="2.04" fill="#e09440" opacity="0.27"/><circle cx="243.4" cy="67.3" r="2.72" fill="#e09440" opacity="0.31"/><circle cx="285.0" cy="64.6" r="2.23" fill="#e09440" opacity="0.21"/><circle cx="316.4" cy="67.2" r="2.46" fill="#e09440" opacity="0.34"/><circle cx="354.6" cy="65.8" r="2.60" fill="#e09440" opacity="0.21"/><circle cx="388.4" cy="67.0" r="3.95" fill="#e09440" opacity="0.32"/><circle cx="428.2" cy="64.3" r="2.84" fill="#e09440" opacity="0.25"/><circle cx="460.5" cy="63.7" r="1.96" fill="#e09440" opacity="0.36"/><circle cx="498.7" cy="68.2" r="1.62" fill="#e09440" opacity="0.29"/><circle cx="535.5" cy="65.2" r="3.78" fill="#e09440" opacity="0.30"/><circle cx="572.0" cy="63.9" r="2.78" fill="#e09440" opacity="0.21"/><circle cx="608.9" cy="68.9" r="1.62" fill="#e09440" opacity="0.15"/><circle cx="643.0" cy="68.7" r="2.86" fill="#e09440" opacity="0.18"/><circle cx="678.1" cy="63.6" r="2.44" fill="#e09440" opacity="0.23"/><circle cx="716.5" cy="64.0" r="2.85" fill="#e09440" opacity="0.31"/><circle cx="747.4" cy="65.1" r="2.10" fill="#e09440" opacity="0.29"/><circle cx="783.9" cy="64.8" r="1.94" fill="#e09440" opacity="0.16"/><circle cx="821.0" cy="68.0" r="3.02" fill="#e09440" opacity="0.25"/><circle cx="860.8" cy="67.0" r="3.03" fill="#e09440" opacity="0.33"/><circle cx="894.2" cy="64.7" r="3.77" fill="#e09440" opacity="0.31"/><circle cx="928.2" cy="68.5" r="1.83" fill="#e09440" opacity="0.25"/><circle cx="967.7" cy="68.6" r="3.56" fill="#e09440" opacity="0.17"/><circle cx="1002.6" cy="66.3" r="2.61" fill="#e09440" opacity="0.29"/><circle cx="1040.1" cy="63.1" r="3.70" fill="#e09440" opacity="0.36"/><circle cx="1073.0" cy="67.3" r="1.99" fill="#e09440" opacity="0.15"/><circle cx="1111.3" cy="65.6" r="1.90" fill="#e09440" opacity="0.34"/><circle cx="1146.8" cy="66.3" r="3.10" fill="#e09440" opacity="0.21"/><circle cx="1183.5" cy="66.5" r="3.85" fill="#e09440" opacity="0.20"/><circle cx="27.1" cy="99.6" r="3.00" fill="#e09440" opacity="0.15"/><circle cx="68.9" cy="104.1" r="2.94" fill="#e09440" opacity="0.29"/><circle cx="100.9" cy="99.9" r="1.93" fill="#e09440" opacity="0.29"/><circle cx="135.8" cy="101.6" r="2.82" fill="#e09440" opacity="0.23"/><circle cx="176.4" cy="102.0" r="2.23" fill="#e09440" opacity="0.22"/><circle cx="211.1" cy="103.4" r="3.34" fill="#e09440" opacity="0.33"/><circle cx="243.2" cy="104.8" r="3.07" fill="#e09440" opacity="0.35"/><circle cx="283.2" cy="99.4" r="3.16" fill="#e09440" opacity="0.31"/><circle cx="318.0" cy="100.5" r="1.76" fill="#e09440" opacity="0.24"/><circle cx="354.3" cy="99.2" r="3.17" fill="#e09440" opacity="0.35"/><circle cx="392.7" cy="104.0" r="3.65" fill="#e09440" opacity="0.20"/><circle cx="428.2" cy="103.8" r="2.85" fill="#e09440" opacity="0.32"/><circle cx="463.1" cy="101.0" r="3.72" fill="#e09440" opacity="0.24"/><circle cx="500.9" cy="101.4" r="1.89" fill="#e09440" opacity="0.34"/><circle cx="532.1" cy="102.2" r="2.80" fill="#e09440" opacity="0.24"/><circle cx="568.4" cy="102.8" r="3.00" fill="#e09440" opacity="0.36"/><circle cx="608.6" cy="100.6" r="2.24" fill="#e09440" opacity="0.16"/><circle cx="642.4" cy="103.2" r="1.65" fill="#e09440" opacity="0.17"/><circle cx="677.9" cy="103.2" r="2.40" fill="#e09440" opacity="0.19"/><circle cx="714.6" cy="102.8" r="3.06" fill="#e09440" opacity="0.18"/><circle cx="748.4" cy="103.1" r="2.18" fill="#e09440" opacity="0.29"/><circle cx="783.1" cy="104.5" r="3.49" fill="#e09440" opacity="0.21"/><circle cx="819.2" cy="100.5" r="3.69" fill="#e09440" opacity="0.33"/><circle cx="856.2" cy="104.9" r="2.74" fill="#e09440" opacity="0.18"/><circle cx="893.4" cy="100.9" r="2.97" fill="#e09440" opacity="0.22"/><circle cx="927.9" cy="102.6" r="1.80" fill="#e09440" opacity="0.33"/><circle cx="964.6" cy="101.5" r="3.43" fill="#e09440" opacity="0.32"/><circle cx="1001.3" cy="103.9" r="1.96" fill="#e09440" opacity="0.29"/><circle cx="1038.4" cy="103.8" r="3.07" fill="#e09440" opacity="0.35"/><circle cx="1072.0" cy="103.9" r="2.69" fill="#e09440" opacity="0.31"/><circle cx="1107.4" cy="102.8" r="2.64" fill="#e09440" opacity="0.31"/><circle cx="1143.5" cy="104.8" r="1.94" fill="#e09440" opacity="0.26"/><circle cx="1182.8" cy="103.5" r="2.63" fill="#e09440" opacity="0.29"/><circle cx="29.9" cy="138.1" r="1.95" fill="#e09440" opacity="0.28"/><circle cx="67.6" cy="137.9" r="3.06" fill="#e09440" opacity="0.35"/><circle cx="99.2" cy="135.8" r="2.86" fill="#e09440" opacity="0.23"/><circle cx="139.3" cy="136.3" r="3.69" fill="#e09440" opacity="0.30"/><circle cx="175.7" cy="136.5" r="2.64" fill="#e09440" opacity="0.33"/><circle cx="207.6" cy="135.9" r="2.88" fill="#e09440" opacity="0.20"/><circle cx="246.6" cy="136.7" r="2.34" fill="#e09440" opacity="0.19"/><circle cx="281.9" cy="140.0" r="1.68" fill="#e09440" opacity="0.31"/><circle cx="320.2" cy="136.2" r="2.60" fill="#e09440" opacity="0.16"/><circle cx="352.8" cy="135.1" r="2.26" fill="#e09440" opacity="0.33"/><circle cx="388.7" cy="139.5" r="2.01" fill="#e09440" opacity="0.17"/><circle cx="424.5" cy="140.0" r="2.82" fill="#e09440" opacity="0.31"/><circle cx="460.8" cy="139.4" r="2.96" fill="#e09440" opacity="0.29"/><circle cx="496.8" cy="140.7" r="3.94" fill="#e09440" opacity="0.16"/><circle cx="533.9" cy="140.3" r="1.61" fill="#e09440" opacity="0.20"/><circle cx="570.8" cy="138.4" r="2.94" fill="#e09440" opacity="0.17"/><circle cx="604.8" cy="140.3" r="2.72" fill="#e09440" opacity="0.17"/><circle cx="641.1" cy="140.6" r="2.37" fill="#e09440" opacity="0.18"/><circle cx="677.3" cy="137.9" r="3.66" fill="#e09440" opacity="0.19"/><circle cx="712.4" cy="140.8" r="3.26" fill="#e09440" opacity="0.29"/><circle cx="748.6" cy="135.4" r="1.64" fill="#e09440" opacity="0.24"/><circle cx="788.8" cy="139.3" r="2.48" fill="#e09440" opacity="0.20"/><circle cx="823.0" cy="140.9" r="3.35" fill="#e09440" opacity="0.27"/><circle cx="860.0" cy="139.0" r="1.64" fill="#e09440" opacity="0.27"/><circle cx="892.4" cy="140.6" r="3.00" fill="#e09440" opacity="0.32"/><circle cx="930.5" cy="136.6" r="2.11" fill="#e09440" opacity="0.34"/><circle cx="964.8" cy="138.5" r="3.53" fill="#e09440" opacity="0.18"/><circle cx="1004.3" cy="140.4" r="3.72" fill="#e09440" opacity="0.15"/><circle cx="1040.6" cy="135.9" r="2.86" fill="#e09440" opacity="0.16"/><circle cx="1075.7" cy="139.6" r="3.78" fill="#e09440" opacity="0.31"/><circle cx="1108.7" cy="135.1" r="3.45" fill="#e09440" opacity="0.17"/><circle cx="1145.6" cy="139.3" r="2.78" fill="#e09440" opacity="0.30"/><circle cx="1179.7" cy="137.3" r="3.12" fill="#e09440" opacity="0.16"/><circle cx="27.3" cy="174.5" r="3.04" fill="#e09440" opacity="0.25"/><circle cx="64.8" cy="174.2" r="3.59" fill="#e09440" opacity="0.19"/><circle cx="101.6" cy="176.9" r="2.63" fill="#e09440" opacity="0.34"/><circle cx="139.0" cy="176.6" r="2.93" fill="#e09440" opacity="0.26"/><circle cx="172.3" cy="175.3" r="3.08" fill="#e09440" opacity="0.24"/><circle cx="208.5" cy="174.2" r="1.82" fill="#e09440" opacity="0.15"/><circle cx="244.8" cy="175.0" r="3.92" fill="#e09440" opacity="0.27"/><circle cx="282.6" cy="175.0" r="3.95" fill="#e09440" opacity="0.24"/><circle cx="318.7" cy="172.6" r="3.68" fill="#e09440" opacity="0.35"/><circle cx="351.9" cy="172.9" r="2.41" fill="#e09440" opacity="0.22"/><circle cx="389.6" cy="171.6" r="1.74" fill="#e09440" opacity="0.28"/><circle cx="426.6" cy="174.3" r="3.61" fill="#e09440" opacity="0.32"/><circle cx="464.4" cy="171.7" r="1.62" fill="#e09440" opacity="0.31"/><circle cx="495.8" cy="173.2" r="2.68" fill="#e09440" opacity="0.24"/><circle cx="536.4" cy="172.0" r="1.99" fill="#e09440" opacity="0.16"/><circle cx="569.0" cy="173.6" r="3.84" fill="#e09440" opacity="0.20"/><circle cx="603.3" cy="176.0" r="2.73" fill="#e09440" opacity="0.34"/><circle cx="642.4" cy="177.0" r="1.73" fill="#e09440" opacity="0.22"/><circle cx="680.8" cy="176.3" r="2.62" fill="#e09440" opacity="0.33"/><circle cx="714.0" cy="171.0" r="2.79" fill="#e09440" opacity="0.26"/><circle cx="752.2" cy="173.3" r="3.11" fill="#e09440" opacity="0.18"/><circle cx="783.6" cy="175.6" r="3.27" fill="#e09440" opacity="0.28"/><circle cx="820.2" cy="173.9" r="3.73" fill="#e09440" opacity="0.16"/><circle cx="857.0" cy="174.2" r="3.11" fill="#e09440" opacity="0.29"/><circle cx="893.9" cy="174.6" r="3.93" fill="#e09440" opacity="0.22"/><circle cx="932.2" cy="174.0" r="3.12" fill="#e09440" opacity="0.22"/><circle cx="963.7" cy="175.5" r="3.42" fill="#e09440" opacity="0.33"/><circle cx="1004.7" cy="173.1" r="2.10" fill="#e09440" opacity="0.33"/><circle cx="1038.2" cy="173.6" r="2.98" fill="#e09440" opacity="0.21"/><circle cx="1073.5" cy="172.5" r="2.17" fill="#e09440" opacity="0.23"/><circle cx="1111.7" cy="175.5" r="3.94" fill="#e09440" opacity="0.17"/><circle cx="1146.8" cy="171.6" r="3.65" fill="#e09440" opacity="0.29"/><circle cx="1184.5" cy="172.5" r="2.40" fill="#e09440" opacity="0.20"/><circle cx="29.3" cy="207.8" r="3.59" fill="#e09440" opacity="0.32"/><circle cx="65.4" cy="209.7" r="2.44" fill="#e09440" opacity="0.23"/><circle cx="101.3" cy="208.2" r="2.06" fill="#e09440" opacity="0.29"/><circle cx="140.6" cy="207.1" r="1.76" fill="#e09440" opacity="0.22"/><circle cx="171.6" cy="207.1" r="2.13" fill="#e09440" opacity="0.24"/><circle cx="207.9" cy="207.1" r="2.70" fill="#e09440" opacity="0.16"/><circle cx="246.0" cy="211.1" r="3.89" fill="#e09440" opacity="0.22"/><circle cx="282.5" cy="210.4" r="2.49" fill="#e09440" opacity="0.22"/><circle cx="316.0" cy="210.1" r="2.76" fill="#e09440" opacity="0.34"/><circle cx="355.8" cy="210.4" r="3.50" fill="#e09440" opacity="0.30"/><circle cx="390.9" cy="207.3" r="3.04" fill="#e09440" opacity="0.17"/><circle cx="424.8" cy="208.0" r="2.78" fill="#e09440" opacity="0.35"/><circle cx="462.0" cy="207.7" r="2.33" fill="#e09440" opacity="0.21"/><circle cx="496.9" cy="211.9" r="2.95" fill="#e09440" opacity="0.30"/><circle cx="534.0" cy="210.4" r="3.56" fill="#e09440" opacity="0.25"/><circle cx="572.6" cy="210.9" r="3.88" fill="#e09440" opacity="0.30"/><circle cx="603.7" cy="208.2" r="2.88" fill="#e09440" opacity="0.15"/><circle cx="641.5" cy="212.7" r="2.09" fill="#e09440" opacity="0.24"/><circle cx="680.7" cy="208.4" r="3.62" fill="#e09440" opacity="0.22"/><circle cx="715.5" cy="208.2" r="2.79" fill="#e09440" opacity="0.15"/><circle cx="750.8" cy="210.5" r="2.28" fill="#e09440" opacity="0.17"/><circle cx="788.1" cy="210.3" r="2.96" fill="#e09440" opacity="0.18"/><circle cx="821.4" cy="208.8" r="1.82" fill="#e09440" opacity="0.28"/><circle cx="857.6" cy="207.6" r="1.95" fill="#e09440" opacity="0.21"/><circle cx="896.6" cy="212.6" r="3.80" fill="#e09440" opacity="0.33"/><circle cx="929.9" cy="211.4" r="3.47" fill="#e09440" opacity="0.30"/><circle cx="968.2" cy="208.2" r="3.33" fill="#e09440" opacity="0.16"/><circle cx="1001.9" cy="210.9" r="2.32" fill="#e09440" opacity="0.33"/><circle cx="1035.6" cy="212.2" r="2.03" fill="#e09440" opacity="0.19"/><circle cx="1071.1" cy="207.2" r="3.18" fill="#e09440" opacity="0.35"/><circle cx="1111.4" cy="207.9" r="3.58" fill="#e09440" opacity="0.27"/><circle cx="1144.0" cy="211.7" r="2.78" fill="#e09440" opacity="0.27"/><circle cx="1180.3" cy="208.7" r="3.07" fill="#e09440" opacity="0.17"/><circle cx="32.8" cy="245.1" r="2.43" fill="#e09440" opacity="0.20"/><circle cx="68.0" cy="243.1" r="2.64" fill="#e09440" opacity="0.32"/><circle cx="104.3" cy="246.0" r="2.47" fill="#e09440" opacity="0.18"/><circle cx="136.6" cy="247.6" r="3.81" fill="#e09440" opacity="0.28"/><circle cx="172.5" cy="244.0" r="3.32" fill="#e09440" opacity="0.28"/><circle cx="207.6" cy="248.4" r="2.83" fill="#e09440" opacity="0.18"/><circle cx="248.0" cy="247.1" r="3.12" fill="#e09440" opacity="0.28"/><circle cx="284.3" cy="248.8" r="2.63" fill="#e09440" opacity="0.20"/><circle cx="319.8" cy="245.9" r="2.09" fill="#e09440" opacity="0.36"/><circle cx="353.2" cy="246.8" r="3.26" fill="#e09440" opacity="0.30"/><circle cx="389.7" cy="243.4" r="3.74" fill="#e09440" opacity="0.28"/><circle cx="427.3" cy="243.2" r="2.98" fill="#e09440" opacity="0.27"/><circle cx="464.0" cy="245.4" r="3.42" fill="#e09440" opacity="0.28"/><circle cx="498.2" cy="243.2" r="2.24" fill="#e09440" opacity="0.30"/><circle cx="535.6" cy="243.8" r="2.16" fill="#e09440" opacity="0.33"/><circle cx="570.8" cy="245.6" r="2.71" fill="#e09440" opacity="0.17"/><circle cx="604.9" cy="248.5" r="3.02" fill="#e09440" opacity="0.28"/><circle cx="643.2" cy="244.0" r="2.03" fill="#e09440" opacity="0.32"/><circle cx="678.4" cy="247.2" r="1.88" fill="#e09440" opacity="0.29"/><circle cx="716.0" cy="248.1" r="2.38" fill="#e09440" opacity="0.18"/><circle cx="747.2" cy="244.3" r="3.99" fill="#e09440" opacity="0.21"/><circle cx="783.6" cy="244.4" r="2.77" fill="#e09440" opacity="0.30"/><circle cx="819.9" cy="245.9" r="2.17" fill="#e09440" opacity="0.32"/><circle cx="855.6" cy="247.6" r="2.94" fill="#e09440" opacity="0.33"/><circle cx="895.7" cy="244.7" r="3.81" fill="#e09440" opacity="0.15"/><circle cx="930.3" cy="244.0" r="2.09" fill="#e09440" opacity="0.27"/><circle cx="968.6" cy="246.8" r="3.08" fill="#e09440" opacity="0.26"/><circle cx="1003.8" cy="243.6" r="2.32" fill="#e09440" opacity="0.33"/><circle cx="1037.1" cy="246.3" r="3.18" fill="#e09440" opacity="0.32"/><circle cx="1074.2" cy="244.9" r="3.14" fill="#e09440" opacity="0.16"/><circle cx="1107.8" cy="246.5" r="3.93" fill="#e09440" opacity="0.30"/><circle cx="1148.5" cy="243.0" r="2.45" fill="#e09440" opacity="0.15"/><circle cx="1180.2" cy="244.3" r="2.84" fill="#e09440" opacity="0.32"/><circle cx="27.5" cy="280.9" r="1.68" fill="#e09440" opacity="0.24"/><circle cx="66.3" cy="279.7" r="3.85" fill="#e09440" opacity="0.15"/><circle cx="102.9" cy="282.4" r="3.83" fill="#e09440" opacity="0.34"/><circle cx="139.4" cy="283.8" r="3.91" fill="#e09440" opacity="0.25"/><circle cx="172.9" cy="279.1" r="2.65" fill="#e09440" opacity="0.23"/><circle cx="209.9" cy="279.4" r="2.32" fill="#e09440" opacity="0.22"/><circle cx="247.9" cy="282.5" r="1.92" fill="#e09440" opacity="0.36"/><circle cx="281.0" cy="284.1" r="2.86" fill="#e09440" opacity="0.27"/><circle cx="319.0" cy="281.6" r="1.87" fill="#e09440" opacity="0.27"/><circle cx="355.3" cy="279.5" r="3.52" fill="#e09440" opacity="0.23"/><circle cx="390.5" cy="282.9" r="2.69" fill="#e09440" opacity="0.18"/><circle cx="428.9" cy="280.4" r="1.67" fill="#e09440" opacity="0.21"/><circle cx="462.8" cy="279.8" r="2.52" fill="#e09440" opacity="0.31"/><circle cx="498.8" cy="282.3" r="1.96" fill="#e09440" opacity="0.22"/><circle cx="531.3" cy="279.9" r="3.97" fill="#e09440" opacity="0.36"/><circle cx="569.6" cy="281.4" r="2.08" fill="#e09440" opacity="0.33"/><circle cx="604.9" cy="284.9" r="2.26" fill="#e09440" opacity="0.32"/><circle cx="639.7" cy="279.6" r="2.79" fill="#e09440" opacity="0.24"/><circle cx="678.0" cy="279.4" r="3.14" fill="#e09440" opacity="0.30"/><circle cx="713.7" cy="280.3" r="1.96" fill="#e09440" opacity="0.20"/><circle cx="747.7" cy="284.6" r="2.52" fill="#e09440" opacity="0.30"/><circle cx="783.7" cy="283.4" r="2.42" fill="#e09440" opacity="0.18"/><circle cx="823.4" cy="279.0" r="2.10" fill="#e09440" opacity="0.32"/><circle cx="858.3" cy="279.4" r="2.77" fill="#e09440" opacity="0.35"/><circle cx="894.7" cy="284.7" r="3.34" fill="#e09440" opacity="0.29"/><circle cx="929.5" cy="284.6" r="3.94" fill="#e09440" opacity="0.24"/><circle cx="967.5" cy="281.3" r="3.19" fill="#e09440" opacity="0.35"/><circle cx="999.6" cy="279.7" r="1.69" fill="#e09440" opacity="0.33"/><circle cx="1037.3" cy="280.4" r="3.98" fill="#e09440" opacity="0.30"/><circle cx="1075.1" cy="284.7" r="1.94" fill="#e09440" opacity="0.31"/><circle cx="1110.9" cy="283.0" r="2.64" fill="#e09440" opacity="0.36"/><circle cx="1147.6" cy="283.5" r="3.44" fill="#e09440" opacity="0.25"/><circle cx="1180.7" cy="282.5" r="3.52" fill="#e09440" opacity="0.28"/><circle cx="31.4" cy="319.7" r="3.95" fill="#e09440" opacity="0.23"/><circle cx="63.2" cy="315.9" r="3.96" fill="#e09440" opacity="0.16"/><circle cx="104.5" cy="320.5" r="2.65" fill="#e09440" opacity="0.27"/><circle cx="138.4" cy="316.5" r="1.78" fill="#e09440" opacity="0.27"/><circle cx="171.1" cy="316.0" r="2.63" fill="#e09440" opacity="0.17"/><circle cx="210.3" cy="316.2" r="3.67" fill="#e09440" opacity="0.24"/><circle cx="244.0" cy="318.7" r="3.74" fill="#e09440" opacity="0.19"/><circle cx="279.3" cy="316.1" r="2.86" fill="#e09440" opacity="0.27"/><circle cx="317.5" cy="317.2" r="2.80" fill="#e09440" opacity="0.15"/><circle cx="356.6" cy="320.9" r="1.67" fill="#e09440" opacity="0.27"/><circle cx="387.6" cy="316.5" r="2.60" fill="#e09440" opacity="0.17"/><circle cx="425.7" cy="317.2" r="3.42" fill="#e09440" opacity="0.35"/><circle cx="461.8" cy="316.5" r="1.78" fill="#e09440" opacity="0.28"/><circle cx="496.8" cy="317.3" r="3.47" fill="#e09440" opacity="0.16"/><circle cx="534.0" cy="316.8" r="3.68" fill="#e09440" opacity="0.36"/><circle cx="572.6" cy="318.5" r="3.29" fill="#e09440" opacity="0.35"/><circle cx="608.7" cy="315.5" r="3.59" fill="#e09440" opacity="0.21"/><circle cx="644.7" cy="318.9" r="1.62" fill="#e09440" opacity="0.23"/><circle cx="677.2" cy="317.6" r="2.75" fill="#e09440" opacity="0.20"/><circle cx="713.1" cy="318.4" r="3.75" fill="#e09440" opacity="0.22"/><circle cx="750.7" cy="317.8" r="3.94" fill="#e09440" opacity="0.25"/><circle cx="784.6" cy="320.8" r="3.49" fill="#e09440" opacity="0.16"/><circle cx="821.1" cy="318.2" r="3.44" fill="#e09440" opacity="0.24"/><circle cx="858.4" cy="315.9" r="2.16" fill="#e09440" opacity="0.16"/><circle cx="892.5" cy="319.8" r="3.56" fill="#e09440" opacity="0.31"/><circle cx="927.9" cy="317.6" r="2.91" fill="#e09440" opacity="0.28"/><circle cx="967.7" cy="317.0" r="3.78" fill="#e09440" opacity="0.33"/><circle cx="1001.9" cy="320.2" r="1.68" fill="#e09440" opacity="0.19"/><circle cx="1038.8" cy="316.5" r="3.56" fill="#e09440" opacity="0.27"/><circle cx="1074.8" cy="315.9" r="2.94" fill="#e09440" opacity="0.23"/><circle cx="1111.1" cy="319.7" r="2.97" fill="#e09440" opacity="0.26"/><circle cx="1145.9" cy="317.5" r="3.60" fill="#e09440" opacity="0.20"/><circle cx="1184.1" cy="319.7" r="3.28" fill="#e09440" opacity="0.28"/><circle cx="29.1" cy="356.6" r="2.69" fill="#e09440" opacity="0.16"/><circle cx="68.5" cy="354.5" r="3.93" fill="#e09440" opacity="0.27"/><circle cx="104.3" cy="352.5" r="2.56" fill="#e09440" opacity="0.34"/><circle cx="135.2" cy="355.6" r="3.62" fill="#e09440" opacity="0.31"/><circle cx="173.7" cy="355.7" r="3.59" fill="#e09440" opacity="0.27"/><circle cx="207.7" cy="355.1" r="2.02" fill="#e09440" opacity="0.20"/><circle cx="244.4" cy="351.8" r="2.10" fill="#e09440" opacity="0.26"/><circle cx="284.5" cy="351.0" r="3.71" fill="#e09440" opacity="0.30"/><circle cx="316.4" cy="352.1" r="3.01" fill="#e09440" opacity="0.29"/><circle cx="352.0" cy="353.4" r="3.59" fill="#e09440" opacity="0.19"/><circle cx="389.0" cy="356.5" r="2.55" fill="#e09440" opacity="0.19"/><circle cx="428.9" cy="354.7" r="2.82" fill="#e09440" opacity="0.18"/><circle cx="459.4" cy="352.8" r="2.52" fill="#e09440" opacity="0.19"/><circle cx="495.7" cy="356.2" r="1.95" fill="#e09440" opacity="0.34"/><circle cx="533.6" cy="356.9" r="2.51" fill="#e09440" opacity="0.25"/><circle cx="568.1" cy="351.9" r="2.80" fill="#e09440" opacity="0.21"/><circle cx="608.1" cy="354.6" r="3.82" fill="#e09440" opacity="0.16"/><circle cx="643.5" cy="356.0" r="1.89" fill="#e09440" opacity="0.29"/><circle cx="676.9" cy="352.3" r="3.68" fill="#e09440" opacity="0.26"/><circle cx="711.9" cy="355.2" r="1.99" fill="#e09440" opacity="0.35"/><circle cx="750.9" cy="352.9" r="3.47" fill="#e09440" opacity="0.28"/><circle cx="785.0" cy="356.2" r="3.00" fill="#e09440" opacity="0.22"/><circle cx="821.1" cy="356.9" r="2.72" fill="#e09440" opacity="0.34"/><circle cx="857.8" cy="352.3" r="3.85" fill="#e09440" opacity="0.26"/><circle cx="893.2" cy="352.9" r="3.79" fill="#e09440" opacity="0.21"/><circle cx="928.8" cy="355.9" r="2.97" fill="#e09440" opacity="0.22"/><circle cx="968.9" cy="356.4" r="3.49" fill="#e09440" opacity="0.36"/><circle cx="1001.6" cy="352.4" r="1.69" fill="#e09440" opacity="0.23"/><circle cx="1040.5" cy="356.8" r="2.55" fill="#e09440" opacity="0.18"/><circle cx="1071.3" cy="352.7" r="1.85" fill="#e09440" opacity="0.31"/><circle cx="1112.9" cy="353.4" r="2.37" fill="#e09440" opacity="0.35"/><circle cx="1145.4" cy="351.3" r="2.78" fill="#e09440" opacity="0.32"/><circle cx="1181.9" cy="352.3" r="2.27" fill="#e09440" opacity="0.21"/><circle cx="31.8" cy="389.9" r="2.80" fill="#e09440" opacity="0.21"/><circle cx="63.1" cy="391.6" r="2.54" fill="#e09440" opacity="0.33"/><circle cx="103.7" cy="392.5" r="3.20" fill="#e09440" opacity="0.21"/><circle cx="137.9" cy="388.5" r="1.76" fill="#e09440" opacity="0.28"/><circle cx="173.1" cy="387.3" r="2.45" fill="#e09440" opacity="0.19"/><circle cx="209.2" cy="390.2" r="2.61" fill="#e09440" opacity="0.33"/><circle cx="246.7" cy="389.5" r="2.13" fill="#e09440" opacity="0.22"/><circle cx="281.4" cy="391.9" r="2.48" fill="#e09440" opacity="0.33"/><circle cx="319.5" cy="391.8" r="3.36" fill="#e09440" opacity="0.32"/><circle cx="353.6" cy="392.5" r="3.57" fill="#e09440" opacity="0.20"/><circle cx="392.8" cy="388.4" r="1.99" fill="#e09440" opacity="0.35"/><circle cx="423.2" cy="391.1" r="2.20" fill="#e09440" opacity="0.18"/><circle cx="462.3" cy="387.2" r="3.42" fill="#e09440" opacity="0.33"/><circle cx="500.2" cy="390.6" r="2.19" fill="#e09440" opacity="0.27"/><circle cx="536.2" cy="392.0" r="2.05" fill="#e09440" opacity="0.26"/><circle cx="571.8" cy="390.0" r="2.36" fill="#e09440" opacity="0.32"/><circle cx="603.9" cy="391.8" r="1.73" fill="#e09440" opacity="0.36"/><circle cx="642.6" cy="391.2" r="1.62" fill="#e09440" opacity="0.19"/><circle cx="675.2" cy="388.1" r="2.15" fill="#e09440" opacity="0.20"/><circle cx="715.8" cy="387.2" r="1.71" fill="#e09440" opacity="0.30"/><circle cx="749.0" cy="390.7" r="2.46" fill="#e09440" opacity="0.15"/><circle cx="785.1" cy="388.6" r="2.31" fill="#e09440" opacity="0.24"/><circle cx="824.1" cy="390.7" r="2.31" fill="#e09440" opacity="0.29"/><circle cx="860.6" cy="388.1" r="3.43" fill="#e09440" opacity="0.17"/><circle cx="891.2" cy="389.2" r="2.38" fill="#e09440" opacity="0.21"/><circle cx="929.7" cy="387.7" r="2.35" fill="#e09440" opacity="0.19"/><circle cx="966.6" cy="390.1" r="3.79" fill="#e09440" opacity="0.18"/><circle cx="1000.6" cy="388.9" r="3.92" fill="#e09440" opacity="0.30"/><circle cx="1038.6" cy="392.9" r="2.80" fill="#e09440" opacity="0.15"/><circle cx="1072.7" cy="387.8" r="2.84" fill="#e09440" opacity="0.27"/><circle cx="1111.8" cy="387.7" r="2.95" fill="#e09440" opacity="0.18"/><circle cx="1145.4" cy="390.5" r="1.92" fill="#e09440" opacity="0.21"/><circle cx="1184.7" cy="388.0" r="2.46" fill="#e09440" opacity="0.17"/><circle cx="27.8" cy="427.2" r="3.75" fill="#e09440" opacity="0.30"/><circle cx="68.9" cy="427.9" r="2.18" fill="#e09440" opacity="0.18"/><circle cx="102.9" cy="428.8" r="2.54" fill="#e09440" opacity="0.34"/><circle cx="136.3" cy="425.4" r="2.00" fill="#e09440" opacity="0.23"/><circle cx="171.6" cy="424.7" r="1.88" fill="#e09440" opacity="0.19"/><circle cx="207.6" cy="423.4" r="3.74" fill="#e09440" opacity="0.25"/><circle cx="246.1" cy="423.4" r="2.17" fill="#e09440" opacity="0.23"/><circle cx="284.3" cy="428.9" r="2.33" fill="#e09440" opacity="0.31"/><circle cx="317.8" cy="424.6" r="2.29" fill="#e09440" opacity="0.32"/><circle cx="354.6" cy="426.1" r="2.33" fill="#e09440" opacity="0.27"/><circle cx="390.7" cy="423.7" r="2.07" fill="#e09440" opacity="0.28"/><circle cx="426.4" cy="424.8" r="3.66" fill="#e09440" opacity="0.23"/><circle cx="464.6" cy="427.9" r="2.21" fill="#e09440" opacity="0.29"/><circle cx="498.5" cy="424.2" r="1.78" fill="#e09440" opacity="0.29"/><circle cx="531.4" cy="427.2" r="2.20" fill="#e09440" opacity="0.18"/><circle cx="572.6" cy="427.2" r="2.03" fill="#e09440" opacity="0.15"/><circle cx="606.6" cy="427.3" r="2.80" fill="#e09440" opacity="0.36"/><circle cx="639.7" cy="425.4" r="3.47" fill="#e09440" opacity="0.25"/><circle cx="676.7" cy="424.6" r="1.71" fill="#e09440" opacity="0.30"/><circle cx="712.4" cy="424.1" r="1.93" fill="#e09440" opacity="0.34"/><circle cx="748.6" cy="423.8" r="3.23" fill="#e09440" opacity="0.25"/><circle cx="788.8" cy="426.1" r="2.01" fill="#e09440" opacity="0.25"/><circle cx="820.4" cy="423.2" r="2.94" fill="#e09440" opacity="0.32"/><circle cx="858.3" cy="428.0" r="2.41" fill="#e09440" opacity="0.27"/><circle cx="895.5" cy="428.4" r="2.11" fill="#e09440" opacity="0.24"/><circle cx="928.7" cy="426.2" r="3.06" fill="#e09440" opacity="0.29"/><circle cx="967.4" cy="424.0" r="3.06" fill="#e09440" opacity="0.32"/><circle cx="1000.5" cy="426.7" r="3.63" fill="#e09440" opacity="0.26"/><circle cx="1040.7" cy="423.1" r="1.65" fill="#e09440" opacity="0.23"/><circle cx="1071.9" cy="425.1" r="3.92" fill="#e09440" opacity="0.34"/><circle cx="1112.9" cy="423.1" r="3.15" fill="#e09440" opacity="0.29"/><circle cx="1146.9" cy="424.5" r="3.53" fill="#e09440" opacity="0.35"/><circle cx="1180.0" cy="425.7" r="3.85" fill="#e09440" opacity="0.21"/><circle cx="32.3" cy="462.2" r="3.85" fill="#e09440" opacity="0.34"/><circle cx="64.4" cy="462.4" r="3.06" fill="#e09440" opacity="0.23"/><circle cx="101.7" cy="460.0" r="2.46" fill="#e09440" opacity="0.22"/><circle cx="136.1" cy="464.2" r="3.06" fill="#e09440" opacity="0.16"/><circle cx="173.4" cy="462.5" r="1.64" fill="#e09440" opacity="0.33"/><circle cx="208.3" cy="460.2" r="3.69" fill="#e09440" opacity="0.30"/><circle cx="243.2" cy="459.0" r="2.46" fill="#e09440" opacity="0.20"/><circle cx="282.5" cy="462.0" r="3.43" fill="#e09440" opacity="0.19"/><circle cx="318.9" cy="464.1" r="1.77" fill="#e09440" opacity="0.33"/><circle cx="354.6" cy="459.7" r="3.33" fill="#e09440" opacity="0.24"/><circle cx="391.0" cy="459.9" r="2.39" fill="#e09440" opacity="0.34"/><circle cx="423.1" cy="459.2" r="3.68" fill="#e09440" opacity="0.17"/><circle cx="461.0" cy="460.6" r="1.75" fill="#e09440" opacity="0.24"/><circle cx="499.7" cy="461.5" r="3.93" fill="#e09440" opacity="0.19"/><circle cx="535.3" cy="464.0" r="2.44" fill="#e09440" opacity="0.20"/><circle cx="572.5" cy="463.3" r="2.72" fill="#e09440" opacity="0.34"/><circle cx="603.6" cy="462.1" r="1.79" fill="#e09440" opacity="0.29"/><circle cx="641.1" cy="462.5" r="2.90" fill="#e09440" opacity="0.24"/><circle cx="675.5" cy="461.4" r="2.61" fill="#e09440" opacity="0.20"/><circle cx="713.1" cy="460.7" r="3.53" fill="#e09440" opacity="0.27"/><circle cx="749.5" cy="460.2" r="3.50" fill="#e09440" opacity="0.26"/><circle cx="787.7" cy="460.8" r="3.80" fill="#e09440" opacity="0.26"/><circle cx="820.0" cy="463.0" r="2.39" fill="#e09440" opacity="0.23"/><circle cx="855.4" cy="460.3" r="3.72" fill="#e09440" opacity="0.24"/><circle cx="897.0" cy="461.0" r="2.76" fill="#e09440" opacity="0.24"/><circle cx="928.3" cy="463.2" r="3.83" fill="#e09440" opacity="0.35"/><circle cx="963.7" cy="462.2" r="2.74" fill="#e09440" opacity="0.31"/><circle cx="999.3" cy="459.5" r="3.37" fill="#e09440" opacity="0.16"/><circle cx="1037.3" cy="459.2" r="3.89" fill="#e09440" opacity="0.32"/><circle cx="1074.5" cy="460.4" r="3.09" fill="#e09440" opacity="0.20"/><circle cx="1112.3" cy="463.3" r="2.81" fill="#e09440" opacity="0.31"/><circle cx="1143.5" cy="461.1" r="2.78" fill="#e09440" opacity="0.18"/><circle cx="1180.1" cy="461.6" r="1.62" fill="#e09440" opacity="0.20"/><circle cx="28.6" cy="497.6" r="1.96" fill="#e09440" opacity="0.19"/><circle cx="65.4" cy="499.2" r="2.38" fill="#e09440" opacity="0.15"/><circle cx="103.8" cy="500.6" r="2.87" fill="#e09440" opacity="0.22"/><circle cx="135.8" cy="498.6" r="3.04" fill="#e09440" opacity="0.19"/><circle cx="176.5" cy="500.3" r="3.89" fill="#e09440" opacity="0.26"/><circle cx="212.3" cy="499.0" r="3.27" fill="#e09440" opacity="0.36"/><circle cx="246.0" cy="497.8" r="1.68" fill="#e09440" opacity="0.30"/><circle cx="284.7" cy="495.6" r="2.17" fill="#e09440" opacity="0.19"/><circle cx="317.4" cy="495.3" r="3.67" fill="#e09440" opacity="0.27"/><circle cx="351.1" cy="499.8" r="3.27" fill="#e09440" opacity="0.16"/><circle cx="390.0" cy="495.7" r="2.87" fill="#e09440" opacity="0.28"/><circle cx="425.0" cy="497.5" r="2.17" fill="#e09440" opacity="0.27"/><circle cx="464.4" cy="499.4" r="1.85" fill="#e09440" opacity="0.20"/><circle cx="499.9" cy="500.4" r="3.84" fill="#e09440" opacity="0.30"/><circle cx="536.6" cy="499.6" r="3.94" fill="#e09440" opacity="0.29"/><circle cx="570.8" cy="497.8" r="3.77" fill="#e09440" opacity="0.33"/><circle cx="604.4" cy="497.4" r="1.96" fill="#e09440" opacity="0.28"/><circle cx="643.2" cy="495.2" r="1.94" fill="#e09440" opacity="0.36"/><circle cx="680.7" cy="500.1" r="1.72" fill="#e09440" opacity="0.34"/><circle cx="713.0" cy="499.7" r="3.41" fill="#e09440" opacity="0.25"/><circle cx="748.3" cy="498.5" r="2.86" fill="#e09440" opacity="0.16"/><circle cx="785.7" cy="496.9" r="2.76" fill="#e09440" opacity="0.34"/><circle cx="819.1" cy="496.2" r="3.02" fill="#e09440" opacity="0.33"/><circle cx="859.4" cy="500.8" r="3.07" fill="#e09440" opacity="0.18"/><circle cx="894.3" cy="498.8" r="3.63" fill="#e09440" opacity="0.18"/><circle cx="927.4" cy="495.5" r="3.01" fill="#e09440" opacity="0.28"/><circle cx="967.5" cy="498.2" r="2.64" fill="#e09440" opacity="0.33"/><circle cx="1001.8" cy="495.3" r="2.25" fill="#e09440" opacity="0.22"/><circle cx="1038.0" cy="500.2" r="3.09" fill="#e09440" opacity="0.28"/><circle cx="1076.4" cy="497.5" r="1.66" fill="#e09440" opacity="0.20"/><circle cx="1110.6" cy="499.9" r="2.16" fill="#e09440" opacity="0.29"/><circle cx="1147.8" cy="497.7" r="3.34" fill="#e09440" opacity="0.23"/><circle cx="1181.8" cy="496.9" r="2.18" fill="#e09440" opacity="0.15"/><circle cx="31.5" cy="532.6" r="3.71" fill="#e09440" opacity="0.26"/><circle cx="67.8" cy="532.2" r="2.21" fill="#e09440" opacity="0.34"/><circle cx="103.2" cy="532.9" r="3.71" fill="#e09440" opacity="0.17"/><circle cx="140.3" cy="536.1" r="2.45" fill="#e09440" opacity="0.20"/><circle cx="171.7" cy="535.8" r="2.38" fill="#e09440" opacity="0.19"/><circle cx="210.7" cy="535.1" r="3.48" fill="#e09440" opacity="0.34"/><circle cx="244.2" cy="535.5" r="3.76" fill="#e09440" opacity="0.17"/><circle cx="279.1" cy="534.5" r="1.73" fill="#e09440" opacity="0.19"/><circle cx="318.3" cy="533.6" r="3.91" fill="#e09440" opacity="0.27"/><circle cx="352.3" cy="532.5" r="1.80" fill="#e09440" opacity="0.33"/><circle cx="387.1" cy="531.3" r="2.25" fill="#e09440" opacity="0.18"/><circle cx="425.0" cy="533.4" r="2.83" fill="#e09440" opacity="0.19"/><circle cx="464.1" cy="535.1" r="2.97" fill="#e09440" opacity="0.23"/><circle cx="500.8" cy="534.7" r="3.57" fill="#e09440" opacity="0.24"/><circle cx="531.8" cy="535.3" r="3.72" fill="#e09440" opacity="0.27"/><circle cx="567.3" cy="534.6" r="2.51" fill="#e09440" opacity="0.24"/><circle cx="606.2" cy="535.9" r="1.70" fill="#e09440" opacity="0.25"/><circle cx="642.6" cy="531.1" r="3.93" fill="#e09440" opacity="0.29"/><circle cx="676.1" cy="531.1" r="3.64" fill="#e09440" opacity="0.36"/><circle cx="713.4" cy="534.4" r="2.06" fill="#e09440" opacity="0.32"/><circle cx="748.2" cy="536.3" r="3.28" fill="#e09440" opacity="0.18"/><circle cx="785.2" cy="534.5" r="3.12" fill="#e09440" opacity="0.21"/><circle cx="820.5" cy="534.0" r="2.82" fill="#e09440" opacity="0.36"/><circle cx="859.2" cy="531.4" r="1.76" fill="#e09440" opacity="0.34"/><circle cx="896.2" cy="533.0" r="1.68" fill="#e09440" opacity="0.26"/><circle cx="931.6" cy="533.0" r="3.54" fill="#e09440" opacity="0.31"/><circle cx="965.6" cy="535.4" r="1.66" fill="#e09440" opacity="0.36"/><circle cx="1002.6" cy="532.6" r="3.52" fill="#e09440" opacity="0.27"/><circle cx="1038.5" cy="534.1" r="3.04" fill="#e09440" opacity="0.33"/><circle cx="1074.2" cy="532.8" r="2.85" fill="#e09440" opacity="0.21"/><circle cx="1110.5" cy="532.5" r="3.13" fill="#e09440" opacity="0.32"/><circle cx="1148.2" cy="531.2" r="2.86" fill="#e09440" opacity="0.34"/><circle cx="1183.8" cy="534.8" r="3.73" fill="#e09440" opacity="0.28"/><circle cx="30.0" cy="572.3" r="2.72" fill="#e09440" opacity="0.35"/><circle cx="67.8" cy="569.9" r="1.82" fill="#e09440" opacity="0.20"/><circle cx="102.7" cy="567.0" r="3.36" fill="#e09440" opacity="0.29"/><circle cx="135.5" cy="572.9" r="3.56" fill="#e09440" opacity="0.31"/><circle cx="174.5" cy="572.7" r="3.97" fill="#e09440" opacity="0.29"/><circle cx="207.9" cy="572.9" r="2.11" fill="#e09440" opacity="0.30"/><circle cx="245.3" cy="571.2" r="2.72" fill="#e09440" opacity="0.29"/><circle cx="279.7" cy="570.9" r="2.16" fill="#e09440" opacity="0.27"/><circle cx="320.3" cy="568.7" r="3.83" fill="#e09440" opacity="0.20"/><circle cx="356.9" cy="572.4" r="3.85" fill="#e09440" opacity="0.35"/><circle cx="391.0" cy="567.4" r="3.05" fill="#e09440" opacity="0.20"/><circle cx="428.3" cy="569.1" r="3.54" fill="#e09440" opacity="0.24"/><circle cx="460.9" cy="570.3" r="3.01" fill="#e09440" opacity="0.34"/><circle cx="496.8" cy="570.7" r="1.71" fill="#e09440" opacity="0.17"/><circle cx="534.6" cy="572.4" r="2.05" fill="#e09440" opacity="0.22"/><circle cx="568.7" cy="569.5" r="3.71" fill="#e09440" opacity="0.27"/><circle cx="608.4" cy="572.1" r="2.17" fill="#e09440" opacity="0.33"/><circle cx="640.5" cy="571.5" r="1.80" fill="#e09440" opacity="0.18"/><circle cx="677.7" cy="570.7" r="2.90" fill="#e09440" opacity="0.30"/><circle cx="717.0" cy="572.7" r="1.91" fill="#e09440" opacity="0.28"/><circle cx="748.7" cy="570.2" r="2.76" fill="#e09440" opacity="0.23"/><circle cx="787.1" cy="569.7" r="3.59" fill="#e09440" opacity="0.29"/><circle cx="821.9" cy="567.1" r="1.69" fill="#e09440" opacity="0.27"/><circle cx="855.4" cy="572.5" r="3.14" fill="#e09440" opacity="0.32"/><circle cx="893.7" cy="567.6" r="3.23" fill="#e09440" opacity="0.28"/><circle cx="927.6" cy="571.2" r="2.97" fill="#e09440" opacity="0.36"/><circle cx="966.0" cy="570.7" r="3.42" fill="#e09440" opacity="0.25"/><circle cx="999.4" cy="572.2" r="1.86" fill="#e09440" opacity="0.16"/><circle cx="1036.5" cy="568.0" r="3.09" fill="#e09440" opacity="0.20"/><circle cx="1072.4" cy="567.9" r="3.87" fill="#e09440" opacity="0.21"/><circle cx="1108.6" cy="569.0" r="2.10" fill="#e09440" opacity="0.24"/><circle cx="1147.9" cy="570.7" r="1.70" fill="#e09440" opacity="0.30"/><circle cx="1181.9" cy="568.6" r="3.91" fill="#e09440" opacity="0.36"/><circle cx="31.3" cy="608.0" r="3.29" fill="#e09440" opacity="0.31"/><circle cx="66.6" cy="607.3" r="3.70" fill="#e09440" opacity="0.25"/><circle cx="99.3" cy="608.7" r="2.52" fill="#e09440" opacity="0.28"/><circle cx="137.1" cy="608.3" r="2.82" fill="#e09440" opacity="0.26"/><circle cx="172.5" cy="607.3" r="3.29" fill="#e09440" opacity="0.16"/><circle cx="209.8" cy="605.0" r="3.83" fill="#e09440" opacity="0.33"/><circle cx="248.4" cy="603.5" r="1.78" fill="#e09440" opacity="0.23"/><circle cx="284.1" cy="606.3" r="3.21" fill="#e09440" opacity="0.32"/><circle cx="315.7" cy="606.9" r="2.01" fill="#e09440" opacity="0.31"/><circle cx="354.0" cy="608.3" r="2.71" fill="#e09440" opacity="0.35"/><circle cx="388.2" cy="604.3" r="2.31" fill="#e09440" opacity="0.35"/><circle cx="426.7" cy="604.4" r="2.93" fill="#e09440" opacity="0.17"/><circle cx="460.8" cy="603.2" r="1.97" fill="#e09440" opacity="0.26"/><circle cx="499.0" cy="603.9" r="1.78" fill="#e09440" opacity="0.33"/><circle cx="532.1" cy="608.7" r="3.72" fill="#e09440" opacity="0.28"/><circle cx="569.6" cy="608.7" r="3.10" fill="#e09440" opacity="0.20"/><circle cx="603.9" cy="606.7" r="2.39" fill="#e09440" opacity="0.17"/><circle cx="641.4" cy="603.1" r="3.44" fill="#e09440" opacity="0.17"/><circle cx="678.4" cy="603.5" r="2.76" fill="#e09440" opacity="0.31"/><circle cx="711.2" cy="605.1" r="2.95" fill="#e09440" opacity="0.31"/><circle cx="748.6" cy="606.0" r="3.29" fill="#e09440" opacity="0.23"/><circle cx="787.4" cy="607.0" r="1.67" fill="#e09440" opacity="0.30"/><circle cx="824.4" cy="604.1" r="4.00" fill="#e09440" opacity="0.31"/><circle cx="857.1" cy="606.9" r="1.71" fill="#e09440" opacity="0.21"/><circle cx="894.3" cy="605.5" r="3.32" fill="#e09440" opacity="0.20"/><circle cx="928.0" cy="606.8" r="3.92" fill="#e09440" opacity="0.30"/><circle cx="967.7" cy="608.1" r="3.41" fill="#e09440" opacity="0.18"/><circle cx="999.6" cy="608.9" r="2.93" fill="#e09440" opacity="0.25"/><circle cx="1036.0" cy="607.1" r="2.71" fill="#e09440" opacity="0.21"/><circle cx="1071.9" cy="606.8" r="2.10" fill="#e09440" opacity="0.26"/><circle cx="1110.7" cy="607.4" r="3.45" fill="#e09440" opacity="0.24"/><circle cx="1146.3" cy="605.0" r="3.68" fill="#e09440" opacity="0.31"/><circle cx="1182.8" cy="604.6" r="3.64" fill="#e09440" opacity="0.18"/><circle cx="27.8" cy="644.6" r="3.84" fill="#e09440" opacity="0.24"/><circle cx="66.7" cy="642.3" r="2.75" fill="#e09440" opacity="0.26"/><circle cx="103.2" cy="643.4" r="2.59" fill="#e09440" opacity="0.34"/><circle cx="136.1" cy="639.8" r="2.36" fill="#e09440" opacity="0.32"/><circle cx="173.5" cy="641.9" r="1.62" fill="#e09440" opacity="0.28"/><circle cx="207.7" cy="643.3" r="2.22" fill="#e09440" opacity="0.32"/><circle cx="245.2" cy="643.2" r="2.19" fill="#e09440" opacity="0.31"/><circle cx="284.8" cy="643.4" r="2.06" fill="#e09440" opacity="0.34"/><circle cx="319.3" cy="640.8" r="2.22" fill="#e09440" opacity="0.17"/><circle cx="351.3" cy="641.0" r="3.10" fill="#e09440" opacity="0.30"/><circle cx="387.5" cy="642.2" r="2.86" fill="#e09440" opacity="0.26"/><circle cx="423.9" cy="643.8" r="3.90" fill="#e09440" opacity="0.23"/><circle cx="461.5" cy="643.2" r="3.96" fill="#e09440" opacity="0.25"/><circle cx="499.4" cy="640.3" r="3.38" fill="#e09440" opacity="0.24"/><circle cx="531.2" cy="639.7" r="2.32" fill="#e09440" opacity="0.19"/><circle cx="572.5" cy="641.1" r="3.13" fill="#e09440" opacity="0.27"/><circle cx="604.1" cy="640.5" r="3.27" fill="#e09440" opacity="0.15"/><circle cx="643.8" cy="644.3" r="3.10" fill="#e09440" opacity="0.22"/><circle cx="680.4" cy="643.6" r="2.42" fill="#e09440" opacity="0.26"/><circle cx="715.6" cy="639.8" r="2.20" fill="#e09440" opacity="0.29"/><circle cx="748.2" cy="639.0" r="3.25" fill="#e09440" opacity="0.34"/><circle cx="788.9" cy="640.3" r="3.32" fill="#e09440" opacity="0.16"/><circle cx="823.4" cy="641.6" r="2.90" fill="#e09440" opacity="0.36"/><circle cx="856.3" cy="642.5" r="1.76" fill="#e09440" opacity="0.23"/><circle cx="891.8" cy="641.8" r="3.99" fill="#e09440" opacity="0.21"/><circle cx="932.9" cy="644.2" r="2.42" fill="#e09440" opacity="0.36"/><circle cx="966.4" cy="639.2" r="2.74" fill="#e09440" opacity="0.31"/><circle cx="1001.6" cy="642.0" r="2.24" fill="#e09440" opacity="0.32"/><circle cx="1039.9" cy="642.1" r="2.69" fill="#e09440" opacity="0.20"/><circle cx="1072.1" cy="643.5" r="3.93" fill="#e09440" opacity="0.33"/><circle cx="1107.4" cy="640.1" r="3.54" fill="#e09440" opacity="0.25"/><circle cx="1144.8" cy="640.5" r="2.64" fill="#e09440" opacity="0.32"/><circle cx="1181.5" cy="644.1" r="1.92" fill="#e09440" opacity="0.20"/><circle cx="232.3" cy="226.3" r="220" fill="url(#glow)" opacity="0.9"/>
  <g opacity="0.85" transform="translate(1020, 495)">
        <circle r="68" fill="none" stroke="#e09440" stroke-width="2" opacity="0.35"/>
        <path d="M -38 12 L 38 12 M -32 -8 L 32 -8 M -45 -28 L 45 -28" stroke="#fdf6ee" stroke-width="3" stroke-linecap="round"/>
        <rect x="-50" y="-44" width="100" height="80" fill="none" stroke="#e09440" stroke-width="2"/>
      </g>
  <g transform="translate(80, 90)">
    <rect x="0" y="0" rx="20" ry="20" width="112" height="38" fill="#e09440" opacity="0.18" stroke="#e09440" stroke-width="1.5"/>
    <text x="56" y="25" font-family="ui-sans-serif, Inter, sans-serif" font-weight="700" font-size="14" letter-spacing="2.5" fill="#e09440" text-anchor="middle">NEWSROOM</text>
  </g>
  <text x="80" y="515" font-family="ui-sans-serif, -apple-system, Segoe UI, Inter, sans-serif" font-weight="800" font-size="44" fill="#faf8f5" opacity="0.98"><tspan x="80" dy="0">SC Flags Concern Over</tspan><tspan x="80" dy="56">Arbitration Hearing Delays</tspan></text>
  <rect x="0" y="669" width="1200" height="6" fill="url(#gold)"/>
</svg>