<?xml version="1.0" encoding="UTF-8"?>
<svg xmlns="http://www.w3.org/2000/svg" viewBox="0 0 1200 675" width="1200" height="675" role="img" aria-label="SC Sets Stringent Standards: Contractors Must Substantiate Delay-Induced Losses">
  <defs>
    <linearGradient id="bg" x1="0%" y1="0%" x2="100%" y2="100%">
      <stop offset="0%" stop-color="#12100e"/>
      <stop offset="100%" stop-color="#1c1917"/>
    </linearGradient>
    <linearGradient id="gold" x1="0%" y1="0%" x2="100%" y2="100%">
      <stop offset="0%" stop-color="#bd6b20"/>
      <stop offset="100%" stop-color="#e09440"/>
    </linearGradient>
    <radialGradient id="glow" cx="50%" cy="50%" r="50%">
      <stop offset="0%" stop-color="#bd6b20" stop-opacity="0.45"/>
      <stop offset="100%" stop-color="#bd6b20" stop-opacity="0"/>
    </radialGradient>
  </defs>
  <rect width="1200" height="675" fill="url(#bg)"/>
  <circle cx="30.1" cy="28.6" r="3.79" fill="#bd6b20" opacity="0.33"/><circle cx="66.0" cy="32.9" r="2.47" fill="#bd6b20" opacity="0.21"/><circle cx="101.8" cy="30.8" r="3.12" fill="#bd6b20" opacity="0.29"/><circle cx="139.8" cy="31.1" r="2.18" fill="#bd6b20" opacity="0.32"/><circle cx="172.9" cy="32.0" r="3.20" fill="#bd6b20" opacity="0.30"/><circle cx="210.2" cy="28.6" r="3.69" fill="#bd6b20" opacity="0.16"/><circle cx="246.6" cy="32.8" r="1.77" fill="#bd6b20" opacity="0.22"/><circle cx="284.2" cy="32.5" r="2.97" fill="#bd6b20" opacity="0.20"/><circle cx="317.5" cy="31.0" r="1.79" fill="#bd6b20" opacity="0.29"/><circle cx="355.1" cy="27.5" r="2.55" fill="#bd6b20" opacity="0.34"/><circle cx="388.1" cy="33.0" r="2.48" fill="#bd6b20" opacity="0.32"/><circle cx="426.2" cy="30.6" r="3.42" fill="#bd6b20" opacity="0.34"/><circle cx="459.2" cy="33.0" r="3.63" fill="#bd6b20" opacity="0.30"/><circle cx="497.8" cy="27.5" r="2.39" fill="#bd6b20" opacity="0.15"/><circle cx="531.7" cy="31.6" r="1.72" fill="#bd6b20" opacity="0.29"/><circle cx="571.6" cy="28.2" r="3.24" fill="#bd6b20" opacity="0.31"/><circle cx="608.9" cy="27.3" r="1.68" fill="#bd6b20" opacity="0.33"/><circle cx="644.8" cy="32.0" r="2.99" fill="#bd6b20" opacity="0.18"/><circle cx="675.8" cy="29.5" r="1.83" fill="#bd6b20" opacity="0.18"/><circle cx="717.0" cy="31.3" r="1.76" fill="#bd6b20" opacity="0.36"/><circle cx="748.2" cy="30.6" r="3.73" fill="#bd6b20" opacity="0.19"/><circle cx="785.8" cy="29.1" r="3.48" fill="#bd6b20" opacity="0.20"/><circle cx="820.6" cy="30.9" r="3.83" fill="#bd6b20" opacity="0.19"/><circle cx="859.8" cy="29.0" r="2.64" fill="#bd6b20" opacity="0.25"/><circle cx="892.0" cy="30.6" r="1.67" fill="#bd6b20" opacity="0.18"/><circle cx="932.6" cy="28.7" r="2.27" fill="#bd6b20" opacity="0.23"/><circle cx="967.0" cy="31.6" r="2.08" fill="#bd6b20" opacity="0.17"/><circle cx="1001.4" cy="28.7" r="1.64" fill="#bd6b20" opacity="0.17"/><circle cx="1037.8" cy="30.1" r="3.63" fill="#bd6b20" opacity="0.15"/><circle cx="1072.2" cy="29.2" r="3.99" fill="#bd6b20" opacity="0.20"/><circle cx="1107.5" cy="32.9" r="2.51" fill="#bd6b20" opacity="0.16"/><circle cx="1145.4" cy="31.0" r="2.22" fill="#bd6b20" opacity="0.36"/><circle cx="1181.9" cy="32.6" r="3.43" fill="#bd6b20" opacity="0.36"/><circle cx="32.7" cy="68.9" r="3.11" fill="#bd6b20" opacity="0.32"/><circle cx="65.1" cy="64.3" r="2.81" fill="#bd6b20" opacity="0.16"/><circle cx="103.9" cy="64.4" r="3.85" fill="#bd6b20" opacity="0.16"/><circle cx="139.9" cy="68.0" r="2.19" fill="#bd6b20" opacity="0.29"/><circle cx="174.8" cy="68.4" r="1.86" fill="#bd6b20" opacity="0.30"/><circle cx="207.6" cy="66.6" r="2.09" fill="#bd6b20" opacity="0.26"/><circle cx="245.0" cy="65.8" r="1.61" fill="#bd6b20" opacity="0.30"/><circle cx="283.3" cy="64.3" r="2.48" fill="#bd6b20" opacity="0.25"/><circle cx="320.4" cy="68.0" r="2.72" fill="#bd6b20" opacity="0.26"/><circle cx="352.7" cy="66.3" r="3.78" fill="#bd6b20" opacity="0.23"/><circle cx="389.8" cy="65.8" r="3.49" fill="#bd6b20" opacity="0.21"/><circle cx="426.2" cy="65.0" r="1.95" fill="#bd6b20" opacity="0.35"/><circle cx="462.9" cy="63.8" r="2.06" fill="#bd6b20" opacity="0.27"/><circle cx="497.9" cy="64.6" r="3.92" fill="#bd6b20" opacity="0.24"/><circle cx="533.4" cy="67.3" r="1.70" fill="#bd6b20" opacity="0.17"/><circle cx="568.2" cy="66.2" r="1.60" fill="#bd6b20" opacity="0.21"/><circle cx="606.1" cy="64.7" r="4.00" fill="#bd6b20" opacity="0.16"/><circle cx="641.2" cy="64.4" r="3.49" fill="#bd6b20" opacity="0.27"/><circle cx="675.6" cy="65.7" r="2.57" fill="#bd6b20" opacity="0.21"/><circle cx="713.8" cy="64.8" r="3.10" fill="#bd6b20" opacity="0.20"/><circle cx="752.4" cy="67.7" r="3.40" fill="#bd6b20" opacity="0.17"/><circle cx="785.4" cy="66.2" r="1.98" fill="#bd6b20" opacity="0.34"/><circle cx="821.8" cy="66.4" r="3.37" fill="#bd6b20" opacity="0.35"/><circle cx="855.7" cy="63.9" r="2.77" fill="#bd6b20" opacity="0.33"/><circle cx="894.4" cy="65.5" r="2.36" fill="#bd6b20" opacity="0.20"/><circle cx="930.2" cy="63.6" r="2.18" fill="#bd6b20" opacity="0.16"/><circle cx="968.1" cy="66.9" r="3.90" fill="#bd6b20" opacity="0.32"/><circle cx="1002.7" cy="63.4" r="2.76" fill="#bd6b20" opacity="0.31"/><circle cx="1035.8" cy="65.6" r="3.65" fill="#bd6b20" opacity="0.20"/><circle cx="1072.1" cy="67.4" r="1.70" fill="#bd6b20" opacity="0.24"/><circle cx="1108.6" cy="63.5" r="1.91" fill="#bd6b20" opacity="0.23"/><circle cx="1144.4" cy="64.3" r="3.28" fill="#bd6b20" opacity="0.21"/><circle cx="1184.8" cy="66.1" r="2.34" fill="#bd6b20" opacity="0.35"/><circle cx="32.7" cy="104.5" r="2.35" fill="#bd6b20" opacity="0.24"/><circle cx="67.5" cy="102.8" r="3.35" fill="#bd6b20" opacity="0.26"/><circle cx="104.6" cy="103.5" r="3.37" fill="#bd6b20" opacity="0.22"/><circle cx="140.7" cy="101.0" r="2.52" fill="#bd6b20" opacity="0.31"/><circle cx="176.4" cy="100.0" r="2.73" fill="#bd6b20" opacity="0.17"/><circle cx="211.9" cy="101.6" r="3.66" fill="#bd6b20" opacity="0.32"/><circle cx="244.9" cy="102.4" r="2.69" fill="#bd6b20" opacity="0.33"/><circle cx="280.5" cy="101.0" r="2.75" fill="#bd6b20" opacity="0.32"/><circle cx="316.0" cy="100.5" r="2.39" fill="#bd6b20" opacity="0.20"/><circle cx="356.7" cy="99.6" r="3.62" fill="#bd6b20" opacity="0.28"/><circle cx="388.7" cy="101.6" r="3.17" fill="#bd6b20" opacity="0.35"/><circle cx="427.5" cy="104.6" r="2.86" fill="#bd6b20" opacity="0.20"/><circle cx="462.0" cy="100.4" r="3.58" fill="#bd6b20" opacity="0.21"/><circle cx="500.6" cy="104.2" r="2.51" fill="#bd6b20" opacity="0.35"/><circle cx="533.6" cy="102.6" r="2.68" fill="#bd6b20" opacity="0.36"/><circle cx="567.3" cy="101.8" r="2.70" fill="#bd6b20" opacity="0.32"/><circle cx="608.6" cy="103.7" r="1.92" fill="#bd6b20" opacity="0.20"/><circle cx="643.0" cy="99.6" r="3.88" fill="#bd6b20" opacity="0.18"/><circle cx="680.2" cy="99.5" r="2.94" fill="#bd6b20" opacity="0.26"/><circle cx="713.7" cy="101.2" r="3.02" fill="#bd6b20" opacity="0.21"/><circle cx="750.7" cy="101.8" r="2.99" fill="#bd6b20" opacity="0.17"/><circle cx="784.3" cy="101.9" r="3.95" fill="#bd6b20" opacity="0.21"/><circle cx="821.4" cy="104.1" r="1.74" fill="#bd6b20" opacity="0.18"/><circle cx="860.6" cy="103.4" r="3.71" fill="#bd6b20" opacity="0.31"/><circle cx="894.2" cy="100.5" r="3.32" fill="#bd6b20" opacity="0.33"/><circle cx="928.9" cy="99.2" r="2.96" fill="#bd6b20" opacity="0.19"/><circle cx="966.1" cy="103.0" r="2.10" fill="#bd6b20" opacity="0.30"/><circle cx="1003.2" cy="100.3" r="3.15" fill="#bd6b20" opacity="0.27"/><circle cx="1037.6" cy="104.2" r="3.17" fill="#bd6b20" opacity="0.15"/><circle cx="1076.6" cy="102.3" r="2.63" fill="#bd6b20" opacity="0.21"/><circle cx="1109.2" cy="104.2" r="3.32" fill="#bd6b20" opacity="0.33"/><circle cx="1147.0" cy="99.1" r="2.24" fill="#bd6b20" opacity="0.35"/><circle cx="1179.1" cy="103.1" r="3.29" fill="#bd6b20" opacity="0.23"/><circle cx="29.5" cy="135.7" r="2.08" fill="#bd6b20" opacity="0.23"/><circle cx="68.4" cy="139.0" r="1.61" fill="#bd6b20" opacity="0.32"/><circle cx="102.3" cy="137.9" r="2.40" fill="#bd6b20" opacity="0.30"/><circle cx="137.6" cy="138.2" r="2.22" fill="#bd6b20" opacity="0.16"/><circle cx="173.0" cy="136.0" r="1.74" fill="#bd6b20" opacity="0.31"/><circle cx="208.3" cy="136.5" r="2.72" fill="#bd6b20" opacity="0.32"/><circle cx="248.5" cy="139.9" r="3.70" fill="#bd6b20" opacity="0.29"/><circle cx="280.4" cy="137.7" r="3.03" fill="#bd6b20" opacity="0.35"/><circle cx="315.8" cy="139.7" r="3.29" fill="#bd6b20" opacity="0.31"/><circle cx="354.9" cy="139.0" r="1.74" fill="#bd6b20" opacity="0.30"/><circle cx="392.7" cy="140.3" r="3.69" fill="#bd6b20" opacity="0.28"/><circle cx="427.5" cy="140.7" r="2.68" fill="#bd6b20" opacity="0.23"/><circle cx="459.7" cy="137.4" r="2.58" fill="#bd6b20" opacity="0.18"/><circle cx="496.5" cy="138.0" r="3.87" fill="#bd6b20" opacity="0.15"/><circle cx="532.5" cy="141.0" r="2.14" fill="#bd6b20" opacity="0.29"/><circle cx="568.1" cy="139.8" r="3.26" fill="#bd6b20" opacity="0.31"/><circle cx="605.1" cy="139.0" r="3.56" fill="#bd6b20" opacity="0.17"/><circle cx="644.7" cy="137.6" r="2.46" fill="#bd6b20" opacity="0.18"/><circle cx="677.6" cy="139.8" r="2.60" fill="#bd6b20" opacity="0.35"/><circle cx="714.9" cy="138.8" r="1.82" fill="#bd6b20" opacity="0.36"/><circle cx="750.1" cy="136.0" r="2.20" fill="#bd6b20" opacity="0.29"/><circle cx="784.1" cy="136.6" r="2.07" fill="#bd6b20" opacity="0.19"/><circle cx="824.8" cy="136.8" r="1.98" fill="#bd6b20" opacity="0.29"/><circle cx="860.6" cy="139.7" r="2.96" fill="#bd6b20" opacity="0.25"/><circle cx="893.6" cy="137.5" r="1.64" fill="#bd6b20" opacity="0.25"/><circle cx="930.5" cy="140.3" r="2.44" fill="#bd6b20" opacity="0.34"/><circle cx="967.7" cy="136.4" r="2.72" fill="#bd6b20" opacity="0.34"/><circle cx="1004.7" cy="136.3" r="3.50" fill="#bd6b20" opacity="0.34"/><circle cx="1040.9" cy="136.4" r="2.57" fill="#bd6b20" opacity="0.27"/><circle cx="1073.2" cy="137.5" r="3.70" fill="#bd6b20" opacity="0.29"/><circle cx="1112.1" cy="139.0" r="3.21" fill="#bd6b20" opacity="0.26"/><circle cx="1147.8" cy="139.5" r="2.37" fill="#bd6b20" opacity="0.19"/><circle cx="1184.7" cy="137.5" r="3.70" fill="#bd6b20" opacity="0.30"/><circle cx="27.5" cy="175.1" r="1.62" fill="#bd6b20" opacity="0.23"/><circle cx="67.7" cy="172.7" r="2.88" fill="#bd6b20" opacity="0.32"/><circle cx="101.3" cy="171.0" r="1.97" fill="#bd6b20" opacity="0.32"/><circle cx="139.8" cy="171.4" r="2.78" fill="#bd6b20" opacity="0.29"/><circle cx="174.8" cy="175.2" r="3.78" fill="#bd6b20" opacity="0.16"/><circle cx="211.9" cy="174.5" r="1.68" fill="#bd6b20" opacity="0.34"/><circle cx="246.0" cy="176.7" r="3.94" fill="#bd6b20" opacity="0.23"/><circle cx="283.6" cy="173.3" r="1.81" fill="#bd6b20" opacity="0.22"/><circle cx="320.3" cy="172.0" r="3.92" fill="#bd6b20" opacity="0.32"/><circle cx="355.7" cy="175.0" r="3.14" fill="#bd6b20" opacity="0.23"/><circle cx="390.0" cy="173.9" r="2.54" fill="#bd6b20" opacity="0.16"/><circle cx="429.0" cy="176.4" r="2.56" fill="#bd6b20" opacity="0.35"/><circle cx="460.6" cy="173.5" r="3.60" fill="#bd6b20" opacity="0.16"/><circle cx="497.5" cy="174.6" r="2.34" fill="#bd6b20" opacity="0.18"/><circle cx="534.0" cy="172.5" r="2.44" fill="#bd6b20" opacity="0.31"/><circle cx="567.5" cy="175.0" r="3.77" fill="#bd6b20" opacity="0.29"/><circle cx="603.9" cy="172.8" r="2.12" fill="#bd6b20" opacity="0.16"/><circle cx="641.4" cy="174.6" r="2.17" fill="#bd6b20" opacity="0.23"/><circle cx="676.9" cy="174.9" r="2.89" fill="#bd6b20" opacity="0.19"/><circle cx="716.6" cy="175.6" r="1.68" fill="#bd6b20" opacity="0.25"/><circle cx="751.4" cy="174.3" r="3.56" fill="#bd6b20" opacity="0.24"/><circle cx="788.1" cy="173.9" r="2.94" fill="#bd6b20" opacity="0.25"/><circle cx="824.8" cy="173.4" r="2.78" fill="#bd6b20" opacity="0.25"/><circle cx="859.0" cy="175.8" r="3.35" fill="#bd6b20" opacity="0.16"/><circle cx="891.4" cy="175.7" r="2.87" fill="#bd6b20" opacity="0.27"/><circle cx="932.0" cy="172.0" r="3.12" fill="#bd6b20" opacity="0.33"/><circle cx="964.7" cy="171.8" r="3.05" fill="#bd6b20" opacity="0.24"/><circle cx="1003.1" cy="175.1" r="3.30" fill="#bd6b20" opacity="0.16"/><circle cx="1038.3" cy="172.5" r="3.92" fill="#bd6b20" opacity="0.30"/><circle cx="1072.1" cy="174.5" r="2.14" fill="#bd6b20" opacity="0.30"/><circle cx="1109.5" cy="174.5" r="3.72" fill="#bd6b20" opacity="0.30"/><circle cx="1148.1" cy="176.0" r="2.08" fill="#bd6b20" opacity="0.19"/><circle cx="1181.8" cy="173.7" r="1.67" fill="#bd6b20" opacity="0.35"/><circle cx="28.6" cy="211.8" r="2.38" fill="#bd6b20" opacity="0.33"/><circle cx="66.5" cy="211.4" r="1.91" fill="#bd6b20" opacity="0.34"/><circle cx="100.2" cy="208.3" r="3.61" fill="#bd6b20" opacity="0.31"/><circle cx="136.8" cy="209.9" r="3.92" fill="#bd6b20" opacity="0.27"/><circle cx="175.3" cy="208.6" r="2.34" fill="#bd6b20" opacity="0.32"/><circle cx="212.3" cy="209.6" r="2.53" fill="#bd6b20" opacity="0.18"/><circle cx="247.5" cy="210.7" r="2.40" fill="#bd6b20" opacity="0.19"/><circle cx="282.3" cy="211.3" r="3.87" fill="#bd6b20" opacity="0.23"/><circle cx="315.3" cy="208.4" r="2.84" fill="#bd6b20" opacity="0.16"/><circle cx="351.6" cy="207.0" r="3.21" fill="#bd6b20" opacity="0.31"/><circle cx="389.8" cy="208.4" r="3.35" fill="#bd6b20" opacity="0.33"/><circle cx="423.9" cy="211.0" r="2.76" fill="#bd6b20" opacity="0.34"/><circle cx="459.3" cy="212.4" r="2.15" fill="#bd6b20" opacity="0.27"/><circle cx="496.3" cy="212.9" r="2.43" fill="#bd6b20" opacity="0.30"/><circle cx="532.6" cy="208.3" r="2.66" fill="#bd6b20" opacity="0.34"/><circle cx="569.4" cy="211.5" r="3.87" fill="#bd6b20" opacity="0.27"/><circle cx="603.7" cy="207.8" r="3.09" fill="#bd6b20" opacity="0.30"/><circle cx="640.7" cy="210.1" r="3.98" fill="#bd6b20" opacity="0.27"/><circle cx="675.4" cy="210.7" r="3.07" fill="#bd6b20" opacity="0.24"/><circle cx="714.3" cy="212.8" r="3.08" fill="#bd6b20" opacity="0.21"/><circle cx="748.6" cy="210.0" r="2.15" fill="#bd6b20" opacity="0.31"/><circle cx="786.8" cy="210.3" r="2.97" fill="#bd6b20" opacity="0.32"/><circle cx="824.2" cy="208.8" r="3.96" fill="#bd6b20" opacity="0.17"/><circle cx="859.6" cy="208.1" r="3.11" fill="#bd6b20" opacity="0.18"/><circle cx="892.1" cy="211.9" r="2.82" fill="#bd6b20" opacity="0.34"/><circle cx="930.3" cy="212.5" r="2.08" fill="#bd6b20" opacity="0.23"/><circle cx="966.8" cy="209.2" r="3.15" fill="#bd6b20" opacity="0.26"/><circle cx="1004.7" cy="208.4" r="1.67" fill="#bd6b20" opacity="0.20"/><circle cx="1038.5" cy="209.4" r="3.92" fill="#bd6b20" opacity="0.20"/><circle cx="1074.8" cy="208.1" r="1.67" fill="#bd6b20" opacity="0.27"/><circle cx="1109.5" cy="208.1" r="2.35" fill="#bd6b20" opacity="0.35"/><circle cx="1145.4" cy="207.5" r="2.83" fill="#bd6b20" opacity="0.27"/><circle cx="1181.7" cy="212.6" r="1.85" fill="#bd6b20" opacity="0.20"/><circle cx="31.3" cy="244.7" r="3.93" fill="#bd6b20" opacity="0.32"/><circle cx="65.2" cy="243.5" r="3.57" fill="#bd6b20" opacity="0.24"/><circle cx="99.5" cy="246.6" r="1.72" fill="#bd6b20" opacity="0.32"/><circle cx="138.7" cy="248.9" r="1.75" fill="#bd6b20" opacity="0.26"/><circle cx="172.2" cy="245.4" r="1.98" fill="#bd6b20" opacity="0.28"/><circle cx="210.7" cy="243.2" r="3.80" fill="#bd6b20" opacity="0.30"/><circle cx="243.0" cy="247.6" r="1.76" fill="#bd6b20" opacity="0.34"/><circle cx="281.6" cy="244.5" r="2.38" fill="#bd6b20" opacity="0.20"/><circle cx="319.8" cy="246.7" r="2.71" fill="#bd6b20" opacity="0.29"/><circle cx="351.4" cy="246.4" r="3.05" fill="#bd6b20" opacity="0.25"/><circle cx="389.2" cy="248.2" r="2.08" fill="#bd6b20" opacity="0.33"/><circle cx="424.0" cy="247.5" r="3.37" fill="#bd6b20" opacity="0.24"/><circle cx="459.5" cy="246.5" r="3.12" fill="#bd6b20" opacity="0.27"/><circle cx="499.1" cy="246.8" r="2.78" fill="#bd6b20" opacity="0.16"/><circle cx="536.2" cy="244.1" r="2.75" fill="#bd6b20" opacity="0.31"/><circle cx="570.0" cy="248.3" r="1.71" fill="#bd6b20" opacity="0.18"/><circle cx="605.0" cy="245.5" r="2.55" fill="#bd6b20" opacity="0.29"/><circle cx="642.7" cy="245.8" r="2.28" fill="#bd6b20" opacity="0.26"/><circle cx="676.9" cy="248.8" r="2.11" fill="#bd6b20" opacity="0.30"/><circle cx="713.7" cy="246.1" r="2.76" fill="#bd6b20" opacity="0.28"/><circle cx="749.9" cy="248.7" r="3.40" fill="#bd6b20" opacity="0.27"/><circle cx="787.6" cy="244.6" r="3.74" fill="#bd6b20" opacity="0.27"/><circle cx="822.6" cy="246.2" r="1.93" fill="#bd6b20" opacity="0.28"/><circle cx="855.7" cy="245.2" r="2.92" fill="#bd6b20" opacity="0.32"/><circle cx="896.4" cy="244.4" r="3.41" fill="#bd6b20" opacity="0.22"/><circle cx="930.6" cy="245.8" r="3.46" fill="#bd6b20" opacity="0.19"/><circle cx="967.6" cy="248.4" r="2.85" fill="#bd6b20" opacity="0.32"/><circle cx="1002.4" cy="244.1" r="1.61" fill="#bd6b20" opacity="0.35"/><circle cx="1037.2" cy="246.0" r="1.69" fill="#bd6b20" opacity="0.25"/><circle cx="1076.7" cy="248.4" r="2.71" fill="#bd6b20" opacity="0.31"/><circle cx="1109.1" cy="248.2" r="3.57" fill="#bd6b20" opacity="0.22"/><circle cx="1145.5" cy="246.3" r="3.68" fill="#bd6b20" opacity="0.36"/><circle cx="1183.6" cy="248.3" r="3.69" fill="#bd6b20" opacity="0.25"/><circle cx="31.2" cy="280.7" r="3.32" fill="#bd6b20" opacity="0.27"/><circle cx="65.0" cy="281.8" r="2.81" fill="#bd6b20" opacity="0.31"/><circle cx="101.5" cy="283.4" r="2.40" fill="#bd6b20" opacity="0.32"/><circle cx="135.9" cy="284.1" r="3.76" fill="#bd6b20" opacity="0.19"/><circle cx="176.3" cy="284.7" r="3.73" fill="#bd6b20" opacity="0.21"/><circle cx="212.2" cy="281.2" r="3.30" fill="#bd6b20" opacity="0.32"/><circle cx="248.2" cy="282.6" r="1.88" fill="#bd6b20" opacity="0.30"/><circle cx="282.3" cy="281.5" r="2.54" fill="#bd6b20" opacity="0.15"/><circle cx="316.5" cy="283.4" r="3.07" fill="#bd6b20" opacity="0.25"/><circle cx="353.4" cy="280.5" r="2.20" fill="#bd6b20" opacity="0.21"/><circle cx="387.8" cy="282.0" r="2.16" fill="#bd6b20" opacity="0.32"/><circle cx="428.3" cy="281.5" r="3.04" fill="#bd6b20" opacity="0.30"/><circle cx="462.2" cy="280.7" r="3.47" fill="#bd6b20" opacity="0.36"/><circle cx="495.0" cy="279.0" r="3.80" fill="#bd6b20" opacity="0.19"/><circle cx="533.7" cy="281.8" r="3.21" fill="#bd6b20" opacity="0.19"/><circle cx="572.6" cy="281.9" r="3.09" fill="#bd6b20" opacity="0.30"/><circle cx="603.1" cy="284.0" r="3.27" fill="#bd6b20" opacity="0.34"/><circle cx="640.9" cy="284.7" r="2.09" fill="#bd6b20" opacity="0.34"/><circle cx="678.8" cy="284.4" r="1.97" fill="#bd6b20" opacity="0.29"/><circle cx="716.2" cy="283.1" r="2.70" fill="#bd6b20" opacity="0.21"/><circle cx="749.4" cy="281.0" r="2.12" fill="#bd6b20" opacity="0.29"/><circle cx="788.6" cy="281.8" r="3.43" fill="#bd6b20" opacity="0.25"/><circle cx="824.0" cy="284.1" r="2.57" fill="#bd6b20" opacity="0.25"/><circle cx="856.7" cy="283.3" r="3.60" fill="#bd6b20" opacity="0.31"/><circle cx="896.6" cy="282.0" r="2.16" fill="#bd6b20" opacity="0.22"/><circle cx="929.7" cy="279.6" r="2.90" fill="#bd6b20" opacity="0.27"/><circle cx="967.9" cy="280.5" r="2.46" fill="#bd6b20" opacity="0.23"/><circle cx="1001.2" cy="283.3" r="2.66" fill="#bd6b20" opacity="0.21"/><circle cx="1040.3" cy="281.6" r="3.91" fill="#bd6b20" opacity="0.18"/><circle cx="1073.9" cy="284.4" r="3.45" fill="#bd6b20" opacity="0.23"/><circle cx="1112.9" cy="283.3" r="2.24" fill="#bd6b20" opacity="0.31"/><circle cx="1148.2" cy="284.5" r="1.82" fill="#bd6b20" opacity="0.21"/><circle cx="1182.3" cy="284.4" r="3.71" fill="#bd6b20" opacity="0.28"/><circle cx="32.9" cy="320.3" r="2.17" fill="#bd6b20" opacity="0.23"/><circle cx="63.8" cy="315.6" r="1.66" fill="#bd6b20" opacity="0.20"/><circle cx="104.2" cy="317.3" r="1.81" fill="#bd6b20" opacity="0.19"/><circle cx="140.3" cy="316.8" r="3.88" fill="#bd6b20" opacity="0.35"/><circle cx="174.2" cy="316.7" r="2.98" fill="#bd6b20" opacity="0.16"/><circle cx="211.2" cy="317.5" r="3.49" fill="#bd6b20" opacity="0.22"/><circle cx="245.7" cy="318.3" r="2.23" fill="#bd6b20" opacity="0.36"/><circle cx="284.8" cy="315.5" r="2.36" fill="#bd6b20" opacity="0.32"/><circle cx="316.1" cy="319.5" r="3.17" fill="#bd6b20" opacity="0.31"/><circle cx="354.3" cy="315.8" r="3.37" fill="#bd6b20" opacity="0.33"/><circle cx="389.5" cy="315.9" r="2.30" fill="#bd6b20" opacity="0.29"/><circle cx="427.0" cy="318.0" r="2.99" fill="#bd6b20" opacity="0.21"/><circle cx="464.2" cy="319.4" r="3.66" fill="#bd6b20" opacity="0.20"/><circle cx="495.7" cy="318.5" r="2.86" fill="#bd6b20" opacity="0.18"/><circle cx="535.2" cy="315.1" r="3.20" fill="#bd6b20" opacity="0.22"/><circle cx="567.1" cy="317.9" r="3.27" fill="#bd6b20" opacity="0.28"/><circle cx="608.4" cy="317.8" r="3.38" fill="#bd6b20" opacity="0.18"/><circle cx="644.2" cy="316.7" r="2.29" fill="#bd6b20" opacity="0.23"/><circle cx="680.0" cy="317.1" r="3.34" fill="#bd6b20" opacity="0.25"/><circle cx="714.5" cy="315.1" r="2.40" fill="#bd6b20" opacity="0.25"/><circle cx="751.3" cy="319.5" r="2.27" fill="#bd6b20" opacity="0.18"/><circle cx="786.1" cy="317.3" r="2.40" fill="#bd6b20" opacity="0.17"/><circle cx="821.8" cy="320.5" r="3.75" fill="#bd6b20" opacity="0.33"/><circle cx="856.5" cy="318.5" r="2.05" fill="#bd6b20" opacity="0.22"/><circle cx="894.1" cy="315.7" r="2.35" fill="#bd6b20" opacity="0.33"/><circle cx="928.6" cy="315.1" r="3.32" fill="#bd6b20" opacity="0.18"/><circle cx="965.7" cy="317.0" r="3.76" fill="#bd6b20" opacity="0.26"/><circle cx="1001.6" cy="316.3" r="3.88" fill="#bd6b20" opacity="0.23"/><circle cx="1037.0" cy="318.4" r="2.42" fill="#bd6b20" opacity="0.31"/><circle cx="1073.1" cy="318.6" r="3.27" fill="#bd6b20" opacity="0.23"/><circle cx="1108.4" cy="317.4" r="1.73" fill="#bd6b20" opacity="0.16"/><circle cx="1146.9" cy="317.7" r="3.02" fill="#bd6b20" opacity="0.26"/><circle cx="1180.8" cy="317.6" r="3.28" fill="#bd6b20" opacity="0.26"/><circle cx="31.9" cy="351.9" r="1.87" fill="#bd6b20" opacity="0.25"/><circle cx="63.4" cy="356.6" r="2.54" fill="#bd6b20" opacity="0.29"/><circle cx="103.0" cy="354.6" r="1.83" fill="#bd6b20" opacity="0.20"/><circle cx="138.8" cy="356.7" r="2.34" fill="#bd6b20" opacity="0.24"/><circle cx="176.5" cy="355.2" r="3.50" fill="#bd6b20" opacity="0.32"/><circle cx="211.5" cy="351.4" r="2.04" fill="#bd6b20" opacity="0.25"/><circle cx="246.1" cy="353.4" r="2.91" fill="#bd6b20" opacity="0.24"/><circle cx="280.9" cy="354.5" r="1.75" fill="#bd6b20" opacity="0.31"/><circle cx="319.1" cy="356.2" r="1.95" fill="#bd6b20" opacity="0.23"/><circle cx="353.4" cy="351.9" r="3.77" fill="#bd6b20" opacity="0.20"/><circle cx="392.3" cy="352.5" r="3.41" fill="#bd6b20" opacity="0.34"/><circle cx="427.0" cy="351.8" r="3.42" fill="#bd6b20" opacity="0.19"/><circle cx="459.2" cy="355.2" r="3.75" fill="#bd6b20" opacity="0.28"/><circle cx="500.3" cy="353.6" r="3.67" fill="#bd6b20" opacity="0.32"/><circle cx="533.6" cy="351.6" r="1.75" fill="#bd6b20" opacity="0.16"/><circle cx="568.6" cy="356.1" r="2.20" fill="#bd6b20" opacity="0.18"/><circle cx="603.9" cy="353.5" r="1.65" fill="#bd6b20" opacity="0.26"/><circle cx="641.9" cy="355.8" r="3.09" fill="#bd6b20" opacity="0.34"/><circle cx="679.9" cy="355.1" r="3.21" fill="#bd6b20" opacity="0.19"/><circle cx="711.2" cy="352.4" r="1.81" fill="#bd6b20" opacity="0.24"/><circle cx="748.5" cy="351.6" r="3.19" fill="#bd6b20" opacity="0.34"/><circle cx="785.1" cy="355.4" r="3.05" fill="#bd6b20" opacity="0.24"/><circle cx="819.3" cy="355.6" r="1.60" fill="#bd6b20" opacity="0.28"/><circle cx="856.0" cy="355.7" r="3.28" fill="#bd6b20" opacity="0.27"/><circle cx="894.1" cy="355.9" r="2.75" fill="#bd6b20" opacity="0.19"/><circle cx="929.7" cy="354.4" r="2.01" fill="#bd6b20" opacity="0.30"/><circle cx="967.9" cy="352.5" r="2.19" fill="#bd6b20" opacity="0.29"/><circle cx="1001.5" cy="355.8" r="2.70" fill="#bd6b20" opacity="0.25"/><circle cx="1036.7" cy="353.3" r="1.94" fill="#bd6b20" opacity="0.16"/><circle cx="1074.6" cy="356.9" r="2.00" fill="#bd6b20" opacity="0.31"/><circle cx="1108.3" cy="353.6" r="2.31" fill="#bd6b20" opacity="0.22"/><circle cx="1143.8" cy="353.3" r="1.97" fill="#bd6b20" opacity="0.18"/><circle cx="1181.8" cy="354.6" r="2.22" fill="#bd6b20" opacity="0.18"/><circle cx="32.1" cy="392.8" r="2.72" fill="#bd6b20" opacity="0.29"/><circle cx="63.6" cy="391.8" r="2.37" fill="#bd6b20" opacity="0.30"/><circle cx="104.6" cy="387.4" r="3.63" fill="#bd6b20" opacity="0.28"/><circle cx="137.1" cy="392.2" r="2.56" fill="#bd6b20" opacity="0.24"/><circle cx="175.1" cy="387.7" r="2.95" fill="#bd6b20" opacity="0.28"/><circle cx="207.7" cy="391.7" r="2.74" fill="#bd6b20" opacity="0.23"/><circle cx="245.0" cy="388.0" r="3.43" fill="#bd6b20" opacity="0.34"/><circle cx="280.0" cy="388.4" r="2.48" fill="#bd6b20" opacity="0.34"/><circle cx="317.3" cy="392.9" r="1.82" fill="#bd6b20" opacity="0.34"/><circle cx="353.2" cy="387.8" r="2.72" fill="#bd6b20" opacity="0.21"/><circle cx="391.8" cy="392.6" r="2.46" fill="#bd6b20" opacity="0.22"/><circle cx="427.6" cy="391.5" r="3.24" fill="#bd6b20" opacity="0.27"/><circle cx="462.8" cy="392.6" r="3.98" fill="#bd6b20" opacity="0.35"/><circle cx="498.3" cy="390.0" r="2.42" fill="#bd6b20" opacity="0.27"/><circle cx="536.3" cy="389.6" r="3.26" fill="#bd6b20" opacity="0.33"/><circle cx="569.2" cy="392.3" r="2.26" fill="#bd6b20" opacity="0.25"/><circle cx="603.7" cy="388.2" r="1.96" fill="#bd6b20" opacity="0.27"/><circle cx="644.4" cy="392.3" r="3.75" fill="#bd6b20" opacity="0.33"/><circle cx="678.2" cy="388.1" r="3.00" fill="#bd6b20" opacity="0.22"/><circle cx="716.4" cy="387.8" r="3.44" fill="#bd6b20" opacity="0.22"/><circle cx="752.1" cy="389.0" r="2.60" fill="#bd6b20" opacity="0.26"/><circle cx="788.6" cy="387.6" r="1.69" fill="#bd6b20" opacity="0.34"/><circle cx="821.7" cy="389.9" r="3.66" fill="#bd6b20" opacity="0.36"/><circle cx="857.0" cy="389.8" r="3.95" fill="#bd6b20" opacity="0.32"/><circle cx="892.2" cy="390.1" r="3.32" fill="#bd6b20" opacity="0.36"/><circle cx="929.4" cy="390.4" r="2.79" fill="#bd6b20" opacity="0.21"/><circle cx="966.5" cy="392.7" r="3.60" fill="#bd6b20" opacity="0.33"/><circle cx="1000.6" cy="387.8" r="3.35" fill="#bd6b20" opacity="0.24"/><circle cx="1035.0" cy="390.0" r="3.38" fill="#bd6b20" opacity="0.36"/><circle cx="1076.7" cy="391.2" r="1.94" fill="#bd6b20" opacity="0.35"/><circle cx="1108.5" cy="392.7" r="1.98" fill="#bd6b20" opacity="0.32"/><circle cx="1148.3" cy="387.1" r="3.05" fill="#bd6b20" opacity="0.34"/><circle cx="1184.5" cy="389.5" r="2.74" fill="#bd6b20" opacity="0.27"/><circle cx="31.0" cy="425.7" r="1.64" fill="#bd6b20" opacity="0.18"/><circle cx="68.4" cy="424.5" r="3.84" fill="#bd6b20" opacity="0.17"/><circle cx="100.1" cy="428.7" r="1.92" fill="#bd6b20" opacity="0.23"/><circle cx="138.6" cy="424.5" r="1.77" fill="#bd6b20" opacity="0.32"/><circle cx="173.2" cy="428.7" r="2.32" fill="#bd6b20" opacity="0.30"/><circle cx="209.8" cy="429.0" r="3.87" fill="#bd6b20" opacity="0.19"/><circle cx="243.2" cy="427.8" r="3.51" fill="#bd6b20" opacity="0.32"/><circle cx="280.7" cy="425.0" r="2.08" fill="#bd6b20" opacity="0.20"/><circle cx="315.8" cy="425.0" r="2.43" fill="#bd6b20" opacity="0.18"/><circle cx="354.9" cy="428.5" r="1.90" fill="#bd6b20" opacity="0.23"/><circle cx="390.2" cy="425.0" r="2.80" fill="#bd6b20" opacity="0.16"/><circle cx="423.5" cy="428.0" r="2.46" fill="#bd6b20" opacity="0.30"/><circle cx="460.8" cy="424.4" r="3.21" fill="#bd6b20" opacity="0.18"/><circle cx="499.0" cy="427.2" r="2.27" fill="#bd6b20" opacity="0.25"/><circle cx="532.2" cy="426.1" r="3.49" fill="#bd6b20" opacity="0.17"/><circle cx="568.7" cy="423.7" r="3.94" fill="#bd6b20" opacity="0.35"/><circle cx="608.6" cy="423.1" r="1.93" fill="#bd6b20" opacity="0.30"/><circle cx="642.7" cy="425.6" r="3.07" fill="#bd6b20" opacity="0.29"/><circle cx="677.6" cy="424.0" r="2.35" fill="#bd6b20" opacity="0.33"/><circle cx="716.9" cy="426.3" r="2.10" fill="#bd6b20" opacity="0.31"/><circle cx="752.3" cy="427.0" r="3.32" fill="#bd6b20" opacity="0.19"/><circle cx="785.0" cy="428.5" r="2.85" fill="#bd6b20" opacity="0.27"/><circle cx="819.6" cy="428.0" r="2.53" fill="#bd6b20" opacity="0.33"/><circle cx="856.2" cy="424.3" r="3.19" fill="#bd6b20" opacity="0.33"/><circle cx="892.6" cy="429.0" r="3.68" fill="#bd6b20" opacity="0.16"/><circle cx="927.2" cy="425.4" r="3.58" fill="#bd6b20" opacity="0.21"/><circle cx="963.3" cy="423.2" r="3.87" fill="#bd6b20" opacity="0.26"/><circle cx="1002.2" cy="427.2" r="1.95" fill="#bd6b20" opacity="0.29"/><circle cx="1039.1" cy="427.2" r="3.80" fill="#bd6b20" opacity="0.30"/><circle cx="1076.0" cy="425.8" r="2.07" fill="#bd6b20" opacity="0.25"/><circle cx="1107.2" cy="426.1" r="2.70" fill="#bd6b20" opacity="0.17"/><circle cx="1145.8" cy="426.0" r="1.78" fill="#bd6b20" opacity="0.34"/><circle cx="1183.6" cy="425.9" r="2.13" fill="#bd6b20" opacity="0.18"/><circle cx="31.1" cy="461.6" r="3.94" fill="#bd6b20" opacity="0.28"/><circle cx="64.0" cy="460.3" r="3.58" fill="#bd6b20" opacity="0.25"/><circle cx="103.2" cy="459.6" r="3.31" fill="#bd6b20" opacity="0.21"/><circle cx="137.3" cy="464.7" r="2.55" fill="#bd6b20" opacity="0.32"/><circle cx="173.0" cy="459.9" r="2.67" fill="#bd6b20" opacity="0.24"/><circle cx="212.9" cy="460.1" r="3.37" fill="#bd6b20" opacity="0.24"/><circle cx="246.2" cy="464.5" r="2.77" fill="#bd6b20" opacity="0.28"/><circle cx="282.2" cy="459.5" r="3.87" fill="#bd6b20" opacity="0.18"/><circle cx="315.7" cy="460.3" r="2.75" fill="#bd6b20" opacity="0.21"/><circle cx="356.4" cy="463.0" r="3.71" fill="#bd6b20" opacity="0.27"/><circle cx="390.2" cy="460.5" r="2.56" fill="#bd6b20" opacity="0.21"/><circle cx="424.4" cy="463.3" r="2.45" fill="#bd6b20" opacity="0.24"/><circle cx="463.2" cy="461.3" r="3.24" fill="#bd6b20" opacity="0.32"/><circle cx="499.1" cy="463.3" r="2.17" fill="#bd6b20" opacity="0.30"/><circle cx="535.5" cy="462.0" r="2.88" fill="#bd6b20" opacity="0.34"/><circle cx="571.5" cy="462.7" r="3.52" fill="#bd6b20" opacity="0.19"/><circle cx="608.4" cy="464.5" r="2.94" fill="#bd6b20" opacity="0.26"/><circle cx="640.4" cy="462.6" r="3.38" fill="#bd6b20" opacity="0.27"/><circle cx="675.3" cy="461.8" r="2.70" fill="#bd6b20" opacity="0.19"/><circle cx="714.5" cy="459.5" r="1.68" fill="#bd6b20" opacity="0.31"/><circle cx="748.1" cy="460.1" r="1.98" fill="#bd6b20" opacity="0.33"/><circle cx="784.9" cy="464.4" r="2.21" fill="#bd6b20" opacity="0.21"/><circle cx="821.4" cy="462.2" r="2.77" fill="#bd6b20" opacity="0.29"/><circle cx="860.0" cy="464.6" r="3.94" fill="#bd6b20" opacity="0.15"/><circle cx="896.0" cy="463.5" r="2.40" fill="#bd6b20" opacity="0.24"/><circle cx="927.8" cy="460.1" r="2.42" fill="#bd6b20" opacity="0.32"/><circle cx="965.5" cy="460.0" r="2.87" fill="#bd6b20" opacity="0.23"/><circle cx="1004.3" cy="460.9" r="2.54" fill="#bd6b20" opacity="0.33"/><circle cx="1036.7" cy="461.0" r="2.10" fill="#bd6b20" opacity="0.21"/><circle cx="1076.7" cy="463.8" r="3.32" fill="#bd6b20" opacity="0.33"/><circle cx="1108.7" cy="462.9" r="3.76" fill="#bd6b20" opacity="0.36"/><circle cx="1145.2" cy="460.5" r="1.76" fill="#bd6b20" opacity="0.36"/><circle cx="1179.6" cy="464.7" r="1.94" fill="#bd6b20" opacity="0.34"/><circle cx="31.6" cy="497.2" r="1.84" fill="#bd6b20" opacity="0.17"/><circle cx="65.6" cy="497.6" r="1.97" fill="#bd6b20" opacity="0.15"/><circle cx="103.8" cy="495.8" r="2.54" fill="#bd6b20" opacity="0.32"/><circle cx="138.9" cy="498.8" r="2.86" fill="#bd6b20" opacity="0.19"/><circle cx="172.5" cy="495.5" r="3.12" fill="#bd6b20" opacity="0.17"/><circle cx="211.2" cy="497.0" r="1.96" fill="#bd6b20" opacity="0.32"/><circle cx="246.7" cy="498.7" r="2.12" fill="#bd6b20" opacity="0.26"/><circle cx="279.8" cy="499.6" r="3.66" fill="#bd6b20" opacity="0.25"/><circle cx="315.8" cy="500.4" r="3.60" fill="#bd6b20" opacity="0.36"/><circle cx="351.3" cy="496.6" r="3.87" fill="#bd6b20" opacity="0.31"/><circle cx="390.4" cy="497.8" r="3.84" fill="#bd6b20" opacity="0.32"/><circle cx="423.9" cy="500.0" r="2.99" fill="#bd6b20" opacity="0.29"/><circle cx="461.9" cy="495.8" r="1.64" fill="#bd6b20" opacity="0.32"/><circle cx="499.1" cy="497.7" r="2.43" fill="#bd6b20" opacity="0.15"/><circle cx="536.1" cy="497.4" r="1.93" fill="#bd6b20" opacity="0.25"/><circle cx="570.1" cy="496.5" r="3.20" fill="#bd6b20" opacity="0.26"/><circle cx="604.3" cy="496.3" r="3.45" fill="#bd6b20" opacity="0.25"/><circle cx="641.7" cy="497.5" r="3.21" fill="#bd6b20" opacity="0.31"/><circle cx="675.5" cy="499.1" r="3.32" fill="#bd6b20" opacity="0.20"/><circle cx="712.0" cy="499.0" r="2.78" fill="#bd6b20" opacity="0.19"/><circle cx="747.1" cy="496.5" r="2.26" fill="#bd6b20" opacity="0.22"/><circle cx="788.0" cy="498.8" r="2.59" fill="#bd6b20" opacity="0.31"/><circle cx="824.6" cy="498.5" r="2.78" fill="#bd6b20" opacity="0.29"/><circle cx="858.7" cy="499.5" r="3.53" fill="#bd6b20" opacity="0.34"/><circle cx="891.1" cy="495.9" r="2.81" fill="#bd6b20" opacity="0.16"/><circle cx="932.9" cy="499.0" r="3.31" fill="#bd6b20" opacity="0.17"/><circle cx="967.6" cy="499.8" r="2.61" fill="#bd6b20" opacity="0.17"/><circle cx="1004.6" cy="495.2" r="1.81" fill="#bd6b20" opacity="0.15"/><circle cx="1038.1" cy="495.5" r="1.64" fill="#bd6b20" opacity="0.24"/><circle cx="1071.1" cy="495.8" r="3.07" fill="#bd6b20" opacity="0.29"/><circle cx="1110.3" cy="498.3" r="1.65" fill="#bd6b20" opacity="0.23"/><circle cx="1146.8" cy="495.0" r="2.45" fill="#bd6b20" opacity="0.21"/><circle cx="1179.1" cy="500.1" r="2.16" fill="#bd6b20" opacity="0.21"/><circle cx="27.8" cy="531.8" r="1.77" fill="#bd6b20" opacity="0.23"/><circle cx="68.6" cy="533.6" r="2.08" fill="#bd6b20" opacity="0.32"/><circle cx="99.5" cy="536.9" r="2.84" fill="#bd6b20" opacity="0.27"/><circle cx="137.6" cy="531.1" r="3.07" fill="#bd6b20" opacity="0.23"/><circle cx="176.1" cy="536.6" r="3.30" fill="#bd6b20" opacity="0.31"/><circle cx="210.4" cy="531.5" r="2.40" fill="#bd6b20" opacity="0.29"/><circle cx="243.0" cy="532.3" r="3.73" fill="#bd6b20" opacity="0.34"/><circle cx="281.9" cy="534.8" r="2.54" fill="#bd6b20" opacity="0.36"/><circle cx="319.1" cy="533.7" r="2.17" fill="#bd6b20" opacity="0.28"/><circle cx="355.6" cy="532.4" r="1.80" fill="#bd6b20" opacity="0.31"/><circle cx="391.2" cy="536.6" r="3.17" fill="#bd6b20" opacity="0.22"/><circle cx="428.0" cy="534.0" r="1.81" fill="#bd6b20" opacity="0.18"/><circle cx="462.4" cy="531.2" r="1.65" fill="#bd6b20" opacity="0.17"/><circle cx="498.8" cy="531.0" r="1.66" fill="#bd6b20" opacity="0.19"/><circle cx="534.9" cy="531.4" r="2.25" fill="#bd6b20" opacity="0.23"/><circle cx="571.7" cy="532.1" r="3.18" fill="#bd6b20" opacity="0.28"/><circle cx="607.9" cy="536.0" r="3.48" fill="#bd6b20" opacity="0.16"/><circle cx="642.2" cy="535.5" r="3.72" fill="#bd6b20" opacity="0.17"/><circle cx="678.6" cy="534.7" r="1.86" fill="#bd6b20" opacity="0.20"/><circle cx="713.9" cy="531.3" r="3.01" fill="#bd6b20" opacity="0.32"/><circle cx="749.4" cy="536.8" r="1.91" fill="#bd6b20" opacity="0.19"/><circle cx="783.9" cy="536.4" r="2.85" fill="#bd6b20" opacity="0.19"/><circle cx="819.7" cy="532.9" r="1.96" fill="#bd6b20" opacity="0.20"/><circle cx="858.4" cy="531.4" r="3.64" fill="#bd6b20" opacity="0.26"/><circle cx="896.2" cy="535.9" r="3.29" fill="#bd6b20" opacity="0.26"/><circle cx="928.4" cy="534.3" r="3.89" fill="#bd6b20" opacity="0.33"/><circle cx="965.4" cy="532.5" r="3.11" fill="#bd6b20" opacity="0.26"/><circle cx="1001.6" cy="532.9" r="1.82" fill="#bd6b20" opacity="0.16"/><circle cx="1040.2" cy="534.4" r="2.90" fill="#bd6b20" opacity="0.31"/><circle cx="1073.1" cy="536.3" r="2.74" fill="#bd6b20" opacity="0.30"/><circle cx="1108.4" cy="535.6" r="2.96" fill="#bd6b20" opacity="0.26"/><circle cx="1145.4" cy="536.7" r="2.64" fill="#bd6b20" opacity="0.30"/><circle cx="1182.4" cy="532.5" r="3.04" fill="#bd6b20" opacity="0.29"/><circle cx="29.8" cy="567.2" r="3.01" fill="#bd6b20" opacity="0.23"/><circle cx="68.5" cy="570.7" r="3.24" fill="#bd6b20" opacity="0.24"/><circle cx="103.0" cy="568.3" r="3.75" fill="#bd6b20" opacity="0.16"/><circle cx="135.5" cy="570.4" r="3.51" fill="#bd6b20" opacity="0.25"/><circle cx="176.1" cy="571.1" r="3.20" fill="#bd6b20" opacity="0.24"/><circle cx="211.0" cy="567.2" r="1.75" fill="#bd6b20" opacity="0.29"/><circle cx="247.1" cy="570.0" r="1.97" fill="#bd6b20" opacity="0.34"/><circle cx="279.2" cy="572.0" r="2.01" fill="#bd6b20" opacity="0.21"/><circle cx="315.4" cy="568.0" r="2.93" fill="#bd6b20" opacity="0.25"/><circle cx="351.6" cy="570.8" r="3.55" fill="#bd6b20" opacity="0.16"/><circle cx="390.1" cy="569.3" r="3.73" fill="#bd6b20" opacity="0.28"/><circle cx="423.6" cy="572.7" r="3.96" fill="#bd6b20" opacity="0.20"/><circle cx="460.1" cy="571.5" r="1.98" fill="#bd6b20" opacity="0.33"/><circle cx="500.8" cy="568.6" r="3.68" fill="#bd6b20" opacity="0.32"/><circle cx="532.2" cy="569.5" r="2.23" fill="#bd6b20" opacity="0.18"/><circle cx="569.4" cy="572.7" r="2.91" fill="#bd6b20" opacity="0.27"/><circle cx="608.6" cy="568.2" r="2.22" fill="#bd6b20" opacity="0.18"/><circle cx="639.6" cy="572.6" r="2.42" fill="#bd6b20" opacity="0.21"/><circle cx="680.4" cy="569.6" r="2.85" fill="#bd6b20" opacity="0.17"/><circle cx="711.5" cy="572.0" r="1.68" fill="#bd6b20" opacity="0.21"/><circle cx="749.9" cy="571.9" r="3.65" fill="#bd6b20" opacity="0.28"/><circle cx="785.7" cy="567.9" r="2.32" fill="#bd6b20" opacity="0.34"/><circle cx="824.7" cy="570.3" r="2.82" fill="#bd6b20" opacity="0.21"/><circle cx="857.0" cy="569.5" r="2.16" fill="#bd6b20" opacity="0.22"/><circle cx="891.2" cy="567.1" r="3.20" fill="#bd6b20" opacity="0.24"/><circle cx="929.7" cy="569.1" r="3.51" fill="#bd6b20" opacity="0.33"/><circle cx="966.5" cy="572.4" r="3.77" fill="#bd6b20" opacity="0.15"/><circle cx="1001.1" cy="572.0" r="3.22" fill="#bd6b20" opacity="0.35"/><circle cx="1038.2" cy="569.4" r="2.87" fill="#bd6b20" opacity="0.22"/><circle cx="1072.4" cy="567.6" r="2.21" fill="#bd6b20" opacity="0.19"/><circle cx="1111.9" cy="567.9" r="3.24" fill="#bd6b20" opacity="0.35"/><circle cx="1146.8" cy="572.8" r="2.45" fill="#bd6b20" opacity="0.20"/><circle cx="1183.0" cy="572.5" r="2.37" fill="#bd6b20" opacity="0.32"/><circle cx="29.3" cy="607.4" r="1.76" fill="#bd6b20" opacity="0.32"/><circle cx="65.6" cy="606.6" r="2.11" fill="#bd6b20" opacity="0.27"/><circle cx="101.1" cy="604.7" r="3.94" fill="#bd6b20" opacity="0.22"/><circle cx="138.0" cy="603.6" r="3.71" fill="#bd6b20" opacity="0.25"/><circle cx="174.3" cy="605.7" r="2.08" fill="#bd6b20" opacity="0.20"/><circle cx="211.8" cy="605.6" r="3.12" fill="#bd6b20" opacity="0.16"/><circle cx="247.9" cy="603.2" r="2.65" fill="#bd6b20" opacity="0.18"/><circle cx="281.6" cy="603.3" r="1.98" fill="#bd6b20" opacity="0.23"/><circle cx="320.7" cy="608.8" r="1.88" fill="#bd6b20" opacity="0.18"/><circle cx="353.5" cy="607.5" r="3.78" fill="#bd6b20" opacity="0.21"/><circle cx="392.1" cy="603.2" r="3.78" fill="#bd6b20" opacity="0.32"/><circle cx="426.5" cy="608.4" r="2.82" fill="#bd6b20" opacity="0.32"/><circle cx="459.3" cy="608.3" r="3.43" fill="#bd6b20" opacity="0.30"/><circle cx="495.5" cy="606.2" r="3.56" fill="#bd6b20" opacity="0.29"/><circle cx="533.6" cy="607.0" r="3.89" fill="#bd6b20" opacity="0.36"/><circle cx="571.3" cy="603.3" r="3.53" fill="#bd6b20" opacity="0.31"/><circle cx="606.9" cy="606.8" r="2.72" fill="#bd6b20" opacity="0.29"/><circle cx="643.1" cy="604.4" r="2.68" fill="#bd6b20" opacity="0.29"/><circle cx="675.0" cy="603.2" r="1.61" fill="#bd6b20" opacity="0.17"/><circle cx="717.0" cy="603.1" r="3.50" fill="#bd6b20" opacity="0.20"/><circle cx="747.6" cy="606.9" r="3.57" fill="#bd6b20" opacity="0.26"/><circle cx="783.2" cy="608.6" r="3.25" fill="#bd6b20" opacity="0.29"/><circle cx="823.3" cy="604.9" r="3.33" fill="#bd6b20" opacity="0.24"/><circle cx="857.4" cy="605.5" r="1.77" fill="#bd6b20" opacity="0.32"/><circle cx="896.0" cy="608.6" r="2.99" fill="#bd6b20" opacity="0.21"/><circle cx="932.6" cy="605.8" r="2.02" fill="#bd6b20" opacity="0.22"/><circle cx="965.7" cy="608.4" r="1.82" fill="#bd6b20" opacity="0.29"/><circle cx="1001.5" cy="604.7" r="3.64" fill="#bd6b20" opacity="0.17"/><circle cx="1036.2" cy="603.5" r="2.76" fill="#bd6b20" opacity="0.16"/><circle cx="1076.4" cy="607.8" r="3.55" fill="#bd6b20" opacity="0.23"/><circle cx="1110.9" cy="604.2" r="1.63" fill="#bd6b20" opacity="0.28"/><circle cx="1143.9" cy="607.3" r="2.02" fill="#bd6b20" opacity="0.34"/><circle cx="1179.3" cy="605.4" r="1.81" fill="#bd6b20" opacity="0.30"/><circle cx="27.8" cy="644.9" r="3.41" fill="#bd6b20" opacity="0.17"/><circle cx="64.8" cy="643.0" r="3.88" fill="#bd6b20" opacity="0.18"/><circle cx="102.1" cy="640.0" r="2.31" fill="#bd6b20" opacity="0.22"/><circle cx="137.3" cy="639.3" r="2.36" fill="#bd6b20" opacity="0.21"/><circle cx="173.7" cy="643.2" r="2.46" fill="#bd6b20" opacity="0.30"/><circle cx="210.3" cy="639.6" r="2.53" fill="#bd6b20" opacity="0.30"/><circle cx="244.6" cy="643.5" r="3.32" fill="#bd6b20" opacity="0.19"/><circle cx="282.0" cy="643.4" r="3.36" fill="#bd6b20" opacity="0.34"/><circle cx="315.1" cy="643.6" r="2.48" fill="#bd6b20" opacity="0.21"/><circle cx="356.0" cy="644.4" r="2.97" fill="#bd6b20" opacity="0.34"/><circle cx="389.0" cy="643.8" r="2.66" fill="#bd6b20" opacity="0.29"/><circle cx="426.6" cy="643.3" r="3.42" fill="#bd6b20" opacity="0.17"/><circle cx="460.5" cy="640.5" r="3.44" fill="#bd6b20" opacity="0.18"/><circle cx="500.7" cy="643.2" r="3.83" fill="#bd6b20" opacity="0.17"/><circle cx="535.8" cy="644.0" r="3.49" fill="#bd6b20" opacity="0.23"/><circle cx="572.7" cy="639.7" r="3.26" fill="#bd6b20" opacity="0.32"/><circle cx="607.2" cy="641.3" r="1.90" fill="#bd6b20" opacity="0.34"/><circle cx="639.5" cy="642.3" r="3.00" fill="#bd6b20" opacity="0.32"/><circle cx="679.6" cy="643.5" r="3.84" fill="#bd6b20" opacity="0.27"/><circle cx="716.2" cy="644.6" r="1.66" fill="#bd6b20" opacity="0.18"/><circle cx="747.3" cy="641.9" r="2.19" fill="#bd6b20" opacity="0.19"/><circle cx="787.2" cy="640.2" r="2.93" fill="#bd6b20" opacity="0.20"/><circle cx="821.5" cy="643.7" r="1.87" fill="#bd6b20" opacity="0.20"/><circle cx="855.8" cy="643.5" r="2.75" fill="#bd6b20" opacity="0.20"/><circle cx="894.4" cy="644.5" r="1.74" fill="#bd6b20" opacity="0.28"/><circle cx="929.5" cy="639.7" r="3.08" fill="#bd6b20" opacity="0.19"/><circle cx="967.3" cy="643.0" r="2.32" fill="#bd6b20" opacity="0.30"/><circle cx="999.7" cy="641.8" r="3.07" fill="#bd6b20" opacity="0.28"/><circle cx="1036.5" cy="643.5" r="2.67" fill="#bd6b20" opacity="0.22"/><circle cx="1071.9" cy="642.5" r="3.64" fill="#bd6b20" opacity="0.19"/><circle cx="1110.9" cy="639.8" r="2.45" fill="#bd6b20" opacity="0.18"/><circle cx="1146.1" cy="643.5" r="3.46" fill="#bd6b20" opacity="0.17"/><circle cx="1181.1" cy="642.8" r="3.48" fill="#bd6b20" opacity="0.27"/><circle cx="226.4" cy="279.0" r="220" fill="url(#glow)" opacity="0.9"/>
  <g opacity="0.85" transform="translate(1020, 495)">
        <circle r="68" fill="none" stroke="#bd6b20" stroke-width="2" opacity="0.35"/>
        <path d="M -38 12 L 38 12 M -32 -8 L 32 -8 M -45 -28 L 45 -28" stroke="#e09440" stroke-width="3" stroke-linecap="round"/>
        <rect x="-50" y="-44" width="100" height="80" fill="none" stroke="#bd6b20" stroke-width="2"/>
      </g>
  <g transform="translate(80, 90)">
    <rect x="0" y="0" rx="20" ry="20" width="112" height="38" fill="#bd6b20" opacity="0.18" stroke="#bd6b20" stroke-width="1.5"/>
    <text x="56" y="25" font-family="ui-sans-serif, Inter, sans-serif" font-weight="700" font-size="14" letter-spacing="2.5" fill="#bd6b20" text-anchor="middle">NEWSROOM</text>
  </g>
  <text x="80" y="465" font-family="ui-sans-serif, -apple-system, Segoe UI, Inter, sans-serif" font-weight="800" font-size="44" fill="#faf8f5" opacity="0.98"><tspan x="80" dy="0">SC Sets Stringent</tspan><tspan x="80" dy="56">Standards: Contractors</tspan><tspan x="80" dy="56">Must Substantiate</tspan></text>
  <rect x="0" y="669" width="1200" height="6" fill="url(#gold)"/>
</svg>