<?xml version="1.0" encoding="UTF-8"?>
<svg xmlns="http://www.w3.org/2000/svg" viewBox="0 0 1200 675" width="1200" height="675" role="img" aria-label="SC Upholds Tribunal's Power Over Non-Signatories">
  <defs>
    <linearGradient id="bg" x1="0%" y1="0%" x2="100%" y2="100%">
      <stop offset="0%" stop-color="#643516"/>
      <stop offset="100%" stop-color="#7d4315"/>
    </linearGradient>
    <linearGradient id="gold" x1="0%" y1="0%" x2="100%" y2="100%">
      <stop offset="0%" stop-color="#ecb478"/>
      <stop offset="100%" stop-color="#faebd6"/>
    </linearGradient>
    <radialGradient id="glow" cx="50%" cy="50%" r="50%">
      <stop offset="0%" stop-color="#ecb478" stop-opacity="0.45"/>
      <stop offset="100%" stop-color="#ecb478" stop-opacity="0"/>
    </radialGradient>
  </defs>
  <rect width="1200" height="675" fill="url(#bg)"/>
  <rect x="-643.2" y="-80" width="65.9" height="875" transform="rotate(18 -643.2 337.5)" fill="#ecb478" opacity="0.17"/><rect x="-460.1" y="-80" width="104.0" height="875" transform="rotate(18 -460.1 337.5)" fill="#ecb478" opacity="0.09"/><rect x="-313.8" y="-80" width="101.8" height="875" transform="rotate(18 -313.8 337.5)" fill="#ecb478" opacity="0.12"/><rect x="-159.1" y="-80" width="104.5" height="875" transform="rotate(18 -159.1 337.5)" fill="#ecb478" opacity="0.16"/><rect x="29.1" y="-80" width="111.2" height="875" transform="rotate(18 29.1 337.5)" fill="#ecb478" opacity="0.17"/><rect x="241.5" y="-80" width="60.3" height="875" transform="rotate(18 241.5 337.5)" fill="#ecb478" opacity="0.17"/><rect x="384.0" y="-80" width="85.7" height="875" transform="rotate(18 384.0 337.5)" fill="#ecb478" opacity="0.12"/><rect x="615.2" y="-80" width="72.4" height="875" transform="rotate(18 615.2 337.5)" fill="#ecb478" opacity="0.09"/><rect x="743.6" y="-80" width="67.3" height="875" transform="rotate(18 743.6 337.5)" fill="#ecb478" opacity="0.08"/><rect x="917.3" y="-80" width="136.4" height="875" transform="rotate(18 917.3 337.5)" fill="#ecb478" opacity="0.10"/><rect x="1124.2" y="-80" width="97.3" height="875" transform="rotate(18 1124.2 337.5)" fill="#ecb478" opacity="0.17"/><rect x="1292.6" y="-80" width="68.8" height="875" transform="rotate(18 1292.6 337.5)" fill="#ecb478" opacity="0.08"/><rect x="1519.7" y="-80" width="88.8" height="875" transform="rotate(18 1519.7 337.5)" fill="#ecb478" opacity="0.08"/><rect x="1664.9" y="-80" width="93.5" height="875" transform="rotate(18 1664.9 337.5)" fill="#ecb478" opacity="0.10"/><rect x="0" y="0" width="1200" height="675" fill="url(#glow)" opacity="0.6"/>
  <g opacity="0.85" transform="translate(1020, 495)">
        <circle r="68" fill="none" stroke="#ecb478" stroke-width="2" opacity="0.35"/>
        <path d="M -38 12 L 38 12 M -32 -8 L 32 -8 M -45 -28 L 45 -28" stroke="#faebd6" stroke-width="3" stroke-linecap="round"/>
        <rect x="-50" y="-44" width="100" height="80" fill="none" stroke="#ecb478" stroke-width="2"/>
      </g>
  <g transform="translate(80, 90)">
    <rect x="0" y="0" rx="20" ry="20" width="112" height="38" fill="#ecb478" opacity="0.18" stroke="#ecb478" stroke-width="1.5"/>
    <text x="56" y="25" font-family="ui-sans-serif, Inter, sans-serif" font-weight="700" font-size="14" letter-spacing="2.5" fill="#ecb478" text-anchor="middle">NEWSROOM</text>
  </g>
  <text x="80" y="515" font-family="ui-sans-serif, -apple-system, Segoe UI, Inter, sans-serif" font-weight="800" font-size="44" fill="#faf8f5" opacity="0.98"><tspan x="80" dy="0">SC Upholds Tribunal's</tspan><tspan x="80" dy="56">Power Over Non-Signatories</tspan></text>
  <rect x="0" y="669" width="1200" height="6" fill="url(#gold)"/>
</svg>