<?xml version="1.0" encoding="UTF-8"?>
<svg xmlns="http://www.w3.org/2000/svg" viewBox="0 0 1200 675" width="1200" height="675" role="img" aria-label="Section 31(7)(a) and Interest Rate- Supreme Court's Ruling">
  <defs>
    <linearGradient id="bg" x1="0%" y1="0%" x2="100%" y2="100%">
      <stop offset="0%" stop-color="#12100e"/>
      <stop offset="100%" stop-color="#1c1917"/>
    </linearGradient>
    <linearGradient id="gold" x1="0%" y1="0%" x2="100%" y2="100%">
      <stop offset="0%" stop-color="#bd6b20"/>
      <stop offset="100%" stop-color="#e09440"/>
    </linearGradient>
    <radialGradient id="glow" cx="50%" cy="50%" r="50%">
      <stop offset="0%" stop-color="#bd6b20" stop-opacity="0.45"/>
      <stop offset="100%" stop-color="#bd6b20" stop-opacity="0"/>
    </radialGradient>
  </defs>
  <rect width="1200" height="675" fill="url(#bg)"/>
  <polygon points="-50,254.2 -20,251.0 10,248.9 40,247.8 70,248.0 100,249.2 130,251.6 160,255.0 190,259.4 220,264.7 250,270.8 280,277.4 310,284.6 340,292.0 370,299.6 400,307.2 430,314.6 460,321.7 490,328.2 520,334.0 550,339.1 580,343.2 610,346.4 640,348.4 670,349.4 700,349.2 730,347.9 760,345.5 790,342.0 820,337.5 850,332.2 880,326.1 910,319.4 940,312.2 970,304.8 1000,297.1 1030,289.6 1060,282.2 1090,275.2 1120,268.7 1150,262.9 1180,257.9 1210,253.8 1240,250.7 1250,725 -50,725" fill="#bd6b20" opacity="0.08"/><polygon points="-50,308.5 -20,312.8 10,318.1 40,324.3 70,331.2 100,338.8 130,346.8 160,355.0 190,363.4 220,371.6 250,379.5 280,386.9 310,393.7 340,399.6 370,404.7 400,408.7 430,411.5 460,413.2 490,413.6 520,412.8 550,410.8 580,407.5 610,403.2 640,397.8 670,391.6 700,384.6 730,377.0 760,369.0 790,360.7 820,352.4 850,344.2 880,336.4 910,329.0 940,322.2 970,316.3 1000,311.3 1030,307.4 1060,304.6 1090,303.0 1120,302.6 1150,303.5 1180,305.6 1210,308.9 1240,313.3 1250,725 -50,725" fill="#bd6b20" opacity="0.13"/><polygon points="-50,330.7 -20,327.0 10,325.1 40,324.8 70,326.4 100,329.7 130,334.6 160,341.1 190,348.9 220,358.0 250,368.1 280,379.0 310,390.4 340,402.2 370,413.9 400,425.4 430,436.4 460,446.7 490,456.0 520,464.1 550,470.9 580,476.1 610,479.7 640,481.6 670,481.7 700,480.0 730,476.7 760,471.7 790,465.1 820,457.2 850,448.0 880,437.9 910,426.9 940,415.5 970,403.7 1000,392.0 1030,380.5 1060,369.5 1090,359.3 1120,350.1 1150,342.0 1180,335.4 1210,330.2 1240,326.7 1250,725 -50,725" fill="#bd6b20" opacity="0.18"/><polygon points="-50,495.6 -20,505.0 10,513.5 40,521.2 70,527.6 100,532.8 130,536.6 160,538.9 190,539.6 220,538.8 250,536.5 280,532.6 310,527.4 340,520.9 370,513.2 400,504.6 430,495.2 460,485.3 490,475.0 520,464.6 550,454.3 580,444.4 610,435.1 640,426.6 670,419.0 700,412.6 730,407.5 760,403.8 790,401.6 820,400.9 850,401.8 880,404.3 910,408.2 940,413.5 970,420.1 1000,427.8 1030,436.4 1060,445.9 1090,455.9 1120,466.2 1150,476.5 1180,486.8 1210,496.7 1240,506.0 1250,725 -50,725" fill="#bd6b20" opacity="0.23"/><circle cx="300.0" cy="189.0" r="160" fill="url(#glow)"/>
  <g opacity="0.85" transform="translate(1020, 495)">
        <circle r="68" fill="none" stroke="#bd6b20" stroke-width="2" opacity="0.35"/>
        <path d="M -38 12 L 38 12 M -32 -8 L 32 -8 M -45 -28 L 45 -28" stroke="#e09440" stroke-width="3" stroke-linecap="round"/>
        <rect x="-50" y="-44" width="100" height="80" fill="none" stroke="#bd6b20" stroke-width="2"/>
      </g>
  <g transform="translate(80, 90)">
    <rect x="0" y="0" rx="20" ry="20" width="112" height="38" fill="#bd6b20" opacity="0.18" stroke="#bd6b20" stroke-width="1.5"/>
    <text x="56" y="25" font-family="ui-sans-serif, Inter, sans-serif" font-weight="700" font-size="14" letter-spacing="2.5" fill="#bd6b20" text-anchor="middle">NEWSROOM</text>
  </g>
  <text x="80" y="465" font-family="ui-sans-serif, -apple-system, Segoe UI, Inter, sans-serif" font-weight="800" font-size="44" fill="#faf8f5" opacity="0.98"><tspan x="80" dy="0">Section 31(7)(a) and</tspan><tspan x="80" dy="56">Interest Rate- Supreme</tspan><tspan x="80" dy="56">Court's Ruling</tspan></text>
  <rect x="0" y="669" width="1200" height="6" fill="url(#gold)"/>
</svg>