<?xml version="1.0" encoding="UTF-8"?>
<svg xmlns="http://www.w3.org/2000/svg" viewBox="0 0 1200 675" width="1200" height="675" role="img" aria-label="Section 32(2)(a) and Functus Officio: Delhi High Court's Ruling on Order Recall">
  <defs>
    <linearGradient id="bg" x1="0%" y1="0%" x2="100%" y2="100%">
      <stop offset="0%" stop-color="#faf8f5"/>
      <stop offset="100%" stop-color="#f4efe8"/>
    </linearGradient>
    <linearGradient id="gold" x1="0%" y1="0%" x2="100%" y2="100%">
      <stop offset="0%" stop-color="#bd6b20"/>
      <stop offset="100%" stop-color="#9a5518"/>
    </linearGradient>
    <radialGradient id="glow" cx="50%" cy="50%" r="50%">
      <stop offset="0%" stop-color="#bd6b20" stop-opacity="0.45"/>
      <stop offset="100%" stop-color="#bd6b20" stop-opacity="0"/>
    </radialGradient>
  </defs>
  <rect width="1200" height="675" fill="url(#bg)"/>
  <circle cx="840.0" cy="135.0" r="240" fill="url(#glow)" opacity="0.8"/><polygon points="994.3,459.6 1006.6,484.2 982.1,484.2" fill="#ecb478" opacity="0.16"/><polygon points="738.6,392.4 764.0,443.2 713.2,443.2" fill="#ecb478" opacity="0.21"/><rect x="419.9" y="344.9" width="17.8" height="17.8" rx="4" transform="rotate(176.8 428.8 353.8)" fill="#bd6b20" opacity="0.21"/><rect x="696.0" y="55.4" width="21.0" height="21.0" rx="4" transform="rotate(37.8 706.5 66.0)" fill="#bd6b20" opacity="0.31"/><circle cx="558.0" cy="47.7" r="30.4" fill="#9a5518" opacity="0.17"/><polygon points="276.7,321.5 293.9,355.8 259.6,355.8" fill="#ecb478" opacity="0.26"/><circle cx="380.1" cy="20.7" r="22.2" fill="#9a5518" opacity="0.27"/><rect x="430.5" y="300.5" width="39.0" height="39.0" rx="4" transform="rotate(152.4 450.0 320.0)" fill="#bd6b20" opacity="0.29"/><polygon points="320.3,511.9 342.1,555.5 298.5,555.5" fill="#ecb478" opacity="0.30"/><polygon points="846.7,62.5 854.5,78.2 838.8,78.2" fill="#ecb478" opacity="0.33"/><rect x="1115.8" y="361.9" width="32.0" height="32.0" rx="4" transform="rotate(154.9 1131.8 377.9)" fill="#bd6b20" opacity="0.32"/><polygon points="98.8,-6.6 118.5,32.7 79.2,32.7" fill="#ecb478" opacity="0.30"/><circle cx="799.1" cy="355.0" r="26.6" fill="#9a5518" opacity="0.31"/><polygon points="311.0,370.8 336.1,421.0 285.9,421.0" fill="#ecb478" opacity="0.22"/><rect x="1042.3" y="457.8" width="42.3" height="42.3" rx="4" transform="rotate(212.9 1063.5 478.9)" fill="#bd6b20" opacity="0.12"/><rect x="1018.1" y="523.1" width="20.9" height="20.9" rx="4" transform="rotate(122.0 1028.6 533.6)" fill="#bd6b20" opacity="0.10"/><rect x="855.6" y="234.6" width="43.2" height="43.2" rx="4" transform="rotate(37.8 877.2 256.2)" fill="#bd6b20" opacity="0.12"/><rect x="1000.6" y="246.4" width="22.6" height="22.6" rx="4" transform="rotate(64.1 1011.9 257.7)" fill="#bd6b20" opacity="0.18"/><rect x="789.4" y="382.1" width="54.6" height="54.6" rx="4" transform="rotate(194.0 816.7 409.4)" fill="#bd6b20" opacity="0.32"/><rect x="72.5" y="-13.4" width="53.8" height="53.8" rx="4" transform="rotate(24.7 99.4 13.5)" fill="#bd6b20" opacity="0.12"/><circle cx="964.3" cy="444.3" r="30.3" fill="#9a5518" opacity="0.21"/><circle cx="168.6" cy="208.3" r="23.7" fill="#9a5518" opacity="0.20"/>
  <g opacity="0.85" transform="translate(1020, 495)">
        <circle r="68" fill="none" stroke="#bd6b20" stroke-width="2" opacity="0.35"/>
        <path d="M -38 12 L 38 12 M -32 -8 L 32 -8 M -45 -28 L 45 -28" stroke="#9a5518" stroke-width="3" stroke-linecap="round"/>
        <rect x="-50" y="-44" width="100" height="80" fill="none" stroke="#bd6b20" stroke-width="2"/>
      </g>
  <g transform="translate(80, 90)">
    <rect x="0" y="0" rx="20" ry="20" width="112" height="38" fill="#bd6b20" opacity="0.18" stroke="#bd6b20" stroke-width="1.5"/>
    <text x="56" y="25" font-family="ui-sans-serif, Inter, sans-serif" font-weight="700" font-size="14" letter-spacing="2.5" fill="#bd6b20" text-anchor="middle">NEWSROOM</text>
  </g>
  <text x="80" y="465" font-family="ui-sans-serif, -apple-system, Segoe UI, Inter, sans-serif" font-weight="800" font-size="44" fill="#12100e" opacity="0.98"><tspan x="80" dy="0">Section 32(2)(a) and</tspan><tspan x="80" dy="56">Functus Officio: Delhi</tspan><tspan x="80" dy="56">High Court's Ruling on</tspan></text>
  <rect x="0" y="669" width="1200" height="6" fill="url(#gold)"/>
</svg>