<?xml version="1.0" encoding="UTF-8"?>
<svg xmlns="http://www.w3.org/2000/svg" viewBox="0 0 1200 675" width="1200" height="675" role="img" aria-label="PDR COURT Services: Your Trusted ADR Solutions">
  <defs>
    <linearGradient id="bg" x1="0%" y1="0%" x2="100%" y2="100%">
      <stop offset="0%" stop-color="#faf8f5"/>
      <stop offset="100%" stop-color="#f4efe8"/>
    </linearGradient>
    <linearGradient id="gold" x1="0%" y1="0%" x2="100%" y2="100%">
      <stop offset="0%" stop-color="#bd6b20"/>
      <stop offset="100%" stop-color="#9a5518"/>
    </linearGradient>
    <radialGradient id="glow" cx="50%" cy="50%" r="50%">
      <stop offset="0%" stop-color="#bd6b20" stop-opacity="0.45"/>
      <stop offset="100%" stop-color="#bd6b20" stop-opacity="0"/>
    </radialGradient>
  </defs>
  <rect width="1200" height="675" fill="url(#bg)"/>
  <rect x="-656.5" y="-80" width="110.8" height="875" transform="rotate(18 -656.5 337.5)" fill="#bd6b20" opacity="0.18"/><rect x="-517.7" y="-80" width="117.7" height="875" transform="rotate(18 -517.7 337.5)" fill="#bd6b20" opacity="0.15"/><rect x="-281.0" y="-80" width="92.3" height="875" transform="rotate(18 -281.0 337.5)" fill="#bd6b20" opacity="0.13"/><rect x="-117.5" y="-80" width="89.5" height="875" transform="rotate(18 -117.5 337.5)" fill="#bd6b20" opacity="0.17"/><rect x="41.7" y="-80" width="138.3" height="875" transform="rotate(18 41.7 337.5)" fill="#bd6b20" opacity="0.15"/><rect x="257.8" y="-80" width="98.2" height="875" transform="rotate(18 257.8 337.5)" fill="#bd6b20" opacity="0.16"/><rect x="377.1" y="-80" width="76.0" height="875" transform="rotate(18 377.1 337.5)" fill="#bd6b20" opacity="0.18"/><rect x="594.5" y="-80" width="110.2" height="875" transform="rotate(18 594.5 337.5)" fill="#bd6b20" opacity="0.06"/><rect x="744.3" y="-80" width="95.7" height="875" transform="rotate(18 744.3 337.5)" fill="#bd6b20" opacity="0.15"/><rect x="915.1" y="-80" width="84.6" height="875" transform="rotate(18 915.1 337.5)" fill="#bd6b20" opacity="0.18"/><rect x="1157.8" y="-80" width="88.9" height="875" transform="rotate(18 1157.8 337.5)" fill="#bd6b20" opacity="0.13"/><rect x="1279.4" y="-80" width="139.4" height="875" transform="rotate(18 1279.4 337.5)" fill="#bd6b20" opacity="0.13"/><rect x="1500.7" y="-80" width="121.1" height="875" transform="rotate(18 1500.7 337.5)" fill="#bd6b20" opacity="0.09"/><rect x="1684.0" y="-80" width="87.2" height="875" transform="rotate(18 1684.0 337.5)" fill="#bd6b20" opacity="0.11"/><rect x="0" y="0" width="1200" height="675" fill="url(#glow)" opacity="0.6"/>
  <g opacity="0.85" transform="translate(1020, 495)">
        <polygon points="0,-50 43,25 -43,25" fill="none" stroke="#bd6b20" stroke-width="2"/>
        <polygon points="0,-30 26,15 -26,15" fill="#9a5518" opacity="0.4"/>
      </g>
  <g transform="translate(80, 90)">
    <rect x="0" y="0" rx="20" ry="20" width="145" height="38" fill="#bd6b20" opacity="0.18" stroke="#bd6b20" stroke-width="1.5"/>
    <text x="72.5" y="25" font-family="ui-sans-serif, Inter, sans-serif" font-weight="700" font-size="14" letter-spacing="2.5" fill="#bd6b20" text-anchor="middle">INFORMATION</text>
  </g>
  <text x="80" y="515" font-family="ui-sans-serif, -apple-system, Segoe UI, Inter, sans-serif" font-weight="800" font-size="44" fill="#12100e" opacity="0.98"><tspan x="80" dy="0">PDR COURT Services: Your</tspan><tspan x="80" dy="56">Trusted ADR Solutions</tspan></text>
  <rect x="0" y="669" width="1200" height="6" fill="url(#gold)"/>
</svg>