<?xml version="1.0" encoding="UTF-8"?>
<svg xmlns="http://www.w3.org/2000/svg" viewBox="0 0 1200 675" width="1200" height="675" role="img" aria-label="Dispute Resolution Centre | Debt Recovery through Arbitration | Employee Mediation">
  <defs>
    <linearGradient id="bg" x1="0%" y1="0%" x2="100%" y2="100%">
      <stop offset="0%" stop-color="#faf8f5"/>
      <stop offset="100%" stop-color="#f4efe8"/>
    </linearGradient>
    <linearGradient id="gold" x1="0%" y1="0%" x2="100%" y2="100%">
      <stop offset="0%" stop-color="#bd6b20"/>
      <stop offset="100%" stop-color="#9a5518"/>
    </linearGradient>
    <radialGradient id="glow" cx="50%" cy="50%" r="50%">
      <stop offset="0%" stop-color="#bd6b20" stop-opacity="0.45"/>
      <stop offset="100%" stop-color="#bd6b20" stop-opacity="0"/>
    </radialGradient>
  </defs>
  <rect width="1200" height="675" fill="url(#bg)"/>
  <polygon points="870.3,168.7 941.2,169.3 940.6,240.2 869.7,239.6" fill="#9a5518" opacity="0.08"/><polygon points="637.0,457.0 712.0,386.8 801.9,436.4 782.5,537.3 680.6,550.0" fill="#9a5518" opacity="0.06"/><polygon points="-60.7,627.6 -31.8,455.6 140.8,429.9 218.5,586.1 94.0,708.2" fill="#9a5518" opacity="0.18"/><polygon points="117.5,251.7 304.6,51.2 384.7,313.5" fill="#9a5518" opacity="0.10"/><polygon points="575.9,-45.9 615.5,29.8 555.6,90.8 479.1,52.8 491.6,-31.7" fill="#9a5518" opacity="0.12"/><polygon points="857.3,343.3 998.9,285.2 1057.0,426.8 915.4,484.9" fill="#9a5518" opacity="0.17"/><polygon points="846.7,38.5 914.9,49.4 904.0,117.6 835.8,106.7" fill="#9a5518" opacity="0.12"/><polygon points="237.9,222.8 313.0,184.9 308.3,268.8" fill="#9a5518" opacity="0.18"/><polygon points="924.6,508.3 1024.4,417.4 1141.7,484.2 1114.5,616.4 980.3,631.3" fill="#9a5518" opacity="0.17"/><polygon points="593.0,155.4 504.6,76.2 617.5,39.3" fill="#9a5518" opacity="0.13"/><polygon points="1023.6,17.0 1038.4,120.9 941.0,81.8" fill="#9a5518" opacity="0.07"/><polygon points="128.0,570.5 92.9,457.6 208.3,483.7" fill="#9a5518" opacity="0.10"/><polygon points="268.2,644.2 331.6,480.5 506.9,490.3 551.7,660.0 404.2,755.1" fill="#9a5518" opacity="0.13"/><polygon points="445.9,237.8 328.4,402.7 244.3,218.5" fill="#9a5518" opacity="0.16"/><circle cx="936.0" cy="202.5" r="180" fill="url(#glow)"/>
  <g opacity="0.85" transform="translate(1020, 495)">
        <polygon points="0,-50 43,25 -43,25" fill="none" stroke="#bd6b20" stroke-width="2"/>
        <polygon points="0,-30 26,15 -26,15" fill="#9a5518" opacity="0.4"/>
      </g>
  <g transform="translate(80, 90)">
    <rect x="0" y="0" rx="20" ry="20" width="145" height="38" fill="#bd6b20" opacity="0.18" stroke="#bd6b20" stroke-width="1.5"/>
    <text x="72.5" y="25" font-family="ui-sans-serif, Inter, sans-serif" font-weight="700" font-size="14" letter-spacing="2.5" fill="#bd6b20" text-anchor="middle">INFORMATION</text>
  </g>
  <text x="80" y="465" font-family="ui-sans-serif, -apple-system, Segoe UI, Inter, sans-serif" font-weight="800" font-size="44" fill="#12100e" opacity="0.98"><tspan x="80" dy="0">Dispute Resolution Centre</tspan><tspan x="80" dy="56">| Debt Recovery through</tspan><tspan x="80" dy="56">Arbitration | Employee</tspan></text>
  <rect x="0" y="669" width="1200" height="6" fill="url(#gold)"/>
</svg>