<?xml version="1.0" encoding="UTF-8"?>
<svg xmlns="http://www.w3.org/2000/svg" viewBox="0 0 1200 675" width="1200" height="675" role="img" aria-label="Top Ways Voting Shapes the Future of Democracy in India">
  <defs>
    <linearGradient id="bg" x1="0%" y1="0%" x2="100%" y2="100%">
      <stop offset="0%" stop-color="#0c0a09"/>
      <stop offset="100%" stop-color="#291813"/>
    </linearGradient>
    <linearGradient id="gold" x1="0%" y1="0%" x2="100%" y2="100%">
      <stop offset="0%" stop-color="#d4862a"/>
      <stop offset="100%" stop-color="#bd6b20"/>
    </linearGradient>
    <radialGradient id="glow" cx="50%" cy="50%" r="50%">
      <stop offset="0%" stop-color="#d4862a" stop-opacity="0.45"/>
      <stop offset="100%" stop-color="#d4862a" stop-opacity="0"/>
    </radialGradient>
  </defs>
  <rect width="1200" height="675" fill="url(#bg)"/>
  <polygon points="-50,318.0 -20,327.2 10,335.3 40,342.1 70,347.6 100,351.5 130,353.9 160,354.6 190,353.6 220,351.0 250,346.8 280,341.1 310,334.0 340,325.7 370,316.4 400,306.3 430,295.5 460,284.5 490,273.3 520,262.3 550,251.7 580,241.8 610,232.7 640,224.6 670,217.8 700,212.5 730,208.6 760,206.3 790,205.7 820,206.8 850,209.5 880,213.8 910,219.6 940,226.8 970,235.1 1000,244.5 1030,254.6 1060,265.4 1090,276.4 1120,287.6 1150,298.6 1180,309.2 1210,319.1 1240,328.1 1250,725 -50,725" fill="#d4862a" opacity="0.08"/><polygon points="-50,314.8 -20,306.2 10,298.4 40,291.5 70,285.7 100,281.1 130,277.8 160,275.9 190,275.5 220,276.5 250,278.9 280,282.7 310,287.8 340,294.0 370,301.3 400,309.4 430,318.2 460,327.5 490,337.1 520,346.7 550,356.2 580,365.3 610,373.8 640,381.6 670,388.4 700,394.2 730,398.7 760,401.9 790,403.7 820,404.1 850,403.0 880,400.5 910,396.6 940,391.5 970,385.2 1000,377.9 1030,369.7 1060,360.9 1090,351.6 1120,342.0 1150,332.3 1180,322.9 1210,313.8 1240,305.3 1250,725 -50,725" fill="#d4862a" opacity="0.13"/><polygon points="-50,471.6 -20,465.2 10,457.5 40,448.6 70,438.8 100,428.3 130,417.2 160,406.0 190,394.8 220,383.8 250,373.3 280,363.6 310,354.9 340,347.3 370,341.1 400,336.3 430,333.1 460,331.6 490,331.7 520,333.5 550,337.0 580,342.1 610,348.5 640,356.3 670,365.3 700,375.1 730,385.7 760,396.7 790,408.0 820,419.2 850,430.2 880,440.6 910,450.2 940,458.9 970,466.4 1000,472.6 1030,477.3 1060,480.4 1090,481.8 1120,481.6 1150,479.6 1180,476.1 1210,471.0 1240,464.4 1250,725 -50,725" fill="#d4862a" opacity="0.18"/><polygon points="-50,437.7 -20,440.6 10,444.5 40,449.2 70,454.7 100,460.7 130,467.2 160,474.1 190,481.1 220,488.2 250,495.1 280,501.7 310,507.9 340,513.5 370,518.3 400,522.4 430,525.6 460,527.7 490,528.9 520,528.9 550,528.0 580,526.0 610,523.0 640,519.1 670,514.3 700,508.8 730,502.7 760,496.2 790,489.3 820,482.3 850,475.2 880,468.3 910,461.7 940,455.6 970,450.0 1000,445.2 1030,441.2 1060,438.1 1090,436.0 1120,434.9 1150,434.9 1180,435.9 1210,438.0 1240,441.0 1250,725 -50,725" fill="#d4862a" opacity="0.23"/><circle cx="300.0" cy="189.0" r="160" fill="url(#glow)"/>
  <g opacity="0.85" transform="translate(1020, 495)">
        <rect x="-46" y="-60" width="92" height="115" fill="#d4862a" opacity="0.18" rx="6"/>
        <path d="M -28 -36 L 28 -36 M -28 -12 L 28 -12 M -28 12 L 18 12 M -28 36 L 28 36" stroke="#bd6b20" stroke-width="3" stroke-linecap="round"/>
      </g>
  <g transform="translate(80, 90)">
    <rect x="0" y="0" rx="20" ry="20" width="101" height="38" fill="#d4862a" opacity="0.18" stroke="#d4862a" stroke-width="1.5"/>
    <text x="50.5" y="25" font-family="ui-sans-serif, Inter, sans-serif" font-weight="700" font-size="14" letter-spacing="2.5" fill="#d4862a" text-anchor="middle">ARTICLE</text>
  </g>
  <text x="80" y="465" font-family="ui-sans-serif, -apple-system, Segoe UI, Inter, sans-serif" font-weight="800" font-size="44" fill="#faf8f5" opacity="0.98"><tspan x="80" dy="0">Top Ways Voting Shapes the</tspan><tspan x="80" dy="56">Future of Democracy in</tspan><tspan x="80" dy="56">India</tspan></text>
  <rect x="0" y="669" width="1200" height="6" fill="url(#gold)"/>
</svg>