<?xml version="1.0" encoding="UTF-8"?>
<svg xmlns="http://www.w3.org/2000/svg" viewBox="0 0 1200 675" width="1200" height="675" role="img" aria-label="Cotton Fabrics vs. Men Shirts: A Mumbai Dispute Resolved through PDR COURT">
  <defs>
    <linearGradient id="bg" x1="0%" y1="0%" x2="100%" y2="100%">
      <stop offset="0%" stop-color="#532d15"/>
      <stop offset="100%" stop-color="#bd6b20"/>
    </linearGradient>
    <linearGradient id="gold" x1="0%" y1="0%" x2="100%" y2="100%">
      <stop offset="0%" stop-color="#e09440"/>
      <stop offset="100%" stop-color="#fdf6ee"/>
    </linearGradient>
    <radialGradient id="glow" cx="50%" cy="50%" r="50%">
      <stop offset="0%" stop-color="#e09440" stop-opacity="0.45"/>
      <stop offset="100%" stop-color="#e09440" stop-opacity="0"/>
    </radialGradient>
  </defs>
  <rect width="1200" height="675" fill="url(#bg)"/>
  <polygon points="-15.5,399.6 -23.9,321.1 48.3,288.8 101.2,347.5 61.8,415.9" fill="#fdf6ee" opacity="0.12"/><polygon points="184.7,546.1 98.5,315.9 341.0,356.4" fill="#fdf6ee" opacity="0.19"/><polygon points="949.4,512.1 722.0,555.8 797.8,337.0" fill="#fdf6ee" opacity="0.06"/><polygon points="257.1,55.5 299.6,18.1 348.3,47.0 336.0,102.2 279.6,107.5" fill="#fdf6ee" opacity="0.10"/><polygon points="224.4,40.3 218.0,152.0 124.5,90.7" fill="#fdf6ee" opacity="0.09"/><polygon points="825.7,-22.0 1006.6,41.4 861.3,166.4" fill="#fdf6ee" opacity="0.16"/><polygon points="150.5,468.9 67.0,345.6 158.4,228.1 298.4,278.7 293.5,427.5" fill="#fdf6ee" opacity="0.17"/><polygon points="123.0,223.3 41.2,353.6 -30.7,217.6" fill="#fdf6ee" opacity="0.16"/><polygon points="690.7,517.4 958.5,616.5 738.7,798.9" fill="#fdf6ee" opacity="0.16"/><polygon points="983.6,507.0 885.3,538.6 907.1,437.7" fill="#fdf6ee" opacity="0.12"/><polygon points="252.1,500.2 300.4,369.8 389.1,476.9" fill="#fdf6ee" opacity="0.15"/><polygon points="733.3,199.2 918.4,167.9 852.9,343.8" fill="#fdf6ee" opacity="0.15"/><polygon points="982.9,583.7 1015.8,632.2 967.3,665.1 934.4,616.5" fill="#fdf6ee" opacity="0.16"/><polygon points="897.2,731.1 766.0,738.7 758.4,607.4 889.7,599.8" fill="#fdf6ee" opacity="0.14"/><circle cx="936.0" cy="202.5" r="180" fill="url(#glow)"/>
  <g opacity="0.85" transform="translate(1020, 495)">
        <circle r="60" fill="#e09440" opacity="0.18"/>
        <path d="M -34 6 Q -10 -22 14 6 Q 34 24 14 26 L -22 26 Q -38 24 -34 6 Z" fill="none" stroke="#fdf6ee" stroke-width="3" stroke-linejoin="round"/>
      </g>
  <g transform="translate(80, 90)">
    <rect x="0" y="0" rx="20" ry="20" width="134" height="38" fill="#e09440" opacity="0.18" stroke="#e09440" stroke-width="1.5"/>
    <text x="67" y="25" font-family="ui-sans-serif, Inter, sans-serif" font-weight="700" font-size="14" letter-spacing="2.5" fill="#e09440" text-anchor="middle">CASE STUDY</text>
  </g>
  <text x="80" y="465" font-family="ui-sans-serif, -apple-system, Segoe UI, Inter, sans-serif" font-weight="800" font-size="44" fill="#faf8f5" opacity="0.98"><tspan x="80" dy="0">Cotton Fabrics vs. Men</tspan><tspan x="80" dy="56">Shirts: A Mumbai Dispute</tspan><tspan x="80" dy="56">Resolved through PDR COURT</tspan></text>
  <rect x="0" y="669" width="1200" height="6" fill="url(#gold)"/>
</svg>