<?xml version="1.0" encoding="UTF-8"?>
<svg xmlns="http://www.w3.org/2000/svg" viewBox="0 0 1200 675" width="1200" height="675" role="img" aria-label="Resolving a Mumbai Business Dispute: A Case of Shirting Fabrics, ADR, and Settlement Agreement">
  <defs>
    <linearGradient id="bg" x1="0%" y1="0%" x2="100%" y2="100%">
      <stop offset="0%" stop-color="#643516"/>
      <stop offset="100%" stop-color="#7d4315"/>
    </linearGradient>
    <linearGradient id="gold" x1="0%" y1="0%" x2="100%" y2="100%">
      <stop offset="0%" stop-color="#ecb478"/>
      <stop offset="100%" stop-color="#faebd6"/>
    </linearGradient>
    <radialGradient id="glow" cx="50%" cy="50%" r="50%">
      <stop offset="0%" stop-color="#ecb478" stop-opacity="0.45"/>
      <stop offset="100%" stop-color="#ecb478" stop-opacity="0"/>
    </radialGradient>
  </defs>
  <rect width="1200" height="675" fill="url(#bg)"/>
  <circle cx="216" cy="236.24999999999997" r="367.5017570797354" fill="url(#glow)" opacity="0.8"/><circle cx="789.5" cy="440.2" r="260.7" fill="#ecb478" opacity="0.11"/><circle cx="653.8" cy="455.3" r="159.8" fill="#ecb478" opacity="0.09"/><circle cx="374.6" cy="88.0" r="98.3" fill="#ecb478" opacity="0.12"/><circle cx="623.8" cy="364.8" r="111.8" fill="#ecb478" opacity="0.09"/><circle cx="953.0" cy="3.8" r="220.7" fill="#ecb478" opacity="0.17"/><circle cx="984.0" cy="168.8" r="220" fill="none" stroke="#faebd6" stroke-width="1.5" opacity="0.4"/>
  <g opacity="0.85" transform="translate(1020, 495)">
        <circle r="60" fill="#ecb478" opacity="0.18"/>
        <path d="M -34 6 Q -10 -22 14 6 Q 34 24 14 26 L -22 26 Q -38 24 -34 6 Z" fill="none" stroke="#faebd6" stroke-width="3" stroke-linejoin="round"/>
      </g>
  <g transform="translate(80, 90)">
    <rect x="0" y="0" rx="20" ry="20" width="134" height="38" fill="#ecb478" opacity="0.18" stroke="#ecb478" stroke-width="1.5"/>
    <text x="67" y="25" font-family="ui-sans-serif, Inter, sans-serif" font-weight="700" font-size="14" letter-spacing="2.5" fill="#ecb478" text-anchor="middle">CASE STUDY</text>
  </g>
  <text x="80" y="465" font-family="ui-sans-serif, -apple-system, Segoe UI, Inter, sans-serif" font-weight="800" font-size="44" fill="#faf8f5" opacity="0.98"><tspan x="80" dy="0">Resolving a Mumbai</tspan><tspan x="80" dy="56">Business Dispute: A Case</tspan><tspan x="80" dy="56">of Shirting Fabrics, ADR,</tspan></text>
  <rect x="0" y="669" width="1200" height="6" fill="url(#gold)"/>
</svg>