<?xml version="1.0" encoding="UTF-8"?>
<svg xmlns="http://www.w3.org/2000/svg" viewBox="0 0 1200 675" width="1200" height="675" role="img" aria-label="Simplifying Dispute Timelines with Real-time Updates">
  <defs>
    <linearGradient id="bg" x1="0%" y1="0%" x2="100%" y2="100%">
      <stop offset="0%" stop-color="#12100e"/>
      <stop offset="100%" stop-color="#1c1917"/>
    </linearGradient>
    <linearGradient id="gold" x1="0%" y1="0%" x2="100%" y2="100%">
      <stop offset="0%" stop-color="#bd6b20"/>
      <stop offset="100%" stop-color="#e09440"/>
    </linearGradient>
    <radialGradient id="glow" cx="50%" cy="50%" r="50%">
      <stop offset="0%" stop-color="#bd6b20" stop-opacity="0.45"/>
      <stop offset="100%" stop-color="#bd6b20" stop-opacity="0"/>
    </radialGradient>
  </defs>
  <rect width="1200" height="675" fill="url(#bg)"/>
  <polygon points="-50,232.3 -20,235.4 10,239.3 40,244.0 70,249.2 100,254.9 130,261.0 160,267.3 190,273.6 220,279.9 250,286.0 280,291.7 310,296.9 340,301.6 370,305.5 400,308.7 430,311.0 460,312.4 490,312.9 520,312.4 550,310.9 580,308.6 610,305.4 640,301.4 670,296.8 700,291.5 730,285.8 760,279.7 790,273.4 820,267.1 850,260.8 880,254.7 910,249.0 940,243.8 970,239.2 1000,235.3 1030,232.2 1060,229.9 1090,228.6 1120,228.2 1150,228.7 1180,230.2 1210,232.6 1240,235.8 1250,725 -50,725" fill="#bd6b20" opacity="0.08"/><polygon points="-50,434.4 -20,436.4 10,436.5 40,434.8 70,431.2 100,425.9 130,418.9 160,410.5 190,400.7 220,389.9 250,378.3 280,366.1 310,353.5 340,341.0 370,328.8 400,317.1 430,306.2 460,296.3 490,287.7 520,280.6 550,275.1 580,271.4 610,269.5 640,269.4 670,271.3 700,275.0 730,280.4 760,287.4 790,296.0 820,305.8 850,316.7 880,328.3 910,340.6 940,353.1 970,365.6 1000,377.8 1030,389.5 1060,400.4 1090,410.1 1120,418.6 1150,425.7 1180,431.1 1210,434.7 1240,436.5 1250,725 -50,725" fill="#bd6b20" opacity="0.13"/><polygon points="-50,455.1 -20,449.5 10,443.4 40,436.9 70,430.1 100,423.3 130,416.6 160,410.1 190,404.0 220,398.4 250,393.4 280,389.1 310,385.8 340,383.3 370,381.8 400,381.3 430,381.8 460,383.4 490,385.9 520,389.3 550,393.6 580,398.6 610,404.3 640,410.4 670,416.9 700,423.7 730,430.5 760,437.2 790,443.7 820,449.8 850,455.4 880,460.3 910,464.5 940,467.8 970,470.3 1000,471.7 1030,472.1 1060,471.5 1090,469.9 1120,467.4 1150,463.9 1180,459.6 1210,454.5 1240,448.8 1250,725 -50,725" fill="#bd6b20" opacity="0.18"/><polygon points="-50,457.2 -20,459.8 10,462.9 40,466.5 70,470.4 100,474.6 130,479.0 160,483.6 190,488.1 220,492.5 250,496.7 280,500.6 310,504.1 340,507.2 370,509.7 400,511.6 430,512.9 460,513.5 490,513.5 520,512.7 550,511.4 580,509.3 610,506.8 640,503.6 670,500.1 700,496.1 730,491.9 760,487.4 790,482.9 820,478.4 850,474.0 880,469.8 910,465.9 940,462.4 970,459.4 1000,456.9 1030,455.0 1060,453.8 1090,453.2 1120,453.3 1150,454.0 1180,455.5 1210,457.5 1240,460.1 1250,725 -50,725" fill="#bd6b20" opacity="0.23"/><circle cx="300.0" cy="189.0" r="160" fill="url(#glow)"/>
  <g opacity="0.85" transform="translate(1020, 495)">
        <rect x="-46" y="-60" width="92" height="115" fill="#bd6b20" opacity="0.18" rx="6"/>
        <path d="M -28 -36 L 28 -36 M -28 -12 L 28 -12 M -28 12 L 18 12 M -28 36 L 28 36" stroke="#e09440" stroke-width="3" stroke-linecap="round"/>
      </g>
  <g transform="translate(80, 90)">
    <rect x="0" y="0" rx="20" ry="20" width="101" height="38" fill="#bd6b20" opacity="0.18" stroke="#bd6b20" stroke-width="1.5"/>
    <text x="50.5" y="25" font-family="ui-sans-serif, Inter, sans-serif" font-weight="700" font-size="14" letter-spacing="2.5" fill="#bd6b20" text-anchor="middle">ARTICLE</text>
  </g>
  <text x="80" y="465" font-family="ui-sans-serif, -apple-system, Segoe UI, Inter, sans-serif" font-weight="800" font-size="44" fill="#faf8f5" opacity="0.98"><tspan x="80" dy="0">Simplifying Dispute</tspan><tspan x="80" dy="56">Timelines with Real-time</tspan><tspan x="80" dy="56">Updates</tspan></text>
  <rect x="0" y="669" width="1200" height="6" fill="url(#gold)"/>
</svg>