<?xml version="1.0" encoding="UTF-8"?>
<svg xmlns="http://www.w3.org/2000/svg" viewBox="0 0 1200 675" width="1200" height="675" role="img" aria-label="$13M Arbitration Award Quashed Over Justice Breach">
  <defs>
    <linearGradient id="bg" x1="0%" y1="0%" x2="100%" y2="100%">
      <stop offset="0%" stop-color="#643516"/>
      <stop offset="100%" stop-color="#7d4315"/>
    </linearGradient>
    <linearGradient id="gold" x1="0%" y1="0%" x2="100%" y2="100%">
      <stop offset="0%" stop-color="#ecb478"/>
      <stop offset="100%" stop-color="#faebd6"/>
    </linearGradient>
    <radialGradient id="glow" cx="50%" cy="50%" r="50%">
      <stop offset="0%" stop-color="#ecb478" stop-opacity="0.45"/>
      <stop offset="100%" stop-color="#ecb478" stop-opacity="0"/>
    </radialGradient>
  </defs>
  <rect width="1200" height="675" fill="url(#bg)"/>
  <rect x="-677.5" y="-80" width="68.0" height="875" transform="rotate(18 -677.5 337.5)" fill="#ecb478" opacity="0.15"/><rect x="-472.9" y="-80" width="138.8" height="875" transform="rotate(18 -472.9 337.5)" fill="#ecb478" opacity="0.16"/><rect x="-348.7" y="-80" width="95.3" height="875" transform="rotate(18 -348.7 337.5)" fill="#ecb478" opacity="0.09"/><rect x="-162.9" y="-80" width="77.0" height="875" transform="rotate(18 -162.9 337.5)" fill="#ecb478" opacity="0.12"/><rect x="57.8" y="-80" width="72.5" height="875" transform="rotate(18 57.8 337.5)" fill="#ecb478" opacity="0.19"/><rect x="214.7" y="-80" width="99.8" height="875" transform="rotate(18 214.7 337.5)" fill="#ecb478" opacity="0.12"/><rect x="407.5" y="-80" width="136.8" height="875" transform="rotate(18 407.5 337.5)" fill="#ecb478" opacity="0.09"/><rect x="601.5" y="-80" width="132.3" height="875" transform="rotate(18 601.5 337.5)" fill="#ecb478" opacity="0.06"/><rect x="728.6" y="-80" width="78.0" height="875" transform="rotate(18 728.6 337.5)" fill="#ecb478" opacity="0.14"/><rect x="946.6" y="-80" width="97.0" height="875" transform="rotate(18 946.6 337.5)" fill="#ecb478" opacity="0.05"/><rect x="1110.5" y="-80" width="130.2" height="875" transform="rotate(18 1110.5 337.5)" fill="#ecb478" opacity="0.06"/><rect x="1289.8" y="-80" width="101.4" height="875" transform="rotate(18 1289.8 337.5)" fill="#ecb478" opacity="0.10"/><rect x="1517.9" y="-80" width="109.2" height="875" transform="rotate(18 1517.9 337.5)" fill="#ecb478" opacity="0.12"/><rect x="1685.1" y="-80" width="97.7" height="875" transform="rotate(18 1685.1 337.5)" fill="#ecb478" opacity="0.08"/><rect x="0" y="0" width="1200" height="675" fill="url(#glow)" opacity="0.6"/>
  <g opacity="0.85" transform="translate(1020, 495)">
        <circle r="68" fill="none" stroke="#ecb478" stroke-width="2" opacity="0.35"/>
        <path d="M -38 12 L 38 12 M -32 -8 L 32 -8 M -45 -28 L 45 -28" stroke="#faebd6" stroke-width="3" stroke-linecap="round"/>
        <rect x="-50" y="-44" width="100" height="80" fill="none" stroke="#ecb478" stroke-width="2"/>
      </g>
  <g transform="translate(80, 90)">
    <rect x="0" y="0" rx="20" ry="20" width="112" height="38" fill="#ecb478" opacity="0.18" stroke="#ecb478" stroke-width="1.5"/>
    <text x="56" y="25" font-family="ui-sans-serif, Inter, sans-serif" font-weight="700" font-size="14" letter-spacing="2.5" fill="#ecb478" text-anchor="middle">NEWSROOM</text>
  </g>
  <text x="80" y="465" font-family="ui-sans-serif, -apple-system, Segoe UI, Inter, sans-serif" font-weight="800" font-size="44" fill="#faf8f5" opacity="0.98"><tspan x="80" dy="0">$13M Arbitration Award</tspan><tspan x="80" dy="56">Quashed Over Justice</tspan><tspan x="80" dy="56">Breach</tspan></text>
  <rect x="0" y="669" width="1200" height="6" fill="url(#gold)"/>
</svg>