<?xml version="1.0" encoding="UTF-8"?>
<svg xmlns="http://www.w3.org/2000/svg" viewBox="0 0 1200 675" width="1200" height="675" role="img" aria-label="Successful Resolution of a Loan Dispute: A Case Study">
  <defs>
    <linearGradient id="bg" x1="0%" y1="0%" x2="100%" y2="100%">
      <stop offset="0%" stop-color="#0c0a09"/>
      <stop offset="100%" stop-color="#291813"/>
    </linearGradient>
    <linearGradient id="gold" x1="0%" y1="0%" x2="100%" y2="100%">
      <stop offset="0%" stop-color="#d4862a"/>
      <stop offset="100%" stop-color="#bd6b20"/>
    </linearGradient>
    <radialGradient id="glow" cx="50%" cy="50%" r="50%">
      <stop offset="0%" stop-color="#d4862a" stop-opacity="0.45"/>
      <stop offset="100%" stop-color="#d4862a" stop-opacity="0"/>
    </radialGradient>
  </defs>
  <rect width="1200" height="675" fill="url(#bg)"/>
  <polygon points="-50,344.9 -20,347.1 10,348.0 40,347.7 70,346.2 100,343.5 130,339.6 160,334.7 190,328.8 220,322.2 250,314.8 280,307.0 310,298.8 340,290.5 370,282.3 400,274.3 430,266.7 460,259.7 490,253.4 520,248.0 550,243.6 580,240.3 610,238.2 640,237.3 670,237.7 700,239.3 730,242.1 760,246.0 790,251.0 820,256.9 850,263.6 880,271.0 910,278.9 940,287.0 970,295.3 1000,303.6 1030,311.6 1060,319.1 1090,326.1 1120,332.3 1150,337.7 1180,342.0 1210,345.2 1240,347.2 1250,725 -50,725" fill="#d4862a" opacity="0.08"/><polygon points="-50,425.8 -20,418.6 10,409.9 40,400.0 70,389.2 100,377.5 130,365.3 160,352.9 190,340.6 220,328.6 250,317.1 280,306.5 310,297.0 340,288.8 370,282.1 400,277.0 430,273.7 460,272.2 490,272.5 520,274.7 550,278.7 580,284.4 610,291.7 640,300.4 670,310.4 700,321.3 730,333.0 760,345.2 790,357.6 820,369.9 850,381.9 880,393.3 910,403.9 940,413.3 970,421.4 1000,428.1 1030,433.1 1060,436.3 1090,437.7 1120,437.2 1150,434.9 1180,430.8 1210,425.0 1240,417.7 1250,725 -50,725" fill="#d4862a" opacity="0.13"/><polygon points="-50,451.9 -20,453.2 10,453.7 40,453.5 70,452.5 100,450.7 130,448.3 160,445.1 190,441.4 220,437.2 250,432.6 280,427.7 310,422.6 340,417.4 370,412.3 400,407.3 430,402.6 460,398.2 490,394.3 520,391.0 550,388.3 580,386.3 610,385.1 640,384.6 670,384.9 700,385.9 730,387.7 760,390.2 790,393.4 820,397.1 850,401.3 880,406.0 910,410.9 940,416.0 970,421.2 1000,426.3 1030,431.3 1060,436.0 1090,440.3 1120,444.2 1150,447.5 1180,450.1 1210,452.1 1240,453.3 1250,725 -50,725" fill="#d4862a" opacity="0.18"/><polygon points="-50,464.7 -20,459.8 10,455.1 40,450.6 70,446.5 100,442.8 130,439.7 160,437.1 190,435.3 220,434.1 250,433.7 280,434.0 310,435.1 340,436.8 370,439.2 400,442.3 430,445.9 460,449.9 490,454.4 520,459.1 550,464.0 580,468.9 610,473.8 640,478.6 670,483.0 700,487.1 730,490.8 760,493.9 790,496.4 820,498.2 850,499.3 880,499.7 910,499.4 940,498.3 970,496.5 1000,494.0 1030,490.9 1060,487.3 1090,483.2 1120,478.8 1150,474.0 1180,469.1 1210,464.2 1240,459.3 1250,725 -50,725" fill="#d4862a" opacity="0.23"/><circle cx="300.0" cy="189.0" r="160" fill="url(#glow)"/>
  <g opacity="0.85" transform="translate(1020, 495)">
        <circle r="60" fill="#d4862a" opacity="0.18"/>
        <path d="M -34 6 Q -10 -22 14 6 Q 34 24 14 26 L -22 26 Q -38 24 -34 6 Z" fill="none" stroke="#bd6b20" stroke-width="3" stroke-linejoin="round"/>
      </g>
  <g transform="translate(80, 90)">
    <rect x="0" y="0" rx="20" ry="20" width="134" height="38" fill="#d4862a" opacity="0.18" stroke="#d4862a" stroke-width="1.5"/>
    <text x="67" y="25" font-family="ui-sans-serif, Inter, sans-serif" font-weight="700" font-size="14" letter-spacing="2.5" fill="#d4862a" text-anchor="middle">CASE STUDY</text>
  </g>
  <text x="80" y="515" font-family="ui-sans-serif, -apple-system, Segoe UI, Inter, sans-serif" font-weight="800" font-size="44" fill="#faf8f5" opacity="0.98"><tspan x="80" dy="0">Successful Resolution of a</tspan><tspan x="80" dy="56">Loan Dispute: A Case Study</tspan></text>
  <rect x="0" y="669" width="1200" height="6" fill="url(#gold)"/>
</svg>