<?xml version="1.0" encoding="UTF-8"?>
<svg xmlns="http://www.w3.org/2000/svg" viewBox="0 0 1200 675" width="1200" height="675" role="img" aria-label="Resolving an Invoice Settlement Dispute: A Case Study in Negotiation and Amicable Resolution">
  <defs>
    <linearGradient id="bg" x1="0%" y1="0%" x2="100%" y2="100%">
      <stop offset="0%" stop-color="#643516"/>
      <stop offset="100%" stop-color="#7d4315"/>
    </linearGradient>
    <linearGradient id="gold" x1="0%" y1="0%" x2="100%" y2="100%">
      <stop offset="0%" stop-color="#ecb478"/>
      <stop offset="100%" stop-color="#faebd6"/>
    </linearGradient>
    <radialGradient id="glow" cx="50%" cy="50%" r="50%">
      <stop offset="0%" stop-color="#ecb478" stop-opacity="0.45"/>
      <stop offset="100%" stop-color="#ecb478" stop-opacity="0"/>
    </radialGradient>
  </defs>
  <rect width="1200" height="675" fill="url(#bg)"/>
  <circle cx="31.2" cy="29.4" r="3.73" fill="#ecb478" opacity="0.16"/><circle cx="64.5" cy="27.2" r="2.18" fill="#ecb478" opacity="0.22"/><circle cx="101.5" cy="28.4" r="2.72" fill="#ecb478" opacity="0.28"/><circle cx="139.8" cy="29.0" r="3.66" fill="#ecb478" opacity="0.19"/><circle cx="173.3" cy="27.6" r="2.37" fill="#ecb478" opacity="0.33"/><circle cx="208.0" cy="27.7" r="1.83" fill="#ecb478" opacity="0.28"/><circle cx="243.9" cy="31.3" r="2.65" fill="#ecb478" opacity="0.31"/><circle cx="281.2" cy="31.4" r="2.93" fill="#ecb478" opacity="0.35"/><circle cx="318.0" cy="31.2" r="2.15" fill="#ecb478" opacity="0.21"/><circle cx="355.2" cy="31.4" r="1.84" fill="#ecb478" opacity="0.25"/><circle cx="390.4" cy="31.5" r="2.85" fill="#ecb478" opacity="0.19"/><circle cx="427.3" cy="27.2" r="1.99" fill="#ecb478" opacity="0.27"/><circle cx="464.2" cy="32.3" r="1.63" fill="#ecb478" opacity="0.22"/><circle cx="500.7" cy="31.0" r="2.37" fill="#ecb478" opacity="0.18"/><circle cx="532.9" cy="28.0" r="3.46" fill="#ecb478" opacity="0.29"/><circle cx="569.8" cy="30.3" r="3.89" fill="#ecb478" opacity="0.20"/><circle cx="607.6" cy="29.5" r="3.34" fill="#ecb478" opacity="0.24"/><circle cx="639.6" cy="31.0" r="2.38" fill="#ecb478" opacity="0.24"/><circle cx="677.5" cy="33.0" r="3.56" fill="#ecb478" opacity="0.22"/><circle cx="712.3" cy="30.4" r="2.39" fill="#ecb478" opacity="0.28"/><circle cx="747.7" cy="27.6" r="3.83" fill="#ecb478" opacity="0.30"/><circle cx="783.5" cy="27.1" r="3.52" fill="#ecb478" opacity="0.29"/><circle cx="821.8" cy="32.4" r="3.92" fill="#ecb478" opacity="0.17"/><circle cx="856.1" cy="32.2" r="3.14" fill="#ecb478" opacity="0.32"/><circle cx="893.2" cy="29.1" r="2.11" fill="#ecb478" opacity="0.27"/><circle cx="928.0" cy="27.7" r="3.85" fill="#ecb478" opacity="0.33"/><circle cx="963.9" cy="29.8" r="3.90" fill="#ecb478" opacity="0.18"/><circle cx="999.6" cy="30.9" r="2.79" fill="#ecb478" opacity="0.19"/><circle cx="1035.8" cy="28.2" r="3.93" fill="#ecb478" opacity="0.29"/><circle cx="1073.1" cy="31.5" r="2.31" fill="#ecb478" opacity="0.29"/><circle cx="1112.6" cy="33.0" r="3.27" fill="#ecb478" opacity="0.32"/><circle cx="1147.8" cy="28.3" r="2.16" fill="#ecb478" opacity="0.31"/><circle cx="1180.0" cy="32.8" r="3.03" fill="#ecb478" opacity="0.21"/><circle cx="31.3" cy="67.7" r="3.18" fill="#ecb478" opacity="0.24"/><circle cx="64.6" cy="63.2" r="3.54" fill="#ecb478" opacity="0.27"/><circle cx="101.0" cy="65.3" r="2.06" fill="#ecb478" opacity="0.20"/><circle cx="140.2" cy="63.8" r="3.79" fill="#ecb478" opacity="0.16"/><circle cx="175.6" cy="64.2" r="3.83" fill="#ecb478" opacity="0.25"/><circle cx="210.6" cy="67.5" r="3.71" fill="#ecb478" opacity="0.17"/><circle cx="243.1" cy="67.6" r="1.91" fill="#ecb478" opacity="0.19"/><circle cx="280.3" cy="64.3" r="2.56" fill="#ecb478" opacity="0.33"/><circle cx="315.2" cy="64.7" r="2.57" fill="#ecb478" opacity="0.25"/><circle cx="354.8" cy="64.5" r="2.48" fill="#ecb478" opacity="0.16"/><circle cx="392.3" cy="66.7" r="2.78" fill="#ecb478" opacity="0.26"/><circle cx="423.6" cy="63.9" r="3.41" fill="#ecb478" opacity="0.18"/><circle cx="462.9" cy="67.9" r="3.66" fill="#ecb478" opacity="0.28"/><circle cx="497.2" cy="67.9" r="3.61" fill="#ecb478" opacity="0.23"/><circle cx="533.4" cy="64.9" r="2.59" fill="#ecb478" opacity="0.32"/><circle cx="572.0" cy="63.6" r="2.46" fill="#ecb478" opacity="0.22"/><circle cx="606.2" cy="63.9" r="2.90" fill="#ecb478" opacity="0.22"/><circle cx="643.4" cy="63.5" r="2.73" fill="#ecb478" opacity="0.34"/><circle cx="679.3" cy="66.9" r="2.58" fill="#ecb478" opacity="0.29"/><circle cx="713.9" cy="68.6" r="2.00" fill="#ecb478" opacity="0.25"/><circle cx="751.2" cy="66.0" r="3.19" fill="#ecb478" opacity="0.22"/><circle cx="784.2" cy="65.3" r="2.53" fill="#ecb478" opacity="0.31"/><circle cx="821.7" cy="68.9" r="2.50" fill="#ecb478" opacity="0.33"/><circle cx="859.8" cy="66.4" r="3.07" fill="#ecb478" opacity="0.31"/><circle cx="893.6" cy="68.3" r="3.22" fill="#ecb478" opacity="0.26"/><circle cx="929.2" cy="67.8" r="3.76" fill="#ecb478" opacity="0.33"/><circle cx="963.8" cy="63.0" r="1.80" fill="#ecb478" opacity="0.28"/><circle cx="1001.8" cy="66.4" r="3.03" fill="#ecb478" opacity="0.19"/><circle cx="1037.0" cy="68.7" r="2.81" fill="#ecb478" opacity="0.27"/><circle cx="1074.1" cy="64.3" r="2.03" fill="#ecb478" opacity="0.25"/><circle cx="1110.3" cy="67.8" r="2.61" fill="#ecb478" opacity="0.35"/><circle cx="1146.0" cy="65.6" r="3.52" fill="#ecb478" opacity="0.26"/><circle cx="1183.7" cy="66.0" r="2.44" fill="#ecb478" opacity="0.22"/><circle cx="31.0" cy="102.7" r="2.52" fill="#ecb478" opacity="0.28"/><circle cx="66.0" cy="100.7" r="3.42" fill="#ecb478" opacity="0.20"/><circle cx="102.6" cy="101.1" r="2.88" fill="#ecb478" opacity="0.18"/><circle cx="138.6" cy="104.0" r="1.61" fill="#ecb478" opacity="0.35"/><circle cx="174.5" cy="103.7" r="3.86" fill="#ecb478" opacity="0.21"/><circle cx="209.7" cy="103.1" r="2.83" fill="#ecb478" opacity="0.25"/><circle cx="247.9" cy="104.8" r="3.91" fill="#ecb478" opacity="0.19"/><circle cx="284.3" cy="102.5" r="2.51" fill="#ecb478" opacity="0.36"/><circle cx="315.8" cy="102.9" r="3.03" fill="#ecb478" opacity="0.26"/><circle cx="355.7" cy="101.3" r="1.88" fill="#ecb478" opacity="0.24"/><circle cx="388.2" cy="102.5" r="2.50" fill="#ecb478" opacity="0.27"/><circle cx="428.0" cy="101.9" r="3.07" fill="#ecb478" opacity="0.17"/><circle cx="464.4" cy="104.3" r="3.36" fill="#ecb478" opacity="0.35"/><circle cx="498.1" cy="101.7" r="3.77" fill="#ecb478" opacity="0.21"/><circle cx="531.4" cy="104.0" r="3.05" fill="#ecb478" opacity="0.22"/><circle cx="572.0" cy="101.7" r="1.73" fill="#ecb478" opacity="0.29"/><circle cx="605.3" cy="102.6" r="3.55" fill="#ecb478" opacity="0.32"/><circle cx="639.9" cy="100.0" r="1.97" fill="#ecb478" opacity="0.29"/><circle cx="676.4" cy="100.7" r="1.89" fill="#ecb478" opacity="0.27"/><circle cx="714.6" cy="104.0" r="1.90" fill="#ecb478" opacity="0.23"/><circle cx="752.6" cy="102.2" r="2.17" fill="#ecb478" opacity="0.28"/><circle cx="784.2" cy="103.1" r="1.87" fill="#ecb478" opacity="0.21"/><circle cx="823.8" cy="101.4" r="2.60" fill="#ecb478" opacity="0.20"/><circle cx="858.1" cy="101.5" r="2.73" fill="#ecb478" opacity="0.19"/><circle cx="895.2" cy="103.2" r="3.02" fill="#ecb478" opacity="0.32"/><circle cx="930.2" cy="101.8" r="2.31" fill="#ecb478" opacity="0.25"/><circle cx="967.2" cy="103.2" r="3.78" fill="#ecb478" opacity="0.36"/><circle cx="1000.7" cy="101.6" r="2.73" fill="#ecb478" opacity="0.34"/><circle cx="1040.6" cy="102.8" r="2.75" fill="#ecb478" opacity="0.21"/><circle cx="1074.4" cy="102.3" r="3.74" fill="#ecb478" opacity="0.29"/><circle cx="1112.8" cy="100.4" r="2.11" fill="#ecb478" opacity="0.32"/><circle cx="1145.6" cy="99.2" r="2.17" fill="#ecb478" opacity="0.25"/><circle cx="1180.1" cy="99.9" r="1.80" fill="#ecb478" opacity="0.16"/><circle cx="29.2" cy="139.8" r="1.96" fill="#ecb478" opacity="0.24"/><circle cx="64.5" cy="139.5" r="2.88" fill="#ecb478" opacity="0.21"/><circle cx="99.7" cy="138.0" r="2.56" fill="#ecb478" opacity="0.28"/><circle cx="139.6" cy="137.7" r="1.76" fill="#ecb478" opacity="0.18"/><circle cx="176.1" cy="140.9" r="2.79" fill="#ecb478" opacity="0.27"/><circle cx="210.5" cy="140.1" r="1.60" fill="#ecb478" opacity="0.17"/><circle cx="244.3" cy="140.1" r="3.09" fill="#ecb478" opacity="0.18"/><circle cx="282.8" cy="139.2" r="3.26" fill="#ecb478" opacity="0.26"/><circle cx="315.8" cy="136.8" r="3.81" fill="#ecb478" opacity="0.33"/><circle cx="353.4" cy="139.1" r="2.15" fill="#ecb478" opacity="0.21"/><circle cx="387.0" cy="139.4" r="2.97" fill="#ecb478" opacity="0.23"/><circle cx="428.4" cy="135.2" r="3.56" fill="#ecb478" opacity="0.23"/><circle cx="462.3" cy="139.5" r="3.12" fill="#ecb478" opacity="0.17"/><circle cx="495.6" cy="135.7" r="2.20" fill="#ecb478" opacity="0.24"/><circle cx="534.5" cy="141.0" r="3.04" fill="#ecb478" opacity="0.23"/><circle cx="569.9" cy="138.1" r="3.22" fill="#ecb478" opacity="0.26"/><circle cx="607.2" cy="139.5" r="2.56" fill="#ecb478" opacity="0.28"/><circle cx="644.1" cy="135.5" r="3.17" fill="#ecb478" opacity="0.27"/><circle cx="679.8" cy="138.1" r="1.63" fill="#ecb478" opacity="0.26"/><circle cx="715.2" cy="135.1" r="3.03" fill="#ecb478" opacity="0.20"/><circle cx="752.9" cy="139.6" r="2.02" fill="#ecb478" opacity="0.25"/><circle cx="783.3" cy="140.6" r="2.95" fill="#ecb478" opacity="0.18"/><circle cx="824.1" cy="137.6" r="2.88" fill="#ecb478" opacity="0.27"/><circle cx="856.7" cy="137.4" r="3.43" fill="#ecb478" opacity="0.20"/><circle cx="893.4" cy="138.0" r="1.76" fill="#ecb478" opacity="0.30"/><circle cx="930.0" cy="138.1" r="3.04" fill="#ecb478" opacity="0.18"/><circle cx="964.6" cy="137.8" r="2.80" fill="#ecb478" opacity="0.26"/><circle cx="1004.7" cy="138.1" r="3.48" fill="#ecb478" opacity="0.20"/><circle cx="1036.2" cy="137.8" r="1.64" fill="#ecb478" opacity="0.18"/><circle cx="1071.2" cy="138.0" r="2.99" fill="#ecb478" opacity="0.25"/><circle cx="1112.5" cy="135.2" r="2.79" fill="#ecb478" opacity="0.29"/><circle cx="1148.5" cy="135.5" r="1.78" fill="#ecb478" opacity="0.17"/><circle cx="1180.6" cy="138.8" r="1.73" fill="#ecb478" opacity="0.32"/><circle cx="28.8" cy="171.5" r="3.75" fill="#ecb478" opacity="0.32"/><circle cx="68.1" cy="174.9" r="2.61" fill="#ecb478" opacity="0.34"/><circle cx="100.1" cy="172.5" r="3.63" fill="#ecb478" opacity="0.24"/><circle cx="140.1" cy="176.5" r="3.70" fill="#ecb478" opacity="0.16"/><circle cx="171.2" cy="175.3" r="1.86" fill="#ecb478" opacity="0.26"/><circle cx="212.2" cy="176.0" r="3.31" fill="#ecb478" opacity="0.24"/><circle cx="245.9" cy="173.0" r="3.19" fill="#ecb478" opacity="0.28"/><circle cx="283.0" cy="176.1" r="2.78" fill="#ecb478" opacity="0.24"/><circle cx="320.5" cy="171.6" r="2.22" fill="#ecb478" opacity="0.20"/><circle cx="355.2" cy="173.5" r="3.54" fill="#ecb478" opacity="0.21"/><circle cx="387.8" cy="175.0" r="2.24" fill="#ecb478" opacity="0.19"/><circle cx="424.7" cy="176.7" r="1.80" fill="#ecb478" opacity="0.23"/><circle cx="459.6" cy="171.7" r="1.73" fill="#ecb478" opacity="0.24"/><circle cx="495.3" cy="171.2" r="1.80" fill="#ecb478" opacity="0.19"/><circle cx="532.3" cy="171.7" r="3.95" fill="#ecb478" opacity="0.33"/><circle cx="570.1" cy="172.0" r="2.30" fill="#ecb478" opacity="0.28"/><circle cx="606.7" cy="176.0" r="2.42" fill="#ecb478" opacity="0.27"/><circle cx="642.4" cy="173.8" r="2.87" fill="#ecb478" opacity="0.16"/><circle cx="677.0" cy="175.0" r="2.00" fill="#ecb478" opacity="0.32"/><circle cx="714.2" cy="174.1" r="3.60" fill="#ecb478" opacity="0.25"/><circle cx="751.2" cy="171.4" r="2.41" fill="#ecb478" opacity="0.29"/><circle cx="787.1" cy="176.1" r="3.23" fill="#ecb478" opacity="0.26"/><circle cx="820.5" cy="174.1" r="1.72" fill="#ecb478" opacity="0.20"/><circle cx="855.7" cy="173.0" r="3.07" fill="#ecb478" opacity="0.29"/><circle cx="894.6" cy="173.1" r="3.49" fill="#ecb478" opacity="0.25"/><circle cx="927.9" cy="171.6" r="2.12" fill="#ecb478" opacity="0.32"/><circle cx="965.8" cy="171.7" r="3.30" fill="#ecb478" opacity="0.29"/><circle cx="1002.9" cy="171.0" r="1.89" fill="#ecb478" opacity="0.20"/><circle cx="1038.8" cy="174.7" r="3.21" fill="#ecb478" opacity="0.27"/><circle cx="1074.7" cy="176.2" r="2.57" fill="#ecb478" opacity="0.36"/><circle cx="1109.2" cy="171.5" r="3.81" fill="#ecb478" opacity="0.26"/><circle cx="1147.6" cy="174.6" r="2.62" fill="#ecb478" opacity="0.21"/><circle cx="1181.2" cy="176.2" r="1.81" fill="#ecb478" opacity="0.20"/><circle cx="29.9" cy="208.3" r="3.32" fill="#ecb478" opacity="0.26"/><circle cx="65.8" cy="211.9" r="3.95" fill="#ecb478" opacity="0.18"/><circle cx="104.0" cy="209.8" r="2.99" fill="#ecb478" opacity="0.31"/><circle cx="139.9" cy="211.3" r="3.25" fill="#ecb478" opacity="0.28"/><circle cx="171.4" cy="207.4" r="3.91" fill="#ecb478" opacity="0.35"/><circle cx="211.6" cy="210.3" r="1.65" fill="#ecb478" opacity="0.22"/><circle cx="243.2" cy="207.8" r="1.94" fill="#ecb478" opacity="0.19"/><circle cx="284.6" cy="211.8" r="3.19" fill="#ecb478" opacity="0.21"/><circle cx="315.3" cy="209.9" r="2.99" fill="#ecb478" opacity="0.18"/><circle cx="351.8" cy="212.7" r="1.82" fill="#ecb478" opacity="0.29"/><circle cx="387.3" cy="210.3" r="2.88" fill="#ecb478" opacity="0.31"/><circle cx="426.8" cy="211.8" r="1.79" fill="#ecb478" opacity="0.28"/><circle cx="459.1" cy="210.2" r="3.90" fill="#ecb478" opacity="0.27"/><circle cx="496.5" cy="208.6" r="3.79" fill="#ecb478" opacity="0.31"/><circle cx="535.0" cy="212.4" r="3.72" fill="#ecb478" opacity="0.16"/><circle cx="567.8" cy="211.5" r="1.77" fill="#ecb478" opacity="0.18"/><circle cx="603.6" cy="207.8" r="2.14" fill="#ecb478" opacity="0.27"/><circle cx="644.2" cy="207.1" r="1.70" fill="#ecb478" opacity="0.22"/><circle cx="676.4" cy="208.8" r="3.10" fill="#ecb478" opacity="0.34"/><circle cx="712.2" cy="210.3" r="2.97" fill="#ecb478" opacity="0.19"/><circle cx="748.4" cy="208.3" r="3.47" fill="#ecb478" opacity="0.29"/><circle cx="786.7" cy="210.5" r="3.47" fill="#ecb478" opacity="0.31"/><circle cx="820.2" cy="208.4" r="2.04" fill="#ecb478" opacity="0.21"/><circle cx="855.0" cy="208.6" r="3.00" fill="#ecb478" opacity="0.24"/><circle cx="893.8" cy="208.4" r="2.76" fill="#ecb478" opacity="0.17"/><circle cx="928.9" cy="207.5" r="3.44" fill="#ecb478" opacity="0.31"/><circle cx="968.6" cy="211.6" r="2.74" fill="#ecb478" opacity="0.36"/><circle cx="1003.7" cy="208.5" r="3.31" fill="#ecb478" opacity="0.29"/><circle cx="1038.7" cy="212.3" r="3.04" fill="#ecb478" opacity="0.34"/><circle cx="1073.1" cy="208.5" r="1.90" fill="#ecb478" opacity="0.18"/><circle cx="1108.8" cy="211.9" r="2.13" fill="#ecb478" opacity="0.28"/><circle cx="1147.5" cy="210.1" r="1.67" fill="#ecb478" opacity="0.35"/><circle cx="1179.3" cy="212.4" r="2.12" fill="#ecb478" opacity="0.34"/><circle cx="27.0" cy="245.9" r="3.00" fill="#ecb478" opacity="0.31"/><circle cx="64.4" cy="243.2" r="2.11" fill="#ecb478" opacity="0.25"/><circle cx="99.5" cy="247.8" r="2.62" fill="#ecb478" opacity="0.27"/><circle cx="136.5" cy="248.6" r="1.85" fill="#ecb478" opacity="0.15"/><circle cx="173.9" cy="243.1" r="2.71" fill="#ecb478" opacity="0.20"/><circle cx="207.5" cy="246.8" r="2.57" fill="#ecb478" opacity="0.34"/><circle cx="248.9" cy="243.7" r="3.46" fill="#ecb478" opacity="0.32"/><circle cx="280.0" cy="247.6" r="3.72" fill="#ecb478" opacity="0.20"/><circle cx="319.0" cy="246.4" r="2.30" fill="#ecb478" opacity="0.23"/><circle cx="352.7" cy="248.1" r="1.74" fill="#ecb478" opacity="0.34"/><circle cx="388.0" cy="244.4" r="2.24" fill="#ecb478" opacity="0.28"/><circle cx="423.6" cy="246.3" r="3.44" fill="#ecb478" opacity="0.28"/><circle cx="462.9" cy="248.3" r="1.88" fill="#ecb478" opacity="0.16"/><circle cx="500.3" cy="248.2" r="3.97" fill="#ecb478" opacity="0.26"/><circle cx="532.9" cy="248.4" r="2.52" fill="#ecb478" opacity="0.32"/><circle cx="571.1" cy="248.2" r="3.62" fill="#ecb478" opacity="0.26"/><circle cx="606.1" cy="244.1" r="3.14" fill="#ecb478" opacity="0.18"/><circle cx="641.8" cy="247.6" r="2.38" fill="#ecb478" opacity="0.23"/><circle cx="679.5" cy="246.9" r="3.79" fill="#ecb478" opacity="0.35"/><circle cx="711.9" cy="243.9" r="2.96" fill="#ecb478" opacity="0.19"/><circle cx="752.6" cy="245.1" r="3.32" fill="#ecb478" opacity="0.29"/><circle cx="785.3" cy="245.9" r="1.84" fill="#ecb478" opacity="0.27"/><circle cx="824.5" cy="244.3" r="2.14" fill="#ecb478" opacity="0.34"/><circle cx="860.2" cy="245.9" r="2.40" fill="#ecb478" opacity="0.27"/><circle cx="896.9" cy="248.1" r="2.89" fill="#ecb478" opacity="0.27"/><circle cx="930.7" cy="248.1" r="3.78" fill="#ecb478" opacity="0.22"/><circle cx="965.6" cy="245.8" r="3.26" fill="#ecb478" opacity="0.34"/><circle cx="999.3" cy="248.8" r="2.22" fill="#ecb478" opacity="0.24"/><circle cx="1036.0" cy="247.8" r="3.88" fill="#ecb478" opacity="0.29"/><circle cx="1072.6" cy="245.4" r="1.87" fill="#ecb478" opacity="0.26"/><circle cx="1112.8" cy="248.9" r="3.31" fill="#ecb478" opacity="0.34"/><circle cx="1143.0" cy="247.3" r="3.68" fill="#ecb478" opacity="0.26"/><circle cx="1183.8" cy="244.6" r="3.22" fill="#ecb478" opacity="0.36"/><circle cx="31.8" cy="283.8" r="3.67" fill="#ecb478" opacity="0.28"/><circle cx="66.0" cy="282.2" r="3.52" fill="#ecb478" opacity="0.29"/><circle cx="104.1" cy="279.4" r="3.69" fill="#ecb478" opacity="0.30"/><circle cx="138.7" cy="281.3" r="2.71" fill="#ecb478" opacity="0.16"/><circle cx="176.4" cy="282.1" r="2.55" fill="#ecb478" opacity="0.31"/><circle cx="207.5" cy="283.6" r="3.27" fill="#ecb478" opacity="0.34"/><circle cx="245.4" cy="281.9" r="1.65" fill="#ecb478" opacity="0.21"/><circle cx="281.0" cy="283.5" r="3.19" fill="#ecb478" opacity="0.27"/><circle cx="316.7" cy="283.6" r="1.82" fill="#ecb478" opacity="0.35"/><circle cx="351.4" cy="280.8" r="2.39" fill="#ecb478" opacity="0.28"/><circle cx="392.4" cy="281.0" r="3.04" fill="#ecb478" opacity="0.25"/><circle cx="428.9" cy="283.3" r="3.61" fill="#ecb478" opacity="0.19"/><circle cx="461.0" cy="279.9" r="3.87" fill="#ecb478" opacity="0.32"/><circle cx="499.1" cy="282.9" r="2.67" fill="#ecb478" opacity="0.27"/><circle cx="533.1" cy="282.4" r="2.02" fill="#ecb478" opacity="0.34"/><circle cx="570.1" cy="283.5" r="3.22" fill="#ecb478" opacity="0.19"/><circle cx="603.4" cy="279.6" r="2.98" fill="#ecb478" opacity="0.24"/><circle cx="640.4" cy="282.5" r="3.89" fill="#ecb478" opacity="0.23"/><circle cx="678.5" cy="279.6" r="3.18" fill="#ecb478" opacity="0.28"/><circle cx="711.7" cy="284.9" r="3.55" fill="#ecb478" opacity="0.34"/><circle cx="748.2" cy="283.9" r="2.98" fill="#ecb478" opacity="0.36"/><circle cx="786.9" cy="281.8" r="3.14" fill="#ecb478" opacity="0.17"/><circle cx="820.1" cy="282.9" r="2.47" fill="#ecb478" opacity="0.24"/><circle cx="855.3" cy="284.8" r="2.99" fill="#ecb478" opacity="0.36"/><circle cx="896.1" cy="281.2" r="2.57" fill="#ecb478" opacity="0.25"/><circle cx="929.3" cy="283.1" r="3.06" fill="#ecb478" opacity="0.30"/><circle cx="968.1" cy="283.4" r="2.18" fill="#ecb478" opacity="0.33"/><circle cx="1003.8" cy="279.5" r="2.45" fill="#ecb478" opacity="0.21"/><circle cx="1035.1" cy="282.2" r="3.09" fill="#ecb478" opacity="0.20"/><circle cx="1071.5" cy="283.4" r="3.99" fill="#ecb478" opacity="0.34"/><circle cx="1110.2" cy="279.3" r="2.41" fill="#ecb478" opacity="0.31"/><circle cx="1143.9" cy="280.0" r="3.93" fill="#ecb478" opacity="0.25"/><circle cx="1185.0" cy="282.1" r="2.61" fill="#ecb478" opacity="0.23"/><circle cx="29.5" cy="316.6" r="3.36" fill="#ecb478" opacity="0.29"/><circle cx="64.2" cy="319.0" r="2.95" fill="#ecb478" opacity="0.30"/><circle cx="99.2" cy="317.9" r="3.01" fill="#ecb478" opacity="0.26"/><circle cx="138.5" cy="317.1" r="3.64" fill="#ecb478" opacity="0.26"/><circle cx="173.3" cy="315.4" r="3.60" fill="#ecb478" opacity="0.18"/><circle cx="211.0" cy="318.1" r="1.96" fill="#ecb478" opacity="0.19"/><circle cx="248.6" cy="315.4" r="3.91" fill="#ecb478" opacity="0.15"/><circle cx="282.8" cy="317.2" r="3.92" fill="#ecb478" opacity="0.17"/><circle cx="317.4" cy="318.2" r="2.59" fill="#ecb478" opacity="0.19"/><circle cx="356.9" cy="320.8" r="3.61" fill="#ecb478" opacity="0.35"/><circle cx="389.3" cy="319.6" r="3.76" fill="#ecb478" opacity="0.30"/><circle cx="428.6" cy="318.6" r="3.80" fill="#ecb478" opacity="0.36"/><circle cx="463.2" cy="315.4" r="3.26" fill="#ecb478" opacity="0.18"/><circle cx="496.1" cy="319.8" r="3.40" fill="#ecb478" opacity="0.32"/><circle cx="535.2" cy="319.0" r="3.97" fill="#ecb478" opacity="0.36"/><circle cx="568.2" cy="317.7" r="2.63" fill="#ecb478" opacity="0.20"/><circle cx="604.6" cy="319.5" r="2.84" fill="#ecb478" opacity="0.24"/><circle cx="643.3" cy="318.7" r="1.83" fill="#ecb478" opacity="0.16"/><circle cx="676.7" cy="320.8" r="3.89" fill="#ecb478" opacity="0.34"/><circle cx="711.4" cy="317.4" r="3.93" fill="#ecb478" opacity="0.25"/><circle cx="751.7" cy="315.0" r="3.38" fill="#ecb478" opacity="0.25"/><circle cx="785.7" cy="315.5" r="2.79" fill="#ecb478" opacity="0.32"/><circle cx="819.3" cy="317.6" r="2.11" fill="#ecb478" opacity="0.26"/><circle cx="857.2" cy="317.0" r="2.36" fill="#ecb478" opacity="0.19"/><circle cx="892.8" cy="320.1" r="3.57" fill="#ecb478" opacity="0.32"/><circle cx="933.0" cy="316.8" r="2.96" fill="#ecb478" opacity="0.23"/><circle cx="966.6" cy="317.8" r="2.39" fill="#ecb478" opacity="0.35"/><circle cx="1002.9" cy="315.3" r="3.06" fill="#ecb478" opacity="0.24"/><circle cx="1039.4" cy="316.8" r="3.43" fill="#ecb478" opacity="0.21"/><circle cx="1071.7" cy="320.6" r="1.65" fill="#ecb478" opacity="0.31"/><circle cx="1107.9" cy="320.2" r="3.60" fill="#ecb478" opacity="0.30"/><circle cx="1145.7" cy="315.5" r="2.59" fill="#ecb478" opacity="0.29"/><circle cx="1184.9" cy="316.0" r="3.02" fill="#ecb478" opacity="0.34"/><circle cx="28.4" cy="351.4" r="3.07" fill="#ecb478" opacity="0.30"/><circle cx="66.5" cy="356.7" r="2.11" fill="#ecb478" opacity="0.22"/><circle cx="100.2" cy="356.1" r="3.34" fill="#ecb478" opacity="0.27"/><circle cx="135.3" cy="352.5" r="3.58" fill="#ecb478" opacity="0.34"/><circle cx="171.6" cy="353.3" r="3.87" fill="#ecb478" opacity="0.24"/><circle cx="209.1" cy="351.1" r="1.77" fill="#ecb478" opacity="0.33"/><circle cx="245.3" cy="355.4" r="3.76" fill="#ecb478" opacity="0.34"/><circle cx="282.6" cy="353.3" r="3.00" fill="#ecb478" opacity="0.18"/><circle cx="315.5" cy="351.3" r="3.83" fill="#ecb478" opacity="0.32"/><circle cx="354.6" cy="351.5" r="3.81" fill="#ecb478" opacity="0.17"/><circle cx="389.4" cy="353.8" r="2.71" fill="#ecb478" opacity="0.32"/><circle cx="423.7" cy="353.6" r="2.58" fill="#ecb478" opacity="0.32"/><circle cx="459.8" cy="353.6" r="2.10" fill="#ecb478" opacity="0.33"/><circle cx="498.2" cy="354.9" r="2.48" fill="#ecb478" opacity="0.17"/><circle cx="535.5" cy="354.9" r="3.01" fill="#ecb478" opacity="0.23"/><circle cx="570.2" cy="353.7" r="3.12" fill="#ecb478" opacity="0.31"/><circle cx="604.3" cy="352.8" r="3.20" fill="#ecb478" opacity="0.28"/><circle cx="639.1" cy="356.0" r="3.81" fill="#ecb478" opacity="0.33"/><circle cx="678.9" cy="355.4" r="3.68" fill="#ecb478" opacity="0.27"/><circle cx="712.9" cy="355.0" r="1.85" fill="#ecb478" opacity="0.34"/><circle cx="748.3" cy="354.3" r="2.71" fill="#ecb478" opacity="0.32"/><circle cx="783.2" cy="354.7" r="1.71" fill="#ecb478" opacity="0.25"/><circle cx="822.3" cy="355.0" r="3.28" fill="#ecb478" opacity="0.27"/><circle cx="859.8" cy="351.2" r="3.54" fill="#ecb478" opacity="0.28"/><circle cx="891.7" cy="351.4" r="3.10" fill="#ecb478" opacity="0.24"/><circle cx="931.3" cy="351.0" r="2.57" fill="#ecb478" opacity="0.19"/><circle cx="964.1" cy="355.4" r="3.61" fill="#ecb478" opacity="0.31"/><circle cx="1004.8" cy="353.5" r="2.41" fill="#ecb478" opacity="0.31"/><circle cx="1036.0" cy="354.4" r="2.96" fill="#ecb478" opacity="0.17"/><circle cx="1073.1" cy="353.0" r="3.53" fill="#ecb478" opacity="0.23"/><circle cx="1107.3" cy="352.1" r="1.80" fill="#ecb478" opacity="0.23"/><circle cx="1146.3" cy="352.0" r="3.36" fill="#ecb478" opacity="0.35"/><circle cx="1183.6" cy="352.1" r="3.14" fill="#ecb478" opacity="0.30"/><circle cx="28.5" cy="389.2" r="3.27" fill="#ecb478" opacity="0.20"/><circle cx="67.0" cy="392.1" r="2.69" fill="#ecb478" opacity="0.19"/><circle cx="100.7" cy="391.9" r="2.36" fill="#ecb478" opacity="0.27"/><circle cx="137.9" cy="387.6" r="2.92" fill="#ecb478" opacity="0.32"/><circle cx="174.0" cy="389.6" r="1.85" fill="#ecb478" opacity="0.23"/><circle cx="207.0" cy="392.4" r="3.98" fill="#ecb478" opacity="0.22"/><circle cx="246.6" cy="390.5" r="2.56" fill="#ecb478" opacity="0.34"/><circle cx="284.7" cy="388.2" r="2.52" fill="#ecb478" opacity="0.34"/><circle cx="317.8" cy="389.8" r="2.16" fill="#ecb478" opacity="0.18"/><circle cx="352.5" cy="388.8" r="2.05" fill="#ecb478" opacity="0.28"/><circle cx="390.0" cy="392.3" r="3.73" fill="#ecb478" opacity="0.32"/><circle cx="426.3" cy="390.5" r="2.83" fill="#ecb478" opacity="0.30"/><circle cx="463.5" cy="387.1" r="3.97" fill="#ecb478" opacity="0.28"/><circle cx="500.2" cy="388.4" r="2.34" fill="#ecb478" opacity="0.16"/><circle cx="533.1" cy="390.8" r="2.35" fill="#ecb478" opacity="0.29"/><circle cx="570.7" cy="387.1" r="3.07" fill="#ecb478" opacity="0.21"/><circle cx="605.7" cy="391.2" r="2.58" fill="#ecb478" opacity="0.33"/><circle cx="641.6" cy="392.6" r="2.91" fill="#ecb478" opacity="0.34"/><circle cx="676.1" cy="388.5" r="2.52" fill="#ecb478" opacity="0.32"/><circle cx="715.3" cy="389.6" r="2.01" fill="#ecb478" opacity="0.20"/><circle cx="748.8" cy="390.6" r="3.55" fill="#ecb478" opacity="0.35"/><circle cx="785.1" cy="390.6" r="3.93" fill="#ecb478" opacity="0.34"/><circle cx="822.8" cy="391.6" r="1.93" fill="#ecb478" opacity="0.32"/><circle cx="858.5" cy="391.2" r="2.54" fill="#ecb478" opacity="0.21"/><circle cx="896.2" cy="388.3" r="3.98" fill="#ecb478" opacity="0.24"/><circle cx="928.4" cy="389.1" r="3.90" fill="#ecb478" opacity="0.16"/><circle cx="963.4" cy="388.1" r="3.41" fill="#ecb478" opacity="0.21"/><circle cx="1004.1" cy="388.1" r="3.49" fill="#ecb478" opacity="0.35"/><circle cx="1039.0" cy="390.8" r="3.13" fill="#ecb478" opacity="0.30"/><circle cx="1076.4" cy="391.5" r="3.85" fill="#ecb478" opacity="0.25"/><circle cx="1112.3" cy="390.0" r="2.47" fill="#ecb478" opacity="0.32"/><circle cx="1144.5" cy="387.2" r="3.29" fill="#ecb478" opacity="0.23"/><circle cx="1182.0" cy="390.2" r="3.12" fill="#ecb478" opacity="0.22"/><circle cx="30.3" cy="424.4" r="2.79" fill="#ecb478" opacity="0.31"/><circle cx="66.5" cy="426.1" r="3.70" fill="#ecb478" opacity="0.23"/><circle cx="99.8" cy="426.6" r="3.64" fill="#ecb478" opacity="0.27"/><circle cx="140.8" cy="428.2" r="3.51" fill="#ecb478" opacity="0.25"/><circle cx="176.3" cy="428.3" r="3.55" fill="#ecb478" opacity="0.34"/><circle cx="208.4" cy="428.3" r="1.62" fill="#ecb478" opacity="0.34"/><circle cx="248.4" cy="426.9" r="1.81" fill="#ecb478" opacity="0.20"/><circle cx="283.2" cy="423.2" r="3.92" fill="#ecb478" opacity="0.22"/><circle cx="319.7" cy="428.1" r="2.20" fill="#ecb478" opacity="0.22"/><circle cx="354.9" cy="428.2" r="3.09" fill="#ecb478" opacity="0.21"/><circle cx="391.2" cy="426.0" r="3.99" fill="#ecb478" opacity="0.31"/><circle cx="425.9" cy="426.8" r="2.08" fill="#ecb478" opacity="0.20"/><circle cx="462.6" cy="428.5" r="2.62" fill="#ecb478" opacity="0.23"/><circle cx="495.7" cy="425.7" r="3.48" fill="#ecb478" opacity="0.34"/><circle cx="535.4" cy="423.5" r="2.34" fill="#ecb478" opacity="0.26"/><circle cx="572.0" cy="424.2" r="2.06" fill="#ecb478" opacity="0.16"/><circle cx="606.2" cy="425.1" r="3.44" fill="#ecb478" opacity="0.15"/><circle cx="641.6" cy="423.1" r="3.50" fill="#ecb478" opacity="0.23"/><circle cx="677.4" cy="427.0" r="2.37" fill="#ecb478" opacity="0.18"/><circle cx="715.9" cy="424.7" r="1.73" fill="#ecb478" opacity="0.26"/><circle cx="750.4" cy="427.5" r="3.42" fill="#ecb478" opacity="0.32"/><circle cx="783.1" cy="425.5" r="2.00" fill="#ecb478" opacity="0.30"/><circle cx="822.5" cy="426.4" r="2.10" fill="#ecb478" opacity="0.16"/><circle cx="860.1" cy="428.1" r="3.63" fill="#ecb478" opacity="0.22"/><circle cx="892.4" cy="425.2" r="2.01" fill="#ecb478" opacity="0.26"/><circle cx="930.6" cy="425.0" r="2.15" fill="#ecb478" opacity="0.16"/><circle cx="963.2" cy="424.9" r="3.31" fill="#ecb478" opacity="0.29"/><circle cx="1003.8" cy="426.4" r="2.88" fill="#ecb478" opacity="0.25"/><circle cx="1038.5" cy="424.1" r="2.82" fill="#ecb478" opacity="0.26"/><circle cx="1071.3" cy="426.8" r="3.04" fill="#ecb478" opacity="0.27"/><circle cx="1107.4" cy="424.6" r="2.78" fill="#ecb478" opacity="0.32"/><circle cx="1147.2" cy="425.7" r="2.30" fill="#ecb478" opacity="0.26"/><circle cx="1183.3" cy="427.8" r="3.89" fill="#ecb478" opacity="0.35"/><circle cx="28.9" cy="464.6" r="3.10" fill="#ecb478" opacity="0.31"/><circle cx="66.8" cy="462.7" r="3.51" fill="#ecb478" opacity="0.19"/><circle cx="104.8" cy="462.4" r="2.95" fill="#ecb478" opacity="0.17"/><circle cx="136.4" cy="464.0" r="1.82" fill="#ecb478" opacity="0.19"/><circle cx="174.1" cy="463.1" r="3.60" fill="#ecb478" opacity="0.19"/><circle cx="209.5" cy="460.1" r="2.75" fill="#ecb478" opacity="0.34"/><circle cx="244.2" cy="459.3" r="2.23" fill="#ecb478" opacity="0.32"/><circle cx="280.7" cy="461.8" r="1.83" fill="#ecb478" opacity="0.35"/><circle cx="317.1" cy="461.6" r="3.97" fill="#ecb478" opacity="0.19"/><circle cx="356.6" cy="459.4" r="1.79" fill="#ecb478" opacity="0.24"/><circle cx="390.2" cy="460.4" r="1.62" fill="#ecb478" opacity="0.17"/><circle cx="423.9" cy="462.1" r="3.30" fill="#ecb478" opacity="0.15"/><circle cx="460.9" cy="459.4" r="3.37" fill="#ecb478" opacity="0.20"/><circle cx="496.6" cy="461.4" r="2.32" fill="#ecb478" opacity="0.28"/><circle cx="535.9" cy="464.5" r="1.93" fill="#ecb478" opacity="0.31"/><circle cx="571.6" cy="462.4" r="3.70" fill="#ecb478" opacity="0.18"/><circle cx="607.1" cy="464.4" r="3.27" fill="#ecb478" opacity="0.28"/><circle cx="639.8" cy="462.6" r="3.37" fill="#ecb478" opacity="0.19"/><circle cx="676.8" cy="464.8" r="2.10" fill="#ecb478" opacity="0.28"/><circle cx="714.8" cy="462.2" r="2.28" fill="#ecb478" opacity="0.17"/><circle cx="747.1" cy="464.7" r="3.62" fill="#ecb478" opacity="0.24"/><circle cx="783.4" cy="461.1" r="2.60" fill="#ecb478" opacity="0.27"/><circle cx="823.0" cy="459.7" r="2.37" fill="#ecb478" opacity="0.34"/><circle cx="857.0" cy="460.8" r="2.54" fill="#ecb478" opacity="0.26"/><circle cx="891.3" cy="459.3" r="2.11" fill="#ecb478" opacity="0.28"/><circle cx="932.7" cy="461.8" r="3.06" fill="#ecb478" opacity="0.35"/><circle cx="968.6" cy="460.0" r="2.53" fill="#ecb478" opacity="0.17"/><circle cx="1004.1" cy="459.1" r="2.43" fill="#ecb478" opacity="0.17"/><circle cx="1039.1" cy="460.1" r="2.52" fill="#ecb478" opacity="0.16"/><circle cx="1076.3" cy="462.9" r="3.32" fill="#ecb478" opacity="0.32"/><circle cx="1111.5" cy="461.0" r="2.25" fill="#ecb478" opacity="0.25"/><circle cx="1144.3" cy="460.6" r="3.46" fill="#ecb478" opacity="0.24"/><circle cx="1179.2" cy="459.3" r="2.33" fill="#ecb478" opacity="0.33"/><circle cx="28.7" cy="496.5" r="3.45" fill="#ecb478" opacity="0.17"/><circle cx="64.0" cy="498.6" r="1.68" fill="#ecb478" opacity="0.16"/><circle cx="103.8" cy="497.0" r="1.86" fill="#ecb478" opacity="0.33"/><circle cx="139.8" cy="497.5" r="2.54" fill="#ecb478" opacity="0.30"/><circle cx="174.7" cy="496.7" r="3.23" fill="#ecb478" opacity="0.27"/><circle cx="212.2" cy="497.5" r="3.99" fill="#ecb478" opacity="0.20"/><circle cx="245.7" cy="498.4" r="3.96" fill="#ecb478" opacity="0.21"/><circle cx="283.2" cy="499.4" r="2.72" fill="#ecb478" opacity="0.18"/><circle cx="319.1" cy="499.1" r="3.30" fill="#ecb478" opacity="0.36"/><circle cx="355.3" cy="495.5" r="3.50" fill="#ecb478" opacity="0.23"/><circle cx="391.0" cy="499.6" r="2.88" fill="#ecb478" opacity="0.31"/><circle cx="428.7" cy="495.9" r="2.73" fill="#ecb478" opacity="0.26"/><circle cx="462.1" cy="495.3" r="3.00" fill="#ecb478" opacity="0.15"/><circle cx="495.8" cy="498.4" r="2.32" fill="#ecb478" opacity="0.24"/><circle cx="536.1" cy="496.4" r="2.01" fill="#ecb478" opacity="0.23"/><circle cx="571.7" cy="499.6" r="2.89" fill="#ecb478" opacity="0.26"/><circle cx="604.3" cy="498.0" r="3.47" fill="#ecb478" opacity="0.20"/><circle cx="643.0" cy="496.1" r="2.17" fill="#ecb478" opacity="0.18"/><circle cx="677.4" cy="500.7" r="3.84" fill="#ecb478" opacity="0.35"/><circle cx="716.9" cy="498.6" r="2.35" fill="#ecb478" opacity="0.33"/><circle cx="750.4" cy="495.2" r="2.38" fill="#ecb478" opacity="0.15"/><circle cx="784.3" cy="499.0" r="3.84" fill="#ecb478" opacity="0.30"/><circle cx="822.5" cy="497.2" r="2.56" fill="#ecb478" opacity="0.18"/><circle cx="861.0" cy="500.5" r="3.77" fill="#ecb478" opacity="0.33"/><circle cx="893.3" cy="496.6" r="2.74" fill="#ecb478" opacity="0.25"/><circle cx="929.7" cy="499.4" r="1.77" fill="#ecb478" opacity="0.31"/><circle cx="968.7" cy="499.6" r="3.90" fill="#ecb478" opacity="0.35"/><circle cx="1002.5" cy="495.1" r="2.13" fill="#ecb478" opacity="0.19"/><circle cx="1040.6" cy="496.0" r="3.04" fill="#ecb478" opacity="0.26"/><circle cx="1072.2" cy="498.0" r="3.25" fill="#ecb478" opacity="0.28"/><circle cx="1112.3" cy="500.0" r="2.41" fill="#ecb478" opacity="0.20"/><circle cx="1148.6" cy="499.2" r="2.73" fill="#ecb478" opacity="0.19"/><circle cx="1179.9" cy="499.3" r="2.99" fill="#ecb478" opacity="0.24"/><circle cx="31.5" cy="533.1" r="1.67" fill="#ecb478" opacity="0.34"/><circle cx="63.9" cy="536.6" r="2.68" fill="#ecb478" opacity="0.30"/><circle cx="100.9" cy="531.3" r="3.98" fill="#ecb478" opacity="0.35"/><circle cx="136.2" cy="536.4" r="3.24" fill="#ecb478" opacity="0.36"/><circle cx="176.0" cy="531.3" r="3.86" fill="#ecb478" opacity="0.34"/><circle cx="209.5" cy="532.1" r="2.24" fill="#ecb478" opacity="0.16"/><circle cx="243.3" cy="531.9" r="2.39" fill="#ecb478" opacity="0.32"/><circle cx="280.4" cy="531.5" r="3.41" fill="#ecb478" opacity="0.32"/><circle cx="315.7" cy="536.8" r="3.48" fill="#ecb478" opacity="0.23"/><circle cx="353.1" cy="531.0" r="2.52" fill="#ecb478" opacity="0.33"/><circle cx="389.9" cy="531.3" r="1.63" fill="#ecb478" opacity="0.29"/><circle cx="427.7" cy="531.7" r="3.33" fill="#ecb478" opacity="0.21"/><circle cx="461.4" cy="535.8" r="2.61" fill="#ecb478" opacity="0.28"/><circle cx="496.3" cy="533.2" r="3.78" fill="#ecb478" opacity="0.34"/><circle cx="534.8" cy="536.2" r="3.52" fill="#ecb478" opacity="0.31"/><circle cx="569.0" cy="535.1" r="1.95" fill="#ecb478" opacity="0.23"/><circle cx="604.9" cy="531.4" r="2.24" fill="#ecb478" opacity="0.31"/><circle cx="642.0" cy="533.6" r="3.67" fill="#ecb478" opacity="0.33"/><circle cx="675.7" cy="535.4" r="3.06" fill="#ecb478" opacity="0.16"/><circle cx="716.0" cy="533.8" r="2.01" fill="#ecb478" opacity="0.15"/><circle cx="750.5" cy="531.7" r="3.57" fill="#ecb478" opacity="0.32"/><circle cx="786.6" cy="535.3" r="2.02" fill="#ecb478" opacity="0.24"/><circle cx="823.7" cy="536.3" r="2.62" fill="#ecb478" opacity="0.17"/><circle cx="856.3" cy="531.8" r="3.57" fill="#ecb478" opacity="0.33"/><circle cx="896.9" cy="533.5" r="2.63" fill="#ecb478" opacity="0.32"/><circle cx="928.5" cy="534.7" r="3.29" fill="#ecb478" opacity="0.32"/><circle cx="966.0" cy="534.4" r="3.71" fill="#ecb478" opacity="0.32"/><circle cx="1001.8" cy="531.1" r="3.26" fill="#ecb478" opacity="0.30"/><circle cx="1039.1" cy="532.0" r="2.16" fill="#ecb478" opacity="0.32"/><circle cx="1075.9" cy="531.5" r="1.78" fill="#ecb478" opacity="0.19"/><circle cx="1109.3" cy="536.0" r="2.00" fill="#ecb478" opacity="0.19"/><circle cx="1145.9" cy="531.2" r="1.61" fill="#ecb478" opacity="0.27"/><circle cx="1181.8" cy="534.7" r="2.22" fill="#ecb478" opacity="0.27"/><circle cx="32.8" cy="569.3" r="3.22" fill="#ecb478" opacity="0.30"/><circle cx="66.8" cy="571.9" r="2.16" fill="#ecb478" opacity="0.35"/><circle cx="105.0" cy="571.9" r="3.24" fill="#ecb478" opacity="0.34"/><circle cx="136.2" cy="570.6" r="2.08" fill="#ecb478" opacity="0.29"/><circle cx="172.3" cy="569.0" r="3.76" fill="#ecb478" opacity="0.18"/><circle cx="209.3" cy="572.5" r="3.33" fill="#ecb478" opacity="0.21"/><circle cx="244.5" cy="568.9" r="3.36" fill="#ecb478" opacity="0.24"/><circle cx="284.6" cy="569.0" r="3.15" fill="#ecb478" opacity="0.29"/><circle cx="319.4" cy="572.4" r="1.80" fill="#ecb478" opacity="0.27"/><circle cx="355.2" cy="571.7" r="1.65" fill="#ecb478" opacity="0.15"/><circle cx="390.1" cy="570.6" r="1.71" fill="#ecb478" opacity="0.31"/><circle cx="423.5" cy="570.5" r="2.37" fill="#ecb478" opacity="0.35"/><circle cx="460.8" cy="572.0" r="2.41" fill="#ecb478" opacity="0.29"/><circle cx="495.1" cy="571.6" r="1.68" fill="#ecb478" opacity="0.17"/><circle cx="535.8" cy="572.7" r="2.83" fill="#ecb478" opacity="0.32"/><circle cx="570.0" cy="570.7" r="3.01" fill="#ecb478" opacity="0.24"/><circle cx="605.8" cy="569.8" r="2.16" fill="#ecb478" opacity="0.22"/><circle cx="643.1" cy="570.4" r="3.70" fill="#ecb478" opacity="0.32"/><circle cx="675.3" cy="567.4" r="1.74" fill="#ecb478" opacity="0.33"/><circle cx="714.1" cy="569.0" r="3.85" fill="#ecb478" opacity="0.15"/><circle cx="749.4" cy="568.1" r="2.16" fill="#ecb478" opacity="0.34"/><circle cx="787.4" cy="572.6" r="3.12" fill="#ecb478" opacity="0.25"/><circle cx="824.3" cy="567.1" r="3.92" fill="#ecb478" opacity="0.23"/><circle cx="859.6" cy="569.5" r="3.16" fill="#ecb478" opacity="0.28"/><circle cx="891.7" cy="570.3" r="3.33" fill="#ecb478" opacity="0.29"/><circle cx="928.0" cy="572.9" r="3.49" fill="#ecb478" opacity="0.28"/><circle cx="967.8" cy="568.3" r="1.70" fill="#ecb478" opacity="0.31"/><circle cx="999.6" cy="570.6" r="2.91" fill="#ecb478" opacity="0.22"/><circle cx="1035.4" cy="567.7" r="2.16" fill="#ecb478" opacity="0.21"/><circle cx="1075.4" cy="569.9" r="3.21" fill="#ecb478" opacity="0.21"/><circle cx="1108.4" cy="568.4" r="3.85" fill="#ecb478" opacity="0.32"/><circle cx="1146.5" cy="572.9" r="1.67" fill="#ecb478" opacity="0.21"/><circle cx="1182.3" cy="570.0" r="3.56" fill="#ecb478" opacity="0.19"/><circle cx="28.7" cy="606.4" r="3.62" fill="#ecb478" opacity="0.16"/><circle cx="65.5" cy="608.3" r="2.38" fill="#ecb478" opacity="0.31"/><circle cx="101.8" cy="608.5" r="2.13" fill="#ecb478" opacity="0.29"/><circle cx="135.0" cy="606.3" r="2.30" fill="#ecb478" opacity="0.22"/><circle cx="175.2" cy="606.3" r="3.41" fill="#ecb478" opacity="0.34"/><circle cx="208.4" cy="605.1" r="2.04" fill="#ecb478" opacity="0.27"/><circle cx="246.9" cy="604.9" r="1.96" fill="#ecb478" opacity="0.23"/><circle cx="282.9" cy="605.0" r="1.60" fill="#ecb478" opacity="0.33"/><circle cx="316.2" cy="605.6" r="3.39" fill="#ecb478" opacity="0.19"/><circle cx="353.1" cy="604.6" r="1.92" fill="#ecb478" opacity="0.23"/><circle cx="387.9" cy="604.1" r="2.57" fill="#ecb478" opacity="0.18"/><circle cx="427.1" cy="603.8" r="3.47" fill="#ecb478" opacity="0.21"/><circle cx="460.6" cy="603.9" r="2.45" fill="#ecb478" opacity="0.23"/><circle cx="497.9" cy="604.0" r="3.35" fill="#ecb478" opacity="0.23"/><circle cx="532.7" cy="608.0" r="1.69" fill="#ecb478" opacity="0.30"/><circle cx="572.8" cy="607.4" r="3.75" fill="#ecb478" opacity="0.21"/><circle cx="606.1" cy="606.3" r="2.74" fill="#ecb478" opacity="0.33"/><circle cx="642.3" cy="604.7" r="2.38" fill="#ecb478" opacity="0.32"/><circle cx="679.9" cy="606.7" r="1.69" fill="#ecb478" opacity="0.23"/><circle cx="714.6" cy="608.6" r="2.72" fill="#ecb478" opacity="0.36"/><circle cx="752.5" cy="608.3" r="2.97" fill="#ecb478" opacity="0.26"/><circle cx="788.1" cy="603.0" r="3.93" fill="#ecb478" opacity="0.34"/><circle cx="821.7" cy="606.3" r="1.74" fill="#ecb478" opacity="0.27"/><circle cx="860.1" cy="606.8" r="3.63" fill="#ecb478" opacity="0.32"/><circle cx="896.5" cy="608.6" r="2.67" fill="#ecb478" opacity="0.21"/><circle cx="932.3" cy="605.6" r="3.97" fill="#ecb478" opacity="0.29"/><circle cx="963.6" cy="605.4" r="2.74" fill="#ecb478" opacity="0.16"/><circle cx="999.7" cy="608.5" r="3.44" fill="#ecb478" opacity="0.20"/><circle cx="1040.3" cy="608.7" r="3.21" fill="#ecb478" opacity="0.21"/><circle cx="1076.8" cy="603.7" r="1.62" fill="#ecb478" opacity="0.35"/><circle cx="1111.6" cy="607.3" r="2.05" fill="#ecb478" opacity="0.32"/><circle cx="1145.8" cy="603.1" r="3.45" fill="#ecb478" opacity="0.33"/><circle cx="1182.8" cy="607.9" r="2.57" fill="#ecb478" opacity="0.36"/><circle cx="30.5" cy="642.0" r="1.69" fill="#ecb478" opacity="0.31"/><circle cx="67.5" cy="644.6" r="3.94" fill="#ecb478" opacity="0.24"/><circle cx="102.6" cy="642.8" r="2.91" fill="#ecb478" opacity="0.31"/><circle cx="135.9" cy="641.9" r="1.66" fill="#ecb478" opacity="0.31"/><circle cx="173.3" cy="640.2" r="3.27" fill="#ecb478" opacity="0.19"/><circle cx="207.7" cy="643.2" r="3.33" fill="#ecb478" opacity="0.31"/><circle cx="243.3" cy="643.9" r="3.35" fill="#ecb478" opacity="0.28"/><circle cx="282.4" cy="641.1" r="3.45" fill="#ecb478" opacity="0.17"/><circle cx="316.0" cy="642.4" r="3.67" fill="#ecb478" opacity="0.30"/><circle cx="356.0" cy="639.4" r="1.69" fill="#ecb478" opacity="0.17"/><circle cx="391.8" cy="641.6" r="3.40" fill="#ecb478" opacity="0.16"/><circle cx="427.5" cy="640.7" r="2.96" fill="#ecb478" opacity="0.21"/><circle cx="463.2" cy="644.4" r="3.23" fill="#ecb478" opacity="0.32"/><circle cx="500.4" cy="641.2" r="3.58" fill="#ecb478" opacity="0.28"/><circle cx="535.8" cy="641.9" r="1.74" fill="#ecb478" opacity="0.21"/><circle cx="569.8" cy="642.9" r="2.59" fill="#ecb478" opacity="0.27"/><circle cx="604.3" cy="640.4" r="2.21" fill="#ecb478" opacity="0.19"/><circle cx="640.6" cy="641.8" r="3.62" fill="#ecb478" opacity="0.16"/><circle cx="678.6" cy="643.4" r="1.70" fill="#ecb478" opacity="0.36"/><circle cx="711.1" cy="643.5" r="3.88" fill="#ecb478" opacity="0.19"/><circle cx="752.7" cy="644.9" r="2.39" fill="#ecb478" opacity="0.31"/><circle cx="786.2" cy="640.5" r="1.65" fill="#ecb478" opacity="0.18"/><circle cx="820.4" cy="640.0" r="3.43" fill="#ecb478" opacity="0.26"/><circle cx="859.6" cy="639.1" r="2.68" fill="#ecb478" opacity="0.30"/><circle cx="896.4" cy="640.5" r="2.28" fill="#ecb478" opacity="0.17"/><circle cx="929.1" cy="642.0" r="3.26" fill="#ecb478" opacity="0.27"/><circle cx="965.3" cy="643.2" r="3.29" fill="#ecb478" opacity="0.20"/><circle cx="999.7" cy="643.7" r="3.80" fill="#ecb478" opacity="0.17"/><circle cx="1037.6" cy="642.3" r="3.49" fill="#ecb478" opacity="0.15"/><circle cx="1071.4" cy="641.9" r="1.61" fill="#ecb478" opacity="0.27"/><circle cx="1108.8" cy="641.6" r="1.66" fill="#ecb478" opacity="0.31"/><circle cx="1148.5" cy="641.7" r="1.64" fill="#ecb478" opacity="0.24"/><circle cx="1185.0" cy="642.6" r="2.49" fill="#ecb478" opacity="0.31"/><circle cx="252.6" cy="219.7" r="220" fill="url(#glow)" opacity="0.9"/>
  <g opacity="0.85" transform="translate(1020, 495)">
        <circle r="60" fill="#ecb478" opacity="0.18"/>
        <path d="M -34 6 Q -10 -22 14 6 Q 34 24 14 26 L -22 26 Q -38 24 -34 6 Z" fill="none" stroke="#faebd6" stroke-width="3" stroke-linejoin="round"/>
      </g>
  <g transform="translate(80, 90)">
    <rect x="0" y="0" rx="20" ry="20" width="134" height="38" fill="#ecb478" opacity="0.18" stroke="#ecb478" stroke-width="1.5"/>
    <text x="67" y="25" font-family="ui-sans-serif, Inter, sans-serif" font-weight="700" font-size="14" letter-spacing="2.5" fill="#ecb478" text-anchor="middle">CASE STUDY</text>
  </g>
  <text x="80" y="465" font-family="ui-sans-serif, -apple-system, Segoe UI, Inter, sans-serif" font-weight="800" font-size="44" fill="#faf8f5" opacity="0.98"><tspan x="80" dy="0">Resolving an Invoice</tspan><tspan x="80" dy="56">Settlement Dispute: A Case</tspan><tspan x="80" dy="56">Study in Negotiation and</tspan></text>
  <rect x="0" y="669" width="1200" height="6" fill="url(#gold)"/>
</svg>