<?xml version="1.0" encoding="UTF-8"?>
<svg xmlns="http://www.w3.org/2000/svg" viewBox="0 0 1200 675" width="1200" height="675" role="img" aria-label="Driving Growth: Foreign Ventures in India with Innovative Solutions">
  <defs>
    <linearGradient id="bg" x1="0%" y1="0%" x2="100%" y2="100%">
      <stop offset="0%" stop-color="#12100e"/>
      <stop offset="100%" stop-color="#1c1917"/>
    </linearGradient>
    <linearGradient id="gold" x1="0%" y1="0%" x2="100%" y2="100%">
      <stop offset="0%" stop-color="#bd6b20"/>
      <stop offset="100%" stop-color="#e09440"/>
    </linearGradient>
    <radialGradient id="glow" cx="50%" cy="50%" r="50%">
      <stop offset="0%" stop-color="#bd6b20" stop-opacity="0.45"/>
      <stop offset="100%" stop-color="#bd6b20" stop-opacity="0"/>
    </radialGradient>
  </defs>
  <rect width="1200" height="675" fill="url(#bg)"/>
  <circle cx="30.6" cy="32.0" r="2.40" fill="#bd6b20" opacity="0.30"/><circle cx="63.0" cy="32.1" r="3.61" fill="#bd6b20" opacity="0.18"/><circle cx="100.9" cy="30.6" r="1.77" fill="#bd6b20" opacity="0.18"/><circle cx="138.4" cy="27.8" r="3.62" fill="#bd6b20" opacity="0.33"/><circle cx="172.3" cy="29.9" r="3.12" fill="#bd6b20" opacity="0.28"/><circle cx="209.7" cy="32.6" r="2.67" fill="#bd6b20" opacity="0.24"/><circle cx="243.6" cy="30.8" r="1.72" fill="#bd6b20" opacity="0.34"/><circle cx="283.4" cy="31.4" r="2.15" fill="#bd6b20" opacity="0.21"/><circle cx="319.8" cy="30.2" r="2.14" fill="#bd6b20" opacity="0.19"/><circle cx="356.3" cy="32.0" r="2.05" fill="#bd6b20" opacity="0.25"/><circle cx="392.5" cy="32.1" r="3.87" fill="#bd6b20" opacity="0.32"/><circle cx="425.2" cy="30.7" r="3.71" fill="#bd6b20" opacity="0.31"/><circle cx="460.8" cy="31.1" r="1.75" fill="#bd6b20" opacity="0.25"/><circle cx="499.8" cy="30.2" r="3.03" fill="#bd6b20" opacity="0.35"/><circle cx="532.2" cy="29.7" r="1.72" fill="#bd6b20" opacity="0.33"/><circle cx="571.1" cy="31.1" r="3.80" fill="#bd6b20" opacity="0.19"/><circle cx="603.5" cy="27.0" r="2.52" fill="#bd6b20" opacity="0.15"/><circle cx="639.4" cy="28.2" r="2.78" fill="#bd6b20" opacity="0.33"/><circle cx="677.7" cy="32.7" r="2.73" fill="#bd6b20" opacity="0.25"/><circle cx="712.2" cy="31.0" r="3.87" fill="#bd6b20" opacity="0.34"/><circle cx="747.0" cy="27.8" r="2.44" fill="#bd6b20" opacity="0.28"/><circle cx="786.1" cy="31.7" r="2.33" fill="#bd6b20" opacity="0.22"/><circle cx="819.5" cy="31.5" r="3.86" fill="#bd6b20" opacity="0.17"/><circle cx="859.3" cy="29.9" r="2.85" fill="#bd6b20" opacity="0.15"/><circle cx="894.9" cy="31.5" r="3.72" fill="#bd6b20" opacity="0.19"/><circle cx="928.1" cy="32.0" r="3.02" fill="#bd6b20" opacity="0.26"/><circle cx="968.3" cy="32.4" r="2.24" fill="#bd6b20" opacity="0.15"/><circle cx="1001.5" cy="29.4" r="3.22" fill="#bd6b20" opacity="0.23"/><circle cx="1037.5" cy="31.6" r="1.75" fill="#bd6b20" opacity="0.32"/><circle cx="1071.1" cy="31.2" r="2.90" fill="#bd6b20" opacity="0.28"/><circle cx="1112.6" cy="31.7" r="3.22" fill="#bd6b20" opacity="0.25"/><circle cx="1143.8" cy="28.6" r="2.13" fill="#bd6b20" opacity="0.36"/><circle cx="1184.8" cy="30.6" r="2.30" fill="#bd6b20" opacity="0.32"/><circle cx="29.7" cy="67.0" r="1.90" fill="#bd6b20" opacity="0.25"/><circle cx="64.0" cy="64.0" r="1.82" fill="#bd6b20" opacity="0.30"/><circle cx="99.1" cy="68.6" r="3.35" fill="#bd6b20" opacity="0.34"/><circle cx="140.8" cy="66.3" r="2.77" fill="#bd6b20" opacity="0.23"/><circle cx="175.5" cy="67.2" r="2.62" fill="#bd6b20" opacity="0.33"/><circle cx="210.2" cy="68.6" r="1.84" fill="#bd6b20" opacity="0.19"/><circle cx="245.3" cy="65.8" r="3.70" fill="#bd6b20" opacity="0.17"/><circle cx="284.9" cy="67.3" r="3.68" fill="#bd6b20" opacity="0.17"/><circle cx="320.6" cy="68.0" r="2.34" fill="#bd6b20" opacity="0.32"/><circle cx="355.1" cy="68.1" r="3.62" fill="#bd6b20" opacity="0.27"/><circle cx="391.9" cy="66.5" r="1.70" fill="#bd6b20" opacity="0.19"/><circle cx="423.5" cy="65.9" r="1.90" fill="#bd6b20" opacity="0.29"/><circle cx="463.7" cy="68.2" r="2.33" fill="#bd6b20" opacity="0.19"/><circle cx="496.1" cy="64.3" r="2.04" fill="#bd6b20" opacity="0.15"/><circle cx="536.7" cy="66.2" r="1.71" fill="#bd6b20" opacity="0.30"/><circle cx="571.3" cy="63.1" r="3.31" fill="#bd6b20" opacity="0.18"/><circle cx="606.1" cy="64.3" r="2.18" fill="#bd6b20" opacity="0.23"/><circle cx="643.5" cy="65.2" r="3.83" fill="#bd6b20" opacity="0.23"/><circle cx="675.3" cy="68.6" r="3.73" fill="#bd6b20" opacity="0.18"/><circle cx="715.8" cy="65.3" r="1.94" fill="#bd6b20" opacity="0.15"/><circle cx="749.5" cy="68.8" r="3.56" fill="#bd6b20" opacity="0.25"/><circle cx="783.4" cy="64.3" r="3.51" fill="#bd6b20" opacity="0.25"/><circle cx="820.2" cy="68.1" r="1.75" fill="#bd6b20" opacity="0.33"/><circle cx="860.2" cy="63.2" r="2.60" fill="#bd6b20" opacity="0.21"/><circle cx="894.4" cy="68.7" r="1.68" fill="#bd6b20" opacity="0.34"/><circle cx="931.8" cy="68.5" r="2.42" fill="#bd6b20" opacity="0.27"/><circle cx="964.0" cy="66.8" r="1.82" fill="#bd6b20" opacity="0.21"/><circle cx="1003.3" cy="64.0" r="3.62" fill="#bd6b20" opacity="0.28"/><circle cx="1039.8" cy="68.7" r="2.20" fill="#bd6b20" opacity="0.32"/><circle cx="1072.3" cy="65.1" r="1.63" fill="#bd6b20" opacity="0.21"/><circle cx="1110.3" cy="65.0" r="3.35" fill="#bd6b20" opacity="0.28"/><circle cx="1148.7" cy="63.1" r="2.03" fill="#bd6b20" opacity="0.22"/><circle cx="1183.7" cy="63.6" r="2.15" fill="#bd6b20" opacity="0.23"/><circle cx="31.3" cy="100.4" r="3.70" fill="#bd6b20" opacity="0.28"/><circle cx="63.2" cy="101.7" r="2.56" fill="#bd6b20" opacity="0.23"/><circle cx="103.5" cy="102.1" r="3.32" fill="#bd6b20" opacity="0.26"/><circle cx="137.6" cy="99.5" r="3.87" fill="#bd6b20" opacity="0.31"/><circle cx="176.7" cy="102.2" r="2.70" fill="#bd6b20" opacity="0.25"/><circle cx="207.3" cy="99.4" r="2.73" fill="#bd6b20" opacity="0.23"/><circle cx="245.9" cy="103.9" r="3.87" fill="#bd6b20" opacity="0.34"/><circle cx="279.4" cy="104.4" r="2.95" fill="#bd6b20" opacity="0.25"/><circle cx="319.7" cy="104.5" r="2.07" fill="#bd6b20" opacity="0.24"/><circle cx="353.2" cy="102.7" r="2.16" fill="#bd6b20" opacity="0.25"/><circle cx="392.7" cy="104.1" r="2.06" fill="#bd6b20" opacity="0.26"/><circle cx="426.7" cy="103.9" r="1.65" fill="#bd6b20" opacity="0.20"/><circle cx="463.8" cy="99.6" r="3.12" fill="#bd6b20" opacity="0.20"/><circle cx="497.1" cy="103.6" r="2.03" fill="#bd6b20" opacity="0.35"/><circle cx="534.3" cy="99.2" r="2.54" fill="#bd6b20" opacity="0.33"/><circle cx="570.5" cy="102.0" r="2.17" fill="#bd6b20" opacity="0.32"/><circle cx="604.5" cy="102.8" r="3.71" fill="#bd6b20" opacity="0.23"/><circle cx="640.9" cy="100.8" r="1.93" fill="#bd6b20" opacity="0.17"/><circle cx="678.4" cy="102.8" r="2.60" fill="#bd6b20" opacity="0.31"/><circle cx="716.2" cy="101.1" r="3.75" fill="#bd6b20" opacity="0.18"/><circle cx="747.2" cy="99.4" r="3.55" fill="#bd6b20" opacity="0.30"/><circle cx="783.6" cy="99.1" r="3.46" fill="#bd6b20" opacity="0.26"/><circle cx="819.4" cy="104.4" r="2.65" fill="#bd6b20" opacity="0.33"/><circle cx="855.0" cy="104.5" r="3.76" fill="#bd6b20" opacity="0.18"/><circle cx="893.7" cy="100.0" r="2.20" fill="#bd6b20" opacity="0.26"/><circle cx="930.7" cy="104.9" r="2.39" fill="#bd6b20" opacity="0.16"/><circle cx="965.7" cy="101.5" r="2.27" fill="#bd6b20" opacity="0.36"/><circle cx="999.3" cy="100.8" r="2.51" fill="#bd6b20" opacity="0.32"/><circle cx="1040.3" cy="102.0" r="2.95" fill="#bd6b20" opacity="0.29"/><circle cx="1076.1" cy="102.9" r="2.50" fill="#bd6b20" opacity="0.34"/><circle cx="1112.3" cy="99.9" r="1.85" fill="#bd6b20" opacity="0.23"/><circle cx="1144.6" cy="102.9" r="4.00" fill="#bd6b20" opacity="0.19"/><circle cx="1181.5" cy="99.0" r="3.64" fill="#bd6b20" opacity="0.29"/><circle cx="27.8" cy="137.5" r="3.43" fill="#bd6b20" opacity="0.28"/><circle cx="64.1" cy="138.2" r="2.46" fill="#bd6b20" opacity="0.18"/><circle cx="101.1" cy="138.8" r="3.52" fill="#bd6b20" opacity="0.32"/><circle cx="136.0" cy="138.8" r="3.86" fill="#bd6b20" opacity="0.20"/><circle cx="176.0" cy="135.1" r="3.67" fill="#bd6b20" opacity="0.33"/><circle cx="212.2" cy="137.4" r="2.44" fill="#bd6b20" opacity="0.20"/><circle cx="245.0" cy="135.6" r="2.37" fill="#bd6b20" opacity="0.27"/><circle cx="281.1" cy="139.4" r="2.72" fill="#bd6b20" opacity="0.28"/><circle cx="317.1" cy="140.7" r="2.04" fill="#bd6b20" opacity="0.28"/><circle cx="355.7" cy="136.7" r="2.54" fill="#bd6b20" opacity="0.29"/><circle cx="389.7" cy="136.6" r="1.75" fill="#bd6b20" opacity="0.36"/><circle cx="425.5" cy="137.8" r="3.42" fill="#bd6b20" opacity="0.29"/><circle cx="460.1" cy="140.6" r="2.80" fill="#bd6b20" opacity="0.30"/><circle cx="497.9" cy="140.0" r="3.39" fill="#bd6b20" opacity="0.30"/><circle cx="535.5" cy="140.0" r="2.52" fill="#bd6b20" opacity="0.26"/><circle cx="569.6" cy="139.4" r="2.22" fill="#bd6b20" opacity="0.22"/><circle cx="607.7" cy="135.0" r="2.51" fill="#bd6b20" opacity="0.30"/><circle cx="640.5" cy="139.6" r="2.00" fill="#bd6b20" opacity="0.24"/><circle cx="679.8" cy="138.0" r="2.36" fill="#bd6b20" opacity="0.20"/><circle cx="711.2" cy="137.8" r="2.43" fill="#bd6b20" opacity="0.34"/><circle cx="747.3" cy="138.6" r="2.20" fill="#bd6b20" opacity="0.20"/><circle cx="784.7" cy="139.2" r="3.24" fill="#bd6b20" opacity="0.31"/><circle cx="821.4" cy="140.5" r="2.94" fill="#bd6b20" opacity="0.26"/><circle cx="858.6" cy="138.6" r="2.85" fill="#bd6b20" opacity="0.27"/><circle cx="894.6" cy="140.0" r="3.90" fill="#bd6b20" opacity="0.26"/><circle cx="929.2" cy="136.7" r="2.73" fill="#bd6b20" opacity="0.25"/><circle cx="963.1" cy="140.7" r="3.66" fill="#bd6b20" opacity="0.21"/><circle cx="1000.5" cy="136.5" r="2.32" fill="#bd6b20" opacity="0.25"/><circle cx="1035.1" cy="139.4" r="3.08" fill="#bd6b20" opacity="0.23"/><circle cx="1076.6" cy="138.8" r="2.37" fill="#bd6b20" opacity="0.28"/><circle cx="1110.9" cy="138.6" r="1.62" fill="#bd6b20" opacity="0.29"/><circle cx="1143.0" cy="138.7" r="3.70" fill="#bd6b20" opacity="0.24"/><circle cx="1181.1" cy="135.5" r="1.77" fill="#bd6b20" opacity="0.24"/><circle cx="28.3" cy="172.4" r="2.66" fill="#bd6b20" opacity="0.32"/><circle cx="67.6" cy="172.6" r="3.73" fill="#bd6b20" opacity="0.20"/><circle cx="103.0" cy="172.3" r="2.00" fill="#bd6b20" opacity="0.26"/><circle cx="140.8" cy="172.1" r="3.01" fill="#bd6b20" opacity="0.35"/><circle cx="176.0" cy="172.6" r="1.73" fill="#bd6b20" opacity="0.33"/><circle cx="210.0" cy="171.8" r="2.68" fill="#bd6b20" opacity="0.23"/><circle cx="244.1" cy="172.2" r="2.00" fill="#bd6b20" opacity="0.30"/><circle cx="280.4" cy="176.5" r="1.90" fill="#bd6b20" opacity="0.31"/><circle cx="317.7" cy="174.5" r="1.93" fill="#bd6b20" opacity="0.19"/><circle cx="354.5" cy="172.2" r="3.75" fill="#bd6b20" opacity="0.20"/><circle cx="392.9" cy="172.9" r="3.34" fill="#bd6b20" opacity="0.30"/><circle cx="423.1" cy="176.6" r="3.37" fill="#bd6b20" opacity="0.21"/><circle cx="459.5" cy="173.3" r="2.89" fill="#bd6b20" opacity="0.31"/><circle cx="498.3" cy="174.8" r="3.58" fill="#bd6b20" opacity="0.34"/><circle cx="536.2" cy="171.5" r="3.11" fill="#bd6b20" opacity="0.36"/><circle cx="569.8" cy="172.7" r="1.84" fill="#bd6b20" opacity="0.25"/><circle cx="603.6" cy="173.9" r="2.76" fill="#bd6b20" opacity="0.32"/><circle cx="643.0" cy="171.9" r="3.46" fill="#bd6b20" opacity="0.23"/><circle cx="679.8" cy="174.6" r="3.90" fill="#bd6b20" opacity="0.27"/><circle cx="716.6" cy="174.8" r="1.99" fill="#bd6b20" opacity="0.25"/><circle cx="750.7" cy="171.2" r="1.87" fill="#bd6b20" opacity="0.17"/><circle cx="788.6" cy="176.6" r="3.76" fill="#bd6b20" opacity="0.19"/><circle cx="823.0" cy="175.5" r="3.98" fill="#bd6b20" opacity="0.29"/><circle cx="860.6" cy="173.8" r="1.68" fill="#bd6b20" opacity="0.31"/><circle cx="895.2" cy="171.1" r="3.14" fill="#bd6b20" opacity="0.16"/><circle cx="927.2" cy="171.5" r="2.16" fill="#bd6b20" opacity="0.20"/><circle cx="966.0" cy="171.8" r="2.82" fill="#bd6b20" opacity="0.36"/><circle cx="1003.2" cy="173.6" r="3.00" fill="#bd6b20" opacity="0.29"/><circle cx="1035.1" cy="172.9" r="3.11" fill="#bd6b20" opacity="0.26"/><circle cx="1074.2" cy="172.5" r="2.30" fill="#bd6b20" opacity="0.20"/><circle cx="1110.5" cy="174.9" r="3.10" fill="#bd6b20" opacity="0.23"/><circle cx="1148.4" cy="176.6" r="2.19" fill="#bd6b20" opacity="0.19"/><circle cx="1183.7" cy="176.7" r="1.90" fill="#bd6b20" opacity="0.35"/><circle cx="31.1" cy="208.8" r="2.94" fill="#bd6b20" opacity="0.19"/><circle cx="65.7" cy="211.1" r="1.82" fill="#bd6b20" opacity="0.29"/><circle cx="103.4" cy="212.5" r="3.43" fill="#bd6b20" opacity="0.20"/><circle cx="137.3" cy="208.6" r="3.08" fill="#bd6b20" opacity="0.18"/><circle cx="171.6" cy="211.0" r="3.01" fill="#bd6b20" opacity="0.17"/><circle cx="208.3" cy="208.0" r="2.73" fill="#bd6b20" opacity="0.23"/><circle cx="248.0" cy="210.5" r="3.56" fill="#bd6b20" opacity="0.17"/><circle cx="281.8" cy="210.8" r="3.51" fill="#bd6b20" opacity="0.28"/><circle cx="315.8" cy="209.6" r="1.94" fill="#bd6b20" opacity="0.26"/><circle cx="353.3" cy="210.6" r="2.21" fill="#bd6b20" opacity="0.28"/><circle cx="392.5" cy="212.8" r="3.27" fill="#bd6b20" opacity="0.31"/><circle cx="427.2" cy="210.8" r="1.67" fill="#bd6b20" opacity="0.30"/><circle cx="461.4" cy="210.7" r="1.78" fill="#bd6b20" opacity="0.23"/><circle cx="498.3" cy="212.8" r="2.19" fill="#bd6b20" opacity="0.31"/><circle cx="535.4" cy="213.0" r="3.21" fill="#bd6b20" opacity="0.30"/><circle cx="567.5" cy="209.8" r="3.33" fill="#bd6b20" opacity="0.23"/><circle cx="603.1" cy="209.4" r="3.42" fill="#bd6b20" opacity="0.27"/><circle cx="644.4" cy="212.7" r="2.65" fill="#bd6b20" opacity="0.27"/><circle cx="677.4" cy="207.3" r="3.89" fill="#bd6b20" opacity="0.18"/><circle cx="716.2" cy="208.6" r="3.05" fill="#bd6b20" opacity="0.16"/><circle cx="750.6" cy="208.8" r="3.15" fill="#bd6b20" opacity="0.30"/><circle cx="788.8" cy="212.6" r="3.02" fill="#bd6b20" opacity="0.27"/><circle cx="821.9" cy="212.9" r="2.64" fill="#bd6b20" opacity="0.24"/><circle cx="856.4" cy="208.6" r="2.64" fill="#bd6b20" opacity="0.35"/><circle cx="894.6" cy="212.7" r="2.00" fill="#bd6b20" opacity="0.36"/><circle cx="932.3" cy="210.1" r="1.65" fill="#bd6b20" opacity="0.31"/><circle cx="964.2" cy="212.6" r="2.69" fill="#bd6b20" opacity="0.16"/><circle cx="999.2" cy="210.4" r="2.61" fill="#bd6b20" opacity="0.23"/><circle cx="1039.0" cy="211.6" r="2.13" fill="#bd6b20" opacity="0.16"/><circle cx="1071.4" cy="211.8" r="2.24" fill="#bd6b20" opacity="0.33"/><circle cx="1112.4" cy="207.8" r="2.20" fill="#bd6b20" opacity="0.27"/><circle cx="1145.1" cy="207.8" r="2.29" fill="#bd6b20" opacity="0.34"/><circle cx="1179.3" cy="209.9" r="1.72" fill="#bd6b20" opacity="0.36"/><circle cx="27.2" cy="245.2" r="3.15" fill="#bd6b20" opacity="0.22"/><circle cx="64.0" cy="245.8" r="2.20" fill="#bd6b20" opacity="0.29"/><circle cx="101.6" cy="248.5" r="3.25" fill="#bd6b20" opacity="0.34"/><circle cx="135.1" cy="247.7" r="3.48" fill="#bd6b20" opacity="0.28"/><circle cx="171.7" cy="246.7" r="3.39" fill="#bd6b20" opacity="0.19"/><circle cx="210.1" cy="243.7" r="3.80" fill="#bd6b20" opacity="0.34"/><circle cx="246.9" cy="247.0" r="1.77" fill="#bd6b20" opacity="0.35"/><circle cx="282.0" cy="246.7" r="3.87" fill="#bd6b20" opacity="0.34"/><circle cx="317.1" cy="246.6" r="3.22" fill="#bd6b20" opacity="0.27"/><circle cx="354.0" cy="246.9" r="3.87" fill="#bd6b20" opacity="0.18"/><circle cx="391.7" cy="245.0" r="3.36" fill="#bd6b20" opacity="0.28"/><circle cx="424.0" cy="248.2" r="1.61" fill="#bd6b20" opacity="0.29"/><circle cx="461.8" cy="248.3" r="3.21" fill="#bd6b20" opacity="0.20"/><circle cx="499.6" cy="245.2" r="3.49" fill="#bd6b20" opacity="0.25"/><circle cx="533.0" cy="247.8" r="1.84" fill="#bd6b20" opacity="0.34"/><circle cx="570.6" cy="245.8" r="2.20" fill="#bd6b20" opacity="0.17"/><circle cx="604.8" cy="246.3" r="1.84" fill="#bd6b20" opacity="0.17"/><circle cx="644.7" cy="243.0" r="3.89" fill="#bd6b20" opacity="0.24"/><circle cx="675.4" cy="243.4" r="2.80" fill="#bd6b20" opacity="0.30"/><circle cx="714.9" cy="244.0" r="2.12" fill="#bd6b20" opacity="0.17"/><circle cx="750.7" cy="248.4" r="3.43" fill="#bd6b20" opacity="0.34"/><circle cx="784.8" cy="247.4" r="3.20" fill="#bd6b20" opacity="0.29"/><circle cx="819.6" cy="245.9" r="3.46" fill="#bd6b20" opacity="0.18"/><circle cx="857.3" cy="246.0" r="3.78" fill="#bd6b20" opacity="0.33"/><circle cx="896.4" cy="243.7" r="3.13" fill="#bd6b20" opacity="0.26"/><circle cx="929.4" cy="245.5" r="3.94" fill="#bd6b20" opacity="0.27"/><circle cx="966.0" cy="243.2" r="3.79" fill="#bd6b20" opacity="0.22"/><circle cx="999.9" cy="248.8" r="3.54" fill="#bd6b20" opacity="0.26"/><circle cx="1036.0" cy="246.1" r="2.26" fill="#bd6b20" opacity="0.24"/><circle cx="1076.5" cy="247.3" r="2.15" fill="#bd6b20" opacity="0.33"/><circle cx="1108.1" cy="247.4" r="2.47" fill="#bd6b20" opacity="0.35"/><circle cx="1145.6" cy="243.5" r="3.96" fill="#bd6b20" opacity="0.34"/><circle cx="1179.9" cy="244.3" r="2.51" fill="#bd6b20" opacity="0.18"/><circle cx="28.7" cy="281.1" r="1.96" fill="#bd6b20" opacity="0.33"/><circle cx="64.4" cy="283.8" r="2.53" fill="#bd6b20" opacity="0.29"/><circle cx="104.2" cy="282.2" r="3.24" fill="#bd6b20" opacity="0.27"/><circle cx="139.9" cy="279.6" r="2.01" fill="#bd6b20" opacity="0.33"/><circle cx="176.2" cy="283.0" r="1.96" fill="#bd6b20" opacity="0.29"/><circle cx="210.1" cy="279.9" r="2.97" fill="#bd6b20" opacity="0.36"/><circle cx="244.3" cy="282.9" r="1.69" fill="#bd6b20" opacity="0.22"/><circle cx="279.2" cy="283.0" r="2.50" fill="#bd6b20" opacity="0.23"/><circle cx="318.8" cy="279.4" r="2.81" fill="#bd6b20" opacity="0.18"/><circle cx="356.5" cy="284.2" r="2.50" fill="#bd6b20" opacity="0.30"/><circle cx="392.6" cy="279.3" r="3.41" fill="#bd6b20" opacity="0.30"/><circle cx="428.3" cy="283.4" r="2.20" fill="#bd6b20" opacity="0.22"/><circle cx="462.8" cy="283.5" r="3.98" fill="#bd6b20" opacity="0.35"/><circle cx="497.2" cy="282.4" r="3.65" fill="#bd6b20" opacity="0.17"/><circle cx="531.5" cy="279.7" r="2.08" fill="#bd6b20" opacity="0.21"/><circle cx="569.9" cy="283.8" r="2.88" fill="#bd6b20" opacity="0.21"/><circle cx="607.1" cy="284.5" r="3.14" fill="#bd6b20" opacity="0.34"/><circle cx="644.9" cy="284.2" r="3.76" fill="#bd6b20" opacity="0.17"/><circle cx="678.4" cy="284.8" r="3.92" fill="#bd6b20" opacity="0.25"/><circle cx="716.9" cy="283.0" r="2.62" fill="#bd6b20" opacity="0.27"/><circle cx="751.9" cy="280.7" r="2.98" fill="#bd6b20" opacity="0.28"/><circle cx="784.8" cy="282.5" r="2.93" fill="#bd6b20" opacity="0.25"/><circle cx="819.2" cy="281.1" r="2.15" fill="#bd6b20" opacity="0.19"/><circle cx="856.9" cy="279.2" r="3.59" fill="#bd6b20" opacity="0.34"/><circle cx="894.0" cy="283.2" r="1.93" fill="#bd6b20" opacity="0.20"/><circle cx="928.3" cy="280.0" r="3.35" fill="#bd6b20" opacity="0.23"/><circle cx="968.5" cy="283.7" r="3.56" fill="#bd6b20" opacity="0.26"/><circle cx="1003.6" cy="281.5" r="3.93" fill="#bd6b20" opacity="0.34"/><circle cx="1039.0" cy="283.1" r="3.47" fill="#bd6b20" opacity="0.16"/><circle cx="1074.2" cy="283.7" r="3.73" fill="#bd6b20" opacity="0.28"/><circle cx="1107.5" cy="279.4" r="2.86" fill="#bd6b20" opacity="0.18"/><circle cx="1148.1" cy="281.8" r="3.91" fill="#bd6b20" opacity="0.35"/><circle cx="1182.1" cy="281.0" r="2.54" fill="#bd6b20" opacity="0.35"/><circle cx="32.0" cy="319.4" r="3.40" fill="#bd6b20" opacity="0.23"/><circle cx="64.9" cy="318.6" r="2.97" fill="#bd6b20" opacity="0.26"/><circle cx="101.3" cy="318.9" r="3.95" fill="#bd6b20" opacity="0.16"/><circle cx="137.8" cy="315.7" r="3.90" fill="#bd6b20" opacity="0.19"/><circle cx="173.4" cy="317.8" r="3.18" fill="#bd6b20" opacity="0.16"/><circle cx="208.5" cy="315.7" r="1.78" fill="#bd6b20" opacity="0.35"/><circle cx="247.0" cy="317.1" r="3.59" fill="#bd6b20" opacity="0.22"/><circle cx="280.1" cy="315.5" r="1.69" fill="#bd6b20" opacity="0.34"/><circle cx="317.4" cy="318.3" r="1.90" fill="#bd6b20" opacity="0.36"/><circle cx="355.6" cy="319.5" r="3.17" fill="#bd6b20" opacity="0.32"/><circle cx="388.9" cy="321.0" r="3.67" fill="#bd6b20" opacity="0.33"/><circle cx="428.3" cy="315.8" r="3.41" fill="#bd6b20" opacity="0.26"/><circle cx="463.2" cy="318.2" r="3.18" fill="#bd6b20" opacity="0.27"/><circle cx="496.6" cy="315.4" r="2.80" fill="#bd6b20" opacity="0.22"/><circle cx="536.3" cy="319.1" r="3.75" fill="#bd6b20" opacity="0.24"/><circle cx="571.2" cy="317.5" r="3.57" fill="#bd6b20" opacity="0.16"/><circle cx="606.3" cy="319.3" r="3.36" fill="#bd6b20" opacity="0.26"/><circle cx="644.1" cy="315.5" r="1.68" fill="#bd6b20" opacity="0.17"/><circle cx="675.4" cy="317.9" r="3.94" fill="#bd6b20" opacity="0.20"/><circle cx="711.2" cy="316.1" r="3.05" fill="#bd6b20" opacity="0.19"/><circle cx="749.5" cy="318.9" r="2.21" fill="#bd6b20" opacity="0.30"/><circle cx="787.9" cy="316.6" r="2.61" fill="#bd6b20" opacity="0.33"/><circle cx="824.7" cy="315.9" r="3.39" fill="#bd6b20" opacity="0.35"/><circle cx="858.9" cy="315.6" r="3.63" fill="#bd6b20" opacity="0.22"/><circle cx="894.7" cy="317.1" r="2.26" fill="#bd6b20" opacity="0.35"/><circle cx="927.2" cy="317.0" r="2.61" fill="#bd6b20" opacity="0.29"/><circle cx="967.5" cy="318.4" r="3.13" fill="#bd6b20" opacity="0.27"/><circle cx="1002.2" cy="320.5" r="2.42" fill="#bd6b20" opacity="0.24"/><circle cx="1040.8" cy="315.3" r="2.07" fill="#bd6b20" opacity="0.27"/><circle cx="1076.7" cy="318.4" r="1.74" fill="#bd6b20" opacity="0.32"/><circle cx="1111.8" cy="315.6" r="3.79" fill="#bd6b20" opacity="0.31"/><circle cx="1146.1" cy="317.0" r="3.48" fill="#bd6b20" opacity="0.32"/><circle cx="1184.7" cy="320.5" r="1.91" fill="#bd6b20" opacity="0.25"/><circle cx="28.7" cy="354.2" r="2.75" fill="#bd6b20" opacity="0.25"/><circle cx="67.8" cy="355.9" r="2.91" fill="#bd6b20" opacity="0.15"/><circle cx="99.0" cy="351.2" r="2.63" fill="#bd6b20" opacity="0.28"/><circle cx="140.1" cy="353.1" r="2.04" fill="#bd6b20" opacity="0.28"/><circle cx="176.1" cy="356.2" r="3.55" fill="#bd6b20" opacity="0.33"/><circle cx="211.9" cy="354.4" r="2.86" fill="#bd6b20" opacity="0.20"/><circle cx="248.1" cy="354.1" r="3.81" fill="#bd6b20" opacity="0.23"/><circle cx="283.9" cy="356.3" r="2.60" fill="#bd6b20" opacity="0.23"/><circle cx="315.6" cy="355.0" r="3.73" fill="#bd6b20" opacity="0.19"/><circle cx="356.0" cy="354.9" r="3.71" fill="#bd6b20" opacity="0.25"/><circle cx="392.5" cy="352.1" r="3.89" fill="#bd6b20" opacity="0.19"/><circle cx="424.3" cy="352.1" r="2.65" fill="#bd6b20" opacity="0.21"/><circle cx="459.5" cy="356.0" r="3.71" fill="#bd6b20" opacity="0.30"/><circle cx="500.6" cy="355.0" r="3.45" fill="#bd6b20" opacity="0.22"/><circle cx="531.3" cy="352.1" r="3.69" fill="#bd6b20" opacity="0.20"/><circle cx="568.3" cy="351.2" r="3.51" fill="#bd6b20" opacity="0.21"/><circle cx="605.2" cy="355.7" r="3.74" fill="#bd6b20" opacity="0.15"/><circle cx="639.5" cy="353.3" r="2.23" fill="#bd6b20" opacity="0.21"/><circle cx="677.4" cy="351.1" r="2.47" fill="#bd6b20" opacity="0.35"/><circle cx="715.2" cy="355.9" r="2.95" fill="#bd6b20" opacity="0.15"/><circle cx="748.1" cy="351.7" r="3.53" fill="#bd6b20" opacity="0.28"/><circle cx="787.5" cy="356.8" r="1.88" fill="#bd6b20" opacity="0.35"/><circle cx="819.9" cy="356.2" r="3.43" fill="#bd6b20" opacity="0.23"/><circle cx="857.6" cy="355.2" r="3.61" fill="#bd6b20" opacity="0.30"/><circle cx="892.4" cy="354.1" r="3.59" fill="#bd6b20" opacity="0.16"/><circle cx="928.7" cy="353.1" r="2.56" fill="#bd6b20" opacity="0.15"/><circle cx="965.4" cy="356.7" r="3.33" fill="#bd6b20" opacity="0.25"/><circle cx="1001.8" cy="356.9" r="1.75" fill="#bd6b20" opacity="0.20"/><circle cx="1038.0" cy="355.7" r="3.28" fill="#bd6b20" opacity="0.34"/><circle cx="1071.8" cy="351.5" r="3.56" fill="#bd6b20" opacity="0.28"/><circle cx="1108.6" cy="356.6" r="2.59" fill="#bd6b20" opacity="0.29"/><circle cx="1143.7" cy="356.9" r="3.25" fill="#bd6b20" opacity="0.36"/><circle cx="1183.1" cy="356.7" r="1.89" fill="#bd6b20" opacity="0.19"/><circle cx="30.4" cy="389.3" r="2.34" fill="#bd6b20" opacity="0.24"/><circle cx="66.5" cy="391.7" r="2.08" fill="#bd6b20" opacity="0.19"/><circle cx="102.4" cy="389.2" r="2.44" fill="#bd6b20" opacity="0.31"/><circle cx="138.5" cy="388.0" r="3.89" fill="#bd6b20" opacity="0.23"/><circle cx="176.8" cy="388.0" r="3.32" fill="#bd6b20" opacity="0.31"/><circle cx="209.0" cy="387.3" r="1.77" fill="#bd6b20" opacity="0.35"/><circle cx="244.3" cy="389.8" r="2.71" fill="#bd6b20" opacity="0.23"/><circle cx="283.5" cy="387.1" r="3.61" fill="#bd6b20" opacity="0.31"/><circle cx="317.3" cy="387.0" r="3.31" fill="#bd6b20" opacity="0.29"/><circle cx="356.4" cy="392.4" r="3.22" fill="#bd6b20" opacity="0.31"/><circle cx="387.2" cy="391.7" r="2.60" fill="#bd6b20" opacity="0.31"/><circle cx="425.4" cy="388.7" r="2.75" fill="#bd6b20" opacity="0.31"/><circle cx="461.7" cy="388.9" r="1.83" fill="#bd6b20" opacity="0.23"/><circle cx="496.2" cy="392.0" r="2.73" fill="#bd6b20" opacity="0.30"/><circle cx="536.9" cy="388.3" r="1.95" fill="#bd6b20" opacity="0.32"/><circle cx="570.5" cy="391.5" r="2.90" fill="#bd6b20" opacity="0.32"/><circle cx="606.8" cy="388.3" r="2.80" fill="#bd6b20" opacity="0.31"/><circle cx="642.5" cy="387.3" r="2.65" fill="#bd6b20" opacity="0.22"/><circle cx="675.5" cy="387.2" r="3.77" fill="#bd6b20" opacity="0.17"/><circle cx="714.1" cy="387.1" r="2.66" fill="#bd6b20" opacity="0.18"/><circle cx="749.5" cy="391.9" r="3.18" fill="#bd6b20" opacity="0.15"/><circle cx="785.4" cy="390.7" r="3.40" fill="#bd6b20" opacity="0.15"/><circle cx="823.1" cy="388.5" r="2.59" fill="#bd6b20" opacity="0.35"/><circle cx="858.8" cy="391.3" r="2.85" fill="#bd6b20" opacity="0.34"/><circle cx="892.4" cy="389.3" r="3.38" fill="#bd6b20" opacity="0.32"/><circle cx="932.3" cy="388.7" r="3.50" fill="#bd6b20" opacity="0.20"/><circle cx="968.5" cy="388.5" r="2.77" fill="#bd6b20" opacity="0.15"/><circle cx="1003.8" cy="393.0" r="2.90" fill="#bd6b20" opacity="0.29"/><circle cx="1038.6" cy="390.1" r="2.68" fill="#bd6b20" opacity="0.21"/><circle cx="1074.8" cy="389.6" r="2.54" fill="#bd6b20" opacity="0.23"/><circle cx="1107.8" cy="387.9" r="3.41" fill="#bd6b20" opacity="0.20"/><circle cx="1145.7" cy="387.2" r="2.56" fill="#bd6b20" opacity="0.23"/><circle cx="1179.6" cy="390.4" r="1.72" fill="#bd6b20" opacity="0.22"/><circle cx="28.2" cy="424.6" r="1.71" fill="#bd6b20" opacity="0.33"/><circle cx="63.2" cy="424.6" r="2.10" fill="#bd6b20" opacity="0.17"/><circle cx="101.2" cy="428.9" r="2.39" fill="#bd6b20" opacity="0.19"/><circle cx="137.0" cy="428.0" r="1.61" fill="#bd6b20" opacity="0.32"/><circle cx="175.7" cy="428.8" r="3.54" fill="#bd6b20" opacity="0.32"/><circle cx="211.3" cy="426.3" r="1.67" fill="#bd6b20" opacity="0.19"/><circle cx="245.7" cy="427.5" r="2.43" fill="#bd6b20" opacity="0.19"/><circle cx="281.9" cy="427.9" r="3.74" fill="#bd6b20" opacity="0.22"/><circle cx="320.0" cy="423.8" r="2.17" fill="#bd6b20" opacity="0.21"/><circle cx="351.9" cy="423.8" r="2.77" fill="#bd6b20" opacity="0.18"/><circle cx="390.1" cy="426.3" r="2.35" fill="#bd6b20" opacity="0.20"/><circle cx="425.4" cy="424.9" r="1.61" fill="#bd6b20" opacity="0.17"/><circle cx="462.3" cy="428.9" r="2.18" fill="#bd6b20" opacity="0.34"/><circle cx="500.2" cy="426.8" r="2.58" fill="#bd6b20" opacity="0.25"/><circle cx="535.7" cy="428.7" r="3.89" fill="#bd6b20" opacity="0.25"/><circle cx="572.8" cy="424.9" r="2.12" fill="#bd6b20" opacity="0.34"/><circle cx="607.8" cy="427.6" r="3.77" fill="#bd6b20" opacity="0.30"/><circle cx="643.6" cy="428.9" r="2.85" fill="#bd6b20" opacity="0.20"/><circle cx="679.0" cy="424.6" r="2.86" fill="#bd6b20" opacity="0.26"/><circle cx="712.5" cy="425.5" r="2.16" fill="#bd6b20" opacity="0.31"/><circle cx="748.8" cy="423.9" r="2.19" fill="#bd6b20" opacity="0.21"/><circle cx="787.3" cy="428.1" r="3.91" fill="#bd6b20" opacity="0.24"/><circle cx="819.3" cy="423.7" r="3.86" fill="#bd6b20" opacity="0.25"/><circle cx="859.1" cy="428.8" r="1.92" fill="#bd6b20" opacity="0.25"/><circle cx="896.5" cy="424.3" r="3.27" fill="#bd6b20" opacity="0.35"/><circle cx="932.2" cy="424.5" r="2.68" fill="#bd6b20" opacity="0.24"/><circle cx="966.3" cy="424.7" r="1.92" fill="#bd6b20" opacity="0.21"/><circle cx="1003.9" cy="423.8" r="2.64" fill="#bd6b20" opacity="0.30"/><circle cx="1037.3" cy="423.1" r="2.54" fill="#bd6b20" opacity="0.32"/><circle cx="1074.6" cy="428.8" r="1.64" fill="#bd6b20" opacity="0.32"/><circle cx="1107.7" cy="423.7" r="3.06" fill="#bd6b20" opacity="0.19"/><circle cx="1145.3" cy="428.0" r="1.85" fill="#bd6b20" opacity="0.20"/><circle cx="1183.4" cy="423.0" r="3.99" fill="#bd6b20" opacity="0.33"/><circle cx="27.2" cy="463.5" r="3.54" fill="#bd6b20" opacity="0.27"/><circle cx="63.7" cy="460.6" r="2.14" fill="#bd6b20" opacity="0.34"/><circle cx="100.2" cy="460.7" r="2.87" fill="#bd6b20" opacity="0.20"/><circle cx="140.5" cy="460.3" r="3.08" fill="#bd6b20" opacity="0.20"/><circle cx="173.7" cy="460.1" r="2.37" fill="#bd6b20" opacity="0.35"/><circle cx="208.7" cy="464.8" r="3.03" fill="#bd6b20" opacity="0.29"/><circle cx="248.7" cy="461.1" r="2.45" fill="#bd6b20" opacity="0.19"/><circle cx="282.0" cy="462.7" r="2.40" fill="#bd6b20" opacity="0.33"/><circle cx="318.1" cy="459.9" r="1.84" fill="#bd6b20" opacity="0.17"/><circle cx="355.7" cy="464.7" r="1.76" fill="#bd6b20" opacity="0.34"/><circle cx="389.2" cy="459.6" r="2.05" fill="#bd6b20" opacity="0.31"/><circle cx="424.0" cy="460.5" r="2.68" fill="#bd6b20" opacity="0.17"/><circle cx="460.3" cy="460.9" r="3.77" fill="#bd6b20" opacity="0.26"/><circle cx="498.6" cy="462.8" r="3.34" fill="#bd6b20" opacity="0.31"/><circle cx="534.0" cy="463.6" r="3.11" fill="#bd6b20" opacity="0.28"/><circle cx="571.7" cy="459.6" r="2.94" fill="#bd6b20" opacity="0.32"/><circle cx="607.8" cy="461.1" r="3.40" fill="#bd6b20" opacity="0.26"/><circle cx="641.0" cy="464.8" r="2.36" fill="#bd6b20" opacity="0.16"/><circle cx="678.4" cy="459.0" r="2.19" fill="#bd6b20" opacity="0.23"/><circle cx="715.1" cy="462.2" r="2.35" fill="#bd6b20" opacity="0.26"/><circle cx="751.5" cy="461.8" r="2.14" fill="#bd6b20" opacity="0.32"/><circle cx="786.9" cy="462.9" r="2.67" fill="#bd6b20" opacity="0.22"/><circle cx="823.1" cy="459.1" r="3.96" fill="#bd6b20" opacity="0.28"/><circle cx="856.4" cy="460.9" r="2.34" fill="#bd6b20" opacity="0.31"/><circle cx="895.8" cy="464.2" r="3.31" fill="#bd6b20" opacity="0.22"/><circle cx="932.2" cy="463.9" r="1.76" fill="#bd6b20" opacity="0.35"/><circle cx="966.0" cy="462.5" r="3.37" fill="#bd6b20" opacity="0.35"/><circle cx="1001.6" cy="462.8" r="1.82" fill="#bd6b20" opacity="0.22"/><circle cx="1035.3" cy="459.7" r="2.71" fill="#bd6b20" opacity="0.28"/><circle cx="1073.7" cy="461.3" r="2.74" fill="#bd6b20" opacity="0.17"/><circle cx="1111.1" cy="464.4" r="3.79" fill="#bd6b20" opacity="0.16"/><circle cx="1146.9" cy="464.1" r="3.73" fill="#bd6b20" opacity="0.29"/><circle cx="1180.4" cy="461.9" r="2.87" fill="#bd6b20" opacity="0.19"/><circle cx="29.0" cy="499.6" r="1.91" fill="#bd6b20" opacity="0.21"/><circle cx="63.7" cy="496.3" r="2.44" fill="#bd6b20" opacity="0.34"/><circle cx="101.3" cy="499.6" r="2.10" fill="#bd6b20" opacity="0.31"/><circle cx="138.7" cy="497.0" r="2.40" fill="#bd6b20" opacity="0.19"/><circle cx="176.7" cy="495.7" r="3.80" fill="#bd6b20" opacity="0.35"/><circle cx="210.6" cy="497.6" r="3.19" fill="#bd6b20" opacity="0.24"/><circle cx="244.4" cy="496.2" r="3.54" fill="#bd6b20" opacity="0.27"/><circle cx="281.3" cy="499.6" r="3.69" fill="#bd6b20" opacity="0.22"/><circle cx="320.8" cy="497.9" r="1.66" fill="#bd6b20" opacity="0.24"/><circle cx="356.3" cy="496.3" r="3.06" fill="#bd6b20" opacity="0.23"/><circle cx="392.5" cy="497.6" r="3.06" fill="#bd6b20" opacity="0.32"/><circle cx="424.6" cy="497.8" r="1.90" fill="#bd6b20" opacity="0.32"/><circle cx="462.8" cy="500.5" r="3.91" fill="#bd6b20" opacity="0.27"/><circle cx="498.9" cy="496.5" r="2.02" fill="#bd6b20" opacity="0.28"/><circle cx="531.3" cy="495.9" r="2.31" fill="#bd6b20" opacity="0.31"/><circle cx="571.0" cy="500.1" r="3.16" fill="#bd6b20" opacity="0.21"/><circle cx="605.3" cy="499.5" r="2.55" fill="#bd6b20" opacity="0.26"/><circle cx="644.2" cy="495.8" r="2.96" fill="#bd6b20" opacity="0.22"/><circle cx="677.9" cy="497.1" r="3.82" fill="#bd6b20" opacity="0.29"/><circle cx="711.2" cy="495.8" r="3.91" fill="#bd6b20" opacity="0.19"/><circle cx="750.3" cy="496.0" r="1.85" fill="#bd6b20" opacity="0.24"/><circle cx="787.7" cy="498.9" r="3.97" fill="#bd6b20" opacity="0.22"/><circle cx="819.7" cy="497.8" r="3.02" fill="#bd6b20" opacity="0.33"/><circle cx="855.8" cy="497.1" r="2.35" fill="#bd6b20" opacity="0.20"/><circle cx="891.1" cy="500.6" r="3.53" fill="#bd6b20" opacity="0.36"/><circle cx="931.8" cy="500.4" r="2.05" fill="#bd6b20" opacity="0.27"/><circle cx="963.6" cy="497.8" r="2.40" fill="#bd6b20" opacity="0.29"/><circle cx="1000.1" cy="499.0" r="2.81" fill="#bd6b20" opacity="0.28"/><circle cx="1035.9" cy="499.4" r="3.20" fill="#bd6b20" opacity="0.31"/><circle cx="1076.0" cy="500.9" r="2.11" fill="#bd6b20" opacity="0.25"/><circle cx="1112.7" cy="498.9" r="3.70" fill="#bd6b20" opacity="0.19"/><circle cx="1148.8" cy="496.7" r="3.56" fill="#bd6b20" opacity="0.35"/><circle cx="1182.1" cy="495.4" r="2.23" fill="#bd6b20" opacity="0.15"/><circle cx="31.4" cy="534.0" r="1.83" fill="#bd6b20" opacity="0.31"/><circle cx="63.1" cy="532.6" r="2.95" fill="#bd6b20" opacity="0.20"/><circle cx="100.7" cy="536.8" r="3.99" fill="#bd6b20" opacity="0.20"/><circle cx="135.7" cy="534.5" r="3.71" fill="#bd6b20" opacity="0.32"/><circle cx="176.5" cy="533.1" r="2.03" fill="#bd6b20" opacity="0.29"/><circle cx="210.3" cy="534.3" r="2.38" fill="#bd6b20" opacity="0.19"/><circle cx="245.6" cy="536.0" r="2.78" fill="#bd6b20" opacity="0.17"/><circle cx="281.2" cy="536.5" r="2.86" fill="#bd6b20" opacity="0.18"/><circle cx="315.7" cy="536.3" r="4.00" fill="#bd6b20" opacity="0.28"/><circle cx="356.6" cy="532.5" r="2.58" fill="#bd6b20" opacity="0.35"/><circle cx="390.5" cy="533.1" r="3.21" fill="#bd6b20" opacity="0.31"/><circle cx="423.7" cy="534.2" r="3.67" fill="#bd6b20" opacity="0.26"/><circle cx="459.1" cy="532.0" r="3.80" fill="#bd6b20" opacity="0.32"/><circle cx="500.9" cy="536.6" r="2.56" fill="#bd6b20" opacity="0.18"/><circle cx="533.9" cy="533.5" r="2.76" fill="#bd6b20" opacity="0.19"/><circle cx="567.4" cy="535.8" r="2.49" fill="#bd6b20" opacity="0.26"/><circle cx="608.4" cy="535.5" r="2.50" fill="#bd6b20" opacity="0.15"/><circle cx="643.3" cy="532.8" r="3.20" fill="#bd6b20" opacity="0.17"/><circle cx="678.9" cy="535.0" r="3.76" fill="#bd6b20" opacity="0.17"/><circle cx="715.9" cy="535.6" r="3.30" fill="#bd6b20" opacity="0.31"/><circle cx="749.3" cy="533.4" r="3.40" fill="#bd6b20" opacity="0.18"/><circle cx="787.5" cy="533.2" r="3.51" fill="#bd6b20" opacity="0.29"/><circle cx="824.3" cy="532.3" r="3.77" fill="#bd6b20" opacity="0.20"/><circle cx="859.5" cy="533.7" r="1.94" fill="#bd6b20" opacity="0.35"/><circle cx="894.4" cy="535.4" r="3.66" fill="#bd6b20" opacity="0.30"/><circle cx="927.9" cy="534.9" r="3.82" fill="#bd6b20" opacity="0.28"/><circle cx="968.4" cy="532.8" r="3.56" fill="#bd6b20" opacity="0.23"/><circle cx="999.3" cy="536.6" r="3.98" fill="#bd6b20" opacity="0.35"/><circle cx="1038.0" cy="532.1" r="3.48" fill="#bd6b20" opacity="0.23"/><circle cx="1074.4" cy="534.2" r="2.68" fill="#bd6b20" opacity="0.24"/><circle cx="1107.6" cy="533.7" r="2.75" fill="#bd6b20" opacity="0.25"/><circle cx="1148.6" cy="531.3" r="1.93" fill="#bd6b20" opacity="0.33"/><circle cx="1180.4" cy="531.7" r="3.66" fill="#bd6b20" opacity="0.18"/><circle cx="31.7" cy="568.0" r="3.67" fill="#bd6b20" opacity="0.28"/><circle cx="67.8" cy="571.2" r="3.20" fill="#bd6b20" opacity="0.21"/><circle cx="102.4" cy="571.8" r="3.91" fill="#bd6b20" opacity="0.32"/><circle cx="137.7" cy="567.1" r="3.91" fill="#bd6b20" opacity="0.22"/><circle cx="173.1" cy="570.9" r="3.42" fill="#bd6b20" opacity="0.32"/><circle cx="209.2" cy="567.9" r="3.88" fill="#bd6b20" opacity="0.23"/><circle cx="243.1" cy="572.8" r="3.18" fill="#bd6b20" opacity="0.20"/><circle cx="283.5" cy="572.7" r="3.45" fill="#bd6b20" opacity="0.19"/><circle cx="319.1" cy="569.0" r="3.23" fill="#bd6b20" opacity="0.24"/><circle cx="356.2" cy="569.8" r="3.88" fill="#bd6b20" opacity="0.30"/><circle cx="387.9" cy="572.3" r="3.11" fill="#bd6b20" opacity="0.17"/><circle cx="424.8" cy="569.4" r="2.12" fill="#bd6b20" opacity="0.35"/><circle cx="459.2" cy="572.7" r="2.39" fill="#bd6b20" opacity="0.34"/><circle cx="495.4" cy="571.0" r="3.43" fill="#bd6b20" opacity="0.25"/><circle cx="534.9" cy="570.5" r="3.42" fill="#bd6b20" opacity="0.17"/><circle cx="571.0" cy="572.0" r="2.46" fill="#bd6b20" opacity="0.19"/><circle cx="606.5" cy="571.2" r="2.96" fill="#bd6b20" opacity="0.28"/><circle cx="639.7" cy="570.7" r="3.09" fill="#bd6b20" opacity="0.19"/><circle cx="680.5" cy="569.9" r="2.21" fill="#bd6b20" opacity="0.23"/><circle cx="715.0" cy="568.6" r="1.69" fill="#bd6b20" opacity="0.34"/><circle cx="749.4" cy="567.9" r="2.90" fill="#bd6b20" opacity="0.26"/><circle cx="788.4" cy="572.5" r="3.43" fill="#bd6b20" opacity="0.28"/><circle cx="823.2" cy="571.0" r="3.24" fill="#bd6b20" opacity="0.19"/><circle cx="857.4" cy="569.7" r="2.84" fill="#bd6b20" opacity="0.24"/><circle cx="894.2" cy="569.3" r="3.47" fill="#bd6b20" opacity="0.24"/><circle cx="931.9" cy="567.5" r="2.07" fill="#bd6b20" opacity="0.31"/><circle cx="965.7" cy="567.2" r="1.74" fill="#bd6b20" opacity="0.33"/><circle cx="1004.3" cy="568.8" r="1.90" fill="#bd6b20" opacity="0.24"/><circle cx="1037.4" cy="571.9" r="3.91" fill="#bd6b20" opacity="0.35"/><circle cx="1076.5" cy="569.7" r="3.58" fill="#bd6b20" opacity="0.18"/><circle cx="1108.8" cy="569.8" r="2.43" fill="#bd6b20" opacity="0.21"/><circle cx="1148.5" cy="568.8" r="1.76" fill="#bd6b20" opacity="0.27"/><circle cx="1183.0" cy="567.7" r="2.59" fill="#bd6b20" opacity="0.34"/><circle cx="30.9" cy="606.4" r="3.31" fill="#bd6b20" opacity="0.32"/><circle cx="68.1" cy="604.0" r="2.27" fill="#bd6b20" opacity="0.19"/><circle cx="99.9" cy="605.5" r="3.97" fill="#bd6b20" opacity="0.30"/><circle cx="137.1" cy="605.7" r="2.78" fill="#bd6b20" opacity="0.27"/><circle cx="176.8" cy="606.7" r="3.59" fill="#bd6b20" opacity="0.19"/><circle cx="210.9" cy="607.2" r="3.12" fill="#bd6b20" opacity="0.17"/><circle cx="246.0" cy="603.2" r="3.18" fill="#bd6b20" opacity="0.26"/><circle cx="283.0" cy="606.7" r="3.42" fill="#bd6b20" opacity="0.17"/><circle cx="316.1" cy="604.6" r="3.45" fill="#bd6b20" opacity="0.21"/><circle cx="352.2" cy="606.9" r="3.98" fill="#bd6b20" opacity="0.18"/><circle cx="389.6" cy="607.2" r="2.39" fill="#bd6b20" opacity="0.30"/><circle cx="423.2" cy="604.2" r="2.91" fill="#bd6b20" opacity="0.15"/><circle cx="461.5" cy="608.3" r="3.02" fill="#bd6b20" opacity="0.35"/><circle cx="501.0" cy="606.8" r="2.22" fill="#bd6b20" opacity="0.33"/><circle cx="534.8" cy="605.8" r="2.67" fill="#bd6b20" opacity="0.17"/><circle cx="570.0" cy="604.3" r="3.79" fill="#bd6b20" opacity="0.26"/><circle cx="603.6" cy="603.6" r="2.06" fill="#bd6b20" opacity="0.18"/><circle cx="643.8" cy="605.5" r="1.95" fill="#bd6b20" opacity="0.22"/><circle cx="677.9" cy="607.4" r="1.87" fill="#bd6b20" opacity="0.30"/><circle cx="714.1" cy="608.7" r="2.89" fill="#bd6b20" opacity="0.34"/><circle cx="751.4" cy="603.7" r="1.69" fill="#bd6b20" opacity="0.22"/><circle cx="783.7" cy="604.7" r="3.55" fill="#bd6b20" opacity="0.22"/><circle cx="820.9" cy="604.1" r="3.22" fill="#bd6b20" opacity="0.15"/><circle cx="855.5" cy="608.1" r="2.79" fill="#bd6b20" opacity="0.17"/><circle cx="893.9" cy="604.4" r="1.69" fill="#bd6b20" opacity="0.35"/><circle cx="931.0" cy="608.5" r="3.74" fill="#bd6b20" opacity="0.19"/><circle cx="965.8" cy="603.9" r="2.00" fill="#bd6b20" opacity="0.28"/><circle cx="1003.7" cy="606.9" r="3.67" fill="#bd6b20" opacity="0.26"/><circle cx="1038.6" cy="605.0" r="3.86" fill="#bd6b20" opacity="0.16"/><circle cx="1076.4" cy="608.2" r="3.22" fill="#bd6b20" opacity="0.28"/><circle cx="1109.1" cy="604.0" r="1.69" fill="#bd6b20" opacity="0.27"/><circle cx="1148.6" cy="603.9" r="1.86" fill="#bd6b20" opacity="0.22"/><circle cx="1179.3" cy="603.3" r="1.74" fill="#bd6b20" opacity="0.31"/><circle cx="30.4" cy="642.9" r="3.09" fill="#bd6b20" opacity="0.24"/><circle cx="64.4" cy="642.5" r="1.62" fill="#bd6b20" opacity="0.21"/><circle cx="102.8" cy="642.7" r="2.35" fill="#bd6b20" opacity="0.33"/><circle cx="139.5" cy="640.8" r="3.50" fill="#bd6b20" opacity="0.23"/><circle cx="172.2" cy="640.4" r="3.57" fill="#bd6b20" opacity="0.19"/><circle cx="209.7" cy="641.5" r="2.89" fill="#bd6b20" opacity="0.35"/><circle cx="245.8" cy="642.8" r="3.85" fill="#bd6b20" opacity="0.19"/><circle cx="280.6" cy="640.6" r="1.81" fill="#bd6b20" opacity="0.25"/><circle cx="319.2" cy="642.5" r="3.39" fill="#bd6b20" opacity="0.26"/><circle cx="352.5" cy="644.4" r="2.18" fill="#bd6b20" opacity="0.27"/><circle cx="391.1" cy="642.2" r="3.11" fill="#bd6b20" opacity="0.29"/><circle cx="428.4" cy="639.2" r="2.04" fill="#bd6b20" opacity="0.23"/><circle cx="463.9" cy="642.3" r="2.66" fill="#bd6b20" opacity="0.31"/><circle cx="499.8" cy="640.6" r="3.39" fill="#bd6b20" opacity="0.24"/><circle cx="531.8" cy="640.6" r="2.42" fill="#bd6b20" opacity="0.20"/><circle cx="571.4" cy="643.0" r="3.80" fill="#bd6b20" opacity="0.22"/><circle cx="603.6" cy="640.1" r="2.73" fill="#bd6b20" opacity="0.24"/><circle cx="642.2" cy="641.9" r="1.61" fill="#bd6b20" opacity="0.15"/><circle cx="675.9" cy="642.6" r="1.71" fill="#bd6b20" opacity="0.20"/><circle cx="712.6" cy="640.5" r="1.80" fill="#bd6b20" opacity="0.29"/><circle cx="752.1" cy="639.9" r="3.66" fill="#bd6b20" opacity="0.31"/><circle cx="783.9" cy="644.4" r="1.88" fill="#bd6b20" opacity="0.28"/><circle cx="819.6" cy="644.6" r="2.00" fill="#bd6b20" opacity="0.24"/><circle cx="859.0" cy="642.2" r="1.70" fill="#bd6b20" opacity="0.31"/><circle cx="892.3" cy="643.4" r="3.88" fill="#bd6b20" opacity="0.35"/><circle cx="928.6" cy="642.3" r="2.85" fill="#bd6b20" opacity="0.35"/><circle cx="964.5" cy="643.4" r="1.69" fill="#bd6b20" opacity="0.23"/><circle cx="1002.8" cy="642.9" r="2.20" fill="#bd6b20" opacity="0.27"/><circle cx="1037.7" cy="641.4" r="2.84" fill="#bd6b20" opacity="0.22"/><circle cx="1075.0" cy="639.7" r="1.82" fill="#bd6b20" opacity="0.23"/><circle cx="1108.0" cy="640.9" r="3.46" fill="#bd6b20" opacity="0.22"/><circle cx="1148.4" cy="639.9" r="3.04" fill="#bd6b20" opacity="0.29"/><circle cx="1183.6" cy="640.8" r="1.70" fill="#bd6b20" opacity="0.22"/><circle cx="220.9" cy="209.7" r="220" fill="url(#glow)" opacity="0.9"/>
  <g opacity="0.85" transform="translate(1020, 495)">
        <rect x="-46" y="-60" width="92" height="115" fill="#bd6b20" opacity="0.18" rx="6"/>
        <path d="M -28 -36 L 28 -36 M -28 -12 L 28 -12 M -28 12 L 18 12 M -28 36 L 28 36" stroke="#e09440" stroke-width="3" stroke-linecap="round"/>
      </g>
  <g transform="translate(80, 90)">
    <rect x="0" y="0" rx="20" ry="20" width="101" height="38" fill="#bd6b20" opacity="0.18" stroke="#bd6b20" stroke-width="1.5"/>
    <text x="50.5" y="25" font-family="ui-sans-serif, Inter, sans-serif" font-weight="700" font-size="14" letter-spacing="2.5" fill="#bd6b20" text-anchor="middle">ARTICLE</text>
  </g>
  <text x="80" y="465" font-family="ui-sans-serif, -apple-system, Segoe UI, Inter, sans-serif" font-weight="800" font-size="44" fill="#faf8f5" opacity="0.98"><tspan x="80" dy="0">Driving Growth: Foreign</tspan><tspan x="80" dy="56">Ventures in India with</tspan><tspan x="80" dy="56">Innovative Solutions</tspan></text>
  <rect x="0" y="669" width="1200" height="6" fill="url(#gold)"/>
</svg>