<?xml version="1.0" encoding="UTF-8"?>
<svg xmlns="http://www.w3.org/2000/svg" viewBox="0 0 1200 675" width="1200" height="675" role="img" aria-label="Structured Resolution of a Textile Manufacturing Loan">
  <defs>
    <linearGradient id="bg" x1="0%" y1="0%" x2="100%" y2="100%">
      <stop offset="0%" stop-color="#faf8f5"/>
      <stop offset="100%" stop-color="#f4efe8"/>
    </linearGradient>
    <linearGradient id="gold" x1="0%" y1="0%" x2="100%" y2="100%">
      <stop offset="0%" stop-color="#bd6b20"/>
      <stop offset="100%" stop-color="#9a5518"/>
    </linearGradient>
    <radialGradient id="glow" cx="50%" cy="50%" r="50%">
      <stop offset="0%" stop-color="#bd6b20" stop-opacity="0.45"/>
      <stop offset="100%" stop-color="#bd6b20" stop-opacity="0"/>
    </radialGradient>
  </defs>
  <rect width="1200" height="675" fill="url(#bg)"/>
  <rect x="-702.6" y="-80" width="125.1" height="875" transform="rotate(18 -702.6 337.5)" fill="#bd6b20" opacity="0.20"/><rect x="-497.4" y="-80" width="86.0" height="875" transform="rotate(18 -497.4 337.5)" fill="#bd6b20" opacity="0.08"/><rect x="-356.4" y="-80" width="64.8" height="875" transform="rotate(18 -356.4 337.5)" fill="#bd6b20" opacity="0.19"/><rect x="-135.2" y="-80" width="81.4" height="875" transform="rotate(18 -135.2 337.5)" fill="#bd6b20" opacity="0.06"/><rect x="62.4" y="-80" width="90.4" height="875" transform="rotate(18 62.4 337.5)" fill="#bd6b20" opacity="0.08"/><rect x="256.4" y="-80" width="74.3" height="875" transform="rotate(18 256.4 337.5)" fill="#bd6b20" opacity="0.20"/><rect x="391.2" y="-80" width="68.0" height="875" transform="rotate(18 391.2 337.5)" fill="#bd6b20" opacity="0.08"/><rect x="574.6" y="-80" width="129.1" height="875" transform="rotate(18 574.6 337.5)" fill="#bd6b20" opacity="0.06"/><rect x="784.9" y="-80" width="127.4" height="875" transform="rotate(18 784.9 337.5)" fill="#bd6b20" opacity="0.05"/><rect x="901.8" y="-80" width="130.5" height="875" transform="rotate(18 901.8 337.5)" fill="#bd6b20" opacity="0.16"/><rect x="1128.3" y="-80" width="111.5" height="875" transform="rotate(18 1128.3 337.5)" fill="#bd6b20" opacity="0.11"/><rect x="1276.7" y="-80" width="87.0" height="875" transform="rotate(18 1276.7 337.5)" fill="#bd6b20" opacity="0.15"/><rect x="1440.9" y="-80" width="139.9" height="875" transform="rotate(18 1440.9 337.5)" fill="#bd6b20" opacity="0.11"/><rect x="1671.3" y="-80" width="67.1" height="875" transform="rotate(18 1671.3 337.5)" fill="#bd6b20" opacity="0.13"/><rect x="0" y="0" width="1200" height="675" fill="url(#glow)" opacity="0.6"/>
  <g opacity="0.85" transform="translate(1020, 495)">
        <circle r="60" fill="#bd6b20" opacity="0.18"/>
        <path d="M -34 6 Q -10 -22 14 6 Q 34 24 14 26 L -22 26 Q -38 24 -34 6 Z" fill="none" stroke="#9a5518" stroke-width="3" stroke-linejoin="round"/>
      </g>
  <g transform="translate(80, 90)">
    <rect x="0" y="0" rx="20" ry="20" width="134" height="38" fill="#bd6b20" opacity="0.18" stroke="#bd6b20" stroke-width="1.5"/>
    <text x="67" y="25" font-family="ui-sans-serif, Inter, sans-serif" font-weight="700" font-size="14" letter-spacing="2.5" fill="#bd6b20" text-anchor="middle">CASE STUDY</text>
  </g>
  <text x="80" y="515" font-family="ui-sans-serif, -apple-system, Segoe UI, Inter, sans-serif" font-weight="800" font-size="44" fill="#12100e" opacity="0.98"><tspan x="80" dy="0">Structured Resolution of a</tspan><tspan x="80" dy="56">Textile Manufacturing Loan</tspan></text>
  <rect x="0" y="669" width="1200" height="6" fill="url(#gold)"/>
</svg>