<?xml version="1.0" encoding="UTF-8"?>
<svg xmlns="http://www.w3.org/2000/svg" viewBox="0 0 1200 675" width="1200" height="675" role="img" aria-label="Resolution of Dispute Between Sugar Mill Owner and Product Distribution Company: A Case Study">
  <defs>
    <linearGradient id="bg" x1="0%" y1="0%" x2="100%" y2="100%">
      <stop offset="0%" stop-color="#0c0a09"/>
      <stop offset="100%" stop-color="#291813"/>
    </linearGradient>
    <linearGradient id="gold" x1="0%" y1="0%" x2="100%" y2="100%">
      <stop offset="0%" stop-color="#d4862a"/>
      <stop offset="100%" stop-color="#bd6b20"/>
    </linearGradient>
    <radialGradient id="glow" cx="50%" cy="50%" r="50%">
      <stop offset="0%" stop-color="#d4862a" stop-opacity="0.45"/>
      <stop offset="100%" stop-color="#d4862a" stop-opacity="0"/>
    </radialGradient>
  </defs>
  <rect width="1200" height="675" fill="url(#bg)"/>
  <circle cx="31.0" cy="29.0" r="3.81" fill="#d4862a" opacity="0.20"/><circle cx="63.9" cy="31.1" r="3.12" fill="#d4862a" opacity="0.22"/><circle cx="102.3" cy="29.8" r="3.45" fill="#d4862a" opacity="0.24"/><circle cx="140.6" cy="30.9" r="2.83" fill="#d4862a" opacity="0.33"/><circle cx="175.0" cy="29.8" r="2.43" fill="#d4862a" opacity="0.24"/><circle cx="207.3" cy="28.9" r="3.68" fill="#d4862a" opacity="0.28"/><circle cx="247.2" cy="31.8" r="2.02" fill="#d4862a" opacity="0.32"/><circle cx="283.7" cy="32.0" r="3.71" fill="#d4862a" opacity="0.17"/><circle cx="320.4" cy="28.9" r="2.45" fill="#d4862a" opacity="0.33"/><circle cx="353.6" cy="30.3" r="2.63" fill="#d4862a" opacity="0.28"/><circle cx="392.9" cy="29.3" r="1.72" fill="#d4862a" opacity="0.22"/><circle cx="426.0" cy="30.7" r="2.56" fill="#d4862a" opacity="0.24"/><circle cx="464.7" cy="30.4" r="1.72" fill="#d4862a" opacity="0.16"/><circle cx="497.3" cy="28.0" r="2.10" fill="#d4862a" opacity="0.18"/><circle cx="536.8" cy="30.6" r="1.74" fill="#d4862a" opacity="0.16"/><circle cx="572.1" cy="29.3" r="3.16" fill="#d4862a" opacity="0.34"/><circle cx="608.4" cy="32.2" r="2.78" fill="#d4862a" opacity="0.29"/><circle cx="640.4" cy="28.9" r="3.99" fill="#d4862a" opacity="0.27"/><circle cx="678.5" cy="30.4" r="3.75" fill="#d4862a" opacity="0.27"/><circle cx="713.4" cy="30.4" r="2.47" fill="#d4862a" opacity="0.23"/><circle cx="752.6" cy="30.8" r="1.60" fill="#d4862a" opacity="0.34"/><circle cx="784.2" cy="31.7" r="1.72" fill="#d4862a" opacity="0.35"/><circle cx="819.5" cy="31.6" r="2.30" fill="#d4862a" opacity="0.33"/><circle cx="857.8" cy="30.8" r="3.26" fill="#d4862a" opacity="0.19"/><circle cx="894.7" cy="27.2" r="2.92" fill="#d4862a" opacity="0.20"/><circle cx="932.0" cy="31.1" r="1.77" fill="#d4862a" opacity="0.23"/><circle cx="963.2" cy="32.0" r="3.20" fill="#d4862a" opacity="0.28"/><circle cx="999.9" cy="29.1" r="2.47" fill="#d4862a" opacity="0.15"/><circle cx="1039.2" cy="32.4" r="2.44" fill="#d4862a" opacity="0.36"/><circle cx="1075.4" cy="29.1" r="2.17" fill="#d4862a" opacity="0.19"/><circle cx="1108.2" cy="32.9" r="2.64" fill="#d4862a" opacity="0.20"/><circle cx="1144.8" cy="31.1" r="2.67" fill="#d4862a" opacity="0.22"/><circle cx="1180.0" cy="30.8" r="3.75" fill="#d4862a" opacity="0.31"/><circle cx="29.8" cy="67.0" r="3.32" fill="#d4862a" opacity="0.18"/><circle cx="63.1" cy="63.2" r="3.46" fill="#d4862a" opacity="0.27"/><circle cx="102.7" cy="64.2" r="3.48" fill="#d4862a" opacity="0.24"/><circle cx="137.2" cy="64.7" r="2.49" fill="#d4862a" opacity="0.33"/><circle cx="175.3" cy="68.9" r="3.44" fill="#d4862a" opacity="0.18"/><circle cx="212.2" cy="68.0" r="2.58" fill="#d4862a" opacity="0.29"/><circle cx="245.7" cy="65.2" r="2.90" fill="#d4862a" opacity="0.19"/><circle cx="284.4" cy="67.7" r="1.90" fill="#d4862a" opacity="0.31"/><circle cx="317.8" cy="66.0" r="3.26" fill="#d4862a" opacity="0.28"/><circle cx="356.7" cy="67.8" r="1.92" fill="#d4862a" opacity="0.16"/><circle cx="391.0" cy="66.4" r="3.00" fill="#d4862a" opacity="0.24"/><circle cx="424.9" cy="67.7" r="2.61" fill="#d4862a" opacity="0.15"/><circle cx="459.0" cy="67.9" r="1.67" fill="#d4862a" opacity="0.15"/><circle cx="497.7" cy="65.7" r="3.36" fill="#d4862a" opacity="0.26"/><circle cx="535.9" cy="63.1" r="2.00" fill="#d4862a" opacity="0.31"/><circle cx="568.4" cy="64.8" r="3.33" fill="#d4862a" opacity="0.16"/><circle cx="604.5" cy="68.6" r="1.91" fill="#d4862a" opacity="0.34"/><circle cx="639.8" cy="69.0" r="3.11" fill="#d4862a" opacity="0.17"/><circle cx="679.0" cy="65.7" r="2.30" fill="#d4862a" opacity="0.21"/><circle cx="715.8" cy="66.6" r="2.20" fill="#d4862a" opacity="0.29"/><circle cx="751.9" cy="65.4" r="2.25" fill="#d4862a" opacity="0.19"/><circle cx="788.1" cy="67.3" r="1.72" fill="#d4862a" opacity="0.35"/><circle cx="820.4" cy="66.7" r="3.42" fill="#d4862a" opacity="0.33"/><circle cx="859.8" cy="65.4" r="2.43" fill="#d4862a" opacity="0.34"/><circle cx="896.9" cy="66.2" r="1.89" fill="#d4862a" opacity="0.17"/><circle cx="929.3" cy="68.8" r="1.90" fill="#d4862a" opacity="0.35"/><circle cx="965.1" cy="63.5" r="3.31" fill="#d4862a" opacity="0.22"/><circle cx="1000.3" cy="65.7" r="3.12" fill="#d4862a" opacity="0.27"/><circle cx="1038.1" cy="65.5" r="1.74" fill="#d4862a" opacity="0.31"/><circle cx="1076.6" cy="64.8" r="3.18" fill="#d4862a" opacity="0.19"/><circle cx="1108.3" cy="63.8" r="2.29" fill="#d4862a" opacity="0.19"/><circle cx="1145.7" cy="64.2" r="2.31" fill="#d4862a" opacity="0.18"/><circle cx="1179.9" cy="66.1" r="2.35" fill="#d4862a" opacity="0.15"/><circle cx="27.4" cy="103.8" r="3.43" fill="#d4862a" opacity="0.32"/><circle cx="68.6" cy="103.2" r="3.86" fill="#d4862a" opacity="0.25"/><circle cx="103.6" cy="102.5" r="2.53" fill="#d4862a" opacity="0.24"/><circle cx="136.7" cy="104.9" r="3.83" fill="#d4862a" opacity="0.36"/><circle cx="172.2" cy="99.8" r="1.95" fill="#d4862a" opacity="0.29"/><circle cx="212.5" cy="103.9" r="2.11" fill="#d4862a" opacity="0.32"/><circle cx="247.0" cy="103.2" r="2.47" fill="#d4862a" opacity="0.32"/><circle cx="279.3" cy="100.2" r="3.21" fill="#d4862a" opacity="0.27"/><circle cx="320.5" cy="104.3" r="3.49" fill="#d4862a" opacity="0.29"/><circle cx="354.9" cy="103.4" r="3.97" fill="#d4862a" opacity="0.21"/><circle cx="391.5" cy="99.4" r="3.32" fill="#d4862a" opacity="0.31"/><circle cx="429.0" cy="99.6" r="3.99" fill="#d4862a" opacity="0.20"/><circle cx="464.0" cy="104.7" r="2.40" fill="#d4862a" opacity="0.30"/><circle cx="500.3" cy="101.7" r="3.51" fill="#d4862a" opacity="0.28"/><circle cx="531.5" cy="99.9" r="3.56" fill="#d4862a" opacity="0.30"/><circle cx="569.7" cy="104.0" r="2.70" fill="#d4862a" opacity="0.31"/><circle cx="607.8" cy="103.7" r="3.22" fill="#d4862a" opacity="0.32"/><circle cx="643.3" cy="100.6" r="3.43" fill="#d4862a" opacity="0.27"/><circle cx="676.5" cy="104.6" r="3.17" fill="#d4862a" opacity="0.33"/><circle cx="716.4" cy="100.5" r="3.63" fill="#d4862a" opacity="0.27"/><circle cx="747.8" cy="102.4" r="3.20" fill="#d4862a" opacity="0.24"/><circle cx="783.7" cy="100.9" r="3.73" fill="#d4862a" opacity="0.26"/><circle cx="824.1" cy="101.1" r="1.77" fill="#d4862a" opacity="0.26"/><circle cx="856.6" cy="101.7" r="3.38" fill="#d4862a" opacity="0.27"/><circle cx="893.2" cy="100.3" r="1.74" fill="#d4862a" opacity="0.23"/><circle cx="929.3" cy="103.1" r="3.02" fill="#d4862a" opacity="0.17"/><circle cx="964.5" cy="104.8" r="3.31" fill="#d4862a" opacity="0.19"/><circle cx="1000.7" cy="102.0" r="3.11" fill="#d4862a" opacity="0.19"/><circle cx="1037.2" cy="100.4" r="2.17" fill="#d4862a" opacity="0.24"/><circle cx="1072.4" cy="102.0" r="3.80" fill="#d4862a" opacity="0.21"/><circle cx="1109.1" cy="101.0" r="3.91" fill="#d4862a" opacity="0.30"/><circle cx="1147.3" cy="101.0" r="2.54" fill="#d4862a" opacity="0.21"/><circle cx="1180.1" cy="100.0" r="2.44" fill="#d4862a" opacity="0.33"/><circle cx="30.7" cy="139.1" r="2.19" fill="#d4862a" opacity="0.36"/><circle cx="66.2" cy="139.1" r="3.49" fill="#d4862a" opacity="0.25"/><circle cx="101.8" cy="140.9" r="1.76" fill="#d4862a" opacity="0.19"/><circle cx="140.2" cy="136.2" r="3.10" fill="#d4862a" opacity="0.19"/><circle cx="171.7" cy="136.1" r="2.84" fill="#d4862a" opacity="0.23"/><circle cx="207.6" cy="138.4" r="3.93" fill="#d4862a" opacity="0.20"/><circle cx="247.0" cy="137.1" r="2.16" fill="#d4862a" opacity="0.18"/><circle cx="284.6" cy="135.2" r="1.75" fill="#d4862a" opacity="0.18"/><circle cx="320.7" cy="136.6" r="2.56" fill="#d4862a" opacity="0.34"/><circle cx="354.9" cy="136.0" r="1.73" fill="#d4862a" opacity="0.36"/><circle cx="390.5" cy="139.2" r="2.28" fill="#d4862a" opacity="0.33"/><circle cx="423.1" cy="140.5" r="2.10" fill="#d4862a" opacity="0.24"/><circle cx="463.9" cy="135.6" r="3.66" fill="#d4862a" opacity="0.28"/><circle cx="495.4" cy="138.1" r="3.22" fill="#d4862a" opacity="0.22"/><circle cx="532.5" cy="140.5" r="2.14" fill="#d4862a" opacity="0.28"/><circle cx="569.4" cy="140.2" r="1.82" fill="#d4862a" opacity="0.25"/><circle cx="608.2" cy="135.8" r="2.67" fill="#d4862a" opacity="0.17"/><circle cx="639.2" cy="139.2" r="3.46" fill="#d4862a" opacity="0.35"/><circle cx="679.3" cy="135.1" r="3.60" fill="#d4862a" opacity="0.35"/><circle cx="714.3" cy="140.6" r="3.92" fill="#d4862a" opacity="0.34"/><circle cx="748.2" cy="135.4" r="3.17" fill="#d4862a" opacity="0.27"/><circle cx="786.9" cy="139.0" r="2.28" fill="#d4862a" opacity="0.18"/><circle cx="819.9" cy="135.5" r="3.00" fill="#d4862a" opacity="0.32"/><circle cx="858.1" cy="135.8" r="2.65" fill="#d4862a" opacity="0.25"/><circle cx="896.5" cy="139.3" r="2.14" fill="#d4862a" opacity="0.18"/><circle cx="927.8" cy="136.0" r="3.39" fill="#d4862a" opacity="0.18"/><circle cx="968.9" cy="139.2" r="3.77" fill="#d4862a" opacity="0.25"/><circle cx="1003.3" cy="137.7" r="2.49" fill="#d4862a" opacity="0.16"/><circle cx="1038.8" cy="135.2" r="3.83" fill="#d4862a" opacity="0.25"/><circle cx="1074.6" cy="139.2" r="1.91" fill="#d4862a" opacity="0.35"/><circle cx="1111.6" cy="139.9" r="2.70" fill="#d4862a" opacity="0.35"/><circle cx="1147.9" cy="136.4" r="2.23" fill="#d4862a" opacity="0.27"/><circle cx="1183.3" cy="139.8" r="1.91" fill="#d4862a" opacity="0.26"/><circle cx="31.4" cy="174.4" r="3.62" fill="#d4862a" opacity="0.27"/><circle cx="63.0" cy="175.5" r="1.92" fill="#d4862a" opacity="0.23"/><circle cx="100.3" cy="174.8" r="3.35" fill="#d4862a" opacity="0.23"/><circle cx="137.2" cy="173.2" r="2.34" fill="#d4862a" opacity="0.27"/><circle cx="175.9" cy="172.2" r="2.79" fill="#d4862a" opacity="0.33"/><circle cx="212.8" cy="171.2" r="3.01" fill="#d4862a" opacity="0.25"/><circle cx="243.7" cy="175.0" r="3.96" fill="#d4862a" opacity="0.29"/><circle cx="279.4" cy="176.9" r="3.55" fill="#d4862a" opacity="0.29"/><circle cx="317.3" cy="174.0" r="3.86" fill="#d4862a" opacity="0.16"/><circle cx="356.3" cy="172.7" r="3.26" fill="#d4862a" opacity="0.20"/><circle cx="388.5" cy="172.4" r="2.73" fill="#d4862a" opacity="0.20"/><circle cx="424.5" cy="175.7" r="3.05" fill="#d4862a" opacity="0.25"/><circle cx="460.2" cy="176.5" r="3.72" fill="#d4862a" opacity="0.31"/><circle cx="500.6" cy="172.0" r="3.93" fill="#d4862a" opacity="0.33"/><circle cx="531.4" cy="173.9" r="2.02" fill="#d4862a" opacity="0.17"/><circle cx="569.7" cy="171.4" r="2.66" fill="#d4862a" opacity="0.16"/><circle cx="605.4" cy="176.4" r="2.72" fill="#d4862a" opacity="0.21"/><circle cx="641.0" cy="171.2" r="2.98" fill="#d4862a" opacity="0.24"/><circle cx="679.3" cy="174.0" r="3.33" fill="#d4862a" opacity="0.15"/><circle cx="713.6" cy="174.6" r="3.07" fill="#d4862a" opacity="0.24"/><circle cx="748.1" cy="171.5" r="3.71" fill="#d4862a" opacity="0.26"/><circle cx="788.2" cy="174.1" r="2.39" fill="#d4862a" opacity="0.24"/><circle cx="821.1" cy="176.0" r="2.46" fill="#d4862a" opacity="0.28"/><circle cx="856.5" cy="175.0" r="1.72" fill="#d4862a" opacity="0.27"/><circle cx="897.0" cy="176.4" r="2.41" fill="#d4862a" opacity="0.27"/><circle cx="931.9" cy="174.1" r="3.42" fill="#d4862a" opacity="0.33"/><circle cx="967.9" cy="172.2" r="2.83" fill="#d4862a" opacity="0.15"/><circle cx="1003.5" cy="171.6" r="3.13" fill="#d4862a" opacity="0.31"/><circle cx="1037.4" cy="172.0" r="3.59" fill="#d4862a" opacity="0.29"/><circle cx="1075.9" cy="171.6" r="2.98" fill="#d4862a" opacity="0.32"/><circle cx="1107.1" cy="171.9" r="3.21" fill="#d4862a" opacity="0.21"/><circle cx="1145.1" cy="171.7" r="2.21" fill="#d4862a" opacity="0.31"/><circle cx="1184.0" cy="172.8" r="3.40" fill="#d4862a" opacity="0.18"/><circle cx="29.2" cy="212.8" r="1.66" fill="#d4862a" opacity="0.32"/><circle cx="65.9" cy="209.2" r="3.34" fill="#d4862a" opacity="0.19"/><circle cx="103.4" cy="209.0" r="1.71" fill="#d4862a" opacity="0.23"/><circle cx="137.9" cy="210.8" r="1.64" fill="#d4862a" opacity="0.34"/><circle cx="176.3" cy="208.0" r="3.81" fill="#d4862a" opacity="0.21"/><circle cx="210.0" cy="211.0" r="2.75" fill="#d4862a" opacity="0.23"/><circle cx="248.4" cy="207.5" r="3.02" fill="#d4862a" opacity="0.28"/><circle cx="280.4" cy="211.1" r="3.41" fill="#d4862a" opacity="0.23"/><circle cx="318.7" cy="210.9" r="2.00" fill="#d4862a" opacity="0.32"/><circle cx="355.5" cy="210.1" r="2.57" fill="#d4862a" opacity="0.31"/><circle cx="393.0" cy="208.2" r="3.83" fill="#d4862a" opacity="0.31"/><circle cx="427.3" cy="212.7" r="3.13" fill="#d4862a" opacity="0.34"/><circle cx="464.5" cy="212.2" r="2.14" fill="#d4862a" opacity="0.17"/><circle cx="500.3" cy="212.5" r="2.81" fill="#d4862a" opacity="0.30"/><circle cx="534.1" cy="208.9" r="2.55" fill="#d4862a" opacity="0.33"/><circle cx="571.5" cy="212.9" r="2.72" fill="#d4862a" opacity="0.24"/><circle cx="603.6" cy="211.8" r="3.94" fill="#d4862a" opacity="0.22"/><circle cx="639.2" cy="209.8" r="1.70" fill="#d4862a" opacity="0.33"/><circle cx="680.9" cy="209.7" r="3.83" fill="#d4862a" opacity="0.29"/><circle cx="717.0" cy="210.4" r="3.41" fill="#d4862a" opacity="0.15"/><circle cx="748.5" cy="210.3" r="2.56" fill="#d4862a" opacity="0.34"/><circle cx="784.2" cy="212.2" r="3.50" fill="#d4862a" opacity="0.34"/><circle cx="820.6" cy="208.3" r="2.24" fill="#d4862a" opacity="0.28"/><circle cx="860.2" cy="212.4" r="3.29" fill="#d4862a" opacity="0.27"/><circle cx="893.8" cy="211.6" r="3.72" fill="#d4862a" opacity="0.30"/><circle cx="932.1" cy="209.9" r="1.62" fill="#d4862a" opacity="0.24"/><circle cx="968.0" cy="210.1" r="3.87" fill="#d4862a" opacity="0.29"/><circle cx="1002.3" cy="211.9" r="2.54" fill="#d4862a" opacity="0.35"/><circle cx="1040.6" cy="212.0" r="2.46" fill="#d4862a" opacity="0.36"/><circle cx="1075.6" cy="208.4" r="2.42" fill="#d4862a" opacity="0.31"/><circle cx="1109.2" cy="209.7" r="2.04" fill="#d4862a" opacity="0.27"/><circle cx="1147.7" cy="208.6" r="2.79" fill="#d4862a" opacity="0.21"/><circle cx="1182.3" cy="212.3" r="3.82" fill="#d4862a" opacity="0.30"/><circle cx="29.3" cy="243.5" r="1.77" fill="#d4862a" opacity="0.23"/><circle cx="64.2" cy="244.4" r="3.28" fill="#d4862a" opacity="0.27"/><circle cx="104.8" cy="243.2" r="1.93" fill="#d4862a" opacity="0.26"/><circle cx="136.7" cy="249.0" r="2.85" fill="#d4862a" opacity="0.19"/><circle cx="171.7" cy="244.4" r="3.35" fill="#d4862a" opacity="0.35"/><circle cx="211.2" cy="243.6" r="3.97" fill="#d4862a" opacity="0.27"/><circle cx="245.9" cy="246.7" r="3.71" fill="#d4862a" opacity="0.34"/><circle cx="282.7" cy="244.6" r="3.16" fill="#d4862a" opacity="0.32"/><circle cx="316.8" cy="246.6" r="3.47" fill="#d4862a" opacity="0.31"/><circle cx="354.3" cy="243.5" r="3.28" fill="#d4862a" opacity="0.20"/><circle cx="387.8" cy="248.8" r="2.75" fill="#d4862a" opacity="0.30"/><circle cx="425.0" cy="245.3" r="3.48" fill="#d4862a" opacity="0.35"/><circle cx="460.8" cy="246.6" r="2.63" fill="#d4862a" opacity="0.36"/><circle cx="499.2" cy="246.1" r="3.29" fill="#d4862a" opacity="0.18"/><circle cx="534.7" cy="248.7" r="3.02" fill="#d4862a" opacity="0.18"/><circle cx="572.5" cy="246.6" r="2.02" fill="#d4862a" opacity="0.16"/><circle cx="605.6" cy="247.2" r="3.19" fill="#d4862a" opacity="0.25"/><circle cx="640.6" cy="245.3" r="2.88" fill="#d4862a" opacity="0.22"/><circle cx="676.2" cy="245.4" r="3.99" fill="#d4862a" opacity="0.32"/><circle cx="716.3" cy="246.7" r="3.04" fill="#d4862a" opacity="0.20"/><circle cx="748.8" cy="244.7" r="3.86" fill="#d4862a" opacity="0.33"/><circle cx="784.1" cy="246.4" r="3.51" fill="#d4862a" opacity="0.27"/><circle cx="821.3" cy="244.0" r="3.23" fill="#d4862a" opacity="0.30"/><circle cx="856.9" cy="246.5" r="2.31" fill="#d4862a" opacity="0.22"/><circle cx="892.0" cy="247.5" r="2.77" fill="#d4862a" opacity="0.33"/><circle cx="928.6" cy="248.2" r="3.17" fill="#d4862a" opacity="0.19"/><circle cx="966.2" cy="248.3" r="3.23" fill="#d4862a" opacity="0.33"/><circle cx="999.3" cy="243.6" r="2.61" fill="#d4862a" opacity="0.15"/><circle cx="1035.4" cy="243.7" r="3.55" fill="#d4862a" opacity="0.28"/><circle cx="1073.7" cy="245.5" r="2.48" fill="#d4862a" opacity="0.29"/><circle cx="1112.7" cy="246.0" r="3.54" fill="#d4862a" opacity="0.36"/><circle cx="1143.4" cy="246.2" r="2.12" fill="#d4862a" opacity="0.33"/><circle cx="1184.5" cy="243.3" r="1.89" fill="#d4862a" opacity="0.18"/><circle cx="29.1" cy="281.9" r="2.40" fill="#d4862a" opacity="0.34"/><circle cx="65.7" cy="279.3" r="3.24" fill="#d4862a" opacity="0.34"/><circle cx="102.8" cy="279.8" r="3.88" fill="#d4862a" opacity="0.21"/><circle cx="139.8" cy="284.2" r="3.13" fill="#d4862a" opacity="0.20"/><circle cx="171.4" cy="284.1" r="2.48" fill="#d4862a" opacity="0.31"/><circle cx="211.6" cy="283.0" r="2.19" fill="#d4862a" opacity="0.15"/><circle cx="248.4" cy="281.7" r="2.56" fill="#d4862a" opacity="0.33"/><circle cx="284.7" cy="282.9" r="3.84" fill="#d4862a" opacity="0.34"/><circle cx="316.5" cy="284.2" r="2.65" fill="#d4862a" opacity="0.19"/><circle cx="355.6" cy="280.0" r="2.24" fill="#d4862a" opacity="0.24"/><circle cx="388.2" cy="283.2" r="2.57" fill="#d4862a" opacity="0.28"/><circle cx="427.5" cy="279.3" r="3.99" fill="#d4862a" opacity="0.18"/><circle cx="464.9" cy="279.7" r="2.74" fill="#d4862a" opacity="0.33"/><circle cx="498.8" cy="283.8" r="3.01" fill="#d4862a" opacity="0.28"/><circle cx="533.2" cy="284.7" r="1.80" fill="#d4862a" opacity="0.21"/><circle cx="570.7" cy="283.6" r="3.52" fill="#d4862a" opacity="0.20"/><circle cx="603.8" cy="280.4" r="3.94" fill="#d4862a" opacity="0.23"/><circle cx="639.7" cy="282.0" r="2.29" fill="#d4862a" opacity="0.34"/><circle cx="680.4" cy="284.9" r="2.93" fill="#d4862a" opacity="0.22"/><circle cx="715.4" cy="281.0" r="2.38" fill="#d4862a" opacity="0.30"/><circle cx="751.9" cy="281.4" r="2.67" fill="#d4862a" opacity="0.31"/><circle cx="786.0" cy="279.4" r="2.56" fill="#d4862a" opacity="0.27"/><circle cx="824.0" cy="283.8" r="2.09" fill="#d4862a" opacity="0.30"/><circle cx="857.2" cy="283.4" r="1.76" fill="#d4862a" opacity="0.24"/><circle cx="892.5" cy="281.5" r="2.68" fill="#d4862a" opacity="0.29"/><circle cx="927.3" cy="279.8" r="2.82" fill="#d4862a" opacity="0.28"/><circle cx="964.3" cy="279.5" r="1.71" fill="#d4862a" opacity="0.29"/><circle cx="999.9" cy="284.0" r="3.00" fill="#d4862a" opacity="0.21"/><circle cx="1040.9" cy="284.4" r="1.80" fill="#d4862a" opacity="0.17"/><circle cx="1073.3" cy="284.4" r="3.17" fill="#d4862a" opacity="0.26"/><circle cx="1111.4" cy="280.0" r="3.82" fill="#d4862a" opacity="0.33"/><circle cx="1143.2" cy="282.8" r="3.92" fill="#d4862a" opacity="0.31"/><circle cx="1180.9" cy="280.9" r="1.91" fill="#d4862a" opacity="0.25"/><circle cx="32.3" cy="317.1" r="2.04" fill="#d4862a" opacity="0.18"/><circle cx="63.6" cy="315.7" r="1.87" fill="#d4862a" opacity="0.33"/><circle cx="99.6" cy="320.3" r="2.91" fill="#d4862a" opacity="0.17"/><circle cx="136.9" cy="320.6" r="3.06" fill="#d4862a" opacity="0.16"/><circle cx="176.4" cy="317.2" r="1.79" fill="#d4862a" opacity="0.35"/><circle cx="211.4" cy="319.9" r="3.67" fill="#d4862a" opacity="0.30"/><circle cx="247.1" cy="316.8" r="3.65" fill="#d4862a" opacity="0.32"/><circle cx="280.6" cy="316.3" r="1.83" fill="#d4862a" opacity="0.18"/><circle cx="319.8" cy="317.5" r="3.68" fill="#d4862a" opacity="0.31"/><circle cx="353.8" cy="318.6" r="3.17" fill="#d4862a" opacity="0.28"/><circle cx="389.4" cy="315.7" r="1.89" fill="#d4862a" opacity="0.22"/><circle cx="425.1" cy="318.8" r="2.97" fill="#d4862a" opacity="0.18"/><circle cx="462.7" cy="315.2" r="3.66" fill="#d4862a" opacity="0.28"/><circle cx="497.7" cy="316.0" r="3.48" fill="#d4862a" opacity="0.27"/><circle cx="531.1" cy="315.5" r="2.87" fill="#d4862a" opacity="0.34"/><circle cx="568.0" cy="319.2" r="3.86" fill="#d4862a" opacity="0.32"/><circle cx="607.1" cy="318.8" r="2.74" fill="#d4862a" opacity="0.24"/><circle cx="644.4" cy="316.0" r="1.76" fill="#d4862a" opacity="0.20"/><circle cx="679.8" cy="319.9" r="2.58" fill="#d4862a" opacity="0.29"/><circle cx="712.8" cy="319.3" r="2.46" fill="#d4862a" opacity="0.29"/><circle cx="748.1" cy="318.0" r="2.84" fill="#d4862a" opacity="0.32"/><circle cx="788.4" cy="315.7" r="3.98" fill="#d4862a" opacity="0.17"/><circle cx="823.9" cy="316.6" r="3.59" fill="#d4862a" opacity="0.33"/><circle cx="859.8" cy="318.3" r="2.49" fill="#d4862a" opacity="0.16"/><circle cx="892.2" cy="315.7" r="2.80" fill="#d4862a" opacity="0.26"/><circle cx="930.8" cy="315.1" r="1.97" fill="#d4862a" opacity="0.28"/><circle cx="965.6" cy="315.0" r="2.56" fill="#d4862a" opacity="0.23"/><circle cx="1000.3" cy="318.9" r="3.30" fill="#d4862a" opacity="0.34"/><circle cx="1038.4" cy="321.0" r="3.84" fill="#d4862a" opacity="0.30"/><circle cx="1074.7" cy="319.8" r="2.73" fill="#d4862a" opacity="0.16"/><circle cx="1109.6" cy="318.9" r="2.94" fill="#d4862a" opacity="0.16"/><circle cx="1145.9" cy="319.5" r="2.51" fill="#d4862a" opacity="0.36"/><circle cx="1180.5" cy="319.9" r="2.34" fill="#d4862a" opacity="0.26"/><circle cx="29.6" cy="353.7" r="1.64" fill="#d4862a" opacity="0.30"/><circle cx="66.9" cy="352.0" r="2.27" fill="#d4862a" opacity="0.25"/><circle cx="103.0" cy="354.1" r="2.62" fill="#d4862a" opacity="0.33"/><circle cx="139.8" cy="355.7" r="1.94" fill="#d4862a" opacity="0.16"/><circle cx="174.5" cy="356.4" r="2.60" fill="#d4862a" opacity="0.34"/><circle cx="212.3" cy="354.3" r="2.54" fill="#d4862a" opacity="0.24"/><circle cx="245.7" cy="355.6" r="2.02" fill="#d4862a" opacity="0.22"/><circle cx="279.7" cy="355.4" r="3.28" fill="#d4862a" opacity="0.34"/><circle cx="317.5" cy="353.6" r="3.90" fill="#d4862a" opacity="0.32"/><circle cx="353.8" cy="351.9" r="2.98" fill="#d4862a" opacity="0.23"/><circle cx="392.1" cy="353.6" r="3.73" fill="#d4862a" opacity="0.33"/><circle cx="425.1" cy="355.9" r="3.42" fill="#d4862a" opacity="0.24"/><circle cx="461.4" cy="355.0" r="2.48" fill="#d4862a" opacity="0.25"/><circle cx="500.5" cy="351.4" r="2.67" fill="#d4862a" opacity="0.16"/><circle cx="533.1" cy="353.5" r="1.99" fill="#d4862a" opacity="0.36"/><circle cx="570.7" cy="351.8" r="1.94" fill="#d4862a" opacity="0.19"/><circle cx="605.9" cy="356.3" r="2.72" fill="#d4862a" opacity="0.36"/><circle cx="642.6" cy="353.3" r="2.02" fill="#d4862a" opacity="0.22"/><circle cx="677.0" cy="355.7" r="2.34" fill="#d4862a" opacity="0.30"/><circle cx="713.3" cy="356.9" r="2.45" fill="#d4862a" opacity="0.25"/><circle cx="749.8" cy="355.8" r="3.35" fill="#d4862a" opacity="0.31"/><circle cx="788.6" cy="355.3" r="2.23" fill="#d4862a" opacity="0.25"/><circle cx="821.4" cy="356.8" r="3.20" fill="#d4862a" opacity="0.27"/><circle cx="857.1" cy="351.8" r="2.81" fill="#d4862a" opacity="0.27"/><circle cx="893.9" cy="353.5" r="3.66" fill="#d4862a" opacity="0.28"/><circle cx="927.3" cy="353.1" r="2.17" fill="#d4862a" opacity="0.35"/><circle cx="963.8" cy="355.9" r="3.30" fill="#d4862a" opacity="0.29"/><circle cx="1000.1" cy="355.5" r="2.23" fill="#d4862a" opacity="0.24"/><circle cx="1040.1" cy="355.2" r="1.78" fill="#d4862a" opacity="0.20"/><circle cx="1075.0" cy="352.6" r="2.92" fill="#d4862a" opacity="0.16"/><circle cx="1110.1" cy="354.6" r="3.05" fill="#d4862a" opacity="0.20"/><circle cx="1145.9" cy="352.3" r="1.78" fill="#d4862a" opacity="0.23"/><circle cx="1182.3" cy="353.6" r="3.64" fill="#d4862a" opacity="0.17"/><circle cx="29.2" cy="391.7" r="2.17" fill="#d4862a" opacity="0.27"/><circle cx="65.5" cy="387.7" r="2.78" fill="#d4862a" opacity="0.31"/><circle cx="102.5" cy="392.9" r="2.51" fill="#d4862a" opacity="0.31"/><circle cx="135.3" cy="388.6" r="3.91" fill="#d4862a" opacity="0.23"/><circle cx="175.2" cy="388.5" r="2.62" fill="#d4862a" opacity="0.29"/><circle cx="207.7" cy="391.7" r="3.41" fill="#d4862a" opacity="0.31"/><circle cx="244.5" cy="387.4" r="1.65" fill="#d4862a" opacity="0.15"/><circle cx="284.6" cy="387.1" r="2.37" fill="#d4862a" opacity="0.22"/><circle cx="318.9" cy="389.0" r="2.55" fill="#d4862a" opacity="0.20"/><circle cx="353.8" cy="392.8" r="2.10" fill="#d4862a" opacity="0.25"/><circle cx="390.3" cy="387.8" r="2.46" fill="#d4862a" opacity="0.30"/><circle cx="426.7" cy="387.3" r="3.66" fill="#d4862a" opacity="0.24"/><circle cx="461.1" cy="392.2" r="2.12" fill="#d4862a" opacity="0.33"/><circle cx="496.3" cy="392.2" r="2.85" fill="#d4862a" opacity="0.15"/><circle cx="533.1" cy="387.2" r="1.69" fill="#d4862a" opacity="0.17"/><circle cx="572.2" cy="390.8" r="3.74" fill="#d4862a" opacity="0.31"/><circle cx="606.1" cy="388.2" r="2.76" fill="#d4862a" opacity="0.26"/><circle cx="639.9" cy="387.1" r="2.51" fill="#d4862a" opacity="0.21"/><circle cx="680.3" cy="389.7" r="3.88" fill="#d4862a" opacity="0.21"/><circle cx="717.0" cy="391.5" r="3.48" fill="#d4862a" opacity="0.27"/><circle cx="751.9" cy="392.3" r="3.75" fill="#d4862a" opacity="0.18"/><circle cx="785.4" cy="388.3" r="1.63" fill="#d4862a" opacity="0.25"/><circle cx="824.2" cy="392.7" r="2.55" fill="#d4862a" opacity="0.28"/><circle cx="860.6" cy="387.2" r="3.90" fill="#d4862a" opacity="0.27"/><circle cx="892.1" cy="389.8" r="3.30" fill="#d4862a" opacity="0.15"/><circle cx="928.7" cy="391.9" r="2.51" fill="#d4862a" opacity="0.22"/><circle cx="968.0" cy="387.8" r="3.92" fill="#d4862a" opacity="0.24"/><circle cx="1003.2" cy="390.9" r="3.49" fill="#d4862a" opacity="0.26"/><circle cx="1039.4" cy="389.5" r="2.89" fill="#d4862a" opacity="0.28"/><circle cx="1071.9" cy="388.9" r="2.41" fill="#d4862a" opacity="0.18"/><circle cx="1110.4" cy="389.6" r="1.64" fill="#d4862a" opacity="0.20"/><circle cx="1148.3" cy="391.9" r="3.72" fill="#d4862a" opacity="0.27"/><circle cx="1182.0" cy="388.5" r="3.21" fill="#d4862a" opacity="0.33"/><circle cx="28.3" cy="426.6" r="3.13" fill="#d4862a" opacity="0.21"/><circle cx="68.5" cy="424.8" r="1.88" fill="#d4862a" opacity="0.35"/><circle cx="104.1" cy="423.3" r="2.44" fill="#d4862a" opacity="0.24"/><circle cx="138.5" cy="424.9" r="3.04" fill="#d4862a" opacity="0.29"/><circle cx="174.2" cy="426.7" r="3.73" fill="#d4862a" opacity="0.33"/><circle cx="212.3" cy="428.5" r="3.82" fill="#d4862a" opacity="0.17"/><circle cx="246.7" cy="425.7" r="1.99" fill="#d4862a" opacity="0.26"/><circle cx="281.3" cy="424.0" r="2.54" fill="#d4862a" opacity="0.29"/><circle cx="320.0" cy="427.0" r="3.15" fill="#d4862a" opacity="0.33"/><circle cx="354.8" cy="424.3" r="3.53" fill="#d4862a" opacity="0.30"/><circle cx="390.8" cy="423.6" r="3.96" fill="#d4862a" opacity="0.25"/><circle cx="427.4" cy="426.8" r="2.37" fill="#d4862a" opacity="0.22"/><circle cx="464.0" cy="427.8" r="3.93" fill="#d4862a" opacity="0.32"/><circle cx="499.4" cy="424.4" r="2.80" fill="#d4862a" opacity="0.18"/><circle cx="532.9" cy="424.6" r="2.09" fill="#d4862a" opacity="0.25"/><circle cx="572.2" cy="424.9" r="3.16" fill="#d4862a" opacity="0.17"/><circle cx="607.9" cy="426.2" r="1.66" fill="#d4862a" opacity="0.30"/><circle cx="641.4" cy="425.7" r="1.98" fill="#d4862a" opacity="0.23"/><circle cx="677.1" cy="428.3" r="2.01" fill="#d4862a" opacity="0.20"/><circle cx="715.3" cy="423.3" r="2.67" fill="#d4862a" opacity="0.18"/><circle cx="750.7" cy="426.5" r="2.35" fill="#d4862a" opacity="0.18"/><circle cx="786.9" cy="423.4" r="3.81" fill="#d4862a" opacity="0.23"/><circle cx="824.5" cy="428.5" r="2.16" fill="#d4862a" opacity="0.35"/><circle cx="860.3" cy="425.5" r="3.44" fill="#d4862a" opacity="0.29"/><circle cx="893.8" cy="428.7" r="3.19" fill="#d4862a" opacity="0.18"/><circle cx="931.7" cy="427.1" r="2.08" fill="#d4862a" opacity="0.34"/><circle cx="964.7" cy="427.3" r="3.48" fill="#d4862a" opacity="0.32"/><circle cx="1000.9" cy="427.8" r="3.51" fill="#d4862a" opacity="0.19"/><circle cx="1037.5" cy="427.3" r="2.51" fill="#d4862a" opacity="0.18"/><circle cx="1074.9" cy="427.3" r="3.91" fill="#d4862a" opacity="0.31"/><circle cx="1112.5" cy="428.2" r="2.33" fill="#d4862a" opacity="0.35"/><circle cx="1143.3" cy="423.8" r="2.75" fill="#d4862a" opacity="0.25"/><circle cx="1180.3" cy="426.1" r="3.03" fill="#d4862a" opacity="0.34"/><circle cx="29.7" cy="464.7" r="2.49" fill="#d4862a" opacity="0.18"/><circle cx="65.6" cy="464.8" r="2.30" fill="#d4862a" opacity="0.17"/><circle cx="105.0" cy="463.9" r="1.70" fill="#d4862a" opacity="0.21"/><circle cx="135.9" cy="462.1" r="2.21" fill="#d4862a" opacity="0.26"/><circle cx="176.7" cy="459.5" r="1.64" fill="#d4862a" opacity="0.33"/><circle cx="212.7" cy="459.7" r="3.29" fill="#d4862a" opacity="0.33"/><circle cx="246.4" cy="460.7" r="2.00" fill="#d4862a" opacity="0.36"/><circle cx="282.1" cy="463.0" r="3.70" fill="#d4862a" opacity="0.36"/><circle cx="317.4" cy="463.6" r="3.83" fill="#d4862a" opacity="0.20"/><circle cx="356.5" cy="461.5" r="1.82" fill="#d4862a" opacity="0.23"/><circle cx="392.6" cy="462.9" r="2.67" fill="#d4862a" opacity="0.17"/><circle cx="426.3" cy="460.5" r="3.55" fill="#d4862a" opacity="0.22"/><circle cx="460.9" cy="459.5" r="2.48" fill="#d4862a" opacity="0.31"/><circle cx="496.7" cy="461.6" r="1.62" fill="#d4862a" opacity="0.22"/><circle cx="532.3" cy="462.6" r="1.81" fill="#d4862a" opacity="0.24"/><circle cx="567.8" cy="461.2" r="2.49" fill="#d4862a" opacity="0.25"/><circle cx="607.8" cy="461.9" r="3.78" fill="#d4862a" opacity="0.15"/><circle cx="639.2" cy="462.4" r="1.61" fill="#d4862a" opacity="0.24"/><circle cx="678.2" cy="459.6" r="3.24" fill="#d4862a" opacity="0.25"/><circle cx="717.0" cy="459.9" r="3.66" fill="#d4862a" opacity="0.33"/><circle cx="751.5" cy="463.1" r="3.78" fill="#d4862a" opacity="0.24"/><circle cx="786.4" cy="464.7" r="1.62" fill="#d4862a" opacity="0.21"/><circle cx="819.6" cy="460.4" r="2.68" fill="#d4862a" opacity="0.21"/><circle cx="855.3" cy="463.1" r="2.95" fill="#d4862a" opacity="0.21"/><circle cx="894.2" cy="461.7" r="2.41" fill="#d4862a" opacity="0.16"/><circle cx="929.1" cy="463.5" r="3.91" fill="#d4862a" opacity="0.18"/><circle cx="965.6" cy="463.1" r="2.55" fill="#d4862a" opacity="0.25"/><circle cx="1003.8" cy="459.5" r="3.33" fill="#d4862a" opacity="0.17"/><circle cx="1039.8" cy="459.4" r="2.93" fill="#d4862a" opacity="0.30"/><circle cx="1072.1" cy="462.7" r="2.15" fill="#d4862a" opacity="0.21"/><circle cx="1112.7" cy="459.7" r="3.57" fill="#d4862a" opacity="0.17"/><circle cx="1148.7" cy="459.8" r="2.75" fill="#d4862a" opacity="0.19"/><circle cx="1179.1" cy="464.3" r="1.64" fill="#d4862a" opacity="0.27"/><circle cx="32.2" cy="498.1" r="2.15" fill="#d4862a" opacity="0.16"/><circle cx="69.0" cy="500.9" r="2.61" fill="#d4862a" opacity="0.27"/><circle cx="102.1" cy="495.7" r="3.66" fill="#d4862a" opacity="0.17"/><circle cx="137.2" cy="496.2" r="2.01" fill="#d4862a" opacity="0.30"/><circle cx="172.1" cy="499.5" r="2.33" fill="#d4862a" opacity="0.23"/><circle cx="210.6" cy="498.8" r="3.15" fill="#d4862a" opacity="0.33"/><circle cx="243.6" cy="496.2" r="1.70" fill="#d4862a" opacity="0.23"/><circle cx="281.5" cy="496.5" r="2.00" fill="#d4862a" opacity="0.17"/><circle cx="318.7" cy="499.2" r="2.53" fill="#d4862a" opacity="0.20"/><circle cx="354.4" cy="497.7" r="3.49" fill="#d4862a" opacity="0.31"/><circle cx="387.5" cy="499.1" r="3.58" fill="#d4862a" opacity="0.25"/><circle cx="428.5" cy="499.8" r="2.86" fill="#d4862a" opacity="0.35"/><circle cx="464.9" cy="498.2" r="2.07" fill="#d4862a" opacity="0.17"/><circle cx="499.8" cy="500.9" r="2.29" fill="#d4862a" opacity="0.31"/><circle cx="531.1" cy="495.7" r="2.85" fill="#d4862a" opacity="0.33"/><circle cx="572.5" cy="501.0" r="1.73" fill="#d4862a" opacity="0.32"/><circle cx="608.6" cy="500.2" r="3.51" fill="#d4862a" opacity="0.36"/><circle cx="643.2" cy="499.8" r="2.34" fill="#d4862a" opacity="0.24"/><circle cx="679.2" cy="500.5" r="3.20" fill="#d4862a" opacity="0.20"/><circle cx="716.7" cy="495.7" r="3.89" fill="#d4862a" opacity="0.23"/><circle cx="748.6" cy="497.0" r="2.06" fill="#d4862a" opacity="0.23"/><circle cx="787.9" cy="496.6" r="3.86" fill="#d4862a" opacity="0.28"/><circle cx="824.8" cy="498.1" r="3.47" fill="#d4862a" opacity="0.29"/><circle cx="858.2" cy="500.0" r="1.86" fill="#d4862a" opacity="0.20"/><circle cx="893.6" cy="499.4" r="3.18" fill="#d4862a" opacity="0.32"/><circle cx="929.8" cy="495.8" r="2.93" fill="#d4862a" opacity="0.27"/><circle cx="965.8" cy="499.8" r="3.49" fill="#d4862a" opacity="0.35"/><circle cx="1000.9" cy="497.2" r="3.34" fill="#d4862a" opacity="0.33"/><circle cx="1039.7" cy="498.2" r="3.64" fill="#d4862a" opacity="0.26"/><circle cx="1073.3" cy="496.0" r="1.63" fill="#d4862a" opacity="0.21"/><circle cx="1109.1" cy="496.6" r="3.14" fill="#d4862a" opacity="0.29"/><circle cx="1143.7" cy="499.1" r="3.22" fill="#d4862a" opacity="0.34"/><circle cx="1182.4" cy="496.3" r="2.74" fill="#d4862a" opacity="0.16"/><circle cx="29.7" cy="537.0" r="3.79" fill="#d4862a" opacity="0.19"/><circle cx="63.6" cy="536.3" r="2.02" fill="#d4862a" opacity="0.26"/><circle cx="100.4" cy="533.0" r="2.02" fill="#d4862a" opacity="0.36"/><circle cx="139.7" cy="532.6" r="3.55" fill="#d4862a" opacity="0.16"/><circle cx="176.7" cy="536.0" r="3.98" fill="#d4862a" opacity="0.22"/><circle cx="212.3" cy="532.6" r="1.97" fill="#d4862a" opacity="0.27"/><circle cx="246.2" cy="532.7" r="1.73" fill="#d4862a" opacity="0.22"/><circle cx="284.2" cy="533.2" r="1.84" fill="#d4862a" opacity="0.27"/><circle cx="315.6" cy="534.4" r="3.68" fill="#d4862a" opacity="0.27"/><circle cx="355.1" cy="534.1" r="1.88" fill="#d4862a" opacity="0.16"/><circle cx="391.6" cy="534.1" r="2.85" fill="#d4862a" opacity="0.18"/><circle cx="425.7" cy="536.9" r="2.81" fill="#d4862a" opacity="0.31"/><circle cx="463.9" cy="534.6" r="1.65" fill="#d4862a" opacity="0.30"/><circle cx="496.7" cy="535.4" r="1.99" fill="#d4862a" opacity="0.29"/><circle cx="533.0" cy="533.9" r="3.91" fill="#d4862a" opacity="0.29"/><circle cx="570.8" cy="534.1" r="2.76" fill="#d4862a" opacity="0.22"/><circle cx="607.1" cy="536.8" r="3.93" fill="#d4862a" opacity="0.25"/><circle cx="641.2" cy="536.4" r="3.18" fill="#d4862a" opacity="0.31"/><circle cx="680.6" cy="532.9" r="3.35" fill="#d4862a" opacity="0.34"/><circle cx="714.3" cy="535.8" r="1.63" fill="#d4862a" opacity="0.30"/><circle cx="750.5" cy="531.5" r="3.39" fill="#d4862a" opacity="0.17"/><circle cx="788.1" cy="536.5" r="1.69" fill="#d4862a" opacity="0.30"/><circle cx="824.7" cy="532.7" r="3.54" fill="#d4862a" opacity="0.30"/><circle cx="855.2" cy="532.0" r="2.19" fill="#d4862a" opacity="0.19"/><circle cx="896.2" cy="532.9" r="1.61" fill="#d4862a" opacity="0.32"/><circle cx="933.0" cy="535.9" r="2.91" fill="#d4862a" opacity="0.16"/><circle cx="967.7" cy="536.7" r="2.07" fill="#d4862a" opacity="0.16"/><circle cx="1003.1" cy="532.2" r="2.51" fill="#d4862a" opacity="0.27"/><circle cx="1038.1" cy="536.0" r="3.04" fill="#d4862a" opacity="0.34"/><circle cx="1073.1" cy="535.6" r="2.60" fill="#d4862a" opacity="0.20"/><circle cx="1110.9" cy="536.3" r="2.02" fill="#d4862a" opacity="0.29"/><circle cx="1145.0" cy="534.0" r="2.55" fill="#d4862a" opacity="0.25"/><circle cx="1181.2" cy="532.2" r="1.97" fill="#d4862a" opacity="0.16"/><circle cx="27.6" cy="572.5" r="3.46" fill="#d4862a" opacity="0.19"/><circle cx="64.2" cy="572.1" r="2.27" fill="#d4862a" opacity="0.28"/><circle cx="100.0" cy="569.7" r="2.11" fill="#d4862a" opacity="0.28"/><circle cx="138.2" cy="572.2" r="2.66" fill="#d4862a" opacity="0.26"/><circle cx="172.6" cy="568.2" r="2.64" fill="#d4862a" opacity="0.28"/><circle cx="211.7" cy="570.1" r="3.33" fill="#d4862a" opacity="0.19"/><circle cx="248.0" cy="572.9" r="3.64" fill="#d4862a" opacity="0.31"/><circle cx="282.8" cy="568.5" r="3.71" fill="#d4862a" opacity="0.28"/><circle cx="315.0" cy="573.0" r="3.64" fill="#d4862a" opacity="0.29"/><circle cx="355.6" cy="569.3" r="3.57" fill="#d4862a" opacity="0.19"/><circle cx="389.0" cy="571.1" r="2.70" fill="#d4862a" opacity="0.25"/><circle cx="428.3" cy="568.2" r="3.57" fill="#d4862a" opacity="0.30"/><circle cx="463.7" cy="571.9" r="3.22" fill="#d4862a" opacity="0.22"/><circle cx="498.9" cy="568.1" r="2.68" fill="#d4862a" opacity="0.25"/><circle cx="531.5" cy="571.9" r="2.93" fill="#d4862a" opacity="0.22"/><circle cx="570.9" cy="569.8" r="2.10" fill="#d4862a" opacity="0.28"/><circle cx="606.7" cy="568.6" r="1.89" fill="#d4862a" opacity="0.36"/><circle cx="642.5" cy="571.4" r="2.57" fill="#d4862a" opacity="0.16"/><circle cx="680.5" cy="571.4" r="1.75" fill="#d4862a" opacity="0.25"/><circle cx="715.6" cy="567.9" r="3.99" fill="#d4862a" opacity="0.31"/><circle cx="752.1" cy="570.4" r="1.79" fill="#d4862a" opacity="0.18"/><circle cx="785.3" cy="567.6" r="1.73" fill="#d4862a" opacity="0.35"/><circle cx="824.8" cy="571.2" r="3.67" fill="#d4862a" opacity="0.19"/><circle cx="855.6" cy="567.1" r="1.85" fill="#d4862a" opacity="0.26"/><circle cx="892.4" cy="572.7" r="3.44" fill="#d4862a" opacity="0.29"/><circle cx="932.4" cy="569.3" r="3.33" fill="#d4862a" opacity="0.24"/><circle cx="966.1" cy="572.4" r="2.91" fill="#d4862a" opacity="0.25"/><circle cx="1002.7" cy="571.6" r="2.58" fill="#d4862a" opacity="0.32"/><circle cx="1040.4" cy="571.5" r="2.82" fill="#d4862a" opacity="0.19"/><circle cx="1074.4" cy="572.6" r="2.21" fill="#d4862a" opacity="0.35"/><circle cx="1109.7" cy="572.6" r="2.87" fill="#d4862a" opacity="0.18"/><circle cx="1145.4" cy="567.5" r="2.14" fill="#d4862a" opacity="0.34"/><circle cx="1183.7" cy="570.1" r="2.42" fill="#d4862a" opacity="0.20"/><circle cx="28.0" cy="606.6" r="2.03" fill="#d4862a" opacity="0.35"/><circle cx="67.4" cy="607.4" r="2.76" fill="#d4862a" opacity="0.22"/><circle cx="102.6" cy="603.5" r="3.22" fill="#d4862a" opacity="0.26"/><circle cx="137.5" cy="606.6" r="3.76" fill="#d4862a" opacity="0.22"/><circle cx="176.1" cy="606.6" r="2.90" fill="#d4862a" opacity="0.31"/><circle cx="207.7" cy="607.7" r="3.45" fill="#d4862a" opacity="0.25"/><circle cx="248.7" cy="605.7" r="2.43" fill="#d4862a" opacity="0.22"/><circle cx="283.6" cy="606.2" r="2.03" fill="#d4862a" opacity="0.30"/><circle cx="315.8" cy="608.3" r="3.55" fill="#d4862a" opacity="0.20"/><circle cx="351.1" cy="605.6" r="1.62" fill="#d4862a" opacity="0.32"/><circle cx="391.7" cy="607.7" r="3.47" fill="#d4862a" opacity="0.35"/><circle cx="428.0" cy="608.5" r="2.65" fill="#d4862a" opacity="0.22"/><circle cx="463.8" cy="604.8" r="2.03" fill="#d4862a" opacity="0.34"/><circle cx="496.7" cy="609.0" r="3.72" fill="#d4862a" opacity="0.32"/><circle cx="531.6" cy="607.4" r="3.43" fill="#d4862a" opacity="0.21"/><circle cx="570.8" cy="604.2" r="3.34" fill="#d4862a" opacity="0.33"/><circle cx="606.4" cy="604.7" r="3.54" fill="#d4862a" opacity="0.33"/><circle cx="641.6" cy="606.8" r="3.04" fill="#d4862a" opacity="0.31"/><circle cx="676.9" cy="605.4" r="3.28" fill="#d4862a" opacity="0.25"/><circle cx="715.0" cy="606.1" r="3.79" fill="#d4862a" opacity="0.35"/><circle cx="747.4" cy="606.4" r="2.06" fill="#d4862a" opacity="0.30"/><circle cx="787.5" cy="605.1" r="2.54" fill="#d4862a" opacity="0.21"/><circle cx="821.0" cy="603.2" r="2.39" fill="#d4862a" opacity="0.16"/><circle cx="858.0" cy="604.1" r="3.44" fill="#d4862a" opacity="0.18"/><circle cx="891.9" cy="603.8" r="1.68" fill="#d4862a" opacity="0.28"/><circle cx="928.9" cy="606.4" r="1.91" fill="#d4862a" opacity="0.30"/><circle cx="966.4" cy="608.1" r="2.57" fill="#d4862a" opacity="0.21"/><circle cx="1004.2" cy="608.1" r="2.96" fill="#d4862a" opacity="0.22"/><circle cx="1036.3" cy="603.2" r="3.85" fill="#d4862a" opacity="0.25"/><circle cx="1072.4" cy="604.8" r="2.36" fill="#d4862a" opacity="0.17"/><circle cx="1111.7" cy="605.3" r="3.76" fill="#d4862a" opacity="0.18"/><circle cx="1146.4" cy="606.9" r="2.68" fill="#d4862a" opacity="0.30"/><circle cx="1181.1" cy="608.1" r="3.64" fill="#d4862a" opacity="0.25"/><circle cx="29.2" cy="643.4" r="1.78" fill="#d4862a" opacity="0.20"/><circle cx="67.2" cy="641.1" r="2.42" fill="#d4862a" opacity="0.32"/><circle cx="103.8" cy="640.6" r="3.99" fill="#d4862a" opacity="0.21"/><circle cx="138.9" cy="643.4" r="1.86" fill="#d4862a" opacity="0.28"/><circle cx="175.7" cy="641.7" r="3.36" fill="#d4862a" opacity="0.20"/><circle cx="207.2" cy="639.3" r="2.91" fill="#d4862a" opacity="0.19"/><circle cx="244.9" cy="641.3" r="1.82" fill="#d4862a" opacity="0.21"/><circle cx="284.5" cy="639.4" r="2.77" fill="#d4862a" opacity="0.29"/><circle cx="319.1" cy="641.3" r="3.23" fill="#d4862a" opacity="0.21"/><circle cx="356.9" cy="642.4" r="2.23" fill="#d4862a" opacity="0.28"/><circle cx="390.2" cy="643.2" r="2.54" fill="#d4862a" opacity="0.35"/><circle cx="426.1" cy="639.8" r="2.18" fill="#d4862a" opacity="0.28"/><circle cx="461.5" cy="643.7" r="2.01" fill="#d4862a" opacity="0.35"/><circle cx="497.8" cy="642.1" r="2.94" fill="#d4862a" opacity="0.24"/><circle cx="531.4" cy="641.2" r="3.26" fill="#d4862a" opacity="0.29"/><circle cx="571.7" cy="640.9" r="2.52" fill="#d4862a" opacity="0.31"/><circle cx="604.8" cy="644.9" r="2.04" fill="#d4862a" opacity="0.19"/><circle cx="642.0" cy="644.5" r="3.00" fill="#d4862a" opacity="0.26"/><circle cx="679.5" cy="643.8" r="3.07" fill="#d4862a" opacity="0.34"/><circle cx="713.4" cy="642.6" r="2.83" fill="#d4862a" opacity="0.24"/><circle cx="752.9" cy="639.3" r="1.89" fill="#d4862a" opacity="0.31"/><circle cx="784.2" cy="641.2" r="1.99" fill="#d4862a" opacity="0.32"/><circle cx="821.2" cy="643.0" r="3.17" fill="#d4862a" opacity="0.32"/><circle cx="858.6" cy="644.7" r="2.28" fill="#d4862a" opacity="0.16"/><circle cx="894.7" cy="641.1" r="3.79" fill="#d4862a" opacity="0.27"/><circle cx="930.7" cy="644.6" r="2.57" fill="#d4862a" opacity="0.33"/><circle cx="965.9" cy="644.2" r="3.04" fill="#d4862a" opacity="0.16"/><circle cx="999.6" cy="643.0" r="2.91" fill="#d4862a" opacity="0.29"/><circle cx="1036.9" cy="642.3" r="2.85" fill="#d4862a" opacity="0.16"/><circle cx="1072.9" cy="644.5" r="2.74" fill="#d4862a" opacity="0.20"/><circle cx="1109.8" cy="644.6" r="1.87" fill="#d4862a" opacity="0.25"/><circle cx="1147.1" cy="640.4" r="2.43" fill="#d4862a" opacity="0.19"/><circle cx="1182.4" cy="643.2" r="3.48" fill="#d4862a" opacity="0.29"/><circle cx="199.1" cy="214.2" r="220" fill="url(#glow)" opacity="0.9"/>
  <g opacity="0.85" transform="translate(1020, 495)">
        <circle r="60" fill="#d4862a" opacity="0.18"/>
        <path d="M -34 6 Q -10 -22 14 6 Q 34 24 14 26 L -22 26 Q -38 24 -34 6 Z" fill="none" stroke="#bd6b20" stroke-width="3" stroke-linejoin="round"/>
      </g>
  <g transform="translate(80, 90)">
    <rect x="0" y="0" rx="20" ry="20" width="134" height="38" fill="#d4862a" opacity="0.18" stroke="#d4862a" stroke-width="1.5"/>
    <text x="67" y="25" font-family="ui-sans-serif, Inter, sans-serif" font-weight="700" font-size="14" letter-spacing="2.5" fill="#d4862a" text-anchor="middle">CASE STUDY</text>
  </g>
  <text x="80" y="465" font-family="ui-sans-serif, -apple-system, Segoe UI, Inter, sans-serif" font-weight="800" font-size="44" fill="#faf8f5" opacity="0.98"><tspan x="80" dy="0">Resolution of Dispute</tspan><tspan x="80" dy="56">Between Sugar Mill Owner</tspan><tspan x="80" dy="56">and Product Distribution</tspan></text>
  <rect x="0" y="669" width="1200" height="6" fill="url(#gold)"/>
</svg>