<?xml version="1.0" encoding="UTF-8"?>
<svg xmlns="http://www.w3.org/2000/svg" viewBox="0 0 1200 675" width="1200" height="675" role="img" aria-label="SC Overrules NCDRC: No Consumer Rights Without Privity of Contract">
  <defs>
    <linearGradient id="bg" x1="0%" y1="0%" x2="100%" y2="100%">
      <stop offset="0%" stop-color="#12100e"/>
      <stop offset="100%" stop-color="#1c1917"/>
    </linearGradient>
    <linearGradient id="gold" x1="0%" y1="0%" x2="100%" y2="100%">
      <stop offset="0%" stop-color="#bd6b20"/>
      <stop offset="100%" stop-color="#e09440"/>
    </linearGradient>
    <radialGradient id="glow" cx="50%" cy="50%" r="50%">
      <stop offset="0%" stop-color="#bd6b20" stop-opacity="0.45"/>
      <stop offset="100%" stop-color="#bd6b20" stop-opacity="0"/>
    </radialGradient>
  </defs>
  <rect width="1200" height="675" fill="url(#bg)"/>
  <polygon points="-50,215.6 -20,223.3 10,232.1 40,241.8 70,252.2 100,263.0 130,274.0 160,284.9 190,295.6 220,305.7 250,315.1 280,323.5 310,330.7 340,336.6 370,341.1 400,344.0 430,345.3 460,344.9 490,342.9 520,339.3 550,334.2 580,327.7 610,319.9 640,311.1 670,301.3 700,290.9 730,280.1 760,269.1 790,258.2 820,247.5 850,237.5 880,228.1 910,219.8 940,212.6 970,206.8 1000,202.4 1030,199.6 1060,198.4 1090,198.9 1120,201.0 1150,204.7 1180,209.8 1210,216.4 1240,224.3 1250,725 -50,725" fill="#bd6b20" opacity="0.08"/><polygon points="-50,319.3 -20,312.3 10,305.9 40,300.1 70,295.2 100,291.2 130,288.3 160,286.4 190,285.7 220,286.0 250,287.6 280,290.2 310,293.9 340,298.5 370,304.0 400,310.3 430,317.1 460,324.3 490,331.9 520,339.5 550,347.1 580,354.4 610,361.4 640,367.8 670,373.5 700,378.3 730,382.3 760,385.2 790,387.0 820,387.7 850,387.2 880,385.6 910,382.9 940,379.2 970,374.5 1000,368.9 1030,362.7 1060,355.8 1090,348.6 1120,341.0 1150,333.4 1180,325.8 1210,318.5 1240,311.5 1250,725 -50,725" fill="#bd6b20" opacity="0.13"/><polygon points="-50,345.7 -20,336.7 10,329.3 40,323.6 70,319.7 100,317.7 130,317.7 160,319.6 190,323.5 220,329.2 250,336.6 280,345.5 310,355.8 340,367.1 370,379.4 400,392.2 430,405.3 460,418.4 490,431.1 520,443.3 550,454.7 580,464.9 610,473.8 640,481.1 670,486.8 700,490.5 730,492.4 760,492.3 790,490.3 820,486.3 850,480.5 880,473.0 910,464.0 940,453.7 970,442.2 1000,430.0 1030,417.1 1060,404.0 1090,391.0 1120,378.2 1150,366.0 1180,354.8 1210,344.6 1240,335.8 1250,725 -50,725" fill="#bd6b20" opacity="0.18"/><polygon points="-50,448.2 -20,445.4 10,443.7 40,443.2 70,443.8 100,445.5 130,448.4 160,452.2 190,457.0 220,462.6 250,469.0 280,475.9 310,483.2 340,490.7 370,498.3 400,505.9 430,513.1 460,520.0 490,526.2 520,531.8 550,536.5 580,540.2 610,542.9 640,544.5 670,545.0 700,544.3 730,542.5 760,539.6 790,535.7 820,530.9 850,525.2 880,518.8 910,511.9 940,504.6 970,497.0 1000,489.4 1030,481.9 1060,474.6 1090,467.8 1120,461.6 1150,456.1 1180,451.5 1210,447.8 1240,445.2 1250,725 -50,725" fill="#bd6b20" opacity="0.23"/><circle cx="300.0" cy="189.0" r="160" fill="url(#glow)"/>
  <g opacity="0.85" transform="translate(1020, 495)">
        <circle r="68" fill="none" stroke="#bd6b20" stroke-width="2" opacity="0.35"/>
        <path d="M -38 12 L 38 12 M -32 -8 L 32 -8 M -45 -28 L 45 -28" stroke="#e09440" stroke-width="3" stroke-linecap="round"/>
        <rect x="-50" y="-44" width="100" height="80" fill="none" stroke="#bd6b20" stroke-width="2"/>
      </g>
  <g transform="translate(80, 90)">
    <rect x="0" y="0" rx="20" ry="20" width="112" height="38" fill="#bd6b20" opacity="0.18" stroke="#bd6b20" stroke-width="1.5"/>
    <text x="56" y="25" font-family="ui-sans-serif, Inter, sans-serif" font-weight="700" font-size="14" letter-spacing="2.5" fill="#bd6b20" text-anchor="middle">NEWSROOM</text>
  </g>
  <text x="80" y="465" font-family="ui-sans-serif, -apple-system, Segoe UI, Inter, sans-serif" font-weight="800" font-size="44" fill="#faf8f5" opacity="0.98"><tspan x="80" dy="0">SC Overrules NCDRC: No</tspan><tspan x="80" dy="56">Consumer Rights Without</tspan><tspan x="80" dy="56">Privity of Contract</tspan></text>
  <rect x="0" y="669" width="1200" height="6" fill="url(#gold)"/>
</svg>