<?xml version="1.0" encoding="UTF-8"?>
<svg xmlns="http://www.w3.org/2000/svg" viewBox="0 0 1200 675" width="1200" height="675" role="img" aria-label="Decoding the Supreme Court's Rs 8,000 Crore Arbitral Award Verdict">
  <defs>
    <linearGradient id="bg" x1="0%" y1="0%" x2="100%" y2="100%">
      <stop offset="0%" stop-color="#643516"/>
      <stop offset="100%" stop-color="#7d4315"/>
    </linearGradient>
    <linearGradient id="gold" x1="0%" y1="0%" x2="100%" y2="100%">
      <stop offset="0%" stop-color="#ecb478"/>
      <stop offset="100%" stop-color="#faebd6"/>
    </linearGradient>
    <radialGradient id="glow" cx="50%" cy="50%" r="50%">
      <stop offset="0%" stop-color="#ecb478" stop-opacity="0.45"/>
      <stop offset="100%" stop-color="#ecb478" stop-opacity="0"/>
    </radialGradient>
  </defs>
  <rect width="1200" height="675" fill="url(#bg)"/>
  <polygon points="627.4,329.8 668.5,412.8 602.3,477.5 520.3,434.6 535.8,343.3" fill="#faebd6" opacity="0.19"/><polygon points="353.6,650.0 285.0,563.6 345.9,471.6 452.2,501.2 456.9,611.3" fill="#faebd6" opacity="0.15"/><polygon points="189.0,526.2 253.3,726.1 53.4,790.4 -10.9,590.6" fill="#faebd6" opacity="0.13"/><polygon points="632.6,548.3 677.9,591.5 634.7,636.8 589.4,593.6" fill="#faebd6" opacity="0.10"/><polygon points="1139.8,44.7 1174.3,177.6 1058.5,251.4 952.5,164.1 1002.8,36.3" fill="#faebd6" opacity="0.18"/><polygon points="469.2,361.4 582.5,407.2 573.9,529.0 455.4,558.5 390.7,454.9" fill="#faebd6" opacity="0.16"/><polygon points="246.0,301.1 394.8,357.1 271.9,457.9" fill="#faebd6" opacity="0.05"/><polygon points="834.2,417.0 610.5,534.1 620.9,281.8" fill="#faebd6" opacity="0.08"/><polygon points="884.9,146.5 803.9,206.5 792.4,106.4" fill="#faebd6" opacity="0.18"/><polygon points="194.4,42.3 357.7,42.1 276.3,183.5" fill="#faebd6" opacity="0.17"/><polygon points="-3.1,443.6 63.2,374.6 149.4,416.3 136.3,511.2 42.1,528.0" fill="#faebd6" opacity="0.08"/><polygon points="806.1,571.8 671.2,316.4 959.8,327.3" fill="#faebd6" opacity="0.06"/><polygon points="800.8,283.0 879.8,400.2 762.7,479.1 683.7,362.0" fill="#faebd6" opacity="0.10"/><polygon points="696.8,687.2 672.8,498.6 861.3,474.6 885.4,663.1" fill="#faebd6" opacity="0.05"/><circle cx="936.0" cy="202.5" r="180" fill="url(#glow)"/>
  <g opacity="0.85" transform="translate(1020, 495)">
        <circle r="68" fill="none" stroke="#ecb478" stroke-width="2" opacity="0.35"/>
        <path d="M -38 12 L 38 12 M -32 -8 L 32 -8 M -45 -28 L 45 -28" stroke="#faebd6" stroke-width="3" stroke-linecap="round"/>
        <rect x="-50" y="-44" width="100" height="80" fill="none" stroke="#ecb478" stroke-width="2"/>
      </g>
  <g transform="translate(80, 90)">
    <rect x="0" y="0" rx="20" ry="20" width="112" height="38" fill="#ecb478" opacity="0.18" stroke="#ecb478" stroke-width="1.5"/>
    <text x="56" y="25" font-family="ui-sans-serif, Inter, sans-serif" font-weight="700" font-size="14" letter-spacing="2.5" fill="#ecb478" text-anchor="middle">NEWSROOM</text>
  </g>
  <text x="80" y="465" font-family="ui-sans-serif, -apple-system, Segoe UI, Inter, sans-serif" font-weight="800" font-size="44" fill="#faf8f5" opacity="0.98"><tspan x="80" dy="0">Decoding the Supreme</tspan><tspan x="80" dy="56">Court's Rs 8,000 Crore</tspan><tspan x="80" dy="56">Arbitral Award Verdict</tspan></text>
  <rect x="0" y="669" width="1200" height="6" fill="url(#gold)"/>
</svg>