<?xml version="1.0" encoding="UTF-8"?>
<svg xmlns="http://www.w3.org/2000/svg" viewBox="0 0 1200 675" width="1200" height="675" role="img" aria-label="Discover the implications of the recent Supreme Court ruling on Section 34 of the Arbitration Act and stay up-to-date">
  <defs>
    <linearGradient id="bg" x1="0%" y1="0%" x2="100%" y2="100%">
      <stop offset="0%" stop-color="#0c0a09"/>
      <stop offset="100%" stop-color="#291813"/>
    </linearGradient>
    <linearGradient id="gold" x1="0%" y1="0%" x2="100%" y2="100%">
      <stop offset="0%" stop-color="#d4862a"/>
      <stop offset="100%" stop-color="#bd6b20"/>
    </linearGradient>
    <radialGradient id="glow" cx="50%" cy="50%" r="50%">
      <stop offset="0%" stop-color="#d4862a" stop-opacity="0.45"/>
      <stop offset="100%" stop-color="#d4862a" stop-opacity="0"/>
    </radialGradient>
  </defs>
  <rect width="1200" height="675" fill="url(#bg)"/>
  <polygon points="-50,240.6 -20,239.6 10,239.5 40,240.2 70,241.8 100,244.2 130,247.4 160,251.3 190,255.8 220,260.8 250,266.2 280,271.9 310,277.7 340,283.6 370,289.3 400,294.8 430,299.9 460,304.6 490,308.7 520,312.0 550,314.7 580,316.5 610,317.5 640,317.6 670,316.8 700,315.2 730,312.7 760,309.5 790,305.6 820,301.0 850,296.0 880,290.6 910,284.9 940,279.0 970,273.2 1000,267.4 1030,262.0 1060,256.9 1090,252.2 1120,248.2 1150,244.8 1180,242.3 1210,240.5 1240,239.5 1250,725 -50,725" fill="#d4862a" opacity="0.08"/><polygon points="-50,434.4 -20,429.2 10,422.2 40,413.6 70,403.7 100,392.5 130,380.5 160,367.8 190,354.7 220,341.5 250,328.6 280,316.2 310,304.5 340,293.9 370,284.7 400,276.9 430,270.8 460,266.5 490,264.1 520,263.6 550,265.2 580,268.6 610,274.0 640,281.0 670,289.7 700,299.7 730,310.9 760,323.1 790,335.8 820,348.9 850,362.1 880,375.0 910,387.4 940,398.9 970,409.4 1000,418.7 1030,426.3 1060,432.4 1090,436.6 1120,438.8 1150,439.2 1180,437.5 1210,433.9 1240,428.5 1250,725 -50,725" fill="#d4862a" opacity="0.13"/><polygon points="-50,332.6 -20,326.9 10,322.8 40,320.6 70,320.2 100,321.7 130,325.0 160,330.1 190,336.9 220,345.1 250,354.7 280,365.3 310,376.8 340,388.9 370,401.4 400,413.8 430,426.1 460,437.8 490,448.8 520,458.7 550,467.4 580,474.7 610,480.4 640,484.3 670,486.5 700,486.7 730,485.1 760,481.7 790,476.5 820,469.7 850,461.4 880,451.7 910,441.0 940,429.5 970,417.4 1000,404.9 1030,392.5 1060,380.2 1090,368.5 1120,357.6 1150,347.7 1180,339.1 1210,331.9 1240,326.3 1250,725 -50,725" fill="#d4862a" opacity="0.18"/><polygon points="-50,521.2 -20,523.8 10,525.2 40,525.6 70,524.9 100,523.0 130,520.1 160,516.2 190,511.4 220,505.8 250,499.5 280,492.6 310,485.4 340,478.0 370,470.5 400,463.2 430,456.1 460,449.4 490,443.4 520,438.0 550,433.6 580,430.0 610,427.5 640,426.1 670,425.8 700,426.6 730,428.5 760,431.4 790,435.4 820,440.3 850,445.9 880,452.3 910,459.1 940,466.4 970,473.8 1000,481.3 1030,488.6 1060,495.7 1090,502.3 1120,508.3 1150,513.6 1180,518.0 1210,521.5 1240,524.0 1250,725 -50,725" fill="#d4862a" opacity="0.23"/><circle cx="300.0" cy="189.0" r="160" fill="url(#glow)"/>
  <g opacity="0.85" transform="translate(1020, 495)">
        <circle r="68" fill="none" stroke="#d4862a" stroke-width="2" opacity="0.35"/>
        <path d="M -38 12 L 38 12 M -32 -8 L 32 -8 M -45 -28 L 45 -28" stroke="#bd6b20" stroke-width="3" stroke-linecap="round"/>
        <rect x="-50" y="-44" width="100" height="80" fill="none" stroke="#d4862a" stroke-width="2"/>
      </g>
  <g transform="translate(80, 90)">
    <rect x="0" y="0" rx="20" ry="20" width="112" height="38" fill="#d4862a" opacity="0.18" stroke="#d4862a" stroke-width="1.5"/>
    <text x="56" y="25" font-family="ui-sans-serif, Inter, sans-serif" font-weight="700" font-size="14" letter-spacing="2.5" fill="#d4862a" text-anchor="middle">NEWSROOM</text>
  </g>
  <text x="80" y="465" font-family="ui-sans-serif, -apple-system, Segoe UI, Inter, sans-serif" font-weight="800" font-size="44" fill="#faf8f5" opacity="0.98"><tspan x="80" dy="0">Discover the implications</tspan><tspan x="80" dy="56">of the recent Supreme</tspan><tspan x="80" dy="56">Court ruling on Section 34</tspan></text>
  <rect x="0" y="669" width="1200" height="6" fill="url(#gold)"/>
</svg>