<?xml version="1.0" encoding="UTF-8"?>
<svg xmlns="http://www.w3.org/2000/svg" viewBox="0 0 1200 675" width="1200" height="675" role="img" aria-label="Supreme Court - Balancing CPC Principles and Section 9 Power in Interim Relief">
  <defs>
    <linearGradient id="bg" x1="0%" y1="0%" x2="100%" y2="100%">
      <stop offset="0%" stop-color="#12100e"/>
      <stop offset="100%" stop-color="#1c1917"/>
    </linearGradient>
    <linearGradient id="gold" x1="0%" y1="0%" x2="100%" y2="100%">
      <stop offset="0%" stop-color="#bd6b20"/>
      <stop offset="100%" stop-color="#e09440"/>
    </linearGradient>
    <radialGradient id="glow" cx="50%" cy="50%" r="50%">
      <stop offset="0%" stop-color="#bd6b20" stop-opacity="0.45"/>
      <stop offset="100%" stop-color="#bd6b20" stop-opacity="0"/>
    </radialGradient>
  </defs>
  <rect width="1200" height="675" fill="url(#bg)"/>
  <circle cx="31.2" cy="31.5" r="3.01" fill="#bd6b20" opacity="0.17"/><circle cx="65.0" cy="29.4" r="3.30" fill="#bd6b20" opacity="0.24"/><circle cx="102.7" cy="31.2" r="3.40" fill="#bd6b20" opacity="0.33"/><circle cx="137.8" cy="28.9" r="1.91" fill="#bd6b20" opacity="0.31"/><circle cx="171.3" cy="30.7" r="2.17" fill="#bd6b20" opacity="0.29"/><circle cx="207.1" cy="30.4" r="2.19" fill="#bd6b20" opacity="0.25"/><circle cx="248.1" cy="30.1" r="2.09" fill="#bd6b20" opacity="0.34"/><circle cx="282.7" cy="29.4" r="2.49" fill="#bd6b20" opacity="0.20"/><circle cx="316.2" cy="28.0" r="3.47" fill="#bd6b20" opacity="0.35"/><circle cx="351.5" cy="31.4" r="2.09" fill="#bd6b20" opacity="0.35"/><circle cx="389.1" cy="27.6" r="1.87" fill="#bd6b20" opacity="0.33"/><circle cx="424.6" cy="32.1" r="3.68" fill="#bd6b20" opacity="0.31"/><circle cx="464.8" cy="28.7" r="2.28" fill="#bd6b20" opacity="0.27"/><circle cx="500.3" cy="27.4" r="3.19" fill="#bd6b20" opacity="0.25"/><circle cx="536.2" cy="29.3" r="1.69" fill="#bd6b20" opacity="0.27"/><circle cx="569.5" cy="31.4" r="3.04" fill="#bd6b20" opacity="0.15"/><circle cx="606.6" cy="28.4" r="2.53" fill="#bd6b20" opacity="0.33"/><circle cx="642.4" cy="31.3" r="2.87" fill="#bd6b20" opacity="0.20"/><circle cx="677.7" cy="32.6" r="3.53" fill="#bd6b20" opacity="0.24"/><circle cx="716.7" cy="28.8" r="2.15" fill="#bd6b20" opacity="0.25"/><circle cx="751.6" cy="32.7" r="2.54" fill="#bd6b20" opacity="0.32"/><circle cx="785.3" cy="27.6" r="2.77" fill="#bd6b20" opacity="0.31"/><circle cx="820.8" cy="27.2" r="2.69" fill="#bd6b20" opacity="0.19"/><circle cx="858.0" cy="27.4" r="2.71" fill="#bd6b20" opacity="0.16"/><circle cx="891.2" cy="30.2" r="2.88" fill="#bd6b20" opacity="0.21"/><circle cx="932.6" cy="27.9" r="3.15" fill="#bd6b20" opacity="0.22"/><circle cx="967.7" cy="29.2" r="2.52" fill="#bd6b20" opacity="0.32"/><circle cx="1002.9" cy="28.4" r="3.85" fill="#bd6b20" opacity="0.15"/><circle cx="1039.2" cy="32.1" r="2.43" fill="#bd6b20" opacity="0.35"/><circle cx="1074.9" cy="29.8" r="2.82" fill="#bd6b20" opacity="0.22"/><circle cx="1111.9" cy="30.3" r="1.82" fill="#bd6b20" opacity="0.29"/><circle cx="1145.9" cy="30.4" r="2.06" fill="#bd6b20" opacity="0.32"/><circle cx="1179.3" cy="30.7" r="3.46" fill="#bd6b20" opacity="0.16"/><circle cx="30.8" cy="67.1" r="3.53" fill="#bd6b20" opacity="0.21"/><circle cx="65.5" cy="68.8" r="2.86" fill="#bd6b20" opacity="0.23"/><circle cx="103.3" cy="66.2" r="3.54" fill="#bd6b20" opacity="0.18"/><circle cx="136.4" cy="66.0" r="3.31" fill="#bd6b20" opacity="0.19"/><circle cx="174.9" cy="66.4" r="3.97" fill="#bd6b20" opacity="0.31"/><circle cx="207.7" cy="68.1" r="3.50" fill="#bd6b20" opacity="0.17"/><circle cx="245.8" cy="67.2" r="3.49" fill="#bd6b20" opacity="0.29"/><circle cx="283.5" cy="67.9" r="2.21" fill="#bd6b20" opacity="0.30"/><circle cx="316.8" cy="66.8" r="2.23" fill="#bd6b20" opacity="0.21"/><circle cx="354.6" cy="63.9" r="2.75" fill="#bd6b20" opacity="0.15"/><circle cx="391.1" cy="66.1" r="2.09" fill="#bd6b20" opacity="0.23"/><circle cx="423.9" cy="68.5" r="1.75" fill="#bd6b20" opacity="0.25"/><circle cx="462.1" cy="68.0" r="1.73" fill="#bd6b20" opacity="0.27"/><circle cx="496.9" cy="67.9" r="2.73" fill="#bd6b20" opacity="0.19"/><circle cx="535.2" cy="65.3" r="3.79" fill="#bd6b20" opacity="0.29"/><circle cx="572.5" cy="65.7" r="2.31" fill="#bd6b20" opacity="0.33"/><circle cx="606.2" cy="68.6" r="3.93" fill="#bd6b20" opacity="0.31"/><circle cx="643.7" cy="67.2" r="2.99" fill="#bd6b20" opacity="0.25"/><circle cx="677.7" cy="68.4" r="3.21" fill="#bd6b20" opacity="0.31"/><circle cx="711.8" cy="66.7" r="1.79" fill="#bd6b20" opacity="0.21"/><circle cx="748.2" cy="67.5" r="3.34" fill="#bd6b20" opacity="0.25"/><circle cx="788.5" cy="67.8" r="2.26" fill="#bd6b20" opacity="0.15"/><circle cx="823.7" cy="68.8" r="3.53" fill="#bd6b20" opacity="0.28"/><circle cx="855.3" cy="67.0" r="3.32" fill="#bd6b20" opacity="0.21"/><circle cx="896.5" cy="66.1" r="3.92" fill="#bd6b20" opacity="0.21"/><circle cx="931.8" cy="66.7" r="2.31" fill="#bd6b20" opacity="0.32"/><circle cx="966.2" cy="63.3" r="1.94" fill="#bd6b20" opacity="0.21"/><circle cx="1004.6" cy="66.1" r="3.24" fill="#bd6b20" opacity="0.34"/><circle cx="1036.3" cy="67.7" r="3.12" fill="#bd6b20" opacity="0.17"/><circle cx="1076.4" cy="64.5" r="1.93" fill="#bd6b20" opacity="0.26"/><circle cx="1109.7" cy="68.8" r="1.68" fill="#bd6b20" opacity="0.23"/><circle cx="1146.7" cy="66.0" r="1.79" fill="#bd6b20" opacity="0.32"/><circle cx="1184.8" cy="63.4" r="2.17" fill="#bd6b20" opacity="0.35"/><circle cx="27.6" cy="104.5" r="1.89" fill="#bd6b20" opacity="0.29"/><circle cx="64.5" cy="104.5" r="2.19" fill="#bd6b20" opacity="0.24"/><circle cx="104.0" cy="103.3" r="3.18" fill="#bd6b20" opacity="0.33"/><circle cx="137.2" cy="102.4" r="1.87" fill="#bd6b20" opacity="0.32"/><circle cx="175.7" cy="99.9" r="2.16" fill="#bd6b20" opacity="0.19"/><circle cx="207.8" cy="101.8" r="2.98" fill="#bd6b20" opacity="0.29"/><circle cx="245.8" cy="103.8" r="3.12" fill="#bd6b20" opacity="0.19"/><circle cx="283.2" cy="100.5" r="1.68" fill="#bd6b20" opacity="0.30"/><circle cx="318.0" cy="101.2" r="2.55" fill="#bd6b20" opacity="0.28"/><circle cx="356.6" cy="102.4" r="2.82" fill="#bd6b20" opacity="0.15"/><circle cx="388.7" cy="103.6" r="2.81" fill="#bd6b20" opacity="0.20"/><circle cx="426.9" cy="100.0" r="1.75" fill="#bd6b20" opacity="0.20"/><circle cx="463.4" cy="99.9" r="3.41" fill="#bd6b20" opacity="0.18"/><circle cx="496.0" cy="101.5" r="2.77" fill="#bd6b20" opacity="0.28"/><circle cx="534.7" cy="102.6" r="3.69" fill="#bd6b20" opacity="0.28"/><circle cx="571.1" cy="101.0" r="2.95" fill="#bd6b20" opacity="0.23"/><circle cx="605.0" cy="103.3" r="1.87" fill="#bd6b20" opacity="0.20"/><circle cx="642.1" cy="101.4" r="3.72" fill="#bd6b20" opacity="0.36"/><circle cx="678.3" cy="103.1" r="2.16" fill="#bd6b20" opacity="0.31"/><circle cx="711.7" cy="102.9" r="1.67" fill="#bd6b20" opacity="0.17"/><circle cx="747.5" cy="104.0" r="2.16" fill="#bd6b20" opacity="0.30"/><circle cx="784.5" cy="100.2" r="2.45" fill="#bd6b20" opacity="0.32"/><circle cx="822.7" cy="99.7" r="3.46" fill="#bd6b20" opacity="0.22"/><circle cx="856.9" cy="104.9" r="3.83" fill="#bd6b20" opacity="0.19"/><circle cx="894.5" cy="103.1" r="1.79" fill="#bd6b20" opacity="0.29"/><circle cx="929.9" cy="102.9" r="1.96" fill="#bd6b20" opacity="0.33"/><circle cx="969.0" cy="100.2" r="2.86" fill="#bd6b20" opacity="0.24"/><circle cx="999.2" cy="100.1" r="2.98" fill="#bd6b20" opacity="0.29"/><circle cx="1039.0" cy="104.0" r="3.94" fill="#bd6b20" opacity="0.35"/><circle cx="1075.1" cy="100.9" r="3.46" fill="#bd6b20" opacity="0.31"/><circle cx="1110.5" cy="99.9" r="3.02" fill="#bd6b20" opacity="0.30"/><circle cx="1147.8" cy="103.5" r="2.12" fill="#bd6b20" opacity="0.22"/><circle cx="1179.7" cy="101.0" r="3.51" fill="#bd6b20" opacity="0.32"/><circle cx="31.3" cy="135.5" r="1.85" fill="#bd6b20" opacity="0.27"/><circle cx="67.8" cy="140.1" r="2.93" fill="#bd6b20" opacity="0.25"/><circle cx="100.1" cy="137.7" r="2.38" fill="#bd6b20" opacity="0.30"/><circle cx="136.6" cy="135.5" r="2.35" fill="#bd6b20" opacity="0.24"/><circle cx="171.5" cy="137.9" r="2.50" fill="#bd6b20" opacity="0.29"/><circle cx="207.6" cy="139.6" r="1.93" fill="#bd6b20" opacity="0.25"/><circle cx="243.9" cy="139.3" r="2.98" fill="#bd6b20" opacity="0.33"/><circle cx="284.2" cy="137.7" r="2.19" fill="#bd6b20" opacity="0.30"/><circle cx="320.5" cy="135.8" r="1.93" fill="#bd6b20" opacity="0.32"/><circle cx="356.6" cy="138.0" r="2.85" fill="#bd6b20" opacity="0.19"/><circle cx="392.9" cy="137.3" r="3.06" fill="#bd6b20" opacity="0.33"/><circle cx="427.9" cy="139.9" r="3.10" fill="#bd6b20" opacity="0.20"/><circle cx="463.2" cy="139.9" r="3.50" fill="#bd6b20" opacity="0.33"/><circle cx="499.6" cy="138.2" r="2.74" fill="#bd6b20" opacity="0.25"/><circle cx="532.4" cy="138.9" r="3.77" fill="#bd6b20" opacity="0.24"/><circle cx="567.6" cy="140.5" r="1.95" fill="#bd6b20" opacity="0.21"/><circle cx="606.8" cy="140.0" r="3.68" fill="#bd6b20" opacity="0.27"/><circle cx="640.7" cy="139.7" r="3.36" fill="#bd6b20" opacity="0.24"/><circle cx="679.9" cy="140.4" r="3.52" fill="#bd6b20" opacity="0.31"/><circle cx="716.7" cy="136.8" r="1.76" fill="#bd6b20" opacity="0.17"/><circle cx="747.8" cy="135.1" r="3.64" fill="#bd6b20" opacity="0.29"/><circle cx="784.7" cy="136.5" r="3.31" fill="#bd6b20" opacity="0.19"/><circle cx="822.4" cy="137.3" r="3.87" fill="#bd6b20" opacity="0.33"/><circle cx="855.4" cy="137.0" r="1.65" fill="#bd6b20" opacity="0.27"/><circle cx="896.2" cy="138.5" r="3.84" fill="#bd6b20" opacity="0.28"/><circle cx="929.0" cy="136.9" r="1.96" fill="#bd6b20" opacity="0.18"/><circle cx="967.6" cy="135.8" r="3.41" fill="#bd6b20" opacity="0.21"/><circle cx="1002.4" cy="136.0" r="2.95" fill="#bd6b20" opacity="0.26"/><circle cx="1037.3" cy="139.6" r="2.72" fill="#bd6b20" opacity="0.24"/><circle cx="1074.7" cy="139.1" r="2.66" fill="#bd6b20" opacity="0.35"/><circle cx="1107.5" cy="140.9" r="1.91" fill="#bd6b20" opacity="0.21"/><circle cx="1147.5" cy="140.0" r="3.92" fill="#bd6b20" opacity="0.26"/><circle cx="1180.0" cy="138.5" r="2.61" fill="#bd6b20" opacity="0.20"/><circle cx="28.0" cy="173.9" r="1.93" fill="#bd6b20" opacity="0.16"/><circle cx="64.8" cy="172.5" r="2.02" fill="#bd6b20" opacity="0.25"/><circle cx="104.9" cy="172.4" r="2.18" fill="#bd6b20" opacity="0.19"/><circle cx="140.0" cy="173.2" r="3.16" fill="#bd6b20" opacity="0.20"/><circle cx="173.4" cy="174.8" r="3.78" fill="#bd6b20" opacity="0.35"/><circle cx="211.3" cy="174.6" r="3.55" fill="#bd6b20" opacity="0.35"/><circle cx="243.6" cy="171.8" r="2.97" fill="#bd6b20" opacity="0.17"/><circle cx="284.9" cy="174.7" r="3.55" fill="#bd6b20" opacity="0.24"/><circle cx="319.3" cy="171.4" r="1.91" fill="#bd6b20" opacity="0.30"/><circle cx="351.9" cy="174.2" r="3.10" fill="#bd6b20" opacity="0.30"/><circle cx="388.9" cy="173.0" r="3.32" fill="#bd6b20" opacity="0.18"/><circle cx="423.7" cy="175.9" r="2.65" fill="#bd6b20" opacity="0.20"/><circle cx="459.1" cy="173.0" r="2.13" fill="#bd6b20" opacity="0.19"/><circle cx="499.2" cy="176.1" r="2.85" fill="#bd6b20" opacity="0.21"/><circle cx="536.7" cy="175.3" r="1.85" fill="#bd6b20" opacity="0.19"/><circle cx="567.6" cy="173.2" r="3.46" fill="#bd6b20" opacity="0.33"/><circle cx="605.4" cy="175.2" r="2.03" fill="#bd6b20" opacity="0.27"/><circle cx="639.3" cy="171.2" r="3.30" fill="#bd6b20" opacity="0.31"/><circle cx="677.4" cy="173.1" r="3.79" fill="#bd6b20" opacity="0.15"/><circle cx="715.1" cy="171.3" r="3.23" fill="#bd6b20" opacity="0.32"/><circle cx="752.5" cy="174.2" r="1.87" fill="#bd6b20" opacity="0.21"/><circle cx="786.3" cy="171.3" r="3.43" fill="#bd6b20" opacity="0.19"/><circle cx="819.6" cy="171.2" r="3.45" fill="#bd6b20" opacity="0.31"/><circle cx="860.0" cy="172.4" r="2.75" fill="#bd6b20" opacity="0.31"/><circle cx="895.4" cy="175.4" r="2.38" fill="#bd6b20" opacity="0.16"/><circle cx="928.3" cy="172.9" r="3.17" fill="#bd6b20" opacity="0.33"/><circle cx="965.1" cy="173.9" r="2.27" fill="#bd6b20" opacity="0.31"/><circle cx="1000.9" cy="176.9" r="2.72" fill="#bd6b20" opacity="0.33"/><circle cx="1035.3" cy="171.7" r="2.49" fill="#bd6b20" opacity="0.34"/><circle cx="1074.4" cy="174.4" r="2.13" fill="#bd6b20" opacity="0.23"/><circle cx="1109.0" cy="175.0" r="2.88" fill="#bd6b20" opacity="0.36"/><circle cx="1145.8" cy="171.6" r="2.81" fill="#bd6b20" opacity="0.24"/><circle cx="1184.8" cy="173.5" r="2.30" fill="#bd6b20" opacity="0.29"/><circle cx="31.8" cy="212.8" r="3.94" fill="#bd6b20" opacity="0.30"/><circle cx="68.1" cy="208.7" r="2.23" fill="#bd6b20" opacity="0.28"/><circle cx="99.6" cy="208.6" r="1.84" fill="#bd6b20" opacity="0.21"/><circle cx="140.4" cy="211.3" r="1.70" fill="#bd6b20" opacity="0.36"/><circle cx="172.6" cy="210.5" r="2.88" fill="#bd6b20" opacity="0.16"/><circle cx="208.5" cy="208.8" r="3.25" fill="#bd6b20" opacity="0.30"/><circle cx="245.7" cy="207.9" r="1.62" fill="#bd6b20" opacity="0.36"/><circle cx="283.6" cy="210.1" r="3.52" fill="#bd6b20" opacity="0.17"/><circle cx="317.8" cy="207.1" r="2.29" fill="#bd6b20" opacity="0.23"/><circle cx="354.0" cy="207.1" r="3.24" fill="#bd6b20" opacity="0.17"/><circle cx="387.2" cy="208.0" r="3.58" fill="#bd6b20" opacity="0.27"/><circle cx="426.9" cy="211.4" r="2.39" fill="#bd6b20" opacity="0.30"/><circle cx="462.6" cy="209.1" r="2.05" fill="#bd6b20" opacity="0.34"/><circle cx="497.2" cy="211.4" r="1.67" fill="#bd6b20" opacity="0.17"/><circle cx="531.9" cy="210.9" r="2.32" fill="#bd6b20" opacity="0.16"/><circle cx="571.2" cy="211.4" r="3.81" fill="#bd6b20" opacity="0.31"/><circle cx="608.3" cy="207.2" r="2.70" fill="#bd6b20" opacity="0.36"/><circle cx="641.1" cy="211.0" r="2.14" fill="#bd6b20" opacity="0.33"/><circle cx="678.8" cy="211.7" r="2.21" fill="#bd6b20" opacity="0.18"/><circle cx="712.3" cy="212.7" r="2.53" fill="#bd6b20" opacity="0.19"/><circle cx="750.3" cy="209.1" r="3.74" fill="#bd6b20" opacity="0.29"/><circle cx="783.4" cy="209.6" r="3.41" fill="#bd6b20" opacity="0.34"/><circle cx="823.1" cy="209.3" r="2.70" fill="#bd6b20" opacity="0.24"/><circle cx="858.8" cy="212.4" r="2.14" fill="#bd6b20" opacity="0.32"/><circle cx="896.6" cy="210.5" r="1.65" fill="#bd6b20" opacity="0.25"/><circle cx="927.5" cy="212.5" r="1.91" fill="#bd6b20" opacity="0.31"/><circle cx="968.7" cy="207.8" r="2.54" fill="#bd6b20" opacity="0.31"/><circle cx="1003.3" cy="208.6" r="2.71" fill="#bd6b20" opacity="0.18"/><circle cx="1037.2" cy="210.8" r="3.69" fill="#bd6b20" opacity="0.31"/><circle cx="1076.7" cy="213.0" r="3.91" fill="#bd6b20" opacity="0.34"/><circle cx="1109.6" cy="208.6" r="2.39" fill="#bd6b20" opacity="0.35"/><circle cx="1144.8" cy="212.7" r="3.94" fill="#bd6b20" opacity="0.30"/><circle cx="1179.4" cy="208.8" r="2.46" fill="#bd6b20" opacity="0.29"/><circle cx="29.0" cy="245.1" r="3.96" fill="#bd6b20" opacity="0.30"/><circle cx="64.5" cy="245.5" r="1.64" fill="#bd6b20" opacity="0.29"/><circle cx="100.0" cy="247.0" r="2.97" fill="#bd6b20" opacity="0.17"/><circle cx="137.6" cy="248.9" r="3.00" fill="#bd6b20" opacity="0.30"/><circle cx="176.6" cy="244.7" r="2.24" fill="#bd6b20" opacity="0.23"/><circle cx="211.5" cy="244.4" r="2.96" fill="#bd6b20" opacity="0.18"/><circle cx="248.2" cy="247.2" r="1.79" fill="#bd6b20" opacity="0.20"/><circle cx="281.7" cy="248.4" r="2.23" fill="#bd6b20" opacity="0.30"/><circle cx="318.2" cy="248.2" r="3.58" fill="#bd6b20" opacity="0.36"/><circle cx="355.5" cy="248.3" r="2.78" fill="#bd6b20" opacity="0.33"/><circle cx="390.5" cy="246.8" r="3.17" fill="#bd6b20" opacity="0.34"/><circle cx="427.7" cy="248.6" r="2.84" fill="#bd6b20" opacity="0.25"/><circle cx="461.6" cy="244.8" r="3.41" fill="#bd6b20" opacity="0.32"/><circle cx="497.9" cy="248.9" r="1.68" fill="#bd6b20" opacity="0.31"/><circle cx="532.4" cy="243.4" r="3.70" fill="#bd6b20" opacity="0.34"/><circle cx="571.0" cy="244.0" r="2.04" fill="#bd6b20" opacity="0.30"/><circle cx="607.6" cy="247.1" r="2.92" fill="#bd6b20" opacity="0.31"/><circle cx="643.1" cy="245.8" r="3.41" fill="#bd6b20" opacity="0.26"/><circle cx="679.9" cy="245.1" r="2.12" fill="#bd6b20" opacity="0.21"/><circle cx="711.2" cy="247.5" r="3.70" fill="#bd6b20" opacity="0.20"/><circle cx="750.4" cy="243.8" r="3.91" fill="#bd6b20" opacity="0.35"/><circle cx="784.3" cy="247.5" r="1.66" fill="#bd6b20" opacity="0.21"/><circle cx="824.1" cy="246.8" r="1.67" fill="#bd6b20" opacity="0.29"/><circle cx="855.3" cy="246.8" r="3.19" fill="#bd6b20" opacity="0.32"/><circle cx="896.9" cy="243.1" r="2.78" fill="#bd6b20" opacity="0.24"/><circle cx="931.3" cy="247.9" r="2.84" fill="#bd6b20" opacity="0.18"/><circle cx="964.0" cy="247.4" r="2.74" fill="#bd6b20" opacity="0.35"/><circle cx="999.5" cy="246.5" r="1.76" fill="#bd6b20" opacity="0.36"/><circle cx="1039.7" cy="248.0" r="2.25" fill="#bd6b20" opacity="0.20"/><circle cx="1076.0" cy="244.9" r="3.68" fill="#bd6b20" opacity="0.23"/><circle cx="1109.2" cy="246.1" r="1.62" fill="#bd6b20" opacity="0.28"/><circle cx="1143.1" cy="247.6" r="2.74" fill="#bd6b20" opacity="0.35"/><circle cx="1185.0" cy="244.1" r="3.76" fill="#bd6b20" opacity="0.27"/><circle cx="32.6" cy="282.7" r="2.64" fill="#bd6b20" opacity="0.32"/><circle cx="66.4" cy="280.0" r="3.50" fill="#bd6b20" opacity="0.28"/><circle cx="101.8" cy="280.9" r="3.60" fill="#bd6b20" opacity="0.25"/><circle cx="138.2" cy="281.8" r="3.29" fill="#bd6b20" opacity="0.18"/><circle cx="174.0" cy="281.1" r="2.57" fill="#bd6b20" opacity="0.16"/><circle cx="211.6" cy="279.3" r="3.43" fill="#bd6b20" opacity="0.16"/><circle cx="243.4" cy="281.5" r="3.46" fill="#bd6b20" opacity="0.29"/><circle cx="283.0" cy="282.9" r="2.86" fill="#bd6b20" opacity="0.26"/><circle cx="320.5" cy="279.8" r="1.75" fill="#bd6b20" opacity="0.36"/><circle cx="355.5" cy="283.7" r="2.68" fill="#bd6b20" opacity="0.19"/><circle cx="389.5" cy="284.9" r="2.09" fill="#bd6b20" opacity="0.22"/><circle cx="428.5" cy="280.3" r="3.83" fill="#bd6b20" opacity="0.24"/><circle cx="464.6" cy="283.6" r="3.00" fill="#bd6b20" opacity="0.18"/><circle cx="499.8" cy="282.6" r="1.68" fill="#bd6b20" opacity="0.20"/><circle cx="536.4" cy="283.2" r="2.76" fill="#bd6b20" opacity="0.32"/><circle cx="569.2" cy="280.4" r="3.16" fill="#bd6b20" opacity="0.30"/><circle cx="607.1" cy="282.7" r="3.88" fill="#bd6b20" opacity="0.26"/><circle cx="642.8" cy="284.4" r="2.31" fill="#bd6b20" opacity="0.20"/><circle cx="678.7" cy="284.9" r="1.65" fill="#bd6b20" opacity="0.34"/><circle cx="712.1" cy="283.5" r="3.07" fill="#bd6b20" opacity="0.32"/><circle cx="749.6" cy="282.6" r="3.32" fill="#bd6b20" opacity="0.21"/><circle cx="787.9" cy="279.2" r="2.49" fill="#bd6b20" opacity="0.18"/><circle cx="823.7" cy="283.6" r="1.90" fill="#bd6b20" opacity="0.29"/><circle cx="859.2" cy="283.3" r="1.88" fill="#bd6b20" opacity="0.32"/><circle cx="897.0" cy="280.3" r="2.80" fill="#bd6b20" opacity="0.25"/><circle cx="930.9" cy="279.7" r="3.70" fill="#bd6b20" opacity="0.26"/><circle cx="966.0" cy="281.3" r="3.70" fill="#bd6b20" opacity="0.21"/><circle cx="1003.6" cy="282.2" r="3.78" fill="#bd6b20" opacity="0.29"/><circle cx="1036.9" cy="279.3" r="1.99" fill="#bd6b20" opacity="0.16"/><circle cx="1076.0" cy="282.6" r="3.16" fill="#bd6b20" opacity="0.16"/><circle cx="1110.5" cy="279.6" r="1.99" fill="#bd6b20" opacity="0.34"/><circle cx="1144.7" cy="281.8" r="2.48" fill="#bd6b20" opacity="0.33"/><circle cx="1181.1" cy="284.1" r="2.14" fill="#bd6b20" opacity="0.20"/><circle cx="30.7" cy="318.9" r="3.37" fill="#bd6b20" opacity="0.31"/><circle cx="67.6" cy="317.1" r="2.86" fill="#bd6b20" opacity="0.28"/><circle cx="104.8" cy="315.3" r="3.78" fill="#bd6b20" opacity="0.20"/><circle cx="139.3" cy="317.3" r="2.88" fill="#bd6b20" opacity="0.28"/><circle cx="174.3" cy="315.6" r="3.59" fill="#bd6b20" opacity="0.16"/><circle cx="209.5" cy="318.4" r="3.24" fill="#bd6b20" opacity="0.26"/><circle cx="247.5" cy="316.0" r="3.18" fill="#bd6b20" opacity="0.20"/><circle cx="283.6" cy="317.5" r="2.80" fill="#bd6b20" opacity="0.19"/><circle cx="318.3" cy="320.2" r="3.16" fill="#bd6b20" opacity="0.27"/><circle cx="355.7" cy="318.3" r="2.06" fill="#bd6b20" opacity="0.29"/><circle cx="392.7" cy="320.3" r="1.78" fill="#bd6b20" opacity="0.19"/><circle cx="423.2" cy="319.5" r="2.32" fill="#bd6b20" opacity="0.33"/><circle cx="461.4" cy="315.3" r="1.89" fill="#bd6b20" opacity="0.29"/><circle cx="500.2" cy="315.7" r="3.61" fill="#bd6b20" opacity="0.25"/><circle cx="532.3" cy="315.4" r="3.37" fill="#bd6b20" opacity="0.22"/><circle cx="570.6" cy="320.2" r="3.45" fill="#bd6b20" opacity="0.30"/><circle cx="608.1" cy="317.1" r="3.10" fill="#bd6b20" opacity="0.35"/><circle cx="643.0" cy="320.6" r="1.75" fill="#bd6b20" opacity="0.32"/><circle cx="678.1" cy="318.8" r="2.26" fill="#bd6b20" opacity="0.18"/><circle cx="715.3" cy="318.6" r="2.35" fill="#bd6b20" opacity="0.18"/><circle cx="748.2" cy="316.1" r="2.98" fill="#bd6b20" opacity="0.16"/><circle cx="783.8" cy="317.3" r="3.67" fill="#bd6b20" opacity="0.33"/><circle cx="821.9" cy="317.0" r="3.21" fill="#bd6b20" opacity="0.28"/><circle cx="858.6" cy="319.0" r="2.03" fill="#bd6b20" opacity="0.33"/><circle cx="896.6" cy="316.6" r="2.83" fill="#bd6b20" opacity="0.31"/><circle cx="927.2" cy="318.9" r="2.87" fill="#bd6b20" opacity="0.27"/><circle cx="964.6" cy="319.3" r="1.95" fill="#bd6b20" opacity="0.21"/><circle cx="1004.0" cy="315.6" r="3.44" fill="#bd6b20" opacity="0.27"/><circle cx="1038.6" cy="320.4" r="2.23" fill="#bd6b20" opacity="0.22"/><circle cx="1071.1" cy="316.6" r="2.07" fill="#bd6b20" opacity="0.25"/><circle cx="1108.2" cy="316.1" r="2.60" fill="#bd6b20" opacity="0.30"/><circle cx="1143.4" cy="317.9" r="3.46" fill="#bd6b20" opacity="0.23"/><circle cx="1182.1" cy="319.6" r="2.95" fill="#bd6b20" opacity="0.18"/><circle cx="29.6" cy="356.8" r="3.35" fill="#bd6b20" opacity="0.26"/><circle cx="64.6" cy="356.5" r="2.13" fill="#bd6b20" opacity="0.20"/><circle cx="103.8" cy="353.8" r="2.43" fill="#bd6b20" opacity="0.30"/><circle cx="140.2" cy="356.6" r="3.43" fill="#bd6b20" opacity="0.33"/><circle cx="175.5" cy="356.6" r="2.12" fill="#bd6b20" opacity="0.30"/><circle cx="207.4" cy="355.1" r="2.31" fill="#bd6b20" opacity="0.30"/><circle cx="247.2" cy="356.0" r="2.56" fill="#bd6b20" opacity="0.24"/><circle cx="279.3" cy="354.5" r="1.71" fill="#bd6b20" opacity="0.19"/><circle cx="318.7" cy="354.8" r="3.01" fill="#bd6b20" opacity="0.15"/><circle cx="353.7" cy="353.3" r="3.73" fill="#bd6b20" opacity="0.26"/><circle cx="392.9" cy="353.4" r="1.94" fill="#bd6b20" opacity="0.18"/><circle cx="424.0" cy="354.8" r="3.34" fill="#bd6b20" opacity="0.31"/><circle cx="461.6" cy="351.5" r="3.65" fill="#bd6b20" opacity="0.26"/><circle cx="496.5" cy="356.8" r="2.35" fill="#bd6b20" opacity="0.20"/><circle cx="532.2" cy="351.6" r="2.50" fill="#bd6b20" opacity="0.18"/><circle cx="569.5" cy="354.2" r="2.15" fill="#bd6b20" opacity="0.16"/><circle cx="608.0" cy="355.0" r="1.66" fill="#bd6b20" opacity="0.31"/><circle cx="642.0" cy="354.8" r="2.64" fill="#bd6b20" opacity="0.34"/><circle cx="679.1" cy="354.3" r="2.07" fill="#bd6b20" opacity="0.23"/><circle cx="715.4" cy="354.4" r="3.37" fill="#bd6b20" opacity="0.17"/><circle cx="749.8" cy="351.2" r="3.85" fill="#bd6b20" opacity="0.21"/><circle cx="783.4" cy="356.0" r="1.87" fill="#bd6b20" opacity="0.20"/><circle cx="824.6" cy="352.1" r="1.95" fill="#bd6b20" opacity="0.29"/><circle cx="856.6" cy="352.0" r="1.94" fill="#bd6b20" opacity="0.16"/><circle cx="891.0" cy="353.8" r="3.98" fill="#bd6b20" opacity="0.35"/><circle cx="932.6" cy="356.6" r="2.86" fill="#bd6b20" opacity="0.20"/><circle cx="964.4" cy="351.3" r="1.80" fill="#bd6b20" opacity="0.17"/><circle cx="1001.2" cy="354.9" r="2.37" fill="#bd6b20" opacity="0.17"/><circle cx="1040.4" cy="355.1" r="2.76" fill="#bd6b20" opacity="0.18"/><circle cx="1075.7" cy="354.9" r="3.90" fill="#bd6b20" opacity="0.31"/><circle cx="1108.8" cy="354.3" r="1.84" fill="#bd6b20" opacity="0.36"/><circle cx="1144.4" cy="351.9" r="3.03" fill="#bd6b20" opacity="0.26"/><circle cx="1180.8" cy="353.8" r="3.66" fill="#bd6b20" opacity="0.25"/><circle cx="28.6" cy="389.2" r="3.68" fill="#bd6b20" opacity="0.20"/><circle cx="65.2" cy="387.2" r="1.70" fill="#bd6b20" opacity="0.32"/><circle cx="102.8" cy="390.3" r="3.54" fill="#bd6b20" opacity="0.21"/><circle cx="139.1" cy="387.7" r="3.82" fill="#bd6b20" opacity="0.21"/><circle cx="174.6" cy="390.3" r="2.75" fill="#bd6b20" opacity="0.34"/><circle cx="211.0" cy="388.3" r="2.67" fill="#bd6b20" opacity="0.22"/><circle cx="248.9" cy="388.4" r="3.26" fill="#bd6b20" opacity="0.27"/><circle cx="282.1" cy="388.0" r="2.85" fill="#bd6b20" opacity="0.27"/><circle cx="315.5" cy="391.3" r="3.79" fill="#bd6b20" opacity="0.31"/><circle cx="355.6" cy="388.6" r="3.87" fill="#bd6b20" opacity="0.22"/><circle cx="391.9" cy="392.0" r="3.88" fill="#bd6b20" opacity="0.31"/><circle cx="424.3" cy="390.0" r="1.66" fill="#bd6b20" opacity="0.26"/><circle cx="464.4" cy="387.1" r="3.04" fill="#bd6b20" opacity="0.20"/><circle cx="500.5" cy="392.6" r="2.03" fill="#bd6b20" opacity="0.33"/><circle cx="534.3" cy="388.5" r="2.67" fill="#bd6b20" opacity="0.31"/><circle cx="572.7" cy="389.7" r="3.26" fill="#bd6b20" opacity="0.33"/><circle cx="608.7" cy="391.5" r="1.89" fill="#bd6b20" opacity="0.18"/><circle cx="644.3" cy="388.4" r="1.81" fill="#bd6b20" opacity="0.29"/><circle cx="676.4" cy="387.3" r="3.16" fill="#bd6b20" opacity="0.27"/><circle cx="712.2" cy="389.5" r="3.58" fill="#bd6b20" opacity="0.28"/><circle cx="747.9" cy="389.6" r="1.82" fill="#bd6b20" opacity="0.19"/><circle cx="788.9" cy="389.3" r="2.94" fill="#bd6b20" opacity="0.16"/><circle cx="819.6" cy="388.1" r="2.03" fill="#bd6b20" opacity="0.20"/><circle cx="855.1" cy="391.5" r="3.07" fill="#bd6b20" opacity="0.31"/><circle cx="891.1" cy="391.6" r="1.67" fill="#bd6b20" opacity="0.23"/><circle cx="932.5" cy="393.0" r="1.99" fill="#bd6b20" opacity="0.29"/><circle cx="963.5" cy="387.2" r="1.90" fill="#bd6b20" opacity="0.31"/><circle cx="1003.8" cy="389.9" r="3.15" fill="#bd6b20" opacity="0.15"/><circle cx="1036.6" cy="390.2" r="1.74" fill="#bd6b20" opacity="0.30"/><circle cx="1071.4" cy="388.7" r="2.40" fill="#bd6b20" opacity="0.21"/><circle cx="1112.9" cy="389.0" r="1.73" fill="#bd6b20" opacity="0.27"/><circle cx="1145.7" cy="390.8" r="3.26" fill="#bd6b20" opacity="0.34"/><circle cx="1182.7" cy="389.9" r="3.07" fill="#bd6b20" opacity="0.32"/><circle cx="31.9" cy="424.6" r="2.11" fill="#bd6b20" opacity="0.26"/><circle cx="66.8" cy="423.3" r="2.36" fill="#bd6b20" opacity="0.19"/><circle cx="100.2" cy="428.6" r="2.94" fill="#bd6b20" opacity="0.21"/><circle cx="136.4" cy="425.1" r="2.81" fill="#bd6b20" opacity="0.17"/><circle cx="174.6" cy="425.2" r="3.21" fill="#bd6b20" opacity="0.32"/><circle cx="210.0" cy="423.2" r="2.01" fill="#bd6b20" opacity="0.22"/><circle cx="247.6" cy="428.5" r="3.54" fill="#bd6b20" opacity="0.24"/><circle cx="279.5" cy="426.4" r="2.50" fill="#bd6b20" opacity="0.25"/><circle cx="317.0" cy="424.0" r="2.93" fill="#bd6b20" opacity="0.35"/><circle cx="351.1" cy="428.0" r="2.15" fill="#bd6b20" opacity="0.32"/><circle cx="389.4" cy="427.8" r="1.70" fill="#bd6b20" opacity="0.17"/><circle cx="424.7" cy="423.3" r="2.89" fill="#bd6b20" opacity="0.24"/><circle cx="461.0" cy="427.8" r="3.52" fill="#bd6b20" opacity="0.31"/><circle cx="496.6" cy="424.7" r="1.86" fill="#bd6b20" opacity="0.20"/><circle cx="534.8" cy="424.9" r="2.02" fill="#bd6b20" opacity="0.29"/><circle cx="568.2" cy="424.7" r="3.21" fill="#bd6b20" opacity="0.26"/><circle cx="608.7" cy="425.9" r="2.29" fill="#bd6b20" opacity="0.29"/><circle cx="644.2" cy="425.6" r="2.59" fill="#bd6b20" opacity="0.19"/><circle cx="678.8" cy="428.8" r="3.10" fill="#bd6b20" opacity="0.29"/><circle cx="714.5" cy="425.8" r="3.51" fill="#bd6b20" opacity="0.33"/><circle cx="747.4" cy="425.9" r="3.26" fill="#bd6b20" opacity="0.33"/><circle cx="787.9" cy="428.8" r="2.77" fill="#bd6b20" opacity="0.32"/><circle cx="820.4" cy="428.1" r="2.84" fill="#bd6b20" opacity="0.17"/><circle cx="855.9" cy="425.6" r="2.63" fill="#bd6b20" opacity="0.34"/><circle cx="893.2" cy="427.6" r="2.75" fill="#bd6b20" opacity="0.15"/><circle cx="928.0" cy="424.1" r="2.25" fill="#bd6b20" opacity="0.22"/><circle cx="963.9" cy="427.9" r="3.49" fill="#bd6b20" opacity="0.32"/><circle cx="1003.2" cy="427.1" r="2.50" fill="#bd6b20" opacity="0.35"/><circle cx="1040.6" cy="427.5" r="1.87" fill="#bd6b20" opacity="0.32"/><circle cx="1074.3" cy="426.2" r="2.21" fill="#bd6b20" opacity="0.21"/><circle cx="1111.2" cy="426.5" r="3.47" fill="#bd6b20" opacity="0.32"/><circle cx="1147.9" cy="426.3" r="2.22" fill="#bd6b20" opacity="0.33"/><circle cx="1179.6" cy="423.5" r="3.52" fill="#bd6b20" opacity="0.16"/><circle cx="31.8" cy="464.3" r="2.60" fill="#bd6b20" opacity="0.28"/><circle cx="64.3" cy="460.1" r="3.73" fill="#bd6b20" opacity="0.20"/><circle cx="103.0" cy="459.4" r="1.87" fill="#bd6b20" opacity="0.19"/><circle cx="136.6" cy="464.0" r="2.42" fill="#bd6b20" opacity="0.28"/><circle cx="171.6" cy="464.8" r="3.60" fill="#bd6b20" opacity="0.34"/><circle cx="207.2" cy="461.9" r="2.32" fill="#bd6b20" opacity="0.20"/><circle cx="245.5" cy="463.7" r="1.72" fill="#bd6b20" opacity="0.17"/><circle cx="282.7" cy="461.1" r="3.20" fill="#bd6b20" opacity="0.27"/><circle cx="317.1" cy="459.3" r="3.17" fill="#bd6b20" opacity="0.28"/><circle cx="351.2" cy="462.6" r="2.01" fill="#bd6b20" opacity="0.35"/><circle cx="390.3" cy="460.4" r="2.89" fill="#bd6b20" opacity="0.22"/><circle cx="426.9" cy="461.3" r="1.78" fill="#bd6b20" opacity="0.29"/><circle cx="463.7" cy="464.7" r="3.49" fill="#bd6b20" opacity="0.27"/><circle cx="497.0" cy="462.2" r="3.91" fill="#bd6b20" opacity="0.16"/><circle cx="531.3" cy="464.3" r="2.99" fill="#bd6b20" opacity="0.16"/><circle cx="567.1" cy="460.2" r="2.04" fill="#bd6b20" opacity="0.22"/><circle cx="608.8" cy="464.6" r="1.71" fill="#bd6b20" opacity="0.25"/><circle cx="640.0" cy="460.4" r="2.38" fill="#bd6b20" opacity="0.20"/><circle cx="679.2" cy="463.8" r="2.83" fill="#bd6b20" opacity="0.23"/><circle cx="711.9" cy="462.4" r="3.74" fill="#bd6b20" opacity="0.33"/><circle cx="751.9" cy="460.4" r="3.29" fill="#bd6b20" opacity="0.36"/><circle cx="785.0" cy="461.2" r="1.85" fill="#bd6b20" opacity="0.18"/><circle cx="823.4" cy="463.7" r="3.49" fill="#bd6b20" opacity="0.31"/><circle cx="860.7" cy="462.4" r="2.05" fill="#bd6b20" opacity="0.30"/><circle cx="894.4" cy="464.6" r="3.25" fill="#bd6b20" opacity="0.36"/><circle cx="930.6" cy="464.3" r="3.02" fill="#bd6b20" opacity="0.22"/><circle cx="964.7" cy="462.0" r="3.39" fill="#bd6b20" opacity="0.16"/><circle cx="1000.4" cy="459.2" r="3.57" fill="#bd6b20" opacity="0.18"/><circle cx="1039.9" cy="464.3" r="3.18" fill="#bd6b20" opacity="0.26"/><circle cx="1071.7" cy="463.7" r="1.95" fill="#bd6b20" opacity="0.25"/><circle cx="1112.4" cy="461.1" r="2.75" fill="#bd6b20" opacity="0.18"/><circle cx="1144.5" cy="460.6" r="2.55" fill="#bd6b20" opacity="0.18"/><circle cx="1185.0" cy="462.1" r="3.82" fill="#bd6b20" opacity="0.36"/><circle cx="28.0" cy="498.4" r="1.70" fill="#bd6b20" opacity="0.35"/><circle cx="66.2" cy="498.7" r="3.78" fill="#bd6b20" opacity="0.34"/><circle cx="102.2" cy="497.2" r="2.57" fill="#bd6b20" opacity="0.36"/><circle cx="135.2" cy="496.0" r="3.38" fill="#bd6b20" opacity="0.25"/><circle cx="172.9" cy="500.0" r="3.13" fill="#bd6b20" opacity="0.19"/><circle cx="210.5" cy="499.9" r="3.45" fill="#bd6b20" opacity="0.16"/><circle cx="243.3" cy="499.4" r="2.85" fill="#bd6b20" opacity="0.16"/><circle cx="284.8" cy="497.3" r="1.69" fill="#bd6b20" opacity="0.16"/><circle cx="316.0" cy="499.7" r="3.66" fill="#bd6b20" opacity="0.24"/><circle cx="354.6" cy="499.3" r="2.39" fill="#bd6b20" opacity="0.27"/><circle cx="389.5" cy="495.7" r="2.48" fill="#bd6b20" opacity="0.19"/><circle cx="426.0" cy="499.0" r="3.88" fill="#bd6b20" opacity="0.18"/><circle cx="463.9" cy="497.2" r="3.85" fill="#bd6b20" opacity="0.17"/><circle cx="498.9" cy="497.4" r="3.20" fill="#bd6b20" opacity="0.22"/><circle cx="532.3" cy="499.8" r="3.12" fill="#bd6b20" opacity="0.20"/><circle cx="570.4" cy="497.0" r="2.15" fill="#bd6b20" opacity="0.19"/><circle cx="605.2" cy="498.4" r="1.72" fill="#bd6b20" opacity="0.21"/><circle cx="644.0" cy="497.3" r="2.31" fill="#bd6b20" opacity="0.34"/><circle cx="676.5" cy="495.9" r="2.99" fill="#bd6b20" opacity="0.29"/><circle cx="717.0" cy="496.8" r="3.79" fill="#bd6b20" opacity="0.27"/><circle cx="751.2" cy="498.4" r="1.72" fill="#bd6b20" opacity="0.34"/><circle cx="783.4" cy="497.1" r="3.50" fill="#bd6b20" opacity="0.36"/><circle cx="821.5" cy="496.5" r="2.14" fill="#bd6b20" opacity="0.16"/><circle cx="860.7" cy="497.2" r="2.41" fill="#bd6b20" opacity="0.30"/><circle cx="894.3" cy="500.6" r="2.05" fill="#bd6b20" opacity="0.21"/><circle cx="929.2" cy="496.6" r="3.09" fill="#bd6b20" opacity="0.16"/><circle cx="967.1" cy="498.5" r="3.46" fill="#bd6b20" opacity="0.26"/><circle cx="1002.2" cy="497.7" r="2.56" fill="#bd6b20" opacity="0.20"/><circle cx="1036.8" cy="499.8" r="3.05" fill="#bd6b20" opacity="0.30"/><circle cx="1071.4" cy="499.6" r="3.44" fill="#bd6b20" opacity="0.27"/><circle cx="1109.9" cy="495.4" r="2.87" fill="#bd6b20" opacity="0.21"/><circle cx="1148.9" cy="496.7" r="3.81" fill="#bd6b20" opacity="0.29"/><circle cx="1181.3" cy="496.1" r="2.23" fill="#bd6b20" opacity="0.32"/><circle cx="29.9" cy="534.8" r="3.55" fill="#bd6b20" opacity="0.30"/><circle cx="68.0" cy="532.8" r="3.22" fill="#bd6b20" opacity="0.23"/><circle cx="101.8" cy="532.4" r="2.20" fill="#bd6b20" opacity="0.22"/><circle cx="138.9" cy="532.6" r="3.53" fill="#bd6b20" opacity="0.17"/><circle cx="175.2" cy="536.7" r="2.54" fill="#bd6b20" opacity="0.15"/><circle cx="211.5" cy="536.1" r="3.84" fill="#bd6b20" opacity="0.35"/><circle cx="245.6" cy="534.8" r="3.80" fill="#bd6b20" opacity="0.25"/><circle cx="282.3" cy="533.7" r="3.00" fill="#bd6b20" opacity="0.19"/><circle cx="315.5" cy="534.0" r="2.59" fill="#bd6b20" opacity="0.26"/><circle cx="356.6" cy="535.4" r="3.90" fill="#bd6b20" opacity="0.17"/><circle cx="389.2" cy="535.4" r="2.09" fill="#bd6b20" opacity="0.15"/><circle cx="426.8" cy="532.3" r="2.55" fill="#bd6b20" opacity="0.32"/><circle cx="463.3" cy="536.6" r="3.01" fill="#bd6b20" opacity="0.25"/><circle cx="497.4" cy="536.0" r="2.80" fill="#bd6b20" opacity="0.21"/><circle cx="534.2" cy="536.4" r="3.50" fill="#bd6b20" opacity="0.20"/><circle cx="572.6" cy="531.6" r="2.58" fill="#bd6b20" opacity="0.31"/><circle cx="605.6" cy="536.6" r="3.69" fill="#bd6b20" opacity="0.25"/><circle cx="641.0" cy="536.7" r="3.36" fill="#bd6b20" opacity="0.20"/><circle cx="676.8" cy="531.8" r="3.61" fill="#bd6b20" opacity="0.35"/><circle cx="711.4" cy="536.8" r="1.80" fill="#bd6b20" opacity="0.35"/><circle cx="751.4" cy="532.0" r="3.67" fill="#bd6b20" opacity="0.25"/><circle cx="786.2" cy="536.2" r="2.40" fill="#bd6b20" opacity="0.20"/><circle cx="819.6" cy="534.8" r="1.98" fill="#bd6b20" opacity="0.33"/><circle cx="855.4" cy="532.5" r="1.74" fill="#bd6b20" opacity="0.16"/><circle cx="891.3" cy="532.0" r="3.17" fill="#bd6b20" opacity="0.32"/><circle cx="927.3" cy="533.7" r="2.40" fill="#bd6b20" opacity="0.19"/><circle cx="963.7" cy="536.6" r="1.76" fill="#bd6b20" opacity="0.18"/><circle cx="1002.4" cy="536.4" r="2.02" fill="#bd6b20" opacity="0.24"/><circle cx="1037.1" cy="536.2" r="3.16" fill="#bd6b20" opacity="0.35"/><circle cx="1075.6" cy="536.7" r="2.77" fill="#bd6b20" opacity="0.28"/><circle cx="1107.9" cy="535.2" r="1.86" fill="#bd6b20" opacity="0.16"/><circle cx="1143.8" cy="534.7" r="3.42" fill="#bd6b20" opacity="0.22"/><circle cx="1181.0" cy="534.7" r="2.84" fill="#bd6b20" opacity="0.20"/><circle cx="31.7" cy="572.9" r="3.96" fill="#bd6b20" opacity="0.31"/><circle cx="68.9" cy="570.3" r="3.36" fill="#bd6b20" opacity="0.22"/><circle cx="103.3" cy="567.1" r="3.94" fill="#bd6b20" opacity="0.16"/><circle cx="140.5" cy="569.8" r="2.45" fill="#bd6b20" opacity="0.19"/><circle cx="176.1" cy="567.1" r="3.54" fill="#bd6b20" opacity="0.19"/><circle cx="210.9" cy="572.6" r="1.64" fill="#bd6b20" opacity="0.29"/><circle cx="244.1" cy="568.9" r="2.90" fill="#bd6b20" opacity="0.26"/><circle cx="282.7" cy="568.1" r="3.74" fill="#bd6b20" opacity="0.20"/><circle cx="317.8" cy="573.0" r="2.05" fill="#bd6b20" opacity="0.15"/><circle cx="351.2" cy="567.7" r="1.96" fill="#bd6b20" opacity="0.23"/><circle cx="391.8" cy="567.7" r="2.89" fill="#bd6b20" opacity="0.31"/><circle cx="425.8" cy="569.3" r="2.40" fill="#bd6b20" opacity="0.28"/><circle cx="462.9" cy="571.8" r="2.73" fill="#bd6b20" opacity="0.33"/><circle cx="498.6" cy="567.5" r="1.84" fill="#bd6b20" opacity="0.16"/><circle cx="535.8" cy="567.4" r="3.57" fill="#bd6b20" opacity="0.28"/><circle cx="568.6" cy="570.9" r="3.49" fill="#bd6b20" opacity="0.30"/><circle cx="606.1" cy="570.6" r="1.79" fill="#bd6b20" opacity="0.32"/><circle cx="639.5" cy="572.5" r="1.62" fill="#bd6b20" opacity="0.34"/><circle cx="679.2" cy="571.6" r="2.34" fill="#bd6b20" opacity="0.31"/><circle cx="711.1" cy="572.7" r="1.88" fill="#bd6b20" opacity="0.16"/><circle cx="749.7" cy="571.7" r="2.19" fill="#bd6b20" opacity="0.31"/><circle cx="784.6" cy="570.4" r="2.69" fill="#bd6b20" opacity="0.18"/><circle cx="821.0" cy="571.4" r="1.81" fill="#bd6b20" opacity="0.18"/><circle cx="856.9" cy="567.1" r="2.27" fill="#bd6b20" opacity="0.25"/><circle cx="892.6" cy="571.7" r="1.82" fill="#bd6b20" opacity="0.19"/><circle cx="930.6" cy="567.5" r="3.95" fill="#bd6b20" opacity="0.29"/><circle cx="968.7" cy="570.1" r="3.16" fill="#bd6b20" opacity="0.35"/><circle cx="1003.0" cy="569.1" r="3.66" fill="#bd6b20" opacity="0.19"/><circle cx="1037.8" cy="570.2" r="3.31" fill="#bd6b20" opacity="0.30"/><circle cx="1076.4" cy="571.8" r="3.23" fill="#bd6b20" opacity="0.33"/><circle cx="1111.9" cy="570.1" r="2.82" fill="#bd6b20" opacity="0.23"/><circle cx="1143.8" cy="569.3" r="2.83" fill="#bd6b20" opacity="0.21"/><circle cx="1182.7" cy="571.3" r="3.35" fill="#bd6b20" opacity="0.27"/><circle cx="27.6" cy="603.3" r="3.85" fill="#bd6b20" opacity="0.19"/><circle cx="66.1" cy="606.4" r="2.81" fill="#bd6b20" opacity="0.28"/><circle cx="104.7" cy="606.7" r="3.73" fill="#bd6b20" opacity="0.20"/><circle cx="137.0" cy="608.1" r="2.23" fill="#bd6b20" opacity="0.32"/><circle cx="173.8" cy="604.5" r="1.64" fill="#bd6b20" opacity="0.20"/><circle cx="212.4" cy="605.1" r="3.16" fill="#bd6b20" opacity="0.25"/><circle cx="248.3" cy="604.0" r="1.90" fill="#bd6b20" opacity="0.35"/><circle cx="281.2" cy="607.0" r="2.15" fill="#bd6b20" opacity="0.19"/><circle cx="318.5" cy="606.6" r="2.89" fill="#bd6b20" opacity="0.27"/><circle cx="351.4" cy="607.0" r="3.71" fill="#bd6b20" opacity="0.25"/><circle cx="388.3" cy="606.6" r="2.59" fill="#bd6b20" opacity="0.16"/><circle cx="424.1" cy="607.3" r="3.69" fill="#bd6b20" opacity="0.26"/><circle cx="461.5" cy="603.1" r="1.96" fill="#bd6b20" opacity="0.31"/><circle cx="499.9" cy="608.9" r="2.14" fill="#bd6b20" opacity="0.21"/><circle cx="533.6" cy="603.4" r="3.01" fill="#bd6b20" opacity="0.27"/><circle cx="568.0" cy="604.3" r="3.06" fill="#bd6b20" opacity="0.27"/><circle cx="608.9" cy="605.4" r="2.74" fill="#bd6b20" opacity="0.17"/><circle cx="641.7" cy="605.0" r="3.15" fill="#bd6b20" opacity="0.35"/><circle cx="679.3" cy="608.4" r="3.74" fill="#bd6b20" opacity="0.17"/><circle cx="714.4" cy="608.5" r="3.94" fill="#bd6b20" opacity="0.17"/><circle cx="751.4" cy="607.1" r="2.43" fill="#bd6b20" opacity="0.28"/><circle cx="788.9" cy="608.1" r="2.22" fill="#bd6b20" opacity="0.31"/><circle cx="819.2" cy="607.9" r="1.64" fill="#bd6b20" opacity="0.36"/><circle cx="860.6" cy="605.4" r="2.66" fill="#bd6b20" opacity="0.34"/><circle cx="894.1" cy="603.7" r="2.93" fill="#bd6b20" opacity="0.35"/><circle cx="932.6" cy="603.2" r="2.54" fill="#bd6b20" opacity="0.19"/><circle cx="964.0" cy="604.0" r="2.58" fill="#bd6b20" opacity="0.32"/><circle cx="1002.8" cy="604.6" r="3.32" fill="#bd6b20" opacity="0.16"/><circle cx="1040.5" cy="604.5" r="2.72" fill="#bd6b20" opacity="0.29"/><circle cx="1073.7" cy="608.9" r="2.89" fill="#bd6b20" opacity="0.22"/><circle cx="1109.5" cy="607.1" r="1.93" fill="#bd6b20" opacity="0.18"/><circle cx="1143.6" cy="605.5" r="2.59" fill="#bd6b20" opacity="0.19"/><circle cx="1179.7" cy="607.2" r="1.95" fill="#bd6b20" opacity="0.34"/><circle cx="30.5" cy="640.4" r="3.01" fill="#bd6b20" opacity="0.18"/><circle cx="66.8" cy="643.7" r="3.74" fill="#bd6b20" opacity="0.19"/><circle cx="102.5" cy="639.7" r="1.63" fill="#bd6b20" opacity="0.18"/><circle cx="138.3" cy="643.7" r="3.80" fill="#bd6b20" opacity="0.25"/><circle cx="171.5" cy="642.0" r="3.94" fill="#bd6b20" opacity="0.28"/><circle cx="209.4" cy="640.1" r="3.09" fill="#bd6b20" opacity="0.32"/><circle cx="244.5" cy="642.1" r="3.38" fill="#bd6b20" opacity="0.19"/><circle cx="283.9" cy="642.6" r="3.37" fill="#bd6b20" opacity="0.36"/><circle cx="318.8" cy="643.9" r="1.98" fill="#bd6b20" opacity="0.33"/><circle cx="353.5" cy="644.6" r="3.40" fill="#bd6b20" opacity="0.22"/><circle cx="391.6" cy="642.7" r="1.69" fill="#bd6b20" opacity="0.34"/><circle cx="428.7" cy="640.8" r="1.60" fill="#bd6b20" opacity="0.28"/><circle cx="464.2" cy="643.4" r="1.68" fill="#bd6b20" opacity="0.26"/><circle cx="500.2" cy="639.8" r="1.81" fill="#bd6b20" opacity="0.18"/><circle cx="536.3" cy="640.3" r="2.38" fill="#bd6b20" opacity="0.18"/><circle cx="569.0" cy="642.3" r="2.91" fill="#bd6b20" opacity="0.18"/><circle cx="608.0" cy="640.3" r="3.93" fill="#bd6b20" opacity="0.21"/><circle cx="644.1" cy="639.6" r="1.88" fill="#bd6b20" opacity="0.22"/><circle cx="676.0" cy="639.6" r="3.43" fill="#bd6b20" opacity="0.32"/><circle cx="712.0" cy="642.4" r="3.18" fill="#bd6b20" opacity="0.18"/><circle cx="752.5" cy="640.3" r="1.89" fill="#bd6b20" opacity="0.27"/><circle cx="788.6" cy="643.1" r="2.63" fill="#bd6b20" opacity="0.17"/><circle cx="824.2" cy="641.8" r="3.84" fill="#bd6b20" opacity="0.27"/><circle cx="859.6" cy="640.2" r="2.98" fill="#bd6b20" opacity="0.20"/><circle cx="896.2" cy="641.9" r="3.81" fill="#bd6b20" opacity="0.25"/><circle cx="929.5" cy="639.5" r="2.50" fill="#bd6b20" opacity="0.20"/><circle cx="963.3" cy="644.9" r="2.81" fill="#bd6b20" opacity="0.25"/><circle cx="1001.0" cy="639.5" r="2.13" fill="#bd6b20" opacity="0.34"/><circle cx="1036.1" cy="643.9" r="2.52" fill="#bd6b20" opacity="0.17"/><circle cx="1071.7" cy="644.1" r="2.67" fill="#bd6b20" opacity="0.23"/><circle cx="1109.1" cy="644.0" r="2.92" fill="#bd6b20" opacity="0.31"/><circle cx="1148.1" cy="642.2" r="1.79" fill="#bd6b20" opacity="0.35"/><circle cx="1181.1" cy="643.4" r="2.03" fill="#bd6b20" opacity="0.33"/><circle cx="231.8" cy="233.0" r="220" fill="url(#glow)" opacity="0.9"/>
  <g opacity="0.85" transform="translate(1020, 495)">
        <circle r="68" fill="none" stroke="#bd6b20" stroke-width="2" opacity="0.35"/>
        <path d="M -38 12 L 38 12 M -32 -8 L 32 -8 M -45 -28 L 45 -28" stroke="#e09440" stroke-width="3" stroke-linecap="round"/>
        <rect x="-50" y="-44" width="100" height="80" fill="none" stroke="#bd6b20" stroke-width="2"/>
      </g>
  <g transform="translate(80, 90)">
    <rect x="0" y="0" rx="20" ry="20" width="112" height="38" fill="#bd6b20" opacity="0.18" stroke="#bd6b20" stroke-width="1.5"/>
    <text x="56" y="25" font-family="ui-sans-serif, Inter, sans-serif" font-weight="700" font-size="14" letter-spacing="2.5" fill="#bd6b20" text-anchor="middle">NEWSROOM</text>
  </g>
  <text x="80" y="465" font-family="ui-sans-serif, -apple-system, Segoe UI, Inter, sans-serif" font-weight="800" font-size="44" fill="#faf8f5" opacity="0.98"><tspan x="80" dy="0">Supreme Court - Balancing</tspan><tspan x="80" dy="56">CPC Principles and Section</tspan><tspan x="80" dy="56">9 Power in Interim Relief</tspan></text>
  <rect x="0" y="669" width="1200" height="6" fill="url(#gold)"/>
</svg>