<?xml version="1.0" encoding="UTF-8"?>
<svg xmlns="http://www.w3.org/2000/svg" viewBox="0 0 1200 675" width="1200" height="675" role="img" aria-label="Supreme Court vs. High Courts: Review Power under Section 11 of the Act">
  <defs>
    <linearGradient id="bg" x1="0%" y1="0%" x2="100%" y2="100%">
      <stop offset="0%" stop-color="#643516"/>
      <stop offset="100%" stop-color="#7d4315"/>
    </linearGradient>
    <linearGradient id="gold" x1="0%" y1="0%" x2="100%" y2="100%">
      <stop offset="0%" stop-color="#ecb478"/>
      <stop offset="100%" stop-color="#faebd6"/>
    </linearGradient>
    <radialGradient id="glow" cx="50%" cy="50%" r="50%">
      <stop offset="0%" stop-color="#ecb478" stop-opacity="0.45"/>
      <stop offset="100%" stop-color="#ecb478" stop-opacity="0"/>
    </radialGradient>
  </defs>
  <rect width="1200" height="675" fill="url(#bg)"/>
  <polygon points="521.5,210.7 648.1,175.8 683.1,302.4 556.4,337.3" fill="#faebd6" opacity="0.14"/><polygon points="500.2,237.4 381.1,397.6 192.0,333.8 194.2,134.2 384.7,74.7" fill="#faebd6" opacity="0.07"/><polygon points="1099.4,558.2 1210.7,578.8 1225.4,691.0 1123.3,739.7 1045.4,657.6" fill="#faebd6" opacity="0.10"/><polygon points="532.7,367.2 331.0,449.0 361.0,233.4" fill="#faebd6" opacity="0.16"/><polygon points="1013.0,418.3 952.1,368.9 980.4,295.8 1058.6,300.0 1078.8,375.7" fill="#faebd6" opacity="0.06"/><polygon points="459.8,504.6 508.5,503.7 524.4,549.8 485.5,579.2 445.5,551.2" fill="#faebd6" opacity="0.19"/><polygon points="473.7,-8.4 388.0,167.6 212.0,81.8 297.7,-94.2" fill="#faebd6" opacity="0.18"/><polygon points="579.1,212.8 635.3,226.1 640.0,283.7 586.7,306.0 549.1,262.2" fill="#faebd6" opacity="0.06"/><polygon points="611.0,264.2 676.8,336.5 628.3,421.5 532.6,401.7 521.8,304.4" fill="#faebd6" opacity="0.17"/><polygon points="317.9,491.1 398.2,639.4 282.0,761.7 129.8,688.9 152.0,521.7" fill="#faebd6" opacity="0.13"/><polygon points="1051.1,318.1 830.5,295.9 852.7,75.4 1073.2,97.6" fill="#faebd6" opacity="0.17"/><polygon points="74.2,453.4 139.3,559.6 58.4,654.4 -56.7,606.7 -47.0,482.5" fill="#faebd6" opacity="0.07"/><polygon points="874.4,223.4 923.7,355.3 784.8,332.0" fill="#faebd6" opacity="0.13"/><polygon points="537.9,187.5 442.7,346.4 283.8,251.2 379.0,92.3" fill="#faebd6" opacity="0.18"/><circle cx="936.0" cy="202.5" r="180" fill="url(#glow)"/>
  <g opacity="0.85" transform="translate(1020, 495)">
        <circle r="68" fill="none" stroke="#ecb478" stroke-width="2" opacity="0.35"/>
        <path d="M -38 12 L 38 12 M -32 -8 L 32 -8 M -45 -28 L 45 -28" stroke="#faebd6" stroke-width="3" stroke-linecap="round"/>
        <rect x="-50" y="-44" width="100" height="80" fill="none" stroke="#ecb478" stroke-width="2"/>
      </g>
  <g transform="translate(80, 90)">
    <rect x="0" y="0" rx="20" ry="20" width="112" height="38" fill="#ecb478" opacity="0.18" stroke="#ecb478" stroke-width="1.5"/>
    <text x="56" y="25" font-family="ui-sans-serif, Inter, sans-serif" font-weight="700" font-size="14" letter-spacing="2.5" fill="#ecb478" text-anchor="middle">NEWSROOM</text>
  </g>
  <text x="80" y="465" font-family="ui-sans-serif, -apple-system, Segoe UI, Inter, sans-serif" font-weight="800" font-size="44" fill="#faf8f5" opacity="0.98"><tspan x="80" dy="0">Supreme Court vs. High</tspan><tspan x="80" dy="56">Courts: Review Power under</tspan><tspan x="80" dy="56">Section 11 of the Act</tspan></text>
  <rect x="0" y="669" width="1200" height="6" fill="url(#gold)"/>
</svg>