<?xml version="1.0" encoding="UTF-8"?>
<svg xmlns="http://www.w3.org/2000/svg" viewBox="0 0 1200 675" width="1200" height="675" role="img" aria-label="Supreme Court Delves Deeper: Unstamped Arbitration Clauses Face Judicial Scrutiny in 'NN Global' Case Referred to Seven-Judge Bench">
  <defs>
    <linearGradient id="bg" x1="0%" y1="0%" x2="100%" y2="100%">
      <stop offset="0%" stop-color="#faf8f5"/>
      <stop offset="100%" stop-color="#f4efe8"/>
    </linearGradient>
    <linearGradient id="gold" x1="0%" y1="0%" x2="100%" y2="100%">
      <stop offset="0%" stop-color="#bd6b20"/>
      <stop offset="100%" stop-color="#9a5518"/>
    </linearGradient>
    <radialGradient id="glow" cx="50%" cy="50%" r="50%">
      <stop offset="0%" stop-color="#bd6b20" stop-opacity="0.45"/>
      <stop offset="100%" stop-color="#bd6b20" stop-opacity="0"/>
    </radialGradient>
  </defs>
  <rect width="1200" height="675" fill="url(#bg)"/>
  <circle cx="28.1" cy="31.2" r="3.57" fill="#bd6b20" opacity="0.24"/><circle cx="68.6" cy="30.6" r="1.93" fill="#bd6b20" opacity="0.31"/><circle cx="100.2" cy="28.8" r="3.14" fill="#bd6b20" opacity="0.16"/><circle cx="136.1" cy="28.2" r="2.66" fill="#bd6b20" opacity="0.35"/><circle cx="175.1" cy="28.5" r="3.41" fill="#bd6b20" opacity="0.35"/><circle cx="208.7" cy="31.3" r="2.73" fill="#bd6b20" opacity="0.29"/><circle cx="248.8" cy="30.1" r="1.83" fill="#bd6b20" opacity="0.29"/><circle cx="280.2" cy="27.9" r="3.96" fill="#bd6b20" opacity="0.27"/><circle cx="320.5" cy="31.2" r="2.85" fill="#bd6b20" opacity="0.26"/><circle cx="353.8" cy="32.5" r="2.43" fill="#bd6b20" opacity="0.22"/><circle cx="389.7" cy="31.4" r="2.73" fill="#bd6b20" opacity="0.23"/><circle cx="427.8" cy="28.4" r="3.10" fill="#bd6b20" opacity="0.25"/><circle cx="462.2" cy="28.3" r="1.82" fill="#bd6b20" opacity="0.35"/><circle cx="495.5" cy="28.4" r="3.67" fill="#bd6b20" opacity="0.17"/><circle cx="533.8" cy="32.3" r="2.70" fill="#bd6b20" opacity="0.17"/><circle cx="570.0" cy="30.1" r="3.33" fill="#bd6b20" opacity="0.28"/><circle cx="608.6" cy="31.1" r="3.05" fill="#bd6b20" opacity="0.25"/><circle cx="641.0" cy="30.4" r="2.63" fill="#bd6b20" opacity="0.21"/><circle cx="678.1" cy="32.5" r="2.41" fill="#bd6b20" opacity="0.19"/><circle cx="713.3" cy="28.4" r="3.70" fill="#bd6b20" opacity="0.34"/><circle cx="747.4" cy="29.7" r="3.20" fill="#bd6b20" opacity="0.27"/><circle cx="785.7" cy="32.5" r="1.67" fill="#bd6b20" opacity="0.15"/><circle cx="820.5" cy="32.9" r="4.00" fill="#bd6b20" opacity="0.27"/><circle cx="859.7" cy="28.1" r="3.23" fill="#bd6b20" opacity="0.32"/><circle cx="897.0" cy="31.5" r="3.60" fill="#bd6b20" opacity="0.33"/><circle cx="928.5" cy="28.6" r="2.04" fill="#bd6b20" opacity="0.33"/><circle cx="965.6" cy="27.2" r="2.71" fill="#bd6b20" opacity="0.23"/><circle cx="1004.2" cy="31.5" r="2.03" fill="#bd6b20" opacity="0.27"/><circle cx="1036.5" cy="29.7" r="2.14" fill="#bd6b20" opacity="0.26"/><circle cx="1072.6" cy="30.8" r="2.35" fill="#bd6b20" opacity="0.18"/><circle cx="1107.6" cy="30.4" r="2.91" fill="#bd6b20" opacity="0.23"/><circle cx="1145.1" cy="33.0" r="3.75" fill="#bd6b20" opacity="0.23"/><circle cx="1179.8" cy="31.2" r="2.51" fill="#bd6b20" opacity="0.20"/><circle cx="30.5" cy="65.0" r="2.46" fill="#bd6b20" opacity="0.20"/><circle cx="63.4" cy="65.9" r="2.82" fill="#bd6b20" opacity="0.29"/><circle cx="103.3" cy="67.0" r="1.68" fill="#bd6b20" opacity="0.31"/><circle cx="136.2" cy="66.5" r="2.34" fill="#bd6b20" opacity="0.16"/><circle cx="176.3" cy="68.7" r="1.71" fill="#bd6b20" opacity="0.30"/><circle cx="212.9" cy="66.1" r="2.19" fill="#bd6b20" opacity="0.31"/><circle cx="248.4" cy="67.8" r="2.61" fill="#bd6b20" opacity="0.25"/><circle cx="279.5" cy="65.2" r="3.32" fill="#bd6b20" opacity="0.26"/><circle cx="318.0" cy="67.7" r="2.97" fill="#bd6b20" opacity="0.19"/><circle cx="354.1" cy="66.7" r="3.80" fill="#bd6b20" opacity="0.28"/><circle cx="392.5" cy="68.5" r="1.73" fill="#bd6b20" opacity="0.16"/><circle cx="427.4" cy="66.2" r="2.81" fill="#bd6b20" opacity="0.22"/><circle cx="463.5" cy="65.0" r="1.63" fill="#bd6b20" opacity="0.21"/><circle cx="497.6" cy="68.9" r="2.06" fill="#bd6b20" opacity="0.24"/><circle cx="533.1" cy="64.9" r="2.28" fill="#bd6b20" opacity="0.17"/><circle cx="570.0" cy="65.0" r="1.71" fill="#bd6b20" opacity="0.25"/><circle cx="607.8" cy="66.1" r="1.87" fill="#bd6b20" opacity="0.21"/><circle cx="640.7" cy="63.9" r="3.87" fill="#bd6b20" opacity="0.25"/><circle cx="679.0" cy="68.9" r="3.49" fill="#bd6b20" opacity="0.32"/><circle cx="712.5" cy="66.6" r="2.11" fill="#bd6b20" opacity="0.19"/><circle cx="748.6" cy="65.9" r="2.86" fill="#bd6b20" opacity="0.19"/><circle cx="785.9" cy="64.7" r="3.36" fill="#bd6b20" opacity="0.27"/><circle cx="821.5" cy="68.1" r="2.30" fill="#bd6b20" opacity="0.20"/><circle cx="857.1" cy="63.8" r="3.33" fill="#bd6b20" opacity="0.24"/><circle cx="893.3" cy="63.3" r="2.85" fill="#bd6b20" opacity="0.21"/><circle cx="932.6" cy="66.4" r="1.80" fill="#bd6b20" opacity="0.17"/><circle cx="963.6" cy="68.4" r="2.65" fill="#bd6b20" opacity="0.16"/><circle cx="1002.8" cy="68.2" r="2.00" fill="#bd6b20" opacity="0.32"/><circle cx="1040.3" cy="65.7" r="1.85" fill="#bd6b20" opacity="0.25"/><circle cx="1073.4" cy="66.1" r="2.60" fill="#bd6b20" opacity="0.16"/><circle cx="1112.2" cy="64.6" r="2.93" fill="#bd6b20" opacity="0.35"/><circle cx="1146.3" cy="66.9" r="2.18" fill="#bd6b20" opacity="0.23"/><circle cx="1181.8" cy="64.4" r="3.55" fill="#bd6b20" opacity="0.26"/><circle cx="27.9" cy="99.5" r="3.57" fill="#bd6b20" opacity="0.22"/><circle cx="67.4" cy="103.7" r="3.77" fill="#bd6b20" opacity="0.33"/><circle cx="102.5" cy="100.0" r="3.47" fill="#bd6b20" opacity="0.33"/><circle cx="139.0" cy="99.8" r="2.83" fill="#bd6b20" opacity="0.23"/><circle cx="172.7" cy="104.0" r="3.11" fill="#bd6b20" opacity="0.33"/><circle cx="209.1" cy="103.2" r="1.88" fill="#bd6b20" opacity="0.25"/><circle cx="246.5" cy="104.6" r="3.68" fill="#bd6b20" opacity="0.33"/><circle cx="281.0" cy="102.2" r="1.71" fill="#bd6b20" opacity="0.28"/><circle cx="318.3" cy="102.6" r="2.54" fill="#bd6b20" opacity="0.27"/><circle cx="351.4" cy="104.4" r="2.27" fill="#bd6b20" opacity="0.36"/><circle cx="387.1" cy="102.3" r="2.31" fill="#bd6b20" opacity="0.29"/><circle cx="428.0" cy="100.8" r="1.73" fill="#bd6b20" opacity="0.16"/><circle cx="462.1" cy="104.6" r="2.46" fill="#bd6b20" opacity="0.19"/><circle cx="499.8" cy="99.6" r="2.63" fill="#bd6b20" opacity="0.27"/><circle cx="532.0" cy="101.9" r="1.95" fill="#bd6b20" opacity="0.36"/><circle cx="567.8" cy="104.3" r="2.04" fill="#bd6b20" opacity="0.24"/><circle cx="603.9" cy="104.1" r="3.65" fill="#bd6b20" opacity="0.32"/><circle cx="644.7" cy="102.0" r="1.74" fill="#bd6b20" opacity="0.21"/><circle cx="678.3" cy="103.5" r="3.36" fill="#bd6b20" opacity="0.25"/><circle cx="712.5" cy="102.9" r="2.06" fill="#bd6b20" opacity="0.16"/><circle cx="748.2" cy="105.0" r="3.18" fill="#bd6b20" opacity="0.34"/><circle cx="787.8" cy="100.0" r="3.73" fill="#bd6b20" opacity="0.21"/><circle cx="823.5" cy="102.8" r="2.64" fill="#bd6b20" opacity="0.16"/><circle cx="859.5" cy="101.8" r="1.61" fill="#bd6b20" opacity="0.24"/><circle cx="891.4" cy="99.8" r="3.40" fill="#bd6b20" opacity="0.18"/><circle cx="931.5" cy="104.9" r="2.49" fill="#bd6b20" opacity="0.29"/><circle cx="966.9" cy="101.1" r="2.62" fill="#bd6b20" opacity="0.29"/><circle cx="1001.4" cy="103.7" r="3.24" fill="#bd6b20" opacity="0.31"/><circle cx="1035.1" cy="100.7" r="1.92" fill="#bd6b20" opacity="0.18"/><circle cx="1076.3" cy="103.3" r="2.88" fill="#bd6b20" opacity="0.20"/><circle cx="1110.7" cy="104.9" r="3.92" fill="#bd6b20" opacity="0.21"/><circle cx="1147.3" cy="103.9" r="1.74" fill="#bd6b20" opacity="0.19"/><circle cx="1183.1" cy="102.2" r="3.50" fill="#bd6b20" opacity="0.29"/><circle cx="32.7" cy="139.0" r="3.43" fill="#bd6b20" opacity="0.16"/><circle cx="66.5" cy="138.6" r="3.54" fill="#bd6b20" opacity="0.35"/><circle cx="100.6" cy="139.4" r="2.96" fill="#bd6b20" opacity="0.36"/><circle cx="139.6" cy="137.2" r="2.32" fill="#bd6b20" opacity="0.34"/><circle cx="172.7" cy="140.2" r="2.10" fill="#bd6b20" opacity="0.33"/><circle cx="209.0" cy="140.1" r="3.44" fill="#bd6b20" opacity="0.25"/><circle cx="247.6" cy="136.6" r="2.92" fill="#bd6b20" opacity="0.32"/><circle cx="280.7" cy="137.4" r="1.79" fill="#bd6b20" opacity="0.23"/><circle cx="319.7" cy="140.5" r="2.22" fill="#bd6b20" opacity="0.21"/><circle cx="355.9" cy="138.8" r="1.87" fill="#bd6b20" opacity="0.32"/><circle cx="388.8" cy="139.2" r="2.39" fill="#bd6b20" opacity="0.17"/><circle cx="424.2" cy="139.6" r="2.14" fill="#bd6b20" opacity="0.29"/><circle cx="460.5" cy="135.2" r="2.64" fill="#bd6b20" opacity="0.36"/><circle cx="496.5" cy="136.1" r="1.99" fill="#bd6b20" opacity="0.19"/><circle cx="531.8" cy="139.6" r="3.52" fill="#bd6b20" opacity="0.35"/><circle cx="570.9" cy="140.3" r="2.71" fill="#bd6b20" opacity="0.35"/><circle cx="604.7" cy="136.0" r="3.04" fill="#bd6b20" opacity="0.31"/><circle cx="639.0" cy="137.1" r="1.92" fill="#bd6b20" opacity="0.28"/><circle cx="677.0" cy="135.7" r="2.81" fill="#bd6b20" opacity="0.29"/><circle cx="712.7" cy="135.1" r="3.26" fill="#bd6b20" opacity="0.30"/><circle cx="752.4" cy="139.4" r="2.81" fill="#bd6b20" opacity="0.20"/><circle cx="788.1" cy="137.9" r="2.15" fill="#bd6b20" opacity="0.22"/><circle cx="821.5" cy="137.3" r="1.69" fill="#bd6b20" opacity="0.34"/><circle cx="860.7" cy="137.4" r="1.79" fill="#bd6b20" opacity="0.24"/><circle cx="894.1" cy="135.1" r="2.19" fill="#bd6b20" opacity="0.26"/><circle cx="932.5" cy="136.5" r="1.66" fill="#bd6b20" opacity="0.30"/><circle cx="964.9" cy="139.2" r="2.42" fill="#bd6b20" opacity="0.19"/><circle cx="1001.2" cy="137.6" r="2.47" fill="#bd6b20" opacity="0.21"/><circle cx="1038.6" cy="139.3" r="2.44" fill="#bd6b20" opacity="0.15"/><circle cx="1071.8" cy="140.0" r="1.95" fill="#bd6b20" opacity="0.33"/><circle cx="1108.8" cy="140.7" r="2.33" fill="#bd6b20" opacity="0.18"/><circle cx="1147.3" cy="140.6" r="3.46" fill="#bd6b20" opacity="0.34"/><circle cx="1184.8" cy="140.2" r="2.00" fill="#bd6b20" opacity="0.25"/><circle cx="29.1" cy="176.2" r="3.68" fill="#bd6b20" opacity="0.21"/><circle cx="65.7" cy="172.3" r="1.96" fill="#bd6b20" opacity="0.22"/><circle cx="99.1" cy="173.9" r="2.22" fill="#bd6b20" opacity="0.20"/><circle cx="139.6" cy="172.7" r="2.51" fill="#bd6b20" opacity="0.22"/><circle cx="175.6" cy="175.3" r="2.93" fill="#bd6b20" opacity="0.20"/><circle cx="212.5" cy="175.1" r="2.91" fill="#bd6b20" opacity="0.34"/><circle cx="246.4" cy="176.8" r="3.14" fill="#bd6b20" opacity="0.28"/><circle cx="280.9" cy="174.3" r="3.80" fill="#bd6b20" opacity="0.23"/><circle cx="317.9" cy="172.3" r="3.20" fill="#bd6b20" opacity="0.25"/><circle cx="352.2" cy="175.2" r="2.29" fill="#bd6b20" opacity="0.15"/><circle cx="388.8" cy="175.3" r="2.23" fill="#bd6b20" opacity="0.29"/><circle cx="425.8" cy="175.2" r="3.70" fill="#bd6b20" opacity="0.20"/><circle cx="462.0" cy="172.8" r="2.40" fill="#bd6b20" opacity="0.27"/><circle cx="496.4" cy="173.7" r="2.80" fill="#bd6b20" opacity="0.21"/><circle cx="532.1" cy="174.6" r="1.80" fill="#bd6b20" opacity="0.21"/><circle cx="571.6" cy="173.8" r="3.16" fill="#bd6b20" opacity="0.16"/><circle cx="606.7" cy="173.1" r="3.43" fill="#bd6b20" opacity="0.16"/><circle cx="640.1" cy="176.7" r="2.39" fill="#bd6b20" opacity="0.26"/><circle cx="680.7" cy="176.0" r="3.46" fill="#bd6b20" opacity="0.24"/><circle cx="716.4" cy="171.9" r="2.49" fill="#bd6b20" opacity="0.33"/><circle cx="750.5" cy="171.5" r="2.82" fill="#bd6b20" opacity="0.26"/><circle cx="783.9" cy="173.7" r="1.81" fill="#bd6b20" opacity="0.26"/><circle cx="820.9" cy="173.3" r="2.28" fill="#bd6b20" opacity="0.20"/><circle cx="859.9" cy="175.4" r="3.37" fill="#bd6b20" opacity="0.19"/><circle cx="893.9" cy="175.8" r="2.61" fill="#bd6b20" opacity="0.35"/><circle cx="928.2" cy="173.9" r="1.61" fill="#bd6b20" opacity="0.18"/><circle cx="963.5" cy="175.2" r="3.35" fill="#bd6b20" opacity="0.16"/><circle cx="1004.2" cy="175.2" r="3.34" fill="#bd6b20" opacity="0.18"/><circle cx="1035.2" cy="172.8" r="3.88" fill="#bd6b20" opacity="0.17"/><circle cx="1075.7" cy="171.5" r="2.47" fill="#bd6b20" opacity="0.24"/><circle cx="1111.2" cy="172.3" r="3.81" fill="#bd6b20" opacity="0.25"/><circle cx="1145.4" cy="172.3" r="1.81" fill="#bd6b20" opacity="0.24"/><circle cx="1181.3" cy="174.5" r="2.94" fill="#bd6b20" opacity="0.33"/><circle cx="30.9" cy="210.5" r="3.80" fill="#bd6b20" opacity="0.17"/><circle cx="64.5" cy="207.0" r="2.49" fill="#bd6b20" opacity="0.18"/><circle cx="100.7" cy="207.9" r="2.65" fill="#bd6b20" opacity="0.17"/><circle cx="135.3" cy="211.9" r="3.98" fill="#bd6b20" opacity="0.16"/><circle cx="175.8" cy="209.5" r="3.28" fill="#bd6b20" opacity="0.29"/><circle cx="207.8" cy="209.1" r="3.79" fill="#bd6b20" opacity="0.24"/><circle cx="247.4" cy="212.3" r="2.50" fill="#bd6b20" opacity="0.19"/><circle cx="283.3" cy="207.3" r="2.89" fill="#bd6b20" opacity="0.18"/><circle cx="317.4" cy="211.6" r="2.00" fill="#bd6b20" opacity="0.17"/><circle cx="354.9" cy="211.9" r="2.33" fill="#bd6b20" opacity="0.24"/><circle cx="391.2" cy="210.9" r="3.41" fill="#bd6b20" opacity="0.16"/><circle cx="428.7" cy="209.3" r="3.32" fill="#bd6b20" opacity="0.31"/><circle cx="464.7" cy="207.1" r="1.77" fill="#bd6b20" opacity="0.32"/><circle cx="500.8" cy="208.6" r="3.69" fill="#bd6b20" opacity="0.35"/><circle cx="533.5" cy="208.1" r="2.89" fill="#bd6b20" opacity="0.18"/><circle cx="572.1" cy="212.7" r="1.63" fill="#bd6b20" opacity="0.35"/><circle cx="607.1" cy="208.3" r="3.71" fill="#bd6b20" opacity="0.33"/><circle cx="644.5" cy="211.6" r="2.26" fill="#bd6b20" opacity="0.29"/><circle cx="677.0" cy="209.3" r="2.92" fill="#bd6b20" opacity="0.33"/><circle cx="714.4" cy="212.3" r="1.76" fill="#bd6b20" opacity="0.35"/><circle cx="751.5" cy="207.9" r="2.28" fill="#bd6b20" opacity="0.28"/><circle cx="784.9" cy="207.1" r="2.67" fill="#bd6b20" opacity="0.30"/><circle cx="820.7" cy="211.6" r="2.98" fill="#bd6b20" opacity="0.17"/><circle cx="859.1" cy="212.4" r="2.20" fill="#bd6b20" opacity="0.21"/><circle cx="894.3" cy="208.5" r="1.64" fill="#bd6b20" opacity="0.17"/><circle cx="931.0" cy="210.8" r="1.92" fill="#bd6b20" opacity="0.29"/><circle cx="964.3" cy="208.7" r="3.54" fill="#bd6b20" opacity="0.32"/><circle cx="1004.7" cy="208.8" r="3.80" fill="#bd6b20" opacity="0.15"/><circle cx="1036.8" cy="209.5" r="3.12" fill="#bd6b20" opacity="0.31"/><circle cx="1074.6" cy="209.0" r="3.70" fill="#bd6b20" opacity="0.35"/><circle cx="1111.5" cy="211.6" r="2.66" fill="#bd6b20" opacity="0.30"/><circle cx="1143.5" cy="211.4" r="3.92" fill="#bd6b20" opacity="0.16"/><circle cx="1184.6" cy="208.6" r="2.01" fill="#bd6b20" opacity="0.33"/><circle cx="27.5" cy="244.0" r="2.56" fill="#bd6b20" opacity="0.30"/><circle cx="63.9" cy="244.8" r="3.73" fill="#bd6b20" opacity="0.33"/><circle cx="104.4" cy="246.2" r="3.04" fill="#bd6b20" opacity="0.26"/><circle cx="137.0" cy="248.9" r="1.67" fill="#bd6b20" opacity="0.25"/><circle cx="176.4" cy="244.6" r="2.82" fill="#bd6b20" opacity="0.33"/><circle cx="208.5" cy="246.8" r="2.09" fill="#bd6b20" opacity="0.25"/><circle cx="244.6" cy="244.1" r="3.79" fill="#bd6b20" opacity="0.19"/><circle cx="280.7" cy="244.9" r="3.24" fill="#bd6b20" opacity="0.31"/><circle cx="317.7" cy="248.1" r="2.61" fill="#bd6b20" opacity="0.15"/><circle cx="355.0" cy="247.3" r="1.79" fill="#bd6b20" opacity="0.29"/><circle cx="388.1" cy="245.1" r="2.58" fill="#bd6b20" opacity="0.20"/><circle cx="423.3" cy="244.3" r="1.71" fill="#bd6b20" opacity="0.22"/><circle cx="463.9" cy="248.3" r="2.32" fill="#bd6b20" opacity="0.17"/><circle cx="496.9" cy="244.7" r="2.83" fill="#bd6b20" opacity="0.26"/><circle cx="533.8" cy="243.4" r="3.11" fill="#bd6b20" opacity="0.21"/><circle cx="567.4" cy="247.9" r="3.62" fill="#bd6b20" opacity="0.26"/><circle cx="605.1" cy="243.6" r="2.75" fill="#bd6b20" opacity="0.16"/><circle cx="642.9" cy="247.7" r="1.88" fill="#bd6b20" opacity="0.25"/><circle cx="679.1" cy="247.6" r="3.42" fill="#bd6b20" opacity="0.22"/><circle cx="711.1" cy="244.9" r="2.37" fill="#bd6b20" opacity="0.25"/><circle cx="749.0" cy="244.4" r="2.95" fill="#bd6b20" opacity="0.26"/><circle cx="783.6" cy="248.7" r="3.13" fill="#bd6b20" opacity="0.18"/><circle cx="819.4" cy="246.4" r="3.13" fill="#bd6b20" opacity="0.27"/><circle cx="857.1" cy="243.2" r="3.13" fill="#bd6b20" opacity="0.21"/><circle cx="891.6" cy="245.7" r="3.17" fill="#bd6b20" opacity="0.23"/><circle cx="930.6" cy="247.2" r="1.83" fill="#bd6b20" opacity="0.23"/><circle cx="967.7" cy="247.7" r="3.59" fill="#bd6b20" opacity="0.21"/><circle cx="1002.7" cy="247.7" r="1.90" fill="#bd6b20" opacity="0.34"/><circle cx="1039.4" cy="248.7" r="3.49" fill="#bd6b20" opacity="0.20"/><circle cx="1075.0" cy="245.6" r="3.41" fill="#bd6b20" opacity="0.17"/><circle cx="1110.9" cy="245.4" r="2.98" fill="#bd6b20" opacity="0.36"/><circle cx="1143.8" cy="246.7" r="1.72" fill="#bd6b20" opacity="0.18"/><circle cx="1183.1" cy="248.3" r="2.54" fill="#bd6b20" opacity="0.30"/><circle cx="28.0" cy="284.7" r="2.39" fill="#bd6b20" opacity="0.26"/><circle cx="68.9" cy="282.1" r="2.81" fill="#bd6b20" opacity="0.30"/><circle cx="103.1" cy="282.3" r="1.87" fill="#bd6b20" opacity="0.23"/><circle cx="138.7" cy="280.5" r="2.18" fill="#bd6b20" opacity="0.30"/><circle cx="173.3" cy="281.2" r="3.88" fill="#bd6b20" opacity="0.36"/><circle cx="211.5" cy="279.4" r="1.98" fill="#bd6b20" opacity="0.21"/><circle cx="247.6" cy="283.9" r="3.58" fill="#bd6b20" opacity="0.31"/><circle cx="280.8" cy="284.4" r="1.72" fill="#bd6b20" opacity="0.28"/><circle cx="319.7" cy="283.8" r="3.57" fill="#bd6b20" opacity="0.25"/><circle cx="356.9" cy="280.8" r="3.01" fill="#bd6b20" opacity="0.24"/><circle cx="391.8" cy="284.2" r="3.76" fill="#bd6b20" opacity="0.22"/><circle cx="425.0" cy="283.2" r="3.53" fill="#bd6b20" opacity="0.29"/><circle cx="463.3" cy="282.0" r="3.88" fill="#bd6b20" opacity="0.23"/><circle cx="498.4" cy="284.7" r="2.69" fill="#bd6b20" opacity="0.16"/><circle cx="531.6" cy="282.8" r="1.97" fill="#bd6b20" opacity="0.26"/><circle cx="572.7" cy="280.6" r="2.31" fill="#bd6b20" opacity="0.29"/><circle cx="608.2" cy="279.2" r="2.16" fill="#bd6b20" opacity="0.31"/><circle cx="641.2" cy="284.9" r="3.12" fill="#bd6b20" opacity="0.27"/><circle cx="677.5" cy="282.8" r="3.94" fill="#bd6b20" opacity="0.22"/><circle cx="713.7" cy="282.5" r="3.47" fill="#bd6b20" opacity="0.16"/><circle cx="747.4" cy="279.8" r="1.92" fill="#bd6b20" opacity="0.26"/><circle cx="784.3" cy="279.4" r="3.21" fill="#bd6b20" opacity="0.32"/><circle cx="822.4" cy="281.1" r="3.33" fill="#bd6b20" opacity="0.33"/><circle cx="859.5" cy="283.6" r="2.43" fill="#bd6b20" opacity="0.24"/><circle cx="891.2" cy="282.4" r="1.73" fill="#bd6b20" opacity="0.25"/><circle cx="929.7" cy="284.1" r="1.69" fill="#bd6b20" opacity="0.24"/><circle cx="964.6" cy="282.2" r="2.42" fill="#bd6b20" opacity="0.31"/><circle cx="1000.3" cy="282.9" r="3.37" fill="#bd6b20" opacity="0.35"/><circle cx="1036.8" cy="284.0" r="3.05" fill="#bd6b20" opacity="0.21"/><circle cx="1072.4" cy="281.7" r="2.27" fill="#bd6b20" opacity="0.34"/><circle cx="1109.6" cy="281.2" r="3.29" fill="#bd6b20" opacity="0.24"/><circle cx="1146.5" cy="279.6" r="2.85" fill="#bd6b20" opacity="0.33"/><circle cx="1183.1" cy="284.3" r="3.14" fill="#bd6b20" opacity="0.34"/><circle cx="28.9" cy="317.6" r="2.68" fill="#bd6b20" opacity="0.16"/><circle cx="63.6" cy="319.6" r="3.82" fill="#bd6b20" opacity="0.25"/><circle cx="99.6" cy="318.1" r="2.28" fill="#bd6b20" opacity="0.19"/><circle cx="136.0" cy="319.2" r="2.51" fill="#bd6b20" opacity="0.32"/><circle cx="174.8" cy="320.8" r="3.59" fill="#bd6b20" opacity="0.34"/><circle cx="207.7" cy="318.8" r="2.21" fill="#bd6b20" opacity="0.32"/><circle cx="247.5" cy="319.4" r="2.60" fill="#bd6b20" opacity="0.31"/><circle cx="283.1" cy="320.4" r="2.92" fill="#bd6b20" opacity="0.16"/><circle cx="320.4" cy="315.7" r="2.47" fill="#bd6b20" opacity="0.17"/><circle cx="351.3" cy="317.1" r="1.68" fill="#bd6b20" opacity="0.16"/><circle cx="387.0" cy="316.4" r="2.30" fill="#bd6b20" opacity="0.18"/><circle cx="423.5" cy="315.7" r="2.92" fill="#bd6b20" opacity="0.32"/><circle cx="463.6" cy="319.5" r="3.93" fill="#bd6b20" opacity="0.35"/><circle cx="498.3" cy="320.1" r="3.70" fill="#bd6b20" opacity="0.34"/><circle cx="531.8" cy="316.0" r="2.67" fill="#bd6b20" opacity="0.28"/><circle cx="572.5" cy="315.2" r="1.60" fill="#bd6b20" opacity="0.24"/><circle cx="608.9" cy="315.2" r="3.85" fill="#bd6b20" opacity="0.17"/><circle cx="642.1" cy="320.4" r="3.98" fill="#bd6b20" opacity="0.18"/><circle cx="680.4" cy="319.2" r="1.61" fill="#bd6b20" opacity="0.27"/><circle cx="715.8" cy="320.3" r="3.79" fill="#bd6b20" opacity="0.30"/><circle cx="747.5" cy="319.7" r="3.17" fill="#bd6b20" opacity="0.25"/><circle cx="785.6" cy="319.4" r="1.66" fill="#bd6b20" opacity="0.29"/><circle cx="819.4" cy="317.1" r="2.27" fill="#bd6b20" opacity="0.17"/><circle cx="857.1" cy="320.9" r="3.67" fill="#bd6b20" opacity="0.21"/><circle cx="893.3" cy="315.5" r="3.74" fill="#bd6b20" opacity="0.34"/><circle cx="927.3" cy="318.5" r="2.86" fill="#bd6b20" opacity="0.19"/><circle cx="967.0" cy="319.0" r="1.66" fill="#bd6b20" opacity="0.27"/><circle cx="1004.0" cy="317.2" r="1.68" fill="#bd6b20" opacity="0.22"/><circle cx="1035.3" cy="317.4" r="1.66" fill="#bd6b20" opacity="0.32"/><circle cx="1071.6" cy="319.0" r="2.32" fill="#bd6b20" opacity="0.26"/><circle cx="1112.5" cy="316.4" r="3.33" fill="#bd6b20" opacity="0.27"/><circle cx="1147.0" cy="315.8" r="3.24" fill="#bd6b20" opacity="0.19"/><circle cx="1181.1" cy="316.1" r="2.28" fill="#bd6b20" opacity="0.21"/><circle cx="31.2" cy="354.0" r="2.35" fill="#bd6b20" opacity="0.17"/><circle cx="63.0" cy="351.3" r="2.67" fill="#bd6b20" opacity="0.31"/><circle cx="102.0" cy="353.4" r="2.60" fill="#bd6b20" opacity="0.35"/><circle cx="137.0" cy="357.0" r="3.04" fill="#bd6b20" opacity="0.29"/><circle cx="175.0" cy="351.1" r="3.08" fill="#bd6b20" opacity="0.23"/><circle cx="210.1" cy="355.4" r="3.80" fill="#bd6b20" opacity="0.34"/><circle cx="243.8" cy="355.3" r="2.61" fill="#bd6b20" opacity="0.27"/><circle cx="280.4" cy="354.5" r="2.61" fill="#bd6b20" opacity="0.31"/><circle cx="320.1" cy="353.3" r="2.04" fill="#bd6b20" opacity="0.20"/><circle cx="351.9" cy="351.9" r="1.74" fill="#bd6b20" opacity="0.34"/><circle cx="392.3" cy="352.6" r="1.86" fill="#bd6b20" opacity="0.23"/><circle cx="425.4" cy="355.6" r="3.85" fill="#bd6b20" opacity="0.35"/><circle cx="464.9" cy="353.7" r="1.95" fill="#bd6b20" opacity="0.20"/><circle cx="500.1" cy="353.7" r="3.07" fill="#bd6b20" opacity="0.28"/><circle cx="531.5" cy="351.1" r="1.97" fill="#bd6b20" opacity="0.23"/><circle cx="572.4" cy="355.6" r="3.91" fill="#bd6b20" opacity="0.28"/><circle cx="603.1" cy="354.4" r="3.82" fill="#bd6b20" opacity="0.17"/><circle cx="640.0" cy="356.8" r="2.00" fill="#bd6b20" opacity="0.32"/><circle cx="678.7" cy="354.4" r="2.73" fill="#bd6b20" opacity="0.21"/><circle cx="712.8" cy="352.7" r="2.67" fill="#bd6b20" opacity="0.26"/><circle cx="751.1" cy="352.3" r="1.83" fill="#bd6b20" opacity="0.22"/><circle cx="783.1" cy="352.5" r="3.12" fill="#bd6b20" opacity="0.35"/><circle cx="821.6" cy="355.4" r="1.69" fill="#bd6b20" opacity="0.29"/><circle cx="859.2" cy="354.9" r="3.42" fill="#bd6b20" opacity="0.17"/><circle cx="895.7" cy="351.7" r="3.07" fill="#bd6b20" opacity="0.15"/><circle cx="930.3" cy="353.2" r="1.86" fill="#bd6b20" opacity="0.22"/><circle cx="966.5" cy="351.2" r="2.74" fill="#bd6b20" opacity="0.34"/><circle cx="1002.7" cy="353.2" r="3.22" fill="#bd6b20" opacity="0.15"/><circle cx="1036.5" cy="353.9" r="3.71" fill="#bd6b20" opacity="0.32"/><circle cx="1076.7" cy="352.3" r="1.92" fill="#bd6b20" opacity="0.23"/><circle cx="1109.7" cy="352.7" r="3.61" fill="#bd6b20" opacity="0.28"/><circle cx="1144.1" cy="352.7" r="2.12" fill="#bd6b20" opacity="0.17"/><circle cx="1182.7" cy="352.5" r="2.62" fill="#bd6b20" opacity="0.28"/><circle cx="32.8" cy="388.4" r="3.27" fill="#bd6b20" opacity="0.29"/><circle cx="65.7" cy="391.8" r="2.59" fill="#bd6b20" opacity="0.24"/><circle cx="100.6" cy="388.0" r="2.14" fill="#bd6b20" opacity="0.26"/><circle cx="139.2" cy="392.1" r="3.14" fill="#bd6b20" opacity="0.23"/><circle cx="171.7" cy="392.5" r="2.84" fill="#bd6b20" opacity="0.18"/><circle cx="212.2" cy="387.8" r="3.07" fill="#bd6b20" opacity="0.33"/><circle cx="245.8" cy="389.1" r="1.92" fill="#bd6b20" opacity="0.31"/><circle cx="279.5" cy="389.7" r="3.73" fill="#bd6b20" opacity="0.30"/><circle cx="319.9" cy="388.0" r="3.46" fill="#bd6b20" opacity="0.27"/><circle cx="356.4" cy="388.7" r="2.21" fill="#bd6b20" opacity="0.17"/><circle cx="389.2" cy="389.6" r="3.92" fill="#bd6b20" opacity="0.22"/><circle cx="425.7" cy="387.1" r="3.41" fill="#bd6b20" opacity="0.20"/><circle cx="462.7" cy="391.3" r="3.34" fill="#bd6b20" opacity="0.22"/><circle cx="498.7" cy="391.5" r="1.76" fill="#bd6b20" opacity="0.29"/><circle cx="531.1" cy="389.6" r="3.15" fill="#bd6b20" opacity="0.31"/><circle cx="570.3" cy="392.9" r="1.60" fill="#bd6b20" opacity="0.29"/><circle cx="603.5" cy="390.7" r="1.87" fill="#bd6b20" opacity="0.28"/><circle cx="640.4" cy="390.4" r="2.59" fill="#bd6b20" opacity="0.20"/><circle cx="678.2" cy="391.4" r="3.11" fill="#bd6b20" opacity="0.23"/><circle cx="716.8" cy="389.3" r="2.76" fill="#bd6b20" opacity="0.22"/><circle cx="750.0" cy="391.8" r="1.86" fill="#bd6b20" opacity="0.34"/><circle cx="787.7" cy="387.1" r="2.37" fill="#bd6b20" opacity="0.27"/><circle cx="820.5" cy="389.3" r="3.27" fill="#bd6b20" opacity="0.16"/><circle cx="858.3" cy="387.3" r="3.77" fill="#bd6b20" opacity="0.33"/><circle cx="895.5" cy="387.7" r="2.66" fill="#bd6b20" opacity="0.28"/><circle cx="932.7" cy="392.7" r="3.99" fill="#bd6b20" opacity="0.35"/><circle cx="964.3" cy="387.2" r="2.44" fill="#bd6b20" opacity="0.16"/><circle cx="1004.5" cy="392.9" r="2.37" fill="#bd6b20" opacity="0.34"/><circle cx="1037.4" cy="390.4" r="3.63" fill="#bd6b20" opacity="0.25"/><circle cx="1071.2" cy="392.0" r="3.09" fill="#bd6b20" opacity="0.27"/><circle cx="1110.2" cy="391.0" r="3.43" fill="#bd6b20" opacity="0.16"/><circle cx="1146.7" cy="391.0" r="3.30" fill="#bd6b20" opacity="0.17"/><circle cx="1181.0" cy="387.1" r="1.95" fill="#bd6b20" opacity="0.28"/><circle cx="28.7" cy="427.4" r="3.38" fill="#bd6b20" opacity="0.24"/><circle cx="64.2" cy="425.0" r="1.83" fill="#bd6b20" opacity="0.32"/><circle cx="102.8" cy="425.6" r="2.04" fill="#bd6b20" opacity="0.27"/><circle cx="139.4" cy="424.3" r="2.10" fill="#bd6b20" opacity="0.35"/><circle cx="175.5" cy="427.0" r="2.91" fill="#bd6b20" opacity="0.31"/><circle cx="209.9" cy="425.3" r="3.97" fill="#bd6b20" opacity="0.20"/><circle cx="244.5" cy="428.9" r="3.28" fill="#bd6b20" opacity="0.21"/><circle cx="282.1" cy="425.5" r="2.16" fill="#bd6b20" opacity="0.25"/><circle cx="315.9" cy="426.1" r="3.72" fill="#bd6b20" opacity="0.21"/><circle cx="354.6" cy="425.7" r="1.98" fill="#bd6b20" opacity="0.32"/><circle cx="391.0" cy="427.2" r="1.83" fill="#bd6b20" opacity="0.26"/><circle cx="424.0" cy="425.2" r="1.61" fill="#bd6b20" opacity="0.16"/><circle cx="464.6" cy="425.5" r="3.65" fill="#bd6b20" opacity="0.28"/><circle cx="495.7" cy="428.6" r="1.98" fill="#bd6b20" opacity="0.36"/><circle cx="531.2" cy="425.5" r="3.97" fill="#bd6b20" opacity="0.31"/><circle cx="570.1" cy="423.6" r="3.42" fill="#bd6b20" opacity="0.23"/><circle cx="603.1" cy="428.4" r="1.60" fill="#bd6b20" opacity="0.22"/><circle cx="641.4" cy="424.1" r="1.75" fill="#bd6b20" opacity="0.20"/><circle cx="675.3" cy="427.3" r="2.87" fill="#bd6b20" opacity="0.15"/><circle cx="712.5" cy="424.3" r="2.34" fill="#bd6b20" opacity="0.24"/><circle cx="751.5" cy="428.3" r="2.61" fill="#bd6b20" opacity="0.24"/><circle cx="787.2" cy="424.7" r="2.88" fill="#bd6b20" opacity="0.28"/><circle cx="821.5" cy="425.7" r="2.40" fill="#bd6b20" opacity="0.16"/><circle cx="856.6" cy="428.8" r="2.98" fill="#bd6b20" opacity="0.34"/><circle cx="892.5" cy="428.1" r="1.94" fill="#bd6b20" opacity="0.35"/><circle cx="930.3" cy="428.5" r="2.27" fill="#bd6b20" opacity="0.25"/><circle cx="965.6" cy="428.1" r="1.61" fill="#bd6b20" opacity="0.16"/><circle cx="999.2" cy="423.5" r="2.56" fill="#bd6b20" opacity="0.35"/><circle cx="1037.5" cy="424.8" r="2.69" fill="#bd6b20" opacity="0.33"/><circle cx="1073.8" cy="427.4" r="3.48" fill="#bd6b20" opacity="0.28"/><circle cx="1112.1" cy="425.6" r="2.64" fill="#bd6b20" opacity="0.21"/><circle cx="1145.9" cy="426.9" r="3.85" fill="#bd6b20" opacity="0.24"/><circle cx="1183.6" cy="427.1" r="3.78" fill="#bd6b20" opacity="0.16"/><circle cx="27.1" cy="459.0" r="2.12" fill="#bd6b20" opacity="0.30"/><circle cx="67.9" cy="463.5" r="3.08" fill="#bd6b20" opacity="0.31"/><circle cx="99.5" cy="462.3" r="2.53" fill="#bd6b20" opacity="0.16"/><circle cx="140.7" cy="462.6" r="2.67" fill="#bd6b20" opacity="0.30"/><circle cx="172.4" cy="463.6" r="2.77" fill="#bd6b20" opacity="0.30"/><circle cx="207.5" cy="461.9" r="2.39" fill="#bd6b20" opacity="0.23"/><circle cx="248.4" cy="459.6" r="2.37" fill="#bd6b20" opacity="0.21"/><circle cx="284.3" cy="464.0" r="1.73" fill="#bd6b20" opacity="0.35"/><circle cx="320.0" cy="463.4" r="1.97" fill="#bd6b20" opacity="0.29"/><circle cx="354.2" cy="464.2" r="2.70" fill="#bd6b20" opacity="0.21"/><circle cx="391.4" cy="460.7" r="2.60" fill="#bd6b20" opacity="0.21"/><circle cx="423.0" cy="460.3" r="2.91" fill="#bd6b20" opacity="0.34"/><circle cx="464.3" cy="464.5" r="3.83" fill="#bd6b20" opacity="0.24"/><circle cx="497.8" cy="461.3" r="1.99" fill="#bd6b20" opacity="0.28"/><circle cx="532.1" cy="461.5" r="3.02" fill="#bd6b20" opacity="0.28"/><circle cx="567.6" cy="460.3" r="2.04" fill="#bd6b20" opacity="0.22"/><circle cx="604.8" cy="462.4" r="2.12" fill="#bd6b20" opacity="0.35"/><circle cx="644.2" cy="459.6" r="1.68" fill="#bd6b20" opacity="0.22"/><circle cx="677.7" cy="463.5" r="3.70" fill="#bd6b20" opacity="0.26"/><circle cx="716.2" cy="460.4" r="3.90" fill="#bd6b20" opacity="0.28"/><circle cx="750.0" cy="463.7" r="2.84" fill="#bd6b20" opacity="0.17"/><circle cx="783.6" cy="462.3" r="3.25" fill="#bd6b20" opacity="0.29"/><circle cx="820.7" cy="464.0" r="2.20" fill="#bd6b20" opacity="0.36"/><circle cx="858.0" cy="460.5" r="1.64" fill="#bd6b20" opacity="0.19"/><circle cx="894.8" cy="462.1" r="3.91" fill="#bd6b20" opacity="0.19"/><circle cx="928.5" cy="463.9" r="3.33" fill="#bd6b20" opacity="0.32"/><circle cx="964.6" cy="462.0" r="3.34" fill="#bd6b20" opacity="0.21"/><circle cx="1003.2" cy="462.4" r="3.70" fill="#bd6b20" opacity="0.18"/><circle cx="1037.1" cy="464.6" r="2.49" fill="#bd6b20" opacity="0.30"/><circle cx="1074.2" cy="464.5" r="2.07" fill="#bd6b20" opacity="0.21"/><circle cx="1111.5" cy="459.8" r="2.76" fill="#bd6b20" opacity="0.27"/><circle cx="1148.0" cy="464.5" r="2.80" fill="#bd6b20" opacity="0.20"/><circle cx="1183.2" cy="463.9" r="3.53" fill="#bd6b20" opacity="0.36"/><circle cx="31.9" cy="496.3" r="2.52" fill="#bd6b20" opacity="0.24"/><circle cx="65.8" cy="496.1" r="3.05" fill="#bd6b20" opacity="0.30"/><circle cx="104.6" cy="498.7" r="2.16" fill="#bd6b20" opacity="0.26"/><circle cx="137.0" cy="499.7" r="3.95" fill="#bd6b20" opacity="0.22"/><circle cx="175.4" cy="498.5" r="1.91" fill="#bd6b20" opacity="0.20"/><circle cx="211.5" cy="495.4" r="2.55" fill="#bd6b20" opacity="0.19"/><circle cx="243.5" cy="498.7" r="2.30" fill="#bd6b20" opacity="0.28"/><circle cx="282.2" cy="499.7" r="2.46" fill="#bd6b20" opacity="0.29"/><circle cx="318.1" cy="500.6" r="3.31" fill="#bd6b20" opacity="0.27"/><circle cx="355.6" cy="500.9" r="3.27" fill="#bd6b20" opacity="0.32"/><circle cx="392.2" cy="495.2" r="1.90" fill="#bd6b20" opacity="0.26"/><circle cx="423.1" cy="498.6" r="3.69" fill="#bd6b20" opacity="0.25"/><circle cx="459.3" cy="497.9" r="3.86" fill="#bd6b20" opacity="0.27"/><circle cx="495.7" cy="499.3" r="3.35" fill="#bd6b20" opacity="0.34"/><circle cx="533.2" cy="497.7" r="3.39" fill="#bd6b20" opacity="0.35"/><circle cx="572.5" cy="496.2" r="1.69" fill="#bd6b20" opacity="0.17"/><circle cx="606.3" cy="499.8" r="3.90" fill="#bd6b20" opacity="0.19"/><circle cx="644.7" cy="496.0" r="1.70" fill="#bd6b20" opacity="0.26"/><circle cx="680.8" cy="496.5" r="2.36" fill="#bd6b20" opacity="0.25"/><circle cx="713.8" cy="498.4" r="1.68" fill="#bd6b20" opacity="0.35"/><circle cx="749.6" cy="496.9" r="2.32" fill="#bd6b20" opacity="0.18"/><circle cx="788.7" cy="500.8" r="2.93" fill="#bd6b20" opacity="0.36"/><circle cx="820.4" cy="496.5" r="2.73" fill="#bd6b20" opacity="0.35"/><circle cx="855.5" cy="496.9" r="2.65" fill="#bd6b20" opacity="0.28"/><circle cx="894.7" cy="500.4" r="1.77" fill="#bd6b20" opacity="0.29"/><circle cx="930.1" cy="500.3" r="3.03" fill="#bd6b20" opacity="0.23"/><circle cx="964.2" cy="499.0" r="3.18" fill="#bd6b20" opacity="0.16"/><circle cx="1001.9" cy="495.7" r="3.62" fill="#bd6b20" opacity="0.20"/><circle cx="1040.5" cy="496.9" r="3.22" fill="#bd6b20" opacity="0.29"/><circle cx="1074.9" cy="499.3" r="2.52" fill="#bd6b20" opacity="0.35"/><circle cx="1109.2" cy="498.8" r="3.60" fill="#bd6b20" opacity="0.22"/><circle cx="1146.6" cy="495.5" r="1.95" fill="#bd6b20" opacity="0.34"/><circle cx="1182.4" cy="498.2" r="2.53" fill="#bd6b20" opacity="0.20"/><circle cx="31.8" cy="535.6" r="3.26" fill="#bd6b20" opacity="0.28"/><circle cx="63.6" cy="532.0" r="2.68" fill="#bd6b20" opacity="0.18"/><circle cx="100.9" cy="536.0" r="1.80" fill="#bd6b20" opacity="0.20"/><circle cx="135.9" cy="531.7" r="3.20" fill="#bd6b20" opacity="0.26"/><circle cx="175.2" cy="533.1" r="2.19" fill="#bd6b20" opacity="0.19"/><circle cx="209.8" cy="533.4" r="1.80" fill="#bd6b20" opacity="0.27"/><circle cx="247.7" cy="531.6" r="3.30" fill="#bd6b20" opacity="0.34"/><circle cx="280.7" cy="535.0" r="1.77" fill="#bd6b20" opacity="0.28"/><circle cx="320.9" cy="536.8" r="2.90" fill="#bd6b20" opacity="0.26"/><circle cx="351.3" cy="536.4" r="3.74" fill="#bd6b20" opacity="0.26"/><circle cx="390.4" cy="534.5" r="2.70" fill="#bd6b20" opacity="0.16"/><circle cx="426.7" cy="534.2" r="2.89" fill="#bd6b20" opacity="0.33"/><circle cx="462.0" cy="532.8" r="3.72" fill="#bd6b20" opacity="0.22"/><circle cx="498.6" cy="535.9" r="1.61" fill="#bd6b20" opacity="0.19"/><circle cx="534.9" cy="536.8" r="2.92" fill="#bd6b20" opacity="0.20"/><circle cx="570.4" cy="534.7" r="2.54" fill="#bd6b20" opacity="0.33"/><circle cx="603.4" cy="531.8" r="3.22" fill="#bd6b20" opacity="0.34"/><circle cx="639.6" cy="533.5" r="3.89" fill="#bd6b20" opacity="0.25"/><circle cx="675.9" cy="533.5" r="3.81" fill="#bd6b20" opacity="0.33"/><circle cx="713.2" cy="535.3" r="3.49" fill="#bd6b20" opacity="0.16"/><circle cx="748.5" cy="534.2" r="3.55" fill="#bd6b20" opacity="0.34"/><circle cx="789.0" cy="533.7" r="3.57" fill="#bd6b20" opacity="0.34"/><circle cx="823.7" cy="531.9" r="2.26" fill="#bd6b20" opacity="0.23"/><circle cx="855.0" cy="532.0" r="2.48" fill="#bd6b20" opacity="0.20"/><circle cx="895.5" cy="536.9" r="2.45" fill="#bd6b20" opacity="0.33"/><circle cx="927.6" cy="531.7" r="3.31" fill="#bd6b20" opacity="0.36"/><circle cx="965.6" cy="533.4" r="2.47" fill="#bd6b20" opacity="0.29"/><circle cx="1003.7" cy="536.1" r="2.87" fill="#bd6b20" opacity="0.25"/><circle cx="1038.5" cy="534.2" r="2.09" fill="#bd6b20" opacity="0.29"/><circle cx="1073.7" cy="532.7" r="2.74" fill="#bd6b20" opacity="0.15"/><circle cx="1108.5" cy="532.6" r="3.96" fill="#bd6b20" opacity="0.20"/><circle cx="1148.5" cy="535.2" r="1.68" fill="#bd6b20" opacity="0.22"/><circle cx="1179.9" cy="536.0" r="2.50" fill="#bd6b20" opacity="0.22"/><circle cx="28.5" cy="568.5" r="1.71" fill="#bd6b20" opacity="0.31"/><circle cx="63.6" cy="571.2" r="2.48" fill="#bd6b20" opacity="0.26"/><circle cx="101.3" cy="568.9" r="2.71" fill="#bd6b20" opacity="0.16"/><circle cx="137.2" cy="571.5" r="2.88" fill="#bd6b20" opacity="0.28"/><circle cx="173.0" cy="568.1" r="3.64" fill="#bd6b20" opacity="0.34"/><circle cx="207.3" cy="571.6" r="3.21" fill="#bd6b20" opacity="0.29"/><circle cx="245.1" cy="570.1" r="3.35" fill="#bd6b20" opacity="0.21"/><circle cx="282.9" cy="567.6" r="3.47" fill="#bd6b20" opacity="0.29"/><circle cx="318.2" cy="567.6" r="3.89" fill="#bd6b20" opacity="0.19"/><circle cx="353.3" cy="571.9" r="2.48" fill="#bd6b20" opacity="0.35"/><circle cx="388.3" cy="567.8" r="3.68" fill="#bd6b20" opacity="0.15"/><circle cx="424.5" cy="570.0" r="1.72" fill="#bd6b20" opacity="0.23"/><circle cx="460.0" cy="571.9" r="1.68" fill="#bd6b20" opacity="0.24"/><circle cx="500.0" cy="567.8" r="1.73" fill="#bd6b20" opacity="0.27"/><circle cx="532.3" cy="568.4" r="2.68" fill="#bd6b20" opacity="0.20"/><circle cx="570.9" cy="569.3" r="2.77" fill="#bd6b20" opacity="0.19"/><circle cx="607.9" cy="568.2" r="3.94" fill="#bd6b20" opacity="0.36"/><circle cx="641.4" cy="569.5" r="3.24" fill="#bd6b20" opacity="0.27"/><circle cx="677.4" cy="568.9" r="3.36" fill="#bd6b20" opacity="0.24"/><circle cx="715.2" cy="569.1" r="2.21" fill="#bd6b20" opacity="0.21"/><circle cx="748.3" cy="569.3" r="3.03" fill="#bd6b20" opacity="0.30"/><circle cx="784.7" cy="568.4" r="1.70" fill="#bd6b20" opacity="0.16"/><circle cx="819.1" cy="570.1" r="2.89" fill="#bd6b20" opacity="0.17"/><circle cx="860.6" cy="567.9" r="2.04" fill="#bd6b20" opacity="0.17"/><circle cx="892.9" cy="572.4" r="2.56" fill="#bd6b20" opacity="0.24"/><circle cx="929.8" cy="567.4" r="3.60" fill="#bd6b20" opacity="0.28"/><circle cx="964.9" cy="570.1" r="3.86" fill="#bd6b20" opacity="0.28"/><circle cx="1003.6" cy="568.8" r="3.05" fill="#bd6b20" opacity="0.26"/><circle cx="1035.1" cy="568.1" r="2.67" fill="#bd6b20" opacity="0.18"/><circle cx="1075.0" cy="568.1" r="1.81" fill="#bd6b20" opacity="0.19"/><circle cx="1108.0" cy="568.2" r="3.96" fill="#bd6b20" opacity="0.22"/><circle cx="1143.2" cy="572.2" r="2.92" fill="#bd6b20" opacity="0.25"/><circle cx="1183.1" cy="571.7" r="3.76" fill="#bd6b20" opacity="0.15"/><circle cx="28.8" cy="606.0" r="2.31" fill="#bd6b20" opacity="0.31"/><circle cx="64.7" cy="606.4" r="1.69" fill="#bd6b20" opacity="0.19"/><circle cx="99.3" cy="603.7" r="3.67" fill="#bd6b20" opacity="0.34"/><circle cx="138.2" cy="605.4" r="3.60" fill="#bd6b20" opacity="0.21"/><circle cx="174.4" cy="607.6" r="2.33" fill="#bd6b20" opacity="0.32"/><circle cx="209.5" cy="605.8" r="1.83" fill="#bd6b20" opacity="0.24"/><circle cx="245.9" cy="604.9" r="1.96" fill="#bd6b20" opacity="0.35"/><circle cx="279.4" cy="608.5" r="3.72" fill="#bd6b20" opacity="0.18"/><circle cx="320.8" cy="604.7" r="1.87" fill="#bd6b20" opacity="0.35"/><circle cx="354.9" cy="607.7" r="1.98" fill="#bd6b20" opacity="0.21"/><circle cx="390.4" cy="603.2" r="3.48" fill="#bd6b20" opacity="0.24"/><circle cx="425.4" cy="604.7" r="1.88" fill="#bd6b20" opacity="0.33"/><circle cx="463.5" cy="606.3" r="3.65" fill="#bd6b20" opacity="0.20"/><circle cx="495.6" cy="603.2" r="3.08" fill="#bd6b20" opacity="0.22"/><circle cx="533.0" cy="605.2" r="3.88" fill="#bd6b20" opacity="0.21"/><circle cx="570.6" cy="606.3" r="2.37" fill="#bd6b20" opacity="0.22"/><circle cx="604.8" cy="605.5" r="1.82" fill="#bd6b20" opacity="0.16"/><circle cx="644.4" cy="608.1" r="2.10" fill="#bd6b20" opacity="0.24"/><circle cx="678.4" cy="608.6" r="1.85" fill="#bd6b20" opacity="0.31"/><circle cx="713.1" cy="608.6" r="1.67" fill="#bd6b20" opacity="0.17"/><circle cx="752.4" cy="605.3" r="2.94" fill="#bd6b20" opacity="0.29"/><circle cx="787.9" cy="603.3" r="3.96" fill="#bd6b20" opacity="0.32"/><circle cx="819.7" cy="608.4" r="3.44" fill="#bd6b20" opacity="0.18"/><circle cx="855.2" cy="608.8" r="2.21" fill="#bd6b20" opacity="0.24"/><circle cx="894.9" cy="609.0" r="2.00" fill="#bd6b20" opacity="0.35"/><circle cx="931.5" cy="606.7" r="3.81" fill="#bd6b20" opacity="0.23"/><circle cx="965.5" cy="604.1" r="2.52" fill="#bd6b20" opacity="0.19"/><circle cx="999.7" cy="606.5" r="2.42" fill="#bd6b20" opacity="0.30"/><circle cx="1036.2" cy="608.1" r="2.76" fill="#bd6b20" opacity="0.28"/><circle cx="1072.5" cy="604.9" r="3.24" fill="#bd6b20" opacity="0.16"/><circle cx="1110.0" cy="604.6" r="3.96" fill="#bd6b20" opacity="0.25"/><circle cx="1145.9" cy="607.3" r="1.63" fill="#bd6b20" opacity="0.18"/><circle cx="1181.6" cy="607.1" r="2.86" fill="#bd6b20" opacity="0.35"/><circle cx="32.5" cy="642.3" r="1.96" fill="#bd6b20" opacity="0.28"/><circle cx="63.3" cy="642.6" r="3.57" fill="#bd6b20" opacity="0.27"/><circle cx="104.3" cy="640.6" r="3.19" fill="#bd6b20" opacity="0.28"/><circle cx="140.5" cy="640.2" r="2.79" fill="#bd6b20" opacity="0.19"/><circle cx="174.8" cy="643.2" r="3.02" fill="#bd6b20" opacity="0.22"/><circle cx="207.4" cy="642.1" r="2.63" fill="#bd6b20" opacity="0.18"/><circle cx="244.0" cy="642.9" r="2.17" fill="#bd6b20" opacity="0.16"/><circle cx="283.5" cy="643.7" r="1.70" fill="#bd6b20" opacity="0.28"/><circle cx="319.3" cy="639.0" r="2.80" fill="#bd6b20" opacity="0.29"/><circle cx="352.8" cy="639.8" r="2.52" fill="#bd6b20" opacity="0.30"/><circle cx="388.9" cy="642.0" r="2.70" fill="#bd6b20" opacity="0.21"/><circle cx="427.9" cy="641.1" r="3.83" fill="#bd6b20" opacity="0.16"/><circle cx="462.5" cy="639.9" r="1.62" fill="#bd6b20" opacity="0.21"/><circle cx="496.4" cy="639.8" r="2.27" fill="#bd6b20" opacity="0.20"/><circle cx="536.9" cy="642.7" r="1.89" fill="#bd6b20" opacity="0.27"/><circle cx="569.6" cy="642.8" r="2.56" fill="#bd6b20" opacity="0.36"/><circle cx="607.6" cy="641.6" r="2.65" fill="#bd6b20" opacity="0.26"/><circle cx="642.1" cy="640.2" r="2.25" fill="#bd6b20" opacity="0.27"/><circle cx="680.3" cy="640.6" r="1.86" fill="#bd6b20" opacity="0.29"/><circle cx="713.3" cy="641.8" r="3.85" fill="#bd6b20" opacity="0.22"/><circle cx="750.3" cy="639.0" r="2.64" fill="#bd6b20" opacity="0.33"/><circle cx="784.9" cy="641.9" r="1.71" fill="#bd6b20" opacity="0.29"/><circle cx="819.1" cy="639.2" r="3.53" fill="#bd6b20" opacity="0.28"/><circle cx="859.0" cy="640.7" r="3.41" fill="#bd6b20" opacity="0.19"/><circle cx="896.7" cy="643.6" r="1.72" fill="#bd6b20" opacity="0.36"/><circle cx="927.9" cy="640.7" r="1.94" fill="#bd6b20" opacity="0.25"/><circle cx="966.7" cy="640.1" r="1.88" fill="#bd6b20" opacity="0.24"/><circle cx="1004.7" cy="641.6" r="3.78" fill="#bd6b20" opacity="0.23"/><circle cx="1039.9" cy="643.3" r="2.33" fill="#bd6b20" opacity="0.31"/><circle cx="1075.8" cy="643.5" r="3.03" fill="#bd6b20" opacity="0.19"/><circle cx="1110.7" cy="641.2" r="3.46" fill="#bd6b20" opacity="0.34"/><circle cx="1146.8" cy="644.5" r="3.79" fill="#bd6b20" opacity="0.22"/><circle cx="1182.9" cy="643.7" r="2.37" fill="#bd6b20" opacity="0.15"/><circle cx="255.1" cy="244.8" r="220" fill="url(#glow)" opacity="0.9"/>
  <g opacity="0.85" transform="translate(1020, 495)">
        <circle r="68" fill="none" stroke="#bd6b20" stroke-width="2" opacity="0.35"/>
        <path d="M -38 12 L 38 12 M -32 -8 L 32 -8 M -45 -28 L 45 -28" stroke="#9a5518" stroke-width="3" stroke-linecap="round"/>
        <rect x="-50" y="-44" width="100" height="80" fill="none" stroke="#bd6b20" stroke-width="2"/>
      </g>
  <g transform="translate(80, 90)">
    <rect x="0" y="0" rx="20" ry="20" width="112" height="38" fill="#bd6b20" opacity="0.18" stroke="#bd6b20" stroke-width="1.5"/>
    <text x="56" y="25" font-family="ui-sans-serif, Inter, sans-serif" font-weight="700" font-size="14" letter-spacing="2.5" fill="#bd6b20" text-anchor="middle">NEWSROOM</text>
  </g>
  <text x="80" y="465" font-family="ui-sans-serif, -apple-system, Segoe UI, Inter, sans-serif" font-weight="800" font-size="44" fill="#12100e" opacity="0.98"><tspan x="80" dy="0">Supreme Court Delves</tspan><tspan x="80" dy="56">Deeper: Unstamped</tspan><tspan x="80" dy="56">Arbitration Clauses Face</tspan></text>
  <rect x="0" y="669" width="1200" height="6" fill="url(#gold)"/>
</svg>