<?xml version="1.0" encoding="UTF-8"?>
<svg xmlns="http://www.w3.org/2000/svg" viewBox="0 0 1200 675" width="1200" height="675" role="img" aria-label="Supreme Court's Landmark Ruling on Arbitrator Fee Dispute Ineligibility">
  <defs>
    <linearGradient id="bg" x1="0%" y1="0%" x2="100%" y2="100%">
      <stop offset="0%" stop-color="#643516"/>
      <stop offset="100%" stop-color="#7d4315"/>
    </linearGradient>
    <linearGradient id="gold" x1="0%" y1="0%" x2="100%" y2="100%">
      <stop offset="0%" stop-color="#ecb478"/>
      <stop offset="100%" stop-color="#faebd6"/>
    </linearGradient>
    <radialGradient id="glow" cx="50%" cy="50%" r="50%">
      <stop offset="0%" stop-color="#ecb478" stop-opacity="0.45"/>
      <stop offset="100%" stop-color="#ecb478" stop-opacity="0"/>
    </radialGradient>
  </defs>
  <rect width="1200" height="675" fill="url(#bg)"/>
  <circle cx="840.0" cy="135.0" r="240" fill="url(#glow)" opacity="0.8"/><polygon points="244.2,543.3 273.8,602.6 214.6,602.6" fill="#f4d2ac" opacity="0.14"/><polygon points="472.2,350.6 488.8,383.8 455.6,383.8" fill="#f4d2ac" opacity="0.13"/><rect x="571.3" y="482.2" width="43.5" height="43.5" rx="4" transform="rotate(181.3 593.0 503.9)" fill="#ecb478" opacity="0.31"/><polygon points="1135.0,74.3 1166.6,137.6 1103.3,137.6" fill="#f4d2ac" opacity="0.16"/><rect x="871.7" y="84.6" width="45.7" height="45.7" rx="4" transform="rotate(137.3 894.5 107.5)" fill="#ecb478" opacity="0.14"/><circle cx="885.7" cy="557.3" r="7.3" fill="#faebd6" opacity="0.15"/><polygon points="52.7,27.2 72.0,65.9 33.3,65.9" fill="#f4d2ac" opacity="0.13"/><polygon points="1022.5,94.2 1030.4,110.0 1014.6,110.0" fill="#f4d2ac" opacity="0.30"/><circle cx="1013.3" cy="144.4" r="29.3" fill="#faebd6" opacity="0.30"/><polygon points="24.0,370.4 55.0,432.5 -7.1,432.5" fill="#f4d2ac" opacity="0.20"/><circle cx="1097.7" cy="107.4" r="14.6" fill="#faebd6" opacity="0.26"/><circle cx="115.5" cy="325.9" r="13.1" fill="#faebd6" opacity="0.33"/><polygon points="838.6,70.2 861.1,115.3 816.0,115.3" fill="#f4d2ac" opacity="0.20"/><polygon points="245.1,159.4 261.7,192.7 228.4,192.7" fill="#f4d2ac" opacity="0.13"/><polygon points="812.8,537.8 837.0,586.1 788.7,586.1" fill="#f4d2ac" opacity="0.31"/><rect x="892.0" y="384.6" width="58.3" height="58.3" rx="4" transform="rotate(352.5 921.2 413.7)" fill="#ecb478" opacity="0.20"/><circle cx="1043.7" cy="549.1" r="26.2" fill="#faebd6" opacity="0.21"/><rect x="1148.6" y="310.8" width="14.0" height="14.0" rx="4" transform="rotate(39.5 1155.6 317.9)" fill="#ecb478" opacity="0.14"/><rect x="753.8" y="198.1" width="38.1" height="38.1" rx="4" transform="rotate(172.6 772.9 217.1)" fill="#ecb478" opacity="0.16"/><circle cx="492.2" cy="540.4" r="26.3" fill="#faebd6" opacity="0.27"/><circle cx="89.9" cy="67.0" r="27.9" fill="#faebd6" opacity="0.22"/><circle cx="561.6" cy="472.2" r="27.4" fill="#faebd6" opacity="0.24"/>
  <g opacity="0.85" transform="translate(1020, 495)">
        <circle r="68" fill="none" stroke="#ecb478" stroke-width="2" opacity="0.35"/>
        <path d="M -38 12 L 38 12 M -32 -8 L 32 -8 M -45 -28 L 45 -28" stroke="#faebd6" stroke-width="3" stroke-linecap="round"/>
        <rect x="-50" y="-44" width="100" height="80" fill="none" stroke="#ecb478" stroke-width="2"/>
      </g>
  <g transform="translate(80, 90)">
    <rect x="0" y="0" rx="20" ry="20" width="112" height="38" fill="#ecb478" opacity="0.18" stroke="#ecb478" stroke-width="1.5"/>
    <text x="56" y="25" font-family="ui-sans-serif, Inter, sans-serif" font-weight="700" font-size="14" letter-spacing="2.5" fill="#ecb478" text-anchor="middle">NEWSROOM</text>
  </g>
  <text x="80" y="465" font-family="ui-sans-serif, -apple-system, Segoe UI, Inter, sans-serif" font-weight="800" font-size="44" fill="#faf8f5" opacity="0.98"><tspan x="80" dy="0">Supreme Court's Landmark</tspan><tspan x="80" dy="56">Ruling on Arbitrator Fee</tspan><tspan x="80" dy="56">Dispute Ineligibility</tspan></text>
  <rect x="0" y="669" width="1200" height="6" fill="url(#gold)"/>
</svg>