<?xml version="1.0" encoding="UTF-8"?>
<svg xmlns="http://www.w3.org/2000/svg" viewBox="0 0 1200 675" width="1200" height="675" role="img" aria-label="Supreme Court Upholds Rs. 1.18 Cr Arbitration Award">
  <defs>
    <linearGradient id="bg" x1="0%" y1="0%" x2="100%" y2="100%">
      <stop offset="0%" stop-color="#532d15"/>
      <stop offset="100%" stop-color="#bd6b20"/>
    </linearGradient>
    <linearGradient id="gold" x1="0%" y1="0%" x2="100%" y2="100%">
      <stop offset="0%" stop-color="#e09440"/>
      <stop offset="100%" stop-color="#fdf6ee"/>
    </linearGradient>
    <radialGradient id="glow" cx="50%" cy="50%" r="50%">
      <stop offset="0%" stop-color="#e09440" stop-opacity="0.45"/>
      <stop offset="100%" stop-color="#e09440" stop-opacity="0"/>
    </radialGradient>
  </defs>
  <rect width="1200" height="675" fill="url(#bg)"/>
  <polygon points="514.3,550.7 394.8,493.6 451.9,374.0 571.5,431.2" fill="#fdf6ee" opacity="0.09"/><polygon points="436.1,206.5 368.5,117.7 479.2,103.5" fill="#fdf6ee" opacity="0.16"/><polygon points="752.0,221.4 832.8,37.4 1016.8,118.2 936.0,302.2" fill="#fdf6ee" opacity="0.07"/><polygon points="180.5,429.5 -10.1,377.5 -19.6,180.1 165.2,110.1 288.9,264.2" fill="#fdf6ee" opacity="0.09"/><polygon points="7.0,552.4 -62.6,270.8 216.1,351.3" fill="#fdf6ee" opacity="0.06"/><polygon points="705.4,129.0 747.7,-0.5 877.2,41.8 835.0,171.3" fill="#fdf6ee" opacity="0.14"/><polygon points="101.0,-116.0 282.4,-77.2 301.5,107.3 132.0,182.5 8.1,44.5" fill="#fdf6ee" opacity="0.08"/><polygon points="724.2,298.6 900.1,217.1 1032.0,359.1 937.6,528.5 747.4,491.0" fill="#fdf6ee" opacity="0.05"/><polygon points="189.2,632.9 21.8,688.5 -33.8,521.1 133.6,465.5" fill="#fdf6ee" opacity="0.12"/><polygon points="742.5,126.6 628.5,211.7 543.4,97.7 657.4,12.6" fill="#fdf6ee" opacity="0.09"/><polygon points="1232.8,534.7 1242.2,640.1 1144.8,681.6 1075.2,601.8 1129.6,511.0" fill="#fdf6ee" opacity="0.14"/><polygon points="412.1,54.1 541.2,-16.2 647.9,84.9 584.8,217.6 439.0,198.6" fill="#fdf6ee" opacity="0.19"/><polygon points="-62.4,606.5 28.0,435.2 131.2,599.1" fill="#fdf6ee" opacity="0.06"/><polygon points="903.3,88.5 876.3,10.0 954.8,-16.9 981.8,61.6" fill="#fdf6ee" opacity="0.14"/><circle cx="936.0" cy="202.5" r="180" fill="url(#glow)"/>
  <g opacity="0.85" transform="translate(1020, 495)">
        <circle r="68" fill="none" stroke="#e09440" stroke-width="2" opacity="0.35"/>
        <path d="M -38 12 L 38 12 M -32 -8 L 32 -8 M -45 -28 L 45 -28" stroke="#fdf6ee" stroke-width="3" stroke-linecap="round"/>
        <rect x="-50" y="-44" width="100" height="80" fill="none" stroke="#e09440" stroke-width="2"/>
      </g>
  <g transform="translate(80, 90)">
    <rect x="0" y="0" rx="20" ry="20" width="112" height="38" fill="#e09440" opacity="0.18" stroke="#e09440" stroke-width="1.5"/>
    <text x="56" y="25" font-family="ui-sans-serif, Inter, sans-serif" font-weight="700" font-size="14" letter-spacing="2.5" fill="#e09440" text-anchor="middle">NEWSROOM</text>
  </g>
  <text x="80" y="515" font-family="ui-sans-serif, -apple-system, Segoe UI, Inter, sans-serif" font-weight="800" font-size="44" fill="#faf8f5" opacity="0.98"><tspan x="80" dy="0">Supreme Court Upholds Rs.</tspan><tspan x="80" dy="56">1.18 Cr Arbitration Award</tspan></text>
  <rect x="0" y="669" width="1200" height="6" fill="url(#gold)"/>
</svg>