<?xml version="1.0" encoding="UTF-8"?>
<svg xmlns="http://www.w3.org/2000/svg" viewBox="0 0 1200 675" width="1200" height="675" role="img" aria-label="Advice from PDR COURT Expert is a worthwhile investment">
  <defs>
    <linearGradient id="bg" x1="0%" y1="0%" x2="100%" y2="100%">
      <stop offset="0%" stop-color="#532d15"/>
      <stop offset="100%" stop-color="#bd6b20"/>
    </linearGradient>
    <linearGradient id="gold" x1="0%" y1="0%" x2="100%" y2="100%">
      <stop offset="0%" stop-color="#e09440"/>
      <stop offset="100%" stop-color="#fdf6ee"/>
    </linearGradient>
    <radialGradient id="glow" cx="50%" cy="50%" r="50%">
      <stop offset="0%" stop-color="#e09440" stop-opacity="0.45"/>
      <stop offset="100%" stop-color="#e09440" stop-opacity="0"/>
    </radialGradient>
  </defs>
  <rect width="1200" height="675" fill="url(#bg)"/>
  <circle cx="28.5" cy="28.3" r="1.82" fill="#e09440" opacity="0.28"/><circle cx="65.4" cy="30.6" r="2.18" fill="#e09440" opacity="0.30"/><circle cx="99.1" cy="31.4" r="2.78" fill="#e09440" opacity="0.29"/><circle cx="138.8" cy="28.6" r="2.86" fill="#e09440" opacity="0.18"/><circle cx="174.4" cy="27.2" r="1.99" fill="#e09440" opacity="0.26"/><circle cx="207.3" cy="27.8" r="3.10" fill="#e09440" opacity="0.17"/><circle cx="244.0" cy="32.0" r="2.74" fill="#e09440" opacity="0.15"/><circle cx="283.9" cy="31.5" r="2.18" fill="#e09440" opacity="0.35"/><circle cx="320.0" cy="27.1" r="3.16" fill="#e09440" opacity="0.22"/><circle cx="353.3" cy="27.2" r="1.74" fill="#e09440" opacity="0.35"/><circle cx="389.3" cy="31.0" r="1.78" fill="#e09440" opacity="0.31"/><circle cx="428.4" cy="31.2" r="1.76" fill="#e09440" opacity="0.29"/><circle cx="459.5" cy="29.6" r="3.65" fill="#e09440" opacity="0.20"/><circle cx="497.7" cy="30.2" r="1.81" fill="#e09440" opacity="0.36"/><circle cx="533.9" cy="30.8" r="2.52" fill="#e09440" opacity="0.35"/><circle cx="567.5" cy="30.3" r="2.95" fill="#e09440" opacity="0.31"/><circle cx="605.2" cy="30.5" r="3.52" fill="#e09440" opacity="0.27"/><circle cx="642.3" cy="31.6" r="3.29" fill="#e09440" opacity="0.19"/><circle cx="677.9" cy="28.3" r="2.83" fill="#e09440" opacity="0.26"/><circle cx="713.0" cy="32.4" r="3.18" fill="#e09440" opacity="0.19"/><circle cx="748.2" cy="27.1" r="3.27" fill="#e09440" opacity="0.25"/><circle cx="785.4" cy="28.7" r="2.31" fill="#e09440" opacity="0.30"/><circle cx="823.4" cy="27.2" r="1.69" fill="#e09440" opacity="0.25"/><circle cx="860.5" cy="28.5" r="2.17" fill="#e09440" opacity="0.15"/><circle cx="896.5" cy="29.7" r="1.80" fill="#e09440" opacity="0.33"/><circle cx="928.2" cy="31.0" r="2.21" fill="#e09440" opacity="0.27"/><circle cx="966.7" cy="30.1" r="2.11" fill="#e09440" opacity="0.23"/><circle cx="1002.8" cy="29.2" r="2.02" fill="#e09440" opacity="0.25"/><circle cx="1038.2" cy="29.1" r="3.56" fill="#e09440" opacity="0.15"/><circle cx="1073.0" cy="32.8" r="2.78" fill="#e09440" opacity="0.34"/><circle cx="1108.0" cy="28.2" r="1.79" fill="#e09440" opacity="0.17"/><circle cx="1146.3" cy="30.6" r="1.84" fill="#e09440" opacity="0.29"/><circle cx="1184.6" cy="30.7" r="2.19" fill="#e09440" opacity="0.31"/><circle cx="28.7" cy="67.4" r="2.28" fill="#e09440" opacity="0.16"/><circle cx="66.7" cy="67.8" r="2.60" fill="#e09440" opacity="0.19"/><circle cx="102.8" cy="66.7" r="2.50" fill="#e09440" opacity="0.31"/><circle cx="138.3" cy="67.6" r="1.65" fill="#e09440" opacity="0.17"/><circle cx="173.5" cy="66.5" r="3.48" fill="#e09440" opacity="0.20"/><circle cx="209.0" cy="67.4" r="3.90" fill="#e09440" opacity="0.32"/><circle cx="243.4" cy="68.6" r="3.09" fill="#e09440" opacity="0.19"/><circle cx="283.8" cy="63.3" r="3.29" fill="#e09440" opacity="0.21"/><circle cx="315.8" cy="67.5" r="1.80" fill="#e09440" opacity="0.23"/><circle cx="351.8" cy="65.2" r="2.12" fill="#e09440" opacity="0.28"/><circle cx="388.6" cy="65.1" r="3.39" fill="#e09440" opacity="0.27"/><circle cx="428.5" cy="63.5" r="3.22" fill="#e09440" opacity="0.31"/><circle cx="460.0" cy="68.1" r="1.71" fill="#e09440" opacity="0.34"/><circle cx="498.0" cy="67.2" r="1.63" fill="#e09440" opacity="0.32"/><circle cx="533.2" cy="64.2" r="2.02" fill="#e09440" opacity="0.32"/><circle cx="569.1" cy="63.0" r="1.85" fill="#e09440" opacity="0.33"/><circle cx="607.7" cy="65.0" r="1.73" fill="#e09440" opacity="0.23"/><circle cx="642.2" cy="64.9" r="3.82" fill="#e09440" opacity="0.17"/><circle cx="680.7" cy="63.2" r="3.08" fill="#e09440" opacity="0.29"/><circle cx="714.7" cy="65.4" r="2.71" fill="#e09440" opacity="0.24"/><circle cx="752.8" cy="67.6" r="2.54" fill="#e09440" opacity="0.31"/><circle cx="786.3" cy="66.1" r="3.36" fill="#e09440" opacity="0.20"/><circle cx="822.2" cy="64.5" r="3.60" fill="#e09440" opacity="0.16"/><circle cx="855.7" cy="66.5" r="2.68" fill="#e09440" opacity="0.21"/><circle cx="895.2" cy="67.6" r="3.00" fill="#e09440" opacity="0.18"/><circle cx="932.7" cy="66.2" r="3.65" fill="#e09440" opacity="0.17"/><circle cx="963.7" cy="68.3" r="2.44" fill="#e09440" opacity="0.16"/><circle cx="1004.4" cy="65.6" r="3.94" fill="#e09440" opacity="0.33"/><circle cx="1036.1" cy="65.7" r="3.53" fill="#e09440" opacity="0.24"/><circle cx="1075.8" cy="68.1" r="1.66" fill="#e09440" opacity="0.22"/><circle cx="1107.2" cy="68.2" r="3.68" fill="#e09440" opacity="0.36"/><circle cx="1144.6" cy="65.2" r="1.74" fill="#e09440" opacity="0.27"/><circle cx="1182.5" cy="63.8" r="3.68" fill="#e09440" opacity="0.15"/><circle cx="31.2" cy="103.6" r="3.23" fill="#e09440" opacity="0.33"/><circle cx="66.6" cy="101.2" r="2.51" fill="#e09440" opacity="0.31"/><circle cx="101.2" cy="101.7" r="3.87" fill="#e09440" opacity="0.25"/><circle cx="135.7" cy="101.2" r="2.96" fill="#e09440" opacity="0.21"/><circle cx="172.3" cy="102.4" r="2.43" fill="#e09440" opacity="0.17"/><circle cx="208.2" cy="101.4" r="2.91" fill="#e09440" opacity="0.28"/><circle cx="243.0" cy="102.4" r="2.73" fill="#e09440" opacity="0.15"/><circle cx="281.7" cy="101.8" r="2.35" fill="#e09440" opacity="0.30"/><circle cx="320.2" cy="100.9" r="3.78" fill="#e09440" opacity="0.21"/><circle cx="356.2" cy="103.1" r="2.88" fill="#e09440" opacity="0.28"/><circle cx="388.6" cy="104.2" r="2.27" fill="#e09440" opacity="0.29"/><circle cx="423.2" cy="102.7" r="3.20" fill="#e09440" opacity="0.31"/><circle cx="462.5" cy="103.9" r="3.74" fill="#e09440" opacity="0.35"/><circle cx="499.1" cy="99.6" r="2.40" fill="#e09440" opacity="0.28"/><circle cx="534.2" cy="101.9" r="1.68" fill="#e09440" opacity="0.16"/><circle cx="568.5" cy="104.8" r="2.25" fill="#e09440" opacity="0.25"/><circle cx="605.5" cy="99.0" r="3.10" fill="#e09440" opacity="0.34"/><circle cx="644.9" cy="102.3" r="3.33" fill="#e09440" opacity="0.16"/><circle cx="680.5" cy="100.5" r="3.00" fill="#e09440" opacity="0.28"/><circle cx="712.8" cy="100.3" r="2.01" fill="#e09440" opacity="0.27"/><circle cx="748.3" cy="104.5" r="1.96" fill="#e09440" opacity="0.16"/><circle cx="786.1" cy="99.2" r="2.98" fill="#e09440" opacity="0.24"/><circle cx="822.7" cy="103.7" r="2.28" fill="#e09440" opacity="0.22"/><circle cx="856.7" cy="100.8" r="3.14" fill="#e09440" opacity="0.33"/><circle cx="892.2" cy="102.2" r="2.27" fill="#e09440" opacity="0.26"/><circle cx="931.3" cy="102.3" r="2.86" fill="#e09440" opacity="0.31"/><circle cx="963.9" cy="103.8" r="3.67" fill="#e09440" opacity="0.18"/><circle cx="1002.3" cy="104.6" r="3.31" fill="#e09440" opacity="0.18"/><circle cx="1035.3" cy="104.6" r="3.70" fill="#e09440" opacity="0.19"/><circle cx="1073.4" cy="100.5" r="3.38" fill="#e09440" opacity="0.35"/><circle cx="1107.3" cy="99.3" r="2.30" fill="#e09440" opacity="0.23"/><circle cx="1145.5" cy="101.4" r="2.93" fill="#e09440" opacity="0.24"/><circle cx="1182.4" cy="104.6" r="2.36" fill="#e09440" opacity="0.15"/><circle cx="30.9" cy="136.2" r="1.83" fill="#e09440" opacity="0.35"/><circle cx="65.8" cy="138.4" r="1.88" fill="#e09440" opacity="0.19"/><circle cx="101.8" cy="138.9" r="3.86" fill="#e09440" opacity="0.34"/><circle cx="137.2" cy="140.8" r="2.46" fill="#e09440" opacity="0.31"/><circle cx="171.6" cy="139.3" r="1.75" fill="#e09440" opacity="0.30"/><circle cx="209.2" cy="135.2" r="2.45" fill="#e09440" opacity="0.22"/><circle cx="248.7" cy="137.8" r="1.91" fill="#e09440" opacity="0.16"/><circle cx="282.9" cy="137.7" r="2.45" fill="#e09440" opacity="0.19"/><circle cx="320.3" cy="139.2" r="3.39" fill="#e09440" opacity="0.34"/><circle cx="353.5" cy="139.4" r="2.63" fill="#e09440" opacity="0.27"/><circle cx="390.8" cy="139.3" r="3.18" fill="#e09440" opacity="0.19"/><circle cx="426.8" cy="137.1" r="3.24" fill="#e09440" opacity="0.22"/><circle cx="461.0" cy="138.2" r="3.04" fill="#e09440" opacity="0.22"/><circle cx="500.9" cy="140.8" r="3.36" fill="#e09440" opacity="0.36"/><circle cx="534.8" cy="138.8" r="3.36" fill="#e09440" opacity="0.32"/><circle cx="567.1" cy="136.9" r="3.14" fill="#e09440" opacity="0.17"/><circle cx="605.2" cy="137.6" r="1.72" fill="#e09440" opacity="0.30"/><circle cx="640.9" cy="139.8" r="2.40" fill="#e09440" opacity="0.28"/><circle cx="678.6" cy="138.3" r="2.30" fill="#e09440" opacity="0.34"/><circle cx="714.9" cy="138.1" r="3.15" fill="#e09440" opacity="0.16"/><circle cx="752.2" cy="136.6" r="1.66" fill="#e09440" opacity="0.31"/><circle cx="786.4" cy="140.5" r="1.67" fill="#e09440" opacity="0.21"/><circle cx="823.1" cy="140.0" r="2.40" fill="#e09440" opacity="0.35"/><circle cx="858.8" cy="136.6" r="3.26" fill="#e09440" opacity="0.24"/><circle cx="896.4" cy="138.2" r="3.42" fill="#e09440" opacity="0.35"/><circle cx="928.8" cy="137.0" r="2.98" fill="#e09440" opacity="0.24"/><circle cx="968.7" cy="139.4" r="3.66" fill="#e09440" opacity="0.16"/><circle cx="1002.3" cy="140.3" r="2.09" fill="#e09440" opacity="0.22"/><circle cx="1037.7" cy="136.0" r="3.50" fill="#e09440" opacity="0.36"/><circle cx="1072.5" cy="136.2" r="3.27" fill="#e09440" opacity="0.20"/><circle cx="1107.9" cy="139.9" r="3.20" fill="#e09440" opacity="0.30"/><circle cx="1146.8" cy="138.1" r="3.57" fill="#e09440" opacity="0.33"/><circle cx="1184.5" cy="139.6" r="1.98" fill="#e09440" opacity="0.34"/><circle cx="27.1" cy="171.2" r="2.52" fill="#e09440" opacity="0.34"/><circle cx="64.9" cy="173.3" r="2.93" fill="#e09440" opacity="0.34"/><circle cx="102.9" cy="171.8" r="2.24" fill="#e09440" opacity="0.16"/><circle cx="136.9" cy="175.8" r="3.79" fill="#e09440" opacity="0.16"/><circle cx="173.0" cy="174.6" r="3.96" fill="#e09440" opacity="0.20"/><circle cx="207.2" cy="172.2" r="2.77" fill="#e09440" opacity="0.27"/><circle cx="243.0" cy="172.7" r="2.40" fill="#e09440" opacity="0.26"/><circle cx="284.5" cy="173.1" r="3.10" fill="#e09440" opacity="0.32"/><circle cx="316.0" cy="173.1" r="3.36" fill="#e09440" opacity="0.19"/><circle cx="356.1" cy="174.3" r="2.46" fill="#e09440" opacity="0.25"/><circle cx="390.7" cy="172.9" r="3.86" fill="#e09440" opacity="0.21"/><circle cx="424.7" cy="176.8" r="3.93" fill="#e09440" opacity="0.36"/><circle cx="464.8" cy="176.8" r="2.67" fill="#e09440" opacity="0.22"/><circle cx="496.6" cy="171.3" r="3.33" fill="#e09440" opacity="0.30"/><circle cx="536.8" cy="176.5" r="1.85" fill="#e09440" opacity="0.24"/><circle cx="571.0" cy="174.2" r="3.05" fill="#e09440" opacity="0.29"/><circle cx="608.3" cy="175.4" r="2.65" fill="#e09440" opacity="0.29"/><circle cx="644.4" cy="172.0" r="2.41" fill="#e09440" opacity="0.29"/><circle cx="678.8" cy="175.6" r="3.75" fill="#e09440" opacity="0.21"/><circle cx="713.5" cy="173.5" r="2.03" fill="#e09440" opacity="0.23"/><circle cx="748.8" cy="172.7" r="3.23" fill="#e09440" opacity="0.29"/><circle cx="786.3" cy="172.4" r="2.11" fill="#e09440" opacity="0.30"/><circle cx="823.4" cy="173.5" r="3.87" fill="#e09440" opacity="0.24"/><circle cx="860.2" cy="175.7" r="2.62" fill="#e09440" opacity="0.18"/><circle cx="891.4" cy="173.3" r="1.69" fill="#e09440" opacity="0.21"/><circle cx="930.7" cy="176.1" r="2.54" fill="#e09440" opacity="0.34"/><circle cx="967.7" cy="174.6" r="3.88" fill="#e09440" opacity="0.34"/><circle cx="1004.5" cy="172.5" r="3.72" fill="#e09440" opacity="0.31"/><circle cx="1038.6" cy="171.3" r="1.84" fill="#e09440" opacity="0.21"/><circle cx="1072.7" cy="174.5" r="3.45" fill="#e09440" opacity="0.34"/><circle cx="1111.1" cy="174.1" r="2.27" fill="#e09440" opacity="0.17"/><circle cx="1148.8" cy="175.3" r="3.79" fill="#e09440" opacity="0.21"/><circle cx="1180.3" cy="173.2" r="3.66" fill="#e09440" opacity="0.26"/><circle cx="31.2" cy="212.3" r="1.77" fill="#e09440" opacity="0.22"/><circle cx="66.2" cy="209.8" r="1.71" fill="#e09440" opacity="0.29"/><circle cx="100.7" cy="210.5" r="1.68" fill="#e09440" opacity="0.21"/><circle cx="140.1" cy="209.5" r="3.79" fill="#e09440" opacity="0.35"/><circle cx="172.5" cy="209.3" r="1.72" fill="#e09440" opacity="0.15"/><circle cx="207.3" cy="207.8" r="2.75" fill="#e09440" opacity="0.36"/><circle cx="247.6" cy="209.3" r="2.99" fill="#e09440" opacity="0.26"/><circle cx="284.1" cy="211.7" r="3.96" fill="#e09440" opacity="0.15"/><circle cx="320.6" cy="208.9" r="2.14" fill="#e09440" opacity="0.27"/><circle cx="357.0" cy="211.4" r="3.52" fill="#e09440" opacity="0.23"/><circle cx="388.2" cy="209.8" r="3.26" fill="#e09440" opacity="0.16"/><circle cx="427.0" cy="210.8" r="2.51" fill="#e09440" opacity="0.17"/><circle cx="459.8" cy="208.9" r="1.91" fill="#e09440" opacity="0.32"/><circle cx="497.9" cy="210.2" r="2.30" fill="#e09440" opacity="0.22"/><circle cx="531.9" cy="212.3" r="2.08" fill="#e09440" opacity="0.35"/><circle cx="570.7" cy="207.3" r="3.17" fill="#e09440" opacity="0.17"/><circle cx="604.0" cy="210.3" r="3.40" fill="#e09440" opacity="0.20"/><circle cx="640.1" cy="207.9" r="2.13" fill="#e09440" opacity="0.23"/><circle cx="678.6" cy="208.4" r="3.30" fill="#e09440" opacity="0.25"/><circle cx="711.9" cy="210.8" r="2.80" fill="#e09440" opacity="0.23"/><circle cx="752.0" cy="207.8" r="3.43" fill="#e09440" opacity="0.19"/><circle cx="785.4" cy="211.4" r="3.44" fill="#e09440" opacity="0.35"/><circle cx="820.5" cy="208.1" r="3.68" fill="#e09440" opacity="0.21"/><circle cx="855.8" cy="210.3" r="3.46" fill="#e09440" opacity="0.18"/><circle cx="893.2" cy="210.8" r="3.04" fill="#e09440" opacity="0.20"/><circle cx="927.9" cy="207.0" r="3.13" fill="#e09440" opacity="0.28"/><circle cx="968.3" cy="212.8" r="3.23" fill="#e09440" opacity="0.24"/><circle cx="999.2" cy="207.9" r="1.74" fill="#e09440" opacity="0.32"/><circle cx="1040.0" cy="207.2" r="3.57" fill="#e09440" opacity="0.18"/><circle cx="1074.8" cy="211.4" r="1.99" fill="#e09440" opacity="0.19"/><circle cx="1110.7" cy="207.3" r="2.68" fill="#e09440" opacity="0.23"/><circle cx="1148.8" cy="208.9" r="3.81" fill="#e09440" opacity="0.26"/><circle cx="1179.8" cy="208.4" r="2.43" fill="#e09440" opacity="0.33"/><circle cx="30.0" cy="243.9" r="3.31" fill="#e09440" opacity="0.20"/><circle cx="67.7" cy="246.4" r="3.88" fill="#e09440" opacity="0.15"/><circle cx="102.0" cy="244.9" r="1.91" fill="#e09440" opacity="0.17"/><circle cx="136.4" cy="245.3" r="3.87" fill="#e09440" opacity="0.23"/><circle cx="174.2" cy="243.3" r="2.93" fill="#e09440" opacity="0.30"/><circle cx="209.9" cy="246.0" r="3.28" fill="#e09440" opacity="0.20"/><circle cx="243.4" cy="246.2" r="3.61" fill="#e09440" opacity="0.17"/><circle cx="284.2" cy="244.9" r="2.58" fill="#e09440" opacity="0.31"/><circle cx="318.5" cy="244.2" r="2.67" fill="#e09440" opacity="0.16"/><circle cx="351.5" cy="245.9" r="2.00" fill="#e09440" opacity="0.32"/><circle cx="390.8" cy="244.1" r="3.19" fill="#e09440" opacity="0.23"/><circle cx="428.5" cy="248.3" r="3.06" fill="#e09440" opacity="0.26"/><circle cx="460.5" cy="246.9" r="3.60" fill="#e09440" opacity="0.32"/><circle cx="496.7" cy="244.3" r="3.84" fill="#e09440" opacity="0.16"/><circle cx="531.8" cy="243.3" r="2.34" fill="#e09440" opacity="0.24"/><circle cx="571.9" cy="245.6" r="3.79" fill="#e09440" opacity="0.21"/><circle cx="606.1" cy="244.1" r="3.59" fill="#e09440" opacity="0.18"/><circle cx="640.6" cy="244.9" r="2.42" fill="#e09440" opacity="0.27"/><circle cx="679.0" cy="248.9" r="2.48" fill="#e09440" opacity="0.15"/><circle cx="711.7" cy="247.2" r="1.76" fill="#e09440" opacity="0.27"/><circle cx="748.4" cy="243.5" r="1.84" fill="#e09440" opacity="0.31"/><circle cx="784.4" cy="246.0" r="2.61" fill="#e09440" opacity="0.21"/><circle cx="824.5" cy="248.3" r="1.69" fill="#e09440" opacity="0.16"/><circle cx="858.2" cy="245.9" r="3.93" fill="#e09440" opacity="0.17"/><circle cx="893.2" cy="245.1" r="3.23" fill="#e09440" opacity="0.36"/><circle cx="927.8" cy="246.4" r="3.74" fill="#e09440" opacity="0.29"/><circle cx="968.8" cy="247.5" r="2.43" fill="#e09440" opacity="0.24"/><circle cx="999.3" cy="246.6" r="2.02" fill="#e09440" opacity="0.25"/><circle cx="1038.7" cy="245.7" r="3.08" fill="#e09440" opacity="0.36"/><circle cx="1073.9" cy="248.2" r="2.97" fill="#e09440" opacity="0.21"/><circle cx="1112.6" cy="245.1" r="3.38" fill="#e09440" opacity="0.24"/><circle cx="1148.9" cy="246.5" r="2.74" fill="#e09440" opacity="0.22"/><circle cx="1180.0" cy="245.3" r="2.51" fill="#e09440" opacity="0.29"/><circle cx="29.3" cy="281.8" r="3.96" fill="#e09440" opacity="0.19"/><circle cx="65.6" cy="283.6" r="1.81" fill="#e09440" opacity="0.30"/><circle cx="99.8" cy="281.4" r="2.09" fill="#e09440" opacity="0.23"/><circle cx="140.1" cy="279.6" r="2.00" fill="#e09440" opacity="0.35"/><circle cx="172.6" cy="284.8" r="2.29" fill="#e09440" opacity="0.18"/><circle cx="208.5" cy="281.8" r="3.25" fill="#e09440" opacity="0.22"/><circle cx="246.3" cy="280.6" r="3.46" fill="#e09440" opacity="0.21"/><circle cx="280.8" cy="284.5" r="2.53" fill="#e09440" opacity="0.22"/><circle cx="320.3" cy="283.7" r="3.66" fill="#e09440" opacity="0.19"/><circle cx="355.8" cy="279.8" r="3.08" fill="#e09440" opacity="0.18"/><circle cx="387.0" cy="280.3" r="3.86" fill="#e09440" opacity="0.31"/><circle cx="428.0" cy="280.9" r="3.37" fill="#e09440" opacity="0.31"/><circle cx="463.1" cy="279.5" r="2.85" fill="#e09440" opacity="0.36"/><circle cx="500.7" cy="283.7" r="3.23" fill="#e09440" opacity="0.20"/><circle cx="533.3" cy="279.1" r="2.55" fill="#e09440" opacity="0.21"/><circle cx="571.2" cy="284.5" r="1.85" fill="#e09440" opacity="0.33"/><circle cx="604.1" cy="279.8" r="1.83" fill="#e09440" opacity="0.34"/><circle cx="639.7" cy="284.5" r="2.91" fill="#e09440" opacity="0.31"/><circle cx="680.3" cy="279.3" r="3.99" fill="#e09440" opacity="0.18"/><circle cx="716.6" cy="281.6" r="3.34" fill="#e09440" opacity="0.35"/><circle cx="747.1" cy="281.7" r="2.42" fill="#e09440" opacity="0.35"/><circle cx="788.2" cy="280.4" r="2.02" fill="#e09440" opacity="0.29"/><circle cx="823.4" cy="279.1" r="2.64" fill="#e09440" opacity="0.17"/><circle cx="858.6" cy="282.0" r="2.38" fill="#e09440" opacity="0.21"/><circle cx="895.7" cy="283.0" r="3.09" fill="#e09440" opacity="0.22"/><circle cx="928.5" cy="282.1" r="2.30" fill="#e09440" opacity="0.19"/><circle cx="965.0" cy="284.6" r="2.13" fill="#e09440" opacity="0.28"/><circle cx="1002.5" cy="279.9" r="3.28" fill="#e09440" opacity="0.31"/><circle cx="1040.0" cy="283.0" r="3.84" fill="#e09440" opacity="0.30"/><circle cx="1072.5" cy="279.1" r="2.13" fill="#e09440" opacity="0.34"/><circle cx="1112.6" cy="281.4" r="3.76" fill="#e09440" opacity="0.21"/><circle cx="1144.9" cy="282.2" r="3.79" fill="#e09440" opacity="0.35"/><circle cx="1181.6" cy="283.0" r="3.40" fill="#e09440" opacity="0.27"/><circle cx="31.1" cy="315.5" r="3.27" fill="#e09440" opacity="0.21"/><circle cx="65.4" cy="320.4" r="1.95" fill="#e09440" opacity="0.19"/><circle cx="103.3" cy="319.1" r="3.47" fill="#e09440" opacity="0.15"/><circle cx="138.5" cy="319.7" r="2.35" fill="#e09440" opacity="0.26"/><circle cx="173.5" cy="316.3" r="3.63" fill="#e09440" opacity="0.27"/><circle cx="210.1" cy="318.6" r="3.02" fill="#e09440" opacity="0.35"/><circle cx="245.0" cy="315.5" r="3.85" fill="#e09440" opacity="0.30"/><circle cx="279.6" cy="316.4" r="2.58" fill="#e09440" opacity="0.28"/><circle cx="318.8" cy="318.7" r="2.04" fill="#e09440" opacity="0.24"/><circle cx="352.2" cy="319.3" r="2.51" fill="#e09440" opacity="0.20"/><circle cx="387.1" cy="316.2" r="3.27" fill="#e09440" opacity="0.19"/><circle cx="423.4" cy="319.9" r="2.43" fill="#e09440" opacity="0.30"/><circle cx="461.6" cy="320.7" r="2.12" fill="#e09440" opacity="0.33"/><circle cx="497.6" cy="320.9" r="2.24" fill="#e09440" opacity="0.34"/><circle cx="535.8" cy="319.3" r="3.31" fill="#e09440" opacity="0.23"/><circle cx="570.5" cy="319.4" r="1.73" fill="#e09440" opacity="0.25"/><circle cx="608.3" cy="320.7" r="1.68" fill="#e09440" opacity="0.34"/><circle cx="641.9" cy="315.1" r="2.22" fill="#e09440" opacity="0.16"/><circle cx="680.4" cy="317.4" r="2.82" fill="#e09440" opacity="0.35"/><circle cx="714.3" cy="318.7" r="2.99" fill="#e09440" opacity="0.31"/><circle cx="751.7" cy="319.1" r="3.48" fill="#e09440" opacity="0.33"/><circle cx="785.3" cy="318.8" r="2.67" fill="#e09440" opacity="0.26"/><circle cx="820.7" cy="315.9" r="3.95" fill="#e09440" opacity="0.17"/><circle cx="858.5" cy="318.2" r="2.54" fill="#e09440" opacity="0.30"/><circle cx="895.5" cy="317.7" r="2.15" fill="#e09440" opacity="0.34"/><circle cx="930.5" cy="319.7" r="3.76" fill="#e09440" opacity="0.35"/><circle cx="968.6" cy="315.4" r="1.71" fill="#e09440" opacity="0.15"/><circle cx="1004.5" cy="319.2" r="2.37" fill="#e09440" opacity="0.16"/><circle cx="1038.9" cy="319.5" r="3.34" fill="#e09440" opacity="0.16"/><circle cx="1076.4" cy="316.5" r="3.25" fill="#e09440" opacity="0.24"/><circle cx="1108.4" cy="320.0" r="3.77" fill="#e09440" opacity="0.29"/><circle cx="1147.5" cy="320.3" r="2.47" fill="#e09440" opacity="0.31"/><circle cx="1180.2" cy="319.0" r="2.78" fill="#e09440" opacity="0.32"/><circle cx="27.7" cy="355.5" r="1.83" fill="#e09440" opacity="0.29"/><circle cx="67.8" cy="351.6" r="3.87" fill="#e09440" opacity="0.33"/><circle cx="100.5" cy="352.7" r="1.72" fill="#e09440" opacity="0.36"/><circle cx="138.0" cy="352.8" r="3.99" fill="#e09440" opacity="0.16"/><circle cx="173.5" cy="352.3" r="1.85" fill="#e09440" opacity="0.23"/><circle cx="210.6" cy="351.5" r="3.39" fill="#e09440" opacity="0.30"/><circle cx="245.1" cy="352.9" r="3.47" fill="#e09440" opacity="0.29"/><circle cx="281.9" cy="354.9" r="3.16" fill="#e09440" opacity="0.18"/><circle cx="320.4" cy="356.7" r="1.93" fill="#e09440" opacity="0.36"/><circle cx="352.3" cy="355.2" r="2.40" fill="#e09440" opacity="0.34"/><circle cx="389.5" cy="351.2" r="3.40" fill="#e09440" opacity="0.18"/><circle cx="424.5" cy="351.9" r="1.79" fill="#e09440" opacity="0.21"/><circle cx="461.7" cy="353.6" r="3.80" fill="#e09440" opacity="0.26"/><circle cx="495.2" cy="353.3" r="3.81" fill="#e09440" opacity="0.27"/><circle cx="534.8" cy="353.2" r="3.08" fill="#e09440" opacity="0.24"/><circle cx="569.8" cy="356.6" r="1.64" fill="#e09440" opacity="0.33"/><circle cx="608.2" cy="356.1" r="3.68" fill="#e09440" opacity="0.25"/><circle cx="642.4" cy="354.8" r="1.67" fill="#e09440" opacity="0.18"/><circle cx="680.4" cy="356.8" r="2.45" fill="#e09440" opacity="0.21"/><circle cx="715.4" cy="353.1" r="3.36" fill="#e09440" opacity="0.36"/><circle cx="747.4" cy="353.8" r="1.93" fill="#e09440" opacity="0.22"/><circle cx="783.5" cy="353.2" r="3.95" fill="#e09440" opacity="0.15"/><circle cx="819.6" cy="356.2" r="3.72" fill="#e09440" opacity="0.29"/><circle cx="857.8" cy="355.1" r="3.12" fill="#e09440" opacity="0.16"/><circle cx="892.6" cy="355.0" r="1.77" fill="#e09440" opacity="0.33"/><circle cx="930.1" cy="357.0" r="2.35" fill="#e09440" opacity="0.32"/><circle cx="963.5" cy="351.9" r="3.95" fill="#e09440" opacity="0.30"/><circle cx="1000.4" cy="354.9" r="3.47" fill="#e09440" opacity="0.18"/><circle cx="1038.2" cy="355.0" r="3.21" fill="#e09440" opacity="0.19"/><circle cx="1073.9" cy="354.4" r="3.36" fill="#e09440" opacity="0.29"/><circle cx="1108.6" cy="351.6" r="2.07" fill="#e09440" opacity="0.23"/><circle cx="1148.7" cy="352.4" r="3.67" fill="#e09440" opacity="0.22"/><circle cx="1179.1" cy="353.4" r="3.01" fill="#e09440" opacity="0.23"/><circle cx="31.8" cy="391.4" r="3.29" fill="#e09440" opacity="0.35"/><circle cx="66.8" cy="388.6" r="2.37" fill="#e09440" opacity="0.23"/><circle cx="100.0" cy="390.5" r="3.03" fill="#e09440" opacity="0.32"/><circle cx="135.9" cy="390.6" r="3.54" fill="#e09440" opacity="0.17"/><circle cx="176.8" cy="387.3" r="3.07" fill="#e09440" opacity="0.24"/><circle cx="207.5" cy="389.5" r="3.52" fill="#e09440" opacity="0.22"/><circle cx="246.7" cy="392.8" r="3.12" fill="#e09440" opacity="0.31"/><circle cx="281.7" cy="392.2" r="3.34" fill="#e09440" opacity="0.16"/><circle cx="318.3" cy="388.9" r="2.65" fill="#e09440" opacity="0.30"/><circle cx="355.1" cy="390.3" r="2.51" fill="#e09440" opacity="0.28"/><circle cx="387.7" cy="389.1" r="3.99" fill="#e09440" opacity="0.35"/><circle cx="428.4" cy="391.9" r="2.47" fill="#e09440" opacity="0.19"/><circle cx="464.6" cy="390.4" r="1.70" fill="#e09440" opacity="0.30"/><circle cx="500.8" cy="388.5" r="1.94" fill="#e09440" opacity="0.32"/><circle cx="536.1" cy="388.4" r="3.97" fill="#e09440" opacity="0.29"/><circle cx="569.0" cy="391.2" r="1.75" fill="#e09440" opacity="0.23"/><circle cx="605.2" cy="390.6" r="1.82" fill="#e09440" opacity="0.34"/><circle cx="640.2" cy="390.2" r="3.24" fill="#e09440" opacity="0.20"/><circle cx="679.1" cy="390.0" r="1.71" fill="#e09440" opacity="0.16"/><circle cx="715.8" cy="390.5" r="3.96" fill="#e09440" opacity="0.30"/><circle cx="749.9" cy="389.9" r="3.75" fill="#e09440" opacity="0.27"/><circle cx="787.7" cy="391.7" r="2.93" fill="#e09440" opacity="0.24"/><circle cx="820.1" cy="387.8" r="3.33" fill="#e09440" opacity="0.16"/><circle cx="855.9" cy="387.3" r="1.62" fill="#e09440" opacity="0.16"/><circle cx="894.4" cy="390.3" r="1.61" fill="#e09440" opacity="0.16"/><circle cx="931.4" cy="391.2" r="2.84" fill="#e09440" opacity="0.29"/><circle cx="963.3" cy="390.1" r="3.00" fill="#e09440" opacity="0.33"/><circle cx="999.8" cy="392.1" r="3.90" fill="#e09440" opacity="0.23"/><circle cx="1040.8" cy="388.0" r="2.96" fill="#e09440" opacity="0.16"/><circle cx="1073.8" cy="387.8" r="2.17" fill="#e09440" opacity="0.21"/><circle cx="1111.9" cy="390.2" r="2.64" fill="#e09440" opacity="0.24"/><circle cx="1148.1" cy="389.0" r="3.08" fill="#e09440" opacity="0.15"/><circle cx="1182.3" cy="390.4" r="3.40" fill="#e09440" opacity="0.22"/><circle cx="32.5" cy="423.3" r="3.94" fill="#e09440" opacity="0.16"/><circle cx="66.3" cy="425.5" r="2.98" fill="#e09440" opacity="0.28"/><circle cx="101.7" cy="424.5" r="2.43" fill="#e09440" opacity="0.19"/><circle cx="135.4" cy="426.0" r="3.15" fill="#e09440" opacity="0.34"/><circle cx="172.5" cy="425.9" r="2.50" fill="#e09440" opacity="0.26"/><circle cx="211.3" cy="425.0" r="3.66" fill="#e09440" opacity="0.18"/><circle cx="248.3" cy="423.9" r="3.82" fill="#e09440" opacity="0.27"/><circle cx="282.5" cy="428.9" r="3.11" fill="#e09440" opacity="0.34"/><circle cx="319.1" cy="427.2" r="2.75" fill="#e09440" opacity="0.26"/><circle cx="351.9" cy="423.7" r="2.57" fill="#e09440" opacity="0.31"/><circle cx="387.0" cy="424.0" r="2.17" fill="#e09440" opacity="0.31"/><circle cx="425.2" cy="427.6" r="1.88" fill="#e09440" opacity="0.25"/><circle cx="460.6" cy="427.7" r="1.92" fill="#e09440" opacity="0.30"/><circle cx="498.0" cy="425.2" r="2.57" fill="#e09440" opacity="0.21"/><circle cx="533.4" cy="427.8" r="1.72" fill="#e09440" opacity="0.30"/><circle cx="569.4" cy="428.2" r="1.69" fill="#e09440" opacity="0.28"/><circle cx="607.0" cy="423.9" r="2.39" fill="#e09440" opacity="0.19"/><circle cx="644.0" cy="428.3" r="3.44" fill="#e09440" opacity="0.24"/><circle cx="675.7" cy="426.3" r="3.03" fill="#e09440" opacity="0.17"/><circle cx="716.9" cy="427.6" r="2.14" fill="#e09440" opacity="0.30"/><circle cx="751.6" cy="427.6" r="2.26" fill="#e09440" opacity="0.25"/><circle cx="785.9" cy="423.9" r="3.88" fill="#e09440" opacity="0.30"/><circle cx="822.4" cy="425.2" r="3.86" fill="#e09440" opacity="0.36"/><circle cx="858.8" cy="423.4" r="2.15" fill="#e09440" opacity="0.25"/><circle cx="895.2" cy="427.1" r="3.33" fill="#e09440" opacity="0.28"/><circle cx="928.6" cy="427.8" r="3.94" fill="#e09440" opacity="0.21"/><circle cx="966.9" cy="425.9" r="3.07" fill="#e09440" opacity="0.33"/><circle cx="1002.4" cy="426.3" r="1.86" fill="#e09440" opacity="0.16"/><circle cx="1038.7" cy="424.2" r="1.86" fill="#e09440" opacity="0.18"/><circle cx="1075.9" cy="428.7" r="2.96" fill="#e09440" opacity="0.30"/><circle cx="1111.2" cy="424.3" r="3.84" fill="#e09440" opacity="0.19"/><circle cx="1148.3" cy="424.5" r="3.47" fill="#e09440" opacity="0.15"/><circle cx="1181.0" cy="429.0" r="3.10" fill="#e09440" opacity="0.20"/><circle cx="28.1" cy="462.1" r="2.95" fill="#e09440" opacity="0.25"/><circle cx="65.4" cy="462.1" r="1.86" fill="#e09440" opacity="0.25"/><circle cx="104.2" cy="462.0" r="3.24" fill="#e09440" opacity="0.35"/><circle cx="139.7" cy="464.5" r="2.43" fill="#e09440" opacity="0.24"/><circle cx="171.6" cy="464.9" r="1.77" fill="#e09440" opacity="0.30"/><circle cx="209.3" cy="460.5" r="2.70" fill="#e09440" opacity="0.19"/><circle cx="248.1" cy="460.1" r="3.92" fill="#e09440" opacity="0.30"/><circle cx="279.3" cy="459.0" r="2.74" fill="#e09440" opacity="0.24"/><circle cx="317.0" cy="464.2" r="3.68" fill="#e09440" opacity="0.36"/><circle cx="353.8" cy="459.2" r="2.44" fill="#e09440" opacity="0.32"/><circle cx="391.0" cy="461.4" r="1.93" fill="#e09440" opacity="0.35"/><circle cx="425.4" cy="459.5" r="1.65" fill="#e09440" opacity="0.32"/><circle cx="462.1" cy="460.6" r="1.86" fill="#e09440" opacity="0.17"/><circle cx="500.3" cy="462.6" r="2.41" fill="#e09440" opacity="0.27"/><circle cx="535.7" cy="464.0" r="3.36" fill="#e09440" opacity="0.31"/><circle cx="572.4" cy="461.9" r="1.63" fill="#e09440" opacity="0.28"/><circle cx="608.0" cy="459.9" r="3.75" fill="#e09440" opacity="0.19"/><circle cx="639.9" cy="459.2" r="3.78" fill="#e09440" opacity="0.31"/><circle cx="675.5" cy="464.6" r="1.93" fill="#e09440" opacity="0.30"/><circle cx="715.5" cy="459.2" r="2.75" fill="#e09440" opacity="0.19"/><circle cx="748.0" cy="459.4" r="3.12" fill="#e09440" opacity="0.28"/><circle cx="783.1" cy="463.5" r="2.68" fill="#e09440" opacity="0.34"/><circle cx="819.4" cy="463.9" r="2.14" fill="#e09440" opacity="0.27"/><circle cx="857.9" cy="461.3" r="2.41" fill="#e09440" opacity="0.35"/><circle cx="894.3" cy="463.8" r="2.58" fill="#e09440" opacity="0.17"/><circle cx="932.2" cy="461.4" r="3.51" fill="#e09440" opacity="0.29"/><circle cx="965.0" cy="460.3" r="2.69" fill="#e09440" opacity="0.19"/><circle cx="1000.7" cy="461.4" r="2.00" fill="#e09440" opacity="0.34"/><circle cx="1037.2" cy="459.8" r="3.00" fill="#e09440" opacity="0.18"/><circle cx="1071.8" cy="459.0" r="3.41" fill="#e09440" opacity="0.18"/><circle cx="1109.0" cy="463.9" r="3.76" fill="#e09440" opacity="0.33"/><circle cx="1147.4" cy="463.7" r="2.27" fill="#e09440" opacity="0.32"/><circle cx="1179.9" cy="460.6" r="2.22" fill="#e09440" opacity="0.25"/><circle cx="32.8" cy="498.8" r="2.77" fill="#e09440" opacity="0.28"/><circle cx="63.5" cy="496.5" r="2.35" fill="#e09440" opacity="0.32"/><circle cx="99.3" cy="500.7" r="3.00" fill="#e09440" opacity="0.20"/><circle cx="136.2" cy="495.5" r="3.41" fill="#e09440" opacity="0.35"/><circle cx="176.4" cy="497.4" r="3.02" fill="#e09440" opacity="0.22"/><circle cx="210.3" cy="497.5" r="3.46" fill="#e09440" opacity="0.34"/><circle cx="243.3" cy="495.9" r="2.86" fill="#e09440" opacity="0.26"/><circle cx="282.6" cy="495.7" r="1.62" fill="#e09440" opacity="0.17"/><circle cx="315.7" cy="500.4" r="2.35" fill="#e09440" opacity="0.21"/><circle cx="354.5" cy="499.4" r="1.77" fill="#e09440" opacity="0.19"/><circle cx="388.8" cy="500.3" r="3.00" fill="#e09440" opacity="0.19"/><circle cx="425.2" cy="500.5" r="2.73" fill="#e09440" opacity="0.24"/><circle cx="461.6" cy="497.7" r="3.61" fill="#e09440" opacity="0.19"/><circle cx="498.5" cy="498.4" r="3.46" fill="#e09440" opacity="0.23"/><circle cx="535.7" cy="499.0" r="3.75" fill="#e09440" opacity="0.20"/><circle cx="569.6" cy="498.2" r="3.20" fill="#e09440" opacity="0.34"/><circle cx="606.1" cy="496.3" r="2.79" fill="#e09440" opacity="0.15"/><circle cx="643.3" cy="498.5" r="3.22" fill="#e09440" opacity="0.19"/><circle cx="676.8" cy="496.3" r="2.84" fill="#e09440" opacity="0.33"/><circle cx="711.1" cy="497.4" r="3.08" fill="#e09440" opacity="0.18"/><circle cx="750.9" cy="496.6" r="3.28" fill="#e09440" opacity="0.29"/><circle cx="785.3" cy="495.9" r="2.55" fill="#e09440" opacity="0.32"/><circle cx="821.3" cy="499.9" r="3.13" fill="#e09440" opacity="0.21"/><circle cx="855.1" cy="501.0" r="1.69" fill="#e09440" opacity="0.29"/><circle cx="892.7" cy="495.3" r="2.37" fill="#e09440" opacity="0.26"/><circle cx="932.9" cy="497.2" r="3.12" fill="#e09440" opacity="0.29"/><circle cx="965.7" cy="498.6" r="3.76" fill="#e09440" opacity="0.21"/><circle cx="1000.5" cy="499.7" r="3.98" fill="#e09440" opacity="0.24"/><circle cx="1036.0" cy="497.2" r="3.84" fill="#e09440" opacity="0.30"/><circle cx="1074.4" cy="495.2" r="3.84" fill="#e09440" opacity="0.34"/><circle cx="1112.2" cy="495.8" r="2.84" fill="#e09440" opacity="0.24"/><circle cx="1145.6" cy="495.6" r="2.58" fill="#e09440" opacity="0.35"/><circle cx="1179.4" cy="495.2" r="3.89" fill="#e09440" opacity="0.29"/><circle cx="29.3" cy="534.0" r="3.65" fill="#e09440" opacity="0.32"/><circle cx="67.0" cy="532.6" r="2.77" fill="#e09440" opacity="0.24"/><circle cx="101.6" cy="535.8" r="1.96" fill="#e09440" opacity="0.19"/><circle cx="140.9" cy="535.5" r="2.92" fill="#e09440" opacity="0.18"/><circle cx="173.2" cy="533.0" r="3.67" fill="#e09440" opacity="0.20"/><circle cx="208.6" cy="534.9" r="3.81" fill="#e09440" opacity="0.32"/><circle cx="246.9" cy="535.3" r="2.79" fill="#e09440" opacity="0.22"/><circle cx="280.5" cy="534.6" r="3.46" fill="#e09440" opacity="0.30"/><circle cx="320.3" cy="534.5" r="3.92" fill="#e09440" opacity="0.26"/><circle cx="352.2" cy="533.3" r="1.87" fill="#e09440" opacity="0.20"/><circle cx="391.7" cy="536.5" r="3.30" fill="#e09440" opacity="0.31"/><circle cx="423.3" cy="532.0" r="2.55" fill="#e09440" opacity="0.20"/><circle cx="459.8" cy="535.9" r="3.25" fill="#e09440" opacity="0.20"/><circle cx="499.3" cy="536.4" r="3.82" fill="#e09440" opacity="0.16"/><circle cx="535.5" cy="536.7" r="3.03" fill="#e09440" opacity="0.23"/><circle cx="570.6" cy="531.2" r="3.76" fill="#e09440" opacity="0.27"/><circle cx="603.9" cy="534.7" r="2.20" fill="#e09440" opacity="0.27"/><circle cx="643.2" cy="534.2" r="3.07" fill="#e09440" opacity="0.27"/><circle cx="675.6" cy="533.5" r="3.17" fill="#e09440" opacity="0.34"/><circle cx="715.9" cy="532.5" r="2.12" fill="#e09440" opacity="0.32"/><circle cx="751.6" cy="532.6" r="3.37" fill="#e09440" opacity="0.16"/><circle cx="784.9" cy="535.6" r="1.69" fill="#e09440" opacity="0.18"/><circle cx="821.7" cy="535.8" r="2.96" fill="#e09440" opacity="0.20"/><circle cx="857.3" cy="536.0" r="1.68" fill="#e09440" opacity="0.35"/><circle cx="895.2" cy="535.2" r="2.19" fill="#e09440" opacity="0.25"/><circle cx="928.3" cy="531.7" r="2.69" fill="#e09440" opacity="0.33"/><circle cx="965.6" cy="532.6" r="3.17" fill="#e09440" opacity="0.29"/><circle cx="1003.0" cy="532.9" r="3.61" fill="#e09440" opacity="0.34"/><circle cx="1038.4" cy="532.4" r="2.58" fill="#e09440" opacity="0.16"/><circle cx="1072.0" cy="535.1" r="3.73" fill="#e09440" opacity="0.20"/><circle cx="1111.8" cy="533.8" r="3.76" fill="#e09440" opacity="0.21"/><circle cx="1148.4" cy="531.9" r="2.13" fill="#e09440" opacity="0.24"/><circle cx="1179.3" cy="536.7" r="3.30" fill="#e09440" opacity="0.33"/><circle cx="30.0" cy="572.5" r="3.04" fill="#e09440" opacity="0.15"/><circle cx="66.2" cy="567.5" r="2.22" fill="#e09440" opacity="0.17"/><circle cx="101.5" cy="571.5" r="3.11" fill="#e09440" opacity="0.27"/><circle cx="136.9" cy="571.5" r="2.30" fill="#e09440" opacity="0.20"/><circle cx="172.5" cy="569.1" r="2.81" fill="#e09440" opacity="0.20"/><circle cx="208.5" cy="571.4" r="1.66" fill="#e09440" opacity="0.19"/><circle cx="248.4" cy="568.2" r="3.85" fill="#e09440" opacity="0.32"/><circle cx="281.6" cy="568.2" r="2.86" fill="#e09440" opacity="0.23"/><circle cx="317.4" cy="570.9" r="3.40" fill="#e09440" opacity="0.28"/><circle cx="354.7" cy="569.3" r="3.20" fill="#e09440" opacity="0.30"/><circle cx="390.4" cy="567.4" r="1.75" fill="#e09440" opacity="0.35"/><circle cx="425.2" cy="569.3" r="2.19" fill="#e09440" opacity="0.18"/><circle cx="463.0" cy="567.1" r="2.37" fill="#e09440" opacity="0.31"/><circle cx="498.6" cy="572.6" r="3.03" fill="#e09440" opacity="0.25"/><circle cx="535.0" cy="571.2" r="2.94" fill="#e09440" opacity="0.25"/><circle cx="570.0" cy="569.7" r="2.62" fill="#e09440" opacity="0.16"/><circle cx="604.2" cy="570.8" r="3.90" fill="#e09440" opacity="0.34"/><circle cx="639.3" cy="567.5" r="2.01" fill="#e09440" opacity="0.16"/><circle cx="676.3" cy="569.8" r="2.06" fill="#e09440" opacity="0.28"/><circle cx="716.5" cy="568.7" r="2.87" fill="#e09440" opacity="0.22"/><circle cx="748.9" cy="568.5" r="3.54" fill="#e09440" opacity="0.19"/><circle cx="786.3" cy="568.0" r="1.73" fill="#e09440" opacity="0.23"/><circle cx="819.6" cy="569.3" r="2.67" fill="#e09440" opacity="0.30"/><circle cx="859.3" cy="568.3" r="1.68" fill="#e09440" opacity="0.24"/><circle cx="895.8" cy="573.0" r="2.64" fill="#e09440" opacity="0.30"/><circle cx="931.3" cy="567.7" r="3.97" fill="#e09440" opacity="0.36"/><circle cx="964.5" cy="568.3" r="2.42" fill="#e09440" opacity="0.36"/><circle cx="1002.1" cy="571.2" r="1.80" fill="#e09440" opacity="0.23"/><circle cx="1040.6" cy="570.8" r="3.00" fill="#e09440" opacity="0.23"/><circle cx="1075.2" cy="569.5" r="2.20" fill="#e09440" opacity="0.26"/><circle cx="1112.9" cy="571.4" r="2.09" fill="#e09440" opacity="0.19"/><circle cx="1147.2" cy="571.1" r="2.21" fill="#e09440" opacity="0.17"/><circle cx="1181.7" cy="572.1" r="2.33" fill="#e09440" opacity="0.34"/><circle cx="27.9" cy="605.3" r="3.03" fill="#e09440" opacity="0.16"/><circle cx="64.2" cy="606.7" r="3.97" fill="#e09440" opacity="0.17"/><circle cx="99.5" cy="603.7" r="2.52" fill="#e09440" opacity="0.25"/><circle cx="138.4" cy="608.0" r="1.74" fill="#e09440" opacity="0.28"/><circle cx="171.2" cy="606.4" r="3.22" fill="#e09440" opacity="0.34"/><circle cx="212.2" cy="606.1" r="2.64" fill="#e09440" opacity="0.26"/><circle cx="247.6" cy="603.9" r="2.85" fill="#e09440" opacity="0.34"/><circle cx="279.9" cy="607.0" r="3.56" fill="#e09440" opacity="0.28"/><circle cx="315.9" cy="608.8" r="3.03" fill="#e09440" opacity="0.18"/><circle cx="355.5" cy="604.7" r="1.79" fill="#e09440" opacity="0.25"/><circle cx="389.9" cy="603.1" r="3.12" fill="#e09440" opacity="0.25"/><circle cx="424.5" cy="608.2" r="2.32" fill="#e09440" opacity="0.25"/><circle cx="459.6" cy="607.6" r="2.69" fill="#e09440" opacity="0.32"/><circle cx="495.0" cy="603.8" r="2.82" fill="#e09440" opacity="0.29"/><circle cx="531.1" cy="603.5" r="2.61" fill="#e09440" opacity="0.17"/><circle cx="571.2" cy="605.8" r="2.96" fill="#e09440" opacity="0.26"/><circle cx="603.4" cy="608.7" r="3.49" fill="#e09440" opacity="0.23"/><circle cx="639.3" cy="607.3" r="3.59" fill="#e09440" opacity="0.22"/><circle cx="675.2" cy="608.7" r="3.35" fill="#e09440" opacity="0.26"/><circle cx="714.2" cy="605.1" r="2.29" fill="#e09440" opacity="0.19"/><circle cx="750.2" cy="605.9" r="1.91" fill="#e09440" opacity="0.23"/><circle cx="786.8" cy="603.4" r="3.30" fill="#e09440" opacity="0.19"/><circle cx="823.4" cy="605.7" r="3.20" fill="#e09440" opacity="0.28"/><circle cx="859.4" cy="608.3" r="3.07" fill="#e09440" opacity="0.28"/><circle cx="896.5" cy="605.0" r="2.40" fill="#e09440" opacity="0.18"/><circle cx="928.4" cy="609.0" r="2.32" fill="#e09440" opacity="0.19"/><circle cx="963.5" cy="605.5" r="1.96" fill="#e09440" opacity="0.27"/><circle cx="1002.7" cy="608.5" r="2.46" fill="#e09440" opacity="0.33"/><circle cx="1037.1" cy="606.2" r="2.90" fill="#e09440" opacity="0.29"/><circle cx="1073.3" cy="607.9" r="1.63" fill="#e09440" opacity="0.17"/><circle cx="1109.2" cy="603.0" r="2.20" fill="#e09440" opacity="0.24"/><circle cx="1145.8" cy="604.0" r="2.33" fill="#e09440" opacity="0.29"/><circle cx="1183.4" cy="607.3" r="3.83" fill="#e09440" opacity="0.20"/><circle cx="32.6" cy="642.4" r="1.70" fill="#e09440" opacity="0.23"/><circle cx="64.3" cy="641.0" r="1.82" fill="#e09440" opacity="0.16"/><circle cx="100.4" cy="643.3" r="2.98" fill="#e09440" opacity="0.28"/><circle cx="136.9" cy="639.5" r="3.16" fill="#e09440" opacity="0.17"/><circle cx="171.3" cy="642.8" r="3.83" fill="#e09440" opacity="0.22"/><circle cx="210.6" cy="639.5" r="3.98" fill="#e09440" opacity="0.35"/><circle cx="248.3" cy="640.2" r="3.04" fill="#e09440" opacity="0.22"/><circle cx="279.7" cy="641.6" r="3.42" fill="#e09440" opacity="0.23"/><circle cx="320.1" cy="643.6" r="3.29" fill="#e09440" opacity="0.31"/><circle cx="353.2" cy="641.3" r="2.35" fill="#e09440" opacity="0.27"/><circle cx="387.8" cy="640.6" r="1.87" fill="#e09440" opacity="0.16"/><circle cx="428.9" cy="643.9" r="1.87" fill="#e09440" opacity="0.25"/><circle cx="464.8" cy="641.0" r="3.46" fill="#e09440" opacity="0.23"/><circle cx="495.6" cy="641.5" r="2.41" fill="#e09440" opacity="0.21"/><circle cx="535.2" cy="643.3" r="3.36" fill="#e09440" opacity="0.18"/><circle cx="569.0" cy="641.0" r="3.44" fill="#e09440" opacity="0.18"/><circle cx="607.4" cy="644.2" r="2.13" fill="#e09440" opacity="0.34"/><circle cx="642.5" cy="643.5" r="2.04" fill="#e09440" opacity="0.19"/><circle cx="679.4" cy="641.5" r="3.94" fill="#e09440" opacity="0.28"/><circle cx="711.3" cy="644.9" r="3.64" fill="#e09440" opacity="0.31"/><circle cx="748.8" cy="640.4" r="1.66" fill="#e09440" opacity="0.25"/><circle cx="784.9" cy="642.4" r="2.25" fill="#e09440" opacity="0.20"/><circle cx="820.2" cy="639.5" r="2.00" fill="#e09440" opacity="0.23"/><circle cx="857.3" cy="641.1" r="2.47" fill="#e09440" opacity="0.23"/><circle cx="891.4" cy="643.0" r="3.41" fill="#e09440" opacity="0.34"/><circle cx="930.0" cy="639.0" r="3.71" fill="#e09440" opacity="0.34"/><circle cx="966.6" cy="639.9" r="3.52" fill="#e09440" opacity="0.35"/><circle cx="1004.1" cy="639.3" r="3.31" fill="#e09440" opacity="0.35"/><circle cx="1038.5" cy="640.7" r="3.20" fill="#e09440" opacity="0.15"/><circle cx="1073.3" cy="639.1" r="2.10" fill="#e09440" opacity="0.25"/><circle cx="1111.1" cy="640.3" r="2.39" fill="#e09440" opacity="0.21"/><circle cx="1145.6" cy="639.2" r="2.94" fill="#e09440" opacity="0.24"/><circle cx="1181.2" cy="644.2" r="3.12" fill="#e09440" opacity="0.16"/><circle cx="226.9" cy="224.7" r="220" fill="url(#glow)" opacity="0.9"/>
  <g opacity="0.85" transform="translate(1020, 495)">
        <polygon points="0,-50 43,25 -43,25" fill="none" stroke="#e09440" stroke-width="2"/>
        <polygon points="0,-30 26,15 -26,15" fill="#fdf6ee" opacity="0.4"/>
      </g>
  <g transform="translate(80, 90)">
    <rect x="0" y="0" rx="20" ry="20" width="145" height="38" fill="#e09440" opacity="0.18" stroke="#e09440" stroke-width="1.5"/>
    <text x="72.5" y="25" font-family="ui-sans-serif, Inter, sans-serif" font-weight="700" font-size="14" letter-spacing="2.5" fill="#e09440" text-anchor="middle">INFORMATION</text>
  </g>
  <text x="80" y="465" font-family="ui-sans-serif, -apple-system, Segoe UI, Inter, sans-serif" font-weight="800" font-size="44" fill="#faf8f5" opacity="0.98"><tspan x="80" dy="0">Advice from PDR COURT</tspan><tspan x="80" dy="56">Expert is a worthwhile</tspan><tspan x="80" dy="56">investment</tspan></text>
  <rect x="0" y="669" width="1200" height="6" fill="url(#gold)"/>
</svg>