<?xml version="1.0" encoding="UTF-8"?>
<svg xmlns="http://www.w3.org/2000/svg" viewBox="0 0 1200 675" width="1200" height="675" role="img" aria-label="Bengaluru's Water Emergency: A Call to Action">
  <defs>
    <linearGradient id="bg" x1="0%" y1="0%" x2="100%" y2="100%">
      <stop offset="0%" stop-color="#643516"/>
      <stop offset="100%" stop-color="#7d4315"/>
    </linearGradient>
    <linearGradient id="gold" x1="0%" y1="0%" x2="100%" y2="100%">
      <stop offset="0%" stop-color="#ecb478"/>
      <stop offset="100%" stop-color="#faebd6"/>
    </linearGradient>
    <radialGradient id="glow" cx="50%" cy="50%" r="50%">
      <stop offset="0%" stop-color="#ecb478" stop-opacity="0.45"/>
      <stop offset="100%" stop-color="#ecb478" stop-opacity="0"/>
    </radialGradient>
  </defs>
  <rect width="1200" height="675" fill="url(#bg)"/>
  <polygon points="-50,231.2 -20,226.0 10,222.2 40,219.9 70,218.9 100,219.5 130,221.6 160,225.1 190,230.0 220,236.1 250,243.4 280,251.6 310,260.5 340,270.0 370,279.9 400,289.9 430,299.8 460,309.4 490,318.4 520,326.8 550,334.2 580,340.5 610,345.5 640,349.3 670,351.6 700,352.4 730,351.7 760,349.6 790,346.0 820,341.0 850,334.8 880,327.5 910,319.3 940,310.3 970,300.8 1000,290.9 1030,280.9 1060,271.0 1090,261.4 1120,252.4 1150,244.1 1180,236.8 1210,230.6 1240,225.6 1250,725 -50,725" fill="#ecb478" opacity="0.08"/><polygon points="-50,308.1 -20,315.8 10,324.1 40,332.7 70,341.5 100,350.2 130,358.7 160,366.8 190,374.3 220,381.1 250,386.9 280,391.6 310,395.2 340,397.5 370,398.6 400,398.3 430,396.8 460,393.9 490,389.9 520,384.7 550,378.5 580,371.4 610,363.7 640,355.4 670,346.8 700,338.0 730,329.2 760,320.7 790,312.7 820,305.2 850,298.5 880,292.8 910,288.1 940,284.6 970,282.3 1000,281.3 1030,281.7 1060,283.3 1090,286.2 1120,290.4 1150,295.6 1180,301.8 1210,308.9 1240,316.7 1250,725 -50,725" fill="#ecb478" opacity="0.13"/><polygon points="-50,464.1 -20,460.1 10,454.8 40,448.4 70,441.2 100,433.1 130,424.5 160,415.5 190,406.3 220,397.2 250,388.2 280,379.7 310,371.8 340,364.7 370,358.6 400,353.5 430,349.7 460,347.1 490,345.9 520,346.1 550,347.6 580,350.5 610,354.7 640,360.0 670,366.4 700,373.7 730,381.8 760,390.4 790,399.5 820,408.7 850,417.8 880,426.7 910,435.2 940,443.1 970,450.1 1000,456.2 1030,461.2 1060,465.0 1090,467.5 1120,468.6 1150,468.3 1180,466.7 1210,463.7 1240,459.5 1250,725 -50,725" fill="#ecb478" opacity="0.18"/><polygon points="-50,567.9 -20,563.2 10,557.0 40,549.4 70,540.5 100,530.6 130,519.8 160,508.5 190,496.9 220,485.1 250,473.6 280,462.6 310,452.2 340,442.8 370,434.5 400,427.6 430,422.1 460,418.3 490,416.2 520,415.8 550,417.2 580,420.2 610,425.0 640,431.3 670,439.0 700,447.9 730,457.9 760,468.7 790,480.0 820,491.7 850,503.4 880,514.9 910,525.9 940,536.2 970,545.6 1000,553.8 1030,560.6 1060,566.0 1090,569.7 1120,571.8 1150,572.1 1180,570.6 1210,567.4 1240,562.6 1250,725 -50,725" fill="#ecb478" opacity="0.23"/><circle cx="300.0" cy="189.0" r="160" fill="url(#glow)"/>
  <g opacity="0.85" transform="translate(1020, 495)">
        <rect x="-46" y="-60" width="92" height="115" fill="#ecb478" opacity="0.18" rx="6"/>
        <path d="M -28 -36 L 28 -36 M -28 -12 L 28 -12 M -28 12 L 18 12 M -28 36 L 28 36" stroke="#faebd6" stroke-width="3" stroke-linecap="round"/>
      </g>
  <g transform="translate(80, 90)">
    <rect x="0" y="0" rx="20" ry="20" width="101" height="38" fill="#ecb478" opacity="0.18" stroke="#ecb478" stroke-width="1.5"/>
    <text x="50.5" y="25" font-family="ui-sans-serif, Inter, sans-serif" font-weight="700" font-size="14" letter-spacing="2.5" fill="#ecb478" text-anchor="middle">ARTICLE</text>
  </g>
  <text x="80" y="465" font-family="ui-sans-serif, -apple-system, Segoe UI, Inter, sans-serif" font-weight="800" font-size="44" fill="#faf8f5" opacity="0.98"><tspan x="80" dy="0">Bengaluru's Water</tspan><tspan x="80" dy="56">Emergency: A Call to</tspan><tspan x="80" dy="56">Action</tspan></text>
  <rect x="0" y="669" width="1200" height="6" fill="url(#gold)"/>
</svg>