<?xml version="1.0" encoding="UTF-8"?>
<svg xmlns="http://www.w3.org/2000/svg" viewBox="0 0 1200 675" width="1200" height="675" role="img" aria-label="PDR COURT defines terms &amp; conditions for its website users">
  <defs>
    <linearGradient id="bg" x1="0%" y1="0%" x2="100%" y2="100%">
      <stop offset="0%" stop-color="#12100e"/>
      <stop offset="100%" stop-color="#1c1917"/>
    </linearGradient>
    <linearGradient id="gold" x1="0%" y1="0%" x2="100%" y2="100%">
      <stop offset="0%" stop-color="#bd6b20"/>
      <stop offset="100%" stop-color="#e09440"/>
    </linearGradient>
    <radialGradient id="glow" cx="50%" cy="50%" r="50%">
      <stop offset="0%" stop-color="#bd6b20" stop-opacity="0.45"/>
      <stop offset="100%" stop-color="#bd6b20" stop-opacity="0"/>
    </radialGradient>
  </defs>
  <rect width="1200" height="675" fill="url(#bg)"/>
  <rect x="-700.4" y="-80" width="102.0" height="875" transform="rotate(18 -700.4 337.5)" fill="#bd6b20" opacity="0.10"/><rect x="-540.0" y="-80" width="128.7" height="875" transform="rotate(18 -540.0 337.5)" fill="#bd6b20" opacity="0.19"/><rect x="-292.8" y="-80" width="123.0" height="875" transform="rotate(18 -292.8 337.5)" fill="#bd6b20" opacity="0.11"/><rect x="-107.2" y="-80" width="64.3" height="875" transform="rotate(18 -107.2 337.5)" fill="#bd6b20" opacity="0.18"/><rect x="23.0" y="-80" width="111.6" height="875" transform="rotate(18 23.0 337.5)" fill="#bd6b20" opacity="0.06"/><rect x="252.2" y="-80" width="137.8" height="875" transform="rotate(18 252.2 337.5)" fill="#bd6b20" opacity="0.10"/><rect x="366.2" y="-80" width="139.6" height="875" transform="rotate(18 366.2 337.5)" fill="#bd6b20" opacity="0.12"/><rect x="560.8" y="-80" width="117.9" height="875" transform="rotate(18 560.8 337.5)" fill="#bd6b20" opacity="0.15"/><rect x="724.0" y="-80" width="68.8" height="875" transform="rotate(18 724.0 337.5)" fill="#bd6b20" opacity="0.15"/><rect x="932.6" y="-80" width="132.5" height="875" transform="rotate(18 932.6 337.5)" fill="#bd6b20" opacity="0.18"/><rect x="1124.9" y="-80" width="75.7" height="875" transform="rotate(18 1124.9 337.5)" fill="#bd6b20" opacity="0.08"/><rect x="1307.5" y="-80" width="98.4" height="875" transform="rotate(18 1307.5 337.5)" fill="#bd6b20" opacity="0.13"/><rect x="1441.8" y="-80" width="122.8" height="875" transform="rotate(18 1441.8 337.5)" fill="#bd6b20" opacity="0.11"/><rect x="1630.3" y="-80" width="111.3" height="875" transform="rotate(18 1630.3 337.5)" fill="#bd6b20" opacity="0.20"/><rect x="0" y="0" width="1200" height="675" fill="url(#glow)" opacity="0.6"/>
  <g opacity="0.85" transform="translate(1020, 495)">
        <polygon points="0,-50 43,25 -43,25" fill="none" stroke="#bd6b20" stroke-width="2"/>
        <polygon points="0,-30 26,15 -26,15" fill="#e09440" opacity="0.4"/>
      </g>
  <g transform="translate(80, 90)">
    <rect x="0" y="0" rx="20" ry="20" width="145" height="38" fill="#bd6b20" opacity="0.18" stroke="#bd6b20" stroke-width="1.5"/>
    <text x="72.5" y="25" font-family="ui-sans-serif, Inter, sans-serif" font-weight="700" font-size="14" letter-spacing="2.5" fill="#bd6b20" text-anchor="middle">INFORMATION</text>
  </g>
  <text x="80" y="465" font-family="ui-sans-serif, -apple-system, Segoe UI, Inter, sans-serif" font-weight="800" font-size="44" fill="#faf8f5" opacity="0.98"><tspan x="80" dy="0">PDR COURT defines terms &amp;</tspan><tspan x="80" dy="56">conditions for its website</tspan><tspan x="80" dy="56">users</tspan></text>
  <rect x="0" y="669" width="1200" height="6" fill="url(#gold)"/>
</svg>