<?xml version="1.0" encoding="UTF-8"?>
<svg xmlns="http://www.w3.org/2000/svg" viewBox="0 0 1200 675" width="1200" height="675" role="img" aria-label="Settling a Textile Trade Dispute: Case Summary and Resolution">
  <defs>
    <linearGradient id="bg" x1="0%" y1="0%" x2="100%" y2="100%">
      <stop offset="0%" stop-color="#643516"/>
      <stop offset="100%" stop-color="#7d4315"/>
    </linearGradient>
    <linearGradient id="gold" x1="0%" y1="0%" x2="100%" y2="100%">
      <stop offset="0%" stop-color="#ecb478"/>
      <stop offset="100%" stop-color="#faebd6"/>
    </linearGradient>
    <radialGradient id="glow" cx="50%" cy="50%" r="50%">
      <stop offset="0%" stop-color="#ecb478" stop-opacity="0.45"/>
      <stop offset="100%" stop-color="#ecb478" stop-opacity="0"/>
    </radialGradient>
  </defs>
  <rect width="1200" height="675" fill="url(#bg)"/>
  <circle cx="30.1" cy="29.3" r="2.09" fill="#ecb478" opacity="0.26"/><circle cx="68.9" cy="29.8" r="2.20" fill="#ecb478" opacity="0.32"/><circle cx="99.2" cy="29.9" r="3.89" fill="#ecb478" opacity="0.22"/><circle cx="139.4" cy="27.4" r="3.84" fill="#ecb478" opacity="0.27"/><circle cx="171.3" cy="30.5" r="3.14" fill="#ecb478" opacity="0.36"/><circle cx="208.5" cy="32.4" r="3.76" fill="#ecb478" opacity="0.18"/><circle cx="246.1" cy="29.1" r="2.83" fill="#ecb478" opacity="0.32"/><circle cx="283.7" cy="30.7" r="1.76" fill="#ecb478" opacity="0.24"/><circle cx="320.7" cy="29.3" r="2.39" fill="#ecb478" opacity="0.25"/><circle cx="351.2" cy="32.7" r="3.80" fill="#ecb478" opacity="0.31"/><circle cx="389.0" cy="27.4" r="3.69" fill="#ecb478" opacity="0.16"/><circle cx="424.8" cy="27.8" r="1.74" fill="#ecb478" opacity="0.28"/><circle cx="461.6" cy="29.1" r="3.50" fill="#ecb478" opacity="0.24"/><circle cx="496.9" cy="30.8" r="1.86" fill="#ecb478" opacity="0.22"/><circle cx="532.5" cy="29.7" r="1.69" fill="#ecb478" opacity="0.16"/><circle cx="572.6" cy="30.2" r="2.50" fill="#ecb478" opacity="0.31"/><circle cx="607.7" cy="31.1" r="3.19" fill="#ecb478" opacity="0.15"/><circle cx="639.3" cy="30.9" r="3.67" fill="#ecb478" opacity="0.23"/><circle cx="680.2" cy="27.5" r="2.31" fill="#ecb478" opacity="0.28"/><circle cx="714.1" cy="28.0" r="1.71" fill="#ecb478" opacity="0.29"/><circle cx="752.7" cy="28.2" r="2.00" fill="#ecb478" opacity="0.19"/><circle cx="784.2" cy="30.8" r="2.35" fill="#ecb478" opacity="0.26"/><circle cx="822.3" cy="29.3" r="1.83" fill="#ecb478" opacity="0.32"/><circle cx="860.1" cy="31.9" r="2.08" fill="#ecb478" opacity="0.25"/><circle cx="892.9" cy="28.8" r="3.66" fill="#ecb478" opacity="0.31"/><circle cx="932.1" cy="32.5" r="3.47" fill="#ecb478" opacity="0.25"/><circle cx="965.7" cy="31.2" r="3.57" fill="#ecb478" opacity="0.33"/><circle cx="1001.7" cy="32.6" r="3.42" fill="#ecb478" opacity="0.23"/><circle cx="1037.4" cy="27.3" r="1.98" fill="#ecb478" opacity="0.31"/><circle cx="1074.5" cy="31.0" r="1.69" fill="#ecb478" opacity="0.19"/><circle cx="1109.7" cy="32.9" r="2.58" fill="#ecb478" opacity="0.32"/><circle cx="1145.3" cy="32.8" r="2.12" fill="#ecb478" opacity="0.22"/><circle cx="1183.6" cy="32.9" r="2.16" fill="#ecb478" opacity="0.26"/><circle cx="31.7" cy="68.6" r="1.99" fill="#ecb478" opacity="0.30"/><circle cx="67.6" cy="67.5" r="2.04" fill="#ecb478" opacity="0.29"/><circle cx="100.7" cy="64.6" r="3.71" fill="#ecb478" opacity="0.20"/><circle cx="137.3" cy="63.2" r="2.62" fill="#ecb478" opacity="0.17"/><circle cx="176.1" cy="65.0" r="1.98" fill="#ecb478" opacity="0.28"/><circle cx="207.9" cy="64.1" r="2.68" fill="#ecb478" opacity="0.35"/><circle cx="246.4" cy="64.3" r="2.04" fill="#ecb478" opacity="0.18"/><circle cx="280.1" cy="68.5" r="2.58" fill="#ecb478" opacity="0.29"/><circle cx="318.3" cy="67.3" r="3.99" fill="#ecb478" opacity="0.25"/><circle cx="355.8" cy="64.0" r="2.32" fill="#ecb478" opacity="0.32"/><circle cx="387.9" cy="64.3" r="2.25" fill="#ecb478" opacity="0.24"/><circle cx="423.4" cy="67.1" r="2.10" fill="#ecb478" opacity="0.16"/><circle cx="464.1" cy="64.4" r="2.11" fill="#ecb478" opacity="0.16"/><circle cx="499.5" cy="64.8" r="3.82" fill="#ecb478" opacity="0.31"/><circle cx="536.5" cy="67.3" r="1.61" fill="#ecb478" opacity="0.19"/><circle cx="571.5" cy="65.0" r="2.23" fill="#ecb478" opacity="0.17"/><circle cx="607.7" cy="65.1" r="2.65" fill="#ecb478" opacity="0.20"/><circle cx="640.1" cy="66.0" r="2.99" fill="#ecb478" opacity="0.31"/><circle cx="676.0" cy="65.6" r="2.36" fill="#ecb478" opacity="0.33"/><circle cx="713.8" cy="64.2" r="2.68" fill="#ecb478" opacity="0.31"/><circle cx="750.2" cy="63.6" r="3.68" fill="#ecb478" opacity="0.21"/><circle cx="785.3" cy="68.1" r="2.15" fill="#ecb478" opacity="0.17"/><circle cx="824.5" cy="68.1" r="3.29" fill="#ecb478" opacity="0.25"/><circle cx="855.8" cy="64.8" r="2.65" fill="#ecb478" opacity="0.32"/><circle cx="895.3" cy="65.4" r="2.43" fill="#ecb478" opacity="0.28"/><circle cx="929.9" cy="68.1" r="3.32" fill="#ecb478" opacity="0.34"/><circle cx="966.4" cy="64.9" r="3.48" fill="#ecb478" opacity="0.31"/><circle cx="1000.0" cy="64.2" r="2.55" fill="#ecb478" opacity="0.30"/><circle cx="1036.9" cy="68.1" r="3.17" fill="#ecb478" opacity="0.16"/><circle cx="1074.4" cy="65.9" r="3.26" fill="#ecb478" opacity="0.28"/><circle cx="1112.8" cy="68.1" r="2.77" fill="#ecb478" opacity="0.27"/><circle cx="1147.6" cy="68.9" r="1.91" fill="#ecb478" opacity="0.21"/><circle cx="1179.6" cy="63.7" r="1.65" fill="#ecb478" opacity="0.25"/><circle cx="30.0" cy="104.9" r="2.53" fill="#ecb478" opacity="0.35"/><circle cx="63.5" cy="100.4" r="2.24" fill="#ecb478" opacity="0.17"/><circle cx="104.1" cy="101.9" r="2.99" fill="#ecb478" opacity="0.23"/><circle cx="139.6" cy="103.3" r="3.02" fill="#ecb478" opacity="0.21"/><circle cx="172.5" cy="103.1" r="2.82" fill="#ecb478" opacity="0.24"/><circle cx="208.1" cy="100.4" r="3.60" fill="#ecb478" opacity="0.21"/><circle cx="243.9" cy="100.2" r="1.85" fill="#ecb478" opacity="0.22"/><circle cx="280.7" cy="99.2" r="2.28" fill="#ecb478" opacity="0.21"/><circle cx="316.6" cy="102.8" r="3.47" fill="#ecb478" opacity="0.22"/><circle cx="351.6" cy="104.0" r="2.08" fill="#ecb478" opacity="0.28"/><circle cx="388.4" cy="103.6" r="3.85" fill="#ecb478" opacity="0.28"/><circle cx="426.0" cy="100.1" r="2.40" fill="#ecb478" opacity="0.24"/><circle cx="459.1" cy="99.7" r="3.57" fill="#ecb478" opacity="0.27"/><circle cx="498.7" cy="104.1" r="2.88" fill="#ecb478" opacity="0.17"/><circle cx="535.6" cy="99.6" r="3.41" fill="#ecb478" opacity="0.16"/><circle cx="572.4" cy="99.3" r="3.47" fill="#ecb478" opacity="0.19"/><circle cx="608.3" cy="101.7" r="2.33" fill="#ecb478" opacity="0.25"/><circle cx="641.3" cy="103.3" r="2.61" fill="#ecb478" opacity="0.35"/><circle cx="680.9" cy="100.1" r="1.71" fill="#ecb478" opacity="0.22"/><circle cx="713.4" cy="99.4" r="2.40" fill="#ecb478" opacity="0.26"/><circle cx="747.2" cy="102.2" r="2.63" fill="#ecb478" opacity="0.32"/><circle cx="783.1" cy="102.1" r="3.73" fill="#ecb478" opacity="0.19"/><circle cx="819.7" cy="104.4" r="3.99" fill="#ecb478" opacity="0.35"/><circle cx="855.6" cy="104.9" r="3.33" fill="#ecb478" opacity="0.20"/><circle cx="895.6" cy="103.0" r="3.57" fill="#ecb478" opacity="0.32"/><circle cx="928.7" cy="100.2" r="3.06" fill="#ecb478" opacity="0.30"/><circle cx="964.6" cy="104.2" r="2.82" fill="#ecb478" opacity="0.15"/><circle cx="1004.3" cy="100.8" r="2.98" fill="#ecb478" opacity="0.16"/><circle cx="1039.8" cy="99.6" r="3.20" fill="#ecb478" opacity="0.19"/><circle cx="1076.3" cy="100.1" r="3.16" fill="#ecb478" opacity="0.34"/><circle cx="1110.6" cy="105.0" r="1.98" fill="#ecb478" opacity="0.34"/><circle cx="1143.9" cy="103.8" r="3.70" fill="#ecb478" opacity="0.29"/><circle cx="1181.7" cy="100.3" r="2.58" fill="#ecb478" opacity="0.30"/><circle cx="31.4" cy="139.3" r="3.18" fill="#ecb478" opacity="0.25"/><circle cx="64.2" cy="138.9" r="1.73" fill="#ecb478" opacity="0.27"/><circle cx="104.4" cy="138.5" r="1.89" fill="#ecb478" opacity="0.28"/><circle cx="138.4" cy="135.7" r="1.87" fill="#ecb478" opacity="0.21"/><circle cx="173.2" cy="135.9" r="2.06" fill="#ecb478" opacity="0.21"/><circle cx="210.3" cy="140.1" r="3.75" fill="#ecb478" opacity="0.17"/><circle cx="246.1" cy="139.0" r="2.40" fill="#ecb478" opacity="0.35"/><circle cx="282.2" cy="137.5" r="3.08" fill="#ecb478" opacity="0.28"/><circle cx="318.7" cy="135.8" r="3.69" fill="#ecb478" opacity="0.27"/><circle cx="352.1" cy="136.1" r="3.08" fill="#ecb478" opacity="0.18"/><circle cx="391.5" cy="140.1" r="2.56" fill="#ecb478" opacity="0.28"/><circle cx="425.0" cy="139.6" r="2.75" fill="#ecb478" opacity="0.28"/><circle cx="463.2" cy="139.8" r="1.83" fill="#ecb478" opacity="0.33"/><circle cx="498.1" cy="137.3" r="2.91" fill="#ecb478" opacity="0.17"/><circle cx="536.2" cy="140.6" r="3.31" fill="#ecb478" opacity="0.28"/><circle cx="569.9" cy="139.0" r="3.91" fill="#ecb478" opacity="0.24"/><circle cx="603.3" cy="137.8" r="3.28" fill="#ecb478" opacity="0.25"/><circle cx="644.8" cy="139.7" r="1.86" fill="#ecb478" opacity="0.17"/><circle cx="679.4" cy="136.4" r="1.92" fill="#ecb478" opacity="0.27"/><circle cx="716.2" cy="140.2" r="2.86" fill="#ecb478" opacity="0.16"/><circle cx="748.6" cy="139.2" r="2.74" fill="#ecb478" opacity="0.33"/><circle cx="786.6" cy="135.4" r="2.08" fill="#ecb478" opacity="0.23"/><circle cx="822.6" cy="138.1" r="2.17" fill="#ecb478" opacity="0.26"/><circle cx="859.7" cy="139.0" r="3.35" fill="#ecb478" opacity="0.18"/><circle cx="896.5" cy="136.2" r="1.75" fill="#ecb478" opacity="0.29"/><circle cx="932.5" cy="138.5" r="3.77" fill="#ecb478" opacity="0.26"/><circle cx="965.7" cy="136.4" r="3.03" fill="#ecb478" opacity="0.26"/><circle cx="1000.9" cy="135.8" r="1.91" fill="#ecb478" opacity="0.21"/><circle cx="1036.2" cy="139.7" r="3.82" fill="#ecb478" opacity="0.36"/><circle cx="1073.3" cy="139.5" r="2.30" fill="#ecb478" opacity="0.35"/><circle cx="1108.4" cy="136.0" r="2.70" fill="#ecb478" opacity="0.29"/><circle cx="1145.3" cy="139.0" r="2.89" fill="#ecb478" opacity="0.34"/><circle cx="1184.5" cy="140.9" r="3.31" fill="#ecb478" opacity="0.33"/><circle cx="27.8" cy="175.7" r="1.81" fill="#ecb478" opacity="0.29"/><circle cx="67.9" cy="171.9" r="2.25" fill="#ecb478" opacity="0.23"/><circle cx="102.2" cy="172.5" r="3.43" fill="#ecb478" opacity="0.33"/><circle cx="140.0" cy="176.4" r="2.87" fill="#ecb478" opacity="0.21"/><circle cx="176.4" cy="172.0" r="2.56" fill="#ecb478" opacity="0.32"/><circle cx="212.3" cy="171.1" r="2.44" fill="#ecb478" opacity="0.31"/><circle cx="245.3" cy="171.2" r="2.63" fill="#ecb478" opacity="0.25"/><circle cx="281.6" cy="171.8" r="3.26" fill="#ecb478" opacity="0.34"/><circle cx="319.9" cy="175.2" r="3.59" fill="#ecb478" opacity="0.34"/><circle cx="354.5" cy="174.3" r="2.15" fill="#ecb478" opacity="0.34"/><circle cx="392.3" cy="175.6" r="2.37" fill="#ecb478" opacity="0.19"/><circle cx="428.3" cy="172.9" r="2.14" fill="#ecb478" opacity="0.32"/><circle cx="460.4" cy="175.5" r="3.62" fill="#ecb478" opacity="0.33"/><circle cx="496.5" cy="171.1" r="2.62" fill="#ecb478" opacity="0.29"/><circle cx="532.3" cy="175.7" r="2.54" fill="#ecb478" opacity="0.25"/><circle cx="571.0" cy="171.7" r="2.81" fill="#ecb478" opacity="0.16"/><circle cx="604.9" cy="175.9" r="3.05" fill="#ecb478" opacity="0.35"/><circle cx="644.2" cy="172.4" r="3.50" fill="#ecb478" opacity="0.29"/><circle cx="679.4" cy="174.4" r="3.01" fill="#ecb478" opacity="0.35"/><circle cx="716.5" cy="172.6" r="3.98" fill="#ecb478" opacity="0.29"/><circle cx="748.3" cy="171.8" r="2.53" fill="#ecb478" opacity="0.28"/><circle cx="785.9" cy="174.7" r="3.21" fill="#ecb478" opacity="0.32"/><circle cx="819.1" cy="171.8" r="1.70" fill="#ecb478" opacity="0.28"/><circle cx="860.0" cy="175.0" r="2.07" fill="#ecb478" opacity="0.22"/><circle cx="896.4" cy="176.0" r="3.76" fill="#ecb478" opacity="0.25"/><circle cx="928.2" cy="173.4" r="1.91" fill="#ecb478" opacity="0.26"/><circle cx="967.4" cy="176.4" r="3.57" fill="#ecb478" opacity="0.22"/><circle cx="1002.8" cy="175.2" r="2.11" fill="#ecb478" opacity="0.35"/><circle cx="1036.3" cy="172.8" r="3.82" fill="#ecb478" opacity="0.23"/><circle cx="1072.0" cy="176.6" r="3.09" fill="#ecb478" opacity="0.28"/><circle cx="1110.5" cy="171.9" r="2.59" fill="#ecb478" opacity="0.21"/><circle cx="1144.8" cy="173.6" r="3.03" fill="#ecb478" opacity="0.16"/><circle cx="1183.2" cy="174.9" r="3.65" fill="#ecb478" opacity="0.17"/><circle cx="31.6" cy="210.9" r="3.52" fill="#ecb478" opacity="0.26"/><circle cx="65.4" cy="211.8" r="3.26" fill="#ecb478" opacity="0.31"/><circle cx="101.7" cy="211.8" r="2.02" fill="#ecb478" opacity="0.27"/><circle cx="139.1" cy="209.2" r="2.82" fill="#ecb478" opacity="0.27"/><circle cx="172.2" cy="211.5" r="2.46" fill="#ecb478" opacity="0.24"/><circle cx="209.4" cy="211.2" r="2.96" fill="#ecb478" opacity="0.27"/><circle cx="247.4" cy="211.6" r="3.74" fill="#ecb478" opacity="0.16"/><circle cx="281.2" cy="211.2" r="3.77" fill="#ecb478" opacity="0.35"/><circle cx="318.2" cy="208.2" r="3.42" fill="#ecb478" opacity="0.24"/><circle cx="352.4" cy="210.9" r="3.44" fill="#ecb478" opacity="0.25"/><circle cx="392.9" cy="210.9" r="3.10" fill="#ecb478" opacity="0.27"/><circle cx="426.3" cy="209.4" r="2.80" fill="#ecb478" opacity="0.35"/><circle cx="463.4" cy="210.4" r="2.54" fill="#ecb478" opacity="0.20"/><circle cx="499.9" cy="211.5" r="3.47" fill="#ecb478" opacity="0.19"/><circle cx="534.6" cy="210.4" r="3.07" fill="#ecb478" opacity="0.24"/><circle cx="571.2" cy="209.0" r="2.96" fill="#ecb478" opacity="0.24"/><circle cx="608.8" cy="209.8" r="2.38" fill="#ecb478" opacity="0.33"/><circle cx="644.3" cy="210.1" r="2.78" fill="#ecb478" opacity="0.16"/><circle cx="676.5" cy="208.0" r="2.56" fill="#ecb478" opacity="0.26"/><circle cx="714.9" cy="211.8" r="3.52" fill="#ecb478" opacity="0.36"/><circle cx="750.7" cy="207.8" r="3.97" fill="#ecb478" opacity="0.28"/><circle cx="788.9" cy="211.8" r="1.96" fill="#ecb478" opacity="0.20"/><circle cx="823.7" cy="207.7" r="3.49" fill="#ecb478" opacity="0.33"/><circle cx="859.0" cy="212.1" r="3.54" fill="#ecb478" opacity="0.23"/><circle cx="892.1" cy="209.1" r="2.33" fill="#ecb478" opacity="0.27"/><circle cx="927.1" cy="208.4" r="3.13" fill="#ecb478" opacity="0.22"/><circle cx="964.4" cy="207.8" r="3.37" fill="#ecb478" opacity="0.21"/><circle cx="999.1" cy="209.7" r="1.99" fill="#ecb478" opacity="0.23"/><circle cx="1037.1" cy="210.6" r="3.03" fill="#ecb478" opacity="0.36"/><circle cx="1073.3" cy="212.6" r="2.45" fill="#ecb478" opacity="0.28"/><circle cx="1108.4" cy="210.5" r="3.67" fill="#ecb478" opacity="0.34"/><circle cx="1148.5" cy="209.7" r="3.20" fill="#ecb478" opacity="0.20"/><circle cx="1184.8" cy="207.2" r="3.99" fill="#ecb478" opacity="0.29"/><circle cx="32.7" cy="245.6" r="3.33" fill="#ecb478" opacity="0.27"/><circle cx="64.9" cy="245.8" r="2.20" fill="#ecb478" opacity="0.32"/><circle cx="99.3" cy="246.8" r="3.52" fill="#ecb478" opacity="0.17"/><circle cx="137.7" cy="244.7" r="1.80" fill="#ecb478" opacity="0.20"/><circle cx="172.0" cy="249.0" r="1.92" fill="#ecb478" opacity="0.16"/><circle cx="209.6" cy="247.8" r="3.92" fill="#ecb478" opacity="0.21"/><circle cx="248.3" cy="248.5" r="3.54" fill="#ecb478" opacity="0.35"/><circle cx="282.1" cy="244.0" r="3.60" fill="#ecb478" opacity="0.22"/><circle cx="318.7" cy="244.1" r="3.15" fill="#ecb478" opacity="0.21"/><circle cx="354.5" cy="248.1" r="2.04" fill="#ecb478" opacity="0.33"/><circle cx="391.7" cy="244.7" r="1.66" fill="#ecb478" opacity="0.16"/><circle cx="425.1" cy="244.0" r="1.63" fill="#ecb478" opacity="0.33"/><circle cx="460.1" cy="248.5" r="3.92" fill="#ecb478" opacity="0.19"/><circle cx="497.2" cy="247.9" r="3.70" fill="#ecb478" opacity="0.20"/><circle cx="534.7" cy="244.0" r="1.64" fill="#ecb478" opacity="0.21"/><circle cx="570.2" cy="247.0" r="1.65" fill="#ecb478" opacity="0.17"/><circle cx="604.0" cy="245.6" r="3.05" fill="#ecb478" opacity="0.24"/><circle cx="639.9" cy="243.2" r="1.71" fill="#ecb478" opacity="0.15"/><circle cx="679.8" cy="243.7" r="3.89" fill="#ecb478" opacity="0.26"/><circle cx="716.3" cy="243.7" r="3.22" fill="#ecb478" opacity="0.18"/><circle cx="751.4" cy="247.1" r="2.57" fill="#ecb478" opacity="0.16"/><circle cx="784.5" cy="247.5" r="3.07" fill="#ecb478" opacity="0.36"/><circle cx="824.7" cy="244.1" r="3.43" fill="#ecb478" opacity="0.17"/><circle cx="860.7" cy="245.9" r="1.65" fill="#ecb478" opacity="0.33"/><circle cx="891.4" cy="243.7" r="3.30" fill="#ecb478" opacity="0.33"/><circle cx="931.5" cy="248.7" r="1.90" fill="#ecb478" opacity="0.33"/><circle cx="965.6" cy="243.3" r="3.81" fill="#ecb478" opacity="0.24"/><circle cx="1003.6" cy="247.1" r="2.97" fill="#ecb478" opacity="0.22"/><circle cx="1039.8" cy="248.9" r="2.02" fill="#ecb478" opacity="0.35"/><circle cx="1073.5" cy="248.9" r="3.37" fill="#ecb478" opacity="0.23"/><circle cx="1110.9" cy="246.3" r="2.24" fill="#ecb478" opacity="0.19"/><circle cx="1147.6" cy="243.3" r="2.86" fill="#ecb478" opacity="0.23"/><circle cx="1184.8" cy="246.8" r="2.20" fill="#ecb478" opacity="0.24"/><circle cx="28.6" cy="284.8" r="2.94" fill="#ecb478" opacity="0.21"/><circle cx="67.6" cy="282.7" r="3.71" fill="#ecb478" opacity="0.31"/><circle cx="99.3" cy="281.8" r="2.91" fill="#ecb478" opacity="0.16"/><circle cx="137.6" cy="281.0" r="2.62" fill="#ecb478" opacity="0.32"/><circle cx="174.7" cy="281.5" r="2.97" fill="#ecb478" opacity="0.33"/><circle cx="210.7" cy="283.5" r="2.22" fill="#ecb478" opacity="0.30"/><circle cx="248.7" cy="279.0" r="2.95" fill="#ecb478" opacity="0.35"/><circle cx="282.4" cy="280.3" r="3.53" fill="#ecb478" opacity="0.26"/><circle cx="316.8" cy="281.4" r="3.62" fill="#ecb478" opacity="0.16"/><circle cx="352.5" cy="279.8" r="3.90" fill="#ecb478" opacity="0.34"/><circle cx="390.6" cy="280.9" r="3.42" fill="#ecb478" opacity="0.34"/><circle cx="424.8" cy="283.3" r="2.88" fill="#ecb478" opacity="0.19"/><circle cx="464.6" cy="281.0" r="2.54" fill="#ecb478" opacity="0.31"/><circle cx="499.5" cy="284.0" r="2.72" fill="#ecb478" opacity="0.36"/><circle cx="536.0" cy="284.9" r="1.61" fill="#ecb478" opacity="0.31"/><circle cx="567.6" cy="283.9" r="1.77" fill="#ecb478" opacity="0.33"/><circle cx="606.8" cy="280.3" r="1.94" fill="#ecb478" opacity="0.21"/><circle cx="642.2" cy="282.1" r="3.19" fill="#ecb478" opacity="0.15"/><circle cx="677.5" cy="280.8" r="1.71" fill="#ecb478" opacity="0.29"/><circle cx="713.7" cy="279.7" r="3.14" fill="#ecb478" opacity="0.26"/><circle cx="748.8" cy="284.7" r="3.47" fill="#ecb478" opacity="0.29"/><circle cx="788.8" cy="284.5" r="2.25" fill="#ecb478" opacity="0.24"/><circle cx="822.2" cy="279.8" r="2.90" fill="#ecb478" opacity="0.32"/><circle cx="859.2" cy="282.9" r="3.11" fill="#ecb478" opacity="0.24"/><circle cx="892.7" cy="284.9" r="3.57" fill="#ecb478" opacity="0.25"/><circle cx="927.5" cy="279.1" r="2.58" fill="#ecb478" opacity="0.31"/><circle cx="967.6" cy="279.0" r="3.23" fill="#ecb478" opacity="0.31"/><circle cx="1001.9" cy="282.2" r="2.39" fill="#ecb478" opacity="0.22"/><circle cx="1038.3" cy="282.0" r="3.83" fill="#ecb478" opacity="0.35"/><circle cx="1074.9" cy="280.9" r="3.00" fill="#ecb478" opacity="0.31"/><circle cx="1109.7" cy="281.2" r="2.85" fill="#ecb478" opacity="0.33"/><circle cx="1145.9" cy="283.9" r="1.99" fill="#ecb478" opacity="0.16"/><circle cx="1182.6" cy="282.2" r="3.41" fill="#ecb478" opacity="0.29"/><circle cx="28.7" cy="320.7" r="1.95" fill="#ecb478" opacity="0.33"/><circle cx="63.4" cy="315.9" r="2.85" fill="#ecb478" opacity="0.28"/><circle cx="99.6" cy="319.6" r="3.97" fill="#ecb478" opacity="0.26"/><circle cx="140.5" cy="315.1" r="2.29" fill="#ecb478" opacity="0.26"/><circle cx="175.1" cy="319.5" r="3.55" fill="#ecb478" opacity="0.33"/><circle cx="210.6" cy="317.2" r="3.87" fill="#ecb478" opacity="0.20"/><circle cx="245.1" cy="315.8" r="2.72" fill="#ecb478" opacity="0.32"/><circle cx="284.7" cy="319.7" r="3.22" fill="#ecb478" opacity="0.34"/><circle cx="318.3" cy="316.3" r="3.63" fill="#ecb478" opacity="0.31"/><circle cx="354.5" cy="316.5" r="3.75" fill="#ecb478" opacity="0.33"/><circle cx="392.8" cy="317.5" r="2.95" fill="#ecb478" opacity="0.19"/><circle cx="424.4" cy="318.3" r="3.68" fill="#ecb478" opacity="0.20"/><circle cx="463.6" cy="319.7" r="3.60" fill="#ecb478" opacity="0.31"/><circle cx="497.0" cy="319.2" r="2.30" fill="#ecb478" opacity="0.22"/><circle cx="535.0" cy="317.5" r="3.10" fill="#ecb478" opacity="0.21"/><circle cx="570.7" cy="318.6" r="2.38" fill="#ecb478" opacity="0.35"/><circle cx="607.3" cy="316.3" r="2.53" fill="#ecb478" opacity="0.29"/><circle cx="640.7" cy="315.3" r="2.90" fill="#ecb478" opacity="0.31"/><circle cx="675.9" cy="315.6" r="3.51" fill="#ecb478" opacity="0.25"/><circle cx="712.7" cy="315.1" r="1.63" fill="#ecb478" opacity="0.32"/><circle cx="750.9" cy="320.1" r="3.06" fill="#ecb478" opacity="0.15"/><circle cx="783.6" cy="318.7" r="2.42" fill="#ecb478" opacity="0.36"/><circle cx="823.0" cy="317.6" r="2.78" fill="#ecb478" opacity="0.24"/><circle cx="858.4" cy="317.5" r="3.06" fill="#ecb478" opacity="0.22"/><circle cx="894.8" cy="316.7" r="2.11" fill="#ecb478" opacity="0.33"/><circle cx="928.7" cy="315.1" r="3.54" fill="#ecb478" opacity="0.21"/><circle cx="965.6" cy="319.3" r="2.00" fill="#ecb478" opacity="0.27"/><circle cx="1003.8" cy="318.9" r="3.30" fill="#ecb478" opacity="0.33"/><circle cx="1039.1" cy="318.5" r="2.41" fill="#ecb478" opacity="0.23"/><circle cx="1071.2" cy="320.5" r="3.65" fill="#ecb478" opacity="0.20"/><circle cx="1110.8" cy="315.6" r="2.10" fill="#ecb478" opacity="0.26"/><circle cx="1143.2" cy="320.1" r="1.91" fill="#ecb478" opacity="0.24"/><circle cx="1183.6" cy="318.2" r="2.78" fill="#ecb478" opacity="0.36"/><circle cx="31.7" cy="353.4" r="2.11" fill="#ecb478" opacity="0.32"/><circle cx="68.7" cy="352.0" r="2.09" fill="#ecb478" opacity="0.29"/><circle cx="104.2" cy="351.7" r="3.82" fill="#ecb478" opacity="0.16"/><circle cx="137.8" cy="356.9" r="3.09" fill="#ecb478" opacity="0.33"/><circle cx="172.5" cy="355.6" r="2.56" fill="#ecb478" opacity="0.31"/><circle cx="210.6" cy="356.5" r="3.90" fill="#ecb478" opacity="0.36"/><circle cx="244.4" cy="352.9" r="3.33" fill="#ecb478" opacity="0.31"/><circle cx="284.5" cy="356.5" r="2.60" fill="#ecb478" opacity="0.25"/><circle cx="317.9" cy="353.4" r="2.01" fill="#ecb478" opacity="0.33"/><circle cx="356.9" cy="357.0" r="3.72" fill="#ecb478" opacity="0.36"/><circle cx="391.6" cy="351.5" r="3.63" fill="#ecb478" opacity="0.24"/><circle cx="427.0" cy="351.9" r="3.16" fill="#ecb478" opacity="0.32"/><circle cx="463.8" cy="352.9" r="1.87" fill="#ecb478" opacity="0.35"/><circle cx="498.2" cy="355.7" r="3.43" fill="#ecb478" opacity="0.17"/><circle cx="534.8" cy="354.4" r="1.62" fill="#ecb478" opacity="0.34"/><circle cx="567.9" cy="352.9" r="3.64" fill="#ecb478" opacity="0.27"/><circle cx="606.5" cy="352.5" r="2.67" fill="#ecb478" opacity="0.18"/><circle cx="641.4" cy="356.8" r="3.41" fill="#ecb478" opacity="0.17"/><circle cx="678.9" cy="356.6" r="2.99" fill="#ecb478" opacity="0.26"/><circle cx="714.3" cy="354.1" r="3.84" fill="#ecb478" opacity="0.23"/><circle cx="751.9" cy="352.6" r="2.93" fill="#ecb478" opacity="0.25"/><circle cx="787.6" cy="351.5" r="2.77" fill="#ecb478" opacity="0.24"/><circle cx="819.5" cy="352.6" r="2.23" fill="#ecb478" opacity="0.24"/><circle cx="860.8" cy="356.6" r="1.85" fill="#ecb478" opacity="0.35"/><circle cx="893.0" cy="353.8" r="2.44" fill="#ecb478" opacity="0.25"/><circle cx="930.1" cy="353.9" r="2.40" fill="#ecb478" opacity="0.21"/><circle cx="968.8" cy="354.8" r="3.36" fill="#ecb478" opacity="0.28"/><circle cx="1004.8" cy="354.2" r="2.19" fill="#ecb478" opacity="0.29"/><circle cx="1040.3" cy="355.0" r="2.42" fill="#ecb478" opacity="0.34"/><circle cx="1071.8" cy="355.6" r="2.02" fill="#ecb478" opacity="0.32"/><circle cx="1111.3" cy="354.4" r="3.09" fill="#ecb478" opacity="0.30"/><circle cx="1146.1" cy="351.6" r="2.93" fill="#ecb478" opacity="0.34"/><circle cx="1180.4" cy="355.9" r="2.57" fill="#ecb478" opacity="0.33"/><circle cx="27.6" cy="392.9" r="3.39" fill="#ecb478" opacity="0.29"/><circle cx="66.2" cy="389.7" r="3.65" fill="#ecb478" opacity="0.30"/><circle cx="99.5" cy="387.3" r="1.96" fill="#ecb478" opacity="0.36"/><circle cx="138.4" cy="390.6" r="1.98" fill="#ecb478" opacity="0.20"/><circle cx="176.8" cy="388.0" r="3.20" fill="#ecb478" opacity="0.28"/><circle cx="207.4" cy="391.6" r="3.91" fill="#ecb478" opacity="0.29"/><circle cx="243.6" cy="392.1" r="1.90" fill="#ecb478" opacity="0.23"/><circle cx="283.2" cy="390.9" r="3.51" fill="#ecb478" opacity="0.15"/><circle cx="316.9" cy="388.3" r="1.73" fill="#ecb478" opacity="0.24"/><circle cx="353.7" cy="389.6" r="3.22" fill="#ecb478" opacity="0.35"/><circle cx="391.8" cy="387.6" r="3.36" fill="#ecb478" opacity="0.16"/><circle cx="428.7" cy="392.9" r="3.85" fill="#ecb478" opacity="0.24"/><circle cx="462.8" cy="389.6" r="3.05" fill="#ecb478" opacity="0.32"/><circle cx="496.0" cy="387.9" r="1.90" fill="#ecb478" opacity="0.21"/><circle cx="531.0" cy="392.0" r="1.76" fill="#ecb478" opacity="0.24"/><circle cx="571.2" cy="387.6" r="3.82" fill="#ecb478" opacity="0.18"/><circle cx="605.0" cy="388.6" r="2.37" fill="#ecb478" opacity="0.27"/><circle cx="639.2" cy="387.3" r="2.62" fill="#ecb478" opacity="0.17"/><circle cx="675.9" cy="391.1" r="3.09" fill="#ecb478" opacity="0.31"/><circle cx="715.8" cy="390.9" r="2.82" fill="#ecb478" opacity="0.25"/><circle cx="749.6" cy="391.0" r="2.33" fill="#ecb478" opacity="0.31"/><circle cx="785.1" cy="389.0" r="3.38" fill="#ecb478" opacity="0.22"/><circle cx="821.4" cy="387.1" r="2.16" fill="#ecb478" opacity="0.19"/><circle cx="860.6" cy="388.4" r="3.36" fill="#ecb478" opacity="0.20"/><circle cx="895.8" cy="388.1" r="3.26" fill="#ecb478" opacity="0.24"/><circle cx="930.7" cy="391.4" r="2.19" fill="#ecb478" opacity="0.17"/><circle cx="968.4" cy="392.3" r="3.39" fill="#ecb478" opacity="0.21"/><circle cx="1000.9" cy="390.1" r="2.60" fill="#ecb478" opacity="0.31"/><circle cx="1035.8" cy="390.2" r="2.99" fill="#ecb478" opacity="0.25"/><circle cx="1075.1" cy="392.1" r="1.84" fill="#ecb478" opacity="0.36"/><circle cx="1111.4" cy="388.8" r="2.27" fill="#ecb478" opacity="0.16"/><circle cx="1146.3" cy="389.5" r="1.64" fill="#ecb478" opacity="0.26"/><circle cx="1181.0" cy="387.1" r="3.90" fill="#ecb478" opacity="0.29"/><circle cx="29.3" cy="423.3" r="3.85" fill="#ecb478" opacity="0.29"/><circle cx="67.0" cy="424.0" r="2.74" fill="#ecb478" opacity="0.23"/><circle cx="99.9" cy="428.9" r="1.74" fill="#ecb478" opacity="0.34"/><circle cx="138.6" cy="426.5" r="1.92" fill="#ecb478" opacity="0.26"/><circle cx="171.4" cy="428.5" r="3.29" fill="#ecb478" opacity="0.22"/><circle cx="207.5" cy="427.0" r="1.99" fill="#ecb478" opacity="0.32"/><circle cx="243.3" cy="423.9" r="3.55" fill="#ecb478" opacity="0.23"/><circle cx="283.9" cy="427.5" r="3.15" fill="#ecb478" opacity="0.17"/><circle cx="317.5" cy="426.8" r="2.47" fill="#ecb478" opacity="0.33"/><circle cx="355.2" cy="427.8" r="3.05" fill="#ecb478" opacity="0.16"/><circle cx="389.9" cy="427.2" r="3.55" fill="#ecb478" opacity="0.34"/><circle cx="424.7" cy="428.1" r="2.83" fill="#ecb478" opacity="0.30"/><circle cx="459.2" cy="427.0" r="3.39" fill="#ecb478" opacity="0.26"/><circle cx="499.2" cy="426.5" r="1.99" fill="#ecb478" opacity="0.22"/><circle cx="532.5" cy="427.6" r="1.69" fill="#ecb478" opacity="0.34"/><circle cx="567.2" cy="423.3" r="2.39" fill="#ecb478" opacity="0.33"/><circle cx="604.4" cy="425.4" r="3.94" fill="#ecb478" opacity="0.16"/><circle cx="642.6" cy="428.8" r="3.49" fill="#ecb478" opacity="0.34"/><circle cx="675.9" cy="427.9" r="3.80" fill="#ecb478" opacity="0.21"/><circle cx="715.4" cy="424.9" r="2.13" fill="#ecb478" opacity="0.15"/><circle cx="751.6" cy="424.1" r="2.17" fill="#ecb478" opacity="0.32"/><circle cx="783.8" cy="425.5" r="3.65" fill="#ecb478" opacity="0.30"/><circle cx="824.2" cy="423.5" r="2.42" fill="#ecb478" opacity="0.26"/><circle cx="856.5" cy="427.4" r="1.66" fill="#ecb478" opacity="0.23"/><circle cx="896.8" cy="423.6" r="3.21" fill="#ecb478" opacity="0.32"/><circle cx="929.4" cy="424.2" r="3.05" fill="#ecb478" opacity="0.18"/><circle cx="969.0" cy="424.3" r="3.18" fill="#ecb478" opacity="0.27"/><circle cx="1003.9" cy="427.1" r="2.14" fill="#ecb478" opacity="0.28"/><circle cx="1038.3" cy="428.2" r="3.61" fill="#ecb478" opacity="0.25"/><circle cx="1071.6" cy="424.1" r="2.45" fill="#ecb478" opacity="0.19"/><circle cx="1107.3" cy="423.5" r="2.71" fill="#ecb478" opacity="0.24"/><circle cx="1144.3" cy="424.0" r="2.73" fill="#ecb478" opacity="0.28"/><circle cx="1179.3" cy="427.2" r="3.65" fill="#ecb478" opacity="0.27"/><circle cx="30.8" cy="463.1" r="3.34" fill="#ecb478" opacity="0.35"/><circle cx="64.7" cy="462.0" r="3.37" fill="#ecb478" opacity="0.34"/><circle cx="104.4" cy="463.8" r="1.90" fill="#ecb478" opacity="0.29"/><circle cx="135.0" cy="463.0" r="2.74" fill="#ecb478" opacity="0.26"/><circle cx="173.3" cy="462.9" r="3.82" fill="#ecb478" opacity="0.20"/><circle cx="211.1" cy="462.0" r="2.99" fill="#ecb478" opacity="0.23"/><circle cx="243.9" cy="459.6" r="2.32" fill="#ecb478" opacity="0.36"/><circle cx="284.6" cy="462.1" r="1.87" fill="#ecb478" opacity="0.31"/><circle cx="319.6" cy="460.0" r="2.03" fill="#ecb478" opacity="0.21"/><circle cx="352.5" cy="459.6" r="3.11" fill="#ecb478" opacity="0.19"/><circle cx="391.3" cy="464.2" r="1.88" fill="#ecb478" opacity="0.23"/><circle cx="423.6" cy="464.7" r="2.00" fill="#ecb478" opacity="0.18"/><circle cx="462.4" cy="459.2" r="1.80" fill="#ecb478" opacity="0.19"/><circle cx="495.7" cy="461.2" r="2.77" fill="#ecb478" opacity="0.17"/><circle cx="535.3" cy="463.7" r="2.88" fill="#ecb478" opacity="0.19"/><circle cx="570.5" cy="464.5" r="2.11" fill="#ecb478" opacity="0.16"/><circle cx="608.8" cy="464.5" r="1.66" fill="#ecb478" opacity="0.19"/><circle cx="641.7" cy="461.4" r="2.40" fill="#ecb478" opacity="0.33"/><circle cx="675.6" cy="462.1" r="3.27" fill="#ecb478" opacity="0.33"/><circle cx="713.0" cy="460.8" r="1.65" fill="#ecb478" opacity="0.30"/><circle cx="750.2" cy="462.0" r="2.22" fill="#ecb478" opacity="0.31"/><circle cx="788.4" cy="462.4" r="1.75" fill="#ecb478" opacity="0.21"/><circle cx="821.0" cy="463.7" r="1.94" fill="#ecb478" opacity="0.24"/><circle cx="857.6" cy="463.2" r="2.57" fill="#ecb478" opacity="0.33"/><circle cx="891.1" cy="459.4" r="3.36" fill="#ecb478" opacity="0.26"/><circle cx="927.4" cy="460.9" r="1.88" fill="#ecb478" opacity="0.19"/><circle cx="966.5" cy="462.8" r="2.68" fill="#ecb478" opacity="0.16"/><circle cx="1001.5" cy="460.5" r="2.37" fill="#ecb478" opacity="0.23"/><circle cx="1039.7" cy="462.6" r="2.16" fill="#ecb478" opacity="0.33"/><circle cx="1073.6" cy="462.9" r="2.86" fill="#ecb478" opacity="0.22"/><circle cx="1107.2" cy="462.7" r="3.75" fill="#ecb478" opacity="0.24"/><circle cx="1147.1" cy="461.7" r="1.88" fill="#ecb478" opacity="0.16"/><circle cx="1179.6" cy="464.4" r="2.59" fill="#ecb478" opacity="0.34"/><circle cx="27.2" cy="499.7" r="3.84" fill="#ecb478" opacity="0.29"/><circle cx="63.5" cy="496.5" r="3.38" fill="#ecb478" opacity="0.33"/><circle cx="100.6" cy="497.0" r="1.81" fill="#ecb478" opacity="0.18"/><circle cx="137.5" cy="496.6" r="1.66" fill="#ecb478" opacity="0.24"/><circle cx="174.5" cy="499.7" r="2.96" fill="#ecb478" opacity="0.28"/><circle cx="211.7" cy="498.4" r="3.19" fill="#ecb478" opacity="0.16"/><circle cx="247.3" cy="500.7" r="2.12" fill="#ecb478" opacity="0.24"/><circle cx="279.2" cy="499.1" r="1.67" fill="#ecb478" opacity="0.18"/><circle cx="317.7" cy="499.0" r="3.01" fill="#ecb478" opacity="0.16"/><circle cx="355.0" cy="498.8" r="3.72" fill="#ecb478" opacity="0.35"/><circle cx="387.1" cy="499.9" r="1.70" fill="#ecb478" opacity="0.30"/><circle cx="426.9" cy="500.7" r="2.49" fill="#ecb478" opacity="0.26"/><circle cx="460.0" cy="499.1" r="1.85" fill="#ecb478" opacity="0.28"/><circle cx="498.6" cy="497.0" r="1.86" fill="#ecb478" opacity="0.20"/><circle cx="535.0" cy="499.6" r="3.89" fill="#ecb478" opacity="0.27"/><circle cx="571.7" cy="497.6" r="3.55" fill="#ecb478" opacity="0.32"/><circle cx="608.7" cy="499.5" r="2.36" fill="#ecb478" opacity="0.28"/><circle cx="643.9" cy="499.2" r="2.12" fill="#ecb478" opacity="0.22"/><circle cx="676.8" cy="499.5" r="2.61" fill="#ecb478" opacity="0.35"/><circle cx="712.4" cy="496.3" r="3.05" fill="#ecb478" opacity="0.24"/><circle cx="747.4" cy="499.0" r="2.00" fill="#ecb478" opacity="0.22"/><circle cx="787.1" cy="499.4" r="2.79" fill="#ecb478" opacity="0.25"/><circle cx="819.2" cy="500.6" r="2.35" fill="#ecb478" opacity="0.19"/><circle cx="860.0" cy="496.4" r="1.66" fill="#ecb478" opacity="0.31"/><circle cx="892.2" cy="497.8" r="2.44" fill="#ecb478" opacity="0.34"/><circle cx="930.5" cy="498.5" r="1.66" fill="#ecb478" opacity="0.23"/><circle cx="968.2" cy="498.0" r="2.16" fill="#ecb478" opacity="0.36"/><circle cx="1002.6" cy="496.0" r="3.42" fill="#ecb478" opacity="0.25"/><circle cx="1039.1" cy="500.6" r="2.33" fill="#ecb478" opacity="0.34"/><circle cx="1075.0" cy="500.6" r="3.13" fill="#ecb478" opacity="0.19"/><circle cx="1107.7" cy="500.7" r="1.77" fill="#ecb478" opacity="0.22"/><circle cx="1148.3" cy="497.1" r="3.97" fill="#ecb478" opacity="0.29"/><circle cx="1184.1" cy="496.1" r="2.76" fill="#ecb478" opacity="0.33"/><circle cx="28.4" cy="535.4" r="3.47" fill="#ecb478" opacity="0.34"/><circle cx="67.3" cy="533.4" r="1.64" fill="#ecb478" opacity="0.34"/><circle cx="104.5" cy="535.9" r="2.75" fill="#ecb478" opacity="0.26"/><circle cx="138.5" cy="531.4" r="3.51" fill="#ecb478" opacity="0.15"/><circle cx="172.8" cy="531.0" r="2.31" fill="#ecb478" opacity="0.15"/><circle cx="210.4" cy="532.8" r="2.31" fill="#ecb478" opacity="0.32"/><circle cx="246.1" cy="532.6" r="2.48" fill="#ecb478" opacity="0.30"/><circle cx="284.6" cy="533.8" r="2.74" fill="#ecb478" opacity="0.18"/><circle cx="317.5" cy="536.9" r="3.75" fill="#ecb478" opacity="0.36"/><circle cx="352.2" cy="536.6" r="3.66" fill="#ecb478" opacity="0.28"/><circle cx="391.1" cy="532.4" r="2.58" fill="#ecb478" opacity="0.21"/><circle cx="428.3" cy="532.2" r="2.97" fill="#ecb478" opacity="0.17"/><circle cx="463.9" cy="535.5" r="2.18" fill="#ecb478" opacity="0.21"/><circle cx="499.5" cy="535.6" r="2.09" fill="#ecb478" opacity="0.29"/><circle cx="532.5" cy="535.0" r="3.84" fill="#ecb478" opacity="0.36"/><circle cx="570.3" cy="536.6" r="2.71" fill="#ecb478" opacity="0.24"/><circle cx="604.5" cy="531.3" r="3.66" fill="#ecb478" opacity="0.25"/><circle cx="639.5" cy="533.6" r="3.65" fill="#ecb478" opacity="0.24"/><circle cx="679.2" cy="532.1" r="2.72" fill="#ecb478" opacity="0.28"/><circle cx="715.4" cy="531.1" r="3.71" fill="#ecb478" opacity="0.29"/><circle cx="751.4" cy="535.1" r="2.63" fill="#ecb478" opacity="0.19"/><circle cx="786.4" cy="534.7" r="1.76" fill="#ecb478" opacity="0.30"/><circle cx="821.2" cy="536.9" r="3.07" fill="#ecb478" opacity="0.16"/><circle cx="857.9" cy="533.9" r="2.12" fill="#ecb478" opacity="0.22"/><circle cx="891.4" cy="534.1" r="2.54" fill="#ecb478" opacity="0.25"/><circle cx="931.6" cy="535.1" r="3.60" fill="#ecb478" opacity="0.28"/><circle cx="964.7" cy="536.0" r="3.53" fill="#ecb478" opacity="0.30"/><circle cx="1000.2" cy="531.8" r="3.02" fill="#ecb478" opacity="0.25"/><circle cx="1037.5" cy="533.4" r="2.77" fill="#ecb478" opacity="0.23"/><circle cx="1071.6" cy="531.2" r="3.12" fill="#ecb478" opacity="0.34"/><circle cx="1109.3" cy="533.5" r="3.98" fill="#ecb478" opacity="0.15"/><circle cx="1148.9" cy="534.5" r="2.31" fill="#ecb478" opacity="0.28"/><circle cx="1183.9" cy="537.0" r="3.87" fill="#ecb478" opacity="0.16"/><circle cx="28.6" cy="567.5" r="2.41" fill="#ecb478" opacity="0.24"/><circle cx="63.7" cy="569.4" r="2.12" fill="#ecb478" opacity="0.26"/><circle cx="99.5" cy="569.7" r="2.47" fill="#ecb478" opacity="0.36"/><circle cx="140.0" cy="568.3" r="1.64" fill="#ecb478" opacity="0.26"/><circle cx="171.5" cy="570.3" r="3.31" fill="#ecb478" opacity="0.17"/><circle cx="211.6" cy="567.3" r="2.60" fill="#ecb478" opacity="0.18"/><circle cx="247.7" cy="570.6" r="2.99" fill="#ecb478" opacity="0.35"/><circle cx="279.7" cy="570.6" r="2.99" fill="#ecb478" opacity="0.16"/><circle cx="320.9" cy="567.8" r="1.67" fill="#ecb478" opacity="0.23"/><circle cx="351.9" cy="568.4" r="2.04" fill="#ecb478" opacity="0.22"/><circle cx="392.6" cy="570.7" r="3.89" fill="#ecb478" opacity="0.27"/><circle cx="424.4" cy="569.2" r="3.15" fill="#ecb478" opacity="0.23"/><circle cx="462.9" cy="567.6" r="1.94" fill="#ecb478" opacity="0.17"/><circle cx="496.8" cy="567.9" r="2.06" fill="#ecb478" opacity="0.34"/><circle cx="536.2" cy="568.6" r="3.76" fill="#ecb478" opacity="0.33"/><circle cx="571.1" cy="567.8" r="3.38" fill="#ecb478" opacity="0.18"/><circle cx="608.1" cy="569.9" r="3.45" fill="#ecb478" opacity="0.28"/><circle cx="640.5" cy="569.3" r="3.98" fill="#ecb478" opacity="0.16"/><circle cx="679.3" cy="567.8" r="2.83" fill="#ecb478" opacity="0.31"/><circle cx="712.7" cy="571.7" r="2.72" fill="#ecb478" opacity="0.25"/><circle cx="750.6" cy="570.8" r="1.74" fill="#ecb478" opacity="0.26"/><circle cx="787.9" cy="567.6" r="3.20" fill="#ecb478" opacity="0.36"/><circle cx="820.3" cy="567.0" r="3.77" fill="#ecb478" opacity="0.34"/><circle cx="856.2" cy="569.8" r="1.83" fill="#ecb478" opacity="0.27"/><circle cx="891.3" cy="568.8" r="3.82" fill="#ecb478" opacity="0.34"/><circle cx="927.1" cy="567.5" r="3.52" fill="#ecb478" opacity="0.29"/><circle cx="968.7" cy="573.0" r="1.76" fill="#ecb478" opacity="0.33"/><circle cx="1002.7" cy="567.7" r="2.41" fill="#ecb478" opacity="0.35"/><circle cx="1039.3" cy="572.7" r="3.91" fill="#ecb478" opacity="0.20"/><circle cx="1073.5" cy="569.1" r="3.83" fill="#ecb478" opacity="0.32"/><circle cx="1108.0" cy="572.6" r="2.43" fill="#ecb478" opacity="0.19"/><circle cx="1147.9" cy="569.1" r="3.84" fill="#ecb478" opacity="0.25"/><circle cx="1179.6" cy="570.9" r="3.24" fill="#ecb478" opacity="0.19"/><circle cx="27.5" cy="607.9" r="1.98" fill="#ecb478" opacity="0.21"/><circle cx="63.2" cy="604.6" r="2.46" fill="#ecb478" opacity="0.27"/><circle cx="99.2" cy="604.9" r="3.85" fill="#ecb478" opacity="0.23"/><circle cx="140.3" cy="606.4" r="2.87" fill="#ecb478" opacity="0.23"/><circle cx="175.2" cy="603.3" r="3.30" fill="#ecb478" opacity="0.18"/><circle cx="207.2" cy="604.3" r="2.61" fill="#ecb478" opacity="0.19"/><circle cx="244.1" cy="607.8" r="3.80" fill="#ecb478" opacity="0.20"/><circle cx="280.4" cy="607.2" r="3.98" fill="#ecb478" opacity="0.30"/><circle cx="316.9" cy="607.1" r="2.88" fill="#ecb478" opacity="0.24"/><circle cx="351.6" cy="604.9" r="3.77" fill="#ecb478" opacity="0.33"/><circle cx="390.8" cy="604.6" r="2.44" fill="#ecb478" opacity="0.21"/><circle cx="425.4" cy="608.6" r="3.00" fill="#ecb478" opacity="0.36"/><circle cx="460.9" cy="608.5" r="2.32" fill="#ecb478" opacity="0.35"/><circle cx="498.7" cy="608.7" r="2.50" fill="#ecb478" opacity="0.31"/><circle cx="532.8" cy="607.3" r="1.75" fill="#ecb478" opacity="0.23"/><circle cx="567.2" cy="608.6" r="2.86" fill="#ecb478" opacity="0.26"/><circle cx="606.0" cy="605.7" r="2.64" fill="#ecb478" opacity="0.24"/><circle cx="642.2" cy="608.3" r="1.61" fill="#ecb478" opacity="0.17"/><circle cx="677.0" cy="604.5" r="2.82" fill="#ecb478" opacity="0.23"/><circle cx="714.5" cy="604.7" r="3.28" fill="#ecb478" opacity="0.30"/><circle cx="750.6" cy="606.8" r="2.90" fill="#ecb478" opacity="0.24"/><circle cx="783.6" cy="605.2" r="1.97" fill="#ecb478" opacity="0.21"/><circle cx="822.7" cy="607.3" r="3.45" fill="#ecb478" opacity="0.27"/><circle cx="858.9" cy="606.2" r="2.54" fill="#ecb478" opacity="0.15"/><circle cx="892.3" cy="606.7" r="2.92" fill="#ecb478" opacity="0.28"/><circle cx="928.2" cy="608.5" r="2.01" fill="#ecb478" opacity="0.20"/><circle cx="963.1" cy="604.6" r="2.03" fill="#ecb478" opacity="0.20"/><circle cx="1000.9" cy="607.1" r="3.84" fill="#ecb478" opacity="0.23"/><circle cx="1036.5" cy="604.1" r="3.11" fill="#ecb478" opacity="0.36"/><circle cx="1074.4" cy="606.1" r="3.70" fill="#ecb478" opacity="0.30"/><circle cx="1109.6" cy="603.9" r="2.56" fill="#ecb478" opacity="0.26"/><circle cx="1145.0" cy="605.9" r="2.13" fill="#ecb478" opacity="0.35"/><circle cx="1182.4" cy="605.5" r="3.67" fill="#ecb478" opacity="0.33"/><circle cx="27.8" cy="643.6" r="1.79" fill="#ecb478" opacity="0.36"/><circle cx="68.9" cy="644.2" r="3.02" fill="#ecb478" opacity="0.27"/><circle cx="101.0" cy="642.2" r="2.06" fill="#ecb478" opacity="0.22"/><circle cx="139.1" cy="639.6" r="2.75" fill="#ecb478" opacity="0.31"/><circle cx="172.0" cy="643.5" r="2.02" fill="#ecb478" opacity="0.23"/><circle cx="209.6" cy="639.6" r="2.20" fill="#ecb478" opacity="0.15"/><circle cx="248.8" cy="640.9" r="1.82" fill="#ecb478" opacity="0.19"/><circle cx="279.0" cy="641.3" r="3.90" fill="#ecb478" opacity="0.35"/><circle cx="317.5" cy="642.5" r="3.01" fill="#ecb478" opacity="0.23"/><circle cx="356.8" cy="639.8" r="2.78" fill="#ecb478" opacity="0.16"/><circle cx="387.3" cy="643.6" r="3.46" fill="#ecb478" opacity="0.18"/><circle cx="426.3" cy="643.1" r="2.29" fill="#ecb478" opacity="0.27"/><circle cx="460.3" cy="642.7" r="3.70" fill="#ecb478" opacity="0.26"/><circle cx="495.9" cy="644.4" r="2.54" fill="#ecb478" opacity="0.15"/><circle cx="532.9" cy="639.2" r="3.08" fill="#ecb478" opacity="0.18"/><circle cx="569.6" cy="639.3" r="2.60" fill="#ecb478" opacity="0.25"/><circle cx="607.0" cy="639.4" r="2.19" fill="#ecb478" opacity="0.27"/><circle cx="640.1" cy="644.3" r="3.60" fill="#ecb478" opacity="0.28"/><circle cx="678.1" cy="642.3" r="1.82" fill="#ecb478" opacity="0.25"/><circle cx="712.0" cy="640.7" r="3.91" fill="#ecb478" opacity="0.31"/><circle cx="748.8" cy="643.5" r="2.50" fill="#ecb478" opacity="0.26"/><circle cx="785.0" cy="643.1" r="3.70" fill="#ecb478" opacity="0.36"/><circle cx="819.6" cy="643.7" r="2.81" fill="#ecb478" opacity="0.35"/><circle cx="855.9" cy="644.2" r="3.03" fill="#ecb478" opacity="0.17"/><circle cx="895.3" cy="640.0" r="1.66" fill="#ecb478" opacity="0.28"/><circle cx="927.7" cy="640.3" r="2.71" fill="#ecb478" opacity="0.25"/><circle cx="967.0" cy="644.9" r="3.98" fill="#ecb478" opacity="0.20"/><circle cx="1004.6" cy="641.4" r="3.59" fill="#ecb478" opacity="0.22"/><circle cx="1035.4" cy="644.0" r="2.32" fill="#ecb478" opacity="0.21"/><circle cx="1074.1" cy="640.8" r="3.85" fill="#ecb478" opacity="0.29"/><circle cx="1110.0" cy="644.9" r="3.93" fill="#ecb478" opacity="0.24"/><circle cx="1147.7" cy="644.4" r="1.97" fill="#ecb478" opacity="0.26"/><circle cx="1182.0" cy="641.1" r="2.51" fill="#ecb478" opacity="0.31"/><circle cx="269.9" cy="232.0" r="220" fill="url(#glow)" opacity="0.9"/>
  <g opacity="0.85" transform="translate(1020, 495)">
        <circle r="60" fill="#ecb478" opacity="0.18"/>
        <path d="M -34 6 Q -10 -22 14 6 Q 34 24 14 26 L -22 26 Q -38 24 -34 6 Z" fill="none" stroke="#faebd6" stroke-width="3" stroke-linejoin="round"/>
      </g>
  <g transform="translate(80, 90)">
    <rect x="0" y="0" rx="20" ry="20" width="134" height="38" fill="#ecb478" opacity="0.18" stroke="#ecb478" stroke-width="1.5"/>
    <text x="67" y="25" font-family="ui-sans-serif, Inter, sans-serif" font-weight="700" font-size="14" letter-spacing="2.5" fill="#ecb478" text-anchor="middle">CASE STUDY</text>
  </g>
  <text x="80" y="465" font-family="ui-sans-serif, -apple-system, Segoe UI, Inter, sans-serif" font-weight="800" font-size="44" fill="#faf8f5" opacity="0.98"><tspan x="80" dy="0">Settling a Textile Trade</tspan><tspan x="80" dy="56">Dispute: Case Summary and</tspan><tspan x="80" dy="56">Resolution</tspan></text>
  <rect x="0" y="669" width="1200" height="6" fill="url(#gold)"/>
</svg>