<?xml version="1.0" encoding="UTF-8"?>
<svg xmlns="http://www.w3.org/2000/svg" viewBox="0 0 1200 675" width="1200" height="675" role="img" aria-label="10 Key Points About Data Protection Laws in India">
  <defs>
    <linearGradient id="bg" x1="0%" y1="0%" x2="100%" y2="100%">
      <stop offset="0%" stop-color="#0c0a09"/>
      <stop offset="100%" stop-color="#291813"/>
    </linearGradient>
    <linearGradient id="gold" x1="0%" y1="0%" x2="100%" y2="100%">
      <stop offset="0%" stop-color="#d4862a"/>
      <stop offset="100%" stop-color="#bd6b20"/>
    </linearGradient>
    <radialGradient id="glow" cx="50%" cy="50%" r="50%">
      <stop offset="0%" stop-color="#d4862a" stop-opacity="0.45"/>
      <stop offset="100%" stop-color="#d4862a" stop-opacity="0"/>
    </radialGradient>
  </defs>
  <rect width="1200" height="675" fill="url(#bg)"/>
  <circle cx="32.1" cy="29.5" r="3.24" fill="#d4862a" opacity="0.20"/><circle cx="63.5" cy="28.5" r="2.10" fill="#d4862a" opacity="0.35"/><circle cx="99.1" cy="28.3" r="2.55" fill="#d4862a" opacity="0.28"/><circle cx="137.5" cy="28.2" r="3.48" fill="#d4862a" opacity="0.22"/><circle cx="172.5" cy="31.7" r="2.79" fill="#d4862a" opacity="0.24"/><circle cx="209.9" cy="32.1" r="3.56" fill="#d4862a" opacity="0.25"/><circle cx="246.8" cy="28.5" r="2.05" fill="#d4862a" opacity="0.20"/><circle cx="279.2" cy="27.6" r="3.80" fill="#d4862a" opacity="0.15"/><circle cx="315.9" cy="30.7" r="2.23" fill="#d4862a" opacity="0.18"/><circle cx="351.4" cy="32.5" r="3.71" fill="#d4862a" opacity="0.32"/><circle cx="387.7" cy="27.5" r="3.52" fill="#d4862a" opacity="0.20"/><circle cx="426.0" cy="29.9" r="2.97" fill="#d4862a" opacity="0.24"/><circle cx="461.5" cy="30.8" r="1.63" fill="#d4862a" opacity="0.18"/><circle cx="497.8" cy="28.5" r="1.89" fill="#d4862a" opacity="0.36"/><circle cx="534.2" cy="30.4" r="3.66" fill="#d4862a" opacity="0.30"/><circle cx="567.8" cy="27.5" r="3.07" fill="#d4862a" opacity="0.20"/><circle cx="603.5" cy="29.9" r="1.76" fill="#d4862a" opacity="0.33"/><circle cx="640.5" cy="28.3" r="2.94" fill="#d4862a" opacity="0.30"/><circle cx="676.9" cy="27.9" r="3.22" fill="#d4862a" opacity="0.34"/><circle cx="714.5" cy="28.3" r="3.06" fill="#d4862a" opacity="0.18"/><circle cx="750.3" cy="29.1" r="3.72" fill="#d4862a" opacity="0.34"/><circle cx="785.7" cy="28.9" r="2.84" fill="#d4862a" opacity="0.30"/><circle cx="824.6" cy="31.1" r="3.23" fill="#d4862a" opacity="0.18"/><circle cx="860.3" cy="27.2" r="3.57" fill="#d4862a" opacity="0.35"/><circle cx="892.6" cy="31.5" r="3.61" fill="#d4862a" opacity="0.33"/><circle cx="927.4" cy="28.6" r="2.94" fill="#d4862a" opacity="0.19"/><circle cx="966.6" cy="28.7" r="2.45" fill="#d4862a" opacity="0.30"/><circle cx="1003.3" cy="29.0" r="3.18" fill="#d4862a" opacity="0.24"/><circle cx="1037.4" cy="29.9" r="3.68" fill="#d4862a" opacity="0.22"/><circle cx="1073.2" cy="27.9" r="3.78" fill="#d4862a" opacity="0.24"/><circle cx="1111.4" cy="29.8" r="2.68" fill="#d4862a" opacity="0.26"/><circle cx="1148.5" cy="31.1" r="3.94" fill="#d4862a" opacity="0.23"/><circle cx="1182.0" cy="28.6" r="3.04" fill="#d4862a" opacity="0.19"/><circle cx="27.1" cy="64.7" r="2.60" fill="#d4862a" opacity="0.32"/><circle cx="66.7" cy="68.2" r="2.29" fill="#d4862a" opacity="0.36"/><circle cx="99.5" cy="64.5" r="2.62" fill="#d4862a" opacity="0.17"/><circle cx="137.8" cy="64.7" r="1.93" fill="#d4862a" opacity="0.28"/><circle cx="172.5" cy="66.9" r="3.08" fill="#d4862a" opacity="0.15"/><circle cx="209.9" cy="68.6" r="2.48" fill="#d4862a" opacity="0.16"/><circle cx="244.6" cy="65.6" r="1.65" fill="#d4862a" opacity="0.33"/><circle cx="280.2" cy="65.2" r="2.22" fill="#d4862a" opacity="0.19"/><circle cx="316.5" cy="63.5" r="1.93" fill="#d4862a" opacity="0.19"/><circle cx="356.1" cy="67.5" r="3.77" fill="#d4862a" opacity="0.19"/><circle cx="390.6" cy="65.0" r="2.74" fill="#d4862a" opacity="0.31"/><circle cx="426.3" cy="66.9" r="3.12" fill="#d4862a" opacity="0.31"/><circle cx="460.5" cy="65.0" r="1.71" fill="#d4862a" opacity="0.33"/><circle cx="499.5" cy="66.6" r="1.64" fill="#d4862a" opacity="0.22"/><circle cx="534.3" cy="64.9" r="2.31" fill="#d4862a" opacity="0.34"/><circle cx="570.2" cy="63.4" r="2.65" fill="#d4862a" opacity="0.20"/><circle cx="604.4" cy="64.3" r="2.58" fill="#d4862a" opacity="0.31"/><circle cx="640.8" cy="64.9" r="2.70" fill="#d4862a" opacity="0.31"/><circle cx="676.6" cy="65.6" r="3.26" fill="#d4862a" opacity="0.21"/><circle cx="715.0" cy="65.9" r="2.96" fill="#d4862a" opacity="0.16"/><circle cx="751.3" cy="64.4" r="2.47" fill="#d4862a" opacity="0.27"/><circle cx="786.9" cy="67.8" r="3.39" fill="#d4862a" opacity="0.19"/><circle cx="820.2" cy="63.5" r="3.65" fill="#d4862a" opacity="0.30"/><circle cx="858.1" cy="67.4" r="2.20" fill="#d4862a" opacity="0.21"/><circle cx="896.5" cy="66.0" r="2.36" fill="#d4862a" opacity="0.18"/><circle cx="932.5" cy="67.2" r="1.83" fill="#d4862a" opacity="0.24"/><circle cx="963.1" cy="68.7" r="2.40" fill="#d4862a" opacity="0.16"/><circle cx="1001.6" cy="66.9" r="2.41" fill="#d4862a" opacity="0.36"/><circle cx="1036.3" cy="66.8" r="3.22" fill="#d4862a" opacity="0.19"/><circle cx="1075.5" cy="66.7" r="3.32" fill="#d4862a" opacity="0.30"/><circle cx="1110.2" cy="65.8" r="3.72" fill="#d4862a" opacity="0.17"/><circle cx="1147.9" cy="63.7" r="2.47" fill="#d4862a" opacity="0.22"/><circle cx="1180.5" cy="65.2" r="3.93" fill="#d4862a" opacity="0.19"/><circle cx="32.3" cy="100.8" r="2.31" fill="#d4862a" opacity="0.32"/><circle cx="67.1" cy="99.6" r="2.96" fill="#d4862a" opacity="0.28"/><circle cx="99.3" cy="104.0" r="2.79" fill="#d4862a" opacity="0.34"/><circle cx="136.8" cy="101.4" r="2.69" fill="#d4862a" opacity="0.26"/><circle cx="171.9" cy="103.4" r="1.67" fill="#d4862a" opacity="0.23"/><circle cx="212.7" cy="105.0" r="2.99" fill="#d4862a" opacity="0.23"/><circle cx="247.3" cy="102.7" r="3.39" fill="#d4862a" opacity="0.19"/><circle cx="284.4" cy="103.0" r="3.88" fill="#d4862a" opacity="0.26"/><circle cx="319.2" cy="99.5" r="2.13" fill="#d4862a" opacity="0.19"/><circle cx="354.1" cy="101.1" r="3.19" fill="#d4862a" opacity="0.19"/><circle cx="389.1" cy="99.4" r="3.12" fill="#d4862a" opacity="0.28"/><circle cx="424.8" cy="102.3" r="3.45" fill="#d4862a" opacity="0.34"/><circle cx="462.3" cy="103.8" r="2.67" fill="#d4862a" opacity="0.24"/><circle cx="499.7" cy="99.3" r="1.93" fill="#d4862a" opacity="0.21"/><circle cx="535.1" cy="101.2" r="3.79" fill="#d4862a" opacity="0.20"/><circle cx="572.6" cy="103.2" r="2.82" fill="#d4862a" opacity="0.34"/><circle cx="608.9" cy="101.1" r="2.85" fill="#d4862a" opacity="0.28"/><circle cx="644.6" cy="103.4" r="2.32" fill="#d4862a" opacity="0.19"/><circle cx="678.0" cy="103.0" r="2.81" fill="#d4862a" opacity="0.15"/><circle cx="712.8" cy="99.8" r="2.31" fill="#d4862a" opacity="0.34"/><circle cx="749.1" cy="99.1" r="2.07" fill="#d4862a" opacity="0.16"/><circle cx="787.6" cy="100.1" r="2.19" fill="#d4862a" opacity="0.19"/><circle cx="823.8" cy="102.5" r="3.10" fill="#d4862a" opacity="0.17"/><circle cx="855.5" cy="100.7" r="1.63" fill="#d4862a" opacity="0.28"/><circle cx="891.1" cy="100.7" r="3.45" fill="#d4862a" opacity="0.27"/><circle cx="928.3" cy="100.0" r="2.80" fill="#d4862a" opacity="0.29"/><circle cx="966.3" cy="103.9" r="3.15" fill="#d4862a" opacity="0.26"/><circle cx="1004.9" cy="102.9" r="2.28" fill="#d4862a" opacity="0.17"/><circle cx="1037.4" cy="104.0" r="3.10" fill="#d4862a" opacity="0.32"/><circle cx="1075.4" cy="102.6" r="1.68" fill="#d4862a" opacity="0.24"/><circle cx="1110.4" cy="101.9" r="1.87" fill="#d4862a" opacity="0.22"/><circle cx="1144.3" cy="103.0" r="2.53" fill="#d4862a" opacity="0.20"/><circle cx="1184.5" cy="101.2" r="2.38" fill="#d4862a" opacity="0.17"/><circle cx="30.5" cy="140.5" r="3.96" fill="#d4862a" opacity="0.19"/><circle cx="66.6" cy="137.1" r="3.06" fill="#d4862a" opacity="0.15"/><circle cx="101.3" cy="137.7" r="3.00" fill="#d4862a" opacity="0.22"/><circle cx="136.3" cy="135.6" r="2.39" fill="#d4862a" opacity="0.35"/><circle cx="174.5" cy="136.5" r="3.98" fill="#d4862a" opacity="0.34"/><circle cx="208.0" cy="136.1" r="3.73" fill="#d4862a" opacity="0.28"/><circle cx="245.1" cy="135.6" r="3.69" fill="#d4862a" opacity="0.20"/><circle cx="283.9" cy="136.9" r="2.51" fill="#d4862a" opacity="0.26"/><circle cx="320.6" cy="136.2" r="3.46" fill="#d4862a" opacity="0.25"/><circle cx="353.2" cy="139.5" r="1.77" fill="#d4862a" opacity="0.17"/><circle cx="389.1" cy="139.6" r="1.78" fill="#d4862a" opacity="0.18"/><circle cx="426.1" cy="139.1" r="3.99" fill="#d4862a" opacity="0.28"/><circle cx="461.5" cy="139.0" r="3.48" fill="#d4862a" opacity="0.23"/><circle cx="498.1" cy="140.0" r="3.77" fill="#d4862a" opacity="0.35"/><circle cx="532.4" cy="135.7" r="2.20" fill="#d4862a" opacity="0.19"/><circle cx="569.7" cy="137.2" r="3.40" fill="#d4862a" opacity="0.31"/><circle cx="604.5" cy="138.3" r="1.93" fill="#d4862a" opacity="0.36"/><circle cx="639.2" cy="136.5" r="2.03" fill="#d4862a" opacity="0.16"/><circle cx="676.4" cy="140.5" r="3.74" fill="#d4862a" opacity="0.20"/><circle cx="713.6" cy="140.6" r="3.29" fill="#d4862a" opacity="0.34"/><circle cx="748.4" cy="135.5" r="3.15" fill="#d4862a" opacity="0.19"/><circle cx="785.9" cy="137.5" r="2.98" fill="#d4862a" opacity="0.19"/><circle cx="824.2" cy="137.5" r="3.65" fill="#d4862a" opacity="0.28"/><circle cx="856.6" cy="136.1" r="2.75" fill="#d4862a" opacity="0.17"/><circle cx="896.3" cy="136.5" r="3.07" fill="#d4862a" opacity="0.31"/><circle cx="927.4" cy="139.8" r="3.71" fill="#d4862a" opacity="0.33"/><circle cx="963.2" cy="139.9" r="2.48" fill="#d4862a" opacity="0.34"/><circle cx="1000.0" cy="138.8" r="3.44" fill="#d4862a" opacity="0.35"/><circle cx="1036.1" cy="138.8" r="2.44" fill="#d4862a" opacity="0.18"/><circle cx="1076.1" cy="139.6" r="2.43" fill="#d4862a" opacity="0.32"/><circle cx="1108.1" cy="137.5" r="3.46" fill="#d4862a" opacity="0.19"/><circle cx="1145.0" cy="140.2" r="3.64" fill="#d4862a" opacity="0.26"/><circle cx="1183.9" cy="136.2" r="3.34" fill="#d4862a" opacity="0.16"/><circle cx="27.1" cy="173.5" r="3.97" fill="#d4862a" opacity="0.23"/><circle cx="66.2" cy="174.5" r="3.31" fill="#d4862a" opacity="0.17"/><circle cx="103.6" cy="174.1" r="2.25" fill="#d4862a" opacity="0.25"/><circle cx="135.2" cy="174.4" r="3.59" fill="#d4862a" opacity="0.27"/><circle cx="171.5" cy="174.8" r="2.30" fill="#d4862a" opacity="0.17"/><circle cx="211.4" cy="174.6" r="2.23" fill="#d4862a" opacity="0.16"/><circle cx="244.2" cy="174.0" r="1.68" fill="#d4862a" opacity="0.19"/><circle cx="283.4" cy="172.9" r="2.27" fill="#d4862a" opacity="0.32"/><circle cx="320.3" cy="175.3" r="1.79" fill="#d4862a" opacity="0.30"/><circle cx="356.0" cy="171.7" r="3.62" fill="#d4862a" opacity="0.20"/><circle cx="388.9" cy="172.9" r="3.96" fill="#d4862a" opacity="0.15"/><circle cx="426.7" cy="171.6" r="3.63" fill="#d4862a" opacity="0.29"/><circle cx="462.3" cy="174.6" r="3.30" fill="#d4862a" opacity="0.27"/><circle cx="499.3" cy="171.1" r="3.40" fill="#d4862a" opacity="0.31"/><circle cx="536.4" cy="175.8" r="1.73" fill="#d4862a" opacity="0.32"/><circle cx="569.9" cy="175.7" r="2.64" fill="#d4862a" opacity="0.19"/><circle cx="608.9" cy="172.9" r="2.33" fill="#d4862a" opacity="0.21"/><circle cx="641.7" cy="176.7" r="1.83" fill="#d4862a" opacity="0.28"/><circle cx="675.5" cy="176.4" r="1.62" fill="#d4862a" opacity="0.34"/><circle cx="712.3" cy="173.9" r="3.52" fill="#d4862a" opacity="0.20"/><circle cx="750.1" cy="173.3" r="2.34" fill="#d4862a" opacity="0.28"/><circle cx="785.7" cy="174.4" r="3.45" fill="#d4862a" opacity="0.35"/><circle cx="822.2" cy="173.5" r="3.86" fill="#d4862a" opacity="0.31"/><circle cx="856.5" cy="172.0" r="2.94" fill="#d4862a" opacity="0.19"/><circle cx="895.2" cy="176.6" r="3.53" fill="#d4862a" opacity="0.33"/><circle cx="930.5" cy="176.7" r="2.80" fill="#d4862a" opacity="0.19"/><circle cx="964.3" cy="173.2" r="1.88" fill="#d4862a" opacity="0.24"/><circle cx="1003.4" cy="174.9" r="2.43" fill="#d4862a" opacity="0.22"/><circle cx="1035.9" cy="174.8" r="2.96" fill="#d4862a" opacity="0.17"/><circle cx="1074.3" cy="172.2" r="3.95" fill="#d4862a" opacity="0.26"/><circle cx="1110.0" cy="172.8" r="2.76" fill="#d4862a" opacity="0.29"/><circle cx="1146.1" cy="172.8" r="2.87" fill="#d4862a" opacity="0.32"/><circle cx="1180.8" cy="173.2" r="2.06" fill="#d4862a" opacity="0.25"/><circle cx="28.8" cy="210.3" r="3.22" fill="#d4862a" opacity="0.34"/><circle cx="63.3" cy="207.7" r="3.79" fill="#d4862a" opacity="0.32"/><circle cx="101.6" cy="210.3" r="3.85" fill="#d4862a" opacity="0.29"/><circle cx="137.1" cy="208.8" r="1.75" fill="#d4862a" opacity="0.22"/><circle cx="171.5" cy="207.9" r="3.87" fill="#d4862a" opacity="0.23"/><circle cx="211.4" cy="211.6" r="3.76" fill="#d4862a" opacity="0.20"/><circle cx="243.5" cy="209.4" r="1.83" fill="#d4862a" opacity="0.26"/><circle cx="284.3" cy="209.4" r="3.43" fill="#d4862a" opacity="0.33"/><circle cx="316.7" cy="212.0" r="2.23" fill="#d4862a" opacity="0.17"/><circle cx="352.2" cy="208.7" r="3.46" fill="#d4862a" opacity="0.34"/><circle cx="387.8" cy="210.0" r="2.37" fill="#d4862a" opacity="0.26"/><circle cx="427.3" cy="207.9" r="3.09" fill="#d4862a" opacity="0.16"/><circle cx="461.6" cy="210.9" r="2.18" fill="#d4862a" opacity="0.18"/><circle cx="500.5" cy="212.6" r="3.02" fill="#d4862a" opacity="0.29"/><circle cx="536.3" cy="208.8" r="3.39" fill="#d4862a" opacity="0.21"/><circle cx="569.8" cy="211.1" r="3.45" fill="#d4862a" opacity="0.17"/><circle cx="605.6" cy="210.0" r="3.13" fill="#d4862a" opacity="0.30"/><circle cx="644.3" cy="212.7" r="3.97" fill="#d4862a" opacity="0.34"/><circle cx="678.0" cy="208.7" r="3.25" fill="#d4862a" opacity="0.28"/><circle cx="713.9" cy="209.9" r="3.43" fill="#d4862a" opacity="0.29"/><circle cx="751.6" cy="208.9" r="2.73" fill="#d4862a" opacity="0.29"/><circle cx="783.3" cy="212.2" r="3.85" fill="#d4862a" opacity="0.27"/><circle cx="824.4" cy="209.1" r="1.98" fill="#d4862a" opacity="0.23"/><circle cx="859.8" cy="207.0" r="2.10" fill="#d4862a" opacity="0.26"/><circle cx="891.8" cy="207.8" r="3.83" fill="#d4862a" opacity="0.25"/><circle cx="929.7" cy="211.1" r="2.37" fill="#d4862a" opacity="0.33"/><circle cx="964.9" cy="210.2" r="3.72" fill="#d4862a" opacity="0.23"/><circle cx="999.6" cy="212.6" r="3.23" fill="#d4862a" opacity="0.18"/><circle cx="1040.3" cy="209.9" r="2.04" fill="#d4862a" opacity="0.15"/><circle cx="1072.8" cy="213.0" r="2.06" fill="#d4862a" opacity="0.16"/><circle cx="1108.1" cy="210.7" r="1.66" fill="#d4862a" opacity="0.28"/><circle cx="1145.4" cy="212.1" r="3.49" fill="#d4862a" opacity="0.31"/><circle cx="1184.7" cy="211.2" r="1.95" fill="#d4862a" opacity="0.21"/><circle cx="30.2" cy="247.4" r="2.06" fill="#d4862a" opacity="0.24"/><circle cx="68.8" cy="248.9" r="3.42" fill="#d4862a" opacity="0.32"/><circle cx="99.4" cy="244.1" r="2.98" fill="#d4862a" opacity="0.21"/><circle cx="137.0" cy="247.9" r="2.99" fill="#d4862a" opacity="0.17"/><circle cx="176.7" cy="248.2" r="2.23" fill="#d4862a" opacity="0.23"/><circle cx="211.1" cy="246.1" r="2.03" fill="#d4862a" opacity="0.31"/><circle cx="246.8" cy="246.9" r="2.18" fill="#d4862a" opacity="0.25"/><circle cx="279.1" cy="248.2" r="3.77" fill="#d4862a" opacity="0.25"/><circle cx="316.9" cy="243.4" r="2.26" fill="#d4862a" opacity="0.35"/><circle cx="351.1" cy="248.5" r="2.37" fill="#d4862a" opacity="0.32"/><circle cx="389.5" cy="246.0" r="2.48" fill="#d4862a" opacity="0.26"/><circle cx="424.5" cy="245.7" r="3.81" fill="#d4862a" opacity="0.33"/><circle cx="463.9" cy="248.8" r="3.78" fill="#d4862a" opacity="0.27"/><circle cx="499.0" cy="244.9" r="3.42" fill="#d4862a" opacity="0.17"/><circle cx="534.4" cy="248.9" r="2.84" fill="#d4862a" opacity="0.22"/><circle cx="569.0" cy="248.4" r="1.97" fill="#d4862a" opacity="0.28"/><circle cx="607.0" cy="248.1" r="3.51" fill="#d4862a" opacity="0.21"/><circle cx="640.3" cy="244.1" r="1.96" fill="#d4862a" opacity="0.27"/><circle cx="676.4" cy="248.3" r="1.64" fill="#d4862a" opacity="0.24"/><circle cx="716.3" cy="245.2" r="2.43" fill="#d4862a" opacity="0.25"/><circle cx="752.1" cy="243.7" r="3.86" fill="#d4862a" opacity="0.32"/><circle cx="788.3" cy="246.7" r="2.81" fill="#d4862a" opacity="0.19"/><circle cx="819.2" cy="246.3" r="1.93" fill="#d4862a" opacity="0.33"/><circle cx="855.3" cy="247.8" r="2.46" fill="#d4862a" opacity="0.29"/><circle cx="895.9" cy="243.3" r="1.79" fill="#d4862a" opacity="0.18"/><circle cx="932.6" cy="244.9" r="3.81" fill="#d4862a" opacity="0.20"/><circle cx="964.9" cy="243.3" r="2.15" fill="#d4862a" opacity="0.24"/><circle cx="1002.6" cy="246.0" r="3.43" fill="#d4862a" opacity="0.20"/><circle cx="1038.0" cy="248.1" r="2.53" fill="#d4862a" opacity="0.34"/><circle cx="1076.6" cy="248.4" r="1.92" fill="#d4862a" opacity="0.18"/><circle cx="1111.8" cy="247.7" r="3.47" fill="#d4862a" opacity="0.24"/><circle cx="1148.2" cy="243.9" r="2.80" fill="#d4862a" opacity="0.23"/><circle cx="1181.5" cy="243.4" r="2.66" fill="#d4862a" opacity="0.28"/><circle cx="28.4" cy="283.8" r="2.57" fill="#d4862a" opacity="0.20"/><circle cx="66.5" cy="281.2" r="2.75" fill="#d4862a" opacity="0.23"/><circle cx="99.3" cy="282.8" r="4.00" fill="#d4862a" opacity="0.36"/><circle cx="137.3" cy="280.7" r="3.88" fill="#d4862a" opacity="0.28"/><circle cx="173.5" cy="280.4" r="3.64" fill="#d4862a" opacity="0.24"/><circle cx="212.6" cy="284.7" r="3.44" fill="#d4862a" opacity="0.18"/><circle cx="247.4" cy="284.2" r="1.83" fill="#d4862a" opacity="0.24"/><circle cx="283.3" cy="282.1" r="2.86" fill="#d4862a" opacity="0.17"/><circle cx="320.1" cy="281.3" r="1.81" fill="#d4862a" opacity="0.25"/><circle cx="352.0" cy="280.9" r="2.71" fill="#d4862a" opacity="0.20"/><circle cx="390.3" cy="279.8" r="2.03" fill="#d4862a" opacity="0.28"/><circle cx="428.3" cy="280.1" r="2.67" fill="#d4862a" opacity="0.31"/><circle cx="464.7" cy="280.5" r="3.03" fill="#d4862a" opacity="0.17"/><circle cx="497.2" cy="279.9" r="3.81" fill="#d4862a" opacity="0.34"/><circle cx="532.5" cy="281.3" r="2.66" fill="#d4862a" opacity="0.23"/><circle cx="567.1" cy="281.2" r="1.76" fill="#d4862a" opacity="0.34"/><circle cx="603.3" cy="281.8" r="3.68" fill="#d4862a" opacity="0.24"/><circle cx="644.7" cy="283.5" r="3.75" fill="#d4862a" opacity="0.28"/><circle cx="680.9" cy="284.4" r="3.68" fill="#d4862a" opacity="0.31"/><circle cx="714.6" cy="283.9" r="3.12" fill="#d4862a" opacity="0.21"/><circle cx="751.3" cy="281.7" r="2.73" fill="#d4862a" opacity="0.29"/><circle cx="785.1" cy="280.9" r="3.43" fill="#d4862a" opacity="0.22"/><circle cx="821.9" cy="283.8" r="3.18" fill="#d4862a" opacity="0.23"/><circle cx="859.6" cy="280.3" r="3.47" fill="#d4862a" opacity="0.17"/><circle cx="891.5" cy="284.8" r="2.37" fill="#d4862a" opacity="0.22"/><circle cx="930.8" cy="283.7" r="3.32" fill="#d4862a" opacity="0.20"/><circle cx="965.9" cy="281.3" r="1.99" fill="#d4862a" opacity="0.23"/><circle cx="1000.7" cy="283.2" r="3.87" fill="#d4862a" opacity="0.16"/><circle cx="1035.5" cy="281.9" r="1.70" fill="#d4862a" opacity="0.26"/><circle cx="1076.1" cy="280.5" r="3.08" fill="#d4862a" opacity="0.17"/><circle cx="1112.8" cy="284.2" r="3.36" fill="#d4862a" opacity="0.35"/><circle cx="1148.8" cy="283.0" r="3.00" fill="#d4862a" opacity="0.24"/><circle cx="1183.2" cy="280.6" r="2.80" fill="#d4862a" opacity="0.26"/><circle cx="29.5" cy="318.7" r="3.34" fill="#d4862a" opacity="0.16"/><circle cx="63.4" cy="316.3" r="3.77" fill="#d4862a" opacity="0.16"/><circle cx="103.4" cy="317.3" r="2.70" fill="#d4862a" opacity="0.32"/><circle cx="140.1" cy="316.7" r="2.63" fill="#d4862a" opacity="0.25"/><circle cx="174.4" cy="318.3" r="2.91" fill="#d4862a" opacity="0.33"/><circle cx="207.9" cy="318.2" r="2.24" fill="#d4862a" opacity="0.31"/><circle cx="247.4" cy="316.2" r="3.69" fill="#d4862a" opacity="0.19"/><circle cx="280.4" cy="316.0" r="2.48" fill="#d4862a" opacity="0.29"/><circle cx="315.6" cy="316.4" r="1.93" fill="#d4862a" opacity="0.34"/><circle cx="357.0" cy="315.9" r="2.41" fill="#d4862a" opacity="0.18"/><circle cx="388.3" cy="316.6" r="3.50" fill="#d4862a" opacity="0.24"/><circle cx="424.9" cy="317.7" r="2.26" fill="#d4862a" opacity="0.16"/><circle cx="464.2" cy="316.4" r="3.33" fill="#d4862a" opacity="0.32"/><circle cx="497.3" cy="316.8" r="1.93" fill="#d4862a" opacity="0.22"/><circle cx="532.6" cy="316.1" r="3.03" fill="#d4862a" opacity="0.26"/><circle cx="567.7" cy="319.2" r="2.21" fill="#d4862a" opacity="0.16"/><circle cx="606.0" cy="315.1" r="2.30" fill="#d4862a" opacity="0.34"/><circle cx="640.4" cy="319.0" r="2.23" fill="#d4862a" opacity="0.23"/><circle cx="677.0" cy="315.3" r="2.15" fill="#d4862a" opacity="0.15"/><circle cx="716.4" cy="320.7" r="2.20" fill="#d4862a" opacity="0.25"/><circle cx="747.8" cy="320.4" r="2.16" fill="#d4862a" opacity="0.25"/><circle cx="788.9" cy="320.2" r="3.67" fill="#d4862a" opacity="0.18"/><circle cx="822.7" cy="319.3" r="2.78" fill="#d4862a" opacity="0.28"/><circle cx="856.1" cy="317.2" r="2.71" fill="#d4862a" opacity="0.24"/><circle cx="894.8" cy="315.3" r="3.97" fill="#d4862a" opacity="0.17"/><circle cx="929.6" cy="316.0" r="3.99" fill="#d4862a" opacity="0.34"/><circle cx="967.4" cy="317.0" r="1.80" fill="#d4862a" opacity="0.29"/><circle cx="999.7" cy="319.6" r="3.97" fill="#d4862a" opacity="0.31"/><circle cx="1037.2" cy="315.7" r="2.47" fill="#d4862a" opacity="0.19"/><circle cx="1076.5" cy="320.7" r="3.29" fill="#d4862a" opacity="0.21"/><circle cx="1110.5" cy="315.9" r="2.02" fill="#d4862a" opacity="0.27"/><circle cx="1144.6" cy="320.0" r="3.34" fill="#d4862a" opacity="0.24"/><circle cx="1182.0" cy="315.4" r="1.70" fill="#d4862a" opacity="0.23"/><circle cx="29.5" cy="352.4" r="2.78" fill="#d4862a" opacity="0.22"/><circle cx="65.4" cy="353.8" r="2.49" fill="#d4862a" opacity="0.33"/><circle cx="100.3" cy="351.5" r="4.00" fill="#d4862a" opacity="0.29"/><circle cx="138.0" cy="353.1" r="1.89" fill="#d4862a" opacity="0.18"/><circle cx="174.7" cy="352.9" r="3.98" fill="#d4862a" opacity="0.20"/><circle cx="211.3" cy="353.8" r="3.70" fill="#d4862a" opacity="0.25"/><circle cx="243.2" cy="353.5" r="3.30" fill="#d4862a" opacity="0.18"/><circle cx="283.0" cy="353.9" r="1.98" fill="#d4862a" opacity="0.23"/><circle cx="320.9" cy="352.3" r="1.62" fill="#d4862a" opacity="0.21"/><circle cx="351.1" cy="351.5" r="2.34" fill="#d4862a" opacity="0.17"/><circle cx="391.0" cy="355.0" r="2.82" fill="#d4862a" opacity="0.30"/><circle cx="423.6" cy="353.1" r="2.23" fill="#d4862a" opacity="0.16"/><circle cx="463.1" cy="355.0" r="1.96" fill="#d4862a" opacity="0.20"/><circle cx="495.1" cy="355.6" r="2.68" fill="#d4862a" opacity="0.34"/><circle cx="536.6" cy="357.0" r="2.45" fill="#d4862a" opacity="0.24"/><circle cx="572.8" cy="353.5" r="2.60" fill="#d4862a" opacity="0.18"/><circle cx="605.4" cy="355.4" r="1.63" fill="#d4862a" opacity="0.26"/><circle cx="642.9" cy="353.4" r="3.59" fill="#d4862a" opacity="0.31"/><circle cx="678.3" cy="354.9" r="3.48" fill="#d4862a" opacity="0.28"/><circle cx="714.4" cy="351.5" r="1.70" fill="#d4862a" opacity="0.28"/><circle cx="751.9" cy="353.0" r="1.78" fill="#d4862a" opacity="0.29"/><circle cx="788.4" cy="354.5" r="2.63" fill="#d4862a" opacity="0.28"/><circle cx="819.2" cy="352.3" r="1.86" fill="#d4862a" opacity="0.26"/><circle cx="856.3" cy="351.1" r="3.52" fill="#d4862a" opacity="0.22"/><circle cx="894.8" cy="354.7" r="3.61" fill="#d4862a" opacity="0.16"/><circle cx="932.0" cy="352.4" r="1.70" fill="#d4862a" opacity="0.25"/><circle cx="963.2" cy="354.9" r="2.06" fill="#d4862a" opacity="0.19"/><circle cx="1001.1" cy="351.8" r="3.21" fill="#d4862a" opacity="0.18"/><circle cx="1039.3" cy="351.6" r="3.70" fill="#d4862a" opacity="0.29"/><circle cx="1075.9" cy="355.5" r="3.39" fill="#d4862a" opacity="0.30"/><circle cx="1110.9" cy="351.7" r="3.40" fill="#d4862a" opacity="0.20"/><circle cx="1148.1" cy="354.5" r="2.00" fill="#d4862a" opacity="0.15"/><circle cx="1181.9" cy="354.7" r="3.70" fill="#d4862a" opacity="0.25"/><circle cx="30.4" cy="387.4" r="1.96" fill="#d4862a" opacity="0.28"/><circle cx="63.2" cy="388.3" r="2.79" fill="#d4862a" opacity="0.28"/><circle cx="104.6" cy="392.2" r="1.81" fill="#d4862a" opacity="0.31"/><circle cx="137.4" cy="387.6" r="1.67" fill="#d4862a" opacity="0.28"/><circle cx="174.3" cy="390.9" r="3.50" fill="#d4862a" opacity="0.21"/><circle cx="211.1" cy="388.0" r="3.01" fill="#d4862a" opacity="0.26"/><circle cx="243.3" cy="387.6" r="2.66" fill="#d4862a" opacity="0.17"/><circle cx="281.8" cy="388.8" r="3.95" fill="#d4862a" opacity="0.17"/><circle cx="316.9" cy="387.7" r="2.46" fill="#d4862a" opacity="0.26"/><circle cx="351.5" cy="392.5" r="2.06" fill="#d4862a" opacity="0.21"/><circle cx="392.3" cy="388.3" r="2.99" fill="#d4862a" opacity="0.35"/><circle cx="423.8" cy="388.4" r="3.49" fill="#d4862a" opacity="0.27"/><circle cx="463.0" cy="392.9" r="3.87" fill="#d4862a" opacity="0.35"/><circle cx="495.3" cy="390.5" r="2.64" fill="#d4862a" opacity="0.16"/><circle cx="537.0" cy="387.9" r="2.60" fill="#d4862a" opacity="0.36"/><circle cx="571.8" cy="390.2" r="1.99" fill="#d4862a" opacity="0.22"/><circle cx="606.1" cy="391.8" r="3.18" fill="#d4862a" opacity="0.16"/><circle cx="640.9" cy="392.5" r="3.85" fill="#d4862a" opacity="0.15"/><circle cx="680.9" cy="391.6" r="3.29" fill="#d4862a" opacity="0.29"/><circle cx="713.2" cy="389.5" r="1.98" fill="#d4862a" opacity="0.28"/><circle cx="752.9" cy="392.2" r="3.35" fill="#d4862a" opacity="0.20"/><circle cx="785.8" cy="390.0" r="2.47" fill="#d4862a" opacity="0.20"/><circle cx="823.7" cy="392.7" r="3.50" fill="#d4862a" opacity="0.27"/><circle cx="858.6" cy="388.8" r="2.37" fill="#d4862a" opacity="0.35"/><circle cx="894.4" cy="388.8" r="3.06" fill="#d4862a" opacity="0.36"/><circle cx="931.6" cy="391.8" r="2.01" fill="#d4862a" opacity="0.16"/><circle cx="964.1" cy="392.7" r="1.61" fill="#d4862a" opacity="0.35"/><circle cx="1002.0" cy="389.4" r="3.67" fill="#d4862a" opacity="0.34"/><circle cx="1040.4" cy="388.7" r="3.08" fill="#d4862a" opacity="0.31"/><circle cx="1076.9" cy="388.9" r="3.23" fill="#d4862a" opacity="0.31"/><circle cx="1111.0" cy="387.7" r="1.67" fill="#d4862a" opacity="0.30"/><circle cx="1143.6" cy="391.6" r="1.84" fill="#d4862a" opacity="0.27"/><circle cx="1180.2" cy="390.5" r="3.58" fill="#d4862a" opacity="0.25"/><circle cx="27.2" cy="428.7" r="3.54" fill="#d4862a" opacity="0.27"/><circle cx="65.7" cy="425.9" r="2.69" fill="#d4862a" opacity="0.29"/><circle cx="103.8" cy="424.5" r="2.54" fill="#d4862a" opacity="0.23"/><circle cx="139.3" cy="426.3" r="3.53" fill="#d4862a" opacity="0.36"/><circle cx="176.9" cy="426.4" r="2.36" fill="#d4862a" opacity="0.24"/><circle cx="211.2" cy="427.7" r="3.69" fill="#d4862a" opacity="0.17"/><circle cx="247.5" cy="423.6" r="3.99" fill="#d4862a" opacity="0.32"/><circle cx="283.0" cy="424.1" r="3.92" fill="#d4862a" opacity="0.35"/><circle cx="316.1" cy="428.7" r="3.32" fill="#d4862a" opacity="0.19"/><circle cx="355.0" cy="424.9" r="3.78" fill="#d4862a" opacity="0.32"/><circle cx="390.8" cy="425.5" r="2.94" fill="#d4862a" opacity="0.28"/><circle cx="428.8" cy="426.4" r="2.39" fill="#d4862a" opacity="0.18"/><circle cx="461.0" cy="426.0" r="2.55" fill="#d4862a" opacity="0.18"/><circle cx="499.8" cy="424.3" r="1.85" fill="#d4862a" opacity="0.17"/><circle cx="532.0" cy="427.1" r="1.65" fill="#d4862a" opacity="0.24"/><circle cx="569.5" cy="427.2" r="3.27" fill="#d4862a" opacity="0.18"/><circle cx="603.5" cy="428.0" r="1.81" fill="#d4862a" opacity="0.33"/><circle cx="643.7" cy="424.2" r="3.16" fill="#d4862a" opacity="0.19"/><circle cx="678.0" cy="424.9" r="3.71" fill="#d4862a" opacity="0.28"/><circle cx="712.4" cy="423.3" r="2.77" fill="#d4862a" opacity="0.31"/><circle cx="750.6" cy="424.9" r="3.20" fill="#d4862a" opacity="0.28"/><circle cx="788.7" cy="428.6" r="3.80" fill="#d4862a" opacity="0.15"/><circle cx="822.4" cy="425.1" r="2.42" fill="#d4862a" opacity="0.34"/><circle cx="859.1" cy="424.0" r="3.93" fill="#d4862a" opacity="0.33"/><circle cx="894.2" cy="428.6" r="3.19" fill="#d4862a" opacity="0.36"/><circle cx="930.1" cy="423.5" r="2.89" fill="#d4862a" opacity="0.21"/><circle cx="965.8" cy="426.2" r="3.54" fill="#d4862a" opacity="0.26"/><circle cx="1001.9" cy="428.6" r="1.98" fill="#d4862a" opacity="0.31"/><circle cx="1040.1" cy="425.2" r="2.95" fill="#d4862a" opacity="0.26"/><circle cx="1072.7" cy="423.2" r="2.65" fill="#d4862a" opacity="0.15"/><circle cx="1108.7" cy="425.8" r="3.18" fill="#d4862a" opacity="0.34"/><circle cx="1147.0" cy="426.0" r="3.19" fill="#d4862a" opacity="0.16"/><circle cx="1179.5" cy="425.4" r="3.15" fill="#d4862a" opacity="0.29"/><circle cx="30.6" cy="460.1" r="2.52" fill="#d4862a" opacity="0.21"/><circle cx="66.2" cy="462.2" r="3.96" fill="#d4862a" opacity="0.23"/><circle cx="103.8" cy="460.0" r="3.90" fill="#d4862a" opacity="0.30"/><circle cx="137.8" cy="460.5" r="3.95" fill="#d4862a" opacity="0.26"/><circle cx="176.8" cy="459.4" r="3.28" fill="#d4862a" opacity="0.27"/><circle cx="209.1" cy="463.3" r="1.82" fill="#d4862a" opacity="0.23"/><circle cx="247.0" cy="462.2" r="2.75" fill="#d4862a" opacity="0.29"/><circle cx="281.2" cy="463.1" r="3.79" fill="#d4862a" opacity="0.19"/><circle cx="316.9" cy="463.1" r="3.02" fill="#d4862a" opacity="0.20"/><circle cx="357.0" cy="462.7" r="3.44" fill="#d4862a" opacity="0.26"/><circle cx="392.7" cy="464.8" r="2.14" fill="#d4862a" opacity="0.16"/><circle cx="423.9" cy="461.4" r="3.33" fill="#d4862a" opacity="0.16"/><circle cx="460.9" cy="461.6" r="2.28" fill="#d4862a" opacity="0.32"/><circle cx="496.3" cy="463.9" r="2.37" fill="#d4862a" opacity="0.23"/><circle cx="532.9" cy="462.0" r="1.82" fill="#d4862a" opacity="0.20"/><circle cx="569.3" cy="462.8" r="1.63" fill="#d4862a" opacity="0.23"/><circle cx="607.9" cy="462.9" r="3.54" fill="#d4862a" opacity="0.19"/><circle cx="642.1" cy="462.0" r="3.45" fill="#d4862a" opacity="0.17"/><circle cx="675.8" cy="460.1" r="1.65" fill="#d4862a" opacity="0.32"/><circle cx="713.8" cy="463.9" r="2.69" fill="#d4862a" opacity="0.22"/><circle cx="751.0" cy="460.3" r="2.39" fill="#d4862a" opacity="0.29"/><circle cx="788.8" cy="460.6" r="2.23" fill="#d4862a" opacity="0.17"/><circle cx="822.6" cy="460.1" r="3.04" fill="#d4862a" opacity="0.28"/><circle cx="859.5" cy="464.0" r="3.98" fill="#d4862a" opacity="0.24"/><circle cx="892.8" cy="463.6" r="2.71" fill="#d4862a" opacity="0.17"/><circle cx="928.7" cy="459.2" r="1.78" fill="#d4862a" opacity="0.33"/><circle cx="964.0" cy="461.8" r="3.30" fill="#d4862a" opacity="0.27"/><circle cx="1002.7" cy="460.3" r="3.57" fill="#d4862a" opacity="0.34"/><circle cx="1035.2" cy="460.6" r="3.42" fill="#d4862a" opacity="0.29"/><circle cx="1073.6" cy="459.4" r="2.50" fill="#d4862a" opacity="0.26"/><circle cx="1111.5" cy="462.2" r="1.97" fill="#d4862a" opacity="0.33"/><circle cx="1147.5" cy="459.6" r="2.76" fill="#d4862a" opacity="0.19"/><circle cx="1183.3" cy="461.9" r="2.36" fill="#d4862a" opacity="0.23"/><circle cx="30.5" cy="500.4" r="2.99" fill="#d4862a" opacity="0.23"/><circle cx="67.4" cy="495.1" r="2.98" fill="#d4862a" opacity="0.29"/><circle cx="103.5" cy="497.7" r="2.62" fill="#d4862a" opacity="0.17"/><circle cx="140.5" cy="495.5" r="3.36" fill="#d4862a" opacity="0.26"/><circle cx="172.1" cy="495.8" r="2.91" fill="#d4862a" opacity="0.33"/><circle cx="208.0" cy="497.8" r="3.15" fill="#d4862a" opacity="0.26"/><circle cx="247.2" cy="495.4" r="2.62" fill="#d4862a" opacity="0.29"/><circle cx="281.1" cy="495.4" r="2.10" fill="#d4862a" opacity="0.30"/><circle cx="315.1" cy="496.8" r="2.13" fill="#d4862a" opacity="0.18"/><circle cx="356.5" cy="499.7" r="2.77" fill="#d4862a" opacity="0.31"/><circle cx="390.1" cy="499.1" r="2.20" fill="#d4862a" opacity="0.34"/><circle cx="427.2" cy="495.6" r="2.22" fill="#d4862a" opacity="0.19"/><circle cx="463.8" cy="496.6" r="3.75" fill="#d4862a" opacity="0.36"/><circle cx="497.0" cy="497.1" r="2.03" fill="#d4862a" opacity="0.27"/><circle cx="532.8" cy="499.8" r="1.85" fill="#d4862a" opacity="0.28"/><circle cx="570.1" cy="500.3" r="2.09" fill="#d4862a" opacity="0.17"/><circle cx="607.6" cy="496.8" r="2.61" fill="#d4862a" opacity="0.34"/><circle cx="639.6" cy="500.6" r="2.15" fill="#d4862a" opacity="0.20"/><circle cx="677.6" cy="500.8" r="2.95" fill="#d4862a" opacity="0.28"/><circle cx="712.4" cy="498.2" r="1.71" fill="#d4862a" opacity="0.25"/><circle cx="747.0" cy="500.6" r="3.46" fill="#d4862a" opacity="0.18"/><circle cx="786.1" cy="498.7" r="3.07" fill="#d4862a" opacity="0.16"/><circle cx="820.1" cy="495.7" r="1.61" fill="#d4862a" opacity="0.28"/><circle cx="860.8" cy="500.1" r="1.84" fill="#d4862a" opacity="0.24"/><circle cx="893.7" cy="495.4" r="1.89" fill="#d4862a" opacity="0.32"/><circle cx="928.7" cy="498.4" r="3.54" fill="#d4862a" opacity="0.25"/><circle cx="968.8" cy="498.5" r="2.05" fill="#d4862a" opacity="0.24"/><circle cx="1001.3" cy="498.2" r="2.01" fill="#d4862a" opacity="0.36"/><circle cx="1040.3" cy="495.5" r="3.84" fill="#d4862a" opacity="0.27"/><circle cx="1075.5" cy="500.7" r="3.93" fill="#d4862a" opacity="0.18"/><circle cx="1109.2" cy="499.8" r="2.13" fill="#d4862a" opacity="0.29"/><circle cx="1145.8" cy="499.0" r="2.83" fill="#d4862a" opacity="0.21"/><circle cx="1183.0" cy="495.7" r="3.53" fill="#d4862a" opacity="0.24"/><circle cx="31.9" cy="535.4" r="2.45" fill="#d4862a" opacity="0.19"/><circle cx="63.3" cy="536.6" r="3.09" fill="#d4862a" opacity="0.22"/><circle cx="100.9" cy="533.8" r="1.95" fill="#d4862a" opacity="0.32"/><circle cx="137.1" cy="536.8" r="3.96" fill="#d4862a" opacity="0.36"/><circle cx="172.9" cy="536.6" r="1.70" fill="#d4862a" opacity="0.33"/><circle cx="209.1" cy="536.1" r="3.50" fill="#d4862a" opacity="0.23"/><circle cx="245.8" cy="534.7" r="2.03" fill="#d4862a" opacity="0.33"/><circle cx="279.9" cy="532.5" r="2.97" fill="#d4862a" opacity="0.29"/><circle cx="320.3" cy="533.9" r="2.87" fill="#d4862a" opacity="0.15"/><circle cx="355.8" cy="534.5" r="2.66" fill="#d4862a" opacity="0.16"/><circle cx="389.6" cy="534.2" r="1.63" fill="#d4862a" opacity="0.26"/><circle cx="423.3" cy="532.7" r="3.25" fill="#d4862a" opacity="0.26"/><circle cx="460.0" cy="534.9" r="3.77" fill="#d4862a" opacity="0.17"/><circle cx="500.1" cy="534.7" r="1.72" fill="#d4862a" opacity="0.21"/><circle cx="535.6" cy="533.9" r="3.84" fill="#d4862a" opacity="0.30"/><circle cx="572.1" cy="535.7" r="3.09" fill="#d4862a" opacity="0.33"/><circle cx="604.0" cy="532.3" r="3.39" fill="#d4862a" opacity="0.34"/><circle cx="642.3" cy="531.5" r="1.95" fill="#d4862a" opacity="0.27"/><circle cx="680.0" cy="532.4" r="2.49" fill="#d4862a" opacity="0.23"/><circle cx="712.5" cy="533.7" r="3.76" fill="#d4862a" opacity="0.27"/><circle cx="749.9" cy="536.7" r="3.95" fill="#d4862a" opacity="0.20"/><circle cx="783.3" cy="536.0" r="3.04" fill="#d4862a" opacity="0.23"/><circle cx="820.6" cy="532.2" r="3.48" fill="#d4862a" opacity="0.19"/><circle cx="855.8" cy="535.8" r="2.03" fill="#d4862a" opacity="0.27"/><circle cx="893.7" cy="531.8" r="2.59" fill="#d4862a" opacity="0.23"/><circle cx="931.6" cy="534.8" r="2.77" fill="#d4862a" opacity="0.30"/><circle cx="967.8" cy="535.4" r="3.78" fill="#d4862a" opacity="0.17"/><circle cx="1000.1" cy="536.8" r="1.77" fill="#d4862a" opacity="0.24"/><circle cx="1037.3" cy="531.4" r="3.19" fill="#d4862a" opacity="0.30"/><circle cx="1073.7" cy="536.4" r="3.34" fill="#d4862a" opacity="0.19"/><circle cx="1108.0" cy="533.7" r="3.87" fill="#d4862a" opacity="0.35"/><circle cx="1143.8" cy="534.6" r="3.36" fill="#d4862a" opacity="0.27"/><circle cx="1180.5" cy="535.1" r="1.66" fill="#d4862a" opacity="0.24"/><circle cx="28.5" cy="571.6" r="1.89" fill="#d4862a" opacity="0.27"/><circle cx="66.1" cy="567.9" r="3.57" fill="#d4862a" opacity="0.22"/><circle cx="99.8" cy="567.2" r="3.27" fill="#d4862a" opacity="0.24"/><circle cx="139.6" cy="571.9" r="3.21" fill="#d4862a" opacity="0.21"/><circle cx="172.3" cy="568.6" r="2.22" fill="#d4862a" opacity="0.30"/><circle cx="212.8" cy="567.0" r="1.95" fill="#d4862a" opacity="0.29"/><circle cx="244.7" cy="569.9" r="1.67" fill="#d4862a" opacity="0.21"/><circle cx="279.7" cy="571.9" r="3.05" fill="#d4862a" opacity="0.24"/><circle cx="317.0" cy="571.5" r="3.68" fill="#d4862a" opacity="0.31"/><circle cx="352.9" cy="572.2" r="3.90" fill="#d4862a" opacity="0.28"/><circle cx="390.6" cy="568.1" r="3.82" fill="#d4862a" opacity="0.33"/><circle cx="426.5" cy="571.4" r="2.60" fill="#d4862a" opacity="0.30"/><circle cx="460.8" cy="569.9" r="3.22" fill="#d4862a" opacity="0.18"/><circle cx="498.4" cy="570.4" r="2.91" fill="#d4862a" opacity="0.29"/><circle cx="535.7" cy="571.7" r="1.69" fill="#d4862a" opacity="0.28"/><circle cx="571.2" cy="569.6" r="2.67" fill="#d4862a" opacity="0.23"/><circle cx="603.7" cy="567.4" r="2.60" fill="#d4862a" opacity="0.22"/><circle cx="644.6" cy="570.5" r="2.06" fill="#d4862a" opacity="0.25"/><circle cx="677.5" cy="569.7" r="3.20" fill="#d4862a" opacity="0.18"/><circle cx="713.0" cy="571.2" r="3.84" fill="#d4862a" opacity="0.31"/><circle cx="752.9" cy="568.7" r="3.86" fill="#d4862a" opacity="0.32"/><circle cx="784.3" cy="568.8" r="2.35" fill="#d4862a" opacity="0.19"/><circle cx="824.2" cy="568.6" r="3.56" fill="#d4862a" opacity="0.25"/><circle cx="856.0" cy="572.4" r="3.72" fill="#d4862a" opacity="0.21"/><circle cx="896.7" cy="571.4" r="3.50" fill="#d4862a" opacity="0.20"/><circle cx="928.9" cy="567.9" r="3.41" fill="#d4862a" opacity="0.24"/><circle cx="966.0" cy="568.1" r="2.31" fill="#d4862a" opacity="0.26"/><circle cx="1000.4" cy="567.1" r="2.16" fill="#d4862a" opacity="0.29"/><circle cx="1035.5" cy="569.9" r="1.79" fill="#d4862a" opacity="0.19"/><circle cx="1076.4" cy="572.9" r="2.35" fill="#d4862a" opacity="0.28"/><circle cx="1111.2" cy="568.2" r="1.88" fill="#d4862a" opacity="0.21"/><circle cx="1147.5" cy="567.3" r="2.83" fill="#d4862a" opacity="0.21"/><circle cx="1180.3" cy="568.2" r="2.63" fill="#d4862a" opacity="0.17"/><circle cx="31.4" cy="608.0" r="1.79" fill="#d4862a" opacity="0.32"/><circle cx="67.7" cy="605.4" r="2.51" fill="#d4862a" opacity="0.20"/><circle cx="100.8" cy="608.4" r="3.91" fill="#d4862a" opacity="0.35"/><circle cx="136.1" cy="608.3" r="3.25" fill="#d4862a" opacity="0.34"/><circle cx="175.4" cy="603.6" r="3.24" fill="#d4862a" opacity="0.15"/><circle cx="208.6" cy="604.1" r="2.23" fill="#d4862a" opacity="0.35"/><circle cx="243.6" cy="603.9" r="2.32" fill="#d4862a" opacity="0.16"/><circle cx="281.1" cy="606.1" r="3.86" fill="#d4862a" opacity="0.29"/><circle cx="318.7" cy="603.1" r="3.10" fill="#d4862a" opacity="0.28"/><circle cx="355.8" cy="606.9" r="2.51" fill="#d4862a" opacity="0.29"/><circle cx="392.8" cy="606.2" r="3.40" fill="#d4862a" opacity="0.34"/><circle cx="423.5" cy="608.6" r="3.27" fill="#d4862a" opacity="0.19"/><circle cx="461.3" cy="605.6" r="2.40" fill="#d4862a" opacity="0.29"/><circle cx="497.5" cy="606.1" r="2.14" fill="#d4862a" opacity="0.24"/><circle cx="532.7" cy="603.4" r="3.15" fill="#d4862a" opacity="0.32"/><circle cx="571.5" cy="607.7" r="3.05" fill="#d4862a" opacity="0.24"/><circle cx="603.2" cy="608.9" r="3.04" fill="#d4862a" opacity="0.20"/><circle cx="642.1" cy="604.6" r="3.25" fill="#d4862a" opacity="0.25"/><circle cx="680.3" cy="605.7" r="3.49" fill="#d4862a" opacity="0.29"/><circle cx="716.9" cy="607.5" r="3.77" fill="#d4862a" opacity="0.16"/><circle cx="747.7" cy="607.1" r="1.88" fill="#d4862a" opacity="0.20"/><circle cx="786.7" cy="604.6" r="2.38" fill="#d4862a" opacity="0.16"/><circle cx="824.4" cy="605.3" r="2.83" fill="#d4862a" opacity="0.24"/><circle cx="857.8" cy="604.0" r="3.89" fill="#d4862a" opacity="0.32"/><circle cx="892.6" cy="606.1" r="1.84" fill="#d4862a" opacity="0.18"/><circle cx="929.1" cy="607.6" r="2.40" fill="#d4862a" opacity="0.16"/><circle cx="965.4" cy="605.0" r="2.69" fill="#d4862a" opacity="0.30"/><circle cx="1003.1" cy="605.8" r="2.26" fill="#d4862a" opacity="0.31"/><circle cx="1038.5" cy="607.4" r="3.31" fill="#d4862a" opacity="0.17"/><circle cx="1073.1" cy="606.1" r="2.38" fill="#d4862a" opacity="0.15"/><circle cx="1111.5" cy="606.2" r="3.45" fill="#d4862a" opacity="0.20"/><circle cx="1147.0" cy="603.5" r="2.39" fill="#d4862a" opacity="0.16"/><circle cx="1184.7" cy="606.2" r="2.24" fill="#d4862a" opacity="0.20"/><circle cx="27.5" cy="640.2" r="3.51" fill="#d4862a" opacity="0.30"/><circle cx="65.0" cy="639.5" r="1.66" fill="#d4862a" opacity="0.19"/><circle cx="104.1" cy="644.8" r="3.37" fill="#d4862a" opacity="0.35"/><circle cx="136.0" cy="643.9" r="2.60" fill="#d4862a" opacity="0.23"/><circle cx="172.9" cy="640.7" r="3.75" fill="#d4862a" opacity="0.21"/><circle cx="208.9" cy="640.0" r="3.83" fill="#d4862a" opacity="0.25"/><circle cx="245.5" cy="640.5" r="1.81" fill="#d4862a" opacity="0.30"/><circle cx="280.8" cy="643.2" r="3.12" fill="#d4862a" opacity="0.24"/><circle cx="317.6" cy="640.5" r="2.00" fill="#d4862a" opacity="0.17"/><circle cx="355.2" cy="641.6" r="3.14" fill="#d4862a" opacity="0.27"/><circle cx="390.9" cy="642.4" r="1.67" fill="#d4862a" opacity="0.35"/><circle cx="426.2" cy="640.8" r="3.95" fill="#d4862a" opacity="0.27"/><circle cx="461.1" cy="641.1" r="3.51" fill="#d4862a" opacity="0.19"/><circle cx="495.4" cy="642.2" r="2.94" fill="#d4862a" opacity="0.29"/><circle cx="536.8" cy="640.0" r="3.07" fill="#d4862a" opacity="0.31"/><circle cx="570.8" cy="644.0" r="2.36" fill="#d4862a" opacity="0.17"/><circle cx="603.8" cy="642.2" r="3.63" fill="#d4862a" opacity="0.30"/><circle cx="639.2" cy="641.1" r="4.00" fill="#d4862a" opacity="0.35"/><circle cx="680.8" cy="642.7" r="3.23" fill="#d4862a" opacity="0.29"/><circle cx="711.1" cy="643.4" r="3.65" fill="#d4862a" opacity="0.30"/><circle cx="749.7" cy="643.2" r="2.32" fill="#d4862a" opacity="0.34"/><circle cx="785.1" cy="644.1" r="2.59" fill="#d4862a" opacity="0.32"/><circle cx="820.8" cy="640.8" r="2.51" fill="#d4862a" opacity="0.15"/><circle cx="855.3" cy="642.2" r="2.77" fill="#d4862a" opacity="0.22"/><circle cx="895.0" cy="644.4" r="3.84" fill="#d4862a" opacity="0.18"/><circle cx="930.2" cy="639.7" r="3.86" fill="#d4862a" opacity="0.18"/><circle cx="965.9" cy="639.4" r="1.72" fill="#d4862a" opacity="0.30"/><circle cx="1002.7" cy="642.6" r="2.21" fill="#d4862a" opacity="0.22"/><circle cx="1035.8" cy="640.0" r="2.78" fill="#d4862a" opacity="0.25"/><circle cx="1075.1" cy="643.3" r="1.68" fill="#d4862a" opacity="0.20"/><circle cx="1108.9" cy="640.9" r="2.87" fill="#d4862a" opacity="0.36"/><circle cx="1148.5" cy="644.5" r="3.50" fill="#d4862a" opacity="0.19"/><circle cx="1183.6" cy="644.5" r="2.13" fill="#d4862a" opacity="0.22"/><circle cx="203.2" cy="245.0" r="220" fill="url(#glow)" opacity="0.9"/>
  <g opacity="0.85" transform="translate(1020, 495)">
        <circle r="68" fill="none" stroke="#d4862a" stroke-width="2" opacity="0.35"/>
        <path d="M -38 12 L 38 12 M -32 -8 L 32 -8 M -45 -28 L 45 -28" stroke="#bd6b20" stroke-width="3" stroke-linecap="round"/>
        <rect x="-50" y="-44" width="100" height="80" fill="none" stroke="#d4862a" stroke-width="2"/>
      </g>
  <g transform="translate(80, 90)">
    <rect x="0" y="0" rx="20" ry="20" width="112" height="38" fill="#d4862a" opacity="0.18" stroke="#d4862a" stroke-width="1.5"/>
    <text x="56" y="25" font-family="ui-sans-serif, Inter, sans-serif" font-weight="700" font-size="14" letter-spacing="2.5" fill="#d4862a" text-anchor="middle">NEWSROOM</text>
  </g>
  <text x="80" y="515" font-family="ui-sans-serif, -apple-system, Segoe UI, Inter, sans-serif" font-weight="800" font-size="44" fill="#faf8f5" opacity="0.98"><tspan x="80" dy="0">10 Key Points About Data</tspan><tspan x="80" dy="56">Protection Laws in India</tspan></text>
  <rect x="0" y="669" width="1200" height="6" fill="url(#gold)"/>
</svg>