<?xml version="1.0" encoding="UTF-8"?>
<svg xmlns="http://www.w3.org/2000/svg" viewBox="0 0 1200 675" width="1200" height="675" role="img" aria-label="The Synergy of Comprehensive Engagement Plans and PDR COURT Expertise">
  <defs>
    <linearGradient id="bg" x1="0%" y1="0%" x2="100%" y2="100%">
      <stop offset="0%" stop-color="#faf8f5"/>
      <stop offset="100%" stop-color="#f4efe8"/>
    </linearGradient>
    <linearGradient id="gold" x1="0%" y1="0%" x2="100%" y2="100%">
      <stop offset="0%" stop-color="#bd6b20"/>
      <stop offset="100%" stop-color="#9a5518"/>
    </linearGradient>
    <radialGradient id="glow" cx="50%" cy="50%" r="50%">
      <stop offset="0%" stop-color="#bd6b20" stop-opacity="0.45"/>
      <stop offset="100%" stop-color="#bd6b20" stop-opacity="0"/>
    </radialGradient>
  </defs>
  <rect width="1200" height="675" fill="url(#bg)"/>
  <polygon points="993.9,-24.4 1176.7,-98.8 1251.1,83.9 1068.3,158.3" fill="#9a5518" opacity="0.12"/><polygon points="925.0,224.3 945.3,28.4 1104.8,143.9" fill="#9a5518" opacity="0.18"/><polygon points="404.6,238.1 422.6,26.0 634.8,44.0 616.7,256.2" fill="#9a5518" opacity="0.16"/><polygon points="682.2,23.3 754.0,-49.5 845.4,-3.7 830.1,97.3 729.3,114.1" fill="#9a5518" opacity="0.18"/><polygon points="41.9,218.8 225.1,220.9 131.7,378.5" fill="#9a5518" opacity="0.09"/><polygon points="1225.0,381.8 1177.1,433.1 1125.7,385.2 1173.6,333.8" fill="#9a5518" opacity="0.08"/><polygon points="860.2,421.3 1014.8,537.1 952.5,719.9 759.4,717.1 702.3,532.6" fill="#9a5518" opacity="0.12"/><polygon points="337.9,255.9 336.0,57.8 508.5,155.2" fill="#9a5518" opacity="0.09"/><polygon points="836.4,310.5 857.9,372.8 795.7,394.3 774.1,332.1" fill="#9a5518" opacity="0.12"/><polygon points="876.3,-2.4 968.4,-24.0 990.1,68.2 897.9,89.8" fill="#9a5518" opacity="0.18"/><polygon points="561.8,562.2 533.2,659.8 431.5,662.8 397.3,567.0 477.8,504.9" fill="#9a5518" opacity="0.15"/><polygon points="252.4,367.7 134.9,519.9 61.8,342.0" fill="#9a5518" opacity="0.07"/><polygon points="598.1,378.7 597.7,517.9 477.4,448.0" fill="#9a5518" opacity="0.18"/><polygon points="49.9,755.1 -16.3,632.2 106.5,565.9 172.8,688.8" fill="#9a5518" opacity="0.17"/><circle cx="936.0" cy="202.5" r="180" fill="url(#glow)"/>
  <g opacity="0.85" transform="translate(1020, 495)">
        <rect x="-46" y="-60" width="92" height="115" fill="#bd6b20" opacity="0.18" rx="6"/>
        <path d="M -28 -36 L 28 -36 M -28 -12 L 28 -12 M -28 12 L 18 12 M -28 36 L 28 36" stroke="#9a5518" stroke-width="3" stroke-linecap="round"/>
      </g>
  <g transform="translate(80, 90)">
    <rect x="0" y="0" rx="20" ry="20" width="101" height="38" fill="#bd6b20" opacity="0.18" stroke="#bd6b20" stroke-width="1.5"/>
    <text x="50.5" y="25" font-family="ui-sans-serif, Inter, sans-serif" font-weight="700" font-size="14" letter-spacing="2.5" fill="#bd6b20" text-anchor="middle">ARTICLE</text>
  </g>
  <text x="80" y="465" font-family="ui-sans-serif, -apple-system, Segoe UI, Inter, sans-serif" font-weight="800" font-size="44" fill="#12100e" opacity="0.98"><tspan x="80" dy="0">The Synergy of</tspan><tspan x="80" dy="56">Comprehensive Engagement</tspan><tspan x="80" dy="56">Plans and PDR COURT</tspan></text>
  <rect x="0" y="669" width="1200" height="6" fill="url(#gold)"/>
</svg>