<?xml version="1.0" encoding="UTF-8"?>
<svg xmlns="http://www.w3.org/2000/svg" viewBox="0 0 1200 675" width="1200" height="675" role="img" aria-label="Three-Part Resolution for a Distribution Business Loan">
  <defs>
    <linearGradient id="bg" x1="0%" y1="0%" x2="100%" y2="100%">
      <stop offset="0%" stop-color="#643516"/>
      <stop offset="100%" stop-color="#7d4315"/>
    </linearGradient>
    <linearGradient id="gold" x1="0%" y1="0%" x2="100%" y2="100%">
      <stop offset="0%" stop-color="#ecb478"/>
      <stop offset="100%" stop-color="#faebd6"/>
    </linearGradient>
    <radialGradient id="glow" cx="50%" cy="50%" r="50%">
      <stop offset="0%" stop-color="#ecb478" stop-opacity="0.45"/>
      <stop offset="100%" stop-color="#ecb478" stop-opacity="0"/>
    </radialGradient>
  </defs>
  <rect width="1200" height="675" fill="url(#bg)"/>
  <rect x="-688.5" y="-80" width="118.3" height="875" transform="rotate(18 -688.5 337.5)" fill="#ecb478" opacity="0.17"/><rect x="-508.3" y="-80" width="112.4" height="875" transform="rotate(18 -508.3 337.5)" fill="#ecb478" opacity="0.15"/><rect x="-324.6" y="-80" width="84.8" height="875" transform="rotate(18 -324.6 337.5)" fill="#ecb478" opacity="0.12"/><rect x="-132.1" y="-80" width="75.8" height="875" transform="rotate(18 -132.1 337.5)" fill="#ecb478" opacity="0.14"/><rect x="56.8" y="-80" width="127.6" height="875" transform="rotate(18 56.8 337.5)" fill="#ecb478" opacity="0.08"/><rect x="198.1" y="-80" width="102.8" height="875" transform="rotate(18 198.1 337.5)" fill="#ecb478" opacity="0.19"/><rect x="433.5" y="-80" width="91.5" height="875" transform="rotate(18 433.5 337.5)" fill="#ecb478" opacity="0.10"/><rect x="566.6" y="-80" width="61.7" height="875" transform="rotate(18 566.6 337.5)" fill="#ecb478" opacity="0.10"/><rect x="738.6" y="-80" width="66.3" height="875" transform="rotate(18 738.6 337.5)" fill="#ecb478" opacity="0.16"/><rect x="910.8" y="-80" width="66.9" height="875" transform="rotate(18 910.8 337.5)" fill="#ecb478" opacity="0.14"/><rect x="1096.2" y="-80" width="109.1" height="875" transform="rotate(18 1096.2 337.5)" fill="#ecb478" opacity="0.14"/><rect x="1326.7" y="-80" width="79.7" height="875" transform="rotate(18 1326.7 337.5)" fill="#ecb478" opacity="0.19"/><rect x="1465.9" y="-80" width="64.1" height="875" transform="rotate(18 1465.9 337.5)" fill="#ecb478" opacity="0.06"/><rect x="1644.8" y="-80" width="131.7" height="875" transform="rotate(18 1644.8 337.5)" fill="#ecb478" opacity="0.14"/><rect x="0" y="0" width="1200" height="675" fill="url(#glow)" opacity="0.6"/>
  <g opacity="0.85" transform="translate(1020, 495)">
        <circle r="60" fill="#ecb478" opacity="0.18"/>
        <path d="M -34 6 Q -10 -22 14 6 Q 34 24 14 26 L -22 26 Q -38 24 -34 6 Z" fill="none" stroke="#faebd6" stroke-width="3" stroke-linejoin="round"/>
      </g>
  <g transform="translate(80, 90)">
    <rect x="0" y="0" rx="20" ry="20" width="134" height="38" fill="#ecb478" opacity="0.18" stroke="#ecb478" stroke-width="1.5"/>
    <text x="67" y="25" font-family="ui-sans-serif, Inter, sans-serif" font-weight="700" font-size="14" letter-spacing="2.5" fill="#ecb478" text-anchor="middle">CASE STUDY</text>
  </g>
  <text x="80" y="465" font-family="ui-sans-serif, -apple-system, Segoe UI, Inter, sans-serif" font-weight="800" font-size="44" fill="#faf8f5" opacity="0.98"><tspan x="80" dy="0">Three-Part Resolution for</tspan><tspan x="80" dy="56">a Distribution Business</tspan><tspan x="80" dy="56">Loan</tspan></text>
  <rect x="0" y="669" width="1200" height="6" fill="url(#gold)"/>
</svg>