<?xml version="1.0" encoding="UTF-8"?>
<svg xmlns="http://www.w3.org/2000/svg" viewBox="0 0 1200 675" width="1200" height="675" role="img" aria-label="Track &amp; Analyze Disputes with PDR COURT Dashboard">
  <defs>
    <linearGradient id="bg" x1="0%" y1="0%" x2="100%" y2="100%">
      <stop offset="0%" stop-color="#12100e"/>
      <stop offset="100%" stop-color="#1c1917"/>
    </linearGradient>
    <linearGradient id="gold" x1="0%" y1="0%" x2="100%" y2="100%">
      <stop offset="0%" stop-color="#bd6b20"/>
      <stop offset="100%" stop-color="#e09440"/>
    </linearGradient>
    <radialGradient id="glow" cx="50%" cy="50%" r="50%">
      <stop offset="0%" stop-color="#bd6b20" stop-opacity="0.45"/>
      <stop offset="100%" stop-color="#bd6b20" stop-opacity="0"/>
    </radialGradient>
  </defs>
  <rect width="1200" height="675" fill="url(#bg)"/>
  <rect x="-666.8" y="-80" width="117.6" height="875" transform="rotate(18 -666.8 337.5)" fill="#bd6b20" opacity="0.13"/><rect x="-488.7" y="-80" width="129.2" height="875" transform="rotate(18 -488.7 337.5)" fill="#bd6b20" opacity="0.17"/><rect x="-313.2" y="-80" width="127.5" height="875" transform="rotate(18 -313.2 337.5)" fill="#bd6b20" opacity="0.16"/><rect x="-175.6" y="-80" width="125.6" height="875" transform="rotate(18 -175.6 337.5)" fill="#bd6b20" opacity="0.08"/><rect x="42.9" y="-80" width="88.4" height="875" transform="rotate(18 42.9 337.5)" fill="#bd6b20" opacity="0.20"/><rect x="191.7" y="-80" width="103.1" height="875" transform="rotate(18 191.7 337.5)" fill="#bd6b20" opacity="0.10"/><rect x="428.4" y="-80" width="101.0" height="875" transform="rotate(18 428.4 337.5)" fill="#bd6b20" opacity="0.09"/><rect x="556.9" y="-80" width="72.4" height="875" transform="rotate(18 556.9 337.5)" fill="#bd6b20" opacity="0.05"/><rect x="720.4" y="-80" width="91.8" height="875" transform="rotate(18 720.4 337.5)" fill="#bd6b20" opacity="0.14"/><rect x="915.4" y="-80" width="66.8" height="875" transform="rotate(18 915.4 337.5)" fill="#bd6b20" opacity="0.18"/><rect x="1120.0" y="-80" width="135.2" height="875" transform="rotate(18 1120.0 337.5)" fill="#bd6b20" opacity="0.09"/><rect x="1272.1" y="-80" width="81.0" height="875" transform="rotate(18 1272.1 337.5)" fill="#bd6b20" opacity="0.18"/><rect x="1452.3" y="-80" width="90.9" height="875" transform="rotate(18 1452.3 337.5)" fill="#bd6b20" opacity="0.17"/><rect x="1655.7" y="-80" width="131.2" height="875" transform="rotate(18 1655.7 337.5)" fill="#bd6b20" opacity="0.19"/><rect x="0" y="0" width="1200" height="675" fill="url(#glow)" opacity="0.6"/>
  <g opacity="0.85" transform="translate(1020, 495)">
        <rect x="-46" y="-60" width="92" height="115" fill="#bd6b20" opacity="0.18" rx="6"/>
        <path d="M -28 -36 L 28 -36 M -28 -12 L 28 -12 M -28 12 L 18 12 M -28 36 L 28 36" stroke="#e09440" stroke-width="3" stroke-linecap="round"/>
      </g>
  <g transform="translate(80, 90)">
    <rect x="0" y="0" rx="20" ry="20" width="101" height="38" fill="#bd6b20" opacity="0.18" stroke="#bd6b20" stroke-width="1.5"/>
    <text x="50.5" y="25" font-family="ui-sans-serif, Inter, sans-serif" font-weight="700" font-size="14" letter-spacing="2.5" fill="#bd6b20" text-anchor="middle">ARTICLE</text>
  </g>
  <text x="80" y="515" font-family="ui-sans-serif, -apple-system, Segoe UI, Inter, sans-serif" font-weight="800" font-size="44" fill="#faf8f5" opacity="0.98"><tspan x="80" dy="0">Track &amp; Analyze Disputes</tspan><tspan x="80" dy="56">with PDR COURT Dashboard</tspan></text>
  <rect x="0" y="669" width="1200" height="6" fill="url(#gold)"/>
</svg>