<?xml version="1.0" encoding="UTF-8"?>
<svg xmlns="http://www.w3.org/2000/svg" viewBox="0 0 1200 675" width="1200" height="675" role="img" aria-label="What is the Role of the Arbitration Bar of India?">
  <defs>
    <linearGradient id="bg" x1="0%" y1="0%" x2="100%" y2="100%">
      <stop offset="0%" stop-color="#643516"/>
      <stop offset="100%" stop-color="#7d4315"/>
    </linearGradient>
    <linearGradient id="gold" x1="0%" y1="0%" x2="100%" y2="100%">
      <stop offset="0%" stop-color="#ecb478"/>
      <stop offset="100%" stop-color="#faebd6"/>
    </linearGradient>
    <radialGradient id="glow" cx="50%" cy="50%" r="50%">
      <stop offset="0%" stop-color="#ecb478" stop-opacity="0.45"/>
      <stop offset="100%" stop-color="#ecb478" stop-opacity="0"/>
    </radialGradient>
  </defs>
  <rect width="1200" height="675" fill="url(#bg)"/>
  <polygon points="-50,328.6 -20,317.3 10,305.5 40,293.6 70,281.7 100,270.2 130,259.3 160,249.2 190,240.3 220,232.6 250,226.3 280,221.6 310,218.7 340,217.5 370,218.1 400,220.4 430,224.5 460,230.2 490,237.4 520,246.0 550,255.7 580,266.4 610,277.7 640,289.5 670,301.4 700,313.2 730,324.7 760,335.6 790,345.6 820,354.5 850,362.1 880,368.3 910,372.9 940,375.8 970,376.9 1000,376.2 1030,373.7 1060,369.5 1090,363.7 1120,356.4 1150,347.8 1180,338.0 1210,327.3 1240,316.0 1250,725 -50,725" fill="#ecb478" opacity="0.08"/><polygon points="-50,394.1 -20,396.2 10,397.3 40,397.4 70,396.5 100,394.6 130,391.7 160,387.9 190,383.3 220,377.9 250,372.0 280,365.7 310,359.0 340,352.2 370,345.3 400,338.6 430,332.2 460,326.2 490,320.8 520,316.1 550,312.2 580,309.2 610,307.1 640,306.0 670,306.0 700,307.0 730,309.0 760,311.9 790,315.7 820,320.4 850,325.7 880,331.7 910,338.1 940,344.8 970,351.6 1000,358.4 1030,365.1 1060,371.5 1090,377.5 1120,382.9 1150,387.5 1180,391.4 1210,394.4 1240,396.4 1250,725 -50,725" fill="#ecb478" opacity="0.13"/><polygon points="-50,472.6 -20,469.8 10,466.1 40,461.4 70,456.0 100,450.0 130,443.4 160,436.5 190,429.3 220,422.1 250,415.0 280,408.2 310,401.7 340,395.9 370,390.7 400,386.4 430,382.9 460,380.5 490,379.1 520,378.8 550,379.5 580,381.3 610,384.1 640,387.9 670,392.6 700,398.0 730,404.1 760,410.7 790,417.7 820,424.9 850,432.1 880,439.2 910,446.0 940,452.4 970,458.2 1000,463.3 1030,467.6 1060,471.0 1090,473.4 1120,474.7 1150,475.0 1180,474.2 1210,472.3 1240,469.4 1250,725 -50,725" fill="#ecb478" opacity="0.18"/><polygon points="-50,574.7 -20,571.9 10,567.3 40,561.0 70,553.2 100,544.0 130,533.6 160,522.3 190,510.3 220,497.9 250,485.4 280,473.0 310,461.0 340,449.7 370,439.4 400,430.3 430,422.5 460,416.4 490,411.9 520,409.2 550,408.4 580,409.4 610,412.3 640,417.0 670,423.4 700,431.3 730,440.6 760,451.0 790,462.4 820,474.4 850,486.8 880,499.4 910,511.7 940,523.7 970,534.9 1000,545.1 1030,554.2 1060,561.9 1090,568.0 1120,572.4 1150,574.9 1180,575.7 1210,574.5 1240,571.5 1250,725 -50,725" fill="#ecb478" opacity="0.23"/><circle cx="300.0" cy="189.0" r="160" fill="url(#glow)"/>
  <g opacity="0.85" transform="translate(1020, 495)">
        <circle r="68" fill="none" stroke="#ecb478" stroke-width="2" opacity="0.35"/>
        <path d="M -38 12 L 38 12 M -32 -8 L 32 -8 M -45 -28 L 45 -28" stroke="#faebd6" stroke-width="3" stroke-linecap="round"/>
        <rect x="-50" y="-44" width="100" height="80" fill="none" stroke="#ecb478" stroke-width="2"/>
      </g>
  <g transform="translate(80, 90)">
    <rect x="0" y="0" rx="20" ry="20" width="112" height="38" fill="#ecb478" opacity="0.18" stroke="#ecb478" stroke-width="1.5"/>
    <text x="56" y="25" font-family="ui-sans-serif, Inter, sans-serif" font-weight="700" font-size="14" letter-spacing="2.5" fill="#ecb478" text-anchor="middle">NEWSROOM</text>
  </g>
  <text x="80" y="515" font-family="ui-sans-serif, -apple-system, Segoe UI, Inter, sans-serif" font-weight="800" font-size="44" fill="#faf8f5" opacity="0.98"><tspan x="80" dy="0">What is the Role of the</tspan><tspan x="80" dy="56">Arbitration Bar of India?</tspan></text>
  <rect x="0" y="669" width="1200" height="6" fill="url(#gold)"/>
</svg>