<?xml version="1.0" encoding="UTF-8"?>
<svg xmlns="http://www.w3.org/2000/svg" viewBox="0 0 1200 675" width="1200" height="675" role="img" aria-label="What Measures Does RBI Recommend to Prevent Bank Fraud?">
  <defs>
    <linearGradient id="bg" x1="0%" y1="0%" x2="100%" y2="100%">
      <stop offset="0%" stop-color="#643516"/>
      <stop offset="100%" stop-color="#7d4315"/>
    </linearGradient>
    <linearGradient id="gold" x1="0%" y1="0%" x2="100%" y2="100%">
      <stop offset="0%" stop-color="#ecb478"/>
      <stop offset="100%" stop-color="#faebd6"/>
    </linearGradient>
    <radialGradient id="glow" cx="50%" cy="50%" r="50%">
      <stop offset="0%" stop-color="#ecb478" stop-opacity="0.45"/>
      <stop offset="100%" stop-color="#ecb478" stop-opacity="0"/>
    </radialGradient>
  </defs>
  <rect width="1200" height="675" fill="url(#bg)"/>
  <circle cx="32.9" cy="28.8" r="3.76" fill="#ecb478" opacity="0.32"/><circle cx="64.7" cy="31.3" r="2.88" fill="#ecb478" opacity="0.24"/><circle cx="99.7" cy="27.9" r="3.98" fill="#ecb478" opacity="0.22"/><circle cx="136.8" cy="30.0" r="2.33" fill="#ecb478" opacity="0.24"/><circle cx="173.4" cy="28.1" r="2.18" fill="#ecb478" opacity="0.18"/><circle cx="212.1" cy="29.6" r="2.48" fill="#ecb478" opacity="0.18"/><circle cx="244.5" cy="30.5" r="3.15" fill="#ecb478" opacity="0.28"/><circle cx="284.7" cy="27.1" r="1.63" fill="#ecb478" opacity="0.15"/><circle cx="320.2" cy="27.8" r="2.08" fill="#ecb478" opacity="0.29"/><circle cx="352.5" cy="31.7" r="1.84" fill="#ecb478" opacity="0.24"/><circle cx="392.9" cy="31.3" r="3.11" fill="#ecb478" opacity="0.18"/><circle cx="424.1" cy="31.3" r="2.25" fill="#ecb478" opacity="0.34"/><circle cx="463.7" cy="27.5" r="2.85" fill="#ecb478" opacity="0.23"/><circle cx="497.3" cy="32.9" r="1.72" fill="#ecb478" opacity="0.16"/><circle cx="535.8" cy="28.6" r="1.72" fill="#ecb478" opacity="0.30"/><circle cx="568.0" cy="28.7" r="1.78" fill="#ecb478" opacity="0.33"/><circle cx="603.4" cy="30.8" r="2.77" fill="#ecb478" opacity="0.32"/><circle cx="641.2" cy="32.7" r="3.63" fill="#ecb478" opacity="0.26"/><circle cx="678.4" cy="32.0" r="2.54" fill="#ecb478" opacity="0.36"/><circle cx="713.4" cy="28.9" r="2.17" fill="#ecb478" opacity="0.19"/><circle cx="751.6" cy="27.5" r="3.35" fill="#ecb478" opacity="0.16"/><circle cx="787.2" cy="29.5" r="2.76" fill="#ecb478" opacity="0.18"/><circle cx="823.6" cy="29.7" r="2.21" fill="#ecb478" opacity="0.16"/><circle cx="858.5" cy="29.2" r="1.65" fill="#ecb478" opacity="0.23"/><circle cx="894.9" cy="29.2" r="3.44" fill="#ecb478" opacity="0.16"/><circle cx="932.7" cy="27.6" r="3.26" fill="#ecb478" opacity="0.28"/><circle cx="966.1" cy="32.1" r="3.60" fill="#ecb478" opacity="0.26"/><circle cx="999.1" cy="27.3" r="3.47" fill="#ecb478" opacity="0.22"/><circle cx="1040.6" cy="28.2" r="1.63" fill="#ecb478" opacity="0.22"/><circle cx="1072.1" cy="31.5" r="2.35" fill="#ecb478" opacity="0.20"/><circle cx="1108.9" cy="30.8" r="3.17" fill="#ecb478" opacity="0.24"/><circle cx="1146.4" cy="29.8" r="2.99" fill="#ecb478" opacity="0.31"/><circle cx="1183.8" cy="28.2" r="1.64" fill="#ecb478" opacity="0.27"/><circle cx="27.8" cy="64.8" r="3.55" fill="#ecb478" opacity="0.20"/><circle cx="66.3" cy="67.0" r="2.03" fill="#ecb478" opacity="0.25"/><circle cx="103.6" cy="64.1" r="2.55" fill="#ecb478" opacity="0.25"/><circle cx="137.1" cy="68.2" r="2.27" fill="#ecb478" opacity="0.24"/><circle cx="176.5" cy="68.5" r="2.97" fill="#ecb478" opacity="0.29"/><circle cx="210.0" cy="67.7" r="3.66" fill="#ecb478" opacity="0.34"/><circle cx="247.1" cy="63.9" r="3.11" fill="#ecb478" opacity="0.34"/><circle cx="280.0" cy="68.8" r="3.06" fill="#ecb478" opacity="0.20"/><circle cx="317.6" cy="65.9" r="2.89" fill="#ecb478" opacity="0.24"/><circle cx="351.8" cy="65.4" r="3.70" fill="#ecb478" opacity="0.16"/><circle cx="390.3" cy="66.7" r="3.10" fill="#ecb478" opacity="0.25"/><circle cx="424.2" cy="66.7" r="3.04" fill="#ecb478" opacity="0.18"/><circle cx="459.1" cy="67.6" r="2.15" fill="#ecb478" opacity="0.35"/><circle cx="500.8" cy="64.2" r="2.04" fill="#ecb478" opacity="0.20"/><circle cx="533.0" cy="65.6" r="3.97" fill="#ecb478" opacity="0.19"/><circle cx="567.5" cy="67.8" r="3.15" fill="#ecb478" opacity="0.15"/><circle cx="605.4" cy="63.3" r="1.74" fill="#ecb478" opacity="0.21"/><circle cx="641.6" cy="63.1" r="2.90" fill="#ecb478" opacity="0.32"/><circle cx="676.8" cy="65.3" r="3.92" fill="#ecb478" opacity="0.21"/><circle cx="713.2" cy="67.2" r="3.51" fill="#ecb478" opacity="0.23"/><circle cx="749.7" cy="64.7" r="3.38" fill="#ecb478" opacity="0.35"/><circle cx="785.7" cy="68.4" r="3.58" fill="#ecb478" opacity="0.29"/><circle cx="820.7" cy="64.3" r="3.88" fill="#ecb478" opacity="0.16"/><circle cx="856.5" cy="63.6" r="2.40" fill="#ecb478" opacity="0.21"/><circle cx="894.7" cy="68.4" r="2.74" fill="#ecb478" opacity="0.22"/><circle cx="928.0" cy="67.7" r="2.78" fill="#ecb478" opacity="0.19"/><circle cx="968.8" cy="68.6" r="3.76" fill="#ecb478" opacity="0.28"/><circle cx="1004.6" cy="68.4" r="2.84" fill="#ecb478" opacity="0.30"/><circle cx="1038.3" cy="66.7" r="3.52" fill="#ecb478" opacity="0.22"/><circle cx="1076.3" cy="67.5" r="2.00" fill="#ecb478" opacity="0.23"/><circle cx="1108.1" cy="68.0" r="2.49" fill="#ecb478" opacity="0.27"/><circle cx="1147.6" cy="68.2" r="2.03" fill="#ecb478" opacity="0.35"/><circle cx="1179.6" cy="63.1" r="2.89" fill="#ecb478" opacity="0.17"/><circle cx="29.7" cy="99.9" r="3.37" fill="#ecb478" opacity="0.17"/><circle cx="64.8" cy="102.5" r="2.44" fill="#ecb478" opacity="0.20"/><circle cx="104.7" cy="101.6" r="1.83" fill="#ecb478" opacity="0.28"/><circle cx="137.9" cy="102.4" r="3.71" fill="#ecb478" opacity="0.29"/><circle cx="172.9" cy="103.4" r="3.74" fill="#ecb478" opacity="0.17"/><circle cx="211.8" cy="103.6" r="1.68" fill="#ecb478" opacity="0.32"/><circle cx="246.9" cy="102.8" r="1.94" fill="#ecb478" opacity="0.30"/><circle cx="281.0" cy="99.2" r="1.66" fill="#ecb478" opacity="0.31"/><circle cx="317.4" cy="100.3" r="2.40" fill="#ecb478" opacity="0.34"/><circle cx="356.2" cy="99.5" r="2.56" fill="#ecb478" opacity="0.36"/><circle cx="390.5" cy="102.8" r="3.53" fill="#ecb478" opacity="0.29"/><circle cx="428.2" cy="104.4" r="3.92" fill="#ecb478" opacity="0.16"/><circle cx="464.1" cy="100.4" r="3.32" fill="#ecb478" opacity="0.16"/><circle cx="497.5" cy="100.2" r="3.32" fill="#ecb478" opacity="0.26"/><circle cx="533.8" cy="103.7" r="2.38" fill="#ecb478" opacity="0.32"/><circle cx="568.2" cy="100.7" r="3.74" fill="#ecb478" opacity="0.23"/><circle cx="605.7" cy="103.9" r="2.71" fill="#ecb478" opacity="0.24"/><circle cx="644.7" cy="99.6" r="2.29" fill="#ecb478" opacity="0.28"/><circle cx="676.7" cy="102.4" r="2.73" fill="#ecb478" opacity="0.15"/><circle cx="711.1" cy="103.2" r="1.85" fill="#ecb478" opacity="0.27"/><circle cx="752.3" cy="102.3" r="2.74" fill="#ecb478" opacity="0.30"/><circle cx="784.8" cy="104.5" r="3.63" fill="#ecb478" opacity="0.28"/><circle cx="820.9" cy="104.8" r="2.13" fill="#ecb478" opacity="0.31"/><circle cx="855.5" cy="103.3" r="3.51" fill="#ecb478" opacity="0.31"/><circle cx="892.4" cy="99.3" r="3.93" fill="#ecb478" opacity="0.31"/><circle cx="929.7" cy="105.0" r="3.99" fill="#ecb478" opacity="0.19"/><circle cx="968.2" cy="104.3" r="2.35" fill="#ecb478" opacity="0.27"/><circle cx="999.4" cy="101.9" r="2.48" fill="#ecb478" opacity="0.31"/><circle cx="1038.9" cy="99.6" r="2.91" fill="#ecb478" opacity="0.33"/><circle cx="1072.2" cy="102.3" r="3.06" fill="#ecb478" opacity="0.20"/><circle cx="1108.6" cy="100.8" r="2.43" fill="#ecb478" opacity="0.28"/><circle cx="1147.8" cy="104.4" r="2.30" fill="#ecb478" opacity="0.21"/><circle cx="1182.1" cy="103.9" r="2.16" fill="#ecb478" opacity="0.16"/><circle cx="27.2" cy="135.3" r="1.60" fill="#ecb478" opacity="0.22"/><circle cx="68.0" cy="140.2" r="3.81" fill="#ecb478" opacity="0.24"/><circle cx="101.5" cy="136.2" r="3.66" fill="#ecb478" opacity="0.30"/><circle cx="135.6" cy="139.0" r="3.73" fill="#ecb478" opacity="0.20"/><circle cx="174.4" cy="139.1" r="1.92" fill="#ecb478" opacity="0.19"/><circle cx="208.1" cy="138.6" r="3.37" fill="#ecb478" opacity="0.34"/><circle cx="243.7" cy="135.6" r="3.92" fill="#ecb478" opacity="0.24"/><circle cx="280.4" cy="138.5" r="1.71" fill="#ecb478" opacity="0.25"/><circle cx="316.3" cy="139.0" r="2.82" fill="#ecb478" opacity="0.35"/><circle cx="355.0" cy="136.3" r="3.14" fill="#ecb478" opacity="0.16"/><circle cx="388.0" cy="136.3" r="2.35" fill="#ecb478" opacity="0.24"/><circle cx="424.6" cy="138.9" r="3.67" fill="#ecb478" opacity="0.22"/><circle cx="460.0" cy="139.9" r="2.00" fill="#ecb478" opacity="0.34"/><circle cx="500.3" cy="140.7" r="2.87" fill="#ecb478" opacity="0.18"/><circle cx="535.3" cy="138.6" r="3.02" fill="#ecb478" opacity="0.25"/><circle cx="572.9" cy="137.9" r="2.73" fill="#ecb478" opacity="0.16"/><circle cx="606.7" cy="137.6" r="1.99" fill="#ecb478" opacity="0.18"/><circle cx="643.6" cy="136.3" r="2.41" fill="#ecb478" opacity="0.27"/><circle cx="679.5" cy="139.4" r="3.81" fill="#ecb478" opacity="0.26"/><circle cx="711.7" cy="140.6" r="3.14" fill="#ecb478" opacity="0.19"/><circle cx="751.4" cy="135.5" r="2.88" fill="#ecb478" opacity="0.30"/><circle cx="785.5" cy="138.8" r="1.81" fill="#ecb478" opacity="0.18"/><circle cx="823.3" cy="140.4" r="1.69" fill="#ecb478" opacity="0.33"/><circle cx="859.6" cy="139.0" r="3.72" fill="#ecb478" opacity="0.35"/><circle cx="892.4" cy="136.4" r="3.02" fill="#ecb478" opacity="0.31"/><circle cx="927.9" cy="136.1" r="3.86" fill="#ecb478" opacity="0.22"/><circle cx="963.8" cy="139.9" r="1.61" fill="#ecb478" opacity="0.27"/><circle cx="1001.5" cy="139.1" r="2.81" fill="#ecb478" opacity="0.32"/><circle cx="1037.9" cy="139.1" r="2.00" fill="#ecb478" opacity="0.27"/><circle cx="1072.2" cy="140.5" r="2.10" fill="#ecb478" opacity="0.35"/><circle cx="1110.2" cy="139.4" r="3.66" fill="#ecb478" opacity="0.17"/><circle cx="1147.2" cy="138.6" r="3.17" fill="#ecb478" opacity="0.22"/><circle cx="1184.6" cy="137.1" r="1.76" fill="#ecb478" opacity="0.28"/><circle cx="30.1" cy="173.3" r="3.26" fill="#ecb478" opacity="0.29"/><circle cx="68.9" cy="175.8" r="2.75" fill="#ecb478" opacity="0.33"/><circle cx="103.0" cy="171.6" r="2.94" fill="#ecb478" opacity="0.28"/><circle cx="135.6" cy="172.1" r="1.89" fill="#ecb478" opacity="0.24"/><circle cx="171.4" cy="172.8" r="2.64" fill="#ecb478" opacity="0.26"/><circle cx="212.1" cy="171.4" r="2.31" fill="#ecb478" opacity="0.17"/><circle cx="243.3" cy="176.9" r="3.08" fill="#ecb478" opacity="0.21"/><circle cx="280.2" cy="175.8" r="2.20" fill="#ecb478" opacity="0.31"/><circle cx="317.1" cy="171.3" r="3.22" fill="#ecb478" opacity="0.23"/><circle cx="354.7" cy="175.5" r="1.80" fill="#ecb478" opacity="0.26"/><circle cx="392.0" cy="173.0" r="3.15" fill="#ecb478" opacity="0.35"/><circle cx="426.8" cy="173.7" r="2.76" fill="#ecb478" opacity="0.26"/><circle cx="461.9" cy="176.8" r="2.04" fill="#ecb478" opacity="0.24"/><circle cx="496.9" cy="176.6" r="2.90" fill="#ecb478" opacity="0.19"/><circle cx="535.4" cy="171.9" r="3.19" fill="#ecb478" opacity="0.29"/><circle cx="570.1" cy="175.0" r="3.19" fill="#ecb478" opacity="0.23"/><circle cx="608.9" cy="176.7" r="1.78" fill="#ecb478" opacity="0.18"/><circle cx="644.0" cy="171.1" r="3.54" fill="#ecb478" opacity="0.17"/><circle cx="675.4" cy="173.5" r="2.28" fill="#ecb478" opacity="0.23"/><circle cx="711.2" cy="172.8" r="2.86" fill="#ecb478" opacity="0.29"/><circle cx="749.7" cy="176.0" r="3.54" fill="#ecb478" opacity="0.34"/><circle cx="785.8" cy="172.7" r="1.97" fill="#ecb478" opacity="0.32"/><circle cx="820.9" cy="171.6" r="2.56" fill="#ecb478" opacity="0.34"/><circle cx="855.3" cy="171.5" r="2.26" fill="#ecb478" opacity="0.30"/><circle cx="894.7" cy="175.5" r="1.62" fill="#ecb478" opacity="0.30"/><circle cx="929.6" cy="171.1" r="3.29" fill="#ecb478" opacity="0.20"/><circle cx="963.2" cy="174.9" r="3.27" fill="#ecb478" opacity="0.20"/><circle cx="1003.9" cy="172.2" r="1.80" fill="#ecb478" opacity="0.28"/><circle cx="1039.2" cy="173.4" r="3.15" fill="#ecb478" opacity="0.23"/><circle cx="1073.8" cy="171.6" r="3.06" fill="#ecb478" opacity="0.30"/><circle cx="1107.8" cy="174.6" r="3.00" fill="#ecb478" opacity="0.17"/><circle cx="1149.0" cy="172.7" r="2.71" fill="#ecb478" opacity="0.34"/><circle cx="1184.0" cy="172.9" r="2.78" fill="#ecb478" opacity="0.18"/><circle cx="27.7" cy="211.7" r="2.67" fill="#ecb478" opacity="0.17"/><circle cx="67.8" cy="211.7" r="2.74" fill="#ecb478" opacity="0.30"/><circle cx="105.0" cy="211.6" r="3.12" fill="#ecb478" opacity="0.36"/><circle cx="138.5" cy="209.0" r="2.68" fill="#ecb478" opacity="0.31"/><circle cx="174.5" cy="211.1" r="1.78" fill="#ecb478" opacity="0.27"/><circle cx="208.0" cy="211.6" r="2.50" fill="#ecb478" opacity="0.31"/><circle cx="246.6" cy="212.6" r="3.25" fill="#ecb478" opacity="0.33"/><circle cx="279.5" cy="208.8" r="1.73" fill="#ecb478" opacity="0.32"/><circle cx="318.5" cy="209.8" r="3.14" fill="#ecb478" opacity="0.23"/><circle cx="353.4" cy="209.3" r="1.82" fill="#ecb478" opacity="0.17"/><circle cx="392.6" cy="207.4" r="3.53" fill="#ecb478" opacity="0.18"/><circle cx="424.3" cy="207.5" r="2.12" fill="#ecb478" opacity="0.25"/><circle cx="460.6" cy="211.4" r="2.03" fill="#ecb478" opacity="0.27"/><circle cx="499.8" cy="207.9" r="2.52" fill="#ecb478" opacity="0.35"/><circle cx="534.6" cy="208.5" r="1.66" fill="#ecb478" opacity="0.16"/><circle cx="569.7" cy="207.4" r="3.33" fill="#ecb478" opacity="0.35"/><circle cx="605.9" cy="211.2" r="3.60" fill="#ecb478" opacity="0.20"/><circle cx="644.2" cy="209.6" r="3.05" fill="#ecb478" opacity="0.35"/><circle cx="676.0" cy="210.4" r="2.83" fill="#ecb478" opacity="0.31"/><circle cx="712.0" cy="207.6" r="2.98" fill="#ecb478" opacity="0.25"/><circle cx="749.6" cy="208.5" r="1.92" fill="#ecb478" opacity="0.31"/><circle cx="784.4" cy="207.3" r="3.85" fill="#ecb478" opacity="0.15"/><circle cx="823.5" cy="212.4" r="1.96" fill="#ecb478" opacity="0.22"/><circle cx="860.1" cy="211.8" r="2.14" fill="#ecb478" opacity="0.26"/><circle cx="892.3" cy="211.5" r="2.99" fill="#ecb478" opacity="0.15"/><circle cx="929.2" cy="212.7" r="2.20" fill="#ecb478" opacity="0.17"/><circle cx="968.5" cy="210.2" r="2.08" fill="#ecb478" opacity="0.36"/><circle cx="1003.9" cy="207.8" r="1.85" fill="#ecb478" opacity="0.35"/><circle cx="1040.9" cy="210.2" r="3.59" fill="#ecb478" opacity="0.16"/><circle cx="1076.7" cy="207.3" r="3.59" fill="#ecb478" opacity="0.35"/><circle cx="1111.4" cy="209.4" r="2.47" fill="#ecb478" opacity="0.28"/><circle cx="1145.4" cy="209.1" r="3.08" fill="#ecb478" opacity="0.19"/><circle cx="1180.7" cy="209.0" r="1.63" fill="#ecb478" opacity="0.24"/><circle cx="33.0" cy="246.0" r="2.25" fill="#ecb478" opacity="0.16"/><circle cx="64.7" cy="248.0" r="1.96" fill="#ecb478" opacity="0.22"/><circle cx="100.9" cy="245.0" r="3.66" fill="#ecb478" opacity="0.21"/><circle cx="136.9" cy="245.8" r="2.29" fill="#ecb478" opacity="0.29"/><circle cx="172.8" cy="247.7" r="2.15" fill="#ecb478" opacity="0.25"/><circle cx="210.8" cy="246.4" r="2.15" fill="#ecb478" opacity="0.23"/><circle cx="248.9" cy="247.4" r="3.81" fill="#ecb478" opacity="0.19"/><circle cx="282.5" cy="246.6" r="2.72" fill="#ecb478" opacity="0.28"/><circle cx="315.0" cy="248.8" r="1.91" fill="#ecb478" opacity="0.21"/><circle cx="354.8" cy="248.4" r="1.63" fill="#ecb478" opacity="0.17"/><circle cx="392.2" cy="248.7" r="3.59" fill="#ecb478" opacity="0.19"/><circle cx="425.8" cy="246.0" r="3.40" fill="#ecb478" opacity="0.27"/><circle cx="462.3" cy="244.5" r="1.71" fill="#ecb478" opacity="0.34"/><circle cx="499.7" cy="248.6" r="2.17" fill="#ecb478" opacity="0.26"/><circle cx="536.4" cy="244.8" r="3.86" fill="#ecb478" opacity="0.36"/><circle cx="570.8" cy="243.6" r="2.93" fill="#ecb478" opacity="0.17"/><circle cx="607.3" cy="244.5" r="3.89" fill="#ecb478" opacity="0.18"/><circle cx="641.8" cy="248.1" r="3.15" fill="#ecb478" opacity="0.16"/><circle cx="680.4" cy="247.5" r="3.08" fill="#ecb478" opacity="0.26"/><circle cx="714.8" cy="248.0" r="3.70" fill="#ecb478" opacity="0.26"/><circle cx="751.5" cy="248.0" r="3.23" fill="#ecb478" opacity="0.20"/><circle cx="788.6" cy="246.7" r="2.65" fill="#ecb478" opacity="0.26"/><circle cx="823.1" cy="246.9" r="3.53" fill="#ecb478" opacity="0.27"/><circle cx="858.3" cy="248.0" r="1.63" fill="#ecb478" opacity="0.19"/><circle cx="892.3" cy="248.5" r="2.11" fill="#ecb478" opacity="0.19"/><circle cx="932.1" cy="247.7" r="3.65" fill="#ecb478" opacity="0.26"/><circle cx="967.2" cy="248.5" r="1.67" fill="#ecb478" opacity="0.29"/><circle cx="1000.8" cy="247.0" r="2.76" fill="#ecb478" opacity="0.33"/><circle cx="1035.5" cy="245.9" r="2.83" fill="#ecb478" opacity="0.32"/><circle cx="1077.0" cy="244.5" r="2.47" fill="#ecb478" opacity="0.30"/><circle cx="1112.1" cy="247.4" r="1.77" fill="#ecb478" opacity="0.33"/><circle cx="1144.2" cy="245.3" r="3.69" fill="#ecb478" opacity="0.33"/><circle cx="1184.6" cy="248.8" r="1.85" fill="#ecb478" opacity="0.15"/><circle cx="32.2" cy="280.0" r="1.89" fill="#ecb478" opacity="0.18"/><circle cx="65.9" cy="280.6" r="2.10" fill="#ecb478" opacity="0.18"/><circle cx="104.6" cy="280.0" r="3.96" fill="#ecb478" opacity="0.32"/><circle cx="135.7" cy="282.0" r="2.81" fill="#ecb478" opacity="0.21"/><circle cx="176.5" cy="282.1" r="2.01" fill="#ecb478" opacity="0.18"/><circle cx="212.7" cy="279.6" r="3.04" fill="#ecb478" opacity="0.32"/><circle cx="244.4" cy="280.7" r="1.71" fill="#ecb478" opacity="0.29"/><circle cx="279.8" cy="282.4" r="3.85" fill="#ecb478" opacity="0.17"/><circle cx="319.2" cy="279.3" r="3.94" fill="#ecb478" opacity="0.31"/><circle cx="355.7" cy="279.0" r="3.52" fill="#ecb478" opacity="0.32"/><circle cx="390.7" cy="279.8" r="3.73" fill="#ecb478" opacity="0.25"/><circle cx="429.0" cy="284.5" r="2.47" fill="#ecb478" opacity="0.28"/><circle cx="463.1" cy="284.9" r="2.79" fill="#ecb478" opacity="0.22"/><circle cx="495.6" cy="280.4" r="2.15" fill="#ecb478" opacity="0.28"/><circle cx="534.5" cy="280.6" r="2.45" fill="#ecb478" opacity="0.17"/><circle cx="570.9" cy="279.4" r="3.54" fill="#ecb478" opacity="0.29"/><circle cx="604.6" cy="280.0" r="3.58" fill="#ecb478" opacity="0.22"/><circle cx="644.7" cy="282.6" r="3.57" fill="#ecb478" opacity="0.16"/><circle cx="680.1" cy="279.6" r="3.09" fill="#ecb478" opacity="0.27"/><circle cx="711.7" cy="279.4" r="2.24" fill="#ecb478" opacity="0.27"/><circle cx="750.0" cy="281.4" r="1.82" fill="#ecb478" opacity="0.34"/><circle cx="785.8" cy="279.4" r="3.22" fill="#ecb478" opacity="0.15"/><circle cx="824.5" cy="282.3" r="3.13" fill="#ecb478" opacity="0.22"/><circle cx="858.9" cy="280.3" r="1.98" fill="#ecb478" opacity="0.26"/><circle cx="896.6" cy="284.2" r="2.64" fill="#ecb478" opacity="0.32"/><circle cx="932.8" cy="282.0" r="2.77" fill="#ecb478" opacity="0.32"/><circle cx="968.2" cy="282.9" r="1.91" fill="#ecb478" opacity="0.23"/><circle cx="1004.2" cy="283.1" r="2.66" fill="#ecb478" opacity="0.30"/><circle cx="1037.5" cy="283.9" r="2.95" fill="#ecb478" opacity="0.21"/><circle cx="1076.2" cy="279.8" r="2.81" fill="#ecb478" opacity="0.25"/><circle cx="1111.4" cy="284.2" r="2.91" fill="#ecb478" opacity="0.23"/><circle cx="1145.0" cy="283.9" r="1.76" fill="#ecb478" opacity="0.26"/><circle cx="1182.6" cy="279.3" r="3.16" fill="#ecb478" opacity="0.16"/><circle cx="31.4" cy="319.0" r="1.72" fill="#ecb478" opacity="0.24"/><circle cx="68.0" cy="318.7" r="2.47" fill="#ecb478" opacity="0.27"/><circle cx="101.1" cy="319.1" r="2.86" fill="#ecb478" opacity="0.28"/><circle cx="136.8" cy="317.9" r="3.96" fill="#ecb478" opacity="0.30"/><circle cx="173.0" cy="315.4" r="2.55" fill="#ecb478" opacity="0.20"/><circle cx="207.2" cy="318.4" r="1.66" fill="#ecb478" opacity="0.27"/><circle cx="243.4" cy="315.7" r="2.90" fill="#ecb478" opacity="0.19"/><circle cx="282.5" cy="316.5" r="2.66" fill="#ecb478" opacity="0.30"/><circle cx="315.3" cy="317.2" r="3.46" fill="#ecb478" opacity="0.30"/><circle cx="354.9" cy="318.5" r="2.95" fill="#ecb478" opacity="0.22"/><circle cx="389.4" cy="317.0" r="3.57" fill="#ecb478" opacity="0.35"/><circle cx="428.1" cy="317.7" r="2.13" fill="#ecb478" opacity="0.25"/><circle cx="461.4" cy="315.5" r="3.60" fill="#ecb478" opacity="0.34"/><circle cx="498.8" cy="317.2" r="2.84" fill="#ecb478" opacity="0.29"/><circle cx="536.0" cy="315.2" r="1.74" fill="#ecb478" opacity="0.23"/><circle cx="570.5" cy="318.3" r="1.84" fill="#ecb478" opacity="0.17"/><circle cx="607.0" cy="320.5" r="2.36" fill="#ecb478" opacity="0.15"/><circle cx="644.1" cy="317.7" r="3.31" fill="#ecb478" opacity="0.33"/><circle cx="677.2" cy="317.4" r="3.35" fill="#ecb478" opacity="0.27"/><circle cx="716.8" cy="317.2" r="3.23" fill="#ecb478" opacity="0.32"/><circle cx="749.9" cy="316.7" r="3.95" fill="#ecb478" opacity="0.26"/><circle cx="785.5" cy="317.2" r="3.42" fill="#ecb478" opacity="0.24"/><circle cx="821.1" cy="318.3" r="1.97" fill="#ecb478" opacity="0.21"/><circle cx="855.7" cy="318.9" r="2.51" fill="#ecb478" opacity="0.33"/><circle cx="893.4" cy="318.4" r="2.20" fill="#ecb478" opacity="0.18"/><circle cx="931.0" cy="320.7" r="3.70" fill="#ecb478" opacity="0.21"/><circle cx="966.7" cy="319.2" r="3.36" fill="#ecb478" opacity="0.33"/><circle cx="999.7" cy="316.2" r="3.03" fill="#ecb478" opacity="0.25"/><circle cx="1036.4" cy="320.4" r="3.34" fill="#ecb478" opacity="0.22"/><circle cx="1072.9" cy="319.8" r="3.24" fill="#ecb478" opacity="0.32"/><circle cx="1107.9" cy="320.9" r="2.76" fill="#ecb478" opacity="0.26"/><circle cx="1146.3" cy="320.5" r="2.80" fill="#ecb478" opacity="0.20"/><circle cx="1184.9" cy="318.7" r="2.67" fill="#ecb478" opacity="0.25"/><circle cx="30.5" cy="352.1" r="2.42" fill="#ecb478" opacity="0.30"/><circle cx="66.8" cy="355.2" r="2.12" fill="#ecb478" opacity="0.15"/><circle cx="101.6" cy="352.7" r="3.02" fill="#ecb478" opacity="0.30"/><circle cx="136.2" cy="355.0" r="3.52" fill="#ecb478" opacity="0.22"/><circle cx="172.7" cy="353.3" r="3.76" fill="#ecb478" opacity="0.30"/><circle cx="212.3" cy="352.5" r="1.92" fill="#ecb478" opacity="0.34"/><circle cx="247.0" cy="352.9" r="2.73" fill="#ecb478" opacity="0.20"/><circle cx="284.6" cy="354.8" r="3.52" fill="#ecb478" opacity="0.22"/><circle cx="316.5" cy="353.1" r="3.76" fill="#ecb478" opacity="0.17"/><circle cx="356.8" cy="352.9" r="1.74" fill="#ecb478" opacity="0.16"/><circle cx="392.3" cy="355.5" r="2.93" fill="#ecb478" opacity="0.32"/><circle cx="424.0" cy="354.3" r="2.49" fill="#ecb478" opacity="0.32"/><circle cx="462.2" cy="354.0" r="2.73" fill="#ecb478" opacity="0.17"/><circle cx="500.3" cy="351.5" r="2.21" fill="#ecb478" opacity="0.34"/><circle cx="536.7" cy="355.0" r="3.10" fill="#ecb478" opacity="0.16"/><circle cx="571.0" cy="356.6" r="2.81" fill="#ecb478" opacity="0.24"/><circle cx="606.3" cy="351.5" r="3.18" fill="#ecb478" opacity="0.26"/><circle cx="643.0" cy="351.3" r="3.41" fill="#ecb478" opacity="0.32"/><circle cx="676.6" cy="354.1" r="3.29" fill="#ecb478" opacity="0.22"/><circle cx="713.0" cy="352.8" r="1.73" fill="#ecb478" opacity="0.17"/><circle cx="747.9" cy="353.9" r="1.90" fill="#ecb478" opacity="0.26"/><circle cx="786.1" cy="356.5" r="1.99" fill="#ecb478" opacity="0.28"/><circle cx="820.3" cy="356.9" r="2.18" fill="#ecb478" opacity="0.26"/><circle cx="858.4" cy="352.5" r="2.56" fill="#ecb478" opacity="0.28"/><circle cx="893.5" cy="354.2" r="2.66" fill="#ecb478" opacity="0.24"/><circle cx="927.5" cy="353.8" r="2.41" fill="#ecb478" opacity="0.26"/><circle cx="965.9" cy="356.3" r="1.78" fill="#ecb478" opacity="0.31"/><circle cx="1003.1" cy="352.9" r="2.02" fill="#ecb478" opacity="0.24"/><circle cx="1039.1" cy="354.4" r="1.96" fill="#ecb478" opacity="0.28"/><circle cx="1073.0" cy="354.3" r="3.09" fill="#ecb478" opacity="0.34"/><circle cx="1113.0" cy="351.9" r="1.90" fill="#ecb478" opacity="0.21"/><circle cx="1148.4" cy="351.6" r="3.38" fill="#ecb478" opacity="0.36"/><circle cx="1182.4" cy="354.4" r="2.64" fill="#ecb478" opacity="0.26"/><circle cx="27.3" cy="387.5" r="2.22" fill="#ecb478" opacity="0.28"/><circle cx="63.4" cy="392.1" r="2.71" fill="#ecb478" opacity="0.24"/><circle cx="102.4" cy="389.7" r="2.20" fill="#ecb478" opacity="0.19"/><circle cx="135.2" cy="392.6" r="2.73" fill="#ecb478" opacity="0.32"/><circle cx="172.5" cy="387.1" r="2.24" fill="#ecb478" opacity="0.22"/><circle cx="208.8" cy="387.0" r="2.07" fill="#ecb478" opacity="0.22"/><circle cx="243.2" cy="387.8" r="1.93" fill="#ecb478" opacity="0.20"/><circle cx="282.2" cy="387.9" r="3.67" fill="#ecb478" opacity="0.22"/><circle cx="320.4" cy="388.9" r="3.97" fill="#ecb478" opacity="0.27"/><circle cx="352.5" cy="388.0" r="3.27" fill="#ecb478" opacity="0.30"/><circle cx="389.5" cy="390.5" r="2.00" fill="#ecb478" opacity="0.32"/><circle cx="424.4" cy="391.7" r="2.81" fill="#ecb478" opacity="0.25"/><circle cx="459.3" cy="389.6" r="3.08" fill="#ecb478" opacity="0.22"/><circle cx="498.8" cy="392.4" r="3.11" fill="#ecb478" opacity="0.28"/><circle cx="536.7" cy="387.7" r="2.86" fill="#ecb478" opacity="0.35"/><circle cx="568.9" cy="388.0" r="2.06" fill="#ecb478" opacity="0.28"/><circle cx="606.3" cy="391.5" r="2.12" fill="#ecb478" opacity="0.22"/><circle cx="643.7" cy="388.7" r="3.14" fill="#ecb478" opacity="0.19"/><circle cx="680.6" cy="387.4" r="1.95" fill="#ecb478" opacity="0.29"/><circle cx="715.7" cy="387.2" r="3.39" fill="#ecb478" opacity="0.25"/><circle cx="747.6" cy="389.0" r="3.24" fill="#ecb478" opacity="0.34"/><circle cx="788.5" cy="388.1" r="2.50" fill="#ecb478" opacity="0.32"/><circle cx="824.5" cy="388.9" r="2.70" fill="#ecb478" opacity="0.27"/><circle cx="859.8" cy="392.8" r="3.88" fill="#ecb478" opacity="0.26"/><circle cx="892.2" cy="390.5" r="2.54" fill="#ecb478" opacity="0.24"/><circle cx="932.9" cy="390.4" r="1.80" fill="#ecb478" opacity="0.16"/><circle cx="965.3" cy="390.4" r="3.23" fill="#ecb478" opacity="0.28"/><circle cx="1001.8" cy="387.8" r="2.24" fill="#ecb478" opacity="0.31"/><circle cx="1040.0" cy="391.8" r="3.63" fill="#ecb478" opacity="0.16"/><circle cx="1073.3" cy="391.7" r="3.18" fill="#ecb478" opacity="0.18"/><circle cx="1108.9" cy="391.4" r="2.47" fill="#ecb478" opacity="0.24"/><circle cx="1145.1" cy="389.3" r="3.94" fill="#ecb478" opacity="0.18"/><circle cx="1184.1" cy="387.2" r="1.72" fill="#ecb478" opacity="0.17"/><circle cx="29.2" cy="428.0" r="1.77" fill="#ecb478" opacity="0.34"/><circle cx="67.5" cy="425.9" r="2.84" fill="#ecb478" opacity="0.25"/><circle cx="103.7" cy="424.6" r="2.01" fill="#ecb478" opacity="0.18"/><circle cx="136.3" cy="423.5" r="3.53" fill="#ecb478" opacity="0.26"/><circle cx="176.9" cy="424.3" r="2.73" fill="#ecb478" opacity="0.24"/><circle cx="208.6" cy="426.1" r="3.87" fill="#ecb478" opacity="0.28"/><circle cx="248.7" cy="425.7" r="2.20" fill="#ecb478" opacity="0.28"/><circle cx="280.5" cy="424.7" r="3.81" fill="#ecb478" opacity="0.26"/><circle cx="317.4" cy="427.6" r="2.89" fill="#ecb478" opacity="0.23"/><circle cx="353.6" cy="426.2" r="2.78" fill="#ecb478" opacity="0.18"/><circle cx="388.2" cy="425.0" r="1.92" fill="#ecb478" opacity="0.20"/><circle cx="423.8" cy="428.5" r="1.60" fill="#ecb478" opacity="0.27"/><circle cx="460.2" cy="426.3" r="2.43" fill="#ecb478" opacity="0.20"/><circle cx="499.4" cy="426.1" r="2.83" fill="#ecb478" opacity="0.32"/><circle cx="536.8" cy="428.8" r="3.72" fill="#ecb478" opacity="0.27"/><circle cx="572.9" cy="425.8" r="2.67" fill="#ecb478" opacity="0.29"/><circle cx="603.3" cy="427.4" r="2.35" fill="#ecb478" opacity="0.31"/><circle cx="639.6" cy="426.4" r="1.73" fill="#ecb478" opacity="0.19"/><circle cx="680.9" cy="427.0" r="3.88" fill="#ecb478" opacity="0.35"/><circle cx="712.8" cy="423.3" r="1.61" fill="#ecb478" opacity="0.35"/><circle cx="748.5" cy="424.7" r="1.87" fill="#ecb478" opacity="0.18"/><circle cx="784.0" cy="426.1" r="3.33" fill="#ecb478" opacity="0.35"/><circle cx="823.0" cy="428.8" r="3.10" fill="#ecb478" opacity="0.26"/><circle cx="855.9" cy="427.0" r="3.75" fill="#ecb478" opacity="0.26"/><circle cx="894.8" cy="426.6" r="2.85" fill="#ecb478" opacity="0.19"/><circle cx="928.4" cy="427.5" r="3.69" fill="#ecb478" opacity="0.29"/><circle cx="963.8" cy="424.7" r="3.47" fill="#ecb478" opacity="0.26"/><circle cx="1001.0" cy="426.6" r="3.72" fill="#ecb478" opacity="0.30"/><circle cx="1039.7" cy="428.9" r="2.95" fill="#ecb478" opacity="0.24"/><circle cx="1075.5" cy="424.2" r="3.03" fill="#ecb478" opacity="0.20"/><circle cx="1112.3" cy="427.6" r="2.32" fill="#ecb478" opacity="0.21"/><circle cx="1144.8" cy="428.8" r="3.91" fill="#ecb478" opacity="0.20"/><circle cx="1184.1" cy="426.6" r="3.19" fill="#ecb478" opacity="0.25"/><circle cx="27.1" cy="460.3" r="2.41" fill="#ecb478" opacity="0.27"/><circle cx="64.1" cy="459.0" r="2.16" fill="#ecb478" opacity="0.31"/><circle cx="100.8" cy="461.9" r="3.95" fill="#ecb478" opacity="0.28"/><circle cx="137.9" cy="463.5" r="2.71" fill="#ecb478" opacity="0.16"/><circle cx="176.8" cy="461.6" r="2.31" fill="#ecb478" opacity="0.29"/><circle cx="209.1" cy="462.4" r="3.77" fill="#ecb478" opacity="0.25"/><circle cx="243.5" cy="463.7" r="2.04" fill="#ecb478" opacity="0.34"/><circle cx="284.0" cy="460.4" r="2.31" fill="#ecb478" opacity="0.32"/><circle cx="320.5" cy="461.7" r="2.65" fill="#ecb478" opacity="0.24"/><circle cx="356.5" cy="460.0" r="1.91" fill="#ecb478" opacity="0.28"/><circle cx="388.2" cy="461.7" r="3.12" fill="#ecb478" opacity="0.24"/><circle cx="427.9" cy="464.9" r="3.78" fill="#ecb478" opacity="0.19"/><circle cx="464.2" cy="462.9" r="2.19" fill="#ecb478" opacity="0.34"/><circle cx="495.4" cy="460.0" r="1.69" fill="#ecb478" opacity="0.18"/><circle cx="533.3" cy="463.3" r="2.21" fill="#ecb478" opacity="0.26"/><circle cx="572.1" cy="464.9" r="2.35" fill="#ecb478" opacity="0.19"/><circle cx="603.2" cy="463.7" r="2.86" fill="#ecb478" opacity="0.22"/><circle cx="639.9" cy="462.5" r="2.50" fill="#ecb478" opacity="0.19"/><circle cx="676.3" cy="462.5" r="2.79" fill="#ecb478" opacity="0.33"/><circle cx="716.5" cy="464.5" r="2.45" fill="#ecb478" opacity="0.33"/><circle cx="750.5" cy="459.3" r="3.45" fill="#ecb478" opacity="0.31"/><circle cx="788.8" cy="464.2" r="3.00" fill="#ecb478" opacity="0.36"/><circle cx="820.6" cy="463.7" r="1.71" fill="#ecb478" opacity="0.26"/><circle cx="860.1" cy="459.8" r="2.33" fill="#ecb478" opacity="0.25"/><circle cx="893.0" cy="463.8" r="1.73" fill="#ecb478" opacity="0.35"/><circle cx="928.3" cy="463.4" r="1.89" fill="#ecb478" opacity="0.31"/><circle cx="963.0" cy="460.3" r="1.99" fill="#ecb478" opacity="0.30"/><circle cx="1000.3" cy="464.5" r="2.38" fill="#ecb478" opacity="0.31"/><circle cx="1037.0" cy="463.8" r="2.67" fill="#ecb478" opacity="0.18"/><circle cx="1075.3" cy="461.9" r="3.77" fill="#ecb478" opacity="0.16"/><circle cx="1110.9" cy="463.5" r="1.84" fill="#ecb478" opacity="0.27"/><circle cx="1143.6" cy="463.5" r="3.08" fill="#ecb478" opacity="0.35"/><circle cx="1179.9" cy="461.7" r="1.84" fill="#ecb478" opacity="0.22"/><circle cx="30.5" cy="500.9" r="2.32" fill="#ecb478" opacity="0.30"/><circle cx="64.1" cy="499.8" r="2.24" fill="#ecb478" opacity="0.28"/><circle cx="100.4" cy="499.5" r="1.60" fill="#ecb478" opacity="0.20"/><circle cx="139.6" cy="497.6" r="2.21" fill="#ecb478" opacity="0.35"/><circle cx="174.2" cy="499.0" r="1.76" fill="#ecb478" opacity="0.18"/><circle cx="209.7" cy="496.1" r="3.20" fill="#ecb478" opacity="0.25"/><circle cx="246.2" cy="499.2" r="3.93" fill="#ecb478" opacity="0.29"/><circle cx="282.8" cy="499.7" r="3.76" fill="#ecb478" opacity="0.22"/><circle cx="317.3" cy="495.5" r="3.34" fill="#ecb478" opacity="0.29"/><circle cx="355.3" cy="499.6" r="2.48" fill="#ecb478" opacity="0.31"/><circle cx="392.8" cy="495.6" r="2.83" fill="#ecb478" opacity="0.30"/><circle cx="425.1" cy="498.7" r="2.46" fill="#ecb478" opacity="0.16"/><circle cx="459.1" cy="497.3" r="3.23" fill="#ecb478" opacity="0.35"/><circle cx="498.9" cy="496.8" r="3.61" fill="#ecb478" opacity="0.16"/><circle cx="532.0" cy="500.2" r="3.52" fill="#ecb478" opacity="0.21"/><circle cx="569.3" cy="495.7" r="2.69" fill="#ecb478" opacity="0.15"/><circle cx="603.6" cy="497.3" r="2.12" fill="#ecb478" opacity="0.15"/><circle cx="644.3" cy="495.8" r="1.88" fill="#ecb478" opacity="0.18"/><circle cx="676.8" cy="495.7" r="1.64" fill="#ecb478" opacity="0.21"/><circle cx="716.5" cy="497.4" r="3.77" fill="#ecb478" opacity="0.30"/><circle cx="751.8" cy="499.4" r="3.20" fill="#ecb478" opacity="0.36"/><circle cx="784.5" cy="497.8" r="2.89" fill="#ecb478" opacity="0.21"/><circle cx="821.5" cy="497.8" r="3.78" fill="#ecb478" opacity="0.29"/><circle cx="861.0" cy="495.0" r="3.33" fill="#ecb478" opacity="0.35"/><circle cx="892.1" cy="496.2" r="2.21" fill="#ecb478" opacity="0.36"/><circle cx="929.0" cy="497.3" r="1.91" fill="#ecb478" opacity="0.18"/><circle cx="967.4" cy="498.0" r="3.68" fill="#ecb478" opacity="0.35"/><circle cx="1001.2" cy="496.2" r="3.77" fill="#ecb478" opacity="0.16"/><circle cx="1035.8" cy="499.4" r="2.31" fill="#ecb478" opacity="0.28"/><circle cx="1074.7" cy="499.0" r="3.35" fill="#ecb478" opacity="0.35"/><circle cx="1109.5" cy="499.6" r="2.01" fill="#ecb478" opacity="0.17"/><circle cx="1147.9" cy="496.7" r="3.16" fill="#ecb478" opacity="0.18"/><circle cx="1182.9" cy="496.6" r="2.87" fill="#ecb478" opacity="0.34"/><circle cx="30.1" cy="533.6" r="3.39" fill="#ecb478" opacity="0.35"/><circle cx="63.3" cy="532.6" r="3.18" fill="#ecb478" opacity="0.35"/><circle cx="104.3" cy="534.6" r="2.45" fill="#ecb478" opacity="0.34"/><circle cx="138.3" cy="535.8" r="2.10" fill="#ecb478" opacity="0.28"/><circle cx="171.3" cy="536.0" r="3.65" fill="#ecb478" opacity="0.30"/><circle cx="211.8" cy="533.3" r="2.42" fill="#ecb478" opacity="0.35"/><circle cx="248.6" cy="532.7" r="2.47" fill="#ecb478" opacity="0.32"/><circle cx="283.7" cy="532.0" r="2.61" fill="#ecb478" opacity="0.28"/><circle cx="316.0" cy="532.2" r="3.92" fill="#ecb478" opacity="0.29"/><circle cx="353.7" cy="531.5" r="3.75" fill="#ecb478" opacity="0.35"/><circle cx="390.4" cy="532.5" r="3.88" fill="#ecb478" opacity="0.18"/><circle cx="423.2" cy="535.8" r="3.94" fill="#ecb478" opacity="0.25"/><circle cx="463.9" cy="532.5" r="2.93" fill="#ecb478" opacity="0.31"/><circle cx="498.4" cy="534.0" r="2.69" fill="#ecb478" opacity="0.28"/><circle cx="535.5" cy="532.7" r="3.71" fill="#ecb478" opacity="0.26"/><circle cx="572.6" cy="534.7" r="3.81" fill="#ecb478" opacity="0.27"/><circle cx="604.0" cy="531.9" r="3.47" fill="#ecb478" opacity="0.33"/><circle cx="643.7" cy="533.8" r="3.16" fill="#ecb478" opacity="0.32"/><circle cx="677.5" cy="534.5" r="3.67" fill="#ecb478" opacity="0.33"/><circle cx="711.9" cy="536.6" r="2.99" fill="#ecb478" opacity="0.25"/><circle cx="751.1" cy="531.6" r="1.79" fill="#ecb478" opacity="0.18"/><circle cx="787.1" cy="531.8" r="3.19" fill="#ecb478" opacity="0.30"/><circle cx="823.4" cy="532.5" r="2.68" fill="#ecb478" opacity="0.28"/><circle cx="859.9" cy="535.4" r="3.80" fill="#ecb478" opacity="0.27"/><circle cx="893.2" cy="531.1" r="2.62" fill="#ecb478" opacity="0.31"/><circle cx="931.6" cy="531.4" r="3.98" fill="#ecb478" opacity="0.15"/><circle cx="968.0" cy="533.5" r="2.21" fill="#ecb478" opacity="0.29"/><circle cx="1001.6" cy="533.8" r="3.54" fill="#ecb478" opacity="0.23"/><circle cx="1035.2" cy="534.7" r="2.32" fill="#ecb478" opacity="0.16"/><circle cx="1076.2" cy="535.6" r="3.55" fill="#ecb478" opacity="0.22"/><circle cx="1109.3" cy="531.9" r="3.63" fill="#ecb478" opacity="0.31"/><circle cx="1147.8" cy="536.8" r="3.73" fill="#ecb478" opacity="0.29"/><circle cx="1180.8" cy="531.6" r="3.47" fill="#ecb478" opacity="0.25"/><circle cx="27.5" cy="571.4" r="2.53" fill="#ecb478" opacity="0.32"/><circle cx="68.3" cy="567.3" r="2.58" fill="#ecb478" opacity="0.17"/><circle cx="101.7" cy="569.2" r="3.17" fill="#ecb478" opacity="0.16"/><circle cx="138.4" cy="567.7" r="2.15" fill="#ecb478" opacity="0.20"/><circle cx="175.0" cy="568.4" r="3.74" fill="#ecb478" opacity="0.17"/><circle cx="209.0" cy="571.5" r="2.29" fill="#ecb478" opacity="0.18"/><circle cx="244.0" cy="567.2" r="3.26" fill="#ecb478" opacity="0.24"/><circle cx="284.9" cy="569.9" r="3.42" fill="#ecb478" opacity="0.26"/><circle cx="315.6" cy="567.2" r="1.75" fill="#ecb478" opacity="0.29"/><circle cx="355.6" cy="570.6" r="3.28" fill="#ecb478" opacity="0.23"/><circle cx="392.2" cy="569.3" r="3.24" fill="#ecb478" opacity="0.16"/><circle cx="428.3" cy="568.5" r="2.71" fill="#ecb478" opacity="0.16"/><circle cx="464.2" cy="573.0" r="3.04" fill="#ecb478" opacity="0.35"/><circle cx="495.5" cy="570.4" r="3.55" fill="#ecb478" opacity="0.32"/><circle cx="534.3" cy="568.2" r="1.65" fill="#ecb478" opacity="0.19"/><circle cx="569.6" cy="571.5" r="2.57" fill="#ecb478" opacity="0.33"/><circle cx="605.2" cy="569.4" r="1.91" fill="#ecb478" opacity="0.20"/><circle cx="643.3" cy="569.6" r="2.66" fill="#ecb478" opacity="0.35"/><circle cx="680.0" cy="572.8" r="3.24" fill="#ecb478" opacity="0.32"/><circle cx="711.8" cy="570.7" r="2.09" fill="#ecb478" opacity="0.31"/><circle cx="749.8" cy="572.3" r="2.45" fill="#ecb478" opacity="0.33"/><circle cx="785.7" cy="570.4" r="3.47" fill="#ecb478" opacity="0.23"/><circle cx="824.5" cy="570.5" r="3.37" fill="#ecb478" opacity="0.18"/><circle cx="860.6" cy="567.5" r="2.42" fill="#ecb478" opacity="0.29"/><circle cx="892.4" cy="570.4" r="3.06" fill="#ecb478" opacity="0.30"/><circle cx="927.2" cy="571.3" r="2.95" fill="#ecb478" opacity="0.26"/><circle cx="965.5" cy="568.8" r="3.57" fill="#ecb478" opacity="0.18"/><circle cx="1003.5" cy="570.9" r="2.85" fill="#ecb478" opacity="0.23"/><circle cx="1035.6" cy="572.0" r="3.99" fill="#ecb478" opacity="0.29"/><circle cx="1076.5" cy="572.2" r="3.84" fill="#ecb478" opacity="0.17"/><circle cx="1107.9" cy="569.9" r="3.42" fill="#ecb478" opacity="0.25"/><circle cx="1143.3" cy="569.1" r="2.62" fill="#ecb478" opacity="0.19"/><circle cx="1179.3" cy="570.9" r="2.66" fill="#ecb478" opacity="0.17"/><circle cx="28.5" cy="606.7" r="1.79" fill="#ecb478" opacity="0.23"/><circle cx="63.3" cy="603.5" r="2.27" fill="#ecb478" opacity="0.34"/><circle cx="103.5" cy="605.4" r="1.94" fill="#ecb478" opacity="0.22"/><circle cx="139.2" cy="603.4" r="2.23" fill="#ecb478" opacity="0.20"/><circle cx="176.3" cy="603.6" r="2.73" fill="#ecb478" opacity="0.29"/><circle cx="207.5" cy="607.8" r="2.55" fill="#ecb478" opacity="0.15"/><circle cx="245.5" cy="604.5" r="3.70" fill="#ecb478" opacity="0.25"/><circle cx="283.1" cy="603.7" r="2.96" fill="#ecb478" opacity="0.28"/><circle cx="316.7" cy="606.6" r="3.94" fill="#ecb478" opacity="0.15"/><circle cx="355.8" cy="608.8" r="2.50" fill="#ecb478" opacity="0.18"/><circle cx="391.3" cy="604.8" r="1.93" fill="#ecb478" opacity="0.21"/><circle cx="423.5" cy="604.5" r="2.61" fill="#ecb478" opacity="0.30"/><circle cx="463.9" cy="603.9" r="1.71" fill="#ecb478" opacity="0.35"/><circle cx="495.0" cy="606.7" r="2.30" fill="#ecb478" opacity="0.30"/><circle cx="532.7" cy="604.6" r="2.33" fill="#ecb478" opacity="0.17"/><circle cx="567.0" cy="608.3" r="1.75" fill="#ecb478" opacity="0.16"/><circle cx="604.2" cy="607.5" r="2.23" fill="#ecb478" opacity="0.26"/><circle cx="641.4" cy="608.7" r="1.78" fill="#ecb478" opacity="0.21"/><circle cx="679.5" cy="608.8" r="1.86" fill="#ecb478" opacity="0.24"/><circle cx="715.5" cy="604.7" r="2.08" fill="#ecb478" opacity="0.19"/><circle cx="752.9" cy="608.0" r="1.89" fill="#ecb478" opacity="0.20"/><circle cx="783.4" cy="604.9" r="1.88" fill="#ecb478" opacity="0.24"/><circle cx="823.1" cy="604.1" r="3.94" fill="#ecb478" opacity="0.19"/><circle cx="860.4" cy="604.5" r="2.23" fill="#ecb478" opacity="0.30"/><circle cx="891.1" cy="607.8" r="3.29" fill="#ecb478" opacity="0.36"/><circle cx="931.3" cy="603.1" r="2.23" fill="#ecb478" opacity="0.28"/><circle cx="965.0" cy="605.1" r="3.55" fill="#ecb478" opacity="0.16"/><circle cx="1001.3" cy="607.0" r="3.11" fill="#ecb478" opacity="0.19"/><circle cx="1036.8" cy="607.7" r="2.94" fill="#ecb478" opacity="0.28"/><circle cx="1071.4" cy="608.5" r="2.06" fill="#ecb478" opacity="0.19"/><circle cx="1111.8" cy="607.2" r="2.58" fill="#ecb478" opacity="0.27"/><circle cx="1148.4" cy="606.5" r="2.93" fill="#ecb478" opacity="0.32"/><circle cx="1183.6" cy="606.1" r="1.98" fill="#ecb478" opacity="0.25"/><circle cx="30.3" cy="644.5" r="3.23" fill="#ecb478" opacity="0.32"/><circle cx="68.8" cy="643.2" r="3.62" fill="#ecb478" opacity="0.21"/><circle cx="100.7" cy="643.8" r="3.73" fill="#ecb478" opacity="0.32"/><circle cx="137.5" cy="642.0" r="2.97" fill="#ecb478" opacity="0.32"/><circle cx="176.5" cy="640.5" r="3.95" fill="#ecb478" opacity="0.25"/><circle cx="207.7" cy="641.5" r="3.32" fill="#ecb478" opacity="0.23"/><circle cx="243.7" cy="644.5" r="3.10" fill="#ecb478" opacity="0.20"/><circle cx="282.2" cy="640.5" r="1.87" fill="#ecb478" opacity="0.30"/><circle cx="316.0" cy="640.3" r="2.27" fill="#ecb478" opacity="0.31"/><circle cx="355.5" cy="639.5" r="3.17" fill="#ecb478" opacity="0.34"/><circle cx="388.0" cy="642.2" r="3.41" fill="#ecb478" opacity="0.25"/><circle cx="428.8" cy="641.8" r="2.45" fill="#ecb478" opacity="0.26"/><circle cx="464.1" cy="644.5" r="3.48" fill="#ecb478" opacity="0.34"/><circle cx="498.9" cy="642.0" r="2.77" fill="#ecb478" opacity="0.34"/><circle cx="536.2" cy="640.9" r="3.34" fill="#ecb478" opacity="0.31"/><circle cx="570.1" cy="642.8" r="2.73" fill="#ecb478" opacity="0.16"/><circle cx="604.2" cy="643.4" r="3.65" fill="#ecb478" opacity="0.24"/><circle cx="639.3" cy="640.1" r="2.31" fill="#ecb478" opacity="0.29"/><circle cx="679.7" cy="641.9" r="2.54" fill="#ecb478" opacity="0.27"/><circle cx="712.5" cy="640.4" r="2.73" fill="#ecb478" opacity="0.32"/><circle cx="750.0" cy="644.5" r="2.55" fill="#ecb478" opacity="0.34"/><circle cx="788.0" cy="641.7" r="2.21" fill="#ecb478" opacity="0.35"/><circle cx="824.4" cy="640.5" r="2.12" fill="#ecb478" opacity="0.23"/><circle cx="859.2" cy="642.1" r="3.51" fill="#ecb478" opacity="0.19"/><circle cx="893.4" cy="641.7" r="1.62" fill="#ecb478" opacity="0.27"/><circle cx="928.3" cy="642.4" r="3.29" fill="#ecb478" opacity="0.32"/><circle cx="966.4" cy="642.2" r="1.94" fill="#ecb478" opacity="0.30"/><circle cx="999.1" cy="639.1" r="3.14" fill="#ecb478" opacity="0.27"/><circle cx="1039.7" cy="640.0" r="1.63" fill="#ecb478" opacity="0.19"/><circle cx="1072.4" cy="641.6" r="3.75" fill="#ecb478" opacity="0.34"/><circle cx="1111.9" cy="640.5" r="1.90" fill="#ecb478" opacity="0.16"/><circle cx="1147.8" cy="643.8" r="3.83" fill="#ecb478" opacity="0.23"/><circle cx="1181.3" cy="643.9" r="3.48" fill="#ecb478" opacity="0.16"/><circle cx="268.9" cy="279.9" r="220" fill="url(#glow)" opacity="0.9"/>
  <g opacity="0.85" transform="translate(1020, 495)">
        <rect x="-46" y="-60" width="92" height="115" fill="#ecb478" opacity="0.18" rx="6"/>
        <path d="M -28 -36 L 28 -36 M -28 -12 L 28 -12 M -28 12 L 18 12 M -28 36 L 28 36" stroke="#faebd6" stroke-width="3" stroke-linecap="round"/>
      </g>
  <g transform="translate(80, 90)">
    <rect x="0" y="0" rx="20" ry="20" width="101" height="38" fill="#ecb478" opacity="0.18" stroke="#ecb478" stroke-width="1.5"/>
    <text x="50.5" y="25" font-family="ui-sans-serif, Inter, sans-serif" font-weight="700" font-size="14" letter-spacing="2.5" fill="#ecb478" text-anchor="middle">ARTICLE</text>
  </g>
  <text x="80" y="465" font-family="ui-sans-serif, -apple-system, Segoe UI, Inter, sans-serif" font-weight="800" font-size="44" fill="#faf8f5" opacity="0.98"><tspan x="80" dy="0">What Measures Does RBI</tspan><tspan x="80" dy="56">Recommend to Prevent Bank</tspan><tspan x="80" dy="56">Fraud?</tspan></text>
  <rect x="0" y="669" width="1200" height="6" fill="url(#gold)"/>
</svg>