<?xml version="1.0" encoding="UTF-8"?>
<svg xmlns="http://www.w3.org/2000/svg" viewBox="0 0 1200 675" width="1200" height="675" role="img" aria-label="What Measures Should Banks Take to Avoid RBI Penalties for Fraud?">
  <defs>
    <linearGradient id="bg" x1="0%" y1="0%" x2="100%" y2="100%">
      <stop offset="0%" stop-color="#532d15"/>
      <stop offset="100%" stop-color="#bd6b20"/>
    </linearGradient>
    <linearGradient id="gold" x1="0%" y1="0%" x2="100%" y2="100%">
      <stop offset="0%" stop-color="#e09440"/>
      <stop offset="100%" stop-color="#fdf6ee"/>
    </linearGradient>
    <radialGradient id="glow" cx="50%" cy="50%" r="50%">
      <stop offset="0%" stop-color="#e09440" stop-opacity="0.45"/>
      <stop offset="100%" stop-color="#e09440" stop-opacity="0"/>
    </radialGradient>
  </defs>
  <rect width="1200" height="675" fill="url(#bg)"/>
  <circle cx="30.1" cy="33.0" r="2.65" fill="#e09440" opacity="0.32"/><circle cx="63.0" cy="29.3" r="3.96" fill="#e09440" opacity="0.15"/><circle cx="103.1" cy="29.6" r="2.27" fill="#e09440" opacity="0.31"/><circle cx="140.5" cy="29.7" r="3.52" fill="#e09440" opacity="0.17"/><circle cx="175.5" cy="27.3" r="3.05" fill="#e09440" opacity="0.20"/><circle cx="208.6" cy="31.0" r="3.21" fill="#e09440" opacity="0.26"/><circle cx="247.0" cy="27.1" r="2.11" fill="#e09440" opacity="0.20"/><circle cx="284.1" cy="27.9" r="3.83" fill="#e09440" opacity="0.15"/><circle cx="320.7" cy="32.6" r="2.16" fill="#e09440" opacity="0.28"/><circle cx="352.9" cy="31.5" r="3.09" fill="#e09440" opacity="0.28"/><circle cx="388.6" cy="30.2" r="2.22" fill="#e09440" opacity="0.19"/><circle cx="427.6" cy="28.1" r="3.21" fill="#e09440" opacity="0.34"/><circle cx="464.9" cy="31.3" r="2.18" fill="#e09440" opacity="0.36"/><circle cx="499.5" cy="28.4" r="3.90" fill="#e09440" opacity="0.20"/><circle cx="535.8" cy="29.2" r="2.26" fill="#e09440" opacity="0.35"/><circle cx="569.9" cy="30.8" r="1.96" fill="#e09440" opacity="0.26"/><circle cx="603.2" cy="27.9" r="3.93" fill="#e09440" opacity="0.30"/><circle cx="641.6" cy="30.6" r="3.28" fill="#e09440" opacity="0.25"/><circle cx="676.1" cy="31.3" r="2.04" fill="#e09440" opacity="0.29"/><circle cx="717.0" cy="33.0" r="3.78" fill="#e09440" opacity="0.23"/><circle cx="752.0" cy="29.5" r="2.91" fill="#e09440" opacity="0.20"/><circle cx="785.9" cy="32.8" r="3.52" fill="#e09440" opacity="0.21"/><circle cx="820.0" cy="30.0" r="3.53" fill="#e09440" opacity="0.22"/><circle cx="859.6" cy="29.5" r="2.21" fill="#e09440" opacity="0.30"/><circle cx="896.7" cy="31.8" r="2.52" fill="#e09440" opacity="0.34"/><circle cx="929.9" cy="30.9" r="2.52" fill="#e09440" opacity="0.33"/><circle cx="963.7" cy="30.3" r="2.78" fill="#e09440" opacity="0.27"/><circle cx="1004.6" cy="27.1" r="2.84" fill="#e09440" opacity="0.18"/><circle cx="1040.9" cy="30.2" r="2.84" fill="#e09440" opacity="0.27"/><circle cx="1072.9" cy="29.5" r="2.91" fill="#e09440" opacity="0.24"/><circle cx="1112.5" cy="30.2" r="3.17" fill="#e09440" opacity="0.35"/><circle cx="1148.0" cy="32.8" r="2.67" fill="#e09440" opacity="0.17"/><circle cx="1180.1" cy="27.0" r="2.93" fill="#e09440" opacity="0.24"/><circle cx="31.8" cy="64.9" r="1.71" fill="#e09440" opacity="0.27"/><circle cx="64.9" cy="65.8" r="2.16" fill="#e09440" opacity="0.20"/><circle cx="103.2" cy="64.2" r="3.49" fill="#e09440" opacity="0.31"/><circle cx="139.3" cy="67.4" r="2.71" fill="#e09440" opacity="0.31"/><circle cx="174.5" cy="68.8" r="1.91" fill="#e09440" opacity="0.26"/><circle cx="207.4" cy="68.5" r="2.18" fill="#e09440" opacity="0.25"/><circle cx="247.3" cy="66.2" r="2.99" fill="#e09440" opacity="0.16"/><circle cx="282.4" cy="68.4" r="3.17" fill="#e09440" opacity="0.33"/><circle cx="319.8" cy="68.6" r="3.39" fill="#e09440" opacity="0.25"/><circle cx="356.6" cy="68.2" r="2.96" fill="#e09440" opacity="0.22"/><circle cx="390.4" cy="66.8" r="2.56" fill="#e09440" opacity="0.18"/><circle cx="423.9" cy="64.3" r="2.97" fill="#e09440" opacity="0.31"/><circle cx="463.4" cy="64.1" r="3.01" fill="#e09440" opacity="0.24"/><circle cx="495.8" cy="63.7" r="1.63" fill="#e09440" opacity="0.33"/><circle cx="532.3" cy="64.9" r="2.96" fill="#e09440" opacity="0.28"/><circle cx="570.9" cy="64.1" r="1.76" fill="#e09440" opacity="0.26"/><circle cx="607.0" cy="68.0" r="3.42" fill="#e09440" opacity="0.16"/><circle cx="640.7" cy="64.0" r="3.75" fill="#e09440" opacity="0.31"/><circle cx="677.4" cy="66.4" r="2.40" fill="#e09440" opacity="0.25"/><circle cx="713.7" cy="63.6" r="2.09" fill="#e09440" opacity="0.24"/><circle cx="750.0" cy="67.0" r="2.93" fill="#e09440" opacity="0.36"/><circle cx="785.1" cy="66.4" r="3.47" fill="#e09440" opacity="0.25"/><circle cx="821.5" cy="68.8" r="3.93" fill="#e09440" opacity="0.24"/><circle cx="860.6" cy="68.4" r="3.66" fill="#e09440" opacity="0.19"/><circle cx="895.8" cy="64.5" r="2.48" fill="#e09440" opacity="0.24"/><circle cx="931.8" cy="68.4" r="2.12" fill="#e09440" opacity="0.33"/><circle cx="967.6" cy="67.2" r="1.65" fill="#e09440" opacity="0.24"/><circle cx="999.6" cy="67.2" r="2.96" fill="#e09440" opacity="0.34"/><circle cx="1037.8" cy="67.4" r="1.73" fill="#e09440" opacity="0.24"/><circle cx="1071.8" cy="66.6" r="3.99" fill="#e09440" opacity="0.31"/><circle cx="1111.8" cy="68.9" r="3.14" fill="#e09440" opacity="0.25"/><circle cx="1147.3" cy="67.9" r="2.76" fill="#e09440" opacity="0.17"/><circle cx="1183.1" cy="66.8" r="2.97" fill="#e09440" opacity="0.31"/><circle cx="30.3" cy="100.7" r="2.94" fill="#e09440" opacity="0.22"/><circle cx="64.4" cy="104.6" r="1.98" fill="#e09440" opacity="0.24"/><circle cx="104.1" cy="103.9" r="2.64" fill="#e09440" opacity="0.32"/><circle cx="137.4" cy="105.0" r="2.72" fill="#e09440" opacity="0.30"/><circle cx="171.6" cy="100.0" r="2.59" fill="#e09440" opacity="0.32"/><circle cx="212.4" cy="100.0" r="2.97" fill="#e09440" opacity="0.23"/><circle cx="247.2" cy="99.7" r="3.80" fill="#e09440" opacity="0.24"/><circle cx="280.1" cy="101.2" r="2.14" fill="#e09440" opacity="0.23"/><circle cx="315.6" cy="104.3" r="3.28" fill="#e09440" opacity="0.21"/><circle cx="352.8" cy="103.8" r="1.93" fill="#e09440" opacity="0.32"/><circle cx="392.7" cy="99.3" r="2.62" fill="#e09440" opacity="0.30"/><circle cx="427.4" cy="103.7" r="2.82" fill="#e09440" opacity="0.23"/><circle cx="461.7" cy="102.7" r="2.31" fill="#e09440" opacity="0.19"/><circle cx="497.1" cy="101.4" r="3.36" fill="#e09440" opacity="0.28"/><circle cx="536.9" cy="102.4" r="2.30" fill="#e09440" opacity="0.32"/><circle cx="571.4" cy="104.5" r="3.22" fill="#e09440" opacity="0.33"/><circle cx="603.6" cy="100.7" r="3.80" fill="#e09440" opacity="0.27"/><circle cx="640.0" cy="101.8" r="3.36" fill="#e09440" opacity="0.16"/><circle cx="675.1" cy="99.2" r="3.47" fill="#e09440" opacity="0.17"/><circle cx="715.0" cy="100.2" r="2.47" fill="#e09440" opacity="0.32"/><circle cx="748.6" cy="101.5" r="2.56" fill="#e09440" opacity="0.23"/><circle cx="788.3" cy="100.6" r="2.69" fill="#e09440" opacity="0.33"/><circle cx="821.4" cy="100.6" r="2.61" fill="#e09440" opacity="0.33"/><circle cx="857.8" cy="99.1" r="1.94" fill="#e09440" opacity="0.21"/><circle cx="893.7" cy="100.8" r="3.50" fill="#e09440" opacity="0.23"/><circle cx="931.9" cy="100.7" r="1.89" fill="#e09440" opacity="0.35"/><circle cx="968.6" cy="103.0" r="2.06" fill="#e09440" opacity="0.17"/><circle cx="1001.4" cy="101.5" r="3.50" fill="#e09440" opacity="0.22"/><circle cx="1036.2" cy="100.3" r="2.59" fill="#e09440" opacity="0.26"/><circle cx="1075.9" cy="101.9" r="3.01" fill="#e09440" opacity="0.30"/><circle cx="1112.3" cy="101.6" r="2.43" fill="#e09440" opacity="0.32"/><circle cx="1143.8" cy="102.5" r="2.53" fill="#e09440" opacity="0.32"/><circle cx="1184.6" cy="104.3" r="3.08" fill="#e09440" opacity="0.26"/><circle cx="27.8" cy="135.8" r="2.10" fill="#e09440" opacity="0.26"/><circle cx="66.5" cy="138.5" r="2.10" fill="#e09440" opacity="0.17"/><circle cx="99.3" cy="136.3" r="2.16" fill="#e09440" opacity="0.18"/><circle cx="136.7" cy="137.1" r="3.06" fill="#e09440" opacity="0.35"/><circle cx="173.1" cy="141.0" r="3.91" fill="#e09440" opacity="0.26"/><circle cx="207.7" cy="139.9" r="2.90" fill="#e09440" opacity="0.36"/><circle cx="244.3" cy="139.5" r="1.75" fill="#e09440" opacity="0.20"/><circle cx="279.2" cy="138.4" r="2.57" fill="#e09440" opacity="0.24"/><circle cx="318.1" cy="136.8" r="2.93" fill="#e09440" opacity="0.36"/><circle cx="355.9" cy="137.5" r="2.46" fill="#e09440" opacity="0.34"/><circle cx="389.0" cy="135.0" r="2.63" fill="#e09440" opacity="0.28"/><circle cx="427.9" cy="135.8" r="1.88" fill="#e09440" opacity="0.21"/><circle cx="461.5" cy="138.8" r="2.27" fill="#e09440" opacity="0.26"/><circle cx="497.2" cy="139.1" r="3.92" fill="#e09440" opacity="0.34"/><circle cx="533.5" cy="138.7" r="3.78" fill="#e09440" opacity="0.34"/><circle cx="572.7" cy="141.0" r="3.08" fill="#e09440" opacity="0.16"/><circle cx="606.3" cy="138.0" r="3.90" fill="#e09440" opacity="0.35"/><circle cx="641.6" cy="137.5" r="1.95" fill="#e09440" opacity="0.35"/><circle cx="678.7" cy="141.0" r="3.49" fill="#e09440" opacity="0.27"/><circle cx="715.1" cy="136.1" r="2.87" fill="#e09440" opacity="0.17"/><circle cx="750.7" cy="139.2" r="2.32" fill="#e09440" opacity="0.15"/><circle cx="787.3" cy="137.3" r="1.85" fill="#e09440" opacity="0.26"/><circle cx="819.7" cy="137.6" r="3.98" fill="#e09440" opacity="0.29"/><circle cx="858.3" cy="136.5" r="3.63" fill="#e09440" opacity="0.26"/><circle cx="893.5" cy="138.8" r="1.64" fill="#e09440" opacity="0.19"/><circle cx="928.9" cy="140.2" r="2.40" fill="#e09440" opacity="0.28"/><circle cx="965.1" cy="138.4" r="2.19" fill="#e09440" opacity="0.20"/><circle cx="1002.9" cy="140.1" r="3.05" fill="#e09440" opacity="0.36"/><circle cx="1039.7" cy="139.4" r="3.25" fill="#e09440" opacity="0.17"/><circle cx="1072.6" cy="137.2" r="2.31" fill="#e09440" opacity="0.29"/><circle cx="1110.1" cy="136.9" r="2.63" fill="#e09440" opacity="0.20"/><circle cx="1146.4" cy="138.8" r="3.25" fill="#e09440" opacity="0.28"/><circle cx="1180.3" cy="135.7" r="3.73" fill="#e09440" opacity="0.28"/><circle cx="28.7" cy="175.3" r="3.00" fill="#e09440" opacity="0.28"/><circle cx="63.3" cy="171.5" r="3.50" fill="#e09440" opacity="0.28"/><circle cx="102.7" cy="176.9" r="1.80" fill="#e09440" opacity="0.18"/><circle cx="138.5" cy="174.1" r="2.82" fill="#e09440" opacity="0.24"/><circle cx="174.1" cy="174.6" r="2.92" fill="#e09440" opacity="0.24"/><circle cx="212.1" cy="176.2" r="3.23" fill="#e09440" opacity="0.28"/><circle cx="245.3" cy="174.6" r="2.33" fill="#e09440" opacity="0.16"/><circle cx="281.7" cy="175.2" r="2.24" fill="#e09440" opacity="0.35"/><circle cx="318.9" cy="171.2" r="3.35" fill="#e09440" opacity="0.21"/><circle cx="356.7" cy="171.9" r="2.24" fill="#e09440" opacity="0.26"/><circle cx="389.5" cy="176.5" r="3.99" fill="#e09440" opacity="0.22"/><circle cx="424.6" cy="171.6" r="2.37" fill="#e09440" opacity="0.23"/><circle cx="464.0" cy="176.7" r="2.14" fill="#e09440" opacity="0.32"/><circle cx="498.2" cy="171.5" r="3.28" fill="#e09440" opacity="0.18"/><circle cx="533.8" cy="172.4" r="3.54" fill="#e09440" opacity="0.17"/><circle cx="571.1" cy="173.3" r="2.07" fill="#e09440" opacity="0.25"/><circle cx="603.2" cy="174.9" r="2.94" fill="#e09440" opacity="0.29"/><circle cx="639.2" cy="171.4" r="3.73" fill="#e09440" opacity="0.27"/><circle cx="677.1" cy="173.5" r="3.73" fill="#e09440" opacity="0.30"/><circle cx="713.5" cy="172.4" r="2.30" fill="#e09440" opacity="0.33"/><circle cx="748.9" cy="176.2" r="3.01" fill="#e09440" opacity="0.18"/><circle cx="786.4" cy="172.1" r="3.91" fill="#e09440" opacity="0.16"/><circle cx="822.6" cy="175.3" r="2.35" fill="#e09440" opacity="0.31"/><circle cx="856.0" cy="175.1" r="2.32" fill="#e09440" opacity="0.24"/><circle cx="893.8" cy="172.8" r="3.40" fill="#e09440" opacity="0.35"/><circle cx="927.3" cy="176.7" r="2.13" fill="#e09440" opacity="0.22"/><circle cx="968.6" cy="173.4" r="2.39" fill="#e09440" opacity="0.34"/><circle cx="999.2" cy="174.3" r="3.65" fill="#e09440" opacity="0.33"/><circle cx="1036.5" cy="174.3" r="3.77" fill="#e09440" opacity="0.22"/><circle cx="1073.7" cy="171.3" r="2.92" fill="#e09440" opacity="0.17"/><circle cx="1107.6" cy="174.3" r="2.18" fill="#e09440" opacity="0.35"/><circle cx="1144.2" cy="173.6" r="2.11" fill="#e09440" opacity="0.23"/><circle cx="1180.4" cy="173.4" r="3.88" fill="#e09440" opacity="0.20"/><circle cx="29.8" cy="208.3" r="2.54" fill="#e09440" opacity="0.28"/><circle cx="68.2" cy="208.7" r="2.67" fill="#e09440" opacity="0.19"/><circle cx="103.4" cy="210.5" r="1.82" fill="#e09440" opacity="0.16"/><circle cx="138.3" cy="207.7" r="3.02" fill="#e09440" opacity="0.29"/><circle cx="174.2" cy="208.6" r="3.45" fill="#e09440" opacity="0.22"/><circle cx="211.2" cy="210.8" r="2.60" fill="#e09440" opacity="0.18"/><circle cx="246.1" cy="209.7" r="2.55" fill="#e09440" opacity="0.30"/><circle cx="281.2" cy="210.7" r="3.56" fill="#e09440" opacity="0.16"/><circle cx="317.4" cy="212.7" r="2.71" fill="#e09440" opacity="0.26"/><circle cx="356.5" cy="207.9" r="3.13" fill="#e09440" opacity="0.19"/><circle cx="391.9" cy="211.8" r="3.96" fill="#e09440" opacity="0.30"/><circle cx="426.5" cy="209.1" r="2.04" fill="#e09440" opacity="0.35"/><circle cx="461.4" cy="209.8" r="3.45" fill="#e09440" opacity="0.27"/><circle cx="495.9" cy="212.2" r="2.79" fill="#e09440" opacity="0.23"/><circle cx="532.6" cy="210.0" r="2.59" fill="#e09440" opacity="0.36"/><circle cx="571.0" cy="209.5" r="3.43" fill="#e09440" opacity="0.23"/><circle cx="604.2" cy="208.7" r="3.03" fill="#e09440" opacity="0.32"/><circle cx="640.2" cy="211.6" r="3.15" fill="#e09440" opacity="0.19"/><circle cx="677.2" cy="212.7" r="2.72" fill="#e09440" opacity="0.34"/><circle cx="711.9" cy="211.0" r="3.17" fill="#e09440" opacity="0.30"/><circle cx="748.5" cy="207.7" r="3.71" fill="#e09440" opacity="0.25"/><circle cx="783.1" cy="212.7" r="3.40" fill="#e09440" opacity="0.25"/><circle cx="823.0" cy="210.1" r="2.44" fill="#e09440" opacity="0.30"/><circle cx="856.3" cy="208.7" r="3.77" fill="#e09440" opacity="0.33"/><circle cx="894.4" cy="211.2" r="2.57" fill="#e09440" opacity="0.35"/><circle cx="928.1" cy="208.8" r="1.78" fill="#e09440" opacity="0.24"/><circle cx="964.6" cy="207.1" r="3.32" fill="#e09440" opacity="0.29"/><circle cx="1003.5" cy="207.9" r="3.50" fill="#e09440" opacity="0.32"/><circle cx="1035.5" cy="207.1" r="3.49" fill="#e09440" opacity="0.21"/><circle cx="1075.8" cy="209.7" r="3.67" fill="#e09440" opacity="0.32"/><circle cx="1112.0" cy="212.5" r="1.63" fill="#e09440" opacity="0.31"/><circle cx="1147.2" cy="207.7" r="1.91" fill="#e09440" opacity="0.16"/><circle cx="1179.5" cy="208.0" r="3.19" fill="#e09440" opacity="0.35"/><circle cx="32.1" cy="245.1" r="3.60" fill="#e09440" opacity="0.16"/><circle cx="63.1" cy="243.8" r="3.87" fill="#e09440" opacity="0.17"/><circle cx="101.0" cy="245.7" r="1.92" fill="#e09440" opacity="0.19"/><circle cx="140.1" cy="248.6" r="1.90" fill="#e09440" opacity="0.34"/><circle cx="171.6" cy="247.9" r="2.64" fill="#e09440" opacity="0.29"/><circle cx="209.7" cy="247.5" r="2.73" fill="#e09440" opacity="0.17"/><circle cx="243.6" cy="244.9" r="2.35" fill="#e09440" opacity="0.26"/><circle cx="280.4" cy="244.6" r="2.70" fill="#e09440" opacity="0.18"/><circle cx="315.1" cy="247.0" r="3.78" fill="#e09440" opacity="0.23"/><circle cx="356.0" cy="246.8" r="2.75" fill="#e09440" opacity="0.30"/><circle cx="387.4" cy="244.3" r="2.59" fill="#e09440" opacity="0.28"/><circle cx="428.3" cy="243.2" r="2.31" fill="#e09440" opacity="0.22"/><circle cx="464.8" cy="247.0" r="2.88" fill="#e09440" opacity="0.34"/><circle cx="498.7" cy="248.5" r="1.81" fill="#e09440" opacity="0.20"/><circle cx="533.4" cy="246.7" r="3.36" fill="#e09440" opacity="0.30"/><circle cx="568.9" cy="247.4" r="1.77" fill="#e09440" opacity="0.23"/><circle cx="604.1" cy="245.0" r="2.40" fill="#e09440" opacity="0.18"/><circle cx="642.3" cy="246.1" r="3.40" fill="#e09440" opacity="0.15"/><circle cx="679.7" cy="246.0" r="3.17" fill="#e09440" opacity="0.16"/><circle cx="715.9" cy="243.8" r="1.99" fill="#e09440" opacity="0.23"/><circle cx="748.5" cy="247.5" r="2.39" fill="#e09440" opacity="0.32"/><circle cx="786.5" cy="243.9" r="2.83" fill="#e09440" opacity="0.20"/><circle cx="821.8" cy="244.6" r="2.49" fill="#e09440" opacity="0.18"/><circle cx="860.7" cy="245.9" r="2.05" fill="#e09440" opacity="0.22"/><circle cx="894.5" cy="244.5" r="2.38" fill="#e09440" opacity="0.21"/><circle cx="931.0" cy="244.1" r="1.97" fill="#e09440" opacity="0.35"/><circle cx="968.0" cy="248.3" r="2.34" fill="#e09440" opacity="0.28"/><circle cx="1003.6" cy="247.4" r="1.66" fill="#e09440" opacity="0.19"/><circle cx="1035.9" cy="246.7" r="3.56" fill="#e09440" opacity="0.33"/><circle cx="1072.4" cy="243.8" r="2.13" fill="#e09440" opacity="0.23"/><circle cx="1110.9" cy="248.9" r="2.56" fill="#e09440" opacity="0.19"/><circle cx="1144.5" cy="247.6" r="3.90" fill="#e09440" opacity="0.16"/><circle cx="1180.7" cy="246.1" r="3.79" fill="#e09440" opacity="0.36"/><circle cx="30.8" cy="280.8" r="2.96" fill="#e09440" opacity="0.21"/><circle cx="64.7" cy="279.8" r="3.27" fill="#e09440" opacity="0.32"/><circle cx="99.1" cy="283.6" r="1.89" fill="#e09440" opacity="0.26"/><circle cx="135.5" cy="280.6" r="2.24" fill="#e09440" opacity="0.23"/><circle cx="172.1" cy="282.8" r="2.62" fill="#e09440" opacity="0.33"/><circle cx="209.7" cy="284.5" r="2.49" fill="#e09440" opacity="0.21"/><circle cx="244.9" cy="281.2" r="2.64" fill="#e09440" opacity="0.20"/><circle cx="284.9" cy="279.9" r="2.74" fill="#e09440" opacity="0.27"/><circle cx="317.1" cy="280.6" r="3.72" fill="#e09440" opacity="0.35"/><circle cx="355.7" cy="280.1" r="3.04" fill="#e09440" opacity="0.20"/><circle cx="392.9" cy="280.7" r="1.75" fill="#e09440" opacity="0.23"/><circle cx="428.4" cy="284.8" r="3.22" fill="#e09440" opacity="0.28"/><circle cx="460.5" cy="283.4" r="2.87" fill="#e09440" opacity="0.22"/><circle cx="495.9" cy="282.2" r="3.49" fill="#e09440" opacity="0.33"/><circle cx="532.8" cy="279.7" r="2.86" fill="#e09440" opacity="0.34"/><circle cx="571.6" cy="281.1" r="3.26" fill="#e09440" opacity="0.22"/><circle cx="605.4" cy="282.3" r="1.77" fill="#e09440" opacity="0.33"/><circle cx="642.6" cy="280.6" r="2.38" fill="#e09440" opacity="0.24"/><circle cx="678.2" cy="280.7" r="2.65" fill="#e09440" opacity="0.20"/><circle cx="712.5" cy="279.8" r="3.27" fill="#e09440" opacity="0.25"/><circle cx="747.2" cy="282.3" r="3.51" fill="#e09440" opacity="0.31"/><circle cx="788.0" cy="283.0" r="2.60" fill="#e09440" opacity="0.18"/><circle cx="821.9" cy="280.7" r="2.18" fill="#e09440" opacity="0.22"/><circle cx="859.3" cy="282.4" r="3.10" fill="#e09440" opacity="0.26"/><circle cx="893.1" cy="282.9" r="2.77" fill="#e09440" opacity="0.28"/><circle cx="931.9" cy="282.6" r="2.27" fill="#e09440" opacity="0.21"/><circle cx="965.5" cy="280.3" r="3.49" fill="#e09440" opacity="0.26"/><circle cx="1003.8" cy="283.4" r="1.85" fill="#e09440" opacity="0.29"/><circle cx="1038.4" cy="282.8" r="1.80" fill="#e09440" opacity="0.16"/><circle cx="1071.4" cy="283.1" r="3.94" fill="#e09440" opacity="0.28"/><circle cx="1109.0" cy="283.8" r="2.51" fill="#e09440" opacity="0.36"/><circle cx="1147.8" cy="284.6" r="2.02" fill="#e09440" opacity="0.32"/><circle cx="1183.7" cy="284.6" r="2.48" fill="#e09440" opacity="0.31"/><circle cx="30.6" cy="316.0" r="3.12" fill="#e09440" opacity="0.18"/><circle cx="68.1" cy="319.6" r="2.16" fill="#e09440" opacity="0.21"/><circle cx="101.8" cy="315.7" r="3.27" fill="#e09440" opacity="0.21"/><circle cx="135.9" cy="316.2" r="3.29" fill="#e09440" opacity="0.29"/><circle cx="174.7" cy="319.5" r="2.83" fill="#e09440" opacity="0.33"/><circle cx="208.5" cy="318.5" r="3.28" fill="#e09440" opacity="0.26"/><circle cx="245.7" cy="317.5" r="2.67" fill="#e09440" opacity="0.19"/><circle cx="279.8" cy="316.3" r="2.80" fill="#e09440" opacity="0.20"/><circle cx="316.9" cy="315.8" r="2.80" fill="#e09440" opacity="0.24"/><circle cx="353.9" cy="315.5" r="3.96" fill="#e09440" opacity="0.28"/><circle cx="387.5" cy="317.6" r="3.92" fill="#e09440" opacity="0.30"/><circle cx="427.1" cy="320.1" r="2.98" fill="#e09440" opacity="0.22"/><circle cx="464.8" cy="320.9" r="3.01" fill="#e09440" opacity="0.33"/><circle cx="495.5" cy="318.7" r="1.98" fill="#e09440" opacity="0.16"/><circle cx="536.0" cy="316.4" r="3.23" fill="#e09440" opacity="0.27"/><circle cx="568.8" cy="318.4" r="2.61" fill="#e09440" opacity="0.24"/><circle cx="606.8" cy="315.8" r="1.64" fill="#e09440" opacity="0.17"/><circle cx="640.5" cy="317.9" r="2.44" fill="#e09440" opacity="0.15"/><circle cx="675.1" cy="319.0" r="1.62" fill="#e09440" opacity="0.26"/><circle cx="714.5" cy="317.8" r="1.86" fill="#e09440" opacity="0.23"/><circle cx="750.7" cy="317.4" r="2.47" fill="#e09440" opacity="0.32"/><circle cx="785.1" cy="316.8" r="3.74" fill="#e09440" opacity="0.27"/><circle cx="821.9" cy="316.1" r="1.81" fill="#e09440" opacity="0.24"/><circle cx="857.8" cy="315.3" r="2.07" fill="#e09440" opacity="0.32"/><circle cx="892.5" cy="316.8" r="2.74" fill="#e09440" opacity="0.26"/><circle cx="931.8" cy="317.4" r="3.54" fill="#e09440" opacity="0.26"/><circle cx="964.6" cy="319.8" r="2.52" fill="#e09440" opacity="0.22"/><circle cx="1005.0" cy="319.7" r="3.94" fill="#e09440" opacity="0.35"/><circle cx="1040.7" cy="317.0" r="3.85" fill="#e09440" opacity="0.31"/><circle cx="1074.4" cy="317.7" r="2.06" fill="#e09440" opacity="0.28"/><circle cx="1111.1" cy="317.3" r="2.25" fill="#e09440" opacity="0.17"/><circle cx="1143.8" cy="319.5" r="1.74" fill="#e09440" opacity="0.17"/><circle cx="1179.4" cy="319.4" r="2.19" fill="#e09440" opacity="0.22"/><circle cx="32.4" cy="351.9" r="1.68" fill="#e09440" opacity="0.34"/><circle cx="65.8" cy="354.7" r="2.30" fill="#e09440" opacity="0.18"/><circle cx="102.0" cy="354.3" r="2.88" fill="#e09440" opacity="0.33"/><circle cx="138.9" cy="353.4" r="3.60" fill="#e09440" opacity="0.31"/><circle cx="174.0" cy="354.0" r="2.45" fill="#e09440" opacity="0.16"/><circle cx="207.2" cy="354.9" r="2.21" fill="#e09440" opacity="0.20"/><circle cx="245.8" cy="353.1" r="2.85" fill="#e09440" opacity="0.18"/><circle cx="280.1" cy="356.9" r="3.14" fill="#e09440" opacity="0.34"/><circle cx="317.4" cy="356.6" r="2.57" fill="#e09440" opacity="0.20"/><circle cx="351.7" cy="352.4" r="2.48" fill="#e09440" opacity="0.28"/><circle cx="388.9" cy="354.2" r="2.46" fill="#e09440" opacity="0.23"/><circle cx="423.3" cy="355.8" r="2.65" fill="#e09440" opacity="0.34"/><circle cx="463.8" cy="352.9" r="3.33" fill="#e09440" opacity="0.34"/><circle cx="496.2" cy="351.3" r="1.91" fill="#e09440" opacity="0.29"/><circle cx="533.1" cy="352.4" r="2.59" fill="#e09440" opacity="0.23"/><circle cx="568.3" cy="351.6" r="1.89" fill="#e09440" opacity="0.35"/><circle cx="608.9" cy="352.1" r="1.97" fill="#e09440" opacity="0.30"/><circle cx="644.3" cy="351.8" r="2.74" fill="#e09440" opacity="0.29"/><circle cx="677.8" cy="354.7" r="2.04" fill="#e09440" opacity="0.30"/><circle cx="716.9" cy="354.5" r="3.93" fill="#e09440" opacity="0.25"/><circle cx="749.3" cy="351.7" r="3.48" fill="#e09440" opacity="0.18"/><circle cx="783.7" cy="352.6" r="2.92" fill="#e09440" opacity="0.30"/><circle cx="820.6" cy="352.3" r="1.71" fill="#e09440" opacity="0.18"/><circle cx="857.1" cy="356.7" r="3.94" fill="#e09440" opacity="0.17"/><circle cx="895.1" cy="352.1" r="3.53" fill="#e09440" opacity="0.18"/><circle cx="932.7" cy="351.6" r="1.74" fill="#e09440" opacity="0.16"/><circle cx="964.3" cy="355.5" r="2.44" fill="#e09440" opacity="0.18"/><circle cx="1001.6" cy="353.6" r="2.67" fill="#e09440" opacity="0.19"/><circle cx="1036.5" cy="356.4" r="2.64" fill="#e09440" opacity="0.15"/><circle cx="1071.4" cy="352.5" r="2.07" fill="#e09440" opacity="0.29"/><circle cx="1112.0" cy="351.2" r="2.53" fill="#e09440" opacity="0.18"/><circle cx="1148.1" cy="354.9" r="2.67" fill="#e09440" opacity="0.24"/><circle cx="1179.7" cy="355.4" r="3.97" fill="#e09440" opacity="0.31"/><circle cx="29.5" cy="388.3" r="3.03" fill="#e09440" opacity="0.21"/><circle cx="65.5" cy="391.5" r="2.03" fill="#e09440" opacity="0.25"/><circle cx="99.5" cy="390.0" r="2.23" fill="#e09440" opacity="0.28"/><circle cx="135.7" cy="388.1" r="3.04" fill="#e09440" opacity="0.29"/><circle cx="176.6" cy="387.5" r="1.86" fill="#e09440" opacity="0.16"/><circle cx="212.1" cy="388.6" r="1.70" fill="#e09440" opacity="0.25"/><circle cx="245.6" cy="387.1" r="3.18" fill="#e09440" opacity="0.31"/><circle cx="279.4" cy="391.6" r="3.18" fill="#e09440" opacity="0.25"/><circle cx="318.7" cy="392.4" r="3.56" fill="#e09440" opacity="0.21"/><circle cx="351.1" cy="391.7" r="3.94" fill="#e09440" opacity="0.26"/><circle cx="389.9" cy="390.6" r="3.84" fill="#e09440" opacity="0.30"/><circle cx="425.1" cy="392.1" r="2.19" fill="#e09440" opacity="0.17"/><circle cx="461.9" cy="390.2" r="3.93" fill="#e09440" opacity="0.31"/><circle cx="498.9" cy="387.1" r="2.06" fill="#e09440" opacity="0.26"/><circle cx="532.8" cy="391.8" r="2.86" fill="#e09440" opacity="0.19"/><circle cx="571.7" cy="387.4" r="1.75" fill="#e09440" opacity="0.22"/><circle cx="607.2" cy="388.7" r="3.48" fill="#e09440" opacity="0.28"/><circle cx="643.9" cy="388.4" r="1.67" fill="#e09440" opacity="0.33"/><circle cx="677.2" cy="389.7" r="3.12" fill="#e09440" opacity="0.26"/><circle cx="711.2" cy="391.5" r="1.86" fill="#e09440" opacity="0.29"/><circle cx="751.5" cy="387.7" r="2.97" fill="#e09440" opacity="0.26"/><circle cx="785.4" cy="392.1" r="3.90" fill="#e09440" opacity="0.18"/><circle cx="819.7" cy="390.4" r="3.90" fill="#e09440" opacity="0.20"/><circle cx="855.2" cy="390.3" r="2.29" fill="#e09440" opacity="0.27"/><circle cx="892.8" cy="390.4" r="3.93" fill="#e09440" opacity="0.31"/><circle cx="931.5" cy="392.7" r="2.97" fill="#e09440" opacity="0.25"/><circle cx="968.8" cy="390.4" r="1.72" fill="#e09440" opacity="0.15"/><circle cx="1002.1" cy="389.6" r="3.14" fill="#e09440" opacity="0.29"/><circle cx="1038.5" cy="388.9" r="3.62" fill="#e09440" opacity="0.30"/><circle cx="1073.6" cy="387.0" r="2.62" fill="#e09440" opacity="0.20"/><circle cx="1110.1" cy="391.2" r="2.60" fill="#e09440" opacity="0.31"/><circle cx="1144.0" cy="391.2" r="3.59" fill="#e09440" opacity="0.23"/><circle cx="1182.3" cy="388.9" r="3.04" fill="#e09440" opacity="0.35"/><circle cx="29.6" cy="427.2" r="3.27" fill="#e09440" opacity="0.25"/><circle cx="67.8" cy="427.2" r="3.54" fill="#e09440" opacity="0.20"/><circle cx="100.9" cy="423.1" r="2.78" fill="#e09440" opacity="0.31"/><circle cx="135.0" cy="428.3" r="2.06" fill="#e09440" opacity="0.15"/><circle cx="176.2" cy="425.2" r="3.58" fill="#e09440" opacity="0.36"/><circle cx="210.3" cy="427.3" r="2.88" fill="#e09440" opacity="0.29"/><circle cx="246.0" cy="426.3" r="3.65" fill="#e09440" opacity="0.19"/><circle cx="283.2" cy="424.8" r="2.68" fill="#e09440" opacity="0.16"/><circle cx="317.7" cy="427.5" r="2.68" fill="#e09440" opacity="0.26"/><circle cx="352.4" cy="423.8" r="1.81" fill="#e09440" opacity="0.16"/><circle cx="388.5" cy="423.9" r="2.42" fill="#e09440" opacity="0.23"/><circle cx="425.1" cy="425.6" r="2.09" fill="#e09440" opacity="0.34"/><circle cx="461.2" cy="423.8" r="3.05" fill="#e09440" opacity="0.20"/><circle cx="500.2" cy="428.1" r="3.74" fill="#e09440" opacity="0.35"/><circle cx="536.7" cy="428.8" r="2.79" fill="#e09440" opacity="0.20"/><circle cx="569.3" cy="427.0" r="1.94" fill="#e09440" opacity="0.32"/><circle cx="606.0" cy="428.0" r="3.19" fill="#e09440" opacity="0.34"/><circle cx="642.0" cy="426.9" r="1.72" fill="#e09440" opacity="0.15"/><circle cx="678.7" cy="427.4" r="2.45" fill="#e09440" opacity="0.26"/><circle cx="711.1" cy="428.4" r="2.32" fill="#e09440" opacity="0.29"/><circle cx="747.2" cy="426.6" r="3.52" fill="#e09440" opacity="0.35"/><circle cx="785.0" cy="427.3" r="2.96" fill="#e09440" opacity="0.22"/><circle cx="821.8" cy="425.7" r="3.54" fill="#e09440" opacity="0.25"/><circle cx="858.0" cy="425.4" r="3.38" fill="#e09440" opacity="0.25"/><circle cx="895.0" cy="428.0" r="2.99" fill="#e09440" opacity="0.31"/><circle cx="931.6" cy="425.5" r="2.39" fill="#e09440" opacity="0.23"/><circle cx="966.4" cy="424.9" r="2.72" fill="#e09440" opacity="0.27"/><circle cx="1000.5" cy="427.9" r="3.52" fill="#e09440" opacity="0.25"/><circle cx="1038.7" cy="424.0" r="2.30" fill="#e09440" opacity="0.32"/><circle cx="1075.7" cy="426.4" r="1.66" fill="#e09440" opacity="0.27"/><circle cx="1107.0" cy="428.0" r="3.97" fill="#e09440" opacity="0.17"/><circle cx="1147.9" cy="424.9" r="1.97" fill="#e09440" opacity="0.31"/><circle cx="1181.4" cy="425.7" r="2.35" fill="#e09440" opacity="0.29"/><circle cx="29.7" cy="461.3" r="3.32" fill="#e09440" opacity="0.29"/><circle cx="65.9" cy="460.4" r="3.11" fill="#e09440" opacity="0.22"/><circle cx="101.0" cy="462.0" r="3.73" fill="#e09440" opacity="0.31"/><circle cx="140.7" cy="462.0" r="3.84" fill="#e09440" opacity="0.30"/><circle cx="171.0" cy="461.6" r="2.14" fill="#e09440" opacity="0.28"/><circle cx="208.2" cy="459.9" r="2.55" fill="#e09440" opacity="0.24"/><circle cx="243.3" cy="461.1" r="2.88" fill="#e09440" opacity="0.33"/><circle cx="281.1" cy="461.4" r="3.17" fill="#e09440" opacity="0.24"/><circle cx="316.2" cy="464.0" r="3.63" fill="#e09440" opacity="0.32"/><circle cx="351.8" cy="461.4" r="3.56" fill="#e09440" opacity="0.24"/><circle cx="392.9" cy="460.4" r="2.81" fill="#e09440" opacity="0.16"/><circle cx="423.6" cy="464.8" r="2.95" fill="#e09440" opacity="0.30"/><circle cx="462.2" cy="464.7" r="3.53" fill="#e09440" opacity="0.32"/><circle cx="497.0" cy="459.1" r="2.47" fill="#e09440" opacity="0.22"/><circle cx="532.7" cy="461.7" r="3.00" fill="#e09440" opacity="0.34"/><circle cx="567.7" cy="465.0" r="2.80" fill="#e09440" opacity="0.28"/><circle cx="607.1" cy="462.3" r="3.53" fill="#e09440" opacity="0.33"/><circle cx="643.8" cy="462.2" r="3.36" fill="#e09440" opacity="0.20"/><circle cx="680.1" cy="461.0" r="2.65" fill="#e09440" opacity="0.16"/><circle cx="713.9" cy="463.1" r="2.54" fill="#e09440" opacity="0.28"/><circle cx="747.0" cy="460.7" r="3.19" fill="#e09440" opacity="0.30"/><circle cx="787.2" cy="464.3" r="3.55" fill="#e09440" opacity="0.20"/><circle cx="820.1" cy="460.6" r="3.15" fill="#e09440" opacity="0.16"/><circle cx="858.1" cy="461.8" r="1.98" fill="#e09440" opacity="0.31"/><circle cx="895.1" cy="461.1" r="1.85" fill="#e09440" opacity="0.32"/><circle cx="932.2" cy="464.9" r="3.34" fill="#e09440" opacity="0.18"/><circle cx="966.0" cy="464.2" r="1.76" fill="#e09440" opacity="0.17"/><circle cx="1004.5" cy="464.1" r="2.33" fill="#e09440" opacity="0.15"/><circle cx="1039.7" cy="460.3" r="2.14" fill="#e09440" opacity="0.34"/><circle cx="1075.0" cy="460.1" r="2.10" fill="#e09440" opacity="0.28"/><circle cx="1108.6" cy="460.2" r="3.21" fill="#e09440" opacity="0.23"/><circle cx="1144.4" cy="465.0" r="2.43" fill="#e09440" opacity="0.31"/><circle cx="1181.3" cy="464.5" r="2.02" fill="#e09440" opacity="0.20"/><circle cx="30.7" cy="496.1" r="3.49" fill="#e09440" opacity="0.34"/><circle cx="63.3" cy="498.7" r="3.60" fill="#e09440" opacity="0.24"/><circle cx="103.3" cy="497.4" r="3.50" fill="#e09440" opacity="0.35"/><circle cx="140.9" cy="497.2" r="2.38" fill="#e09440" opacity="0.26"/><circle cx="176.9" cy="500.0" r="2.15" fill="#e09440" opacity="0.24"/><circle cx="208.0" cy="496.8" r="2.51" fill="#e09440" opacity="0.36"/><circle cx="244.0" cy="500.9" r="3.02" fill="#e09440" opacity="0.26"/><circle cx="280.7" cy="500.5" r="3.79" fill="#e09440" opacity="0.32"/><circle cx="320.0" cy="498.7" r="1.93" fill="#e09440" opacity="0.27"/><circle cx="353.4" cy="495.5" r="3.20" fill="#e09440" opacity="0.32"/><circle cx="392.7" cy="499.9" r="3.59" fill="#e09440" opacity="0.20"/><circle cx="426.6" cy="499.6" r="2.14" fill="#e09440" opacity="0.34"/><circle cx="464.2" cy="497.7" r="3.17" fill="#e09440" opacity="0.29"/><circle cx="499.3" cy="500.4" r="2.68" fill="#e09440" opacity="0.27"/><circle cx="534.9" cy="495.5" r="3.57" fill="#e09440" opacity="0.15"/><circle cx="572.4" cy="500.3" r="3.03" fill="#e09440" opacity="0.32"/><circle cx="604.2" cy="499.0" r="3.88" fill="#e09440" opacity="0.25"/><circle cx="644.7" cy="496.1" r="2.85" fill="#e09440" opacity="0.36"/><circle cx="679.2" cy="497.9" r="3.17" fill="#e09440" opacity="0.19"/><circle cx="716.5" cy="497.7" r="3.90" fill="#e09440" opacity="0.18"/><circle cx="750.3" cy="500.3" r="1.85" fill="#e09440" opacity="0.34"/><circle cx="786.0" cy="497.0" r="1.84" fill="#e09440" opacity="0.36"/><circle cx="823.6" cy="496.6" r="2.19" fill="#e09440" opacity="0.34"/><circle cx="860.2" cy="499.5" r="2.74" fill="#e09440" opacity="0.31"/><circle cx="894.2" cy="495.5" r="1.93" fill="#e09440" opacity="0.25"/><circle cx="932.2" cy="500.7" r="1.73" fill="#e09440" opacity="0.17"/><circle cx="964.9" cy="499.8" r="2.73" fill="#e09440" opacity="0.15"/><circle cx="1004.0" cy="500.1" r="1.65" fill="#e09440" opacity="0.25"/><circle cx="1037.3" cy="495.8" r="3.36" fill="#e09440" opacity="0.27"/><circle cx="1075.3" cy="498.1" r="3.60" fill="#e09440" opacity="0.28"/><circle cx="1111.8" cy="495.6" r="3.47" fill="#e09440" opacity="0.20"/><circle cx="1148.9" cy="498.9" r="3.55" fill="#e09440" opacity="0.20"/><circle cx="1181.1" cy="500.3" r="3.86" fill="#e09440" opacity="0.24"/><circle cx="30.9" cy="531.6" r="2.84" fill="#e09440" opacity="0.16"/><circle cx="63.5" cy="531.6" r="3.26" fill="#e09440" opacity="0.20"/><circle cx="102.1" cy="534.9" r="2.65" fill="#e09440" opacity="0.29"/><circle cx="139.6" cy="532.2" r="3.61" fill="#e09440" opacity="0.29"/><circle cx="176.3" cy="535.3" r="3.86" fill="#e09440" opacity="0.35"/><circle cx="212.3" cy="531.5" r="3.84" fill="#e09440" opacity="0.30"/><circle cx="244.5" cy="533.9" r="2.66" fill="#e09440" opacity="0.21"/><circle cx="279.3" cy="534.7" r="3.59" fill="#e09440" opacity="0.26"/><circle cx="317.0" cy="532.7" r="3.06" fill="#e09440" opacity="0.19"/><circle cx="351.5" cy="536.9" r="2.94" fill="#e09440" opacity="0.20"/><circle cx="388.6" cy="531.5" r="3.44" fill="#e09440" opacity="0.29"/><circle cx="426.0" cy="536.4" r="2.13" fill="#e09440" opacity="0.27"/><circle cx="462.7" cy="533.8" r="2.73" fill="#e09440" opacity="0.22"/><circle cx="496.5" cy="535.7" r="2.78" fill="#e09440" opacity="0.36"/><circle cx="534.5" cy="534.2" r="3.30" fill="#e09440" opacity="0.33"/><circle cx="569.1" cy="533.4" r="1.85" fill="#e09440" opacity="0.35"/><circle cx="603.4" cy="534.1" r="2.38" fill="#e09440" opacity="0.16"/><circle cx="641.1" cy="533.0" r="2.49" fill="#e09440" opacity="0.30"/><circle cx="675.3" cy="532.8" r="1.91" fill="#e09440" opacity="0.17"/><circle cx="712.0" cy="533.4" r="3.98" fill="#e09440" opacity="0.22"/><circle cx="752.4" cy="532.0" r="2.05" fill="#e09440" opacity="0.29"/><circle cx="788.3" cy="533.3" r="1.86" fill="#e09440" opacity="0.24"/><circle cx="822.3" cy="531.5" r="3.86" fill="#e09440" opacity="0.15"/><circle cx="855.3" cy="536.7" r="2.21" fill="#e09440" opacity="0.22"/><circle cx="894.4" cy="536.7" r="1.89" fill="#e09440" opacity="0.34"/><circle cx="928.0" cy="533.0" r="2.21" fill="#e09440" opacity="0.18"/><circle cx="967.5" cy="532.1" r="2.99" fill="#e09440" opacity="0.32"/><circle cx="1003.0" cy="533.9" r="1.98" fill="#e09440" opacity="0.23"/><circle cx="1038.2" cy="536.7" r="3.19" fill="#e09440" opacity="0.16"/><circle cx="1074.7" cy="535.5" r="2.30" fill="#e09440" opacity="0.18"/><circle cx="1111.6" cy="533.8" r="3.21" fill="#e09440" opacity="0.19"/><circle cx="1144.8" cy="532.2" r="3.19" fill="#e09440" opacity="0.17"/><circle cx="1181.8" cy="534.7" r="1.94" fill="#e09440" opacity="0.30"/><circle cx="31.8" cy="571.5" r="3.62" fill="#e09440" opacity="0.27"/><circle cx="63.1" cy="569.4" r="3.53" fill="#e09440" opacity="0.32"/><circle cx="103.9" cy="568.3" r="3.34" fill="#e09440" opacity="0.30"/><circle cx="139.3" cy="572.4" r="3.56" fill="#e09440" opacity="0.33"/><circle cx="174.2" cy="570.7" r="3.42" fill="#e09440" opacity="0.32"/><circle cx="207.6" cy="570.5" r="1.88" fill="#e09440" opacity="0.16"/><circle cx="246.1" cy="567.2" r="3.53" fill="#e09440" opacity="0.32"/><circle cx="282.3" cy="572.8" r="2.04" fill="#e09440" opacity="0.30"/><circle cx="317.2" cy="570.5" r="4.00" fill="#e09440" opacity="0.35"/><circle cx="353.6" cy="572.6" r="3.83" fill="#e09440" opacity="0.31"/><circle cx="390.9" cy="572.1" r="3.69" fill="#e09440" opacity="0.18"/><circle cx="424.3" cy="568.5" r="2.87" fill="#e09440" opacity="0.28"/><circle cx="459.7" cy="572.8" r="2.37" fill="#e09440" opacity="0.30"/><circle cx="499.1" cy="571.4" r="1.89" fill="#e09440" opacity="0.36"/><circle cx="531.8" cy="570.3" r="2.26" fill="#e09440" opacity="0.35"/><circle cx="568.2" cy="570.5" r="1.64" fill="#e09440" opacity="0.21"/><circle cx="608.5" cy="568.5" r="2.47" fill="#e09440" opacity="0.31"/><circle cx="639.6" cy="568.7" r="2.31" fill="#e09440" opacity="0.30"/><circle cx="680.7" cy="570.5" r="2.82" fill="#e09440" opacity="0.26"/><circle cx="715.9" cy="570.1" r="3.05" fill="#e09440" opacity="0.27"/><circle cx="748.5" cy="567.8" r="2.92" fill="#e09440" opacity="0.31"/><circle cx="787.1" cy="570.0" r="2.93" fill="#e09440" opacity="0.36"/><circle cx="822.0" cy="567.8" r="3.94" fill="#e09440" opacity="0.20"/><circle cx="858.9" cy="573.0" r="3.13" fill="#e09440" opacity="0.35"/><circle cx="892.2" cy="571.0" r="2.64" fill="#e09440" opacity="0.20"/><circle cx="927.3" cy="568.6" r="2.36" fill="#e09440" opacity="0.32"/><circle cx="965.2" cy="570.1" r="3.32" fill="#e09440" opacity="0.32"/><circle cx="1004.5" cy="567.1" r="1.96" fill="#e09440" opacity="0.24"/><circle cx="1039.5" cy="570.8" r="3.45" fill="#e09440" opacity="0.31"/><circle cx="1071.7" cy="571.8" r="3.89" fill="#e09440" opacity="0.19"/><circle cx="1108.6" cy="569.1" r="1.77" fill="#e09440" opacity="0.24"/><circle cx="1145.6" cy="567.0" r="2.85" fill="#e09440" opacity="0.27"/><circle cx="1181.2" cy="568.3" r="3.64" fill="#e09440" opacity="0.29"/><circle cx="30.6" cy="606.7" r="3.77" fill="#e09440" opacity="0.15"/><circle cx="66.3" cy="605.8" r="3.48" fill="#e09440" opacity="0.25"/><circle cx="99.6" cy="607.3" r="3.93" fill="#e09440" opacity="0.15"/><circle cx="136.5" cy="603.9" r="1.80" fill="#e09440" opacity="0.16"/><circle cx="173.2" cy="608.8" r="2.85" fill="#e09440" opacity="0.33"/><circle cx="209.6" cy="606.2" r="3.82" fill="#e09440" opacity="0.25"/><circle cx="247.3" cy="608.4" r="2.01" fill="#e09440" opacity="0.19"/><circle cx="282.5" cy="606.7" r="3.92" fill="#e09440" opacity="0.34"/><circle cx="317.2" cy="607.2" r="2.24" fill="#e09440" opacity="0.25"/><circle cx="352.7" cy="607.7" r="2.52" fill="#e09440" opacity="0.23"/><circle cx="391.5" cy="603.1" r="3.99" fill="#e09440" opacity="0.19"/><circle cx="427.4" cy="608.0" r="3.19" fill="#e09440" opacity="0.28"/><circle cx="461.3" cy="604.5" r="2.57" fill="#e09440" opacity="0.23"/><circle cx="497.3" cy="606.7" r="2.37" fill="#e09440" opacity="0.35"/><circle cx="533.9" cy="604.5" r="3.93" fill="#e09440" opacity="0.33"/><circle cx="569.8" cy="604.6" r="3.66" fill="#e09440" opacity="0.22"/><circle cx="608.5" cy="605.4" r="1.96" fill="#e09440" opacity="0.22"/><circle cx="640.9" cy="607.9" r="3.80" fill="#e09440" opacity="0.23"/><circle cx="675.4" cy="605.4" r="2.73" fill="#e09440" opacity="0.29"/><circle cx="714.0" cy="604.9" r="2.89" fill="#e09440" opacity="0.22"/><circle cx="748.9" cy="603.5" r="3.67" fill="#e09440" opacity="0.31"/><circle cx="785.5" cy="604.6" r="2.56" fill="#e09440" opacity="0.19"/><circle cx="824.5" cy="608.4" r="2.96" fill="#e09440" opacity="0.33"/><circle cx="859.3" cy="603.9" r="1.84" fill="#e09440" opacity="0.23"/><circle cx="891.6" cy="604.8" r="3.61" fill="#e09440" opacity="0.28"/><circle cx="930.8" cy="606.5" r="2.25" fill="#e09440" opacity="0.35"/><circle cx="966.4" cy="607.0" r="3.85" fill="#e09440" opacity="0.22"/><circle cx="1001.7" cy="606.0" r="3.35" fill="#e09440" opacity="0.26"/><circle cx="1035.9" cy="607.0" r="3.92" fill="#e09440" opacity="0.17"/><circle cx="1072.8" cy="606.1" r="3.63" fill="#e09440" opacity="0.18"/><circle cx="1111.1" cy="608.5" r="3.20" fill="#e09440" opacity="0.33"/><circle cx="1145.7" cy="606.7" r="2.08" fill="#e09440" opacity="0.20"/><circle cx="1181.6" cy="605.0" r="3.13" fill="#e09440" opacity="0.30"/><circle cx="28.1" cy="639.7" r="3.71" fill="#e09440" opacity="0.34"/><circle cx="65.6" cy="643.1" r="3.57" fill="#e09440" opacity="0.33"/><circle cx="100.8" cy="641.2" r="2.80" fill="#e09440" opacity="0.16"/><circle cx="135.1" cy="641.1" r="3.67" fill="#e09440" opacity="0.24"/><circle cx="172.7" cy="640.2" r="1.90" fill="#e09440" opacity="0.20"/><circle cx="209.8" cy="639.5" r="3.14" fill="#e09440" opacity="0.20"/><circle cx="246.8" cy="642.2" r="3.17" fill="#e09440" opacity="0.32"/><circle cx="279.3" cy="641.0" r="3.53" fill="#e09440" opacity="0.32"/><circle cx="318.0" cy="644.7" r="2.29" fill="#e09440" opacity="0.16"/><circle cx="354.1" cy="643.8" r="3.88" fill="#e09440" opacity="0.28"/><circle cx="389.0" cy="641.0" r="3.69" fill="#e09440" opacity="0.25"/><circle cx="424.0" cy="639.4" r="2.46" fill="#e09440" opacity="0.22"/><circle cx="462.0" cy="643.6" r="3.41" fill="#e09440" opacity="0.22"/><circle cx="495.1" cy="643.8" r="3.40" fill="#e09440" opacity="0.22"/><circle cx="535.1" cy="641.6" r="2.06" fill="#e09440" opacity="0.26"/><circle cx="569.7" cy="640.0" r="1.64" fill="#e09440" opacity="0.32"/><circle cx="606.5" cy="641.8" r="3.42" fill="#e09440" opacity="0.26"/><circle cx="644.4" cy="641.9" r="2.46" fill="#e09440" opacity="0.28"/><circle cx="675.3" cy="643.8" r="1.90" fill="#e09440" opacity="0.27"/><circle cx="713.5" cy="639.1" r="2.39" fill="#e09440" opacity="0.34"/><circle cx="751.4" cy="640.9" r="3.37" fill="#e09440" opacity="0.24"/><circle cx="785.0" cy="640.8" r="1.94" fill="#e09440" opacity="0.17"/><circle cx="822.8" cy="640.2" r="3.93" fill="#e09440" opacity="0.16"/><circle cx="856.6" cy="642.5" r="3.56" fill="#e09440" opacity="0.33"/><circle cx="893.1" cy="641.2" r="3.54" fill="#e09440" opacity="0.34"/><circle cx="932.2" cy="642.2" r="2.89" fill="#e09440" opacity="0.34"/><circle cx="966.0" cy="644.2" r="2.80" fill="#e09440" opacity="0.25"/><circle cx="1004.0" cy="639.5" r="3.93" fill="#e09440" opacity="0.18"/><circle cx="1040.9" cy="642.0" r="2.33" fill="#e09440" opacity="0.26"/><circle cx="1075.0" cy="640.6" r="3.53" fill="#e09440" opacity="0.16"/><circle cx="1112.2" cy="644.0" r="3.42" fill="#e09440" opacity="0.18"/><circle cx="1143.2" cy="643.9" r="2.99" fill="#e09440" opacity="0.21"/><circle cx="1182.9" cy="642.8" r="3.89" fill="#e09440" opacity="0.18"/><circle cx="225.5" cy="268.8" r="220" fill="url(#glow)" opacity="0.9"/>
  <g opacity="0.85" transform="translate(1020, 495)">
        <rect x="-46" y="-60" width="92" height="115" fill="#e09440" opacity="0.18" rx="6"/>
        <path d="M -28 -36 L 28 -36 M -28 -12 L 28 -12 M -28 12 L 18 12 M -28 36 L 28 36" stroke="#fdf6ee" stroke-width="3" stroke-linecap="round"/>
      </g>
  <g transform="translate(80, 90)">
    <rect x="0" y="0" rx="20" ry="20" width="101" height="38" fill="#e09440" opacity="0.18" stroke="#e09440" stroke-width="1.5"/>
    <text x="50.5" y="25" font-family="ui-sans-serif, Inter, sans-serif" font-weight="700" font-size="14" letter-spacing="2.5" fill="#e09440" text-anchor="middle">ARTICLE</text>
  </g>
  <text x="80" y="465" font-family="ui-sans-serif, -apple-system, Segoe UI, Inter, sans-serif" font-weight="800" font-size="44" fill="#faf8f5" opacity="0.98"><tspan x="80" dy="0">What Measures Should Banks</tspan><tspan x="80" dy="56">Take to Avoid RBI</tspan><tspan x="80" dy="56">Penalties for Fraud?</tspan></text>
  <rect x="0" y="669" width="1200" height="6" fill="url(#gold)"/>
</svg>