<?xml version="1.0" encoding="UTF-8"?>
<svg xmlns="http://www.w3.org/2000/svg" viewBox="0 0 1200 675" width="1200" height="675" role="img" aria-label="What Is Dispute Resolution? Complete Guide for Beginners">
  <defs>
    <linearGradient id="bg" x1="0%" y1="0%" x2="100%" y2="100%">
      <stop offset="0%" stop-color="#643516"/>
      <stop offset="100%" stop-color="#7d4315"/>
    </linearGradient>
    <linearGradient id="gold" x1="0%" y1="0%" x2="100%" y2="100%">
      <stop offset="0%" stop-color="#ecb478"/>
      <stop offset="100%" stop-color="#faebd6"/>
    </linearGradient>
    <radialGradient id="glow" cx="50%" cy="50%" r="50%">
      <stop offset="0%" stop-color="#ecb478" stop-opacity="0.45"/>
      <stop offset="100%" stop-color="#ecb478" stop-opacity="0"/>
    </radialGradient>
  </defs>
  <rect width="1200" height="675" fill="url(#bg)"/>
  <polygon points="1141.4,-3.3 1060.0,118.7 995.0,-12.9" fill="#faebd6" opacity="0.09"/><polygon points="1013.2,152.3 893.6,28.4 1060.7,-13.1" fill="#faebd6" opacity="0.16"/><polygon points="274.4,131.9 130.9,176.3 44.3,53.5 134.4,-66.8 276.6,-18.3" fill="#faebd6" opacity="0.13"/><polygon points="599.3,-59.0 687.8,70.1 558.7,158.5 470.2,29.4" fill="#faebd6" opacity="0.06"/><polygon points="174.0,372.6 107.4,414.1 47.4,363.7 76.8,291.0 155.0,296.5" fill="#faebd6" opacity="0.12"/><polygon points="1005.7,257.2 983.1,400.4 840.0,423.2 774.1,294.2 876.4,191.6" fill="#faebd6" opacity="0.13"/><polygon points="1047.1,607.1 1085.1,537.3 1163.2,551.8 1173.5,630.6 1101.8,664.8" fill="#faebd6" opacity="0.07"/><polygon points="482.1,414.5 484.4,474.6 427.9,495.3 390.8,448.0 424.2,398.1" fill="#faebd6" opacity="0.11"/><polygon points="980.2,468.0 963.2,693.5 776.4,566.0" fill="#faebd6" opacity="0.13"/><polygon points="722.4,608.5 593.0,740.9 460.6,611.5 590.0,479.1" fill="#faebd6" opacity="0.07"/><polygon points="636.4,714.5 417.0,659.5 472.0,440.0 691.4,495.0" fill="#faebd6" opacity="0.15"/><polygon points="-28.4,212.6 41.1,107.3 162.7,140.9 168.3,266.9 50.2,311.2" fill="#faebd6" opacity="0.15"/><polygon points="691.2,385.1 499.0,296.4 587.6,104.2 779.8,192.8" fill="#faebd6" opacity="0.15"/><polygon points="528.3,177.4 668.3,251.4 641.2,407.4 484.5,429.9 414.7,287.8" fill="#faebd6" opacity="0.14"/><circle cx="936.0" cy="202.5" r="180" fill="url(#glow)"/>
  <g opacity="0.85" transform="translate(1020, 495)">
        <rect x="-46" y="-60" width="92" height="115" fill="#ecb478" opacity="0.18" rx="6"/>
        <path d="M -28 -36 L 28 -36 M -28 -12 L 28 -12 M -28 12 L 18 12 M -28 36 L 28 36" stroke="#faebd6" stroke-width="3" stroke-linecap="round"/>
      </g>
  <g transform="translate(80, 90)">
    <rect x="0" y="0" rx="20" ry="20" width="101" height="38" fill="#ecb478" opacity="0.18" stroke="#ecb478" stroke-width="1.5"/>
    <text x="50.5" y="25" font-family="ui-sans-serif, Inter, sans-serif" font-weight="700" font-size="14" letter-spacing="2.5" fill="#ecb478" text-anchor="middle">ARTICLE</text>
  </g>
  <text x="80" y="465" font-family="ui-sans-serif, -apple-system, Segoe UI, Inter, sans-serif" font-weight="800" font-size="44" fill="#faf8f5" opacity="0.98"><tspan x="80" dy="0">What Is Dispute</tspan><tspan x="80" dy="56">Resolution? Complete Guide</tspan><tspan x="80" dy="56">for Beginners</tspan></text>
  <rect x="0" y="669" width="1200" height="6" fill="url(#gold)"/>
</svg>