<?xml version="1.0" encoding="UTF-8"?>
<svg xmlns="http://www.w3.org/2000/svg" viewBox="0 0 1200 675" width="1200" height="675" role="img" aria-label="What Happens After an Arbitral Award? Finality, Enforcement &amp; Challenges Explained">
  <defs>
    <linearGradient id="bg" x1="0%" y1="0%" x2="100%" y2="100%">
      <stop offset="0%" stop-color="#faf8f5"/>
      <stop offset="100%" stop-color="#f4efe8"/>
    </linearGradient>
    <linearGradient id="gold" x1="0%" y1="0%" x2="100%" y2="100%">
      <stop offset="0%" stop-color="#bd6b20"/>
      <stop offset="100%" stop-color="#9a5518"/>
    </linearGradient>
    <radialGradient id="glow" cx="50%" cy="50%" r="50%">
      <stop offset="0%" stop-color="#bd6b20" stop-opacity="0.45"/>
      <stop offset="100%" stop-color="#bd6b20" stop-opacity="0"/>
    </radialGradient>
  </defs>
  <rect width="1200" height="675" fill="url(#bg)"/>
  <circle cx="28.6" cy="28.4" r="3.93" fill="#bd6b20" opacity="0.32"/><circle cx="63.7" cy="30.2" r="3.55" fill="#bd6b20" opacity="0.26"/><circle cx="100.5" cy="27.3" r="2.79" fill="#bd6b20" opacity="0.23"/><circle cx="139.2" cy="28.9" r="2.73" fill="#bd6b20" opacity="0.36"/><circle cx="171.8" cy="30.4" r="3.97" fill="#bd6b20" opacity="0.29"/><circle cx="211.6" cy="32.2" r="1.93" fill="#bd6b20" opacity="0.34"/><circle cx="247.5" cy="28.5" r="1.69" fill="#bd6b20" opacity="0.35"/><circle cx="283.9" cy="31.4" r="2.42" fill="#bd6b20" opacity="0.28"/><circle cx="315.2" cy="31.3" r="3.03" fill="#bd6b20" opacity="0.24"/><circle cx="352.5" cy="31.8" r="2.00" fill="#bd6b20" opacity="0.15"/><circle cx="392.0" cy="27.7" r="1.75" fill="#bd6b20" opacity="0.16"/><circle cx="428.1" cy="29.8" r="2.47" fill="#bd6b20" opacity="0.29"/><circle cx="464.0" cy="32.5" r="2.46" fill="#bd6b20" opacity="0.32"/><circle cx="499.9" cy="28.0" r="2.07" fill="#bd6b20" opacity="0.32"/><circle cx="535.0" cy="28.7" r="3.73" fill="#bd6b20" opacity="0.19"/><circle cx="567.3" cy="28.3" r="2.89" fill="#bd6b20" opacity="0.18"/><circle cx="608.2" cy="28.1" r="2.96" fill="#bd6b20" opacity="0.29"/><circle cx="644.0" cy="27.9" r="3.70" fill="#bd6b20" opacity="0.35"/><circle cx="679.2" cy="30.3" r="1.72" fill="#bd6b20" opacity="0.19"/><circle cx="712.8" cy="27.8" r="2.35" fill="#bd6b20" opacity="0.19"/><circle cx="749.2" cy="31.2" r="3.02" fill="#bd6b20" opacity="0.29"/><circle cx="788.1" cy="29.3" r="2.96" fill="#bd6b20" opacity="0.20"/><circle cx="824.1" cy="27.0" r="2.94" fill="#bd6b20" opacity="0.32"/><circle cx="858.6" cy="30.9" r="3.95" fill="#bd6b20" opacity="0.36"/><circle cx="893.3" cy="28.9" r="2.27" fill="#bd6b20" opacity="0.29"/><circle cx="927.8" cy="27.7" r="3.16" fill="#bd6b20" opacity="0.15"/><circle cx="963.4" cy="28.8" r="3.29" fill="#bd6b20" opacity="0.32"/><circle cx="1004.8" cy="27.1" r="2.65" fill="#bd6b20" opacity="0.25"/><circle cx="1036.4" cy="31.4" r="3.07" fill="#bd6b20" opacity="0.28"/><circle cx="1071.2" cy="30.5" r="2.28" fill="#bd6b20" opacity="0.20"/><circle cx="1111.7" cy="27.8" r="2.90" fill="#bd6b20" opacity="0.16"/><circle cx="1144.1" cy="32.0" r="3.87" fill="#bd6b20" opacity="0.23"/><circle cx="1181.6" cy="28.5" r="2.05" fill="#bd6b20" opacity="0.22"/><circle cx="30.7" cy="63.2" r="2.01" fill="#bd6b20" opacity="0.35"/><circle cx="65.1" cy="65.2" r="3.24" fill="#bd6b20" opacity="0.31"/><circle cx="103.8" cy="64.2" r="3.35" fill="#bd6b20" opacity="0.30"/><circle cx="138.8" cy="64.0" r="2.88" fill="#bd6b20" opacity="0.26"/><circle cx="174.8" cy="64.9" r="3.77" fill="#bd6b20" opacity="0.34"/><circle cx="212.7" cy="68.9" r="3.23" fill="#bd6b20" opacity="0.31"/><circle cx="243.2" cy="67.0" r="1.66" fill="#bd6b20" opacity="0.22"/><circle cx="282.7" cy="64.1" r="2.44" fill="#bd6b20" opacity="0.31"/><circle cx="319.1" cy="64.5" r="2.65" fill="#bd6b20" opacity="0.17"/><circle cx="354.7" cy="68.7" r="1.95" fill="#bd6b20" opacity="0.34"/><circle cx="391.3" cy="68.5" r="3.56" fill="#bd6b20" opacity="0.19"/><circle cx="426.4" cy="65.6" r="3.29" fill="#bd6b20" opacity="0.35"/><circle cx="461.5" cy="63.9" r="1.64" fill="#bd6b20" opacity="0.22"/><circle cx="496.4" cy="68.3" r="2.47" fill="#bd6b20" opacity="0.21"/><circle cx="532.3" cy="63.7" r="2.47" fill="#bd6b20" opacity="0.33"/><circle cx="567.6" cy="68.4" r="2.84" fill="#bd6b20" opacity="0.35"/><circle cx="603.4" cy="65.2" r="1.79" fill="#bd6b20" opacity="0.27"/><circle cx="644.2" cy="65.6" r="1.92" fill="#bd6b20" opacity="0.18"/><circle cx="676.6" cy="65.6" r="3.25" fill="#bd6b20" opacity="0.23"/><circle cx="711.9" cy="67.5" r="2.78" fill="#bd6b20" opacity="0.24"/><circle cx="750.7" cy="64.1" r="3.92" fill="#bd6b20" opacity="0.35"/><circle cx="785.6" cy="66.9" r="2.32" fill="#bd6b20" opacity="0.25"/><circle cx="824.8" cy="66.2" r="3.96" fill="#bd6b20" opacity="0.20"/><circle cx="856.7" cy="66.0" r="3.08" fill="#bd6b20" opacity="0.21"/><circle cx="893.4" cy="64.0" r="3.36" fill="#bd6b20" opacity="0.34"/><circle cx="931.3" cy="67.8" r="1.96" fill="#bd6b20" opacity="0.23"/><circle cx="963.9" cy="64.5" r="3.20" fill="#bd6b20" opacity="0.29"/><circle cx="1003.4" cy="65.2" r="2.51" fill="#bd6b20" opacity="0.29"/><circle cx="1035.3" cy="64.2" r="3.45" fill="#bd6b20" opacity="0.20"/><circle cx="1072.9" cy="65.0" r="1.79" fill="#bd6b20" opacity="0.18"/><circle cx="1108.6" cy="66.6" r="1.72" fill="#bd6b20" opacity="0.21"/><circle cx="1144.5" cy="65.7" r="2.62" fill="#bd6b20" opacity="0.26"/><circle cx="1184.9" cy="66.8" r="2.92" fill="#bd6b20" opacity="0.25"/><circle cx="27.4" cy="100.5" r="3.50" fill="#bd6b20" opacity="0.19"/><circle cx="67.9" cy="103.5" r="2.21" fill="#bd6b20" opacity="0.34"/><circle cx="99.1" cy="102.4" r="3.14" fill="#bd6b20" opacity="0.32"/><circle cx="138.7" cy="101.1" r="3.00" fill="#bd6b20" opacity="0.18"/><circle cx="171.1" cy="102.7" r="3.41" fill="#bd6b20" opacity="0.27"/><circle cx="209.9" cy="103.5" r="2.71" fill="#bd6b20" opacity="0.31"/><circle cx="248.7" cy="99.8" r="2.58" fill="#bd6b20" opacity="0.28"/><circle cx="279.4" cy="99.6" r="2.01" fill="#bd6b20" opacity="0.18"/><circle cx="317.2" cy="100.2" r="3.34" fill="#bd6b20" opacity="0.25"/><circle cx="354.6" cy="103.3" r="2.83" fill="#bd6b20" opacity="0.19"/><circle cx="392.5" cy="102.5" r="2.57" fill="#bd6b20" opacity="0.31"/><circle cx="423.7" cy="104.7" r="2.10" fill="#bd6b20" opacity="0.23"/><circle cx="460.5" cy="103.8" r="3.50" fill="#bd6b20" opacity="0.16"/><circle cx="500.5" cy="99.7" r="3.55" fill="#bd6b20" opacity="0.26"/><circle cx="531.9" cy="104.6" r="2.44" fill="#bd6b20" opacity="0.16"/><circle cx="570.9" cy="102.4" r="3.63" fill="#bd6b20" opacity="0.25"/><circle cx="606.3" cy="100.3" r="3.32" fill="#bd6b20" opacity="0.25"/><circle cx="641.7" cy="104.1" r="2.93" fill="#bd6b20" opacity="0.30"/><circle cx="679.6" cy="99.3" r="3.85" fill="#bd6b20" opacity="0.16"/><circle cx="713.4" cy="100.1" r="2.55" fill="#bd6b20" opacity="0.19"/><circle cx="751.1" cy="101.6" r="1.74" fill="#bd6b20" opacity="0.19"/><circle cx="788.0" cy="103.6" r="3.53" fill="#bd6b20" opacity="0.30"/><circle cx="821.7" cy="104.2" r="2.71" fill="#bd6b20" opacity="0.31"/><circle cx="860.9" cy="99.6" r="2.21" fill="#bd6b20" opacity="0.33"/><circle cx="896.9" cy="102.4" r="2.90" fill="#bd6b20" opacity="0.22"/><circle cx="927.2" cy="102.8" r="1.88" fill="#bd6b20" opacity="0.25"/><circle cx="963.8" cy="100.7" r="3.75" fill="#bd6b20" opacity="0.25"/><circle cx="1002.6" cy="102.5" r="3.12" fill="#bd6b20" opacity="0.31"/><circle cx="1039.8" cy="101.3" r="2.18" fill="#bd6b20" opacity="0.16"/><circle cx="1074.4" cy="101.0" r="3.34" fill="#bd6b20" opacity="0.21"/><circle cx="1108.8" cy="102.7" r="1.63" fill="#bd6b20" opacity="0.34"/><circle cx="1145.2" cy="101.8" r="1.97" fill="#bd6b20" opacity="0.26"/><circle cx="1181.9" cy="103.7" r="3.63" fill="#bd6b20" opacity="0.24"/><circle cx="31.3" cy="140.7" r="3.61" fill="#bd6b20" opacity="0.30"/><circle cx="65.7" cy="137.4" r="3.09" fill="#bd6b20" opacity="0.16"/><circle cx="101.5" cy="141.0" r="3.40" fill="#bd6b20" opacity="0.15"/><circle cx="138.1" cy="135.4" r="2.75" fill="#bd6b20" opacity="0.30"/><circle cx="176.0" cy="136.0" r="2.20" fill="#bd6b20" opacity="0.28"/><circle cx="207.9" cy="138.3" r="3.84" fill="#bd6b20" opacity="0.17"/><circle cx="243.1" cy="139.1" r="2.64" fill="#bd6b20" opacity="0.17"/><circle cx="279.5" cy="136.1" r="2.63" fill="#bd6b20" opacity="0.27"/><circle cx="315.1" cy="140.3" r="1.88" fill="#bd6b20" opacity="0.21"/><circle cx="355.4" cy="137.3" r="3.60" fill="#bd6b20" opacity="0.25"/><circle cx="392.7" cy="137.0" r="2.38" fill="#bd6b20" opacity="0.19"/><circle cx="428.0" cy="139.9" r="2.36" fill="#bd6b20" opacity="0.23"/><circle cx="459.2" cy="140.0" r="3.42" fill="#bd6b20" opacity="0.35"/><circle cx="497.1" cy="136.6" r="3.61" fill="#bd6b20" opacity="0.16"/><circle cx="534.2" cy="140.7" r="2.38" fill="#bd6b20" opacity="0.17"/><circle cx="567.1" cy="137.6" r="2.99" fill="#bd6b20" opacity="0.29"/><circle cx="603.5" cy="138.5" r="2.88" fill="#bd6b20" opacity="0.17"/><circle cx="642.1" cy="137.9" r="1.88" fill="#bd6b20" opacity="0.21"/><circle cx="675.1" cy="138.7" r="3.72" fill="#bd6b20" opacity="0.29"/><circle cx="715.8" cy="135.7" r="3.57" fill="#bd6b20" opacity="0.27"/><circle cx="749.5" cy="141.0" r="2.65" fill="#bd6b20" opacity="0.19"/><circle cx="789.0" cy="138.8" r="2.69" fill="#bd6b20" opacity="0.29"/><circle cx="820.7" cy="140.4" r="2.43" fill="#bd6b20" opacity="0.20"/><circle cx="859.9" cy="135.6" r="3.91" fill="#bd6b20" opacity="0.17"/><circle cx="895.9" cy="137.8" r="3.52" fill="#bd6b20" opacity="0.26"/><circle cx="928.0" cy="135.9" r="3.64" fill="#bd6b20" opacity="0.26"/><circle cx="969.0" cy="139.4" r="2.59" fill="#bd6b20" opacity="0.23"/><circle cx="1000.6" cy="137.7" r="3.37" fill="#bd6b20" opacity="0.20"/><circle cx="1037.6" cy="135.7" r="3.38" fill="#bd6b20" opacity="0.16"/><circle cx="1073.1" cy="136.6" r="2.53" fill="#bd6b20" opacity="0.34"/><circle cx="1109.3" cy="139.7" r="1.70" fill="#bd6b20" opacity="0.22"/><circle cx="1147.5" cy="137.5" r="3.53" fill="#bd6b20" opacity="0.34"/><circle cx="1180.1" cy="136.3" r="2.41" fill="#bd6b20" opacity="0.36"/><circle cx="28.6" cy="174.4" r="2.43" fill="#bd6b20" opacity="0.34"/><circle cx="66.8" cy="173.0" r="1.85" fill="#bd6b20" opacity="0.25"/><circle cx="104.8" cy="173.3" r="2.80" fill="#bd6b20" opacity="0.21"/><circle cx="137.0" cy="173.8" r="1.82" fill="#bd6b20" opacity="0.19"/><circle cx="175.9" cy="175.0" r="2.50" fill="#bd6b20" opacity="0.25"/><circle cx="207.7" cy="173.3" r="2.39" fill="#bd6b20" opacity="0.29"/><circle cx="245.1" cy="176.1" r="2.99" fill="#bd6b20" opacity="0.19"/><circle cx="283.8" cy="174.8" r="2.92" fill="#bd6b20" opacity="0.33"/><circle cx="320.0" cy="171.8" r="2.63" fill="#bd6b20" opacity="0.31"/><circle cx="355.0" cy="176.4" r="2.50" fill="#bd6b20" opacity="0.24"/><circle cx="391.2" cy="174.3" r="2.99" fill="#bd6b20" opacity="0.24"/><circle cx="426.5" cy="174.0" r="2.96" fill="#bd6b20" opacity="0.36"/><circle cx="459.8" cy="175.5" r="2.47" fill="#bd6b20" opacity="0.34"/><circle cx="495.3" cy="175.4" r="2.64" fill="#bd6b20" opacity="0.35"/><circle cx="535.1" cy="171.3" r="3.51" fill="#bd6b20" opacity="0.25"/><circle cx="570.0" cy="171.2" r="3.91" fill="#bd6b20" opacity="0.36"/><circle cx="606.8" cy="174.9" r="2.34" fill="#bd6b20" opacity="0.27"/><circle cx="642.6" cy="176.5" r="1.85" fill="#bd6b20" opacity="0.26"/><circle cx="680.8" cy="174.8" r="3.09" fill="#bd6b20" opacity="0.20"/><circle cx="711.2" cy="175.3" r="1.80" fill="#bd6b20" opacity="0.22"/><circle cx="752.5" cy="175.8" r="3.96" fill="#bd6b20" opacity="0.26"/><circle cx="784.0" cy="175.3" r="3.34" fill="#bd6b20" opacity="0.18"/><circle cx="820.0" cy="174.1" r="2.96" fill="#bd6b20" opacity="0.36"/><circle cx="858.9" cy="171.0" r="3.40" fill="#bd6b20" opacity="0.18"/><circle cx="896.9" cy="174.0" r="2.40" fill="#bd6b20" opacity="0.21"/><circle cx="930.9" cy="173.7" r="3.52" fill="#bd6b20" opacity="0.29"/><circle cx="964.5" cy="172.4" r="2.63" fill="#bd6b20" opacity="0.31"/><circle cx="1000.2" cy="175.5" r="3.34" fill="#bd6b20" opacity="0.22"/><circle cx="1038.7" cy="171.8" r="3.26" fill="#bd6b20" opacity="0.33"/><circle cx="1074.4" cy="176.4" r="2.69" fill="#bd6b20" opacity="0.22"/><circle cx="1107.4" cy="173.4" r="3.61" fill="#bd6b20" opacity="0.31"/><circle cx="1143.6" cy="174.0" r="2.43" fill="#bd6b20" opacity="0.23"/><circle cx="1182.1" cy="174.4" r="1.91" fill="#bd6b20" opacity="0.15"/><circle cx="30.3" cy="212.9" r="3.56" fill="#bd6b20" opacity="0.28"/><circle cx="65.2" cy="209.0" r="2.38" fill="#bd6b20" opacity="0.25"/><circle cx="102.6" cy="208.7" r="2.77" fill="#bd6b20" opacity="0.35"/><circle cx="138.3" cy="210.8" r="1.76" fill="#bd6b20" opacity="0.15"/><circle cx="172.0" cy="210.7" r="3.01" fill="#bd6b20" opacity="0.35"/><circle cx="209.2" cy="212.3" r="3.13" fill="#bd6b20" opacity="0.20"/><circle cx="243.2" cy="208.7" r="3.92" fill="#bd6b20" opacity="0.25"/><circle cx="282.3" cy="208.0" r="3.68" fill="#bd6b20" opacity="0.30"/><circle cx="315.9" cy="212.8" r="2.24" fill="#bd6b20" opacity="0.35"/><circle cx="353.9" cy="212.3" r="2.69" fill="#bd6b20" opacity="0.24"/><circle cx="387.4" cy="209.1" r="2.16" fill="#bd6b20" opacity="0.20"/><circle cx="423.2" cy="207.7" r="1.79" fill="#bd6b20" opacity="0.25"/><circle cx="459.9" cy="207.2" r="3.98" fill="#bd6b20" opacity="0.17"/><circle cx="500.0" cy="212.8" r="2.82" fill="#bd6b20" opacity="0.36"/><circle cx="536.8" cy="207.6" r="1.94" fill="#bd6b20" opacity="0.24"/><circle cx="567.4" cy="209.1" r="3.83" fill="#bd6b20" opacity="0.16"/><circle cx="604.0" cy="211.9" r="3.29" fill="#bd6b20" opacity="0.18"/><circle cx="639.4" cy="211.8" r="3.44" fill="#bd6b20" opacity="0.29"/><circle cx="675.9" cy="212.8" r="2.89" fill="#bd6b20" opacity="0.15"/><circle cx="712.0" cy="212.0" r="3.10" fill="#bd6b20" opacity="0.25"/><circle cx="748.6" cy="207.3" r="1.82" fill="#bd6b20" opacity="0.23"/><circle cx="784.7" cy="211.7" r="3.13" fill="#bd6b20" opacity="0.23"/><circle cx="823.9" cy="212.4" r="3.99" fill="#bd6b20" opacity="0.26"/><circle cx="856.4" cy="207.3" r="3.86" fill="#bd6b20" opacity="0.25"/><circle cx="893.4" cy="207.5" r="2.56" fill="#bd6b20" opacity="0.34"/><circle cx="929.8" cy="207.7" r="2.12" fill="#bd6b20" opacity="0.36"/><circle cx="965.1" cy="212.6" r="1.80" fill="#bd6b20" opacity="0.35"/><circle cx="1004.5" cy="208.4" r="3.99" fill="#bd6b20" opacity="0.22"/><circle cx="1035.7" cy="210.2" r="2.37" fill="#bd6b20" opacity="0.21"/><circle cx="1071.5" cy="212.1" r="2.32" fill="#bd6b20" opacity="0.15"/><circle cx="1108.7" cy="210.6" r="3.51" fill="#bd6b20" opacity="0.35"/><circle cx="1146.5" cy="212.6" r="3.89" fill="#bd6b20" opacity="0.25"/><circle cx="1182.4" cy="212.1" r="3.46" fill="#bd6b20" opacity="0.21"/><circle cx="32.7" cy="247.9" r="3.77" fill="#bd6b20" opacity="0.19"/><circle cx="65.6" cy="248.6" r="3.07" fill="#bd6b20" opacity="0.25"/><circle cx="99.2" cy="246.3" r="3.20" fill="#bd6b20" opacity="0.25"/><circle cx="140.8" cy="243.6" r="2.17" fill="#bd6b20" opacity="0.16"/><circle cx="173.1" cy="248.2" r="2.06" fill="#bd6b20" opacity="0.32"/><circle cx="210.6" cy="245.4" r="2.71" fill="#bd6b20" opacity="0.18"/><circle cx="245.0" cy="248.5" r="2.57" fill="#bd6b20" opacity="0.22"/><circle cx="282.5" cy="243.2" r="3.18" fill="#bd6b20" opacity="0.18"/><circle cx="318.2" cy="246.3" r="3.65" fill="#bd6b20" opacity="0.20"/><circle cx="355.2" cy="244.0" r="1.74" fill="#bd6b20" opacity="0.21"/><circle cx="388.2" cy="245.0" r="2.84" fill="#bd6b20" opacity="0.27"/><circle cx="427.7" cy="244.1" r="2.66" fill="#bd6b20" opacity="0.26"/><circle cx="460.0" cy="243.6" r="2.16" fill="#bd6b20" opacity="0.22"/><circle cx="495.8" cy="244.2" r="3.95" fill="#bd6b20" opacity="0.31"/><circle cx="532.6" cy="248.9" r="1.99" fill="#bd6b20" opacity="0.25"/><circle cx="567.7" cy="246.4" r="2.11" fill="#bd6b20" opacity="0.29"/><circle cx="605.2" cy="246.7" r="4.00" fill="#bd6b20" opacity="0.18"/><circle cx="644.1" cy="246.7" r="2.64" fill="#bd6b20" opacity="0.28"/><circle cx="676.8" cy="248.0" r="3.95" fill="#bd6b20" opacity="0.26"/><circle cx="713.1" cy="245.0" r="2.09" fill="#bd6b20" opacity="0.31"/><circle cx="750.7" cy="247.3" r="2.86" fill="#bd6b20" opacity="0.33"/><circle cx="784.6" cy="244.3" r="3.53" fill="#bd6b20" opacity="0.16"/><circle cx="824.8" cy="243.1" r="1.69" fill="#bd6b20" opacity="0.34"/><circle cx="856.7" cy="245.2" r="2.51" fill="#bd6b20" opacity="0.29"/><circle cx="893.9" cy="247.7" r="3.28" fill="#bd6b20" opacity="0.33"/><circle cx="932.2" cy="247.4" r="3.77" fill="#bd6b20" opacity="0.30"/><circle cx="965.8" cy="247.5" r="2.14" fill="#bd6b20" opacity="0.20"/><circle cx="999.4" cy="245.5" r="2.43" fill="#bd6b20" opacity="0.22"/><circle cx="1037.1" cy="245.2" r="3.45" fill="#bd6b20" opacity="0.28"/><circle cx="1074.6" cy="244.6" r="3.07" fill="#bd6b20" opacity="0.22"/><circle cx="1107.2" cy="245.8" r="3.71" fill="#bd6b20" opacity="0.24"/><circle cx="1144.9" cy="244.0" r="1.96" fill="#bd6b20" opacity="0.20"/><circle cx="1184.8" cy="248.2" r="2.75" fill="#bd6b20" opacity="0.17"/><circle cx="29.7" cy="279.7" r="2.81" fill="#bd6b20" opacity="0.33"/><circle cx="67.8" cy="282.7" r="3.90" fill="#bd6b20" opacity="0.27"/><circle cx="102.2" cy="284.2" r="2.27" fill="#bd6b20" opacity="0.23"/><circle cx="137.8" cy="281.5" r="1.65" fill="#bd6b20" opacity="0.36"/><circle cx="176.3" cy="283.1" r="3.72" fill="#bd6b20" opacity="0.17"/><circle cx="209.2" cy="283.6" r="2.48" fill="#bd6b20" opacity="0.30"/><circle cx="248.0" cy="279.5" r="3.09" fill="#bd6b20" opacity="0.30"/><circle cx="284.0" cy="283.7" r="1.97" fill="#bd6b20" opacity="0.26"/><circle cx="320.4" cy="284.1" r="2.70" fill="#bd6b20" opacity="0.31"/><circle cx="354.9" cy="279.4" r="1.89" fill="#bd6b20" opacity="0.24"/><circle cx="391.7" cy="281.7" r="3.19" fill="#bd6b20" opacity="0.27"/><circle cx="428.8" cy="283.2" r="3.71" fill="#bd6b20" opacity="0.17"/><circle cx="462.2" cy="282.5" r="2.42" fill="#bd6b20" opacity="0.16"/><circle cx="497.6" cy="284.3" r="2.10" fill="#bd6b20" opacity="0.26"/><circle cx="532.9" cy="283.3" r="2.33" fill="#bd6b20" opacity="0.18"/><circle cx="572.3" cy="281.0" r="3.85" fill="#bd6b20" opacity="0.29"/><circle cx="605.0" cy="281.3" r="3.08" fill="#bd6b20" opacity="0.23"/><circle cx="642.1" cy="282.7" r="2.99" fill="#bd6b20" opacity="0.24"/><circle cx="679.1" cy="280.2" r="3.84" fill="#bd6b20" opacity="0.25"/><circle cx="713.1" cy="279.5" r="1.99" fill="#bd6b20" opacity="0.27"/><circle cx="748.5" cy="283.5" r="2.68" fill="#bd6b20" opacity="0.19"/><circle cx="787.7" cy="281.0" r="2.67" fill="#bd6b20" opacity="0.30"/><circle cx="822.0" cy="281.7" r="2.27" fill="#bd6b20" opacity="0.17"/><circle cx="856.6" cy="279.7" r="3.33" fill="#bd6b20" opacity="0.24"/><circle cx="893.8" cy="279.0" r="2.16" fill="#bd6b20" opacity="0.24"/><circle cx="927.6" cy="283.0" r="2.29" fill="#bd6b20" opacity="0.20"/><circle cx="967.6" cy="281.7" r="3.80" fill="#bd6b20" opacity="0.17"/><circle cx="999.0" cy="281.4" r="2.55" fill="#bd6b20" opacity="0.34"/><circle cx="1036.6" cy="285.0" r="2.27" fill="#bd6b20" opacity="0.27"/><circle cx="1076.3" cy="283.4" r="2.30" fill="#bd6b20" opacity="0.17"/><circle cx="1110.7" cy="281.8" r="3.58" fill="#bd6b20" opacity="0.26"/><circle cx="1147.1" cy="279.2" r="2.59" fill="#bd6b20" opacity="0.26"/><circle cx="1182.2" cy="279.8" r="3.22" fill="#bd6b20" opacity="0.34"/><circle cx="27.7" cy="320.7" r="3.41" fill="#bd6b20" opacity="0.21"/><circle cx="65.3" cy="320.1" r="3.60" fill="#bd6b20" opacity="0.16"/><circle cx="101.2" cy="318.7" r="3.90" fill="#bd6b20" opacity="0.20"/><circle cx="138.4" cy="318.4" r="2.32" fill="#bd6b20" opacity="0.16"/><circle cx="174.9" cy="320.8" r="3.89" fill="#bd6b20" opacity="0.31"/><circle cx="210.5" cy="318.1" r="3.93" fill="#bd6b20" opacity="0.22"/><circle cx="247.2" cy="315.5" r="3.38" fill="#bd6b20" opacity="0.20"/><circle cx="282.5" cy="315.9" r="2.34" fill="#bd6b20" opacity="0.22"/><circle cx="319.9" cy="315.8" r="2.41" fill="#bd6b20" opacity="0.23"/><circle cx="355.4" cy="319.3" r="2.93" fill="#bd6b20" opacity="0.18"/><circle cx="389.5" cy="320.4" r="3.09" fill="#bd6b20" opacity="0.16"/><circle cx="428.7" cy="316.9" r="1.68" fill="#bd6b20" opacity="0.27"/><circle cx="459.9" cy="317.1" r="2.68" fill="#bd6b20" opacity="0.30"/><circle cx="496.0" cy="319.1" r="2.15" fill="#bd6b20" opacity="0.25"/><circle cx="531.7" cy="320.6" r="3.70" fill="#bd6b20" opacity="0.31"/><circle cx="570.3" cy="319.7" r="2.43" fill="#bd6b20" opacity="0.25"/><circle cx="607.9" cy="317.6" r="2.07" fill="#bd6b20" opacity="0.31"/><circle cx="644.3" cy="321.0" r="2.50" fill="#bd6b20" opacity="0.25"/><circle cx="680.9" cy="317.2" r="2.69" fill="#bd6b20" opacity="0.36"/><circle cx="715.6" cy="315.2" r="2.09" fill="#bd6b20" opacity="0.23"/><circle cx="752.5" cy="315.1" r="3.44" fill="#bd6b20" opacity="0.18"/><circle cx="784.5" cy="316.5" r="1.79" fill="#bd6b20" opacity="0.32"/><circle cx="821.8" cy="319.7" r="1.63" fill="#bd6b20" opacity="0.23"/><circle cx="860.1" cy="317.5" r="3.30" fill="#bd6b20" opacity="0.32"/><circle cx="891.3" cy="317.3" r="1.90" fill="#bd6b20" opacity="0.18"/><circle cx="932.4" cy="318.6" r="1.67" fill="#bd6b20" opacity="0.31"/><circle cx="963.5" cy="316.3" r="2.39" fill="#bd6b20" opacity="0.25"/><circle cx="999.8" cy="319.6" r="2.33" fill="#bd6b20" opacity="0.23"/><circle cx="1036.6" cy="316.1" r="3.08" fill="#bd6b20" opacity="0.30"/><circle cx="1076.6" cy="315.5" r="3.86" fill="#bd6b20" opacity="0.35"/><circle cx="1112.6" cy="319.9" r="1.85" fill="#bd6b20" opacity="0.27"/><circle cx="1145.1" cy="318.9" r="3.93" fill="#bd6b20" opacity="0.35"/><circle cx="1182.5" cy="317.2" r="3.55" fill="#bd6b20" opacity="0.16"/><circle cx="28.6" cy="352.3" r="3.02" fill="#bd6b20" opacity="0.23"/><circle cx="65.6" cy="353.5" r="3.22" fill="#bd6b20" opacity="0.30"/><circle cx="103.6" cy="354.3" r="2.13" fill="#bd6b20" opacity="0.27"/><circle cx="135.9" cy="353.2" r="2.17" fill="#bd6b20" opacity="0.25"/><circle cx="175.4" cy="353.8" r="3.85" fill="#bd6b20" opacity="0.20"/><circle cx="212.4" cy="353.0" r="3.28" fill="#bd6b20" opacity="0.33"/><circle cx="246.6" cy="354.3" r="3.91" fill="#bd6b20" opacity="0.21"/><circle cx="279.4" cy="352.2" r="3.63" fill="#bd6b20" opacity="0.32"/><circle cx="319.4" cy="354.5" r="2.04" fill="#bd6b20" opacity="0.21"/><circle cx="355.4" cy="354.4" r="2.55" fill="#bd6b20" opacity="0.23"/><circle cx="387.7" cy="354.0" r="2.47" fill="#bd6b20" opacity="0.28"/><circle cx="425.3" cy="355.5" r="2.19" fill="#bd6b20" opacity="0.25"/><circle cx="460.3" cy="356.7" r="2.05" fill="#bd6b20" opacity="0.25"/><circle cx="500.3" cy="351.7" r="2.10" fill="#bd6b20" opacity="0.24"/><circle cx="536.6" cy="351.2" r="2.38" fill="#bd6b20" opacity="0.21"/><circle cx="568.5" cy="351.2" r="3.95" fill="#bd6b20" opacity="0.19"/><circle cx="607.4" cy="355.0" r="2.63" fill="#bd6b20" opacity="0.31"/><circle cx="643.3" cy="351.8" r="3.53" fill="#bd6b20" opacity="0.30"/><circle cx="678.7" cy="354.2" r="2.34" fill="#bd6b20" opacity="0.24"/><circle cx="711.3" cy="352.0" r="2.44" fill="#bd6b20" opacity="0.16"/><circle cx="750.3" cy="351.6" r="3.65" fill="#bd6b20" opacity="0.23"/><circle cx="787.5" cy="352.9" r="2.97" fill="#bd6b20" opacity="0.28"/><circle cx="822.3" cy="354.0" r="2.93" fill="#bd6b20" opacity="0.22"/><circle cx="859.1" cy="355.4" r="1.80" fill="#bd6b20" opacity="0.31"/><circle cx="895.7" cy="353.7" r="2.25" fill="#bd6b20" opacity="0.24"/><circle cx="931.0" cy="353.1" r="2.71" fill="#bd6b20" opacity="0.17"/><circle cx="964.6" cy="356.2" r="2.23" fill="#bd6b20" opacity="0.27"/><circle cx="1001.1" cy="354.3" r="3.27" fill="#bd6b20" opacity="0.25"/><circle cx="1038.1" cy="355.9" r="2.59" fill="#bd6b20" opacity="0.16"/><circle cx="1076.6" cy="353.0" r="2.67" fill="#bd6b20" opacity="0.20"/><circle cx="1108.7" cy="354.5" r="1.95" fill="#bd6b20" opacity="0.22"/><circle cx="1144.9" cy="355.9" r="2.83" fill="#bd6b20" opacity="0.20"/><circle cx="1183.0" cy="351.6" r="2.19" fill="#bd6b20" opacity="0.28"/><circle cx="31.5" cy="389.1" r="3.76" fill="#bd6b20" opacity="0.20"/><circle cx="64.9" cy="387.8" r="2.38" fill="#bd6b20" opacity="0.24"/><circle cx="102.9" cy="388.0" r="1.89" fill="#bd6b20" opacity="0.31"/><circle cx="138.3" cy="389.9" r="2.67" fill="#bd6b20" opacity="0.31"/><circle cx="172.7" cy="389.9" r="3.18" fill="#bd6b20" opacity="0.31"/><circle cx="211.3" cy="390.4" r="4.00" fill="#bd6b20" opacity="0.16"/><circle cx="245.6" cy="388.6" r="1.98" fill="#bd6b20" opacity="0.35"/><circle cx="280.6" cy="389.0" r="3.58" fill="#bd6b20" opacity="0.23"/><circle cx="318.1" cy="392.9" r="2.37" fill="#bd6b20" opacity="0.18"/><circle cx="356.9" cy="387.5" r="2.18" fill="#bd6b20" opacity="0.34"/><circle cx="387.6" cy="391.2" r="1.94" fill="#bd6b20" opacity="0.17"/><circle cx="428.5" cy="391.9" r="2.43" fill="#bd6b20" opacity="0.33"/><circle cx="463.4" cy="390.3" r="2.52" fill="#bd6b20" opacity="0.35"/><circle cx="496.9" cy="389.0" r="2.43" fill="#bd6b20" opacity="0.35"/><circle cx="534.1" cy="392.7" r="3.84" fill="#bd6b20" opacity="0.15"/><circle cx="570.7" cy="387.6" r="2.88" fill="#bd6b20" opacity="0.31"/><circle cx="603.3" cy="387.9" r="3.51" fill="#bd6b20" opacity="0.31"/><circle cx="643.5" cy="389.3" r="2.96" fill="#bd6b20" opacity="0.25"/><circle cx="675.3" cy="387.7" r="1.74" fill="#bd6b20" opacity="0.29"/><circle cx="711.8" cy="392.2" r="2.96" fill="#bd6b20" opacity="0.24"/><circle cx="751.5" cy="389.6" r="2.34" fill="#bd6b20" opacity="0.21"/><circle cx="785.1" cy="392.5" r="2.56" fill="#bd6b20" opacity="0.17"/><circle cx="822.4" cy="391.6" r="2.16" fill="#bd6b20" opacity="0.24"/><circle cx="856.1" cy="390.6" r="3.82" fill="#bd6b20" opacity="0.32"/><circle cx="891.5" cy="391.6" r="3.13" fill="#bd6b20" opacity="0.23"/><circle cx="930.1" cy="390.9" r="2.85" fill="#bd6b20" opacity="0.31"/><circle cx="964.3" cy="389.1" r="1.92" fill="#bd6b20" opacity="0.26"/><circle cx="1002.8" cy="391.2" r="3.09" fill="#bd6b20" opacity="0.22"/><circle cx="1036.3" cy="389.2" r="2.62" fill="#bd6b20" opacity="0.21"/><circle cx="1072.1" cy="393.0" r="2.90" fill="#bd6b20" opacity="0.32"/><circle cx="1111.5" cy="390.3" r="2.20" fill="#bd6b20" opacity="0.35"/><circle cx="1148.8" cy="389.2" r="3.08" fill="#bd6b20" opacity="0.16"/><circle cx="1181.9" cy="389.7" r="1.98" fill="#bd6b20" opacity="0.36"/><circle cx="31.1" cy="424.8" r="3.09" fill="#bd6b20" opacity="0.35"/><circle cx="65.9" cy="423.4" r="1.98" fill="#bd6b20" opacity="0.25"/><circle cx="100.9" cy="424.2" r="3.07" fill="#bd6b20" opacity="0.34"/><circle cx="138.4" cy="428.9" r="2.12" fill="#bd6b20" opacity="0.18"/><circle cx="175.4" cy="424.1" r="2.83" fill="#bd6b20" opacity="0.23"/><circle cx="210.2" cy="425.6" r="2.13" fill="#bd6b20" opacity="0.18"/><circle cx="247.2" cy="427.2" r="3.87" fill="#bd6b20" opacity="0.23"/><circle cx="285.0" cy="425.5" r="3.70" fill="#bd6b20" opacity="0.22"/><circle cx="317.2" cy="426.9" r="2.62" fill="#bd6b20" opacity="0.16"/><circle cx="352.3" cy="424.9" r="2.13" fill="#bd6b20" opacity="0.26"/><circle cx="389.4" cy="424.3" r="3.38" fill="#bd6b20" opacity="0.21"/><circle cx="424.7" cy="428.3" r="3.59" fill="#bd6b20" opacity="0.26"/><circle cx="463.0" cy="426.7" r="3.32" fill="#bd6b20" opacity="0.23"/><circle cx="499.1" cy="423.7" r="2.74" fill="#bd6b20" opacity="0.33"/><circle cx="532.8" cy="428.2" r="3.52" fill="#bd6b20" opacity="0.29"/><circle cx="570.5" cy="424.1" r="3.50" fill="#bd6b20" opacity="0.15"/><circle cx="603.9" cy="423.9" r="2.73" fill="#bd6b20" opacity="0.32"/><circle cx="640.1" cy="424.4" r="2.26" fill="#bd6b20" opacity="0.30"/><circle cx="678.6" cy="424.7" r="2.69" fill="#bd6b20" opacity="0.27"/><circle cx="712.9" cy="424.0" r="2.91" fill="#bd6b20" opacity="0.15"/><circle cx="750.2" cy="425.3" r="3.00" fill="#bd6b20" opacity="0.22"/><circle cx="786.3" cy="428.1" r="2.16" fill="#bd6b20" opacity="0.33"/><circle cx="819.3" cy="426.2" r="2.97" fill="#bd6b20" opacity="0.16"/><circle cx="857.6" cy="424.2" r="3.79" fill="#bd6b20" opacity="0.20"/><circle cx="893.8" cy="424.0" r="3.84" fill="#bd6b20" opacity="0.18"/><circle cx="927.6" cy="425.5" r="2.19" fill="#bd6b20" opacity="0.15"/><circle cx="964.3" cy="428.1" r="3.26" fill="#bd6b20" opacity="0.28"/><circle cx="1000.2" cy="425.5" r="3.43" fill="#bd6b20" opacity="0.32"/><circle cx="1040.6" cy="425.0" r="3.26" fill="#bd6b20" opacity="0.36"/><circle cx="1075.2" cy="426.5" r="2.14" fill="#bd6b20" opacity="0.34"/><circle cx="1109.0" cy="426.2" r="3.45" fill="#bd6b20" opacity="0.18"/><circle cx="1146.3" cy="426.1" r="3.42" fill="#bd6b20" opacity="0.17"/><circle cx="1181.6" cy="426.7" r="3.80" fill="#bd6b20" opacity="0.24"/><circle cx="29.0" cy="462.0" r="3.23" fill="#bd6b20" opacity="0.31"/><circle cx="67.1" cy="464.6" r="2.19" fill="#bd6b20" opacity="0.36"/><circle cx="102.6" cy="461.5" r="2.49" fill="#bd6b20" opacity="0.29"/><circle cx="135.2" cy="461.7" r="2.71" fill="#bd6b20" opacity="0.26"/><circle cx="176.3" cy="463.8" r="3.98" fill="#bd6b20" opacity="0.16"/><circle cx="212.5" cy="461.9" r="1.85" fill="#bd6b20" opacity="0.27"/><circle cx="248.7" cy="462.8" r="3.12" fill="#bd6b20" opacity="0.25"/><circle cx="283.0" cy="462.1" r="2.24" fill="#bd6b20" opacity="0.20"/><circle cx="317.2" cy="461.7" r="2.86" fill="#bd6b20" opacity="0.22"/><circle cx="355.5" cy="462.8" r="2.66" fill="#bd6b20" opacity="0.31"/><circle cx="388.1" cy="463.5" r="2.35" fill="#bd6b20" opacity="0.18"/><circle cx="423.9" cy="459.9" r="2.54" fill="#bd6b20" opacity="0.22"/><circle cx="460.3" cy="461.1" r="2.46" fill="#bd6b20" opacity="0.32"/><circle cx="498.0" cy="463.7" r="3.82" fill="#bd6b20" opacity="0.29"/><circle cx="533.0" cy="461.0" r="3.35" fill="#bd6b20" opacity="0.31"/><circle cx="572.8" cy="461.4" r="2.76" fill="#bd6b20" opacity="0.20"/><circle cx="603.3" cy="461.1" r="2.07" fill="#bd6b20" opacity="0.29"/><circle cx="639.2" cy="459.2" r="3.22" fill="#bd6b20" opacity="0.15"/><circle cx="676.1" cy="463.5" r="3.92" fill="#bd6b20" opacity="0.19"/><circle cx="711.8" cy="460.3" r="3.41" fill="#bd6b20" opacity="0.32"/><circle cx="751.9" cy="464.4" r="3.14" fill="#bd6b20" opacity="0.23"/><circle cx="788.5" cy="464.4" r="3.13" fill="#bd6b20" opacity="0.23"/><circle cx="823.9" cy="460.4" r="3.19" fill="#bd6b20" opacity="0.24"/><circle cx="855.3" cy="460.0" r="1.72" fill="#bd6b20" opacity="0.27"/><circle cx="892.6" cy="463.9" r="2.40" fill="#bd6b20" opacity="0.18"/><circle cx="932.3" cy="464.3" r="4.00" fill="#bd6b20" opacity="0.35"/><circle cx="964.7" cy="462.8" r="1.96" fill="#bd6b20" opacity="0.20"/><circle cx="1002.0" cy="460.2" r="2.63" fill="#bd6b20" opacity="0.26"/><circle cx="1036.2" cy="465.0" r="2.55" fill="#bd6b20" opacity="0.22"/><circle cx="1073.4" cy="462.0" r="3.53" fill="#bd6b20" opacity="0.16"/><circle cx="1111.1" cy="459.0" r="3.35" fill="#bd6b20" opacity="0.26"/><circle cx="1143.4" cy="460.9" r="3.46" fill="#bd6b20" opacity="0.23"/><circle cx="1180.1" cy="459.7" r="2.82" fill="#bd6b20" opacity="0.34"/><circle cx="31.7" cy="500.9" r="2.63" fill="#bd6b20" opacity="0.23"/><circle cx="68.6" cy="499.6" r="2.41" fill="#bd6b20" opacity="0.17"/><circle cx="104.7" cy="499.9" r="3.98" fill="#bd6b20" opacity="0.17"/><circle cx="140.5" cy="495.7" r="3.38" fill="#bd6b20" opacity="0.20"/><circle cx="172.4" cy="498.0" r="2.90" fill="#bd6b20" opacity="0.31"/><circle cx="211.3" cy="497.8" r="3.31" fill="#bd6b20" opacity="0.25"/><circle cx="244.2" cy="495.1" r="3.95" fill="#bd6b20" opacity="0.28"/><circle cx="281.2" cy="497.0" r="3.51" fill="#bd6b20" opacity="0.20"/><circle cx="320.7" cy="498.2" r="1.86" fill="#bd6b20" opacity="0.17"/><circle cx="356.7" cy="495.8" r="2.00" fill="#bd6b20" opacity="0.34"/><circle cx="392.0" cy="499.7" r="3.75" fill="#bd6b20" opacity="0.15"/><circle cx="424.0" cy="495.8" r="2.88" fill="#bd6b20" opacity="0.31"/><circle cx="460.2" cy="496.9" r="2.38" fill="#bd6b20" opacity="0.28"/><circle cx="500.0" cy="496.8" r="2.99" fill="#bd6b20" opacity="0.17"/><circle cx="532.2" cy="497.4" r="2.67" fill="#bd6b20" opacity="0.34"/><circle cx="569.3" cy="496.8" r="2.45" fill="#bd6b20" opacity="0.26"/><circle cx="607.7" cy="500.4" r="2.08" fill="#bd6b20" opacity="0.25"/><circle cx="644.4" cy="499.3" r="3.18" fill="#bd6b20" opacity="0.28"/><circle cx="677.4" cy="496.5" r="3.34" fill="#bd6b20" opacity="0.27"/><circle cx="713.1" cy="500.2" r="2.53" fill="#bd6b20" opacity="0.32"/><circle cx="748.8" cy="495.3" r="3.66" fill="#bd6b20" opacity="0.35"/><circle cx="784.6" cy="496.9" r="3.04" fill="#bd6b20" opacity="0.22"/><circle cx="819.6" cy="499.4" r="3.13" fill="#bd6b20" opacity="0.27"/><circle cx="858.2" cy="499.1" r="2.99" fill="#bd6b20" opacity="0.34"/><circle cx="893.6" cy="500.1" r="3.37" fill="#bd6b20" opacity="0.29"/><circle cx="931.1" cy="500.8" r="3.62" fill="#bd6b20" opacity="0.29"/><circle cx="965.1" cy="496.2" r="2.44" fill="#bd6b20" opacity="0.35"/><circle cx="1001.6" cy="495.9" r="1.69" fill="#bd6b20" opacity="0.31"/><circle cx="1037.6" cy="496.5" r="2.29" fill="#bd6b20" opacity="0.31"/><circle cx="1071.4" cy="500.4" r="2.29" fill="#bd6b20" opacity="0.31"/><circle cx="1110.5" cy="496.0" r="3.05" fill="#bd6b20" opacity="0.33"/><circle cx="1145.4" cy="496.7" r="3.60" fill="#bd6b20" opacity="0.20"/><circle cx="1183.2" cy="497.7" r="3.99" fill="#bd6b20" opacity="0.16"/><circle cx="29.4" cy="534.6" r="2.61" fill="#bd6b20" opacity="0.35"/><circle cx="67.9" cy="535.5" r="3.35" fill="#bd6b20" opacity="0.21"/><circle cx="100.5" cy="532.1" r="2.80" fill="#bd6b20" opacity="0.19"/><circle cx="140.4" cy="535.0" r="3.77" fill="#bd6b20" opacity="0.16"/><circle cx="174.7" cy="531.1" r="2.45" fill="#bd6b20" opacity="0.32"/><circle cx="212.1" cy="532.2" r="1.67" fill="#bd6b20" opacity="0.32"/><circle cx="245.9" cy="531.2" r="2.72" fill="#bd6b20" opacity="0.28"/><circle cx="284.4" cy="534.2" r="3.76" fill="#bd6b20" opacity="0.28"/><circle cx="319.9" cy="535.8" r="3.93" fill="#bd6b20" opacity="0.21"/><circle cx="352.9" cy="532.1" r="2.26" fill="#bd6b20" opacity="0.22"/><circle cx="387.7" cy="531.2" r="2.15" fill="#bd6b20" opacity="0.33"/><circle cx="425.4" cy="536.9" r="1.64" fill="#bd6b20" opacity="0.18"/><circle cx="459.7" cy="531.8" r="2.84" fill="#bd6b20" opacity="0.23"/><circle cx="500.0" cy="534.0" r="1.97" fill="#bd6b20" opacity="0.22"/><circle cx="535.8" cy="531.4" r="3.82" fill="#bd6b20" opacity="0.33"/><circle cx="572.8" cy="535.9" r="1.99" fill="#bd6b20" opacity="0.16"/><circle cx="606.6" cy="536.2" r="2.86" fill="#bd6b20" opacity="0.23"/><circle cx="641.1" cy="531.1" r="3.50" fill="#bd6b20" opacity="0.22"/><circle cx="678.7" cy="534.2" r="3.97" fill="#bd6b20" opacity="0.31"/><circle cx="712.4" cy="532.8" r="3.58" fill="#bd6b20" opacity="0.25"/><circle cx="752.9" cy="534.2" r="3.91" fill="#bd6b20" opacity="0.30"/><circle cx="786.5" cy="534.0" r="2.19" fill="#bd6b20" opacity="0.16"/><circle cx="823.8" cy="534.6" r="3.58" fill="#bd6b20" opacity="0.32"/><circle cx="859.5" cy="536.5" r="2.11" fill="#bd6b20" opacity="0.19"/><circle cx="895.6" cy="535.9" r="3.47" fill="#bd6b20" opacity="0.18"/><circle cx="930.7" cy="536.9" r="2.07" fill="#bd6b20" opacity="0.21"/><circle cx="964.6" cy="531.2" r="1.70" fill="#bd6b20" opacity="0.34"/><circle cx="999.4" cy="536.6" r="2.50" fill="#bd6b20" opacity="0.19"/><circle cx="1035.4" cy="533.2" r="2.33" fill="#bd6b20" opacity="0.24"/><circle cx="1072.3" cy="534.8" r="1.60" fill="#bd6b20" opacity="0.16"/><circle cx="1112.7" cy="531.1" r="2.62" fill="#bd6b20" opacity="0.32"/><circle cx="1144.1" cy="536.6" r="3.84" fill="#bd6b20" opacity="0.21"/><circle cx="1183.3" cy="533.0" r="3.27" fill="#bd6b20" opacity="0.29"/><circle cx="30.6" cy="571.7" r="3.27" fill="#bd6b20" opacity="0.17"/><circle cx="68.1" cy="571.3" r="2.09" fill="#bd6b20" opacity="0.33"/><circle cx="102.5" cy="568.7" r="2.30" fill="#bd6b20" opacity="0.31"/><circle cx="139.8" cy="572.6" r="3.39" fill="#bd6b20" opacity="0.18"/><circle cx="172.9" cy="572.8" r="3.18" fill="#bd6b20" opacity="0.25"/><circle cx="208.8" cy="572.4" r="3.73" fill="#bd6b20" opacity="0.28"/><circle cx="247.7" cy="567.3" r="2.73" fill="#bd6b20" opacity="0.35"/><circle cx="280.5" cy="568.2" r="2.82" fill="#bd6b20" opacity="0.30"/><circle cx="317.8" cy="567.6" r="2.29" fill="#bd6b20" opacity="0.36"/><circle cx="353.1" cy="572.7" r="2.45" fill="#bd6b20" opacity="0.23"/><circle cx="389.8" cy="570.6" r="3.66" fill="#bd6b20" opacity="0.27"/><circle cx="427.2" cy="570.3" r="1.72" fill="#bd6b20" opacity="0.24"/><circle cx="461.5" cy="572.6" r="2.13" fill="#bd6b20" opacity="0.17"/><circle cx="496.1" cy="567.7" r="3.77" fill="#bd6b20" opacity="0.29"/><circle cx="532.0" cy="570.6" r="3.89" fill="#bd6b20" opacity="0.15"/><circle cx="568.4" cy="572.1" r="3.66" fill="#bd6b20" opacity="0.36"/><circle cx="604.4" cy="571.4" r="3.48" fill="#bd6b20" opacity="0.22"/><circle cx="639.3" cy="570.0" r="3.89" fill="#bd6b20" opacity="0.36"/><circle cx="678.9" cy="572.4" r="3.88" fill="#bd6b20" opacity="0.33"/><circle cx="712.5" cy="569.5" r="3.34" fill="#bd6b20" opacity="0.36"/><circle cx="747.4" cy="569.0" r="3.77" fill="#bd6b20" opacity="0.33"/><circle cx="784.8" cy="571.0" r="1.66" fill="#bd6b20" opacity="0.16"/><circle cx="824.6" cy="571.5" r="2.45" fill="#bd6b20" opacity="0.35"/><circle cx="858.7" cy="567.2" r="2.43" fill="#bd6b20" opacity="0.24"/><circle cx="894.5" cy="567.6" r="2.27" fill="#bd6b20" opacity="0.33"/><circle cx="930.6" cy="569.1" r="4.00" fill="#bd6b20" opacity="0.20"/><circle cx="967.1" cy="571.0" r="2.51" fill="#bd6b20" opacity="0.30"/><circle cx="1002.2" cy="567.6" r="2.88" fill="#bd6b20" opacity="0.18"/><circle cx="1039.6" cy="570.9" r="2.76" fill="#bd6b20" opacity="0.28"/><circle cx="1071.8" cy="567.8" r="3.17" fill="#bd6b20" opacity="0.22"/><circle cx="1109.1" cy="570.4" r="1.98" fill="#bd6b20" opacity="0.28"/><circle cx="1146.3" cy="568.2" r="3.66" fill="#bd6b20" opacity="0.36"/><circle cx="1179.7" cy="567.4" r="3.09" fill="#bd6b20" opacity="0.35"/><circle cx="32.4" cy="608.8" r="3.23" fill="#bd6b20" opacity="0.28"/><circle cx="67.0" cy="607.3" r="1.96" fill="#bd6b20" opacity="0.21"/><circle cx="101.3" cy="606.2" r="2.93" fill="#bd6b20" opacity="0.21"/><circle cx="137.1" cy="606.3" r="2.91" fill="#bd6b20" opacity="0.24"/><circle cx="175.8" cy="603.6" r="1.79" fill="#bd6b20" opacity="0.23"/><circle cx="211.0" cy="603.2" r="1.67" fill="#bd6b20" opacity="0.16"/><circle cx="248.8" cy="608.9" r="3.89" fill="#bd6b20" opacity="0.20"/><circle cx="280.7" cy="604.1" r="1.72" fill="#bd6b20" opacity="0.30"/><circle cx="320.2" cy="603.0" r="2.15" fill="#bd6b20" opacity="0.31"/><circle cx="352.3" cy="606.1" r="2.66" fill="#bd6b20" opacity="0.16"/><circle cx="388.0" cy="605.6" r="3.66" fill="#bd6b20" opacity="0.27"/><circle cx="428.1" cy="607.8" r="2.86" fill="#bd6b20" opacity="0.30"/><circle cx="460.5" cy="603.5" r="3.79" fill="#bd6b20" opacity="0.22"/><circle cx="497.9" cy="607.4" r="2.94" fill="#bd6b20" opacity="0.28"/><circle cx="532.2" cy="607.3" r="2.50" fill="#bd6b20" opacity="0.30"/><circle cx="572.2" cy="607.4" r="3.19" fill="#bd6b20" opacity="0.21"/><circle cx="605.6" cy="606.9" r="3.82" fill="#bd6b20" opacity="0.18"/><circle cx="643.9" cy="608.4" r="2.12" fill="#bd6b20" opacity="0.15"/><circle cx="676.7" cy="604.7" r="2.82" fill="#bd6b20" opacity="0.16"/><circle cx="712.8" cy="606.0" r="3.21" fill="#bd6b20" opacity="0.21"/><circle cx="747.7" cy="603.6" r="1.88" fill="#bd6b20" opacity="0.27"/><circle cx="783.7" cy="608.5" r="2.39" fill="#bd6b20" opacity="0.19"/><circle cx="824.9" cy="603.8" r="1.68" fill="#bd6b20" opacity="0.19"/><circle cx="860.7" cy="606.3" r="3.90" fill="#bd6b20" opacity="0.25"/><circle cx="896.0" cy="606.1" r="2.62" fill="#bd6b20" opacity="0.21"/><circle cx="932.5" cy="605.4" r="2.92" fill="#bd6b20" opacity="0.30"/><circle cx="964.1" cy="607.9" r="3.98" fill="#bd6b20" opacity="0.26"/><circle cx="1004.8" cy="605.3" r="1.68" fill="#bd6b20" opacity="0.20"/><circle cx="1037.1" cy="606.3" r="3.69" fill="#bd6b20" opacity="0.26"/><circle cx="1074.3" cy="605.7" r="2.97" fill="#bd6b20" opacity="0.33"/><circle cx="1110.3" cy="605.6" r="3.86" fill="#bd6b20" opacity="0.36"/><circle cx="1144.3" cy="603.4" r="2.20" fill="#bd6b20" opacity="0.22"/><circle cx="1181.7" cy="608.0" r="3.13" fill="#bd6b20" opacity="0.32"/><circle cx="28.4" cy="642.0" r="1.77" fill="#bd6b20" opacity="0.19"/><circle cx="67.4" cy="643.0" r="3.95" fill="#bd6b20" opacity="0.27"/><circle cx="100.2" cy="644.9" r="3.79" fill="#bd6b20" opacity="0.18"/><circle cx="136.1" cy="640.3" r="2.01" fill="#bd6b20" opacity="0.19"/><circle cx="175.7" cy="640.3" r="2.41" fill="#bd6b20" opacity="0.23"/><circle cx="209.2" cy="643.1" r="2.14" fill="#bd6b20" opacity="0.26"/><circle cx="244.8" cy="639.7" r="2.68" fill="#bd6b20" opacity="0.17"/><circle cx="280.4" cy="640.3" r="2.27" fill="#bd6b20" opacity="0.27"/><circle cx="320.8" cy="641.0" r="4.00" fill="#bd6b20" opacity="0.32"/><circle cx="353.0" cy="641.8" r="1.62" fill="#bd6b20" opacity="0.34"/><circle cx="391.2" cy="641.8" r="1.96" fill="#bd6b20" opacity="0.23"/><circle cx="425.7" cy="640.7" r="3.21" fill="#bd6b20" opacity="0.17"/><circle cx="461.2" cy="644.6" r="3.49" fill="#bd6b20" opacity="0.15"/><circle cx="496.9" cy="639.6" r="2.63" fill="#bd6b20" opacity="0.17"/><circle cx="533.2" cy="643.8" r="3.00" fill="#bd6b20" opacity="0.20"/><circle cx="572.9" cy="639.1" r="3.93" fill="#bd6b20" opacity="0.16"/><circle cx="608.5" cy="639.3" r="2.30" fill="#bd6b20" opacity="0.15"/><circle cx="641.2" cy="639.7" r="3.53" fill="#bd6b20" opacity="0.23"/><circle cx="679.5" cy="641.6" r="3.28" fill="#bd6b20" opacity="0.29"/><circle cx="712.7" cy="642.1" r="3.44" fill="#bd6b20" opacity="0.20"/><circle cx="752.8" cy="639.5" r="1.98" fill="#bd6b20" opacity="0.17"/><circle cx="783.8" cy="642.7" r="3.25" fill="#bd6b20" opacity="0.28"/><circle cx="820.5" cy="641.5" r="2.49" fill="#bd6b20" opacity="0.35"/><circle cx="858.9" cy="640.3" r="2.05" fill="#bd6b20" opacity="0.30"/><circle cx="894.0" cy="641.0" r="3.83" fill="#bd6b20" opacity="0.22"/><circle cx="931.1" cy="642.1" r="1.99" fill="#bd6b20" opacity="0.17"/><circle cx="966.0" cy="640.6" r="3.90" fill="#bd6b20" opacity="0.26"/><circle cx="1001.2" cy="643.2" r="2.69" fill="#bd6b20" opacity="0.30"/><circle cx="1039.3" cy="640.7" r="2.33" fill="#bd6b20" opacity="0.27"/><circle cx="1071.7" cy="641.4" r="2.48" fill="#bd6b20" opacity="0.23"/><circle cx="1107.1" cy="644.1" r="3.59" fill="#bd6b20" opacity="0.24"/><circle cx="1143.6" cy="644.1" r="2.08" fill="#bd6b20" opacity="0.24"/><circle cx="1181.7" cy="644.3" r="2.23" fill="#bd6b20" opacity="0.21"/><circle cx="208.3" cy="221.6" r="220" fill="url(#glow)" opacity="0.9"/>
  <g opacity="0.85" transform="translate(1020, 495)">
        <circle r="68" fill="none" stroke="#bd6b20" stroke-width="2" opacity="0.35"/>
        <path d="M -38 12 L 38 12 M -32 -8 L 32 -8 M -45 -28 L 45 -28" stroke="#9a5518" stroke-width="3" stroke-linecap="round"/>
        <rect x="-50" y="-44" width="100" height="80" fill="none" stroke="#bd6b20" stroke-width="2"/>
      </g>
  <g transform="translate(80, 90)">
    <rect x="0" y="0" rx="20" ry="20" width="112" height="38" fill="#bd6b20" opacity="0.18" stroke="#bd6b20" stroke-width="1.5"/>
    <text x="56" y="25" font-family="ui-sans-serif, Inter, sans-serif" font-weight="700" font-size="14" letter-spacing="2.5" fill="#bd6b20" text-anchor="middle">NEWSROOM</text>
  </g>
  <text x="80" y="465" font-family="ui-sans-serif, -apple-system, Segoe UI, Inter, sans-serif" font-weight="800" font-size="44" fill="#12100e" opacity="0.98"><tspan x="80" dy="0">What Happens After an</tspan><tspan x="80" dy="56">Arbitral Award? Finality,</tspan><tspan x="80" dy="56">Enforcement &amp; Challenges</tspan></text>
  <rect x="0" y="669" width="1200" height="6" fill="url(#gold)"/>
</svg>