<?xml version="1.0" encoding="UTF-8"?>
<svg xmlns="http://www.w3.org/2000/svg" viewBox="0 0 1200 675" width="1200" height="675" role="img" aria-label="PDR COURT: Leading ODR with Instant Verification &amp; Analytics">
  <defs>
    <linearGradient id="bg" x1="0%" y1="0%" x2="100%" y2="100%">
      <stop offset="0%" stop-color="#faf8f5"/>
      <stop offset="100%" stop-color="#f4efe8"/>
    </linearGradient>
    <linearGradient id="gold" x1="0%" y1="0%" x2="100%" y2="100%">
      <stop offset="0%" stop-color="#bd6b20"/>
      <stop offset="100%" stop-color="#9a5518"/>
    </linearGradient>
    <radialGradient id="glow" cx="50%" cy="50%" r="50%">
      <stop offset="0%" stop-color="#bd6b20" stop-opacity="0.45"/>
      <stop offset="100%" stop-color="#bd6b20" stop-opacity="0"/>
    </radialGradient>
  </defs>
  <rect width="1200" height="675" fill="url(#bg)"/>
  <rect x="-676.7" y="-80" width="62.4" height="875" transform="rotate(18 -676.7 337.5)" fill="#bd6b20" opacity="0.19"/><rect x="-495.3" y="-80" width="129.7" height="875" transform="rotate(18 -495.3 337.5)" fill="#bd6b20" opacity="0.18"/><rect x="-287.9" y="-80" width="85.1" height="875" transform="rotate(18 -287.9 337.5)" fill="#bd6b20" opacity="0.19"/><rect x="-154.3" y="-80" width="72.1" height="875" transform="rotate(18 -154.3 337.5)" fill="#bd6b20" opacity="0.15"/><rect x="76.9" y="-80" width="75.5" height="875" transform="rotate(18 76.9 337.5)" fill="#bd6b20" opacity="0.16"/><rect x="206.4" y="-80" width="61.2" height="875" transform="rotate(18 206.4 337.5)" fill="#bd6b20" opacity="0.06"/><rect x="404.7" y="-80" width="87.9" height="875" transform="rotate(18 404.7 337.5)" fill="#bd6b20" opacity="0.19"/><rect x="619.9" y="-80" width="85.0" height="875" transform="rotate(18 619.9 337.5)" fill="#bd6b20" opacity="0.15"/><rect x="756.0" y="-80" width="98.3" height="875" transform="rotate(18 756.0 337.5)" fill="#bd6b20" opacity="0.06"/><rect x="909.1" y="-80" width="131.8" height="875" transform="rotate(18 909.1 337.5)" fill="#bd6b20" opacity="0.14"/><rect x="1081.8" y="-80" width="66.4" height="875" transform="rotate(18 1081.8 337.5)" fill="#bd6b20" opacity="0.20"/><rect x="1326.3" y="-80" width="133.1" height="875" transform="rotate(18 1326.3 337.5)" fill="#bd6b20" opacity="0.08"/><rect x="1449.8" y="-80" width="70.1" height="875" transform="rotate(18 1449.8 337.5)" fill="#bd6b20" opacity="0.09"/><rect x="1679.4" y="-80" width="100.0" height="875" transform="rotate(18 1679.4 337.5)" fill="#bd6b20" opacity="0.13"/><rect x="0" y="0" width="1200" height="675" fill="url(#glow)" opacity="0.6"/>
  <g opacity="0.85" transform="translate(1020, 495)">
        <rect x="-46" y="-60" width="92" height="115" fill="#bd6b20" opacity="0.18" rx="6"/>
        <path d="M -28 -36 L 28 -36 M -28 -12 L 28 -12 M -28 12 L 18 12 M -28 36 L 28 36" stroke="#9a5518" stroke-width="3" stroke-linecap="round"/>
      </g>
  <g transform="translate(80, 90)">
    <rect x="0" y="0" rx="20" ry="20" width="101" height="38" fill="#bd6b20" opacity="0.18" stroke="#bd6b20" stroke-width="1.5"/>
    <text x="50.5" y="25" font-family="ui-sans-serif, Inter, sans-serif" font-weight="700" font-size="14" letter-spacing="2.5" fill="#bd6b20" text-anchor="middle">ARTICLE</text>
  </g>
  <text x="80" y="465" font-family="ui-sans-serif, -apple-system, Segoe UI, Inter, sans-serif" font-weight="800" font-size="44" fill="#12100e" opacity="0.98"><tspan x="80" dy="0">PDR COURT: Leading ODR</tspan><tspan x="80" dy="56">with Instant Verification</tspan><tspan x="80" dy="56">&amp; Analytics</tspan></text>
  <rect x="0" y="669" width="1200" height="6" fill="url(#gold)"/>
</svg>