<?xml version="1.0" encoding="UTF-8"?>
<svg xmlns="http://www.w3.org/2000/svg" viewBox="0 0 1200 675" width="1200" height="675" role="img" aria-label="Why Did Yuvraj Singh End up in an Arbitration with a Real Estate Agency?">
  <defs>
    <linearGradient id="bg" x1="0%" y1="0%" x2="100%" y2="100%">
      <stop offset="0%" stop-color="#faf8f5"/>
      <stop offset="100%" stop-color="#f4efe8"/>
    </linearGradient>
    <linearGradient id="gold" x1="0%" y1="0%" x2="100%" y2="100%">
      <stop offset="0%" stop-color="#bd6b20"/>
      <stop offset="100%" stop-color="#9a5518"/>
    </linearGradient>
    <radialGradient id="glow" cx="50%" cy="50%" r="50%">
      <stop offset="0%" stop-color="#bd6b20" stop-opacity="0.45"/>
      <stop offset="100%" stop-color="#bd6b20" stop-opacity="0"/>
    </radialGradient>
  </defs>
  <rect width="1200" height="675" fill="url(#bg)"/>
  <rect x="-655.1" y="-80" width="130.2" height="875" transform="rotate(18 -655.1 337.5)" fill="#bd6b20" opacity="0.15"/><rect x="-474.5" y="-80" width="94.0" height="875" transform="rotate(18 -474.5 337.5)" fill="#bd6b20" opacity="0.20"/><rect x="-281.0" y="-80" width="92.4" height="875" transform="rotate(18 -281.0 337.5)" fill="#bd6b20" opacity="0.13"/><rect x="-130.9" y="-80" width="66.8" height="875" transform="rotate(18 -130.9 337.5)" fill="#bd6b20" opacity="0.09"/><rect x="18.2" y="-80" width="117.5" height="875" transform="rotate(18 18.2 337.5)" fill="#bd6b20" opacity="0.19"/><rect x="203.1" y="-80" width="64.4" height="875" transform="rotate(18 203.1 337.5)" fill="#bd6b20" opacity="0.16"/><rect x="362.4" y="-80" width="132.5" height="875" transform="rotate(18 362.4 337.5)" fill="#bd6b20" opacity="0.17"/><rect x="604.3" y="-80" width="92.8" height="875" transform="rotate(18 604.3 337.5)" fill="#bd6b20" opacity="0.15"/><rect x="743.2" y="-80" width="61.1" height="875" transform="rotate(18 743.2 337.5)" fill="#bd6b20" opacity="0.20"/><rect x="941.0" y="-80" width="87.1" height="875" transform="rotate(18 941.0 337.5)" fill="#bd6b20" opacity="0.19"/><rect x="1116.4" y="-80" width="104.5" height="875" transform="rotate(18 1116.4 337.5)" fill="#bd6b20" opacity="0.15"/><rect x="1310.2" y="-80" width="96.4" height="875" transform="rotate(18 1310.2 337.5)" fill="#bd6b20" opacity="0.08"/><rect x="1480.1" y="-80" width="97.9" height="875" transform="rotate(18 1480.1 337.5)" fill="#bd6b20" opacity="0.06"/><rect x="1699.6" y="-80" width="115.2" height="875" transform="rotate(18 1699.6 337.5)" fill="#bd6b20" opacity="0.05"/><rect x="0" y="0" width="1200" height="675" fill="url(#glow)" opacity="0.6"/>
  <g opacity="0.85" transform="translate(1020, 495)">
        <circle r="68" fill="none" stroke="#bd6b20" stroke-width="2" opacity="0.35"/>
        <path d="M -38 12 L 38 12 M -32 -8 L 32 -8 M -45 -28 L 45 -28" stroke="#9a5518" stroke-width="3" stroke-linecap="round"/>
        <rect x="-50" y="-44" width="100" height="80" fill="none" stroke="#bd6b20" stroke-width="2"/>
      </g>
  <g transform="translate(80, 90)">
    <rect x="0" y="0" rx="20" ry="20" width="112" height="38" fill="#bd6b20" opacity="0.18" stroke="#bd6b20" stroke-width="1.5"/>
    <text x="56" y="25" font-family="ui-sans-serif, Inter, sans-serif" font-weight="700" font-size="14" letter-spacing="2.5" fill="#bd6b20" text-anchor="middle">NEWSROOM</text>
  </g>
  <text x="80" y="465" font-family="ui-sans-serif, -apple-system, Segoe UI, Inter, sans-serif" font-weight="800" font-size="44" fill="#12100e" opacity="0.98"><tspan x="80" dy="0">Why Did Yuvraj Singh End</tspan><tspan x="80" dy="56">up in an Arbitration with</tspan><tspan x="80" dy="56">a Real Estate Agency?</tspan></text>
  <rect x="0" y="669" width="1200" height="6" fill="url(#gold)"/>
</svg>